<?xml version="1.0" encoding="UTF-8" standalone="no"?>
<!DOCTYPE svg PUBLIC "-//W3C//DTD SVG 1.1//EN"
 "http://www.w3.org/Graphics/SVG/1.1/DTD/svg11.dtd">
<!-- Generated by graphviz version 2.36.0 (20140111.2315)
 -->
<!-- Title: /home/travis/build/AliceO2Group/AliceO2/Detectors/TPC/reconstruction/src/DigitalCurrentClusterIntegrator.cxx Pages: 1 -->
<svg width="1475pt" height="658pt"
 viewBox="0.00 0.00 1475.00 658.00" xmlns="http://www.w3.org/2000/svg" xmlns:xlink="http://www.w3.org/1999/xlink">
<g id="graph0" class="graph" transform="scale(1 1) rotate(0) translate(4 654)">
<title>/home/travis/build/AliceO2Group/AliceO2/Detectors/TPC/reconstruction/src/DigitalCurrentClusterIntegrator.cxx</title>
<!-- Node1 -->
<g id="node1" class="node"><title>Node1</title>
<polygon fill="#bfbfbf" stroke="black" points="128,-597 128,-649 316,-649 316,-597 128,-597"/>
<text text-anchor="start" x="136" y="-637" font-family="Helvetica,sans-Serif" font-size="10.00">/home/travis/build</text>
<text text-anchor="start" x="136" y="-626" font-family="Helvetica,sans-Serif" font-size="10.00">/AliceO2Group/AliceO2</text>
<text text-anchor="start" x="136" y="-615" font-family="Helvetica,sans-Serif" font-size="10.00">/Detectors/TPC/reconstruction</text>
<text text-anchor="middle" x="222" y="-604" font-family="Helvetica,sans-Serif" font-size="10.00">/src/DigitalCurrentClusterIntegrator.cxx</text>
</g>
<!-- Node2 -->
<g id="node2" class="node"><title>Node2</title>
<g id="a_node2"><a xlink:href="../../db/d19/DigitalCurrentClusterIntegrator_8h.html" target="_top" xlink:title="TPCReconstruction/Digital\lCurrentClusterIntegrator.h">
<polygon fill="none" stroke="black" points="155,-529 155,-559 289,-559 289,-529 155,-529"/>
<text text-anchor="start" x="163" y="-547" font-family="Helvetica,sans-Serif" font-size="10.00">TPCReconstruction/Digital</text>
<text text-anchor="middle" x="222" y="-536" font-family="Helvetica,sans-Serif" font-size="10.00">CurrentClusterIntegrator.h</text>
</a>
</g>
</g>
<!-- Node1&#45;&gt;Node2 -->
<g id="edge1" class="edge"><title>Node1&#45;&gt;Node2</title>
<path fill="none" stroke="midnightblue" d="M222,-596.787C222,-588.029 222,-578.225 222,-569.523"/>
<polygon fill="midnightblue" stroke="midnightblue" points="225.5,-569.252 222,-559.252 218.5,-569.252 225.5,-569.252"/>
</g>
<!-- Node3 -->
<g id="node3" class="node"><title>Node3</title>
<polygon fill="none" stroke="#bfbfbf" points="213,-360.5 213,-379.5 257,-379.5 257,-360.5 213,-360.5"/>
<text text-anchor="middle" x="235" y="-367.5" font-family="Helvetica,sans-Serif" font-size="10.00">vector</text>
</g>
<!-- Node2&#45;&gt;Node3 -->
<g id="edge2" class="edge"><title>Node2&#45;&gt;Node3</title>
<path fill="none" stroke="midnightblue" d="M223.064,-528.925C225.396,-498.073 230.958,-424.484 233.582,-389.755"/>
<polygon fill="midnightblue" stroke="midnightblue" points="237.087,-389.82 234.351,-379.585 230.107,-389.292 237.087,-389.82"/>
</g>
<!-- Node4 -->
<g id="node4" class="node"><title>Node4</title>
<polygon fill="none" stroke="#bfbfbf" points="671,-472.5 671,-491.5 723,-491.5 723,-472.5 671,-472.5"/>
<text text-anchor="middle" x="697" y="-479.5" font-family="Helvetica,sans-Serif" font-size="10.00">memory</text>
</g>
<!-- Node2&#45;&gt;Node4 -->
<g id="edge3" class="edge"><title>Node2&#45;&gt;Node4</title>
<path fill="none" stroke="midnightblue" d="M289.336,-537.9C373.812,-530.895 523.205,-516.501 660.85,-491.78"/>
<polygon fill="midnightblue" stroke="midnightblue" points="661.527,-495.214 670.739,-489.982 660.275,-488.327 661.527,-495.214"/>
</g>
<!-- Node5 -->
<g id="node5" class="node"><title>Node5</title>
<g id="a_node5"><a xlink:href="../../de/dcd/ClusterNative_8h.html" target="_top" xlink:title="Class of a TPC cluster in TPC&#45;native coordinates (row, time) ">
<polygon fill="none" stroke="black" points="28.5,-416.5 28.5,-435.5 193.5,-435.5 193.5,-416.5 28.5,-416.5"/>
<text text-anchor="middle" x="111" y="-423.5" font-family="Helvetica,sans-Serif" font-size="10.00">DataFormatsTPC/ClusterNative.h</text>
</a>
</g>
</g>
<!-- Node2&#45;&gt;Node5 -->
<g id="edge4" class="edge"><title>Node2&#45;&gt;Node5</title>
<path fill="none" stroke="midnightblue" d="M208.389,-528.776C187.662,-507.116 148.301,-465.981 126.501,-443.2"/>
<polygon fill="midnightblue" stroke="midnightblue" points="128.774,-440.512 119.332,-435.707 123.717,-445.352 128.774,-440.512"/>
</g>
<!-- Node6 -->
<g id="node6" class="node"><title>Node6</title>
<g id="a_node6"><a xlink:href="../../d6/d51/TPC_2base_2include_2TPCBase_2Constants_8h.html" target="_top" xlink:title="TPCBase/Constants.h">
<polygon fill="none" stroke="black" points="53,-192.5 53,-211.5 169,-211.5 169,-192.5 53,-192.5"/>
<text text-anchor="middle" x="111" y="-199.5" font-family="Helvetica,sans-Serif" font-size="10.00">TPCBase/Constants.h</text>
</a>
</g>
</g>
<!-- Node2&#45;&gt;Node6 -->
<g id="edge7" class="edge"><title>Node2&#45;&gt;Node6</title>
<path fill="none" stroke="midnightblue" d="M154.79,-536.161C89.4499,-525.358 0,-497.665 0,-427 0,-427 0,-427 0,-313 0,-266.824 49.0635,-233.426 81.9516,-216.226"/>
<polygon fill="midnightblue" stroke="midnightblue" points="83.7863,-219.221 91.1554,-211.609 80.6476,-212.964 83.7863,-219.221"/>
</g>
<!-- Node7 -->
<g id="node7" class="node"><title>Node7</title>
<g id="a_node7"><a xlink:href="../../d7/d2c/Mapper_8h.html" target="_top" xlink:title="TPCBase/Mapper.h">
<polygon fill="none" stroke="black" points="549.5,-472.5 549.5,-491.5 652.5,-491.5 652.5,-472.5 549.5,-472.5"/>
<text text-anchor="middle" x="601" y="-479.5" font-family="Helvetica,sans-Serif" font-size="10.00">TPCBase/Mapper.h</text>
</a>
</g>
</g>
<!-- Node2&#45;&gt;Node7 -->
<g id="edge8" class="edge"><title>Node2&#45;&gt;Node7</title>
<path fill="none" stroke="midnightblue" d="M289.321,-532.342C360.135,-521.132 470.632,-503.639 539.268,-492.773"/>
<polygon fill="midnightblue" stroke="midnightblue" points="540.167,-496.174 549.497,-491.154 539.072,-489.26 540.167,-496.174"/>
</g>
<!-- Node5&#45;&gt;Node3 -->
<g id="edge5" class="edge"><title>Node5&#45;&gt;Node3</title>
<path fill="none" stroke="midnightblue" d="M130.648,-416.444C150.965,-407.596 182.903,-393.687 206.098,-383.586"/>
<polygon fill="midnightblue" stroke="midnightblue" points="207.673,-386.718 215.444,-379.516 204.878,-380.3 207.673,-386.718"/>
</g>
<!-- Node5&#45;&gt;Node6 -->
<g id="edge6" class="edge"><title>Node5&#45;&gt;Node6</title>
<path fill="none" stroke="midnightblue" d="M111,-416.297C111,-383.633 111,-267.866 111,-221.957"/>
<polygon fill="midnightblue" stroke="midnightblue" points="114.5,-221.884 111,-211.884 107.5,-221.884 114.5,-221.884"/>
</g>
<!-- Node7&#45;&gt;Node3 -->
<g id="edge10" class="edge"><title>Node7&#45;&gt;Node3</title>
<path fill="none" stroke="midnightblue" d="M549.377,-478.432C471.363,-473.765 327.868,-461.876 284,-436 265.428,-425.045 251.588,-404.059 243.437,-388.89"/>
<polygon fill="midnightblue" stroke="midnightblue" points="246.542,-387.275 238.909,-379.927 240.293,-390.431 246.542,-387.275"/>
</g>
<!-- Node8 -->
<g id="node8" class="node"><title>Node8</title>
<polygon fill="none" stroke="#bfbfbf" points="556.5,-416.5 556.5,-435.5 591.5,-435.5 591.5,-416.5 556.5,-416.5"/>
<text text-anchor="middle" x="574" y="-423.5" font-family="Helvetica,sans-Serif" font-size="10.00">map</text>
</g>
<!-- Node7&#45;&gt;Node8 -->
<g id="edge9" class="edge"><title>Node7&#45;&gt;Node8</title>
<path fill="none" stroke="midnightblue" d="M596.541,-472.083C592.846,-464.691 587.477,-453.953 582.906,-444.811"/>
<polygon fill="midnightblue" stroke="midnightblue" points="585.978,-443.13 578.376,-435.751 579.717,-446.261 585.978,-443.13"/>
</g>
<!-- Node9 -->
<g id="node9" class="node"><title>Node9</title>
<polygon fill="none" stroke="#bfbfbf" points="610,-416.5 610,-435.5 648,-435.5 648,-416.5 610,-416.5"/>
<text text-anchor="middle" x="629" y="-423.5" font-family="Helvetica,sans-Serif" font-size="10.00">array</text>
</g>
<!-- Node7&#45;&gt;Node9 -->
<g id="edge11" class="edge"><title>Node7&#45;&gt;Node9</title>
<path fill="none" stroke="midnightblue" d="M605.624,-472.083C609.456,-464.691 615.024,-453.953 619.765,-444.811"/>
<polygon fill="midnightblue" stroke="midnightblue" points="622.966,-446.24 624.462,-435.751 616.752,-443.018 622.966,-446.24"/>
</g>
<!-- Node10 -->
<g id="node10" class="node"><title>Node10</title>
<polygon fill="none" stroke="#bfbfbf" points="666.5,-416.5 666.5,-435.5 707.5,-435.5 707.5,-416.5 666.5,-416.5"/>
<text text-anchor="middle" x="687" y="-423.5" font-family="Helvetica,sans-Serif" font-size="10.00">string</text>
</g>
<!-- Node7&#45;&gt;Node10 -->
<g id="edge12" class="edge"><title>Node7&#45;&gt;Node10</title>
<path fill="none" stroke="midnightblue" d="M614.817,-472.324C628.233,-463.9 648.824,-450.971 664.586,-441.074"/>
<polygon fill="midnightblue" stroke="midnightblue" points="666.609,-443.936 673.217,-435.655 662.887,-438.008 666.609,-443.936"/>
</g>
<!-- Node11 -->
<g id="node11" class="node"><title>Node11</title>
<polygon fill="none" stroke="#bfbfbf" points="982,-136.5 982,-155.5 1026,-155.5 1026,-136.5 982,-136.5"/>
<text text-anchor="middle" x="1004" y="-143.5" font-family="Helvetica,sans-Serif" font-size="10.00">cmath</text>
</g>
<!-- Node7&#45;&gt;Node11 -->
<g id="edge13" class="edge"><title>Node7&#45;&gt;Node11</title>
<path fill="none" stroke="midnightblue" d="M652.56,-473.204C655.752,-472.78 658.918,-472.375 662,-472 745.324,-461.871 966.279,-479.607 1038,-436 1067.39,-418.131 1080,-405.395 1080,-371 1080,-371 1080,-371 1080,-257 1080,-217.276 1046.04,-181.504 1023.52,-162.154"/>
<polygon fill="midnightblue" stroke="midnightblue" points="1025.48,-159.236 1015.54,-155.567 1021.02,-164.634 1025.48,-159.236"/>
</g>
<!-- Node12 -->
<g id="node12" class="node"><title>Node12</title>
<g id="a_node12"><a xlink:href="../../d1/d73/Defs_8h.html" target="_top" xlink:title="Common definitions for 2D coordinates. ">
<polygon fill="none" stroke="black" points="781,-192.5 781,-211.5 873,-211.5 873,-192.5 781,-192.5"/>
<text text-anchor="middle" x="827" y="-199.5" font-family="Helvetica,sans-Serif" font-size="10.00">TPCBase/Defs.h</text>
</a>
</g>
</g>
<!-- Node7&#45;&gt;Node12 -->
<g id="edge14" class="edge"><title>Node7&#45;&gt;Node12</title>
<path fill="none" stroke="midnightblue" d="M549.387,-479.291C477.078,-475.845 350.678,-465.644 317,-436 294.408,-416.114 298,-401.098 298,-371 298,-371 298,-371 298,-313 298,-217.234 634.515,-204.256 770.75,-202.925"/>
<polygon fill="midnightblue" stroke="midnightblue" points="771.008,-206.423 780.98,-202.844 770.953,-199.423 771.008,-206.423"/>
</g>
<!-- Node25 -->
<g id="node25" class="node"><title>Node25</title>
<g id="a_node25"><a xlink:href="../../de/d41/PadPos_8h.html" target="_top" xlink:title="TPCBase/PadPos.h">
<polygon fill="none" stroke="black" points="618.5,-304.5 618.5,-323.5 723.5,-323.5 723.5,-304.5 618.5,-304.5"/>
<text text-anchor="middle" x="671" y="-311.5" font-family="Helvetica,sans-Serif" font-size="10.00">TPCBase/PadPos.h</text>
</a>
</g>
</g>
<!-- Node7&#45;&gt;Node25 -->
<g id="edge29" class="edge"><title>Node7&#45;&gt;Node25</title>
<path fill="none" stroke="midnightblue" d="M652.792,-474.085C676.191,-468.089 701.738,-456.895 716,-436 738.944,-402.384 706.696,-355.576 686.011,-331.205"/>
<polygon fill="midnightblue" stroke="midnightblue" points="688.525,-328.765 679.286,-323.579 683.275,-333.395 688.525,-328.765"/>
</g>
<!-- Node26 -->
<g id="node26" class="node"><title>Node26</title>
<g id="a_node26"><a xlink:href="../../dd/d0b/PadSecPos_8h.html" target="_top" xlink:title="TPCBase/PadSecPos.h">
<polygon fill="none" stroke="black" points="556,-360.5 556,-379.5 678,-379.5 678,-360.5 556,-360.5"/>
<text text-anchor="middle" x="617" y="-367.5" font-family="Helvetica,sans-Serif" font-size="10.00">TPCBase/PadSecPos.h</text>
</a>
</g>
</g>
<!-- Node7&#45;&gt;Node26 -->
<g id="edge30" class="edge"><title>Node7&#45;&gt;Node26</title>
<path fill="none" stroke="midnightblue" d="M584.508,-472.364C564.449,-460.635 534.697,-438.534 547,-416 554.819,-401.679 569.362,-391.236 583.176,-384.036"/>
<polygon fill="midnightblue" stroke="midnightblue" points="585.019,-387.034 592.531,-379.562 581.999,-380.719 585.019,-387.034"/>
</g>
<!-- Node27 -->
<g id="node27" class="node"><title>Node27</title>
<g id="a_node27"><a xlink:href="../../d3/dd6/Sector_8h.html" target="_top" xlink:title="TPCBase/Sector.h">
<polygon fill="none" stroke="black" points="620.5,-248.5 620.5,-267.5 719.5,-267.5 719.5,-248.5 620.5,-248.5"/>
<text text-anchor="middle" x="670" y="-255.5" font-family="Helvetica,sans-Serif" font-size="10.00">TPCBase/Sector.h</text>
</a>
</g>
</g>
<!-- Node7&#45;&gt;Node27 -->
<g id="edge56" class="edge"><title>Node7&#45;&gt;Node27</title>
<path fill="none" stroke="midnightblue" d="M581.704,-472.48C567.571,-465.081 549.443,-452.887 541,-436 534.034,-422.068 536.33,-382.844 547,-360 566.415,-318.435 612.384,-288.301 642.296,-272.254"/>
<polygon fill="midnightblue" stroke="midnightblue" points="644.121,-275.251 651.39,-267.543 640.901,-269.035 644.121,-275.251"/>
</g>
<!-- Node28 -->
<g id="node28" class="node"><title>Node28</title>
<g id="a_node28"><a xlink:href="../../da/d61/PadROCPos_8h.html" target="_top" xlink:title="TPCBase/PadROCPos.h">
<polygon fill="none" stroke="black" points="884,-360.5 884,-379.5 1012,-379.5 1012,-360.5 884,-360.5"/>
<text text-anchor="middle" x="948" y="-367.5" font-family="Helvetica,sans-Serif" font-size="10.00">TPCBase/PadROCPos.h</text>
</a>
</g>
</g>
<!-- Node7&#45;&gt;Node28 -->
<g id="edge35" class="edge"><title>Node7&#45;&gt;Node28</title>
<path fill="none" stroke="midnightblue" d="M652.562,-473.219C655.753,-472.791 658.919,-472.381 662,-472 701.895,-467.065 995.026,-465.806 1022,-436 1040.06,-416.039 1007.92,-396.046 980.494,-383.61"/>
<polygon fill="midnightblue" stroke="midnightblue" points="981.647,-380.295 971.079,-379.538 978.869,-386.72 981.647,-380.295"/>
</g>
<!-- Node30 -->
<g id="node30" class="node"><title>Node30</title>
<g id="a_node30"><a xlink:href="../../d3/d54/DigitPos_8h.html" target="_top" xlink:title="TPCBase/DigitPos.h">
<polygon fill="none" stroke="black" points="764,-416.5 764,-435.5 872,-435.5 872,-416.5 764,-416.5"/>
<text text-anchor="middle" x="818" y="-423.5" font-family="Helvetica,sans-Serif" font-size="10.00">TPCBase/DigitPos.h</text>
</a>
</g>
</g>
<!-- Node7&#45;&gt;Node30 -->
<g id="edge41" class="edge"><title>Node7&#45;&gt;Node30</title>
<path fill="none" stroke="midnightblue" d="M635.384,-472.444C672.922,-463.102 733.131,-448.119 774.067,-437.933"/>
<polygon fill="midnightblue" stroke="midnightblue" points="774.918,-441.328 783.777,-435.516 773.227,-434.535 774.918,-441.328"/>
</g>
<!-- Node32 -->
<g id="node32" class="node"><title>Node32</title>
<g id="a_node32"><a xlink:href="../../d1/d1f/FECInfo_8h.html" target="_top" xlink:title="TPCBase/FECInfo.h">
<polygon fill="none" stroke="black" points="1247.5,-248.5 1247.5,-267.5 1354.5,-267.5 1354.5,-248.5 1247.5,-248.5"/>
<text text-anchor="middle" x="1301" y="-255.5" font-family="Helvetica,sans-Serif" font-size="10.00">TPCBase/FECInfo.h</text>
</a>
</g>
</g>
<!-- Node7&#45;&gt;Node32 -->
<g id="edge49" class="edge"><title>Node7&#45;&gt;Node32</title>
<path fill="none" stroke="midnightblue" d="M652.554,-473.159C655.748,-472.746 658.916,-472.356 662,-472 757.699,-460.964 1005.1,-473.095 1094,-436 1180.89,-399.744 1257.85,-312.801 1287.76,-275.959"/>
<polygon fill="midnightblue" stroke="midnightblue" points="1290.82,-277.732 1294.32,-267.733 1285.35,-273.365 1290.82,-277.732"/>
</g>
<!-- Node33 -->
<g id="node33" class="node"><title>Node33</title>
<g id="a_node33"><a xlink:href="../../da/d9d/PadRegionInfo_8h.html" target="_top" xlink:title="TPCBase/PadRegionInfo.h">
<polygon fill="none" stroke="black" points="326.5,-416.5 326.5,-435.5 461.5,-435.5 461.5,-416.5 326.5,-416.5"/>
<text text-anchor="middle" x="394" y="-423.5" font-family="Helvetica,sans-Serif" font-size="10.00">TPCBase/PadRegionInfo.h</text>
</a>
</g>
</g>
<!-- Node7&#45;&gt;Node33 -->
<g id="edge51" class="edge"><title>Node7&#45;&gt;Node33</title>
<path fill="none" stroke="midnightblue" d="M568.2,-472.444C532.62,-463.162 475.686,-448.309 436.653,-438.127"/>
<polygon fill="midnightblue" stroke="midnightblue" points="437.206,-434.654 426.646,-435.516 435.439,-441.427 437.206,-434.654"/>
</g>
<!-- Node34 -->
<g id="node34" class="node"><title>Node34</title>
<g id="a_node34"><a xlink:href="../../d6/d42/PartitionInfo_8h.html" target="_top" xlink:title="TPCBase/PartitionInfo.h">
<polygon fill="none" stroke="black" points="890.5,-416.5 890.5,-435.5 1013.5,-435.5 1013.5,-416.5 890.5,-416.5"/>
<text text-anchor="middle" x="952" y="-423.5" font-family="Helvetica,sans-Serif" font-size="10.00">TPCBase/PartitionInfo.h</text>
</a>
</g>
</g>
<!-- Node7&#45;&gt;Node34 -->
<g id="edge55" class="edge"><title>Node7&#45;&gt;Node34</title>
<path fill="none" stroke="midnightblue" d="M652.791,-473.032C714.825,-463.488 818.815,-447.49 886.405,-437.091"/>
<polygon fill="midnightblue" stroke="midnightblue" points="887.165,-440.516 896.516,-435.536 886.1,-433.597 887.165,-440.516"/>
</g>
<!-- Node12&#45;&gt;Node11 -->
<g id="edge15" class="edge"><title>Node12&#45;&gt;Node11</title>
<path fill="none" stroke="midnightblue" d="M855.046,-192.444C886.937,-182.714 938.889,-166.864 972.245,-156.688"/>
<polygon fill="midnightblue" stroke="midnightblue" points="973.413,-159.991 981.957,-153.725 971.371,-153.296 973.413,-159.991"/>
</g>
<!-- Node13 -->
<g id="node13" class="node"><title>Node13</title>
<g id="a_node13"><a xlink:href="../../d2/dd0/Cartesian2D_8h.html" target="_top" xlink:title="MathUtils/Cartesian2D.h">
<polygon fill="none" stroke="black" points="219.5,-74.5 219.5,-93.5 344.5,-93.5 344.5,-74.5 219.5,-74.5"/>
<text text-anchor="middle" x="282" y="-81.5" font-family="Helvetica,sans-Serif" font-size="10.00">MathUtils/Cartesian2D.h</text>
</a>
</g>
</g>
<!-- Node12&#45;&gt;Node13 -->
<g id="edge16" class="edge"><title>Node12&#45;&gt;Node13</title>
<path fill="none" stroke="midnightblue" d="M786.925,-192.47C689.287,-171.689 439.273,-118.475 332.054,-95.6537"/>
<polygon fill="midnightblue" stroke="midnightblue" points="332.643,-92.2008 322.134,-93.5423 331.186,-99.0475 332.643,-92.2008"/>
</g>
<!-- Node16 -->
<g id="node16" class="node"><title>Node16</title>
<g id="a_node16"><a xlink:href="../../dd/d76/Cartesian3D_8h.html" target="_top" xlink:title="MathUtils/Cartesian3D.h">
<polygon fill="none" stroke="black" points="764.5,-136.5 764.5,-155.5 889.5,-155.5 889.5,-136.5 764.5,-136.5"/>
<text text-anchor="middle" x="827" y="-143.5" font-family="Helvetica,sans-Serif" font-size="10.00">MathUtils/Cartesian3D.h</text>
</a>
</g>
</g>
<!-- Node12&#45;&gt;Node16 -->
<g id="edge19" class="edge"><title>Node12&#45;&gt;Node16</title>
<path fill="none" stroke="midnightblue" d="M827,-192.083C827,-185.006 827,-174.861 827,-165.986"/>
<polygon fill="midnightblue" stroke="midnightblue" points="830.5,-165.751 827,-155.751 823.5,-165.751 830.5,-165.751"/>
</g>
<!-- Node14 -->
<g id="node14" class="node"><title>Node14</title>
<polygon fill="none" stroke="#bfbfbf" points="115.5,-1 115.5,-31 266.5,-31 266.5,-1 115.5,-1"/>
<text text-anchor="start" x="123.5" y="-19" font-family="Helvetica,sans-Serif" font-size="10.00">Math/GenVector/Displacement</text>
<text text-anchor="middle" x="191" y="-8" font-family="Helvetica,sans-Serif" font-size="10.00">Vector2D.h</text>
</g>
<!-- Node13&#45;&gt;Node14 -->
<g id="edge17" class="edge"><title>Node13&#45;&gt;Node14</title>
<path fill="none" stroke="midnightblue" d="M270.103,-74.3717C257.221,-65.0286 236.22,-49.7966 219.093,-37.375"/>
<polygon fill="midnightblue" stroke="midnightblue" points="220.703,-34.2194 210.553,-31.1815 216.593,-39.8859 220.703,-34.2194"/>
</g>
<!-- Node15 -->
<g id="node15" class="node"><title>Node15</title>
<polygon fill="none" stroke="#bfbfbf" points="285,-6.5 285,-25.5 461,-25.5 461,-6.5 285,-6.5"/>
<text text-anchor="middle" x="373" y="-13.5" font-family="Helvetica,sans-Serif" font-size="10.00">Math/GenVector/PositionVector2D.h</text>
</g>
<!-- Node13&#45;&gt;Node15 -->
<g id="edge18" class="edge"><title>Node13&#45;&gt;Node15</title>
<path fill="none" stroke="midnightblue" d="M293.897,-74.3717C308.884,-63.5015 334.862,-44.6602 352.942,-31.5474"/>
<polygon fill="midnightblue" stroke="midnightblue" points="355.06,-34.3349 361.1,-25.6305 350.95,-28.6684 355.06,-34.3349"/>
</g>
<!-- Node16&#45;&gt;Node13 -->
<g id="edge27" class="edge"><title>Node16&#45;&gt;Node13</title>
<path fill="none" stroke="midnightblue" d="M764.371,-141.254C673.561,-135.322 500.198,-122.114 354,-100 345.922,-98.7781 337.384,-97.23 329.121,-95.595"/>
<polygon fill="midnightblue" stroke="midnightblue" points="329.726,-92.1463 319.228,-93.5738 328.325,-99.0047 329.726,-92.1463"/>
</g>
<!-- Node17 -->
<g id="node17" class="node"><title>Node17</title>
<polygon fill="none" stroke="#bfbfbf" points="1246.5,-74.5 1246.5,-93.5 1395.5,-93.5 1395.5,-74.5 1246.5,-74.5"/>
<text text-anchor="middle" x="1321" y="-81.5" font-family="Helvetica,sans-Serif" font-size="10.00">Math/GenVector/Rotation3D.h</text>
</g>
<!-- Node16&#45;&gt;Node17 -->
<g id="edge20" class="edge"><title>Node16&#45;&gt;Node17</title>
<path fill="none" stroke="midnightblue" d="M889.681,-139.444C970.252,-132 1114.38,-117.656 1237,-100 1246.58,-98.621 1256.73,-96.9693 1266.55,-95.2738"/>
<polygon fill="midnightblue" stroke="midnightblue" points="1267.38,-98.6817 1276.62,-93.5006 1266.17,-91.7877 1267.38,-98.6817"/>
</g>
<!-- Node18 -->
<g id="node18" class="node"><title>Node18</title>
<polygon fill="none" stroke="#bfbfbf" points="363,-74.5 363,-93.5 519,-93.5 519,-74.5 363,-74.5"/>
<text text-anchor="middle" x="441" y="-81.5" font-family="Helvetica,sans-Serif" font-size="10.00">Math/GenVector/Transform3D.h</text>
</g>
<!-- Node16&#45;&gt;Node18 -->
<g id="edge21" class="edge"><title>Node16&#45;&gt;Node18</title>
<path fill="none" stroke="midnightblue" d="M767.94,-136.491C707.585,-127.707 611.176,-113.428 528,-100 518.679,-98.4952 508.806,-96.8461 499.187,-95.2092"/>
<polygon fill="midnightblue" stroke="midnightblue" points="499.736,-91.7523 489.288,-93.5144 498.554,-98.6519 499.736,-91.7523"/>
</g>
<!-- Node19 -->
<g id="node19" class="node"><title>Node19</title>
<polygon fill="none" stroke="#bfbfbf" points="537,-74.5 537,-93.5 697,-93.5 697,-74.5 537,-74.5"/>
<text text-anchor="middle" x="617" y="-81.5" font-family="Helvetica,sans-Serif" font-size="10.00">Math/GenVector/Translation3D.h</text>
</g>
<!-- Node16&#45;&gt;Node19 -->
<g id="edge22" class="edge"><title>Node16&#45;&gt;Node19</title>
<path fill="none" stroke="midnightblue" d="M796.912,-136.403C760.11,-125.889 697.689,-108.054 656.906,-96.4016"/>
<polygon fill="midnightblue" stroke="midnightblue" points="657.609,-92.9625 647.032,-93.5806 655.686,-99.6932 657.609,-92.9625"/>
</g>
<!-- Node20 -->
<g id="node20" class="node"><title>Node20</title>
<polygon fill="none" stroke="#bfbfbf" points="715,-74.5 715,-93.5 771,-93.5 771,-74.5 715,-74.5"/>
<text text-anchor="middle" x="743" y="-81.5" font-family="Helvetica,sans-Serif" font-size="10.00">Rtypes.h</text>
</g>
<!-- Node16&#45;&gt;Node20 -->
<g id="edge23" class="edge"><title>Node16&#45;&gt;Node20</title>
<path fill="none" stroke="midnightblue" d="M814.965,-136.403C801.492,-126.78 779.434,-111.024 763.285,-99.4891"/>
<polygon fill="midnightblue" stroke="midnightblue" points="765.185,-96.5449 755.013,-93.5806 761.116,-102.241 765.185,-96.5449"/>
</g>
<!-- Node21 -->
<g id="node21" class="node"><title>Node21</title>
<polygon fill="none" stroke="#bfbfbf" points="789,-74.5 789,-93.5 865,-93.5 865,-74.5 789,-74.5"/>
<text text-anchor="middle" x="827" y="-81.5" font-family="Helvetica,sans-Serif" font-size="10.00">TGeoMatrix.h</text>
</g>
<!-- Node16&#45;&gt;Node21 -->
<g id="edge24" class="edge"><title>Node16&#45;&gt;Node21</title>
<path fill="none" stroke="midnightblue" d="M827,-136.403C827,-127.938 827,-114.728 827,-103.82"/>
<polygon fill="midnightblue" stroke="midnightblue" points="830.5,-103.581 827,-93.5806 823.5,-103.581 830.5,-103.581"/>
</g>
<!-- Node22 -->
<g id="node22" class="node"><title>Node22</title>
<polygon fill="none" stroke="#bfbfbf" points="883.5,-69 883.5,-99 1034.5,-99 1034.5,-69 883.5,-69"/>
<text text-anchor="start" x="891.5" y="-87" font-family="Helvetica,sans-Serif" font-size="10.00">Math/GenVector/Displacement</text>
<text text-anchor="middle" x="959" y="-76" font-family="Helvetica,sans-Serif" font-size="10.00">Vector3D.h</text>
</g>
<!-- Node16&#45;&gt;Node22 -->
<g id="edge25" class="edge"><title>Node16&#45;&gt;Node22</title>
<path fill="none" stroke="midnightblue" d="M845.912,-136.403C864.855,-127.793 894.597,-114.274 918.825,-103.261"/>
<polygon fill="midnightblue" stroke="midnightblue" points="920.489,-106.35 928.144,-99.0253 917.592,-99.9771 920.489,-106.35"/>
</g>
<!-- Node23 -->
<g id="node23" class="node"><title>Node23</title>
<polygon fill="none" stroke="#bfbfbf" points="1053,-74.5 1053,-93.5 1229,-93.5 1229,-74.5 1053,-74.5"/>
<text text-anchor="middle" x="1141" y="-81.5" font-family="Helvetica,sans-Serif" font-size="10.00">Math/GenVector/PositionVector3D.h</text>
</g>
<!-- Node16&#45;&gt;Node23 -->
<g id="edge26" class="edge"><title>Node16&#45;&gt;Node23</title>
<path fill="none" stroke="midnightblue" d="M871.655,-136.467C928.155,-125.671 1025.42,-107.086 1086.31,-95.4501"/>
<polygon fill="midnightblue" stroke="midnightblue" points="1087.33,-98.8181 1096.5,-93.5034 1086.02,-91.9425 1087.33,-98.8181"/>
</g>
<!-- Node24 -->
<g id="node24" class="node"><title>Node24</title>
<polygon fill="none" stroke="#bfbfbf" points="1413,-74.5 1413,-93.5 1467,-93.5 1467,-74.5 1413,-74.5"/>
<text text-anchor="middle" x="1440" y="-81.5" font-family="Helvetica,sans-Serif" font-size="10.00">iostream</text>
</g>
<!-- Node16&#45;&gt;Node24 -->
<g id="edge28" class="edge"><title>Node16&#45;&gt;Node24</title>
<path fill="none" stroke="midnightblue" d="M889.629,-140.65C1033.92,-130.554 1379.32,-105.943 1404,-100 1407,-99.2782 1410.07,-98.3387 1413.09,-97.2818"/>
<polygon fill="midnightblue" stroke="midnightblue" points="1414.39,-100.53 1422.43,-93.6279 1411.84,-94.0111 1414.39,-100.53"/>
</g>
<!-- Node26&#45;&gt;Node25 -->
<g id="edge34" class="edge"><title>Node26&#45;&gt;Node25</title>
<path fill="none" stroke="midnightblue" d="M625.917,-360.083C633.78,-352.22 645.431,-340.569 654.919,-331.081"/>
<polygon fill="midnightblue" stroke="midnightblue" points="657.653,-333.297 662.249,-323.751 652.703,-328.347 657.653,-333.297"/>
</g>
<!-- Node26&#45;&gt;Node27 -->
<g id="edge31" class="edge"><title>Node26&#45;&gt;Node27</title>
<path fill="none" stroke="midnightblue" d="M613.043,-360.477C607.651,-347.532 599.673,-322.472 609,-304 615.807,-290.52 628.768,-280.083 640.998,-272.67"/>
<polygon fill="midnightblue" stroke="midnightblue" points="643.07,-275.521 650.094,-267.59 639.657,-269.41 643.07,-275.521"/>
</g>
<!-- Node27&#45;&gt;Node6 -->
<g id="edge32" class="edge"><title>Node27&#45;&gt;Node6</title>
<path fill="none" stroke="midnightblue" d="M620.392,-252.208C520.144,-242.524 293.296,-220.61 179.213,-209.589"/>
<polygon fill="midnightblue" stroke="midnightblue" points="179.488,-206.1 169.198,-208.622 178.815,-213.067 179.488,-206.1"/>
</g>
<!-- Node27&#45;&gt;Node12 -->
<g id="edge33" class="edge"><title>Node27&#45;&gt;Node12</title>
<path fill="none" stroke="midnightblue" d="M694.877,-248.444C721.289,-239.359 763.215,-224.939 792.742,-214.783"/>
<polygon fill="midnightblue" stroke="midnightblue" points="793.921,-218.079 802.239,-211.516 791.645,-211.459 793.921,-218.079"/>
</g>
<!-- Node28&#45;&gt;Node12 -->
<g id="edge36" class="edge"><title>Node28&#45;&gt;Node12</title>
<path fill="none" stroke="midnightblue" d="M945.282,-360.279C938.391,-339.187 918.583,-284.474 888,-248 877.758,-235.785 863.552,-225.055 851.426,-217.14"/>
<polygon fill="midnightblue" stroke="midnightblue" points="852.993,-213.992 842.659,-211.657 849.282,-219.927 852.993,-213.992"/>
</g>
<!-- Node28&#45;&gt;Node25 -->
<g id="edge40" class="edge"><title>Node28&#45;&gt;Node25</title>
<path fill="none" stroke="midnightblue" d="M904.109,-360.444C855.483,-350.964 777.054,-335.675 724.776,-325.483"/>
<polygon fill="midnightblue" stroke="midnightblue" points="725.171,-321.995 714.686,-323.516 723.832,-328.865 725.171,-321.995"/>
</g>
<!-- Node29 -->
<g id="node29" class="node"><title>Node29</title>
<g id="a_node29"><a xlink:href="../../dc/d14/ROC_8h.html" target="_top" xlink:title="TPCBase/ROC.h">
<polygon fill="none" stroke="black" points="780.5,-304.5 780.5,-323.5 873.5,-323.5 873.5,-304.5 780.5,-304.5"/>
<text text-anchor="middle" x="827" y="-311.5" font-family="Helvetica,sans-Serif" font-size="10.00">TPCBase/ROC.h</text>
</a>
</g>
</g>
<!-- Node28&#45;&gt;Node29 -->
<g id="edge37" class="edge"><title>Node28&#45;&gt;Node29</title>
<path fill="none" stroke="midnightblue" d="M928.827,-360.444C909.091,-351.636 878.115,-337.812 855.507,-327.722"/>
<polygon fill="midnightblue" stroke="midnightblue" points="856.641,-324.396 846.083,-323.516 853.789,-330.788 856.641,-324.396"/>
</g>
<!-- Node29&#45;&gt;Node12 -->
<g id="edge38" class="edge"><title>Node29&#45;&gt;Node12</title>
<path fill="none" stroke="midnightblue" d="M827,-304.368C827,-286.617 827,-245.666 827,-221.597"/>
<polygon fill="midnightblue" stroke="midnightblue" points="830.5,-221.591 827,-211.591 823.5,-221.591 830.5,-221.591"/>
</g>
<!-- Node29&#45;&gt;Node27 -->
<g id="edge39" class="edge"><title>Node29&#45;&gt;Node27</title>
<path fill="none" stroke="midnightblue" d="M802.123,-304.444C775.711,-295.359 733.785,-280.939 704.258,-270.783"/>
<polygon fill="midnightblue" stroke="midnightblue" points="705.355,-267.459 694.761,-267.516 703.079,-274.079 705.355,-267.459"/>
</g>
<!-- Node30&#45;&gt;Node12 -->
<g id="edge42" class="edge"><title>Node30&#45;&gt;Node12</title>
<path fill="none" stroke="midnightblue" d="M872.152,-416.557C929.051,-407.136 1011.62,-391.683 1021,-380 1077.58,-309.509 930.18,-242.047 860.801,-215.197"/>
<polygon fill="midnightblue" stroke="midnightblue" points="861.755,-211.815 851.164,-211.534 859.268,-218.359 861.755,-211.815"/>
</g>
<!-- Node30&#45;&gt;Node25 -->
<g id="edge47" class="edge"><title>Node30&#45;&gt;Node25</title>
<path fill="none" stroke="midnightblue" d="M806.465,-416.368C781.455,-397.653 721.983,-353.151 690.822,-329.832"/>
<polygon fill="midnightblue" stroke="midnightblue" points="692.585,-326.78 682.481,-323.591 688.391,-332.385 692.585,-326.78"/>
</g>
<!-- Node30&#45;&gt;Node26 -->
<g id="edge48" class="edge"><title>Node30&#45;&gt;Node26</title>
<path fill="none" stroke="midnightblue" d="M786.151,-416.444C751.602,-407.162 696.318,-392.309 658.417,-382.127"/>
<polygon fill="midnightblue" stroke="midnightblue" points="659.266,-378.731 648.7,-379.516 657.449,-385.491 659.266,-378.731"/>
</g>
<!-- Node31 -->
<g id="node31" class="node"><title>Node31</title>
<g id="a_node31"><a xlink:href="../../df/d26/CRU_8h.html" target="_top" xlink:title="TPCBase/CRU.h">
<polygon fill="none" stroke="black" points="772.5,-360.5 772.5,-379.5 865.5,-379.5 865.5,-360.5 772.5,-360.5"/>
<text text-anchor="middle" x="819" y="-367.5" font-family="Helvetica,sans-Serif" font-size="10.00">TPCBase/CRU.h</text>
</a>
</g>
</g>
<!-- Node30&#45;&gt;Node31 -->
<g id="edge43" class="edge"><title>Node30&#45;&gt;Node31</title>
<path fill="none" stroke="midnightblue" d="M818.165,-416.083C818.296,-409.006 818.484,-398.861 818.648,-389.986"/>
<polygon fill="midnightblue" stroke="midnightblue" points="822.152,-389.814 818.838,-379.751 815.153,-389.685 822.152,-389.814"/>
</g>
<!-- Node31&#45;&gt;Node12 -->
<g id="edge44" class="edge"><title>Node31&#45;&gt;Node12</title>
<path fill="none" stroke="midnightblue" d="M839.847,-360.427C854.578,-353.129 873.205,-341.091 882,-324 900.985,-287.109 866.171,-242.35 843.764,-218.974"/>
<polygon fill="midnightblue" stroke="midnightblue" points="846.001,-216.26 836.464,-211.645 841.041,-221.2 846.001,-216.26"/>
</g>
<!-- Node31&#45;&gt;Node27 -->
<g id="edge45" class="edge"><title>Node31&#45;&gt;Node27</title>
<path fill="none" stroke="midnightblue" d="M807.498,-360.327C790.883,-347.818 759.175,-324.012 732,-304 718.039,-293.719 702.22,-282.24 690.055,-273.449"/>
<polygon fill="midnightblue" stroke="midnightblue" points="692.078,-270.593 681.921,-267.578 687.981,-276.269 692.078,-270.593"/>
</g>
<!-- Node31&#45;&gt;Node29 -->
<g id="edge46" class="edge"><title>Node31&#45;&gt;Node29</title>
<path fill="none" stroke="midnightblue" d="M820.321,-360.083C821.381,-352.927 822.906,-342.635 824.231,-333.691"/>
<polygon fill="midnightblue" stroke="midnightblue" points="827.7,-334.156 825.704,-323.751 820.776,-333.13 827.7,-334.156"/>
</g>
<!-- Node32&#45;&gt;Node24 -->
<g id="edge50" class="edge"><title>Node32&#45;&gt;Node24</title>
<path fill="none" stroke="midnightblue" d="M1308.08,-248.234C1330.12,-220.971 1397.69,-137.36 1426.62,-101.554"/>
<polygon fill="midnightblue" stroke="midnightblue" points="1429.53,-103.522 1433.1,-93.5442 1424.09,-99.122 1429.53,-103.522"/>
</g>
<!-- Node33&#45;&gt;Node3 -->
<g id="edge52" class="edge"><title>Node33&#45;&gt;Node3</title>
<path fill="none" stroke="midnightblue" d="M368.806,-416.444C341.113,-407.038 296.581,-391.914 266.577,-381.724"/>
<polygon fill="midnightblue" stroke="midnightblue" points="267.598,-378.375 257.004,-378.473 265.347,-385.003 267.598,-378.375"/>
</g>
<!-- Node33&#45;&gt;Node12 -->
<g id="edge53" class="edge"><title>Node33&#45;&gt;Node12</title>
<path fill="none" stroke="midnightblue" d="M401.655,-416.295C427.719,-387.251 516.645,-292.976 611,-248 661.845,-223.764 725.545,-212.523 770.557,-207.345"/>
<polygon fill="midnightblue" stroke="midnightblue" points="771.156,-210.8 780.72,-206.242 770.401,-203.841 771.156,-210.8"/>
</g>
<!-- Node33&#45;&gt;Node25 -->
<g id="edge54" class="edge"><title>Node33&#45;&gt;Node25</title>
<path fill="none" stroke="midnightblue" d="M413.185,-416.458C442.035,-403.702 498.392,-379.129 547,-360 576.968,-348.206 611.429,-335.791 636.404,-326.995"/>
<polygon fill="midnightblue" stroke="midnightblue" points="637.872,-330.19 646.15,-323.577 635.555,-323.584 637.872,-330.19"/>
</g>
</g>
</svg>
