<?xml version="1.0" encoding="UTF-8" standalone="no"?>
<!DOCTYPE svg PUBLIC "-//W3C//DTD SVG 1.1//EN"
 "http://www.w3.org/Graphics/SVG/1.1/DTD/svg11.dtd">
<!-- Generated by graphviz version 2.36.0 (20140111.2315)
 -->
<!-- Title: /home/travis/build/AliceO2Group/AliceO2/Detectors/PHOS/base/include/PHOSBase/Hit.h Pages: 1 -->
<svg width="417pt" height="242pt"
 viewBox="0.00 0.00 417.00 242.00" xmlns="http://www.w3.org/2000/svg" xmlns:xlink="http://www.w3.org/1999/xlink">
<g id="graph0" class="graph" transform="scale(1 1) rotate(0) translate(4 238)">
<title>/home/travis/build/AliceO2Group/AliceO2/Detectors/PHOS/base/include/PHOSBase/Hit.h</title>
<!-- Node1 -->
<g id="node1" class="node"><title>Node1</title>
<polygon fill="#bfbfbf" stroke="black" points="86,-181 86,-233 238,-233 238,-181 86,-181"/>
<text text-anchor="start" x="94" y="-221" font-family="Helvetica,sans-Serif" font-size="10.00">/home/travis/build</text>
<text text-anchor="start" x="94" y="-210" font-family="Helvetica,sans-Serif" font-size="10.00">/AliceO2Group/AliceO2</text>
<text text-anchor="start" x="94" y="-199" font-family="Helvetica,sans-Serif" font-size="10.00">/Detectors/PHOS/base/include</text>
<text text-anchor="middle" x="162" y="-188" font-family="Helvetica,sans-Serif" font-size="10.00">/PHOSBase/Hit.h</text>
</g>
<!-- Node2 -->
<g id="node2" class="node"><title>Node2</title>
<g id="a_node2"><a xlink:href="../../dd/db6/PHOS_2base_2src_2Hit_8cxx.html" target="_top" xlink:title="/home/travis/build\l/AliceO2Group/AliceO2\l/Detectors/PHOS/base/src\l/Hit.cxx">
<polygon fill="none" stroke="black" points="0,-91 0,-143 134,-143 134,-91 0,-91"/>
<text text-anchor="start" x="8" y="-131" font-family="Helvetica,sans-Serif" font-size="10.00">/home/travis/build</text>
<text text-anchor="start" x="8" y="-120" font-family="Helvetica,sans-Serif" font-size="10.00">/AliceO2Group/AliceO2</text>
<text text-anchor="start" x="8" y="-109" font-family="Helvetica,sans-Serif" font-size="10.00">/Detectors/PHOS/base/src</text>
<text text-anchor="middle" x="67" y="-98" font-family="Helvetica,sans-Serif" font-size="10.00">/Hit.cxx</text>
</a>
</g>
</g>
<!-- Node1&#45;&gt;Node2 -->
<g id="edge1" class="edge"><title>Node1&#45;&gt;Node2</title>
<path fill="none" stroke="midnightblue" d="M127.401,-173.951C116.475,-163.829 104.563,-152.795 94.2272,-143.221"/>
<polygon fill="midnightblue" stroke="midnightblue" points="125.062,-176.555 134.777,-180.783 129.819,-171.419 125.062,-176.555"/>
</g>
<!-- Node3 -->
<g id="node3" class="node"><title>Node3</title>
<g id="a_node3"><a xlink:href="../../d4/dd8/PHOS_2simulation_2include_2PHOSSimulation_2Detector_8h.html" target="_top" xlink:title="/home/travis/build\l/AliceO2Group/AliceO2\l/Detectors/PHOS/simulation\l/include/PHOSSimulation/Detector.h">
<polygon fill="none" stroke="black" points="190,-91 190,-143 366,-143 366,-91 190,-91"/>
<text text-anchor="start" x="198" y="-131" font-family="Helvetica,sans-Serif" font-size="10.00">/home/travis/build</text>
<text text-anchor="start" x="198" y="-120" font-family="Helvetica,sans-Serif" font-size="10.00">/AliceO2Group/AliceO2</text>
<text text-anchor="start" x="198" y="-109" font-family="Helvetica,sans-Serif" font-size="10.00">/Detectors/PHOS/simulation</text>
<text text-anchor="middle" x="278" y="-98" font-family="Helvetica,sans-Serif" font-size="10.00">/include/PHOSSimulation/Detector.h</text>
</a>
</g>
</g>
<!-- Node1&#45;&gt;Node3 -->
<g id="edge2" class="edge"><title>Node1&#45;&gt;Node3</title>
<path fill="none" stroke="midnightblue" d="M203.479,-174.534C217.029,-164.254 231.891,-152.979 244.754,-143.221"/>
<polygon fill="midnightblue" stroke="midnightblue" points="201.093,-171.95 195.241,-180.783 205.323,-177.527 201.093,-171.95"/>
</g>
<!-- Node4 -->
<g id="node4" class="node"><title>Node4</title>
<g id="a_node4"><a xlink:href="../../df/d4d/PHOS_2simulation_2src_2Detector_8cxx.html" target="_top" xlink:title="/home/travis/build\l/AliceO2Group/AliceO2\l/Detectors/PHOS/simulation\l/src/Detector.cxx">
<polygon fill="none" stroke="black" points="91.5,-1 91.5,-53 232.5,-53 232.5,-1 91.5,-1"/>
<text text-anchor="start" x="99.5" y="-41" font-family="Helvetica,sans-Serif" font-size="10.00">/home/travis/build</text>
<text text-anchor="start" x="99.5" y="-30" font-family="Helvetica,sans-Serif" font-size="10.00">/AliceO2Group/AliceO2</text>
<text text-anchor="start" x="99.5" y="-19" font-family="Helvetica,sans-Serif" font-size="10.00">/Detectors/PHOS/simulation</text>
<text text-anchor="middle" x="162" y="-8" font-family="Helvetica,sans-Serif" font-size="10.00">/src/Detector.cxx</text>
</a>
</g>
</g>
<!-- Node1&#45;&gt;Node4 -->
<g id="edge5" class="edge"><title>Node1&#45;&gt;Node4</title>
<path fill="none" stroke="midnightblue" d="M162,-170.717C162,-136.052 162,-84.0165 162,-53.2853"/>
<polygon fill="midnightblue" stroke="midnightblue" points="158.5,-170.874 162,-180.874 165.5,-170.875 158.5,-170.874"/>
</g>
<!-- Node3&#45;&gt;Node4 -->
<g id="edge3" class="edge"><title>Node3&#45;&gt;Node4</title>
<path fill="none" stroke="midnightblue" d="M236.521,-84.5335C222.971,-74.2542 208.109,-62.9791 195.246,-53.221"/>
<polygon fill="midnightblue" stroke="midnightblue" points="234.677,-87.5273 244.759,-90.7827 238.907,-81.9504 234.677,-87.5273"/>
</g>
<!-- Node5 -->
<g id="node5" class="node"><title>Node5</title>
<g id="a_node5"><a xlink:href="../../d0/d2a/drawPHOSgeometry_8C.html" target="_top" xlink:title="/home/travis/build\l/AliceO2Group/AliceO2\l/Detectors/PHOS/testsimulation\l/drawPHOSgeometry.C">
<polygon fill="none" stroke="black" points="251,-1 251,-53 409,-53 409,-1 251,-1"/>
<text text-anchor="start" x="259" y="-41" font-family="Helvetica,sans-Serif" font-size="10.00">/home/travis/build</text>
<text text-anchor="start" x="259" y="-30" font-family="Helvetica,sans-Serif" font-size="10.00">/AliceO2Group/AliceO2</text>
<text text-anchor="start" x="259" y="-19" font-family="Helvetica,sans-Serif" font-size="10.00">/Detectors/PHOS/testsimulation</text>
<text text-anchor="middle" x="330" y="-8" font-family="Helvetica,sans-Serif" font-size="10.00">/drawPHOSgeometry.C</text>
</a>
</g>
</g>
<!-- Node3&#45;&gt;Node5 -->
<g id="edge4" class="edge"><title>Node3&#45;&gt;Node5</title>
<path fill="none" stroke="midnightblue" d="M298.285,-81.6708C303.914,-72.1448 309.919,-61.9826 315.173,-53.0921"/>
<polygon fill="midnightblue" stroke="midnightblue" points="295.115,-80.1569 293.041,-90.5468 301.141,-83.718 295.115,-80.1569"/>
</g>
</g>
</svg>
