<?xml version="1.0" encoding="UTF-8" standalone="no"?>
<!DOCTYPE svg PUBLIC "-//W3C//DTD SVG 1.1//EN"
 "http://www.w3.org/Graphics/SVG/1.1/DTD/svg11.dtd">
<!-- Generated by graphviz version 2.36.0 (20140111.2315)
 -->
<!-- Title: o2::ITS::CA::Cluster Pages: 1 -->
<svg width="194pt" height="216pt"
 viewBox="0.00 0.00 194.00 216.00" xmlns="http://www.w3.org/2000/svg" xmlns:xlink="http://www.w3.org/1999/xlink">
<g id="graph0" class="graph" transform="scale(1 1) rotate(0) translate(4 212)">
<title>o2::ITS::CA::Cluster</title>
<!-- Node1 -->
<g id="node1" class="node"><title>Node1</title>
<polygon fill="#bfbfbf" stroke="black" points="13.5,-0.5 13.5,-57.5 120.5,-57.5 120.5,-0.5 13.5,-0.5"/>
<text text-anchor="middle" x="67" y="-45.5" font-family="Helvetica,sans-Serif" font-size="10.00">o2::ITS::CA::Cluster</text>
<polyline fill="none" stroke="black" points="13.5,-38.5 120.5,-38.5 "/>
<text text-anchor="middle" x="67" y="-26.5" font-family="Helvetica,sans-Serif" font-size="10.00"> </text>
<polyline fill="none" stroke="black" points="13.5,-19.5 120.5,-19.5 "/>
<text text-anchor="start" x="21.5" y="-7.5" font-family="Helvetica,sans-Serif" font-size="10.00">+ operator&lt;()</text>
</g>
<!-- Node2 -->
<g id="node2" class="node"><title>Node2</title>
<g id="a_node2"><a xlink:href="../../d4/dc3/classfloat.html" target="_top" xlink:title="{float\n||}">
<polygon fill="none" stroke="black" points="-0.5,-150.5 -0.5,-207.5 34.5,-207.5 34.5,-150.5 -0.5,-150.5"/>
<text text-anchor="middle" x="17" y="-195.5" font-family="Helvetica,sans-Serif" font-size="10.00">float</text>
<polyline fill="none" stroke="black" points="-0.5,-188.5 34.5,-188.5 "/>
<text text-anchor="middle" x="17" y="-176.5" font-family="Helvetica,sans-Serif" font-size="10.00"> </text>
<polyline fill="none" stroke="black" points="-0.5,-169.5 34.5,-169.5 "/>
<text text-anchor="middle" x="17" y="-157.5" font-family="Helvetica,sans-Serif" font-size="10.00"> </text>
</a>
</g>
</g>
<!-- Node2&#45;&gt;Node1 -->
<g id="edge1" class="edge"><title>Node2&#45;&gt;Node1</title>
<path fill="none" stroke="#404040" d="M21.3623,-150.085C25.1472,-129.215 31.5256,-100.228 41,-76 41.9772,-73.501 43.0706,-70.9726 44.2407,-68.454"/>
<polygon fill="none" stroke="#404040" points="44.3177,-68.302 43.4612,-61.1419 49.7411,-57.5974 50.5976,-64.7575 44.3177,-68.302"/>
<text text-anchor="middle" x="52" y="-123.5" font-family="Helvetica,sans-Serif" font-size="10.00"> +phi</text>
<text text-anchor="middle" x="52" y="-112.5" font-family="Helvetica,sans-Serif" font-size="10.00">+r</text>
<text text-anchor="middle" x="52" y="-101.5" font-family="Helvetica,sans-Serif" font-size="10.00">+x</text>
<text text-anchor="middle" x="52" y="-90.5" font-family="Helvetica,sans-Serif" font-size="10.00">+y</text>
<text text-anchor="middle" x="52" y="-79.5" font-family="Helvetica,sans-Serif" font-size="10.00">+z</text>
</g>
<!-- Node3 -->
<g id="node3" class="node"><title>Node3</title>
<polygon fill="none" stroke="#bfbfbf" points="52.5,-150.5 52.5,-207.5 81.5,-207.5 81.5,-150.5 52.5,-150.5"/>
<text text-anchor="middle" x="67" y="-195.5" font-family="Helvetica,sans-Serif" font-size="10.00">int</text>
<polyline fill="none" stroke="#bfbfbf" points="52.5,-188.5 81.5,-188.5 "/>
<text text-anchor="middle" x="67" y="-176.5" font-family="Helvetica,sans-Serif" font-size="10.00"> </text>
<polyline fill="none" stroke="#bfbfbf" points="52.5,-169.5 81.5,-169.5 "/>
<text text-anchor="middle" x="67" y="-157.5" font-family="Helvetica,sans-Serif" font-size="10.00"> </text>
</g>
<!-- Node3&#45;&gt;Node1 -->
<g id="edge2" class="edge"><title>Node3&#45;&gt;Node1</title>
<path fill="none" stroke="#404040" d="M67,-150.162C67,-127.527 67,-95.2961 67,-69.9128"/>
<polygon fill="none" stroke="#404040" points="67.0001,-69.7128 63,-63.7129 67,-57.7128 71,-63.7128 67.0001,-69.7128"/>
<text text-anchor="middle" x="85.5" y="-112.5" font-family="Helvetica,sans-Serif" font-size="10.00"> +label</text>
<text text-anchor="middle" x="85.5" y="-101.5" font-family="Helvetica,sans-Serif" font-size="10.00">+zphibin</text>
<text text-anchor="middle" x="85.5" y="-90.5" font-family="Helvetica,sans-Serif" font-size="10.00">+detid</text>
</g>
<!-- Node4 -->
<g id="node4" class="node"><title>Node4</title>
<polygon fill="none" stroke="#bfbfbf" points="100,-150.5 100,-207.5 186,-207.5 186,-150.5 100,-150.5"/>
<text text-anchor="middle" x="143" y="-195.5" font-family="Helvetica,sans-Serif" font-size="10.00">array&lt; float, 3 &gt;</text>
<polyline fill="none" stroke="#bfbfbf" points="100,-188.5 186,-188.5 "/>
<text text-anchor="middle" x="143" y="-176.5" font-family="Helvetica,sans-Serif" font-size="10.00"> </text>
<polyline fill="none" stroke="#bfbfbf" points="100,-169.5 186,-169.5 "/>
<text text-anchor="middle" x="143" y="-157.5" font-family="Helvetica,sans-Serif" font-size="10.00"> </text>
</g>
<!-- Node4&#45;&gt;Node1 -->
<g id="edge3" class="edge"><title>Node4&#45;&gt;Node1</title>
<path fill="none" stroke="#404040" d="M136.696,-150.317C131.115,-129.043 121.706,-99.4324 108,-76 106.253,-73.0133 104.293,-70.0471 102.202,-67.1437"/>
<polygon fill="none" stroke="#404040" points="102.106,-67.0219 95.2568,-64.7667 94.7041,-57.5768 101.553,-59.832 102.106,-67.0219"/>
<text text-anchor="middle" x="143.5" y="-101.5" font-family="Helvetica,sans-Serif" font-size="10.00"> +cov</text>
</g>
</g>
</svg>
