<?xml version="1.0" encoding="UTF-8" standalone="no"?>
<!DOCTYPE svg PUBLIC "-//W3C//DTD SVG 1.1//EN"
 "http://www.w3.org/Graphics/SVG/1.1/DTD/svg11.dtd">
<!-- Generated by graphviz version 2.36.0 (20140111.2315)
 -->
<!-- Title: o2::header::HeartbeatFrameSequence&lt; SlotDataT &gt;::FrameData Pages: 1 -->
<svg width="148pt" height="194pt"
 viewBox="0.00 0.00 148.00 194.00" xmlns="http://www.w3.org/2000/svg" xmlns:xlink="http://www.w3.org/1999/xlink">
<g id="graph0" class="graph" transform="scale(1 1) rotate(0) translate(4 190)">
<title>o2::header::HeartbeatFrameSequence&lt; SlotDataT &gt;::FrameData</title>
<!-- Node1 -->
<g id="node1" class="node"><title>Node1</title>
<polygon fill="#bfbfbf" stroke="black" points="1.5,-0.5 1.5,-79.5 140.5,-79.5 140.5,-0.5 1.5,-0.5"/>
<text text-anchor="start" x="9.5" y="-67.5" font-family="Helvetica,sans-Serif" font-size="10.00">o2::header::HeartbeatFrame</text>
<text text-anchor="start" x="9.5" y="-56.5" font-family="Helvetica,sans-Serif" font-size="10.00">Sequence&lt; SlotDataT &gt;::</text>
<text text-anchor="middle" x="71" y="-45.5" font-family="Helvetica,sans-Serif" font-size="10.00">FrameData</text>
<polyline fill="none" stroke="black" points="1.5,-38.5 140.5,-38.5 "/>
<text text-anchor="middle" x="71" y="-26.5" font-family="Helvetica,sans-Serif" font-size="10.00"> </text>
<polyline fill="none" stroke="black" points="1.5,-19.5 140.5,-19.5 "/>
<text text-anchor="middle" x="71" y="-7.5" font-family="Helvetica,sans-Serif" font-size="10.00"> </text>
</g>
<!-- Node2 -->
<g id="node2" class="node"><title>Node2</title>
<polygon fill="none" stroke="#bfbfbf" points="-0.5,-128.5 -0.5,-185.5 68.5,-185.5 68.5,-128.5 -0.5,-128.5"/>
<text text-anchor="middle" x="34" y="-173.5" font-family="Helvetica,sans-Serif" font-size="10.00">const byte *</text>
<polyline fill="none" stroke="#bfbfbf" points="-0.5,-166.5 68.5,-166.5 "/>
<text text-anchor="middle" x="34" y="-154.5" font-family="Helvetica,sans-Serif" font-size="10.00"> </text>
<polyline fill="none" stroke="#bfbfbf" points="-0.5,-147.5 68.5,-147.5 "/>
<text text-anchor="middle" x="34" y="-135.5" font-family="Helvetica,sans-Serif" font-size="10.00"> </text>
</g>
<!-- Node2&#45;&gt;Node1 -->
<g id="edge1" class="edge"><title>Node2&#45;&gt;Node1</title>
<path fill="none" stroke="#404040" d="M42.4892,-128.231C45.4553,-118.64 48.8349,-107.836 52,-98 52.719,-95.7658 53.4583,-93.4841 54.2089,-91.1804"/>
<polygon fill="none" stroke="#404040" points="54.2687,-90.9981 52.3408,-84.0495 58.0134,-79.5974 59.9413,-86.546 54.2687,-90.9981"/>
<text text-anchor="middle" x="69" y="-101.5" font-family="Helvetica,sans-Serif" font-size="10.00"> +buffer</text>
</g>
<!-- Node3 -->
<g id="node3" class="node"><title>Node3</title>
<polygon fill="none" stroke="#bfbfbf" points="86.5,-128.5 86.5,-185.5 129.5,-185.5 129.5,-128.5 86.5,-128.5"/>
<text text-anchor="middle" x="108" y="-173.5" font-family="Helvetica,sans-Serif" font-size="10.00">size_t</text>
<polyline fill="none" stroke="#bfbfbf" points="86.5,-166.5 129.5,-166.5 "/>
<text text-anchor="middle" x="108" y="-154.5" font-family="Helvetica,sans-Serif" font-size="10.00"> </text>
<polyline fill="none" stroke="#bfbfbf" points="86.5,-147.5 129.5,-147.5 "/>
<text text-anchor="middle" x="108" y="-135.5" font-family="Helvetica,sans-Serif" font-size="10.00"> </text>
</g>
<!-- Node3&#45;&gt;Node1 -->
<g id="edge2" class="edge"><title>Node3&#45;&gt;Node1</title>
<path fill="none" stroke="#404040" d="M99.1376,-128.455C95.5365,-117.262 91.2596,-103.969 87.1411,-91.1684"/>
<polygon fill="none" stroke="#404040" points="87.1028,-91.0491 81.4573,-86.5625 83.4274,-79.6258 89.0729,-84.1123 87.1028,-91.0491"/>
<text text-anchor="middle" x="106" y="-101.5" font-family="Helvetica,sans-Serif" font-size="10.00"> +size</text>
</g>
</g>
</svg>
