<?xml version="1.0" encoding="UTF-8" standalone="no"?>
<!DOCTYPE svg PUBLIC "-//W3C//DTD SVG 1.1//EN"
 "http://www.w3.org/Graphics/SVG/1.1/DTD/svg11.dtd">
<!-- Generated by graphviz version 2.36.0 (20140111.2315)
 -->
<!-- Title: /home/travis/build/AliceO2Group/AliceO2/EventVisualisation/Base/include/EventVisualisationBase/DataInterpreter.h Pages: 1 -->
<!--zoomable 308 -->
<svg id="main" version="1.1" xmlns="http://www.w3.org/2000/svg" xmlns:xlink="http://www.w3.org/1999/xlink" xml:space="preserve" onload="init(evt)">
<style type="text/css"><![CDATA[
.edge:hover path { stroke: red; }
.edge:hover polygon { stroke: red; fill: red; }
]]></style>
<script type="text/javascript"><![CDATA[
var edges = document.getElementsByTagName('g');
if (edges && edges.length) {
  for (var i=0;i<edges.length;i++) {
    if (edges[i].id.substr(0,4)=='edge') {
      edges[i].setAttribute('class','edge');
    }
  }
}
]]></script>
        <defs>
                <circle id="rim" cx="0" cy="0" r="7"/>
                <circle id="rim2" cx="0" cy="0" r="3.5"/>
                <g id="zoomPlus">
                        <use xlink:href="#rim" fill="#404040">
                                <set attributeName="fill" to="#808080" begin="zoomplus.mouseover" end="zoomplus.mouseout"/>
                        </use>
                        <path d="M-4,0h8M0,-4v8" fill="none" stroke="white" stroke-width="1.5" pointer-events="none"/>
                </g>
                <g id="zoomMin">
                        <use xlink:href="#rim" fill="#404040">
                                <set attributeName="fill" to="#808080" begin="zoomminus.mouseover" end="zoomminus.mouseout"/>
                        </use>
                        <path d="M-4,0h8" fill="none" stroke="white" stroke-width="1.5" pointer-events="none"/>
                </g>
                <g id="dirArrow">
                        <path fill="none" stroke="white" stroke-width="1.5" d="M0,-3.0v7 M-2.5,-0.5L0,-3.0L2.5,-0.5"/>
                </g>
               <g id="resetDef">
                       <use xlink:href="#rim2" fill="#404040">
                               <set attributeName="fill" to="#808080" begin="reset.mouseover" end="reset.mouseout"/>
                       </use>
               </g>
        </defs>

<script type="text/javascript">
var viewWidth = 667;
var viewHeight = 308;
var sectionId = 'dynsection-0';
</script>
<script xlink:href="../../svgpan.js"/>
<svg id="graph" class="graph">
<g id="viewport">
<title>/home/travis/build/AliceO2Group/AliceO2/EventVisualisation/Base/include/EventVisualisationBase/DataInterpreter.h</title>
<!-- Node1 -->
<g id="node1" class="node"><title>Node1</title>
<polygon fill="#bfbfbf" stroke="black" points="238.5,-236.5 238.5,-299.5 395.5,-299.5 395.5,-236.5 238.5,-236.5"/>
<text text-anchor="start" x="246.5" y="-287.5" font-family="Helvetica,sans-Serif" font-size="10.00">/home/travis/build</text>
<text text-anchor="start" x="246.5" y="-276.5" font-family="Helvetica,sans-Serif" font-size="10.00">/AliceO2Group/AliceO2</text>
<text text-anchor="start" x="246.5" y="-265.5" font-family="Helvetica,sans-Serif" font-size="10.00">/EventVisualisation/Base</text>
<text text-anchor="start" x="246.5" y="-254.5" font-family="Helvetica,sans-Serif" font-size="10.00">/include/EventVisualisationBase</text>
<text text-anchor="middle" x="317" y="-243.5" font-family="Helvetica,sans-Serif" font-size="10.00">/DataInterpreter.h</text>
</g>
<!-- Node2 -->
<g id="node2" class="node"><title>Node2</title>
<g id="a_node2"><a xlink:href="../../d8/d25/EventManager_8h.html" target="_top" xlink:title="EventVisualisationBase\l/EventManager.h">
<polygon fill="none" stroke="black" points="257,-169 257,-199 377,-199 377,-169 257,-169"/>
<text text-anchor="start" x="265" y="-187" font-family="Helvetica,sans-Serif" font-size="10.00">EventVisualisationBase</text>
<text text-anchor="middle" x="317" y="-176" font-family="Helvetica,sans-Serif" font-size="10.00">/EventManager.h</text>
</a>
</g>
</g>
<!-- Node1&#45;&gt;Node2 -->
<g id="edge1" class="edge"><title>Node1&#45;&gt;Node2</title>
<path fill="none" stroke="midnightblue" d="M317,-236.466C317,-227.502 317,-217.822 317,-209.302"/>
<polygon fill="midnightblue" stroke="midnightblue" points="320.5,-209.272 317,-199.272 313.5,-209.272 320.5,-209.272"/>
</g>
<!-- Node17 -->
<g id="node17" class="node"><title>Node17</title>
<polygon fill="none" stroke="#bfbfbf" points="46,-112.5 46,-131.5 130,-131.5 130,-112.5 46,-112.5"/>
<text text-anchor="middle" x="88" y="-119.5" font-family="Helvetica,sans-Serif" font-size="10.00">TEveElement.h</text>
</g>
<!-- Node1&#45;&gt;Node17 -->
<g id="edge23" class="edge"><title>Node1&#45;&gt;Node17</title>
<path fill="none" stroke="midnightblue" d="M268.435,-236.461C219.745,-205.844 146.923,-160.052 110.475,-137.133"/>
<polygon fill="midnightblue" stroke="midnightblue" points="111.947,-133.924 101.618,-131.563 108.22,-139.849 111.947,-133.924"/>
</g>
<!-- Node21 -->
<g id="node21" class="node"><title>Node21</title>
<g id="a_node21"><a xlink:href="../../d6/d7c/VisualisationConstants_8h.html" target="_top" xlink:title="EventVisualisationBase\l/VisualisationConstants.h">
<polygon fill="none" stroke="black" points="413,-169 413,-199 541,-199 541,-169 413,-169"/>
<text text-anchor="start" x="421" y="-187" font-family="Helvetica,sans-Serif" font-size="10.00">EventVisualisationBase</text>
<text text-anchor="middle" x="477" y="-176" font-family="Helvetica,sans-Serif" font-size="10.00">/VisualisationConstants.h</text>
</a>
</g>
</g>
<!-- Node1&#45;&gt;Node21 -->
<g id="edge21" class="edge"><title>Node1&#45;&gt;Node21</title>
<path fill="none" stroke="midnightblue" d="M376.578,-236.466C398.012,-225.481 421.542,-213.422 440.434,-203.74"/>
<polygon fill="midnightblue" stroke="midnightblue" points="442.277,-206.728 449.58,-199.053 439.085,-200.499 442.277,-206.728"/>
</g>
<!-- Node3 -->
<g id="node3" class="node"><title>Node3</title>
<g id="a_node3"><a xlink:href="../../d1/da0/Manager_8h.html" target="_top" xlink:title="CCDB/Manager.h">
<polygon fill="none" stroke="black" points="148.5,-112.5 148.5,-131.5 243.5,-131.5 243.5,-112.5 148.5,-112.5"/>
<text text-anchor="middle" x="196" y="-119.5" font-family="Helvetica,sans-Serif" font-size="10.00">CCDB/Manager.h</text>
</a>
</g>
</g>
<!-- Node2&#45;&gt;Node3 -->
<g id="edge2" class="edge"><title>Node2&#45;&gt;Node3</title>
<path fill="none" stroke="midnightblue" d="M288.631,-168.933C268.581,-158.991 241.899,-145.76 222.323,-136.053"/>
<polygon fill="midnightblue" stroke="midnightblue" points="223.857,-132.907 213.343,-131.6 220.748,-139.178 223.857,-132.907"/>
</g>
<!-- Node2&#45;&gt;Node17 -->
<g id="edge17" class="edge"><title>Node2&#45;&gt;Node17</title>
<path fill="none" stroke="midnightblue" d="M263.31,-168.933C222.829,-158.326 168.063,-143.977 130.578,-134.156"/>
<polygon fill="midnightblue" stroke="midnightblue" points="131.051,-130.662 120.49,-131.513 129.276,-137.433 131.051,-130.662"/>
</g>
<!-- Node18 -->
<g id="node18" class="node"><title>Node18</title>
<polygon fill="none" stroke="#bfbfbf" points="261.5,-112.5 261.5,-131.5 372.5,-131.5 372.5,-112.5 261.5,-112.5"/>
<text text-anchor="middle" x="317" y="-119.5" font-family="Helvetica,sans-Serif" font-size="10.00">TEveEventManager.h</text>
</g>
<!-- Node2&#45;&gt;Node18 -->
<g id="edge18" class="edge"><title>Node2&#45;&gt;Node18</title>
<path fill="none" stroke="midnightblue" d="M317,-168.781C317,-160.781 317,-150.689 317,-142.017"/>
<polygon fill="midnightblue" stroke="midnightblue" points="320.5,-141.73 317,-131.731 313.5,-141.731 320.5,-141.73"/>
</g>
<!-- Node19 -->
<g id="node19" class="node"><title>Node19</title>
<polygon fill="none" stroke="#bfbfbf" points="390.5,-112.5 390.5,-131.5 457.5,-131.5 457.5,-112.5 390.5,-112.5"/>
<text text-anchor="middle" x="424" y="-119.5" font-family="Helvetica,sans-Serif" font-size="10.00">TQObject.h</text>
</g>
<!-- Node2&#45;&gt;Node19 -->
<g id="edge19" class="edge"><title>Node2&#45;&gt;Node19</title>
<path fill="none" stroke="midnightblue" d="M342.087,-168.933C359.494,-159.171 382.555,-146.24 399.772,-136.586"/>
<polygon fill="midnightblue" stroke="midnightblue" points="401.653,-139.544 408.663,-131.6 398.229,-133.438 401.653,-139.544"/>
</g>
<!-- Node20 -->
<g id="node20" class="node"><title>Node20</title>
<polygon fill="none" stroke="#bfbfbf" points="475.5,-112.5 475.5,-131.5 516.5,-131.5 516.5,-112.5 475.5,-112.5"/>
<text text-anchor="middle" x="496" y="-119.5" font-family="Helvetica,sans-Serif" font-size="10.00">string</text>
</g>
<!-- Node2&#45;&gt;Node20 -->
<g id="edge20" class="edge"><title>Node2&#45;&gt;Node20</title>
<path fill="none" stroke="midnightblue" d="M358.968,-168.933C391.69,-157.964 436.354,-142.993 465.671,-133.166"/>
<polygon fill="midnightblue" stroke="midnightblue" points="466.987,-136.417 475.356,-129.92 464.762,-129.78 466.987,-136.417"/>
</g>
<!-- Node4 -->
<g id="node4" class="node"><title>Node4</title>
<polygon fill="none" stroke="#bfbfbf" points="-0.5,-56.5 -0.5,-75.5 46.5,-75.5 46.5,-56.5 -0.5,-56.5"/>
<text text-anchor="middle" x="23" y="-63.5" font-family="Helvetica,sans-Serif" font-size="10.00">TList.h</text>
</g>
<!-- Node3&#45;&gt;Node4 -->
<g id="edge3" class="edge"><title>Node3&#45;&gt;Node4</title>
<path fill="none" stroke="midnightblue" d="M168.588,-112.444C138.108,-102.93 88.8801,-87.5637 56.2313,-77.3728"/>
<polygon fill="midnightblue" stroke="midnightblue" points="57.2589,-74.0271 46.6703,-74.3884 55.1732,-80.7091 57.2589,-74.0271"/>
</g>
<!-- Node5 -->
<g id="node5" class="node"><title>Node5</title>
<polygon fill="none" stroke="#bfbfbf" points="65,-56.5 65,-75.5 115,-75.5 115,-56.5 65,-56.5"/>
<text text-anchor="middle" x="90" y="-63.5" font-family="Helvetica,sans-Serif" font-size="10.00">TMap.h</text>
</g>
<!-- Node3&#45;&gt;Node5 -->
<g id="edge4" class="edge"><title>Node3&#45;&gt;Node5</title>
<path fill="none" stroke="midnightblue" d="M178.969,-112.324C161.97,-103.664 135.624,-90.2424 116.007,-80.249"/>
<polygon fill="midnightblue" stroke="midnightblue" points="117.488,-77.0752 106.988,-75.6545 114.31,-83.3125 117.488,-77.0752"/>
</g>
<!-- Node6 -->
<g id="node6" class="node"><title>Node6</title>
<polygon fill="none" stroke="#bfbfbf" points="156.5,-0.5 156.5,-19.5 215.5,-19.5 215.5,-0.5 156.5,-0.5"/>
<text text-anchor="middle" x="186" y="-7.5" font-family="Helvetica,sans-Serif" font-size="10.00">TObject.h</text>
</g>
<!-- Node3&#45;&gt;Node6 -->
<g id="edge5" class="edge"><title>Node3&#45;&gt;Node6</title>
<path fill="none" stroke="midnightblue" d="M186.712,-112.395C178.419,-104.025 166.856,-90.4826 162,-76 156.522,-59.6637 164.688,-41.2597 172.944,-28.2159"/>
<polygon fill="midnightblue" stroke="midnightblue" points="175.973,-29.9885 178.778,-19.7716 170.214,-26.0095 175.973,-29.9885"/>
</g>
<!-- Node7 -->
<g id="node7" class="node"><title>Node7</title>
<polygon fill="none" stroke="#bfbfbf" points="171.5,-56.5 171.5,-75.5 220.5,-75.5 220.5,-56.5 171.5,-56.5"/>
<text text-anchor="middle" x="196" y="-63.5" font-family="Helvetica,sans-Serif" font-size="10.00">cstddef</text>
</g>
<!-- Node3&#45;&gt;Node7 -->
<g id="edge6" class="edge"><title>Node3&#45;&gt;Node7</title>
<path fill="none" stroke="midnightblue" d="M196,-112.083C196,-105.006 196,-94.8611 196,-85.9865"/>
<polygon fill="midnightblue" stroke="midnightblue" points="199.5,-85.751 196,-75.7511 192.5,-85.7511 199.5,-85.751"/>
</g>
<!-- Node8 -->
<g id="node8" class="node"><title>Node8</title>
<polygon fill="none" stroke="#bfbfbf" points="239,-56.5 239,-75.5 295,-75.5 295,-56.5 239,-56.5"/>
<text text-anchor="middle" x="267" y="-63.5" font-family="Helvetica,sans-Serif" font-size="10.00">Rtypes.h</text>
</g>
<!-- Node3&#45;&gt;Node8 -->
<g id="edge7" class="edge"><title>Node3&#45;&gt;Node8</title>
<path fill="none" stroke="midnightblue" d="M207.407,-112.324C218.109,-104.185 234.341,-91.8395 247.163,-82.0874"/>
<polygon fill="midnightblue" stroke="midnightblue" points="249.544,-84.6734 255.385,-75.8339 245.307,-79.1018 249.544,-84.6734"/>
</g>
<!-- Node9 -->
<g id="node9" class="node"><title>Node9</title>
<polygon fill="none" stroke="#bfbfbf" points="313,-56.5 313,-75.5 369,-75.5 369,-56.5 313,-56.5"/>
<text text-anchor="middle" x="341" y="-63.5" font-family="Helvetica,sans-Serif" font-size="10.00">TString.h</text>
</g>
<!-- Node3&#45;&gt;Node9 -->
<g id="edge8" class="edge"><title>Node3&#45;&gt;Node9</title>
<path fill="none" stroke="midnightblue" d="M218.976,-112.444C243.157,-103.438 281.418,-89.1891 308.646,-79.049"/>
<polygon fill="midnightblue" stroke="midnightblue" points="309.982,-82.2864 318.132,-75.5164 307.539,-75.7265 309.982,-82.2864"/>
</g>
<!-- Node10 -->
<g id="node10" class="node"><title>Node10</title>
<g id="a_node10"><a xlink:href="../../d7/d44/TObjectWrapper_8h.html" target="_top" xlink:title="CCDB/TObjectWrapper.h">
<polygon fill="none" stroke="black" points="387,-56.5 387,-75.5 515,-75.5 515,-56.5 387,-56.5"/>
<text text-anchor="middle" x="451" y="-63.5" font-family="Helvetica,sans-Serif" font-size="10.00">CCDB/TObjectWrapper.h</text>
</a>
</g>
</g>
<!-- Node3&#45;&gt;Node10 -->
<g id="edge9" class="edge"><title>Node3&#45;&gt;Node10</title>
<path fill="none" stroke="midnightblue" d="M236.406,-112.444C280.983,-103.004 352.768,-87.802 400.892,-77.6111"/>
<polygon fill="midnightblue" stroke="midnightblue" points="401.726,-81.0123 410.784,-75.5164 400.275,-74.1641 401.726,-81.0123"/>
</g>
<!-- Node10&#45;&gt;Node6 -->
<g id="edge11" class="edge"><title>Node10&#45;&gt;Node6</title>
<path fill="none" stroke="midnightblue" d="M409.01,-56.4435C358.733,-46.1985 275.152,-29.1669 225.846,-19.1195"/>
<polygon fill="midnightblue" stroke="midnightblue" points="226.366,-15.6537 215.869,-17.0865 224.968,-22.5128 226.366,-15.6537"/>
</g>
<!-- Node11 -->
<g id="node11" class="node"><title>Node11</title>
<polygon fill="none" stroke="#bfbfbf" points="242,-0.5 242,-19.5 298,-19.5 298,-0.5 242,-0.5"/>
<text text-anchor="middle" x="270" y="-7.5" font-family="Helvetica,sans-Serif" font-size="10.00">TClass.h</text>
</g>
<!-- Node10&#45;&gt;Node11 -->
<g id="edge10" class="edge"><title>Node10&#45;&gt;Node11</title>
<path fill="none" stroke="midnightblue" d="M422.32,-56.4435C391.382,-47.2135 341.982,-32.4753 307.87,-22.2983"/>
<polygon fill="midnightblue" stroke="midnightblue" points="308.831,-18.9326 298.248,-19.4275 306.83,-25.6404 308.831,-18.9326"/>
</g>
<!-- Node12 -->
<g id="node12" class="node"><title>Node12</title>
<polygon fill="none" stroke="#bfbfbf" points="316.5,-0.5 316.5,-19.5 369.5,-19.5 369.5,-0.5 316.5,-0.5"/>
<text text-anchor="middle" x="343" y="-7.5" font-family="Helvetica,sans-Serif" font-size="10.00">cxxabi.h</text>
</g>
<!-- Node10&#45;&gt;Node12 -->
<g id="edge12" class="edge"><title>Node10&#45;&gt;Node12</title>
<path fill="none" stroke="midnightblue" d="M433.648,-56.324C416.328,-47.6641 389.485,-34.2424 369.498,-24.249"/>
<polygon fill="midnightblue" stroke="midnightblue" points="370.819,-20.9962 360.309,-19.6545 367.688,-27.2572 370.819,-20.9962"/>
</g>
<!-- Node13 -->
<g id="node13" class="node"><title>Node13</title>
<polygon fill="none" stroke="#bfbfbf" points="388,-0.5 388,-19.5 442,-19.5 442,-0.5 388,-0.5"/>
<text text-anchor="middle" x="415" y="-7.5" font-family="Helvetica,sans-Serif" font-size="10.00">iostream</text>
</g>
<!-- Node10&#45;&gt;Node13 -->
<g id="edge13" class="edge"><title>Node10&#45;&gt;Node13</title>
<path fill="none" stroke="midnightblue" d="M445.055,-56.083C440.023,-48.5341 432.663,-37.4948 426.487,-28.2298"/>
<polygon fill="midnightblue" stroke="midnightblue" points="429.293,-26.1301 420.834,-19.7511 423.469,-30.0131 429.293,-26.1301"/>
</g>
<!-- Node14 -->
<g id="node14" class="node"><title>Node14</title>
<polygon fill="none" stroke="#bfbfbf" points="460,-0.5 460,-19.5 512,-19.5 512,-0.5 460,-0.5"/>
<text text-anchor="middle" x="486" y="-7.5" font-family="Helvetica,sans-Serif" font-size="10.00">memory</text>
</g>
<!-- Node10&#45;&gt;Node14 -->
<g id="edge14" class="edge"><title>Node10&#45;&gt;Node14</title>
<path fill="none" stroke="midnightblue" d="M456.78,-56.083C461.672,-48.5341 468.827,-37.4948 474.833,-28.2298"/>
<polygon fill="midnightblue" stroke="midnightblue" points="477.826,-30.0463 480.328,-19.7511 471.952,-26.239 477.826,-30.0463"/>
</g>
<!-- Node15 -->
<g id="node15" class="node"><title>Node15</title>
<polygon fill="none" stroke="#bfbfbf" points="530.5,-0.5 530.5,-19.5 589.5,-19.5 589.5,-0.5 530.5,-0.5"/>
<text text-anchor="middle" x="560" y="-7.5" font-family="Helvetica,sans-Serif" font-size="10.00">stdexcept</text>
</g>
<!-- Node10&#45;&gt;Node15 -->
<g id="edge15" class="edge"><title>Node10&#45;&gt;Node15</title>
<path fill="none" stroke="midnightblue" d="M468.513,-56.324C486.072,-47.6247 513.331,-34.1202 533.531,-24.113"/>
<polygon fill="midnightblue" stroke="midnightblue" points="535.124,-27.23 542.531,-19.6545 532.016,-20.9575 535.124,-27.23"/>
</g>
<!-- Node16 -->
<g id="node16" class="node"><title>Node16</title>
<polygon fill="none" stroke="#bfbfbf" points="607.5,-0.5 607.5,-19.5 658.5,-19.5 658.5,-0.5 607.5,-0.5"/>
<text text-anchor="middle" x="633" y="-7.5" font-family="Helvetica,sans-Serif" font-size="10.00">typeinfo</text>
</g>
<!-- Node10&#45;&gt;Node16 -->
<g id="edge16" class="edge"><title>Node10&#45;&gt;Node16</title>
<path fill="none" stroke="midnightblue" d="M479.838,-56.4435C511.768,-46.9699 563.255,-31.6935 597.604,-21.5022"/>
<polygon fill="midnightblue" stroke="midnightblue" points="598.648,-24.8433 607.239,-18.6433 596.657,-18.1324 598.648,-24.8433"/>
</g>
<!-- Node21&#45;&gt;Node20 -->
<g id="edge22" class="edge"><title>Node21&#45;&gt;Node20</title>
<path fill="none" stroke="midnightblue" d="M481.503,-168.781C484.093,-160.601 487.376,-150.234 490.162,-141.434"/>
<polygon fill="midnightblue" stroke="midnightblue" points="493.553,-142.321 493.235,-131.731 486.88,-140.207 493.553,-142.321"/>
</g>
</g>
</svg>
        <g id="navigator" transform="translate(0 0)" fill="#404254">
                <rect fill="#f2f5e9" fill-opacity="0.5" stroke="#606060" stroke-width=".5" x="0" y="0" width="60" height="60"/>
                <use id="zoomplus" xlink:href="#zoomPlus" x="17" y="9" onmousedown="handleZoom(evt,'in')"/>
                <use id="zoomminus" xlink:href="#zoomMin" x="42" y="9" onmousedown="handleZoom(evt,'out')"/>
                <use id="reset" xlink:href="#resetDef" x="30" y="36" onmousedown="handleReset()"/>
                <g id="arrowUp" xlink:href="#dirArrow" transform="translate(30 24)" onmousedown="handlePan(0,-1)">
                  <use xlink:href="#rim" fill="#404040">
                        <set attributeName="fill" to="#808080" begin="arrowUp.mouseover" end="arrowUp.mouseout"/>
                  </use>
                  <path fill="none" stroke="white" stroke-width="1.5" d="M0,-3.0v7 M-2.5,-0.5L0,-3.0L2.5,-0.5"/>
                </g>
                <g id="arrowRight" xlink:href="#dirArrow" transform="rotate(90) translate(36 -43)" onmousedown="handlePan(1,0)">
                  <use xlink:href="#rim" fill="#404040">
                        <set attributeName="fill" to="#808080" begin="arrowRight.mouseover" end="arrowRight.mouseout"/>
                  </use>
                  <path fill="none" stroke="white" stroke-width="1.5" d="M0,-3.0v7 M-2.5,-0.5L0,-3.0L2.5,-0.5"/>
                </g>
                <g id="arrowDown" xlink:href="#dirArrow" transform="rotate(180) translate(-30 -48)" onmousedown="handlePan(0,1)">
                  <use xlink:href="#rim" fill="#404040">
                        <set attributeName="fill" to="#808080" begin="arrowDown.mouseover" end="arrowDown.mouseout"/>
                  </use>
                  <path fill="none" stroke="white" stroke-width="1.5" d="M0,-3.0v7 M-2.5,-0.5L0,-3.0L2.5,-0.5"/>
                </g>
                <g id="arrowLeft" xlink:href="#dirArrow" transform="rotate(270) translate(-36 17)" onmousedown="handlePan(-1,0)">
                  <use xlink:href="#rim" fill="#404040">
                        <set attributeName="fill" to="#808080" begin="arrowLeft.mouseover" end="arrowLeft.mouseout"/>
                  </use>
                  <path fill="none" stroke="white" stroke-width="1.5" d="M0,-3.0v7 M-2.5,-0.5L0,-3.0L2.5,-0.5"/>
                </g>
        </g>
        <svg viewBox="0 0 15 15" width="100%" height="30px" preserveAspectRatio="xMaxYMin meet">
         <g id="arrow_out" transform="scale(0.3 0.3)">
          <a xlink:href="DataInterpreter_8h__incl_org.svg" target="_base">
           <rect id="button" ry="5" rx="5" y="6" x="6" height="38" width="38"
                fill="#f2f5e9" fill-opacity="0.5" stroke="#606060" stroke-width="1.0"/>
           <path id="arrow"
             d="M 11.500037,31.436501 C 11.940474,20.09759 22.043105,11.32322 32.158766,21.979434 L 37.068811,17.246167 C 37.068811,17.246167 37.088388,32 37.088388,32 L 22.160133,31.978069 C 22.160133,31.978069 26.997745,27.140456 26.997745,27.140456 C 18.528582,18.264221 13.291696,25.230495 11.500037,31.436501 z"
             style="fill:#404040;"/>
          </a>
         </g>
        </svg>
</svg>
