<?xml version="1.0" encoding="UTF-8" standalone="no"?>
<!DOCTYPE svg PUBLIC "-//W3C//DTD SVG 1.1//EN"
 "http://www.w3.org/Graphics/SVG/1.1/DTD/svg11.dtd">
<!-- Generated by graphviz version 2.36.0 (20140111.2315)
 -->
<!-- Title: /home/travis/build/AliceO2Group/AliceO2/Utilities/QC/QCMetricsExtractor/src/runMetricsExtractor.cxx Pages: 1 -->
<svg width="529pt" height="198pt"
 viewBox="0.00 0.00 529.00 198.00" xmlns="http://www.w3.org/2000/svg" xmlns:xlink="http://www.w3.org/1999/xlink">
<g id="graph0" class="graph" transform="scale(1 1) rotate(0) translate(4 194)">
<title>/home/travis/build/AliceO2Group/AliceO2/Utilities/QC/QCMetricsExtractor/src/runMetricsExtractor.cxx</title>
<!-- Node1 -->
<g id="node1" class="node"><title>Node1</title>
<polygon fill="#bfbfbf" stroke="black" points="196.5,-137 196.5,-189 357.5,-189 357.5,-137 196.5,-137"/>
<text text-anchor="start" x="204.5" y="-177" font-family="Helvetica,sans-Serif" font-size="10.00">/home/travis/build</text>
<text text-anchor="start" x="204.5" y="-166" font-family="Helvetica,sans-Serif" font-size="10.00">/AliceO2Group/AliceO2</text>
<text text-anchor="start" x="204.5" y="-155" font-family="Helvetica,sans-Serif" font-size="10.00">/Utilities/QC/QCMetricsExtractor</text>
<text text-anchor="middle" x="277" y="-144" font-family="Helvetica,sans-Serif" font-size="10.00">/src/runMetricsExtractor.cxx</text>
</g>
<!-- Node2 -->
<g id="node2" class="node"><title>Node2</title>
<g id="a_node2"><a xlink:href="../../d4/d4a/MetricsExtractor_8h.html" target="_top" xlink:title="QCMetricsExtractor\l/MetricsExtractor.h">
<polygon fill="none" stroke="black" points="77,-69 77,-99 181,-99 181,-69 77,-69"/>
<text text-anchor="start" x="85" y="-87" font-family="Helvetica,sans-Serif" font-size="10.00">QCMetricsExtractor</text>
<text text-anchor="middle" x="129" y="-76" font-family="Helvetica,sans-Serif" font-size="10.00">/MetricsExtractor.h</text>
</a>
</g>
</g>
<!-- Node1&#45;&gt;Node2 -->
<g id="edge1" class="edge"><title>Node1&#45;&gt;Node2</title>
<path fill="none" stroke="midnightblue" d="M228.539,-136.787C207.819,-126.007 184.054,-113.643 164.943,-103.7"/>
<polygon fill="midnightblue" stroke="midnightblue" points="166.455,-100.541 155.968,-99.0307 163.224,-106.751 166.455,-100.541"/>
</g>
<!-- Node7 -->
<g id="node7" class="node"><title>Node7</title>
<polygon fill="none" stroke="#bfbfbf" points="199,-74.5 199,-93.5 253,-93.5 253,-74.5 199,-74.5"/>
<text text-anchor="middle" x="226" y="-81.5" font-family="Helvetica,sans-Serif" font-size="10.00">iostream</text>
</g>
<!-- Node1&#45;&gt;Node7 -->
<g id="edge6" class="edge"><title>Node1&#45;&gt;Node7</title>
<path fill="none" stroke="midnightblue" d="M260.301,-136.787C252.739,-125.37 243.999,-112.176 237.235,-101.962"/>
<polygon fill="midnightblue" stroke="midnightblue" points="240.108,-99.9621 231.668,-93.5577 234.272,-103.828 240.108,-99.9621"/>
</g>
<!-- Node8 -->
<g id="node8" class="node"><title>Node8</title>
<polygon fill="none" stroke="#bfbfbf" points="271,-69 271,-99 387,-99 387,-69 271,-69"/>
<text text-anchor="start" x="279" y="-87" font-family="Helvetica,sans-Serif" font-size="10.00">boost/program_options</text>
<text text-anchor="middle" x="329" y="-76" font-family="Helvetica,sans-Serif" font-size="10.00">/parsers.hpp</text>
</g>
<!-- Node1&#45;&gt;Node8 -->
<g id="edge7" class="edge"><title>Node1&#45;&gt;Node8</title>
<path fill="none" stroke="midnightblue" d="M294.027,-136.787C300.336,-127.445 307.448,-116.913 313.604,-107.798"/>
<polygon fill="midnightblue" stroke="midnightblue" points="316.679,-109.498 319.375,-99.252 310.878,-105.58 316.679,-109.498"/>
</g>
<!-- Node9 -->
<g id="node9" class="node"><title>Node9</title>
<polygon fill="none" stroke="#bfbfbf" points="405,-69 405,-99 521,-99 521,-69 405,-69"/>
<text text-anchor="start" x="413" y="-87" font-family="Helvetica,sans-Serif" font-size="10.00">boost/program_options</text>
<text text-anchor="middle" x="463" y="-76" font-family="Helvetica,sans-Serif" font-size="10.00">/variables_map.hpp</text>
</g>
<!-- Node1&#45;&gt;Node9 -->
<g id="edge8" class="edge"><title>Node1&#45;&gt;Node9</title>
<path fill="none" stroke="midnightblue" d="M337.646,-136.894C364.413,-125.813 395.264,-113.041 419.662,-102.941"/>
<polygon fill="midnightblue" stroke="midnightblue" points="421.112,-106.129 429.012,-99.0702 418.434,-99.6613 421.112,-106.129"/>
</g>
<!-- Node3 -->
<g id="node3" class="node"><title>Node3</title>
<polygon fill="none" stroke="#bfbfbf" points="0,-6.5 0,-25.5 50,-25.5 50,-6.5 0,-6.5"/>
<text text-anchor="middle" x="25" y="-13.5" font-family="Helvetica,sans-Serif" font-size="10.00">fstream</text>
</g>
<!-- Node2&#45;&gt;Node3 -->
<g id="edge2" class="edge"><title>Node2&#45;&gt;Node3</title>
<path fill="none" stroke="midnightblue" d="M106.689,-68.8413C89.1038,-57.6813 64.7055,-42.1977 47.1592,-31.0625"/>
<polygon fill="midnightblue" stroke="midnightblue" points="48.9993,-28.085 38.6805,-25.6819 45.2485,-33.9953 48.9993,-28.085"/>
</g>
<!-- Node4 -->
<g id="node4" class="node"><title>Node4</title>
<polygon fill="none" stroke="#bfbfbf" points="68.5,-6.5 68.5,-25.5 109.5,-25.5 109.5,-6.5 68.5,-6.5"/>
<text text-anchor="middle" x="89" y="-13.5" font-family="Helvetica,sans-Serif" font-size="10.00">string</text>
</g>
<!-- Node2&#45;&gt;Node4 -->
<g id="edge3" class="edge"><title>Node2&#45;&gt;Node4</title>
<path fill="none" stroke="midnightblue" d="M120.321,-68.679C114.269,-58.6938 106.156,-45.3066 99.7028,-34.6596"/>
<polygon fill="midnightblue" stroke="midnightblue" points="102.527,-32.5662 94.3505,-25.8283 96.5403,-36.1944 102.527,-32.5662"/>
</g>
<!-- Node5 -->
<g id="node5" class="node"><title>Node5</title>
<polygon fill="none" stroke="#bfbfbf" points="127.5,-6.5 127.5,-25.5 210.5,-25.5 210.5,-6.5 127.5,-6.5"/>
<text text-anchor="middle" x="169" y="-13.5" font-family="Helvetica,sans-Serif" font-size="10.00">dds_intercom.h</text>
</g>
<!-- Node2&#45;&gt;Node5 -->
<g id="edge4" class="edge"><title>Node2&#45;&gt;Node5</title>
<path fill="none" stroke="midnightblue" d="M137.679,-68.679C143.731,-58.6938 151.844,-45.3066 158.297,-34.6596"/>
<polygon fill="midnightblue" stroke="midnightblue" points="161.46,-36.1944 163.65,-25.8283 155.473,-32.5662 161.46,-36.1944"/>
</g>
<!-- Node6 -->
<g id="node6" class="node"><title>Node6</title>
<polygon fill="none" stroke="#bfbfbf" points="228.5,-1 228.5,-31 329.5,-31 329.5,-1 228.5,-1"/>
<text text-anchor="start" x="236.5" y="-19" font-family="Helvetica,sans-Serif" font-size="10.00">boost/property_tree</text>
<text text-anchor="middle" x="279" y="-8" font-family="Helvetica,sans-Serif" font-size="10.00">/ptree.hpp</text>
</g>
<!-- Node2&#45;&gt;Node6 -->
<g id="edge5" class="edge"><title>Node2&#45;&gt;Node6</title>
<path fill="none" stroke="midnightblue" d="M161.179,-68.8413C183.598,-58.9771 213.693,-45.735 237.856,-35.1036"/>
<polygon fill="midnightblue" stroke="midnightblue" points="239.389,-38.2529 247.132,-31.0218 236.569,-31.8457 239.389,-38.2529"/>
</g>
</g>
</svg>
