<?xml version="1.0" encoding="UTF-8" standalone="no"?>
<!DOCTYPE svg PUBLIC "-//W3C//DTD SVG 1.1//EN"
 "http://www.w3.org/Graphics/SVG/1.1/DTD/svg11.dtd">
<!-- Generated by graphviz version 2.36.0 (20140111.2315)
 -->
<!-- Title: /home/travis/build/AliceO2Group/AliceO2/Algorithm/test/pageparser.cxx Pages: 1 -->
<svg width="732pt" height="174pt"
 viewBox="0.00 0.00 732.00 174.00" xmlns="http://www.w3.org/2000/svg" xmlns:xlink="http://www.w3.org/1999/xlink">
<g id="graph0" class="graph" transform="scale(1 1) rotate(0) translate(4 170)">
<title>/home/travis/build/AliceO2Group/AliceO2/Algorithm/test/pageparser.cxx</title>
<!-- Node1 -->
<g id="node1" class="node"><title>Node1</title>
<polygon fill="#bfbfbf" stroke="black" points="261,-124.5 261,-165.5 411,-165.5 411,-124.5 261,-124.5"/>
<text text-anchor="start" x="269" y="-153.5" font-family="Helvetica,sans-Serif" font-size="10.00">/home/travis/build</text>
<text text-anchor="start" x="269" y="-142.5" font-family="Helvetica,sans-Serif" font-size="10.00">/AliceO2Group/AliceO2</text>
<text text-anchor="middle" x="336" y="-131.5" font-family="Helvetica,sans-Serif" font-size="10.00">/Algorithm/test/pageparser.cxx</text>
</g>
<!-- Node2 -->
<g id="node2" class="node"><title>Node2</title>
<polygon fill="none" stroke="#bfbfbf" points="-0.5,-62.5 -0.5,-81.5 118.5,-81.5 118.5,-62.5 -0.5,-62.5"/>
<text text-anchor="middle" x="59" y="-69.5" font-family="Helvetica,sans-Serif" font-size="10.00">boost/test/unit_test.hpp</text>
</g>
<!-- Node1&#45;&gt;Node2 -->
<g id="edge1" class="edge"><title>Node1&#45;&gt;Node2</title>
<path fill="none" stroke="midnightblue" d="M260.674,-124.693C209.802,-111.653 144.458,-94.9044 102.161,-84.0629"/>
<polygon fill="midnightblue" stroke="midnightblue" points="103.008,-80.6669 92.452,-81.5743 101.27,-87.4477 103.008,-80.6669"/>
</g>
<!-- Node3 -->
<g id="node3" class="node"><title>Node3</title>
<polygon fill="none" stroke="#bfbfbf" points="137,-62.5 137,-81.5 191,-81.5 191,-62.5 137,-62.5"/>
<text text-anchor="middle" x="164" y="-69.5" font-family="Helvetica,sans-Serif" font-size="10.00">iostream</text>
</g>
<!-- Node1&#45;&gt;Node3 -->
<g id="edge2" class="edge"><title>Node1&#45;&gt;Node3</title>
<path fill="none" stroke="midnightblue" d="M288.461,-124.482C262.34,-113.743 229.37,-100.166 200,-88 198.123,-87.2227 196.192,-86.4215 194.245,-85.6129"/>
<polygon fill="midnightblue" stroke="midnightblue" points="195.132,-82.191 184.554,-81.5817 192.443,-88.6541 195.132,-82.191"/>
</g>
<!-- Node4 -->
<g id="node4" class="node"><title>Node4</title>
<polygon fill="none" stroke="#bfbfbf" points="209,-62.5 209,-81.5 259,-81.5 259,-62.5 209,-62.5"/>
<text text-anchor="middle" x="234" y="-69.5" font-family="Helvetica,sans-Serif" font-size="10.00">iomanip</text>
</g>
<!-- Node1&#45;&gt;Node4 -->
<g id="edge3" class="edge"><title>Node1&#45;&gt;Node4</title>
<path fill="none" stroke="midnightblue" d="M307.858,-124.411C291,-112.676 269.94,-98.0171 254.627,-87.3581"/>
<polygon fill="midnightblue" stroke="midnightblue" points="256.557,-84.4373 246.35,-81.5968 252.558,-90.1825 256.557,-84.4373"/>
</g>
<!-- Node5 -->
<g id="node5" class="node"><title>Node5</title>
<polygon fill="none" stroke="#bfbfbf" points="445,-0.5 445,-19.5 489,-19.5 489,-0.5 445,-0.5"/>
<text text-anchor="middle" x="467" y="-7.5" font-family="Helvetica,sans-Serif" font-size="10.00">vector</text>
</g>
<!-- Node1&#45;&gt;Node5 -->
<g id="edge4" class="edge"><title>Node1&#45;&gt;Node5</title>
<path fill="none" stroke="midnightblue" d="M361.76,-124.285C374.629,-113.991 390.154,-100.881 403,-88 422.29,-68.6567 442.016,-44.0443 454.372,-27.9219"/>
<polygon fill="midnightblue" stroke="midnightblue" points="457.491,-29.6 460.737,-19.5144 451.91,-25.3749 457.491,-29.6"/>
</g>
<!-- Node6 -->
<g id="node6" class="node"><title>Node6</title>
<g id="a_node6"><a xlink:href="../../dc/dcd/DataHeader_8h.html" target="_top" xlink:title="Headers/DataHeader.h">
<polygon fill="none" stroke="black" points="277.5,-62.5 277.5,-81.5 394.5,-81.5 394.5,-62.5 277.5,-62.5"/>
<text text-anchor="middle" x="336" y="-69.5" font-family="Helvetica,sans-Serif" font-size="10.00">Headers/DataHeader.h</text>
</a>
</g>
</g>
<!-- Node1&#45;&gt;Node6 -->
<g id="edge5" class="edge"><title>Node1&#45;&gt;Node6</title>
<path fill="none" stroke="midnightblue" d="M336,-124.223C336,-114.086 336,-101.807 336,-91.8125"/>
<polygon fill="midnightblue" stroke="midnightblue" points="339.5,-91.7349 336,-81.7349 332.5,-91.7349 339.5,-91.7349"/>
</g>
<!-- Node12 -->
<g id="node12" class="node"><title>Node12</title>
<g id="a_node12"><a xlink:href="../../d6/d34/PageParser_8h.html" target="_top" xlink:title="Parser for a set of data objects in consecutive memory pages. ">
<polygon fill="none" stroke="black" points="451.5,-57 451.5,-87 552.5,-87 552.5,-57 451.5,-57"/>
<text text-anchor="start" x="459.5" y="-75" font-family="Helvetica,sans-Serif" font-size="10.00">../include/Algorithm</text>
<text text-anchor="middle" x="502" y="-64" font-family="Helvetica,sans-Serif" font-size="10.00">/PageParser.h</text>
</a>
</g>
</g>
<!-- Node1&#45;&gt;Node12 -->
<g id="edge11" class="edge"><title>Node1&#45;&gt;Node12</title>
<path fill="none" stroke="midnightblue" d="M381.8,-124.411C406.176,-113.985 435.949,-101.251 459.765,-91.0643"/>
<polygon fill="midnightblue" stroke="midnightblue" points="461.422,-94.1623 469.24,-87.0117 458.669,-87.7263 461.422,-94.1623"/>
</g>
<!-- Node16 -->
<g id="node16" class="node"><title>Node16</title>
<g id="a_node16"><a xlink:href="../../d2/d79/StaticSequenceAllocator_8h.html" target="_top" xlink:title="An allocator for static sequences of object types. ">
<polygon fill="none" stroke="black" points="571,-62.5 571,-81.5 703,-81.5 703,-62.5 571,-62.5"/>
<text text-anchor="middle" x="637" y="-69.5" font-family="Helvetica,sans-Serif" font-size="10.00">StaticSequenceAllocator.h</text>
</a>
</g>
</g>
<!-- Node1&#45;&gt;Node16 -->
<g id="edge17" class="edge"><title>Node1&#45;&gt;Node16</title>
<path fill="none" stroke="midnightblue" d="M411.179,-126.267C467.589,-112.961 543.021,-95.1678 590.82,-83.893"/>
<polygon fill="midnightblue" stroke="midnightblue" points="591.654,-87.2923 600.584,-81.5899 590.047,-80.4793 591.654,-87.2923"/>
</g>
<!-- Node7 -->
<g id="node7" class="node"><title>Node7</title>
<polygon fill="none" stroke="#bfbfbf" points="313,-0.5 313,-19.5 359,-19.5 359,-0.5 313,-0.5"/>
<text text-anchor="middle" x="336" y="-7.5" font-family="Helvetica,sans-Serif" font-size="10.00">cstdint</text>
</g>
<!-- Node6&#45;&gt;Node7 -->
<g id="edge6" class="edge"><title>Node6&#45;&gt;Node7</title>
<path fill="none" stroke="midnightblue" d="M336,-62.4035C336,-53.9381 336,-40.7283 336,-29.8199"/>
<polygon fill="midnightblue" stroke="midnightblue" points="339.5,-29.5806 336,-19.5806 332.5,-29.5806 339.5,-29.5806"/>
</g>
<!-- Node8 -->
<g id="node8" class="node"><title>Node8</title>
<polygon fill="none" stroke="#bfbfbf" points="105,-0.5 105,-19.5 157,-19.5 157,-0.5 105,-0.5"/>
<text text-anchor="middle" x="131" y="-7.5" font-family="Helvetica,sans-Serif" font-size="10.00">memory</text>
</g>
<!-- Node6&#45;&gt;Node8 -->
<g id="edge7" class="edge"><title>Node6&#45;&gt;Node8</title>
<path fill="none" stroke="midnightblue" d="M306.628,-62.4035C269.76,-51.6128 206.554,-33.1133 166.867,-21.4977"/>
<polygon fill="midnightblue" stroke="midnightblue" points="167.651,-18.0804 157.071,-18.6304 165.685,-24.7986 167.651,-18.0804"/>
</g>
<!-- Node9 -->
<g id="node9" class="node"><title>Node9</title>
<polygon fill="none" stroke="#bfbfbf" points="377.5,-0.5 377.5,-19.5 426.5,-19.5 426.5,-0.5 377.5,-0.5"/>
<text text-anchor="middle" x="402" y="-7.5" font-family="Helvetica,sans-Serif" font-size="10.00">cassert</text>
</g>
<!-- Node6&#45;&gt;Node9 -->
<g id="edge8" class="edge"><title>Node6&#45;&gt;Node9</title>
<path fill="none" stroke="midnightblue" d="M345.456,-62.4035C355.748,-53.047 372.416,-37.8948 384.994,-26.4599"/>
<polygon fill="midnightblue" stroke="midnightblue" points="387.516,-28.8971 392.561,-19.5806 382.808,-23.7176 387.516,-28.8971"/>
</g>
<!-- Node10 -->
<g id="node10" class="node"><title>Node10</title>
<polygon fill="none" stroke="#bfbfbf" points="175,-0.5 175,-19.5 221,-19.5 221,-0.5 175,-0.5"/>
<text text-anchor="middle" x="198" y="-7.5" font-family="Helvetica,sans-Serif" font-size="10.00">cstring</text>
</g>
<!-- Node6&#45;&gt;Node10 -->
<g id="edge9" class="edge"><title>Node6&#45;&gt;Node10</title>
<path fill="none" stroke="midnightblue" d="M316.228,-62.4035C292.864,-52.245 253.786,-35.2547 226.997,-23.6074"/>
<polygon fill="midnightblue" stroke="midnightblue" points="228.302,-20.3582 217.735,-19.5806 225.511,-26.7777 228.302,-20.3582"/>
</g>
<!-- Node11 -->
<g id="node11" class="node"><title>Node11</title>
<polygon fill="none" stroke="#bfbfbf" points="239,-0.5 239,-19.5 295,-19.5 295,-0.5 239,-0.5"/>
<text text-anchor="middle" x="267" y="-7.5" font-family="Helvetica,sans-Serif" font-size="10.00">algorithm</text>
</g>
<!-- Node6&#45;&gt;Node11 -->
<g id="edge10" class="edge"><title>Node6&#45;&gt;Node11</title>
<path fill="none" stroke="midnightblue" d="M326.114,-62.4035C315.354,-53.047 297.929,-37.8948 284.779,-26.4599"/>
<polygon fill="midnightblue" stroke="midnightblue" points="286.71,-23.5013 276.868,-19.5806 282.117,-28.7835 286.71,-23.5013"/>
</g>
<!-- Node12&#45;&gt;Node5 -->
<g id="edge13" class="edge"><title>Node12&#45;&gt;Node5</title>
<path fill="none" stroke="midnightblue" d="M493.705,-56.7808C488.777,-48.3318 482.486,-37.5481 477.249,-28.5693"/>
<polygon fill="midnightblue" stroke="midnightblue" points="480.155,-26.6048 472.093,-19.7305 474.108,-30.1319 480.155,-26.6048"/>
</g>
<!-- Node12&#45;&gt;Node9 -->
<g id="edge14" class="edge"><title>Node12&#45;&gt;Node9</title>
<path fill="none" stroke="midnightblue" d="M478.554,-56.9327C462.436,-47.2619 441.132,-34.4793 425.091,-24.8546"/>
<polygon fill="midnightblue" stroke="midnightblue" points="426.709,-21.7438 416.333,-19.6 423.108,-27.7463 426.709,-21.7438"/>
</g>
<!-- Node13 -->
<g id="node13" class="node"><title>Node13</title>
<polygon fill="none" stroke="#bfbfbf" points="507.5,-0.5 507.5,-19.5 566.5,-19.5 566.5,-0.5 507.5,-0.5"/>
<text text-anchor="middle" x="537" y="-7.5" font-family="Helvetica,sans-Serif" font-size="10.00">functional</text>
</g>
<!-- Node12&#45;&gt;Node13 -->
<g id="edge12" class="edge"><title>Node12&#45;&gt;Node13</title>
<path fill="none" stroke="midnightblue" d="M510.295,-56.7808C515.223,-48.3318 521.514,-37.5481 526.751,-28.5693"/>
<polygon fill="midnightblue" stroke="midnightblue" points="529.892,-30.1319 531.907,-19.7305 523.845,-26.6048 529.892,-30.1319"/>
</g>
<!-- Node14 -->
<g id="node14" class="node"><title>Node14</title>
<polygon fill="none" stroke="#bfbfbf" points="585,-0.5 585,-19.5 647,-19.5 647,-0.5 585,-0.5"/>
<text text-anchor="middle" x="616" y="-7.5" font-family="Helvetica,sans-Serif" font-size="10.00">type_traits</text>
</g>
<!-- Node12&#45;&gt;Node14 -->
<g id="edge15" class="edge"><title>Node12&#45;&gt;Node14</title>
<path fill="none" stroke="midnightblue" d="M528.728,-56.9327C547.446,-47.0811 572.299,-34.0004 590.695,-24.3182"/>
<polygon fill="midnightblue" stroke="midnightblue" points="592.441,-27.3548 599.66,-19.6 589.181,-21.1603 592.441,-27.3548"/>
</g>
<!-- Node15 -->
<g id="node15" class="node"><title>Node15</title>
<polygon fill="none" stroke="#bfbfbf" points="665.5,-0.5 665.5,-19.5 724.5,-19.5 724.5,-0.5 665.5,-0.5"/>
<text text-anchor="middle" x="695" y="-7.5" font-family="Helvetica,sans-Serif" font-size="10.00">stdexcept</text>
</g>
<!-- Node12&#45;&gt;Node15 -->
<g id="edge16" class="edge"><title>Node12&#45;&gt;Node15</title>
<path fill="none" stroke="midnightblue" d="M547.25,-56.9327C580.929,-46.4624 626.342,-32.3445 657.893,-22.5358"/>
<polygon fill="midnightblue" stroke="midnightblue" points="659.107,-25.8236 667.618,-19.5127 657.029,-19.1392 659.107,-25.8236"/>
</g>
</g>
</svg>
