<?xml version="1.0" encoding="UTF-8" standalone="no"?>
<!DOCTYPE svg PUBLIC "-//W3C//DTD SVG 1.1//EN"
 "http://www.w3.org/Graphics/SVG/1.1/DTD/svg11.dtd">
<!-- Generated by graphviz version 2.36.0 (20140111.2315)
 -->
<!-- Title: /home/travis/build/AliceO2Group/AliceO2/Detectors/TPC/simulation/include/TPCSimulation/DigitMCMetaData.h Pages: 1 -->
<svg width="1618pt" height="790pt"
 viewBox="0.00 0.00 1618.00 790.00" xmlns="http://www.w3.org/2000/svg" xmlns:xlink="http://www.w3.org/1999/xlink">
<g id="graph0" class="graph" transform="scale(1 1) rotate(0) translate(4 786)">
<title>/home/travis/build/AliceO2Group/AliceO2/Detectors/TPC/simulation/include/TPCSimulation/DigitMCMetaData.h</title>
<!-- Node1 -->
<g id="node1" class="node"><title>Node1</title>
<polygon fill="#bfbfbf" stroke="black" points="1095,-718.5 1095,-781.5 1275,-781.5 1275,-718.5 1095,-718.5"/>
<text text-anchor="start" x="1103" y="-769.5" font-family="Helvetica,sans-Serif" font-size="10.00">/home/travis/build</text>
<text text-anchor="start" x="1103" y="-758.5" font-family="Helvetica,sans-Serif" font-size="10.00">/AliceO2Group/AliceO2</text>
<text text-anchor="start" x="1103" y="-747.5" font-family="Helvetica,sans-Serif" font-size="10.00">/Detectors/TPC/simulation</text>
<text text-anchor="start" x="1103" y="-736.5" font-family="Helvetica,sans-Serif" font-size="10.00">/include/TPCSimulation/DigitMCMeta</text>
<text text-anchor="middle" x="1185" y="-725.5" font-family="Helvetica,sans-Serif" font-size="10.00">Data.h</text>
</g>
<!-- Node2 -->
<g id="node2" class="node"><title>Node2</title>
<g id="a_node2"><a xlink:href="../../de/dc8/DigitRow_8h.html" target="_top" xlink:title="Definition of the Row container. ">
<polygon fill="none" stroke="black" points="852.5,-629 852.5,-681 1023.5,-681 1023.5,-629 852.5,-629"/>
<text text-anchor="start" x="860.5" y="-669" font-family="Helvetica,sans-Serif" font-size="10.00">/home/travis/build</text>
<text text-anchor="start" x="860.5" y="-658" font-family="Helvetica,sans-Serif" font-size="10.00">/AliceO2Group/AliceO2</text>
<text text-anchor="start" x="860.5" y="-647" font-family="Helvetica,sans-Serif" font-size="10.00">/Detectors/TPC/simulation</text>
<text text-anchor="middle" x="938" y="-636" font-family="Helvetica,sans-Serif" font-size="10.00">/include/TPCSimulation/DigitRow.h</text>
</a>
</g>
</g>
<!-- Node1&#45;&gt;Node2 -->
<g id="edge1" class="edge"><title>Node1&#45;&gt;Node2</title>
<path fill="none" stroke="midnightblue" d="M1094.23,-714.824C1064.5,-703.629 1032.04,-691.406 1004.44,-681.017"/>
<polygon fill="midnightblue" stroke="midnightblue" points="1093.19,-718.171 1103.78,-718.42 1095.66,-711.62 1093.19,-718.171"/>
</g>
<!-- Node9 -->
<g id="node9" class="node"><title>Node9</title>
<g id="a_node9"><a xlink:href="../../df/d46/TPC_2simulation_2src_2DigitizerTask_8cxx.html" target="_top" xlink:title="/home/travis/build\l/AliceO2Group/AliceO2\l/Detectors/TPC/simulation\l/src/DigitizerTask.cxx">
<polygon fill="none" stroke="black" points="838.5,-79 838.5,-131 971.5,-131 971.5,-79 838.5,-79"/>
<text text-anchor="start" x="846.5" y="-119" font-family="Helvetica,sans-Serif" font-size="10.00">/home/travis/build</text>
<text text-anchor="start" x="846.5" y="-108" font-family="Helvetica,sans-Serif" font-size="10.00">/AliceO2Group/AliceO2</text>
<text text-anchor="start" x="846.5" y="-97" font-family="Helvetica,sans-Serif" font-size="10.00">/Detectors/TPC/simulation</text>
<text text-anchor="middle" x="905" y="-86" font-family="Helvetica,sans-Serif" font-size="10.00">/src/DigitizerTask.cxx</text>
</a>
</g>
</g>
<!-- Node1&#45;&gt;Node9 -->
<g id="edge24" class="edge"><title>Node1&#45;&gt;Node9</title>
<path fill="none" stroke="midnightblue" d="M1166.48,-708.956C1162.94,-700.207 1159.55,-690.9 1157,-682 1142.61,-631.779 1138,-618.243 1138,-566 1138,-566 1138,-566 1138,-294 1138,-207.978 1040.62,-154.607 971.768,-127.622"/>
<polygon fill="midnightblue" stroke="midnightblue" points="1163.26,-710.313 1170.35,-718.184 1169.71,-707.608 1163.26,-710.313"/>
</g>
<!-- Node17 -->
<g id="node17" class="node"><title>Node17</title>
<g id="a_node17"><a xlink:href="../../dd/d5e/testTPCDigitContainer_8cxx.html" target="_top" xlink:title="This task tests the DigitContainer of the TPC digitization. ">
<polygon fill="none" stroke="black" points="952.5,-269 952.5,-321 1109.5,-321 1109.5,-269 952.5,-269"/>
<text text-anchor="start" x="960.5" y="-309" font-family="Helvetica,sans-Serif" font-size="10.00">/home/travis/build</text>
<text text-anchor="start" x="960.5" y="-298" font-family="Helvetica,sans-Serif" font-size="10.00">/AliceO2Group/AliceO2</text>
<text text-anchor="start" x="960.5" y="-287" font-family="Helvetica,sans-Serif" font-size="10.00">/Detectors/TPC/simulation</text>
<text text-anchor="middle" x="1031" y="-276" font-family="Helvetica,sans-Serif" font-size="10.00">/test/testTPCDigitContainer.cxx</text>
</a>
</g>
</g>
<!-- Node1&#45;&gt;Node17 -->
<g id="edge27" class="edge"><title>Node1&#45;&gt;Node17</title>
<path fill="none" stroke="midnightblue" d="M1143.95,-710.814C1136.36,-701.996 1129.19,-692.19 1124,-682 1100.1,-635.092 1100,-618.647 1100,-566 1100,-566 1100,-566 1100,-474 1100,-416.165 1067.94,-354.47 1047.53,-321.05"/>
<polygon fill="midnightblue" stroke="midnightblue" points="1141.4,-713.213 1150.7,-718.294 1146.6,-708.524 1141.4,-713.213"/>
</g>
<!-- Node21 -->
<g id="node21" class="node"><title>Node21</title>
<g id="a_node21"><a xlink:href="../../d7/d68/DigitMCMetaData_8cxx.html" target="_top" xlink:title="Implementation of the Meta Data object of the Monte Carlo Digit. ">
<polygon fill="none" stroke="black" points="1166,-629 1166,-681 1300,-681 1300,-629 1166,-629"/>
<text text-anchor="start" x="1174" y="-669" font-family="Helvetica,sans-Serif" font-size="10.00">/home/travis/build</text>
<text text-anchor="start" x="1174" y="-658" font-family="Helvetica,sans-Serif" font-size="10.00">/AliceO2Group/AliceO2</text>
<text text-anchor="start" x="1174" y="-647" font-family="Helvetica,sans-Serif" font-size="10.00">/Detectors/TPC/simulation</text>
<text text-anchor="middle" x="1233" y="-636" font-family="Helvetica,sans-Serif" font-size="10.00">/src/DigitMCMetaData.cxx</text>
</a>
</g>
</g>
<!-- Node1&#45;&gt;Node21 -->
<g id="edge25" class="edge"><title>Node1&#45;&gt;Node21</title>
<path fill="none" stroke="midnightblue" d="M1205.49,-709.297C1210.43,-699.735 1215.56,-689.781 1220.05,-681.1"/>
<polygon fill="midnightblue" stroke="midnightblue" points="1202.33,-707.799 1200.85,-718.291 1208.55,-711.01 1202.33,-707.799"/>
</g>
<!-- Node22 -->
<g id="node22" class="node"><title>Node22</title>
<g id="a_node22"><a xlink:href="../../db/d73/DigitPad_8cxx.html" target="_top" xlink:title="Implementation of the Pad container. ">
<polygon fill="none" stroke="black" points="1318.5,-629 1318.5,-681 1451.5,-681 1451.5,-629 1318.5,-629"/>
<text text-anchor="start" x="1326.5" y="-669" font-family="Helvetica,sans-Serif" font-size="10.00">/home/travis/build</text>
<text text-anchor="start" x="1326.5" y="-658" font-family="Helvetica,sans-Serif" font-size="10.00">/AliceO2Group/AliceO2</text>
<text text-anchor="start" x="1326.5" y="-647" font-family="Helvetica,sans-Serif" font-size="10.00">/Detectors/TPC/simulation</text>
<text text-anchor="middle" x="1385" y="-636" font-family="Helvetica,sans-Serif" font-size="10.00">/src/DigitPad.cxx</text>
</a>
</g>
</g>
<!-- Node1&#45;&gt;Node22 -->
<g id="edge26" class="edge"><title>Node1&#45;&gt;Node22</title>
<path fill="none" stroke="midnightblue" d="M1260.06,-714.096C1283.71,-703.101 1309.34,-691.181 1331.2,-681.017"/>
<polygon fill="midnightblue" stroke="midnightblue" points="1258.36,-711.029 1250.76,-718.42 1261.31,-717.377 1258.36,-711.029"/>
</g>
<!-- Node23 -->
<g id="node23" class="node"><title>Node23</title>
<g id="a_node23"><a xlink:href="../../dd/dd7/testTPCSimulation_8cxx.html" target="_top" xlink:title="This task tests several small components of the TPC simulation. ">
<polygon fill="none" stroke="black" points="1470,-629 1470,-681 1610,-681 1610,-629 1470,-629"/>
<text text-anchor="start" x="1478" y="-669" font-family="Helvetica,sans-Serif" font-size="10.00">/home/travis/build</text>
<text text-anchor="start" x="1478" y="-658" font-family="Helvetica,sans-Serif" font-size="10.00">/AliceO2Group/AliceO2</text>
<text text-anchor="start" x="1478" y="-647" font-family="Helvetica,sans-Serif" font-size="10.00">/Detectors/TPC/simulation</text>
<text text-anchor="middle" x="1540" y="-636" font-family="Helvetica,sans-Serif" font-size="10.00">/test/testTPCSimulation.cxx</text>
</a>
</g>
</g>
<!-- Node1&#45;&gt;Node23 -->
<g id="edge28" class="edge"><title>Node1&#45;&gt;Node23</title>
<path fill="none" stroke="midnightblue" d="M1285.2,-726.501C1337.53,-714.267 1402.49,-698.326 1460,-682 1463.23,-681.083 1466.53,-680.12 1469.85,-679.128"/>
<polygon fill="midnightblue" stroke="midnightblue" points="1284.19,-723.142 1275.24,-728.819 1285.77,-729.96 1284.19,-723.142"/>
</g>
<!-- Node3 -->
<g id="node3" class="node"><title>Node3</title>
<g id="a_node3"><a xlink:href="../../d0/d60/DigitTime_8h.html" target="_top" xlink:title="Definition of the Time Bin container. ">
<polygon fill="none" stroke="black" points="803.5,-539 803.5,-591 976.5,-591 976.5,-539 803.5,-539"/>
<text text-anchor="start" x="811.5" y="-579" font-family="Helvetica,sans-Serif" font-size="10.00">/home/travis/build</text>
<text text-anchor="start" x="811.5" y="-568" font-family="Helvetica,sans-Serif" font-size="10.00">/AliceO2Group/AliceO2</text>
<text text-anchor="start" x="811.5" y="-557" font-family="Helvetica,sans-Serif" font-size="10.00">/Detectors/TPC/simulation</text>
<text text-anchor="middle" x="890" y="-546" font-family="Helvetica,sans-Serif" font-size="10.00">/include/TPCSimulation/DigitTime.h</text>
</a>
</g>
</g>
<!-- Node2&#45;&gt;Node3 -->
<g id="edge2" class="edge"><title>Node2&#45;&gt;Node3</title>
<path fill="none" stroke="midnightblue" d="M919.275,-619.671C914.079,-610.145 908.536,-599.983 903.687,-591.092"/>
<polygon fill="midnightblue" stroke="midnightblue" points="916.255,-621.444 924.116,-628.547 922.4,-618.092 916.255,-621.444"/>
</g>
<!-- Node19 -->
<g id="node19" class="node"><title>Node19</title>
<g id="a_node19"><a xlink:href="../../dd/dcd/DigitTime_8cxx.html" target="_top" xlink:title="Implementation of the Time Bin container. ">
<polygon fill="none" stroke="black" points="938.5,-449 938.5,-501 1071.5,-501 1071.5,-449 938.5,-449"/>
<text text-anchor="start" x="946.5" y="-489" font-family="Helvetica,sans-Serif" font-size="10.00">/home/travis/build</text>
<text text-anchor="start" x="946.5" y="-478" font-family="Helvetica,sans-Serif" font-size="10.00">/AliceO2Group/AliceO2</text>
<text text-anchor="start" x="946.5" y="-467" font-family="Helvetica,sans-Serif" font-size="10.00">/Detectors/TPC/simulation</text>
<text text-anchor="middle" x="1005" y="-456" font-family="Helvetica,sans-Serif" font-size="10.00">/src/DigitTime.cxx</text>
</a>
</g>
</g>
<!-- Node2&#45;&gt;Node19 -->
<g id="edge23" class="edge"><title>Node2&#45;&gt;Node19</title>
<path fill="none" stroke="midnightblue" d="M967.731,-620.79C974.323,-611.948 980.637,-602.046 985,-592 997.78,-562.571 1002.41,-525.609 1004.07,-501.423"/>
<polygon fill="midnightblue" stroke="midnightblue" points="964.783,-618.878 961.381,-628.912 970.298,-623.19 964.783,-618.878"/>
</g>
<!-- Node20 -->
<g id="node20" class="node"><title>Node20</title>
<g id="a_node20"><a xlink:href="../../d2/daa/DigitRow_8cxx.html" target="_top" xlink:title="Implementation of the Row container. ">
<polygon fill="none" stroke="black" points="652.5,-539 652.5,-591 785.5,-591 785.5,-539 652.5,-539"/>
<text text-anchor="start" x="660.5" y="-579" font-family="Helvetica,sans-Serif" font-size="10.00">/home/travis/build</text>
<text text-anchor="start" x="660.5" y="-568" font-family="Helvetica,sans-Serif" font-size="10.00">/AliceO2Group/AliceO2</text>
<text text-anchor="start" x="660.5" y="-557" font-family="Helvetica,sans-Serif" font-size="10.00">/Detectors/TPC/simulation</text>
<text text-anchor="middle" x="719" y="-546" font-family="Helvetica,sans-Serif" font-size="10.00">/src/DigitRow.cxx</text>
</a>
</g>
</g>
<!-- Node2&#45;&gt;Node20 -->
<g id="edge22" class="edge"><title>Node2&#45;&gt;Node20</title>
<path fill="none" stroke="midnightblue" d="M866.042,-625.085C838.745,-614.117 807.906,-601.725 781.546,-591.133"/>
<polygon fill="midnightblue" stroke="midnightblue" points="864.953,-628.42 875.536,-628.901 867.563,-621.924 864.953,-628.42"/>
</g>
<!-- Node4 -->
<g id="node4" class="node"><title>Node4</title>
<g id="a_node4"><a xlink:href="../../d6/d95/DigitCRU_8h.html" target="_top" xlink:title="Definition of the CRU container. ">
<polygon fill="none" stroke="black" points="747.5,-449 747.5,-501 920.5,-501 920.5,-449 747.5,-449"/>
<text text-anchor="start" x="755.5" y="-489" font-family="Helvetica,sans-Serif" font-size="10.00">/home/travis/build</text>
<text text-anchor="start" x="755.5" y="-478" font-family="Helvetica,sans-Serif" font-size="10.00">/AliceO2Group/AliceO2</text>
<text text-anchor="start" x="755.5" y="-467" font-family="Helvetica,sans-Serif" font-size="10.00">/Detectors/TPC/simulation</text>
<text text-anchor="middle" x="834" y="-456" font-family="Helvetica,sans-Serif" font-size="10.00">/include/TPCSimulation/DigitCRU.h</text>
</a>
</g>
</g>
<!-- Node3&#45;&gt;Node4 -->
<g id="edge3" class="edge"><title>Node3&#45;&gt;Node4</title>
<path fill="none" stroke="midnightblue" d="M868.342,-529.965C862.226,-520.354 855.684,-510.074 849.968,-501.092"/>
<polygon fill="midnightblue" stroke="midnightblue" points="865.481,-531.989 873.802,-538.547 871.386,-528.231 865.481,-531.989"/>
</g>
<!-- Node18 -->
<g id="node18" class="node"><title>Node18</title>
<g id="a_node18"><a xlink:href="../../da/dc3/DigitCRU_8cxx.html" target="_top" xlink:title="Implementation of the CRU container. ">
<polygon fill="none" stroke="black" points="652.5,-359 652.5,-411 785.5,-411 785.5,-359 652.5,-359"/>
<text text-anchor="start" x="660.5" y="-399" font-family="Helvetica,sans-Serif" font-size="10.00">/home/travis/build</text>
<text text-anchor="start" x="660.5" y="-388" font-family="Helvetica,sans-Serif" font-size="10.00">/AliceO2Group/AliceO2</text>
<text text-anchor="start" x="660.5" y="-377" font-family="Helvetica,sans-Serif" font-size="10.00">/Detectors/TPC/simulation</text>
<text text-anchor="middle" x="719" y="-366" font-family="Helvetica,sans-Serif" font-size="10.00">/src/DigitCRU.cxx</text>
</a>
</g>
</g>
<!-- Node3&#45;&gt;Node18 -->
<g id="edge20" class="edge"><title>Node3&#45;&gt;Node18</title>
<path fill="none" stroke="midnightblue" d="M799.142,-535.323C771.887,-524.98 746.859,-513.114 738,-502 717.522,-476.307 715.286,-437.05 716.447,-411.453"/>
<polygon fill="midnightblue" stroke="midnightblue" points="798.258,-538.729 808.852,-538.915 800.687,-532.163 798.258,-538.729"/>
</g>
<!-- Node3&#45;&gt;Node19 -->
<g id="edge21" class="edge"><title>Node3&#45;&gt;Node19</title>
<path fill="none" stroke="midnightblue" d="M931.121,-532.534C944.554,-522.254 959.289,-510.979 972.041,-501.221"/>
<polygon fill="midnightblue" stroke="midnightblue" points="928.769,-529.926 922.954,-538.783 933.023,-535.485 928.769,-529.926"/>
</g>
<!-- Node5 -->
<g id="node5" class="node"><title>Node5</title>
<g id="a_node5"><a xlink:href="../../dd/d94/DigitContainer_8h.html" target="_top" xlink:title="Definition of the Digit Container. ">
<polygon fill="none" stroke="black" points="803.5,-359 803.5,-411 996.5,-411 996.5,-359 803.5,-359"/>
<text text-anchor="start" x="811.5" y="-399" font-family="Helvetica,sans-Serif" font-size="10.00">/home/travis/build</text>
<text text-anchor="start" x="811.5" y="-388" font-family="Helvetica,sans-Serif" font-size="10.00">/AliceO2Group/AliceO2</text>
<text text-anchor="start" x="811.5" y="-377" font-family="Helvetica,sans-Serif" font-size="10.00">/Detectors/TPC/simulation</text>
<text text-anchor="middle" x="900" y="-366" font-family="Helvetica,sans-Serif" font-size="10.00">/include/TPCSimulation/DigitContainer.h</text>
</a>
</g>
</g>
<!-- Node4&#45;&gt;Node5 -->
<g id="edge4" class="edge"><title>Node4&#45;&gt;Node5</title>
<path fill="none" stroke="midnightblue" d="M859.306,-440.259C866.577,-430.564 874.376,-420.166 881.181,-411.092"/>
<polygon fill="midnightblue" stroke="midnightblue" points="856.29,-438.447 853.09,-448.547 861.89,-442.647 856.29,-438.447"/>
</g>
<!-- Node4&#45;&gt;Node18 -->
<g id="edge19" class="edge"><title>Node4&#45;&gt;Node18</title>
<path fill="none" stroke="midnightblue" d="M792.879,-442.534C779.446,-432.254 764.711,-420.979 751.959,-411.221"/>
<polygon fill="midnightblue" stroke="midnightblue" points="790.977,-445.485 801.046,-448.783 795.231,-439.926 790.977,-445.485"/>
</g>
<!-- Node6 -->
<g id="node6" class="node"><title>Node6</title>
<g id="a_node6"><a xlink:href="../../de/d92/TPC_2simulation_2include_2TPCSimulation_2Digitizer_8h.html" target="_top" xlink:title="/home/travis/build\l/AliceO2Group/AliceO2\l/Detectors/TPC/simulation\l/include/TPCSimulation/Digitizer.h">
<polygon fill="none" stroke="black" points="617.5,-269 617.5,-321 784.5,-321 784.5,-269 617.5,-269"/>
<text text-anchor="start" x="625.5" y="-309" font-family="Helvetica,sans-Serif" font-size="10.00">/home/travis/build</text>
<text text-anchor="start" x="625.5" y="-298" font-family="Helvetica,sans-Serif" font-size="10.00">/AliceO2Group/AliceO2</text>
<text text-anchor="start" x="625.5" y="-287" font-family="Helvetica,sans-Serif" font-size="10.00">/Detectors/TPC/simulation</text>
<text text-anchor="middle" x="701" y="-276" font-family="Helvetica,sans-Serif" font-size="10.00">/include/TPCSimulation/Digitizer.h</text>
</a>
</g>
</g>
<!-- Node5&#45;&gt;Node6 -->
<g id="edge5" class="edge"><title>Node5&#45;&gt;Node6</title>
<path fill="none" stroke="midnightblue" d="M833.963,-354.798C809.32,-343.9 781.578,-331.632 757.834,-321.133"/>
<polygon fill="midnightblue" stroke="midnightblue" points="832.68,-358.057 843.241,-358.901 835.511,-351.655 832.68,-358.057"/>
</g>
<!-- Node5&#45;&gt;Node9 -->
<g id="edge17" class="edge"><title>Node5&#45;&gt;Node9</title>
<path fill="none" stroke="midnightblue" d="M900.638,-348.521C901.663,-291.545 903.651,-181.019 904.545,-131.304"/>
<polygon fill="midnightblue" stroke="midnightblue" points="897.133,-348.778 900.453,-358.839 904.132,-348.904 897.133,-348.778"/>
</g>
<!-- Node16 -->
<g id="node16" class="node"><title>Node16</title>
<g id="a_node16"><a xlink:href="../../df/d53/DigitContainer_8cxx.html" target="_top" xlink:title="Implementation of the Digit Container. ">
<polygon fill="none" stroke="black" points="466.5,-269 466.5,-321 599.5,-321 599.5,-269 466.5,-269"/>
<text text-anchor="start" x="474.5" y="-309" font-family="Helvetica,sans-Serif" font-size="10.00">/home/travis/build</text>
<text text-anchor="start" x="474.5" y="-298" font-family="Helvetica,sans-Serif" font-size="10.00">/AliceO2Group/AliceO2</text>
<text text-anchor="start" x="474.5" y="-287" font-family="Helvetica,sans-Serif" font-size="10.00">/Detectors/TPC/simulation</text>
<text text-anchor="middle" x="533" y="-276" font-family="Helvetica,sans-Serif" font-size="10.00">/src/DigitContainer.cxx</text>
</a>
</g>
</g>
<!-- Node5&#45;&gt;Node16 -->
<g id="edge16" class="edge"><title>Node5&#45;&gt;Node16</title>
<path fill="none" stroke="midnightblue" d="M793.372,-357.927C710.007,-340.218 686.3,-343.034 608,-322 605.205,-321.249 602.364,-320.447 599.503,-319.606"/>
<polygon fill="midnightblue" stroke="midnightblue" points="792.769,-361.377 803.283,-360.068 794.248,-354.535 792.769,-361.377"/>
</g>
<!-- Node5&#45;&gt;Node17 -->
<g id="edge18" class="edge"><title>Node5&#45;&gt;Node17</title>
<path fill="none" stroke="midnightblue" d="M945.978,-353.114C961.51,-342.68 978.655,-331.163 993.455,-321.221"/>
<polygon fill="midnightblue" stroke="midnightblue" points="943.889,-350.301 937.539,-358.783 947.792,-356.112 943.889,-350.301"/>
</g>
<!-- Node7 -->
<g id="node7" class="node"><title>Node7</title>
<g id="a_node7"><a xlink:href="../../db/d60/testTracks_8C.html" target="_top" xlink:title="/home/travis/build\l/AliceO2Group/AliceO2\l/Detectors/TPC/reconstruction\l/macro/testTracks.C">
<polygon fill="none" stroke="black" points="708,-174 708,-226 858,-226 858,-174 708,-174"/>
<text text-anchor="start" x="716" y="-214" font-family="Helvetica,sans-Serif" font-size="10.00">/home/travis/build</text>
<text text-anchor="start" x="716" y="-203" font-family="Helvetica,sans-Serif" font-size="10.00">/AliceO2Group/AliceO2</text>
<text text-anchor="start" x="716" y="-192" font-family="Helvetica,sans-Serif" font-size="10.00">/Detectors/TPC/reconstruction</text>
<text text-anchor="middle" x="783" y="-181" font-family="Helvetica,sans-Serif" font-size="10.00">/macro/testTracks.C</text>
</a>
</g>
</g>
<!-- Node6&#45;&gt;Node7 -->
<g id="edge6" class="edge"><title>Node6&#45;&gt;Node7</title>
<path fill="none" stroke="midnightblue" d="M730.203,-260.879C740.311,-249.416 751.463,-236.767 760.904,-226.06"/>
<polygon fill="midnightblue" stroke="midnightblue" points="727.395,-258.772 723.407,-268.587 732.646,-263.401 727.395,-258.772"/>
</g>
<!-- Node8 -->
<g id="node8" class="node"><title>Node8</title>
<g id="a_node8"><a xlink:href="../../dd/d4b/TPC_2simulation_2include_2TPCSimulation_2DigitizerTask_8h.html" target="_top" xlink:title="/home/travis/build\l/AliceO2Group/AliceO2\l/Detectors/TPC/simulation\l/include/TPCSimulation/Digitizer\lTask.h">
<polygon fill="none" stroke="black" points="48,-168.5 48,-231.5 206,-231.5 206,-168.5 48,-168.5"/>
<text text-anchor="start" x="56" y="-219.5" font-family="Helvetica,sans-Serif" font-size="10.00">/home/travis/build</text>
<text text-anchor="start" x="56" y="-208.5" font-family="Helvetica,sans-Serif" font-size="10.00">/AliceO2Group/AliceO2</text>
<text text-anchor="start" x="56" y="-197.5" font-family="Helvetica,sans-Serif" font-size="10.00">/Detectors/TPC/simulation</text>
<text text-anchor="start" x="56" y="-186.5" font-family="Helvetica,sans-Serif" font-size="10.00">/include/TPCSimulation/Digitizer</text>
<text text-anchor="middle" x="127" y="-175.5" font-family="Helvetica,sans-Serif" font-size="10.00">Task.h</text>
</a>
</g>
</g>
<!-- Node6&#45;&gt;Node8 -->
<g id="edge7" class="edge"><title>Node6&#45;&gt;Node8</title>
<path fill="none" stroke="midnightblue" d="M607.281,-268.036C433.633,-237.464 383.179,-268.73 215,-232 212.151,-231.378 209.269,-230.69 206.37,-229.949"/>
<polygon fill="midnightblue" stroke="midnightblue" points="606.8,-271.506 617.263,-269.837 608.043,-264.617 606.8,-271.506"/>
</g>
<!-- Node6&#45;&gt;Node9 -->
<g id="edge14" class="edge"><title>Node6&#45;&gt;Node9</title>
<path fill="none" stroke="midnightblue" d="M794.225,-275.277C820.364,-266.045 846.84,-252.33 866,-232 892.228,-204.17 900.833,-159.03 903.646,-131.007"/>
<polygon fill="midnightblue" stroke="midnightblue" points="793.002,-271.995 784.624,-278.48 795.218,-278.636 793.002,-271.995"/>
</g>
<!-- Node13 -->
<g id="node13" class="node"><title>Node13</title>
<g id="a_node13"><a xlink:href="../../d9/d59/testHitsDigitsClusters_8C.html" target="_top" xlink:title="/home/travis/build\l/AliceO2Group/AliceO2\l/Detectors/TPC/simulation\l/macro/testHitsDigitsClusters.C">
<polygon fill="none" stroke="black" points="224.5,-174 224.5,-226 381.5,-226 381.5,-174 224.5,-174"/>
<text text-anchor="start" x="232.5" y="-214" font-family="Helvetica,sans-Serif" font-size="10.00">/home/travis/build</text>
<text text-anchor="start" x="232.5" y="-203" font-family="Helvetica,sans-Serif" font-size="10.00">/AliceO2Group/AliceO2</text>
<text text-anchor="start" x="232.5" y="-192" font-family="Helvetica,sans-Serif" font-size="10.00">/Detectors/TPC/simulation</text>
<text text-anchor="middle" x="303" y="-181" font-family="Helvetica,sans-Serif" font-size="10.00">/macro/testHitsDigitsClusters.C</text>
</a>
</g>
</g>
<!-- Node6&#45;&gt;Node13 -->
<g id="edge12" class="edge"><title>Node6&#45;&gt;Node13</title>
<path fill="none" stroke="midnightblue" d="M607.513,-268.017C510.312,-247.346 482.012,-255.787 390,-232 383.325,-230.274 376.437,-228.254 369.597,-226.086"/>
<polygon fill="midnightblue" stroke="midnightblue" points="606.941,-271.474 617.457,-270.181 608.43,-264.634 606.941,-271.474"/>
</g>
<!-- Node14 -->
<g id="node14" class="node"><title>Node14</title>
<g id="a_node14"><a xlink:href="../../d7/d0a/TPC_2simulation_2src_2Digitizer_8cxx.html" target="_top" xlink:title="/home/travis/build\l/AliceO2Group/AliceO2\l/Detectors/TPC/simulation\l/src/Digitizer.cxx">
<polygon fill="none" stroke="black" points="399.5,-174 399.5,-226 532.5,-226 532.5,-174 399.5,-174"/>
<text text-anchor="start" x="407.5" y="-214" font-family="Helvetica,sans-Serif" font-size="10.00">/home/travis/build</text>
<text text-anchor="start" x="407.5" y="-203" font-family="Helvetica,sans-Serif" font-size="10.00">/AliceO2Group/AliceO2</text>
<text text-anchor="start" x="407.5" y="-192" font-family="Helvetica,sans-Serif" font-size="10.00">/Detectors/TPC/simulation</text>
<text text-anchor="middle" x="466" y="-181" font-family="Helvetica,sans-Serif" font-size="10.00">/src/Digitizer.cxx</text>
</a>
</g>
</g>
<!-- Node6&#45;&gt;Node14 -->
<g id="edge13" class="edge"><title>Node6&#45;&gt;Node14</title>
<path fill="none" stroke="midnightblue" d="M626.129,-265.384C599.234,-255 568.708,-243.093 541,-232 536.291,-230.115 531.424,-228.147 526.535,-226.156"/>
<polygon fill="midnightblue" stroke="midnightblue" points="624.891,-268.657 635.48,-268.989 627.409,-262.126 624.891,-268.657"/>
</g>
<!-- Node15 -->
<g id="node15" class="node"><title>Node15</title>
<g id="a_node15"><a xlink:href="../../d1/dd8/SAMPAProcessing_8cxx.html" target="_top" xlink:title="Implementation of the SAMPA response. ">
<polygon fill="none" stroke="black" points="550.5,-174 550.5,-226 689.5,-226 689.5,-174 550.5,-174"/>
<text text-anchor="start" x="558.5" y="-214" font-family="Helvetica,sans-Serif" font-size="10.00">/home/travis/build</text>
<text text-anchor="start" x="558.5" y="-203" font-family="Helvetica,sans-Serif" font-size="10.00">/AliceO2Group/AliceO2</text>
<text text-anchor="start" x="558.5" y="-192" font-family="Helvetica,sans-Serif" font-size="10.00">/Detectors/TPC/simulation</text>
<text text-anchor="middle" x="620" y="-181" font-family="Helvetica,sans-Serif" font-size="10.00">/src/SAMPAProcessing.cxx</text>
</a>
</g>
</g>
<!-- Node6&#45;&gt;Node15 -->
<g id="edge15" class="edge"><title>Node6&#45;&gt;Node15</title>
<path fill="none" stroke="midnightblue" d="M672.153,-260.879C662.169,-249.416 651.152,-236.767 641.826,-226.06"/>
<polygon fill="midnightblue" stroke="midnightblue" points="669.659,-263.345 678.866,-268.587 674.938,-258.748 669.659,-263.345"/>
</g>
<!-- Node8&#45;&gt;Node9 -->
<g id="edge8" class="edge"><title>Node8&#45;&gt;Node9</title>
<path fill="none" stroke="midnightblue" d="M216.307,-167.906C447.501,-118.82 715.56,-108.637 838.042,-106.511"/>
<polygon fill="midnightblue" stroke="midnightblue" points="215.408,-164.519 206.369,-170.045 216.881,-171.362 215.408,-164.519"/>
</g>
<!-- Node10 -->
<g id="node10" class="node"><title>Node10</title>
<g id="a_node10"><a xlink:href="../../d7/d11/macro_2run__digi_8C.html" target="_top" xlink:title="/home/travis/build\l/AliceO2Group/AliceO2\l/macro/run_digi.C">
<polygon fill="none" stroke="black" points="136,-84.5 136,-125.5 254,-125.5 254,-84.5 136,-84.5"/>
<text text-anchor="start" x="144" y="-113.5" font-family="Helvetica,sans-Serif" font-size="10.00">/home/travis/build</text>
<text text-anchor="start" x="144" y="-102.5" font-family="Helvetica,sans-Serif" font-size="10.00">/AliceO2Group/AliceO2</text>
<text text-anchor="middle" x="195" y="-91.5" font-family="Helvetica,sans-Serif" font-size="10.00">/macro/run_digi.C</text>
</a>
</g>
</g>
<!-- Node8&#45;&gt;Node10 -->
<g id="edge9" class="edge"><title>Node8&#45;&gt;Node10</title>
<path fill="none" stroke="midnightblue" d="M155.382,-160.183C164.104,-148.255 173.333,-135.633 180.687,-125.575"/>
<polygon fill="midnightblue" stroke="midnightblue" points="152.531,-158.152 149.454,-168.291 158.182,-162.284 152.531,-158.152"/>
</g>
<!-- Node11 -->
<g id="node11" class="node"><title>Node11</title>
<g id="a_node11"><a xlink:href="../../d3/db7/run__digi__tpc_8C.html" target="_top" xlink:title="/home/travis/build\l/AliceO2Group/AliceO2\l/macro/run_digi_tpc.C">
<polygon fill="none" stroke="black" points="0,-84.5 0,-125.5 118,-125.5 118,-84.5 0,-84.5"/>
<text text-anchor="start" x="8" y="-113.5" font-family="Helvetica,sans-Serif" font-size="10.00">/home/travis/build</text>
<text text-anchor="start" x="8" y="-102.5" font-family="Helvetica,sans-Serif" font-size="10.00">/AliceO2Group/AliceO2</text>
<text text-anchor="middle" x="59" y="-91.5" font-family="Helvetica,sans-Serif" font-size="10.00">/macro/run_digi_tpc.C</text>
</a>
</g>
</g>
<!-- Node8&#45;&gt;Node11 -->
<g id="edge10" class="edge"><title>Node8&#45;&gt;Node11</title>
<path fill="none" stroke="midnightblue" d="M98.6179,-160.183C89.8961,-148.255 80.6669,-135.633 73.3127,-125.575"/>
<polygon fill="midnightblue" stroke="midnightblue" points="95.8181,-162.284 104.546,-168.291 101.469,-158.152 95.8181,-162.284"/>
</g>
<!-- Node12 -->
<g id="node12" class="node"><title>Node12</title>
<g id="a_node12"><a xlink:href="../../d3/d56/runTPC_8cxx.html" target="_top" xlink:title="/home/travis/build\l/AliceO2Group/AliceO2\l/run/runTPC.cxx">
<polygon fill="none" stroke="black" points="0,-0.5 0,-41.5 118,-41.5 118,-0.5 0,-0.5"/>
<text text-anchor="start" x="8" y="-29.5" font-family="Helvetica,sans-Serif" font-size="10.00">/home/travis/build</text>
<text text-anchor="start" x="8" y="-18.5" font-family="Helvetica,sans-Serif" font-size="10.00">/AliceO2Group/AliceO2</text>
<text text-anchor="middle" x="59" y="-7.5" font-family="Helvetica,sans-Serif" font-size="10.00">/run/runTPC.cxx</text>
</a>
</g>
</g>
<!-- Node11&#45;&gt;Node12 -->
<g id="edge11" class="edge"><title>Node11&#45;&gt;Node12</title>
<path fill="none" stroke="midnightblue" d="M59,-73.881C59,-63.1328 59,-51.309 59,-41.6671"/>
<polygon fill="midnightblue" stroke="midnightblue" points="55.5001,-74.1501 59,-84.1501 62.5001,-74.1501 55.5001,-74.1501"/>
</g>
</g>
</svg>
