<?xml version="1.0" encoding="UTF-8" standalone="no"?>
<!DOCTYPE svg PUBLIC "-//W3C//DTD SVG 1.1//EN"
 "http://www.w3.org/Graphics/SVG/1.1/DTD/svg11.dtd">
<!-- Generated by graphviz version 2.36.0 (20140111.2315)
 -->
<!-- Title: o2::MFT::Detector Pages: 1 -->
<svg width="237pt" height="970pt"
 viewBox="0.00 0.00 237.00 970.00" xmlns="http://www.w3.org/2000/svg" xmlns:xlink="http://www.w3.org/1999/xlink">
<g id="graph0" class="graph" transform="scale(1 1) rotate(0) translate(4 966)">
<title>o2::MFT::Detector</title>
<!-- Node1 -->
<g id="node1" class="node"><title>Node1</title>
<polygon fill="#bfbfbf" stroke="black" points="30.5,-1 30.5,-311 173.5,-311 173.5,-1 30.5,-1"/>
<text text-anchor="middle" x="102" y="-299" font-family="Helvetica,sans-Serif" font-size="10.00">o2::MFT::Detector</text>
<polyline fill="none" stroke="black" points="30.5,-292 173.5,-292 "/>
<text text-anchor="start" x="38.5" y="-280" font-family="Helvetica,sans-Serif" font-size="10.00">+ mGeometryTGeo</text>
<text text-anchor="start" x="38.5" y="-269" font-family="Helvetica,sans-Serif" font-size="10.00"># mVersion</text>
<text text-anchor="start" x="38.5" y="-258" font-family="Helvetica,sans-Serif" font-size="10.00"># mDensitySupportOverSi</text>
<polyline fill="none" stroke="black" points="30.5,-251 173.5,-251 "/>
<text text-anchor="start" x="38.5" y="-239" font-family="Helvetica,sans-Serif" font-size="10.00">+ Detector()</text>
<text text-anchor="start" x="38.5" y="-228" font-family="Helvetica,sans-Serif" font-size="10.00">+ ~Detector()</text>
<text text-anchor="start" x="38.5" y="-217" font-family="Helvetica,sans-Serif" font-size="10.00">+ Initialize()</text>
<text text-anchor="start" x="38.5" y="-206" font-family="Helvetica,sans-Serif" font-size="10.00">+ ProcessHits()</text>
<text text-anchor="start" x="38.5" y="-195" font-family="Helvetica,sans-Serif" font-size="10.00">+ Reset()</text>
<text text-anchor="start" x="38.5" y="-184" font-family="Helvetica,sans-Serif" font-size="10.00">+ Register()</text>
<text text-anchor="start" x="38.5" y="-173" font-family="Helvetica,sans-Serif" font-size="10.00">+ getHits()</text>
<text text-anchor="start" x="38.5" y="-162" font-family="Helvetica,sans-Serif" font-size="10.00">+ EndOfEvent()</text>
<text text-anchor="start" x="38.5" y="-151" font-family="Helvetica,sans-Serif" font-size="10.00">+ CopyClones()</text>
<text text-anchor="start" x="38.5" y="-140" font-family="Helvetica,sans-Serif" font-size="10.00">+ FinishPrimary()</text>
<text text-anchor="start" x="38.5" y="-129" font-family="Helvetica,sans-Serif" font-size="10.00">+ FinishRun()</text>
<text text-anchor="start" x="38.5" y="-118" font-family="Helvetica,sans-Serif" font-size="10.00">+ BeginPrimary()</text>
<text text-anchor="start" x="38.5" y="-107" font-family="Helvetica,sans-Serif" font-size="10.00">+ PostTrack()</text>
<text text-anchor="start" x="38.5" y="-96" font-family="Helvetica,sans-Serif" font-size="10.00">+ PreTrack()</text>
<text text-anchor="start" x="38.5" y="-85" font-family="Helvetica,sans-Serif" font-size="10.00">+ BeginEvent()</text>
<text text-anchor="start" x="38.5" y="-74" font-family="Helvetica,sans-Serif" font-size="10.00">+ SetSpecialPhysicsCuts()</text>
<text text-anchor="start" x="38.5" y="-63" font-family="Helvetica,sans-Serif" font-size="10.00">+ ConstructGeometry()</text>
<text text-anchor="start" x="38.5" y="-52" font-family="Helvetica,sans-Serif" font-size="10.00">+ isVersion()</text>
<text text-anchor="start" x="38.5" y="-41" font-family="Helvetica,sans-Serif" font-size="10.00">+ createMaterials()</text>
<text text-anchor="start" x="38.5" y="-30" font-family="Helvetica,sans-Serif" font-size="10.00">+ setDensitySupportOverSi()</text>
<text text-anchor="start" x="38.5" y="-19" font-family="Helvetica,sans-Serif" font-size="10.00">+ createGeometry()</text>
<text text-anchor="start" x="38.5" y="-8" font-family="Helvetica,sans-Serif" font-size="10.00">+ defineSensitiveVolumes()</text>
</g>
<!-- Node2 -->
<g id="node2" class="node"><title>Node2</title>
<g id="a_node2"><a xlink:href="../../d4/d8a/classo2_1_1Base_1_1DetImpl.html" target="_top" xlink:title="{o2::Base::DetImpl\&lt;\l Detector \&gt;\n||+ updateHitTrackIndices()\l}">
<polygon fill="none" stroke="black" points="37,-351 37,-419 167,-419 167,-351 37,-351"/>
<text text-anchor="start" x="45" y="-407" font-family="Helvetica,sans-Serif" font-size="10.00">o2::Base::DetImpl&lt;</text>
<text text-anchor="middle" x="102" y="-396" font-family="Helvetica,sans-Serif" font-size="10.00"> Detector &gt;</text>
<polyline fill="none" stroke="black" points="37,-389 167,-389 "/>
<text text-anchor="middle" x="102" y="-377" font-family="Helvetica,sans-Serif" font-size="10.00"> </text>
<polyline fill="none" stroke="black" points="37,-370 167,-370 "/>
<text text-anchor="start" x="45" y="-358" font-family="Helvetica,sans-Serif" font-size="10.00">+ updateHitTrackIndices()</text>
</a>
</g>
</g>
<!-- Node2&#45;&gt;Node1 -->
<g id="edge1" class="edge"><title>Node2&#45;&gt;Node1</title>
<path fill="none" stroke="midnightblue" d="M102,-340.837C102,-331.777 102,-321.731 102,-311.14"/>
<polygon fill="none" stroke="midnightblue" points="98.5001,-340.992 102,-350.992 105.5,-340.992 98.5001,-340.992"/>
</g>
<!-- Node3 -->
<g id="node3" class="node"><title>Node3</title>
<g id="a_node3"><a xlink:href="../../d7/d02/classo2_1_1Base_1_1Detector.html" target="_top" xlink:title="{o2::Base::Detector\n||+ Detector()\l+ Detector()\l+ ~Detector()\l+ Material()\l+ Mixture()\l+ Medium()\l+ Matrix()\l+ defineWrapperVolume()\l+ setNumberOfWrapperVolumes()\l+ defineLayer()\l+ defineLayerTurbo()\l+ getMaterialID()\l+ getMediumID()\l+ getMediumIDMappingAsVector()\l+ addNameTo()\l+ updateHitTrackIndices()\l+ GetCollection()\l+ setDensityFactor()\l+ getDensityFactor()\l+ initFieldTrackingParams()\l# Detector()\l# operator=()\l}">
<polygon fill="none" stroke="black" points="-0.5,-577 -0.5,-865 166.5,-865 166.5,-577 -0.5,-577"/>
<text text-anchor="middle" x="83" y="-853" font-family="Helvetica,sans-Serif" font-size="10.00">o2::Base::Detector</text>
<polyline fill="none" stroke="black" points="-0.5,-846 166.5,-846 "/>
<text text-anchor="middle" x="83" y="-834" font-family="Helvetica,sans-Serif" font-size="10.00"> </text>
<polyline fill="none" stroke="black" points="-0.5,-827 166.5,-827 "/>
<text text-anchor="start" x="7.5" y="-815" font-family="Helvetica,sans-Serif" font-size="10.00">+ Detector()</text>
<text text-anchor="start" x="7.5" y="-804" font-family="Helvetica,sans-Serif" font-size="10.00">+ Detector()</text>
<text text-anchor="start" x="7.5" y="-793" font-family="Helvetica,sans-Serif" font-size="10.00">+ ~Detector()</text>
<text text-anchor="start" x="7.5" y="-782" font-family="Helvetica,sans-Serif" font-size="10.00">+ Material()</text>
<text text-anchor="start" x="7.5" y="-771" font-family="Helvetica,sans-Serif" font-size="10.00">+ Mixture()</text>
<text text-anchor="start" x="7.5" y="-760" font-family="Helvetica,sans-Serif" font-size="10.00">+ Medium()</text>
<text text-anchor="start" x="7.5" y="-749" font-family="Helvetica,sans-Serif" font-size="10.00">+ Matrix()</text>
<text text-anchor="start" x="7.5" y="-738" font-family="Helvetica,sans-Serif" font-size="10.00">+ defineWrapperVolume()</text>
<text text-anchor="start" x="7.5" y="-727" font-family="Helvetica,sans-Serif" font-size="10.00">+ setNumberOfWrapperVolumes()</text>
<text text-anchor="start" x="7.5" y="-716" font-family="Helvetica,sans-Serif" font-size="10.00">+ defineLayer()</text>
<text text-anchor="start" x="7.5" y="-705" font-family="Helvetica,sans-Serif" font-size="10.00">+ defineLayerTurbo()</text>
<text text-anchor="start" x="7.5" y="-694" font-family="Helvetica,sans-Serif" font-size="10.00">+ getMaterialID()</text>
<text text-anchor="start" x="7.5" y="-683" font-family="Helvetica,sans-Serif" font-size="10.00">+ getMediumID()</text>
<text text-anchor="start" x="7.5" y="-672" font-family="Helvetica,sans-Serif" font-size="10.00">+ getMediumIDMappingAsVector()</text>
<text text-anchor="start" x="7.5" y="-661" font-family="Helvetica,sans-Serif" font-size="10.00">+ addNameTo()</text>
<text text-anchor="start" x="7.5" y="-650" font-family="Helvetica,sans-Serif" font-size="10.00">+ updateHitTrackIndices()</text>
<text text-anchor="start" x="7.5" y="-639" font-family="Helvetica,sans-Serif" font-size="10.00">+ GetCollection()</text>
<text text-anchor="start" x="7.5" y="-628" font-family="Helvetica,sans-Serif" font-size="10.00">+ setDensityFactor()</text>
<text text-anchor="start" x="7.5" y="-617" font-family="Helvetica,sans-Serif" font-size="10.00">+ getDensityFactor()</text>
<text text-anchor="start" x="7.5" y="-606" font-family="Helvetica,sans-Serif" font-size="10.00">+ initFieldTrackingParams()</text>
<text text-anchor="start" x="7.5" y="-595" font-family="Helvetica,sans-Serif" font-size="10.00"># Detector()</text>
<text text-anchor="start" x="7.5" y="-584" font-family="Helvetica,sans-Serif" font-size="10.00"># operator=()</text>
</a>
</g>
</g>
<!-- Node3&#45;&gt;Node2 -->
<g id="edge2" class="edge"><title>Node3&#45;&gt;Node2</title>
<path fill="none" stroke="midnightblue" d="M84.3755,-566.824C85.4741,-534.167 87.2317,-499.909 90,-468 91.4052,-451.803 93.908,-433.928 96.2655,-419.012"/>
<polygon fill="none" stroke="midnightblue" points="80.8747,-566.797 84.0554,-576.903 87.8712,-567.019 80.8747,-566.797"/>
</g>
<!-- Node5 -->
<g id="node5" class="node"><title>Node5</title>
<g id="a_node5"><a xlink:href="../../d4/d8a/classo2_1_1Base_1_1DetImpl.html" target="_top" xlink:title="{o2::Base::DetImpl\&lt;\l Det \&gt;\n||+ updateHitTrackIndices()\l}">
<polygon fill="none" stroke="black" points="99,-469 99,-537 229,-537 229,-469 99,-469"/>
<text text-anchor="start" x="107" y="-525" font-family="Helvetica,sans-Serif" font-size="10.00">o2::Base::DetImpl&lt;</text>
<text text-anchor="middle" x="164" y="-514" font-family="Helvetica,sans-Serif" font-size="10.00"> Det &gt;</text>
<polyline fill="none" stroke="black" points="99,-507 229,-507 "/>
<text text-anchor="middle" x="164" y="-495" font-family="Helvetica,sans-Serif" font-size="10.00"> </text>
<polyline fill="none" stroke="black" points="99,-488 229,-488 "/>
<text text-anchor="start" x="107" y="-476" font-family="Helvetica,sans-Serif" font-size="10.00">+ updateHitTrackIndices()</text>
</a>
</g>
</g>
<!-- Node3&#45;&gt;Node5 -->
<g id="edge5" class="edge"><title>Node3&#45;&gt;Node5</title>
<path fill="none" stroke="midnightblue" d="M140.213,-567.433C144.334,-556.443 148.175,-546.201 151.517,-537.289"/>
<polygon fill="none" stroke="midnightblue" points="136.924,-566.234 136.69,-576.827 143.478,-568.692 136.924,-566.234"/>
</g>
<!-- Node4 -->
<g id="node4" class="node"><title>Node4</title>
<g id="a_node4"><a xlink:href="../../d6/d0c/classFairDetector.html" target="_top" xlink:title="{FairDetector\n||}">
<polygon fill="none" stroke="black" points="47.5,-904.5 47.5,-961.5 118.5,-961.5 118.5,-904.5 47.5,-904.5"/>
<text text-anchor="middle" x="83" y="-949.5" font-family="Helvetica,sans-Serif" font-size="10.00">FairDetector</text>
<polyline fill="none" stroke="black" points="47.5,-942.5 118.5,-942.5 "/>
<text text-anchor="middle" x="83" y="-930.5" font-family="Helvetica,sans-Serif" font-size="10.00"> </text>
<polyline fill="none" stroke="black" points="47.5,-923.5 118.5,-923.5 "/>
<text text-anchor="middle" x="83" y="-911.5" font-family="Helvetica,sans-Serif" font-size="10.00"> </text>
</a>
</g>
</g>
<!-- Node4&#45;&gt;Node3 -->
<g id="edge3" class="edge"><title>Node4&#45;&gt;Node3</title>
<path fill="none" stroke="midnightblue" d="M83,-894.041C83,-885.326 83,-875.552 83,-865.205"/>
<polygon fill="none" stroke="midnightblue" points="79.5001,-894.114 83,-904.114 86.5001,-894.114 79.5001,-894.114"/>
</g>
<!-- Node5&#45;&gt;Node2 -->
<g id="edge4" class="edge"><title>Node5&#45;&gt;Node2</title>
<path fill="none" stroke="orange" d="M141.42,-459.753C134.289,-446.411 126.515,-431.866 119.769,-419.246"/>
<polygon fill="orange" stroke="orange" points="138.433,-461.59 146.233,-468.759 144.606,-458.29 138.433,-461.59"/>
<text text-anchor="middle" x="163.5" y="-441.5" font-family="Helvetica,sans-Serif" font-size="10.00"> &lt; Detector &gt;</text>
</g>
</g>
</svg>
