<?xml version="1.0" encoding="UTF-8" standalone="no"?>
<!DOCTYPE svg PUBLIC "-//W3C//DTD SVG 1.1//EN"
 "http://www.w3.org/Graphics/SVG/1.1/DTD/svg11.dtd">
<!-- Generated by graphviz version 2.36.0 (20140111.2315)
 -->
<!-- Title: o2::qc::TreeProducer Pages: 1 -->
<svg width="116pt" height="172pt"
 viewBox="0.00 0.00 116.00 172.00" xmlns="http://www.w3.org/2000/svg" xmlns:xlink="http://www.w3.org/1999/xlink">
<g id="graph0" class="graph" transform="scale(1 1) rotate(0) translate(4 168)">
<title>o2::qc::TreeProducer</title>
<!-- Node1 -->
<g id="node1" class="node"><title>Node1</title>
<polygon fill="#bfbfbf" stroke="black" points="0,-1 0,-69 108,-69 108,-1 0,-1"/>
<text text-anchor="middle" x="54" y="-57" font-family="Helvetica,sans-Serif" font-size="10.00">o2::qc::TreeProducer</text>
<polyline fill="none" stroke="black" points="0,-50 108,-50 "/>
<text text-anchor="middle" x="54" y="-38" font-family="Helvetica,sans-Serif" font-size="10.00"> </text>
<polyline fill="none" stroke="black" points="0,-31 108,-31 "/>
<text text-anchor="start" x="8" y="-19" font-family="Helvetica,sans-Serif" font-size="10.00">+ TreeProducer()</text>
<text text-anchor="start" x="8" y="-8" font-family="Helvetica,sans-Serif" font-size="10.00">+ produceData()</text>
</g>
<!-- Node2 -->
<g id="node2" class="node"><title>Node2</title>
<g id="a_node2"><a xlink:href="../../d7/d27/classo2_1_1qc_1_1Producer.html" target="_top" xlink:title="{o2::qc::Producer\n||+ produceData()\l}">
<polygon fill="none" stroke="black" points="9.5,-106.5 9.5,-163.5 98.5,-163.5 98.5,-106.5 9.5,-106.5"/>
<text text-anchor="middle" x="54" y="-151.5" font-family="Helvetica,sans-Serif" font-size="10.00">o2::qc::Producer</text>
<polyline fill="none" stroke="black" points="9.5,-144.5 98.5,-144.5 "/>
<text text-anchor="middle" x="54" y="-132.5" font-family="Helvetica,sans-Serif" font-size="10.00"> </text>
<polyline fill="none" stroke="black" points="9.5,-125.5 98.5,-125.5 "/>
<text text-anchor="start" x="17.5" y="-113.5" font-family="Helvetica,sans-Serif" font-size="10.00">+ produceData()</text>
</a>
</g>
</g>
<!-- Node2&#45;&gt;Node1 -->
<g id="edge1" class="edge"><title>Node2&#45;&gt;Node1</title>
<path fill="none" stroke="midnightblue" d="M54,-96.3023C54,-87.3951 54,-77.9608 54,-69.2659"/>
<polygon fill="none" stroke="midnightblue" points="50.5001,-96.4407 54,-106.441 57.5001,-96.4408 50.5001,-96.4407"/>
</g>
</g>
</svg>
