<?xml version="1.0" encoding="UTF-8" standalone="no"?>
<!DOCTYPE svg PUBLIC "-//W3C//DTD SVG 1.1//EN"
 "http://www.w3.org/Graphics/SVG/1.1/DTD/svg11.dtd">
<!-- Generated by graphviz version 2.36.0 (20140111.2315)
 -->
<!-- Title: /home/travis/build/AliceO2Group/AliceO2/Common/MathUtils/include/MathUtils/MathBase.h Pages: 1 -->
<svg width="581pt" height="152pt"
 viewBox="0.00 0.00 581.00 152.00" xmlns="http://www.w3.org/2000/svg" xmlns:xlink="http://www.w3.org/1999/xlink">
<g id="graph0" class="graph" transform="scale(1 1) rotate(0) translate(4 148)">
<title>/home/travis/build/AliceO2Group/AliceO2/Common/MathUtils/include/MathUtils/MathBase.h</title>
<!-- Node1 -->
<g id="node1" class="node"><title>Node1</title>
<polygon fill="#bfbfbf" stroke="black" points="211,-91 211,-143 349,-143 349,-91 211,-91"/>
<text text-anchor="start" x="219" y="-131" font-family="Helvetica,sans-Serif" font-size="10.00">/home/travis/build</text>
<text text-anchor="start" x="219" y="-120" font-family="Helvetica,sans-Serif" font-size="10.00">/AliceO2Group/AliceO2</text>
<text text-anchor="start" x="219" y="-109" font-family="Helvetica,sans-Serif" font-size="10.00">/Common/MathUtils/include</text>
<text text-anchor="middle" x="280" y="-98" font-family="Helvetica,sans-Serif" font-size="10.00">/MathUtils/MathBase.h</text>
</g>
<!-- Node2 -->
<g id="node2" class="node"><title>Node2</title>
<g id="a_node2"><a xlink:href="../../d0/d23/MathBase_8cxx.html" target="_top" xlink:title="/home/travis/build\l/AliceO2Group/AliceO2\l/Common/MathUtils/src\l/MathBase.cxx">
<polygon fill="none" stroke="black" points="-0.5,-1 -0.5,-53 120.5,-53 120.5,-1 -0.5,-1"/>
<text text-anchor="start" x="7.5" y="-41" font-family="Helvetica,sans-Serif" font-size="10.00">/home/travis/build</text>
<text text-anchor="start" x="7.5" y="-30" font-family="Helvetica,sans-Serif" font-size="10.00">/AliceO2Group/AliceO2</text>
<text text-anchor="start" x="7.5" y="-19" font-family="Helvetica,sans-Serif" font-size="10.00">/Common/MathUtils/src</text>
<text text-anchor="middle" x="60" y="-8" font-family="Helvetica,sans-Serif" font-size="10.00">/MathBase.cxx</text>
</a>
</g>
</g>
<!-- Node1&#45;&gt;Node2 -->
<g id="edge1" class="edge"><title>Node1&#45;&gt;Node2</title>
<path fill="none" stroke="midnightblue" d="M207.832,-87.1328C179.592,-75.8368 147.564,-63.0255 120.557,-52.2226"/>
<polygon fill="midnightblue" stroke="midnightblue" points="206.667,-90.4362 217.251,-90.9005 209.266,-83.9369 206.667,-90.4362"/>
</g>
<!-- Node3 -->
<g id="node3" class="node"><title>Node3</title>
<g id="a_node3"><a xlink:href="../../d6/d99/CalibPedestal_8cxx.html" target="_top" xlink:title="/home/travis/build\l/AliceO2Group/AliceO2\l/Detectors/TPC/calibration\l/src/CalibPedestal.cxx">
<polygon fill="none" stroke="black" points="138.5,-1 138.5,-53 271.5,-53 271.5,-1 138.5,-1"/>
<text text-anchor="start" x="146.5" y="-41" font-family="Helvetica,sans-Serif" font-size="10.00">/home/travis/build</text>
<text text-anchor="start" x="146.5" y="-30" font-family="Helvetica,sans-Serif" font-size="10.00">/AliceO2Group/AliceO2</text>
<text text-anchor="start" x="146.5" y="-19" font-family="Helvetica,sans-Serif" font-size="10.00">/Detectors/TPC/calibration</text>
<text text-anchor="middle" x="205" y="-8" font-family="Helvetica,sans-Serif" font-size="10.00">/src/CalibPedestal.cxx</text>
</a>
</g>
</g>
<!-- Node1&#45;&gt;Node3 -->
<g id="edge2" class="edge"><title>Node1&#45;&gt;Node3</title>
<path fill="none" stroke="midnightblue" d="M251.744,-82.8459C243.34,-72.9851 234.275,-62.3492 226.385,-53.0921"/>
<polygon fill="midnightblue" stroke="midnightblue" points="249.157,-85.2062 258.307,-90.5468 254.484,-80.6656 249.157,-85.2062"/>
</g>
<!-- Node4 -->
<g id="node4" class="node"><title>Node4</title>
<g id="a_node4"><a xlink:href="../../d4/ddc/CalibPulser_8cxx.html" target="_top" xlink:title="/home/travis/build\l/AliceO2Group/AliceO2\l/Detectors/TPC/calibration\l/src/CalibPulser.cxx">
<polygon fill="none" stroke="black" points="289.5,-1 289.5,-53 422.5,-53 422.5,-1 289.5,-1"/>
<text text-anchor="start" x="297.5" y="-41" font-family="Helvetica,sans-Serif" font-size="10.00">/home/travis/build</text>
<text text-anchor="start" x="297.5" y="-30" font-family="Helvetica,sans-Serif" font-size="10.00">/AliceO2Group/AliceO2</text>
<text text-anchor="start" x="297.5" y="-19" font-family="Helvetica,sans-Serif" font-size="10.00">/Detectors/TPC/calibration</text>
<text text-anchor="middle" x="356" y="-8" font-family="Helvetica,sans-Serif" font-size="10.00">/src/CalibPulser.cxx</text>
</a>
</g>
</g>
<!-- Node1&#45;&gt;Node4 -->
<g id="edge3" class="edge"><title>Node1&#45;&gt;Node4</title>
<path fill="none" stroke="midnightblue" d="M308.633,-82.8459C317.149,-72.9851 326.335,-62.3492 334.33,-53.0921"/>
<polygon fill="midnightblue" stroke="midnightblue" points="305.87,-80.6908 301.982,-90.5468 311.167,-85.2662 305.87,-80.6908"/>
</g>
<!-- Node5 -->
<g id="node5" class="node"><title>Node5</title>
<g id="a_node5"><a xlink:href="../../d2/d9a/CalibTreeDump_8cxx.html" target="_top" xlink:title="/home/travis/build\l/AliceO2Group/AliceO2\l/Detectors/TPC/calibration\l/src/CalibTreeDump.cxx">
<polygon fill="none" stroke="black" points="440.5,-1 440.5,-53 573.5,-53 573.5,-1 440.5,-1"/>
<text text-anchor="start" x="448.5" y="-41" font-family="Helvetica,sans-Serif" font-size="10.00">/home/travis/build</text>
<text text-anchor="start" x="448.5" y="-30" font-family="Helvetica,sans-Serif" font-size="10.00">/AliceO2Group/AliceO2</text>
<text text-anchor="start" x="448.5" y="-19" font-family="Helvetica,sans-Serif" font-size="10.00">/Detectors/TPC/calibration</text>
<text text-anchor="middle" x="507" y="-8" font-family="Helvetica,sans-Serif" font-size="10.00">/src/CalibTreeDump.cxx</text>
</a>
</g>
</g>
<!-- Node1&#45;&gt;Node5 -->
<g id="edge4" class="edge"><title>Node1&#45;&gt;Node5</title>
<path fill="none" stroke="midnightblue" d="M354.216,-87.229C382.602,-76.2249 414.726,-63.7712 442.169,-53.1328"/>
<polygon fill="midnightblue" stroke="midnightblue" points="352.804,-84.0225 344.745,-90.9005 355.334,-90.5493 352.804,-84.0225"/>
</g>
</g>
</svg>
