<?xml version="1.0" encoding="UTF-8" standalone="no"?>
<!DOCTYPE svg PUBLIC "-//W3C//DTD SVG 1.1//EN"
 "http://www.w3.org/Graphics/SVG/1.1/DTD/svg11.dtd">
<!-- Generated by graphviz version 2.36.0 (20140111.2315)
 -->
<!-- Title: Composite&lt; HeaderT, TrailerT &gt; Pages: 1 -->
<svg width="348pt" height="194pt"
 viewBox="0.00 0.00 348.00 194.00" xmlns="http://www.w3.org/2000/svg" xmlns:xlink="http://www.w3.org/1999/xlink">
<g id="graph0" class="graph" transform="scale(1 1) rotate(0) translate(4 190)">
<title>Composite&lt; HeaderT, TrailerT &gt;</title>
<!-- Node1 -->
<g id="node1" class="node"><title>Node1</title>
<polygon fill="#bfbfbf" stroke="black" points="113.5,-0.5 113.5,-79.5 226.5,-79.5 226.5,-0.5 113.5,-0.5"/>
<text text-anchor="start" x="121.5" y="-67.5" font-family="Helvetica,sans-Serif" font-size="10.00">Composite&lt; HeaderT,</text>
<text text-anchor="middle" x="170" y="-56.5" font-family="Helvetica,sans-Serif" font-size="10.00"> TrailerT &gt;</text>
<polyline fill="none" stroke="black" points="113.5,-49.5 226.5,-49.5 "/>
<text text-anchor="middle" x="170" y="-37.5" font-family="Helvetica,sans-Serif" font-size="10.00"> </text>
<polyline fill="none" stroke="black" points="113.5,-30.5 226.5,-30.5 "/>
<text text-anchor="start" x="121.5" y="-18.5" font-family="Helvetica,sans-Serif" font-size="10.00">+ Composite()</text>
<text text-anchor="start" x="121.5" y="-7.5" font-family="Helvetica,sans-Serif" font-size="10.00">+ getDataLength()</text>
</g>
<!-- Node2 -->
<g id="node2" class="node"><title>Node2</title>
<polygon fill="none" stroke="#bfbfbf" points="-0.5,-128.5 -0.5,-185.5 106.5,-185.5 106.5,-128.5 -0.5,-128.5"/>
<text text-anchor="middle" x="53" y="-173.5" font-family="Helvetica,sans-Serif" font-size="10.00">const HeaderType &amp;</text>
<polyline fill="none" stroke="#bfbfbf" points="-0.5,-166.5 106.5,-166.5 "/>
<text text-anchor="middle" x="53" y="-154.5" font-family="Helvetica,sans-Serif" font-size="10.00"> </text>
<polyline fill="none" stroke="#bfbfbf" points="-0.5,-147.5 106.5,-147.5 "/>
<text text-anchor="middle" x="53" y="-135.5" font-family="Helvetica,sans-Serif" font-size="10.00"> </text>
</g>
<!-- Node2&#45;&gt;Node1 -->
<g id="edge1" class="edge"><title>Node2&#45;&gt;Node1</title>
<path fill="none" stroke="#404040" d="M75.8703,-128.445C84.414,-118.572 94.3813,-107.533 104,-98 107.352,-94.6778 110.866,-91.3194 114.453,-87.9831"/>
<polygon fill="none" stroke="#404040" points="114.6,-87.85 116.341,-80.8523 123.47,-79.7683 121.729,-86.766 114.6,-87.85"/>
<text text-anchor="middle" x="123.5" y="-101.5" font-family="Helvetica,sans-Serif" font-size="10.00"> +header</text>
</g>
<!-- Node3 -->
<g id="node3" class="node"><title>Node3</title>
<polygon fill="none" stroke="#bfbfbf" points="124.5,-128.5 124.5,-185.5 159.5,-185.5 159.5,-128.5 124.5,-128.5"/>
<text text-anchor="middle" x="142" y="-173.5" font-family="Helvetica,sans-Serif" font-size="10.00">char</text>
<polyline fill="none" stroke="#bfbfbf" points="124.5,-166.5 159.5,-166.5 "/>
<text text-anchor="middle" x="142" y="-154.5" font-family="Helvetica,sans-Serif" font-size="10.00"> </text>
<polyline fill="none" stroke="#bfbfbf" points="124.5,-147.5 159.5,-147.5 "/>
<text text-anchor="middle" x="142" y="-135.5" font-family="Helvetica,sans-Serif" font-size="10.00"> </text>
</g>
<!-- Node3&#45;&gt;Node1 -->
<g id="edge2" class="edge"><title>Node3&#45;&gt;Node1</title>
<path fill="none" stroke="#404040" d="M144.014,-128.327C145.067,-118.647 146.647,-107.761 149,-98 149.547,-95.7317 150.156,-93.4296 150.813,-91.1167"/>
<polygon fill="none" stroke="#404040" points="150.843,-91.0202 148.815,-84.1001 154.423,-79.5666 156.451,-86.4867 150.843,-91.0202"/>
<text text-anchor="middle" x="163" y="-101.5" font-family="Helvetica,sans-Serif" font-size="10.00"> +data</text>
</g>
<!-- Node4 -->
<g id="node4" class="node"><title>Node4</title>
<polygon fill="none" stroke="#bfbfbf" points="177.5,-128.5 177.5,-185.5 220.5,-185.5 220.5,-128.5 177.5,-128.5"/>
<text text-anchor="middle" x="199" y="-173.5" font-family="Helvetica,sans-Serif" font-size="10.00">size_t</text>
<polyline fill="none" stroke="#bfbfbf" points="177.5,-166.5 220.5,-166.5 "/>
<text text-anchor="middle" x="199" y="-154.5" font-family="Helvetica,sans-Serif" font-size="10.00"> </text>
<polyline fill="none" stroke="#bfbfbf" points="177.5,-147.5 220.5,-147.5 "/>
<text text-anchor="middle" x="199" y="-135.5" font-family="Helvetica,sans-Serif" font-size="10.00"> </text>
</g>
<!-- Node4&#45;&gt;Node1 -->
<g id="edge3" class="edge"><title>Node4&#45;&gt;Node1</title>
<path fill="none" stroke="#404040" d="M192.054,-128.455C189.26,-117.376 185.947,-104.24 182.75,-91.5604"/>
<polygon fill="none" stroke="#404040" points="182.675,-91.2615 177.329,-86.4217 179.74,-79.6258 185.086,-84.4655 182.675,-91.2615"/>
<text text-anchor="middle" x="206" y="-101.5" font-family="Helvetica,sans-Serif" font-size="10.00"> +length</text>
</g>
<!-- Node5 -->
<g id="node5" class="node"><title>Node5</title>
<polygon fill="none" stroke="#bfbfbf" points="239,-128.5 239,-185.5 341,-185.5 341,-128.5 239,-128.5"/>
<text text-anchor="middle" x="290" y="-173.5" font-family="Helvetica,sans-Serif" font-size="10.00">const TrailerType &amp;</text>
<polyline fill="none" stroke="#bfbfbf" points="239,-166.5 341,-166.5 "/>
<text text-anchor="middle" x="290" y="-154.5" font-family="Helvetica,sans-Serif" font-size="10.00"> </text>
<polyline fill="none" stroke="#bfbfbf" points="239,-147.5 341,-147.5 "/>
<text text-anchor="middle" x="290" y="-135.5" font-family="Helvetica,sans-Serif" font-size="10.00"> </text>
</g>
<!-- Node5&#45;&gt;Node1 -->
<g id="edge4" class="edge"><title>Node5&#45;&gt;Node1</title>
<path fill="none" stroke="#404040" d="M261.257,-128.455C248.625,-116.349 233.427,-101.785 219.09,-88.0448"/>
<polygon fill="none" stroke="#404040" points="218.969,-87.9287 211.869,-86.6652 210.305,-79.6258 217.405,-80.8892 218.969,-87.9287"/>
<text text-anchor="middle" x="258" y="-101.5" font-family="Helvetica,sans-Serif" font-size="10.00"> +trailer</text>
</g>
</g>
</svg>
