<?xml version="1.0" encoding="UTF-8" standalone="no"?>
<!DOCTYPE svg PUBLIC "-//W3C//DTD SVG 1.1//EN"
 "http://www.w3.org/Graphics/SVG/1.1/DTD/svg11.dtd">
<!-- Generated by graphviz version 2.36.0 (20140111.2315)
 -->
<!-- Title: o2::framework::InitContext Pages: 1 -->
<svg width="323pt" height="250pt"
 viewBox="0.00 0.00 323.00 250.00" xmlns="http://www.w3.org/2000/svg" xmlns:xlink="http://www.w3.org/1999/xlink">
<g id="graph0" class="graph" transform="scale(1 1) rotate(0) translate(4 246)">
<title>o2::framework::InitContext</title>
<!-- Node1 -->
<g id="node1" class="node"><title>Node1</title>
<polygon fill="#bfbfbf" stroke="black" points="93.5,-0.5 93.5,-79.5 226.5,-79.5 226.5,-0.5 93.5,-0.5"/>
<text text-anchor="middle" x="160" y="-67.5" font-family="Helvetica,sans-Serif" font-size="10.00">o2::framework::InitContext</text>
<polyline fill="none" stroke="black" points="93.5,-60.5 226.5,-60.5 "/>
<text text-anchor="middle" x="160" y="-48.5" font-family="Helvetica,sans-Serif" font-size="10.00"> </text>
<polyline fill="none" stroke="black" points="93.5,-41.5 226.5,-41.5 "/>
<text text-anchor="start" x="101.5" y="-29.5" font-family="Helvetica,sans-Serif" font-size="10.00">+ InitContext()</text>
<text text-anchor="start" x="101.5" y="-18.5" font-family="Helvetica,sans-Serif" font-size="10.00">+ options()</text>
<text text-anchor="start" x="101.5" y="-7.5" font-family="Helvetica,sans-Serif" font-size="10.00">+ services()</text>
</g>
<!-- Node2 -->
<g id="node2" class="node"><title>Node2</title>
<g id="a_node2"><a xlink:href="../../d7/d13/classo2_1_1framework_1_1ServiceRegistry.html" target="_top" xlink:title="{o2::framework::ServiceRegistry\n||+ registerService()\l+ get()\l}">
<polygon fill="none" stroke="black" points="-0.5,-151 -0.5,-219 154.5,-219 154.5,-151 -0.5,-151"/>
<text text-anchor="middle" x="77" y="-207" font-family="Helvetica,sans-Serif" font-size="10.00">o2::framework::ServiceRegistry</text>
<polyline fill="none" stroke="black" points="-0.5,-200 154.5,-200 "/>
<text text-anchor="middle" x="77" y="-188" font-family="Helvetica,sans-Serif" font-size="10.00"> </text>
<polyline fill="none" stroke="black" points="-0.5,-181 154.5,-181 "/>
<text text-anchor="start" x="7.5" y="-169" font-family="Helvetica,sans-Serif" font-size="10.00">+ registerService()</text>
<text text-anchor="start" x="7.5" y="-158" font-family="Helvetica,sans-Serif" font-size="10.00">+ get()</text>
</a>
</g>
</g>
<!-- Node2&#45;&gt;Node1 -->
<g id="edge1" class="edge"><title>Node2&#45;&gt;Node1</title>
<path fill="none" stroke="#404040" d="M96.2505,-150.833C106.724,-132.79 119.881,-110.121 131.518,-90.0712"/>
<polygon fill="none" stroke="#404040" points="131.597,-89.9351 131.15,-82.7378 137.621,-79.5566 138.069,-86.7538 131.597,-89.9351"/>
<text text-anchor="middle" x="154" y="-101.5" font-family="Helvetica,sans-Serif" font-size="10.00"> +mServices</text>
</g>
<!-- Node3 -->
<g id="node3" class="node"><title>Node3</title>
<g id="a_node3"><a xlink:href="../../df/d6f/classo2_1_1framework_1_1ConfigParamRegistry.html" target="_top" xlink:title="{o2::framework::ConfigParam\lRegistry\n||+ ConfigParamRegistry()\l+ get()\l+ get()\l+ get()\l+ get()\l}">
<polygon fill="none" stroke="black" points="173,-129 173,-241 315,-241 315,-129 173,-129"/>
<text text-anchor="start" x="181" y="-229" font-family="Helvetica,sans-Serif" font-size="10.00">o2::framework::ConfigParam</text>
<text text-anchor="middle" x="244" y="-218" font-family="Helvetica,sans-Serif" font-size="10.00">Registry</text>
<polyline fill="none" stroke="black" points="173,-211 315,-211 "/>
<text text-anchor="middle" x="244" y="-199" font-family="Helvetica,sans-Serif" font-size="10.00"> </text>
<polyline fill="none" stroke="black" points="173,-192 315,-192 "/>
<text text-anchor="start" x="181" y="-180" font-family="Helvetica,sans-Serif" font-size="10.00">+ ConfigParamRegistry()</text>
<text text-anchor="start" x="181" y="-169" font-family="Helvetica,sans-Serif" font-size="10.00">+ get()</text>
<text text-anchor="start" x="181" y="-158" font-family="Helvetica,sans-Serif" font-size="10.00">+ get()</text>
<text text-anchor="start" x="181" y="-147" font-family="Helvetica,sans-Serif" font-size="10.00">+ get()</text>
<text text-anchor="start" x="181" y="-136" font-family="Helvetica,sans-Serif" font-size="10.00">+ get()</text>
</a>
</g>
</g>
<!-- Node3&#45;&gt;Node1 -->
<g id="edge2" class="edge"><title>Node3&#45;&gt;Node1</title>
<path fill="none" stroke="#404040" d="M211.523,-128.712C204.096,-116.069 196.25,-102.711 188.981,-90.336"/>
<polygon fill="none" stroke="#404040" points="188.844,-90.1037 182.356,-86.9562 182.766,-79.7568 189.254,-82.9043 188.844,-90.1037"/>
<text text-anchor="middle" x="226" y="-101.5" font-family="Helvetica,sans-Serif" font-size="10.00"> +mOptions</text>
</g>
</g>
</svg>
