<?xml version="1.0" encoding="UTF-8" standalone="no"?>
<!DOCTYPE svg PUBLIC "-//W3C//DTD SVG 1.1//EN"
 "http://www.w3.org/Graphics/SVG/1.1/DTD/svg11.dtd">
<!-- Generated by graphviz version 2.36.0 (20140111.2315)
 -->
<!-- Title: /home/travis/build/AliceO2Group/AliceO2/Utilities/aliceHLTwrapper/include/aliceHLTwrapper/Component.h Pages: 1 -->
<!--zoomable 296 -->
<svg id="main" version="1.1" xmlns="http://www.w3.org/2000/svg" xmlns:xlink="http://www.w3.org/1999/xlink" xml:space="preserve" onload="init(evt)">
<style type="text/css"><![CDATA[
.edge:hover path { stroke: red; }
.edge:hover polygon { stroke: red; fill: red; }
]]></style>
<script type="text/javascript"><![CDATA[
var edges = document.getElementsByTagName('g');
if (edges && edges.length) {
  for (var i=0;i<edges.length;i++) {
    if (edges[i].id.substr(0,4)=='edge') {
      edges[i].setAttribute('class','edge');
    }
  }
}
]]></script>
        <defs>
                <circle id="rim" cx="0" cy="0" r="7"/>
                <circle id="rim2" cx="0" cy="0" r="3.5"/>
                <g id="zoomPlus">
                        <use xlink:href="#rim" fill="#404040">
                                <set attributeName="fill" to="#808080" begin="zoomplus.mouseover" end="zoomplus.mouseout"/>
                        </use>
                        <path d="M-4,0h8M0,-4v8" fill="none" stroke="white" stroke-width="1.5" pointer-events="none"/>
                </g>
                <g id="zoomMin">
                        <use xlink:href="#rim" fill="#404040">
                                <set attributeName="fill" to="#808080" begin="zoomminus.mouseover" end="zoomminus.mouseout"/>
                        </use>
                        <path d="M-4,0h8" fill="none" stroke="white" stroke-width="1.5" pointer-events="none"/>
                </g>
                <g id="dirArrow">
                        <path fill="none" stroke="white" stroke-width="1.5" d="M0,-3.0v7 M-2.5,-0.5L0,-3.0L2.5,-0.5"/>
                </g>
               <g id="resetDef">
                       <use xlink:href="#rim2" fill="#404040">
                               <set attributeName="fill" to="#808080" begin="reset.mouseover" end="reset.mouseout"/>
                       </use>
               </g>
        </defs>

<script type="text/javascript">
var viewWidth = 863;
var viewHeight = 296;
var sectionId = 'dynsection-0';
</script>
<script xlink:href="../../svgpan.js"/>
<svg id="graph" class="graph">
<g id="viewport">
<title>/home/travis/build/AliceO2Group/AliceO2/Utilities/aliceHLTwrapper/include/aliceHLTwrapper/Component.h</title>
<!-- Node1 -->
<g id="node1" class="node"><title>Node1</title>
<polygon fill="#bfbfbf" stroke="black" points="551.5,-224.5 551.5,-287.5 680.5,-287.5 680.5,-224.5 551.5,-224.5"/>
<text text-anchor="start" x="559.5" y="-275.5" font-family="Helvetica,sans-Serif" font-size="10.00">/home/travis/build</text>
<text text-anchor="start" x="559.5" y="-264.5" font-family="Helvetica,sans-Serif" font-size="10.00">/AliceO2Group/AliceO2</text>
<text text-anchor="start" x="559.5" y="-253.5" font-family="Helvetica,sans-Serif" font-size="10.00">/Utilities/aliceHLTwrapper</text>
<text text-anchor="start" x="559.5" y="-242.5" font-family="Helvetica,sans-Serif" font-size="10.00">/include/aliceHLTwrapper</text>
<text text-anchor="middle" x="616" y="-231.5" font-family="Helvetica,sans-Serif" font-size="10.00">/Component.h</text>
</g>
<!-- Node2 -->
<g id="node2" class="node"><title>Node2</title>
<g id="a_node2"><a xlink:href="../../d6/d34/AliHLTDataTypes_8h.html" target="_top" xlink:title="Data type declaration for the HLT module. ">
<polygon fill="none" stroke="black" points="487.5,-56.5 487.5,-75.5 590.5,-75.5 590.5,-56.5 487.5,-56.5"/>
<text text-anchor="middle" x="539" y="-63.5" font-family="Helvetica,sans-Serif" font-size="10.00">AliHLTDataTypes.h</text>
</a>
</g>
</g>
<!-- Node1&#45;&gt;Node2 -->
<g id="edge1" class="edge"><title>Node1&#45;&gt;Node2</title>
<path fill="none" stroke="midnightblue" d="M644.567,-224.401C669.458,-193.898 697.964,-146.718 673,-112 656.421,-88.9441 627.451,-77.5371 600.68,-71.9588"/>
<polygon fill="midnightblue" stroke="midnightblue" points="601.026,-68.4638 590.557,-70.0942 599.758,-75.348 601.026,-68.4638"/>
</g>
<!-- Node3 -->
<g id="node3" class="node"><title>Node3</title>
<g id="a_node3"><a xlink:href="../../d2/dda/MessageFormat_8h.html" target="_top" xlink:title="MessageFormat.h">
<polygon fill="none" stroke="black" points="396.5,-168.5 396.5,-187.5 491.5,-187.5 491.5,-168.5 396.5,-168.5"/>
<text text-anchor="middle" x="444" y="-175.5" font-family="Helvetica,sans-Serif" font-size="10.00">MessageFormat.h</text>
</a>
</g>
</g>
<!-- Node1&#45;&gt;Node3 -->
<g id="edge2" class="edge"><title>Node1&#45;&gt;Node3</title>
<path fill="none" stroke="midnightblue" d="M551.464,-226.484C524.351,-214.504 494.196,-201.18 472.747,-191.702"/>
<polygon fill="midnightblue" stroke="midnightblue" points="474.109,-188.478 463.547,-187.637 471.28,-194.88 474.109,-188.478"/>
</g>
<!-- Node5 -->
<g id="node5" class="node"><title>Node5</title>
<polygon fill="none" stroke="#bfbfbf" points="357,-56.5 357,-75.5 401,-75.5 401,-56.5 357,-56.5"/>
<text text-anchor="middle" x="379" y="-63.5" font-family="Helvetica,sans-Serif" font-size="10.00">vector</text>
</g>
<!-- Node1&#45;&gt;Node5 -->
<g id="edge20" class="edge"><title>Node1&#45;&gt;Node5</title>
<path fill="none" stroke="midnightblue" d="M551.442,-244.549C491.217,-233.374 407.639,-213.728 387,-188 363.59,-158.818 368.825,-111.846 374.218,-85.8431"/>
<polygon fill="midnightblue" stroke="midnightblue" points="377.696,-86.3329 376.53,-75.8025 370.875,-84.7621 377.696,-86.3329"/>
</g>
<!-- Node7 -->
<g id="node7" class="node"><title>Node7</title>
<polygon fill="none" stroke="#bfbfbf" points="567,-112.5 567,-131.5 665,-131.5 665,-112.5 567,-112.5"/>
<text text-anchor="middle" x="616" y="-119.5" font-family="Helvetica,sans-Serif" font-size="10.00">boost/signals2.hpp</text>
</g>
<!-- Node1&#45;&gt;Node7 -->
<g id="edge21" class="edge"><title>Node1&#45;&gt;Node7</title>
<path fill="none" stroke="midnightblue" d="M616,-224.385C616,-198.82 616,-163.199 616,-141.695"/>
<polygon fill="midnightblue" stroke="midnightblue" points="619.5,-141.61 616,-131.61 612.5,-141.61 619.5,-141.61"/>
</g>
<!-- Node16 -->
<g id="node16" class="node"><title>Node16</title>
<polygon fill="none" stroke="#bfbfbf" points="721,-168.5 721,-187.5 855,-187.5 855,-168.5 721,-168.5"/>
<text text-anchor="middle" x="788" y="-175.5" font-family="Helvetica,sans-Serif" font-size="10.00">boost/program_options.hpp</text>
</g>
<!-- Node1&#45;&gt;Node16 -->
<g id="edge22" class="edge"><title>Node1&#45;&gt;Node16</title>
<path fill="none" stroke="midnightblue" d="M680.536,-226.484C707.649,-214.504 737.804,-201.18 759.253,-191.702"/>
<polygon fill="midnightblue" stroke="midnightblue" points="760.72,-194.88 768.453,-187.637 757.891,-188.478 760.72,-194.88"/>
</g>
<!-- Node3&#45;&gt;Node2 -->
<g id="edge3" class="edge"><title>Node3&#45;&gt;Node2</title>
<path fill="none" stroke="midnightblue" d="M467.112,-168.429C483.778,-161.133 505.611,-149.095 519,-132 529.455,-118.651 534.474,-99.8242 536.866,-85.8659"/>
<polygon fill="midnightblue" stroke="midnightblue" points="540.338,-86.3049 538.274,-75.9131 533.407,-85.324 540.338,-86.3049"/>
</g>
<!-- Node4 -->
<g id="node4" class="node"><title>Node4</title>
<g id="a_node4"><a xlink:href="../../d2/de6/HOMERFactory_8h.html" target="_top" xlink:title="HOMERFactory.h">
<polygon fill="none" stroke="black" points="415.5,-112.5 415.5,-131.5 510.5,-131.5 510.5,-112.5 415.5,-112.5"/>
<text text-anchor="middle" x="463" y="-119.5" font-family="Helvetica,sans-Serif" font-size="10.00">HOMERFactory.h</text>
</a>
</g>
</g>
<!-- Node3&#45;&gt;Node4 -->
<g id="edge4" class="edge"><title>Node3&#45;&gt;Node4</title>
<path fill="none" stroke="midnightblue" d="M447.137,-168.083C449.683,-160.849 453.356,-150.409 456.527,-141.397"/>
<polygon fill="midnightblue" stroke="midnightblue" points="459.903,-142.346 459.921,-131.751 453.3,-140.023 459.903,-142.346"/>
</g>
<!-- Node3&#45;&gt;Node5 -->
<g id="edge6" class="edge"><title>Node3&#45;&gt;Node5</title>
<path fill="none" stroke="midnightblue" d="M435.255,-168.33C426.914,-159.703 414.41,-145.795 406,-132 396.966,-117.181 389.645,-98.7977 384.918,-85.3664"/>
<polygon fill="midnightblue" stroke="midnightblue" points="388.21,-84.177 381.699,-75.8192 381.577,-86.4134 388.21,-84.177"/>
</g>
<!-- Node6 -->
<g id="node6" class="node"><title>Node6</title>
<polygon fill="none" stroke="#bfbfbf" points="0,-0.5 0,-19.5 46,-19.5 46,-0.5 0,-0.5"/>
<text text-anchor="middle" x="23" y="-7.5" font-family="Helvetica,sans-Serif" font-size="10.00">cstdint</text>
</g>
<!-- Node3&#45;&gt;Node6 -->
<g id="edge7" class="edge"><title>Node3&#45;&gt;Node6</title>
<path fill="none" stroke="midnightblue" d="M396.324,-176.354C337.983,-174.044 237.198,-165.069 158,-132 103.725,-109.337 56.7515,-55.2837 35.3414,-27.7451"/>
<polygon fill="midnightblue" stroke="midnightblue" points="37.9212,-25.3549 29.087,-19.5061 32.3457,-29.5874 37.9212,-25.3549"/>
</g>
<!-- Node3&#45;&gt;Node7 -->
<g id="edge8" class="edge"><title>Node3&#45;&gt;Node7</title>
<path fill="none" stroke="midnightblue" d="M471.254,-168.444C500.441,-159.28 546.921,-144.688 579.309,-134.519"/>
<polygon fill="midnightblue" stroke="midnightblue" points="580.381,-137.851 588.874,-131.516 578.284,-131.173 580.381,-137.851"/>
</g>
<!-- Node8 -->
<g id="node8" class="node"><title>Node8</title>
<g id="a_node8"><a xlink:href="../../dc/dcd/DataHeader_8h.html" target="_top" xlink:title="Headers/DataHeader.h">
<polygon fill="none" stroke="black" points="91.5,-56.5 91.5,-75.5 208.5,-75.5 208.5,-56.5 91.5,-56.5"/>
<text text-anchor="middle" x="150" y="-63.5" font-family="Helvetica,sans-Serif" font-size="10.00">Headers/DataHeader.h</text>
</a>
</g>
</g>
<!-- Node3&#45;&gt;Node8 -->
<g id="edge9" class="edge"><title>Node3&#45;&gt;Node8</title>
<path fill="none" stroke="midnightblue" d="M396.469,-174.538C328.787,-170.131 209.153,-158.718 176,-132 161.973,-120.696 155.473,-100.693 152.486,-85.8524"/>
<polygon fill="midnightblue" stroke="midnightblue" points="155.9,-85.0383 150.821,-75.7402 148.993,-86.1761 155.9,-85.0383"/>
</g>
<!-- Node13 -->
<g id="node13" class="node"><title>Node13</title>
<g id="a_node13"><a xlink:href="../../d2/d09/HeartbeatFrame_8h.html" target="_top" xlink:title="Headers/HeartbeatFrame.h">
<polygon fill="none" stroke="black" points="185.5,-112.5 185.5,-131.5 320.5,-131.5 320.5,-112.5 185.5,-112.5"/>
<text text-anchor="middle" x="253" y="-119.5" font-family="Helvetica,sans-Serif" font-size="10.00">Headers/HeartbeatFrame.h</text>
</a>
</g>
</g>
<!-- Node3&#45;&gt;Node13 -->
<g id="edge15" class="edge"><title>Node3&#45;&gt;Node13</title>
<path fill="none" stroke="midnightblue" d="M413.735,-168.444C381.045,-159.201 328.818,-144.436 292.817,-134.257"/>
<polygon fill="midnightblue" stroke="midnightblue" points="293.698,-130.869 283.123,-131.516 291.794,-137.605 293.698,-130.869"/>
</g>
<!-- Node4&#45;&gt;Node2 -->
<g id="edge5" class="edge"><title>Node4&#45;&gt;Node2</title>
<path fill="none" stroke="midnightblue" d="M475.211,-112.324C486.776,-104.107 504.375,-91.6017 518.161,-81.8069"/>
<polygon fill="midnightblue" stroke="midnightblue" points="520.443,-84.4791 526.567,-75.8339 516.388,-78.7729 520.443,-84.4791"/>
</g>
<!-- Node8&#45;&gt;Node6 -->
<g id="edge10" class="edge"><title>Node8&#45;&gt;Node6</title>
<path fill="none" stroke="midnightblue" d="M129.876,-56.4435C108.976,-47.5566 76.0653,-33.5632 52.2839,-23.4514"/>
<polygon fill="midnightblue" stroke="midnightblue" points="53.6016,-20.2085 43.0294,-19.5164 50.8625,-26.6504 53.6016,-20.2085"/>
</g>
<!-- Node9 -->
<g id="node9" class="node"><title>Node9</title>
<polygon fill="none" stroke="#bfbfbf" points="138,-0.5 138,-19.5 190,-19.5 190,-0.5 138,-0.5"/>
<text text-anchor="middle" x="164" y="-7.5" font-family="Helvetica,sans-Serif" font-size="10.00">memory</text>
</g>
<!-- Node8&#45;&gt;Node9 -->
<g id="edge11" class="edge"><title>Node8&#45;&gt;Node9</title>
<path fill="none" stroke="midnightblue" d="M152.312,-56.083C154.167,-48.9272 156.835,-38.6353 159.154,-29.6911"/>
<polygon fill="midnightblue" stroke="midnightblue" points="162.609,-30.3094 161.731,-19.7511 155.834,-28.5527 162.609,-30.3094"/>
</g>
<!-- Node10 -->
<g id="node10" class="node"><title>Node10</title>
<polygon fill="none" stroke="#bfbfbf" points="208.5,-0.5 208.5,-19.5 257.5,-19.5 257.5,-0.5 208.5,-0.5"/>
<text text-anchor="middle" x="233" y="-7.5" font-family="Helvetica,sans-Serif" font-size="10.00">cassert</text>
</g>
<!-- Node8&#45;&gt;Node10 -->
<g id="edge12" class="edge"><title>Node8&#45;&gt;Node10</title>
<path fill="none" stroke="midnightblue" d="M163.335,-56.324C176.162,-47.979 195.785,-35.2122 210.94,-25.3524"/>
<polygon fill="midnightblue" stroke="midnightblue" points="213.224,-28.0417 219.698,-19.6545 209.407,-22.1742 213.224,-28.0417"/>
</g>
<!-- Node11 -->
<g id="node11" class="node"><title>Node11</title>
<polygon fill="none" stroke="#bfbfbf" points="276,-0.5 276,-19.5 322,-19.5 322,-0.5 276,-0.5"/>
<text text-anchor="middle" x="299" y="-7.5" font-family="Helvetica,sans-Serif" font-size="10.00">cstring</text>
</g>
<!-- Node8&#45;&gt;Node11 -->
<g id="edge13" class="edge"><title>Node8&#45;&gt;Node11</title>
<path fill="none" stroke="midnightblue" d="M173.609,-56.4435C198.604,-47.3851 238.237,-33.0213 266.246,-22.8705"/>
<polygon fill="midnightblue" stroke="midnightblue" points="267.782,-26.0369 275.991,-19.339 265.396,-19.4558 267.782,-26.0369"/>
</g>
<!-- Node12 -->
<g id="node12" class="node"><title>Node12</title>
<polygon fill="none" stroke="#bfbfbf" points="64,-0.5 64,-19.5 120,-19.5 120,-0.5 64,-0.5"/>
<text text-anchor="middle" x="92" y="-7.5" font-family="Helvetica,sans-Serif" font-size="10.00">algorithm</text>
</g>
<!-- Node8&#45;&gt;Node12 -->
<g id="edge14" class="edge"><title>Node8&#45;&gt;Node12</title>
<path fill="none" stroke="midnightblue" d="M140.681,-56.324C132.107,-48.3414 119.188,-36.3128 108.812,-26.6529"/>
<polygon fill="midnightblue" stroke="midnightblue" points="111.192,-24.0865 101.488,-19.8339 106.422,-29.2098 111.192,-24.0865"/>
</g>
<!-- Node13&#45;&gt;Node5 -->
<g id="edge19" class="edge"><title>Node13&#45;&gt;Node5</title>
<path fill="none" stroke="midnightblue" d="M272.965,-112.444C293.609,-103.596 326.063,-89.6875 349.632,-79.5865"/>
<polygon fill="midnightblue" stroke="midnightblue" points="351.316,-82.6727 359.128,-75.5164 348.558,-76.2387 351.316,-82.6727"/>
</g>
<!-- Node13&#45;&gt;Node8 -->
<g id="edge16" class="edge"><title>Node13&#45;&gt;Node8</title>
<path fill="none" stroke="midnightblue" d="M236.451,-112.324C220.008,-103.703 194.565,-90.3643 175.532,-80.3855"/>
<polygon fill="midnightblue" stroke="midnightblue" points="176.989,-77.198 166.508,-75.6545 173.739,-83.3977 176.989,-77.198"/>
</g>
<!-- Node14 -->
<g id="node14" class="node"><title>Node14</title>
<polygon fill="none" stroke="#bfbfbf" points="226.5,-56.5 226.5,-75.5 285.5,-75.5 285.5,-56.5 226.5,-56.5"/>
<text text-anchor="middle" x="256" y="-63.5" font-family="Helvetica,sans-Serif" font-size="10.00">functional</text>
</g>
<!-- Node13&#45;&gt;Node14 -->
<g id="edge17" class="edge"><title>Node13&#45;&gt;Node14</title>
<path fill="none" stroke="midnightblue" d="M253.495,-112.083C253.889,-105.006 254.452,-94.8611 254.945,-85.9865"/>
<polygon fill="midnightblue" stroke="midnightblue" points="258.454,-85.9299 255.514,-75.7511 251.464,-85.5415 258.454,-85.9299"/>
</g>
<!-- Node15 -->
<g id="node15" class="node"><title>Node15</title>
<polygon fill="none" stroke="#bfbfbf" points="303.5,-56.5 303.5,-75.5 338.5,-75.5 338.5,-56.5 303.5,-56.5"/>
<text text-anchor="middle" x="321" y="-63.5" font-family="Helvetica,sans-Serif" font-size="10.00">map</text>
</g>
<!-- Node13&#45;&gt;Node15 -->
<g id="edge18" class="edge"><title>Node13&#45;&gt;Node15</title>
<path fill="none" stroke="midnightblue" d="M263.925,-112.324C274.175,-104.185 289.721,-91.8395 302.001,-82.0874"/>
<polygon fill="midnightblue" stroke="midnightblue" points="304.221,-84.7937 309.876,-75.8339 299.868,-79.3119 304.221,-84.7937"/>
</g>
</g>
</svg>
        <g id="navigator" transform="translate(0 0)" fill="#404254">
                <rect fill="#f2f5e9" fill-opacity="0.5" stroke="#606060" stroke-width=".5" x="0" y="0" width="60" height="60"/>
                <use id="zoomplus" xlink:href="#zoomPlus" x="17" y="9" onmousedown="handleZoom(evt,'in')"/>
                <use id="zoomminus" xlink:href="#zoomMin" x="42" y="9" onmousedown="handleZoom(evt,'out')"/>
                <use id="reset" xlink:href="#resetDef" x="30" y="36" onmousedown="handleReset()"/>
                <g id="arrowUp" xlink:href="#dirArrow" transform="translate(30 24)" onmousedown="handlePan(0,-1)">
                  <use xlink:href="#rim" fill="#404040">
                        <set attributeName="fill" to="#808080" begin="arrowUp.mouseover" end="arrowUp.mouseout"/>
                  </use>
                  <path fill="none" stroke="white" stroke-width="1.5" d="M0,-3.0v7 M-2.5,-0.5L0,-3.0L2.5,-0.5"/>
                </g>
                <g id="arrowRight" xlink:href="#dirArrow" transform="rotate(90) translate(36 -43)" onmousedown="handlePan(1,0)">
                  <use xlink:href="#rim" fill="#404040">
                        <set attributeName="fill" to="#808080" begin="arrowRight.mouseover" end="arrowRight.mouseout"/>
                  </use>
                  <path fill="none" stroke="white" stroke-width="1.5" d="M0,-3.0v7 M-2.5,-0.5L0,-3.0L2.5,-0.5"/>
                </g>
                <g id="arrowDown" xlink:href="#dirArrow" transform="rotate(180) translate(-30 -48)" onmousedown="handlePan(0,1)">
                  <use xlink:href="#rim" fill="#404040">
                        <set attributeName="fill" to="#808080" begin="arrowDown.mouseover" end="arrowDown.mouseout"/>
                  </use>
                  <path fill="none" stroke="white" stroke-width="1.5" d="M0,-3.0v7 M-2.5,-0.5L0,-3.0L2.5,-0.5"/>
                </g>
                <g id="arrowLeft" xlink:href="#dirArrow" transform="rotate(270) translate(-36 17)" onmousedown="handlePan(-1,0)">
                  <use xlink:href="#rim" fill="#404040">
                        <set attributeName="fill" to="#808080" begin="arrowLeft.mouseover" end="arrowLeft.mouseout"/>
                  </use>
                  <path fill="none" stroke="white" stroke-width="1.5" d="M0,-3.0v7 M-2.5,-0.5L0,-3.0L2.5,-0.5"/>
                </g>
        </g>
        <svg viewBox="0 0 15 15" width="100%" height="30px" preserveAspectRatio="xMaxYMin meet">
         <g id="arrow_out" transform="scale(0.3 0.3)">
          <a xlink:href="Component_8h__incl_org.svg" target="_base">
           <rect id="button" ry="5" rx="5" y="6" x="6" height="38" width="38"
                fill="#f2f5e9" fill-opacity="0.5" stroke="#606060" stroke-width="1.0"/>
           <path id="arrow"
             d="M 11.500037,31.436501 C 11.940474,20.09759 22.043105,11.32322 32.158766,21.979434 L 37.068811,17.246167 C 37.068811,17.246167 37.088388,32 37.088388,32 L 22.160133,31.978069 C 22.160133,31.978069 26.997745,27.140456 26.997745,27.140456 C 18.528582,18.264221 13.291696,25.230495 11.500037,31.436501 z"
             style="fill:#404040;"/>
          </a>
         </g>
        </svg>
</svg>
