<?xml version="1.0" encoding="UTF-8" standalone="no"?>
<!DOCTYPE svg PUBLIC "-//W3C//DTD SVG 1.1//EN"
 "http://www.w3.org/Graphics/SVG/1.1/DTD/svg11.dtd">
<!-- Generated by graphviz version 2.36.0 (20140111.2315)
 -->
<!-- Title: /home/travis/build/AliceO2Group/AliceO2/Common/MathUtils/include/MathUtils/MathBase.h Pages: 1 -->
<svg width="380pt" height="118pt"
 viewBox="0.00 0.00 380.00 118.00" xmlns="http://www.w3.org/2000/svg" xmlns:xlink="http://www.w3.org/1999/xlink">
<g id="graph0" class="graph" transform="scale(1 1) rotate(0) translate(4 114)">
<title>/home/travis/build/AliceO2Group/AliceO2/Common/MathUtils/include/MathUtils/MathBase.h</title>
<!-- Node1 -->
<g id="node1" class="node"><title>Node1</title>
<polygon fill="#bfbfbf" stroke="black" points="107,-57 107,-109 245,-109 245,-57 107,-57"/>
<text text-anchor="start" x="115" y="-97" font-family="Helvetica,sans-Serif" font-size="10.00">/home/travis/build</text>
<text text-anchor="start" x="115" y="-86" font-family="Helvetica,sans-Serif" font-size="10.00">/AliceO2Group/AliceO2</text>
<text text-anchor="start" x="115" y="-75" font-family="Helvetica,sans-Serif" font-size="10.00">/Common/MathUtils/include</text>
<text text-anchor="middle" x="176" y="-64" font-family="Helvetica,sans-Serif" font-size="10.00">/MathUtils/MathBase.h</text>
</g>
<!-- Node2 -->
<g id="node2" class="node"><title>Node2</title>
<polygon fill="none" stroke="#bfbfbf" points="0,-0.5 0,-19.5 44,-19.5 44,-0.5 0,-0.5"/>
<text text-anchor="middle" x="22" y="-7.5" font-family="Helvetica,sans-Serif" font-size="10.00">cmath</text>
</g>
<!-- Node1&#45;&gt;Node2 -->
<g id="edge1" class="edge"><title>Node1&#45;&gt;Node2</title>
<path fill="none" stroke="midnightblue" d="M121.705,-56.9681C97.4447,-45.783 69.8816,-33.0753 49.8938,-23.8601"/>
<polygon fill="midnightblue" stroke="midnightblue" points="51.2846,-20.6473 40.7379,-19.6389 48.3538,-27.0043 51.2846,-20.6473"/>
</g>
<!-- Node3 -->
<g id="node3" class="node"><title>Node3</title>
<polygon fill="none" stroke="#bfbfbf" points="62,-0.5 62,-19.5 118,-19.5 118,-0.5 62,-0.5"/>
<text text-anchor="middle" x="90" y="-7.5" font-family="Helvetica,sans-Serif" font-size="10.00">Rtypes.h</text>
</g>
<!-- Node1&#45;&gt;Node3 -->
<g id="edge2" class="edge"><title>Node1&#45;&gt;Node3</title>
<path fill="none" stroke="midnightblue" d="M145.437,-56.7681C133.095,-46.5781 119.256,-35.1531 108.493,-26.2671"/>
<polygon fill="midnightblue" stroke="midnightblue" points="110.547,-23.4246 100.607,-19.7572 106.091,-28.8227 110.547,-23.4246"/>
</g>
<!-- Node4 -->
<g id="node4" class="node"><title>Node4</title>
<polygon fill="none" stroke="#bfbfbf" points="136,-0.5 136,-19.5 216,-19.5 216,-0.5 136,-0.5"/>
<text text-anchor="middle" x="176" y="-7.5" font-family="Helvetica,sans-Serif" font-size="10.00">TLinearFitter.h</text>
</g>
<!-- Node1&#45;&gt;Node4 -->
<g id="edge3" class="edge"><title>Node1&#45;&gt;Node4</title>
<path fill="none" stroke="midnightblue" d="M176,-56.7681C176,-47.8897 176,-38.0737 176,-29.8165"/>
<polygon fill="midnightblue" stroke="midnightblue" points="179.5,-29.7571 176,-19.7572 172.5,-29.7572 179.5,-29.7571"/>
</g>
<!-- Node5 -->
<g id="node5" class="node"><title>Node5</title>
<polygon fill="none" stroke="#bfbfbf" points="234.5,-0.5 234.5,-19.5 301.5,-19.5 301.5,-0.5 234.5,-0.5"/>
<text text-anchor="middle" x="268" y="-7.5" font-family="Helvetica,sans-Serif" font-size="10.00">TVectorD.h</text>
</g>
<!-- Node1&#45;&gt;Node5 -->
<g id="edge4" class="edge"><title>Node1&#45;&gt;Node5</title>
<path fill="none" stroke="midnightblue" d="M208.436,-56.9681C221.793,-46.6601 236.825,-35.0589 248.447,-26.09"/>
<polygon fill="midnightblue" stroke="midnightblue" points="250.807,-28.69 256.585,-19.8095 246.53,-23.1483 250.807,-28.69"/>
</g>
<!-- Node6 -->
<g id="node6" class="node"><title>Node6</title>
<polygon fill="none" stroke="#bfbfbf" points="319.5,-0.5 319.5,-19.5 372.5,-19.5 372.5,-0.5 319.5,-0.5"/>
<text text-anchor="middle" x="346" y="-7.5" font-family="Helvetica,sans-Serif" font-size="10.00">TMath.h</text>
</g>
<!-- Node1&#45;&gt;Node6 -->
<g id="edge5" class="edge"><title>Node1&#45;&gt;Node6</title>
<path fill="none" stroke="midnightblue" d="M235.936,-56.9681C262.96,-45.6813 293.697,-32.8441 315.808,-23.6097"/>
<polygon fill="midnightblue" stroke="midnightblue" points="317.437,-26.7225 325.315,-19.6389 314.739,-20.2632 317.437,-26.7225"/>
</g>
</g>
</svg>
