<?xml version="1.0" encoding="UTF-8" standalone="no"?>
<!DOCTYPE svg PUBLIC "-//W3C//DTD SVG 1.1//EN"
 "http://www.w3.org/Graphics/SVG/1.1/DTD/svg11.dtd">
<!-- Generated by graphviz version 2.36.0 (20140111.2315)
 -->
<!-- Title: o2::MFT::MergerTMessage Pages: 1 -->
<svg width="142pt" height="160pt"
 viewBox="0.00 0.00 142.00 160.00" xmlns="http://www.w3.org/2000/svg" xmlns:xlink="http://www.w3.org/1999/xlink">
<g id="graph0" class="graph" transform="scale(1 1) rotate(0) translate(4 156)">
<title>o2::MFT::MergerTMessage</title>
<!-- Node1 -->
<g id="node1" class="node"><title>Node1</title>
<polygon fill="#bfbfbf" stroke="black" points="-0.5,-0.5 -0.5,-57.5 134.5,-57.5 134.5,-0.5 -0.5,-0.5"/>
<text text-anchor="middle" x="67" y="-45.5" font-family="Helvetica,sans-Serif" font-size="10.00">o2::MFT::MergerTMessage</text>
<polyline fill="none" stroke="black" points="-0.5,-38.5 134.5,-38.5 "/>
<text text-anchor="middle" x="67" y="-26.5" font-family="Helvetica,sans-Serif" font-size="10.00"> </text>
<polyline fill="none" stroke="black" points="-0.5,-19.5 134.5,-19.5 "/>
<text text-anchor="start" x="7.5" y="-7.5" font-family="Helvetica,sans-Serif" font-size="10.00">+ MergerTMessage()</text>
</g>
<!-- Node2 -->
<g id="node2" class="node"><title>Node2</title>
<g id="a_node2"><a xlink:href="../../d9/dc7/classTMessage.html" target="_top" xlink:title="{TMessage\n||}">
<polygon fill="none" stroke="black" points="36,-94.5 36,-151.5 98,-151.5 98,-94.5 36,-94.5"/>
<text text-anchor="middle" x="67" y="-139.5" font-family="Helvetica,sans-Serif" font-size="10.00">TMessage</text>
<polyline fill="none" stroke="black" points="36,-132.5 98,-132.5 "/>
<text text-anchor="middle" x="67" y="-120.5" font-family="Helvetica,sans-Serif" font-size="10.00"> </text>
<polyline fill="none" stroke="black" points="36,-113.5 98,-113.5 "/>
<text text-anchor="middle" x="67" y="-101.5" font-family="Helvetica,sans-Serif" font-size="10.00"> </text>
</a>
</g>
</g>
<!-- Node2&#45;&gt;Node1 -->
<g id="edge1" class="edge"><title>Node2&#45;&gt;Node1</title>
<path fill="none" stroke="midnightblue" d="M67,-84.2092C67,-75.2929 67,-65.9513 67,-57.5836"/>
<polygon fill="none" stroke="midnightblue" points="63.5001,-84.3969 67,-94.397 70.5001,-84.397 63.5001,-84.3969"/>
</g>
</g>
</svg>
