<?xml version="1.0" encoding="UTF-8" standalone="no"?>
<!DOCTYPE svg PUBLIC "-//W3C//DTD SVG 1.1//EN"
 "http://www.w3.org/Graphics/SVG/1.1/DTD/svg11.dtd">
<!-- Generated by graphviz version 2.36.0 (20140111.2315)
 -->
<!-- Title: /home/travis/build/AliceO2Group/AliceO2/Utilities/DataFlow/include/DataFlow/SubframeBuilderDevice.h Pages: 1 -->
<svg width="821pt" height="286pt"
 viewBox="0.00 0.00 821.01 286.00" xmlns="http://www.w3.org/2000/svg" xmlns:xlink="http://www.w3.org/1999/xlink">
<g id="graph0" class="graph" transform="scale(1 1) rotate(0) translate(4 282)">
<title>/home/travis/build/AliceO2Group/AliceO2/Utilities/DataFlow/include/DataFlow/SubframeBuilderDevice.h</title>
<!-- Node1 -->
<g id="node1" class="node"><title>Node1</title>
<polygon fill="#bfbfbf" stroke="black" points="347.012,-225 347.012,-277 523.012,-277 523.012,-225 347.012,-225"/>
<text text-anchor="start" x="355.012" y="-265" font-family="Helvetica,sans-Serif" font-size="10.00">/home/travis/build</text>
<text text-anchor="start" x="355.012" y="-254" font-family="Helvetica,sans-Serif" font-size="10.00">/AliceO2Group/AliceO2</text>
<text text-anchor="start" x="355.012" y="-243" font-family="Helvetica,sans-Serif" font-size="10.00">/Utilities/DataFlow/include</text>
<text text-anchor="middle" x="435.012" y="-232" font-family="Helvetica,sans-Serif" font-size="10.00">/DataFlow/SubframeBuilderDevice.h</text>
</g>
<!-- Node2 -->
<g id="node2" class="node"><title>Node2</title>
<g id="a_node2"><a xlink:href="../../dc/dcd/DataHeader_8h.html" target="_top" xlink:title="Headers/DataHeader.h">
<polygon fill="none" stroke="black" points="428.512,-56.5 428.512,-75.5 545.512,-75.5 545.512,-56.5 428.512,-56.5"/>
<text text-anchor="middle" x="487.012" y="-63.5" font-family="Helvetica,sans-Serif" font-size="10.00">Headers/DataHeader.h</text>
</a>
</g>
</g>
<!-- Node1&#45;&gt;Node2 -->
<g id="edge1" class="edge"><title>Node1&#45;&gt;Node2</title>
<path fill="none" stroke="midnightblue" d="M491.931,-224.884C507.456,-215.436 522.793,-203.206 533.012,-188 552.015,-159.723 557.737,-142.722 543.012,-112 536.76,-98.9542 524.677,-88.4921 513.33,-80.9506"/>
<polygon fill="midnightblue" stroke="midnightblue" points="514.867,-77.7869 504.514,-75.5351 511.203,-83.7515 514.867,-77.7869"/>
</g>
<!-- Node6 -->
<g id="node6" class="node"><title>Node6</title>
<polygon fill="none" stroke="#bfbfbf" points="147.012,-0.5 147.012,-19.5 193.012,-19.5 193.012,-0.5 147.012,-0.5"/>
<text text-anchor="middle" x="170.012" y="-7.5" font-family="Helvetica,sans-Serif" font-size="10.00">cstring</text>
</g>
<!-- Node1&#45;&gt;Node6 -->
<g id="edge27" class="edge"><title>Node1&#45;&gt;Node6</title>
<path fill="none" stroke="midnightblue" d="M346.856,-245.055C241.778,-233.685 71.9888,-196.558 5.01237,-76 -23.2921,-25.0519 80.4834,-13.9099 136.482,-11.5624"/>
<polygon fill="midnightblue" stroke="midnightblue" points="136.792,-15.0538 146.665,-11.2098 136.55,-8.05803 136.792,-15.0538"/>
</g>
<!-- Node8 -->
<g id="node8" class="node"><title>Node8</title>
<g id="a_node8"><a xlink:href="../../d2/d09/HeartbeatFrame_8h.html" target="_top" xlink:title="Headers/HeartbeatFrame.h">
<polygon fill="none" stroke="black" points="257.512,-112.5 257.512,-131.5 392.512,-131.5 392.512,-112.5 257.512,-112.5"/>
<text text-anchor="middle" x="325.012" y="-119.5" font-family="Helvetica,sans-Serif" font-size="10.00">Headers/HeartbeatFrame.h</text>
</a>
</g>
</g>
<!-- Node1&#45;&gt;Node8 -->
<g id="edge7" class="edge"><title>Node1&#45;&gt;Node8</title>
<path fill="none" stroke="midnightblue" d="M398.874,-224.75C385.622,-214.364 371.155,-201.584 360.012,-188 348.224,-173.628 338.559,-154.678 332.395,-140.95"/>
<polygon fill="midnightblue" stroke="midnightblue" points="335.554,-139.436 328.387,-131.633 329.123,-142.202 335.554,-139.436"/>
</g>
<!-- Node10 -->
<g id="node10" class="node"><title>Node10</title>
<polygon fill="none" stroke="#bfbfbf" points="375.512,-56.5 375.512,-75.5 410.512,-75.5 410.512,-56.5 375.512,-56.5"/>
<text text-anchor="middle" x="393.012" y="-63.5" font-family="Helvetica,sans-Serif" font-size="10.00">map</text>
</g>
<!-- Node1&#45;&gt;Node10 -->
<g id="edge28" class="edge"><title>Node1&#45;&gt;Node10</title>
<path fill="none" stroke="midnightblue" d="M471.14,-224.882C506.891,-196.883 552.583,-150.481 525.012,-112 497.789,-74.0043 469.701,-89.8689 420.426,-76.1561"/>
<polygon fill="midnightblue" stroke="midnightblue" points="421.218,-72.7371 410.63,-73.1139 419.142,-79.4222 421.218,-72.7371"/>
</g>
<!-- Node12 -->
<g id="node12" class="node"><title>Node12</title>
<g id="a_node12"><a xlink:href="../../d2/dee/O2Device_8h.html" target="_top" xlink:title="O2Device/O2Device.h">
<polygon fill="none" stroke="black" points="622.512,-168.5 622.512,-187.5 737.512,-187.5 737.512,-168.5 622.512,-168.5"/>
<text text-anchor="middle" x="680.012" y="-175.5" font-family="Helvetica,sans-Serif" font-size="10.00">O2Device/O2Device.h</text>
</a>
</g>
</g>
<!-- Node1&#45;&gt;Node12 -->
<g id="edge12" class="edge"><title>Node1&#45;&gt;Node12</title>
<path fill="none" stroke="midnightblue" d="M521.39,-224.968C562.041,-213.188 608.52,-199.718 640.608,-190.419"/>
<polygon fill="midnightblue" stroke="midnightblue" points="641.864,-193.699 650.495,-187.554 639.916,-186.976 641.864,-193.699"/>
</g>
<!-- Node15 -->
<g id="node15" class="node"><title>Node15</title>
<g id="a_node15"><a xlink:href="../../d3/d95/PayloadMerger_8h.html" target="_top" xlink:title="DataFlow/PayloadMerger.h">
<polygon fill="none" stroke="black" points="104.512,-112.5 104.512,-131.5 239.512,-131.5 239.512,-112.5 104.512,-112.5"/>
<text text-anchor="middle" x="172.012" y="-119.5" font-family="Helvetica,sans-Serif" font-size="10.00">DataFlow/PayloadMerger.h</text>
</a>
</g>
</g>
<!-- Node1&#45;&gt;Node15 -->
<g id="edge16" class="edge"><title>Node1&#45;&gt;Node15</title>
<path fill="none" stroke="midnightblue" d="M383.052,-224.909C327.661,-198.161 242.11,-156.849 198.92,-135.994"/>
<polygon fill="midnightblue" stroke="midnightblue" points="200.406,-132.825 189.879,-131.628 197.363,-139.128 200.406,-132.825"/>
</g>
<!-- Node17 -->
<g id="node17" class="node"><title>Node17</title>
<g id="a_node17"><a xlink:href="../../d2/de2/SubframeUtils_8h.html" target="_top" xlink:title="DataFlow/SubframeUtils.h">
<polygon fill="none" stroke="black" points="369.012,-168.5 369.012,-187.5 501.012,-187.5 501.012,-168.5 369.012,-168.5"/>
<text text-anchor="middle" x="435.012" y="-175.5" font-family="Helvetica,sans-Serif" font-size="10.00">DataFlow/SubframeUtils.h</text>
</a>
</g>
</g>
<!-- Node1&#45;&gt;Node17 -->
<g id="edge23" class="edge"><title>Node1&#45;&gt;Node17</title>
<path fill="none" stroke="midnightblue" d="M435.012,-224.768C435.012,-215.89 435.012,-206.074 435.012,-197.816"/>
<polygon fill="midnightblue" stroke="midnightblue" points="438.512,-197.757 435.012,-187.757 431.512,-197.757 438.512,-197.757"/>
</g>
<!-- Node3 -->
<g id="node3" class="node"><title>Node3</title>
<polygon fill="none" stroke="#bfbfbf" points="270.012,-0.5 270.012,-19.5 316.012,-19.5 316.012,-0.5 270.012,-0.5"/>
<text text-anchor="middle" x="293.012" y="-7.5" font-family="Helvetica,sans-Serif" font-size="10.00">cstdint</text>
</g>
<!-- Node2&#45;&gt;Node3 -->
<g id="edge2" class="edge"><title>Node2&#45;&gt;Node3</title>
<path fill="none" stroke="midnightblue" d="M456.272,-56.4435C420.627,-46.5215 362.113,-30.2343 325.67,-20.0904"/>
<polygon fill="midnightblue" stroke="midnightblue" points="326.587,-16.7124 316.014,-17.4026 324.709,-23.4561 326.587,-16.7124"/>
</g>
<!-- Node4 -->
<g id="node4" class="node"><title>Node4</title>
<polygon fill="none" stroke="#bfbfbf" points="392.012,-0.5 392.012,-19.5 444.012,-19.5 444.012,-0.5 392.012,-0.5"/>
<text text-anchor="middle" x="418.012" y="-7.5" font-family="Helvetica,sans-Serif" font-size="10.00">memory</text>
</g>
<!-- Node2&#45;&gt;Node4 -->
<g id="edge3" class="edge"><title>Node2&#45;&gt;Node4</title>
<path fill="none" stroke="midnightblue" d="M475.926,-56.324C465.526,-48.1849 449.752,-35.8395 437.291,-26.0874"/>
<polygon fill="midnightblue" stroke="midnightblue" points="439.332,-23.2407 429.3,-19.8339 435.018,-28.7533 439.332,-23.2407"/>
</g>
<!-- Node5 -->
<g id="node5" class="node"><title>Node5</title>
<polygon fill="none" stroke="#bfbfbf" points="462.512,-0.5 462.512,-19.5 511.512,-19.5 511.512,-0.5 462.512,-0.5"/>
<text text-anchor="middle" x="487.012" y="-7.5" font-family="Helvetica,sans-Serif" font-size="10.00">cassert</text>
</g>
<!-- Node2&#45;&gt;Node5 -->
<g id="edge4" class="edge"><title>Node2&#45;&gt;Node5</title>
<path fill="none" stroke="midnightblue" d="M487.012,-56.083C487.012,-49.0059 487.012,-38.8611 487.012,-29.9865"/>
<polygon fill="midnightblue" stroke="midnightblue" points="490.512,-29.751 487.012,-19.7511 483.512,-29.7511 490.512,-29.751"/>
</g>
<!-- Node2&#45;&gt;Node6 -->
<g id="edge5" class="edge"><title>Node2&#45;&gt;Node6</title>
<path fill="none" stroke="midnightblue" d="M436.783,-56.4435C371.343,-45.296 258.736,-26.1137 203.1,-16.6363"/>
<polygon fill="midnightblue" stroke="midnightblue" points="203.526,-13.1587 193.081,-14.9296 202.351,-20.0593 203.526,-13.1587"/>
</g>
<!-- Node7 -->
<g id="node7" class="node"><title>Node7</title>
<polygon fill="none" stroke="#bfbfbf" points="530.012,-0.5 530.012,-19.5 586.012,-19.5 586.012,-0.5 530.012,-0.5"/>
<text text-anchor="middle" x="558.012" y="-7.5" font-family="Helvetica,sans-Serif" font-size="10.00">algorithm</text>
</g>
<!-- Node2&#45;&gt;Node7 -->
<g id="edge6" class="edge"><title>Node2&#45;&gt;Node7</title>
<path fill="none" stroke="midnightblue" d="M498.42,-56.324C509.121,-48.1849 525.353,-35.8395 538.175,-26.0874"/>
<polygon fill="midnightblue" stroke="midnightblue" points="540.557,-28.6734 546.397,-19.8339 536.319,-23.1018 540.557,-28.6734"/>
</g>
<!-- Node8&#45;&gt;Node2 -->
<g id="edge8" class="edge"><title>Node8&#45;&gt;Node2</title>
<path fill="none" stroke="midnightblue" d="M350.682,-112.444C377.935,-103.359 421.196,-88.9388 451.663,-78.7831"/>
<polygon fill="midnightblue" stroke="midnightblue" points="453.083,-81.9992 461.463,-75.5164 450.869,-75.3584 453.083,-81.9992"/>
</g>
<!-- Node9 -->
<g id="node9" class="node"><title>Node9</title>
<polygon fill="none" stroke="#bfbfbf" points="298.512,-56.5 298.512,-75.5 357.512,-75.5 357.512,-56.5 298.512,-56.5"/>
<text text-anchor="middle" x="328.012" y="-63.5" font-family="Helvetica,sans-Serif" font-size="10.00">functional</text>
</g>
<!-- Node8&#45;&gt;Node9 -->
<g id="edge9" class="edge"><title>Node8&#45;&gt;Node9</title>
<path fill="none" stroke="midnightblue" d="M325.508,-112.083C325.901,-105.006 326.465,-94.8611 326.958,-85.9865"/>
<polygon fill="midnightblue" stroke="midnightblue" points="330.466,-85.9299 327.526,-75.7511 323.477,-85.5415 330.466,-85.9299"/>
</g>
<!-- Node8&#45;&gt;Node10 -->
<g id="edge10" class="edge"><title>Node8&#45;&gt;Node10</title>
<path fill="none" stroke="midnightblue" d="M335.938,-112.324C346.187,-104.185 361.733,-91.8395 374.013,-82.0874"/>
<polygon fill="midnightblue" stroke="midnightblue" points="376.234,-84.7937 381.888,-75.8339 371.88,-79.3119 376.234,-84.7937"/>
</g>
<!-- Node11 -->
<g id="node11" class="node"><title>Node11</title>
<polygon fill="none" stroke="#bfbfbf" points="236.012,-56.5 236.012,-75.5 280.012,-75.5 280.012,-56.5 236.012,-56.5"/>
<text text-anchor="middle" x="258.012" y="-63.5" font-family="Helvetica,sans-Serif" font-size="10.00">vector</text>
</g>
<!-- Node8&#45;&gt;Node11 -->
<g id="edge11" class="edge"><title>Node8&#45;&gt;Node11</title>
<path fill="none" stroke="midnightblue" d="M314.248,-112.324C304.246,-104.263 289.126,-92.0765 277.082,-82.3695"/>
<polygon fill="midnightblue" stroke="midnightblue" points="278.955,-79.3841 268.973,-75.8339 274.563,-84.8343 278.955,-79.3841"/>
</g>
<!-- Node12&#45;&gt;Node2 -->
<g id="edge14" class="edge"><title>Node12&#45;&gt;Node2</title>
<path fill="none" stroke="midnightblue" d="M670.54,-168.284C655.589,-154.862 625.211,-128.915 596.012,-112 572.662,-98.4733 544.46,-86.946 522.593,-78.9453"/>
<polygon fill="midnightblue" stroke="midnightblue" points="523.626,-75.5979 513.032,-75.523 521.267,-82.1884 523.626,-75.5979"/>
</g>
<!-- Node13 -->
<g id="node13" class="node"><title>Node13</title>
<polygon fill="none" stroke="#bfbfbf" points="648.012,-112.5 648.012,-131.5 736.012,-131.5 736.012,-112.5 648.012,-112.5"/>
<text text-anchor="middle" x="692.012" y="-119.5" font-family="Helvetica,sans-Serif" font-size="10.00">FairMQDevice.h</text>
</g>
<!-- Node12&#45;&gt;Node13 -->
<g id="edge13" class="edge"><title>Node12&#45;&gt;Node13</title>
<path fill="none" stroke="midnightblue" d="M681.994,-168.083C683.584,-160.927 685.871,-150.635 687.859,-141.691"/>
<polygon fill="midnightblue" stroke="midnightblue" points="691.315,-142.272 690.068,-131.751 684.482,-140.754 691.315,-142.272"/>
</g>
<!-- Node14 -->
<g id="node14" class="node"><title>Node14</title>
<polygon fill="none" stroke="#bfbfbf" points="754.512,-112.5 754.512,-131.5 813.512,-131.5 813.512,-112.5 754.512,-112.5"/>
<text text-anchor="middle" x="784.012" y="-119.5" font-family="Helvetica,sans-Serif" font-size="10.00">stdexcept</text>
</g>
<!-- Node12&#45;&gt;Node14 -->
<g id="edge15" class="edge"><title>Node12&#45;&gt;Node14</title>
<path fill="none" stroke="midnightblue" d="M696.722,-168.324C713.324,-159.703 739.015,-146.364 758.233,-136.386"/>
<polygon fill="midnightblue" stroke="midnightblue" points="760.082,-139.369 767.344,-131.655 756.857,-133.156 760.082,-139.369"/>
</g>
<!-- Node15&#45;&gt;Node3 -->
<g id="edge18" class="edge"><title>Node15&#45;&gt;Node3</title>
<path fill="none" stroke="midnightblue" d="M178.133,-112.361C187.659,-99.2658 207.027,-74.0111 227.012,-56 239.945,-44.3454 256.064,-33.3004 269.135,-25.0695"/>
<polygon fill="midnightblue" stroke="midnightblue" points="271.338,-27.8234 278.025,-19.605 267.672,-21.86 271.338,-27.8234"/>
</g>
<!-- Node15&#45;&gt;Node6 -->
<g id="edge21" class="edge"><title>Node15&#45;&gt;Node6</title>
<path fill="none" stroke="midnightblue" d="M171.855,-112.368C171.533,-94.617 170.788,-53.6664 170.351,-29.5974"/>
<polygon fill="midnightblue" stroke="midnightblue" points="173.85,-29.5261 170.169,-19.5914 166.851,-29.6534 173.85,-29.5261"/>
</g>
<!-- Node15&#45;&gt;Node9 -->
<g id="edge20" class="edge"><title>Node15&#45;&gt;Node9</title>
<path fill="none" stroke="midnightblue" d="M196.731,-112.444C222.861,-103.399 264.272,-89.064 293.589,-78.9158"/>
<polygon fill="midnightblue" stroke="midnightblue" points="295.104,-82.0951 303.409,-75.5164 292.815,-75.4801 295.104,-82.0951"/>
</g>
<!-- Node15&#45;&gt;Node10 -->
<g id="edge17" class="edge"><title>Node15&#45;&gt;Node10</title>
<path fill="none" stroke="midnightblue" d="M213.928,-112.466C251.334,-104.585 307.759,-92.0482 365.682,-75.8795"/>
<polygon fill="midnightblue" stroke="midnightblue" points="366.694,-79.2307 375.367,-73.1455 364.792,-72.494 366.694,-79.2307"/>
</g>
<!-- Node15&#45;&gt;Node11 -->
<g id="edge19" class="edge"><title>Node15&#45;&gt;Node11</title>
<path fill="none" stroke="midnightblue" d="M185.83,-112.324C199.245,-103.9 219.836,-90.9709 235.598,-81.0741"/>
<polygon fill="midnightblue" stroke="midnightblue" points="237.622,-83.9364 244.229,-75.6545 233.899,-78.0081 237.622,-83.9364"/>
</g>
<!-- Node16 -->
<g id="node16" class="node"><title>Node16</title>
<polygon fill="none" stroke="#bfbfbf" points="14.5124,-56.5 14.5124,-75.5 141.512,-75.5 141.512,-56.5 14.5124,-56.5"/>
<text text-anchor="middle" x="78.0124" y="-63.5" font-family="Helvetica,sans-Serif" font-size="10.00">fairmq/FairMQMessage.h</text>
</g>
<!-- Node15&#45;&gt;Node16 -->
<g id="edge22" class="edge"><title>Node15&#45;&gt;Node16</title>
<path fill="none" stroke="midnightblue" d="M156.91,-112.324C142.109,-103.822 119.318,-90.7288 102.03,-80.7975"/>
<polygon fill="midnightblue" stroke="midnightblue" points="103.492,-77.6009 93.0776,-75.6545 100.005,-83.6707 103.492,-77.6009"/>
</g>
<!-- Node17&#45;&gt;Node8 -->
<g id="edge26" class="edge"><title>Node17&#45;&gt;Node8</title>
<path fill="none" stroke="midnightblue" d="M417.339,-168.324C399.618,-159.625 372.109,-146.12 351.724,-136.113"/>
<polygon fill="midnightblue" stroke="midnightblue" points="353.161,-132.919 342.642,-131.655 350.076,-139.203 353.161,-132.919"/>
</g>
<!-- Node18 -->
<g id="node18" class="node"><title>Node18</title>
<polygon fill="none" stroke="#bfbfbf" points="478.012,-112.5 478.012,-131.5 516.012,-131.5 516.012,-112.5 478.012,-112.5"/>
<text text-anchor="middle" x="497.012" y="-119.5" font-family="Helvetica,sans-Serif" font-size="10.00">tuple</text>
</g>
<!-- Node17&#45;&gt;Node18 -->
<g id="edge24" class="edge"><title>Node17&#45;&gt;Node18</title>
<path fill="none" stroke="midnightblue" d="M444.974,-168.324C454.139,-160.341 467.95,-148.313 479.041,-138.653"/>
<polygon fill="midnightblue" stroke="midnightblue" points="481.628,-141.041 486.87,-131.834 477.03,-135.762 481.628,-141.041"/>
</g>
<!-- Node19 -->
<g id="node19" class="node"><title>Node19</title>
<polygon fill="none" stroke="#bfbfbf" points="410.512,-112.5 410.512,-131.5 459.512,-131.5 459.512,-112.5 410.512,-112.5"/>
<text text-anchor="middle" x="435.012" y="-119.5" font-family="Helvetica,sans-Serif" font-size="10.00">cstddef</text>
</g>
<!-- Node17&#45;&gt;Node19 -->
<g id="edge25" class="edge"><title>Node17&#45;&gt;Node19</title>
<path fill="none" stroke="midnightblue" d="M435.012,-168.083C435.012,-161.006 435.012,-150.861 435.012,-141.986"/>
<polygon fill="midnightblue" stroke="midnightblue" points="438.512,-141.751 435.012,-131.751 431.512,-141.751 438.512,-141.751"/>
</g>
</g>
</svg>
