<?xml version="1.0" encoding="UTF-8" standalone="no"?>
<!DOCTYPE svg PUBLIC "-//W3C//DTD SVG 1.1//EN"
 "http://www.w3.org/Graphics/SVG/1.1/DTD/svg11.dtd">
<!-- Generated by graphviz version 2.36.0 (20140111.2315)
 -->
<!-- Title: o2::header::HeartbeatFrameEnvelope Pages: 1 -->
<svg width="1596pt" height="952pt"
 viewBox="0.00 0.00 1596.28 952.00" xmlns="http://www.w3.org/2000/svg" xmlns:xlink="http://www.w3.org/1999/xlink">
<g id="graph0" class="graph" transform="scale(1 1) rotate(0) translate(4 948)">
<title>o2::header::HeartbeatFrameEnvelope</title>
<!-- Node1 -->
<g id="node1" class="node"><title>Node1</title>
<polygon fill="#bfbfbf" stroke="black" points="809.623,-0.5 809.623,-79.5 952.623,-79.5 952.623,-0.5 809.623,-0.5"/>
<text text-anchor="start" x="817.623" y="-67.5" font-family="Helvetica,sans-Serif" font-size="10.00">o2::header::HeartbeatFrame</text>
<text text-anchor="middle" x="881.123" y="-56.5" font-family="Helvetica,sans-Serif" font-size="10.00">Envelope</text>
<polyline fill="none" stroke="black" points="809.623,-49.5 952.623,-49.5 "/>
<text text-anchor="middle" x="881.123" y="-37.5" font-family="Helvetica,sans-Serif" font-size="10.00"> </text>
<polyline fill="none" stroke="black" points="809.623,-30.5 952.623,-30.5 "/>
<text text-anchor="start" x="817.623" y="-18.5" font-family="Helvetica,sans-Serif" font-size="10.00">+ HeartbeatFrameEnvelope()</text>
<text text-anchor="start" x="817.623" y="-7.5" font-family="Helvetica,sans-Serif" font-size="10.00">+ HeartbeatFrameEnvelope()</text>
</g>
<!-- Node2 -->
<g id="node2" class="node"><title>Node2</title>
<g id="a_node2"><a xlink:href="../../d8/dbd/structo2_1_1header_1_1BaseHeader.html" target="_top" xlink:title="the base header struct Every header type must begin (i.e. derive) with this. Don&#39;t use this struct di...">
<polygon fill="none" stroke="black" points="625.123,-128.5 625.123,-251.5 747.123,-251.5 747.123,-128.5 625.123,-128.5"/>
<text text-anchor="middle" x="686.123" y="-239.5" font-family="Helvetica,sans-Serif" font-size="10.00">o2::header::BaseHeader</text>
<polyline fill="none" stroke="black" points="625.123,-232.5 747.123,-232.5 "/>
<text text-anchor="middle" x="686.123" y="-220.5" font-family="Helvetica,sans-Serif" font-size="10.00"> </text>
<polyline fill="none" stroke="black" points="625.123,-213.5 747.123,-213.5 "/>
<text text-anchor="start" x="633.123" y="-201.5" font-family="Helvetica,sans-Serif" font-size="10.00">+ BaseHeader()</text>
<text text-anchor="start" x="633.123" y="-190.5" font-family="Helvetica,sans-Serif" font-size="10.00">+ BaseHeader()</text>
<text text-anchor="start" x="633.123" y="-179.5" font-family="Helvetica,sans-Serif" font-size="10.00">+ BaseHeader()</text>
<text text-anchor="start" x="633.123" y="-168.5" font-family="Helvetica,sans-Serif" font-size="10.00">+ size()</text>
<text text-anchor="start" x="633.123" y="-157.5" font-family="Helvetica,sans-Serif" font-size="10.00">+ data()</text>
<text text-anchor="start" x="633.123" y="-146.5" font-family="Helvetica,sans-Serif" font-size="10.00">+ next()</text>
<text text-anchor="start" x="633.123" y="-135.5" font-family="Helvetica,sans-Serif" font-size="10.00">+ get()</text>
</a>
</g>
</g>
<!-- Node2&#45;&gt;Node1 -->
<g id="edge1" class="edge"><title>Node2&#45;&gt;Node1</title>
<path fill="none" stroke="midnightblue" d="M755.541,-136.313C780.208,-117.591 807.497,-96.8802 830.317,-79.56"/>
<polygon fill="none" stroke="midnightblue" points="753.136,-133.744 747.287,-142.578 757.368,-139.32 753.136,-133.744"/>
</g>
<!-- Node3 -->
<g id="node3" class="node"><title>Node3</title>
<g id="a_node3"><a xlink:href="../../d9/db3/structo2_1_1header_1_1Descriptor.html" target="_top" xlink:title="{o2::header::Descriptor\l\&lt; gSizeHeaderDescriptionString \&gt;\n||+ Descriptor()\l+ Descriptor()\l+ Descriptor()\l+ Descriptor()\l+ operator=()\l+ operator ItgType()\l+ runtimeInit()\l+ operator==()\l+ operator==()\l+ operator!=()\l+ operator!=()\l+ print()\l}">
<polygon fill="none" stroke="black" points="13.1225,-376.5 13.1225,-565.5 179.123,-565.5 179.123,-376.5 13.1225,-376.5"/>
<text text-anchor="start" x="21.1225" y="-553.5" font-family="Helvetica,sans-Serif" font-size="10.00">o2::header::Descriptor</text>
<text text-anchor="middle" x="96.1225" y="-542.5" font-family="Helvetica,sans-Serif" font-size="10.00">&lt; gSizeHeaderDescriptionString &gt;</text>
<polyline fill="none" stroke="black" points="13.1225,-535.5 179.123,-535.5 "/>
<text text-anchor="middle" x="96.1225" y="-523.5" font-family="Helvetica,sans-Serif" font-size="10.00"> </text>
<polyline fill="none" stroke="black" points="13.1225,-516.5 179.123,-516.5 "/>
<text text-anchor="start" x="21.1225" y="-504.5" font-family="Helvetica,sans-Serif" font-size="10.00">+ Descriptor()</text>
<text text-anchor="start" x="21.1225" y="-493.5" font-family="Helvetica,sans-Serif" font-size="10.00">+ Descriptor()</text>
<text text-anchor="start" x="21.1225" y="-482.5" font-family="Helvetica,sans-Serif" font-size="10.00">+ Descriptor()</text>
<text text-anchor="start" x="21.1225" y="-471.5" font-family="Helvetica,sans-Serif" font-size="10.00">+ Descriptor()</text>
<text text-anchor="start" x="21.1225" y="-460.5" font-family="Helvetica,sans-Serif" font-size="10.00">+ operator=()</text>
<text text-anchor="start" x="21.1225" y="-449.5" font-family="Helvetica,sans-Serif" font-size="10.00">+ operator ItgType()</text>
<text text-anchor="start" x="21.1225" y="-438.5" font-family="Helvetica,sans-Serif" font-size="10.00">+ runtimeInit()</text>
<text text-anchor="start" x="21.1225" y="-427.5" font-family="Helvetica,sans-Serif" font-size="10.00">+ operator==()</text>
<text text-anchor="start" x="21.1225" y="-416.5" font-family="Helvetica,sans-Serif" font-size="10.00">+ operator==()</text>
<text text-anchor="start" x="21.1225" y="-405.5" font-family="Helvetica,sans-Serif" font-size="10.00">+ operator!=()</text>
<text text-anchor="start" x="21.1225" y="-394.5" font-family="Helvetica,sans-Serif" font-size="10.00">+ operator!=()</text>
<text text-anchor="start" x="21.1225" y="-383.5" font-family="Helvetica,sans-Serif" font-size="10.00">+ print()</text>
</a>
</g>
</g>
<!-- Node3&#45;&gt;Node2 -->
<g id="edge2" class="edge"><title>Node3&#45;&gt;Node2</title>
<path fill="none" stroke="#404040" d="M119.58,-376.361C133.97,-337.686 156.508,-295.923 191.123,-270 256.446,-221.079 491.755,-201.436 612.906,-194.43"/>
<polygon fill="none" stroke="#404040" points="612.992,-194.426 618.758,-190.095 624.973,-193.753 619.207,-198.083 612.992,-194.426"/>
<text text-anchor="middle" x="219.623" y="-311.5" font-family="Helvetica,sans-Serif" font-size="10.00"> +description</text>
</g>
<!-- Node4 -->
<g id="node4" class="node"><title>Node4</title>
<polygon fill="none" stroke="#bfbfbf" points="6.12252,-885.5 6.12252,-942.5 44.1225,-942.5 44.1225,-885.5 6.12252,-885.5"/>
<text text-anchor="middle" x="25.1225" y="-930.5" font-family="Helvetica,sans-Serif" font-size="10.00">Type</text>
<polyline fill="none" stroke="#bfbfbf" points="6.12252,-923.5 44.1225,-923.5 "/>
<text text-anchor="middle" x="25.1225" y="-911.5" font-family="Helvetica,sans-Serif" font-size="10.00"> </text>
<polyline fill="none" stroke="#bfbfbf" points="6.12252,-904.5 44.1225,-904.5 "/>
<text text-anchor="middle" x="25.1225" y="-892.5" font-family="Helvetica,sans-Serif" font-size="10.00"> </text>
</g>
<!-- Node4&#45;&gt;Node3 -->
<g id="edge3" class="edge"><title>Node4&#45;&gt;Node3</title>
<path fill="none" stroke="#404040" d="M18.5754,-885.352C7.39283,-833.25 -11.9619,-717.375 12.1225,-624 16.2127,-608.142 22.3487,-592.171 29.4783,-576.849"/>
<polygon fill="none" stroke="#404040" points="29.5924,-576.613 28.6125,-569.469 34.8303,-565.817 35.8102,-572.961 29.5924,-576.613"/>
<text text-anchor="middle" x="22.1225" y="-716.5" font-family="Helvetica,sans-Serif" font-size="10.00"> +itg</text>
</g>
<!-- Node8 -->
<g id="node8" class="node"><title>Node8</title>
<g id="a_node8"><a xlink:href="../../d9/db3/structo2_1_1header_1_1Descriptor.html" target="_top" xlink:title="{o2::header::Descriptor\l\&lt; N, PrinterPolicy \&gt;\n||+ Descriptor()\l+ Descriptor()\l+ Descriptor()\l+ operator=()\l+ operator ItgType()\l+ Descriptor()\l+ runtimeInit()\l+ operator==()\l+ operator!=()\l+ operator==()\l+ operator!=()\l+ print()\l}">
<polygon fill="none" stroke="black" points="213.623,-624.5 213.623,-813.5 326.623,-813.5 326.623,-624.5 213.623,-624.5"/>
<text text-anchor="start" x="221.623" y="-801.5" font-family="Helvetica,sans-Serif" font-size="10.00">o2::header::Descriptor</text>
<text text-anchor="middle" x="270.123" y="-790.5" font-family="Helvetica,sans-Serif" font-size="10.00">&lt; N, PrinterPolicy &gt;</text>
<polyline fill="none" stroke="black" points="213.623,-783.5 326.623,-783.5 "/>
<text text-anchor="middle" x="270.123" y="-771.5" font-family="Helvetica,sans-Serif" font-size="10.00"> </text>
<polyline fill="none" stroke="black" points="213.623,-764.5 326.623,-764.5 "/>
<text text-anchor="start" x="221.623" y="-752.5" font-family="Helvetica,sans-Serif" font-size="10.00">+ Descriptor()</text>
<text text-anchor="start" x="221.623" y="-741.5" font-family="Helvetica,sans-Serif" font-size="10.00">+ Descriptor()</text>
<text text-anchor="start" x="221.623" y="-730.5" font-family="Helvetica,sans-Serif" font-size="10.00">+ Descriptor()</text>
<text text-anchor="start" x="221.623" y="-719.5" font-family="Helvetica,sans-Serif" font-size="10.00">+ operator=()</text>
<text text-anchor="start" x="221.623" y="-708.5" font-family="Helvetica,sans-Serif" font-size="10.00">+ operator ItgType()</text>
<text text-anchor="start" x="221.623" y="-697.5" font-family="Helvetica,sans-Serif" font-size="10.00">+ Descriptor()</text>
<text text-anchor="start" x="221.623" y="-686.5" font-family="Helvetica,sans-Serif" font-size="10.00">+ runtimeInit()</text>
<text text-anchor="start" x="221.623" y="-675.5" font-family="Helvetica,sans-Serif" font-size="10.00">+ operator==()</text>
<text text-anchor="start" x="221.623" y="-664.5" font-family="Helvetica,sans-Serif" font-size="10.00">+ operator!=()</text>
<text text-anchor="start" x="221.623" y="-653.5" font-family="Helvetica,sans-Serif" font-size="10.00">+ operator==()</text>
<text text-anchor="start" x="221.623" y="-642.5" font-family="Helvetica,sans-Serif" font-size="10.00">+ operator!=()</text>
<text text-anchor="start" x="221.623" y="-631.5" font-family="Helvetica,sans-Serif" font-size="10.00">+ print()</text>
</a>
</g>
</g>
<!-- Node4&#45;&gt;Node8 -->
<g id="edge8" class="edge"><title>Node4&#45;&gt;Node8</title>
<path fill="none" stroke="#404040" d="M44.3596,-900.582C72.0127,-882.492 124.275,-847.396 166.123,-814 178.828,-803.861 191.982,-792.614 204.487,-781.527"/>
<polygon fill="none" stroke="#404040" points="204.517,-781.501 206.323,-774.519 213.462,-773.501 211.656,-780.483 204.517,-781.501"/>
<text text-anchor="middle" x="150.123" y="-846.5" font-family="Helvetica,sans-Serif" font-size="10.00"> +itg</text>
</g>
<!-- Node9 -->
<g id="node9" class="node"><title>Node9</title>
<g id="a_node9"><a xlink:href="../../d9/db3/structo2_1_1header_1_1Descriptor.html" target="_top" xlink:title="{o2::header::Descriptor\l\&lt; gSizeSerializationMethodString \&gt;\n||+ Descriptor()\l+ Descriptor()\l+ Descriptor()\l+ Descriptor()\l+ operator=()\l+ operator ItgType()\l+ runtimeInit()\l+ operator==()\l+ operator==()\l+ operator!=()\l+ operator!=()\l+ print()\l}">
<polygon fill="none" stroke="black" points="431.123,-376.5 431.123,-565.5 601.123,-565.5 601.123,-376.5 431.123,-376.5"/>
<text text-anchor="start" x="439.123" y="-553.5" font-family="Helvetica,sans-Serif" font-size="10.00">o2::header::Descriptor</text>
<text text-anchor="middle" x="516.123" y="-542.5" font-family="Helvetica,sans-Serif" font-size="10.00">&lt; gSizeSerializationMethodString &gt;</text>
<polyline fill="none" stroke="black" points="431.123,-535.5 601.123,-535.5 "/>
<text text-anchor="middle" x="516.123" y="-523.5" font-family="Helvetica,sans-Serif" font-size="10.00"> </text>
<polyline fill="none" stroke="black" points="431.123,-516.5 601.123,-516.5 "/>
<text text-anchor="start" x="439.123" y="-504.5" font-family="Helvetica,sans-Serif" font-size="10.00">+ Descriptor()</text>
<text text-anchor="start" x="439.123" y="-493.5" font-family="Helvetica,sans-Serif" font-size="10.00">+ Descriptor()</text>
<text text-anchor="start" x="439.123" y="-482.5" font-family="Helvetica,sans-Serif" font-size="10.00">+ Descriptor()</text>
<text text-anchor="start" x="439.123" y="-471.5" font-family="Helvetica,sans-Serif" font-size="10.00">+ Descriptor()</text>
<text text-anchor="start" x="439.123" y="-460.5" font-family="Helvetica,sans-Serif" font-size="10.00">+ operator=()</text>
<text text-anchor="start" x="439.123" y="-449.5" font-family="Helvetica,sans-Serif" font-size="10.00">+ operator ItgType()</text>
<text text-anchor="start" x="439.123" y="-438.5" font-family="Helvetica,sans-Serif" font-size="10.00">+ runtimeInit()</text>
<text text-anchor="start" x="439.123" y="-427.5" font-family="Helvetica,sans-Serif" font-size="10.00">+ operator==()</text>
<text text-anchor="start" x="439.123" y="-416.5" font-family="Helvetica,sans-Serif" font-size="10.00">+ operator==()</text>
<text text-anchor="start" x="439.123" y="-405.5" font-family="Helvetica,sans-Serif" font-size="10.00">+ operator!=()</text>
<text text-anchor="start" x="439.123" y="-394.5" font-family="Helvetica,sans-Serif" font-size="10.00">+ operator!=()</text>
<text text-anchor="start" x="439.123" y="-383.5" font-family="Helvetica,sans-Serif" font-size="10.00">+ print()</text>
</a>
</g>
</g>
<!-- Node4&#45;&gt;Node9 -->
<g id="edge16" class="edge"><title>Node4&#45;&gt;Node9</title>
<path fill="none" stroke="#404040" d="M44.4887,-910.567C109.234,-902.353 314.688,-875.633 325.123,-866 406.388,-790.976 305.699,-702.983 383.123,-624 405.308,-601.367 427.683,-626.179 452.123,-606 462.244,-597.643 470.872,-587.309 478.198,-576.116"/>
<polygon fill="none" stroke="#404040" points="478.339,-575.885 478.034,-568.68 484.567,-565.628 484.872,-572.832 478.339,-575.885"/>
<text text-anchor="middle" x="393.123" y="-716.5" font-family="Helvetica,sans-Serif" font-size="10.00"> +itg</text>
</g>
<!-- Node5 -->
<g id="node5" class="node"><title>Node5</title>
<polygon fill="none" stroke="#bfbfbf" points="446.623,-885.5 446.623,-942.5 481.623,-942.5 481.623,-885.5 446.623,-885.5"/>
<text text-anchor="middle" x="464.123" y="-930.5" font-family="Helvetica,sans-Serif" font-size="10.00">char</text>
<polyline fill="none" stroke="#bfbfbf" points="446.623,-923.5 481.623,-923.5 "/>
<text text-anchor="middle" x="464.123" y="-911.5" font-family="Helvetica,sans-Serif" font-size="10.00"> </text>
<polyline fill="none" stroke="#bfbfbf" points="446.623,-904.5 481.623,-904.5 "/>
<text text-anchor="middle" x="464.123" y="-892.5" font-family="Helvetica,sans-Serif" font-size="10.00"> </text>
</g>
<!-- Node5&#45;&gt;Node2 -->
<g id="edge14" class="edge"><title>Node5&#45;&gt;Node2</title>
<path fill="none" stroke="#404040" d="M481.773,-910.437C522.4,-903.479 622.178,-880.101 663.123,-814 707.59,-742.212 696.489,-701.573 663.123,-624 658.526,-613.314 648.719,-616.686 644.123,-606 595.701,-493.427 629.647,-348.346 658.225,-262.923"/>
<polygon fill="none" stroke="#404040" points="658.238,-262.884 656.396,-255.913 662.123,-251.531 663.965,-258.503 658.238,-262.884"/>
<text text-anchor="middle" x="674.623" y="-592.5" font-family="Helvetica,sans-Serif" font-size="10.00"> +magicString</text>
</g>
<!-- Node5&#45;&gt;Node3 -->
<g id="edge4" class="edge"><title>Node5&#45;&gt;Node3</title>
<path fill="none" stroke="#404040" d="M446.579,-910.797C411.292,-905.946 329.675,-892.598 266.123,-866 225.967,-849.194 210.086,-848.174 183.123,-814 127.928,-744.046 169.802,-697.291 119.123,-624 111.937,-613.609 102.575,-617.396 97.1225,-606 92.8751,-597.123 90.0041,-587.52 88.1705,-577.675"/>
<polygon fill="none" stroke="#404040" points="88.1389,-577.455 83.3232,-572.088 86.4257,-565.578 91.2413,-570.946 88.1389,-577.455"/>
<text text-anchor="middle" x="193.623" y="-716.5" font-family="Helvetica,sans-Serif" font-size="10.00"> +str</text>
</g>
<!-- Node5&#45;&gt;Node8 -->
<g id="edge9" class="edge"><title>Node5&#45;&gt;Node8</title>
<path fill="none" stroke="#404040" d="M446.285,-900.784C421.286,-883.209 375.089,-849.029 341.123,-814 339.005,-811.816 336.893,-809.568 334.795,-807.272"/>
<polygon fill="none" stroke="#404040" points="334.726,-807.194 327.755,-805.349 326.778,-798.204 333.749,-800.05 334.726,-807.194"/>
<text text-anchor="middle" x="409.623" y="-846.5" font-family="Helvetica,sans-Serif" font-size="10.00"> +str</text>
</g>
<!-- Node5&#45;&gt;Node9 -->
<g id="edge17" class="edge"><title>Node5&#45;&gt;Node9</title>
<path fill="none" stroke="#404040" d="M481.874,-888.185C485.949,-881.305 489.772,-873.624 492.123,-866 508.088,-814.214 513.487,-676.039 515.282,-577.98"/>
<polygon fill="none" stroke="#404040" points="515.282,-577.927 511.386,-571.859 515.488,-565.928 519.385,-571.996 515.282,-577.927"/>
<text text-anchor="middle" x="525.623" y="-716.5" font-family="Helvetica,sans-Serif" font-size="10.00"> +str</text>
</g>
<!-- Node6 -->
<g id="node6" class="node"><title>Node6</title>
<polygon fill="none" stroke="#bfbfbf" points="255.623,-885.5 255.623,-942.5 284.623,-942.5 284.623,-885.5 255.623,-885.5"/>
<text text-anchor="middle" x="270.123" y="-930.5" font-family="Helvetica,sans-Serif" font-size="10.00">int</text>
<polyline fill="none" stroke="#bfbfbf" points="255.623,-923.5 284.623,-923.5 "/>
<text text-anchor="middle" x="270.123" y="-911.5" font-family="Helvetica,sans-Serif" font-size="10.00"> </text>
<polyline fill="none" stroke="#bfbfbf" points="255.623,-904.5 284.623,-904.5 "/>
<text text-anchor="middle" x="270.123" y="-892.5" font-family="Helvetica,sans-Serif" font-size="10.00"> </text>
</g>
<!-- Node6&#45;&gt;Node3 -->
<g id="edge5" class="edge"><title>Node6&#45;&gt;Node3</title>
<path fill="none" stroke="#404040" d="M255.594,-911.737C215.095,-907.301 101.718,-888.39 68.1225,-814 34.6875,-739.964 44.816,-647.765 61.5852,-577.759"/>
<polygon fill="none" stroke="#404040" points="61.6537,-577.484 59.2231,-570.695 64.5551,-565.84 66.9857,-572.629 61.6537,-577.484"/>
<text text-anchor="middle" x="93.6225" y="-727.5" font-family="Helvetica,sans-Serif" font-size="10.00"> +arraySize</text>
<text text-anchor="middle" x="93.6225" y="-716.5" font-family="Helvetica,sans-Serif" font-size="10.00">+size</text>
<text text-anchor="middle" x="93.6225" y="-705.5" font-family="Helvetica,sans-Serif" font-size="10.00">+bitcount</text>
</g>
<!-- Node6&#45;&gt;Node8 -->
<g id="edge10" class="edge"><title>Node6&#45;&gt;Node8</title>
<path fill="none" stroke="#404040" d="M270.123,-885.348C270.123,-869.342 270.123,-848.063 270.123,-826.114"/>
<polygon fill="none" stroke="#404040" points="270.123,-825.881 266.123,-819.881 270.123,-813.881 274.123,-819.881 270.123,-825.881"/>
<text text-anchor="middle" x="295.623" y="-857.5" font-family="Helvetica,sans-Serif" font-size="10.00"> +arraySize</text>
<text text-anchor="middle" x="295.623" y="-846.5" font-family="Helvetica,sans-Serif" font-size="10.00">+size</text>
<text text-anchor="middle" x="295.623" y="-835.5" font-family="Helvetica,sans-Serif" font-size="10.00">+bitcount</text>
</g>
<!-- Node6&#45;&gt;Node9 -->
<g id="edge18" class="edge"><title>Node6&#45;&gt;Node9</title>
<path fill="none" stroke="#404040" d="M284.978,-910.409C307.7,-905.668 350.983,-893.443 375.123,-866 449.322,-781.648 379.765,-713.152 448.123,-624 457.353,-611.962 467.951,-618.083 477.123,-606 483.792,-597.213 489.323,-587.313 493.91,-576.973"/>
<polygon fill="none" stroke="#404040" points="494.008,-576.731 492.56,-569.666 498.525,-565.613 499.972,-572.677 494.008,-576.731"/>
<text text-anchor="middle" x="473.623" y="-727.5" font-family="Helvetica,sans-Serif" font-size="10.00"> +arraySize</text>
<text text-anchor="middle" x="473.623" y="-716.5" font-family="Helvetica,sans-Serif" font-size="10.00">+size</text>
<text text-anchor="middle" x="473.623" y="-705.5" font-family="Helvetica,sans-Serif" font-size="10.00">+bitcount</text>
</g>
<!-- Node7 -->
<g id="node7" class="node"><title>Node7</title>
<polygon fill="none" stroke="#bfbfbf" points="713.623,-885 713.623,-943 742.623,-943 742.623,-885 713.623,-885"/>
<polyline fill="none" stroke="#bfbfbf" points="713.623,-923 742.623,-923 "/>
<text text-anchor="middle" x="728.123" y="-911" font-family="Helvetica,sans-Serif" font-size="10.00"> </text>
<polyline fill="none" stroke="#bfbfbf" points="713.623,-904 742.623,-904 "/>
<text text-anchor="middle" x="728.123" y="-892" font-family="Helvetica,sans-Serif" font-size="10.00"> </text>
</g>
<!-- Node7&#45;&gt;Node2 -->
<g id="edge12" class="edge"><title>Node7&#45;&gt;Node2</title>
<path fill="none" stroke="#404040" d="M726.476,-884.697C720.444,-781.002 699.433,-419.805 690.354,-263.743"/>
<polygon fill="none" stroke="#404040" points="690.34,-263.504 685.999,-257.747 689.643,-251.525 693.985,-257.282 690.34,-263.504"/>
<text text-anchor="middle" x="722.623" y="-592.5" font-family="Helvetica,sans-Serif" font-size="10.00"> +@5</text>
</g>
<!-- Node7&#45;&gt;Node2 -->
<g id="edge13" class="edge"><title>Node7&#45;&gt;Node2</title>
<path fill="none" stroke="#404040" d="M735.818,-884.852C737.192,-878.687 738.411,-872.16 739.123,-866 769.546,-602.504 756.915,-530.721 708.123,-270 707.718,-267.837 707.282,-265.648 706.82,-263.443"/>
<polygon fill="none" stroke="#404040" points="706.78,-263.269 701.554,-258.3 704.13,-251.565 709.356,-256.533 706.78,-263.269"/>
<text text-anchor="middle" x="768.623" y="-592.5" font-family="Helvetica,sans-Serif" font-size="10.00"> +@7</text>
</g>
<!-- Node7&#45;&gt;Node3 -->
<g id="edge6" class="edge"><title>Node7&#45;&gt;Node3</title>
<path fill="none" stroke="#404040" d="M713.607,-909.055C680.541,-899.237 599.663,-870.334 563.123,-814 539.978,-778.319 570.841,-653.414 540.123,-624 502.613,-588.083 356.394,-622.408 307.123,-606 265.809,-592.242 224.464,-568.682 189.46,-545.117"/>
<polygon fill="none" stroke="#404040" points="189.186,-544.929 181.976,-544.839 179.286,-538.148 186.497,-538.239 189.186,-544.929"/>
<text text-anchor="middle" x="575.623" y="-716.5" font-family="Helvetica,sans-Serif" font-size="10.00"> +@3</text>
</g>
<!-- Node7&#45;&gt;Node8 -->
<g id="edge11" class="edge"><title>Node7&#45;&gt;Node8</title>
<path fill="none" stroke="#404040" d="M713.61,-909.506C682.236,-901.914 605.784,-883.21 542.123,-866 489.436,-851.757 477.044,-845.347 424.123,-832 387.522,-822.769 372.927,-834.329 341.123,-814 339.561,-813.002 338.021,-811.957 336.503,-810.869"/>
<polygon fill="none" stroke="#404040" points="336.182,-810.612 328.997,-809.991 326.808,-803.12 333.992,-803.741 336.182,-810.612"/>
<text text-anchor="middle" x="554.623" y="-846.5" font-family="Helvetica,sans-Serif" font-size="10.00"> +@3</text>
</g>
<!-- Node7&#45;&gt;Node9 -->
<g id="edge19" class="edge"><title>Node7&#45;&gt;Node9</title>
<path fill="none" stroke="#404040" d="M715.214,-884.996C691.306,-833.262 638.357,-719.288 592.123,-624 584.693,-608.687 576.752,-592.558 568.908,-576.756"/>
<polygon fill="none" stroke="#404040" points="568.845,-576.628 562.591,-573.037 563.501,-565.884 569.754,-569.475 568.845,-576.628"/>
<text text-anchor="middle" x="694.623" y="-716.5" font-family="Helvetica,sans-Serif" font-size="10.00"> +@3</text>
</g>
<!-- Node11 -->
<g id="node11" class="node"><title>Node11</title>
<g id="a_node11"><a xlink:href="../../dd/da3/structo2_1_1header_1_1HeartbeatHeader.html" target="_top" xlink:title="{o2::header::HeartbeatHeader\n||+ operator bool()\l+ operator\&lt;()\l+ operator uint64_t()\l}">
<polygon fill="none" stroke="black" points="1286.62,-150.5 1286.62,-229.5 1429.62,-229.5 1429.62,-150.5 1286.62,-150.5"/>
<text text-anchor="middle" x="1358.12" y="-217.5" font-family="Helvetica,sans-Serif" font-size="10.00">o2::header::HeartbeatHeader</text>
<polyline fill="none" stroke="black" points="1286.62,-210.5 1429.62,-210.5 "/>
<text text-anchor="middle" x="1358.12" y="-198.5" font-family="Helvetica,sans-Serif" font-size="10.00"> </text>
<polyline fill="none" stroke="black" points="1286.62,-191.5 1429.62,-191.5 "/>
<text text-anchor="start" x="1294.62" y="-179.5" font-family="Helvetica,sans-Serif" font-size="10.00">+ operator bool()</text>
<text text-anchor="start" x="1294.62" y="-168.5" font-family="Helvetica,sans-Serif" font-size="10.00">+ operator&lt;()</text>
<text text-anchor="start" x="1294.62" y="-157.5" font-family="Helvetica,sans-Serif" font-size="10.00">+ operator uint64_t()</text>
</a>
</g>
</g>
<!-- Node7&#45;&gt;Node11 -->
<g id="edge26" class="edge"><title>Node7&#45;&gt;Node11</title>
<path fill="none" stroke="#404040" d="M742.888,-910.97C829.475,-898.265 1274.97,-821.754 1493.12,-566 1580.07,-464.07 1624.68,-381.306 1550.12,-270 1525.84,-233.75 1481.59,-214.118 1441.69,-203.494"/>
<polygon fill="none" stroke="#404040" points="1441.67,-203.489 1434.88,-205.929 1430.02,-200.603 1436.81,-198.164 1441.67,-203.489"/>
<text text-anchor="middle" x="1491.62" y="-592.5" font-family="Helvetica,sans-Serif" font-size="10.00"> +@11</text>
</g>
<!-- Node15 -->
<g id="node15" class="node"><title>Node15</title>
<g id="a_node15"><a xlink:href="../../d1/dfe/structo2_1_1header_1_1HeartbeatTrailer.html" target="_top" xlink:title="{o2::header::HeartbeatTrailer\n||+ operator bool()\l+ operator uint64_t()\l}">
<polygon fill="none" stroke="black" points="973.123,-156 973.123,-224 1111.12,-224 1111.12,-156 973.123,-156"/>
<text text-anchor="middle" x="1042.12" y="-212" font-family="Helvetica,sans-Serif" font-size="10.00">o2::header::HeartbeatTrailer</text>
<polyline fill="none" stroke="black" points="973.123,-205 1111.12,-205 "/>
<text text-anchor="middle" x="1042.12" y="-193" font-family="Helvetica,sans-Serif" font-size="10.00"> </text>
<polyline fill="none" stroke="black" points="973.123,-186 1111.12,-186 "/>
<text text-anchor="start" x="981.123" y="-174" font-family="Helvetica,sans-Serif" font-size="10.00">+ operator bool()</text>
<text text-anchor="start" x="981.123" y="-163" font-family="Helvetica,sans-Serif" font-size="10.00">+ operator uint64_t()</text>
</a>
</g>
</g>
<!-- Node7&#45;&gt;Node15 -->
<g id="edge34" class="edge"><title>Node7&#45;&gt;Node15</title>
<path fill="none" stroke="#404040" d="M742.828,-893.018C780.017,-841.54 878.588,-699.086 931.123,-566 980.648,-440.537 949.927,-395.979 998.123,-270 1002.62,-258.233 1008.63,-246.08 1014.75,-234.94"/>
<polygon fill="none" stroke="#404040" points="1014.93,-234.622 1014.41,-227.43 1020.86,-224.189 1021.37,-231.382 1014.93,-234.622"/>
<text text-anchor="middle" x="939.623" y="-592.5" font-family="Helvetica,sans-Serif" font-size="10.00"> +@15</text>
</g>
<!-- Node8&#45;&gt;Node1 -->
<g id="edge36" class="edge"><title>Node8&#45;&gt;Node1</title>
<path fill="none" stroke="#404040" d="M263.938,-624.24C256.687,-501.501 247.925,-298.537 267.123,-270 385.94,-93.3798 659.059,-52.6073 797.461,-43.4538"/>
<polygon fill="none" stroke="#404040" points="797.639,-43.443 803.383,-39.0833 809.617,-42.7086 803.873,-47.0683 797.639,-43.443"/>
<text text-anchor="middle" x="315.623" y="-317" font-family="Helvetica,sans-Serif" font-size="10.00"> +sHeaderType</text>
<text text-anchor="middle" x="315.623" y="-306" font-family="Helvetica,sans-Serif" font-size="10.00">+sSerializationMethod</text>
</g>
<!-- Node8&#45;&gt;Node2 -->
<g id="edge22" class="edge"><title>Node8&#45;&gt;Node2</title>
<path fill="none" stroke="#404040" d="M280.469,-624.313C291.644,-529.871 309.894,-395.344 325.123,-376 337.938,-359.721 349.464,-367.005 368.123,-358 441.213,-322.726 456.259,-307.71 528.123,-270 556.048,-255.346 587.033,-239.718 614.113,-226.263"/>
<polygon fill="none" stroke="#404040" points="614.314,-226.163 617.913,-219.914 625.066,-220.833 621.467,-227.082 614.314,-226.163"/>
<text text-anchor="middle" x="373.623" y="-474" font-family="Helvetica,sans-Serif" font-size="10.00"> +sHeaderType</text>
<text text-anchor="middle" x="373.623" y="-463" font-family="Helvetica,sans-Serif" font-size="10.00">+sSerializationMethod</text>
</g>
<!-- Node8&#45;&gt;Node3 -->
<g id="edge7" class="edge"><title>Node8&#45;&gt;Node3</title>
<path fill="none" stroke="orange" d="M205.852,-652.688C193.355,-642.147 179.851,-632.065 166.123,-624 144.673,-611.399 128.858,-625.268 113.123,-606 103.704,-594.466 97.9117,-580.41 94.5265,-565.791"/>
<polygon fill="orange" stroke="orange" points="203.642,-655.405 213.496,-659.297 208.22,-650.109 203.642,-655.405"/>
<text text-anchor="start" x="113.123" y="-598" font-family="Helvetica,sans-Serif" font-size="10.00"> &lt; gSizeHeaderDescription</text>
<text text-anchor="middle" x="172.123" y="-587" font-family="Helvetica,sans-Serif" font-size="10.00">String &gt;</text>
</g>
<!-- Node8&#45;&gt;Node9 -->
<g id="edge20" class="edge"><title>Node8&#45;&gt;Node9</title>
<path fill="none" stroke="orange" d="M302.435,-615.414C309.667,-603.53 318.457,-592.606 329.123,-584 360.192,-558.932 381.724,-584.457 417.123,-566 421.851,-563.534 426.513,-560.776 431.084,-557.796"/>
<polygon fill="orange" stroke="orange" points="299.331,-613.793 297.441,-624.218 305.419,-617.248 299.331,-613.793"/>
<text text-anchor="start" x="329.123" y="-598" font-family="Helvetica,sans-Serif" font-size="10.00"> &lt; gSizeSerializationMethod</text>
<text text-anchor="middle" x="390.623" y="-587" font-family="Helvetica,sans-Serif" font-size="10.00">String &gt;</text>
</g>
<!-- Node9&#45;&gt;Node2 -->
<g id="edge15" class="edge"><title>Node9&#45;&gt;Node2</title>
<path fill="none" stroke="#404040" d="M526.666,-376.437C534.184,-340.658 547.062,-301.034 569.123,-270 580.941,-253.374 597.441,-239.209 614.329,-227.662"/>
<polygon fill="none" stroke="#404040" points="614.799,-227.356 617.646,-220.731 624.857,-220.811 622.009,-227.437 614.799,-227.356"/>
<text text-anchor="middle" x="599.623" y="-311.5" font-family="Helvetica,sans-Serif" font-size="10.00"> +serialization</text>
</g>
<!-- Node10 -->
<g id="node10" class="node"><title>Node10</title>
<polygon fill="none" stroke="#bfbfbf" points="871.623,-442.5 871.623,-499.5 922.623,-499.5 922.623,-442.5 871.623,-442.5"/>
<text text-anchor="middle" x="897.123" y="-487.5" font-family="Helvetica,sans-Serif" font-size="10.00">uint32_t</text>
<polyline fill="none" stroke="#bfbfbf" points="871.623,-480.5 922.623,-480.5 "/>
<text text-anchor="middle" x="897.123" y="-468.5" font-family="Helvetica,sans-Serif" font-size="10.00"> </text>
<polyline fill="none" stroke="#bfbfbf" points="871.623,-461.5 922.623,-461.5 "/>
<text text-anchor="middle" x="897.123" y="-449.5" font-family="Helvetica,sans-Serif" font-size="10.00"> </text>
</g>
<!-- Node10&#45;&gt;Node1 -->
<g id="edge35" class="edge"><title>Node10&#45;&gt;Node1</title>
<path fill="none" stroke="#404040" d="M896.085,-442.183C893.44,-371.25 886.412,-182.814 883.014,-91.717"/>
<polygon fill="none" stroke="#404040" points="883.007,-91.5229 878.786,-85.6762 882.56,-79.5312 886.78,-85.3779 883.007,-91.5229"/>
<text text-anchor="middle" x="913.123" y="-187.5" font-family="Helvetica,sans-Serif" font-size="10.00"> +sVersion</text>
</g>
<!-- Node10&#45;&gt;Node2 -->
<g id="edge21" class="edge"><title>Node10&#45;&gt;Node2</title>
<path fill="none" stroke="#404040" d="M871.395,-450.564C846.229,-430.197 808.639,-395.929 787.123,-358 767.176,-322.839 784.115,-305.135 764.123,-270 761.422,-265.255 758.364,-260.592 755.061,-256.052"/>
<polygon fill="none" stroke="#404040" points="754.858,-255.79 748.014,-253.516 747.482,-246.325 754.325,-248.599 754.858,-255.79"/>
<text text-anchor="middle" x="827.123" y="-350" font-family="Helvetica,sans-Serif" font-size="10.00"> +headerVersion</text>
<text text-anchor="middle" x="827.123" y="-339" font-family="Helvetica,sans-Serif" font-size="10.00">+headerSize</text>
<text text-anchor="middle" x="827.123" y="-328" font-family="Helvetica,sans-Serif" font-size="10.00">+sMagicString</text>
<text text-anchor="middle" x="827.123" y="-317" font-family="Helvetica,sans-Serif" font-size="10.00">+flagsNextHeader</text>
<text text-anchor="middle" x="827.123" y="-306" font-family="Helvetica,sans-Serif" font-size="10.00">+magicStringInt</text>
<text text-anchor="middle" x="827.123" y="-295" font-family="Helvetica,sans-Serif" font-size="10.00">+flagsUnused</text>
<text text-anchor="middle" x="827.123" y="-284" font-family="Helvetica,sans-Serif" font-size="10.00">+flags</text>
<text text-anchor="middle" x="827.123" y="-273" font-family="Helvetica,sans-Serif" font-size="10.00">+sVersion</text>
</g>
<!-- Node10&#45;&gt;Node11 -->
<g id="edge28" class="edge"><title>Node10&#45;&gt;Node11</title>
<path fill="none" stroke="#404040" d="M917.86,-442.17C934.035,-419.929 956.618,-387.673 974.123,-358 996.34,-320.337 983.073,-296.146 1018.12,-270 1055.02,-242.475 1075.13,-261.722 1120.12,-252 1171.9,-240.813 1229.45,-226.124 1274.99,-213.964"/>
<polygon fill="none" stroke="#404040" points="1275.01,-213.96 1279.77,-208.542 1286.6,-210.85 1281.84,-216.268 1275.01,-213.96"/>
<text text-anchor="middle" x="1032.12" y="-311.5" font-family="Helvetica,sans-Serif" font-size="10.00"> +orbit</text>
</g>
<!-- Node10&#45;&gt;Node15 -->
<g id="edge32" class="edge"><title>Node10&#45;&gt;Node15</title>
<path fill="none" stroke="#404040" d="M896.629,-442.218C896.26,-394.201 897.8,-298.126 915.123,-270 922.062,-258.733 943.605,-243.916 967.024,-230.162"/>
<polygon fill="none" stroke="#404040" points="967.098,-230.119 970.308,-223.661 977.503,-224.14 974.294,-230.598 967.098,-230.119"/>
<text text-anchor="middle" x="942.623" y="-317" font-family="Helvetica,sans-Serif" font-size="10.00"> +status</text>
<text text-anchor="middle" x="942.623" y="-306" font-family="Helvetica,sans-Serif" font-size="10.00">+dataLength</text>
</g>
<!-- Node11&#45;&gt;Node1 -->
<g id="edge23" class="edge"><title>Node11&#45;&gt;Node1</title>
<path fill="none" stroke="#404040" d="M1286.45,-166.763C1200.24,-140.015 1055.77,-95.189 964.61,-66.9038"/>
<polygon fill="none" stroke="#404040" points="964.4,-66.8387 957.484,-68.881 952.939,-63.2826 959.854,-61.2403 964.4,-66.8387"/>
<text text-anchor="middle" x="1110.62" y="-101.5" font-family="Helvetica,sans-Serif" font-size="10.00"> +header</text>
</g>
<!-- Node12 -->
<g id="node12" class="node"><title>Node12</title>
<polygon fill="none" stroke="#bfbfbf" points="1166.62,-442.5 1166.62,-499.5 1217.62,-499.5 1217.62,-442.5 1166.62,-442.5"/>
<text text-anchor="middle" x="1192.12" y="-487.5" font-family="Helvetica,sans-Serif" font-size="10.00">uint64_t</text>
<polyline fill="none" stroke="#bfbfbf" points="1166.62,-480.5 1217.62,-480.5 "/>
<text text-anchor="middle" x="1192.12" y="-468.5" font-family="Helvetica,sans-Serif" font-size="10.00"> </text>
<polyline fill="none" stroke="#bfbfbf" points="1166.62,-461.5 1217.62,-461.5 "/>
<text text-anchor="middle" x="1192.12" y="-449.5" font-family="Helvetica,sans-Serif" font-size="10.00"> </text>
</g>
<!-- Node12&#45;&gt;Node11 -->
<g id="edge24" class="edge"><title>Node12&#45;&gt;Node11</title>
<path fill="none" stroke="#404040" d="M1218.05,-448.778C1241.57,-428.084 1275.33,-394.473 1294.12,-358 1312.45,-322.43 1298.83,-307.373 1313.12,-270 1316.93,-260.038 1321.87,-249.831 1327.06,-240.203"/>
<polygon fill="none" stroke="#404040" points="1327.13,-240.087 1326.58,-232.897 1333,-229.621 1333.55,-236.811 1327.13,-240.087"/>
<text text-anchor="middle" x="1344.12" y="-311.5" font-family="Helvetica,sans-Serif" font-size="10.00"> +headerWord</text>
</g>
<!-- Node12&#45;&gt;Node15 -->
<g id="edge30" class="edge"><title>Node12&#45;&gt;Node15</title>
<path fill="none" stroke="#404040" d="M1166.44,-454.351C1137.7,-435.36 1092.15,-400.54 1069.12,-358 1058.04,-337.534 1050.33,-278.406 1046.07,-236.328"/>
<polygon fill="none" stroke="#404040" points="1046.04,-236.092 1041.48,-230.509 1044.88,-224.149 1049.44,-229.732 1046.04,-236.092"/>
<text text-anchor="middle" x="1097.62" y="-311.5" font-family="Helvetica,sans-Serif" font-size="10.00"> +trailerWord</text>
</g>
<!-- Node13 -->
<g id="node13" class="node"><title>Node13</title>
<polygon fill="none" stroke="#bfbfbf" points="1433.62,-442.5 1433.62,-499.5 1484.62,-499.5 1484.62,-442.5 1433.62,-442.5"/>
<text text-anchor="middle" x="1459.12" y="-487.5" font-family="Helvetica,sans-Serif" font-size="10.00">uint16_t</text>
<polyline fill="none" stroke="#bfbfbf" points="1433.62,-480.5 1484.62,-480.5 "/>
<text text-anchor="middle" x="1459.12" y="-468.5" font-family="Helvetica,sans-Serif" font-size="10.00"> </text>
<polyline fill="none" stroke="#bfbfbf" points="1433.62,-461.5 1484.62,-461.5 "/>
<text text-anchor="middle" x="1459.12" y="-449.5" font-family="Helvetica,sans-Serif" font-size="10.00"> </text>
</g>
<!-- Node13&#45;&gt;Node11 -->
<g id="edge25" class="edge"><title>Node13&#45;&gt;Node11</title>
<path fill="none" stroke="#404040" d="M1472.34,-442.494C1489.73,-402.025 1514.7,-325.265 1484.12,-270 1474.04,-251.776 1457.8,-237.193 1440.28,-225.766"/>
<polygon fill="none" stroke="#404040" points="1440.1,-225.654 1432.9,-225.94 1429.86,-219.398 1437.07,-219.113 1440.1,-225.654"/>
<text text-anchor="middle" x="1522.62" y="-317" font-family="Helvetica,sans-Serif" font-size="10.00"> +reserved</text>
<text text-anchor="middle" x="1522.62" y="-306" font-family="Helvetica,sans-Serif" font-size="10.00">+bcid</text>
</g>
<!-- Node13&#45;&gt;Node15 -->
<g id="edge31" class="edge"><title>Node13&#45;&gt;Node15</title>
<path fill="none" stroke="#404040" d="M1438.95,-442.415C1421.29,-420.528 1393.6,-391.174 1362.12,-376 1306.01,-348.947 1268.98,-400.163 1223.12,-358 1193.67,-330.918 1228.81,-301.49 1204.12,-270 1183.67,-243.905 1152.39,-225.878 1122.75,-213.71"/>
<polygon fill="none" stroke="#404040" points="1122.68,-213.683 1115.64,-215.233 1111.5,-209.329 1118.55,-207.779 1122.68,-213.683"/>
<text text-anchor="middle" x="1256.62" y="-328" font-family="Helvetica,sans-Serif" font-size="10.00"> +hbfTruncated</text>
<text text-anchor="middle" x="1256.62" y="-317" font-family="Helvetica,sans-Serif" font-size="10.00">+hbfStatus</text>
<text text-anchor="middle" x="1256.62" y="-306" font-family="Helvetica,sans-Serif" font-size="10.00">+trailerLength</text>
<text text-anchor="middle" x="1256.62" y="-295" font-family="Helvetica,sans-Serif" font-size="10.00">+hbAccept</text>
</g>
<!-- Node14 -->
<g id="node14" class="node"><title>Node14</title>
<polygon fill="none" stroke="#bfbfbf" points="1307.12,-442.5 1307.12,-499.5 1353.12,-499.5 1353.12,-442.5 1307.12,-442.5"/>
<text text-anchor="middle" x="1330.12" y="-487.5" font-family="Helvetica,sans-Serif" font-size="10.00">uint8_t</text>
<polyline fill="none" stroke="#bfbfbf" points="1307.12,-480.5 1353.12,-480.5 "/>
<text text-anchor="middle" x="1330.12" y="-468.5" font-family="Helvetica,sans-Serif" font-size="10.00"> </text>
<polyline fill="none" stroke="#bfbfbf" points="1307.12,-461.5 1353.12,-461.5 "/>
<text text-anchor="middle" x="1330.12" y="-449.5" font-family="Helvetica,sans-Serif" font-size="10.00"> </text>
</g>
<!-- Node14&#45;&gt;Node11 -->
<g id="edge27" class="edge"><title>Node14&#45;&gt;Node11</title>
<path fill="none" stroke="#404040" d="M1346.22,-442.08C1357.94,-420.053 1372.82,-388.123 1379.12,-358 1387.13,-319.717 1384.19,-308.782 1379.12,-270 1377.89,-260.6 1375.88,-250.727 1373.57,-241.268"/>
<polygon fill="none" stroke="#404040" points="1373.55,-241.187 1368.16,-236.389 1370.52,-229.574 1375.9,-234.372 1373.55,-241.187"/>
<text text-anchor="middle" x="1432.12" y="-328" font-family="Helvetica,sans-Serif" font-size="10.00"> +triggerType</text>
<text text-anchor="middle" x="1432.12" y="-317" font-family="Helvetica,sans-Serif" font-size="10.00">+headerLength</text>
<text text-anchor="middle" x="1432.12" y="-306" font-family="Helvetica,sans-Serif" font-size="10.00">+blockType</text>
<text text-anchor="middle" x="1432.12" y="-295" font-family="Helvetica,sans-Serif" font-size="10.00">+reservedTriggerType</text>
</g>
<!-- Node14&#45;&gt;Node15 -->
<g id="edge33" class="edge"><title>Node14&#45;&gt;Node15</title>
<path fill="none" stroke="#404040" d="M1306.85,-442.413C1287.41,-421.125 1257.82,-392.593 1226.12,-376 1194.99,-359.7 1174.29,-382.526 1149.12,-358 1120.17,-329.789 1146.76,-304.759 1126.12,-270 1117.98,-256.283 1106.76,-243.451 1095.18,-232.282"/>
<polygon fill="none" stroke="#404040" points="1095.11,-232.219 1087.99,-231.087 1086.3,-224.078 1093.42,-225.21 1095.11,-232.219"/>
<text text-anchor="middle" x="1176.62" y="-311.5" font-family="Helvetica,sans-Serif" font-size="10.00"> +blockType</text>
</g>
<!-- Node15&#45;&gt;Node1 -->
<g id="edge29" class="edge"><title>Node15&#45;&gt;Node1</title>
<path fill="none" stroke="#404040" d="M1005.99,-155.786C984.206,-135.76 956.116,-109.938 932.097,-87.8582"/>
<polygon fill="none" stroke="#404040" points="931.947,-87.7203 924.822,-86.6046 923.112,-79.5992 930.236,-80.7149 931.947,-87.7203"/>
<text text-anchor="middle" x="969.123" y="-101.5" font-family="Helvetica,sans-Serif" font-size="10.00"> +trailer</text>
</g>
</g>
</svg>
