<?xml version="1.0" encoding="UTF-8" standalone="no"?>
<!DOCTYPE svg PUBLIC "-//W3C//DTD SVG 1.1//EN"
 "http://www.w3.org/Graphics/SVG/1.1/DTD/svg11.dtd">
<!-- Generated by graphviz version 2.36.0 (20140111.2315)
 -->
<!-- Title: ImGuiColumnData Pages: 1 -->
<svg width="117pt" height="172pt"
 viewBox="0.00 0.00 117.00 172.00" xmlns="http://www.w3.org/2000/svg" xmlns:xlink="http://www.w3.org/1999/xlink">
<g id="graph0" class="graph" transform="scale(1 1) rotate(0) translate(4 168)">
<title>ImGuiColumnData</title>
<!-- Node1 -->
<g id="node1" class="node"><title>Node1</title>
<polygon fill="#bfbfbf" stroke="black" points="-1,-0.5 -1,-57.5 97,-57.5 97,-0.5 -1,-0.5"/>
<text text-anchor="middle" x="48" y="-45.5" font-family="Helvetica,sans-Serif" font-size="10.00">ImGuiColumnData</text>
<polyline fill="none" stroke="black" points="-1,-38.5 97,-38.5 "/>
<text text-anchor="middle" x="48" y="-26.5" font-family="Helvetica,sans-Serif" font-size="10.00"> </text>
<polyline fill="none" stroke="black" points="-1,-19.5 97,-19.5 "/>
<text text-anchor="middle" x="48" y="-7.5" font-family="Helvetica,sans-Serif" font-size="10.00"> </text>
</g>
<!-- Node2 -->
<g id="node2" class="node"><title>Node2</title>
<g id="a_node2"><a xlink:href="../../d4/dc3/classfloat.html" target="_top" xlink:title="{float\n||}">
<polygon fill="none" stroke="black" points="30.5,-106.5 30.5,-163.5 65.5,-163.5 65.5,-106.5 30.5,-106.5"/>
<text text-anchor="middle" x="48" y="-151.5" font-family="Helvetica,sans-Serif" font-size="10.00">float</text>
<polyline fill="none" stroke="black" points="30.5,-144.5 65.5,-144.5 "/>
<text text-anchor="middle" x="48" y="-132.5" font-family="Helvetica,sans-Serif" font-size="10.00"> </text>
<polyline fill="none" stroke="black" points="30.5,-125.5 65.5,-125.5 "/>
<text text-anchor="middle" x="48" y="-113.5" font-family="Helvetica,sans-Serif" font-size="10.00"> </text>
</a>
</g>
</g>
<!-- Node2&#45;&gt;Node1 -->
<g id="edge1" class="edge"><title>Node2&#45;&gt;Node1</title>
<path fill="none" stroke="#404040" d="M48,-106.403C48,-95.2373 48,-82.1304 48,-69.9556"/>
<polygon fill="none" stroke="#404040" points="48.0001,-69.726 44,-63.726 48,-57.726 52,-63.726 48.0001,-69.726"/>
<text text-anchor="middle" x="78.5" y="-79.5" font-family="Helvetica,sans-Serif" font-size="10.00"> +OffsetNorm</text>
</g>
</g>
</svg>
