<?xml version="1.0" encoding="UTF-8" standalone="no"?>
<!DOCTYPE svg PUBLIC "-//W3C//DTD SVG 1.1//EN"
 "http://www.w3.org/Graphics/SVG/1.1/DTD/svg11.dtd">
<!-- Generated by graphviz version 2.36.0 (20140111.2315)
 -->
<!-- Title: o2::CDB::FileStorage Pages: 1 -->
<svg width="766pt" height="1158pt"
 viewBox="0.00 0.00 765.80 1158.00" xmlns="http://www.w3.org/2000/svg" xmlns:xlink="http://www.w3.org/1999/xlink">
<g id="graph0" class="graph" transform="scale(1 1) rotate(0) translate(4 1154)">
<title>o2::CDB::FileStorage</title>
<!-- Node1 -->
<g id="node1" class="node"><title>Node1</title>
<polygon fill="#bfbfbf" stroke="black" points="363.8,-1 363.8,-157 473.8,-157 473.8,-1 363.8,-1"/>
<text text-anchor="middle" x="418.8" y="-145" font-family="Helvetica,sans-Serif" font-size="10.00">o2::CDB::FileStorage</text>
<polyline fill="none" stroke="black" points="363.8,-138 473.8,-138 "/>
<text text-anchor="middle" x="418.8" y="-126" font-family="Helvetica,sans-Serif" font-size="10.00"> </text>
<polyline fill="none" stroke="black" points="363.8,-119 473.8,-119 "/>
<text text-anchor="start" x="371.8" y="-107" font-family="Helvetica,sans-Serif" font-size="10.00">+ isReadOnly()</text>
<text text-anchor="start" x="371.8" y="-96" font-family="Helvetica,sans-Serif" font-size="10.00">+ hasSubVersion()</text>
<text text-anchor="start" x="371.8" y="-85" font-family="Helvetica,sans-Serif" font-size="10.00">+ hasConditionType()</text>
<text text-anchor="start" x="371.8" y="-74" font-family="Helvetica,sans-Serif" font-size="10.00">+ idToFilename()</text>
<text text-anchor="start" x="371.8" y="-63" font-family="Helvetica,sans-Serif" font-size="10.00">+ setRetry()</text>
<text text-anchor="start" x="371.8" y="-52" font-family="Helvetica,sans-Serif" font-size="10.00"># getCondition()</text>
<text text-anchor="start" x="371.8" y="-41" font-family="Helvetica,sans-Serif" font-size="10.00"># getConditionId()</text>
<text text-anchor="start" x="371.8" y="-30" font-family="Helvetica,sans-Serif" font-size="10.00"># getAllEntries()</text>
<text text-anchor="start" x="371.8" y="-19" font-family="Helvetica,sans-Serif" font-size="10.00"># putCondition()</text>
<text text-anchor="start" x="371.8" y="-8" font-family="Helvetica,sans-Serif" font-size="10.00"># getIdListFromFile()</text>
</g>
<!-- Node2 -->
<g id="node2" class="node"><title>Node2</title>
<g id="a_node2"><a xlink:href="../../df/d3a/classo2_1_1CDB_1_1Storage.html" target="_top" xlink:title="{o2::CDB::Storage\n||+ Storage()\l+ setUri()\l+ getUri()\l+ getStorageType()\l+ getBaseFolder()\l+ readSelectionFromFile()\l+ addSelection()\l+ addSelection()\l+ addSelection()\l+ removeSelection()\l+ removeSelection()\l+ removeSelection()\l+ removeSelection()\l+ removeAllSelections()\l+ printSelectionList()\l+ getObject()\l+ getObject()\l+ getObject()\l+ getAllObjects()\l+ getAllObjects()\l+ getAllObjects()\l+ getId()\l+ getId()\l+ getId()\l+ putObject()\l+ putObject()\l+ setMirrorSEs()\l+ getMirrorSEs()\l+ isReadOnly()\l+ hasSubVersion()\l+ hasConditionType()\l+ idToFilename()\l+ queryStorages()\l+ printrQueryStorages()\l+ getQueryStoragesList()\l+ setRetry()\l# ~Storage()\l# getSelection()\l# getCondition()\l# getConditionId()\l# getAllEntries()\l# putCondition()\l# getIdListFromFile()\l# queryValidFiles()\l# loadTreeFromFile()\l}">
<polygon fill="none" stroke="black" points="354.3,-196.5 354.3,-737.5 483.3,-737.5 483.3,-196.5 354.3,-196.5"/>
<text text-anchor="middle" x="418.8" y="-725.5" font-family="Helvetica,sans-Serif" font-size="10.00">o2::CDB::Storage</text>
<polyline fill="none" stroke="black" points="354.3,-718.5 483.3,-718.5 "/>
<text text-anchor="middle" x="418.8" y="-706.5" font-family="Helvetica,sans-Serif" font-size="10.00"> </text>
<polyline fill="none" stroke="black" points="354.3,-699.5 483.3,-699.5 "/>
<text text-anchor="start" x="362.3" y="-687.5" font-family="Helvetica,sans-Serif" font-size="10.00">+ Storage()</text>
<text text-anchor="start" x="362.3" y="-676.5" font-family="Helvetica,sans-Serif" font-size="10.00">+ setUri()</text>
<text text-anchor="start" x="362.3" y="-665.5" font-family="Helvetica,sans-Serif" font-size="10.00">+ getUri()</text>
<text text-anchor="start" x="362.3" y="-654.5" font-family="Helvetica,sans-Serif" font-size="10.00">+ getStorageType()</text>
<text text-anchor="start" x="362.3" y="-643.5" font-family="Helvetica,sans-Serif" font-size="10.00">+ getBaseFolder()</text>
<text text-anchor="start" x="362.3" y="-632.5" font-family="Helvetica,sans-Serif" font-size="10.00">+ readSelectionFromFile()</text>
<text text-anchor="start" x="362.3" y="-621.5" font-family="Helvetica,sans-Serif" font-size="10.00">+ addSelection()</text>
<text text-anchor="start" x="362.3" y="-610.5" font-family="Helvetica,sans-Serif" font-size="10.00">+ addSelection()</text>
<text text-anchor="start" x="362.3" y="-599.5" font-family="Helvetica,sans-Serif" font-size="10.00">+ addSelection()</text>
<text text-anchor="start" x="362.3" y="-588.5" font-family="Helvetica,sans-Serif" font-size="10.00">+ removeSelection()</text>
<text text-anchor="start" x="362.3" y="-577.5" font-family="Helvetica,sans-Serif" font-size="10.00">+ removeSelection()</text>
<text text-anchor="start" x="362.3" y="-566.5" font-family="Helvetica,sans-Serif" font-size="10.00">+ removeSelection()</text>
<text text-anchor="start" x="362.3" y="-555.5" font-family="Helvetica,sans-Serif" font-size="10.00">+ removeSelection()</text>
<text text-anchor="start" x="362.3" y="-544.5" font-family="Helvetica,sans-Serif" font-size="10.00">+ removeAllSelections()</text>
<text text-anchor="start" x="362.3" y="-533.5" font-family="Helvetica,sans-Serif" font-size="10.00">+ printSelectionList()</text>
<text text-anchor="start" x="362.3" y="-522.5" font-family="Helvetica,sans-Serif" font-size="10.00">+ getObject()</text>
<text text-anchor="start" x="362.3" y="-511.5" font-family="Helvetica,sans-Serif" font-size="10.00">+ getObject()</text>
<text text-anchor="start" x="362.3" y="-500.5" font-family="Helvetica,sans-Serif" font-size="10.00">+ getObject()</text>
<text text-anchor="start" x="362.3" y="-489.5" font-family="Helvetica,sans-Serif" font-size="10.00">+ getAllObjects()</text>
<text text-anchor="start" x="362.3" y="-478.5" font-family="Helvetica,sans-Serif" font-size="10.00">+ getAllObjects()</text>
<text text-anchor="start" x="362.3" y="-467.5" font-family="Helvetica,sans-Serif" font-size="10.00">+ getAllObjects()</text>
<text text-anchor="start" x="362.3" y="-456.5" font-family="Helvetica,sans-Serif" font-size="10.00">+ getId()</text>
<text text-anchor="start" x="362.3" y="-445.5" font-family="Helvetica,sans-Serif" font-size="10.00">+ getId()</text>
<text text-anchor="start" x="362.3" y="-434.5" font-family="Helvetica,sans-Serif" font-size="10.00">+ getId()</text>
<text text-anchor="start" x="362.3" y="-423.5" font-family="Helvetica,sans-Serif" font-size="10.00">+ putObject()</text>
<text text-anchor="start" x="362.3" y="-412.5" font-family="Helvetica,sans-Serif" font-size="10.00">+ putObject()</text>
<text text-anchor="start" x="362.3" y="-401.5" font-family="Helvetica,sans-Serif" font-size="10.00">+ setMirrorSEs()</text>
<text text-anchor="start" x="362.3" y="-390.5" font-family="Helvetica,sans-Serif" font-size="10.00">+ getMirrorSEs()</text>
<text text-anchor="start" x="362.3" y="-379.5" font-family="Helvetica,sans-Serif" font-size="10.00">+ isReadOnly()</text>
<text text-anchor="start" x="362.3" y="-368.5" font-family="Helvetica,sans-Serif" font-size="10.00">+ hasSubVersion()</text>
<text text-anchor="start" x="362.3" y="-357.5" font-family="Helvetica,sans-Serif" font-size="10.00">+ hasConditionType()</text>
<text text-anchor="start" x="362.3" y="-346.5" font-family="Helvetica,sans-Serif" font-size="10.00">+ idToFilename()</text>
<text text-anchor="start" x="362.3" y="-335.5" font-family="Helvetica,sans-Serif" font-size="10.00">+ queryStorages()</text>
<text text-anchor="start" x="362.3" y="-324.5" font-family="Helvetica,sans-Serif" font-size="10.00">+ printrQueryStorages()</text>
<text text-anchor="start" x="362.3" y="-313.5" font-family="Helvetica,sans-Serif" font-size="10.00">+ getQueryStoragesList()</text>
<text text-anchor="start" x="362.3" y="-302.5" font-family="Helvetica,sans-Serif" font-size="10.00">+ setRetry()</text>
<text text-anchor="start" x="362.3" y="-291.5" font-family="Helvetica,sans-Serif" font-size="10.00"># ~Storage()</text>
<text text-anchor="start" x="362.3" y="-280.5" font-family="Helvetica,sans-Serif" font-size="10.00"># getSelection()</text>
<text text-anchor="start" x="362.3" y="-269.5" font-family="Helvetica,sans-Serif" font-size="10.00"># getCondition()</text>
<text text-anchor="start" x="362.3" y="-258.5" font-family="Helvetica,sans-Serif" font-size="10.00"># getConditionId()</text>
<text text-anchor="start" x="362.3" y="-247.5" font-family="Helvetica,sans-Serif" font-size="10.00"># getAllEntries()</text>
<text text-anchor="start" x="362.3" y="-236.5" font-family="Helvetica,sans-Serif" font-size="10.00"># putCondition()</text>
<text text-anchor="start" x="362.3" y="-225.5" font-family="Helvetica,sans-Serif" font-size="10.00"># getIdListFromFile()</text>
<text text-anchor="start" x="362.3" y="-214.5" font-family="Helvetica,sans-Serif" font-size="10.00"># queryValidFiles()</text>
<text text-anchor="start" x="362.3" y="-203.5" font-family="Helvetica,sans-Serif" font-size="10.00"># loadTreeFromFile()</text>
</a>
</g>
</g>
<!-- Node2&#45;&gt;Node1 -->
<g id="edge1" class="edge"><title>Node2&#45;&gt;Node1</title>
<path fill="none" stroke="midnightblue" d="M418.8,-186.155C418.8,-176.102 418.8,-166.445 418.8,-157.333"/>
<polygon fill="none" stroke="midnightblue" points="415.3,-186.336 418.8,-196.336 422.3,-186.336 415.3,-186.336"/>
</g>
<!-- Node3 -->
<g id="node3" class="node"><title>Node3</title>
<polygon fill="none" stroke="#bfbfbf" points="74.3,-1092.5 74.3,-1149.5 125.3,-1149.5 125.3,-1092.5 74.3,-1092.5"/>
<text text-anchor="middle" x="99.8" y="-1137.5" font-family="Helvetica,sans-Serif" font-size="10.00">TObject</text>
<polyline fill="none" stroke="#bfbfbf" points="74.3,-1130.5 125.3,-1130.5 "/>
<text text-anchor="middle" x="99.8" y="-1118.5" font-family="Helvetica,sans-Serif" font-size="10.00"> </text>
<polyline fill="none" stroke="#bfbfbf" points="74.3,-1111.5 125.3,-1111.5 "/>
<text text-anchor="middle" x="99.8" y="-1099.5" font-family="Helvetica,sans-Serif" font-size="10.00"> </text>
</g>
<!-- Node3&#45;&gt;Node2 -->
<g id="edge2" class="edge"><title>Node3&#45;&gt;Node2</title>
<path fill="none" stroke="midnightblue" d="M66.0974,-1096.29C53.1153,-1085.12 39.7444,-1070.59 32.8,-1054 -9.41945,-953.147 -12.2143,-907.637 32.8,-808 98.8902,-661.713 262.473,-553.232 354.056,-501.588"/>
<polygon fill="none" stroke="midnightblue" points="64.1106,-1099.19 74.0694,-1102.81 68.5388,-1093.77 64.1106,-1099.19"/>
</g>
<!-- Node7 -->
<g id="node7" class="node"><title>Node7</title>
<g id="a_node7"><a xlink:href="../../d6/dae/classo2_1_1CDB_1_1IdPath.html" target="_top" xlink:title="{o2::CDB::IdPath\n||+ IdPath()\l+ IdPath()\l+ IdPath()\l+ IdPath()\l+ IdPath()\l+ ~IdPath()\l+ getPathString()\l+ setPath()\l+ getLevel()\l+ isValid()\l+ isWildcard()\l+ doesLevel0Contain()\l+ doesLevel1Contain()\l+ doesLevel2Contain()\l+ isSupersetOf()\l}">
<polygon fill="none" stroke="black" points="42.3,-825.5 42.3,-1036.5 157.3,-1036.5 157.3,-825.5 42.3,-825.5"/>
<text text-anchor="middle" x="99.8" y="-1024.5" font-family="Helvetica,sans-Serif" font-size="10.00">o2::CDB::IdPath</text>
<polyline fill="none" stroke="black" points="42.3,-1017.5 157.3,-1017.5 "/>
<text text-anchor="middle" x="99.8" y="-1005.5" font-family="Helvetica,sans-Serif" font-size="10.00"> </text>
<polyline fill="none" stroke="black" points="42.3,-998.5 157.3,-998.5 "/>
<text text-anchor="start" x="50.3" y="-986.5" font-family="Helvetica,sans-Serif" font-size="10.00">+ IdPath()</text>
<text text-anchor="start" x="50.3" y="-975.5" font-family="Helvetica,sans-Serif" font-size="10.00">+ IdPath()</text>
<text text-anchor="start" x="50.3" y="-964.5" font-family="Helvetica,sans-Serif" font-size="10.00">+ IdPath()</text>
<text text-anchor="start" x="50.3" y="-953.5" font-family="Helvetica,sans-Serif" font-size="10.00">+ IdPath()</text>
<text text-anchor="start" x="50.3" y="-942.5" font-family="Helvetica,sans-Serif" font-size="10.00">+ IdPath()</text>
<text text-anchor="start" x="50.3" y="-931.5" font-family="Helvetica,sans-Serif" font-size="10.00">+ ~IdPath()</text>
<text text-anchor="start" x="50.3" y="-920.5" font-family="Helvetica,sans-Serif" font-size="10.00">+ getPathString()</text>
<text text-anchor="start" x="50.3" y="-909.5" font-family="Helvetica,sans-Serif" font-size="10.00">+ setPath()</text>
<text text-anchor="start" x="50.3" y="-898.5" font-family="Helvetica,sans-Serif" font-size="10.00">+ getLevel()</text>
<text text-anchor="start" x="50.3" y="-887.5" font-family="Helvetica,sans-Serif" font-size="10.00">+ isValid()</text>
<text text-anchor="start" x="50.3" y="-876.5" font-family="Helvetica,sans-Serif" font-size="10.00">+ isWildcard()</text>
<text text-anchor="start" x="50.3" y="-865.5" font-family="Helvetica,sans-Serif" font-size="10.00">+ doesLevel0Contain()</text>
<text text-anchor="start" x="50.3" y="-854.5" font-family="Helvetica,sans-Serif" font-size="10.00">+ doesLevel1Contain()</text>
<text text-anchor="start" x="50.3" y="-843.5" font-family="Helvetica,sans-Serif" font-size="10.00">+ doesLevel2Contain()</text>
<text text-anchor="start" x="50.3" y="-832.5" font-family="Helvetica,sans-Serif" font-size="10.00">+ isSupersetOf()</text>
</a>
</g>
</g>
<!-- Node3&#45;&gt;Node7 -->
<g id="edge7" class="edge"><title>Node3&#45;&gt;Node7</title>
<path fill="none" stroke="midnightblue" d="M99.8,-1082.11C99.8,-1068.77 99.8,-1053.06 99.8,-1036.91"/>
<polygon fill="none" stroke="midnightblue" points="96.3001,-1082.26 99.8,-1092.26 103.3,-1082.26 96.3001,-1082.26"/>
</g>
<!-- Node9 -->
<g id="node9" class="node"><title>Node9</title>
<g id="a_node9"><a xlink:href="../../d8/d14/classo2_1_1CDB_1_1ConditionMetaData.html" target="_top" xlink:title="{o2::CDB::ConditionMetaData\n||+ ConditionMetaData()\l+ ConditionMetaData()\l+ ~ConditionMetaData()\l+ setObjectClassName()\l+ getObjectClassName()\l+ setResponsible()\l+ getResponsible()\l+ setBeamPeriod()\l+ getBeamPeriod()\l+ setAliRootVersion()\l+ getAliRootVersion()\l+ setComment()\l+ getComment()\l+ addDateToComment()\l+ setProperty()\l+ getProperty()\l+ removeProperty()\l+ printConditionMetaData()\l}">
<polygon fill="none" stroke="black" points="175.3,-809 175.3,-1053 320.3,-1053 320.3,-809 175.3,-809"/>
<text text-anchor="middle" x="247.8" y="-1041" font-family="Helvetica,sans-Serif" font-size="10.00">o2::CDB::ConditionMetaData</text>
<polyline fill="none" stroke="black" points="175.3,-1034 320.3,-1034 "/>
<text text-anchor="middle" x="247.8" y="-1022" font-family="Helvetica,sans-Serif" font-size="10.00"> </text>
<polyline fill="none" stroke="black" points="175.3,-1015 320.3,-1015 "/>
<text text-anchor="start" x="183.3" y="-1003" font-family="Helvetica,sans-Serif" font-size="10.00">+ ConditionMetaData()</text>
<text text-anchor="start" x="183.3" y="-992" font-family="Helvetica,sans-Serif" font-size="10.00">+ ConditionMetaData()</text>
<text text-anchor="start" x="183.3" y="-981" font-family="Helvetica,sans-Serif" font-size="10.00">+ ~ConditionMetaData()</text>
<text text-anchor="start" x="183.3" y="-970" font-family="Helvetica,sans-Serif" font-size="10.00">+ setObjectClassName()</text>
<text text-anchor="start" x="183.3" y="-959" font-family="Helvetica,sans-Serif" font-size="10.00">+ getObjectClassName()</text>
<text text-anchor="start" x="183.3" y="-948" font-family="Helvetica,sans-Serif" font-size="10.00">+ setResponsible()</text>
<text text-anchor="start" x="183.3" y="-937" font-family="Helvetica,sans-Serif" font-size="10.00">+ getResponsible()</text>
<text text-anchor="start" x="183.3" y="-926" font-family="Helvetica,sans-Serif" font-size="10.00">+ setBeamPeriod()</text>
<text text-anchor="start" x="183.3" y="-915" font-family="Helvetica,sans-Serif" font-size="10.00">+ getBeamPeriod()</text>
<text text-anchor="start" x="183.3" y="-904" font-family="Helvetica,sans-Serif" font-size="10.00">+ setAliRootVersion()</text>
<text text-anchor="start" x="183.3" y="-893" font-family="Helvetica,sans-Serif" font-size="10.00">+ getAliRootVersion()</text>
<text text-anchor="start" x="183.3" y="-882" font-family="Helvetica,sans-Serif" font-size="10.00">+ setComment()</text>
<text text-anchor="start" x="183.3" y="-871" font-family="Helvetica,sans-Serif" font-size="10.00">+ getComment()</text>
<text text-anchor="start" x="183.3" y="-860" font-family="Helvetica,sans-Serif" font-size="10.00">+ addDateToComment()</text>
<text text-anchor="start" x="183.3" y="-849" font-family="Helvetica,sans-Serif" font-size="10.00">+ setProperty()</text>
<text text-anchor="start" x="183.3" y="-838" font-family="Helvetica,sans-Serif" font-size="10.00">+ getProperty()</text>
<text text-anchor="start" x="183.3" y="-827" font-family="Helvetica,sans-Serif" font-size="10.00">+ removeProperty()</text>
<text text-anchor="start" x="183.3" y="-816" font-family="Helvetica,sans-Serif" font-size="10.00">+ printConditionMetaData()</text>
</a>
</g>
</g>
<!-- Node3&#45;&gt;Node9 -->
<g id="edge10" class="edge"><title>Node3&#45;&gt;Node9</title>
<path fill="none" stroke="midnightblue" d="M132.826,-1089.46C143.795,-1078.68 155.76,-1066.2 165.8,-1054 168.962,-1050.16 172.119,-1046.19 175.251,-1042.15"/>
<polygon fill="none" stroke="midnightblue" points="130.176,-1087.15 125.428,-1096.62 135.046,-1092.18 130.176,-1087.15"/>
</g>
<!-- Node4 -->
<g id="node4" class="node"><title>Node4</title>
<polygon fill="none" stroke="#bfbfbf" points="338.8,-902.5 338.8,-959.5 386.8,-959.5 386.8,-902.5 338.8,-902.5"/>
<text text-anchor="middle" x="362.8" y="-947.5" font-family="Helvetica,sans-Serif" font-size="10.00">Short_t</text>
<polyline fill="none" stroke="#bfbfbf" points="338.8,-940.5 386.8,-940.5 "/>
<text text-anchor="middle" x="362.8" y="-928.5" font-family="Helvetica,sans-Serif" font-size="10.00"> </text>
<polyline fill="none" stroke="#bfbfbf" points="338.8,-921.5 386.8,-921.5 "/>
<text text-anchor="middle" x="362.8" y="-909.5" font-family="Helvetica,sans-Serif" font-size="10.00"> </text>
</g>
<!-- Node4&#45;&gt;Node2 -->
<g id="edge3" class="edge"><title>Node4&#45;&gt;Node2</title>
<path fill="none" stroke="#404040" d="M361.411,-902.496C360.031,-868.13 358.771,-807.563 363.8,-756 364.004,-753.91 364.215,-751.813 364.434,-749.709"/>
<polygon fill="none" stroke="#404040" points="364.455,-749.52 361.135,-743.119 365.767,-737.592 369.087,-743.993 364.455,-749.52"/>
<text text-anchor="middle" x="408.8" y="-776" font-family="Helvetica,sans-Serif" font-size="10.00"> #mNretry</text>
<text text-anchor="middle" x="408.8" y="-765" font-family="Helvetica,sans-Serif" font-size="10.00">#mInitRetrySeconds</text>
</g>
<!-- Node5 -->
<g id="node5" class="node"><title>Node5</title>
<polygon fill="none" stroke="#bfbfbf" points="445.3,-902.5 445.3,-959.5 506.3,-959.5 506.3,-902.5 445.3,-902.5"/>
<text text-anchor="middle" x="475.8" y="-947.5" font-family="Helvetica,sans-Serif" font-size="10.00">TObjArray</text>
<polyline fill="none" stroke="#bfbfbf" points="445.3,-940.5 506.3,-940.5 "/>
<text text-anchor="middle" x="475.8" y="-928.5" font-family="Helvetica,sans-Serif" font-size="10.00"> </text>
<polyline fill="none" stroke="#bfbfbf" points="445.3,-921.5 506.3,-921.5 "/>
<text text-anchor="middle" x="475.8" y="-909.5" font-family="Helvetica,sans-Serif" font-size="10.00"> </text>
</g>
<!-- Node5&#45;&gt;Node2 -->
<g id="edge4" class="edge"><title>Node5&#45;&gt;Node2</title>
<path fill="none" stroke="#404040" d="M472.405,-902.483C468.403,-870.045 461.309,-812.549 453.566,-749.79"/>
<polygon fill="none" stroke="#404040" points="453.531,-749.506 448.827,-744.041 452.062,-737.596 456.767,-743.061 453.531,-749.506"/>
<text text-anchor="middle" x="491.8" y="-770.5" font-family="Helvetica,sans-Serif" font-size="10.00"> #mValidFileIds</text>
</g>
<!-- Node6 -->
<g id="node6" class="node"><title>Node6</title>
<polygon fill="none" stroke="#bfbfbf" points="542.8,-902.5 542.8,-959.5 590.8,-959.5 590.8,-902.5 542.8,-902.5"/>
<text text-anchor="middle" x="566.8" y="-947.5" font-family="Helvetica,sans-Serif" font-size="10.00">TString</text>
<polyline fill="none" stroke="#bfbfbf" points="542.8,-940.5 590.8,-940.5 "/>
<text text-anchor="middle" x="566.8" y="-928.5" font-family="Helvetica,sans-Serif" font-size="10.00"> </text>
<polyline fill="none" stroke="#bfbfbf" points="542.8,-921.5 590.8,-921.5 "/>
<text text-anchor="middle" x="566.8" y="-909.5" font-family="Helvetica,sans-Serif" font-size="10.00"> </text>
</g>
<!-- Node6&#45;&gt;Node2 -->
<g id="edge5" class="edge"><title>Node6&#45;&gt;Node2</title>
<path fill="none" stroke="#404040" d="M562.296,-902.238C556.36,-867.609 544.88,-806.774 529.8,-756 517.868,-715.824 502.866,-673.314 487.783,-633.647"/>
<polygon fill="none" stroke="#404040" points="487.716,-633.47 481.834,-629.298 483.424,-622.264 489.305,-626.436 487.716,-633.47"/>
<text text-anchor="middle" x="570.8" y="-781.5" font-family="Helvetica,sans-Serif" font-size="10.00"> #mURI</text>
<text text-anchor="middle" x="570.8" y="-770.5" font-family="Helvetica,sans-Serif" font-size="10.00">#mBaseFolder</text>
<text text-anchor="middle" x="570.8" y="-759.5" font-family="Helvetica,sans-Serif" font-size="10.00">#mType</text>
</g>
<!-- Node7&#45;&gt;Node2 -->
<g id="edge6" class="edge"><title>Node7&#45;&gt;Node2</title>
<path fill="none" stroke="#404040" d="M132.487,-825.478C141.749,-801.866 152.891,-777.455 165.8,-756 215.551,-673.317 290.105,-591.907 345.406,-536.852"/>
<polygon fill="none" stroke="#404040" points="345.577,-536.684 347.031,-529.621 354.11,-528.247 352.656,-535.31 345.577,-536.684"/>
<text text-anchor="middle" x="195.3" y="-770.5" font-family="Helvetica,sans-Serif" font-size="10.00"> #mPathFilter</text>
</g>
<!-- Node8 -->
<g id="node8" class="node"><title>Node8</title>
<polygon fill="none" stroke="#bfbfbf" points="634.8,-902.5 634.8,-959.5 672.8,-959.5 672.8,-902.5 634.8,-902.5"/>
<text text-anchor="middle" x="653.8" y="-947.5" font-family="Helvetica,sans-Serif" font-size="10.00">TList</text>
<polyline fill="none" stroke="#bfbfbf" points="634.8,-940.5 672.8,-940.5 "/>
<text text-anchor="middle" x="653.8" y="-928.5" font-family="Helvetica,sans-Serif" font-size="10.00"> </text>
<polyline fill="none" stroke="#bfbfbf" points="634.8,-921.5 672.8,-921.5 "/>
<text text-anchor="middle" x="653.8" y="-909.5" font-family="Helvetica,sans-Serif" font-size="10.00"> </text>
</g>
<!-- Node8&#45;&gt;Node2 -->
<g id="edge8" class="edge"><title>Node8&#45;&gt;Node2</title>
<path fill="none" stroke="#404040" d="M649.103,-902.264C642.532,-867.14 628.863,-805.262 606.8,-756 575.898,-687 529.573,-615.8 490.641,-561.457"/>
<polygon fill="none" stroke="#404040" points="490.486,-561.241 483.731,-558.717 483.464,-551.511 490.218,-554.035 490.486,-561.241"/>
<text text-anchor="middle" x="651.3" y="-770.5" font-family="Helvetica,sans-Serif" font-size="10.00"> #mSelections</text>
</g>
<!-- Node9&#45;&gt;Node2 -->
<g id="edge9" class="edge"><title>Node9&#45;&gt;Node2</title>
<path fill="none" stroke="#404040" d="M227.662,-808.548C227.88,-790.706 229.915,-772.719 234.8,-756 256.816,-680.649 305.222,-606.258 346.86,-551.961"/>
<polygon fill="none" stroke="#404040" points="346.922,-551.882 347.441,-544.689 354.28,-542.402 353.761,-549.595 346.922,-551.882"/>
<text text-anchor="middle" x="296.3" y="-770.5" font-family="Helvetica,sans-Serif" font-size="10.00"> #mConditionMetaDataFilter</text>
</g>
<!-- Node10 -->
<g id="node10" class="node"><title>Node10</title>
<polygon fill="none" stroke="#bfbfbf" points="721.8,-902.5 721.8,-959.5 757.8,-959.5 757.8,-902.5 721.8,-902.5"/>
<text text-anchor="middle" x="739.8" y="-947.5" font-family="Helvetica,sans-Serif" font-size="10.00">Int_t</text>
<polyline fill="none" stroke="#bfbfbf" points="721.8,-940.5 757.8,-940.5 "/>
<text text-anchor="middle" x="739.8" y="-928.5" font-family="Helvetica,sans-Serif" font-size="10.00"> </text>
<polyline fill="none" stroke="#bfbfbf" points="721.8,-921.5 757.8,-921.5 "/>
<text text-anchor="middle" x="739.8" y="-909.5" font-family="Helvetica,sans-Serif" font-size="10.00"> </text>
</g>
<!-- Node10&#45;&gt;Node2 -->
<g id="edge11" class="edge"><title>Node10&#45;&gt;Node2</title>
<path fill="none" stroke="#404040" d="M735.355,-902.227C728.769,-866.523 714.145,-803.477 686.8,-756 635.733,-667.336 552.657,-583.817 492.523,-529.785"/>
<polygon fill="none" stroke="#404040" points="492.41,-529.684 485.269,-528.678 483.451,-521.7 490.592,-522.705 492.41,-529.684"/>
<text text-anchor="middle" x="726.3" y="-776" font-family="Helvetica,sans-Serif" font-size="10.00"> #mRun</text>
<text text-anchor="middle" x="726.3" y="-765" font-family="Helvetica,sans-Serif" font-size="10.00">#mVersion</text>
</g>
</g>
</svg>
