<?xml version="1.0" encoding="UTF-8" standalone="no"?>
<!DOCTYPE svg PUBLIC "-//W3C//DTD SVG 1.1//EN"
 "http://www.w3.org/Graphics/SVG/1.1/DTD/svg11.dtd">
<!-- Generated by graphviz version 2.36.0 (20140111.2315)
 -->
<!-- Title: /home/travis/build/AliceO2Group/AliceO2/Utilities/DataFlow/src/TimeframeWriterDevice.cxx Pages: 1 -->
<!--zoomable 298 -->
<svg id="main" version="1.1" xmlns="http://www.w3.org/2000/svg" xmlns:xlink="http://www.w3.org/1999/xlink" xml:space="preserve" onload="init(evt)">
<style type="text/css"><![CDATA[
.edge:hover path { stroke: red; }
.edge:hover polygon { stroke: red; fill: red; }
]]></style>
<script type="text/javascript"><![CDATA[
var edges = document.getElementsByTagName('g');
if (edges && edges.length) {
  for (var i=0;i<edges.length;i++) {
    if (edges[i].id.substr(0,4)=='edge') {
      edges[i].setAttribute('class','edge');
    }
  }
}
]]></script>
        <defs>
                <circle id="rim" cx="0" cy="0" r="7"/>
                <circle id="rim2" cx="0" cy="0" r="3.5"/>
                <g id="zoomPlus">
                        <use xlink:href="#rim" fill="#404040">
                                <set attributeName="fill" to="#808080" begin="zoomplus.mouseover" end="zoomplus.mouseout"/>
                        </use>
                        <path d="M-4,0h8M0,-4v8" fill="none" stroke="white" stroke-width="1.5" pointer-events="none"/>
                </g>
                <g id="zoomMin">
                        <use xlink:href="#rim" fill="#404040">
                                <set attributeName="fill" to="#808080" begin="zoomminus.mouseover" end="zoomminus.mouseout"/>
                        </use>
                        <path d="M-4,0h8" fill="none" stroke="white" stroke-width="1.5" pointer-events="none"/>
                </g>
                <g id="dirArrow">
                        <path fill="none" stroke="white" stroke-width="1.5" d="M0,-3.0v7 M-2.5,-0.5L0,-3.0L2.5,-0.5"/>
                </g>
               <g id="resetDef">
                       <use xlink:href="#rim2" fill="#404040">
                               <set attributeName="fill" to="#808080" begin="reset.mouseover" end="reset.mouseout"/>
                       </use>
               </g>
        </defs>

<script type="text/javascript">
var viewWidth = 1043;
var viewHeight = 298;
var sectionId = 'dynsection-0';
</script>
<script xlink:href="../../svgpan.js"/>
<svg id="graph" class="graph">
<g id="viewport">
<title>/home/travis/build/AliceO2Group/AliceO2/Utilities/DataFlow/src/TimeframeWriterDevice.cxx</title>
<!-- Node1 -->
<g id="node1" class="node"><title>Node1</title>
<polygon fill="#bfbfbf" stroke="black" points="292,-237 292,-289 434,-289 434,-237 292,-237"/>
<text text-anchor="start" x="300" y="-277" font-family="Helvetica,sans-Serif" font-size="10.00">/home/travis/build</text>
<text text-anchor="start" x="300" y="-266" font-family="Helvetica,sans-Serif" font-size="10.00">/AliceO2Group/AliceO2</text>
<text text-anchor="start" x="300" y="-255" font-family="Helvetica,sans-Serif" font-size="10.00">/Utilities/DataFlow/src</text>
<text text-anchor="middle" x="363" y="-244" font-family="Helvetica,sans-Serif" font-size="10.00">/TimeframeWriterDevice.cxx</text>
</g>
<!-- Node2 -->
<g id="node2" class="node"><title>Node2</title>
<polygon fill="none" stroke="#bfbfbf" points="0,-174.5 0,-193.5 44,-193.5 44,-174.5 0,-174.5"/>
<text text-anchor="middle" x="22" y="-181.5" font-family="Helvetica,sans-Serif" font-size="10.00">thread</text>
</g>
<!-- Node1&#45;&gt;Node2 -->
<g id="edge1" class="edge"><title>Node1&#45;&gt;Node2</title>
<path fill="none" stroke="midnightblue" d="M291.804,-252.996C228.098,-243.716 132.735,-226.78 53,-200 51.0871,-199.358 49.1398,-198.624 47.2004,-197.834"/>
<polygon fill="midnightblue" stroke="midnightblue" points="48.3201,-194.499 37.7651,-193.581 45.4433,-200.881 48.3201,-194.499"/>
</g>
<!-- Node3 -->
<g id="node3" class="node"><title>Node3</title>
<polygon fill="none" stroke="#bfbfbf" points="522,-56.5 522,-75.5 568,-75.5 568,-56.5 522,-56.5"/>
<text text-anchor="middle" x="545" y="-63.5" font-family="Helvetica,sans-Serif" font-size="10.00">chrono</text>
</g>
<!-- Node1&#45;&gt;Node3 -->
<g id="edge2" class="edge"><title>Node1&#45;&gt;Node3</title>
<path fill="none" stroke="midnightblue" d="M315.599,-236.87C302.251,-227.249 289.372,-214.926 282,-200 264.681,-164.933 256.784,-141.897 282,-112 296.706,-94.5638 444.467,-77.32 511.836,-70.2939"/>
<polygon fill="midnightblue" stroke="midnightblue" points="512.337,-73.761 521.926,-69.2556 511.62,-66.7978 512.337,-73.761"/>
</g>
<!-- Node4 -->
<g id="node4" class="node"><title>Node4</title>
<g id="a_node4"><a xlink:href="../../dd/dcc/TimeframeWriterDevice_8h.html" target="_top" xlink:title="DataFlow/TimeframeWriter\lDevice.h">
<polygon fill="none" stroke="black" points="62,-169 62,-199 196,-199 196,-169 62,-169"/>
<text text-anchor="start" x="70" y="-187" font-family="Helvetica,sans-Serif" font-size="10.00">DataFlow/TimeframeWriter</text>
<text text-anchor="middle" x="129" y="-176" font-family="Helvetica,sans-Serif" font-size="10.00">Device.h</text>
</a>
</g>
</g>
<!-- Node1&#45;&gt;Node4 -->
<g id="edge3" class="edge"><title>Node1&#45;&gt;Node4</title>
<path fill="none" stroke="midnightblue" d="M291.839,-238.584C256.257,-226.875 213.957,-212.956 181.388,-202.239"/>
<polygon fill="midnightblue" stroke="midnightblue" points="182.204,-198.823 171.611,-199.022 180.016,-205.472 182.204,-198.823"/>
</g>
<!-- Node7 -->
<g id="node7" class="node"><title>Node7</title>
<g id="a_node7"><a xlink:href="../../dc/dcd/DataHeader_8h.html" target="_top" xlink:title="Headers/DataHeader.h">
<polygon fill="none" stroke="black" points="296.5,-56.5 296.5,-75.5 413.5,-75.5 413.5,-56.5 296.5,-56.5"/>
<text text-anchor="middle" x="355" y="-63.5" font-family="Helvetica,sans-Serif" font-size="10.00">Headers/DataHeader.h</text>
</a>
</g>
</g>
<!-- Node1&#45;&gt;Node7 -->
<g id="edge26" class="edge"><title>Node1&#45;&gt;Node7</title>
<path fill="none" stroke="midnightblue" d="M291.742,-238.608C274.447,-229.387 258.056,-216.847 248,-200 227.953,-166.417 226.359,-144.578 248,-112 258.775,-95.779 276.662,-85.3921 294.755,-78.7461"/>
<polygon fill="midnightblue" stroke="midnightblue" points="296.104,-81.9864 304.491,-75.5132 293.898,-75.3431 296.104,-81.9864"/>
</g>
<!-- Node15 -->
<g id="node15" class="node"><title>Node15</title>
<g id="a_node15"><a xlink:href="../../dd/ddb/TimeframeParser_8h.html" target="_top" xlink:title="DataFlow/TimeframeParser.h">
<polygon fill="none" stroke="black" points="290.5,-174.5 290.5,-193.5 435.5,-193.5 435.5,-174.5 290.5,-174.5"/>
<text text-anchor="middle" x="363" y="-181.5" font-family="Helvetica,sans-Serif" font-size="10.00">DataFlow/TimeframeParser.h</text>
</a>
</g>
</g>
<!-- Node1&#45;&gt;Node15 -->
<g id="edge14" class="edge"><title>Node1&#45;&gt;Node15</title>
<path fill="none" stroke="midnightblue" d="M363,-236.787C363,-226.069 363,-213.785 363,-203.871"/>
<polygon fill="midnightblue" stroke="midnightblue" points="366.5,-203.558 363,-193.558 359.5,-203.558 366.5,-203.558"/>
</g>
<!-- Node18 -->
<g id="node18" class="node"><title>Node18</title>
<g id="a_node18"><a xlink:href="../../de/dfa/TimeFrame_8h.html" target="_top" xlink:title="TimeFrame/TimeFrame.h">
<polygon fill="none" stroke="black" points="453.5,-174.5 453.5,-193.5 580.5,-193.5 580.5,-174.5 453.5,-174.5"/>
<text text-anchor="middle" x="517" y="-181.5" font-family="Helvetica,sans-Serif" font-size="10.00">TimeFrame/TimeFrame.h</text>
</a>
</g>
</g>
<!-- Node1&#45;&gt;Node18 -->
<g id="edge17" class="edge"><title>Node1&#45;&gt;Node18</title>
<path fill="none" stroke="midnightblue" d="M413.425,-236.787C439.289,-223.855 469.712,-208.644 490.867,-198.067"/>
<polygon fill="midnightblue" stroke="midnightblue" points="492.506,-201.16 499.885,-193.558 489.375,-194.899 492.506,-201.16"/>
</g>
<!-- Node22 -->
<g id="node22" class="node"><title>Node22</title>
<g id="a_node22"><a xlink:href="../../d2/d1b/SubframeMetadata_8h.html" target="_top" xlink:title="Headers/SubframeMetadata.h">
<polygon fill="none" stroke="black" points="598.5,-174.5 598.5,-193.5 745.5,-193.5 745.5,-174.5 598.5,-174.5"/>
<text text-anchor="middle" x="672" y="-181.5" font-family="Helvetica,sans-Serif" font-size="10.00">Headers/SubframeMetadata.h</text>
</a>
</g>
</g>
<!-- Node1&#45;&gt;Node22 -->
<g id="edge24" class="edge"><title>Node1&#45;&gt;Node22</title>
<path fill="none" stroke="midnightblue" d="M434.279,-244.238C493.974,-229.363 577.294,-208.6 627.786,-196.018"/>
<polygon fill="midnightblue" stroke="midnightblue" points="628.879,-199.352 637.736,-193.538 627.186,-192.56 628.879,-199.352"/>
</g>
<!-- Node24 -->
<g id="node24" class="node"><title>Node24</title>
<polygon fill="none" stroke="#bfbfbf" points="764,-174.5 764,-193.5 910,-193.5 910,-174.5 764,-174.5"/>
<text text-anchor="middle" x="837" y="-181.5" font-family="Helvetica,sans-Serif" font-size="10.00">options/FairMQProgOptions.h</text>
</g>
<!-- Node1&#45;&gt;Node24 -->
<g id="edge27" class="edge"><title>Node1&#45;&gt;Node24</title>
<path fill="none" stroke="midnightblue" d="M434.067,-251.202C512.477,-239.178 642.362,-218.937 754,-200 762.706,-198.523 771.916,-196.91 780.91,-195.306"/>
<polygon fill="midnightblue" stroke="midnightblue" points="781.709,-198.719 790.934,-193.507 780.473,-191.829 781.709,-198.719"/>
</g>
<!-- Node25 -->
<g id="node25" class="node"><title>Node25</title>
<polygon fill="none" stroke="#bfbfbf" points="928.5,-174.5 928.5,-193.5 1035.5,-193.5 1035.5,-174.5 928.5,-174.5"/>
<text text-anchor="middle" x="982" y="-181.5" font-family="Helvetica,sans-Serif" font-size="10.00">boost/filesystem.hpp</text>
</g>
<!-- Node1&#45;&gt;Node25 -->
<g id="edge28" class="edge"><title>Node1&#45;&gt;Node25</title>
<path fill="none" stroke="midnightblue" d="M434.048,-256.885C540.149,-248.613 746.047,-230.116 919,-200 925.698,-198.834 932.747,-197.382 939.607,-195.844"/>
<polygon fill="midnightblue" stroke="midnightblue" points="940.512,-199.226 949.46,-193.552 938.927,-192.408 940.512,-199.226"/>
</g>
<!-- Node5 -->
<g id="node5" class="node"><title>Node5</title>
<g id="a_node5"><a xlink:href="../../d2/dee/O2Device_8h.html" target="_top" xlink:title="O2Device/O2Device.h">
<polygon fill="none" stroke="black" points="12.5,-112.5 12.5,-131.5 127.5,-131.5 127.5,-112.5 12.5,-112.5"/>
<text text-anchor="middle" x="70" y="-119.5" font-family="Helvetica,sans-Serif" font-size="10.00">O2Device/O2Device.h</text>
</a>
</g>
</g>
<!-- Node4&#45;&gt;Node5 -->
<g id="edge4" class="edge"><title>Node4&#45;&gt;Node5</title>
<path fill="none" stroke="midnightblue" d="M115.018,-168.781C106.179,-159.792 94.7426,-148.162 85.6085,-138.873"/>
<polygon fill="midnightblue" stroke="midnightblue" points="88.092,-136.407 78.585,-131.731 83.1009,-141.315 88.092,-136.407"/>
</g>
<!-- Node14 -->
<g id="node14" class="node"><title>Node14</title>
<polygon fill="none" stroke="#bfbfbf" points="146,-112.5 146,-131.5 196,-131.5 196,-112.5 146,-112.5"/>
<text text-anchor="middle" x="171" y="-119.5" font-family="Helvetica,sans-Serif" font-size="10.00">fstream</text>
</g>
<!-- Node4&#45;&gt;Node14 -->
<g id="edge13" class="edge"><title>Node4&#45;&gt;Node14</title>
<path fill="none" stroke="midnightblue" d="M138.953,-168.781C144.994,-160.152 152.738,-149.088 159.101,-139.999"/>
<polygon fill="midnightblue" stroke="midnightblue" points="162.021,-141.93 164.889,-131.731 156.287,-137.916 162.021,-141.93"/>
</g>
<!-- Node6 -->
<g id="node6" class="node"><title>Node6</title>
<polygon fill="none" stroke="#bfbfbf" points="4,-56.5 4,-75.5 92,-75.5 92,-56.5 4,-56.5"/>
<text text-anchor="middle" x="48" y="-63.5" font-family="Helvetica,sans-Serif" font-size="10.00">FairMQDevice.h</text>
</g>
<!-- Node5&#45;&gt;Node6 -->
<g id="edge5" class="edge"><title>Node5&#45;&gt;Node6</title>
<path fill="none" stroke="midnightblue" d="M66.3671,-112.083C63.3878,-104.77 59.0739,-94.1814 55.3755,-85.1034"/>
<polygon fill="midnightblue" stroke="midnightblue" points="58.5796,-83.6914 51.5653,-75.7511 52.097,-86.3326 58.5796,-83.6914"/>
</g>
<!-- Node5&#45;&gt;Node7 -->
<g id="edge6" class="edge"><title>Node5&#45;&gt;Node7</title>
<path fill="none" stroke="midnightblue" d="M115.159,-112.444C165.294,-102.944 246.22,-87.611 300.006,-77.4198"/>
<polygon fill="midnightblue" stroke="midnightblue" points="300.879,-80.8169 310.052,-75.5164 299.575,-73.9393 300.879,-80.8169"/>
</g>
<!-- Node13 -->
<g id="node13" class="node"><title>Node13</title>
<polygon fill="none" stroke="#bfbfbf" points="110.5,-56.5 110.5,-75.5 169.5,-75.5 169.5,-56.5 110.5,-56.5"/>
<text text-anchor="middle" x="140" y="-63.5" font-family="Helvetica,sans-Serif" font-size="10.00">stdexcept</text>
</g>
<!-- Node5&#45;&gt;Node13 -->
<g id="edge12" class="edge"><title>Node5&#45;&gt;Node13</title>
<path fill="none" stroke="midnightblue" d="M81.2467,-112.324C91.7974,-104.185 107.801,-91.8395 120.442,-82.0874"/>
<polygon fill="midnightblue" stroke="midnightblue" points="122.769,-84.7132 128.549,-75.8339 118.493,-79.1707 122.769,-84.7132"/>
</g>
<!-- Node8 -->
<g id="node8" class="node"><title>Node8</title>
<polygon fill="none" stroke="#bfbfbf" points="299,-0.5 299,-19.5 345,-19.5 345,-0.5 299,-0.5"/>
<text text-anchor="middle" x="322" y="-7.5" font-family="Helvetica,sans-Serif" font-size="10.00">cstdint</text>
</g>
<!-- Node7&#45;&gt;Node8 -->
<g id="edge7" class="edge"><title>Node7&#45;&gt;Node8</title>
<path fill="none" stroke="midnightblue" d="M349.551,-56.083C344.986,-48.6127 338.332,-37.7244 332.707,-28.5199"/>
<polygon fill="midnightblue" stroke="midnightblue" points="335.549,-26.4588 327.348,-19.7511 329.576,-30.109 335.549,-26.4588"/>
</g>
<!-- Node9 -->
<g id="node9" class="node"><title>Node9</title>
<polygon fill="none" stroke="#bfbfbf" points="363,-0.5 363,-19.5 415,-19.5 415,-0.5 363,-0.5"/>
<text text-anchor="middle" x="389" y="-7.5" font-family="Helvetica,sans-Serif" font-size="10.00">memory</text>
</g>
<!-- Node7&#45;&gt;Node9 -->
<g id="edge8" class="edge"><title>Node7&#45;&gt;Node9</title>
<path fill="none" stroke="midnightblue" d="M360.614,-56.083C365.367,-48.5341 372.318,-37.4948 378.152,-28.2298"/>
<polygon fill="midnightblue" stroke="midnightblue" points="381.124,-30.0783 383.49,-19.7511 375.2,-26.3486 381.124,-30.0783"/>
</g>
<!-- Node10 -->
<g id="node10" class="node"><title>Node10</title>
<polygon fill="none" stroke="#bfbfbf" points="541.5,-0.5 541.5,-19.5 590.5,-19.5 590.5,-0.5 541.5,-0.5"/>
<text text-anchor="middle" x="566" y="-7.5" font-family="Helvetica,sans-Serif" font-size="10.00">cassert</text>
</g>
<!-- Node7&#45;&gt;Node10 -->
<g id="edge9" class="edge"><title>Node7&#45;&gt;Node10</title>
<path fill="none" stroke="midnightblue" d="M388.434,-56.4435C427.558,-46.4306 492.013,-29.9351 531.564,-19.813"/>
<polygon fill="midnightblue" stroke="midnightblue" points="532.474,-23.1931 541.294,-17.323 530.738,-16.4117 532.474,-23.1931"/>
</g>
<!-- Node11 -->
<g id="node11" class="node"><title>Node11</title>
<polygon fill="none" stroke="#bfbfbf" points="433,-0.5 433,-19.5 479,-19.5 479,-0.5 433,-0.5"/>
<text text-anchor="middle" x="456" y="-7.5" font-family="Helvetica,sans-Serif" font-size="10.00">cstring</text>
</g>
<!-- Node7&#45;&gt;Node11 -->
<g id="edge10" class="edge"><title>Node7&#45;&gt;Node11</title>
<path fill="none" stroke="midnightblue" d="M371.227,-56.324C387.351,-47.7034 412.3,-34.3643 430.964,-24.3855"/>
<polygon fill="midnightblue" stroke="midnightblue" points="432.644,-27.456 439.813,-19.6545 429.344,-21.283 432.644,-27.456"/>
</g>
<!-- Node12 -->
<g id="node12" class="node"><title>Node12</title>
<polygon fill="none" stroke="#bfbfbf" points="225,-0.5 225,-19.5 281,-19.5 281,-0.5 225,-0.5"/>
<text text-anchor="middle" x="253" y="-7.5" font-family="Helvetica,sans-Serif" font-size="10.00">algorithm</text>
</g>
<!-- Node7&#45;&gt;Node12 -->
<g id="edge11" class="edge"><title>Node7&#45;&gt;Node12</title>
<path fill="none" stroke="midnightblue" d="M338.612,-56.324C322.329,-47.7034 297.133,-34.3643 278.284,-24.3855"/>
<polygon fill="midnightblue" stroke="midnightblue" points="279.823,-21.2402 269.347,-19.6545 276.548,-27.4267 279.823,-21.2402"/>
</g>
<!-- Node16 -->
<g id="node16" class="node"><title>Node16</title>
<polygon fill="none" stroke="#bfbfbf" points="290.5,-112.5 290.5,-131.5 335.5,-131.5 335.5,-112.5 290.5,-112.5"/>
<text text-anchor="middle" x="313" y="-119.5" font-family="Helvetica,sans-Serif" font-size="10.00">iosfwd</text>
</g>
<!-- Node15&#45;&gt;Node16 -->
<g id="edge15" class="edge"><title>Node15&#45;&gt;Node16</title>
<path fill="none" stroke="midnightblue" d="M355.836,-174.403C348.262,-165.314 336.13,-150.756 326.707,-139.449"/>
<polygon fill="midnightblue" stroke="midnightblue" points="329.241,-137.022 320.15,-131.581 323.864,-141.503 329.241,-137.022"/>
</g>
<!-- Node17 -->
<g id="node17" class="node"><title>Node17</title>
<polygon fill="none" stroke="#bfbfbf" points="353.5,-112.5 353.5,-131.5 412.5,-131.5 412.5,-112.5 353.5,-112.5"/>
<text text-anchor="middle" x="383" y="-119.5" font-family="Helvetica,sans-Serif" font-size="10.00">functional</text>
</g>
<!-- Node15&#45;&gt;Node17 -->
<g id="edge16" class="edge"><title>Node15&#45;&gt;Node17</title>
<path fill="none" stroke="midnightblue" d="M365.866,-174.403C368.747,-165.76 373.277,-152.17 376.955,-141.134"/>
<polygon fill="midnightblue" stroke="midnightblue" points="380.298,-142.174 380.14,-131.581 373.657,-139.961 380.298,-142.174"/>
</g>
<!-- Node19 -->
<g id="node19" class="node"><title>Node19</title>
<polygon fill="none" stroke="#bfbfbf" points="431,-112.5 431,-131.5 511,-131.5 511,-112.5 431,-112.5"/>
<text text-anchor="middle" x="471" y="-119.5" font-family="Helvetica,sans-Serif" font-size="10.00">FairMQParts.h</text>
</g>
<!-- Node18&#45;&gt;Node19 -->
<g id="edge18" class="edge"><title>Node18&#45;&gt;Node19</title>
<path fill="none" stroke="midnightblue" d="M510.409,-174.403C503.509,-165.403 492.498,-151.041 483.866,-139.782"/>
<polygon fill="midnightblue" stroke="midnightblue" points="486.44,-137.387 477.578,-131.581 480.885,-141.646 486.44,-137.387"/>
</g>
<!-- Node20 -->
<g id="node20" class="node"><title>Node20</title>
<polygon fill="none" stroke="#bfbfbf" points="529.5,-112.5 529.5,-131.5 588.5,-131.5 588.5,-112.5 529.5,-112.5"/>
<text text-anchor="middle" x="559" y="-119.5" font-family="Helvetica,sans-Serif" font-size="10.00">TObject.h</text>
</g>
<!-- Node18&#45;&gt;Node20 -->
<g id="edge19" class="edge"><title>Node18&#45;&gt;Node20</title>
<path fill="none" stroke="midnightblue" d="M523.018,-174.403C529.318,-165.403 539.371,-151.041 547.252,-139.782"/>
<polygon fill="midnightblue" stroke="midnightblue" points="550.126,-141.78 552.994,-131.581 544.392,-137.766 550.126,-141.78"/>
</g>
<!-- Node21 -->
<g id="node21" class="node"><title>Node21</title>
<g id="a_node21"><a xlink:href="../../d4/da1/TimeStamp_8h.html" target="_top" xlink:title="A std chrono implementation of LHC clock and timestamp. ">
<polygon fill="none" stroke="black" points="606.5,-112.5 606.5,-131.5 721.5,-131.5 721.5,-112.5 606.5,-112.5"/>
<text text-anchor="middle" x="664" y="-119.5" font-family="Helvetica,sans-Serif" font-size="10.00">Headers/TimeStamp.h</text>
</a>
</g>
</g>
<!-- Node18&#45;&gt;Node21 -->
<g id="edge20" class="edge"><title>Node18&#45;&gt;Node21</title>
<path fill="none" stroke="midnightblue" d="M538.062,-174.403C563.059,-164.2 604.942,-147.105 633.487,-135.454"/>
<polygon fill="midnightblue" stroke="midnightblue" points="635.042,-138.6 642.978,-131.581 632.396,-132.119 635.042,-138.6"/>
</g>
<!-- Node21&#45;&gt;Node3 -->
<g id="edge22" class="edge"><title>Node21&#45;&gt;Node3</title>
<path fill="none" stroke="midnightblue" d="M645.144,-112.444C625.734,-103.636 595.27,-89.8116 573.035,-79.722"/>
<polygon fill="midnightblue" stroke="midnightblue" points="574.32,-76.4615 563.768,-75.5164 571.428,-82.836 574.32,-76.4615"/>
</g>
<!-- Node21&#45;&gt;Node7 -->
<g id="edge21" class="edge"><title>Node21&#45;&gt;Node7</title>
<path fill="none" stroke="midnightblue" d="M615.038,-112.444C560.456,-102.905 472.21,-87.4834 413.899,-77.293"/>
<polygon fill="midnightblue" stroke="midnightblue" points="414.186,-73.7902 403.733,-75.5164 412.981,-80.6857 414.186,-73.7902"/>
</g>
<!-- Node21&#45;&gt;Node10 -->
<g id="edge23" class="edge"><title>Node21&#45;&gt;Node10</title>
<path fill="none" stroke="midnightblue" d="M656.31,-112.368C639.994,-94.0547 601.68,-51.0489 580.577,-27.3624"/>
<polygon fill="midnightblue" stroke="midnightblue" points="582.92,-24.7298 573.654,-19.5914 577.693,-29.3863 582.92,-24.7298"/>
</g>
<!-- Node23 -->
<g id="node23" class="node"><title>Node23</title>
<polygon fill="none" stroke="#bfbfbf" points="739,-112.5 739,-131.5 783,-131.5 783,-112.5 739,-112.5"/>
<text text-anchor="middle" x="761" y="-119.5" font-family="Helvetica,sans-Serif" font-size="10.00">vector</text>
</g>
<!-- Node22&#45;&gt;Node23 -->
<g id="edge25" class="edge"><title>Node22&#45;&gt;Node23</title>
<path fill="none" stroke="midnightblue" d="M684.752,-174.403C699.027,-164.78 722.397,-149.024 739.508,-137.489"/>
<polygon fill="midnightblue" stroke="midnightblue" points="741.937,-140.073 748.272,-131.581 738.024,-134.268 741.937,-140.073"/>
</g>
</g>
</svg>
        <g id="navigator" transform="translate(0 0)" fill="#404254">
                <rect fill="#f2f5e9" fill-opacity="0.5" stroke="#606060" stroke-width=".5" x="0" y="0" width="60" height="60"/>
                <use id="zoomplus" xlink:href="#zoomPlus" x="17" y="9" onmousedown="handleZoom(evt,'in')"/>
                <use id="zoomminus" xlink:href="#zoomMin" x="42" y="9" onmousedown="handleZoom(evt,'out')"/>
                <use id="reset" xlink:href="#resetDef" x="30" y="36" onmousedown="handleReset()"/>
                <g id="arrowUp" xlink:href="#dirArrow" transform="translate(30 24)" onmousedown="handlePan(0,-1)">
                  <use xlink:href="#rim" fill="#404040">
                        <set attributeName="fill" to="#808080" begin="arrowUp.mouseover" end="arrowUp.mouseout"/>
                  </use>
                  <path fill="none" stroke="white" stroke-width="1.5" d="M0,-3.0v7 M-2.5,-0.5L0,-3.0L2.5,-0.5"/>
                </g>
                <g id="arrowRight" xlink:href="#dirArrow" transform="rotate(90) translate(36 -43)" onmousedown="handlePan(1,0)">
                  <use xlink:href="#rim" fill="#404040">
                        <set attributeName="fill" to="#808080" begin="arrowRight.mouseover" end="arrowRight.mouseout"/>
                  </use>
                  <path fill="none" stroke="white" stroke-width="1.5" d="M0,-3.0v7 M-2.5,-0.5L0,-3.0L2.5,-0.5"/>
                </g>
                <g id="arrowDown" xlink:href="#dirArrow" transform="rotate(180) translate(-30 -48)" onmousedown="handlePan(0,1)">
                  <use xlink:href="#rim" fill="#404040">
                        <set attributeName="fill" to="#808080" begin="arrowDown.mouseover" end="arrowDown.mouseout"/>
                  </use>
                  <path fill="none" stroke="white" stroke-width="1.5" d="M0,-3.0v7 M-2.5,-0.5L0,-3.0L2.5,-0.5"/>
                </g>
                <g id="arrowLeft" xlink:href="#dirArrow" transform="rotate(270) translate(-36 17)" onmousedown="handlePan(-1,0)">
                  <use xlink:href="#rim" fill="#404040">
                        <set attributeName="fill" to="#808080" begin="arrowLeft.mouseover" end="arrowLeft.mouseout"/>
                  </use>
                  <path fill="none" stroke="white" stroke-width="1.5" d="M0,-3.0v7 M-2.5,-0.5L0,-3.0L2.5,-0.5"/>
                </g>
        </g>
        <svg viewBox="0 0 15 15" width="100%" height="30px" preserveAspectRatio="xMaxYMin meet">
         <g id="arrow_out" transform="scale(0.3 0.3)">
          <a xlink:href="TimeframeWriterDevice_8cxx__incl_org.svg" target="_base">
           <rect id="button" ry="5" rx="5" y="6" x="6" height="38" width="38"
                fill="#f2f5e9" fill-opacity="0.5" stroke="#606060" stroke-width="1.0"/>
           <path id="arrow"
             d="M 11.500037,31.436501 C 11.940474,20.09759 22.043105,11.32322 32.158766,21.979434 L 37.068811,17.246167 C 37.068811,17.246167 37.088388,32 37.088388,32 L 22.160133,31.978069 C 22.160133,31.978069 26.997745,27.140456 26.997745,27.140456 C 18.528582,18.264221 13.291696,25.230495 11.500037,31.436501 z"
             style="fill:#404040;"/>
          </a>
         </g>
        </svg>
</svg>
