<?xml version="1.0" encoding="UTF-8" standalone="no"?>
<!DOCTYPE svg PUBLIC "-//W3C//DTD SVG 1.1//EN"
 "http://www.w3.org/Graphics/SVG/1.1/DTD/svg11.dtd">
<!-- Generated by graphviz version 2.36.0 (20140111.2315)
 -->
<!-- Title: /home/travis/build/AliceO2Group/AliceO2/Detectors/ITSMFT/MFT/base/src/Segmentation.cxx Pages: 1 -->
<!--zoomable 342 -->
<svg id="main" version="1.1" xmlns="http://www.w3.org/2000/svg" xmlns:xlink="http://www.w3.org/1999/xlink" xml:space="preserve" onload="init(evt)">
<style type="text/css"><![CDATA[
.edge:hover path { stroke: red; }
.edge:hover polygon { stroke: red; fill: red; }
]]></style>
<script type="text/javascript"><![CDATA[
var edges = document.getElementsByTagName('g');
if (edges && edges.length) {
  for (var i=0;i<edges.length;i++) {
    if (edges[i].id.substr(0,4)=='edge') {
      edges[i].setAttribute('class','edge');
    }
  }
}
]]></script>
        <defs>
                <circle id="rim" cx="0" cy="0" r="7"/>
                <circle id="rim2" cx="0" cy="0" r="3.5"/>
                <g id="zoomPlus">
                        <use xlink:href="#rim" fill="#404040">
                                <set attributeName="fill" to="#808080" begin="zoomplus.mouseover" end="zoomplus.mouseout"/>
                        </use>
                        <path d="M-4,0h8M0,-4v8" fill="none" stroke="white" stroke-width="1.5" pointer-events="none"/>
                </g>
                <g id="zoomMin">
                        <use xlink:href="#rim" fill="#404040">
                                <set attributeName="fill" to="#808080" begin="zoomminus.mouseover" end="zoomminus.mouseout"/>
                        </use>
                        <path d="M-4,0h8" fill="none" stroke="white" stroke-width="1.5" pointer-events="none"/>
                </g>
                <g id="dirArrow">
                        <path fill="none" stroke="white" stroke-width="1.5" d="M0,-3.0v7 M-2.5,-0.5L0,-3.0L2.5,-0.5"/>
                </g>
               <g id="resetDef">
                       <use xlink:href="#rim2" fill="#404040">
                               <set attributeName="fill" to="#808080" begin="reset.mouseover" end="reset.mouseout"/>
                       </use>
               </g>
        </defs>

<script type="text/javascript">
var viewWidth = 560;
var viewHeight = 342;
var sectionId = 'dynsection-0';
</script>
<script xlink:href="../../svgpan.js"/>
<svg id="graph" class="graph">
<g id="viewport">
<title>/home/travis/build/AliceO2Group/AliceO2/Detectors/ITSMFT/MFT/base/src/Segmentation.cxx</title>
<!-- Node1 -->
<g id="node1" class="node"><title>Node1</title>
<polygon fill="#bfbfbf" stroke="black" points="141.5,-281 141.5,-333 280.5,-333 280.5,-281 141.5,-281"/>
<text text-anchor="start" x="149.5" y="-321" font-family="Helvetica,sans-Serif" font-size="10.00">/home/travis/build</text>
<text text-anchor="start" x="149.5" y="-310" font-family="Helvetica,sans-Serif" font-size="10.00">/AliceO2Group/AliceO2</text>
<text text-anchor="start" x="149.5" y="-299" font-family="Helvetica,sans-Serif" font-size="10.00">/Detectors/ITSMFT/MFT</text>
<text text-anchor="middle" x="211" y="-288" font-family="Helvetica,sans-Serif" font-size="10.00">/base/src/Segmentation.cxx</text>
</g>
<!-- Node2 -->
<g id="node2" class="node"><title>Node2</title>
<polygon fill="none" stroke="#bfbfbf" points="-0.5,-224.5 -0.5,-243.5 70.5,-243.5 70.5,-224.5 -0.5,-224.5"/>
<text text-anchor="middle" x="35" y="-231.5" font-family="Helvetica,sans-Serif" font-size="10.00">FairLogger.h</text>
</g>
<!-- Node1&#45;&gt;Node2 -->
<g id="edge1" class="edge"><title>Node1&#45;&gt;Node2</title>
<path fill="none" stroke="midnightblue" d="M148.949,-280.968C120.844,-269.63 88.862,-256.728 65.949,-247.485"/>
<polygon fill="midnightblue" stroke="midnightblue" points="66.998,-244.134 56.4147,-243.639 64.3791,-250.626 66.998,-244.134"/>
</g>
<!-- Node3 -->
<g id="node3" class="node"><title>Node3</title>
<g id="a_node3"><a xlink:href="../../d9/de7/LadderSegmentation_8h.html" target="_top" xlink:title="Description of the virtual segmentation of a ladder. ">
<polygon fill="none" stroke="black" points="23,-168.5 23,-187.5 183,-187.5 183,-168.5 23,-168.5"/>
<text text-anchor="middle" x="103" y="-175.5" font-family="Helvetica,sans-Serif" font-size="10.00">MFTBase/LadderSegmentation.h</text>
</a>
</g>
</g>
<!-- Node1&#45;&gt;Node3 -->
<g id="edge2" class="edge"><title>Node1&#45;&gt;Node3</title>
<path fill="none" stroke="midnightblue" d="M157.687,-280.853C142.477,-271.292 127.265,-259.006 117,-244 107.733,-230.453 104.441,-211.902 103.346,-198.086"/>
<polygon fill="midnightblue" stroke="midnightblue" points="106.829,-197.63 102.86,-187.807 99.8364,-197.961 106.829,-197.63"/>
</g>
<!-- Node9 -->
<g id="node9" class="node"><title>Node9</title>
<g id="a_node9"><a xlink:href="../../dc/d53/HalfDiskSegmentation_8h.html" target="_top" xlink:title="Class for the description of the structure of a half&#45;disk. ">
<polygon fill="none" stroke="black" points="126.5,-224.5 126.5,-243.5 295.5,-243.5 295.5,-224.5 126.5,-224.5"/>
<text text-anchor="middle" x="211" y="-231.5" font-family="Helvetica,sans-Serif" font-size="10.00">MFTBase/HalfDiskSegmentation.h</text>
</a>
</g>
</g>
<!-- Node1&#45;&gt;Node9 -->
<g id="edge9" class="edge"><title>Node1&#45;&gt;Node9</title>
<path fill="none" stroke="midnightblue" d="M211,-280.768C211,-271.89 211,-262.074 211,-253.816"/>
<polygon fill="midnightblue" stroke="midnightblue" points="214.5,-253.757 211,-243.757 207.5,-253.757 214.5,-253.757"/>
</g>
<!-- Node11 -->
<g id="node11" class="node"><title>Node11</title>
<g id="a_node11"><a xlink:href="../../d2/d77/HalfSegmentation_8h.html" target="_top" xlink:title="Segmentation class for each half of the ALICE Muon Forward Tracker. ">
<polygon fill="none" stroke="black" points="313.5,-224.5 313.5,-243.5 462.5,-243.5 462.5,-224.5 313.5,-224.5"/>
<text text-anchor="middle" x="388" y="-231.5" font-family="Helvetica,sans-Serif" font-size="10.00">MFTBase/HalfSegmentation.h</text>
</a>
</g>
</g>
<!-- Node1&#45;&gt;Node11 -->
<g id="edge13" class="edge"><title>Node1&#45;&gt;Node11</title>
<path fill="none" stroke="midnightblue" d="M273.404,-280.968C301.668,-269.63 333.832,-256.728 356.875,-247.485"/>
<polygon fill="midnightblue" stroke="midnightblue" points="358.486,-250.61 366.464,-243.639 355.879,-244.113 358.486,-250.61"/>
</g>
<!-- Node12 -->
<g id="node12" class="node"><title>Node12</title>
<g id="a_node12"><a xlink:href="../../dc/d4a/Segmentation_8h.html" target="_top" xlink:title="Class for the virtual segmentation of the ALICE Muon Forward Tracker. ">
<polygon fill="none" stroke="black" points="421.5,-168.5 421.5,-187.5 552.5,-187.5 552.5,-168.5 421.5,-168.5"/>
<text text-anchor="middle" x="487" y="-175.5" font-family="Helvetica,sans-Serif" font-size="10.00">MFTBase/Segmentation.h</text>
</a>
</g>
</g>
<!-- Node1&#45;&gt;Node12 -->
<g id="edge20" class="edge"><title>Node1&#45;&gt;Node12</title>
<path fill="none" stroke="midnightblue" d="M280.573,-297.64C348.19,-288.111 444.449,-270.359 471,-244 483.104,-231.983 486.589,-212.381 487.358,-197.84"/>
<polygon fill="midnightblue" stroke="midnightblue" points="490.863,-197.555 487.506,-187.506 483.863,-197.455 490.863,-197.555"/>
</g>
<!-- Node4 -->
<g id="node4" class="node"><title>Node4</title>
<polygon fill="none" stroke="#bfbfbf" points="279.5,-112.5 279.5,-131.5 364.5,-131.5 364.5,-112.5 279.5,-112.5"/>
<text text-anchor="middle" x="322" y="-119.5" font-family="Helvetica,sans-Serif" font-size="10.00">TClonesArray.h</text>
</g>
<!-- Node3&#45;&gt;Node4 -->
<g id="edge3" class="edge"><title>Node3&#45;&gt;Node4</title>
<path fill="none" stroke="midnightblue" d="M137.701,-168.444C175.585,-159.102 236.349,-144.119 277.662,-133.933"/>
<polygon fill="midnightblue" stroke="midnightblue" points="278.59,-137.309 287.461,-131.516 276.914,-130.512 278.59,-137.309"/>
</g>
<!-- Node5 -->
<g id="node5" class="node"><title>Node5</title>
<g id="a_node5"><a xlink:href="../../d3/de7/VSegmentation_8h.html" target="_top" xlink:title="Abstract base class for MFT Segmentation description. ">
<polygon fill="none" stroke="black" points="142.5,-56.5 142.5,-75.5 279.5,-75.5 279.5,-56.5 142.5,-56.5"/>
<text text-anchor="middle" x="211" y="-63.5" font-family="Helvetica,sans-Serif" font-size="10.00">MFTBase/VSegmentation.h</text>
</a>
</g>
</g>
<!-- Node3&#45;&gt;Node5 -->
<g id="edge4" class="edge"><title>Node3&#45;&gt;Node5</title>
<path fill="none" stroke="midnightblue" d="M76.3515,-168.458C45.95,-157.313 2.77754,-136.337 22,-112 35.9751,-94.3068 86.8984,-82.8209 132.368,-75.8843"/>
<polygon fill="midnightblue" stroke="midnightblue" points="132.886,-79.3458 142.272,-74.4302 131.869,-72.42 132.886,-79.3458"/>
</g>
<!-- Node8 -->
<g id="node8" class="node"><title>Node8</title>
<g id="a_node8"><a xlink:href="../../d3/dbd/ChipSegmentation_8h.html" target="_top" xlink:title="Chip (sensor) segmentation description. ">
<polygon fill="none" stroke="black" points="31.5,-112.5 31.5,-131.5 182.5,-131.5 182.5,-112.5 31.5,-112.5"/>
<text text-anchor="middle" x="107" y="-119.5" font-family="Helvetica,sans-Serif" font-size="10.00">MFTBase/ChipSegmentation.h</text>
</a>
</g>
</g>
<!-- Node3&#45;&gt;Node8 -->
<g id="edge7" class="edge"><title>Node3&#45;&gt;Node8</title>
<path fill="none" stroke="midnightblue" d="M103.661,-168.083C104.185,-161.006 104.936,-150.861 105.594,-141.986"/>
<polygon fill="midnightblue" stroke="midnightblue" points="109.103,-141.982 106.352,-131.751 102.123,-141.465 109.103,-141.982"/>
</g>
<!-- Node6 -->
<g id="node6" class="node"><title>Node6</title>
<polygon fill="none" stroke="#bfbfbf" points="362,-0.5 362,-19.5 424,-19.5 424,-0.5 362,-0.5"/>
<text text-anchor="middle" x="393" y="-7.5" font-family="Helvetica,sans-Serif" font-size="10.00">TNamed.h</text>
</g>
<!-- Node5&#45;&gt;Node6 -->
<g id="edge5" class="edge"><title>Node5&#45;&gt;Node6</title>
<path fill="none" stroke="midnightblue" d="M239.838,-56.4435C270.856,-47.2406 320.329,-32.5617 354.618,-22.3879"/>
<polygon fill="midnightblue" stroke="midnightblue" points="355.705,-25.7164 364.296,-19.5164 353.714,-19.0055 355.705,-25.7164"/>
</g>
<!-- Node7 -->
<g id="node7" class="node"><title>Node7</title>
<polygon fill="none" stroke="#bfbfbf" points="173,-0.5 173,-19.5 249,-19.5 249,-0.5 173,-0.5"/>
<text text-anchor="middle" x="211" y="-7.5" font-family="Helvetica,sans-Serif" font-size="10.00">TGeoMatrix.h</text>
</g>
<!-- Node5&#45;&gt;Node7 -->
<g id="edge6" class="edge"><title>Node5&#45;&gt;Node7</title>
<path fill="none" stroke="midnightblue" d="M211,-56.083C211,-49.0059 211,-38.8611 211,-29.9865"/>
<polygon fill="midnightblue" stroke="midnightblue" points="214.5,-29.751 211,-19.7511 207.5,-29.7511 214.5,-29.751"/>
</g>
<!-- Node8&#45;&gt;Node5 -->
<g id="edge8" class="edge"><title>Node8&#45;&gt;Node5</title>
<path fill="none" stroke="midnightblue" d="M123.709,-112.324C140.312,-103.703 166.002,-90.3643 185.22,-80.3855"/>
<polygon fill="midnightblue" stroke="midnightblue" points="187.07,-83.3689 194.332,-75.6545 183.844,-77.1565 187.07,-83.3689"/>
</g>
<!-- Node9&#45;&gt;Node3 -->
<g id="edge11" class="edge"><title>Node9&#45;&gt;Node3</title>
<path fill="none" stroke="midnightblue" d="M193.648,-224.324C176.328,-215.664 149.485,-202.242 129.498,-192.249"/>
<polygon fill="midnightblue" stroke="midnightblue" points="130.819,-188.996 120.309,-187.655 127.688,-195.257 130.819,-188.996"/>
</g>
<!-- Node9&#45;&gt;Node5 -->
<g id="edge12" class="edge"><title>Node9&#45;&gt;Node5</title>
<path fill="none" stroke="midnightblue" d="M211,-224.075C211,-197.945 211,-121.211 211,-85.577"/>
<polygon fill="midnightblue" stroke="midnightblue" points="214.5,-85.5681 211,-75.5681 207.5,-85.5681 214.5,-85.5681"/>
</g>
<!-- Node10 -->
<g id="node10" class="node"><title>Node10</title>
<polygon fill="none" stroke="#bfbfbf" points="239.5,-168.5 239.5,-187.5 320.5,-187.5 320.5,-168.5 239.5,-168.5"/>
<text text-anchor="middle" x="280" y="-175.5" font-family="Helvetica,sans-Serif" font-size="10.00">TXMLEngine.h</text>
</g>
<!-- Node9&#45;&gt;Node10 -->
<g id="edge10" class="edge"><title>Node9&#45;&gt;Node10</title>
<path fill="none" stroke="midnightblue" d="M222.086,-224.324C232.486,-216.185 248.261,-203.839 260.722,-194.087"/>
<polygon fill="midnightblue" stroke="midnightblue" points="262.994,-196.753 268.712,-187.834 258.68,-191.241 262.994,-196.753"/>
</g>
<!-- Node11&#45;&gt;Node5 -->
<g id="edge19" class="edge"><title>Node11&#45;&gt;Node5</title>
<path fill="none" stroke="midnightblue" d="M381.419,-224.276C371.18,-211.07 350.378,-185.673 329,-168 305.325,-148.428 293.675,-151.572 270,-132 252.463,-117.503 235.315,-97.8074 224.066,-83.9078"/>
<polygon fill="midnightblue" stroke="midnightblue" points="226.534,-81.3877 217.581,-75.7236 221.048,-85.7351 226.534,-81.3877"/>
</g>
<!-- Node11&#45;&gt;Node6 -->
<g id="edge14" class="edge"><title>Node11&#45;&gt;Node6</title>
<path fill="none" stroke="midnightblue" d="M388.196,-224.297C388.932,-191.633 391.539,-75.8661 392.573,-29.9573"/>
<polygon fill="midnightblue" stroke="midnightblue" points="396.074,-29.9601 392.8,-19.8837 389.076,-29.8024 396.074,-29.9601"/>
</g>
<!-- Node11&#45;&gt;Node10 -->
<g id="edge15" class="edge"><title>Node11&#45;&gt;Node10</title>
<path fill="none" stroke="midnightblue" d="M370.648,-224.324C353.328,-215.664 326.485,-202.242 306.498,-192.249"/>
<polygon fill="midnightblue" stroke="midnightblue" points="307.819,-188.996 297.309,-187.655 304.688,-195.257 307.819,-188.996"/>
</g>
<!-- Node11&#45;&gt;Node12 -->
<g id="edge16" class="edge"><title>Node11&#45;&gt;Node12</title>
<path fill="none" stroke="midnightblue" d="M403.906,-224.324C419.638,-215.743 443.942,-202.486 462.209,-192.522"/>
<polygon fill="midnightblue" stroke="midnightblue" points="464.03,-195.516 471.133,-187.655 460.678,-189.37 464.03,-195.516"/>
</g>
<!-- Node12&#45;&gt;Node4 -->
<g id="edge18" class="edge"><title>Node12&#45;&gt;Node4</title>
<path fill="none" stroke="midnightblue" d="M460.855,-168.444C432.977,-159.32 388.652,-144.813 357.6,-134.651"/>
<polygon fill="midnightblue" stroke="midnightblue" points="358.615,-131.3 348.022,-131.516 356.438,-137.953 358.615,-131.3"/>
</g>
<!-- Node12&#45;&gt;Node6 -->
<g id="edge17" class="edge"><title>Node12&#45;&gt;Node6</title>
<path fill="none" stroke="midnightblue" d="M481.946,-168.075C467.022,-141.719 422.943,-63.878 403.001,-28.6608"/>
<polygon fill="midnightblue" stroke="midnightblue" points="405.825,-26.5452 397.852,-19.5681 399.734,-29.9945 405.825,-26.5452"/>
</g>
</g>
</svg>
        <g id="navigator" transform="translate(0 0)" fill="#404254">
                <rect fill="#f2f5e9" fill-opacity="0.5" stroke="#606060" stroke-width=".5" x="0" y="0" width="60" height="60"/>
                <use id="zoomplus" xlink:href="#zoomPlus" x="17" y="9" onmousedown="handleZoom(evt,'in')"/>
                <use id="zoomminus" xlink:href="#zoomMin" x="42" y="9" onmousedown="handleZoom(evt,'out')"/>
                <use id="reset" xlink:href="#resetDef" x="30" y="36" onmousedown="handleReset()"/>
                <g id="arrowUp" xlink:href="#dirArrow" transform="translate(30 24)" onmousedown="handlePan(0,-1)">
                  <use xlink:href="#rim" fill="#404040">
                        <set attributeName="fill" to="#808080" begin="arrowUp.mouseover" end="arrowUp.mouseout"/>
                  </use>
                  <path fill="none" stroke="white" stroke-width="1.5" d="M0,-3.0v7 M-2.5,-0.5L0,-3.0L2.5,-0.5"/>
                </g>
                <g id="arrowRight" xlink:href="#dirArrow" transform="rotate(90) translate(36 -43)" onmousedown="handlePan(1,0)">
                  <use xlink:href="#rim" fill="#404040">
                        <set attributeName="fill" to="#808080" begin="arrowRight.mouseover" end="arrowRight.mouseout"/>
                  </use>
                  <path fill="none" stroke="white" stroke-width="1.5" d="M0,-3.0v7 M-2.5,-0.5L0,-3.0L2.5,-0.5"/>
                </g>
                <g id="arrowDown" xlink:href="#dirArrow" transform="rotate(180) translate(-30 -48)" onmousedown="handlePan(0,1)">
                  <use xlink:href="#rim" fill="#404040">
                        <set attributeName="fill" to="#808080" begin="arrowDown.mouseover" end="arrowDown.mouseout"/>
                  </use>
                  <path fill="none" stroke="white" stroke-width="1.5" d="M0,-3.0v7 M-2.5,-0.5L0,-3.0L2.5,-0.5"/>
                </g>
                <g id="arrowLeft" xlink:href="#dirArrow" transform="rotate(270) translate(-36 17)" onmousedown="handlePan(-1,0)">
                  <use xlink:href="#rim" fill="#404040">
                        <set attributeName="fill" to="#808080" begin="arrowLeft.mouseover" end="arrowLeft.mouseout"/>
                  </use>
                  <path fill="none" stroke="white" stroke-width="1.5" d="M0,-3.0v7 M-2.5,-0.5L0,-3.0L2.5,-0.5"/>
                </g>
        </g>
        <svg viewBox="0 0 15 15" width="100%" height="30px" preserveAspectRatio="xMaxYMin meet">
         <g id="arrow_out" transform="scale(0.3 0.3)">
          <a xlink:href="Segmentation_8cxx__incl_org.svg" target="_base">
           <rect id="button" ry="5" rx="5" y="6" x="6" height="38" width="38"
                fill="#f2f5e9" fill-opacity="0.5" stroke="#606060" stroke-width="1.0"/>
           <path id="arrow"
             d="M 11.500037,31.436501 C 11.940474,20.09759 22.043105,11.32322 32.158766,21.979434 L 37.068811,17.246167 C 37.068811,17.246167 37.088388,32 37.088388,32 L 22.160133,31.978069 C 22.160133,31.978069 26.997745,27.140456 26.997745,27.140456 C 18.528582,18.264221 13.291696,25.230495 11.500037,31.436501 z"
             style="fill:#404040;"/>
          </a>
         </g>
        </svg>
</svg>
