<?xml version="1.0" encoding="UTF-8" standalone="no"?>
<!DOCTYPE svg PUBLIC "-//W3C//DTD SVG 1.1//EN"
 "http://www.w3.org/Graphics/SVG/1.1/DTD/svg11.dtd">
<!-- Generated by graphviz version 2.36.0 (20140111.2315)
 -->
<!-- Title: /home/travis/build/AliceO2Group/AliceO2/Detectors/TPC/reconstruction/test/testTPCAdcClockMonitor.cxx Pages: 1 -->
<svg width="431pt" height="186pt"
 viewBox="0.00 0.00 431.00 186.00" xmlns="http://www.w3.org/2000/svg" xmlns:xlink="http://www.w3.org/1999/xlink">
<g id="graph0" class="graph" transform="scale(1 1) rotate(0) translate(4 182)">
<title>/home/travis/build/AliceO2Group/AliceO2/Detectors/TPC/reconstruction/test/testTPCAdcClockMonitor.cxx</title>
<!-- Node1 -->
<g id="node1" class="node"><title>Node1</title>
<polygon fill="#bfbfbf" stroke="black" points="164,-125 164,-177 334,-177 334,-125 164,-125"/>
<text text-anchor="start" x="172" y="-165" font-family="Helvetica,sans-Serif" font-size="10.00">/home/travis/build</text>
<text text-anchor="start" x="172" y="-154" font-family="Helvetica,sans-Serif" font-size="10.00">/AliceO2Group/AliceO2</text>
<text text-anchor="start" x="172" y="-143" font-family="Helvetica,sans-Serif" font-size="10.00">/Detectors/TPC/reconstruction</text>
<text text-anchor="middle" x="249" y="-132" font-family="Helvetica,sans-Serif" font-size="10.00">/test/testTPCAdcClockMonitor.cxx</text>
</g>
<!-- Node2 -->
<g id="node2" class="node"><title>Node2</title>
<polygon fill="none" stroke="#bfbfbf" points="-0.5,-62.5 -0.5,-81.5 118.5,-81.5 118.5,-62.5 -0.5,-62.5"/>
<text text-anchor="middle" x="59" y="-69.5" font-family="Helvetica,sans-Serif" font-size="10.00">boost/test/unit_test.hpp</text>
</g>
<!-- Node1&#45;&gt;Node2 -->
<g id="edge1" class="edge"><title>Node1&#45;&gt;Node2</title>
<path fill="none" stroke="midnightblue" d="M187.05,-124.894C154.401,-111.663 115.804,-96.0204 89.583,-85.3942"/>
<polygon fill="midnightblue" stroke="midnightblue" points="90.7604,-82.0949 80.1779,-81.5826 88.1312,-88.5824 90.7604,-82.0949"/>
</g>
<!-- Node3 -->
<g id="node3" class="node"><title>Node3</title>
<g id="a_node3"><a xlink:href="../../d5/d41/AdcClockMonitor_8h.html" target="_top" xlink:title="Class to monitor the ADC smapling clock contained in the GBT frame. ">
<polygon fill="none" stroke="black" points="174.5,-57 174.5,-87 323.5,-87 323.5,-57 174.5,-57"/>
<text text-anchor="start" x="182.5" y="-75" font-family="Helvetica,sans-Serif" font-size="10.00">TPCReconstruction/AdcClock</text>
<text text-anchor="middle" x="249" y="-64" font-family="Helvetica,sans-Serif" font-size="10.00">Monitor.h</text>
</a>
</g>
</g>
<!-- Node1&#45;&gt;Node3 -->
<g id="edge2" class="edge"><title>Node1&#45;&gt;Node3</title>
<path fill="none" stroke="midnightblue" d="M249,-124.787C249,-116.029 249,-106.225 249,-97.5232"/>
<polygon fill="midnightblue" stroke="midnightblue" points="252.5,-97.252 249,-87.252 245.5,-97.2521 252.5,-97.252"/>
</g>
<!-- Node5 -->
<g id="node5" class="node"><title>Node5</title>
<polygon fill="none" stroke="#bfbfbf" points="130,-0.5 130,-19.5 184,-19.5 184,-0.5 130,-0.5"/>
<text text-anchor="middle" x="157" y="-7.5" font-family="Helvetica,sans-Serif" font-size="10.00">iostream</text>
</g>
<!-- Node1&#45;&gt;Node5 -->
<g id="edge7" class="edge"><title>Node1&#45;&gt;Node5</title>
<path fill="none" stroke="midnightblue" d="M201.93,-124.844C188.161,-115.159 174.531,-102.805 166,-88 155.735,-70.1873 154.516,-46.2175 155.202,-29.78"/>
<polygon fill="midnightblue" stroke="midnightblue" points="158.696,-29.9894 155.893,-19.7719 151.712,-29.5067 158.696,-29.9894"/>
</g>
<!-- Node6 -->
<g id="node6" class="node"><title>Node6</title>
<polygon fill="none" stroke="#bfbfbf" points="314,-0.5 314,-19.5 364,-19.5 364,-0.5 314,-0.5"/>
<text text-anchor="middle" x="339" y="-7.5" font-family="Helvetica,sans-Serif" font-size="10.00">iomanip</text>
</g>
<!-- Node1&#45;&gt;Node6 -->
<g id="edge8" class="edge"><title>Node1&#45;&gt;Node6</title>
<path fill="none" stroke="midnightblue" d="M296.297,-124.973C310.079,-115.296 323.659,-102.913 332,-88 342.009,-70.1048 342.565,-46.1509 341.387,-29.7397"/>
<polygon fill="midnightblue" stroke="midnightblue" points="344.865,-29.3526 340.388,-19.7504 337.9,-30.0489 344.865,-29.3526"/>
</g>
<!-- Node7 -->
<g id="node7" class="node"><title>Node7</title>
<polygon fill="none" stroke="#bfbfbf" points="379,-62.5 379,-81.5 423,-81.5 423,-62.5 379,-62.5"/>
<text text-anchor="middle" x="401" y="-69.5" font-family="Helvetica,sans-Serif" font-size="10.00">vector</text>
</g>
<!-- Node1&#45;&gt;Node7 -->
<g id="edge6" class="edge"><title>Node1&#45;&gt;Node7</title>
<path fill="none" stroke="midnightblue" d="M298.77,-124.787C324.183,-111.914 354.056,-96.7808 374.924,-86.2098"/>
<polygon fill="midnightblue" stroke="midnightblue" points="376.768,-89.199 384.107,-81.5577 373.605,-82.9545 376.768,-89.199"/>
</g>
<!-- Node4 -->
<g id="node4" class="node"><title>Node4</title>
<polygon fill="none" stroke="#bfbfbf" points="213.5,-0.5 213.5,-19.5 284.5,-19.5 284.5,-0.5 213.5,-0.5"/>
<text text-anchor="middle" x="249" y="-7.5" font-family="Helvetica,sans-Serif" font-size="10.00">FairLogger.h</text>
</g>
<!-- Node3&#45;&gt;Node4 -->
<g id="edge3" class="edge"><title>Node3&#45;&gt;Node4</title>
<path fill="none" stroke="midnightblue" d="M249,-56.7808C249,-48.7812 249,-38.6887 249,-30.0168"/>
<polygon fill="midnightblue" stroke="midnightblue" points="252.5,-29.7305 249,-19.7305 245.5,-29.7306 252.5,-29.7305"/>
</g>
<!-- Node3&#45;&gt;Node5 -->
<g id="edge4" class="edge"><title>Node3&#45;&gt;Node5</title>
<path fill="none" stroke="midnightblue" d="M227.197,-56.7808C212.5,-47.1958 193.196,-34.6062 178.552,-25.0555"/>
<polygon fill="midnightblue" stroke="midnightblue" points="180.407,-22.0868 170.119,-19.5557 176.583,-27.9501 180.407,-22.0868"/>
</g>
<!-- Node3&#45;&gt;Node6 -->
<g id="edge5" class="edge"><title>Node3&#45;&gt;Node6</title>
<path fill="none" stroke="midnightblue" d="M270.329,-56.7808C284.571,-47.2862 303.235,-34.8434 317.51,-25.3267"/>
<polygon fill="midnightblue" stroke="midnightblue" points="319.787,-28.0149 326.166,-19.5557 315.904,-22.1906 319.787,-28.0149"/>
</g>
</g>
</svg>
