<?xml version="1.0" encoding="UTF-8" standalone="no"?>
<!DOCTYPE svg PUBLIC "-//W3C//DTD SVG 1.1//EN"
 "http://www.w3.org/Graphics/SVG/1.1/DTD/svg11.dtd">
<!-- Generated by graphviz version 2.36.0 (20140111.2315)
 -->
<!-- Title: /home/travis/build/AliceO2Group/AliceO2/Detectors/TRD/base/src/TRDGeometry.cxx Pages: 1 -->
<svg width="781pt" height="174pt"
 viewBox="0.00 0.00 781.00 174.00" xmlns="http://www.w3.org/2000/svg" xmlns:xlink="http://www.w3.org/1999/xlink">
<g id="graph0" class="graph" transform="scale(1 1) rotate(0) translate(4 170)">
<title>/home/travis/build/AliceO2Group/AliceO2/Detectors/TRD/base/src/TRDGeometry.cxx</title>
<!-- Node1 -->
<g id="node1" class="node"><title>Node1</title>
<polygon fill="#bfbfbf" stroke="black" points="277.5,-113 277.5,-165 404.5,-165 404.5,-113 277.5,-113"/>
<text text-anchor="start" x="285.5" y="-153" font-family="Helvetica,sans-Serif" font-size="10.00">/home/travis/build</text>
<text text-anchor="start" x="285.5" y="-142" font-family="Helvetica,sans-Serif" font-size="10.00">/AliceO2Group/AliceO2</text>
<text text-anchor="start" x="285.5" y="-131" font-family="Helvetica,sans-Serif" font-size="10.00">/Detectors/TRD/base/src</text>
<text text-anchor="middle" x="341" y="-120" font-family="Helvetica,sans-Serif" font-size="10.00">/TRDGeometry.cxx</text>
</g>
<!-- Node2 -->
<g id="node2" class="node"><title>Node2</title>
<polygon fill="none" stroke="#bfbfbf" points="0,-56.5 0,-75.5 86,-75.5 86,-56.5 0,-56.5"/>
<text text-anchor="middle" x="43" y="-63.5" font-family="Helvetica,sans-Serif" font-size="10.00">TGeoManager.h</text>
</g>
<!-- Node1&#45;&gt;Node2 -->
<g id="edge1" class="edge"><title>Node1&#45;&gt;Node2</title>
<path fill="none" stroke="midnightblue" d="M277.437,-122.856C220.826,-109.368 139.362,-89.9587 88.8833,-77.9319"/>
<polygon fill="midnightblue" stroke="midnightblue" points="89.4488,-74.4688 78.9099,-75.5557 87.8264,-81.2782 89.4488,-74.4688"/>
</g>
<!-- Node3 -->
<g id="node3" class="node"><title>Node3</title>
<polygon fill="none" stroke="#bfbfbf" points="104,-56.5 104,-75.5 214,-75.5 214,-56.5 104,-56.5"/>
<text text-anchor="middle" x="159" y="-63.5" font-family="Helvetica,sans-Serif" font-size="10.00">TGeoPhysicalNode.h</text>
</g>
<!-- Node1&#45;&gt;Node3 -->
<g id="edge2" class="edge"><title>Node1&#45;&gt;Node3</title>
<path fill="none" stroke="midnightblue" d="M277.345,-113.168C247.926,-101.691 214.303,-88.5741 190.433,-79.2622"/>
<polygon fill="midnightblue" stroke="midnightblue" points="191.429,-75.8939 180.84,-75.5202 188.885,-82.4152 191.429,-75.8939"/>
</g>
<!-- Node4 -->
<g id="node4" class="node"><title>Node4</title>
<polygon fill="none" stroke="#bfbfbf" points="232.5,-56.5 232.5,-75.5 285.5,-75.5 285.5,-56.5 232.5,-56.5"/>
<text text-anchor="middle" x="259" y="-63.5" font-family="Helvetica,sans-Serif" font-size="10.00">TMath.h</text>
</g>
<!-- Node1&#45;&gt;Node4 -->
<g id="edge3" class="edge"><title>Node1&#45;&gt;Node4</title>
<path fill="none" stroke="midnightblue" d="M311.859,-112.768C300.207,-102.679 287.156,-91.3792 276.938,-82.5318"/>
<polygon fill="midnightblue" stroke="midnightblue" points="278.965,-79.657 269.114,-75.7572 274.383,-84.949 278.965,-79.657"/>
</g>
<!-- Node5 -->
<g id="node5" class="node"><title>Node5</title>
<polygon fill="none" stroke="#bfbfbf" points="304,-56.5 304,-75.5 378,-75.5 378,-56.5 304,-56.5"/>
<text text-anchor="middle" x="341" y="-63.5" font-family="Helvetica,sans-Serif" font-size="10.00">TVirtualMC.h</text>
</g>
<!-- Node1&#45;&gt;Node5 -->
<g id="edge4" class="edge"><title>Node1&#45;&gt;Node5</title>
<path fill="none" stroke="midnightblue" d="M341,-112.768C341,-103.89 341,-94.0737 341,-85.8165"/>
<polygon fill="midnightblue" stroke="midnightblue" points="344.5,-85.7571 341,-75.7572 337.5,-85.7572 344.5,-85.7571"/>
</g>
<!-- Node6 -->
<g id="node6" class="node"><title>Node6</title>
<polygon fill="none" stroke="#bfbfbf" points="396.5,-56.5 396.5,-75.5 467.5,-75.5 467.5,-56.5 396.5,-56.5"/>
<text text-anchor="middle" x="432" y="-63.5" font-family="Helvetica,sans-Serif" font-size="10.00">FairLogger.h</text>
</g>
<!-- Node1&#45;&gt;Node6 -->
<g id="edge5" class="edge"><title>Node1&#45;&gt;Node6</title>
<path fill="none" stroke="midnightblue" d="M373.083,-112.968C386.295,-102.66 401.164,-91.0589 412.659,-82.09"/>
<polygon fill="midnightblue" stroke="midnightblue" points="414.978,-84.7205 420.709,-75.8095 410.672,-79.2015 414.978,-84.7205"/>
</g>
<!-- Node7 -->
<g id="node7" class="node"><title>Node7</title>
<g id="a_node7"><a xlink:href="../../dd/d07/TRDGeometry_8h.html" target="_top" xlink:title="TRDBase/TRDGeometry.h">
<polygon fill="none" stroke="black" points="485.5,-56.5 485.5,-75.5 620.5,-75.5 620.5,-56.5 485.5,-56.5"/>
<text text-anchor="middle" x="553" y="-63.5" font-family="Helvetica,sans-Serif" font-size="10.00">TRDBase/TRDGeometry.h</text>
</a>
</g>
</g>
<!-- Node1&#45;&gt;Node7 -->
<g id="edge6" class="edge"><title>Node1&#45;&gt;Node7</title>
<path fill="none" stroke="midnightblue" d="M404.607,-116.698C441.644,-104.294 486.949,-89.121 517.685,-78.8273"/>
<polygon fill="midnightblue" stroke="midnightblue" points="519.146,-82.0291 527.517,-75.5345 516.923,-75.3914 519.146,-82.0291"/>
</g>
<!-- Node10 -->
<g id="node10" class="node"><title>Node10</title>
<g id="a_node10"><a xlink:href="../../de/df3/TRDPadPlane_8h.html" target="_top" xlink:title="TRDBase/TRDPadPlane.h">
<polygon fill="none" stroke="black" points="639,-56.5 639,-75.5 773,-75.5 773,-56.5 639,-56.5"/>
<text text-anchor="middle" x="706" y="-63.5" font-family="Helvetica,sans-Serif" font-size="10.00">TRDBase/TRDPadPlane.h</text>
</a>
</g>
</g>
<!-- Node1&#45;&gt;Node10 -->
<g id="edge9" class="edge"><title>Node1&#45;&gt;Node10</title>
<path fill="none" stroke="midnightblue" d="M404.578,-125.633C474.567,-112.018 585.888,-90.3643 651.865,-77.5303"/>
<polygon fill="midnightblue" stroke="midnightblue" points="652.904,-80.8939 662.052,-75.5488 651.568,-74.0227 652.904,-80.8939"/>
</g>
<!-- Node8 -->
<g id="node8" class="node"><title>Node8</title>
<polygon fill="none" stroke="#bfbfbf" points="501.5,-0.5 501.5,-19.5 542.5,-19.5 542.5,-0.5 501.5,-0.5"/>
<text text-anchor="middle" x="522" y="-7.5" font-family="Helvetica,sans-Serif" font-size="10.00">string</text>
</g>
<!-- Node7&#45;&gt;Node8 -->
<g id="edge7" class="edge"><title>Node7&#45;&gt;Node8</title>
<path fill="none" stroke="midnightblue" d="M547.881,-56.083C543.592,-48.6127 537.342,-37.7244 532.058,-28.5199"/>
<polygon fill="midnightblue" stroke="midnightblue" points="535.038,-26.6811 527.024,-19.7511 528.967,-30.1662 535.038,-26.6811"/>
</g>
<!-- Node9 -->
<g id="node9" class="node"><title>Node9</title>
<polygon fill="none" stroke="#bfbfbf" points="561,-0.5 561,-19.5 605,-19.5 605,-0.5 561,-0.5"/>
<text text-anchor="middle" x="583" y="-7.5" font-family="Helvetica,sans-Serif" font-size="10.00">vector</text>
</g>
<!-- Node7&#45;&gt;Node9 -->
<g id="edge8" class="edge"><title>Node7&#45;&gt;Node9</title>
<path fill="none" stroke="midnightblue" d="M557.954,-56.083C562.104,-48.6127 568.153,-37.7244 573.267,-28.5199"/>
<polygon fill="midnightblue" stroke="midnightblue" points="576.341,-30.1924 578.138,-19.7511 570.222,-26.7929 576.341,-30.1924"/>
</g>
<!-- Node11 -->
<g id="node11" class="node"><title>Node11</title>
<polygon fill="none" stroke="#bfbfbf" points="678,-0.5 678,-19.5 734,-19.5 734,-0.5 678,-0.5"/>
<text text-anchor="middle" x="706" y="-7.5" font-family="Helvetica,sans-Serif" font-size="10.00">Rtypes.h</text>
</g>
<!-- Node10&#45;&gt;Node11 -->
<g id="edge10" class="edge"><title>Node10&#45;&gt;Node11</title>
<path fill="none" stroke="midnightblue" d="M706,-56.083C706,-49.0059 706,-38.8611 706,-29.9865"/>
<polygon fill="midnightblue" stroke="midnightblue" points="709.5,-29.751 706,-19.7511 702.5,-29.7511 709.5,-29.751"/>
</g>
</g>
</svg>
