<?xml version="1.0" encoding="UTF-8" standalone="no"?>
<!DOCTYPE svg PUBLIC "-//W3C//DTD SVG 1.1//EN"
 "http://www.w3.org/Graphics/SVG/1.1/DTD/svg11.dtd">
<!-- Generated by graphviz version 2.36.0 (20140111.2315)
 -->
<!-- Title: /home/travis/build/AliceO2Group/AliceO2/Detectors/ITSMFT/MFT/reconstruction/src/FindTracks.cxx Pages: 1 -->
<svg width="2336pt" height="446pt"
 viewBox="0.00 0.00 2336.00 446.00" xmlns="http://www.w3.org/2000/svg" xmlns:xlink="http://www.w3.org/1999/xlink">
<g id="graph0" class="graph" transform="scale(1 1) rotate(0) translate(4 442)">
<title>/home/travis/build/AliceO2Group/AliceO2/Detectors/ITSMFT/MFT/reconstruction/src/FindTracks.cxx</title>
<!-- Node1 -->
<g id="node1" class="node"><title>Node1</title>
<polygon fill="#bfbfbf" stroke="black" points="1864,-385 1864,-437 2032,-437 2032,-385 1864,-385"/>
<text text-anchor="start" x="1872" y="-425" font-family="Helvetica,sans-Serif" font-size="10.00">/home/travis/build</text>
<text text-anchor="start" x="1872" y="-414" font-family="Helvetica,sans-Serif" font-size="10.00">/AliceO2Group/AliceO2</text>
<text text-anchor="start" x="1872" y="-403" font-family="Helvetica,sans-Serif" font-size="10.00">/Detectors/ITSMFT/MFT</text>
<text text-anchor="middle" x="1948" y="-392" font-family="Helvetica,sans-Serif" font-size="10.00">/reconstruction/src/FindTracks.cxx</text>
</g>
<!-- Node2 -->
<g id="node2" class="node"><title>Node2</title>
<g id="a_node2"><a xlink:href="../../dc/de1/ITSMFT_2common_2reconstruction_2include_2ITSMFTReconstruction_2Cluster_8h.html" target="_top" xlink:title="ITSMFTReconstruction\l/Cluster.h">
<polygon fill="none" stroke="black" points="1280.5,-317 1280.5,-347 1399.5,-347 1399.5,-317 1280.5,-317"/>
<text text-anchor="start" x="1288.5" y="-335" font-family="Helvetica,sans-Serif" font-size="10.00">ITSMFTReconstruction</text>
<text text-anchor="middle" x="1340" y="-324" font-family="Helvetica,sans-Serif" font-size="10.00">/Cluster.h</text>
</a>
</g>
</g>
<!-- Node1&#45;&gt;Node2 -->
<g id="edge1" class="edge"><title>Node1&#45;&gt;Node2</title>
<path fill="none" stroke="midnightblue" d="M1863.78,-399.334C1742.85,-384.019 1522.24,-356.08 1409.84,-341.845"/>
<polygon fill="midnightblue" stroke="midnightblue" points="1410,-338.337 1399.64,-340.553 1409.12,-345.282 1410,-338.337"/>
</g>
<!-- Node31 -->
<g id="node31" class="node"><title>Node31</title>
<g id="a_node31"><a xlink:href="../../d5/d61/EventHeader_8h.html" target="_top" xlink:title="MFTSimulation/EventHeader.h">
<polygon fill="none" stroke="black" points="1469.5,-322.5 1469.5,-341.5 1620.5,-341.5 1620.5,-322.5 1469.5,-322.5"/>
<text text-anchor="middle" x="1545" y="-329.5" font-family="Helvetica,sans-Serif" font-size="10.00">MFTSimulation/EventHeader.h</text>
</a>
</g>
</g>
<!-- Node1&#45;&gt;Node31 -->
<g id="edge37" class="edge"><title>Node1&#45;&gt;Node31</title>
<path fill="none" stroke="midnightblue" d="M1863.52,-393.858C1784.16,-378.695 1667.73,-356.45 1599.82,-343.474"/>
<polygon fill="midnightblue" stroke="midnightblue" points="1600.24,-339.99 1589.76,-341.551 1598.92,-346.866 1600.24,-339.99"/>
</g>
<!-- Node35 -->
<g id="node35" class="node"><title>Node35</title>
<g id="a_node35"><a xlink:href="../../d5/d03/Detectors_2ITSMFT_2MFT_2reconstruction_2include_2MFTReconstruction_2Track_8h.html" target="_top" xlink:title="MFTReconstruction/Track.h">
<polygon fill="none" stroke="black" points="1638.5,-322.5 1638.5,-341.5 1777.5,-341.5 1777.5,-322.5 1638.5,-322.5"/>
<text text-anchor="middle" x="1708" y="-329.5" font-family="Helvetica,sans-Serif" font-size="10.00">MFTReconstruction/Track.h</text>
</a>
</g>
</g>
<!-- Node1&#45;&gt;Node35 -->
<g id="edge41" class="edge"><title>Node1&#45;&gt;Node35</title>
<path fill="none" stroke="midnightblue" d="M1869.75,-384.894C1827.6,-371.371 1777.6,-355.33 1744.47,-344.699"/>
<polygon fill="midnightblue" stroke="midnightblue" points="1745.34,-341.305 1734.75,-341.583 1743.2,-347.97 1745.34,-341.305"/>
</g>
<!-- Node37 -->
<g id="node37" class="node"><title>Node37</title>
<g id="a_node37"><a xlink:href="../../dc/d68/FindTracks_8h.html" target="_top" xlink:title="Simple track finding from the hits. ">
<polygon fill="none" stroke="black" points="1795.5,-322.5 1795.5,-341.5 1958.5,-341.5 1958.5,-322.5 1795.5,-322.5"/>
<text text-anchor="middle" x="1877" y="-329.5" font-family="Helvetica,sans-Serif" font-size="10.00">MFTReconstruction/FindTracks.h</text>
</a>
</g>
</g>
<!-- Node1&#45;&gt;Node37 -->
<g id="edge43" class="edge"><title>Node1&#45;&gt;Node37</title>
<path fill="none" stroke="midnightblue" d="M1924.75,-384.787C1913.9,-373.02 1901.31,-359.366 1891.78,-349.033"/>
<polygon fill="midnightblue" stroke="midnightblue" points="1894.24,-346.537 1884.89,-341.558 1889.1,-351.282 1894.24,-346.537"/>
</g>
<!-- Node39 -->
<g id="node39" class="node"><title>Node39</title>
<polygon fill="none" stroke="#bfbfbf" points="1976.5,-322.5 1976.5,-341.5 2061.5,-341.5 2061.5,-322.5 1976.5,-322.5"/>
<text text-anchor="middle" x="2019" y="-329.5" font-family="Helvetica,sans-Serif" font-size="10.00">TClonesArray.h</text>
</g>
<!-- Node1&#45;&gt;Node39 -->
<g id="edge45" class="edge"><title>Node1&#45;&gt;Node39</title>
<path fill="none" stroke="midnightblue" d="M1971.25,-384.787C1982.1,-373.02 1994.69,-359.366 2004.22,-349.033"/>
<polygon fill="midnightblue" stroke="midnightblue" points="2006.9,-351.282 2011.11,-341.558 2001.76,-346.537 2006.9,-351.282"/>
</g>
<!-- Node40 -->
<g id="node40" class="node"><title>Node40</title>
<polygon fill="none" stroke="#bfbfbf" points="2080,-322.5 2080,-341.5 2122,-341.5 2122,-322.5 2080,-322.5"/>
<text text-anchor="middle" x="2101" y="-329.5" font-family="Helvetica,sans-Serif" font-size="10.00">TF1.h</text>
</g>
<!-- Node1&#45;&gt;Node40 -->
<g id="edge46" class="edge"><title>Node1&#45;&gt;Node40</title>
<path fill="none" stroke="midnightblue" d="M1998.1,-384.787C2023.79,-371.855 2054.02,-356.644 2075.04,-346.067"/>
<polygon fill="midnightblue" stroke="midnightblue" points="2076.64,-349.18 2084,-341.558 2073.49,-342.927 2076.64,-349.18"/>
</g>
<!-- Node41 -->
<g id="node41" class="node"><title>Node41</title>
<polygon fill="none" stroke="#bfbfbf" points="2140.5,-322.5 2140.5,-341.5 2223.5,-341.5 2223.5,-322.5 2140.5,-322.5"/>
<text text-anchor="middle" x="2182" y="-329.5" font-family="Helvetica,sans-Serif" font-size="10.00">TGraphErrors.h</text>
</g>
<!-- Node1&#45;&gt;Node41 -->
<g id="edge47" class="edge"><title>Node1&#45;&gt;Node41</title>
<path fill="none" stroke="midnightblue" d="M2024.3,-384.894C2065.21,-371.429 2113.72,-355.468 2146.03,-344.837"/>
<polygon fill="midnightblue" stroke="midnightblue" points="2147.51,-348.033 2155.92,-341.583 2145.32,-341.384 2147.51,-348.033"/>
</g>
<!-- Node42 -->
<g id="node42" class="node"><title>Node42</title>
<polygon fill="none" stroke="#bfbfbf" points="2242,-322.5 2242,-341.5 2328,-341.5 2328,-322.5 2242,-322.5"/>
<text text-anchor="middle" x="2285" y="-329.5" font-family="Helvetica,sans-Serif" font-size="10.00">FairMQLogger.h</text>
</g>
<!-- Node1&#45;&gt;Node42 -->
<g id="edge48" class="edge"><title>Node1&#45;&gt;Node42</title>
<path fill="none" stroke="midnightblue" d="M2032.19,-393.022C2088.87,-381.25 2165.18,-364.734 2232,-348 2236.63,-346.841 2241.46,-345.565 2246.25,-344.26"/>
<polygon fill="midnightblue" stroke="midnightblue" points="2247.23,-347.621 2255.93,-341.572 2245.35,-340.877 2247.23,-347.621"/>
</g>
<!-- Node3 -->
<g id="node3" class="node"><title>Node3</title>
<g id="a_node3"><a xlink:href="../../d4/de2/BaseCluster_8h.html" target="_top" xlink:title="DetectorsBase/BaseCluster.h">
<polygon fill="none" stroke="black" points="1215.5,-254.5 1215.5,-273.5 1362.5,-273.5 1362.5,-254.5 1215.5,-254.5"/>
<text text-anchor="middle" x="1289" y="-261.5" font-family="Helvetica,sans-Serif" font-size="10.00">DetectorsBase/BaseCluster.h</text>
</a>
</g>
</g>
<!-- Node2&#45;&gt;Node3 -->
<g id="edge2" class="edge"><title>Node2&#45;&gt;Node3</title>
<path fill="none" stroke="midnightblue" d="M1328.93,-316.679C1321.06,-306.49 1310.45,-292.759 1302.15,-282.011"/>
<polygon fill="midnightblue" stroke="midnightblue" points="1304.71,-279.601 1295.82,-273.828 1299.17,-283.881 1304.71,-279.601"/>
</g>
<!-- Node4 -->
<g id="node4" class="node"><title>Node4</title>
<polygon fill="none" stroke="#bfbfbf" points="673.5,-192.5 673.5,-211.5 732.5,-211.5 732.5,-192.5 673.5,-192.5"/>
<text text-anchor="middle" x="703" y="-199.5" font-family="Helvetica,sans-Serif" font-size="10.00">TObject.h</text>
</g>
<!-- Node3&#45;&gt;Node4 -->
<g id="edge3" class="edge"><title>Node3&#45;&gt;Node4</title>
<path fill="none" stroke="midnightblue" d="M1215.5,-258.61C1110.99,-251.794 913.633,-236.808 747,-212 745.554,-211.785 744.084,-211.553 742.601,-211.308"/>
<polygon fill="midnightblue" stroke="midnightblue" points="743.206,-207.86 732.745,-209.537 741.968,-214.75 743.206,-207.86"/>
</g>
<!-- Node5 -->
<g id="node5" class="node"><title>Node5</title>
<polygon fill="none" stroke="#bfbfbf" points="1685.5,-74.5 1685.5,-93.5 1726.5,-93.5 1726.5,-74.5 1685.5,-74.5"/>
<text text-anchor="middle" x="1706" y="-81.5" font-family="Helvetica,sans-Serif" font-size="10.00">bitset</text>
</g>
<!-- Node3&#45;&gt;Node5 -->
<g id="edge4" class="edge"><title>Node3&#45;&gt;Node5</title>
<path fill="none" stroke="midnightblue" d="M1311.08,-254.385C1370.62,-231.002 1539.25,-163.815 1676,-100 1677.35,-99.369 1678.73,-98.7141 1680.13,-98.0462"/>
<polygon fill="midnightblue" stroke="midnightblue" points="1681.82,-101.114 1689.26,-93.5705 1678.74,-94.8286 1681.82,-101.114"/>
</g>
<!-- Node6 -->
<g id="node6" class="node"><title>Node6</title>
<polygon fill="none" stroke="#bfbfbf" points="1595,-192.5 1595,-211.5 1645,-211.5 1645,-192.5 1595,-192.5"/>
<text text-anchor="middle" x="1620" y="-199.5" font-family="Helvetica,sans-Serif" font-size="10.00">iomanip</text>
</g>
<!-- Node3&#45;&gt;Node6 -->
<g id="edge5" class="edge"><title>Node3&#45;&gt;Node6</title>
<path fill="none" stroke="midnightblue" d="M1335.96,-254.445C1347.72,-252.32 1360.32,-250.061 1372,-248 1464.82,-231.618 1488.6,-230.605 1581,-212 1582.26,-211.745 1583.55,-211.48 1584.85,-211.208"/>
<polygon fill="midnightblue" stroke="midnightblue" points="1585.85,-214.572 1594.87,-209.018 1584.35,-207.734 1585.85,-214.572"/>
</g>
<!-- Node7 -->
<g id="node7" class="node"><title>Node7</title>
<polygon fill="none" stroke="#bfbfbf" points="1663.5,-192.5 1663.5,-211.5 1692.5,-211.5 1692.5,-192.5 1663.5,-192.5"/>
<text text-anchor="middle" x="1678" y="-199.5" font-family="Helvetica,sans-Serif" font-size="10.00">ios</text>
</g>
<!-- Node3&#45;&gt;Node7 -->
<g id="edge6" class="edge"><title>Node3&#45;&gt;Node7</title>
<path fill="none" stroke="midnightblue" d="M1333.73,-254.478C1346.1,-252.24 1359.55,-249.918 1372,-248 1493.71,-229.247 1529.55,-241.715 1653.57,-211.519"/>
<polygon fill="midnightblue" stroke="midnightblue" points="1654.58,-214.874 1663.45,-209.071 1652.9,-208.08 1654.58,-214.874"/>
</g>
<!-- Node8 -->
<g id="node8" class="node"><title>Node8</title>
<polygon fill="none" stroke="#bfbfbf" points="0,-74.5 0,-93.5 54,-93.5 54,-74.5 0,-74.5"/>
<text text-anchor="middle" x="27" y="-81.5" font-family="Helvetica,sans-Serif" font-size="10.00">iostream</text>
</g>
<!-- Node3&#45;&gt;Node8 -->
<g id="edge7" class="edge"><title>Node3&#45;&gt;Node8</title>
<path fill="none" stroke="midnightblue" d="M1223.02,-254.481C972.162,-222.063 90.4244,-107.82 62,-100 59.3428,-99.2689 56.6229,-98.3782 53.9312,-97.3992"/>
<polygon fill="midnightblue" stroke="midnightblue" points="55.052,-94.0776 44.4682,-93.5943 52.4405,-100.572 55.052,-94.0776"/>
</g>
<!-- Node9 -->
<g id="node9" class="node"><title>Node9</title>
<g id="a_node9"><a xlink:href="../../dd/d76/Cartesian3D_8h.html" target="_top" xlink:title="MathUtils/Cartesian3D.h">
<polygon fill="none" stroke="black" points="789.5,-136.5 789.5,-155.5 914.5,-155.5 914.5,-136.5 789.5,-136.5"/>
<text text-anchor="middle" x="852" y="-143.5" font-family="Helvetica,sans-Serif" font-size="10.00">MathUtils/Cartesian3D.h</text>
</a>
</g>
</g>
<!-- Node3&#45;&gt;Node9 -->
<g id="edge8" class="edge"><title>Node3&#45;&gt;Node9</title>
<path fill="none" stroke="midnightblue" d="M1256.87,-254.47C1179.13,-233.835 980.93,-181.224 893.972,-158.141"/>
<polygon fill="midnightblue" stroke="midnightblue" points="894.744,-154.725 884.181,-155.542 892.948,-161.491 894.744,-154.725"/>
</g>
<!-- Node20 -->
<g id="node20" class="node"><title>Node20</title>
<g id="a_node20"><a xlink:href="../../d4/d20/DetMatrixCache_8h.html" target="_top" xlink:title="DetectorsBase/DetMatrixCache.h">
<polygon fill="none" stroke="black" points="1207,-192.5 1207,-211.5 1371,-211.5 1371,-192.5 1207,-192.5"/>
<text text-anchor="middle" x="1289" y="-199.5" font-family="Helvetica,sans-Serif" font-size="10.00">DetectorsBase/DetMatrixCache.h</text>
</a>
</g>
</g>
<!-- Node3&#45;&gt;Node20 -->
<g id="edge20" class="edge"><title>Node3&#45;&gt;Node20</title>
<path fill="none" stroke="midnightblue" d="M1289,-254.403C1289,-245.938 1289,-232.728 1289,-221.82"/>
<polygon fill="midnightblue" stroke="midnightblue" points="1292.5,-221.581 1289,-211.581 1285.5,-221.581 1292.5,-221.581"/>
</g>
<!-- Node9&#45;&gt;Node8 -->
<g id="edge19" class="edge"><title>Node9&#45;&gt;Node8</title>
<path fill="none" stroke="midnightblue" d="M789.42,-137.336C784.544,-136.846 779.694,-136.392 775,-136 458.81,-109.568 371.105,-171.616 62,-100 59.1019,-99.3285 56.1411,-98.4297 53.2294,-97.404"/>
<polygon fill="midnightblue" stroke="midnightblue" points="54.2647,-94.0484 43.6804,-93.5753 51.6595,-100.546 54.2647,-94.0484"/>
</g>
<!-- Node10 -->
<g id="node10" class="node"><title>Node10</title>
<polygon fill="none" stroke="#bfbfbf" points="71.5,-74.5 71.5,-93.5 220.5,-93.5 220.5,-74.5 71.5,-74.5"/>
<text text-anchor="middle" x="146" y="-81.5" font-family="Helvetica,sans-Serif" font-size="10.00">Math/GenVector/Rotation3D.h</text>
</g>
<!-- Node9&#45;&gt;Node10 -->
<g id="edge9" class="edge"><title>Node9&#45;&gt;Node10</title>
<path fill="none" stroke="midnightblue" d="M789.413,-137.417C784.539,-136.909 779.691,-136.429 775,-136 533.258,-113.902 470.965,-129.382 230,-100 219.853,-98.7628 209.074,-97.1028 198.74,-95.3379"/>
<polygon fill="midnightblue" stroke="midnightblue" points="199.051,-91.8387 188.595,-93.5497 197.836,-98.7324 199.051,-91.8387"/>
</g>
<!-- Node11 -->
<g id="node11" class="node"><title>Node11</title>
<polygon fill="none" stroke="#bfbfbf" points="239,-74.5 239,-93.5 395,-93.5 395,-74.5 239,-74.5"/>
<text text-anchor="middle" x="317" y="-81.5" font-family="Helvetica,sans-Serif" font-size="10.00">Math/GenVector/Transform3D.h</text>
</g>
<!-- Node9&#45;&gt;Node11 -->
<g id="edge10" class="edge"><title>Node9&#45;&gt;Node11</title>
<path fill="none" stroke="midnightblue" d="M789.397,-137.579C784.526,-137.033 779.684,-136.501 775,-136 610.276,-118.383 568.184,-122.089 404,-100 393.974,-98.6512 383.336,-97.0009 373.066,-95.2941"/>
<polygon fill="midnightblue" stroke="midnightblue" points="373.401,-91.801 362.956,-93.5777 372.229,-98.7022 373.401,-91.801"/>
</g>
<!-- Node12 -->
<g id="node12" class="node"><title>Node12</title>
<polygon fill="none" stroke="#bfbfbf" points="413,-74.5 413,-93.5 573,-93.5 573,-74.5 413,-74.5"/>
<text text-anchor="middle" x="493" y="-81.5" font-family="Helvetica,sans-Serif" font-size="10.00">Math/GenVector/Translation3D.h</text>
</g>
<!-- Node9&#45;&gt;Node12 -->
<g id="edge11" class="edge"><title>Node9&#45;&gt;Node12</title>
<path fill="none" stroke="midnightblue" d="M800.737,-136.485C746.423,-127.456 658.16,-112.765 582,-100 572.71,-98.4429 562.875,-96.7899 553.263,-95.172"/>
<polygon fill="midnightblue" stroke="midnightblue" points="553.802,-91.7136 543.36,-93.5041 552.64,-98.6164 553.802,-91.7136"/>
</g>
<!-- Node13 -->
<g id="node13" class="node"><title>Node13</title>
<polygon fill="none" stroke="#bfbfbf" points="1230,-74.5 1230,-93.5 1286,-93.5 1286,-74.5 1230,-74.5"/>
<text text-anchor="middle" x="1258" y="-81.5" font-family="Helvetica,sans-Serif" font-size="10.00">Rtypes.h</text>
</g>
<!-- Node9&#45;&gt;Node13 -->
<g id="edge12" class="edge"><title>Node9&#45;&gt;Node13</title>
<path fill="none" stroke="midnightblue" d="M914.51,-137.597C981.001,-129.461 1089.18,-115.475 1182,-100 1194.44,-97.9266 1207.96,-95.3601 1220.1,-92.9398"/>
<polygon fill="midnightblue" stroke="midnightblue" points="1220.81,-96.3666 1229.92,-90.9552 1219.43,-89.5053 1220.81,-96.3666"/>
</g>
<!-- Node14 -->
<g id="node14" class="node"><title>Node14</title>
<polygon fill="none" stroke="#bfbfbf" points="591,-74.5 591,-93.5 667,-93.5 667,-74.5 591,-74.5"/>
<text text-anchor="middle" x="629" y="-81.5" font-family="Helvetica,sans-Serif" font-size="10.00">TGeoMatrix.h</text>
</g>
<!-- Node9&#45;&gt;Node14 -->
<g id="edge13" class="edge"><title>Node9&#45;&gt;Node14</title>
<path fill="none" stroke="midnightblue" d="M816.103,-136.475C780.419,-127.847 724.198,-113.84 676,-100 672.218,-98.9141 668.28,-97.7348 664.364,-96.5308"/>
<polygon fill="midnightblue" stroke="midnightblue" points="665.364,-93.1764 654.775,-93.5257 663.271,-99.8561 665.364,-93.1764"/>
</g>
<!-- Node15 -->
<g id="node15" class="node"><title>Node15</title>
<polygon fill="none" stroke="#bfbfbf" points="685.5,-69 685.5,-99 836.5,-99 836.5,-69 685.5,-69"/>
<text text-anchor="start" x="693.5" y="-87" font-family="Helvetica,sans-Serif" font-size="10.00">Math/GenVector/Displacement</text>
<text text-anchor="middle" x="761" y="-76" font-family="Helvetica,sans-Serif" font-size="10.00">Vector3D.h</text>
</g>
<!-- Node9&#45;&gt;Node15 -->
<g id="edge14" class="edge"><title>Node9&#45;&gt;Node15</title>
<path fill="none" stroke="midnightblue" d="M838.962,-136.403C826.522,-128.201 807.327,-115.545 791.097,-104.844"/>
<polygon fill="midnightblue" stroke="midnightblue" points="792.722,-101.723 782.447,-99.1408 788.869,-107.567 792.722,-101.723"/>
</g>
<!-- Node16 -->
<g id="node16" class="node"><title>Node16</title>
<polygon fill="none" stroke="#bfbfbf" points="855,-74.5 855,-93.5 1031,-93.5 1031,-74.5 855,-74.5"/>
<text text-anchor="middle" x="943" y="-81.5" font-family="Helvetica,sans-Serif" font-size="10.00">Math/GenVector/PositionVector3D.h</text>
</g>
<!-- Node9&#45;&gt;Node16 -->
<g id="edge15" class="edge"><title>Node9&#45;&gt;Node16</title>
<path fill="none" stroke="midnightblue" d="M865.038,-136.403C879.769,-126.691 903.973,-110.732 921.509,-99.1697"/>
<polygon fill="midnightblue" stroke="midnightblue" points="923.564,-102.007 929.986,-93.5806 919.711,-96.1632 923.564,-102.007"/>
</g>
<!-- Node17 -->
<g id="node17" class="node"><title>Node17</title>
<g id="a_node17"><a xlink:href="../../d2/dd0/Cartesian2D_8h.html" target="_top" xlink:title="MathUtils/Cartesian2D.h">
<polygon fill="none" stroke="black" points="1048.5,-74.5 1048.5,-93.5 1173.5,-93.5 1173.5,-74.5 1048.5,-74.5"/>
<text text-anchor="middle" x="1111" y="-81.5" font-family="Helvetica,sans-Serif" font-size="10.00">MathUtils/Cartesian2D.h</text>
</a>
</g>
</g>
<!-- Node9&#45;&gt;Node17 -->
<g id="edge16" class="edge"><title>Node9&#45;&gt;Node17</title>
<path fill="none" stroke="midnightblue" d="M888.833,-136.467C934.955,-125.783 1014.01,-107.469 1064.32,-95.8129"/>
<polygon fill="midnightblue" stroke="midnightblue" points="1065.34,-99.17 1074.29,-93.5034 1063.76,-92.3506 1065.34,-99.17"/>
</g>
<!-- Node18 -->
<g id="node18" class="node"><title>Node18</title>
<polygon fill="none" stroke="#bfbfbf" points="921.5,-1 921.5,-31 1072.5,-31 1072.5,-1 921.5,-1"/>
<text text-anchor="start" x="929.5" y="-19" font-family="Helvetica,sans-Serif" font-size="10.00">Math/GenVector/Displacement</text>
<text text-anchor="middle" x="997" y="-8" font-family="Helvetica,sans-Serif" font-size="10.00">Vector2D.h</text>
</g>
<!-- Node17&#45;&gt;Node18 -->
<g id="edge17" class="edge"><title>Node17&#45;&gt;Node18</title>
<path fill="none" stroke="midnightblue" d="M1096.1,-74.3717C1079.51,-64.7715 1052.19,-48.9537 1030.43,-36.3559"/>
<polygon fill="midnightblue" stroke="midnightblue" points="1031.9,-33.1629 1021.5,-31.1815 1028.4,-39.2209 1031.9,-33.1629"/>
</g>
<!-- Node19 -->
<g id="node19" class="node"><title>Node19</title>
<polygon fill="none" stroke="#bfbfbf" points="1091,-6.5 1091,-25.5 1267,-25.5 1267,-6.5 1091,-6.5"/>
<text text-anchor="middle" x="1179" y="-13.5" font-family="Helvetica,sans-Serif" font-size="10.00">Math/GenVector/PositionVector2D.h</text>
</g>
<!-- Node17&#45;&gt;Node19 -->
<g id="edge18" class="edge"><title>Node17&#45;&gt;Node19</title>
<path fill="none" stroke="midnightblue" d="M1119.89,-74.3717C1130.72,-63.8564 1149.24,-45.8819 1162.67,-32.8496"/>
<polygon fill="midnightblue" stroke="midnightblue" points="1165.15,-35.3174 1169.89,-25.8411 1160.28,-30.2944 1165.15,-35.3174"/>
</g>
<!-- Node20&#45;&gt;Node9 -->
<g id="edge23" class="edge"><title>Node20&#45;&gt;Node9</title>
<path fill="none" stroke="midnightblue" d="M1219.76,-192.444C1139.13,-182.48 1006.55,-166.098 924.539,-155.964"/>
<polygon fill="midnightblue" stroke="midnightblue" points="924.902,-152.482 914.548,-154.729 924.043,-159.429 924.902,-152.482"/>
</g>
<!-- Node20&#45;&gt;Node13 -->
<g id="edge35" class="edge"><title>Node20&#45;&gt;Node13</title>
<path fill="none" stroke="midnightblue" d="M1317.01,-192.422C1346.83,-181.738 1387.61,-161.714 1371,-136 1368.55,-132.201 1320.59,-111.399 1287.94,-97.563"/>
<polygon fill="midnightblue" stroke="midnightblue" points="1288.95,-94.187 1278.37,-93.5193 1286.22,-100.635 1288.95,-94.187"/>
</g>
<!-- Node21 -->
<g id="node21" class="node"><title>Node21</title>
<polygon fill="none" stroke="#bfbfbf" points="1229,-136.5 1229,-155.5 1273,-155.5 1273,-136.5 1229,-136.5"/>
<text text-anchor="middle" x="1251" y="-143.5" font-family="Helvetica,sans-Serif" font-size="10.00">vector</text>
</g>
<!-- Node20&#45;&gt;Node21 -->
<g id="edge21" class="edge"><title>Node20&#45;&gt;Node21</title>
<path fill="none" stroke="midnightblue" d="M1282.73,-192.083C1277.36,-184.455 1269.48,-173.264 1262.92,-163.941"/>
<polygon fill="midnightblue" stroke="midnightblue" points="1265.78,-161.915 1257.16,-155.751 1260.05,-165.943 1265.78,-161.915"/>
</g>
<!-- Node22 -->
<g id="node22" class="node"><title>Node22</title>
<polygon fill="none" stroke="#bfbfbf" points="1354,-6.5 1354,-25.5 1392,-25.5 1392,-6.5 1354,-6.5"/>
<text text-anchor="middle" x="1373" y="-13.5" font-family="Helvetica,sans-Serif" font-size="10.00">array</text>
</g>
<!-- Node20&#45;&gt;Node22 -->
<g id="edge22" class="edge"><title>Node20&#45;&gt;Node22</title>
<path fill="none" stroke="midnightblue" d="M1265.21,-192.499C1249.28,-185.413 1229.54,-173.605 1220,-156 1211.23,-139.805 1192.63,-106.832 1221,-68 1235.7,-47.883 1304.16,-30.9636 1344.01,-22.6059"/>
<polygon fill="midnightblue" stroke="midnightblue" points="1344.85,-26.006 1353.95,-20.5742 1343.45,-19.1478 1344.85,-26.006"/>
</g>
<!-- Node23 -->
<g id="node23" class="node"><title>Node23</title>
<g id="a_node23"><a xlink:href="../../d6/d31/DetID_8h.html" target="_top" xlink:title="DetectorsBase/DetID.h">
<polygon fill="none" stroke="black" points="1419.5,-136.5 1419.5,-155.5 1538.5,-155.5 1538.5,-136.5 1419.5,-136.5"/>
<text text-anchor="middle" x="1479" y="-143.5" font-family="Helvetica,sans-Serif" font-size="10.00">DetectorsBase/DetID.h</text>
</a>
</g>
</g>
<!-- Node20&#45;&gt;Node23 -->
<g id="edge24" class="edge"><title>Node20&#45;&gt;Node23</title>
<path fill="none" stroke="midnightblue" d="M1319.11,-192.444C1351.63,-183.201 1403.58,-168.436 1439.39,-158.257"/>
<polygon fill="midnightblue" stroke="midnightblue" points="1440.37,-161.617 1449.03,-155.516 1438.46,-154.884 1440.37,-161.617"/>
</g>
<!-- Node30 -->
<g id="node30" class="node"><title>Node30</title>
<polygon fill="none" stroke="#bfbfbf" points="1291.5,-136.5 1291.5,-155.5 1362.5,-155.5 1362.5,-136.5 1291.5,-136.5"/>
<text text-anchor="middle" x="1327" y="-143.5" font-family="Helvetica,sans-Serif" font-size="10.00">FairLogger.h</text>
</g>
<!-- Node20&#45;&gt;Node30 -->
<g id="edge36" class="edge"><title>Node20&#45;&gt;Node30</title>
<path fill="none" stroke="midnightblue" d="M1295.27,-192.083C1300.64,-184.455 1308.52,-173.264 1315.08,-163.941"/>
<polygon fill="midnightblue" stroke="midnightblue" points="1317.95,-165.943 1320.84,-155.751 1312.22,-161.915 1317.95,-165.943"/>
</g>
<!-- Node23&#45;&gt;Node5 -->
<g id="edge27" class="edge"><title>Node23&#45;&gt;Node5</title>
<path fill="none" stroke="midnightblue" d="M1531.82,-136.483C1572.06,-129.151 1628.44,-117.043 1676,-100 1677.85,-99.337 1679.73,-98.5881 1681.61,-97.7875"/>
<polygon fill="midnightblue" stroke="midnightblue" points="1683.17,-100.923 1690.74,-93.5115 1680.2,-94.5834 1683.17,-100.923"/>
</g>
<!-- Node23&#45;&gt;Node13 -->
<g id="edge25" class="edge"><title>Node23&#45;&gt;Node13</title>
<path fill="none" stroke="midnightblue" d="M1436.49,-136.442C1398.88,-128.436 1342.72,-115.419 1295,-100 1292.43,-99.1696 1289.78,-98.2444 1287.15,-97.2725"/>
<polygon fill="midnightblue" stroke="midnightblue" points="1288.36,-93.9903 1277.77,-93.6344 1285.83,-100.516 1288.36,-93.9903"/>
</g>
<!-- Node23&#45;&gt;Node22 -->
<g id="edge26" class="edge"><title>Node23&#45;&gt;Node22</title>
<path fill="none" stroke="midnightblue" d="M1461.4,-136.353C1446.9,-128.506 1426.57,-115.766 1413,-100 1396.33,-80.6336 1384.89,-53.1167 1378.64,-35.1629"/>
<polygon fill="midnightblue" stroke="midnightblue" points="1381.95,-34.0075 1375.49,-25.6045 1375.3,-36.1975 1381.95,-34.0075"/>
</g>
<!-- Node24 -->
<g id="node24" class="node"><title>Node24</title>
<polygon fill="none" stroke="#bfbfbf" points="1553.5,-74.5 1553.5,-93.5 1602.5,-93.5 1602.5,-74.5 1553.5,-74.5"/>
<text text-anchor="middle" x="1578" y="-81.5" font-family="Helvetica,sans-Serif" font-size="10.00">cassert</text>
</g>
<!-- Node23&#45;&gt;Node24 -->
<g id="edge28" class="edge"><title>Node23&#45;&gt;Node24</title>
<path fill="none" stroke="midnightblue" d="M1493.18,-136.403C1509.36,-126.601 1536.03,-110.439 1555.14,-98.8526"/>
<polygon fill="midnightblue" stroke="midnightblue" points="1557.1,-101.757 1563.84,-93.5806 1553.48,-95.7705 1557.1,-101.757"/>
</g>
<!-- Node25 -->
<g id="node25" class="node"><title>Node25</title>
<polygon fill="none" stroke="#bfbfbf" points="1621,-74.5 1621,-93.5 1667,-93.5 1667,-74.5 1621,-74.5"/>
<text text-anchor="middle" x="1644" y="-81.5" font-family="Helvetica,sans-Serif" font-size="10.00">cstdint</text>
</g>
<!-- Node23&#45;&gt;Node25 -->
<g id="edge29" class="edge"><title>Node23&#45;&gt;Node25</title>
<path fill="none" stroke="midnightblue" d="M1506.59,-136.466C1533.49,-127.94 1575.44,-114.104 1611,-100 1612.84,-99.2691 1614.73,-98.491 1616.63,-97.6884"/>
<polygon fill="midnightblue" stroke="midnightblue" points="1618.24,-100.804 1625.98,-93.5755 1615.42,-94.3963 1618.24,-100.804"/>
</g>
<!-- Node26 -->
<g id="node26" class="node"><title>Node26</title>
<polygon fill="none" stroke="#bfbfbf" points="1304,-74.5 1304,-93.5 1366,-93.5 1366,-74.5 1304,-74.5"/>
<text text-anchor="middle" x="1335" y="-81.5" font-family="Helvetica,sans-Serif" font-size="10.00">type_traits</text>
</g>
<!-- Node23&#45;&gt;Node26 -->
<g id="edge30" class="edge"><title>Node23&#45;&gt;Node26</title>
<path fill="none" stroke="midnightblue" d="M1458.37,-136.403C1433.88,-126.2 1392.85,-109.105 1364.89,-97.4544"/>
<polygon fill="midnightblue" stroke="midnightblue" points="1366.17,-94.196 1355.59,-93.5806 1363.48,-100.658 1366.17,-94.196"/>
</g>
<!-- Node27 -->
<g id="node27" class="node"><title>Node27</title>
<g id="a_node27"><a xlink:href="../../d9/ded/Utils_8h.html" target="_top" xlink:title="DetectorsBase/Utils.h">
<polygon fill="none" stroke="black" points="1422.5,-74.5 1422.5,-93.5 1535.5,-93.5 1535.5,-74.5 1422.5,-74.5"/>
<text text-anchor="middle" x="1479" y="-81.5" font-family="Helvetica,sans-Serif" font-size="10.00">DetectorsBase/Utils.h</text>
</a>
</g>
</g>
<!-- Node23&#45;&gt;Node27 -->
<g id="edge31" class="edge"><title>Node23&#45;&gt;Node27</title>
<path fill="none" stroke="midnightblue" d="M1479,-136.403C1479,-127.938 1479,-114.728 1479,-103.82"/>
<polygon fill="midnightblue" stroke="midnightblue" points="1482.5,-103.581 1479,-93.5806 1475.5,-103.581 1482.5,-103.581"/>
</g>
<!-- Node27&#45;&gt;Node22 -->
<g id="edge34" class="edge"><title>Node27&#45;&gt;Node22</title>
<path fill="none" stroke="midnightblue" d="M1465.14,-74.3717C1447.45,-63.3533 1416.6,-44.1449 1395.51,-31.0142"/>
<polygon fill="midnightblue" stroke="midnightblue" points="1397.2,-27.945 1386.86,-25.6305 1393.5,-33.8872 1397.2,-27.945"/>
</g>
<!-- Node28 -->
<g id="node28" class="node"><title>Node28</title>
<g id="a_node28"><a xlink:href="../../d1/daa/Base_2include_2DetectorsBase_2Constants_8h.html" target="_top" xlink:title="DetectorsBase/Constants.h">
<polygon fill="none" stroke="black" points="1410,-6.5 1410,-25.5 1548,-25.5 1548,-6.5 1410,-6.5"/>
<text text-anchor="middle" x="1479" y="-13.5" font-family="Helvetica,sans-Serif" font-size="10.00">DetectorsBase/Constants.h</text>
</a>
</g>
</g>
<!-- Node27&#45;&gt;Node28 -->
<g id="edge32" class="edge"><title>Node27&#45;&gt;Node28</title>
<path fill="none" stroke="midnightblue" d="M1479,-74.3717C1479,-64.6426 1479,-48.528 1479,-35.8504"/>
<polygon fill="midnightblue" stroke="midnightblue" points="1482.5,-35.8411 1479,-25.8411 1475.5,-35.8412 1482.5,-35.8411"/>
</g>
<!-- Node29 -->
<g id="node29" class="node"><title>Node29</title>
<polygon fill="none" stroke="#bfbfbf" points="1566,-6.5 1566,-25.5 1610,-25.5 1610,-6.5 1566,-6.5"/>
<text text-anchor="middle" x="1588" y="-13.5" font-family="Helvetica,sans-Serif" font-size="10.00">cmath</text>
</g>
<!-- Node27&#45;&gt;Node29 -->
<g id="edge33" class="edge"><title>Node27&#45;&gt;Node29</title>
<path fill="none" stroke="midnightblue" d="M1493.25,-74.3717C1511.53,-63.3039 1543.45,-43.9724 1565.15,-30.838"/>
<polygon fill="midnightblue" stroke="midnightblue" points="1567.01,-33.804 1573.75,-25.6305 1563.38,-27.8161 1567.01,-33.804"/>
</g>
<!-- Node32 -->
<g id="node32" class="node"><title>Node32</title>
<polygon fill="none" stroke="#bfbfbf" points="1381,-254.5 1381,-273.5 1479,-273.5 1479,-254.5 1381,-254.5"/>
<text text-anchor="middle" x="1430" y="-261.5" font-family="Helvetica,sans-Serif" font-size="10.00">FairEventHeader.h</text>
</g>
<!-- Node31&#45;&gt;Node32 -->
<g id="edge38" class="edge"><title>Node31&#45;&gt;Node32</title>
<path fill="none" stroke="midnightblue" d="M1529.97,-322.372C1510.59,-311.254 1476.7,-291.8 1453.81,-278.662"/>
<polygon fill="midnightblue" stroke="midnightblue" points="1455.45,-275.573 1445.04,-273.63 1451.97,-281.644 1455.45,-275.573"/>
</g>
<!-- Node33 -->
<g id="node33" class="node"><title>Node33</title>
<polygon fill="none" stroke="#bfbfbf" points="1497.5,-249 1497.5,-279 1592.5,-279 1592.5,-249 1497.5,-249"/>
<text text-anchor="start" x="1505.5" y="-267" font-family="Helvetica,sans-Serif" font-size="10.00">boost/serialization</text>
<text text-anchor="middle" x="1545" y="-256" font-family="Helvetica,sans-Serif" font-size="10.00">/access.hpp</text>
</g>
<!-- Node31&#45;&gt;Node33 -->
<g id="edge39" class="edge"><title>Node31&#45;&gt;Node33</title>
<path fill="none" stroke="midnightblue" d="M1545,-322.372C1545,-313.971 1545,-300.811 1545,-289.213"/>
<polygon fill="midnightblue" stroke="midnightblue" points="1548.5,-289.181 1545,-279.181 1541.5,-289.181 1548.5,-289.181"/>
</g>
<!-- Node34 -->
<g id="node34" class="node"><title>Node34</title>
<polygon fill="none" stroke="#bfbfbf" points="1610.5,-249 1610.5,-279 1705.5,-279 1705.5,-249 1610.5,-249"/>
<text text-anchor="start" x="1618.5" y="-267" font-family="Helvetica,sans-Serif" font-size="10.00">boost/serialization</text>
<text text-anchor="middle" x="1658" y="-256" font-family="Helvetica,sans-Serif" font-size="10.00">/base_object.hpp</text>
</g>
<!-- Node31&#45;&gt;Node34 -->
<g id="edge40" class="edge"><title>Node31&#45;&gt;Node34</title>
<path fill="none" stroke="midnightblue" d="M1559.77,-322.372C1576.21,-312.771 1603.29,-296.954 1624.86,-284.356"/>
<polygon fill="midnightblue" stroke="midnightblue" points="1626.85,-287.247 1633.72,-279.181 1623.32,-281.203 1626.85,-287.247"/>
</g>
<!-- Node36 -->
<g id="node36" class="node"><title>Node36</title>
<polygon fill="none" stroke="#bfbfbf" points="1723.5,-254.5 1723.5,-273.5 1818.5,-273.5 1818.5,-254.5 1723.5,-254.5"/>
<text text-anchor="middle" x="1771" y="-261.5" font-family="Helvetica,sans-Serif" font-size="10.00">FairTrackParam.h</text>
</g>
<!-- Node35&#45;&gt;Node36 -->
<g id="edge42" class="edge"><title>Node35&#45;&gt;Node36</title>
<path fill="none" stroke="midnightblue" d="M1716.24,-322.372C1726.18,-311.955 1743.11,-294.217 1755.52,-281.216"/>
<polygon fill="midnightblue" stroke="midnightblue" points="1758.19,-283.491 1762.56,-273.841 1753.12,-278.658 1758.19,-283.491"/>
</g>
<!-- Node38 -->
<g id="node38" class="node"><title>Node38</title>
<polygon fill="none" stroke="#bfbfbf" points="1845.5,-254.5 1845.5,-273.5 1908.5,-273.5 1908.5,-254.5 1845.5,-254.5"/>
<text text-anchor="middle" x="1877" y="-261.5" font-family="Helvetica,sans-Serif" font-size="10.00">FairTask.h</text>
</g>
<!-- Node37&#45;&gt;Node38 -->
<g id="edge44" class="edge"><title>Node37&#45;&gt;Node38</title>
<path fill="none" stroke="midnightblue" d="M1877,-322.372C1877,-312.643 1877,-296.528 1877,-283.85"/>
<polygon fill="midnightblue" stroke="midnightblue" points="1880.5,-283.841 1877,-273.841 1873.5,-283.841 1880.5,-283.841"/>
</g>
</g>
</svg>
