<?xml version="1.0" encoding="UTF-8" standalone="no"?>
<!DOCTYPE svg PUBLIC "-//W3C//DTD SVG 1.1//EN"
 "http://www.w3.org/Graphics/SVG/1.1/DTD/svg11.dtd">
<!-- Generated by graphviz version 2.36.0 (20140111.2315)
 -->
<!-- Title: o2::framework::DeviceGUIState Pages: 1 -->
<svg width="164pt" height="172pt"
 viewBox="0.00 0.00 164.00 172.00" xmlns="http://www.w3.org/2000/svg" xmlns:xlink="http://www.w3.org/1999/xlink">
<g id="graph0" class="graph" transform="scale(1 1) rotate(0) translate(4 168)">
<title>o2::framework::DeviceGUIState</title>
<!-- Node1 -->
<g id="node1" class="node"><title>Node1</title>
<polygon fill="#bfbfbf" stroke="black" points="-0.5,-0.5 -0.5,-57.5 156.5,-57.5 156.5,-0.5 -0.5,-0.5"/>
<text text-anchor="middle" x="78" y="-45.5" font-family="Helvetica,sans-Serif" font-size="10.00">o2::framework::DeviceGUIState</text>
<polyline fill="none" stroke="black" points="-0.5,-38.5 156.5,-38.5 "/>
<text text-anchor="middle" x="78" y="-26.5" font-family="Helvetica,sans-Serif" font-size="10.00"> </text>
<polyline fill="none" stroke="black" points="-0.5,-19.5 156.5,-19.5 "/>
<text text-anchor="middle" x="78" y="-7.5" font-family="Helvetica,sans-Serif" font-size="10.00"> </text>
</g>
<!-- Node2 -->
<g id="node2" class="node"><title>Node2</title>
<polygon fill="none" stroke="#bfbfbf" points="63.5,-106.5 63.5,-163.5 92.5,-163.5 92.5,-106.5 63.5,-106.5"/>
<text text-anchor="middle" x="78" y="-151.5" font-family="Helvetica,sans-Serif" font-size="10.00">int</text>
<polyline fill="none" stroke="#bfbfbf" points="63.5,-144.5 92.5,-144.5 "/>
<text text-anchor="middle" x="78" y="-132.5" font-family="Helvetica,sans-Serif" font-size="10.00"> </text>
<polyline fill="none" stroke="#bfbfbf" points="63.5,-125.5 92.5,-125.5 "/>
<text text-anchor="middle" x="78" y="-113.5" font-family="Helvetica,sans-Serif" font-size="10.00"> </text>
</g>
<!-- Node2&#45;&gt;Node1 -->
<g id="edge1" class="edge"><title>Node2&#45;&gt;Node1</title>
<path fill="none" stroke="#404040" d="M78,-106.403C78,-95.2373 78,-82.1304 78,-69.9556"/>
<polygon fill="none" stroke="#404040" points="78.0001,-69.726 74,-63.726 78,-57.726 82,-63.726 78.0001,-69.726"/>
<text text-anchor="middle" x="93" y="-79.5" font-family="Helvetica,sans-Serif" font-size="10.00"> +label</text>
</g>
</g>
</svg>
