<?xml version="1.0" encoding="UTF-8" standalone="no"?>
<!DOCTYPE svg PUBLIC "-//W3C//DTD SVG 1.1//EN"
 "http://www.w3.org/Graphics/SVG/1.1/DTD/svg11.dtd">
<!-- Generated by graphviz version 2.36.0 (20140111.2315)
 -->
<!-- Title: /home/travis/build/AliceO2Group/AliceO2/DataFormats/simulation/include/SimulationDataFormat/ProcessingEventInfo.h Pages: 1 -->
<svg width="218pt" height="228pt"
 viewBox="0.00 0.00 218.00 228.00" xmlns="http://www.w3.org/2000/svg" xmlns:xlink="http://www.w3.org/1999/xlink">
<g id="graph0" class="graph" transform="scale(1 1) rotate(0) translate(4 224)">
<title>/home/travis/build/AliceO2Group/AliceO2/DataFormats/simulation/include/SimulationDataFormat/ProcessingEventInfo.h</title>
<!-- Node1 -->
<g id="node1" class="node"><title>Node1</title>
<polygon fill="#bfbfbf" stroke="black" points="59.5,-156.5 59.5,-219.5 210.5,-219.5 210.5,-156.5 59.5,-156.5"/>
<text text-anchor="start" x="67.5" y="-207.5" font-family="Helvetica,sans-Serif" font-size="10.00">/home/travis/build</text>
<text text-anchor="start" x="67.5" y="-196.5" font-family="Helvetica,sans-Serif" font-size="10.00">/AliceO2Group/AliceO2</text>
<text text-anchor="start" x="67.5" y="-185.5" font-family="Helvetica,sans-Serif" font-size="10.00">/DataFormats/simulation</text>
<text text-anchor="start" x="67.5" y="-174.5" font-family="Helvetica,sans-Serif" font-size="10.00">/include/SimulationDataFormat</text>
<text text-anchor="middle" x="135" y="-163.5" font-family="Helvetica,sans-Serif" font-size="10.00">/ProcessingEventInfo.h</text>
</g>
<!-- Node2 -->
<g id="node2" class="node"><title>Node2</title>
<g id="a_node2"><a xlink:href="../../d0/dfb/O2RunAna_8h.html" target="_top" xlink:title="/home/travis/build\l/AliceO2Group/AliceO2\l/Steer/include/Steer/O2RunAna.h">
<polygon fill="none" stroke="black" points="0,-78.5 0,-119.5 162,-119.5 162,-78.5 0,-78.5"/>
<text text-anchor="start" x="8" y="-107.5" font-family="Helvetica,sans-Serif" font-size="10.00">/home/travis/build</text>
<text text-anchor="start" x="8" y="-96.5" font-family="Helvetica,sans-Serif" font-size="10.00">/AliceO2Group/AliceO2</text>
<text text-anchor="middle" x="81" y="-85.5" font-family="Helvetica,sans-Serif" font-size="10.00">/Steer/include/Steer/O2RunAna.h</text>
</a>
</g>
</g>
<!-- Node1&#45;&gt;Node2 -->
<g id="edge1" class="edge"><title>Node1&#45;&gt;Node2</title>
<path fill="none" stroke="midnightblue" d="M110.412,-147.385C104.448,-137.778 98.3273,-127.916 93.2239,-119.694"/>
<polygon fill="midnightblue" stroke="midnightblue" points="107.562,-149.431 115.81,-156.082 113.51,-145.74 107.562,-149.431"/>
</g>
<!-- Node3 -->
<g id="node3" class="node"><title>Node3</title>
<g id="a_node3"><a xlink:href="../../d7/da5/O2RunAna_8cxx.html" target="_top" xlink:title="/home/travis/build\l/AliceO2Group/AliceO2\l/Steer/src/O2RunAna.cxx">
<polygon fill="none" stroke="black" points="70.5,-0.5 70.5,-41.5 199.5,-41.5 199.5,-0.5 70.5,-0.5"/>
<text text-anchor="start" x="78.5" y="-29.5" font-family="Helvetica,sans-Serif" font-size="10.00">/home/travis/build</text>
<text text-anchor="start" x="78.5" y="-18.5" font-family="Helvetica,sans-Serif" font-size="10.00">/AliceO2Group/AliceO2</text>
<text text-anchor="middle" x="135" y="-7.5" font-family="Helvetica,sans-Serif" font-size="10.00">/Steer/src/O2RunAna.cxx</text>
</a>
</g>
</g>
<!-- Node1&#45;&gt;Node3 -->
<g id="edge3" class="edge"><title>Node1&#45;&gt;Node3</title>
<path fill="none" stroke="midnightblue" d="M160.469,-147.196C164.82,-138.545 168.681,-129.216 171,-120 175.555,-101.898 176.26,-95.9102 171,-78 167.124,-64.8035 159.073,-51.7752 151.565,-41.6102"/>
<polygon fill="midnightblue" stroke="midnightblue" points="157.24,-145.812 155.603,-156.279 163.41,-149.117 157.24,-145.812"/>
</g>
<!-- Node2&#45;&gt;Node3 -->
<g id="edge2" class="edge"><title>Node2&#45;&gt;Node3</title>
<path fill="none" stroke="midnightblue" d="M100.861,-70.0476C107.598,-60.5657 114.974,-50.1845 121.141,-41.5056"/>
<polygon fill="midnightblue" stroke="midnightblue" points="97.8453,-68.2491 94.9063,-78.4281 103.552,-72.3035 97.8453,-68.2491"/>
</g>
</g>
</svg>
