<?xml version="1.0" encoding="UTF-8" standalone="no"?>
<!DOCTYPE svg PUBLIC "-//W3C//DTD SVG 1.1//EN"
 "http://www.w3.org/Graphics/SVG/1.1/DTD/svg11.dtd">
<!-- Generated by graphviz version 2.36.0 (20140111.2315)
 -->
<!-- Title: /home/travis/build/AliceO2Group/AliceO2/Detectors/ITSMFT/MFT/simulation/include/MFTSimulation/DigitizerTask.h Pages: 1 -->
<svg width="2619pt" height="456pt"
 viewBox="0.00 0.00 2619.00 456.00" xmlns="http://www.w3.org/2000/svg" xmlns:xlink="http://www.w3.org/1999/xlink">
<g id="graph0" class="graph" transform="scale(1 1) rotate(0) translate(4 452)">
<title>/home/travis/build/AliceO2Group/AliceO2/Detectors/ITSMFT/MFT/simulation/include/MFTSimulation/DigitizerTask.h</title>
<!-- Node1 -->
<g id="node1" class="node"><title>Node1</title>
<polygon fill="#bfbfbf" stroke="black" points="68.5,-384.5 68.5,-447.5 235.5,-447.5 235.5,-384.5 68.5,-384.5"/>
<text text-anchor="start" x="76.5" y="-435.5" font-family="Helvetica,sans-Serif" font-size="10.00">/home/travis/build</text>
<text text-anchor="start" x="76.5" y="-424.5" font-family="Helvetica,sans-Serif" font-size="10.00">/AliceO2Group/AliceO2</text>
<text text-anchor="start" x="76.5" y="-413.5" font-family="Helvetica,sans-Serif" font-size="10.00">/Detectors/ITSMFT/MFT</text>
<text text-anchor="start" x="76.5" y="-402.5" font-family="Helvetica,sans-Serif" font-size="10.00">/simulation/include/MFTSimulation</text>
<text text-anchor="middle" x="152" y="-391.5" font-family="Helvetica,sans-Serif" font-size="10.00">/DigitizerTask.h</text>
</g>
<!-- Node2 -->
<g id="node2" class="node"><title>Node2</title>
<polygon fill="none" stroke="#bfbfbf" points="-0.5,-328.5 -0.5,-347.5 42.5,-347.5 42.5,-328.5 -0.5,-328.5"/>
<text text-anchor="middle" x="21" y="-335.5" font-family="Helvetica,sans-Serif" font-size="10.00">cstdio</text>
</g>
<!-- Node1&#45;&gt;Node2 -->
<g id="edge1" class="edge"><title>Node1&#45;&gt;Node2</title>
<path fill="none" stroke="midnightblue" d="M99.0949,-384.307C80.1595,-373.322 59.7648,-361.489 44.5669,-352.672"/>
<polygon fill="midnightblue" stroke="midnightblue" points="46.2414,-349.598 35.8352,-347.607 42.7286,-355.652 46.2414,-349.598"/>
</g>
<!-- Node3 -->
<g id="node3" class="node"><title>Node3</title>
<polygon fill="none" stroke="#bfbfbf" points="60.5,-328.5 60.5,-347.5 123.5,-347.5 123.5,-328.5 60.5,-328.5"/>
<text text-anchor="middle" x="92" y="-335.5" font-family="Helvetica,sans-Serif" font-size="10.00">FairTask.h</text>
</g>
<!-- Node1&#45;&gt;Node3 -->
<g id="edge2" class="edge"><title>Node1&#45;&gt;Node3</title>
<path fill="none" stroke="midnightblue" d="M127.596,-384.088C119.89,-374.328 111.674,-363.921 105.079,-355.567"/>
<polygon fill="midnightblue" stroke="midnightblue" points="107.826,-353.398 98.8828,-347.718 102.332,-357.736 107.826,-353.398"/>
</g>
<!-- Node4 -->
<g id="node4" class="node"><title>Node4</title>
<polygon fill="none" stroke="#bfbfbf" points="642,-6.5 642,-25.5 698,-25.5 698,-6.5 642,-6.5"/>
<text text-anchor="middle" x="670" y="-13.5" font-family="Helvetica,sans-Serif" font-size="10.00">Rtypes.h</text>
</g>
<!-- Node1&#45;&gt;Node4 -->
<g id="edge3" class="edge"><title>Node1&#45;&gt;Node4</title>
<path fill="none" stroke="midnightblue" d="M152,-384.306C152,-356.34 152,-313.896 152,-277 152,-277 152,-277 152,-145 152,-90.3044 197.583,-89.2057 248,-68 316.951,-38.999 541.33,-23.9477 631.735,-18.939"/>
<polygon fill="midnightblue" stroke="midnightblue" points="632.03,-22.4282 641.826,-18.391 631.651,-15.4385 632.03,-22.4282"/>
</g>
<!-- Node5 -->
<g id="node5" class="node"><title>Node5</title>
<g id="a_node5"><a xlink:href="../../df/d29/DigiParams_8h.html" target="_top" xlink:title="Simulation parameters for the ALIPIDE chip. ">
<polygon fill="none" stroke="black" points="988.5,-266.5 988.5,-285.5 1149.5,-285.5 1149.5,-266.5 988.5,-266.5"/>
<text text-anchor="middle" x="1069" y="-273.5" font-family="Helvetica,sans-Serif" font-size="10.00">ITSMFTSimulation/DigiParams.h</text>
</a>
</g>
</g>
<!-- Node1&#45;&gt;Node5 -->
<g id="edge4" class="edge"><title>Node1&#45;&gt;Node5</title>
<path fill="none" stroke="midnightblue" d="M235.601,-407.11C345.633,-396.25 544.915,-374.945 714,-348 824.697,-330.36 953.452,-302.839 1021.38,-287.766"/>
<polygon fill="midnightblue" stroke="midnightblue" points="1022.35,-291.136 1031.35,-285.546 1020.83,-284.304 1022.35,-291.136"/>
</g>
<!-- Node6 -->
<g id="node6" class="node"><title>Node6</title>
<g id="a_node6"><a xlink:href="../../d7/d9c/ITSMFT_2common_2simulation_2include_2ITSMFTSimulation_2Digitizer_8h.html" target="_top" xlink:title="ITSMFTSimulation/Digitizer.h">
<polygon fill="none" stroke="black" points="559,-328.5 559,-347.5 705,-347.5 705,-328.5 559,-328.5"/>
<text text-anchor="middle" x="632" y="-335.5" font-family="Helvetica,sans-Serif" font-size="10.00">ITSMFTSimulation/Digitizer.h</text>
</a>
</g>
</g>
<!-- Node1&#45;&gt;Node6 -->
<g id="edge6" class="edge"><title>Node1&#45;&gt;Node6</title>
<path fill="none" stroke="midnightblue" d="M235.61,-401.762C330.206,-386.784 482.216,-362.716 567.897,-349.15"/>
<polygon fill="midnightblue" stroke="midnightblue" points="568.679,-352.569 578.009,-347.549 567.585,-345.656 568.679,-352.569"/>
</g>
<!-- Node5&#45;&gt;Node4 -->
<g id="edge5" class="edge"><title>Node5&#45;&gt;Node4</title>
<path fill="none" stroke="midnightblue" d="M1149.68,-274.673C1324.3,-272.072 1728.39,-255.221 1813,-156 1838.38,-126.24 1840.03,-96.2654 1813,-68 1773.97,-27.188 902.094,-18.6384 708.045,-17.2388"/>
<polygon fill="midnightblue" stroke="midnightblue" points="708.057,-13.7389 698.032,-17.1686 708.008,-20.7387 708.057,-13.7389"/>
</g>
<!-- Node6&#45;&gt;Node4 -->
<g id="edge9" class="edge"><title>Node6&#45;&gt;Node4</title>
<path fill="none" stroke="midnightblue" d="M632,-328.309C632,-307.633 632,-253.889 632,-209 632,-209 632,-209 632,-145 632,-104.231 649.935,-59.0653 661.163,-34.7866"/>
<polygon fill="midnightblue" stroke="midnightblue" points="664.335,-36.2655 665.492,-25.734 658.02,-33.2455 664.335,-36.2655"/>
</g>
<!-- Node6&#45;&gt;Node5 -->
<g id="edge44" class="edge"><title>Node6&#45;&gt;Node5</title>
<path fill="none" stroke="midnightblue" d="M700.853,-328.47C769.97,-319.782 879.465,-305.68 974,-292 984.394,-290.496 995.416,-288.825 1006.13,-287.161"/>
<polygon fill="midnightblue" stroke="midnightblue" points="1006.94,-290.577 1016.27,-285.573 1005.85,-283.661 1006.94,-290.577"/>
</g>
<!-- Node7 -->
<g id="node7" class="node"><title>Node7</title>
<polygon fill="none" stroke="#bfbfbf" points="758,-136.5 758,-155.5 802,-155.5 802,-136.5 758,-136.5"/>
<text text-anchor="middle" x="780" y="-143.5" font-family="Helvetica,sans-Serif" font-size="10.00">vector</text>
</g>
<!-- Node6&#45;&gt;Node7 -->
<g id="edge7" class="edge"><title>Node6&#45;&gt;Node7</title>
<path fill="none" stroke="midnightblue" d="M702.15,-328.471C787.4,-317.798 920.963,-299.957 929,-292 960.774,-260.542 966.999,-227.64 940,-192 938.021,-189.387 858.201,-167.801 812.069,-155.5"/>
<polygon fill="midnightblue" stroke="midnightblue" points="812.792,-152.071 802.228,-152.881 810.991,-158.836 812.792,-152.071"/>
</g>
<!-- Node8 -->
<g id="node8" class="node"><title>Node8</title>
<polygon fill="none" stroke="#bfbfbf" points="552,-266.5 552,-285.5 604,-285.5 604,-266.5 552,-266.5"/>
<text text-anchor="middle" x="578" y="-273.5" font-family="Helvetica,sans-Serif" font-size="10.00">memory</text>
</g>
<!-- Node6&#45;&gt;Node8 -->
<g id="edge8" class="edge"><title>Node6&#45;&gt;Node8</title>
<path fill="none" stroke="midnightblue" d="M624.263,-328.403C616.003,-319.225 602.723,-304.47 592.506,-293.117"/>
<polygon fill="midnightblue" stroke="midnightblue" points="595.014,-290.672 585.723,-285.581 589.811,-295.355 595.014,-290.672"/>
</g>
<!-- Node9 -->
<g id="node9" class="node"><title>Node9</title>
<polygon fill="none" stroke="#bfbfbf" points="180.5,-136.5 180.5,-155.5 239.5,-155.5 239.5,-136.5 180.5,-136.5"/>
<text text-anchor="middle" x="210" y="-143.5" font-family="Helvetica,sans-Serif" font-size="10.00">TObject.h</text>
</g>
<!-- Node6&#45;&gt;Node9 -->
<g id="edge10" class="edge"><title>Node6&#45;&gt;Node9</title>
<path fill="none" stroke="midnightblue" d="M558.729,-333.931C506.109,-329.419 434.602,-318.454 377,-292 309.703,-261.093 249.02,-194.455 223.182,-163.467"/>
<polygon fill="midnightblue" stroke="midnightblue" points="225.888,-161.247 216.842,-155.732 220.474,-165.684 225.888,-161.247"/>
</g>
<!-- Node10 -->
<g id="node10" class="node"><title>Node10</title>
<g id="a_node10"><a xlink:href="../../d7/d9e/SimulationAlpide_8h.html" target="_top" xlink:title="Simulation of the ALIPIDE chip response. ">
<polygon fill="none" stroke="black" points="386.5,-261 386.5,-291 533.5,-291 533.5,-261 386.5,-261"/>
<text text-anchor="start" x="394.5" y="-279" font-family="Helvetica,sans-Serif" font-size="10.00">ITSMFTSimulation/Simulation</text>
<text text-anchor="middle" x="460" y="-268" font-family="Helvetica,sans-Serif" font-size="10.00">Alpide.h</text>
</a>
</g>
</g>
<!-- Node6&#45;&gt;Node10 -->
<g id="edge11" class="edge"><title>Node6&#45;&gt;Node10</title>
<path fill="none" stroke="midnightblue" d="M607.357,-328.403C582.018,-319.564 541.852,-305.553 509.85,-294.39"/>
<polygon fill="midnightblue" stroke="midnightblue" points="510.801,-291.014 500.206,-291.025 508.495,-297.624 510.801,-291.014"/>
</g>
<!-- Node30 -->
<g id="node30" class="node"><title>Node30</title>
<g id="a_node30"><a xlink:href="../../dc/d1a/AlpideSimResponse_8h.html" target="_top" xlink:title="Definition of the ITSMFT Alpide simulated response parametrization. ">
<polygon fill="none" stroke="black" points="660,-193 660,-223 806,-223 806,-193 660,-193"/>
<text text-anchor="start" x="668" y="-211" font-family="Helvetica,sans-Serif" font-size="10.00">ITSMFTSimulation/AlpideSim</text>
<text text-anchor="middle" x="733" y="-200" font-family="Helvetica,sans-Serif" font-size="10.00">Response.h</text>
</a>
</g>
</g>
<!-- Node6&#45;&gt;Node30 -->
<g id="edge43" class="edge"><title>Node6&#45;&gt;Node30</title>
<path fill="none" stroke="midnightblue" d="M638.942,-328.202C654.533,-308.444 692.726,-260.041 715.358,-231.358"/>
<polygon fill="midnightblue" stroke="midnightblue" points="718.393,-233.162 721.84,-223.143 712.898,-228.825 718.393,-233.162"/>
</g>
<!-- Node33 -->
<g id="node33" class="node"><title>Node33</title>
<g id="a_node33"><a xlink:href="../../d0/d2d/common_2base_2include_2ITSMFTBase_2GeometryTGeo_8h.html" target="_top" xlink:title="ITSMFTBase/GeometryTGeo.h">
<polygon fill="none" stroke="black" points="767.5,-266.5 767.5,-285.5 920.5,-285.5 920.5,-266.5 767.5,-266.5"/>
<text text-anchor="middle" x="844" y="-273.5" font-family="Helvetica,sans-Serif" font-size="10.00">ITSMFTBase/GeometryTGeo.h</text>
</a>
</g>
</g>
<!-- Node6&#45;&gt;Node33 -->
<g id="edge45" class="edge"><title>Node6&#45;&gt;Node33</title>
<path fill="none" stroke="midnightblue" d="M662.374,-328.403C699.606,-317.866 762.81,-299.978 803.976,-288.328"/>
<polygon fill="midnightblue" stroke="midnightblue" points="805.013,-291.672 813.682,-285.581 803.107,-284.936 805.013,-291.672"/>
</g>
<!-- Node10&#45;&gt;Node9 -->
<g id="edge12" class="edge"><title>Node10&#45;&gt;Node9</title>
<path fill="none" stroke="midnightblue" d="M432.29,-260.813C383.527,-235.846 283.066,-184.41 235.737,-160.177"/>
<polygon fill="midnightblue" stroke="midnightblue" points="237.242,-157.016 226.746,-155.574 234.052,-163.247 237.242,-157.016"/>
</g>
<!-- Node11 -->
<g id="node11" class="node"><title>Node11</title>
<g id="a_node11"><a xlink:href="../../d9/d55/Chip_8h.html" target="_top" xlink:title="ITSMFTSimulation/Chip.h">
<polygon fill="none" stroke="black" points="421,-198.5 421,-217.5 551,-217.5 551,-198.5 421,-198.5"/>
<text text-anchor="middle" x="486" y="-205.5" font-family="Helvetica,sans-Serif" font-size="10.00">ITSMFTSimulation/Chip.h</text>
</a>
</g>
</g>
<!-- Node10&#45;&gt;Node11 -->
<g id="edge13" class="edge"><title>Node10&#45;&gt;Node11</title>
<path fill="none" stroke="midnightblue" d="M465.642,-260.679C469.495,-250.898 474.634,-237.852 478.785,-227.315"/>
<polygon fill="midnightblue" stroke="midnightblue" points="482.113,-228.415 482.522,-217.828 475.6,-225.85 482.113,-228.415"/>
</g>
<!-- Node10&#45;&gt;Node30 -->
<g id="edge38" class="edge"><title>Node10&#45;&gt;Node30</title>
<path fill="none" stroke="midnightblue" d="M518.23,-260.922C561.178,-250.539 619.739,-236.382 664.864,-225.472"/>
<polygon fill="midnightblue" stroke="midnightblue" points="665.961,-228.808 674.859,-223.056 664.317,-222.004 665.961,-228.808"/>
</g>
<!-- Node11&#45;&gt;Node7 -->
<g id="edge16" class="edge"><title>Node11&#45;&gt;Node7</title>
<path fill="none" stroke="midnightblue" d="M536.49,-198.438C587.272,-189.544 668.001,-174.635 747.491,-155.947"/>
<polygon fill="midnightblue" stroke="midnightblue" points="748.76,-159.243 757.681,-153.529 747.143,-152.433 748.76,-159.243"/>
</g>
<!-- Node11&#45;&gt;Node9 -->
<g id="edge18" class="edge"><title>Node11&#45;&gt;Node9</title>
<path fill="none" stroke="midnightblue" d="M444.665,-198.423C399.189,-188.925 323.682,-172.972 249.796,-156.374"/>
<polygon fill="midnightblue" stroke="midnightblue" points="250.381,-152.918 239.857,-154.135 248.843,-159.747 250.381,-152.918"/>
</g>
<!-- Node12 -->
<g id="node12" class="node"><title>Node12</title>
<polygon fill="none" stroke="#bfbfbf" points="382.5,-136.5 382.5,-155.5 441.5,-155.5 441.5,-136.5 382.5,-136.5"/>
<text text-anchor="middle" x="412" y="-143.5" font-family="Helvetica,sans-Serif" font-size="10.00">exception</text>
</g>
<!-- Node11&#45;&gt;Node12 -->
<g id="edge14" class="edge"><title>Node11&#45;&gt;Node12</title>
<path fill="none" stroke="midnightblue" d="M475.398,-198.403C463.748,-188.958 444.814,-173.606 430.665,-162.134"/>
<polygon fill="midnightblue" stroke="midnightblue" points="432.555,-159.16 422.583,-155.581 428.146,-164.597 432.555,-159.16"/>
</g>
<!-- Node13 -->
<g id="node13" class="node"><title>Node13</title>
<polygon fill="none" stroke="#bfbfbf" points="460,-136.5 460,-155.5 512,-155.5 512,-136.5 460,-136.5"/>
<text text-anchor="middle" x="486" y="-143.5" font-family="Helvetica,sans-Serif" font-size="10.00">sstream</text>
</g>
<!-- Node11&#45;&gt;Node13 -->
<g id="edge15" class="edge"><title>Node11&#45;&gt;Node13</title>
<path fill="none" stroke="midnightblue" d="M486,-198.403C486,-189.938 486,-176.728 486,-165.82"/>
<polygon fill="midnightblue" stroke="midnightblue" points="489.5,-165.581 486,-155.581 482.5,-165.581 489.5,-165.581"/>
</g>
<!-- Node14 -->
<g id="node14" class="node"><title>Node14</title>
<polygon fill="none" stroke="#bfbfbf" points="530.5,-136.5 530.5,-155.5 565.5,-155.5 565.5,-136.5 530.5,-136.5"/>
<text text-anchor="middle" x="548" y="-143.5" font-family="Helvetica,sans-Serif" font-size="10.00">map</text>
</g>
<!-- Node11&#45;&gt;Node14 -->
<g id="edge17" class="edge"><title>Node11&#45;&gt;Node14</title>
<path fill="none" stroke="midnightblue" d="M494.883,-198.403C504.459,-189.136 519.911,-174.183 531.686,-162.788"/>
<polygon fill="midnightblue" stroke="midnightblue" points="534.381,-165.05 539.133,-155.581 529.513,-160.02 534.381,-165.05"/>
</g>
<!-- Node15 -->
<g id="node15" class="node"><title>Node15</title>
<g id="a_node15"><a xlink:href="../../d0/d06/ITSMFT_2common_2base_2include_2ITSMFTBase_2Digit_8h.html" target="_top" xlink:title="ITSMFTBase/Digit.h">
<polygon fill="none" stroke="black" points="257.5,-136.5 257.5,-155.5 364.5,-155.5 364.5,-136.5 257.5,-136.5"/>
<text text-anchor="middle" x="311" y="-143.5" font-family="Helvetica,sans-Serif" font-size="10.00">ITSMFTBase/Digit.h</text>
</a>
</g>
</g>
<!-- Node11&#45;&gt;Node15 -->
<g id="edge19" class="edge"><title>Node11&#45;&gt;Node15</title>
<path fill="none" stroke="midnightblue" d="M460.927,-198.403C430.648,-188.022 379.56,-170.506 345.559,-158.849"/>
<polygon fill="midnightblue" stroke="midnightblue" points="346.621,-155.513 336.027,-155.581 344.351,-162.135 346.621,-155.513"/>
</g>
<!-- Node17 -->
<g id="node17" class="node"><title>Node17</title>
<g id="a_node17"><a xlink:href="../../d7/dcd/MCCompLabel_8h.html" target="_top" xlink:title="SimulationDataFormat\l/MCCompLabel.h">
<polygon fill="none" stroke="black" points="490,-69 490,-99 604,-99 604,-69 490,-69"/>
<text text-anchor="start" x="498" y="-87" font-family="Helvetica,sans-Serif" font-size="10.00">SimulationDataFormat</text>
<text text-anchor="middle" x="547" y="-76" font-family="Helvetica,sans-Serif" font-size="10.00">/MCCompLabel.h</text>
</a>
</g>
</g>
<!-- Node11&#45;&gt;Node17 -->
<g id="edge25" class="edge"><title>Node11&#45;&gt;Node17</title>
<path fill="none" stroke="midnightblue" d="M515.794,-198.431C536.136,-190.853 561.569,-177.572 574,-156 582.833,-140.671 574.994,-121.91 565.53,-107.523"/>
<polygon fill="midnightblue" stroke="midnightblue" points="568.234,-105.288 559.562,-99.201 562.545,-109.367 568.234,-105.288"/>
</g>
<!-- Node19 -->
<g id="node19" class="node"><title>Node19</title>
<g id="a_node19"><a xlink:href="../../dd/d76/Cartesian3D_8h.html" target="_top" xlink:title="MathUtils/Cartesian3D.h">
<polygon fill="none" stroke="black" points="1116.5,-136.5 1116.5,-155.5 1241.5,-155.5 1241.5,-136.5 1116.5,-136.5"/>
<text text-anchor="middle" x="1179" y="-143.5" font-family="Helvetica,sans-Serif" font-size="10.00">MathUtils/Cartesian3D.h</text>
</a>
</g>
</g>
<!-- Node11&#45;&gt;Node19 -->
<g id="edge26" class="edge"><title>Node11&#45;&gt;Node19</title>
<path fill="none" stroke="midnightblue" d="M551.037,-201.002C581.406,-198.224 618.049,-194.902 651,-192 813.584,-177.682 1004.4,-161.597 1106.23,-153.071"/>
<polygon fill="midnightblue" stroke="midnightblue" points="1106.73,-156.542 1116.41,-152.22 1106.15,-149.566 1106.73,-156.542"/>
</g>
<!-- Node15&#45;&gt;Node4 -->
<g id="edge24" class="edge"><title>Node15&#45;&gt;Node4</title>
<path fill="none" stroke="midnightblue" d="M294.367,-136.464C281.512,-128.841 264.661,-116.356 257,-100 250.968,-87.1205 247.58,-78.6551 257,-68 281.644,-40.1261 534.039,-24.0887 631.702,-18.887"/>
<polygon fill="midnightblue" stroke="midnightblue" points="631.94,-22.3794 641.743,-18.3615 631.574,-15.389 631.94,-22.3794"/>
</g>
<!-- Node16 -->
<g id="node16" class="node"><title>Node16</title>
<polygon fill="none" stroke="#bfbfbf" points="376.5,-69 376.5,-99 471.5,-99 471.5,-69 376.5,-69"/>
<text text-anchor="start" x="384.5" y="-87" font-family="Helvetica,sans-Serif" font-size="10.00">boost/serialization</text>
<text text-anchor="middle" x="424" y="-76" font-family="Helvetica,sans-Serif" font-size="10.00">/base_object.hpp</text>
</g>
<!-- Node15&#45;&gt;Node16 -->
<g id="edge20" class="edge"><title>Node15&#45;&gt;Node16</title>
<path fill="none" stroke="midnightblue" d="M327.19,-136.403C343.067,-127.974 367.803,-114.839 388.298,-103.957"/>
<polygon fill="midnightblue" stroke="midnightblue" points="390.177,-106.922 397.368,-99.1408 386.895,-100.739 390.177,-106.922"/>
</g>
<!-- Node15&#45;&gt;Node17 -->
<g id="edge21" class="edge"><title>Node15&#45;&gt;Node17</title>
<path fill="none" stroke="midnightblue" d="M344.562,-136.467C380.173,-127.414 437.33,-112.882 481.843,-101.565"/>
<polygon fill="midnightblue" stroke="midnightblue" points="482.882,-104.913 491.711,-99.0565 481.157,-98.1285 482.882,-104.913"/>
</g>
<!-- Node18 -->
<g id="node18" class="node"><title>Node18</title>
<polygon fill="none" stroke="#bfbfbf" points="266,-74.5 266,-93.5 358,-93.5 358,-74.5 266,-74.5"/>
<text text-anchor="middle" x="312" y="-81.5" font-family="Helvetica,sans-Serif" font-size="10.00">FairTimeStamp.h</text>
</g>
<!-- Node15&#45;&gt;Node18 -->
<g id="edge23" class="edge"><title>Node15&#45;&gt;Node18</title>
<path fill="none" stroke="midnightblue" d="M311.143,-136.403C311.284,-127.938 311.505,-114.728 311.686,-103.82"/>
<polygon fill="midnightblue" stroke="midnightblue" points="315.19,-103.638 311.857,-93.5806 308.191,-103.521 315.19,-103.638"/>
</g>
<!-- Node17&#45;&gt;Node4 -->
<g id="edge22" class="edge"><title>Node17&#45;&gt;Node4</title>
<path fill="none" stroke="midnightblue" d="M573.387,-68.8413C594.567,-57.4765 624.102,-41.628 644.927,-30.454"/>
<polygon fill="midnightblue" stroke="midnightblue" points="646.663,-33.4942 653.82,-25.6819 643.354,-27.326 646.663,-33.4942"/>
</g>
<!-- Node19&#45;&gt;Node4 -->
<g id="edge30" class="edge"><title>Node19&#45;&gt;Node4</title>
<path fill="none" stroke="midnightblue" d="M1116.48,-142.785C1016.71,-138.488 826.497,-126.961 765,-100 747.046,-92.1289 707.748,-54.6796 685.735,-32.868"/>
<polygon fill="midnightblue" stroke="midnightblue" points="688.029,-30.212 678.479,-25.6233 683.083,-35.1657 688.029,-30.212"/>
</g>
<!-- Node20 -->
<g id="node20" class="node"><title>Node20</title>
<polygon fill="none" stroke="#bfbfbf" points="845.5,-74.5 845.5,-93.5 994.5,-93.5 994.5,-74.5 845.5,-74.5"/>
<text text-anchor="middle" x="920" y="-81.5" font-family="Helvetica,sans-Serif" font-size="10.00">Math/GenVector/Rotation3D.h</text>
</g>
<!-- Node19&#45;&gt;Node20 -->
<g id="edge27" class="edge"><title>Node19&#45;&gt;Node20</title>
<path fill="none" stroke="midnightblue" d="M1142.17,-136.467C1096.04,-125.783 1016.99,-107.469 966.676,-95.8129"/>
<polygon fill="midnightblue" stroke="midnightblue" points="967.238,-92.3506 956.706,-93.5034 965.658,-99.17 967.238,-92.3506"/>
</g>
<!-- Node21 -->
<g id="node21" class="node"><title>Node21</title>
<polygon fill="none" stroke="#bfbfbf" points="1013,-74.5 1013,-93.5 1169,-93.5 1169,-74.5 1013,-74.5"/>
<text text-anchor="middle" x="1091" y="-81.5" font-family="Helvetica,sans-Serif" font-size="10.00">Math/GenVector/Transform3D.h</text>
</g>
<!-- Node19&#45;&gt;Node21 -->
<g id="edge28" class="edge"><title>Node19&#45;&gt;Node21</title>
<path fill="none" stroke="midnightblue" d="M1166.39,-136.403C1152.28,-126.78 1129.17,-111.024 1112.25,-99.4891"/>
<polygon fill="midnightblue" stroke="midnightblue" points="1113.82,-96.3222 1103.58,-93.5806 1109.88,-102.106 1113.82,-96.3222"/>
</g>
<!-- Node22 -->
<g id="node22" class="node"><title>Node22</title>
<polygon fill="none" stroke="#bfbfbf" points="1187,-74.5 1187,-93.5 1347,-93.5 1347,-74.5 1187,-74.5"/>
<text text-anchor="middle" x="1267" y="-81.5" font-family="Helvetica,sans-Serif" font-size="10.00">Math/GenVector/Translation3D.h</text>
</g>
<!-- Node19&#45;&gt;Node22 -->
<g id="edge29" class="edge"><title>Node19&#45;&gt;Node22</title>
<path fill="none" stroke="midnightblue" d="M1191.61,-136.403C1205.72,-126.78 1228.83,-111.024 1245.75,-99.4891"/>
<polygon fill="midnightblue" stroke="midnightblue" points="1248.12,-102.106 1254.42,-93.5806 1244.18,-96.3222 1248.12,-102.106"/>
</g>
<!-- Node23 -->
<g id="node23" class="node"><title>Node23</title>
<polygon fill="none" stroke="#bfbfbf" points="1365,-74.5 1365,-93.5 1441,-93.5 1441,-74.5 1365,-74.5"/>
<text text-anchor="middle" x="1403" y="-81.5" font-family="Helvetica,sans-Serif" font-size="10.00">TGeoMatrix.h</text>
</g>
<!-- Node19&#45;&gt;Node23 -->
<g id="edge31" class="edge"><title>Node19&#45;&gt;Node23</title>
<path fill="none" stroke="midnightblue" d="M1215.1,-136.493C1250.99,-127.878 1307.53,-113.881 1356,-100 1359.78,-98.9166 1363.72,-97.7391 1367.64,-96.536"/>
<polygon fill="midnightblue" stroke="midnightblue" points="1368.73,-99.8614 1377.23,-93.5321 1366.64,-93.1815 1368.73,-99.8614"/>
</g>
<!-- Node24 -->
<g id="node24" class="node"><title>Node24</title>
<polygon fill="none" stroke="#bfbfbf" points="1459.5,-69 1459.5,-99 1610.5,-99 1610.5,-69 1459.5,-69"/>
<text text-anchor="start" x="1467.5" y="-87" font-family="Helvetica,sans-Serif" font-size="10.00">Math/GenVector/Displacement</text>
<text text-anchor="middle" x="1535" y="-76" font-family="Helvetica,sans-Serif" font-size="10.00">Vector3D.h</text>
</g>
<!-- Node19&#45;&gt;Node24 -->
<g id="edge32" class="edge"><title>Node19&#45;&gt;Node24</title>
<path fill="none" stroke="midnightblue" d="M1231.23,-136.488C1283.69,-127.902 1367.13,-114.148 1449.43,-100.087"/>
<polygon fill="midnightblue" stroke="midnightblue" points="1450.2,-103.507 1459.46,-98.3709 1449.02,-96.6076 1450.2,-103.507"/>
</g>
<!-- Node25 -->
<g id="node25" class="node"><title>Node25</title>
<polygon fill="none" stroke="#bfbfbf" points="1629,-74.5 1629,-93.5 1805,-93.5 1805,-74.5 1629,-74.5"/>
<text text-anchor="middle" x="1717" y="-81.5" font-family="Helvetica,sans-Serif" font-size="10.00">Math/GenVector/PositionVector3D.h</text>
</g>
<!-- Node19&#45;&gt;Node25 -->
<g id="edge33" class="edge"><title>Node19&#45;&gt;Node25</title>
<path fill="none" stroke="midnightblue" d="M1241.78,-139.574C1327.24,-131.96 1484.94,-117.104 1619,-100 1630.49,-98.5342 1642.71,-96.8026 1654.48,-95.0463"/>
<polygon fill="midnightblue" stroke="midnightblue" points="1655.32,-98.4595 1664.68,-93.5025 1654.27,-91.5383 1655.32,-98.4595"/>
</g>
<!-- Node26 -->
<g id="node26" class="node"><title>Node26</title>
<g id="a_node26"><a xlink:href="../../d2/dd0/Cartesian2D_8h.html" target="_top" xlink:title="MathUtils/Cartesian2D.h">
<polygon fill="none" stroke="black" points="1899.5,-74.5 1899.5,-93.5 2024.5,-93.5 2024.5,-74.5 1899.5,-74.5"/>
<text text-anchor="middle" x="1962" y="-81.5" font-family="Helvetica,sans-Serif" font-size="10.00">MathUtils/Cartesian2D.h</text>
</a>
</g>
</g>
<!-- Node19&#45;&gt;Node26 -->
<g id="edge34" class="edge"><title>Node19&#45;&gt;Node26</title>
<path fill="none" stroke="midnightblue" d="M1241.59,-141.171C1355.4,-134.072 1603.83,-117.948 1813,-100 1837.82,-97.8704 1864.93,-95.2337 1889.14,-92.7679"/>
<polygon fill="midnightblue" stroke="midnightblue" points="1889.74,-96.2255 1899.33,-91.7235 1889.02,-89.262 1889.74,-96.2255"/>
</g>
<!-- Node29 -->
<g id="node29" class="node"><title>Node29</title>
<polygon fill="none" stroke="#bfbfbf" points="774,-74.5 774,-93.5 828,-93.5 828,-74.5 774,-74.5"/>
<text text-anchor="middle" x="801" y="-81.5" font-family="Helvetica,sans-Serif" font-size="10.00">iostream</text>
</g>
<!-- Node19&#45;&gt;Node29 -->
<g id="edge37" class="edge"><title>Node19&#45;&gt;Node29</title>
<path fill="none" stroke="midnightblue" d="M1116.25,-141.715C1046.91,-136.944 932.42,-125.671 837,-100 834.18,-99.2414 831.289,-98.3128 828.43,-97.2928"/>
<polygon fill="midnightblue" stroke="midnightblue" points="829.575,-93.9822 818.988,-93.5882 827.018,-100.499 829.575,-93.9822"/>
</g>
<!-- Node27 -->
<g id="node27" class="node"><title>Node27</title>
<polygon fill="none" stroke="#bfbfbf" points="1795.5,-1 1795.5,-31 1946.5,-31 1946.5,-1 1795.5,-1"/>
<text text-anchor="start" x="1803.5" y="-19" font-family="Helvetica,sans-Serif" font-size="10.00">Math/GenVector/Displacement</text>
<text text-anchor="middle" x="1871" y="-8" font-family="Helvetica,sans-Serif" font-size="10.00">Vector2D.h</text>
</g>
<!-- Node26&#45;&gt;Node27 -->
<g id="edge35" class="edge"><title>Node26&#45;&gt;Node27</title>
<path fill="none" stroke="midnightblue" d="M1950.1,-74.3717C1937.22,-65.0286 1916.22,-49.7966 1899.09,-37.375"/>
<polygon fill="midnightblue" stroke="midnightblue" points="1900.7,-34.2194 1890.55,-31.1815 1896.59,-39.8859 1900.7,-34.2194"/>
</g>
<!-- Node28 -->
<g id="node28" class="node"><title>Node28</title>
<polygon fill="none" stroke="#bfbfbf" points="1965,-6.5 1965,-25.5 2141,-25.5 2141,-6.5 1965,-6.5"/>
<text text-anchor="middle" x="2053" y="-13.5" font-family="Helvetica,sans-Serif" font-size="10.00">Math/GenVector/PositionVector2D.h</text>
</g>
<!-- Node26&#45;&gt;Node28 -->
<g id="edge36" class="edge"><title>Node26&#45;&gt;Node28</title>
<path fill="none" stroke="midnightblue" d="M1973.9,-74.3717C1988.88,-63.5015 2014.86,-44.6602 2032.94,-31.5474"/>
<polygon fill="midnightblue" stroke="midnightblue" points="2035.06,-34.3349 2041.1,-25.6305 2030.95,-28.6684 2035.06,-34.3349"/>
</g>
<!-- Node30&#45;&gt;Node4 -->
<g id="edge42" class="edge"><title>Node30&#45;&gt;Node4</title>
<path fill="none" stroke="midnightblue" d="M717.339,-192.939C707.836,-183.469 696.352,-170.159 690,-156 672.012,-115.904 669.44,-63.3609 669.492,-35.7766"/>
<polygon fill="midnightblue" stroke="midnightblue" points="672.995,-35.641 669.638,-25.5919 665.995,-35.5407 672.995,-35.641"/>
</g>
<!-- Node30&#45;&gt;Node7 -->
<g id="edge41" class="edge"><title>Node30&#45;&gt;Node7</title>
<path fill="none" stroke="midnightblue" d="M744.138,-192.781C750.968,-184.062 759.745,-172.857 766.906,-163.715"/>
<polygon fill="midnightblue" stroke="midnightblue" points="769.75,-165.761 773.161,-155.731 764.239,-161.445 769.75,-165.761"/>
</g>
<!-- Node31 -->
<g id="node31" class="node"><title>Node31</title>
<polygon fill="none" stroke="#bfbfbf" points="2347,-6.5 2347,-25.5 2385,-25.5 2385,-6.5 2347,-6.5"/>
<text text-anchor="middle" x="2366" y="-13.5" font-family="Helvetica,sans-Serif" font-size="10.00">array</text>
</g>
<!-- Node30&#45;&gt;Node31 -->
<g id="edge39" class="edge"><title>Node30&#45;&gt;Node31</title>
<path fill="none" stroke="midnightblue" d="M806.204,-197.382C821.955,-195.464 838.52,-193.563 854,-192 919.367,-185.401 1972.05,-124.522 2033,-100 2053.8,-91.6315 2051.61,-77.3354 2072,-68 2162.3,-26.6476 2282.24,-18.6294 2336.78,-17.21"/>
<polygon fill="midnightblue" stroke="midnightblue" points="2336.86,-20.7092 2346.79,-17.0062 2336.72,-13.7106 2336.86,-20.7092"/>
</g>
<!-- Node32 -->
<g id="node32" class="node"><title>Node32</title>
<polygon fill="none" stroke="#bfbfbf" points="698.5,-136.5 698.5,-155.5 739.5,-155.5 739.5,-136.5 698.5,-136.5"/>
<text text-anchor="middle" x="719" y="-143.5" font-family="Helvetica,sans-Serif" font-size="10.00">string</text>
</g>
<!-- Node30&#45;&gt;Node32 -->
<g id="edge40" class="edge"><title>Node30&#45;&gt;Node32</title>
<path fill="none" stroke="midnightblue" d="M729.682,-192.781C727.795,-184.691 725.408,-174.462 723.369,-165.725"/>
<polygon fill="midnightblue" stroke="midnightblue" points="726.718,-164.674 721.037,-155.731 719.901,-166.264 726.718,-164.674"/>
</g>
<!-- Node33&#45;&gt;Node32 -->
<g id="edge64" class="edge"><title>Node33&#45;&gt;Node32</title>
<path fill="none" stroke="midnightblue" d="M843.151,-266.11C841.131,-249.565 834.638,-213.754 815,-192 805.677,-181.672 773.889,-167.85 749.419,-158.262"/>
<polygon fill="midnightblue" stroke="midnightblue" points="750.389,-154.885 739.799,-154.56 747.875,-161.418 750.389,-154.885"/>
</g>
<!-- Node34 -->
<g id="node34" class="node"><title>Node34</title>
<g id="a_node34"><a xlink:href="../../d4/d20/DetMatrixCache_8h.html" target="_top" xlink:title="DetectorsBase/DetMatrixCache.h">
<polygon fill="none" stroke="black" points="1097,-198.5 1097,-217.5 1261,-217.5 1261,-198.5 1097,-198.5"/>
<text text-anchor="middle" x="1179" y="-205.5" font-family="Helvetica,sans-Serif" font-size="10.00">DetectorsBase/DetMatrixCache.h</text>
</a>
</g>
</g>
<!-- Node33&#45;&gt;Node34 -->
<g id="edge46" class="edge"><title>Node33&#45;&gt;Node34</title>
<path fill="none" stroke="midnightblue" d="M887.452,-266.439C948.453,-254.421 1059.39,-232.565 1125.43,-219.555"/>
<polygon fill="midnightblue" stroke="midnightblue" points="1126.49,-222.913 1135.63,-217.546 1125.14,-216.045 1126.49,-222.913"/>
</g>
<!-- Node44 -->
<g id="node44" class="node"><title>Node44</title>
<polygon fill="none" stroke="#bfbfbf" points="862.5,-198.5 862.5,-217.5 931.5,-217.5 931.5,-198.5 862.5,-198.5"/>
<text text-anchor="middle" x="897" y="-205.5" font-family="Helvetica,sans-Serif" font-size="10.00">TObjArray.h</text>
</g>
<!-- Node33&#45;&gt;Node44 -->
<g id="edge63" class="edge"><title>Node33&#45;&gt;Node44</title>
<path fill="none" stroke="midnightblue" d="M850.929,-266.372C859.136,-256.151 873.002,-238.884 883.383,-225.957"/>
<polygon fill="midnightblue" stroke="midnightblue" points="886.368,-227.83 889.9,-217.841 880.91,-223.447 886.368,-227.83"/>
</g>
<!-- Node34&#45;&gt;Node4 -->
<g id="edge61" class="edge"><title>Node34&#45;&gt;Node4</title>
<path fill="none" stroke="midnightblue" d="M1133.88,-198.464C1025.27,-177.632 755.768,-124.136 722,-100 699.239,-83.7317 684.256,-54.0904 676.454,-34.9856"/>
<polygon fill="midnightblue" stroke="midnightblue" points="679.706,-33.6897 672.855,-25.6077 673.171,-36.1978 679.706,-33.6897"/>
</g>
<!-- Node34&#45;&gt;Node7 -->
<g id="edge47" class="edge"><title>Node34&#45;&gt;Node7</title>
<path fill="none" stroke="midnightblue" d="M1101.07,-198.46C1027.29,-189.807 913.605,-175.002 816,-156 814.719,-155.751 813.416,-155.485 812.102,-155.206"/>
<polygon fill="midnightblue" stroke="midnightblue" points="812.532,-151.714 802.003,-152.891 810.968,-158.537 812.532,-151.714"/>
</g>
<!-- Node34&#45;&gt;Node19 -->
<g id="edge49" class="edge"><title>Node34&#45;&gt;Node19</title>
<path fill="none" stroke="midnightblue" d="M1179,-198.403C1179,-189.938 1179,-176.728 1179,-165.82"/>
<polygon fill="midnightblue" stroke="midnightblue" points="1182.5,-165.581 1179,-155.581 1175.5,-165.581 1182.5,-165.581"/>
</g>
<!-- Node34&#45;&gt;Node31 -->
<g id="edge48" class="edge"><title>Node34&#45;&gt;Node31</title>
<path fill="none" stroke="midnightblue" d="M1261.4,-205.696C1500.45,-201.56 2183.27,-187.135 2279,-156 2322.02,-142.008 2342.07,-139.567 2364,-100 2375,-80.1541 2373.23,-53.3294 2370.23,-35.614"/>
<polygon fill="midnightblue" stroke="midnightblue" points="2373.64,-34.8057 2368.26,-25.6785 2366.77,-36.1686 2373.64,-34.8057"/>
</g>
<!-- Node35 -->
<g id="node35" class="node"><title>Node35</title>
<g id="a_node35"><a xlink:href="../../d6/d31/DetID_8h.html" target="_top" xlink:title="DetectorsBase/DetID.h">
<polygon fill="none" stroke="black" points="2151.5,-136.5 2151.5,-155.5 2270.5,-155.5 2270.5,-136.5 2151.5,-136.5"/>
<text text-anchor="middle" x="2211" y="-143.5" font-family="Helvetica,sans-Serif" font-size="10.00">DetectorsBase/DetID.h</text>
</a>
</g>
</g>
<!-- Node34&#45;&gt;Node35 -->
<g id="edge50" class="edge"><title>Node34&#45;&gt;Node35</title>
<path fill="none" stroke="midnightblue" d="M1261.27,-202.217C1458.82,-190.732 1957.13,-161.76 2141.24,-151.056"/>
<polygon fill="midnightblue" stroke="midnightblue" points="2141.56,-154.543 2151.34,-150.469 2141.15,-147.555 2141.56,-154.543"/>
</g>
<!-- Node43 -->
<g id="node43" class="node"><title>Node43</title>
<polygon fill="none" stroke="#bfbfbf" points="1733.5,-136.5 1733.5,-155.5 1804.5,-155.5 1804.5,-136.5 1733.5,-136.5"/>
<text text-anchor="middle" x="1769" y="-143.5" font-family="Helvetica,sans-Serif" font-size="10.00">FairLogger.h</text>
</g>
<!-- Node34&#45;&gt;Node43 -->
<g id="edge62" class="edge"><title>Node34&#45;&gt;Node43</title>
<path fill="none" stroke="midnightblue" d="M1261.12,-201.399C1367.18,-193.671 1557.36,-178.14 1719,-156 1720.45,-155.802 1721.92,-155.591 1723.4,-155.372"/>
<polygon fill="midnightblue" stroke="midnightblue" points="1723.95,-158.828 1733.28,-153.806 1722.85,-151.914 1723.95,-158.828"/>
</g>
<!-- Node35&#45;&gt;Node4 -->
<g id="edge51" class="edge"><title>Node35&#45;&gt;Node4</title>
<path fill="none" stroke="midnightblue" d="M2151.27,-145.146C2085.27,-143.39 1976.95,-134.753 1891,-100 1868.58,-90.9356 1869.83,-75.9737 1847,-68 1737.5,-29.7516 897.944,-19.2435 708.081,-17.3457"/>
<polygon fill="midnightblue" stroke="midnightblue" points="708.052,-13.8453 698.019,-17.2471 707.984,-20.845 708.052,-13.8453"/>
</g>
<!-- Node35&#45;&gt;Node31 -->
<g id="edge52" class="edge"><title>Node35&#45;&gt;Node31</title>
<path fill="none" stroke="midnightblue" d="M2270.76,-136.905C2295.79,-130.66 2323.35,-119.596 2342,-100 2358.61,-82.5441 2363.83,-54.3092 2365.41,-35.6991"/>
<polygon fill="midnightblue" stroke="midnightblue" points="2368.91,-35.7218 2365.99,-25.5378 2361.92,-35.321 2368.91,-35.7218"/>
</g>
<!-- Node36 -->
<g id="node36" class="node"><title>Node36</title>
<polygon fill="none" stroke="#bfbfbf" points="2225.5,-74.5 2225.5,-93.5 2266.5,-93.5 2266.5,-74.5 2225.5,-74.5"/>
<text text-anchor="middle" x="2246" y="-81.5" font-family="Helvetica,sans-Serif" font-size="10.00">bitset</text>
</g>
<!-- Node35&#45;&gt;Node36 -->
<g id="edge53" class="edge"><title>Node35&#45;&gt;Node36</title>
<path fill="none" stroke="midnightblue" d="M2216.01,-136.403C2221.16,-127.582 2229.31,-113.608 2235.82,-102.455"/>
<polygon fill="midnightblue" stroke="midnightblue" points="2238.98,-103.982 2240.99,-93.5806 2232.93,-100.455 2238.98,-103.982"/>
</g>
<!-- Node37 -->
<g id="node37" class="node"><title>Node37</title>
<polygon fill="none" stroke="#bfbfbf" points="2284.5,-74.5 2284.5,-93.5 2333.5,-93.5 2333.5,-74.5 2284.5,-74.5"/>
<text text-anchor="middle" x="2309" y="-81.5" font-family="Helvetica,sans-Serif" font-size="10.00">cassert</text>
</g>
<!-- Node35&#45;&gt;Node37 -->
<g id="edge54" class="edge"><title>Node35&#45;&gt;Node37</title>
<path fill="none" stroke="midnightblue" d="M2225.04,-136.403C2241.05,-126.601 2267.45,-110.439 2286.37,-98.8526"/>
<polygon fill="midnightblue" stroke="midnightblue" points="2288.28,-101.787 2294.99,-93.5806 2284.63,-95.8172 2288.28,-101.787"/>
</g>
<!-- Node38 -->
<g id="node38" class="node"><title>Node38</title>
<polygon fill="none" stroke="#bfbfbf" points="2081,-74.5 2081,-93.5 2127,-93.5 2127,-74.5 2081,-74.5"/>
<text text-anchor="middle" x="2104" y="-81.5" font-family="Helvetica,sans-Serif" font-size="10.00">cstdint</text>
</g>
<!-- Node35&#45;&gt;Node38 -->
<g id="edge55" class="edge"><title>Node35&#45;&gt;Node38</title>
<path fill="none" stroke="midnightblue" d="M2195.67,-136.403C2178.03,-126.512 2148.84,-110.144 2128.14,-98.5378"/>
<polygon fill="midnightblue" stroke="midnightblue" points="2129.74,-95.4188 2119.3,-93.5806 2126.31,-101.524 2129.74,-95.4188"/>
</g>
<!-- Node39 -->
<g id="node39" class="node"><title>Node39</title>
<polygon fill="none" stroke="#bfbfbf" points="2145,-74.5 2145,-93.5 2207,-93.5 2207,-74.5 2145,-74.5"/>
<text text-anchor="middle" x="2176" y="-81.5" font-family="Helvetica,sans-Serif" font-size="10.00">type_traits</text>
</g>
<!-- Node35&#45;&gt;Node39 -->
<g id="edge56" class="edge"><title>Node35&#45;&gt;Node39</title>
<path fill="none" stroke="midnightblue" d="M2205.99,-136.403C2200.84,-127.582 2192.69,-113.608 2186.18,-102.455"/>
<polygon fill="midnightblue" stroke="midnightblue" points="2189.07,-100.455 2181.01,-93.5806 2183.02,-103.982 2189.07,-100.455"/>
</g>
<!-- Node40 -->
<g id="node40" class="node"><title>Node40</title>
<g id="a_node40"><a xlink:href="../../d9/ded/Utils_8h.html" target="_top" xlink:title="DetectorsBase/Utils.h">
<polygon fill="none" stroke="black" points="2428.5,-74.5 2428.5,-93.5 2541.5,-93.5 2541.5,-74.5 2428.5,-74.5"/>
<text text-anchor="middle" x="2485" y="-81.5" font-family="Helvetica,sans-Serif" font-size="10.00">DetectorsBase/Utils.h</text>
</a>
</g>
</g>
<!-- Node35&#45;&gt;Node40 -->
<g id="edge57" class="edge"><title>Node35&#45;&gt;Node40</title>
<path fill="none" stroke="midnightblue" d="M2249.97,-136.467C2298.96,-125.738 2383.09,-107.316 2436.29,-95.6673"/>
<polygon fill="midnightblue" stroke="midnightblue" points="2437.15,-99.0615 2446.17,-93.5034 2435.65,-92.2236 2437.15,-99.0615"/>
</g>
<!-- Node40&#45;&gt;Node31 -->
<g id="edge60" class="edge"><title>Node40&#45;&gt;Node31</title>
<path fill="none" stroke="midnightblue" d="M2469.44,-74.3717C2449.31,-63.2051 2414.01,-43.6266 2390.32,-30.4876"/>
<polygon fill="midnightblue" stroke="midnightblue" points="2392,-27.4199 2381.56,-25.6305 2388.61,-33.5415 2392,-27.4199"/>
</g>
<!-- Node41 -->
<g id="node41" class="node"><title>Node41</title>
<g id="a_node41"><a xlink:href="../../d1/daa/Base_2include_2DetectorsBase_2Constants_8h.html" target="_top" xlink:title="DetectorsBase/Constants.h">
<polygon fill="none" stroke="black" points="2411,-6.5 2411,-25.5 2549,-25.5 2549,-6.5 2411,-6.5"/>
<text text-anchor="middle" x="2480" y="-13.5" font-family="Helvetica,sans-Serif" font-size="10.00">DetectorsBase/Constants.h</text>
</a>
</g>
</g>
<!-- Node40&#45;&gt;Node41 -->
<g id="edge58" class="edge"><title>Node40&#45;&gt;Node41</title>
<path fill="none" stroke="midnightblue" d="M2484.35,-74.3717C2483.61,-64.6426 2482.39,-48.528 2481.43,-35.8504"/>
<polygon fill="midnightblue" stroke="midnightblue" points="2484.92,-35.5481 2480.67,-25.8411 2477.94,-36.077 2484.92,-35.5481"/>
</g>
<!-- Node42 -->
<g id="node42" class="node"><title>Node42</title>
<polygon fill="none" stroke="#bfbfbf" points="2567,-6.5 2567,-25.5 2611,-25.5 2611,-6.5 2567,-6.5"/>
<text text-anchor="middle" x="2589" y="-13.5" font-family="Helvetica,sans-Serif" font-size="10.00">cmath</text>
</g>
<!-- Node40&#45;&gt;Node42 -->
<g id="edge59" class="edge"><title>Node40&#45;&gt;Node42</title>
<path fill="none" stroke="midnightblue" d="M2498.6,-74.3717C2515.96,-63.3533 2546.23,-44.1449 2566.92,-31.0142"/>
<polygon fill="midnightblue" stroke="midnightblue" points="2568.83,-33.9439 2575.4,-25.6305 2565.08,-28.0336 2568.83,-33.9439"/>
</g>
</g>
</svg>
