<?xml version="1.0" encoding="UTF-8" standalone="no"?>
<!DOCTYPE svg PUBLIC "-//W3C//DTD SVG 1.1//EN"
 "http://www.w3.org/Graphics/SVG/1.1/DTD/svg11.dtd">
<!-- Generated by graphviz version 2.36.0 (20140111.2315)
 -->
<!-- Title: /home/travis/build/AliceO2Group/AliceO2/Detectors/TOF Pages: 1 -->
<svg width="285pt" height="303pt"
 viewBox="0.00 0.00 285.00 303.00" xmlns="http://www.w3.org/2000/svg" xmlns:xlink="http://www.w3.org/1999/xlink">
<g id="graph0" class="graph" transform="scale(1 1) rotate(0) translate(4 299)">
<title>/home/travis/build/AliceO2Group/AliceO2/Detectors/TOF</title>
<g id="clust1" class="cluster"><title>clusterdir_051dca18e802f8e9474f2e30d29c04e0</title>
<g id="a_clust1"><a xlink:href="dir_051dca18e802f8e9474f2e30d29c04e0.html" target="_top" xlink:title="Detectors">
<polygon fill="#ddddee" stroke="black" points="8,-56 8,-287 178,-287 178,-56 8,-56"/>
<text text-anchor="middle" x="93" y="-275" font-family="Helvetica,sans-Serif" font-size="10.00">Detectors</text>
</a>
</g>
</g>
<g id="clust2" class="cluster"><title>clusterdir_577c839d346a264df4e9e588ca2a45dd</title>
<g id="a_clust2"><a xlink:href="dir_577c839d346a264df4e9e588ca2a45dd.html" target="_top">
<polygon fill="#eeeeff" stroke="black" points="16,-64 16,-260 170,-260 170,-64 16,-64"/>
</a>
</g>
</g>
<!-- dir_577c839d346a264df4e9e588ca2a45dd -->
<g id="node1" class="node"><title>dir_577c839d346a264df4e9e588ca2a45dd</title>
<text text-anchor="middle" x="135" y="-231.5" font-family="Helvetica,sans-Serif" font-size="10.00">TOF</text>
</g>
<!-- dir_0189f3ad6abecd72f822a0c3914f12b2 -->
<g id="node2" class="node"><title>dir_0189f3ad6abecd72f822a0c3914f12b2</title>
<g id="a_node2"><a xlink:href="dir_0189f3ad6abecd72f822a0c3914f12b2.html" target="_top" xlink:title="base">
<polygon fill="white" stroke="red" points="130,-108 76,-108 76,-72 130,-72 130,-108"/>
<text text-anchor="middle" x="103" y="-87.5" font-family="Helvetica,sans-Serif" font-size="10.00">base</text>
</a>
</g>
</g>
<!-- dir_049fcc021d70cf6aa17690e15cd47498 -->
<g id="node3" class="node"><title>dir_049fcc021d70cf6aa17690e15cd47498</title>
<g id="a_node3"><a xlink:href="dir_049fcc021d70cf6aa17690e15cd47498.html" target="_top" xlink:title="prototyping">
<polygon fill="white" stroke="black" points="89.25,-252 24.75,-252 24.75,-216 89.25,-216 89.25,-252"/>
<text text-anchor="middle" x="57" y="-231.5" font-family="Helvetica,sans-Serif" font-size="10.00">prototyping</text>
</a>
</g>
</g>
<!-- dir_827012254b0f6cad75d9a7a2745b1aea -->
<g id="node4" class="node"><title>dir_827012254b0f6cad75d9a7a2745b1aea</title>
<g id="a_node4"><a xlink:href="dir_827012254b0f6cad75d9a7a2745b1aea.html" target="_top" xlink:title="simulation">
<polygon fill="white" stroke="red" points="147.25,-180 86.75,-180 86.75,-144 147.25,-144 147.25,-180"/>
<text text-anchor="middle" x="117" y="-159.5" font-family="Helvetica,sans-Serif" font-size="10.00">simulation</text>
</a>
</g>
</g>
<!-- dir_049fcc021d70cf6aa17690e15cd47498&#45;&gt;dir_827012254b0f6cad75d9a7a2745b1aea -->
<g id="edge4" class="edge"><title>dir_049fcc021d70cf6aa17690e15cd47498&#45;&gt;dir_827012254b0f6cad75d9a7a2745b1aea</title>
<path fill="none" stroke="black" d="M71.8315,-215.697C79.0247,-207.305 87.7967,-197.07 95.6903,-187.861"/>
<polygon fill="black" stroke="black" points="98.4886,-189.975 102.339,-180.104 93.1738,-185.419 98.4886,-189.975"/>
<g id="a_edge4&#45;headlabel"><a xlink:href="dir_000198_000102.html" target="_top" xlink:title="1">
<text text-anchor="middle" x="98.305" y="-192.052" font-family="Helvetica,sans-Serif" font-size="10.00">1</text>
</a>
</g>
</g>
<!-- dir_f01815b857f9009bea48e2cb39492245 -->
<g id="node6" class="node"><title>dir_f01815b857f9009bea48e2cb39492245</title>
<g id="a_node6"><a xlink:href="dir_f01815b857f9009bea48e2cb39492245.html" target="_top" xlink:title="Passive">
<polygon fill="none" stroke="red" points="277,-180 223,-180 223,-144 277,-144 277,-180"/>
<text text-anchor="middle" x="250" y="-159.5" font-family="Helvetica,sans-Serif" font-size="10.00">Passive</text>
</a>
</g>
</g>
<!-- dir_049fcc021d70cf6aa17690e15cd47498&#45;&gt;dir_f01815b857f9009bea48e2cb39492245 -->
<g id="edge5" class="edge"><title>dir_049fcc021d70cf6aa17690e15cd47498&#45;&gt;dir_f01815b857f9009bea48e2cb39492245</title>
<path fill="none" stroke="black" d="M89.5,-219.67C92.7021,-218.409 95.9092,-217.167 99,-216 137.647,-201.405 182.341,-185.885 213.019,-175.437"/>
<polygon fill="black" stroke="black" points="214.513,-178.626 222.857,-172.097 212.263,-171.998 214.513,-178.626"/>
<g id="a_edge5&#45;headlabel"><a xlink:href="dir_000198_000187.html" target="_top" xlink:title="2">
<text text-anchor="middle" x="212.022" y="-179.97" font-family="Helvetica,sans-Serif" font-size="10.00">2</text>
</a>
</g>
</g>
<!-- dir_827012254b0f6cad75d9a7a2745b1aea&#45;&gt;dir_0189f3ad6abecd72f822a0c3914f12b2 -->
<g id="edge2" class="edge"><title>dir_827012254b0f6cad75d9a7a2745b1aea&#45;&gt;dir_0189f3ad6abecd72f822a0c3914f12b2</title>
<path fill="none" stroke="black" d="M113.539,-143.697C111.997,-135.983 110.142,-126.712 108.422,-118.112"/>
<polygon fill="black" stroke="black" points="111.814,-117.224 106.421,-108.104 104.95,-118.597 111.814,-117.224"/>
<g id="a_edge2&#45;headlabel"><a xlink:href="dir_000102_000193.html" target="_top" xlink:title="2">
<text text-anchor="middle" x="115.303" y="-117.692" font-family="Helvetica,sans-Serif" font-size="10.00">2</text>
</a>
</g>
</g>
<!-- dir_37c90836491b695b472bf98d1be8336b -->
<g id="node5" class="node"><title>dir_37c90836491b695b472bf98d1be8336b</title>
<g id="a_node5"><a xlink:href="dir_37c90836491b695b472bf98d1be8336b.html" target="_top" xlink:title="Base">
<polygon fill="none" stroke="red" points="250,-36 196,-36 196,-0 250,-0 250,-36"/>
<text text-anchor="middle" x="223" y="-15.5" font-family="Helvetica,sans-Serif" font-size="10.00">Base</text>
</a>
</g>
</g>
<!-- dir_827012254b0f6cad75d9a7a2745b1aea&#45;&gt;dir_37c90836491b695b472bf98d1be8336b -->
<g id="edge1" class="edge"><title>dir_827012254b0f6cad75d9a7a2745b1aea&#45;&gt;dir_37c90836491b695b472bf98d1be8336b</title>
<path fill="none" stroke="black" d="M124.398,-143.759C134.313,-121.87 153.427,-83.6333 177,-56 180.92,-51.4045 185.474,-46.9639 190.161,-42.8504"/>
<polygon fill="black" stroke="black" points="192.631,-45.3488 198.087,-36.267 188.158,-39.9639 192.631,-45.3488"/>
<g id="a_edge1&#45;headlabel"><a xlink:href="dir_000102_000067.html" target="_top" xlink:title="2">
<text text-anchor="middle" x="191.68" y="-47.3296" font-family="Helvetica,sans-Serif" font-size="10.00">2</text>
</a>
</g>
</g>
<!-- dir_2171f7ec022c5423887b07c69b2f5b48 -->
<g id="node7" class="node"><title>dir_2171f7ec022c5423887b07c69b2f5b48</title>
<g id="a_node7"><a xlink:href="dir_2171f7ec022c5423887b07c69b2f5b48.html" target="_top" xlink:title="DataFormats">
<polygon fill="none" stroke="red" points="260,-108 186,-108 186,-72 260,-72 260,-108"/>
<text text-anchor="middle" x="223" y="-87.5" font-family="Helvetica,sans-Serif" font-size="10.00">DataFormats</text>
</a>
</g>
</g>
<!-- dir_827012254b0f6cad75d9a7a2745b1aea&#45;&gt;dir_2171f7ec022c5423887b07c69b2f5b48 -->
<g id="edge3" class="edge"><title>dir_827012254b0f6cad75d9a7a2745b1aea&#45;&gt;dir_2171f7ec022c5423887b07c69b2f5b48</title>
<path fill="none" stroke="black" d="M142.931,-143.876C156.662,-134.808 173.706,-123.552 188.536,-113.759"/>
<polygon fill="black" stroke="black" points="190.554,-116.621 196.97,-108.19 186.696,-110.78 190.554,-116.621"/>
<g id="a_edge3&#45;headlabel"><a xlink:href="dir_000102_000038.html" target="_top" xlink:title="2">
<text text-anchor="middle" x="189.119" y="-118.471" font-family="Helvetica,sans-Serif" font-size="10.00">2</text>
</a>
</g>
</g>
<!-- dir_f01815b857f9009bea48e2cb39492245&#45;&gt;dir_37c90836491b695b472bf98d1be8336b -->
<g id="edge6" class="edge"><title>dir_f01815b857f9009bea48e2cb39492245&#45;&gt;dir_37c90836491b695b472bf98d1be8336b</title>
<path fill="none" stroke="black" d="M259.241,-143.786C269.456,-122.257 282.765,-84.7368 269,-56 266.391,-50.5522 262.544,-45.6518 258.169,-41.3354"/>
<polygon fill="black" stroke="black" points="260.281,-38.534 250.432,-34.629 255.696,-43.8236 260.281,-38.534"/>
<g id="a_edge6&#45;headlabel"><a xlink:href="dir_000187_000067.html" target="_top" xlink:title="7">
<text text-anchor="middle" x="264.857" y="-36.2428" font-family="Helvetica,sans-Serif" font-size="10.00">7</text>
</a>
</g>
</g>
<!-- dir_2171f7ec022c5423887b07c69b2f5b48&#45;&gt;dir_37c90836491b695b472bf98d1be8336b -->
<g id="edge7" class="edge"><title>dir_2171f7ec022c5423887b07c69b2f5b48&#45;&gt;dir_37c90836491b695b472bf98d1be8336b</title>
<path fill="none" stroke="black" d="M223,-71.6966C223,-63.9827 223,-54.7125 223,-46.1124"/>
<polygon fill="black" stroke="black" points="226.5,-46.1043 223,-36.1043 219.5,-46.1044 226.5,-46.1043"/>
<g id="a_edge7&#45;headlabel"><a xlink:href="dir_000038_000067.html" target="_top" xlink:title="6">
<text text-anchor="middle" x="229.339" y="-47.199" font-family="Helvetica,sans-Serif" font-size="10.00">6</text>
</a>
</g>
</g>
</g>
</svg>
