<?xml version="1.0" encoding="UTF-8" standalone="no"?>
<!DOCTYPE svg PUBLIC "-//W3C//DTD SVG 1.1//EN"
 "http://www.w3.org/Graphics/SVG/1.1/DTD/svg11.dtd">
<!-- Generated by graphviz version 2.36.0 (20140111.2315)
 -->
<!-- Title: /home/travis/build/AliceO2Group/AliceO2/run Pages: 1 -->
<svg width="125pt" height="260pt"
 viewBox="0.00 0.00 124.79 260.00" xmlns="http://www.w3.org/2000/svg" xmlns:xlink="http://www.w3.org/1999/xlink">
<g id="graph0" class="graph" transform="scale(1 1) rotate(0) translate(4 256)">
<title>/home/travis/build/AliceO2Group/AliceO2/run</title>
<!-- dir_a306b7cc5167c29e131a00bfce4c6187 -->
<g id="node1" class="node"><title>dir_a306b7cc5167c29e131a00bfce4c6187</title>
<g id="a_node1"><a xlink:href="dir_a306b7cc5167c29e131a00bfce4c6187.html" target="_top" xlink:title="run">
<polygon fill="#eeeeff" stroke="black" points="61.786,-252 7.786,-252 7.786,-216 61.786,-216 61.786,-252"/>
<text text-anchor="middle" x="34.786" y="-231.5" font-family="Helvetica,sans-Serif" font-size="10.00">run</text>
</a>
</g>
</g>
<!-- dir_4ab6b4cc6a7edbff49100e9123df213f -->
<g id="node2" class="node"><title>dir_4ab6b4cc6a7edbff49100e9123df213f</title>
<g id="a_node2"><a xlink:href="dir_4ab6b4cc6a7edbff49100e9123df213f.html" target="_top" xlink:title="Common">
<polygon fill="none" stroke="red" points="72.286,-36 17.286,-36 17.286,-0 72.286,-0 72.286,-36"/>
<text text-anchor="middle" x="44.786" y="-15.5" font-family="Helvetica,sans-Serif" font-size="10.00">Common</text>
</a>
</g>
</g>
<!-- dir_a306b7cc5167c29e131a00bfce4c6187&#45;&gt;dir_4ab6b4cc6a7edbff49100e9123df213f -->
<g id="edge1" class="edge"><title>dir_a306b7cc5167c29e131a00bfce4c6187&#45;&gt;dir_4ab6b4cc6a7edbff49100e9123df213f</title>
<path fill="none" stroke="black" d="M26.2095,-215.694C12.5786,-185.779 -10.8676,-122.731 5.786,-72 9.09974,-61.9056 15.1528,-52.1508 21.5176,-43.8211"/>
<polygon fill="black" stroke="black" points="24.2842,-45.9667 27.8963,-36.0066 18.8614,-41.5402 24.2842,-45.9667"/>
<g id="a_edge1&#45;headlabel"><a xlink:href="dir_000272_000016.html" target="_top" xlink:title="1">
<text text-anchor="middle" x="24.2107" y="-48.0468" font-family="Helvetica,sans-Serif" font-size="10.00">1</text>
</a>
</g>
</g>
<!-- dir_051dca18e802f8e9474f2e30d29c04e0 -->
<g id="node3" class="node"><title>dir_051dca18e802f8e9474f2e30d29c04e0</title>
<g id="a_node3"><a xlink:href="dir_051dca18e802f8e9474f2e30d29c04e0.html" target="_top" xlink:title="Detectors">
<polygon fill="none" stroke="red" points="74.036,-108 15.536,-108 15.536,-72 74.036,-72 74.036,-108"/>
<text text-anchor="middle" x="44.786" y="-87.5" font-family="Helvetica,sans-Serif" font-size="10.00">Detectors</text>
</a>
</g>
</g>
<!-- dir_a306b7cc5167c29e131a00bfce4c6187&#45;&gt;dir_051dca18e802f8e9474f2e30d29c04e0 -->
<g id="edge2" class="edge"><title>dir_a306b7cc5167c29e131a00bfce4c6187&#45;&gt;dir_051dca18e802f8e9474f2e30d29c04e0</title>
<path fill="none" stroke="black" d="M35.9922,-215.871C37.6965,-191.67 40.8275,-147.211 42.8569,-118.393"/>
<polygon fill="black" stroke="black" points="46.3643,-118.41 43.5755,-108.189 39.3816,-117.919 46.3643,-118.41"/>
<g id="a_edge2&#45;headlabel"><a xlink:href="dir_000272_000066.html" target="_top" xlink:title="1">
<text text-anchor="middle" x="48.9441" y="-119.696" font-family="Helvetica,sans-Serif" font-size="10.00">1</text>
</a>
</g>
</g>
<!-- dir_3b579af105d68949fc87077585f616df -->
<g id="node4" class="node"><title>dir_3b579af105d68949fc87077585f616df</title>
<g id="a_node4"><a xlink:href="dir_3b579af105d68949fc87077585f616df.html" target="_top" xlink:title="macro">
<polygon fill="none" stroke="black" points="116.786,-180 62.786,-180 62.786,-144 116.786,-144 116.786,-180"/>
<text text-anchor="middle" x="89.786" y="-159.5" font-family="Helvetica,sans-Serif" font-size="10.00">macro</text>
</a>
</g>
</g>
<!-- dir_a306b7cc5167c29e131a00bfce4c6187&#45;&gt;dir_3b579af105d68949fc87077585f616df -->
<g id="edge3" class="edge"><title>dir_a306b7cc5167c29e131a00bfce4c6187&#45;&gt;dir_3b579af105d68949fc87077585f616df</title>
<path fill="none" stroke="black" d="M48.3815,-215.697C54.9087,-207.389 62.854,-197.277 70.0326,-188.141"/>
<polygon fill="black" stroke="black" points="72.9207,-190.13 76.3469,-180.104 67.4165,-185.805 72.9207,-190.13"/>
<g id="a_edge3&#45;headlabel"><a xlink:href="dir_000272_000152.html" target="_top" xlink:title="4">
<text text-anchor="middle" x="72.9325" y="-192.211" font-family="Helvetica,sans-Serif" font-size="10.00">4</text>
</a>
</g>
</g>
<!-- dir_051dca18e802f8e9474f2e30d29c04e0&#45;&gt;dir_4ab6b4cc6a7edbff49100e9123df213f -->
<g id="edge4" class="edge"><title>dir_051dca18e802f8e9474f2e30d29c04e0&#45;&gt;dir_4ab6b4cc6a7edbff49100e9123df213f</title>
<path fill="none" stroke="black" d="M44.786,-71.6966C44.786,-63.9827 44.786,-54.7125 44.786,-46.1124"/>
<polygon fill="black" stroke="black" points="48.2861,-46.1043 44.786,-36.1043 41.2861,-46.1044 48.2861,-46.1043"/>
<g id="a_edge4&#45;headlabel"><a xlink:href="dir_000066_000016.html" target="_top" xlink:title="33">
<text text-anchor="middle" x="51.1253" y="-47.199" font-family="Helvetica,sans-Serif" font-size="10.00">33</text>
</a>
</g>
</g>
<!-- dir_3b579af105d68949fc87077585f616df&#45;&gt;dir_4ab6b4cc6a7edbff49100e9123df213f -->
<g id="edge5" class="edge"><title>dir_3b579af105d68949fc87077585f616df&#45;&gt;dir_4ab6b4cc6a7edbff49100e9123df213f</title>
<path fill="none" stroke="black" d="M91.118,-143.692C91.9224,-125.323 91.455,-95.7296 82.786,-72 79.2105,-62.2128 73.2947,-52.613 67.1834,-44.3306"/>
<polygon fill="black" stroke="black" points="69.7555,-41.9383 60.8339,-36.2238 64.2446,-46.2546 69.7555,-41.9383"/>
<g id="a_edge5&#45;headlabel"><a xlink:href="dir_000152_000016.html" target="_top" xlink:title="12">
<text text-anchor="middle" x="74.2072" y="-40.5175" font-family="Helvetica,sans-Serif" font-size="10.00">12</text>
</a>
</g>
</g>
<!-- dir_3b579af105d68949fc87077585f616df&#45;&gt;dir_051dca18e802f8e9474f2e30d29c04e0 -->
<g id="edge6" class="edge"><title>dir_3b579af105d68949fc87077585f616df&#45;&gt;dir_051dca18e802f8e9474f2e30d29c04e0</title>
<path fill="none" stroke="black" d="M78.6624,-143.697C73.431,-135.559 67.0861,-125.689 61.3082,-116.701"/>
<polygon fill="black" stroke="black" points="64.1334,-114.623 55.7816,-108.104 58.2451,-118.409 64.1334,-114.623"/>
<g id="a_edge6&#45;headlabel"><a xlink:href="dir_000152_000066.html" target="_top" xlink:title="37">
<text text-anchor="middle" x="68.4655" y="-113.612" font-family="Helvetica,sans-Serif" font-size="10.00">37</text>
</a>
</g>
</g>
</g>
</svg>
