<?xml version="1.0" encoding="UTF-8" standalone="no"?>
<!DOCTYPE svg PUBLIC "-//W3C//DTD SVG 1.1//EN"
 "http://www.w3.org/Graphics/SVG/1.1/DTD/svg11.dtd">
<!-- Generated by graphviz version 2.36.0 (20140111.2315)
 -->
<!-- Title: /home/travis/build/AliceO2Group/AliceO2/Detectors/TPC/reconstruction/macro Pages: 1 -->
<svg width="290pt" height="367pt"
 viewBox="0.00 0.00 290.38 367.00" xmlns="http://www.w3.org/2000/svg" xmlns:xlink="http://www.w3.org/1999/xlink">
<g id="graph0" class="graph" transform="scale(1 1) rotate(0) translate(4 363)">
<title>/home/travis/build/AliceO2Group/AliceO2/Detectors/TPC/reconstruction/macro</title>
<g id="clust1" class="cluster"><title>clusterdir_a5de047958dd458e809773c6ffaa8478</title>
<g id="a_clust1"><a xlink:href="dir_a5de047958dd458e809773c6ffaa8478.html" target="_top" xlink:title="reconstruction">
<polygon fill="#ddddee" stroke="black" points="106.676,-280 106.676,-351 184.676,-351 184.676,-280 106.676,-280"/>
<text text-anchor="middle" x="145.676" y="-339" font-family="Helvetica,sans-Serif" font-size="10.00">reconstruction</text>
</a>
</g>
</g>
<!-- dir_4cbbc7f21c16d130545e15f2205651b3 -->
<g id="node1" class="node"><title>dir_4cbbc7f21c16d130545e15f2205651b3</title>
<g id="a_node1"><a xlink:href="dir_4cbbc7f21c16d130545e15f2205651b3.html" target="_top" xlink:title="macro">
<polygon fill="#eeeeff" stroke="black" points="172.676,-324 118.676,-324 118.676,-288 172.676,-288 172.676,-324"/>
<text text-anchor="middle" x="145.676" y="-303.5" font-family="Helvetica,sans-Serif" font-size="10.00">macro</text>
</a>
</g>
</g>
<!-- dir_7f309bec8670bb3fb666e7e061b24659 -->
<g id="node2" class="node"><title>dir_7f309bec8670bb3fb666e7e061b24659</title>
<g id="a_node2"><a xlink:href="dir_7f309bec8670bb3fb666e7e061b24659.html" target="_top" xlink:title="simulation">
<polygon fill="none" stroke="red" points="205.926,-252 145.426,-252 145.426,-216 205.926,-216 205.926,-252"/>
<text text-anchor="middle" x="175.676" y="-231.5" font-family="Helvetica,sans-Serif" font-size="10.00">simulation</text>
</a>
</g>
</g>
<!-- dir_4cbbc7f21c16d130545e15f2205651b3&#45;&gt;dir_7f309bec8670bb3fb666e7e061b24659 -->
<g id="edge10" class="edge"><title>dir_4cbbc7f21c16d130545e15f2205651b3&#45;&gt;dir_7f309bec8670bb3fb666e7e061b24659</title>
<path fill="none" stroke="black" d="M153.092,-287.697C156.47,-279.813 160.546,-270.304 164.299,-261.546"/>
<polygon fill="black" stroke="black" points="167.623,-262.675 168.346,-252.104 161.189,-259.917 167.623,-262.675"/>
<g id="a_edge10&#45;headlabel"><a xlink:href="dir_000211_000105.html" target="_top" xlink:title="1">
<text text-anchor="middle" x="168.817" y="-264.597" font-family="Helvetica,sans-Serif" font-size="10.00">1</text>
</a>
</g>
</g>
<!-- dir_4995562033b321477cfe3c34a14a5189 -->
<g id="node3" class="node"><title>dir_4995562033b321477cfe3c34a14a5189</title>
<g id="a_node3"><a xlink:href="dir_4995562033b321477cfe3c34a14a5189.html" target="_top" xlink:title="calibration">
<polygon fill="none" stroke="red" points="87.926,-252 27.426,-252 27.426,-216 87.926,-216 87.926,-252"/>
<text text-anchor="middle" x="57.676" y="-231.5" font-family="Helvetica,sans-Serif" font-size="10.00">calibration</text>
</a>
</g>
</g>
<!-- dir_4cbbc7f21c16d130545e15f2205651b3&#45;&gt;dir_4995562033b321477cfe3c34a14a5189 -->
<g id="edge11" class="edge"><title>dir_4cbbc7f21c16d130545e15f2205651b3&#45;&gt;dir_4995562033b321477cfe3c34a14a5189</title>
<path fill="none" stroke="black" d="M123.923,-287.697C112.84,-278.881 99.202,-268.032 87.1865,-258.474"/>
<polygon fill="black" stroke="black" points="89.1835,-255.59 79.1786,-252.104 84.8258,-261.069 89.1835,-255.59"/>
<g id="a_edge11&#45;headlabel"><a xlink:href="dir_000211_000200.html" target="_top" xlink:title="1">
<text text-anchor="middle" x="93.7641" y="-253.106" font-family="Helvetica,sans-Serif" font-size="10.00">1</text>
</a>
</g>
</g>
<!-- dir_677b030cc750909e4cd27413873678d8 -->
<g id="node4" class="node"><title>dir_677b030cc750909e4cd27413873678d8</title>
<g id="a_node4"><a xlink:href="dir_677b030cc750909e4cd27413873678d8.html" target="_top" xlink:title="base">
<polygon fill="none" stroke="red" points="95.676,-36 41.676,-36 41.676,-0 95.676,-0 95.676,-36"/>
<text text-anchor="middle" x="68.676" y="-15.5" font-family="Helvetica,sans-Serif" font-size="10.00">base</text>
</a>
</g>
</g>
<!-- dir_4cbbc7f21c16d130545e15f2205651b3&#45;&gt;dir_677b030cc750909e4cd27413873678d8 -->
<g id="edge12" class="edge"><title>dir_4cbbc7f21c16d130545e15f2205651b3&#45;&gt;dir_677b030cc750909e4cd27413873678d8</title>
<path fill="none" stroke="black" d="M118.658,-302.427C88.2362,-297.922 40.1272,-285.596 17.676,-252 -25.912,-186.775 22.9431,-90.4853 51.2904,-44.829"/>
<polygon fill="black" stroke="black" points="54.4037,-46.4559 56.8203,-36.1404 48.4983,-42.6974 54.4037,-46.4559"/>
<g id="a_edge12&#45;headlabel"><a xlink:href="dir_000211_000080.html" target="_top" xlink:title="16">
<text text-anchor="middle" x="54.8689" y="-48.5129" font-family="Helvetica,sans-Serif" font-size="10.00">16</text>
</a>
</g>
</g>
<!-- dir_37c90836491b695b472bf98d1be8336b -->
<g id="node5" class="node"><title>dir_37c90836491b695b472bf98d1be8336b</title>
<g id="a_node5"><a xlink:href="dir_37c90836491b695b472bf98d1be8336b.html" target="_top" xlink:title="Base">
<polygon fill="none" stroke="red" points="268.676,-36 214.676,-36 214.676,-0 268.676,-0 268.676,-36"/>
<text text-anchor="middle" x="241.676" y="-15.5" font-family="Helvetica,sans-Serif" font-size="10.00">Base</text>
</a>
</g>
</g>
<!-- dir_4cbbc7f21c16d130545e15f2205651b3&#45;&gt;dir_37c90836491b695b472bf98d1be8336b -->
<g id="edge13" class="edge"><title>dir_4cbbc7f21c16d130545e15f2205651b3&#45;&gt;dir_37c90836491b695b472bf98d1be8336b</title>
<path fill="none" stroke="black" d="M172.964,-295.347C192.937,-286.909 219.157,-272.731 234.676,-252 283.62,-186.618 292.478,-150.979 271.676,-72 269.184,-62.5392 264.574,-52.9933 259.703,-44.6599"/>
<polygon fill="black" stroke="black" points="262.662,-42.7903 254.403,-36.1546 256.721,-46.4926 262.662,-42.7903"/>
<g id="a_edge13&#45;headlabel"><a xlink:href="dir_000211_000067.html" target="_top" xlink:title="4">
<text text-anchor="middle" x="266.973" y="-41.8393" font-family="Helvetica,sans-Serif" font-size="10.00">4</text>
</a>
</g>
</g>
<!-- dir_396d171119822f66a36fe1ebf998d1a3 -->
<g id="node6" class="node"><title>dir_396d171119822f66a36fe1ebf998d1a3</title>
<g id="a_node6"><a xlink:href="dir_396d171119822f66a36fe1ebf998d1a3.html" target="_top" xlink:title="include">
<polygon fill="none" stroke="red" points="153.676,-180 99.676,-180 99.676,-144 153.676,-144 153.676,-180"/>
<text text-anchor="middle" x="126.676" y="-159.5" font-family="Helvetica,sans-Serif" font-size="10.00">include</text>
</a>
</g>
</g>
<!-- dir_4cbbc7f21c16d130545e15f2205651b3&#45;&gt;dir_396d171119822f66a36fe1ebf998d1a3 -->
<g id="edge14" class="edge"><title>dir_4cbbc7f21c16d130545e15f2205651b3&#45;&gt;dir_396d171119822f66a36fe1ebf998d1a3</title>
<path fill="none" stroke="black" d="M142.059,-287.877C139.97,-277.527 137.418,-264.048 135.676,-252 132.694,-231.38 130.366,-207.93 128.825,-190.279"/>
<polygon fill="black" stroke="black" points="132.296,-189.786 127.969,-180.115 125.321,-190.374 132.296,-189.786"/>
<g id="a_edge14&#45;headlabel"><a xlink:href="dir_000211_000162.html" target="_top" xlink:title="24">
<text text-anchor="middle" x="135.427" y="-190.629" font-family="Helvetica,sans-Serif" font-size="10.00">24</text>
</a>
</g>
</g>
<!-- dir_2171f7ec022c5423887b07c69b2f5b48 -->
<g id="node7" class="node"><title>dir_2171f7ec022c5423887b07c69b2f5b48</title>
<g id="a_node7"><a xlink:href="dir_2171f7ec022c5423887b07c69b2f5b48.html" target="_top" xlink:title="DataFormats">
<polygon fill="none" stroke="red" points="246.676,-108 172.676,-108 172.676,-72 246.676,-72 246.676,-108"/>
<text text-anchor="middle" x="209.676" y="-87.5" font-family="Helvetica,sans-Serif" font-size="10.00">DataFormats</text>
</a>
</g>
</g>
<!-- dir_4cbbc7f21c16d130545e15f2205651b3&#45;&gt;dir_2171f7ec022c5423887b07c69b2f5b48 -->
<g id="edge15" class="edge"><title>dir_4cbbc7f21c16d130545e15f2205651b3&#45;&gt;dir_2171f7ec022c5423887b07c69b2f5b48</title>
<path fill="none" stroke="black" d="M172.707,-292.127C188.065,-283.212 205.929,-269.749 214.676,-252 235.871,-208.995 226.434,-151.381 217.889,-118.015"/>
<polygon fill="black" stroke="black" points="221.189,-116.812 215.185,-108.082 214.434,-118.651 221.189,-116.812"/>
<g id="a_edge15&#45;headlabel"><a xlink:href="dir_000211_000038.html" target="_top" xlink:title="17">
<text text-anchor="middle" x="224.872" y="-117.035" font-family="Helvetica,sans-Serif" font-size="10.00">17</text>
</a>
</g>
</g>
<!-- dir_7f309bec8670bb3fb666e7e061b24659&#45;&gt;dir_677b030cc750909e4cd27413873678d8 -->
<g id="edge1" class="edge"><title>dir_7f309bec8670bb3fb666e7e061b24659&#45;&gt;dir_677b030cc750909e4cd27413873678d8</title>
<path fill="none" stroke="black" d="M145.21,-221.88C126.375,-213.369 103.435,-199.708 90.676,-180 64.2533,-139.185 63.4365,-80.3539 65.7241,-46.2639"/>
<polygon fill="black" stroke="black" points="69.2269,-46.3697 66.5473,-36.1193 62.2498,-45.8034 69.2269,-46.3697"/>
<g id="a_edge1&#45;headlabel"><a xlink:href="dir_000105_000080.html" target="_top" xlink:title="44">
<text text-anchor="middle" x="71.7662" y="-47.6821" font-family="Helvetica,sans-Serif" font-size="10.00">44</text>
</a>
</g>
</g>
<!-- dir_7f309bec8670bb3fb666e7e061b24659&#45;&gt;dir_37c90836491b695b472bf98d1be8336b -->
<g id="edge2" class="edge"><title>dir_7f309bec8670bb3fb666e7e061b24659&#45;&gt;dir_37c90836491b695b472bf98d1be8336b</title>
<path fill="none" stroke="black" d="M191.167,-215.985C210.653,-193.311 243.086,-151.028 255.676,-108 261.689,-87.4495 257.268,-63.4278 251.852,-45.5238"/>
<polygon fill="black" stroke="black" points="255.171,-44.4124 248.711,-36.015 248.525,-46.6082 255.171,-44.4124"/>
<g id="a_edge2&#45;headlabel"><a xlink:href="dir_000105_000067.html" target="_top" xlink:title="2">
<text text-anchor="middle" x="258.995" y="-44.435" font-family="Helvetica,sans-Serif" font-size="10.00">2</text>
</a>
</g>
</g>
<!-- dir_7f309bec8670bb3fb666e7e061b24659&#45;&gt;dir_396d171119822f66a36fe1ebf998d1a3 -->
<g id="edge3" class="edge"><title>dir_7f309bec8670bb3fb666e7e061b24659&#45;&gt;dir_396d171119822f66a36fe1ebf998d1a3</title>
<path fill="none" stroke="black" d="M163.564,-215.697C157.808,-207.474 150.814,-197.483 144.471,-188.421"/>
<polygon fill="black" stroke="black" points="147.251,-186.29 138.649,-180.104 141.516,-190.304 147.251,-186.29"/>
<g id="a_edge3&#45;headlabel"><a xlink:href="dir_000105_000162.html" target="_top" xlink:title="2">
<text text-anchor="middle" x="151.638" y="-185.106" font-family="Helvetica,sans-Serif" font-size="10.00">2</text>
</a>
</g>
</g>
<!-- dir_7f309bec8670bb3fb666e7e061b24659&#45;&gt;dir_2171f7ec022c5423887b07c69b2f5b48 -->
<g id="edge4" class="edge"><title>dir_7f309bec8670bb3fb666e7e061b24659&#45;&gt;dir_2171f7ec022c5423887b07c69b2f5b48</title>
<path fill="none" stroke="black" d="M179.777,-215.871C185.597,-191.564 196.311,-146.819 203.208,-118.013"/>
<polygon fill="black" stroke="black" points="206.635,-118.729 205.56,-108.189 199.828,-117.099 206.635,-118.729"/>
<g id="a_edge4&#45;headlabel"><a xlink:href="dir_000105_000038.html" target="_top" xlink:title="5">
<text text-anchor="middle" x="208.56" y="-120.386" font-family="Helvetica,sans-Serif" font-size="10.00">5</text>
</a>
</g>
</g>
<!-- dir_4995562033b321477cfe3c34a14a5189&#45;&gt;dir_677b030cc750909e4cd27413873678d8 -->
<g id="edge5" class="edge"><title>dir_4995562033b321477cfe3c34a14a5189&#45;&gt;dir_677b030cc750909e4cd27413873678d8</title>
<path fill="none" stroke="black" d="M55.7209,-215.988C52.6986,-186.517 47.9083,-124.12 54.676,-72 55.7789,-63.506 57.8367,-54.4338 60.0417,-46.2397"/>
<polygon fill="black" stroke="black" points="63.4597,-47.0172 62.8525,-36.4397 56.731,-45.0872 63.4597,-47.0172"/>
<g id="a_edge5&#45;headlabel"><a xlink:href="dir_000200_000080.html" target="_top" xlink:title="13">
<text text-anchor="middle" x="65.198" y="-48.7552" font-family="Helvetica,sans-Serif" font-size="10.00">13</text>
</a>
</g>
</g>
<!-- dir_4995562033b321477cfe3c34a14a5189&#45;&gt;dir_396d171119822f66a36fe1ebf998d1a3 -->
<g id="edge6" class="edge"><title>dir_4995562033b321477cfe3c34a14a5189&#45;&gt;dir_396d171119822f66a36fe1ebf998d1a3</title>
<path fill="none" stroke="black" d="M74.7322,-215.697C83.1715,-207.135 93.5006,-196.656 102.719,-187.304"/>
<polygon fill="black" stroke="black" points="105.289,-189.683 109.816,-180.104 100.303,-184.769 105.289,-189.683"/>
<g id="a_edge6&#45;headlabel"><a xlink:href="dir_000200_000162.html" target="_top" xlink:title="3">
<text text-anchor="middle" x="104.787" y="-191.736" font-family="Helvetica,sans-Serif" font-size="10.00">3</text>
</a>
</g>
</g>
<!-- dir_396d171119822f66a36fe1ebf998d1a3&#45;&gt;dir_677b030cc750909e4cd27413873678d8 -->
<g id="edge7" class="edge"><title>dir_396d171119822f66a36fe1ebf998d1a3&#45;&gt;dir_677b030cc750909e4cd27413873678d8</title>
<path fill="none" stroke="black" d="M119.68,-143.871C109.708,-119.457 91.3147,-74.4258 79.5552,-45.6351"/>
<polygon fill="black" stroke="black" points="82.7184,-44.1234 75.697,-36.1893 76.2382,-46.7703 82.7184,-44.1234"/>
<g id="a_edge7&#45;headlabel"><a xlink:href="dir_000162_000080.html" target="_top" xlink:title="9">
<text text-anchor="middle" x="86.7061" y="-43.8775" font-family="Helvetica,sans-Serif" font-size="10.00">9</text>
</a>
</g>
</g>
<!-- dir_396d171119822f66a36fe1ebf998d1a3&#45;&gt;dir_37c90836491b695b472bf98d1be8336b -->
<g id="edge8" class="edge"><title>dir_396d171119822f66a36fe1ebf998d1a3&#45;&gt;dir_37c90836491b695b472bf98d1be8336b</title>
<path fill="none" stroke="black" d="M130.672,-143.717C135.777,-124.56 146.124,-93.5293 163.676,-72 175.07,-58.0239 191.098,-46.2634 205.663,-37.399"/>
<polygon fill="black" stroke="black" points="207.608,-40.3167 214.489,-32.26 204.086,-34.2675 207.608,-40.3167"/>
<g id="a_edge8&#45;headlabel"><a xlink:href="dir_000162_000067.html" target="_top" xlink:title="1">
<text text-anchor="middle" x="205.931" y="-42.079" font-family="Helvetica,sans-Serif" font-size="10.00">1</text>
</a>
</g>
</g>
<!-- dir_396d171119822f66a36fe1ebf998d1a3&#45;&gt;dir_2171f7ec022c5423887b07c69b2f5b48 -->
<g id="edge9" class="edge"><title>dir_396d171119822f66a36fe1ebf998d1a3&#45;&gt;dir_2171f7ec022c5423887b07c69b2f5b48</title>
<path fill="none" stroke="black" d="M147.193,-143.697C157.546,-134.965 170.262,-124.24 181.515,-114.75"/>
<polygon fill="black" stroke="black" points="184.007,-117.227 189.395,-108.104 179.494,-111.876 184.007,-117.227"/>
<g id="a_edge9&#45;headlabel"><a xlink:href="dir_000162_000038.html" target="_top" xlink:title="11">
<text text-anchor="middle" x="183.09" y="-119.215" font-family="Helvetica,sans-Serif" font-size="10.00">11</text>
</a>
</g>
</g>
<!-- dir_2171f7ec022c5423887b07c69b2f5b48&#45;&gt;dir_677b030cc750909e4cd27413873678d8 -->
<g id="edge16" class="edge"><title>dir_2171f7ec022c5423887b07c69b2f5b48&#45;&gt;dir_677b030cc750909e4cd27413873678d8</title>
<path fill="none" stroke="black" d="M175.184,-71.8761C153.878,-61.2987 126.574,-47.7439 104.946,-37.0065"/>
<polygon fill="black" stroke="black" points="106.269,-33.7555 95.7553,-32.4436 103.156,-40.0253 106.269,-33.7555"/>
<g id="a_edge16&#45;headlabel"><a xlink:href="dir_000038_000080.html" target="_top" xlink:title="2">
<text text-anchor="middle" x="110.751" y="-30.3107" font-family="Helvetica,sans-Serif" font-size="10.00">2</text>
</a>
</g>
</g>
<!-- dir_2171f7ec022c5423887b07c69b2f5b48&#45;&gt;dir_37c90836491b695b472bf98d1be8336b -->
<g id="edge17" class="edge"><title>dir_2171f7ec022c5423887b07c69b2f5b48&#45;&gt;dir_37c90836491b695b472bf98d1be8336b</title>
<path fill="none" stroke="black" d="M217.586,-71.6966C221.229,-63.7284 225.631,-54.0995 229.67,-45.2641"/>
<polygon fill="black" stroke="black" points="232.882,-46.6543 233.857,-36.1043 226.516,-43.7439 232.882,-46.6543"/>
<g id="a_edge17&#45;headlabel"><a xlink:href="dir_000038_000067.html" target="_top" xlink:title="6">
<text text-anchor="middle" x="233.97" y="-48.6039" font-family="Helvetica,sans-Serif" font-size="10.00">6</text>
</a>
</g>
</g>
</g>
</svg>
