<?xml version="1.0" encoding="UTF-8" standalone="no"?>
<!DOCTYPE svg PUBLIC "-//W3C//DTD SVG 1.1//EN"
 "http://www.w3.org/Graphics/SVG/1.1/DTD/svg11.dtd">
<!-- Generated by graphviz version 2.36.0 (20140111.2315)
 -->
<!-- Title: /home/travis/build/AliceO2Group/AliceO2/Detectors/ITSMFT/MFT Pages: 1 -->
<svg width="439pt" height="519pt"
 viewBox="0.00 0.00 439.43 519.00" xmlns="http://www.w3.org/2000/svg" xmlns:xlink="http://www.w3.org/1999/xlink">
<g id="graph0" class="graph" transform="scale(1 1) rotate(0) translate(4 515)">
<title>/home/travis/build/AliceO2Group/AliceO2/Detectors/ITSMFT/MFT</title>
<g id="clust1" class="cluster"><title>clusterdir_1306292b77b40360479b729ac9ee7efe</title>
<g id="a_clust1"><a xlink:href="dir_1306292b77b40360479b729ac9ee7efe.html" target="_top" xlink:title="ITSMFT">
<polygon fill="#ddddee" stroke="black" points="81.4274,-200 81.4274,-503 239.427,-503 239.427,-200 81.4274,-200"/>
<text text-anchor="middle" x="160.427" y="-491" font-family="Helvetica,sans-Serif" font-size="10.00">ITSMFT</text>
</a>
</g>
</g>
<g id="clust2" class="cluster"><title>clusterdir_f39d1cd569ca2d16022b762a0e4a53c8</title>
<g id="a_clust2"><a xlink:href="dir_f39d1cd569ca2d16022b762a0e4a53c8.html" target="_top">
<polygon fill="#eeeeff" stroke="black" points="89.4274,-208 89.4274,-476 231.427,-476 231.427,-208 89.4274,-208"/>
</a>
</g>
</g>
<!-- dir_f39d1cd569ca2d16022b762a0e4a53c8 -->
<g id="node1" class="node"><title>dir_f39d1cd569ca2d16022b762a0e4a53c8</title>
<text text-anchor="middle" x="196.427" y="-447.5" font-family="Helvetica,sans-Serif" font-size="10.00">MFT</text>
</g>
<!-- dir_7e732ae97f4f941436b6909b27d4da36 -->
<g id="node2" class="node"><title>dir_7e732ae97f4f941436b6909b27d4da36</title>
<g id="a_node2"><a xlink:href="dir_7e732ae97f4f941436b6909b27d4da36.html" target="_top" xlink:title="base">
<polygon fill="white" stroke="red" points="217.427,-252 163.427,-252 163.427,-216 217.427,-216 217.427,-252"/>
<text text-anchor="middle" x="190.427" y="-231.5" font-family="Helvetica,sans-Serif" font-size="10.00">base</text>
</a>
</g>
</g>
<!-- dir_4ab6b4cc6a7edbff49100e9123df213f -->
<g id="node6" class="node"><title>dir_4ab6b4cc6a7edbff49100e9123df213f</title>
<g id="a_node6"><a xlink:href="dir_4ab6b4cc6a7edbff49100e9123df213f.html" target="_top" xlink:title="Common">
<polygon fill="none" stroke="red" points="253.927,-36 198.927,-36 198.927,-0 253.927,-0 253.927,-36"/>
<text text-anchor="middle" x="226.427" y="-15.5" font-family="Helvetica,sans-Serif" font-size="10.00">Common</text>
</a>
</g>
</g>
<!-- dir_7e732ae97f4f941436b6909b27d4da36&#45;&gt;dir_4ab6b4cc6a7edbff49100e9123df213f -->
<g id="edge14" class="edge"><title>dir_7e732ae97f4f941436b6909b27d4da36&#45;&gt;dir_4ab6b4cc6a7edbff49100e9123df213f</title>
<path fill="none" stroke="black" d="M187.158,-215.588C182.222,-185.512 174.982,-122.227 190.427,-72 193.436,-62.2153 198.934,-52.6161 204.743,-44.3336"/>
<polygon fill="black" stroke="black" points="207.622,-46.3279 210.817,-36.2264 202.02,-42.1306 207.622,-46.3279"/>
<g id="a_edge14&#45;headlabel"><a xlink:href="dir_000076_000016.html" target="_top" xlink:title="1">
<text text-anchor="middle" x="207.739" y="-48.4071" font-family="Helvetica,sans-Serif" font-size="10.00">1</text>
</a>
</g>
</g>
<!-- dir_37c90836491b695b472bf98d1be8336b -->
<g id="node7" class="node"><title>dir_37c90836491b695b472bf98d1be8336b</title>
<g id="a_node7"><a xlink:href="dir_37c90836491b695b472bf98d1be8336b.html" target="_top" xlink:title="Base">
<polygon fill="none" stroke="red" points="253.427,-108 199.427,-108 199.427,-72 253.427,-72 253.427,-108"/>
<text text-anchor="middle" x="226.427" y="-87.5" font-family="Helvetica,sans-Serif" font-size="10.00">Base</text>
</a>
</g>
</g>
<!-- dir_7e732ae97f4f941436b6909b27d4da36&#45;&gt;dir_37c90836491b695b472bf98d1be8336b -->
<g id="edge15" class="edge"><title>dir_7e732ae97f4f941436b6909b27d4da36&#45;&gt;dir_37c90836491b695b472bf98d1be8336b</title>
<path fill="none" stroke="black" d="M194.77,-215.871C200.932,-191.564 212.276,-146.819 219.579,-118.013"/>
<polygon fill="black" stroke="black" points="223.005,-118.743 222.07,-108.189 216.219,-117.022 223.005,-118.743"/>
<g id="a_edge15&#45;headlabel"><a xlink:href="dir_000076_000067.html" target="_top" xlink:title="4">
<text text-anchor="middle" x="224.874" y="-120.425" font-family="Helvetica,sans-Serif" font-size="10.00">4</text>
</a>
</g>
</g>
<!-- dir_85bf31a2e8d306e7598ffcb73f8df6bf -->
<g id="node8" class="node"><title>dir_85bf31a2e8d306e7598ffcb73f8df6bf</title>
<g id="a_node8"><a xlink:href="dir_85bf31a2e8d306e7598ffcb73f8df6bf.html" target="_top" xlink:title="common">
<polygon fill="none" stroke="red" points="69.4274,-252 15.4274,-252 15.4274,-216 69.4274,-216 69.4274,-252"/>
<text text-anchor="middle" x="42.4274" y="-231.5" font-family="Helvetica,sans-Serif" font-size="10.00">common</text>
</a>
</g>
</g>
<!-- dir_7e732ae97f4f941436b6909b27d4da36&#45;&gt;dir_85bf31a2e8d306e7598ffcb73f8df6bf -->
<g id="edge16" class="edge"><title>dir_7e732ae97f4f941436b6909b27d4da36&#45;&gt;dir_85bf31a2e8d306e7598ffcb73f8df6bf</title>
<path fill="none" stroke="black" d="M163.052,-234C135.308,-234 107.565,-234 79.8207,-234"/>
<polygon fill="black" stroke="black" points="79.5993,-230.5 69.5993,-234 79.5992,-237.5 79.5993,-230.5"/>
<g id="a_edge16&#45;headlabel"><a xlink:href="dir_000076_000131.html" target="_top" xlink:title="7">
<text text-anchor="middle" x="83.1939" y="-225.161" font-family="Helvetica,sans-Serif" font-size="10.00">7</text>
</a>
</g>
</g>
<!-- dir_5b6015b386f827cc0d1582f414a67114 -->
<g id="node3" class="node"><title>dir_5b6015b386f827cc0d1582f414a67114</title>
<g id="a_node3"><a xlink:href="dir_5b6015b386f827cc0d1582f414a67114.html" target="_top" xlink:title="macros">
<polygon fill="white" stroke="black" points="151.427,-468 97.4274,-468 97.4274,-432 151.427,-432 151.427,-468"/>
<text text-anchor="middle" x="124.427" y="-447.5" font-family="Helvetica,sans-Serif" font-size="10.00">macros</text>
</a>
</g>
</g>
<!-- dir_3d8e691f27a9a1a3f5b37028248bc44b -->
<g id="node4" class="node"><title>dir_3d8e691f27a9a1a3f5b37028248bc44b</title>
<g id="a_node4"><a xlink:href="dir_3d8e691f27a9a1a3f5b37028248bc44b.html" target="_top" xlink:title="reconstruction">
<polygon fill="white" stroke="red" points="175.427,-396 97.4274,-396 97.4274,-360 175.427,-360 175.427,-396"/>
<text text-anchor="middle" x="136.427" y="-375.5" font-family="Helvetica,sans-Serif" font-size="10.00">reconstruction</text>
</a>
</g>
</g>
<!-- dir_5b6015b386f827cc0d1582f414a67114&#45;&gt;dir_3d8e691f27a9a1a3f5b37028248bc44b -->
<g id="edge19" class="edge"><title>dir_5b6015b386f827cc0d1582f414a67114&#45;&gt;dir_3d8e691f27a9a1a3f5b37028248bc44b</title>
<path fill="none" stroke="black" d="M127.394,-431.697C128.716,-423.983 130.305,-414.712 131.78,-406.112"/>
<polygon fill="black" stroke="black" points="135.255,-406.552 133.495,-396.104 128.356,-405.369 135.255,-406.552"/>
<g id="a_edge19&#45;headlabel"><a xlink:href="dir_000169_000116.html" target="_top" xlink:title="1">
<text text-anchor="middle" x="137.446" y="-408.075" font-family="Helvetica,sans-Serif" font-size="10.00">1</text>
</a>
</g>
</g>
<!-- dir_a336bf94aab96007822cb34c9e2cb8a5 -->
<g id="node5" class="node"><title>dir_a336bf94aab96007822cb34c9e2cb8a5</title>
<g id="a_node5"><a xlink:href="dir_a336bf94aab96007822cb34c9e2cb8a5.html" target="_top" xlink:title="simulation">
<polygon fill="white" stroke="red" points="220.677,-324 160.177,-324 160.177,-288 220.677,-288 220.677,-324"/>
<text text-anchor="middle" x="190.427" y="-303.5" font-family="Helvetica,sans-Serif" font-size="10.00">simulation</text>
</a>
</g>
</g>
<!-- dir_5b6015b386f827cc0d1582f414a67114&#45;&gt;dir_a336bf94aab96007822cb34c9e2cb8a5 -->
<g id="edge21" class="edge"><title>dir_5b6015b386f827cc0d1582f414a67114&#45;&gt;dir_a336bf94aab96007822cb34c9e2cb8a5</title>
<path fill="none" stroke="black" d="M151.623,-432.229C163.873,-423.125 177.186,-410.715 184.427,-396 193.858,-376.834 194.869,-352.485 193.794,-334.102"/>
<polygon fill="black" stroke="black" points="197.276,-333.731 192.969,-324.051 190.299,-334.304 197.276,-333.731"/>
<g id="a_edge21&#45;headlabel"><a xlink:href="dir_000169_000094.html" target="_top" xlink:title="2">
<text text-anchor="middle" x="200.4" y="-334.581" font-family="Helvetica,sans-Serif" font-size="10.00">2</text>
</a>
</g>
</g>
<!-- dir_5b6015b386f827cc0d1582f414a67114&#45;&gt;dir_4ab6b4cc6a7edbff49100e9123df213f -->
<g id="edge20" class="edge"><title>dir_5b6015b386f827cc0d1582f414a67114&#45;&gt;dir_4ab6b4cc6a7edbff49100e9123df213f</title>
<path fill="none" stroke="black" d="M151.642,-435.235C154.565,-434.033 157.53,-432.924 160.427,-432 247.307,-404.288 284.391,-443.185 362.427,-396 405.257,-370.102 431.427,-357.051 431.427,-307 431.427,-307 431.427,-307 431.427,-161 431.427,-80.3738 322.946,-41.9067 263.812,-26.9274"/>
<polygon fill="black" stroke="black" points="264.618,-23.5217 254.075,-24.5599 262.965,-30.3236 264.618,-23.5217"/>
<g id="a_edge20&#45;headlabel"><a xlink:href="dir_000169_000016.html" target="_top" xlink:title="2">
<text text-anchor="middle" x="268.782" y="-19.112" font-family="Helvetica,sans-Serif" font-size="10.00">2</text>
</a>
</g>
</g>
<!-- dir_5b6015b386f827cc0d1582f414a67114&#45;&gt;dir_37c90836491b695b472bf98d1be8336b -->
<g id="edge22" class="edge"><title>dir_5b6015b386f827cc0d1582f414a67114&#45;&gt;dir_37c90836491b695b472bf98d1be8336b</title>
<path fill="none" stroke="black" d="M151.819,-436.064C205.95,-409.605 321.427,-348.317 321.427,-307 321.427,-307 321.427,-307 321.427,-233 321.427,-185.012 283.483,-140.963 255.556,-115.042"/>
<polygon fill="black" stroke="black" points="257.757,-112.314 247.984,-108.223 253.073,-117.516 257.757,-112.314"/>
<g id="a_edge22&#45;headlabel"><a xlink:href="dir_000169_000067.html" target="_top" xlink:title="2">
<text text-anchor="middle" x="262.329" y="-110.11" font-family="Helvetica,sans-Serif" font-size="10.00">2</text>
</a>
</g>
</g>
<!-- dir_5b6015b386f827cc0d1582f414a67114&#45;&gt;dir_85bf31a2e8d306e7598ffcb73f8df6bf -->
<g id="edge23" class="edge"><title>dir_5b6015b386f827cc0d1582f414a67114&#45;&gt;dir_85bf31a2e8d306e7598ffcb73f8df6bf</title>
<path fill="none" stroke="black" d="M110.872,-431.568C103.537,-421.559 94.7176,-408.525 88.4274,-396 66.2734,-351.889 53.2704,-295.461 47.0257,-262.463"/>
<polygon fill="black" stroke="black" points="50.3963,-261.435 45.1636,-252.222 43.5092,-262.687 50.3963,-261.435"/>
<g id="a_edge23&#45;headlabel"><a xlink:href="dir_000169_000131.html" target="_top" xlink:title="5">
<text text-anchor="middle" x="53.8327" y="-261.964" font-family="Helvetica,sans-Serif" font-size="10.00">5</text>
</a>
</g>
</g>
<!-- dir_f01815b857f9009bea48e2cb39492245 -->
<g id="node9" class="node"><title>dir_f01815b857f9009bea48e2cb39492245</title>
<g id="a_node9"><a xlink:href="dir_f01815b857f9009bea48e2cb39492245.html" target="_top" xlink:title="Passive">
<polygon fill="none" stroke="red" points="403.427,-180 349.427,-180 349.427,-144 403.427,-144 403.427,-180"/>
<text text-anchor="middle" x="376.427" y="-159.5" font-family="Helvetica,sans-Serif" font-size="10.00">Passive</text>
</a>
</g>
</g>
<!-- dir_5b6015b386f827cc0d1582f414a67114&#45;&gt;dir_f01815b857f9009bea48e2cb39492245 -->
<g id="edge24" class="edge"><title>dir_5b6015b386f827cc0d1582f414a67114&#45;&gt;dir_f01815b857f9009bea48e2cb39492245</title>
<path fill="none" stroke="black" d="M151.667,-435.314C154.586,-434.096 157.543,-432.963 160.427,-432 235.752,-406.868 280.09,-452.949 335.427,-396 389.846,-339.997 386.049,-238.666 380.491,-190.223"/>
<polygon fill="black" stroke="black" points="383.948,-189.664 379.224,-180.181 377.003,-190.541 383.948,-189.664"/>
<g id="a_edge24&#45;headlabel"><a xlink:href="dir_000169_000187.html" target="_top" xlink:title="1">
<text text-anchor="middle" x="387.215" y="-190.375" font-family="Helvetica,sans-Serif" font-size="10.00">1</text>
</a>
</g>
</g>
<!-- dir_2171f7ec022c5423887b07c69b2f5b48 -->
<g id="node10" class="node"><title>dir_2171f7ec022c5423887b07c69b2f5b48</title>
<g id="a_node10"><a xlink:href="dir_2171f7ec022c5423887b07c69b2f5b48.html" target="_top" xlink:title="DataFormats">
<polygon fill="none" stroke="red" points="103.427,-180 29.4274,-180 29.4274,-144 103.427,-144 103.427,-180"/>
<text text-anchor="middle" x="66.4274" y="-159.5" font-family="Helvetica,sans-Serif" font-size="10.00">DataFormats</text>
</a>
</g>
</g>
<!-- dir_5b6015b386f827cc0d1582f414a67114&#45;&gt;dir_2171f7ec022c5423887b07c69b2f5b48 -->
<g id="edge25" class="edge"><title>dir_5b6015b386f827cc0d1582f414a67114&#45;&gt;dir_2171f7ec022c5423887b07c69b2f5b48</title>
<path fill="none" stroke="black" d="M103.567,-431.933C92.6712,-422.237 79.7117,-409.384 70.4274,-396 30.5079,-338.454 20.9663,-320.511 6.4274,-252 1.62973,-229.392 -4.83689,-220.18 6.4274,-200 9.99508,-193.608 15.171,-188.184 21.0088,-183.623"/>
<polygon fill="black" stroke="black" points="23.0329,-186.479 29.291,-177.93 19.0675,-180.71 23.0329,-186.479"/>
<g id="a_edge25&#45;headlabel"><a xlink:href="dir_000169_000038.html" target="_top" xlink:title="2">
<text text-anchor="middle" x="21.679" y="-188.355" font-family="Helvetica,sans-Serif" font-size="10.00">2</text>
</a>
</g>
</g>
<!-- dir_3d8e691f27a9a1a3f5b37028248bc44b&#45;&gt;dir_7e732ae97f4f941436b6909b27d4da36 -->
<g id="edge3" class="edge"><title>dir_3d8e691f27a9a1a3f5b37028248bc44b&#45;&gt;dir_7e732ae97f4f941436b6909b27d4da36</title>
<path fill="none" stroke="black" d="M136.67,-359.928C137.48,-341.498 140.408,-311.614 150.427,-288 154.615,-278.131 161.039,-268.438 167.522,-260.095"/>
<polygon fill="black" stroke="black" points="170.32,-262.202 173.943,-252.246 164.902,-257.769 170.32,-262.202"/>
<g id="a_edge3&#45;headlabel"><a xlink:href="dir_000116_000076.html" target="_top" xlink:title="4">
<text text-anchor="middle" x="170.241" y="-264.282" font-family="Helvetica,sans-Serif" font-size="10.00">4</text>
</a>
</g>
</g>
<!-- dir_3d8e691f27a9a1a3f5b37028248bc44b&#45;&gt;dir_a336bf94aab96007822cb34c9e2cb8a5 -->
<g id="edge1" class="edge"><title>dir_3d8e691f27a9a1a3f5b37028248bc44b&#45;&gt;dir_a336bf94aab96007822cb34c9e2cb8a5</title>
<path fill="none" stroke="black" d="M149.776,-359.697C156.184,-351.389 163.985,-341.277 171.033,-332.141"/>
<polygon fill="black" stroke="black" points="173.896,-334.16 177.233,-324.104 168.353,-329.884 173.896,-334.16"/>
<g id="a_edge1&#45;headlabel"><a xlink:href="dir_000116_000094.html" target="_top" xlink:title="7">
<text text-anchor="middle" x="173.948" y="-336.24" font-family="Helvetica,sans-Serif" font-size="10.00">7</text>
</a>
</g>
</g>
<!-- dir_3d8e691f27a9a1a3f5b37028248bc44b&#45;&gt;dir_85bf31a2e8d306e7598ffcb73f8df6bf -->
<g id="edge2" class="edge"><title>dir_3d8e691f27a9a1a3f5b37028248bc44b&#45;&gt;dir_85bf31a2e8d306e7598ffcb73f8df6bf</title>
<path fill="none" stroke="black" d="M118.322,-359.911C108.447,-350.009 96.436,-336.967 87.4274,-324 73.6948,-304.233 61.6069,-279.689 53.427,-261.386"/>
<polygon fill="black" stroke="black" points="56.6187,-259.949 49.4085,-252.186 50.204,-262.751 56.6187,-259.949"/>
<g id="a_edge2&#45;headlabel"><a xlink:href="dir_000116_000131.html" target="_top" xlink:title="5">
<text text-anchor="middle" x="60.6594" y="-259.607" font-family="Helvetica,sans-Serif" font-size="10.00">5</text>
</a>
</g>
</g>
<!-- dir_3d8e691f27a9a1a3f5b37028248bc44b&#45;&gt;dir_2171f7ec022c5423887b07c69b2f5b48 -->
<g id="edge4" class="edge"><title>dir_3d8e691f27a9a1a3f5b37028248bc44b&#45;&gt;dir_2171f7ec022c5423887b07c69b2f5b48</title>
<path fill="none" stroke="black" d="M130.817,-359.849C118.658,-322.675 89.7952,-234.439 75.2004,-189.82"/>
<polygon fill="black" stroke="black" points="78.4997,-188.649 72.0642,-180.232 71.8466,-190.825 78.4997,-188.649"/>
<g id="a_edge4&#45;headlabel"><a xlink:href="dir_000116_000038.html" target="_top" xlink:title="2">
<text text-anchor="middle" x="82.3158" y="-188.683" font-family="Helvetica,sans-Serif" font-size="10.00">2</text>
</a>
</g>
</g>
<!-- dir_a336bf94aab96007822cb34c9e2cb8a5&#45;&gt;dir_7e732ae97f4f941436b6909b27d4da36 -->
<g id="edge8" class="edge"><title>dir_a336bf94aab96007822cb34c9e2cb8a5&#45;&gt;dir_7e732ae97f4f941436b6909b27d4da36</title>
<path fill="none" stroke="black" d="M190.427,-287.697C190.427,-279.983 190.427,-270.712 190.427,-262.112"/>
<polygon fill="black" stroke="black" points="193.927,-262.104 190.427,-252.104 186.927,-262.104 193.927,-262.104"/>
<g id="a_edge8&#45;headlabel"><a xlink:href="dir_000094_000076.html" target="_top" xlink:title="1">
<text text-anchor="middle" x="196.767" y="-263.199" font-family="Helvetica,sans-Serif" font-size="10.00">1</text>
</a>
</g>
</g>
<!-- dir_a336bf94aab96007822cb34c9e2cb8a5&#45;&gt;dir_4ab6b4cc6a7edbff49100e9123df213f -->
<g id="edge5" class="edge"><title>dir_a336bf94aab96007822cb34c9e2cb8a5&#45;&gt;dir_4ab6b4cc6a7edbff49100e9123df213f</title>
<path fill="none" stroke="black" d="M214.795,-287.854C226.034,-278.581 238.412,-266.135 245.427,-252 281.153,-180.022 286.046,-148.807 262.427,-72 259.419,-62.2153 253.92,-52.6161 248.112,-44.3336"/>
<polygon fill="black" stroke="black" points="250.835,-42.1306 242.037,-36.2264 245.233,-46.3279 250.835,-42.1306"/>
<g id="a_edge5&#45;headlabel"><a xlink:href="dir_000094_000016.html" target="_top" xlink:title="1">
<text text-anchor="middle" x="255.262" y="-40.8048" font-family="Helvetica,sans-Serif" font-size="10.00">1</text>
</a>
</g>
</g>
<!-- dir_a336bf94aab96007822cb34c9e2cb8a5&#45;&gt;dir_37c90836491b695b472bf98d1be8336b -->
<g id="edge6" class="edge"><title>dir_a336bf94aab96007822cb34c9e2cb8a5&#45;&gt;dir_37c90836491b695b472bf98d1be8336b</title>
<path fill="none" stroke="black" d="M206.037,-287.774C213.8,-278.03 222.373,-265.184 226.427,-252 240.304,-206.874 235.869,-151.208 231.246,-118.555"/>
<polygon fill="black" stroke="black" points="234.666,-117.769 229.697,-108.412 227.747,-118.826 234.666,-117.769"/>
<g id="a_edge6&#45;headlabel"><a xlink:href="dir_000094_000067.html" target="_top" xlink:title="3">
<text text-anchor="middle" x="238.016" y="-118.394" font-family="Helvetica,sans-Serif" font-size="10.00">3</text>
</a>
</g>
</g>
<!-- dir_a336bf94aab96007822cb34c9e2cb8a5&#45;&gt;dir_85bf31a2e8d306e7598ffcb73f8df6bf -->
<g id="edge7" class="edge"><title>dir_a336bf94aab96007822cb34c9e2cb8a5&#45;&gt;dir_85bf31a2e8d306e7598ffcb73f8df6bf</title>
<path fill="none" stroke="black" d="M160.12,-290.666C136.574,-279.529 103.832,-264.043 78.8589,-252.231"/>
<polygon fill="black" stroke="black" points="80.2399,-249.013 69.7035,-247.901 77.2469,-255.341 80.2399,-249.013"/>
<g id="a_edge7&#45;headlabel"><a xlink:href="dir_000094_000131.html" target="_top" xlink:title="5">
<text text-anchor="middle" x="84.7033" y="-245.483" font-family="Helvetica,sans-Serif" font-size="10.00">5</text>
</a>
</g>
</g>
<!-- dir_a336bf94aab96007822cb34c9e2cb8a5&#45;&gt;dir_2171f7ec022c5423887b07c69b2f5b48 -->
<g id="edge9" class="edge"><title>dir_a336bf94aab96007822cb34c9e2cb8a5&#45;&gt;dir_2171f7ec022c5423887b07c69b2f5b48</title>
<path fill="none" stroke="black" d="M179.259,-287.657C164.9,-265.995 138.568,-228.337 111.427,-200 107.02,-195.398 102.056,-190.821 97.0776,-186.534"/>
<polygon fill="black" stroke="black" points="99.2436,-183.783 89.3186,-180.076 94.7653,-189.163 99.2436,-183.783"/>
<g id="a_edge9&#45;headlabel"><a xlink:href="dir_000094_000038.html" target="_top" xlink:title="1">
<text text-anchor="middle" x="103.823" y="-181.4" font-family="Helvetica,sans-Serif" font-size="10.00">1</text>
</a>
</g>
</g>
<!-- dir_37c90836491b695b472bf98d1be8336b&#45;&gt;dir_4ab6b4cc6a7edbff49100e9123df213f -->
<g id="edge10" class="edge"><title>dir_37c90836491b695b472bf98d1be8336b&#45;&gt;dir_4ab6b4cc6a7edbff49100e9123df213f</title>
<path fill="none" stroke="black" d="M226.427,-71.6966C226.427,-63.9827 226.427,-54.7125 226.427,-46.1124"/>
<polygon fill="black" stroke="black" points="229.927,-46.1043 226.427,-36.1043 222.927,-46.1044 229.927,-46.1043"/>
<g id="a_edge10&#45;headlabel"><a xlink:href="dir_000067_000016.html" target="_top" xlink:title="5">
<text text-anchor="middle" x="232.767" y="-47.199" font-family="Helvetica,sans-Serif" font-size="10.00">5</text>
</a>
</g>
</g>
<!-- dir_85bf31a2e8d306e7598ffcb73f8df6bf&#45;&gt;dir_4ab6b4cc6a7edbff49100e9123df213f -->
<g id="edge11" class="edge"><title>dir_85bf31a2e8d306e7598ffcb73f8df6bf&#45;&gt;dir_4ab6b4cc6a7edbff49100e9123df213f</title>
<path fill="none" stroke="black" d="M31.4686,-215.847C21.1509,-197.349 8.87224,-167.406 20.4274,-144 53.1715,-77.6737 138.958,-43.3374 188.893,-28.442"/>
<polygon fill="black" stroke="black" points="190.027,-31.758 198.674,-25.6362 188.097,-25.0294 190.027,-31.758"/>
<g id="a_edge11&#45;headlabel"><a xlink:href="dir_000131_000016.html" target="_top" xlink:title="2">
<text text-anchor="middle" x="187.355" y="-32.9783" font-family="Helvetica,sans-Serif" font-size="10.00">2</text>
</a>
</g>
</g>
<!-- dir_85bf31a2e8d306e7598ffcb73f8df6bf&#45;&gt;dir_37c90836491b695b472bf98d1be8336b -->
<g id="edge12" class="edge"><title>dir_85bf31a2e8d306e7598ffcb73f8df6bf&#45;&gt;dir_37c90836491b695b472bf98d1be8336b</title>
<path fill="none" stroke="black" d="M64.6902,-215.8C71.3428,-210.691 78.665,-205.099 85.4274,-200 97.3513,-191.009 100.541,-189.04 112.427,-180 141.263,-158.07 173.806,-132.589 196.719,-114.526"/>
<polygon fill="black" stroke="black" points="199.019,-117.17 204.7,-108.227 194.682,-111.675 199.019,-117.17"/>
<g id="a_edge12&#45;headlabel"><a xlink:href="dir_000131_000067.html" target="_top" xlink:title="2">
<text text-anchor="middle" x="197.956" y="-119.125" font-family="Helvetica,sans-Serif" font-size="10.00">2</text>
</a>
</g>
</g>
<!-- dir_85bf31a2e8d306e7598ffcb73f8df6bf&#45;&gt;dir_2171f7ec022c5423887b07c69b2f5b48 -->
<g id="edge13" class="edge"><title>dir_85bf31a2e8d306e7598ffcb73f8df6bf&#45;&gt;dir_2171f7ec022c5423887b07c69b2f5b48</title>
<path fill="none" stroke="black" d="M48.36,-215.697C51.0338,-207.898 54.253,-198.509 57.2288,-189.829"/>
<polygon fill="black" stroke="black" points="60.6306,-190.699 60.5631,-180.104 54.0089,-188.429 60.6306,-190.699"/>
<g id="a_edge13&#45;headlabel"><a xlink:href="dir_000131_000038.html" target="_top" xlink:title="8">
<text text-anchor="middle" x="62.1506" y="-192.52" font-family="Helvetica,sans-Serif" font-size="10.00">8</text>
</a>
</g>
</g>
<!-- dir_f01815b857f9009bea48e2cb39492245&#45;&gt;dir_4ab6b4cc6a7edbff49100e9123df213f -->
<g id="edge17" class="edge"><title>dir_f01815b857f9009bea48e2cb39492245&#45;&gt;dir_4ab6b4cc6a7edbff49100e9123df213f</title>
<path fill="none" stroke="black" d="M362.82,-143.66C347.783,-125.002 322.379,-94.9231 297.427,-72 285.923,-61.4309 272.372,-50.9061 260.209,-42.0539"/>
<polygon fill="black" stroke="black" points="262.22,-39.1895 252.052,-36.2127 258.145,-44.8807 262.22,-39.1895"/>
<g id="a_edge17&#45;headlabel"><a xlink:href="dir_000187_000016.html" target="_top" xlink:title="1">
<text text-anchor="middle" x="266.796" y="-36.4739" font-family="Helvetica,sans-Serif" font-size="10.00">1</text>
</a>
</g>
</g>
<!-- dir_f01815b857f9009bea48e2cb39492245&#45;&gt;dir_37c90836491b695b472bf98d1be8336b -->
<g id="edge18" class="edge"><title>dir_f01815b857f9009bea48e2cb39492245&#45;&gt;dir_37c90836491b695b472bf98d1be8336b</title>
<path fill="none" stroke="black" d="M349.264,-148.324C325.127,-137.06 289.646,-120.502 263.016,-108.075"/>
<polygon fill="black" stroke="black" points="264.184,-104.758 253.642,-103.7 261.224,-111.101 264.184,-104.758"/>
<g id="a_edge18&#45;headlabel"><a xlink:href="dir_000187_000067.html" target="_top" xlink:title="7">
<text text-anchor="middle" x="268.642" y="-101.205" font-family="Helvetica,sans-Serif" font-size="10.00">7</text>
</a>
</g>
</g>
<!-- dir_2171f7ec022c5423887b07c69b2f5b48&#45;&gt;dir_4ab6b4cc6a7edbff49100e9123df213f -->
<g id="edge26" class="edge"><title>dir_2171f7ec022c5423887b07c69b2f5b48&#45;&gt;dir_4ab6b4cc6a7edbff49100e9123df213f</title>
<path fill="none" stroke="black" d="M82.1493,-143.864C99.4241,-125.38 128.328,-95.4496 155.427,-72 167.43,-61.614 181.292,-50.9898 193.564,-42.0068"/>
<polygon fill="black" stroke="black" points="195.715,-44.771 201.764,-36.0731 191.611,-39.1 195.715,-44.771"/>
<g id="a_edge26&#45;headlabel"><a xlink:href="dir_000038_000016.html" target="_top" xlink:title="4">
<text text-anchor="middle" x="194.467" y="-46.6784" font-family="Helvetica,sans-Serif" font-size="10.00">4</text>
</a>
</g>
</g>
<!-- dir_2171f7ec022c5423887b07c69b2f5b48&#45;&gt;dir_37c90836491b695b472bf98d1be8336b -->
<g id="edge27" class="edge"><title>dir_2171f7ec022c5423887b07c69b2f5b48&#45;&gt;dir_37c90836491b695b472bf98d1be8336b</title>
<path fill="none" stroke="black" d="M103.537,-144.765C129.404,-133.448 163.765,-118.415 189.575,-107.123"/>
<polygon fill="black" stroke="black" points="191.255,-110.208 199.013,-102.994 188.449,-103.795 191.255,-110.208"/>
<g id="a_edge27&#45;headlabel"><a xlink:href="dir_000038_000067.html" target="_top" xlink:title="6">
<text text-anchor="middle" x="189.099" y="-111.75" font-family="Helvetica,sans-Serif" font-size="10.00">6</text>
</a>
</g>
</g>
</g>
</svg>
