<?xml version="1.0" encoding="UTF-8" standalone="no"?>
<!DOCTYPE svg PUBLIC "-//W3C//DTD SVG 1.1//EN"
 "http://www.w3.org/Graphics/SVG/1.1/DTD/svg11.dtd">
<!-- Generated by graphviz version 2.36.0 (20140111.2315)
 -->
<!-- Title: /home/travis/build/AliceO2Group/AliceO2/DataFormats Pages: 1 -->
<svg width="504pt" height="204pt"
 viewBox="0.00 0.00 503.68 204.00" xmlns="http://www.w3.org/2000/svg" xmlns:xlink="http://www.w3.org/1999/xlink">
<g id="graph0" class="graph" transform="scale(1 1) rotate(0) translate(4 200)">
<title>/home/travis/build/AliceO2Group/AliceO2/DataFormats</title>
<g id="clust1" class="cluster"><title>clusterdir_2171f7ec022c5423887b07c69b2f5b48</title>
<g id="a_clust1"><a xlink:href="dir_2171f7ec022c5423887b07c69b2f5b48.html" target="_top">
<polygon fill="#eeeeff" stroke="black" points="8,-64 8,-188 412,-188 412,-64 8,-64"/>
</a>
</g>
</g>
<!-- dir_2171f7ec022c5423887b07c69b2f5b48 -->
<g id="node1" class="node"><title>dir_2171f7ec022c5423887b07c69b2f5b48</title>
<text text-anchor="middle" x="367" y="-159.5" font-family="Helvetica,sans-Serif" font-size="10.00">DataFormats</text>
</g>
<!-- dir_183e7c4434404fe9096e1bd8673e1fcf -->
<g id="node2" class="node"><title>dir_183e7c4434404fe9096e1bd8673e1fcf</title>
<g id="a_node2"><a xlink:href="dir_183e7c4434404fe9096e1bd8673e1fcf.html" target="_top" xlink:title="Headers">
<polygon fill="white" stroke="red" points="76,-108 22,-108 22,-72 76,-72 76,-108"/>
<text text-anchor="middle" x="49" y="-87.5" font-family="Helvetica,sans-Serif" font-size="10.00">Headers</text>
</a>
</g>
</g>
<!-- dir_dfa95816b29f32ea9733fcc47ad2b363 -->
<g id="node3" class="node"><title>dir_dfa95816b29f32ea9733fcc47ad2b363</title>
<g id="a_node3"><a xlink:href="dir_dfa95816b29f32ea9733fcc47ad2b363.html" target="_top" xlink:title="Legacy">
<polygon fill="white" stroke="red" points="312,-180 258,-180 258,-144 312,-144 312,-180"/>
<text text-anchor="middle" x="285" y="-159.5" font-family="Helvetica,sans-Serif" font-size="10.00">Legacy</text>
</a>
</g>
</g>
<!-- dir_d462256f2f72f303235b8fb5b5a9f479 -->
<g id="node4" class="node"><title>dir_d462256f2f72f303235b8fb5b5a9f479</title>
<g id="a_node4"><a xlink:href="dir_d462256f2f72f303235b8fb5b5a9f479.html" target="_top" xlink:title="Parameters">
<polygon fill="white" stroke="red" points="239.25,-180 172.75,-180 172.75,-144 239.25,-144 239.25,-180"/>
<text text-anchor="middle" x="206" y="-159.5" font-family="Helvetica,sans-Serif" font-size="10.00">Parameters</text>
</a>
</g>
</g>
<!-- dir_4ab6b4cc6a7edbff49100e9123df213f -->
<g id="node8" class="node"><title>dir_4ab6b4cc6a7edbff49100e9123df213f</title>
<g id="a_node8"><a xlink:href="dir_4ab6b4cc6a7edbff49100e9123df213f.html" target="_top" xlink:title="Common">
<polygon fill="none" stroke="red" points="477.5,-36 422.5,-36 422.5,-0 477.5,-0 477.5,-36"/>
<text text-anchor="middle" x="450" y="-15.5" font-family="Helvetica,sans-Serif" font-size="10.00">Common</text>
</a>
</g>
</g>
<!-- dir_d462256f2f72f303235b8fb5b5a9f479&#45;&gt;dir_4ab6b4cc6a7edbff49100e9123df213f -->
<g id="edge6" class="edge"><title>dir_d462256f2f72f303235b8fb5b5a9f479&#45;&gt;dir_4ab6b4cc6a7edbff49100e9123df213f</title>
<path fill="none" stroke="black" d="M239.557,-146.898C242.718,-145.824 245.899,-144.835 249,-144 300.863,-130.037 452.964,-148.709 488,-108 500.757,-93.1781 494.717,-82.3657 488,-64 485.392,-56.8696 481.1,-50.0899 476.321,-44.0572"/>
<polygon fill="black" stroke="black" points="478.812,-41.588 469.613,-36.3312 473.526,-46.177 478.812,-41.588"/>
<g id="a_edge6&#45;headlabel"><a xlink:href="dir_000048_000016.html" target="_top" xlink:title="3">
<text text-anchor="middle" x="483.313" y="-39.941" font-family="Helvetica,sans-Serif" font-size="10.00">3</text>
</a>
</g>
</g>
<!-- dir_051dca18e802f8e9474f2e30d29c04e0 -->
<g id="node9" class="node"><title>dir_051dca18e802f8e9474f2e30d29c04e0</title>
<g id="a_node9"><a xlink:href="dir_051dca18e802f8e9474f2e30d29c04e0.html" target="_top" xlink:title="Detectors">
<polygon fill="none" stroke="red" points="479.25,-108 420.75,-108 420.75,-72 479.25,-72 479.25,-108"/>
<text text-anchor="middle" x="450" y="-87.5" font-family="Helvetica,sans-Serif" font-size="10.00">Detectors</text>
</a>
</g>
</g>
<!-- dir_d462256f2f72f303235b8fb5b5a9f479&#45;&gt;dir_051dca18e802f8e9474f2e30d29c04e0 -->
<g id="edge7" class="edge"><title>dir_d462256f2f72f303235b8fb5b5a9f479&#45;&gt;dir_051dca18e802f8e9474f2e30d29c04e0</title>
<path fill="none" stroke="black" d="M239.616,-147.105C242.765,-145.987 245.927,-144.932 249,-144 318.538,-122.915 342.325,-132.275 410.993,-109.547"/>
<polygon fill="black" stroke="black" points="412.194,-112.835 420.522,-106.286 409.928,-106.212 412.194,-112.835"/>
<g id="a_edge7&#45;headlabel"><a xlink:href="dir_000048_000066.html" target="_top" xlink:title="1">
<text text-anchor="middle" x="409.712" y="-114.185" font-family="Helvetica,sans-Serif" font-size="10.00">1</text>
</a>
</g>
</g>
<!-- dir_047746f9f311f49446db9474b7431d0d -->
<g id="node5" class="node"><title>dir_047746f9f311f49446db9474b7431d0d</title>
<g id="a_node5"><a xlink:href="dir_047746f9f311f49446db9474b7431d0d.html" target="_top" xlink:title="simulation">
<polygon fill="white" stroke="red" points="279.25,-108 218.75,-108 218.75,-72 279.25,-72 279.25,-108"/>
<text text-anchor="middle" x="249" y="-87.5" font-family="Helvetica,sans-Serif" font-size="10.00">simulation</text>
</a>
</g>
</g>
<!-- dir_047746f9f311f49446db9474b7431d0d&#45;&gt;dir_4ab6b4cc6a7edbff49100e9123df213f -->
<g id="edge4" class="edge"><title>dir_047746f9f311f49446db9474b7431d0d&#45;&gt;dir_4ab6b4cc6a7edbff49100e9123df213f</title>
<path fill="none" stroke="black" d="M279.528,-78.3685C315.216,-65.9398 374.274,-45.3724 412.66,-32.004"/>
<polygon fill="black" stroke="black" points="414.131,-35.1978 422.424,-28.6036 411.829,-28.5872 414.131,-35.1978"/>
<g id="a_edge4&#45;headlabel"><a xlink:href="dir_000052_000016.html" target="_top" xlink:title="1">
<text text-anchor="middle" x="411.671" y="-36.5613" font-family="Helvetica,sans-Serif" font-size="10.00">1</text>
</a>
</g>
</g>
<!-- dir_047746f9f311f49446db9474b7431d0d&#45;&gt;dir_051dca18e802f8e9474f2e30d29c04e0 -->
<g id="edge5" class="edge"><title>dir_047746f9f311f49446db9474b7431d0d&#45;&gt;dir_051dca18e802f8e9474f2e30d29c04e0</title>
<path fill="none" stroke="black" d="M279.621,-90C323.254,-90 366.887,-90 410.52,-90"/>
<polygon fill="black" stroke="black" points="410.716,-93.5001 420.716,-90 410.716,-86.5001 410.716,-93.5001"/>
<g id="a_edge5&#45;headlabel"><a xlink:href="dir_000052_000066.html" target="_top" xlink:title="5">
<text text-anchor="middle" x="407.122" y="-93.8393" font-family="Helvetica,sans-Serif" font-size="10.00">5</text>
</a>
</g>
</g>
<!-- dir_938f0f489a9afdd9521c88acbea7d897 -->
<g id="node6" class="node"><title>dir_938f0f489a9afdd9521c88acbea7d897</title>
<g id="a_node6"><a xlink:href="dir_938f0f489a9afdd9521c88acbea7d897.html" target="_top" xlink:title="TimeFrame">
<polygon fill="white" stroke="red" points="82,-180 16,-180 16,-144 82,-144 82,-180"/>
<text text-anchor="middle" x="49" y="-159.5" font-family="Helvetica,sans-Serif" font-size="10.00">TimeFrame</text>
</a>
</g>
</g>
<!-- dir_938f0f489a9afdd9521c88acbea7d897&#45;&gt;dir_183e7c4434404fe9096e1bd8673e1fcf -->
<g id="edge10" class="edge"><title>dir_938f0f489a9afdd9521c88acbea7d897&#45;&gt;dir_183e7c4434404fe9096e1bd8673e1fcf</title>
<path fill="none" stroke="black" d="M49,-143.697C49,-135.983 49,-126.712 49,-118.112"/>
<polygon fill="black" stroke="black" points="52.5001,-118.104 49,-108.104 45.5001,-118.104 52.5001,-118.104"/>
<g id="a_edge10&#45;headlabel"><a xlink:href="dir_000057_000039.html" target="_top" xlink:title="2">
<text text-anchor="middle" x="55.3393" y="-119.199" font-family="Helvetica,sans-Serif" font-size="10.00">2</text>
</a>
</g>
</g>
<!-- dir_ca8d7a97db1fcc83aa37982b02bd5e83 -->
<g id="node7" class="node"><title>dir_ca8d7a97db1fcc83aa37982b02bd5e83</title>
<g id="a_node7"><a xlink:href="dir_ca8d7a97db1fcc83aa37982b02bd5e83.html" target="_top" xlink:title="TPC">
<polygon fill="white" stroke="red" points="154,-180 100,-180 100,-144 154,-144 154,-180"/>
<text text-anchor="middle" x="127" y="-159.5" font-family="Helvetica,sans-Serif" font-size="10.00">TPC</text>
</a>
</g>
</g>
<!-- dir_ca8d7a97db1fcc83aa37982b02bd5e83&#45;&gt;dir_047746f9f311f49446db9474b7431d0d -->
<g id="edge9" class="edge"><title>dir_ca8d7a97db1fcc83aa37982b02bd5e83&#45;&gt;dir_047746f9f311f49446db9474b7431d0d</title>
<path fill="none" stroke="black" d="M154.076,-145.465C170.606,-135.98 192.008,-123.7 210.306,-113.201"/>
<polygon fill="black" stroke="black" points="212.072,-116.223 219.004,-108.211 208.589,-110.152 212.072,-116.223"/>
<g id="a_edge9&#45;headlabel"><a xlink:href="dir_000062_000052.html" target="_top" xlink:title="2">
<text text-anchor="middle" x="210.367" y="-117.975" font-family="Helvetica,sans-Serif" font-size="10.00">2</text>
</a>
</g>
</g>
<!-- dir_ca8d7a97db1fcc83aa37982b02bd5e83&#45;&gt;dir_051dca18e802f8e9474f2e30d29c04e0 -->
<g id="edge8" class="edge"><title>dir_ca8d7a97db1fcc83aa37982b02bd5e83&#45;&gt;dir_051dca18e802f8e9474f2e30d29c04e0</title>
<path fill="none" stroke="black" d="M154.319,-143.905C262.863,-111.445 298.686,-141.802 407,-108 408.378,-107.57 409.769,-107.089 411.166,-106.57"/>
<polygon fill="black" stroke="black" points="412.531,-109.793 420.404,-102.702 409.828,-103.335 412.531,-109.793"/>
<g id="a_edge8&#45;headlabel"><a xlink:href="dir_000062_000066.html" target="_top" xlink:title="2">
<text text-anchor="middle" x="410.312" y="-111.3" font-family="Helvetica,sans-Serif" font-size="10.00">2</text>
</a>
</g>
</g>
<!-- dir_051dca18e802f8e9474f2e30d29c04e0&#45;&gt;dir_047746f9f311f49446db9474b7431d0d -->
<g id="edge2" class="edge"><title>dir_051dca18e802f8e9474f2e30d29c04e0&#45;&gt;dir_047746f9f311f49446db9474b7431d0d</title>
<path fill="none" stroke="black" d="M420.716,-90C377.083,-90 333.45,-90 289.817,-90"/>
<polygon fill="black" stroke="black" points="289.621,-86.5001 279.621,-90 289.621,-93.5001 289.621,-86.5001"/>
<g id="a_edge2&#45;headlabel"><a xlink:href="dir_000066_000052.html" target="_top" xlink:title="65">
<text text-anchor="middle" x="293.216" y="-81.1607" font-family="Helvetica,sans-Serif" font-size="10.00">65</text>
</a>
</g>
</g>
<!-- dir_051dca18e802f8e9474f2e30d29c04e0&#45;&gt;dir_ca8d7a97db1fcc83aa37982b02bd5e83 -->
<g id="edge3" class="edge"><title>dir_051dca18e802f8e9474f2e30d29c04e0&#45;&gt;dir_ca8d7a97db1fcc83aa37982b02bd5e83</title>
<path fill="none" stroke="black" d="M424.683,-108.099C316.51,-141.776 280.687,-111.417 172,-144 169.269,-144.819 166.483,-145.815 163.694,-146.91"/>
<polygon fill="black" stroke="black" points="162.113,-143.779 154.27,-150.902 164.843,-150.225 162.113,-143.779"/>
<g id="a_edge3&#45;headlabel"><a xlink:href="dir_000066_000062.html" target="_top" xlink:title="14">
<text text-anchor="middle" x="164.316" y="-137.263" font-family="Helvetica,sans-Serif" font-size="10.00">14</text>
</a>
</g>
</g>
<!-- dir_051dca18e802f8e9474f2e30d29c04e0&#45;&gt;dir_4ab6b4cc6a7edbff49100e9123df213f -->
<g id="edge1" class="edge"><title>dir_051dca18e802f8e9474f2e30d29c04e0&#45;&gt;dir_4ab6b4cc6a7edbff49100e9123df213f</title>
<path fill="none" stroke="black" d="M450,-71.6966C450,-63.9827 450,-54.7125 450,-46.1124"/>
<polygon fill="black" stroke="black" points="453.5,-46.1043 450,-36.1043 446.5,-46.1044 453.5,-46.1043"/>
<g id="a_edge1&#45;headlabel"><a xlink:href="dir_000066_000016.html" target="_top" xlink:title="33">
<text text-anchor="middle" x="456.339" y="-47.199" font-family="Helvetica,sans-Serif" font-size="10.00">33</text>
</a>
</g>
</g>
</g>
</svg>
