<?xml version="1.0" encoding="UTF-8" standalone="no"?>
<!DOCTYPE svg PUBLIC "-//W3C//DTD SVG 1.1//EN"
 "http://www.w3.org/Graphics/SVG/1.1/DTD/svg11.dtd">
<!-- Generated by graphviz version 2.36.0 (20140111.2315)
 -->
<!-- Title: /home/travis/build/AliceO2Group/AliceO2/Detectors/ITSMFT/MFT/base/include Pages: 1 -->
<svg width="188pt" height="231pt"
 viewBox="0.00 0.00 188.00 231.00" xmlns="http://www.w3.org/2000/svg" xmlns:xlink="http://www.w3.org/1999/xlink">
<g id="graph0" class="graph" transform="scale(1 1) rotate(0) translate(4 227)">
<title>/home/travis/build/AliceO2Group/AliceO2/Detectors/ITSMFT/MFT/base/include</title>
<g id="clust1" class="cluster"><title>clusterdir_7e732ae97f4f941436b6909b27d4da36</title>
<g id="a_clust1"><a xlink:href="dir_7e732ae97f4f941436b6909b27d4da36.html" target="_top" xlink:title="base">
<polygon fill="#ddddee" stroke="black" points="8,-128 8,-215 172,-215 172,-128 8,-128"/>
<text text-anchor="middle" x="90" y="-203" font-family="Helvetica,sans-Serif" font-size="10.00">base</text>
</a>
</g>
</g>
<g id="clust2" class="cluster"><title>clusterdir_f22caf943fb99f64e502dc27cedd1b22</title>
<g id="a_clust2"><a xlink:href="dir_f22caf943fb99f64e502dc27cedd1b22.html" target="_top">
<polygon fill="#eeeeff" stroke="black" points="16,-136 16,-188 164,-188 164,-136 16,-136"/>
</a>
</g>
</g>
<!-- dir_f22caf943fb99f64e502dc27cedd1b22 -->
<g id="node1" class="node"><title>dir_f22caf943fb99f64e502dc27cedd1b22</title>
<text text-anchor="middle" x="129" y="-159.5" font-family="Helvetica,sans-Serif" font-size="10.00">include</text>
</g>
<!-- dir_f74068efc4603b01d0ea8bb1c8c2c67e -->
<g id="node2" class="node"><title>dir_f74068efc4603b01d0ea8bb1c8c2c67e</title>
<g id="a_node2"><a xlink:href="dir_f74068efc4603b01d0ea8bb1c8c2c67e.html" target="_top" xlink:title="MFTBase">
<polygon fill="white" stroke="black" points="83.25,-180 24.75,-180 24.75,-144 83.25,-144 83.25,-180"/>
<text text-anchor="middle" x="54" y="-159.5" font-family="Helvetica,sans-Serif" font-size="10.00">MFTBase</text>
</a>
</g>
</g>
<!-- dir_37c90836491b695b472bf98d1be8336b -->
<g id="node3" class="node"><title>dir_37c90836491b695b472bf98d1be8336b</title>
<g id="a_node3"><a xlink:href="dir_37c90836491b695b472bf98d1be8336b.html" target="_top" xlink:title="Base">
<polygon fill="none" stroke="red" points="81,-36 27,-36 27,-0 81,-0 81,-36"/>
<text text-anchor="middle" x="54" y="-15.5" font-family="Helvetica,sans-Serif" font-size="10.00">Base</text>
</a>
</g>
</g>
<!-- dir_f74068efc4603b01d0ea8bb1c8c2c67e&#45;&gt;dir_37c90836491b695b472bf98d1be8336b -->
<g id="edge2" class="edge"><title>dir_f74068efc4603b01d0ea8bb1c8c2c67e&#45;&gt;dir_37c90836491b695b472bf98d1be8336b</title>
<path fill="none" stroke="black" d="M50.7517,-143.888C48.9542,-133.542 46.9053,-120.063 46,-108 44.8026,-92.0449 44.8026,-87.9551 46,-72 46.6366,-63.5179 47.8384,-54.3361 49.1208,-46.0356"/>
<polygon fill="black" stroke="black" points="52.5836,-46.5472 50.7517,-36.1119 45.6763,-45.412 52.5836,-46.5472"/>
<g id="a_edge2&#45;headlabel"><a xlink:href="dir_000078_000067.html" target="_top" xlink:title="3">
<text text-anchor="middle" x="54.8024" y="-48.0546" font-family="Helvetica,sans-Serif" font-size="10.00">3</text>
</a>
</g>
</g>
<!-- dir_85bf31a2e8d306e7598ffcb73f8df6bf -->
<g id="node4" class="node"><title>dir_85bf31a2e8d306e7598ffcb73f8df6bf</title>
<g id="a_node4"><a xlink:href="dir_85bf31a2e8d306e7598ffcb73f8df6bf.html" target="_top" xlink:title="common">
<polygon fill="none" stroke="red" points="109,-108 55,-108 55,-72 109,-72 109,-108"/>
<text text-anchor="middle" x="82" y="-87.5" font-family="Helvetica,sans-Serif" font-size="10.00">common</text>
</a>
</g>
</g>
<!-- dir_f74068efc4603b01d0ea8bb1c8c2c67e&#45;&gt;dir_85bf31a2e8d306e7598ffcb73f8df6bf -->
<g id="edge3" class="edge"><title>dir_f74068efc4603b01d0ea8bb1c8c2c67e&#45;&gt;dir_85bf31a2e8d306e7598ffcb73f8df6bf</title>
<path fill="none" stroke="black" d="M60.9214,-143.697C64.0747,-135.813 67.8783,-126.304 71.3814,-117.546"/>
<polygon fill="black" stroke="black" points="74.694,-118.689 75.1583,-108.104 68.1946,-116.089 74.694,-118.689"/>
<g id="a_edge3&#45;headlabel"><a xlink:href="dir_000078_000131.html" target="_top" xlink:title="1">
<text text-anchor="middle" x="75.9952" y="-120.581" font-family="Helvetica,sans-Serif" font-size="10.00">1</text>
</a>
</g>
</g>
<!-- dir_85bf31a2e8d306e7598ffcb73f8df6bf&#45;&gt;dir_37c90836491b695b472bf98d1be8336b -->
<g id="edge1" class="edge"><title>dir_85bf31a2e8d306e7598ffcb73f8df6bf&#45;&gt;dir_37c90836491b695b472bf98d1be8336b</title>
<path fill="none" stroke="black" d="M75.0786,-71.6966C71.9253,-63.8132 68.1217,-54.3042 64.6186,-45.5464"/>
<polygon fill="black" stroke="black" points="67.8054,-44.0892 60.8417,-36.1043 61.306,-46.689 67.8054,-44.0892"/>
<g id="a_edge1&#45;headlabel"><a xlink:href="dir_000131_000067.html" target="_top" xlink:title="2">
<text text-anchor="middle" x="71.7765" y="-43.8723" font-family="Helvetica,sans-Serif" font-size="10.00">2</text>
</a>
</g>
</g>
</g>
</svg>
