<?xml version="1.0" encoding="UTF-8" standalone="no"?>
<!DOCTYPE svg PUBLIC "-//W3C//DTD SVG 1.1//EN"
 "http://www.w3.org/Graphics/SVG/1.1/DTD/svg11.dtd">
<!-- Generated by graphviz version 2.36.0 (20140111.2315)
 -->
<!-- Title: /home/travis/build/AliceO2Group/AliceO2/Detectors/ITSMFT/common/simulation/src Pages: 1 -->
<svg width="169pt" height="367pt"
 viewBox="0.00 0.00 168.87 367.00" xmlns="http://www.w3.org/2000/svg" xmlns:xlink="http://www.w3.org/1999/xlink">
<g id="graph0" class="graph" transform="scale(1 1) rotate(0) translate(4 363)">
<title>/home/travis/build/AliceO2Group/AliceO2/Detectors/ITSMFT/common/simulation/src</title>
<g id="clust1" class="cluster"><title>clusterdir_948e043a2a9c0d8c3d26178da976c005</title>
<g id="a_clust1"><a xlink:href="dir_948e043a2a9c0d8c3d26178da976c005.html" target="_top" xlink:title="simulation">
<polygon fill="#ddddee" stroke="black" points="58,-280 58,-351 128,-351 128,-280 58,-280"/>
<text text-anchor="middle" x="93" y="-339" font-family="Helvetica,sans-Serif" font-size="10.00">simulation</text>
</a>
</g>
</g>
<!-- dir_36f9785b6e7879c93ce113c7573e321a -->
<g id="node1" class="node"><title>dir_36f9785b6e7879c93ce113c7573e321a</title>
<g id="a_node1"><a xlink:href="dir_36f9785b6e7879c93ce113c7573e321a.html" target="_top" xlink:title="src">
<polygon fill="#eeeeff" stroke="black" points="120,-324 66,-324 66,-288 120,-288 120,-324"/>
<text text-anchor="middle" x="93" y="-303.5" font-family="Helvetica,sans-Serif" font-size="10.00">src</text>
</a>
</g>
</g>
<!-- dir_4ab6b4cc6a7edbff49100e9123df213f -->
<g id="node2" class="node"><title>dir_4ab6b4cc6a7edbff49100e9123df213f</title>
<g id="a_node2"><a xlink:href="dir_4ab6b4cc6a7edbff49100e9123df213f.html" target="_top" xlink:title="Common">
<polygon fill="none" stroke="red" points="55.5,-36 0.5,-36 0.5,-0 55.5,-0 55.5,-36"/>
<text text-anchor="middle" x="28" y="-15.5" font-family="Helvetica,sans-Serif" font-size="10.00">Common</text>
</a>
</g>
</g>
<!-- dir_36f9785b6e7879c93ce113c7573e321a&#45;&gt;dir_4ab6b4cc6a7edbff49100e9123df213f -->
<g id="edge1" class="edge"><title>dir_36f9785b6e7879c93ce113c7573e321a&#45;&gt;dir_4ab6b4cc6a7edbff49100e9123df213f</title>
<path fill="none" stroke="black" d="M65.7186,-289.828C52.3241,-280.763 37.4881,-267.906 30,-252 -2.14176,-183.725 11.4973,-91.2317 21.264,-46.0691"/>
<polygon fill="black" stroke="black" points="24.7136,-46.6832 23.5128,-36.1566 17.8871,-45.1345 24.7136,-46.6832"/>
<g id="a_edge1&#45;headlabel"><a xlink:href="dir_000150_000016.html" target="_top" xlink:title="1">
<text text-anchor="middle" x="26.6873" y="-48.3168" font-family="Helvetica,sans-Serif" font-size="10.00">1</text>
</a>
</g>
</g>
<!-- dir_aece0de4a924a7db153b75165d0988be -->
<g id="node3" class="node"><title>dir_aece0de4a924a7db153b75165d0988be</title>
<g id="a_node3"><a xlink:href="dir_aece0de4a924a7db153b75165d0988be.html" target="_top" xlink:title="include">
<polygon fill="none" stroke="red" points="93,-252 39,-252 39,-216 93,-216 93,-252"/>
<text text-anchor="middle" x="66" y="-231.5" font-family="Helvetica,sans-Serif" font-size="10.00">include</text>
</a>
</g>
</g>
<!-- dir_36f9785b6e7879c93ce113c7573e321a&#45;&gt;dir_aece0de4a924a7db153b75165d0988be -->
<g id="edge2" class="edge"><title>dir_36f9785b6e7879c93ce113c7573e321a&#45;&gt;dir_aece0de4a924a7db153b75165d0988be</title>
<path fill="none" stroke="black" d="M86.3258,-287.697C83.2851,-279.813 79.6173,-270.304 76.2393,-261.546"/>
<polygon fill="black" stroke="black" points="79.4617,-260.175 72.5974,-252.104 72.9307,-262.694 79.4617,-260.175"/>
<g id="a_edge2&#45;headlabel"><a xlink:href="dir_000150_000142.html" target="_top" xlink:title="16">
<text text-anchor="middle" x="83.4043" y="-260.007" font-family="Helvetica,sans-Serif" font-size="10.00">16</text>
</a>
</g>
</g>
<!-- dir_7c9998090bca7c4aa89c05dd66fe73f5 -->
<g id="node4" class="node"><title>dir_7c9998090bca7c4aa89c05dd66fe73f5</title>
<g id="a_node4"><a xlink:href="dir_7c9998090bca7c4aa89c05dd66fe73f5.html" target="_top" xlink:title="base">
<polygon fill="none" stroke="red" points="148,-180 94,-180 94,-144 148,-144 148,-180"/>
<text text-anchor="middle" x="121" y="-159.5" font-family="Helvetica,sans-Serif" font-size="10.00">base</text>
</a>
</g>
</g>
<!-- dir_36f9785b6e7879c93ce113c7573e321a&#45;&gt;dir_7c9998090bca7c4aa89c05dd66fe73f5 -->
<g id="edge3" class="edge"><title>dir_36f9785b6e7879c93ce113c7573e321a&#45;&gt;dir_7c9998090bca7c4aa89c05dd66fe73f5</title>
<path fill="none" stroke="black" d="M96.3775,-287.871C101.171,-263.564 109.993,-218.819 115.673,-190.013"/>
<polygon fill="black" stroke="black" points="119.11,-190.677 117.611,-180.189 112.242,-189.323 119.11,-190.677"/>
<g id="a_edge3&#45;headlabel"><a xlink:href="dir_000150_000132.html" target="_top" xlink:title="5">
<text text-anchor="middle" x="121.2" y="-192.253" font-family="Helvetica,sans-Serif" font-size="10.00">5</text>
</a>
</g>
</g>
<!-- dir_2171f7ec022c5423887b07c69b2f5b48 -->
<g id="node5" class="node"><title>dir_2171f7ec022c5423887b07c69b2f5b48</title>
<g id="a_node5"><a xlink:href="dir_2171f7ec022c5423887b07c69b2f5b48.html" target="_top" xlink:title="DataFormats">
<polygon fill="none" stroke="red" points="144,-108 70,-108 70,-72 144,-72 144,-108"/>
<text text-anchor="middle" x="107" y="-87.5" font-family="Helvetica,sans-Serif" font-size="10.00">DataFormats</text>
</a>
</g>
</g>
<!-- dir_36f9785b6e7879c93ce113c7573e321a&#45;&gt;dir_2171f7ec022c5423887b07c69b2f5b48 -->
<g id="edge4" class="edge"><title>dir_36f9785b6e7879c93ce113c7573e321a&#45;&gt;dir_2171f7ec022c5423887b07c69b2f5b48</title>
<path fill="none" stroke="black" d="M105.223,-287.848C120.89,-264.69 147.197,-221.524 157,-180 160.676,-164.428 162.907,-158.87 157,-144 152.709,-133.199 145.058,-123.324 137.012,-115.102"/>
<polygon fill="black" stroke="black" points="139.25,-112.401 129.596,-108.037 134.422,-117.469 139.25,-112.401"/>
<g id="a_edge4&#45;headlabel"><a xlink:href="dir_000150_000038.html" target="_top" xlink:title="1">
<text text-anchor="middle" x="143.811" y="-110.325" font-family="Helvetica,sans-Serif" font-size="10.00">1</text>
</a>
</g>
</g>
<!-- dir_aece0de4a924a7db153b75165d0988be&#45;&gt;dir_4ab6b4cc6a7edbff49100e9123df213f -->
<g id="edge5" class="edge"><title>dir_aece0de4a924a7db153b75165d0988be&#45;&gt;dir_4ab6b4cc6a7edbff49100e9123df213f</title>
<path fill="none" stroke="black" d="M62.9545,-215.849C56.3674,-178.753 40.7513,-90.8101 32.8126,-46.1027"/>
<polygon fill="black" stroke="black" points="36.2545,-45.4665 31.06,-36.2325 29.3623,-46.6904 36.2545,-45.4665"/>
<g id="a_edge5&#45;headlabel"><a xlink:href="dir_000142_000016.html" target="_top" xlink:title="1">
<text text-anchor="middle" x="39.6784" y="-46.0094" font-family="Helvetica,sans-Serif" font-size="10.00">1</text>
</a>
</g>
</g>
<!-- dir_aece0de4a924a7db153b75165d0988be&#45;&gt;dir_7c9998090bca7c4aa89c05dd66fe73f5 -->
<g id="edge6" class="edge"><title>dir_aece0de4a924a7db153b75165d0988be&#45;&gt;dir_7c9998090bca7c4aa89c05dd66fe73f5</title>
<path fill="none" stroke="black" d="M79.5955,-215.697C86.1227,-207.389 94.068,-197.277 101.247,-188.141"/>
<polygon fill="black" stroke="black" points="104.135,-190.13 107.561,-180.104 98.6305,-185.805 104.135,-190.13"/>
<g id="a_edge6&#45;headlabel"><a xlink:href="dir_000142_000132.html" target="_top" xlink:title="2">
<text text-anchor="middle" x="104.147" y="-192.211" font-family="Helvetica,sans-Serif" font-size="10.00">2</text>
</a>
</g>
</g>
<!-- dir_aece0de4a924a7db153b75165d0988be&#45;&gt;dir_2171f7ec022c5423887b07c69b2f5b48 -->
<g id="edge7" class="edge"><title>dir_aece0de4a924a7db153b75165d0988be&#45;&gt;dir_2171f7ec022c5423887b07c69b2f5b48</title>
<path fill="none" stroke="black" d="M68.7257,-215.698C71.8028,-197.587 77.3899,-168.438 85,-144 87.7252,-135.249 91.3329,-125.943 94.8369,-117.611"/>
<polygon fill="black" stroke="black" points="98.0772,-118.935 98.8436,-108.368 91.6548,-116.151 98.0772,-118.935"/>
<g id="a_edge7&#45;headlabel"><a xlink:href="dir_000142_000038.html" target="_top" xlink:title="3">
<text text-anchor="middle" x="99.2525" y="-120.863" font-family="Helvetica,sans-Serif" font-size="10.00">3</text>
</a>
</g>
</g>
<!-- dir_7c9998090bca7c4aa89c05dd66fe73f5&#45;&gt;dir_2171f7ec022c5423887b07c69b2f5b48 -->
<g id="edge8" class="edge"><title>dir_7c9998090bca7c4aa89c05dd66fe73f5&#45;&gt;dir_2171f7ec022c5423887b07c69b2f5b48</title>
<path fill="none" stroke="black" d="M117.539,-143.697C115.997,-135.983 114.142,-126.712 112.422,-118.112"/>
<polygon fill="black" stroke="black" points="115.814,-117.224 110.421,-108.104 108.95,-118.597 115.814,-117.224"/>
<g id="a_edge8&#45;headlabel"><a xlink:href="dir_000132_000038.html" target="_top" xlink:title="1">
<text text-anchor="middle" x="119.303" y="-117.692" font-family="Helvetica,sans-Serif" font-size="10.00">1</text>
</a>
</g>
</g>
<!-- dir_2171f7ec022c5423887b07c69b2f5b48&#45;&gt;dir_4ab6b4cc6a7edbff49100e9123df213f -->
<g id="edge9" class="edge"><title>dir_2171f7ec022c5423887b07c69b2f5b48&#45;&gt;dir_4ab6b4cc6a7edbff49100e9123df213f</title>
<path fill="none" stroke="black" d="M87.4719,-71.6966C77.6182,-62.9655 65.5143,-52.2405 54.8039,-42.7503"/>
<polygon fill="black" stroke="black" points="57.1092,-40.1166 47.3035,-36.1043 52.4669,-45.3558 57.1092,-40.1166"/>
<g id="a_edge9&#45;headlabel"><a xlink:href="dir_000038_000016.html" target="_top" xlink:title="4">
<text text-anchor="middle" x="61.6825" y="-37.8755" font-family="Helvetica,sans-Serif" font-size="10.00">4</text>
</a>
</g>
</g>
</g>
</svg>
