<?xml version="1.0" encoding="UTF-8" standalone="no"?>
<!DOCTYPE svg PUBLIC "-//W3C//DTD SVG 1.1//EN"
 "http://www.w3.org/Graphics/SVG/1.1/DTD/svg11.dtd">
<!-- Generated by graphviz version 2.36.0 (20140111.2315)
 -->
<!-- Title: /home/travis/build/AliceO2Group/AliceO2/Detectors/TPC/simulation/src Pages: 1 -->
<svg width="164pt" height="367pt"
 viewBox="0.00 0.00 164.00 367.00" xmlns="http://www.w3.org/2000/svg" xmlns:xlink="http://www.w3.org/1999/xlink">
<g id="graph0" class="graph" transform="scale(1 1) rotate(0) translate(4 363)">
<title>/home/travis/build/AliceO2Group/AliceO2/Detectors/TPC/simulation/src</title>
<g id="clust1" class="cluster"><title>clusterdir_7f309bec8670bb3fb666e7e061b24659</title>
<g id="a_clust1"><a xlink:href="dir_7f309bec8670bb3fb666e7e061b24659.html" target="_top" xlink:title="simulation">
<polygon fill="#ddddee" stroke="black" points="8,-280 8,-351 78,-351 78,-280 8,-280"/>
<text text-anchor="middle" x="43" y="-339" font-family="Helvetica,sans-Serif" font-size="10.00">simulation</text>
</a>
</g>
</g>
<!-- dir_72815adbd439f00f784a5a4eca496fde -->
<g id="node1" class="node"><title>dir_72815adbd439f00f784a5a4eca496fde</title>
<g id="a_node1"><a xlink:href="dir_72815adbd439f00f784a5a4eca496fde.html" target="_top" xlink:title="src">
<polygon fill="#eeeeff" stroke="black" points="70,-324 16,-324 16,-288 70,-288 70,-324"/>
<text text-anchor="middle" x="43" y="-303.5" font-family="Helvetica,sans-Serif" font-size="10.00">src</text>
</a>
</g>
</g>
<!-- dir_677b030cc750909e4cd27413873678d8 -->
<g id="node2" class="node"><title>dir_677b030cc750909e4cd27413873678d8</title>
<g id="a_node2"><a xlink:href="dir_677b030cc750909e4cd27413873678d8.html" target="_top" xlink:title="base">
<polygon fill="none" stroke="red" points="81,-108 27,-108 27,-72 81,-72 81,-108"/>
<text text-anchor="middle" x="54" y="-87.5" font-family="Helvetica,sans-Serif" font-size="10.00">base</text>
</a>
</g>
</g>
<!-- dir_72815adbd439f00f784a5a4eca496fde&#45;&gt;dir_677b030cc750909e4cd27413873678d8 -->
<g id="edge1" class="edge"><title>dir_72815adbd439f00f784a5a4eca496fde&#45;&gt;dir_677b030cc750909e4cd27413873678d8</title>
<path fill="none" stroke="black" d="M39.7517,-287.888C37.9542,-277.542 35.9053,-264.063 35,-252 31.4613,-204.846 40.7507,-150.241 47.5547,-118.275"/>
<polygon fill="black" stroke="black" points="51.0087,-118.864 49.7448,-108.345 44.173,-117.357 51.0087,-118.864"/>
<g id="a_edge1&#45;headlabel"><a xlink:href="dir_000126_000080.html" target="_top" xlink:title="16">
<text text-anchor="middle" x="53.0072" y="-120.486" font-family="Helvetica,sans-Serif" font-size="10.00">16</text>
</a>
</g>
</g>
<!-- dir_4ab6b4cc6a7edbff49100e9123df213f -->
<g id="node3" class="node"><title>dir_4ab6b4cc6a7edbff49100e9123df213f</title>
<g id="a_node3"><a xlink:href="dir_4ab6b4cc6a7edbff49100e9123df213f.html" target="_top" xlink:title="Common">
<polygon fill="none" stroke="red" points="81.5,-36 26.5,-36 26.5,-0 81.5,-0 81.5,-36"/>
<text text-anchor="middle" x="54" y="-15.5" font-family="Helvetica,sans-Serif" font-size="10.00">Common</text>
</a>
</g>
</g>
<!-- dir_72815adbd439f00f784a5a4eca496fde&#45;&gt;dir_4ab6b4cc6a7edbff49100e9123df213f -->
<g id="edge2" class="edge"><title>dir_72815adbd439f00f784a5a4eca496fde&#45;&gt;dir_4ab6b4cc6a7edbff49100e9123df213f</title>
<path fill="none" stroke="black" d="M36.6038,-287.888C22.9395,-248.73 -5.97559,-149.967 18,-72 21.0089,-62.2153 26.507,-52.6161 32.3157,-44.3336"/>
<polygon fill="black" stroke="black" points="35.1948,-46.3279 38.3901,-36.2264 29.5928,-42.1306 35.1948,-46.3279"/>
<g id="a_edge2&#45;headlabel"><a xlink:href="dir_000126_000016.html" target="_top" xlink:title="1">
<text text-anchor="middle" x="35.3117" y="-48.4071" font-family="Helvetica,sans-Serif" font-size="10.00">1</text>
</a>
</g>
</g>
<!-- dir_a3959ed40b1558172144f5e1a56e443f -->
<g id="node4" class="node"><title>dir_a3959ed40b1558172144f5e1a56e443f</title>
<g id="a_node4"><a xlink:href="dir_a3959ed40b1558172144f5e1a56e443f.html" target="_top" xlink:title="include">
<polygon fill="none" stroke="red" points="98,-252 44,-252 44,-216 98,-216 98,-252"/>
<text text-anchor="middle" x="71" y="-231.5" font-family="Helvetica,sans-Serif" font-size="10.00">include</text>
</a>
</g>
</g>
<!-- dir_72815adbd439f00f784a5a4eca496fde&#45;&gt;dir_a3959ed40b1558172144f5e1a56e443f -->
<g id="edge3" class="edge"><title>dir_72815adbd439f00f784a5a4eca496fde&#45;&gt;dir_a3959ed40b1558172144f5e1a56e443f</title>
<path fill="none" stroke="black" d="M49.9214,-287.697C53.0747,-279.813 56.8783,-270.304 60.3814,-261.546"/>
<polygon fill="black" stroke="black" points="63.694,-262.689 64.1583,-252.104 57.1946,-260.089 63.694,-262.689"/>
<g id="a_edge3&#45;headlabel"><a xlink:href="dir_000126_000106.html" target="_top" xlink:title="32">
<text text-anchor="middle" x="64.9952" y="-264.581" font-family="Helvetica,sans-Serif" font-size="10.00">32</text>
</a>
</g>
</g>
<!-- dir_2171f7ec022c5423887b07c69b2f5b48 -->
<g id="node5" class="node"><title>dir_2171f7ec022c5423887b07c69b2f5b48</title>
<g id="a_node5"><a xlink:href="dir_2171f7ec022c5423887b07c69b2f5b48.html" target="_top" xlink:title="DataFormats">
<polygon fill="none" stroke="red" points="156,-180 82,-180 82,-144 156,-144 156,-180"/>
<text text-anchor="middle" x="119" y="-159.5" font-family="Helvetica,sans-Serif" font-size="10.00">DataFormats</text>
</a>
</g>
</g>
<!-- dir_72815adbd439f00f784a5a4eca496fde&#45;&gt;dir_2171f7ec022c5423887b07c69b2f5b48 -->
<g id="edge4" class="edge"><title>dir_72815adbd439f00f784a5a4eca496fde&#45;&gt;dir_2171f7ec022c5423887b07c69b2f5b48</title>
<path fill="none" stroke="black" d="M70.2292,-289.288C83.5251,-280.148 98.4605,-267.39 107,-252 117.434,-233.196 120.108,-208.819 120.355,-190.332"/>
<polygon fill="black" stroke="black" points="123.854,-190.182 120.261,-180.215 116.854,-190.248 123.854,-190.182"/>
<g id="a_edge4&#45;headlabel"><a xlink:href="dir_000126_000038.html" target="_top" xlink:title="1">
<text text-anchor="middle" x="126.727" y="-191.25" font-family="Helvetica,sans-Serif" font-size="10.00">1</text>
</a>
</g>
</g>
<!-- dir_677b030cc750909e4cd27413873678d8&#45;&gt;dir_4ab6b4cc6a7edbff49100e9123df213f -->
<g id="edge5" class="edge"><title>dir_677b030cc750909e4cd27413873678d8&#45;&gt;dir_4ab6b4cc6a7edbff49100e9123df213f</title>
<path fill="none" stroke="black" d="M54,-71.6966C54,-63.9827 54,-54.7125 54,-46.1124"/>
<polygon fill="black" stroke="black" points="57.5001,-46.1043 54,-36.1043 50.5001,-46.1044 57.5001,-46.1043"/>
<g id="a_edge5&#45;headlabel"><a xlink:href="dir_000080_000016.html" target="_top" xlink:title="2">
<text text-anchor="middle" x="60.3393" y="-47.199" font-family="Helvetica,sans-Serif" font-size="10.00">2</text>
</a>
</g>
</g>
<!-- dir_a3959ed40b1558172144f5e1a56e443f&#45;&gt;dir_677b030cc750909e4cd27413873678d8 -->
<g id="edge6" class="edge"><title>dir_a3959ed40b1558172144f5e1a56e443f&#45;&gt;dir_677b030cc750909e4cd27413873678d8</title>
<path fill="none" stroke="black" d="M68.9494,-215.871C66.0521,-191.67 60.7295,-147.211 57.2795,-118.393"/>
<polygon fill="black" stroke="black" points="60.7218,-117.702 56.0579,-108.189 53.7715,-118.534 60.7218,-117.702"/>
<g id="a_edge6&#45;headlabel"><a xlink:href="dir_000106_000080.html" target="_top" xlink:title="19">
<text text-anchor="middle" x="63.9682" y="-118.434" font-family="Helvetica,sans-Serif" font-size="10.00">19</text>
</a>
</g>
</g>
<!-- dir_a3959ed40b1558172144f5e1a56e443f&#45;&gt;dir_2171f7ec022c5423887b07c69b2f5b48 -->
<g id="edge7" class="edge"><title>dir_a3959ed40b1558172144f5e1a56e443f&#45;&gt;dir_2171f7ec022c5423887b07c69b2f5b48</title>
<path fill="none" stroke="black" d="M82.8652,-215.697C88.5035,-207.474 95.3543,-197.483 101.569,-188.421"/>
<polygon fill="black" stroke="black" points="104.503,-190.331 107.271,-180.104 98.7294,-186.372 104.503,-190.331"/>
<g id="a_edge7&#45;headlabel"><a xlink:href="dir_000106_000038.html" target="_top" xlink:title="4">
<text text-anchor="middle" x="104.811" y="-192.401" font-family="Helvetica,sans-Serif" font-size="10.00">4</text>
</a>
</g>
</g>
<!-- dir_2171f7ec022c5423887b07c69b2f5b48&#45;&gt;dir_677b030cc750909e4cd27413873678d8 -->
<g id="edge8" class="edge"><title>dir_2171f7ec022c5423887b07c69b2f5b48&#45;&gt;dir_677b030cc750909e4cd27413873678d8</title>
<path fill="none" stroke="black" d="M102.933,-143.697C95.0612,-135.22 85.4447,-124.864 76.8267,-115.583"/>
<polygon fill="black" stroke="black" points="79.2519,-113.051 69.8826,-108.104 74.1224,-117.814 79.2519,-113.051"/>
<g id="a_edge8&#45;headlabel"><a xlink:href="dir_000038_000080.html" target="_top" xlink:title="2">
<text text-anchor="middle" x="83.7784" y="-111.253" font-family="Helvetica,sans-Serif" font-size="10.00">2</text>
</a>
</g>
</g>
<!-- dir_2171f7ec022c5423887b07c69b2f5b48&#45;&gt;dir_4ab6b4cc6a7edbff49100e9123df213f -->
<g id="edge9" class="edge"><title>dir_2171f7ec022c5423887b07c69b2f5b48&#45;&gt;dir_4ab6b4cc6a7edbff49100e9123df213f</title>
<path fill="none" stroke="black" d="M114.916,-143.714C110.229,-125.362 101.661,-95.7845 90,-72 85.421,-62.66 79.3835,-53.0714 73.5641,-44.6621"/>
<polygon fill="black" stroke="black" points="76.311,-42.4862 67.6489,-36.3855 70.6159,-46.5564 76.311,-42.4862"/>
<g id="a_edge9&#45;headlabel"><a xlink:href="dir_000038_000016.html" target="_top" xlink:title="4">
<text text-anchor="middle" x="80.711" y="-41.2598" font-family="Helvetica,sans-Serif" font-size="10.00">4</text>
</a>
</g>
</g>
</g>
</svg>
