<?xml version="1.0" encoding="UTF-8" standalone="no"?>
<!DOCTYPE svg PUBLIC "-//W3C//DTD SVG 1.1//EN"
 "http://www.w3.org/Graphics/SVG/1.1/DTD/svg11.dtd">
<!-- Generated by graphviz version 2.36.0 (20140111.2315)
 -->
<!-- Title: /home/travis/build/AliceO2Group/AliceO2/Detectors/ITSMFT/ITS/base/include Pages: 1 -->
<svg width="184pt" height="231pt"
 viewBox="0.00 0.00 184.00 231.00" xmlns="http://www.w3.org/2000/svg" xmlns:xlink="http://www.w3.org/1999/xlink">
<g id="graph0" class="graph" transform="scale(1 1) rotate(0) translate(4 227)">
<title>/home/travis/build/AliceO2Group/AliceO2/Detectors/ITSMFT/ITS/base/include</title>
<g id="clust1" class="cluster"><title>clusterdir_eedff867f3c4e67d20b227cb6e0f96ab</title>
<g id="a_clust1"><a xlink:href="dir_eedff867f3c4e67d20b227cb6e0f96ab.html" target="_top" xlink:title="base">
<polygon fill="#ddddee" stroke="black" points="8,-128 8,-215 168,-215 168,-128 8,-128"/>
<text text-anchor="middle" x="88" y="-203" font-family="Helvetica,sans-Serif" font-size="10.00">base</text>
</a>
</g>
</g>
<g id="clust2" class="cluster"><title>clusterdir_7c7589ac5e0cc6a282d368c91949af0d</title>
<g id="a_clust2"><a xlink:href="dir_7c7589ac5e0cc6a282d368c91949af0d.html" target="_top">
<polygon fill="#eeeeff" stroke="black" points="16,-136 16,-188 160,-188 160,-136 16,-136"/>
</a>
</g>
</g>
<!-- dir_7c7589ac5e0cc6a282d368c91949af0d -->
<g id="node1" class="node"><title>dir_7c7589ac5e0cc6a282d368c91949af0d</title>
<text text-anchor="middle" x="125" y="-159.5" font-family="Helvetica,sans-Serif" font-size="10.00">include</text>
</g>
<!-- dir_d8e9890f0d3106b34fa6b23d6fff1d5d -->
<g id="node2" class="node"><title>dir_d8e9890f0d3106b34fa6b23d6fff1d5d</title>
<g id="a_node2"><a xlink:href="dir_d8e9890f0d3106b34fa6b23d6fff1d5d.html" target="_top" xlink:title="ITSBase">
<polygon fill="white" stroke="black" points="79.25,-180 24.75,-180 24.75,-144 79.25,-144 79.25,-180"/>
<text text-anchor="middle" x="52" y="-159.5" font-family="Helvetica,sans-Serif" font-size="10.00">ITSBase</text>
</a>
</g>
</g>
<!-- dir_37c90836491b695b472bf98d1be8336b -->
<g id="node3" class="node"><title>dir_37c90836491b695b472bf98d1be8336b</title>
<g id="a_node3"><a xlink:href="dir_37c90836491b695b472bf98d1be8336b.html" target="_top" xlink:title="Base">
<polygon fill="none" stroke="red" points="79,-36 25,-36 25,-0 79,-0 79,-36"/>
<text text-anchor="middle" x="52" y="-15.5" font-family="Helvetica,sans-Serif" font-size="10.00">Base</text>
</a>
</g>
</g>
<!-- dir_d8e9890f0d3106b34fa6b23d6fff1d5d&#45;&gt;dir_37c90836491b695b472bf98d1be8336b -->
<g id="edge2" class="edge"><title>dir_d8e9890f0d3106b34fa6b23d6fff1d5d&#45;&gt;dir_37c90836491b695b472bf98d1be8336b</title>
<path fill="none" stroke="black" d="M48.7517,-143.888C46.9542,-133.542 44.9053,-120.063 44,-108 42.8026,-92.0449 42.8026,-87.9551 44,-72 44.6366,-63.5179 45.8384,-54.3361 47.1208,-46.0356"/>
<polygon fill="black" stroke="black" points="50.5836,-46.5472 48.7517,-36.1119 43.6763,-45.412 50.5836,-46.5472"/>
<g id="a_edge2&#45;headlabel"><a xlink:href="dir_000156_000067.html" target="_top" xlink:title="3">
<text text-anchor="middle" x="52.8024" y="-48.0546" font-family="Helvetica,sans-Serif" font-size="10.00">3</text>
</a>
</g>
</g>
<!-- dir_85bf31a2e8d306e7598ffcb73f8df6bf -->
<g id="node4" class="node"><title>dir_85bf31a2e8d306e7598ffcb73f8df6bf</title>
<g id="a_node4"><a xlink:href="dir_85bf31a2e8d306e7598ffcb73f8df6bf.html" target="_top" xlink:title="common">
<polygon fill="none" stroke="red" points="107,-108 53,-108 53,-72 107,-72 107,-108"/>
<text text-anchor="middle" x="80" y="-87.5" font-family="Helvetica,sans-Serif" font-size="10.00">common</text>
</a>
</g>
</g>
<!-- dir_d8e9890f0d3106b34fa6b23d6fff1d5d&#45;&gt;dir_85bf31a2e8d306e7598ffcb73f8df6bf -->
<g id="edge3" class="edge"><title>dir_d8e9890f0d3106b34fa6b23d6fff1d5d&#45;&gt;dir_85bf31a2e8d306e7598ffcb73f8df6bf</title>
<path fill="none" stroke="black" d="M58.9214,-143.697C62.0747,-135.813 65.8783,-126.304 69.3814,-117.546"/>
<polygon fill="black" stroke="black" points="72.694,-118.689 73.1583,-108.104 66.1946,-116.089 72.694,-118.689"/>
<g id="a_edge3&#45;headlabel"><a xlink:href="dir_000156_000131.html" target="_top" xlink:title="1">
<text text-anchor="middle" x="73.9952" y="-120.581" font-family="Helvetica,sans-Serif" font-size="10.00">1</text>
</a>
</g>
</g>
<!-- dir_85bf31a2e8d306e7598ffcb73f8df6bf&#45;&gt;dir_37c90836491b695b472bf98d1be8336b -->
<g id="edge1" class="edge"><title>dir_85bf31a2e8d306e7598ffcb73f8df6bf&#45;&gt;dir_37c90836491b695b472bf98d1be8336b</title>
<path fill="none" stroke="black" d="M73.0786,-71.6966C69.9253,-63.8132 66.1217,-54.3042 62.6186,-45.5464"/>
<polygon fill="black" stroke="black" points="65.8054,-44.0892 58.8417,-36.1043 59.306,-46.689 65.8054,-44.0892"/>
<g id="a_edge1&#45;headlabel"><a xlink:href="dir_000131_000067.html" target="_top" xlink:title="2">
<text text-anchor="middle" x="69.7765" y="-43.8723" font-family="Helvetica,sans-Serif" font-size="10.00">2</text>
</a>
</g>
</g>
</g>
</svg>
