<?xml version="1.0" encoding="UTF-8" standalone="no"?>
<!DOCTYPE svg PUBLIC "-//W3C//DTD SVG 1.1//EN"
 "http://www.w3.org/Graphics/SVG/1.1/DTD/svg11.dtd">
<!-- Generated by graphviz version 2.36.0 (20140111.2315)
 -->
<!-- Title: /home/travis/build/AliceO2Group/AliceO2/Detectors/TPC/reconstruction/include/TPCReconstruction Pages: 1 -->
<svg width="153pt" height="223pt"
 viewBox="0.00 0.00 153.00 223.00" xmlns="http://www.w3.org/2000/svg" xmlns:xlink="http://www.w3.org/1999/xlink">
<g id="graph0" class="graph" transform="scale(1 1) rotate(0) translate(4 219)">
<title>/home/travis/build/AliceO2Group/AliceO2/Detectors/TPC/reconstruction/include/TPCReconstruction</title>
<g id="clust1" class="cluster"><title>clusterdir_396d171119822f66a36fe1ebf998d1a3</title>
<g id="a_clust1"><a xlink:href="dir_396d171119822f66a36fe1ebf998d1a3.html" target="_top" xlink:title="include">
<polygon fill="#ddddee" stroke="black" points="8,-136 8,-207 128,-207 128,-136 8,-136"/>
<text text-anchor="middle" x="68" y="-195" font-family="Helvetica,sans-Serif" font-size="10.00">include</text>
</a>
</g>
</g>
<!-- dir_1dfaa3fb6e801ddc70b8194facd2138d -->
<g id="node1" class="node"><title>dir_1dfaa3fb6e801ddc70b8194facd2138d</title>
<g id="a_node1"><a xlink:href="dir_1dfaa3fb6e801ddc70b8194facd2138d.html" target="_top" xlink:title="TPCReconstruction">
<polygon fill="#eeeeff" stroke="black" points="119.25,-180 16.75,-180 16.75,-144 119.25,-144 119.25,-180"/>
<text text-anchor="middle" x="68" y="-159.5" font-family="Helvetica,sans-Serif" font-size="10.00">TPCReconstruction</text>
</a>
</g>
</g>
<!-- dir_677b030cc750909e4cd27413873678d8 -->
<g id="node2" class="node"><title>dir_677b030cc750909e4cd27413873678d8</title>
<g id="a_node2"><a xlink:href="dir_677b030cc750909e4cd27413873678d8.html" target="_top" xlink:title="base">
<polygon fill="none" stroke="red" points="59,-36 5,-36 5,-0 59,-0 59,-36"/>
<text text-anchor="middle" x="32" y="-15.5" font-family="Helvetica,sans-Serif" font-size="10.00">base</text>
</a>
</g>
</g>
<!-- dir_1dfaa3fb6e801ddc70b8194facd2138d&#45;&gt;dir_677b030cc750909e4cd27413873678d8 -->
<g id="edge1" class="edge"><title>dir_1dfaa3fb6e801ddc70b8194facd2138d&#45;&gt;dir_677b030cc750909e4cd27413873678d8</title>
<path fill="none" stroke="black" d="M47.1772,-143.615C37.542,-134.198 27.1149,-121.697 22,-108 14.5535,-88.0598 17.9305,-63.9958 22.6847,-45.9202"/>
<polygon fill="black" stroke="black" points="26.0497,-46.8827 25.4892,-36.3027 19.3296,-44.923 26.0497,-46.8827"/>
<g id="a_edge1&#45;headlabel"><a xlink:href="dir_000163_000080.html" target="_top" xlink:title="9">
<text text-anchor="middle" x="27.7692" y="-48.6284" font-family="Helvetica,sans-Serif" font-size="10.00">9</text>
</a>
</g>
</g>
<!-- dir_37c90836491b695b472bf98d1be8336b -->
<g id="node3" class="node"><title>dir_37c90836491b695b472bf98d1be8336b</title>
<g id="a_node3"><a xlink:href="dir_37c90836491b695b472bf98d1be8336b.html" target="_top" xlink:title="Base">
<polygon fill="none" stroke="red" points="145,-36 91,-36 91,-0 145,-0 145,-36"/>
<text text-anchor="middle" x="118" y="-15.5" font-family="Helvetica,sans-Serif" font-size="10.00">Base</text>
</a>
</g>
</g>
<!-- dir_1dfaa3fb6e801ddc70b8194facd2138d&#45;&gt;dir_37c90836491b695b472bf98d1be8336b -->
<g id="edge2" class="edge"><title>dir_1dfaa3fb6e801ddc70b8194facd2138d&#45;&gt;dir_37c90836491b695b472bf98d1be8336b</title>
<path fill="none" stroke="black" d="M88.0858,-143.985C97.783,-134.489 108.488,-121.805 114,-108 121.826,-88.3993 122.445,-64.4079 121.317,-46.2752"/>
<polygon fill="black" stroke="black" points="124.787,-45.7675 120.466,-36.0941 117.812,-46.3511 124.787,-45.7675"/>
<g id="a_edge2&#45;headlabel"><a xlink:href="dir_000163_000067.html" target="_top" xlink:title="1">
<text text-anchor="middle" x="127.916" y="-46.6129" font-family="Helvetica,sans-Serif" font-size="10.00">1</text>
</a>
</g>
</g>
<!-- dir_2171f7ec022c5423887b07c69b2f5b48 -->
<g id="node4" class="node"><title>dir_2171f7ec022c5423887b07c69b2f5b48</title>
<g id="a_node4"><a xlink:href="dir_2171f7ec022c5423887b07c69b2f5b48.html" target="_top" xlink:title="DataFormats">
<polygon fill="none" stroke="red" points="105,-108 31,-108 31,-72 105,-72 105,-108"/>
<text text-anchor="middle" x="68" y="-87.5" font-family="Helvetica,sans-Serif" font-size="10.00">DataFormats</text>
</a>
</g>
</g>
<!-- dir_1dfaa3fb6e801ddc70b8194facd2138d&#45;&gt;dir_2171f7ec022c5423887b07c69b2f5b48 -->
<g id="edge3" class="edge"><title>dir_1dfaa3fb6e801ddc70b8194facd2138d&#45;&gt;dir_2171f7ec022c5423887b07c69b2f5b48</title>
<path fill="none" stroke="black" d="M68,-143.697C68,-135.983 68,-126.712 68,-118.112"/>
<polygon fill="black" stroke="black" points="71.5001,-118.104 68,-108.104 64.5001,-118.104 71.5001,-118.104"/>
<g id="a_edge3&#45;headlabel"><a xlink:href="dir_000163_000038.html" target="_top" xlink:title="11">
<text text-anchor="middle" x="74.3393" y="-119.199" font-family="Helvetica,sans-Serif" font-size="10.00">11</text>
</a>
</g>
</g>
<!-- dir_2171f7ec022c5423887b07c69b2f5b48&#45;&gt;dir_677b030cc750909e4cd27413873678d8 -->
<g id="edge4" class="edge"><title>dir_2171f7ec022c5423887b07c69b2f5b48&#45;&gt;dir_677b030cc750909e4cd27413873678d8</title>
<path fill="none" stroke="black" d="M59.1011,-71.6966C55.0032,-63.7284 50.0512,-54.0995 45.5073,-45.2641"/>
<polygon fill="black" stroke="black" points="48.4826,-43.3965 40.7965,-36.1043 42.2575,-46.598 48.4826,-43.3965"/>
<g id="a_edge4&#45;headlabel"><a xlink:href="dir_000038_000080.html" target="_top" xlink:title="2">
<text text-anchor="middle" x="52.6514" y="-42.7946" font-family="Helvetica,sans-Serif" font-size="10.00">2</text>
</a>
</g>
</g>
<!-- dir_2171f7ec022c5423887b07c69b2f5b48&#45;&gt;dir_37c90836491b695b472bf98d1be8336b -->
<g id="edge5" class="edge"><title>dir_2171f7ec022c5423887b07c69b2f5b48&#45;&gt;dir_37c90836491b695b472bf98d1be8336b</title>
<path fill="none" stroke="black" d="M80.3596,-71.6966C86.2328,-63.4741 93.3691,-53.4832 99.8424,-44.4207"/>
<polygon fill="black" stroke="black" points="102.818,-46.276 105.783,-36.1043 97.1221,-42.2073 102.818,-46.276"/>
<g id="a_edge5&#45;headlabel"><a xlink:href="dir_000038_000067.html" target="_top" xlink:title="6">
<text text-anchor="middle" x="103.039" y="-48.3514" font-family="Helvetica,sans-Serif" font-size="10.00">6</text>
</a>
</g>
</g>
</g>
</svg>
