<?xml version="1.0" encoding="UTF-8" standalone="no"?>
<!DOCTYPE svg PUBLIC "-//W3C//DTD SVG 1.1//EN"
 "http://www.w3.org/Graphics/SVG/1.1/DTD/svg11.dtd">
<!-- Generated by graphviz version 2.36.0 (20140111.2315)
 -->
<!-- Title: /home/travis/build/AliceO2Group/AliceO2/Detectors/TPC/calibration Pages: 1 -->
<svg width="367pt" height="303pt"
 viewBox="0.00 0.00 366.78 303.00" xmlns="http://www.w3.org/2000/svg" xmlns:xlink="http://www.w3.org/1999/xlink">
<g id="graph0" class="graph" transform="scale(1 1) rotate(0) translate(4 299)">
<title>/home/travis/build/AliceO2Group/AliceO2/Detectors/TPC/calibration</title>
<g id="clust1" class="cluster"><title>clusterdir_a597e8e061b11201a1dff411feb10d0b</title>
<g id="a_clust1"><a xlink:href="dir_a597e8e061b11201a1dff411feb10d0b.html" target="_top" xlink:title="TPC">
<polygon fill="#ddddee" stroke="black" points="8,-128 8,-287 246,-287 246,-128 8,-128"/>
<text text-anchor="middle" x="127" y="-275" font-family="Helvetica,sans-Serif" font-size="10.00">TPC</text>
</a>
</g>
</g>
<g id="clust2" class="cluster"><title>clusterdir_4995562033b321477cfe3c34a14a5189</title>
<g id="a_clust2"><a xlink:href="dir_4995562033b321477cfe3c34a14a5189.html" target="_top">
<polygon fill="#eeeeff" stroke="black" points="16,-136 16,-260 238,-260 238,-136 16,-136"/>
</a>
</g>
</g>
<!-- dir_4995562033b321477cfe3c34a14a5189 -->
<g id="node1" class="node"><title>dir_4995562033b321477cfe3c34a14a5189</title>
<text text-anchor="middle" x="199" y="-231.5" font-family="Helvetica,sans-Serif" font-size="10.00">calibration</text>
</g>
<!-- dir_2168d348e8784d0b706f7ff616321664 -->
<g id="node2" class="node"><title>dir_2168d348e8784d0b706f7ff616321664</title>
<g id="a_node2"><a xlink:href="dir_2168d348e8784d0b706f7ff616321664.html" target="_top" xlink:title="include">
<polygon fill="white" stroke="red" points="198,-180 144,-180 144,-144 198,-144 198,-180"/>
<text text-anchor="middle" x="171" y="-159.5" font-family="Helvetica,sans-Serif" font-size="10.00">include</text>
</a>
</g>
</g>
<!-- dir_677b030cc750909e4cd27413873678d8 -->
<g id="node5" class="node"><title>dir_677b030cc750909e4cd27413873678d8</title>
<g id="a_node5"><a xlink:href="dir_677b030cc750909e4cd27413873678d8.html" target="_top" xlink:title="base">
<polygon fill="none" stroke="red" points="286,-108 232,-108 232,-72 286,-72 286,-108"/>
<text text-anchor="middle" x="259" y="-87.5" font-family="Helvetica,sans-Serif" font-size="10.00">base</text>
</a>
</g>
</g>
<!-- dir_2168d348e8784d0b706f7ff616321664&#45;&gt;dir_677b030cc750909e4cd27413873678d8 -->
<g id="edge7" class="edge"><title>dir_2168d348e8784d0b706f7ff616321664&#45;&gt;dir_677b030cc750909e4cd27413873678d8</title>
<path fill="none" stroke="black" d="M192.245,-143.829C198.588,-138.721 205.566,-133.122 212,-128 217.459,-123.655 223.29,-119.042 228.921,-114.601"/>
<polygon fill="black" stroke="black" points="231.272,-117.205 236.963,-108.269 226.941,-111.705 231.272,-117.205"/>
<g id="a_edge7&#45;headlabel"><a xlink:href="dir_000201_000080.html" target="_top" xlink:title="9">
<text text-anchor="middle" x="230.204" y="-119.159" font-family="Helvetica,sans-Serif" font-size="10.00">9</text>
</a>
</g>
</g>
<!-- dir_a5de047958dd458e809773c6ffaa8478 -->
<g id="node7" class="node"><title>dir_a5de047958dd458e809773c6ffaa8478</title>
<g id="a_node7"><a xlink:href="dir_a5de047958dd458e809773c6ffaa8478.html" target="_top" xlink:title="reconstruction">
<polygon fill="none" stroke="red" points="332,-180 254,-180 254,-144 332,-144 332,-180"/>
<text text-anchor="middle" x="293" y="-159.5" font-family="Helvetica,sans-Serif" font-size="10.00">reconstruction</text>
</a>
</g>
</g>
<!-- dir_2168d348e8784d0b706f7ff616321664&#45;&gt;dir_a5de047958dd458e809773c6ffaa8478 -->
<g id="edge8" class="edge"><title>dir_2168d348e8784d0b706f7ff616321664&#45;&gt;dir_a5de047958dd458e809773c6ffaa8478</title>
<path fill="none" stroke="black" d="M198.164,-162C213.214,-162 228.263,-162 243.313,-162"/>
<polygon fill="black" stroke="black" points="243.732,-165.5 253.732,-162 243.732,-158.5 243.732,-165.5"/>
<g id="a_edge8&#45;headlabel"><a xlink:href="dir_000201_000161.html" target="_top" xlink:title="3">
<text text-anchor="middle" x="240.137" y="-165.839" font-family="Helvetica,sans-Serif" font-size="10.00">3</text>
</a>
</g>
</g>
<!-- dir_8e6ea4ae725f1e64afd27f38b65a0c9d -->
<g id="node3" class="node"><title>dir_8e6ea4ae725f1e64afd27f38b65a0c9d</title>
<g id="a_node3"><a xlink:href="dir_8e6ea4ae725f1e64afd27f38b65a0c9d.html" target="_top" xlink:title="macro">
<polygon fill="white" stroke="black" points="150,-252 96,-252 96,-216 150,-216 150,-252"/>
<text text-anchor="middle" x="123" y="-231.5" font-family="Helvetica,sans-Serif" font-size="10.00">macro</text>
</a>
</g>
</g>
<!-- dir_dd8aaa5a15077027057ed7b7af59c9da -->
<g id="node4" class="node"><title>dir_dd8aaa5a15077027057ed7b7af59c9da</title>
<g id="a_node4"><a xlink:href="dir_dd8aaa5a15077027057ed7b7af59c9da.html" target="_top" xlink:title="src">
<polygon fill="white" stroke="black" points="78,-252 24,-252 24,-216 78,-216 78,-252"/>
<text text-anchor="middle" x="51" y="-231.5" font-family="Helvetica,sans-Serif" font-size="10.00">src</text>
</a>
</g>
</g>
<!-- dir_dd8aaa5a15077027057ed7b7af59c9da&#45;&gt;dir_2168d348e8784d0b706f7ff616321664 -->
<g id="edge6" class="edge"><title>dir_dd8aaa5a15077027057ed7b7af59c9da&#45;&gt;dir_2168d348e8784d0b706f7ff616321664</title>
<path fill="none" stroke="black" d="M78.2299,-217.116C95.1069,-207.271 116.974,-194.515 135.239,-183.861"/>
<polygon fill="black" stroke="black" points="137.004,-186.883 143.878,-178.821 133.477,-180.837 137.004,-186.883"/>
<g id="a_edge6&#45;headlabel"><a xlink:href="dir_000204_000201.html" target="_top" xlink:title="4">
<text text-anchor="middle" x="135.329" y="-188.647" font-family="Helvetica,sans-Serif" font-size="10.00">4</text>
</a>
</g>
</g>
<!-- dir_dd8aaa5a15077027057ed7b7af59c9da&#45;&gt;dir_677b030cc750909e4cd27413873678d8 -->
<g id="edge4" class="edge"><title>dir_dd8aaa5a15077027057ed7b7af59c9da&#45;&gt;dir_677b030cc750909e4cd27413873678d8</title>
<path fill="none" stroke="black" d="M78.3334,-219.575C81.2337,-218.306 84.1606,-217.089 87,-216 138.987,-196.056 163.243,-214.435 207,-180 218,-171.343 234.976,-140.029 246.515,-116.983"/>
<polygon fill="black" stroke="black" points="249.657,-118.525 250.945,-108.009 243.38,-115.426 249.657,-118.525"/>
<g id="a_edge4&#45;headlabel"><a xlink:href="dir_000204_000080.html" target="_top" xlink:title="4">
<text text-anchor="middle" x="250.612" y="-120.505" font-family="Helvetica,sans-Serif" font-size="10.00">4</text>
</a>
</g>
</g>
<!-- dir_4ab6b4cc6a7edbff49100e9123df213f -->
<g id="node6" class="node"><title>dir_4ab6b4cc6a7edbff49100e9123df213f</title>
<g id="a_node6"><a xlink:href="dir_4ab6b4cc6a7edbff49100e9123df213f.html" target="_top" xlink:title="Common">
<polygon fill="none" stroke="red" points="353.5,-36 298.5,-36 298.5,-0 353.5,-0 353.5,-36"/>
<text text-anchor="middle" x="326" y="-15.5" font-family="Helvetica,sans-Serif" font-size="10.00">Common</text>
</a>
</g>
</g>
<!-- dir_dd8aaa5a15077027057ed7b7af59c9da&#45;&gt;dir_4ab6b4cc6a7edbff49100e9123df213f -->
<g id="edge5" class="edge"><title>dir_dd8aaa5a15077027057ed7b7af59c9da&#45;&gt;dir_4ab6b4cc6a7edbff49100e9123df213f</title>
<path fill="none" stroke="black" d="M78.1813,-219.129C81.1113,-217.947 84.0866,-216.873 87,-216 141.612,-199.644 303.624,-223.047 341,-180 373.469,-142.605 354.065,-80.293 338.862,-45.1636"/>
<polygon fill="black" stroke="black" points="342.038,-43.6924 334.732,-36.0195 335.658,-46.5738 342.038,-43.6924"/>
<g id="a_edge5&#45;headlabel"><a xlink:href="dir_000204_000016.html" target="_top" xlink:title="3">
<text text-anchor="middle" x="346.105" y="-43.2997" font-family="Helvetica,sans-Serif" font-size="10.00">3</text>
</a>
</g>
</g>
<!-- dir_677b030cc750909e4cd27413873678d8&#45;&gt;dir_4ab6b4cc6a7edbff49100e9123df213f -->
<g id="edge1" class="edge"><title>dir_677b030cc750909e4cd27413873678d8&#45;&gt;dir_4ab6b4cc6a7edbff49100e9123df213f</title>
<path fill="none" stroke="black" d="M275.562,-71.6966C283.675,-63.2198 293.588,-52.8636 302.471,-43.5826"/>
<polygon fill="black" stroke="black" points="305.243,-45.7486 309.629,-36.1043 300.186,-40.9084 305.243,-45.7486"/>
<g id="a_edge1&#45;headlabel"><a xlink:href="dir_000080_000016.html" target="_top" xlink:title="2">
<text text-anchor="middle" x="304.808" y="-47.8087" font-family="Helvetica,sans-Serif" font-size="10.00">2</text>
</a>
</g>
</g>
<!-- dir_a5de047958dd458e809773c6ffaa8478&#45;&gt;dir_2168d348e8784d0b706f7ff616321664 -->
<g id="edge3" class="edge"><title>dir_a5de047958dd458e809773c6ffaa8478&#45;&gt;dir_2168d348e8784d0b706f7ff616321664</title>
<path fill="none" stroke="black" d="M253.732,-162C238.682,-162 223.633,-162 208.583,-162"/>
<polygon fill="black" stroke="black" points="208.164,-158.5 198.164,-162 208.164,-165.5 208.164,-158.5"/>
<g id="a_edge3&#45;headlabel"><a xlink:href="dir_000161_000201.html" target="_top" xlink:title="1">
<text text-anchor="middle" x="211.759" y="-153.161" font-family="Helvetica,sans-Serif" font-size="10.00">1</text>
</a>
</g>
</g>
<!-- dir_a5de047958dd458e809773c6ffaa8478&#45;&gt;dir_677b030cc750909e4cd27413873678d8 -->
<g id="edge2" class="edge"><title>dir_a5de047958dd458e809773c6ffaa8478&#45;&gt;dir_677b030cc750909e4cd27413873678d8</title>
<path fill="none" stroke="black" d="M284.596,-143.697C280.725,-135.728 276.048,-126.1 271.757,-117.264"/>
<polygon fill="black" stroke="black" points="274.825,-115.57 267.308,-108.104 268.529,-118.629 274.825,-115.57"/>
<g id="a_edge2&#45;headlabel"><a xlink:href="dir_000161_000080.html" target="_top" xlink:title="48">
<text text-anchor="middle" x="278.95" y="-115.063" font-family="Helvetica,sans-Serif" font-size="10.00">48</text>
</a>
</g>
</g>
</g>
</svg>
