<?xml version="1.0" encoding="UTF-8" standalone="no"?>
<!DOCTYPE svg PUBLIC "-//W3C//DTD SVG 1.1//EN"
 "http://www.w3.org/Graphics/SVG/1.1/DTD/svg11.dtd">
<!-- Generated by graphviz version 2.36.0 (20140111.2315)
 -->
<!-- Title: /home/travis/build/AliceO2Group/AliceO2/Detectors/ITSMFT/ITS/base/include/ITSBase Pages: 1 -->
<svg width="107pt" height="223pt"
 viewBox="0.00 0.00 107.00 223.00" xmlns="http://www.w3.org/2000/svg" xmlns:xlink="http://www.w3.org/1999/xlink">
<g id="graph0" class="graph" transform="scale(1 1) rotate(0) translate(4 219)">
<title>/home/travis/build/AliceO2Group/AliceO2/Detectors/ITSMFT/ITS/base/include/ITSBase</title>
<g id="clust1" class="cluster"><title>clusterdir_7c7589ac5e0cc6a282d368c91949af0d</title>
<g id="a_clust1"><a xlink:href="dir_7c7589ac5e0cc6a282d368c91949af0d.html" target="_top" xlink:title="include">
<polygon fill="#ddddee" stroke="black" points="8,-136 8,-207 80,-207 80,-136 8,-136"/>
<text text-anchor="middle" x="44" y="-195" font-family="Helvetica,sans-Serif" font-size="10.00">include</text>
</a>
</g>
</g>
<!-- dir_d8e9890f0d3106b34fa6b23d6fff1d5d -->
<g id="node1" class="node"><title>dir_d8e9890f0d3106b34fa6b23d6fff1d5d</title>
<g id="a_node1"><a xlink:href="dir_d8e9890f0d3106b34fa6b23d6fff1d5d.html" target="_top" xlink:title="ITSBase">
<polygon fill="#eeeeff" stroke="black" points="71.25,-180 16.75,-180 16.75,-144 71.25,-144 71.25,-180"/>
<text text-anchor="middle" x="44" y="-159.5" font-family="Helvetica,sans-Serif" font-size="10.00">ITSBase</text>
</a>
</g>
</g>
<!-- dir_37c90836491b695b472bf98d1be8336b -->
<g id="node2" class="node"><title>dir_37c90836491b695b472bf98d1be8336b</title>
<g id="a_node2"><a xlink:href="dir_37c90836491b695b472bf98d1be8336b.html" target="_top" xlink:title="Base">
<polygon fill="none" stroke="red" points="71,-36 17,-36 17,-0 71,-0 71,-36"/>
<text text-anchor="middle" x="44" y="-15.5" font-family="Helvetica,sans-Serif" font-size="10.00">Base</text>
</a>
</g>
</g>
<!-- dir_d8e9890f0d3106b34fa6b23d6fff1d5d&#45;&gt;dir_37c90836491b695b472bf98d1be8336b -->
<g id="edge2" class="edge"><title>dir_d8e9890f0d3106b34fa6b23d6fff1d5d&#45;&gt;dir_37c90836491b695b472bf98d1be8336b</title>
<path fill="none" stroke="black" d="M40.7517,-143.888C38.9542,-133.542 36.9053,-120.063 36,-108 34.8026,-92.0449 34.8026,-87.9551 36,-72 36.6366,-63.5179 37.8384,-54.3361 39.1208,-46.0356"/>
<polygon fill="black" stroke="black" points="42.5836,-46.5472 40.7517,-36.1119 35.6763,-45.412 42.5836,-46.5472"/>
<g id="a_edge2&#45;headlabel"><a xlink:href="dir_000156_000067.html" target="_top" xlink:title="3">
<text text-anchor="middle" x="44.8024" y="-48.0546" font-family="Helvetica,sans-Serif" font-size="10.00">3</text>
</a>
</g>
</g>
<!-- dir_85bf31a2e8d306e7598ffcb73f8df6bf -->
<g id="node3" class="node"><title>dir_85bf31a2e8d306e7598ffcb73f8df6bf</title>
<g id="a_node3"><a xlink:href="dir_85bf31a2e8d306e7598ffcb73f8df6bf.html" target="_top" xlink:title="common">
<polygon fill="none" stroke="red" points="99,-108 45,-108 45,-72 99,-72 99,-108"/>
<text text-anchor="middle" x="72" y="-87.5" font-family="Helvetica,sans-Serif" font-size="10.00">common</text>
</a>
</g>
</g>
<!-- dir_d8e9890f0d3106b34fa6b23d6fff1d5d&#45;&gt;dir_85bf31a2e8d306e7598ffcb73f8df6bf -->
<g id="edge3" class="edge"><title>dir_d8e9890f0d3106b34fa6b23d6fff1d5d&#45;&gt;dir_85bf31a2e8d306e7598ffcb73f8df6bf</title>
<path fill="none" stroke="black" d="M50.9214,-143.697C54.0747,-135.813 57.8783,-126.304 61.3814,-117.546"/>
<polygon fill="black" stroke="black" points="64.694,-118.689 65.1583,-108.104 58.1946,-116.089 64.694,-118.689"/>
<g id="a_edge3&#45;headlabel"><a xlink:href="dir_000156_000131.html" target="_top" xlink:title="1">
<text text-anchor="middle" x="65.9952" y="-120.581" font-family="Helvetica,sans-Serif" font-size="10.00">1</text>
</a>
</g>
</g>
<!-- dir_85bf31a2e8d306e7598ffcb73f8df6bf&#45;&gt;dir_37c90836491b695b472bf98d1be8336b -->
<g id="edge1" class="edge"><title>dir_85bf31a2e8d306e7598ffcb73f8df6bf&#45;&gt;dir_37c90836491b695b472bf98d1be8336b</title>
<path fill="none" stroke="black" d="M65.0786,-71.6966C61.9253,-63.8132 58.1217,-54.3042 54.6186,-45.5464"/>
<polygon fill="black" stroke="black" points="57.8054,-44.0892 50.8417,-36.1043 51.306,-46.689 57.8054,-44.0892"/>
<g id="a_edge1&#45;headlabel"><a xlink:href="dir_000131_000067.html" target="_top" xlink:title="2">
<text text-anchor="middle" x="61.7765" y="-43.8723" font-family="Helvetica,sans-Serif" font-size="10.00">2</text>
</a>
</g>
</g>
</g>
</svg>
