<?xml version="1.0" encoding="UTF-8" standalone="no"?>
<!DOCTYPE svg PUBLIC "-//W3C//DTD SVG 1.1//EN"
 "http://www.w3.org/Graphics/SVG/1.1/DTD/svg11.dtd">
<!-- Generated by graphviz version 2.36.0 (20140111.2315)
 -->
<!-- Title: /home/travis/build/AliceO2Group/AliceO2/Utilities/QC Pages: 1 -->
<svg width="410pt" height="255pt"
 viewBox="0.00 0.00 410.00 255.00" xmlns="http://www.w3.org/2000/svg" xmlns:xlink="http://www.w3.org/1999/xlink">
<g id="graph0" class="graph" transform="scale(1 1) rotate(0) translate(4 251)">
<title>/home/travis/build/AliceO2Group/AliceO2/Utilities/QC</title>
<g id="clust1" class="cluster"><title>clusterdir_b05a5fa85f84bfc9013183c9d87f9a36</title>
<g id="a_clust1"><a xlink:href="dir_b05a5fa85f84bfc9013183c9d87f9a36.html" target="_top" xlink:title="Utilities">
<polygon fill="#ddddee" stroke="black" points="8,-8 8,-239 292,-239 292,-8 8,-8"/>
<text text-anchor="middle" x="150" y="-227" font-family="Helvetica,sans-Serif" font-size="10.00">Utilities</text>
</a>
</g>
</g>
<g id="clust2" class="cluster"><title>clusterdir_47a906a1cbf8a6449f7ddaf217b22a51</title>
<g id="a_clust2"><a xlink:href="dir_47a906a1cbf8a6449f7ddaf217b22a51.html" target="_top">
<polygon fill="#eeeeff" stroke="black" points="16,-16 16,-212 284,-212 284,-16 16,-16"/>
</a>
</g>
</g>
<!-- dir_47a906a1cbf8a6449f7ddaf217b22a51 -->
<g id="node1" class="node"><title>dir_47a906a1cbf8a6449f7ddaf217b22a51</title>
<text text-anchor="middle" x="249" y="-183.5" font-family="Helvetica,sans-Serif" font-size="10.00">QC</text>
</g>
<!-- dir_9c2311bfeda3fb38e02fb69ee46566d3 -->
<g id="node2" class="node"><title>dir_9c2311bfeda3fb38e02fb69ee46566d3</title>
<g id="a_node2"><a xlink:href="dir_9c2311bfeda3fb38e02fb69ee46566d3.html" target="_top" xlink:title="QCCommon">
<polygon fill="white" stroke="red" points="110.25,-60 39.75,-60 39.75,-24 110.25,-24 110.25,-60"/>
<text text-anchor="middle" x="75" y="-39.5" font-family="Helvetica,sans-Serif" font-size="10.00">QCCommon</text>
</a>
</g>
</g>
<!-- dir_3e4e15287e49cb295431b9ceb891089a -->
<g id="node3" class="node"><title>dir_3e4e15287e49cb295431b9ceb891089a</title>
<g id="a_node3"><a xlink:href="dir_3e4e15287e49cb295431b9ceb891089a.html" target="_top" xlink:title="QCMerger">
<polygon fill="white" stroke="red" points="105.5,-132 44.5,-132 44.5,-96 105.5,-96 105.5,-132"/>
<text text-anchor="middle" x="75" y="-111.5" font-family="Helvetica,sans-Serif" font-size="10.00">QCMerger</text>
</a>
</g>
</g>
<!-- dir_3e4e15287e49cb295431b9ceb891089a&#45;&gt;dir_9c2311bfeda3fb38e02fb69ee46566d3 -->
<g id="edge8" class="edge"><title>dir_3e4e15287e49cb295431b9ceb891089a&#45;&gt;dir_9c2311bfeda3fb38e02fb69ee46566d3</title>
<path fill="none" stroke="black" d="M75,-95.6966C75,-87.9827 75,-78.7125 75,-70.1124"/>
<polygon fill="black" stroke="black" points="78.5001,-70.1043 75,-60.1043 71.5001,-70.1044 78.5001,-70.1043"/>
<g id="a_edge8&#45;headlabel"><a xlink:href="dir_000177_000307.html" target="_top" xlink:title="2">
<text text-anchor="middle" x="81.3393" y="-71.199" font-family="Helvetica,sans-Serif" font-size="10.00">2</text>
</a>
</g>
</g>
<!-- dir_6870ba479da496c7ce4954f260c04020 -->
<g id="node4" class="node"><title>dir_6870ba479da496c7ce4954f260c04020</title>
<g id="a_node4"><a xlink:href="dir_6870ba479da496c7ce4954f260c04020.html" target="_top" xlink:title="QCMetricsExtractor">
<polygon fill="white" stroke="red" points="204,-204 100,-204 100,-168 204,-168 204,-204"/>
<text text-anchor="middle" x="152" y="-183.5" font-family="Helvetica,sans-Serif" font-size="10.00">QCMetricsExtractor</text>
</a>
</g>
</g>
<!-- dir_27aa4c457c70931ae4284a576d00171f -->
<g id="node5" class="node"><title>dir_27aa4c457c70931ae4284a576d00171f</title>
<g id="a_node5"><a xlink:href="dir_27aa4c457c70931ae4284a576d00171f.html" target="_top" xlink:title="QCProducer">
<polygon fill="white" stroke="red" points="195.25,-132 124.75,-132 124.75,-96 195.25,-96 195.25,-132"/>
<text text-anchor="middle" x="160" y="-111.5" font-family="Helvetica,sans-Serif" font-size="10.00">QCProducer</text>
</a>
</g>
</g>
<!-- dir_ed04e426e99dbe57a6e59c8944ea6785 -->
<g id="node6" class="node"><title>dir_ed04e426e99dbe57a6e59c8944ea6785</title>
<g id="a_node6"><a xlink:href="dir_ed04e426e99dbe57a6e59c8944ea6785.html" target="_top" xlink:title="QCViewer">
<polygon fill="white" stroke="red" points="275.5,-132 214.5,-132 214.5,-96 275.5,-96 275.5,-132"/>
<text text-anchor="middle" x="245" y="-111.5" font-family="Helvetica,sans-Serif" font-size="10.00">QCViewer</text>
</a>
</g>
</g>
<!-- dir_ed04e426e99dbe57a6e59c8944ea6785&#45;&gt;dir_9c2311bfeda3fb38e02fb69ee46566d3 -->
<g id="edge1" class="edge"><title>dir_ed04e426e99dbe57a6e59c8944ea6785&#45;&gt;dir_9c2311bfeda3fb38e02fb69ee46566d3</title>
<path fill="none" stroke="black" d="M214.11,-100.179C210.699,-98.7676 207.276,-97.3523 204,-96 176.042,-84.4606 144.653,-71.5632 119.839,-61.3806"/>
<polygon fill="black" stroke="black" points="120.908,-58.0362 110.328,-57.4787 118.251,-64.5124 120.908,-58.0362"/>
<g id="a_edge1&#45;headlabel"><a xlink:href="dir_000320_000307.html" target="_top" xlink:title="1">
<text text-anchor="middle" x="125.311" y="-54.2737" font-family="Helvetica,sans-Serif" font-size="10.00">1</text>
</a>
</g>
</g>
<!-- dir_45d378d1db9f2a6c19d0ae38b88bf2f2 -->
<g id="node7" class="node"><title>dir_45d378d1db9f2a6c19d0ae38b88bf2f2</title>
<g id="a_node7"><a xlink:href="dir_45d378d1db9f2a6c19d0ae38b88bf2f2.html" target="_top" xlink:title="Workflow">
<polygon fill="white" stroke="red" points="81.5,-204 24.5,-204 24.5,-168 81.5,-168 81.5,-204"/>
<text text-anchor="middle" x="53" y="-183.5" font-family="Helvetica,sans-Serif" font-size="10.00">Workflow</text>
</a>
</g>
</g>
<!-- dir_45d378d1db9f2a6c19d0ae38b88bf2f2&#45;&gt;dir_9c2311bfeda3fb38e02fb69ee46566d3 -->
<g id="edge4" class="edge"><title>dir_45d378d1db9f2a6c19d0ae38b88bf2f2&#45;&gt;dir_9c2311bfeda3fb38e02fb69ee46566d3</title>
<path fill="none" stroke="black" d="M44.3678,-167.944C36.3669,-149.784 26.8376,-120.365 35,-96 38.3506,-85.9984 44.4161,-76.3756 50.8277,-68.1385"/>
<polygon fill="black" stroke="black" points="53.5606,-70.3261 57.2669,-60.4006 48.18,-65.8485 53.5606,-70.3261"/>
<g id="a_edge4&#45;headlabel"><a xlink:href="dir_000325_000307.html" target="_top" xlink:title="1">
<text text-anchor="middle" x="53.4437" y="-72.4052" font-family="Helvetica,sans-Serif" font-size="10.00">1</text>
</a>
</g>
</g>
<!-- dir_45d378d1db9f2a6c19d0ae38b88bf2f2&#45;&gt;dir_3e4e15287e49cb295431b9ceb891089a -->
<g id="edge7" class="edge"><title>dir_45d378d1db9f2a6c19d0ae38b88bf2f2&#45;&gt;dir_3e4e15287e49cb295431b9ceb891089a</title>
<path fill="none" stroke="black" d="M58.4382,-167.697C60.8892,-159.898 63.8402,-150.509 66.568,-141.829"/>
<polygon fill="black" stroke="black" points="69.965,-142.694 69.6244,-132.104 63.287,-140.595 69.965,-142.694"/>
<g id="a_edge7&#45;headlabel"><a xlink:href="dir_000325_000177.html" target="_top" xlink:title="1">
<text text-anchor="middle" x="71.596" y="-144.474" font-family="Helvetica,sans-Serif" font-size="10.00">1</text>
</a>
</g>
</g>
<!-- dir_45d378d1db9f2a6c19d0ae38b88bf2f2&#45;&gt;dir_27aa4c457c70931ae4284a576d00171f -->
<g id="edge3" class="edge"><title>dir_45d378d1db9f2a6c19d0ae38b88bf2f2&#45;&gt;dir_27aa4c457c70931ae4284a576d00171f</title>
<path fill="none" stroke="black" d="M79.1751,-167.876C93.0359,-158.808 110.241,-147.552 125.211,-137.759"/>
<polygon fill="black" stroke="black" points="127.272,-140.593 133.724,-132.19 123.44,-134.735 127.272,-140.593"/>
<g id="a_edge3&#45;headlabel"><a xlink:href="dir_000325_000315.html" target="_top" xlink:title="6">
<text text-anchor="middle" x="125.818" y="-142.437" font-family="Helvetica,sans-Serif" font-size="10.00">6</text>
</a>
</g>
</g>
<!-- dir_bcbb2cf9a3d3d83e5515c82071a07177 -->
<g id="node8" class="node"><title>dir_bcbb2cf9a3d3d83e5515c82071a07177</title>
<g id="a_node8"><a xlink:href="dir_bcbb2cf9a3d3d83e5515c82071a07177.html" target="_top" xlink:title="Framework">
<polygon fill="none" stroke="red" points="365.25,-132 300.75,-132 300.75,-96 365.25,-96 365.25,-132"/>
<text text-anchor="middle" x="333" y="-111.5" font-family="Helvetica,sans-Serif" font-size="10.00">Framework</text>
</a>
</g>
</g>
<!-- dir_45d378d1db9f2a6c19d0ae38b88bf2f2&#45;&gt;dir_bcbb2cf9a3d3d83e5515c82071a07177 -->
<g id="edge5" class="edge"><title>dir_45d378d1db9f2a6c19d0ae38b88bf2f2&#45;&gt;dir_bcbb2cf9a3d3d83e5515c82071a07177</title>
<path fill="none" stroke="black" d="M81.7693,-171.272C84.8469,-170.062 87.9627,-168.942 91,-168 176.012,-141.637 202.242,-155.824 288,-132 288.88,-131.755 289.767,-131.501 290.659,-131.237"/>
<polygon fill="black" stroke="black" points="291.848,-134.532 300.295,-128.137 289.703,-127.868 291.848,-134.532"/>
<g id="a_edge5&#45;headlabel"><a xlink:href="dir_000325_000253.html" target="_top" xlink:title="7">
<text text-anchor="middle" x="289.296" y="-135.835" font-family="Helvetica,sans-Serif" font-size="10.00">7</text>
</a>
</g>
</g>
<!-- dir_2171f7ec022c5423887b07c69b2f5b48 -->
<g id="node9" class="node"><title>dir_2171f7ec022c5423887b07c69b2f5b48</title>
<g id="a_node9"><a xlink:href="dir_2171f7ec022c5423887b07c69b2f5b48.html" target="_top" xlink:title="DataFormats">
<polygon fill="none" stroke="red" points="402,-60 328,-60 328,-24 402,-24 402,-60"/>
<text text-anchor="middle" x="365" y="-39.5" font-family="Helvetica,sans-Serif" font-size="10.00">DataFormats</text>
</a>
</g>
</g>
<!-- dir_45d378d1db9f2a6c19d0ae38b88bf2f2&#45;&gt;dir_2171f7ec022c5423887b07c69b2f5b48 -->
<g id="edge6" class="edge"><title>dir_45d378d1db9f2a6c19d0ae38b88bf2f2&#45;&gt;dir_2171f7ec022c5423887b07c69b2f5b48</title>
<path fill="none" stroke="black" d="M81.7191,-171.102C84.8064,-169.925 87.9383,-168.859 91,-168 152.038,-150.871 332.096,-179.572 374,-132 388.773,-115.229 384.092,-89.1871 377.161,-69.5985"/>
<polygon fill="black" stroke="black" points="380.321,-68.0679 373.423,-60.0264 373.801,-70.6145 380.321,-68.0679"/>
<g id="a_edge6&#45;headlabel"><a xlink:href="dir_000325_000038.html" target="_top" xlink:title="1">
<text text-anchor="middle" x="384.273" y="-67.8833" font-family="Helvetica,sans-Serif" font-size="10.00">1</text>
</a>
</g>
</g>
<!-- dir_bcbb2cf9a3d3d83e5515c82071a07177&#45;&gt;dir_2171f7ec022c5423887b07c69b2f5b48 -->
<g id="edge2" class="edge"><title>dir_bcbb2cf9a3d3d83e5515c82071a07177&#45;&gt;dir_2171f7ec022c5423887b07c69b2f5b48</title>
<path fill="none" stroke="black" d="M340.91,-95.6966C344.553,-87.7284 348.954,-78.0995 352.994,-69.2641"/>
<polygon fill="black" stroke="black" points="356.206,-70.6543 357.181,-60.1043 349.84,-67.7439 356.206,-70.6543"/>
<g id="a_edge2&#45;headlabel"><a xlink:href="dir_000253_000038.html" target="_top" xlink:title="14">
<text text-anchor="middle" x="357.294" y="-72.6039" font-family="Helvetica,sans-Serif" font-size="10.00">14</text>
</a>
</g>
</g>
</g>
</svg>
