<?xml version="1.0" encoding="UTF-8" standalone="no"?>
<!DOCTYPE svg PUBLIC "-//W3C//DTD SVG 1.1//EN"
 "http://www.w3.org/Graphics/SVG/1.1/DTD/svg11.dtd">
<!-- Generated by graphviz version 2.36.0 (20140111.2315)
 -->
<!-- Title: /home/travis/build/AliceO2Group/AliceO2/Detectors/TRD/simulation Pages: 1 -->
<svg width="263pt" height="303pt"
 viewBox="0.00 0.00 263.31 303.00" xmlns="http://www.w3.org/2000/svg" xmlns:xlink="http://www.w3.org/1999/xlink">
<g id="graph0" class="graph" transform="scale(1 1) rotate(0) translate(4 299)">
<title>/home/travis/build/AliceO2Group/AliceO2/Detectors/TRD/simulation</title>
<g id="clust1" class="cluster"><title>clusterdir_69dd0583e11051991bf4c0cf23c50933</title>
<g id="a_clust1"><a xlink:href="dir_69dd0583e11051991bf4c0cf23c50933.html" target="_top" xlink:title="TRD">
<polygon fill="#ddddee" stroke="black" points="8,-128 8,-287 174,-287 174,-128 8,-128"/>
<text text-anchor="middle" x="91" y="-275" font-family="Helvetica,sans-Serif" font-size="10.00">TRD</text>
</a>
</g>
</g>
<g id="clust2" class="cluster"><title>clusterdir_5cb2a8e9fdbe67a11efb4176f60bf3d6</title>
<g id="a_clust2"><a xlink:href="dir_5cb2a8e9fdbe67a11efb4176f60bf3d6.html" target="_top">
<polygon fill="#eeeeff" stroke="black" points="16,-136 16,-260 166,-260 166,-136 16,-136"/>
</a>
</g>
</g>
<!-- dir_5cb2a8e9fdbe67a11efb4176f60bf3d6 -->
<g id="node1" class="node"><title>dir_5cb2a8e9fdbe67a11efb4176f60bf3d6</title>
<text text-anchor="middle" x="127" y="-231.5" font-family="Helvetica,sans-Serif" font-size="10.00">simulation</text>
</g>
<!-- dir_5036081dbf3ad3ea0cfa218a95bb99de -->
<g id="node2" class="node"><title>dir_5036081dbf3ad3ea0cfa218a95bb99de</title>
<g id="a_node2"><a xlink:href="dir_5036081dbf3ad3ea0cfa218a95bb99de.html" target="_top" xlink:title="include">
<polygon fill="white" stroke="red" points="118,-180 64,-180 64,-144 118,-144 118,-180"/>
<text text-anchor="middle" x="91" y="-159.5" font-family="Helvetica,sans-Serif" font-size="10.00">include</text>
</a>
</g>
</g>
<!-- dir_37c90836491b695b472bf98d1be8336b -->
<g id="node4" class="node"><title>dir_37c90836491b695b472bf98d1be8336b</title>
<g id="a_node4"><a xlink:href="dir_37c90836491b695b472bf98d1be8336b.html" target="_top" xlink:title="Base">
<polygon fill="none" stroke="red" points="150,-36 96,-36 96,-0 150,-0 150,-36"/>
<text text-anchor="middle" x="123" y="-15.5" font-family="Helvetica,sans-Serif" font-size="10.00">Base</text>
</a>
</g>
</g>
<!-- dir_5036081dbf3ad3ea0cfa218a95bb99de&#45;&gt;dir_37c90836491b695b472bf98d1be8336b -->
<g id="edge4" class="edge"><title>dir_5036081dbf3ad3ea0cfa218a95bb99de&#45;&gt;dir_37c90836491b695b472bf98d1be8336b</title>
<path fill="none" stroke="black" d="M94.4898,-143.904C98.1899,-125.961 104.279,-96.9477 110,-72 111.936,-63.5592 114.146,-54.3891 116.189,-46.0867"/>
<polygon fill="black" stroke="black" points="119.642,-46.7031 118.653,-36.1546 112.848,-45.0176 119.642,-46.7031"/>
<g id="a_edge4&#45;headlabel"><a xlink:href="dir_000110_000067.html" target="_top" xlink:title="1">
<text text-anchor="middle" x="121.532" y="-48.3756" font-family="Helvetica,sans-Serif" font-size="10.00">1</text>
</a>
</g>
</g>
<!-- dir_2171f7ec022c5423887b07c69b2f5b48 -->
<g id="node6" class="node"><title>dir_2171f7ec022c5423887b07c69b2f5b48</title>
<g id="a_node6"><a xlink:href="dir_2171f7ec022c5423887b07c69b2f5b48.html" target="_top" xlink:title="DataFormats">
<polygon fill="none" stroke="red" points="193,-108 119,-108 119,-72 193,-72 193,-108"/>
<text text-anchor="middle" x="156" y="-87.5" font-family="Helvetica,sans-Serif" font-size="10.00">DataFormats</text>
</a>
</g>
</g>
<!-- dir_5036081dbf3ad3ea0cfa218a95bb99de&#45;&gt;dir_2171f7ec022c5423887b07c69b2f5b48 -->
<g id="edge5" class="edge"><title>dir_5036081dbf3ad3ea0cfa218a95bb99de&#45;&gt;dir_2171f7ec022c5423887b07c69b2f5b48</title>
<path fill="none" stroke="black" d="M107.067,-143.697C114.939,-135.22 124.555,-124.864 133.173,-115.583"/>
<polygon fill="black" stroke="black" points="135.878,-117.814 140.117,-108.104 130.748,-113.051 135.878,-117.814"/>
<g id="a_edge5&#45;headlabel"><a xlink:href="dir_000110_000038.html" target="_top" xlink:title="1">
<text text-anchor="middle" x="135.512" y="-119.88" font-family="Helvetica,sans-Serif" font-size="10.00">1</text>
</a>
</g>
</g>
<!-- dir_41d98617f9e68bb8925b5f8794afb89b -->
<g id="node3" class="node"><title>dir_41d98617f9e68bb8925b5f8794afb89b</title>
<g id="a_node3"><a xlink:href="dir_41d98617f9e68bb8925b5f8794afb89b.html" target="_top" xlink:title="src">
<polygon fill="white" stroke="black" points="78,-252 24,-252 24,-216 78,-216 78,-252"/>
<text text-anchor="middle" x="51" y="-231.5" font-family="Helvetica,sans-Serif" font-size="10.00">src</text>
</a>
</g>
</g>
<!-- dir_41d98617f9e68bb8925b5f8794afb89b&#45;&gt;dir_5036081dbf3ad3ea0cfa218a95bb99de -->
<g id="edge2" class="edge"><title>dir_41d98617f9e68bb8925b5f8794afb89b&#45;&gt;dir_5036081dbf3ad3ea0cfa218a95bb99de</title>
<path fill="none" stroke="black" d="M60.8876,-215.697C65.4893,-207.644 71.0603,-197.894 76.1529,-188.982"/>
<polygon fill="black" stroke="black" points="79.3035,-190.523 81.2261,-180.104 73.2258,-187.05 79.3035,-190.523"/>
<g id="a_edge2&#45;headlabel"><a xlink:href="dir_000127_000110.html" target="_top" xlink:title="1">
<text text-anchor="middle" x="79.9853" y="-192.553" font-family="Helvetica,sans-Serif" font-size="10.00">1</text>
</a>
</g>
</g>
<!-- dir_09bf7f7c4011a5ccc426492db4dd0891 -->
<g id="node5" class="node"><title>dir_09bf7f7c4011a5ccc426492db4dd0891</title>
<g id="a_node5"><a xlink:href="dir_09bf7f7c4011a5ccc426492db4dd0891.html" target="_top" xlink:title="base">
<polygon fill="none" stroke="red" points="236,-180 182,-180 182,-144 236,-144 236,-180"/>
<text text-anchor="middle" x="209" y="-159.5" font-family="Helvetica,sans-Serif" font-size="10.00">base</text>
</a>
</g>
</g>
<!-- dir_41d98617f9e68bb8925b5f8794afb89b&#45;&gt;dir_09bf7f7c4011a5ccc426492db4dd0891 -->
<g id="edge1" class="edge"><title>dir_41d98617f9e68bb8925b5f8794afb89b&#45;&gt;dir_09bf7f7c4011a5ccc426492db4dd0891</title>
<path fill="none" stroke="black" d="M78.0838,-220.097C81.0859,-218.701 84.1037,-217.312 87,-216 123.629,-199.413 133.126,-196.034 170,-180 170.83,-179.639 171.669,-179.274 172.516,-178.906"/>
<polygon fill="black" stroke="black" points="173.956,-182.096 181.728,-174.895 171.162,-175.678 173.956,-182.096"/>
<g id="a_edge1&#45;headlabel"><a xlink:href="dir_000127_000216.html" target="_top" xlink:title="2">
<text text-anchor="middle" x="171.793" y="-183.634" font-family="Helvetica,sans-Serif" font-size="10.00">2</text>
</a>
</g>
</g>
<!-- dir_41d98617f9e68bb8925b5f8794afb89b&#45;&gt;dir_2171f7ec022c5423887b07c69b2f5b48 -->
<g id="edge3" class="edge"><title>dir_41d98617f9e68bb8925b5f8794afb89b&#45;&gt;dir_2171f7ec022c5423887b07c69b2f5b48</title>
<path fill="none" stroke="black" d="M78.2612,-219.377C81.1756,-218.147 84.1255,-216.993 87,-216 155.075,-192.485 200.084,-236.301 245,-180 259.413,-161.934 257.827,-147.224 245,-128 235.463,-113.707 219.257,-104.927 203.266,-99.5369"/>
<polygon fill="black" stroke="black" points="203.982,-96.0984 193.4,-96.6002 201.986,-102.808 203.982,-96.0984"/>
<g id="a_edge3&#45;headlabel"><a xlink:href="dir_000127_000038.html" target="_top" xlink:title="1">
<text text-anchor="middle" x="208.238" y="-91.9025" font-family="Helvetica,sans-Serif" font-size="10.00">1</text>
</a>
</g>
</g>
<!-- dir_2171f7ec022c5423887b07c69b2f5b48&#45;&gt;dir_37c90836491b695b472bf98d1be8336b -->
<g id="edge6" class="edge"><title>dir_2171f7ec022c5423887b07c69b2f5b48&#45;&gt;dir_37c90836491b695b472bf98d1be8336b</title>
<path fill="none" stroke="black" d="M147.843,-71.6966C144.086,-63.7284 139.547,-54.0995 135.382,-45.2641"/>
<polygon fill="black" stroke="black" points="138.494,-43.6571 131.063,-36.1043 132.162,-46.6421 138.494,-43.6571"/>
<g id="a_edge6&#45;headlabel"><a xlink:href="dir_000038_000067.html" target="_top" xlink:title="6">
<text text-anchor="middle" x="142.595" y="-43.1978" font-family="Helvetica,sans-Serif" font-size="10.00">6</text>
</a>
</g>
</g>
</g>
</svg>
