<?xml version="1.0" encoding="UTF-8" standalone="no"?>
<!DOCTYPE svg PUBLIC "-//W3C//DTD SVG 1.1//EN"
 "http://www.w3.org/Graphics/SVG/1.1/DTD/svg11.dtd">
<!-- Generated by graphviz version 2.36.0 (20140111.2315)
 -->
<!-- Title: /home/travis/build/AliceO2Group/AliceO2/Detectors/TRD/simulation/include/TRDSimulation Pages: 1 -->
<svg width="136pt" height="223pt"
 viewBox="0.00 0.00 136.00 223.00" xmlns="http://www.w3.org/2000/svg" xmlns:xlink="http://www.w3.org/1999/xlink">
<g id="graph0" class="graph" transform="scale(1 1) rotate(0) translate(4 219)">
<title>/home/travis/build/AliceO2Group/AliceO2/Detectors/TRD/simulation/include/TRDSimulation</title>
<g id="clust1" class="cluster"><title>clusterdir_5036081dbf3ad3ea0cfa218a95bb99de</title>
<g id="a_clust1"><a xlink:href="dir_5036081dbf3ad3ea0cfa218a95bb99de.html" target="_top" xlink:title="include">
<polygon fill="#ddddee" stroke="black" points="8,-136 8,-207 108,-207 108,-136 8,-136"/>
<text text-anchor="middle" x="58" y="-195" font-family="Helvetica,sans-Serif" font-size="10.00">include</text>
</a>
</g>
</g>
<!-- dir_e2912eb33f21a3ee91380f3534cea6a7 -->
<g id="node1" class="node"><title>dir_e2912eb33f21a3ee91380f3534cea6a7</title>
<g id="a_node1"><a xlink:href="dir_e2912eb33f21a3ee91380f3534cea6a7.html" target="_top" xlink:title="TRDSimulation">
<polygon fill="#eeeeff" stroke="black" points="99.25,-180 16.75,-180 16.75,-144 99.25,-144 99.25,-180"/>
<text text-anchor="middle" x="58" y="-159.5" font-family="Helvetica,sans-Serif" font-size="10.00">TRDSimulation</text>
</a>
</g>
</g>
<!-- dir_37c90836491b695b472bf98d1be8336b -->
<g id="node2" class="node"><title>dir_37c90836491b695b472bf98d1be8336b</title>
<g id="a_node2"><a xlink:href="dir_37c90836491b695b472bf98d1be8336b.html" target="_top" xlink:title="Base">
<polygon fill="none" stroke="red" points="85,-36 31,-36 31,-0 85,-0 85,-36"/>
<text text-anchor="middle" x="58" y="-15.5" font-family="Helvetica,sans-Serif" font-size="10.00">Base</text>
</a>
</g>
</g>
<!-- dir_e2912eb33f21a3ee91380f3534cea6a7&#45;&gt;dir_37c90836491b695b472bf98d1be8336b -->
<g id="edge1" class="edge"><title>dir_e2912eb33f21a3ee91380f3534cea6a7&#45;&gt;dir_37c90836491b695b472bf98d1be8336b</title>
<path fill="none" stroke="black" d="M52.5912,-143.529C49.705,-133.289 46.455,-120.039 45,-108 43.0804,-92.1156 43.0804,-87.8844 45,-72 46.023,-63.5349 47.9335,-54.4712 49.9809,-46.2761"/>
<polygon fill="black" stroke="black" points="53.4009,-47.0344 52.5912,-36.4705 46.6365,-45.2336 53.4009,-47.0344"/>
<g id="a_edge1&#45;headlabel"><a xlink:href="dir_000111_000067.html" target="_top" xlink:title="1">
<text text-anchor="middle" x="55.22" y="-48.7384" font-family="Helvetica,sans-Serif" font-size="10.00">1</text>
</a>
</g>
</g>
<!-- dir_2171f7ec022c5423887b07c69b2f5b48 -->
<g id="node3" class="node"><title>dir_2171f7ec022c5423887b07c69b2f5b48</title>
<g id="a_node3"><a xlink:href="dir_2171f7ec022c5423887b07c69b2f5b48.html" target="_top" xlink:title="DataFormats">
<polygon fill="none" stroke="red" points="128,-108 54,-108 54,-72 128,-72 128,-108"/>
<text text-anchor="middle" x="91" y="-87.5" font-family="Helvetica,sans-Serif" font-size="10.00">DataFormats</text>
</a>
</g>
</g>
<!-- dir_e2912eb33f21a3ee91380f3534cea6a7&#45;&gt;dir_2171f7ec022c5423887b07c69b2f5b48 -->
<g id="edge2" class="edge"><title>dir_e2912eb33f21a3ee91380f3534cea6a7&#45;&gt;dir_2171f7ec022c5423887b07c69b2f5b48</title>
<path fill="none" stroke="black" d="M66.1573,-143.697C69.9138,-135.728 74.4531,-126.1 78.6183,-117.264"/>
<polygon fill="black" stroke="black" points="81.8381,-118.642 82.9365,-108.104 75.5064,-115.657 81.8381,-118.642"/>
<g id="a_edge2&#45;headlabel"><a xlink:href="dir_000111_000038.html" target="_top" xlink:title="1">
<text text-anchor="middle" x="82.8736" y="-120.604" font-family="Helvetica,sans-Serif" font-size="10.00">1</text>
</a>
</g>
</g>
<!-- dir_2171f7ec022c5423887b07c69b2f5b48&#45;&gt;dir_37c90836491b695b472bf98d1be8336b -->
<g id="edge3" class="edge"><title>dir_2171f7ec022c5423887b07c69b2f5b48&#45;&gt;dir_37c90836491b695b472bf98d1be8336b</title>
<path fill="none" stroke="black" d="M82.8427,-71.6966C79.0862,-63.7284 74.5469,-54.0995 70.3817,-45.2641"/>
<polygon fill="black" stroke="black" points="73.4936,-43.6571 66.0635,-36.1043 67.1619,-46.6421 73.4936,-43.6571"/>
<g id="a_edge3&#45;headlabel"><a xlink:href="dir_000038_000067.html" target="_top" xlink:title="6">
<text text-anchor="middle" x="77.5945" y="-43.1978" font-family="Helvetica,sans-Serif" font-size="10.00">6</text>
</a>
</g>
</g>
</g>
</svg>
