<?xml version="1.0" encoding="UTF-8" standalone="no"?>
<!DOCTYPE svg PUBLIC "-//W3C//DTD SVG 1.1//EN"
 "http://www.w3.org/Graphics/SVG/1.1/DTD/svg11.dtd">
<!-- Generated by graphviz version 2.36.0 (20140111.2315)
 -->
<!-- Title: /home/travis/build/AliceO2Group/AliceO2/Framework Pages: 1 -->
<svg width="350pt" height="348pt"
 viewBox="0.00 0.00 350.00 348.00" xmlns="http://www.w3.org/2000/svg" xmlns:xlink="http://www.w3.org/1999/xlink">
<g id="graph0" class="graph" transform="scale(1 1) rotate(0) translate(4 344)">
<title>/home/travis/build/AliceO2Group/AliceO2/Framework</title>
<g id="clust1" class="cluster"><title>clusterdir_bcbb2cf9a3d3d83e5515c82071a07177</title>
<g id="a_clust1"><a xlink:href="dir_bcbb2cf9a3d3d83e5515c82071a07177.html" target="_top">
<polygon fill="#eeeeff" stroke="black" points="8,-136 8,-332 191,-332 191,-136 8,-136"/>
</a>
</g>
</g>
<!-- dir_bcbb2cf9a3d3d83e5515c82071a07177 -->
<g id="node1" class="node"><title>dir_bcbb2cf9a3d3d83e5515c82071a07177</title>
<text text-anchor="middle" x="150" y="-303.5" font-family="Helvetica,sans-Serif" font-size="10.00">Framework</text>
</g>
<!-- dir_9f165b2481dacfe69aa54d326bd5cd47 -->
<g id="node2" class="node"><title>dir_9f165b2481dacfe69aa54d326bd5cd47</title>
<g id="a_node2"><a xlink:href="dir_9f165b2481dacfe69aa54d326bd5cd47.html" target="_top" xlink:title="Core">
<polygon fill="white" stroke="red" points="99,-252 45,-252 45,-216 99,-216 99,-252"/>
<text text-anchor="middle" x="72" y="-231.5" font-family="Helvetica,sans-Serif" font-size="10.00">Core</text>
</a>
</g>
</g>
<!-- dir_f0af9df59806ed8bcb6931e6b1774828 -->
<g id="node3" class="node"><title>dir_f0af9df59806ed8bcb6931e6b1774828</title>
<g id="a_node3"><a xlink:href="dir_f0af9df59806ed8bcb6931e6b1774828.html" target="_top" xlink:title="DebugGUI">
<polygon fill="white" stroke="red" points="103.25,-180 40.75,-180 40.75,-144 103.25,-144 103.25,-180"/>
<text text-anchor="middle" x="72" y="-159.5" font-family="Helvetica,sans-Serif" font-size="10.00">DebugGUI</text>
</a>
</g>
</g>
<!-- dir_9f165b2481dacfe69aa54d326bd5cd47&#45;&gt;dir_f0af9df59806ed8bcb6931e6b1774828 -->
<g id="edge6" class="edge"><title>dir_9f165b2481dacfe69aa54d326bd5cd47&#45;&gt;dir_f0af9df59806ed8bcb6931e6b1774828</title>
<path fill="none" stroke="black" d="M72,-215.697C72,-207.983 72,-198.712 72,-190.112"/>
<polygon fill="black" stroke="black" points="75.5001,-190.104 72,-180.104 68.5001,-190.104 75.5001,-190.104"/>
<g id="a_edge6&#45;headlabel"><a xlink:href="dir_000254_000259.html" target="_top" xlink:title="3">
<text text-anchor="middle" x="78.3393" y="-191.199" font-family="Helvetica,sans-Serif" font-size="10.00">3</text>
</a>
</g>
</g>
<!-- dir_2171f7ec022c5423887b07c69b2f5b48 -->
<g id="node8" class="node"><title>dir_2171f7ec022c5423887b07c69b2f5b48</title>
<g id="a_node8"><a xlink:href="dir_2171f7ec022c5423887b07c69b2f5b48.html" target="_top" xlink:title="DataFormats">
<polygon fill="none" stroke="red" points="273,-180 199,-180 199,-144 273,-144 273,-180"/>
<text text-anchor="middle" x="236" y="-159.5" font-family="Helvetica,sans-Serif" font-size="10.00">DataFormats</text>
</a>
</g>
</g>
<!-- dir_9f165b2481dacfe69aa54d326bd5cd47&#45;&gt;dir_2171f7ec022c5423887b07c69b2f5b48 -->
<g id="edge7" class="edge"><title>dir_9f165b2481dacfe69aa54d326bd5cd47&#45;&gt;dir_2171f7ec022c5423887b07c69b2f5b48</title>
<path fill="none" stroke="black" d="M99.0813,-221.441C123.627,-210.964 160.324,-195.301 189.549,-182.827"/>
<polygon fill="black" stroke="black" points="190.927,-186.044 198.751,-178.899 188.179,-179.606 190.927,-186.044"/>
<g id="a_edge7&#45;headlabel"><a xlink:href="dir_000254_000038.html" target="_top" xlink:title="12">
<text text-anchor="middle" x="188.736" y="-187.566" font-family="Helvetica,sans-Serif" font-size="10.00">12</text>
</a>
</g>
</g>
<!-- dir_a8f73827fca2a0188d35dc47dc5b0ea3 -->
<g id="node4" class="node"><title>dir_a8f73827fca2a0188d35dc47dc5b0ea3</title>
<g id="a_node4"><a xlink:href="dir_a8f73827fca2a0188d35dc47dc5b0ea3.html" target="_top" xlink:title="TestWorkflows">
<polygon fill="white" stroke="red" points="99.25,-324 16.75,-324 16.75,-288 99.25,-288 99.25,-324"/>
<text text-anchor="middle" x="58" y="-303.5" font-family="Helvetica,sans-Serif" font-size="10.00">TestWorkflows</text>
</a>
</g>
</g>
<!-- dir_a8f73827fca2a0188d35dc47dc5b0ea3&#45;&gt;dir_9f165b2481dacfe69aa54d326bd5cd47 -->
<g id="edge3" class="edge"><title>dir_a8f73827fca2a0188d35dc47dc5b0ea3&#45;&gt;dir_9f165b2481dacfe69aa54d326bd5cd47</title>
<path fill="none" stroke="black" d="M61.4607,-287.697C63.0035,-279.983 64.8575,-270.712 66.5775,-262.112"/>
<polygon fill="black" stroke="black" points="70.0499,-262.597 68.5791,-252.104 63.1859,-261.224 70.0499,-262.597"/>
<g id="a_edge3&#45;headlabel"><a xlink:href="dir_000265_000254.html" target="_top" xlink:title="41">
<text text-anchor="middle" x="72.1292" y="-264.178" font-family="Helvetica,sans-Serif" font-size="10.00">41</text>
</a>
</g>
</g>
<!-- dir_0b342c6c6b7d2278121a0bb9c4985063 -->
<g id="node5" class="node"><title>dir_0b342c6c6b7d2278121a0bb9c4985063</title>
<g id="a_node5"><a xlink:href="dir_0b342c6c6b7d2278121a0bb9c4985063.html" target="_top" xlink:title="Generators">
<polygon fill="none" stroke="red" points="342.25,-36 277.75,-36 277.75,-0 342.25,-0 342.25,-36"/>
<text text-anchor="middle" x="310" y="-15.5" font-family="Helvetica,sans-Serif" font-size="10.00">Generators</text>
</a>
</g>
</g>
<!-- dir_a8f73827fca2a0188d35dc47dc5b0ea3&#45;&gt;dir_0b342c6c6b7d2278121a0bb9c4985063 -->
<g id="edge1" class="edge"><title>dir_a8f73827fca2a0188d35dc47dc5b0ea3&#45;&gt;dir_0b342c6c6b7d2278121a0bb9c4985063</title>
<path fill="none" stroke="black" d="M99.3986,-290.673C102.302,-289.745 105.191,-288.846 108,-288 168.285,-269.856 192.92,-287.371 245,-252 277.871,-229.675 284.208,-217.265 298,-180 314.52,-135.365 314.404,-79.1079 312.453,-46.2848"/>
<polygon fill="black" stroke="black" points="315.931,-45.8345 311.743,-36.1025 308.947,-46.3219 315.931,-45.8345"/>
<g id="a_edge1&#45;headlabel"><a xlink:href="dir_000265_000268.html" target="_top" xlink:title="1">
<text text-anchor="middle" x="319.013" y="-46.7228" font-family="Helvetica,sans-Serif" font-size="10.00">1</text>
</a>
</g>
</g>
<!-- dir_4ab6b4cc6a7edbff49100e9123df213f -->
<g id="node6" class="node"><title>dir_4ab6b4cc6a7edbff49100e9123df213f</title>
<g id="a_node6"><a xlink:href="dir_4ab6b4cc6a7edbff49100e9123df213f.html" target="_top" xlink:title="Common">
<polygon fill="none" stroke="red" points="230.5,-36 175.5,-36 175.5,-0 230.5,-0 230.5,-36"/>
<text text-anchor="middle" x="203" y="-15.5" font-family="Helvetica,sans-Serif" font-size="10.00">Common</text>
</a>
</g>
</g>
<!-- dir_a8f73827fca2a0188d35dc47dc5b0ea3&#45;&gt;dir_4ab6b4cc6a7edbff49100e9123df213f -->
<g id="edge2" class="edge"><title>dir_a8f73827fca2a0188d35dc47dc5b0ea3&#45;&gt;dir_4ab6b4cc6a7edbff49100e9123df213f</title>
<path fill="none" stroke="black" d="M77.4021,-287.78C87.5167,-278.038 99.5128,-265.191 108,-252 152.093,-183.468 182.37,-91.0925 195.553,-46.0124"/>
<polygon fill="black" stroke="black" points="198.998,-46.6964 198.392,-36.1189 192.269,-44.7654 198.998,-46.6964"/>
<g id="a_edge2&#45;headlabel"><a xlink:href="dir_000265_000016.html" target="_top" xlink:title="2">
<text text-anchor="middle" x="200.735" y="-48.4348" font-family="Helvetica,sans-Serif" font-size="10.00">2</text>
</a>
</g>
</g>
<!-- dir_051dca18e802f8e9474f2e30d29c04e0 -->
<g id="node7" class="node"><title>dir_051dca18e802f8e9474f2e30d29c04e0</title>
<g id="a_node7"><a xlink:href="dir_051dca18e802f8e9474f2e30d29c04e0.html" target="_top" xlink:title="Detectors">
<polygon fill="none" stroke="red" points="290.25,-108 231.75,-108 231.75,-72 290.25,-72 290.25,-108"/>
<text text-anchor="middle" x="261" y="-87.5" font-family="Helvetica,sans-Serif" font-size="10.00">Detectors</text>
</a>
</g>
</g>
<!-- dir_a8f73827fca2a0188d35dc47dc5b0ea3&#45;&gt;dir_051dca18e802f8e9474f2e30d29c04e0 -->
<g id="edge4" class="edge"><title>dir_a8f73827fca2a0188d35dc47dc5b0ea3&#45;&gt;dir_051dca18e802f8e9474f2e30d29c04e0</title>
<path fill="none" stroke="black" d="M99.2723,-290.831C138.801,-277.112 193.773,-257.59 203,-252 243.63,-227.382 262.809,-223.457 282,-180 290.82,-160.027 284.103,-135.827 275.996,-117.707"/>
<polygon fill="black" stroke="black" points="278.959,-115.795 271.44,-108.331 272.663,-118.855 278.959,-115.795"/>
<g id="a_edge4&#45;headlabel"><a xlink:href="dir_000265_000066.html" target="_top" xlink:title="4">
<text text-anchor="middle" x="283.083" y="-115.287" font-family="Helvetica,sans-Serif" font-size="10.00">4</text>
</a>
</g>
</g>
<!-- dir_a8f73827fca2a0188d35dc47dc5b0ea3&#45;&gt;dir_2171f7ec022c5423887b07c69b2f5b48 -->
<g id="edge5" class="edge"><title>dir_a8f73827fca2a0188d35dc47dc5b0ea3&#45;&gt;dir_2171f7ec022c5423887b07c69b2f5b48</title>
<path fill="none" stroke="black" d="M99.4632,-288.339C127.003,-276.785 160.187,-261.775 172,-252 193.169,-234.483 210.817,-208.417 222.182,-189.016"/>
<polygon fill="black" stroke="black" points="225.353,-190.519 227.244,-180.094 219.265,-187.064 225.353,-190.519"/>
<g id="a_edge5&#45;headlabel"><a xlink:href="dir_000265_000038.html" target="_top" xlink:title="2">
<text text-anchor="middle" x="226.049" y="-192.546" font-family="Helvetica,sans-Serif" font-size="10.00">2</text>
</a>
</g>
</g>
<!-- dir_051dca18e802f8e9474f2e30d29c04e0&#45;&gt;dir_0b342c6c6b7d2278121a0bb9c4985063 -->
<g id="edge8" class="edge"><title>dir_051dca18e802f8e9474f2e30d29c04e0&#45;&gt;dir_0b342c6c6b7d2278121a0bb9c4985063</title>
<path fill="none" stroke="black" d="M273.112,-71.6966C278.868,-63.4741 285.862,-53.4832 292.206,-44.4207"/>
<polygon fill="black" stroke="black" points="295.16,-46.3038 298.027,-36.1043 289.425,-42.2895 295.16,-46.3038"/>
<g id="a_edge8&#45;headlabel"><a xlink:href="dir_000066_000268.html" target="_top" xlink:title="1">
<text text-anchor="middle" x="295.424" y="-48.3768" font-family="Helvetica,sans-Serif" font-size="10.00">1</text>
</a>
</g>
</g>
<!-- dir_051dca18e802f8e9474f2e30d29c04e0&#45;&gt;dir_4ab6b4cc6a7edbff49100e9123df213f -->
<g id="edge9" class="edge"><title>dir_051dca18e802f8e9474f2e30d29c04e0&#45;&gt;dir_4ab6b4cc6a7edbff49100e9123df213f</title>
<path fill="none" stroke="black" d="M246.663,-71.6966C239.709,-63.3046 231.23,-53.0705 223.599,-43.8613"/>
<polygon fill="black" stroke="black" points="226.247,-41.5715 217.172,-36.1043 220.857,-46.0376 226.247,-41.5715"/>
<g id="a_edge9&#45;headlabel"><a xlink:href="dir_000066_000016.html" target="_top" xlink:title="33">
<text text-anchor="middle" x="230.727" y="-40.0279" font-family="Helvetica,sans-Serif" font-size="10.00">33</text>
</a>
</g>
</g>
<!-- dir_051dca18e802f8e9474f2e30d29c04e0&#45;&gt;dir_2171f7ec022c5423887b07c69b2f5b48 -->
<g id="edge10" class="edge"><title>dir_051dca18e802f8e9474f2e30d29c04e0&#45;&gt;dir_2171f7ec022c5423887b07c69b2f5b48</title>
<path fill="none" stroke="black" d="M260.786,-108.104C258.804,-115.96 255.639,-125.462 252.141,-134.232"/>
<polygon fill="black" stroke="black" points="248.808,-133.126 248.096,-143.697 255.244,-135.877 248.808,-133.126"/>
<g id="a_edge10&#45;headlabel"><a xlink:href="dir_000066_000038.html" target="_top" xlink:title="79">
<text text-anchor="middle" x="247.61" y="-126.204" font-family="Helvetica,sans-Serif" font-size="10.00">79</text>
</a>
</g>
</g>
<!-- dir_2171f7ec022c5423887b07c69b2f5b48&#45;&gt;dir_4ab6b4cc6a7edbff49100e9123df213f -->
<g id="edge11" class="edge"><title>dir_2171f7ec022c5423887b07c69b2f5b48&#45;&gt;dir_4ab6b4cc6a7edbff49100e9123df213f</title>
<path fill="none" stroke="black" d="M231.251,-143.867C228.438,-133.513 224.872,-120.034 222,-108 217.079,-87.383 212.098,-63.9328 208.471,-46.2809"/>
<polygon fill="black" stroke="black" points="211.826,-45.2166 206.4,-36.1166 204.967,-46.614 211.826,-45.2166"/>
<g id="a_edge11&#45;headlabel"><a xlink:href="dir_000038_000016.html" target="_top" xlink:title="4">
<text text-anchor="middle" x="215.326" y="-45.6722" font-family="Helvetica,sans-Serif" font-size="10.00">4</text>
</a>
</g>
</g>
<!-- dir_2171f7ec022c5423887b07c69b2f5b48&#45;&gt;dir_051dca18e802f8e9474f2e30d29c04e0 -->
<g id="edge12" class="edge"><title>dir_2171f7ec022c5423887b07c69b2f5b48&#45;&gt;dir_051dca18e802f8e9474f2e30d29c04e0</title>
<path fill="none" stroke="black" d="M236.264,-143.697C238.266,-135.813 241.444,-126.304 244.947,-117.546"/>
<polygon fill="black" stroke="black" points="248.272,-118.674 248.996,-108.104 241.838,-115.916 248.272,-118.674"/>
<g id="a_edge12&#45;headlabel"><a xlink:href="dir_000038_000066.html" target="_top" xlink:title="8">
<text text-anchor="middle" x="249.465" y="-120.597" font-family="Helvetica,sans-Serif" font-size="10.00">8</text>
</a>
</g>
</g>
</g>
</svg>
