<?xml version="1.0" encoding="UTF-8" standalone="no"?>
<!DOCTYPE svg PUBLIC "-//W3C//DTD SVG 1.1//EN"
 "http://www.w3.org/Graphics/SVG/1.1/DTD/svg11.dtd">
<!-- Generated by graphviz version 2.36.0 (20140111.2315)
 -->
<!-- Title: /home/travis/build/AliceO2Group/AliceO2/Detectors/ITSMFT/common/reconstruction/include Pages: 1 -->
<svg width="248pt" height="303pt"
 viewBox="0.00 0.00 248.00 303.00" xmlns="http://www.w3.org/2000/svg" xmlns:xlink="http://www.w3.org/1999/xlink">
<g id="graph0" class="graph" transform="scale(1 1) rotate(0) translate(4 299)">
<title>/home/travis/build/AliceO2Group/AliceO2/Detectors/ITSMFT/common/reconstruction/include</title>
<g id="clust1" class="cluster"><title>clusterdir_2174d8cbbd82d5c404dd04814f845a3a</title>
<g id="a_clust1"><a xlink:href="dir_2174d8cbbd82d5c404dd04814f845a3a.html" target="_top" xlink:title="reconstruction">
<polygon fill="#ddddee" stroke="black" points="8,-200 8,-287 232,-287 232,-200 8,-200"/>
<text text-anchor="middle" x="120" y="-275" font-family="Helvetica,sans-Serif" font-size="10.00">reconstruction</text>
</a>
</g>
</g>
<g id="clust2" class="cluster"><title>clusterdir_5ae603abd45d2d750401429407a7bf9c</title>
<g id="a_clust2"><a xlink:href="dir_5ae603abd45d2d750401429407a7bf9c.html" target="_top">
<polygon fill="#eeeeff" stroke="black" points="16,-208 16,-260 224,-260 224,-208 16,-208"/>
</a>
</g>
</g>
<!-- dir_5ae603abd45d2d750401429407a7bf9c -->
<g id="node1" class="node"><title>dir_5ae603abd45d2d750401429407a7bf9c</title>
<text text-anchor="middle" x="189" y="-231.5" font-family="Helvetica,sans-Serif" font-size="10.00">include</text>
</g>
<!-- dir_c43c53e0c74ce2818e14880b8009424b -->
<g id="node2" class="node"><title>dir_c43c53e0c74ce2818e14880b8009424b</title>
<g id="a_node2"><a xlink:href="dir_c43c53e0c74ce2818e14880b8009424b.html" target="_top" xlink:title="ITSMFTReconstruction">
<polygon fill="white" stroke="black" points="143.25,-252 24.75,-252 24.75,-216 143.25,-216 143.25,-252"/>
<text text-anchor="middle" x="84" y="-231.5" font-family="Helvetica,sans-Serif" font-size="10.00">ITSMFTReconstruction</text>
</a>
</g>
</g>
<!-- dir_37c90836491b695b472bf98d1be8336b -->
<g id="node3" class="node"><title>dir_37c90836491b695b472bf98d1be8336b</title>
<g id="a_node3"><a xlink:href="dir_37c90836491b695b472bf98d1be8336b.html" target="_top" xlink:title="Base">
<polygon fill="none" stroke="red" points="97,-36 43,-36 43,-0 97,-0 97,-36"/>
<text text-anchor="middle" x="70" y="-15.5" font-family="Helvetica,sans-Serif" font-size="10.00">Base</text>
</a>
</g>
</g>
<!-- dir_c43c53e0c74ce2818e14880b8009424b&#45;&gt;dir_37c90836491b695b472bf98d1be8336b -->
<g id="edge1" class="edge"><title>dir_c43c53e0c74ce2818e14880b8009424b&#45;&gt;dir_37c90836491b695b472bf98d1be8336b</title>
<path fill="none" stroke="black" d="M68.3901,-215.774C60.6271,-206.03 52.0541,-193.184 48,-180 33.9335,-134.256 48.1701,-78.4398 59.3761,-45.9869"/>
<polygon fill="black" stroke="black" points="62.7646,-46.908 62.8682,-36.3136 56.1805,-44.531 62.7646,-46.908"/>
<g id="a_edge1&#45;headlabel"><a xlink:href="dir_000160_000067.html" target="_top" xlink:title="1">
<text text-anchor="middle" x="64.2147" y="-48.7531" font-family="Helvetica,sans-Serif" font-size="10.00">1</text>
</a>
</g>
</g>
<!-- dir_7c9998090bca7c4aa89c05dd66fe73f5 -->
<g id="node4" class="node"><title>dir_7c9998090bca7c4aa89c05dd66fe73f5</title>
<g id="a_node4"><a xlink:href="dir_7c9998090bca7c4aa89c05dd66fe73f5.html" target="_top" xlink:title="base">
<polygon fill="none" stroke="red" points="111,-180 57,-180 57,-144 111,-144 111,-180"/>
<text text-anchor="middle" x="84" y="-159.5" font-family="Helvetica,sans-Serif" font-size="10.00">base</text>
</a>
</g>
</g>
<!-- dir_c43c53e0c74ce2818e14880b8009424b&#45;&gt;dir_7c9998090bca7c4aa89c05dd66fe73f5 -->
<g id="edge2" class="edge"><title>dir_c43c53e0c74ce2818e14880b8009424b&#45;&gt;dir_7c9998090bca7c4aa89c05dd66fe73f5</title>
<path fill="none" stroke="black" d="M84,-215.697C84,-207.983 84,-198.712 84,-190.112"/>
<polygon fill="black" stroke="black" points="87.5001,-190.104 84,-180.104 80.5001,-190.104 87.5001,-190.104"/>
<g id="a_edge2&#45;headlabel"><a xlink:href="dir_000160_000132.html" target="_top" xlink:title="2">
<text text-anchor="middle" x="90.3393" y="-191.199" font-family="Helvetica,sans-Serif" font-size="10.00">2</text>
</a>
</g>
</g>
<!-- dir_2171f7ec022c5423887b07c69b2f5b48 -->
<g id="node5" class="node"><title>dir_2171f7ec022c5423887b07c69b2f5b48</title>
<g id="a_node5"><a xlink:href="dir_2171f7ec022c5423887b07c69b2f5b48.html" target="_top" xlink:title="DataFormats">
<polygon fill="none" stroke="red" points="172,-108 98,-108 98,-72 172,-72 172,-108"/>
<text text-anchor="middle" x="135" y="-87.5" font-family="Helvetica,sans-Serif" font-size="10.00">DataFormats</text>
</a>
</g>
</g>
<!-- dir_c43c53e0c74ce2818e14880b8009424b&#45;&gt;dir_2171f7ec022c5423887b07c69b2f5b48 -->
<g id="edge3" class="edge"><title>dir_c43c53e0c74ce2818e14880b8009424b&#45;&gt;dir_2171f7ec022c5423887b07c69b2f5b48</title>
<path fill="none" stroke="black" d="M98.3818,-215.941C105.975,-206.049 114.778,-193.006 120,-180 127.918,-160.279 131.657,-136.475 133.422,-118.449"/>
<polygon fill="black" stroke="black" points="136.923,-118.576 134.267,-108.319 129.947,-117.993 136.923,-118.576"/>
<g id="a_edge3&#45;headlabel"><a xlink:href="dir_000160_000038.html" target="_top" xlink:title="1">
<text text-anchor="middle" x="139.453" y="-119.894" font-family="Helvetica,sans-Serif" font-size="10.00">1</text>
</a>
</g>
</g>
<!-- dir_7c9998090bca7c4aa89c05dd66fe73f5&#45;&gt;dir_37c90836491b695b472bf98d1be8336b -->
<g id="edge4" class="edge"><title>dir_7c9998090bca7c4aa89c05dd66fe73f5&#45;&gt;dir_37c90836491b695b472bf98d1be8336b</title>
<path fill="none" stroke="black" d="M82.3113,-143.871C79.9252,-119.67 75.5419,-75.2108 72.7007,-46.3932"/>
<polygon fill="black" stroke="black" points="76.1591,-45.7976 71.6947,-36.1893 69.1928,-46.4845 76.1591,-45.7976"/>
<g id="a_edge4&#45;headlabel"><a xlink:href="dir_000132_000067.html" target="_top" xlink:title="1">
<text text-anchor="middle" x="79.3373" y="-46.5963" font-family="Helvetica,sans-Serif" font-size="10.00">1</text>
</a>
</g>
</g>
<!-- dir_7c9998090bca7c4aa89c05dd66fe73f5&#45;&gt;dir_2171f7ec022c5423887b07c69b2f5b48 -->
<g id="edge5" class="edge"><title>dir_7c9998090bca7c4aa89c05dd66fe73f5&#45;&gt;dir_2171f7ec022c5423887b07c69b2f5b48</title>
<path fill="none" stroke="black" d="M96.6067,-143.697C102.597,-135.474 109.876,-125.483 116.479,-116.421"/>
<polygon fill="black" stroke="black" points="119.478,-118.248 122.538,-108.104 113.821,-114.126 119.478,-118.248"/>
<g id="a_edge5&#45;headlabel"><a xlink:href="dir_000132_000038.html" target="_top" xlink:title="1">
<text text-anchor="middle" x="119.657" y="-120.325" font-family="Helvetica,sans-Serif" font-size="10.00">1</text>
</a>
</g>
</g>
<!-- dir_2171f7ec022c5423887b07c69b2f5b48&#45;&gt;dir_37c90836491b695b472bf98d1be8336b -->
<g id="edge6" class="edge"><title>dir_2171f7ec022c5423887b07c69b2f5b48&#45;&gt;dir_37c90836491b695b472bf98d1be8336b</title>
<path fill="none" stroke="black" d="M118.933,-71.6966C111.061,-63.2198 101.445,-52.8636 92.8267,-43.5826"/>
<polygon fill="black" stroke="black" points="95.2519,-41.0507 85.8826,-36.1043 90.1224,-45.8139 95.2519,-41.0507"/>
<g id="a_edge6&#45;headlabel"><a xlink:href="dir_000038_000067.html" target="_top" xlink:title="6">
<text text-anchor="middle" x="99.7784" y="-39.2528" font-family="Helvetica,sans-Serif" font-size="10.00">6</text>
</a>
</g>
</g>
</g>
</svg>
