<?xml version="1.0" encoding="UTF-8" standalone="no"?>
<!DOCTYPE svg PUBLIC "-//W3C//DTD SVG 1.1//EN"
 "http://www.w3.org/Graphics/SVG/1.1/DTD/svg11.dtd">
<!-- Generated by graphviz version 2.36.0 (20140111.2315)
 -->
<!-- Title: /home/travis/build/AliceO2Group/AliceO2/Detectors/TPC/simulation/macro Pages: 1 -->
<svg width="167pt" height="295pt"
 viewBox="0.00 0.00 167.25 295.00" xmlns="http://www.w3.org/2000/svg" xmlns:xlink="http://www.w3.org/1999/xlink">
<g id="graph0" class="graph" transform="scale(1 1) rotate(0) translate(4 291)">
<title>/home/travis/build/AliceO2Group/AliceO2/Detectors/TPC/simulation/macro</title>
<g id="clust1" class="cluster"><title>clusterdir_7f309bec8670bb3fb666e7e061b24659</title>
<g id="a_clust1"><a xlink:href="dir_7f309bec8670bb3fb666e7e061b24659.html" target="_top" xlink:title="simulation">
<polygon fill="#ddddee" stroke="black" points="29.2516,-208 29.2516,-279 99.2516,-279 99.2516,-208 29.2516,-208"/>
<text text-anchor="middle" x="64.2516" y="-267" font-family="Helvetica,sans-Serif" font-size="10.00">simulation</text>
</a>
</g>
</g>
<!-- dir_8bfcd60464e4f3a200807f6c373e63aa -->
<g id="node1" class="node"><title>dir_8bfcd60464e4f3a200807f6c373e63aa</title>
<g id="a_node1"><a xlink:href="dir_8bfcd60464e4f3a200807f6c373e63aa.html" target="_top" xlink:title="macro">
<polygon fill="#eeeeff" stroke="black" points="91.2516,-252 37.2516,-252 37.2516,-216 91.2516,-216 91.2516,-252"/>
<text text-anchor="middle" x="64.2516" y="-231.5" font-family="Helvetica,sans-Serif" font-size="10.00">macro</text>
</a>
</g>
</g>
<!-- dir_677b030cc750909e4cd27413873678d8 -->
<g id="node2" class="node"><title>dir_677b030cc750909e4cd27413873678d8</title>
<g id="a_node2"><a xlink:href="dir_677b030cc750909e4cd27413873678d8.html" target="_top" xlink:title="base">
<polygon fill="none" stroke="red" points="66.2516,-36 12.2516,-36 12.2516,-0 66.2516,-0 66.2516,-36"/>
<text text-anchor="middle" x="39.2516" y="-15.5" font-family="Helvetica,sans-Serif" font-size="10.00">base</text>
</a>
</g>
</g>
<!-- dir_8bfcd60464e4f3a200807f6c373e63aa&#45;&gt;dir_677b030cc750909e4cd27413873678d8 -->
<g id="edge6" class="edge"><title>dir_8bfcd60464e4f3a200807f6c373e63aa&#45;&gt;dir_677b030cc750909e4cd27413873678d8</title>
<path fill="none" stroke="black" d="M52.6518,-215.743C37.7753,-192.468 12.7621,-149.174 3.25162,-108 -0.349279,-92.4105 -1.45117,-87.2933 3.25162,-72 6.2605,-62.2153 11.7586,-52.6161 17.5673,-44.3336"/>
<polygon fill="black" stroke="black" points="20.4464,-46.3279 23.6417,-36.2264 14.8444,-42.1306 20.4464,-46.3279"/>
<g id="a_edge6&#45;headlabel"><a xlink:href="dir_000214_000080.html" target="_top" xlink:title="2">
<text text-anchor="middle" x="20.5633" y="-48.4071" font-family="Helvetica,sans-Serif" font-size="10.00">2</text>
</a>
</g>
</g>
<!-- dir_a5de047958dd458e809773c6ffaa8478 -->
<g id="node3" class="node"><title>dir_a5de047958dd458e809773c6ffaa8478</title>
<g id="a_node3"><a xlink:href="dir_a5de047958dd458e809773c6ffaa8478.html" target="_top" xlink:title="reconstruction">
<polygon fill="none" stroke="red" points="137.252,-180 59.2516,-180 59.2516,-144 137.252,-144 137.252,-180"/>
<text text-anchor="middle" x="98.2516" y="-159.5" font-family="Helvetica,sans-Serif" font-size="10.00">reconstruction</text>
</a>
</g>
</g>
<!-- dir_8bfcd60464e4f3a200807f6c373e63aa&#45;&gt;dir_a5de047958dd458e809773c6ffaa8478 -->
<g id="edge7" class="edge"><title>dir_8bfcd60464e4f3a200807f6c373e63aa&#45;&gt;dir_a5de047958dd458e809773c6ffaa8478</title>
<path fill="none" stroke="black" d="M72.6561,-215.697C76.5264,-207.728 81.2033,-198.1 85.4948,-189.264"/>
<polygon fill="black" stroke="black" points="88.723,-190.629 89.9438,-180.104 82.4264,-187.57 88.723,-190.629"/>
<g id="a_edge7&#45;headlabel"><a xlink:href="dir_000214_000161.html" target="_top" xlink:title="2">
<text text-anchor="middle" x="89.7065" y="-192.602" font-family="Helvetica,sans-Serif" font-size="10.00">2</text>
</a>
</g>
</g>
<!-- dir_37c90836491b695b472bf98d1be8336b -->
<g id="node4" class="node"><title>dir_37c90836491b695b472bf98d1be8336b</title>
<g id="a_node4"><a xlink:href="dir_37c90836491b695b472bf98d1be8336b.html" target="_top" xlink:title="Base">
<polygon fill="none" stroke="red" points="159.252,-36 105.252,-36 105.252,-0 159.252,-0 159.252,-36"/>
<text text-anchor="middle" x="132.252" y="-15.5" font-family="Helvetica,sans-Serif" font-size="10.00">Base</text>
</a>
</g>
</g>
<!-- dir_8bfcd60464e4f3a200807f6c373e63aa&#45;&gt;dir_37c90836491b695b472bf98d1be8336b -->
<g id="edge8" class="edge"><title>dir_8bfcd60464e4f3a200807f6c373e63aa&#45;&gt;dir_37c90836491b695b472bf98d1be8336b</title>
<path fill="none" stroke="black" d="M91.3035,-223.581C110.434,-215.332 134.662,-201.29 146.252,-180 169.349,-137.569 155.042,-79.3802 143.198,-45.8272"/>
<polygon fill="black" stroke="black" points="146.405,-44.4084 139.646,-36.2498 139.842,-46.8428 146.405,-44.4084"/>
<g id="a_edge8&#45;headlabel"><a xlink:href="dir_000214_000067.html" target="_top" xlink:title="1">
<text text-anchor="middle" x="150.317" y="-44.2912" font-family="Helvetica,sans-Serif" font-size="10.00">1</text>
</a>
</g>
</g>
<!-- dir_a3959ed40b1558172144f5e1a56e443f -->
<g id="node5" class="node"><title>dir_a3959ed40b1558172144f5e1a56e443f</title>
<g id="a_node5"><a xlink:href="dir_a3959ed40b1558172144f5e1a56e443f.html" target="_top" xlink:title="include">
<polygon fill="none" stroke="red" points="66.2516,-108 12.2516,-108 12.2516,-72 66.2516,-72 66.2516,-108"/>
<text text-anchor="middle" x="39.2516" y="-87.5" font-family="Helvetica,sans-Serif" font-size="10.00">include</text>
</a>
</g>
</g>
<!-- dir_8bfcd60464e4f3a200807f6c373e63aa&#45;&gt;dir_a3959ed40b1558172144f5e1a56e443f -->
<g id="edge9" class="edge"><title>dir_8bfcd60464e4f3a200807f6c373e63aa&#45;&gt;dir_a3959ed40b1558172144f5e1a56e443f</title>
<path fill="none" stroke="black" d="M59.1192,-215.95C56.1692,-205.625 52.5956,-192.148 50.2516,-180 46.2944,-159.492 43.4639,-136.036 41.6659,-118.355"/>
<polygon fill="black" stroke="black" points="45.1272,-117.785 40.6789,-108.17 38.1598,-118.461 45.1272,-117.785"/>
<g id="a_edge9&#45;headlabel"><a xlink:href="dir_000214_000106.html" target="_top" xlink:title="2">
<text text-anchor="middle" x="48.2998" y="-118.589" font-family="Helvetica,sans-Serif" font-size="10.00">2</text>
</a>
</g>
</g>
<!-- dir_a5de047958dd458e809773c6ffaa8478&#45;&gt;dir_677b030cc750909e4cd27413873678d8 -->
<g id="edge1" class="edge"><title>dir_a5de047958dd458e809773c6ffaa8478&#45;&gt;dir_677b030cc750909e4cd27413873678d8</title>
<path fill="none" stroke="black" d="M95.5953,-143.681C92.3652,-125.302 85.9721,-95.7014 75.2516,-72 70.9648,-62.5224 65.006,-52.8967 59.1688,-44.4958"/>
<polygon fill="black" stroke="black" points="61.8987,-42.2977 53.205,-36.242 56.2248,-46.3974 61.8987,-42.2977"/>
<g id="a_edge1&#45;headlabel"><a xlink:href="dir_000161_000080.html" target="_top" xlink:title="48">
<text text-anchor="middle" x="66.3053" y="-41.0485" font-family="Helvetica,sans-Serif" font-size="10.00">48</text>
</a>
</g>
</g>
<!-- dir_a5de047958dd458e809773c6ffaa8478&#45;&gt;dir_37c90836491b695b472bf98d1be8336b -->
<g id="edge2" class="edge"><title>dir_a5de047958dd458e809773c6ffaa8478&#45;&gt;dir_37c90836491b695b472bf98d1be8336b</title>
<path fill="none" stroke="black" d="M102.353,-143.871C108.173,-119.564 118.887,-74.8187 125.784,-46.0132"/>
<polygon fill="black" stroke="black" points="129.211,-46.7294 128.136,-36.1893 122.403,-45.0994 129.211,-46.7294"/>
<g id="a_edge2&#45;headlabel"><a xlink:href="dir_000161_000067.html" target="_top" xlink:title="6">
<text text-anchor="middle" x="131.135" y="-48.3863" font-family="Helvetica,sans-Serif" font-size="10.00">6</text>
</a>
</g>
</g>
<!-- dir_a5de047958dd458e809773c6ffaa8478&#45;&gt;dir_a3959ed40b1558172144f5e1a56e443f -->
<g id="edge3" class="edge"><title>dir_a5de047958dd458e809773c6ffaa8478&#45;&gt;dir_a3959ed40b1558172144f5e1a56e443f</title>
<path fill="none" stroke="black" d="M83.6673,-143.697C76.594,-135.305 67.9682,-125.07 60.2062,-115.861"/>
<polygon fill="black" stroke="black" points="62.7891,-113.495 53.6681,-108.104 57.4367,-118.006 62.7891,-113.495"/>
<g id="a_edge3&#45;headlabel"><a xlink:href="dir_000161_000106.html" target="_top" xlink:title="1">
<text text-anchor="middle" x="67.2767" y="-111.914" font-family="Helvetica,sans-Serif" font-size="10.00">1</text>
</a>
</g>
</g>
<!-- dir_a3959ed40b1558172144f5e1a56e443f&#45;&gt;dir_677b030cc750909e4cd27413873678d8 -->
<g id="edge4" class="edge"><title>dir_a3959ed40b1558172144f5e1a56e443f&#45;&gt;dir_677b030cc750909e4cd27413873678d8</title>
<path fill="none" stroke="black" d="M39.2516,-71.6966C39.2516,-63.9827 39.2516,-54.7125 39.2516,-46.1124"/>
<polygon fill="black" stroke="black" points="42.7517,-46.1043 39.2516,-36.1043 35.7517,-46.1044 42.7517,-46.1043"/>
<g id="a_edge4&#45;headlabel"><a xlink:href="dir_000106_000080.html" target="_top" xlink:title="19">
<text text-anchor="middle" x="45.5909" y="-47.199" font-family="Helvetica,sans-Serif" font-size="10.00">19</text>
</a>
</g>
</g>
<!-- dir_a3959ed40b1558172144f5e1a56e443f&#45;&gt;dir_37c90836491b695b472bf98d1be8336b -->
<g id="edge5" class="edge"><title>dir_a3959ed40b1558172144f5e1a56e443f&#45;&gt;dir_37c90836491b695b472bf98d1be8336b</title>
<path fill="none" stroke="black" d="M62.2404,-71.6966C74.0656,-62.796 88.6436,-51.8232 101.43,-42.1989"/>
<polygon fill="black" stroke="black" points="103.642,-44.9145 109.527,-36.1043 99.4328,-39.3217 103.642,-44.9145"/>
<g id="a_edge5&#45;headlabel"><a xlink:href="dir_000106_000067.html" target="_top" xlink:title="1">
<text text-anchor="middle" x="102.478" y="-46.8447" font-family="Helvetica,sans-Serif" font-size="10.00">1</text>
</a>
</g>
</g>
</g>
</svg>
