<?xml version="1.0" encoding="UTF-8" standalone="no"?>
<!DOCTYPE svg PUBLIC "-//W3C//DTD SVG 1.1//EN"
 "http://www.w3.org/Graphics/SVG/1.1/DTD/svg11.dtd">
<!-- Generated by graphviz version 2.36.0 (20140111.2315)
 -->
<!-- Title: /home/travis/build/AliceO2Group/AliceO2/Utilities/O2MessageMonitor/include Pages: 1 -->
<svg width="230pt" height="231pt"
 viewBox="0.00 0.00 230.00 231.00" xmlns="http://www.w3.org/2000/svg" xmlns:xlink="http://www.w3.org/1999/xlink">
<g id="graph0" class="graph" transform="scale(1 1) rotate(0) translate(4 227)">
<title>/home/travis/build/AliceO2Group/AliceO2/Utilities/O2MessageMonitor/include</title>
<g id="clust1" class="cluster"><title>clusterdir_128e7457a060fa7b176dc57431c84710</title>
<g id="a_clust1"><a xlink:href="dir_128e7457a060fa7b176dc57431c84710.html" target="_top" xlink:title="O2MessageMonitor">
<polygon fill="#ddddee" stroke="black" points="8,-128 8,-215 214,-215 214,-128 8,-128"/>
<text text-anchor="middle" x="111" y="-203" font-family="Helvetica,sans-Serif" font-size="10.00">O2MessageMonitor</text>
</a>
</g>
</g>
<g id="clust2" class="cluster"><title>clusterdir_6b56571caff32114415aa1746cf6f43a</title>
<g id="a_clust2"><a xlink:href="dir_6b56571caff32114415aa1746cf6f43a.html" target="_top">
<polygon fill="#eeeeff" stroke="black" points="16,-136 16,-188 206,-188 206,-136 16,-136"/>
</a>
</g>
</g>
<!-- dir_6b56571caff32114415aa1746cf6f43a -->
<g id="node1" class="node"><title>dir_6b56571caff32114415aa1746cf6f43a</title>
<text text-anchor="middle" x="171" y="-159.5" font-family="Helvetica,sans-Serif" font-size="10.00">include</text>
</g>
<!-- dir_52868329261a2bb4a0764e51d8bef9af -->
<g id="node2" class="node"><title>dir_52868329261a2bb4a0764e51d8bef9af</title>
<g id="a_node2"><a xlink:href="dir_52868329261a2bb4a0764e51d8bef9af.html" target="_top" xlink:title="O2MessageMonitor">
<polygon fill="white" stroke="black" points="125.25,-180 24.75,-180 24.75,-144 125.25,-144 125.25,-180"/>
<text text-anchor="middle" x="75" y="-159.5" font-family="Helvetica,sans-Serif" font-size="10.00">O2MessageMonitor</text>
</a>
</g>
</g>
<!-- dir_f35ccb320b67f1c85d228c773db13bda -->
<g id="node3" class="node"><title>dir_f35ccb320b67f1c85d228c773db13bda</title>
<g id="a_node3"><a xlink:href="dir_f35ccb320b67f1c85d228c773db13bda.html" target="_top" xlink:title="O2Device">
<polygon fill="none" stroke="red" points="75.5,-108 16.5,-108 16.5,-72 75.5,-72 75.5,-108"/>
<text text-anchor="middle" x="46" y="-87.5" font-family="Helvetica,sans-Serif" font-size="10.00">O2Device</text>
</a>
</g>
</g>
<!-- dir_52868329261a2bb4a0764e51d8bef9af&#45;&gt;dir_f35ccb320b67f1c85d228c773db13bda -->
<g id="edge1" class="edge"><title>dir_52868329261a2bb4a0764e51d8bef9af&#45;&gt;dir_f35ccb320b67f1c85d228c773db13bda</title>
<path fill="none" stroke="black" d="M67.8315,-143.697C64.5655,-135.813 60.626,-126.304 56.9978,-117.546"/>
<polygon fill="black" stroke="black" points="60.147,-116.003 53.0861,-108.104 53.68,-118.683 60.147,-116.003"/>
<g id="a_edge1&#45;headlabel"><a xlink:href="dir_000300_000294.html" target="_top" xlink:title="1">
<text text-anchor="middle" x="64.1459" y="-115.738" font-family="Helvetica,sans-Serif" font-size="10.00">1</text>
</a>
</g>
</g>
<!-- dir_2171f7ec022c5423887b07c69b2f5b48 -->
<g id="node4" class="node"><title>dir_2171f7ec022c5423887b07c69b2f5b48</title>
<g id="a_node4"><a xlink:href="dir_2171f7ec022c5423887b07c69b2f5b48.html" target="_top" xlink:title="DataFormats">
<polygon fill="none" stroke="red" points="112,-36 38,-36 38,-0 112,-0 112,-36"/>
<text text-anchor="middle" x="75" y="-15.5" font-family="Helvetica,sans-Serif" font-size="10.00">DataFormats</text>
</a>
</g>
</g>
<!-- dir_52868329261a2bb4a0764e51d8bef9af&#45;&gt;dir_2171f7ec022c5423887b07c69b2f5b48 -->
<g id="edge2" class="edge"><title>dir_52868329261a2bb4a0764e51d8bef9af&#45;&gt;dir_2171f7ec022c5423887b07c69b2f5b48</title>
<path fill="none" stroke="black" d="M78.6538,-143.908C80.6758,-133.569 82.9808,-120.09 84,-108 85.3441,-92.0566 85.3441,-87.9434 84,-72 83.2834,-63.4991 81.9311,-54.3119 80.4884,-46.0122"/>
<polygon fill="black" stroke="black" points="83.9142,-45.2892 78.6538,-36.0925 77.0309,-46.5623 83.9142,-45.2892"/>
<g id="a_edge2&#45;headlabel"><a xlink:href="dir_000300_000038.html" target="_top" xlink:title="1">
<text text-anchor="middle" x="87.3597" y="-45.8075" font-family="Helvetica,sans-Serif" font-size="10.00">1</text>
</a>
</g>
</g>
<!-- dir_f35ccb320b67f1c85d228c773db13bda&#45;&gt;dir_2171f7ec022c5423887b07c69b2f5b48 -->
<g id="edge3" class="edge"><title>dir_f35ccb320b67f1c85d228c773db13bda&#45;&gt;dir_2171f7ec022c5423887b07c69b2f5b48</title>
<path fill="none" stroke="black" d="M53.1685,-71.6966C56.4345,-63.8132 60.374,-54.3042 64.0022,-45.5464"/>
<polygon fill="black" stroke="black" points="67.32,-46.6825 67.9139,-36.1043 60.853,-44.0033 67.32,-46.6825"/>
<g id="a_edge3&#45;headlabel"><a xlink:href="dir_000294_000038.html" target="_top" xlink:title="1">
<text text-anchor="middle" x="68.5673" y="-48.5901" font-family="Helvetica,sans-Serif" font-size="10.00">1</text>
</a>
</g>
</g>
</g>
</svg>
