<?xml version="1.0" encoding="UTF-8" standalone="no"?>
<!DOCTYPE svg PUBLIC "-//W3C//DTD SVG 1.1//EN"
 "http://www.w3.org/Graphics/SVG/1.1/DTD/svg11.dtd">
<!-- Generated by graphviz version 2.36.0 (20140111.2315)
 -->
<!-- Title: /home/travis/build/AliceO2Group/AliceO2/Detectors/ITSMFT/MFT/base Pages: 1 -->
<svg width="196pt" height="375pt"
 viewBox="0.00 0.00 196.00 375.00" xmlns="http://www.w3.org/2000/svg" xmlns:xlink="http://www.w3.org/1999/xlink">
<g id="graph0" class="graph" transform="scale(1 1) rotate(0) translate(4 371)">
<title>/home/travis/build/AliceO2Group/AliceO2/Detectors/ITSMFT/MFT/base</title>
<g id="clust1" class="cluster"><title>clusterdir_f39d1cd569ca2d16022b762a0e4a53c8</title>
<g id="a_clust1"><a xlink:href="dir_f39d1cd569ca2d16022b762a0e4a53c8.html" target="_top" xlink:title="MFT">
<polygon fill="#ddddee" stroke="black" points="22,-200 22,-359 180,-359 180,-200 22,-200"/>
<text text-anchor="middle" x="101" y="-347" font-family="Helvetica,sans-Serif" font-size="10.00">MFT</text>
</a>
</g>
</g>
<g id="clust2" class="cluster"><title>clusterdir_7e732ae97f4f941436b6909b27d4da36</title>
<g id="a_clust2"><a xlink:href="dir_7e732ae97f4f941436b6909b27d4da36.html" target="_top">
<polygon fill="#eeeeff" stroke="black" points="30,-208 30,-332 172,-332 172,-208 30,-208"/>
</a>
</g>
</g>
<!-- dir_7e732ae97f4f941436b6909b27d4da36 -->
<g id="node1" class="node"><title>dir_7e732ae97f4f941436b6909b27d4da36</title>
<text text-anchor="middle" x="137" y="-303.5" font-family="Helvetica,sans-Serif" font-size="10.00">base</text>
</g>
<!-- dir_f22caf943fb99f64e502dc27cedd1b22 -->
<g id="node2" class="node"><title>dir_f22caf943fb99f64e502dc27cedd1b22</title>
<g id="a_node2"><a xlink:href="dir_f22caf943fb99f64e502dc27cedd1b22.html" target="_top" xlink:title="include">
<polygon fill="white" stroke="red" points="92,-252 38,-252 38,-216 92,-216 92,-252"/>
<text text-anchor="middle" x="65" y="-231.5" font-family="Helvetica,sans-Serif" font-size="10.00">include</text>
</a>
</g>
</g>
<!-- dir_37c90836491b695b472bf98d1be8336b -->
<g id="node5" class="node"><title>dir_37c90836491b695b472bf98d1be8336b</title>
<g id="a_node5"><a xlink:href="dir_37c90836491b695b472bf98d1be8336b.html" target="_top" xlink:title="Base">
<polygon fill="none" stroke="red" points="109,-108 55,-108 55,-72 109,-72 109,-108"/>
<text text-anchor="middle" x="82" y="-87.5" font-family="Helvetica,sans-Serif" font-size="10.00">Base</text>
</a>
</g>
</g>
<!-- dir_f22caf943fb99f64e502dc27cedd1b22&#45;&gt;dir_37c90836491b695b472bf98d1be8336b -->
<g id="edge8" class="edge"><title>dir_f22caf943fb99f64e502dc27cedd1b22&#45;&gt;dir_37c90836491b695b472bf98d1be8336b</title>
<path fill="none" stroke="black" d="M67.0506,-215.871C69.9479,-191.67 75.2705,-147.211 78.7205,-118.393"/>
<polygon fill="black" stroke="black" points="82.2285,-118.534 79.9421,-108.189 75.2782,-117.702 82.2285,-118.534"/>
<g id="a_edge8&#45;headlabel"><a xlink:href="dir_000077_000067.html" target="_top" xlink:title="3">
<text text-anchor="middle" x="84.6205" y="-119.941" font-family="Helvetica,sans-Serif" font-size="10.00">3</text>
</a>
</g>
</g>
<!-- dir_85bf31a2e8d306e7598ffcb73f8df6bf -->
<g id="node6" class="node"><title>dir_85bf31a2e8d306e7598ffcb73f8df6bf</title>
<g id="a_node6"><a xlink:href="dir_85bf31a2e8d306e7598ffcb73f8df6bf.html" target="_top" xlink:title="common">
<polygon fill="none" stroke="red" points="54,-180 0,-180 0,-144 54,-144 54,-180"/>
<text text-anchor="middle" x="27" y="-159.5" font-family="Helvetica,sans-Serif" font-size="10.00">common</text>
</a>
</g>
</g>
<!-- dir_f22caf943fb99f64e502dc27cedd1b22&#45;&gt;dir_85bf31a2e8d306e7598ffcb73f8df6bf -->
<g id="edge9" class="edge"><title>dir_f22caf943fb99f64e502dc27cedd1b22&#45;&gt;dir_85bf31a2e8d306e7598ffcb73f8df6bf</title>
<path fill="none" stroke="black" d="M55.6067,-215.697C51.2351,-207.644 45.9427,-197.894 41.1047,-188.982"/>
<polygon fill="black" stroke="black" points="44.1322,-187.223 36.2852,-180.104 37.9802,-190.563 44.1322,-187.223"/>
<g id="a_edge9&#45;headlabel"><a xlink:href="dir_000077_000131.html" target="_top" xlink:title="1">
<text text-anchor="middle" x="48.3424" y="-186.528" font-family="Helvetica,sans-Serif" font-size="10.00">1</text>
</a>
</g>
</g>
<!-- dir_a39be7dbb5064f10e7f9feb561d713d1 -->
<g id="node3" class="node"><title>dir_a39be7dbb5064f10e7f9feb561d713d1</title>
<g id="a_node3"><a xlink:href="dir_a39be7dbb5064f10e7f9feb561d713d1.html" target="_top" xlink:title="src">
<polygon fill="white" stroke="black" points="92,-324 38,-324 38,-288 92,-288 92,-324"/>
<text text-anchor="middle" x="65" y="-303.5" font-family="Helvetica,sans-Serif" font-size="10.00">src</text>
</a>
</g>
</g>
<!-- dir_a39be7dbb5064f10e7f9feb561d713d1&#45;&gt;dir_f22caf943fb99f64e502dc27cedd1b22 -->
<g id="edge5" class="edge"><title>dir_a39be7dbb5064f10e7f9feb561d713d1&#45;&gt;dir_f22caf943fb99f64e502dc27cedd1b22</title>
<path fill="none" stroke="black" d="M65,-287.697C65,-279.983 65,-270.712 65,-262.112"/>
<polygon fill="black" stroke="black" points="68.5001,-262.104 65,-252.104 61.5001,-262.104 68.5001,-262.104"/>
<g id="a_edge5&#45;headlabel"><a xlink:href="dir_000148_000077.html" target="_top" xlink:title="64">
<text text-anchor="middle" x="71.3393" y="-263.199" font-family="Helvetica,sans-Serif" font-size="10.00">64</text>
</a>
</g>
</g>
<!-- dir_4ab6b4cc6a7edbff49100e9123df213f -->
<g id="node4" class="node"><title>dir_4ab6b4cc6a7edbff49100e9123df213f</title>
<g id="a_node4"><a xlink:href="dir_4ab6b4cc6a7edbff49100e9123df213f.html" target="_top" xlink:title="Common">
<polygon fill="none" stroke="red" points="109.5,-36 54.5,-36 54.5,-0 109.5,-0 109.5,-36"/>
<text text-anchor="middle" x="82" y="-15.5" font-family="Helvetica,sans-Serif" font-size="10.00">Common</text>
</a>
</g>
</g>
<!-- dir_a39be7dbb5064f10e7f9feb561d713d1&#45;&gt;dir_4ab6b4cc6a7edbff49100e9123df213f -->
<g id="edge2" class="edge"><title>dir_a39be7dbb5064f10e7f9feb561d713d1&#45;&gt;dir_4ab6b4cc6a7edbff49100e9123df213f</title>
<path fill="none" stroke="black" d="M89.9282,-287.861C101.06,-278.67 113.001,-266.293 119,-252 127.851,-230.911 138.274,-137.025 118,-72 114.953,-62.2271 109.444,-52.6312 103.637,-44.3481"/>
<polygon fill="black" stroke="black" points="106.363,-42.1484 97.5689,-36.2391 100.758,-46.3425 106.363,-42.1484"/>
<g id="a_edge2&#45;headlabel"><a xlink:href="dir_000148_000016.html" target="_top" xlink:title="1">
<text text-anchor="middle" x="110.79" y="-40.8252" font-family="Helvetica,sans-Serif" font-size="10.00">1</text>
</a>
</g>
</g>
<!-- dir_a39be7dbb5064f10e7f9feb561d713d1&#45;&gt;dir_37c90836491b695b472bf98d1be8336b -->
<g id="edge3" class="edge"><title>dir_a39be7dbb5064f10e7f9feb561d713d1&#45;&gt;dir_37c90836491b695b472bf98d1be8336b</title>
<path fill="none" stroke="black" d="M80.6099,-287.774C88.3729,-278.03 96.9459,-265.184 101,-252 115.034,-206.363 102.125,-150.512 91.8188,-118.023"/>
<polygon fill="black" stroke="black" points="95.0758,-116.725 88.6015,-108.339 88.4327,-118.932 95.0758,-116.725"/>
<g id="a_edge3&#45;headlabel"><a xlink:href="dir_000148_000067.html" target="_top" xlink:title="1">
<text text-anchor="middle" x="98.9034" y="-116.741" font-family="Helvetica,sans-Serif" font-size="10.00">1</text>
</a>
</g>
</g>
<!-- dir_a39be7dbb5064f10e7f9feb561d713d1&#45;&gt;dir_85bf31a2e8d306e7598ffcb73f8df6bf -->
<g id="edge4" class="edge"><title>dir_a39be7dbb5064f10e7f9feb561d713d1&#45;&gt;dir_85bf31a2e8d306e7598ffcb73f8df6bf</title>
<path fill="none" stroke="black" d="M49.508,-287.737C41.7795,-277.983 33.2019,-265.137 29,-252 22.6145,-232.036 22.4334,-208.246 23.675,-190.287"/>
<polygon fill="black" stroke="black" points="27.1722,-190.471 24.5615,-180.203 20.1991,-189.858 27.1722,-190.471"/>
<g id="a_edge4&#45;headlabel"><a xlink:href="dir_000148_000131.html" target="_top" xlink:title="6">
<text text-anchor="middle" x="29.6858" y="-191.801" font-family="Helvetica,sans-Serif" font-size="10.00">6</text>
</a>
</g>
</g>
<!-- dir_37c90836491b695b472bf98d1be8336b&#45;&gt;dir_4ab6b4cc6a7edbff49100e9123df213f -->
<g id="edge1" class="edge"><title>dir_37c90836491b695b472bf98d1be8336b&#45;&gt;dir_4ab6b4cc6a7edbff49100e9123df213f</title>
<path fill="none" stroke="black" d="M82,-71.6966C82,-63.9827 82,-54.7125 82,-46.1124"/>
<polygon fill="black" stroke="black" points="85.5001,-46.1043 82,-36.1043 78.5001,-46.1044 85.5001,-46.1043"/>
<g id="a_edge1&#45;headlabel"><a xlink:href="dir_000067_000016.html" target="_top" xlink:title="5">
<text text-anchor="middle" x="88.3393" y="-47.199" font-family="Helvetica,sans-Serif" font-size="10.00">5</text>
</a>
</g>
</g>
<!-- dir_85bf31a2e8d306e7598ffcb73f8df6bf&#45;&gt;dir_4ab6b4cc6a7edbff49100e9123df213f -->
<g id="edge6" class="edge"><title>dir_85bf31a2e8d306e7598ffcb73f8df6bf&#45;&gt;dir_4ab6b4cc6a7edbff49100e9123df213f</title>
<path fill="none" stroke="black" d="M28.6972,-143.674C30.9505,-125.29 35.8884,-95.6852 46,-72 50.0842,-62.4333 55.9884,-52.7836 61.8379,-44.3881"/>
<polygon fill="black" stroke="black" points="64.7797,-46.2938 67.8353,-36.1492 59.1203,-42.1741 64.7797,-46.2938"/>
<g id="a_edge6&#45;headlabel"><a xlink:href="dir_000131_000016.html" target="_top" xlink:title="2">
<text text-anchor="middle" x="64.9597" y="-48.371" font-family="Helvetica,sans-Serif" font-size="10.00">2</text>
</a>
</g>
</g>
<!-- dir_85bf31a2e8d306e7598ffcb73f8df6bf&#45;&gt;dir_37c90836491b695b472bf98d1be8336b -->
<g id="edge7" class="edge"><title>dir_85bf31a2e8d306e7598ffcb73f8df6bf&#45;&gt;dir_37c90836491b695b472bf98d1be8336b</title>
<path fill="none" stroke="black" d="M40.5955,-143.697C47.1227,-135.389 55.068,-125.277 62.2466,-116.141"/>
<polygon fill="black" stroke="black" points="65.1347,-118.13 68.5609,-108.104 59.6305,-113.805 65.1347,-118.13"/>
<g id="a_edge7&#45;headlabel"><a xlink:href="dir_000131_000067.html" target="_top" xlink:title="2">
<text text-anchor="middle" x="65.1465" y="-120.211" font-family="Helvetica,sans-Serif" font-size="10.00">2</text>
</a>
</g>
</g>
</g>
</svg>
