<?xml version="1.0" encoding="UTF-8" standalone="no"?>
<!DOCTYPE svg PUBLIC "-//W3C//DTD SVG 1.1//EN"
 "http://www.w3.org/Graphics/SVG/1.1/DTD/svg11.dtd">
<!-- Generated by graphviz version 2.36.0 (20140111.2315)
 -->
<!-- Title: /home/travis/build/AliceO2Group/AliceO2/Detectors/ITSMFT/MFT/macros Pages: 1 -->
<svg width="400pt" height="511pt"
 viewBox="0.00 0.00 400.00 511.00" xmlns="http://www.w3.org/2000/svg" xmlns:xlink="http://www.w3.org/1999/xlink">
<g id="graph0" class="graph" transform="scale(1 1) rotate(0) translate(4 507)">
<title>/home/travis/build/AliceO2Group/AliceO2/Detectors/ITSMFT/MFT/macros</title>
<g id="clust1" class="cluster"><title>clusterdir_f39d1cd569ca2d16022b762a0e4a53c8</title>
<g id="a_clust1"><a xlink:href="dir_f39d1cd569ca2d16022b762a0e4a53c8.html" target="_top" xlink:title="MFT">
<polygon fill="#ddddee" stroke="black" points="109,-424 109,-495 179,-495 179,-424 109,-424"/>
<text text-anchor="middle" x="144" y="-483" font-family="Helvetica,sans-Serif" font-size="10.00">MFT</text>
</a>
</g>
</g>
<!-- dir_5b6015b386f827cc0d1582f414a67114 -->
<g id="node1" class="node"><title>dir_5b6015b386f827cc0d1582f414a67114</title>
<g id="a_node1"><a xlink:href="dir_5b6015b386f827cc0d1582f414a67114.html" target="_top" xlink:title="macros">
<polygon fill="#eeeeff" stroke="black" points="171,-468 117,-468 117,-432 171,-432 171,-468"/>
<text text-anchor="middle" x="144" y="-447.5" font-family="Helvetica,sans-Serif" font-size="10.00">macros</text>
</a>
</g>
</g>
<!-- dir_3d8e691f27a9a1a3f5b37028248bc44b -->
<g id="node2" class="node"><title>dir_3d8e691f27a9a1a3f5b37028248bc44b</title>
<g id="a_node2"><a xlink:href="dir_3d8e691f27a9a1a3f5b37028248bc44b.html" target="_top" xlink:title="reconstruction">
<polygon fill="none" stroke="red" points="183,-396 105,-396 105,-360 183,-360 183,-396"/>
<text text-anchor="middle" x="144" y="-375.5" font-family="Helvetica,sans-Serif" font-size="10.00">reconstruction</text>
</a>
</g>
</g>
<!-- dir_5b6015b386f827cc0d1582f414a67114&#45;&gt;dir_3d8e691f27a9a1a3f5b37028248bc44b -->
<g id="edge14" class="edge"><title>dir_5b6015b386f827cc0d1582f414a67114&#45;&gt;dir_3d8e691f27a9a1a3f5b37028248bc44b</title>
<path fill="none" stroke="black" d="M144,-431.697C144,-423.983 144,-414.712 144,-406.112"/>
<polygon fill="black" stroke="black" points="147.5,-406.104 144,-396.104 140.5,-406.104 147.5,-406.104"/>
<g id="a_edge14&#45;headlabel"><a xlink:href="dir_000169_000116.html" target="_top" xlink:title="1">
<text text-anchor="middle" x="150.339" y="-407.199" font-family="Helvetica,sans-Serif" font-size="10.00">1</text>
</a>
</g>
</g>
<!-- dir_4ab6b4cc6a7edbff49100e9123df213f -->
<g id="node3" class="node"><title>dir_4ab6b4cc6a7edbff49100e9123df213f</title>
<g id="a_node3"><a xlink:href="dir_4ab6b4cc6a7edbff49100e9123df213f.html" target="_top" xlink:title="Common">
<polygon fill="none" stroke="red" points="213.5,-36 158.5,-36 158.5,-0 213.5,-0 213.5,-36"/>
<text text-anchor="middle" x="186" y="-15.5" font-family="Helvetica,sans-Serif" font-size="10.00">Common</text>
</a>
</g>
</g>
<!-- dir_5b6015b386f827cc0d1582f414a67114&#45;&gt;dir_4ab6b4cc6a7edbff49100e9123df213f -->
<g id="edge15" class="edge"><title>dir_5b6015b386f827cc0d1582f414a67114&#45;&gt;dir_4ab6b4cc6a7edbff49100e9123df213f</title>
<path fill="none" stroke="black" d="M116.915,-437.28C75.2014,-417.187 0,-371.955 0,-307 0,-307 0,-307 0,-161 0,-86.9939 94.1779,-46.4097 148.505,-29.155"/>
<polygon fill="black" stroke="black" points="149.616,-32.4753 158.154,-26.2019 147.567,-25.7818 149.616,-32.4753"/>
<g id="a_edge15&#45;headlabel"><a xlink:href="dir_000169_000016.html" target="_top" xlink:title="2">
<text text-anchor="middle" x="147.01" y="-33.7423" font-family="Helvetica,sans-Serif" font-size="10.00">2</text>
</a>
</g>
</g>
<!-- dir_a336bf94aab96007822cb34c9e2cb8a5 -->
<g id="node4" class="node"><title>dir_a336bf94aab96007822cb34c9e2cb8a5</title>
<g id="a_node4"><a xlink:href="dir_a336bf94aab96007822cb34c9e2cb8a5.html" target="_top" xlink:title="simulation">
<polygon fill="none" stroke="red" points="241.25,-324 180.75,-324 180.75,-288 241.25,-288 241.25,-324"/>
<text text-anchor="middle" x="211" y="-303.5" font-family="Helvetica,sans-Serif" font-size="10.00">simulation</text>
</a>
</g>
</g>
<!-- dir_5b6015b386f827cc0d1582f414a67114&#45;&gt;dir_a336bf94aab96007822cb34c9e2cb8a5 -->
<g id="edge16" class="edge"><title>dir_5b6015b386f827cc0d1582f414a67114&#45;&gt;dir_a336bf94aab96007822cb34c9e2cb8a5</title>
<path fill="none" stroke="black" d="M164.014,-431.719C173.874,-422.15 185.099,-409.481 192,-396 201.87,-376.719 206.618,-352.565 208.899,-334.287"/>
<polygon fill="black" stroke="black" points="212.385,-334.603 209.977,-324.285 205.425,-333.852 212.385,-334.603"/>
<g id="a_edge16&#45;headlabel"><a xlink:href="dir_000169_000094.html" target="_top" xlink:title="2">
<text text-anchor="middle" x="214.823" y="-335.981" font-family="Helvetica,sans-Serif" font-size="10.00">2</text>
</a>
</g>
</g>
<!-- dir_37c90836491b695b472bf98d1be8336b -->
<g id="node5" class="node"><title>dir_37c90836491b695b472bf98d1be8336b</title>
<g id="a_node5"><a xlink:href="dir_37c90836491b695b472bf98d1be8336b.html" target="_top" xlink:title="Base">
<polygon fill="none" stroke="red" points="242,-108 188,-108 188,-72 242,-72 242,-108"/>
<text text-anchor="middle" x="215" y="-87.5" font-family="Helvetica,sans-Serif" font-size="10.00">Base</text>
</a>
</g>
</g>
<!-- dir_5b6015b386f827cc0d1582f414a67114&#45;&gt;dir_37c90836491b695b472bf98d1be8336b -->
<g id="edge17" class="edge"><title>dir_5b6015b386f827cc0d1582f414a67114&#45;&gt;dir_37c90836491b695b472bf98d1be8336b</title>
<path fill="none" stroke="black" d="M171.04,-440.058C218.078,-422.602 310,-379.247 310,-307 310,-307 310,-307 310,-233 310,-185.012 272.056,-140.963 244.129,-115.042"/>
<polygon fill="black" stroke="black" points="246.33,-112.314 236.557,-108.223 241.646,-117.516 246.33,-112.314"/>
<g id="a_edge17&#45;headlabel"><a xlink:href="dir_000169_000067.html" target="_top" xlink:title="2">
<text text-anchor="middle" x="250.901" y="-110.11" font-family="Helvetica,sans-Serif" font-size="10.00">2</text>
</a>
</g>
</g>
<!-- dir_85bf31a2e8d306e7598ffcb73f8df6bf -->
<g id="node6" class="node"><title>dir_85bf31a2e8d306e7598ffcb73f8df6bf</title>
<g id="a_node6"><a xlink:href="dir_85bf31a2e8d306e7598ffcb73f8df6bf.html" target="_top" xlink:title="common">
<polygon fill="none" stroke="red" points="168,-252 114,-252 114,-216 168,-216 168,-252"/>
<text text-anchor="middle" x="141" y="-231.5" font-family="Helvetica,sans-Serif" font-size="10.00">common</text>
</a>
</g>
</g>
<!-- dir_5b6015b386f827cc0d1582f414a67114&#45;&gt;dir_85bf31a2e8d306e7598ffcb73f8df6bf -->
<g id="edge18" class="edge"><title>dir_5b6015b386f827cc0d1582f414a67114&#45;&gt;dir_85bf31a2e8d306e7598ffcb73f8df6bf</title>
<path fill="none" stroke="black" d="M122.29,-431.787C112.241,-422.414 101.359,-409.9 96,-396 78.1362,-349.664 104.256,-293.342 123.544,-261.084"/>
<polygon fill="black" stroke="black" points="126.715,-262.612 129.007,-252.268 120.765,-258.925 126.715,-262.612"/>
<g id="a_edge18&#45;headlabel"><a xlink:href="dir_000169_000131.html" target="_top" xlink:title="5">
<text text-anchor="middle" x="127.235" y="-264.663" font-family="Helvetica,sans-Serif" font-size="10.00">5</text>
</a>
</g>
</g>
<!-- dir_f01815b857f9009bea48e2cb39492245 -->
<g id="node7" class="node"><title>dir_f01815b857f9009bea48e2cb39492245</title>
<g id="a_node7"><a xlink:href="dir_f01815b857f9009bea48e2cb39492245.html" target="_top" xlink:title="Passive">
<polygon fill="none" stroke="red" points="392,-180 338,-180 338,-144 392,-144 392,-180"/>
<text text-anchor="middle" x="365" y="-159.5" font-family="Helvetica,sans-Serif" font-size="10.00">Passive</text>
</a>
</g>
</g>
<!-- dir_5b6015b386f827cc0d1582f414a67114&#45;&gt;dir_f01815b857f9009bea48e2cb39492245 -->
<g id="edge19" class="edge"><title>dir_5b6015b386f827cc0d1582f414a67114&#45;&gt;dir_f01815b857f9009bea48e2cb39492245</title>
<path fill="none" stroke="black" d="M171.179,-449.339C210.997,-448.255 284.709,-439.965 324,-396 375.798,-338.039 373.417,-238.432 368.655,-190.435"/>
<polygon fill="black" stroke="black" points="372.101,-189.757 367.523,-180.202 365.144,-190.526 372.101,-189.757"/>
<g id="a_edge19&#45;headlabel"><a xlink:href="dir_000169_000187.html" target="_top" xlink:title="1">
<text text-anchor="middle" x="375.319" y="-190.517" font-family="Helvetica,sans-Serif" font-size="10.00">1</text>
</a>
</g>
</g>
<!-- dir_2171f7ec022c5423887b07c69b2f5b48 -->
<g id="node8" class="node"><title>dir_2171f7ec022c5423887b07c69b2f5b48</title>
<g id="a_node8"><a xlink:href="dir_2171f7ec022c5423887b07c69b2f5b48.html" target="_top" xlink:title="DataFormats">
<polygon fill="none" stroke="red" points="130,-180 56,-180 56,-144 130,-144 130,-180"/>
<text text-anchor="middle" x="93" y="-159.5" font-family="Helvetica,sans-Serif" font-size="10.00">DataFormats</text>
</a>
</g>
</g>
<!-- dir_5b6015b386f827cc0d1582f414a67114&#45;&gt;dir_2171f7ec022c5423887b07c69b2f5b48 -->
<g id="edge20" class="edge"><title>dir_5b6015b386f827cc0d1582f414a67114&#45;&gt;dir_2171f7ec022c5423887b07c69b2f5b48</title>
<path fill="none" stroke="black" d="M117.42,-431.912C105.763,-422.81 93.3146,-410.494 87,-396 56.8505,-326.797 73.8263,-234.729 85.2569,-189.864"/>
<polygon fill="black" stroke="black" points="88.6871,-190.584 87.872,-180.02 81.9218,-188.787 88.6871,-190.584"/>
<g id="a_edge20&#45;headlabel"><a xlink:href="dir_000169_000038.html" target="_top" xlink:title="2">
<text text-anchor="middle" x="90.5084" y="-192.287" font-family="Helvetica,sans-Serif" font-size="10.00">2</text>
</a>
</g>
</g>
<!-- dir_3d8e691f27a9a1a3f5b37028248bc44b&#45;&gt;dir_a336bf94aab96007822cb34c9e2cb8a5 -->
<g id="edge1" class="edge"><title>dir_3d8e691f27a9a1a3f5b37028248bc44b&#45;&gt;dir_a336bf94aab96007822cb34c9e2cb8a5</title>
<path fill="none" stroke="black" d="M160.562,-359.697C168.675,-351.22 178.588,-340.864 187.471,-331.583"/>
<polygon fill="black" stroke="black" points="190.243,-333.749 194.629,-324.104 185.186,-328.908 190.243,-333.749"/>
<g id="a_edge1&#45;headlabel"><a xlink:href="dir_000116_000094.html" target="_top" xlink:title="7">
<text text-anchor="middle" x="189.808" y="-335.809" font-family="Helvetica,sans-Serif" font-size="10.00">7</text>
</a>
</g>
</g>
<!-- dir_3d8e691f27a9a1a3f5b37028248bc44b&#45;&gt;dir_85bf31a2e8d306e7598ffcb73f8df6bf -->
<g id="edge2" class="edge"><title>dir_3d8e691f27a9a1a3f5b37028248bc44b&#45;&gt;dir_85bf31a2e8d306e7598ffcb73f8df6bf</title>
<path fill="none" stroke="black" d="M143.638,-359.871C143.127,-335.67 142.188,-291.211 141.579,-262.393"/>
<polygon fill="black" stroke="black" points="145.074,-262.113 141.363,-252.189 138.075,-262.261 145.074,-262.113"/>
<g id="a_edge2&#45;headlabel"><a xlink:href="dir_000116_000131.html" target="_top" xlink:title="5">
<text text-anchor="middle" x="147.988" y="-263.147" font-family="Helvetica,sans-Serif" font-size="10.00">5</text>
</a>
</g>
</g>
<!-- dir_3d8e691f27a9a1a3f5b37028248bc44b&#45;&gt;dir_2171f7ec022c5423887b07c69b2f5b48 -->
<g id="edge3" class="edge"><title>dir_3d8e691f27a9a1a3f5b37028248bc44b&#45;&gt;dir_2171f7ec022c5423887b07c69b2f5b48</title>
<path fill="none" stroke="black" d="M137.639,-359.858C129.02,-336 113.711,-291.283 105,-252 100.472,-231.58 97.3939,-208.12 95.49,-190.414"/>
<polygon fill="black" stroke="black" points="98.9465,-189.808 94.4538,-180.213 91.9823,-190.515 98.9465,-189.808"/>
<g id="a_edge3&#45;headlabel"><a xlink:href="dir_000116_000038.html" target="_top" xlink:title="2">
<text text-anchor="middle" x="102.134" y="-190.597" font-family="Helvetica,sans-Serif" font-size="10.00">2</text>
</a>
</g>
</g>
<!-- dir_a336bf94aab96007822cb34c9e2cb8a5&#45;&gt;dir_4ab6b4cc6a7edbff49100e9123df213f -->
<g id="edge4" class="edge"><title>dir_a336bf94aab96007822cb34c9e2cb8a5&#45;&gt;dir_4ab6b4cc6a7edbff49100e9123df213f</title>
<path fill="none" stroke="black" d="M220.491,-287.973C241.324,-248.161 286.478,-146.706 251,-72 244.717,-58.7702 233.337,-47.7546 221.834,-39.2555"/>
<polygon fill="black" stroke="black" points="223.729,-36.3102 213.509,-33.516 219.755,-42.0734 223.729,-36.3102"/>
<g id="a_edge4&#45;headlabel"><a xlink:href="dir_000094_000016.html" target="_top" xlink:title="1">
<text text-anchor="middle" x="228.299" y="-33.5127" font-family="Helvetica,sans-Serif" font-size="10.00">1</text>
</a>
</g>
</g>
<!-- dir_a336bf94aab96007822cb34c9e2cb8a5&#45;&gt;dir_37c90836491b695b472bf98d1be8336b -->
<g id="edge5" class="edge"><title>dir_a336bf94aab96007822cb34c9e2cb8a5&#45;&gt;dir_37c90836491b695b472bf98d1be8336b</title>
<path fill="none" stroke="black" d="M211.321,-287.849C212.012,-250.832 213.651,-163.181 214.488,-118.386"/>
<polygon fill="black" stroke="black" points="217.99,-118.296 214.678,-108.232 210.992,-118.165 217.99,-118.296"/>
<g id="a_edge5&#45;headlabel"><a xlink:href="dir_000094_000067.html" target="_top" xlink:title="3">
<text text-anchor="middle" x="220.762" y="-119.443" font-family="Helvetica,sans-Serif" font-size="10.00">3</text>
</a>
</g>
</g>
<!-- dir_a336bf94aab96007822cb34c9e2cb8a5&#45;&gt;dir_85bf31a2e8d306e7598ffcb73f8df6bf -->
<g id="edge6" class="edge"><title>dir_a336bf94aab96007822cb34c9e2cb8a5&#45;&gt;dir_85bf31a2e8d306e7598ffcb73f8df6bf</title>
<path fill="none" stroke="black" d="M193.697,-287.697C185.135,-279.135 174.656,-268.656 165.304,-259.304"/>
<polygon fill="black" stroke="black" points="167.65,-256.701 158.104,-252.104 162.701,-261.65 167.65,-256.701"/>
<g id="a_edge6&#45;headlabel"><a xlink:href="dir_000094_000131.html" target="_top" xlink:title="5">
<text text-anchor="middle" x="172.2" y="-254.735" font-family="Helvetica,sans-Serif" font-size="10.00">5</text>
</a>
</g>
</g>
<!-- dir_a336bf94aab96007822cb34c9e2cb8a5&#45;&gt;dir_2171f7ec022c5423887b07c69b2f5b48 -->
<g id="edge7" class="edge"><title>dir_a336bf94aab96007822cb34c9e2cb8a5&#45;&gt;dir_2171f7ec022c5423887b07c69b2f5b48</title>
<path fill="none" stroke="black" d="M207.877,-287.956C203.641,-268.731 194.506,-237.367 177,-216 166.78,-203.527 152.818,-193.094 139.211,-184.875"/>
<polygon fill="black" stroke="black" points="140.778,-181.739 130.364,-179.795 137.293,-187.81 140.778,-181.739"/>
<g id="a_edge7&#45;headlabel"><a xlink:href="dir_000094_000038.html" target="_top" xlink:title="1">
<text text-anchor="middle" x="145.31" y="-178.567" font-family="Helvetica,sans-Serif" font-size="10.00">1</text>
</a>
</g>
</g>
<!-- dir_37c90836491b695b472bf98d1be8336b&#45;&gt;dir_4ab6b4cc6a7edbff49100e9123df213f -->
<g id="edge8" class="edge"><title>dir_37c90836491b695b472bf98d1be8336b&#45;&gt;dir_4ab6b4cc6a7edbff49100e9123df213f</title>
<path fill="none" stroke="black" d="M207.831,-71.6966C204.565,-63.8132 200.626,-54.3042 196.998,-45.5464"/>
<polygon fill="black" stroke="black" points="200.147,-44.0033 193.086,-36.1043 193.68,-46.6825 200.147,-44.0033"/>
<g id="a_edge8&#45;headlabel"><a xlink:href="dir_000067_000016.html" target="_top" xlink:title="5">
<text text-anchor="middle" x="204.146" y="-43.7375" font-family="Helvetica,sans-Serif" font-size="10.00">5</text>
</a>
</g>
</g>
<!-- dir_85bf31a2e8d306e7598ffcb73f8df6bf&#45;&gt;dir_4ab6b4cc6a7edbff49100e9123df213f -->
<g id="edge9" class="edge"><title>dir_85bf31a2e8d306e7598ffcb73f8df6bf&#45;&gt;dir_4ab6b4cc6a7edbff49100e9123df213f</title>
<path fill="none" stroke="black" d="M144.606,-215.849C152.407,-178.753 170.9,-90.8101 180.301,-46.1027"/>
<polygon fill="black" stroke="black" points="183.744,-46.7387 182.376,-36.2325 176.893,-45.2982 183.744,-46.7387"/>
<g id="a_edge9&#45;headlabel"><a xlink:href="dir_000131_000016.html" target="_top" xlink:title="2">
<text text-anchor="middle" x="185.782" y="-48.3406" font-family="Helvetica,sans-Serif" font-size="10.00">2</text>
</a>
</g>
</g>
<!-- dir_85bf31a2e8d306e7598ffcb73f8df6bf&#45;&gt;dir_37c90836491b695b472bf98d1be8336b -->
<g id="edge10" class="edge"><title>dir_85bf31a2e8d306e7598ffcb73f8df6bf&#45;&gt;dir_37c90836491b695b472bf98d1be8336b</title>
<path fill="none" stroke="black" d="M151.687,-215.531C157.833,-205.291 165.583,-192.041 172,-180 183.032,-159.3 194.542,-135.332 202.874,-117.488"/>
<polygon fill="black" stroke="black" points="206.12,-118.808 207.153,-108.263 199.77,-115.862 206.12,-118.808"/>
<g id="a_edge10&#45;headlabel"><a xlink:href="dir_000131_000067.html" target="_top" xlink:title="2">
<text text-anchor="middle" x="207.183" y="-120.763" font-family="Helvetica,sans-Serif" font-size="10.00">2</text>
</a>
</g>
</g>
<!-- dir_85bf31a2e8d306e7598ffcb73f8df6bf&#45;&gt;dir_2171f7ec022c5423887b07c69b2f5b48 -->
<g id="edge11" class="edge"><title>dir_85bf31a2e8d306e7598ffcb73f8df6bf&#45;&gt;dir_2171f7ec022c5423887b07c69b2f5b48</title>
<path fill="none" stroke="black" d="M129.135,-215.697C123.497,-207.474 116.646,-197.483 110.431,-188.421"/>
<polygon fill="black" stroke="black" points="113.271,-186.372 104.729,-180.104 107.497,-190.331 113.271,-186.372"/>
<g id="a_edge11&#45;headlabel"><a xlink:href="dir_000131_000038.html" target="_top" xlink:title="8">
<text text-anchor="middle" x="117.645" y="-185.231" font-family="Helvetica,sans-Serif" font-size="10.00">8</text>
</a>
</g>
</g>
<!-- dir_f01815b857f9009bea48e2cb39492245&#45;&gt;dir_4ab6b4cc6a7edbff49100e9123df213f -->
<g id="edge12" class="edge"><title>dir_f01815b857f9009bea48e2cb39492245&#45;&gt;dir_4ab6b4cc6a7edbff49100e9123df213f</title>
<path fill="none" stroke="black" d="M352.83,-143.939C338.481,-124.698 313.127,-93.3204 286,-72 266.882,-56.9749 242.88,-44.0913 223.183,-34.7897"/>
<polygon fill="black" stroke="black" points="224.447,-31.5187 213.9,-30.5176 221.521,-37.8776 224.447,-31.5187"/>
<g id="a_edge12&#45;headlabel"><a xlink:href="dir_000187_000016.html" target="_top" xlink:title="1">
<text text-anchor="middle" x="228.9" y="-27.9421" font-family="Helvetica,sans-Serif" font-size="10.00">1</text>
</a>
</g>
</g>
<!-- dir_f01815b857f9009bea48e2cb39492245&#45;&gt;dir_37c90836491b695b472bf98d1be8336b -->
<g id="edge13" class="edge"><title>dir_f01815b857f9009bea48e2cb39492245&#45;&gt;dir_37c90836491b695b472bf98d1be8336b</title>
<path fill="none" stroke="black" d="M337.836,-148.324C313.7,-137.06 278.219,-120.502 251.588,-108.075"/>
<polygon fill="black" stroke="black" points="252.757,-104.758 242.215,-103.7 249.797,-111.101 252.757,-104.758"/>
<g id="a_edge13&#45;headlabel"><a xlink:href="dir_000187_000067.html" target="_top" xlink:title="7">
<text text-anchor="middle" x="257.215" y="-101.205" font-family="Helvetica,sans-Serif" font-size="10.00">7</text>
</a>
</g>
</g>
<!-- dir_2171f7ec022c5423887b07c69b2f5b48&#45;&gt;dir_4ab6b4cc6a7edbff49100e9123df213f -->
<g id="edge21" class="edge"><title>dir_2171f7ec022c5423887b07c69b2f5b48&#45;&gt;dir_4ab6b4cc6a7edbff49100e9123df213f</title>
<path fill="none" stroke="black" d="M101.858,-143.813C111.498,-125.545 127.724,-96.0355 144,-72 150.385,-62.5705 157.962,-52.6776 164.91,-44.0263"/>
<polygon fill="black" stroke="black" points="167.711,-46.1292 171.32,-36.1677 162.287,-41.7048 167.711,-46.1292"/>
<g id="a_edge21&#45;headlabel"><a xlink:href="dir_000038_000016.html" target="_top" xlink:title="4">
<text text-anchor="middle" x="167.639" y="-48.2093" font-family="Helvetica,sans-Serif" font-size="10.00">4</text>
</a>
</g>
</g>
<!-- dir_2171f7ec022c5423887b07c69b2f5b48&#45;&gt;dir_37c90836491b695b472bf98d1be8336b -->
<g id="edge22" class="edge"><title>dir_2171f7ec022c5423887b07c69b2f5b48&#45;&gt;dir_37c90836491b695b472bf98d1be8336b</title>
<path fill="none" stroke="black" d="M122.845,-143.876C139.785,-134.156 161.107,-121.922 178.974,-111.671"/>
<polygon fill="black" stroke="black" points="181.029,-114.527 187.961,-106.514 177.545,-108.455 181.029,-114.527"/>
<g id="a_edge22&#45;headlabel"><a xlink:href="dir_000038_000067.html" target="_top" xlink:title="6">
<text text-anchor="middle" x="179.324" y="-116.278" font-family="Helvetica,sans-Serif" font-size="10.00">6</text>
</a>
</g>
</g>
</g>
</svg>
