<?xml version="1.0" encoding="UTF-8" standalone="no"?>
<!DOCTYPE svg PUBLIC "-//W3C//DTD SVG 1.1//EN"
 "http://www.w3.org/Graphics/SVG/1.1/DTD/svg11.dtd">
<!-- Generated by graphviz version 2.36.0 (20140111.2315)
 -->
<!-- Title: /home/travis/build/AliceO2Group/AliceO2/Detectors/ITSMFT/MFT/reconstruction/include Pages: 1 -->
<svg width="232pt" height="231pt"
 viewBox="0.00 0.00 232.00 231.00" xmlns="http://www.w3.org/2000/svg" xmlns:xlink="http://www.w3.org/1999/xlink">
<g id="graph0" class="graph" transform="scale(1 1) rotate(0) translate(4 227)">
<title>/home/travis/build/AliceO2Group/AliceO2/Detectors/ITSMFT/MFT/reconstruction/include</title>
<g id="clust1" class="cluster"><title>clusterdir_3d8e691f27a9a1a3f5b37028248bc44b</title>
<g id="a_clust1"><a xlink:href="dir_3d8e691f27a9a1a3f5b37028248bc44b.html" target="_top" xlink:title="reconstruction">
<polygon fill="#ddddee" stroke="black" points="8,-128 8,-215 216,-215 216,-128 8,-128"/>
<text text-anchor="middle" x="112" y="-203" font-family="Helvetica,sans-Serif" font-size="10.00">reconstruction</text>
</a>
</g>
</g>
<g id="clust2" class="cluster"><title>clusterdir_a5377c1b7cc3cb8f35997e73e566fda2</title>
<g id="a_clust2"><a xlink:href="dir_a5377c1b7cc3cb8f35997e73e566fda2.html" target="_top">
<polygon fill="#eeeeff" stroke="black" points="16,-136 16,-188 208,-188 208,-136 16,-136"/>
</a>
</g>
</g>
<!-- dir_a5377c1b7cc3cb8f35997e73e566fda2 -->
<g id="node1" class="node"><title>dir_a5377c1b7cc3cb8f35997e73e566fda2</title>
<text text-anchor="middle" x="173" y="-159.5" font-family="Helvetica,sans-Serif" font-size="10.00">include</text>
</g>
<!-- dir_79d778f00f7bcfb47baf52dadbc11277 -->
<g id="node2" class="node"><title>dir_79d778f00f7bcfb47baf52dadbc11277</title>
<g id="a_node2"><a xlink:href="dir_79d778f00f7bcfb47baf52dadbc11277.html" target="_top" xlink:title="MFTReconstruction">
<polygon fill="white" stroke="red" points="127.25,-180 24.75,-180 24.75,-144 127.25,-144 127.25,-180"/>
<text text-anchor="middle" x="76" y="-159.5" font-family="Helvetica,sans-Serif" font-size="10.00">MFTReconstruction</text>
</a>
</g>
</g>
<!-- dir_a336bf94aab96007822cb34c9e2cb8a5 -->
<g id="node3" class="node"><title>dir_a336bf94aab96007822cb34c9e2cb8a5</title>
<g id="a_node3"><a xlink:href="dir_a336bf94aab96007822cb34c9e2cb8a5.html" target="_top" xlink:title="simulation">
<polygon fill="none" stroke="red" points="77.25,-108 16.75,-108 16.75,-72 77.25,-72 77.25,-108"/>
<text text-anchor="middle" x="47" y="-87.5" font-family="Helvetica,sans-Serif" font-size="10.00">simulation</text>
</a>
</g>
</g>
<!-- dir_79d778f00f7bcfb47baf52dadbc11277&#45;&gt;dir_a336bf94aab96007822cb34c9e2cb8a5 -->
<g id="edge1" class="edge"><title>dir_79d778f00f7bcfb47baf52dadbc11277&#45;&gt;dir_a336bf94aab96007822cb34c9e2cb8a5</title>
<path fill="none" stroke="black" d="M68.8315,-143.697C65.5655,-135.813 61.626,-126.304 57.9978,-117.546"/>
<polygon fill="black" stroke="black" points="61.147,-116.003 54.0861,-108.104 54.68,-118.683 61.147,-116.003"/>
<g id="a_edge1&#45;headlabel"><a xlink:href="dir_000118_000094.html" target="_top" xlink:title="1">
<text text-anchor="middle" x="65.1459" y="-115.738" font-family="Helvetica,sans-Serif" font-size="10.00">1</text>
</a>
</g>
</g>
<!-- dir_85bf31a2e8d306e7598ffcb73f8df6bf -->
<g id="node4" class="node"><title>dir_85bf31a2e8d306e7598ffcb73f8df6bf</title>
<g id="a_node4"><a xlink:href="dir_85bf31a2e8d306e7598ffcb73f8df6bf.html" target="_top" xlink:title="common">
<polygon fill="none" stroke="red" points="103,-36 49,-36 49,-0 103,-0 103,-36"/>
<text text-anchor="middle" x="76" y="-15.5" font-family="Helvetica,sans-Serif" font-size="10.00">common</text>
</a>
</g>
</g>
<!-- dir_79d778f00f7bcfb47baf52dadbc11277&#45;&gt;dir_85bf31a2e8d306e7598ffcb73f8df6bf -->
<g id="edge2" class="edge"><title>dir_79d778f00f7bcfb47baf52dadbc11277&#45;&gt;dir_85bf31a2e8d306e7598ffcb73f8df6bf</title>
<path fill="none" stroke="black" d="M80.0591,-143.929C82.3056,-133.598 84.8666,-120.12 86,-108 87.4897,-92.0695 87.4897,-87.9305 86,-72 85.2031,-63.4781 83.7004,-54.2849 82.0975,-45.9862"/>
<polygon fill="black" stroke="black" points="85.5011,-45.1612 80.0591,-36.0708 78.6445,-46.5708 85.5011,-45.1612"/>
<g id="a_edge2&#45;headlabel"><a xlink:href="dir_000118_000131.html" target="_top" xlink:title="2">
<text text-anchor="middle" x="89.006" y="-45.6105" font-family="Helvetica,sans-Serif" font-size="10.00">2</text>
</a>
</g>
</g>
<!-- dir_a336bf94aab96007822cb34c9e2cb8a5&#45;&gt;dir_85bf31a2e8d306e7598ffcb73f8df6bf -->
<g id="edge3" class="edge"><title>dir_a336bf94aab96007822cb34c9e2cb8a5&#45;&gt;dir_85bf31a2e8d306e7598ffcb73f8df6bf</title>
<path fill="none" stroke="black" d="M54.1685,-71.6966C57.4345,-63.8132 61.374,-54.3042 65.0022,-45.5464"/>
<polygon fill="black" stroke="black" points="68.32,-46.6825 68.9139,-36.1043 61.853,-44.0033 68.32,-46.6825"/>
<g id="a_edge3&#45;headlabel"><a xlink:href="dir_000094_000131.html" target="_top" xlink:title="5">
<text text-anchor="middle" x="69.5673" y="-48.5901" font-family="Helvetica,sans-Serif" font-size="10.00">5</text>
</a>
</g>
</g>
</g>
</svg>
