<?xml version="1.0" encoding="UTF-8" standalone="no"?>
<!DOCTYPE svg PUBLIC "-//W3C//DTD SVG 1.1//EN"
 "http://www.w3.org/Graphics/SVG/1.1/DTD/svg11.dtd">
<!-- Generated by graphviz version 2.36.0 (20140111.2315)
 -->
<!-- Title: /home/travis/build/AliceO2Group/AliceO2/Detectors/ITSMFT/MFT/reconstruction/src Pages: 1 -->
<svg width="226pt" height="447pt"
 viewBox="0.00 0.00 225.64 447.00" xmlns="http://www.w3.org/2000/svg" xmlns:xlink="http://www.w3.org/1999/xlink">
<g id="graph0" class="graph" transform="scale(1 1) rotate(0) translate(4 443)">
<title>/home/travis/build/AliceO2Group/AliceO2/Detectors/ITSMFT/MFT/reconstruction/src</title>
<g id="clust1" class="cluster"><title>clusterdir_3d8e691f27a9a1a3f5b37028248bc44b</title>
<g id="a_clust1"><a xlink:href="dir_3d8e691f27a9a1a3f5b37028248bc44b.html" target="_top" xlink:title="reconstruction">
<polygon fill="#ddddee" stroke="black" points="18,-344 18,-431 176,-431 176,-344 18,-344"/>
<text text-anchor="middle" x="97" y="-419" font-family="Helvetica,sans-Serif" font-size="10.00">reconstruction</text>
</a>
</g>
</g>
<g id="clust2" class="cluster"><title>clusterdir_483c4f61a36a1bf308f0df7141e48e27</title>
<g id="a_clust2"><a xlink:href="dir_483c4f61a36a1bf308f0df7141e48e27.html" target="_top">
<polygon fill="#eeeeff" stroke="black" points="26,-352 26,-404 168,-404 168,-352 26,-352"/>
</a>
</g>
</g>
<!-- dir_483c4f61a36a1bf308f0df7141e48e27 -->
<g id="node1" class="node"><title>dir_483c4f61a36a1bf308f0df7141e48e27</title>
<text text-anchor="middle" x="61" y="-375.5" font-family="Helvetica,sans-Serif" font-size="10.00">src</text>
</g>
<!-- dir_7e732ae97f4f941436b6909b27d4da36 -->
<g id="node6" class="node"><title>dir_7e732ae97f4f941436b6909b27d4da36</title>
<g id="a_node6"><a xlink:href="dir_7e732ae97f4f941436b6909b27d4da36.html" target="_top" xlink:title="base">
<polygon fill="none" stroke="red" points="120,-180 66,-180 66,-144 120,-144 120,-180"/>
<text text-anchor="middle" x="93" y="-159.5" font-family="Helvetica,sans-Serif" font-size="10.00">base</text>
</a>
</g>
</g>
<!-- dir_483c4f61a36a1bf308f0df7141e48e27&#45;&gt;dir_7e732ae97f4f941436b6909b27d4da36 -->
<g id="edge9" class="edge"><title>dir_483c4f61a36a1bf308f0df7141e48e27&#45;&gt;dir_7e732ae97f4f941436b6909b27d4da36</title>
<path fill="none" stroke="black" d="M62.3154,-359.977C64.7482,-330.489 70.5789,-268.068 80,-216 81.5419,-207.478 83.64,-198.285 85.7007,-189.987"/>
<polygon fill="black" stroke="black" points="89.1496,-190.627 88.246,-180.071 82.3694,-188.887 89.1496,-190.627"/>
<g id="a_edge9&#45;headlabel"><a xlink:href="dir_000129_000076.html" target="_top" xlink:title="4">
<text text-anchor="middle" x="91.006" y="-192.315" font-family="Helvetica,sans-Serif" font-size="10.00">4</text>
</a>
</g>
</g>
<!-- dir_2171f7ec022c5423887b07c69b2f5b48 -->
<g id="node7" class="node"><title>dir_2171f7ec022c5423887b07c69b2f5b48</title>
<g id="a_node7"><a xlink:href="dir_2171f7ec022c5423887b07c69b2f5b48.html" target="_top" xlink:title="DataFormats">
<polygon fill="none" stroke="red" points="75,-36 1,-36 1,-0 75,-0 75,-36"/>
<text text-anchor="middle" x="38" y="-15.5" font-family="Helvetica,sans-Serif" font-size="10.00">DataFormats</text>
</a>
</g>
</g>
<!-- dir_483c4f61a36a1bf308f0df7141e48e27&#45;&gt;dir_2171f7ec022c5423887b07c69b2f5b48 -->
<g id="edge10" class="edge"><title>dir_483c4f61a36a1bf308f0df7141e48e27&#45;&gt;dir_2171f7ec022c5423887b07c69b2f5b48</title>
<path fill="none" stroke="black" d="M48.0635,-359.655C30.1575,-333.878 0,-283.296 0,-235 0,-235 0,-235 0,-161 0,-119.633 15.2348,-73.7216 26.4117,-45.6051"/>
<polygon fill="black" stroke="black" points="29.7564,-46.6733 30.3101,-36.0929 23.2793,-44.0187 29.7564,-46.6733"/>
<g id="a_edge10&#45;headlabel"><a xlink:href="dir_000129_000038.html" target="_top" xlink:title="2">
<text text-anchor="middle" x="31.0205" y="-48.5761" font-family="Helvetica,sans-Serif" font-size="10.00">2</text>
</a>
</g>
</g>
<!-- dir_a8f8d252744b18905f737caafcc59ec9 -->
<g id="node2" class="node"><title>dir_a8f8d252744b18905f737caafcc59ec9</title>
<g id="a_node2"><a xlink:href="dir_a8f8d252744b18905f737caafcc59ec9.html" target="_top" xlink:title="devices">
<polygon fill="white" stroke="black" points="160,-396 106,-396 106,-360 160,-360 160,-396"/>
<text text-anchor="middle" x="133" y="-375.5" font-family="Helvetica,sans-Serif" font-size="10.00">devices</text>
</a>
</g>
</g>
<!-- dir_a5377c1b7cc3cb8f35997e73e566fda2 -->
<g id="node3" class="node"><title>dir_a5377c1b7cc3cb8f35997e73e566fda2</title>
<g id="a_node3"><a xlink:href="dir_a5377c1b7cc3cb8f35997e73e566fda2.html" target="_top" xlink:title="include">
<polygon fill="none" stroke="red" points="196,-324 142,-324 142,-288 196,-288 196,-324"/>
<text text-anchor="middle" x="169" y="-303.5" font-family="Helvetica,sans-Serif" font-size="10.00">include</text>
</a>
</g>
</g>
<!-- dir_a8f8d252744b18905f737caafcc59ec9&#45;&gt;dir_a5377c1b7cc3cb8f35997e73e566fda2 -->
<g id="edge3" class="edge"><title>dir_a8f8d252744b18905f737caafcc59ec9&#45;&gt;dir_a5377c1b7cc3cb8f35997e73e566fda2</title>
<path fill="none" stroke="black" d="M141.899,-359.697C145.997,-351.728 150.949,-342.1 155.493,-333.264"/>
<polygon fill="black" stroke="black" points="158.742,-334.598 160.203,-324.104 152.517,-331.396 158.742,-334.598"/>
<g id="a_edge3&#45;headlabel"><a xlink:href="dir_000180_000117.html" target="_top" xlink:title="3">
<text text-anchor="middle" x="159.623" y="-336.593" font-family="Helvetica,sans-Serif" font-size="10.00">3</text>
</a>
</g>
</g>
<!-- dir_a336bf94aab96007822cb34c9e2cb8a5 -->
<g id="node4" class="node"><title>dir_a336bf94aab96007822cb34c9e2cb8a5</title>
<g id="a_node4"><a xlink:href="dir_a336bf94aab96007822cb34c9e2cb8a5.html" target="_top" xlink:title="simulation">
<polygon fill="none" stroke="red" points="150.25,-252 89.75,-252 89.75,-216 150.25,-216 150.25,-252"/>
<text text-anchor="middle" x="120" y="-231.5" font-family="Helvetica,sans-Serif" font-size="10.00">simulation</text>
</a>
</g>
</g>
<!-- dir_a8f8d252744b18905f737caafcc59ec9&#45;&gt;dir_a336bf94aab96007822cb34c9e2cb8a5 -->
<g id="edge4" class="edge"><title>dir_a8f8d252744b18905f737caafcc59ec9&#45;&gt;dir_a336bf94aab96007822cb34c9e2cb8a5</title>
<path fill="none" stroke="black" d="M131.432,-359.871C129.216,-335.67 125.146,-291.211 122.508,-262.393"/>
<polygon fill="black" stroke="black" points="125.971,-261.829 121.574,-252.189 119,-262.467 125.971,-261.829"/>
<g id="a_edge4&#45;headlabel"><a xlink:href="dir_000180_000094.html" target="_top" xlink:title="2">
<text text-anchor="middle" x="129.126" y="-262.649" font-family="Helvetica,sans-Serif" font-size="10.00">2</text>
</a>
</g>
</g>
<!-- dir_85bf31a2e8d306e7598ffcb73f8df6bf -->
<g id="node5" class="node"><title>dir_85bf31a2e8d306e7598ffcb73f8df6bf</title>
<g id="a_node5"><a xlink:href="dir_85bf31a2e8d306e7598ffcb73f8df6bf.html" target="_top" xlink:title="common">
<polygon fill="none" stroke="red" points="175,-108 121,-108 121,-72 175,-72 175,-108"/>
<text text-anchor="middle" x="148" y="-87.5" font-family="Helvetica,sans-Serif" font-size="10.00">common</text>
</a>
</g>
</g>
<!-- dir_a8f8d252744b18905f737caafcc59ec9&#45;&gt;dir_85bf31a2e8d306e7598ffcb73f8df6bf -->
<g id="edge5" class="edge"><title>dir_a8f8d252744b18905f737caafcc59ec9&#45;&gt;dir_85bf31a2e8d306e7598ffcb73f8df6bf</title>
<path fill="none" stroke="black" d="M160.077,-365.008C176.328,-356.212 195.615,-342.561 205,-324 240.422,-253.941 192.768,-160.717 165.181,-116.434"/>
<polygon fill="black" stroke="black" points="168.129,-114.548 159.798,-108.002 162.229,-118.314 168.129,-114.548"/>
<g id="a_edge5&#45;headlabel"><a xlink:href="dir_000180_000131.html" target="_top" xlink:title="1">
<text text-anchor="middle" x="172.456" y="-113.55" font-family="Helvetica,sans-Serif" font-size="10.00">1</text>
</a>
</g>
</g>
<!-- dir_a5377c1b7cc3cb8f35997e73e566fda2&#45;&gt;dir_a336bf94aab96007822cb34c9e2cb8a5 -->
<g id="edge1" class="edge"><title>dir_a5377c1b7cc3cb8f35997e73e566fda2&#45;&gt;dir_a336bf94aab96007822cb34c9e2cb8a5</title>
<path fill="none" stroke="black" d="M156.888,-287.697C151.132,-279.474 144.138,-269.483 137.794,-260.421"/>
<polygon fill="black" stroke="black" points="140.575,-258.29 131.973,-252.104 134.84,-262.304 140.575,-258.29"/>
<g id="a_edge1&#45;headlabel"><a xlink:href="dir_000117_000094.html" target="_top" xlink:title="1">
<text text-anchor="middle" x="144.962" y="-257.106" font-family="Helvetica,sans-Serif" font-size="10.00">1</text>
</a>
</g>
</g>
<!-- dir_a5377c1b7cc3cb8f35997e73e566fda2&#45;&gt;dir_85bf31a2e8d306e7598ffcb73f8df6bf -->
<g id="edge2" class="edge"><title>dir_a5377c1b7cc3cb8f35997e73e566fda2&#45;&gt;dir_85bf31a2e8d306e7598ffcb73f8df6bf</title>
<path fill="none" stroke="black" d="M167.317,-287.849C163.684,-250.832 155.083,-163.181 150.687,-118.386"/>
<polygon fill="black" stroke="black" points="154.151,-117.843 149.691,-108.232 147.184,-118.526 154.151,-117.843"/>
<g id="a_edge2&#45;headlabel"><a xlink:href="dir_000117_000131.html" target="_top" xlink:title="2">
<text text-anchor="middle" x="157.328" y="-118.643" font-family="Helvetica,sans-Serif" font-size="10.00">2</text>
</a>
</g>
</g>
<!-- dir_a336bf94aab96007822cb34c9e2cb8a5&#45;&gt;dir_85bf31a2e8d306e7598ffcb73f8df6bf -->
<g id="edge6" class="edge"><title>dir_a336bf94aab96007822cb34c9e2cb8a5&#45;&gt;dir_85bf31a2e8d306e7598ffcb73f8df6bf</title>
<path fill="none" stroke="black" d="M123.377,-215.871C128.171,-191.564 136.993,-146.819 142.673,-118.013"/>
<polygon fill="black" stroke="black" points="146.11,-118.677 144.611,-108.189 139.242,-117.323 146.11,-118.677"/>
<g id="a_edge6&#45;headlabel"><a xlink:href="dir_000094_000131.html" target="_top" xlink:title="5">
<text text-anchor="middle" x="148.2" y="-120.253" font-family="Helvetica,sans-Serif" font-size="10.00">5</text>
</a>
</g>
</g>
<!-- dir_a336bf94aab96007822cb34c9e2cb8a5&#45;&gt;dir_7e732ae97f4f941436b6909b27d4da36 -->
<g id="edge7" class="edge"><title>dir_a336bf94aab96007822cb34c9e2cb8a5&#45;&gt;dir_7e732ae97f4f941436b6909b27d4da36</title>
<path fill="none" stroke="black" d="M113.326,-215.697C110.285,-207.813 106.617,-198.304 103.239,-189.546"/>
<polygon fill="black" stroke="black" points="106.462,-188.175 99.5974,-180.104 99.9307,-190.694 106.462,-188.175"/>
<g id="a_edge7&#45;headlabel"><a xlink:href="dir_000094_000076.html" target="_top" xlink:title="1">
<text text-anchor="middle" x="110.404" y="-188.007" font-family="Helvetica,sans-Serif" font-size="10.00">1</text>
</a>
</g>
</g>
<!-- dir_a336bf94aab96007822cb34c9e2cb8a5&#45;&gt;dir_2171f7ec022c5423887b07c69b2f5b48 -->
<g id="edge8" class="edge"><title>dir_a336bf94aab96007822cb34c9e2cb8a5&#45;&gt;dir_2171f7ec022c5423887b07c69b2f5b48</title>
<path fill="none" stroke="black" d="M91.1424,-215.879C78.5407,-206.845 64.8678,-194.594 57,-180 34.102,-137.525 33.3523,-79.7318 35.3551,-46.1882"/>
<polygon fill="black" stroke="black" points="38.8469,-46.4261 36.0774,-36.1997 31.8651,-45.9211 38.8469,-46.4261"/>
<g id="a_edge8&#45;headlabel"><a xlink:href="dir_000094_000038.html" target="_top" xlink:title="1">
<text text-anchor="middle" x="41.4196" y="-47.7161" font-family="Helvetica,sans-Serif" font-size="10.00">1</text>
</a>
</g>
</g>
<!-- dir_85bf31a2e8d306e7598ffcb73f8df6bf&#45;&gt;dir_2171f7ec022c5423887b07c69b2f5b48 -->
<g id="edge11" class="edge"><title>dir_85bf31a2e8d306e7598ffcb73f8df6bf&#45;&gt;dir_2171f7ec022c5423887b07c69b2f5b48</title>
<path fill="none" stroke="black" d="M121.091,-71.8761C106.842,-62.8083 89.1537,-51.5523 73.7644,-41.7592"/>
<polygon fill="black" stroke="black" points="75.3282,-38.6057 65.0125,-36.1898 71.57,-44.5114 75.3282,-38.6057"/>
<g id="a_edge11&#45;headlabel"><a xlink:href="dir_000131_000038.html" target="_top" xlink:title="8">
<text text-anchor="middle" x="79.8851" y="-35.6402" font-family="Helvetica,sans-Serif" font-size="10.00">8</text>
</a>
</g>
</g>
<!-- dir_7e732ae97f4f941436b6909b27d4da36&#45;&gt;dir_85bf31a2e8d306e7598ffcb73f8df6bf -->
<g id="edge12" class="edge"><title>dir_7e732ae97f4f941436b6909b27d4da36&#45;&gt;dir_85bf31a2e8d306e7598ffcb73f8df6bf</title>
<path fill="none" stroke="black" d="M106.596,-143.697C113.123,-135.389 121.068,-125.277 128.247,-116.141"/>
<polygon fill="black" stroke="black" points="131.135,-118.13 134.561,-108.104 125.631,-113.805 131.135,-118.13"/>
<g id="a_edge12&#45;headlabel"><a xlink:href="dir_000076_000131.html" target="_top" xlink:title="7">
<text text-anchor="middle" x="131.147" y="-120.211" font-family="Helvetica,sans-Serif" font-size="10.00">7</text>
</a>
</g>
</g>
</g>
</svg>
