<?xml version="1.0" encoding="UTF-8" standalone="no"?>
<!DOCTYPE svg PUBLIC "-//W3C//DTD SVG 1.1//EN"
 "http://www.w3.org/Graphics/SVG/1.1/DTD/svg11.dtd">
<!-- Generated by graphviz version 2.36.0 (20140111.2315)
 -->
<!-- Title: /home/travis/build/AliceO2Group/AliceO2/Detectors Pages: 1 -->
<!--zoomable 348 -->
<svg id="main" version="1.1" xmlns="http://www.w3.org/2000/svg" xmlns:xlink="http://www.w3.org/1999/xlink" xml:space="preserve" onload="init(evt)">
<style type="text/css"><![CDATA[
.edge:hover path { stroke: red; }
.edge:hover polygon { stroke: red; fill: red; }
]]></style>
<script type="text/javascript"><![CDATA[
var edges = document.getElementsByTagName('g');
if (edges && edges.length) {
  for (var i=0;i<edges.length;i++) {
    if (edges[i].id.substr(0,4)=='edge') {
      edges[i].setAttribute('class','edge');
    }
  }
}
]]></script>
        <defs>
                <circle id="rim" cx="0" cy="0" r="7"/>
                <circle id="rim2" cx="0" cy="0" r="3.5"/>
                <g id="zoomPlus">
                        <use xlink:href="#rim" fill="#404040">
                                <set attributeName="fill" to="#808080" begin="zoomplus.mouseover" end="zoomplus.mouseout"/>
                        </use>
                        <path d="M-4,0h8M0,-4v8" fill="none" stroke="white" stroke-width="1.5" pointer-events="none"/>
                </g>
                <g id="zoomMin">
                        <use xlink:href="#rim" fill="#404040">
                                <set attributeName="fill" to="#808080" begin="zoomminus.mouseover" end="zoomminus.mouseout"/>
                        </use>
                        <path d="M-4,0h8" fill="none" stroke="white" stroke-width="1.5" pointer-events="none"/>
                </g>
                <g id="dirArrow">
                        <path fill="none" stroke="white" stroke-width="1.5" d="M0,-3.0v7 M-2.5,-0.5L0,-3.0L2.5,-0.5"/>
                </g>
               <g id="resetDef">
                       <use xlink:href="#rim2" fill="#404040">
                               <set attributeName="fill" to="#808080" begin="reset.mouseover" end="reset.mouseout"/>
                       </use>
               </g>
        </defs>

<script type="text/javascript">
var viewWidth = 651;
var viewHeight = 348;
var sectionId = 'dynsection-0';
</script>
<script xlink:href="svgpan.js"/>
<svg id="graph" class="graph">
<g id="viewport">
<title>/home/travis/build/AliceO2Group/AliceO2/Detectors</title>
<g id="clust1" class="cluster"><title>clusterdir_051dca18e802f8e9474f2e30d29c04e0</title>
<g id="a_clust1"><a xlink:href="dir_051dca18e802f8e9474f2e30d29c04e0.html" target="_top">
<polygon fill="#eeeeff" stroke="black" points="87.8251,-64 87.8251,-332 453.825,-332 453.825,-64 87.8251,-64"/>
</a>
</g>
</g>
<!-- dir_051dca18e802f8e9474f2e30d29c04e0 -->
<g id="node1" class="node"><title>dir_051dca18e802f8e9474f2e30d29c04e0</title>
<text text-anchor="middle" x="415.825" y="-303.5" font-family="Helvetica,sans-Serif" font-size="10.00">Detectors</text>
</g>
<!-- dir_37c90836491b695b472bf98d1be8336b -->
<g id="node2" class="node"><title>dir_37c90836491b695b472bf98d1be8336b</title>
<g id="a_node2"><a xlink:href="dir_37c90836491b695b472bf98d1be8336b.html" target="_top" xlink:title="Base">
<polygon fill="white" stroke="red" points="336.825,-108 282.825,-108 282.825,-72 336.825,-72 336.825,-108"/>
<text text-anchor="middle" x="309.825" y="-87.5" font-family="Helvetica,sans-Serif" font-size="10.00">Base</text>
</a>
</g>
</g>
<!-- dir_4ab6b4cc6a7edbff49100e9123df213f -->
<g id="node13" class="node"><title>dir_4ab6b4cc6a7edbff49100e9123df213f</title>
<g id="a_node13"><a xlink:href="dir_4ab6b4cc6a7edbff49100e9123df213f.html" target="_top" xlink:title="Common">
<polygon fill="none" stroke="red" points="430.325,-36 375.325,-36 375.325,-0 430.325,-0 430.325,-36"/>
<text text-anchor="middle" x="402.825" y="-15.5" font-family="Helvetica,sans-Serif" font-size="10.00">Common</text>
</a>
</g>
</g>
<!-- dir_37c90836491b695b472bf98d1be8336b&#45;&gt;dir_4ab6b4cc6a7edbff49100e9123df213f -->
<g id="edge15" class="edge"><title>dir_37c90836491b695b472bf98d1be8336b&#45;&gt;dir_4ab6b4cc6a7edbff49100e9123df213f</title>
<path fill="none" stroke="black" d="M332.814,-71.6966C344.639,-62.796 359.217,-51.8232 372.004,-42.1989"/>
<polygon fill="black" stroke="black" points="374.216,-44.9145 380.101,-36.1043 370.006,-39.3217 374.216,-44.9145"/>
<g id="a_edge15&#45;headlabel"><a xlink:href="dir_000067_000016.html" target="_top" xlink:title="5">
<text text-anchor="middle" x="373.051" y="-46.8447" font-family="Helvetica,sans-Serif" font-size="10.00">5</text>
</a>
</g>
</g>
<!-- dir_088378b58cb1ba39db48039cbd66d10f -->
<g id="node3" class="node"><title>dir_088378b58cb1ba39db48039cbd66d10f</title>
<g id="a_node3"><a xlink:href="dir_088378b58cb1ba39db48039cbd66d10f.html" target="_top" xlink:title="EMCAL">
<polygon fill="white" stroke="red" points="367.825,-324 313.825,-324 313.825,-288 367.825,-288 367.825,-324"/>
<text text-anchor="middle" x="340.825" y="-303.5" font-family="Helvetica,sans-Serif" font-size="10.00">EMCAL</text>
</a>
</g>
</g>
<!-- dir_088378b58cb1ba39db48039cbd66d10f&#45;&gt;dir_37c90836491b695b472bf98d1be8336b -->
<g id="edge6" class="edge"><title>dir_088378b58cb1ba39db48039cbd66d10f&#45;&gt;dir_37c90836491b695b472bf98d1be8336b</title>
<path fill="none" stroke="black" d="M367.991,-291.46C394.372,-278.035 430.998,-258.552 434.825,-252 442.896,-238.185 436.145,-231.945 434.825,-216 432.149,-183.669 442.424,-169.852 422.825,-144 404.45,-119.762 372.252,-106.17 346.915,-98.8362"/>
<polygon fill="black" stroke="black" points="347.802,-95.4503 337.236,-96.2361 345.986,-102.211 347.802,-95.4503"/>
<g id="a_edge6&#45;headlabel"><a xlink:href="dir_000070_000067.html" target="_top" xlink:title="1">
<text text-anchor="middle" x="352.01" y="-91.1407" font-family="Helvetica,sans-Serif" font-size="10.00">1</text>
</a>
</g>
</g>
<!-- dir_f01815b857f9009bea48e2cb39492245 -->
<g id="node7" class="node"><title>dir_f01815b857f9009bea48e2cb39492245</title>
<g id="a_node7"><a xlink:href="dir_f01815b857f9009bea48e2cb39492245.html" target="_top" xlink:title="Passive">
<polygon fill="white" stroke="red" points="405.825,-180 351.825,-180 351.825,-144 405.825,-144 405.825,-180"/>
<text text-anchor="middle" x="378.825" y="-159.5" font-family="Helvetica,sans-Serif" font-size="10.00">Passive</text>
</a>
</g>
</g>
<!-- dir_088378b58cb1ba39db48039cbd66d10f&#45;&gt;dir_f01815b857f9009bea48e2cb39492245 -->
<g id="edge8" class="edge"><title>dir_088378b58cb1ba39db48039cbd66d10f&#45;&gt;dir_f01815b857f9009bea48e2cb39492245</title>
<path fill="none" stroke="black" d="M344.786,-287.871C349.005,-269.901 356.003,-240.866 362.825,-216 365.175,-207.433 367.914,-198.144 370.454,-189.771"/>
<polygon fill="black" stroke="black" points="373.828,-190.709 373.415,-180.122 367.136,-188.655 373.828,-190.709"/>
<g id="a_edge8&#45;headlabel"><a xlink:href="dir_000070_000187.html" target="_top" xlink:title="5">
<text text-anchor="middle" x="375.488" y="-192.478" font-family="Helvetica,sans-Serif" font-size="10.00">5</text>
</a>
</g>
</g>
<!-- dir_577c839d346a264df4e9e588ca2a45dd -->
<g id="node9" class="node"><title>dir_577c839d346a264df4e9e588ca2a45dd</title>
<g id="a_node9"><a xlink:href="dir_577c839d346a264df4e9e588ca2a45dd.html" target="_top" xlink:title="TOF">
<polygon fill="white" stroke="red" points="241.825,-252 187.825,-252 187.825,-216 241.825,-216 241.825,-252"/>
<text text-anchor="middle" x="214.825" y="-231.5" font-family="Helvetica,sans-Serif" font-size="10.00">TOF</text>
</a>
</g>
</g>
<!-- dir_088378b58cb1ba39db48039cbd66d10f&#45;&gt;dir_577c839d346a264df4e9e588ca2a45dd -->
<g id="edge7" class="edge"><title>dir_088378b58cb1ba39db48039cbd66d10f&#45;&gt;dir_577c839d346a264df4e9e588ca2a45dd</title>
<path fill="none" stroke="black" d="M313.795,-289.983C295.485,-279.811 271.078,-266.252 251.084,-255.144"/>
<polygon fill="black" stroke="black" points="252.687,-252.03 242.245,-250.233 249.287,-258.149 252.687,-252.03"/>
<g id="a_edge7&#45;headlabel"><a xlink:href="dir_000070_000101.html" target="_top" xlink:title="1">
<text text-anchor="middle" x="257.208" y="-248.794" font-family="Helvetica,sans-Serif" font-size="10.00">1</text>
</a>
</g>
</g>
<!-- dir_a597e8e061b11201a1dff411feb10d0b -->
<g id="node10" class="node"><title>dir_a597e8e061b11201a1dff411feb10d0b</title>
<g id="a_node10"><a xlink:href="dir_a597e8e061b11201a1dff411feb10d0b.html" target="_top" xlink:title="TPC">
<polygon fill="white" stroke="red" points="313.825,-180 259.825,-180 259.825,-144 313.825,-144 313.825,-180"/>
<text text-anchor="middle" x="286.825" y="-159.5" font-family="Helvetica,sans-Serif" font-size="10.00">TPC</text>
</a>
</g>
</g>
<!-- dir_088378b58cb1ba39db48039cbd66d10f&#45;&gt;dir_a597e8e061b11201a1dff411feb10d0b -->
<g id="edge5" class="edge"><title>dir_088378b58cb1ba39db48039cbd66d10f&#45;&gt;dir_a597e8e061b11201a1dff411feb10d0b</title>
<path fill="none" stroke="black" d="M313.77,-292.423C298.113,-283.545 279.783,-270.017 270.825,-252 261.11,-232.458 266.664,-207.895 273.769,-189.527"/>
<polygon fill="black" stroke="black" points="277.004,-190.863 277.67,-180.289 270.555,-188.14 277.004,-190.863"/>
<g id="a_edge5&#45;headlabel"><a xlink:href="dir_000070_000079.html" target="_top" xlink:title="1">
<text text-anchor="middle" x="278.221" y="-192.779" font-family="Helvetica,sans-Serif" font-size="10.00">1</text>
</a>
</g>
</g>
<!-- dir_0b342c6c6b7d2278121a0bb9c4985063 -->
<g id="node12" class="node"><title>dir_0b342c6c6b7d2278121a0bb9c4985063</title>
<g id="a_node12"><a xlink:href="dir_0b342c6c6b7d2278121a0bb9c4985063.html" target="_top" xlink:title="Generators">
<polygon fill="none" stroke="red" points="643.075,-252 578.575,-252 578.575,-216 643.075,-216 643.075,-252"/>
<text text-anchor="middle" x="610.825" y="-231.5" font-family="Helvetica,sans-Serif" font-size="10.00">Generators</text>
</a>
</g>
</g>
<!-- dir_088378b58cb1ba39db48039cbd66d10f&#45;&gt;dir_0b342c6c6b7d2278121a0bb9c4985063 -->
<g id="edge3" class="edge"><title>dir_088378b58cb1ba39db48039cbd66d10f&#45;&gt;dir_0b342c6c6b7d2278121a0bb9c4985063</title>
<path fill="none" stroke="black" d="M368.013,-291.625C371.275,-290.285 374.595,-289.038 377.825,-288 457.988,-262.239 482.655,-274.388 563.825,-252 565.464,-251.548 567.128,-251.066 568.802,-250.56"/>
<polygon fill="black" stroke="black" points="569.975,-253.859 578.421,-247.463 567.829,-247.196 569.975,-253.859"/>
<g id="a_edge3&#45;headlabel"><a xlink:href="dir_000070_000268.html" target="_top" xlink:title="1">
<text text-anchor="middle" x="567.423" y="-255.164" font-family="Helvetica,sans-Serif" font-size="10.00">1</text>
</a>
</g>
</g>
<!-- dir_088378b58cb1ba39db48039cbd66d10f&#45;&gt;dir_4ab6b4cc6a7edbff49100e9123df213f -->
<g id="edge4" class="edge"><title>dir_088378b58cb1ba39db48039cbd66d10f&#45;&gt;dir_4ab6b4cc6a7edbff49100e9123df213f</title>
<path fill="none" stroke="black" d="M368.139,-291.779C393.277,-279.387 428.474,-261.402 440.825,-252 475.848,-225.339 491.997,-220.672 508.825,-180 528.539,-132.354 539.427,-106.903 510.825,-64 495.248,-40.6343 464.998,-29.3815 440.466,-23.9731"/>
<polygon fill="black" stroke="black" points="440.848,-20.4815 430.362,-21.9948 439.503,-27.3511 440.848,-20.4815"/>
<g id="a_edge4&#45;headlabel"><a xlink:href="dir_000070_000016.html" target="_top" xlink:title="3">
<text text-anchor="middle" x="444.921" y="-15.8858" font-family="Helvetica,sans-Serif" font-size="10.00">3</text>
</a>
</g>
</g>
<!-- dir_2171f7ec022c5423887b07c69b2f5b48 -->
<g id="node14" class="node"><title>dir_2171f7ec022c5423887b07c69b2f5b48</title>
<g id="a_node14"><a xlink:href="dir_2171f7ec022c5423887b07c69b2f5b48.html" target="_top" xlink:title="DataFormats">
<polygon fill="none" stroke="red" points="79.8251,-108 5.82513,-108 5.82513,-72 79.8251,-72 79.8251,-108"/>
<text text-anchor="middle" x="42.8251" y="-87.5" font-family="Helvetica,sans-Serif" font-size="10.00">DataFormats</text>
</a>
</g>
</g>
<!-- dir_088378b58cb1ba39db48039cbd66d10f&#45;&gt;dir_2171f7ec022c5423887b07c69b2f5b48 -->
<g id="edge9" class="edge"><title>dir_088378b58cb1ba39db48039cbd66d10f&#45;&gt;dir_2171f7ec022c5423887b07c69b2f5b48</title>
<path fill="none" stroke="black" d="M313.688,-299.129C240.411,-282.661 41.6474,-233.71 5.82513,-180 -7.46026,-160.081 5.66442,-134.625 19.8268,-116.044"/>
<polygon fill="black" stroke="black" points="22.7398,-118.008 26.3157,-108.035 17.301,-113.602 22.7398,-118.008"/>
<g id="a_edge9&#45;headlabel"><a xlink:href="dir_000070_000038.html" target="_top" xlink:title="2">
<text text-anchor="middle" x="22.683" y="-120.089" font-family="Helvetica,sans-Serif" font-size="10.00">2</text>
</a>
</g>
</g>
<!-- dir_d14e88a79bca429480864605ee348cef -->
<g id="node4" class="node"><title>dir_d14e88a79bca429480864605ee348cef</title>
<g id="a_node4"><a xlink:href="dir_d14e88a79bca429480864605ee348cef.html" target="_top" xlink:title="FIT">
<polygon fill="white" stroke="red" points="221.825,-180 167.825,-180 167.825,-144 221.825,-144 221.825,-180"/>
<text text-anchor="middle" x="194.825" y="-159.5" font-family="Helvetica,sans-Serif" font-size="10.00">FIT</text>
</a>
</g>
</g>
<!-- dir_d14e88a79bca429480864605ee348cef&#45;&gt;dir_37c90836491b695b472bf98d1be8336b -->
<g id="edge10" class="edge"><title>dir_d14e88a79bca429480864605ee348cef&#45;&gt;dir_37c90836491b695b472bf98d1be8336b</title>
<path fill="none" stroke="black" d="M222.079,-144.411C237.546,-134.996 257.096,-123.096 273.814,-112.92"/>
<polygon fill="black" stroke="black" points="276.045,-115.659 282.767,-107.47 272.406,-109.68 276.045,-115.659"/>
<g id="a_edge10&#45;headlabel"><a xlink:href="dir_000086_000067.html" target="_top" xlink:title="1">
<text text-anchor="middle" x="274.451" y="-117.453" font-family="Helvetica,sans-Serif" font-size="10.00">1</text>
</a>
</g>
</g>
<!-- dir_d14e88a79bca429480864605ee348cef&#45;&gt;dir_2171f7ec022c5423887b07c69b2f5b48 -->
<g id="edge11" class="edge"><title>dir_d14e88a79bca429480864605ee348cef&#45;&gt;dir_2171f7ec022c5423887b07c69b2f5b48</title>
<path fill="none" stroke="black" d="M167.715,-148.153C164.718,-146.746 161.709,-145.339 158.825,-144 135.911,-133.355 110.376,-121.67 89.1096,-111.986"/>
<polygon fill="black" stroke="black" points="90.523,-108.784 79.9713,-107.828 87.6241,-115.155 90.523,-108.784"/>
<g id="a_edge11&#45;headlabel"><a xlink:href="dir_000086_000038.html" target="_top" xlink:title="1">
<text text-anchor="middle" x="94.9707" y="-105.188" font-family="Helvetica,sans-Serif" font-size="10.00">1</text>
</a>
</g>
</g>
<!-- dir_fda58d415f46ed5554e220ec8997f6b0 -->
<g id="node5" class="node"><title>dir_fda58d415f46ed5554e220ec8997f6b0</title>
<g id="a_node5"><a xlink:href="dir_fda58d415f46ed5554e220ec8997f6b0.html" target="_top" xlink:title="gconfig">
<polygon fill="white" stroke="black" points="222.825,-324 168.825,-324 168.825,-288 222.825,-288 222.825,-324"/>
<text text-anchor="middle" x="195.825" y="-303.5" font-family="Helvetica,sans-Serif" font-size="10.00">gconfig</text>
</a>
</g>
</g>
<!-- dir_1306292b77b40360479b729ac9ee7efe -->
<g id="node6" class="node"><title>dir_1306292b77b40360479b729ac9ee7efe</title>
<g id="a_node6"><a xlink:href="dir_1306292b77b40360479b729ac9ee7efe.html" target="_top" xlink:title="ITSMFT">
<polygon fill="white" stroke="red" points="333.825,-252 279.825,-252 279.825,-216 333.825,-216 333.825,-252"/>
<text text-anchor="middle" x="306.825" y="-231.5" font-family="Helvetica,sans-Serif" font-size="10.00">ITSMFT</text>
</a>
</g>
</g>
<!-- dir_1306292b77b40360479b729ac9ee7efe&#45;&gt;dir_37c90836491b695b472bf98d1be8336b -->
<g id="edge18" class="edge"><title>dir_1306292b77b40360479b729ac9ee7efe&#45;&gt;dir_37c90836491b695b472bf98d1be8336b</title>
<path fill="none" stroke="black" d="M313.477,-215.628C317.028,-205.421 321.028,-192.171 322.825,-180 325.162,-164.172 324.745,-159.884 322.825,-144 321.802,-135.535 319.892,-126.471 317.844,-118.276"/>
<polygon fill="black" stroke="black" points="321.189,-117.234 315.234,-108.471 314.424,-119.034 321.189,-117.234"/>
<g id="a_edge18&#45;headlabel"><a xlink:href="dir_000074_000067.html" target="_top" xlink:title="35">
<text text-anchor="middle" x="324.857" y="-117.477" font-family="Helvetica,sans-Serif" font-size="10.00">35</text>
</a>
</g>
</g>
<!-- dir_1306292b77b40360479b729ac9ee7efe&#45;&gt;dir_f01815b857f9009bea48e2cb39492245 -->
<g id="edge19" class="edge"><title>dir_1306292b77b40360479b729ac9ee7efe&#45;&gt;dir_f01815b857f9009bea48e2cb39492245</title>
<path fill="none" stroke="black" d="M324.623,-215.697C333.429,-207.135 344.207,-196.656 353.826,-187.304"/>
<polygon fill="black" stroke="black" points="356.502,-189.585 361.232,-180.104 351.622,-184.566 356.502,-189.585"/>
<g id="a_edge19&#45;headlabel"><a xlink:href="dir_000074_000187.html" target="_top" xlink:title="1">
<text text-anchor="middle" x="355.904" y="-191.626" font-family="Helvetica,sans-Serif" font-size="10.00">1</text>
</a>
</g>
</g>
<!-- dir_1306292b77b40360479b729ac9ee7efe&#45;&gt;dir_a597e8e061b11201a1dff411feb10d0b -->
<g id="edge17" class="edge"><title>dir_1306292b77b40360479b729ac9ee7efe&#45;&gt;dir_a597e8e061b11201a1dff411feb10d0b</title>
<path fill="none" stroke="black" d="M301.881,-215.697C299.653,-207.898 296.97,-198.509 294.491,-189.829"/>
<polygon fill="black" stroke="black" points="297.825,-188.758 291.712,-180.104 291.094,-190.681 297.825,-188.758"/>
<g id="a_edge17&#45;headlabel"><a xlink:href="dir_000074_000079.html" target="_top" xlink:title="1">
<text text-anchor="middle" x="301.542" y="-188.934" font-family="Helvetica,sans-Serif" font-size="10.00">1</text>
</a>
</g>
</g>
<!-- dir_1306292b77b40360479b729ac9ee7efe&#45;&gt;dir_4ab6b4cc6a7edbff49100e9123df213f -->
<g id="edge16" class="edge"><title>dir_1306292b77b40360479b729ac9ee7efe&#45;&gt;dir_4ab6b4cc6a7edbff49100e9123df213f</title>
<path fill="none" stroke="black" d="M334.085,-223.409C362.968,-212.63 405.657,-194.712 414.825,-180 440.485,-138.825 425.959,-79.7253 413.859,-45.7648"/>
<polygon fill="black" stroke="black" points="417.016,-44.2155 410.229,-36.0801 410.462,-46.6724 417.016,-44.2155"/>
<g id="a_edge16&#45;headlabel"><a xlink:href="dir_000074_000016.html" target="_top" xlink:title="16">
<text text-anchor="middle" x="420.937" y="-44.085" font-family="Helvetica,sans-Serif" font-size="10.00">16</text>
</a>
</g>
</g>
<!-- dir_1306292b77b40360479b729ac9ee7efe&#45;&gt;dir_2171f7ec022c5423887b07c69b2f5b48 -->
<g id="edge20" class="edge"><title>dir_1306292b77b40360479b729ac9ee7efe&#45;&gt;dir_2171f7ec022c5423887b07c69b2f5b48</title>
<path fill="none" stroke="black" d="M279.653,-224.071C270.55,-221.262 260.305,-218.297 250.825,-216 164.323,-195.039 114.917,-244.728 53.8251,-180 38.5871,-163.855 36.9116,-138.083 38.4175,-118.418"/>
<polygon fill="black" stroke="black" points="41.9247,-118.538 39.5155,-108.221 34.9649,-117.788 41.9247,-118.538"/>
<g id="a_edge20&#45;headlabel"><a xlink:href="dir_000074_000038.html" target="_top" xlink:title="31">
<text text-anchor="middle" x="44.3629" y="-119.916" font-family="Helvetica,sans-Serif" font-size="10.00">31</text>
</a>
</g>
</g>
<!-- dir_f01815b857f9009bea48e2cb39492245&#45;&gt;dir_37c90836491b695b472bf98d1be8336b -->
<g id="edge29" class="edge"><title>dir_f01815b857f9009bea48e2cb39492245&#45;&gt;dir_37c90836491b695b472bf98d1be8336b</title>
<path fill="none" stroke="black" d="M361.769,-143.697C353.33,-135.135 343.001,-124.656 333.782,-115.304"/>
<polygon fill="black" stroke="black" points="336.198,-112.769 326.685,-108.104 331.213,-117.683 336.198,-112.769"/>
<g id="a_edge29&#45;headlabel"><a xlink:href="dir_000187_000067.html" target="_top" xlink:title="7">
<text text-anchor="middle" x="340.743" y="-110.836" font-family="Helvetica,sans-Serif" font-size="10.00">7</text>
</a>
</g>
</g>
<!-- dir_f01815b857f9009bea48e2cb39492245&#45;&gt;dir_4ab6b4cc6a7edbff49100e9123df213f -->
<g id="edge28" class="edge"><title>dir_f01815b857f9009bea48e2cb39492245&#45;&gt;dir_4ab6b4cc6a7edbff49100e9123df213f</title>
<path fill="none" stroke="black" d="M381.72,-143.871C385.81,-119.67 393.325,-75.2108 398.195,-46.3932"/>
<polygon fill="black" stroke="black" points="401.704,-46.6327 399.92,-36.1893 394.802,-45.4661 401.704,-46.6327"/>
<g id="a_edge28&#45;headlabel"><a xlink:href="dir_000187_000016.html" target="_top" xlink:title="1">
<text text-anchor="middle" x="403.905" y="-48.1502" font-family="Helvetica,sans-Serif" font-size="10.00">1</text>
</a>
</g>
</g>
<!-- dir_cd3c152a7db0580c86a4c50ad0325149 -->
<g id="node8" class="node"><title>dir_cd3c152a7db0580c86a4c50ad0325149</title>
<g id="a_node8"><a xlink:href="dir_cd3c152a7db0580c86a4c50ad0325149.html" target="_top" xlink:title="PHOS">
<polygon fill="white" stroke="red" points="425.825,-252 371.825,-252 371.825,-216 425.825,-216 425.825,-252"/>
<text text-anchor="middle" x="398.825" y="-231.5" font-family="Helvetica,sans-Serif" font-size="10.00">PHOS</text>
</a>
</g>
</g>
<!-- dir_cd3c152a7db0580c86a4c50ad0325149&#45;&gt;dir_37c90836491b695b472bf98d1be8336b -->
<g id="edge25" class="edge"><title>dir_cd3c152a7db0580c86a4c50ad0325149&#45;&gt;dir_37c90836491b695b472bf98d1be8336b</title>
<path fill="none" stroke="black" d="M408.432,-215.964C417.701,-197.027 428.484,-166.194 414.825,-144 400.123,-120.11 370.964,-106.598 347.097,-99.2047"/>
<polygon fill="black" stroke="black" points="347.826,-95.7733 337.25,-96.3986 345.908,-102.505 347.826,-95.7733"/>
<g id="a_edge25&#45;headlabel"><a xlink:href="dir_000097_000067.html" target="_top" xlink:title="1">
<text text-anchor="middle" x="352.062" y="-91.5278" font-family="Helvetica,sans-Serif" font-size="10.00">1</text>
</a>
</g>
</g>
<!-- dir_cd3c152a7db0580c86a4c50ad0325149&#45;&gt;dir_f01815b857f9009bea48e2cb39492245 -->
<g id="edge26" class="edge"><title>dir_cd3c152a7db0580c86a4c50ad0325149&#45;&gt;dir_f01815b857f9009bea48e2cb39492245</title>
<path fill="none" stroke="black" d="M393.881,-215.697C391.653,-207.898 388.97,-198.509 386.491,-189.829"/>
<polygon fill="black" stroke="black" points="389.825,-188.758 383.712,-180.104 383.094,-190.681 389.825,-188.758"/>
<g id="a_edge26&#45;headlabel"><a xlink:href="dir_000097_000187.html" target="_top" xlink:title="4">
<text text-anchor="middle" x="393.542" y="-188.934" font-family="Helvetica,sans-Serif" font-size="10.00">4</text>
</a>
</g>
</g>
<!-- dir_cd3c152a7db0580c86a4c50ad0325149&#45;&gt;dir_4ab6b4cc6a7edbff49100e9123df213f -->
<g id="edge24" class="edge"><title>dir_cd3c152a7db0580c86a4c50ad0325149&#45;&gt;dir_4ab6b4cc6a7edbff49100e9123df213f</title>
<path fill="none" stroke="black" d="M425.958,-225.015C446.982,-217.238 474.673,-203.139 487.825,-180 513.301,-135.178 514.418,-108.168 487.825,-64 477.433,-46.7404 457.956,-35.7541 440.265,-28.9616"/>
<polygon fill="black" stroke="black" points="441.285,-25.6102 430.69,-25.6063 438.97,-32.2164 441.285,-25.6102"/>
<g id="a_edge24&#45;headlabel"><a xlink:href="dir_000097_000016.html" target="_top" xlink:title="2">
<text text-anchor="middle" x="445.616" y="-21.6194" font-family="Helvetica,sans-Serif" font-size="10.00">2</text>
</a>
</g>
</g>
<!-- dir_cd3c152a7db0580c86a4c50ad0325149&#45;&gt;dir_2171f7ec022c5423887b07c69b2f5b48 -->
<g id="edge27" class="edge"><title>dir_cd3c152a7db0580c86a4c50ad0325149&#45;&gt;dir_2171f7ec022c5423887b07c69b2f5b48</title>
<path fill="none" stroke="black" d="M371.706,-223.842C362.606,-221.018 352.35,-218.102 342.825,-216 230.628,-191.238 179.957,-247.29 86.8251,-180 66.3872,-165.233 54.9395,-138.282 48.8812,-117.893"/>
<polygon fill="black" stroke="black" points="52.2509,-116.945 46.2547,-108.211 45.495,-118.778 52.2509,-116.945"/>
<g id="a_edge27&#45;headlabel"><a xlink:href="dir_000097_000038.html" target="_top" xlink:title="2">
<text text-anchor="middle" x="55.9322" y="-117.171" font-family="Helvetica,sans-Serif" font-size="10.00">2</text>
</a>
</g>
</g>
<!-- dir_577c839d346a264df4e9e588ca2a45dd&#45;&gt;dir_37c90836491b695b472bf98d1be8336b -->
<g id="edge21" class="edge"><title>dir_577c839d346a264df4e9e588ca2a45dd&#45;&gt;dir_37c90836491b695b472bf98d1be8336b</title>
<path fill="none" stroke="black" d="M219.252,-215.793C224.643,-196.98 235.033,-166.516 250.825,-144 258.436,-133.148 268.666,-122.963 278.469,-114.478"/>
<polygon fill="black" stroke="black" points="280.735,-117.146 286.181,-108.058 276.256,-111.766 280.735,-117.146"/>
<g id="a_edge21&#45;headlabel"><a xlink:href="dir_000101_000067.html" target="_top" xlink:title="2">
<text text-anchor="middle" x="279.789" y="-119.128" font-family="Helvetica,sans-Serif" font-size="10.00">2</text>
</a>
</g>
</g>
<!-- dir_577c839d346a264df4e9e588ca2a45dd&#45;&gt;dir_f01815b857f9009bea48e2cb39492245 -->
<g id="edge22" class="edge"><title>dir_577c839d346a264df4e9e588ca2a45dd&#45;&gt;dir_f01815b857f9009bea48e2cb39492245</title>
<path fill="none" stroke="black" d="M241.906,-221.441C269.326,-209.738 311.906,-191.563 342.299,-178.59"/>
<polygon fill="black" stroke="black" points="343.88,-181.721 351.704,-174.576 341.132,-175.283 343.88,-181.721"/>
<g id="a_edge22&#45;headlabel"><a xlink:href="dir_000101_000187.html" target="_top" xlink:title="2">
<text text-anchor="middle" x="341.689" y="-183.243" font-family="Helvetica,sans-Serif" font-size="10.00">2</text>
</a>
</g>
</g>
<!-- dir_577c839d346a264df4e9e588ca2a45dd&#45;&gt;dir_2171f7ec022c5423887b07c69b2f5b48 -->
<g id="edge23" class="edge"><title>dir_577c839d346a264df4e9e588ca2a45dd&#45;&gt;dir_2171f7ec022c5423887b07c69b2f5b48</title>
<path fill="none" stroke="black" d="M187.653,-229.821C138.22,-223.42 36.7401,-207.214 15.8251,-180 1.64016,-161.543 11.9948,-135.648 23.7485,-116.547"/>
<polygon fill="black" stroke="black" points="26.7735,-118.317 29.3462,-108.039 20.9257,-114.469 26.7735,-118.317"/>
<g id="a_edge23&#45;headlabel"><a xlink:href="dir_000101_000038.html" target="_top" xlink:title="2">
<text text-anchor="middle" x="27.1696" y="-120.38" font-family="Helvetica,sans-Serif" font-size="10.00">2</text>
</a>
</g>
</g>
<!-- dir_a597e8e061b11201a1dff411feb10d0b&#45;&gt;dir_37c90836491b695b472bf98d1be8336b -->
<g id="edge13" class="edge"><title>dir_a597e8e061b11201a1dff411feb10d0b&#45;&gt;dir_37c90836491b695b472bf98d1be8336b</title>
<path fill="none" stroke="black" d="M292.511,-143.697C295.073,-135.898 298.158,-126.509 301.01,-117.829"/>
<polygon fill="black" stroke="black" points="304.409,-118.697 304.205,-108.104 297.758,-116.512 304.409,-118.697"/>
<g id="a_edge13&#45;headlabel"><a xlink:href="dir_000079_000067.html" target="_top" xlink:title="8">
<text text-anchor="middle" x="305.984" y="-120.498" font-family="Helvetica,sans-Serif" font-size="10.00">8</text>
</a>
</g>
</g>
<!-- dir_a597e8e061b11201a1dff411feb10d0b&#45;&gt;dir_4ab6b4cc6a7edbff49100e9123df213f -->
<g id="edge12" class="edge"><title>dir_a597e8e061b11201a1dff411feb10d0b&#45;&gt;dir_4ab6b4cc6a7edbff49100e9123df213f</title>
<path fill="none" stroke="black" d="M308.608,-143.872C320.353,-134.06 334.681,-121.116 345.825,-108 362.493,-88.3821 378.011,-63.5363 388.634,-45.0849"/>
<polygon fill="black" stroke="black" points="391.705,-46.7639 393.581,-36.3364 385.612,-43.3184 391.705,-46.7639"/>
<g id="a_edge12&#45;headlabel"><a xlink:href="dir_000079_000016.html" target="_top" xlink:title="6">
<text text-anchor="middle" x="392.407" y="-48.7904" font-family="Helvetica,sans-Serif" font-size="10.00">6</text>
</a>
</g>
</g>
<!-- dir_a597e8e061b11201a1dff411feb10d0b&#45;&gt;dir_2171f7ec022c5423887b07c69b2f5b48 -->
<g id="edge14" class="edge"><title>dir_a597e8e061b11201a1dff411feb10d0b&#45;&gt;dir_2171f7ec022c5423887b07c69b2f5b48</title>
<path fill="none" stroke="black" d="M259.794,-154.918C247.931,-151.554 234.172,-147.383 221.825,-144 160.494,-127.194 140.872,-128.707 84.8988,-111.225"/>
<polygon fill="black" stroke="black" points="85.7901,-107.836 75.1991,-108.122 83.6574,-114.503 85.7901,-107.836"/>
<g id="a_edge14&#45;headlabel"><a xlink:href="dir_000079_000038.html" target="_top" xlink:title="39">
<text text-anchor="middle" x="90.0788" y="-103.726" font-family="Helvetica,sans-Serif" font-size="10.00">39</text>
</a>
</g>
</g>
<!-- dir_69dd0583e11051991bf4c0cf23c50933 -->
<g id="node11" class="node"><title>dir_69dd0583e11051991bf4c0cf23c50933</title>
<g id="a_node11"><a xlink:href="dir_69dd0583e11051991bf4c0cf23c50933.html" target="_top" xlink:title="TRD">
<polygon fill="white" stroke="red" points="149.825,-180 95.8251,-180 95.8251,-144 149.825,-144 149.825,-180"/>
<text text-anchor="middle" x="122.825" y="-159.5" font-family="Helvetica,sans-Serif" font-size="10.00">TRD</text>
</a>
</g>
</g>
<!-- dir_69dd0583e11051991bf4c0cf23c50933&#45;&gt;dir_37c90836491b695b472bf98d1be8336b -->
<g id="edge1" class="edge"><title>dir_69dd0583e11051991bf4c0cf23c50933&#45;&gt;dir_37c90836491b695b472bf98d1be8336b</title>
<path fill="none" stroke="black" d="M150.212,-147.709C153.102,-146.414 156.012,-145.154 158.825,-144 197.16,-128.271 242.078,-112.88 272.898,-102.773"/>
<polygon fill="black" stroke="black" points="274.355,-105.979 282.779,-99.5543 272.187,-99.3231 274.355,-105.979"/>
<g id="a_edge1&#45;headlabel"><a xlink:href="dir_000108_000067.html" target="_top" xlink:title="1">
<text text-anchor="middle" x="271.816" y="-107.292" font-family="Helvetica,sans-Serif" font-size="10.00">1</text>
</a>
</g>
</g>
<!-- dir_69dd0583e11051991bf4c0cf23c50933&#45;&gt;dir_2171f7ec022c5423887b07c69b2f5b48 -->
<g id="edge2" class="edge"><title>dir_69dd0583e11051991bf4c0cf23c50933&#45;&gt;dir_2171f7ec022c5423887b07c69b2f5b48</title>
<path fill="none" stroke="black" d="M103.05,-143.697C93.0714,-134.965 80.8143,-124.24 69.9683,-114.75"/>
<polygon fill="black" stroke="black" points="72.2035,-112.055 62.3729,-108.104 67.594,-117.323 72.2035,-112.055"/>
<g id="a_edge2&#45;headlabel"><a xlink:href="dir_000108_000038.html" target="_top" xlink:title="2">
<text text-anchor="middle" x="76.7784" y="-109.786" font-family="Helvetica,sans-Serif" font-size="10.00">2</text>
</a>
</g>
</g>
<!-- dir_2171f7ec022c5423887b07c69b2f5b48&#45;&gt;dir_37c90836491b695b472bf98d1be8336b -->
<g id="edge32" class="edge"><title>dir_2171f7ec022c5423887b07c69b2f5b48&#45;&gt;dir_37c90836491b695b472bf98d1be8336b</title>
<path fill="none" stroke="black" d="M79.8505,-90C143.947,-90 208.043,-90 272.139,-90"/>
<polygon fill="black" stroke="black" points="272.426,-93.5001 282.426,-90 272.426,-86.5001 272.426,-93.5001"/>
<g id="a_edge32&#45;headlabel"><a xlink:href="dir_000038_000067.html" target="_top" xlink:title="6">
<text text-anchor="middle" x="268.831" y="-93.8393" font-family="Helvetica,sans-Serif" font-size="10.00">6</text>
</a>
</g>
</g>
<!-- dir_2171f7ec022c5423887b07c69b2f5b48&#45;&gt;dir_a597e8e061b11201a1dff411feb10d0b -->
<g id="edge31" class="edge"><title>dir_2171f7ec022c5423887b07c69b2f5b48&#45;&gt;dir_a597e8e061b11201a1dff411feb10d0b</title>
<path fill="none" stroke="black" d="M80.1949,-103.455C84.4559,-105.087 88.7244,-106.656 92.8251,-108 156.746,-128.943 174.953,-126.224 239.825,-144 243.059,-144.886 246.389,-145.826 249.719,-146.792"/>
<polygon fill="black" stroke="black" points="249.023,-150.236 259.606,-149.736 251.02,-143.527 249.023,-150.236"/>
<g id="a_edge31&#45;headlabel"><a xlink:href="dir_000038_000079.html" target="_top" xlink:title="2">
<text text-anchor="middle" x="244.767" y="-149.432" font-family="Helvetica,sans-Serif" font-size="10.00">2</text>
</a>
</g>
</g>
<!-- dir_2171f7ec022c5423887b07c69b2f5b48&#45;&gt;dir_4ab6b4cc6a7edbff49100e9123df213f -->
<g id="edge30" class="edge"><title>dir_2171f7ec022c5423887b07c69b2f5b48&#45;&gt;dir_4ab6b4cc6a7edbff49100e9123df213f</title>
<path fill="none" stroke="black" d="M67.1616,-71.9564C72.4583,-68.8864 78.1739,-66.0236 83.8251,-64 180.937,-29.2264 303.688,-21.2007 364.735,-19.4312"/>
<polygon fill="black" stroke="black" points="365.135,-22.9225 375.045,-19.1757 364.962,-15.9246 365.135,-22.9225"/>
<g id="a_edge30&#45;headlabel"><a xlink:href="dir_000038_000016.html" target="_top" xlink:title="4">
<text text-anchor="middle" x="361.612" y="-23.3499" font-family="Helvetica,sans-Serif" font-size="10.00">4</text>
</a>
</g>
</g>
</g>
</svg>
        <g id="navigator" transform="translate(0 0)" fill="#404254">
                <rect fill="#f2f5e9" fill-opacity="0.5" stroke="#606060" stroke-width=".5" x="0" y="0" width="60" height="60"/>
                <use id="zoomplus" xlink:href="#zoomPlus" x="17" y="9" onmousedown="handleZoom(evt,'in')"/>
                <use id="zoomminus" xlink:href="#zoomMin" x="42" y="9" onmousedown="handleZoom(evt,'out')"/>
                <use id="reset" xlink:href="#resetDef" x="30" y="36" onmousedown="handleReset()"/>
                <g id="arrowUp" xlink:href="#dirArrow" transform="translate(30 24)" onmousedown="handlePan(0,-1)">
                  <use xlink:href="#rim" fill="#404040">
                        <set attributeName="fill" to="#808080" begin="arrowUp.mouseover" end="arrowUp.mouseout"/>
                  </use>
                  <path fill="none" stroke="white" stroke-width="1.5" d="M0,-3.0v7 M-2.5,-0.5L0,-3.0L2.5,-0.5"/>
                </g>
                <g id="arrowRight" xlink:href="#dirArrow" transform="rotate(90) translate(36 -43)" onmousedown="handlePan(1,0)">
                  <use xlink:href="#rim" fill="#404040">
                        <set attributeName="fill" to="#808080" begin="arrowRight.mouseover" end="arrowRight.mouseout"/>
                  </use>
                  <path fill="none" stroke="white" stroke-width="1.5" d="M0,-3.0v7 M-2.5,-0.5L0,-3.0L2.5,-0.5"/>
                </g>
                <g id="arrowDown" xlink:href="#dirArrow" transform="rotate(180) translate(-30 -48)" onmousedown="handlePan(0,1)">
                  <use xlink:href="#rim" fill="#404040">
                        <set attributeName="fill" to="#808080" begin="arrowDown.mouseover" end="arrowDown.mouseout"/>
                  </use>
                  <path fill="none" stroke="white" stroke-width="1.5" d="M0,-3.0v7 M-2.5,-0.5L0,-3.0L2.5,-0.5"/>
                </g>
                <g id="arrowLeft" xlink:href="#dirArrow" transform="rotate(270) translate(-36 17)" onmousedown="handlePan(-1,0)">
                  <use xlink:href="#rim" fill="#404040">
                        <set attributeName="fill" to="#808080" begin="arrowLeft.mouseover" end="arrowLeft.mouseout"/>
                  </use>
                  <path fill="none" stroke="white" stroke-width="1.5" d="M0,-3.0v7 M-2.5,-0.5L0,-3.0L2.5,-0.5"/>
                </g>
        </g>
        <svg viewBox="0 0 15 15" width="100%" height="30px" preserveAspectRatio="xMaxYMin meet">
         <g id="arrow_out" transform="scale(0.3 0.3)">
          <a xlink:href="dir_051dca18e802f8e9474f2e30d29c04e0_dep_org.svg" target="_base">
           <rect id="button" ry="5" rx="5" y="6" x="6" height="38" width="38"
                fill="#f2f5e9" fill-opacity="0.5" stroke="#606060" stroke-width="1.0"/>
           <path id="arrow"
             d="M 11.500037,31.436501 C 11.940474,20.09759 22.043105,11.32322 32.158766,21.979434 L 37.068811,17.246167 C 37.068811,17.246167 37.088388,32 37.088388,32 L 22.160133,31.978069 C 22.160133,31.978069 26.997745,27.140456 26.997745,27.140456 C 18.528582,18.264221 13.291696,25.230495 11.500037,31.436501 z"
             style="fill:#404040;"/>
          </a>
         </g>
        </svg>
</svg>
