<?xml version="1.0" encoding="UTF-8" standalone="no"?>
<!DOCTYPE svg PUBLIC "-//W3C//DTD SVG 1.1//EN"
 "http://www.w3.org/Graphics/SVG/1.1/DTD/svg11.dtd">
<!-- Generated by graphviz version 2.36.0 (20140111.2315)
 -->
<!-- Title: /home/travis/build/AliceO2Group/AliceO2/Detectors/ITSMFT/MFT/base/include/MFTBase Pages: 1 -->
<svg width="109pt" height="223pt"
 viewBox="0.00 0.00 109.00 223.00" xmlns="http://www.w3.org/2000/svg" xmlns:xlink="http://www.w3.org/1999/xlink">
<g id="graph0" class="graph" transform="scale(1 1) rotate(0) translate(4 219)">
<title>/home/travis/build/AliceO2Group/AliceO2/Detectors/ITSMFT/MFT/base/include/MFTBase</title>
<g id="clust1" class="cluster"><title>clusterdir_f22caf943fb99f64e502dc27cedd1b22</title>
<g id="a_clust1"><a xlink:href="dir_f22caf943fb99f64e502dc27cedd1b22.html" target="_top" xlink:title="include">
<polygon fill="#ddddee" stroke="black" points="8,-136 8,-207 84,-207 84,-136 8,-136"/>
<text text-anchor="middle" x="46" y="-195" font-family="Helvetica,sans-Serif" font-size="10.00">include</text>
</a>
</g>
</g>
<!-- dir_f74068efc4603b01d0ea8bb1c8c2c67e -->
<g id="node1" class="node"><title>dir_f74068efc4603b01d0ea8bb1c8c2c67e</title>
<g id="a_node1"><a xlink:href="dir_f74068efc4603b01d0ea8bb1c8c2c67e.html" target="_top" xlink:title="MFTBase">
<polygon fill="#eeeeff" stroke="black" points="75.25,-180 16.75,-180 16.75,-144 75.25,-144 75.25,-180"/>
<text text-anchor="middle" x="46" y="-159.5" font-family="Helvetica,sans-Serif" font-size="10.00">MFTBase</text>
</a>
</g>
</g>
<!-- dir_37c90836491b695b472bf98d1be8336b -->
<g id="node2" class="node"><title>dir_37c90836491b695b472bf98d1be8336b</title>
<g id="a_node2"><a xlink:href="dir_37c90836491b695b472bf98d1be8336b.html" target="_top" xlink:title="Base">
<polygon fill="none" stroke="red" points="73,-36 19,-36 19,-0 73,-0 73,-36"/>
<text text-anchor="middle" x="46" y="-15.5" font-family="Helvetica,sans-Serif" font-size="10.00">Base</text>
</a>
</g>
</g>
<!-- dir_f74068efc4603b01d0ea8bb1c8c2c67e&#45;&gt;dir_37c90836491b695b472bf98d1be8336b -->
<g id="edge2" class="edge"><title>dir_f74068efc4603b01d0ea8bb1c8c2c67e&#45;&gt;dir_37c90836491b695b472bf98d1be8336b</title>
<path fill="none" stroke="black" d="M42.7517,-143.888C40.9542,-133.542 38.9053,-120.063 38,-108 36.8026,-92.0449 36.8026,-87.9551 38,-72 38.6366,-63.5179 39.8384,-54.3361 41.1208,-46.0356"/>
<polygon fill="black" stroke="black" points="44.5836,-46.5472 42.7517,-36.1119 37.6763,-45.412 44.5836,-46.5472"/>
<g id="a_edge2&#45;headlabel"><a xlink:href="dir_000078_000067.html" target="_top" xlink:title="3">
<text text-anchor="middle" x="46.8024" y="-48.0546" font-family="Helvetica,sans-Serif" font-size="10.00">3</text>
</a>
</g>
</g>
<!-- dir_85bf31a2e8d306e7598ffcb73f8df6bf -->
<g id="node3" class="node"><title>dir_85bf31a2e8d306e7598ffcb73f8df6bf</title>
<g id="a_node3"><a xlink:href="dir_85bf31a2e8d306e7598ffcb73f8df6bf.html" target="_top" xlink:title="common">
<polygon fill="none" stroke="red" points="101,-108 47,-108 47,-72 101,-72 101,-108"/>
<text text-anchor="middle" x="74" y="-87.5" font-family="Helvetica,sans-Serif" font-size="10.00">common</text>
</a>
</g>
</g>
<!-- dir_f74068efc4603b01d0ea8bb1c8c2c67e&#45;&gt;dir_85bf31a2e8d306e7598ffcb73f8df6bf -->
<g id="edge3" class="edge"><title>dir_f74068efc4603b01d0ea8bb1c8c2c67e&#45;&gt;dir_85bf31a2e8d306e7598ffcb73f8df6bf</title>
<path fill="none" stroke="black" d="M52.9214,-143.697C56.0747,-135.813 59.8783,-126.304 63.3814,-117.546"/>
<polygon fill="black" stroke="black" points="66.694,-118.689 67.1583,-108.104 60.1946,-116.089 66.694,-118.689"/>
<g id="a_edge3&#45;headlabel"><a xlink:href="dir_000078_000131.html" target="_top" xlink:title="1">
<text text-anchor="middle" x="67.9952" y="-120.581" font-family="Helvetica,sans-Serif" font-size="10.00">1</text>
</a>
</g>
</g>
<!-- dir_85bf31a2e8d306e7598ffcb73f8df6bf&#45;&gt;dir_37c90836491b695b472bf98d1be8336b -->
<g id="edge1" class="edge"><title>dir_85bf31a2e8d306e7598ffcb73f8df6bf&#45;&gt;dir_37c90836491b695b472bf98d1be8336b</title>
<path fill="none" stroke="black" d="M67.0786,-71.6966C63.9253,-63.8132 60.1217,-54.3042 56.6186,-45.5464"/>
<polygon fill="black" stroke="black" points="59.8054,-44.0892 52.8417,-36.1043 53.306,-46.689 59.8054,-44.0892"/>
<g id="a_edge1&#45;headlabel"><a xlink:href="dir_000131_000067.html" target="_top" xlink:title="2">
<text text-anchor="middle" x="63.7765" y="-43.8723" font-family="Helvetica,sans-Serif" font-size="10.00">2</text>
</a>
</g>
</g>
</g>
</svg>
