<?xml version="1.0" encoding="UTF-8" standalone="no"?>
<!DOCTYPE svg PUBLIC "-//W3C//DTD SVG 1.1//EN"
 "http://www.w3.org/Graphics/SVG/1.1/DTD/svg11.dtd">
<!-- Generated by graphviz version 2.36.0 (20140111.2315)
 -->
<!-- Title: /home/travis/build/AliceO2Group/AliceO2/Utilities/QC/QCViewer Pages: 1 -->
<svg width="333pt" height="183pt"
 viewBox="0.00 0.00 333.00 183.00" xmlns="http://www.w3.org/2000/svg" xmlns:xlink="http://www.w3.org/1999/xlink">
<g id="graph0" class="graph" transform="scale(1 1) rotate(0) translate(4 179)">
<title>/home/travis/build/AliceO2Group/AliceO2/Utilities/QC/QCViewer</title>
<g id="clust1" class="cluster"><title>clusterdir_47a906a1cbf8a6449f7ddaf217b22a51</title>
<g id="a_clust1"><a xlink:href="dir_47a906a1cbf8a6449f7ddaf217b22a51.html" target="_top" xlink:title="QC">
<polygon fill="#ddddee" stroke="black" points="8,-8 8,-167 246,-167 246,-8 8,-8"/>
<text text-anchor="middle" x="127" y="-155" font-family="Helvetica,sans-Serif" font-size="10.00">QC</text>
</a>
</g>
</g>
<g id="clust2" class="cluster"><title>clusterdir_ed04e426e99dbe57a6e59c8944ea6785</title>
<g id="a_clust2"><a xlink:href="dir_ed04e426e99dbe57a6e59c8944ea6785.html" target="_top">
<polygon fill="#eeeeff" stroke="black" points="16,-16 16,-140 238,-140 238,-16 16,-16"/>
</a>
</g>
</g>
<!-- dir_ed04e426e99dbe57a6e59c8944ea6785 -->
<g id="node1" class="node"><title>dir_ed04e426e99dbe57a6e59c8944ea6785</title>
<text text-anchor="middle" x="199" y="-111.5" font-family="Helvetica,sans-Serif" font-size="10.00">QCViewer</text>
</g>
<!-- dir_4b07e1b0f731fcfd0bfb25757cdab806 -->
<g id="node2" class="node"><title>dir_4b07e1b0f731fcfd0bfb25757cdab806</title>
<g id="a_node2"><a xlink:href="dir_4b07e1b0f731fcfd0bfb25757cdab806.html" target="_top" xlink:title="include">
<polygon fill="white" stroke="red" points="114,-60 60,-60 60,-24 114,-24 114,-60"/>
<text text-anchor="middle" x="87" y="-39.5" font-family="Helvetica,sans-Serif" font-size="10.00">include</text>
</a>
</g>
</g>
<!-- dir_96e85a79962559551742b58e9529eea1 -->
<g id="node3" class="node"><title>dir_96e85a79962559551742b58e9529eea1</title>
<g id="a_node3"><a xlink:href="dir_96e85a79962559551742b58e9529eea1.html" target="_top" xlink:title="src">
<polygon fill="white" stroke="black" points="150,-132 96,-132 96,-96 150,-96 150,-132"/>
<text text-anchor="middle" x="123" y="-111.5" font-family="Helvetica,sans-Serif" font-size="10.00">src</text>
</a>
</g>
</g>
<!-- dir_96e85a79962559551742b58e9529eea1&#45;&gt;dir_4b07e1b0f731fcfd0bfb25757cdab806 -->
<g id="edge2" class="edge"><title>dir_96e85a79962559551742b58e9529eea1&#45;&gt;dir_4b07e1b0f731fcfd0bfb25757cdab806</title>
<path fill="none" stroke="black" d="M114.101,-95.6966C110.003,-87.7284 105.051,-78.0995 100.507,-69.2641"/>
<polygon fill="black" stroke="black" points="103.483,-67.3965 95.7965,-60.1043 97.2575,-70.598 103.483,-67.3965"/>
<g id="a_edge2&#45;headlabel"><a xlink:href="dir_000323_000321.html" target="_top" xlink:title="2">
<text text-anchor="middle" x="107.651" y="-66.7946" font-family="Helvetica,sans-Serif" font-size="10.00">2</text>
</a>
</g>
</g>
<!-- dir_9c2311bfeda3fb38e02fb69ee46566d3 -->
<g id="node5" class="node"><title>dir_9c2311bfeda3fb38e02fb69ee46566d3</title>
<g id="a_node5"><a xlink:href="dir_9c2311bfeda3fb38e02fb69ee46566d3.html" target="_top" xlink:title="QCCommon">
<polygon fill="none" stroke="red" points="325.25,-60 254.75,-60 254.75,-24 325.25,-24 325.25,-60"/>
<text text-anchor="middle" x="290" y="-39.5" font-family="Helvetica,sans-Serif" font-size="10.00">QCCommon</text>
</a>
</g>
</g>
<!-- dir_96e85a79962559551742b58e9529eea1&#45;&gt;dir_9c2311bfeda3fb38e02fb69ee46566d3 -->
<g id="edge1" class="edge"><title>dir_96e85a79962559551742b58e9529eea1&#45;&gt;dir_9c2311bfeda3fb38e02fb69ee46566d3</title>
<path fill="none" stroke="black" d="M150.051,-100.024C153.06,-98.6416 156.088,-97.2756 159,-96 187.496,-83.5194 219.902,-70.3995 245.354,-60.3357"/>
<polygon fill="black" stroke="black" points="246.724,-63.5578 254.745,-56.636 244.158,-57.0449 246.724,-63.5578"/>
<g id="a_edge1&#45;headlabel"><a xlink:href="dir_000323_000307.html" target="_top" xlink:title="1">
<text text-anchor="middle" x="244.42" y="-65.0169" font-family="Helvetica,sans-Serif" font-size="10.00">1</text>
</a>
</g>
</g>
<!-- dir_6da8278a15a9bca7946679806d5255b0 -->
<g id="node4" class="node"><title>dir_6da8278a15a9bca7946679806d5255b0</title>
<g id="a_node4"><a xlink:href="dir_6da8278a15a9bca7946679806d5255b0.html" target="_top" xlink:title="test">
<polygon fill="white" stroke="black" points="78,-132 24,-132 24,-96 78,-96 78,-132"/>
<text text-anchor="middle" x="51" y="-111.5" font-family="Helvetica,sans-Serif" font-size="10.00">test</text>
</a>
</g>
</g>
<!-- dir_6da8278a15a9bca7946679806d5255b0&#45;&gt;dir_4b07e1b0f731fcfd0bfb25757cdab806 -->
<g id="edge3" class="edge"><title>dir_6da8278a15a9bca7946679806d5255b0&#45;&gt;dir_4b07e1b0f731fcfd0bfb25757cdab806</title>
<path fill="none" stroke="black" d="M59.8989,-95.6966C63.9968,-87.7284 68.9488,-78.0995 73.4927,-69.2641"/>
<polygon fill="black" stroke="black" points="76.7425,-70.598 78.2035,-60.1043 70.5174,-67.3965 76.7425,-70.598"/>
<g id="a_edge3&#45;headlabel"><a xlink:href="dir_000324_000321.html" target="_top" xlink:title="1">
<text text-anchor="middle" x="77.6235" y="-72.5931" font-family="Helvetica,sans-Serif" font-size="10.00">1</text>
</a>
</g>
</g>
</g>
</svg>
