<?xml version="1.0" encoding="UTF-8" standalone="no"?>
<!DOCTYPE svg PUBLIC "-//W3C//DTD SVG 1.1//EN"
 "http://www.w3.org/Graphics/SVG/1.1/DTD/svg11.dtd">
<!-- Generated by graphviz version 2.36.0 (20140111.2315)
 -->
<!-- Title: /home/travis/build/AliceO2Group/AliceO2/Detectors/TRD/simulation/include Pages: 1 -->
<svg width="212pt" height="231pt"
 viewBox="0.00 0.00 212.00 231.00" xmlns="http://www.w3.org/2000/svg" xmlns:xlink="http://www.w3.org/1999/xlink">
<g id="graph0" class="graph" transform="scale(1 1) rotate(0) translate(4 227)">
<title>/home/travis/build/AliceO2Group/AliceO2/Detectors/TRD/simulation/include</title>
<g id="clust1" class="cluster"><title>clusterdir_5cb2a8e9fdbe67a11efb4176f60bf3d6</title>
<g id="a_clust1"><a xlink:href="dir_5cb2a8e9fdbe67a11efb4176f60bf3d6.html" target="_top" xlink:title="simulation">
<polygon fill="#ddddee" stroke="black" points="8,-128 8,-215 196,-215 196,-128 8,-128"/>
<text text-anchor="middle" x="102" y="-203" font-family="Helvetica,sans-Serif" font-size="10.00">simulation</text>
</a>
</g>
</g>
<g id="clust2" class="cluster"><title>clusterdir_5036081dbf3ad3ea0cfa218a95bb99de</title>
<g id="a_clust2"><a xlink:href="dir_5036081dbf3ad3ea0cfa218a95bb99de.html" target="_top">
<polygon fill="#eeeeff" stroke="black" points="16,-136 16,-188 188,-188 188,-136 16,-136"/>
</a>
</g>
</g>
<!-- dir_5036081dbf3ad3ea0cfa218a95bb99de -->
<g id="node1" class="node"><title>dir_5036081dbf3ad3ea0cfa218a95bb99de</title>
<text text-anchor="middle" x="153" y="-159.5" font-family="Helvetica,sans-Serif" font-size="10.00">include</text>
</g>
<!-- dir_e2912eb33f21a3ee91380f3534cea6a7 -->
<g id="node2" class="node"><title>dir_e2912eb33f21a3ee91380f3534cea6a7</title>
<g id="a_node2"><a xlink:href="dir_e2912eb33f21a3ee91380f3534cea6a7.html" target="_top" xlink:title="TRDSimulation">
<polygon fill="white" stroke="black" points="107.25,-180 24.75,-180 24.75,-144 107.25,-144 107.25,-180"/>
<text text-anchor="middle" x="66" y="-159.5" font-family="Helvetica,sans-Serif" font-size="10.00">TRDSimulation</text>
</a>
</g>
</g>
<!-- dir_37c90836491b695b472bf98d1be8336b -->
<g id="node3" class="node"><title>dir_37c90836491b695b472bf98d1be8336b</title>
<g id="a_node3"><a xlink:href="dir_37c90836491b695b472bf98d1be8336b.html" target="_top" xlink:title="Base">
<polygon fill="none" stroke="red" points="93,-36 39,-36 39,-0 93,-0 93,-36"/>
<text text-anchor="middle" x="66" y="-15.5" font-family="Helvetica,sans-Serif" font-size="10.00">Base</text>
</a>
</g>
</g>
<!-- dir_e2912eb33f21a3ee91380f3534cea6a7&#45;&gt;dir_37c90836491b695b472bf98d1be8336b -->
<g id="edge1" class="edge"><title>dir_e2912eb33f21a3ee91380f3534cea6a7&#45;&gt;dir_37c90836491b695b472bf98d1be8336b</title>
<path fill="none" stroke="black" d="M60.5912,-143.529C57.705,-133.289 54.455,-120.039 53,-108 51.0804,-92.1156 51.0804,-87.8844 53,-72 54.023,-63.5349 55.9335,-54.4712 57.9809,-46.2761"/>
<polygon fill="black" stroke="black" points="61.4009,-47.0344 60.5912,-36.4705 54.6365,-45.2336 61.4009,-47.0344"/>
<g id="a_edge1&#45;headlabel"><a xlink:href="dir_000111_000067.html" target="_top" xlink:title="1">
<text text-anchor="middle" x="63.22" y="-48.7384" font-family="Helvetica,sans-Serif" font-size="10.00">1</text>
</a>
</g>
</g>
<!-- dir_2171f7ec022c5423887b07c69b2f5b48 -->
<g id="node4" class="node"><title>dir_2171f7ec022c5423887b07c69b2f5b48</title>
<g id="a_node4"><a xlink:href="dir_2171f7ec022c5423887b07c69b2f5b48.html" target="_top" xlink:title="DataFormats">
<polygon fill="none" stroke="red" points="136,-108 62,-108 62,-72 136,-72 136,-108"/>
<text text-anchor="middle" x="99" y="-87.5" font-family="Helvetica,sans-Serif" font-size="10.00">DataFormats</text>
</a>
</g>
</g>
<!-- dir_e2912eb33f21a3ee91380f3534cea6a7&#45;&gt;dir_2171f7ec022c5423887b07c69b2f5b48 -->
<g id="edge2" class="edge"><title>dir_e2912eb33f21a3ee91380f3534cea6a7&#45;&gt;dir_2171f7ec022c5423887b07c69b2f5b48</title>
<path fill="none" stroke="black" d="M74.1573,-143.697C77.9138,-135.728 82.4531,-126.1 86.6183,-117.264"/>
<polygon fill="black" stroke="black" points="89.8381,-118.642 90.9365,-108.104 83.5064,-115.657 89.8381,-118.642"/>
<g id="a_edge2&#45;headlabel"><a xlink:href="dir_000111_000038.html" target="_top" xlink:title="1">
<text text-anchor="middle" x="90.8736" y="-120.604" font-family="Helvetica,sans-Serif" font-size="10.00">1</text>
</a>
</g>
</g>
<!-- dir_2171f7ec022c5423887b07c69b2f5b48&#45;&gt;dir_37c90836491b695b472bf98d1be8336b -->
<g id="edge3" class="edge"><title>dir_2171f7ec022c5423887b07c69b2f5b48&#45;&gt;dir_37c90836491b695b472bf98d1be8336b</title>
<path fill="none" stroke="black" d="M90.8427,-71.6966C87.0862,-63.7284 82.5469,-54.0995 78.3817,-45.2641"/>
<polygon fill="black" stroke="black" points="81.4936,-43.6571 74.0635,-36.1043 75.1619,-46.6421 81.4936,-43.6571"/>
<g id="a_edge3&#45;headlabel"><a xlink:href="dir_000038_000067.html" target="_top" xlink:title="6">
<text text-anchor="middle" x="85.5945" y="-43.1978" font-family="Helvetica,sans-Serif" font-size="10.00">6</text>
</a>
</g>
</g>
</g>
</svg>
