<?xml version="1.0" encoding="UTF-8" standalone="no"?>
<!DOCTYPE svg PUBLIC "-//W3C//DTD SVG 1.1//EN"
 "http://www.w3.org/Graphics/SVG/1.1/DTD/svg11.dtd">
<!-- Generated by graphviz version 2.36.0 (20140111.2315)
 -->
<!-- Title: /home/travis/build/AliceO2Group/AliceO2/Framework/TestWorkflows Pages: 1 -->
<svg width="284pt" height="303pt"
 viewBox="0.00 0.00 284.00 303.00" xmlns="http://www.w3.org/2000/svg" xmlns:xlink="http://www.w3.org/1999/xlink">
<g id="graph0" class="graph" transform="scale(1 1) rotate(0) translate(4 299)">
<title>/home/travis/build/AliceO2Group/AliceO2/Framework/TestWorkflows</title>
<g id="clust1" class="cluster"><title>clusterdir_bcbb2cf9a3d3d83e5515c82071a07177</title>
<g id="a_clust1"><a xlink:href="dir_bcbb2cf9a3d3d83e5515c82071a07177.html" target="_top" xlink:title="Framework">
<polygon fill="#ddddee" stroke="black" points="8,-200 8,-287 268,-287 268,-200 8,-200"/>
<text text-anchor="middle" x="138" y="-275" font-family="Helvetica,sans-Serif" font-size="10.00">Framework</text>
</a>
</g>
</g>
<g id="clust2" class="cluster"><title>clusterdir_a8f73827fca2a0188d35dc47dc5b0ea3</title>
<g id="a_clust2"><a xlink:href="dir_a8f73827fca2a0188d35dc47dc5b0ea3.html" target="_top">
<polygon fill="#eeeeff" stroke="black" points="16,-208 16,-260 260,-260 260,-208 16,-208"/>
</a>
</g>
</g>
<!-- dir_a8f73827fca2a0188d35dc47dc5b0ea3 -->
<g id="node1" class="node"><title>dir_a8f73827fca2a0188d35dc47dc5b0ea3</title>
<text text-anchor="middle" x="210" y="-231.5" font-family="Helvetica,sans-Serif" font-size="10.00">TestWorkflows</text>
</g>
<!-- dir_80c3b7d4c168c9aa75dd1ba81b9fa387 -->
<g id="node2" class="node"><title>dir_80c3b7d4c168c9aa75dd1ba81b9fa387</title>
<g id="a_node2"><a xlink:href="dir_80c3b7d4c168c9aa75dd1ba81b9fa387.html" target="_top" xlink:title="src">
<polygon fill="white" stroke="black" points="150,-252 96,-252 96,-216 150,-216 150,-252"/>
<text text-anchor="middle" x="123" y="-231.5" font-family="Helvetica,sans-Serif" font-size="10.00">src</text>
</a>
</g>
</g>
<!-- dir_0b342c6c6b7d2278121a0bb9c4985063 -->
<g id="node4" class="node"><title>dir_0b342c6c6b7d2278121a0bb9c4985063</title>
<g id="a_node4"><a xlink:href="dir_0b342c6c6b7d2278121a0bb9c4985063.html" target="_top" xlink:title="Generators">
<polygon fill="none" stroke="red" points="236.25,-108 171.75,-108 171.75,-72 236.25,-72 236.25,-108"/>
<text text-anchor="middle" x="204" y="-87.5" font-family="Helvetica,sans-Serif" font-size="10.00">Generators</text>
</a>
</g>
</g>
<!-- dir_80c3b7d4c168c9aa75dd1ba81b9fa387&#45;&gt;dir_0b342c6c6b7d2278121a0bb9c4985063 -->
<g id="edge1" class="edge"><title>dir_80c3b7d4c168c9aa75dd1ba81b9fa387&#45;&gt;dir_0b342c6c6b7d2278121a0bb9c4985063</title>
<path fill="none" stroke="black" d="M141.6,-215.779C147.169,-210.67 153.308,-205.082 159,-200 169.105,-190.978 174.935,-191.558 182,-180 193.45,-161.269 198.949,-136.886 201.584,-118.379"/>
<polygon fill="black" stroke="black" points="205.083,-118.601 202.829,-108.249 198.136,-117.747 205.083,-118.601"/>
<g id="a_edge1&#45;headlabel"><a xlink:href="dir_000266_000268.html" target="_top" xlink:title="1">
<text text-anchor="middle" x="207.463" y="-120.015" font-family="Helvetica,sans-Serif" font-size="10.00">1</text>
</a>
</g>
</g>
<!-- dir_4ab6b4cc6a7edbff49100e9123df213f -->
<g id="node5" class="node"><title>dir_4ab6b4cc6a7edbff49100e9123df213f</title>
<g id="a_node5"><a xlink:href="dir_4ab6b4cc6a7edbff49100e9123df213f.html" target="_top" xlink:title="Common">
<polygon fill="none" stroke="red" points="170.5,-36 115.5,-36 115.5,-0 170.5,-0 170.5,-36"/>
<text text-anchor="middle" x="143" y="-15.5" font-family="Helvetica,sans-Serif" font-size="10.00">Common</text>
</a>
</g>
</g>
<!-- dir_80c3b7d4c168c9aa75dd1ba81b9fa387&#45;&gt;dir_4ab6b4cc6a7edbff49100e9123df213f -->
<g id="edge2" class="edge"><title>dir_80c3b7d4c168c9aa75dd1ba81b9fa387&#45;&gt;dir_4ab6b4cc6a7edbff49100e9123df213f</title>
<path fill="none" stroke="black" d="M139.631,-215.669C145.428,-210.217 152.192,-204.461 159,-200 177.306,-188.004 187.774,-194.688 204,-180 231.301,-155.287 235.575,-143.598 245,-108 249.095,-92.5329 253.306,-85.6755 245,-72 231.013,-48.9699 203.407,-35.4897 180.438,-27.8922"/>
<polygon fill="black" stroke="black" points="181.191,-24.4628 170.605,-24.8939 179.149,-31.1584 181.191,-24.4628"/>
<g id="a_edge2&#45;headlabel"><a xlink:href="dir_000266_000016.html" target="_top" xlink:title="2">
<text text-anchor="middle" x="185.457" y="-20.2953" font-family="Helvetica,sans-Serif" font-size="10.00">2</text>
</a>
</g>
</g>
<!-- dir_9f165b2481dacfe69aa54d326bd5cd47 -->
<g id="node6" class="node"><title>dir_9f165b2481dacfe69aa54d326bd5cd47</title>
<g id="a_node6"><a xlink:href="dir_9f165b2481dacfe69aa54d326bd5cd47.html" target="_top" xlink:title="Core">
<polygon fill="none" stroke="red" points="58,-180 4,-180 4,-144 58,-144 58,-180"/>
<text text-anchor="middle" x="31" y="-159.5" font-family="Helvetica,sans-Serif" font-size="10.00">Core</text>
</a>
</g>
</g>
<!-- dir_80c3b7d4c168c9aa75dd1ba81b9fa387&#45;&gt;dir_9f165b2481dacfe69aa54d326bd5cd47 -->
<g id="edge3" class="edge"><title>dir_80c3b7d4c168c9aa75dd1ba81b9fa387&#45;&gt;dir_9f165b2481dacfe69aa54d326bd5cd47</title>
<path fill="none" stroke="black" d="M105.544,-215.973C99.8043,-210.657 93.2819,-204.905 87,-200 80.6066,-195.008 73.5497,-189.995 66.6627,-185.342"/>
<polygon fill="black" stroke="black" points="68.3634,-182.271 58.093,-179.669 64.4994,-188.107 68.3634,-182.271"/>
<g id="a_edge3&#45;headlabel"><a xlink:href="dir_000266_000254.html" target="_top" xlink:title="38">
<text text-anchor="middle" x="72.928" y="-179.387" font-family="Helvetica,sans-Serif" font-size="10.00">38</text>
</a>
</g>
</g>
<!-- dir_051dca18e802f8e9474f2e30d29c04e0 -->
<g id="node7" class="node"><title>dir_051dca18e802f8e9474f2e30d29c04e0</title>
<g id="a_node7"><a xlink:href="dir_051dca18e802f8e9474f2e30d29c04e0.html" target="_top" xlink:title="Detectors">
<polygon fill="none" stroke="red" points="173.25,-180 114.75,-180 114.75,-144 173.25,-144 173.25,-180"/>
<text text-anchor="middle" x="144" y="-159.5" font-family="Helvetica,sans-Serif" font-size="10.00">Detectors</text>
</a>
</g>
</g>
<!-- dir_80c3b7d4c168c9aa75dd1ba81b9fa387&#45;&gt;dir_051dca18e802f8e9474f2e30d29c04e0 -->
<g id="edge4" class="edge"><title>dir_80c3b7d4c168c9aa75dd1ba81b9fa387&#45;&gt;dir_051dca18e802f8e9474f2e30d29c04e0</title>
<path fill="none" stroke="black" d="M128.191,-215.697C130.531,-207.898 133.347,-198.509 135.951,-189.829"/>
<polygon fill="black" stroke="black" points="139.348,-190.688 138.869,-180.104 132.643,-188.677 139.348,-190.688"/>
<g id="a_edge4&#45;headlabel"><a xlink:href="dir_000266_000066.html" target="_top" xlink:title="4">
<text text-anchor="middle" x="141.034" y="-192.447" font-family="Helvetica,sans-Serif" font-size="10.00">4</text>
</a>
</g>
</g>
<!-- dir_2171f7ec022c5423887b07c69b2f5b48 -->
<g id="node8" class="node"><title>dir_2171f7ec022c5423887b07c69b2f5b48</title>
<g id="a_node8"><a xlink:href="dir_2171f7ec022c5423887b07c69b2f5b48.html" target="_top" xlink:title="DataFormats">
<polygon fill="none" stroke="red" points="115,-108 41,-108 41,-72 115,-72 115,-108"/>
<text text-anchor="middle" x="78" y="-87.5" font-family="Helvetica,sans-Serif" font-size="10.00">DataFormats</text>
</a>
</g>
</g>
<!-- dir_80c3b7d4c168c9aa75dd1ba81b9fa387&#45;&gt;dir_2171f7ec022c5423887b07c69b2f5b48 -->
<g id="edge5" class="edge"><title>dir_80c3b7d4c168c9aa75dd1ba81b9fa387&#45;&gt;dir_2171f7ec022c5423887b07c69b2f5b48</title>
<path fill="none" stroke="black" d="M117.02,-215.862C113.447,-205.506 108.865,-192.027 105,-180 98.3092,-159.183 91.1417,-135.485 85.8741,-117.779"/>
<polygon fill="black" stroke="black" points="89.2071,-116.707 83.0102,-108.114 82.4955,-118.696 89.2071,-116.707"/>
<g id="a_edge5&#45;headlabel"><a xlink:href="dir_000266_000038.html" target="_top" xlink:title="2">
<text text-anchor="middle" x="92.9505" y="-116.847" font-family="Helvetica,sans-Serif" font-size="10.00">2</text>
</a>
</g>
</g>
<!-- dir_b6abd220a8a509af9882e60b4042c567 -->
<g id="node3" class="node"><title>dir_b6abd220a8a509af9882e60b4042c567</title>
<g id="a_node3"><a xlink:href="dir_b6abd220a8a509af9882e60b4042c567.html" target="_top" xlink:title="test">
<polygon fill="white" stroke="black" points="78,-252 24,-252 24,-216 78,-216 78,-252"/>
<text text-anchor="middle" x="51" y="-231.5" font-family="Helvetica,sans-Serif" font-size="10.00">test</text>
</a>
</g>
</g>
<!-- dir_b6abd220a8a509af9882e60b4042c567&#45;&gt;dir_9f165b2481dacfe69aa54d326bd5cd47 -->
<g id="edge10" class="edge"><title>dir_b6abd220a8a509af9882e60b4042c567&#45;&gt;dir_9f165b2481dacfe69aa54d326bd5cd47</title>
<path fill="none" stroke="black" d="M46.0562,-215.697C43.828,-207.898 41.1453,-198.509 38.6655,-189.829"/>
<polygon fill="black" stroke="black" points="41.9996,-188.758 35.887,-180.104 35.2689,-190.681 41.9996,-188.758"/>
<g id="a_edge10&#45;headlabel"><a xlink:href="dir_000267_000254.html" target="_top" xlink:title="3">
<text text-anchor="middle" x="45.717" y="-188.934" font-family="Helvetica,sans-Serif" font-size="10.00">3</text>
</a>
</g>
</g>
<!-- dir_9f165b2481dacfe69aa54d326bd5cd47&#45;&gt;dir_2171f7ec022c5423887b07c69b2f5b48 -->
<g id="edge6" class="edge"><title>dir_9f165b2481dacfe69aa54d326bd5cd47&#45;&gt;dir_2171f7ec022c5423887b07c69b2f5b48</title>
<path fill="none" stroke="black" d="M42.618,-143.697C48.1388,-135.474 54.847,-125.483 60.9318,-116.421"/>
<polygon fill="black" stroke="black" points="63.8471,-118.358 66.5157,-108.104 58.0355,-114.456 63.8471,-118.358"/>
<g id="a_edge6&#45;headlabel"><a xlink:href="dir_000254_000038.html" target="_top" xlink:title="12">
<text text-anchor="middle" x="64.2006" y="-120.425" font-family="Helvetica,sans-Serif" font-size="10.00">12</text>
</a>
</g>
</g>
<!-- dir_051dca18e802f8e9474f2e30d29c04e0&#45;&gt;dir_0b342c6c6b7d2278121a0bb9c4985063 -->
<g id="edge7" class="edge"><title>dir_051dca18e802f8e9474f2e30d29c04e0&#45;&gt;dir_0b342c6c6b7d2278121a0bb9c4985063</title>
<path fill="none" stroke="black" d="M158.831,-143.697C166.025,-135.305 174.797,-125.07 182.69,-115.861"/>
<polygon fill="black" stroke="black" points="185.489,-117.975 189.339,-108.104 180.174,-113.419 185.489,-117.975"/>
<g id="a_edge7&#45;headlabel"><a xlink:href="dir_000066_000268.html" target="_top" xlink:title="1">
<text text-anchor="middle" x="185.305" y="-120.052" font-family="Helvetica,sans-Serif" font-size="10.00">1</text>
</a>
</g>
</g>
<!-- dir_051dca18e802f8e9474f2e30d29c04e0&#45;&gt;dir_4ab6b4cc6a7edbff49100e9123df213f -->
<g id="edge8" class="edge"><title>dir_051dca18e802f8e9474f2e30d29c04e0&#45;&gt;dir_4ab6b4cc6a7edbff49100e9123df213f</title>
<path fill="none" stroke="black" d="M143.879,-143.871C143.709,-119.67 143.396,-75.2108 143.193,-46.3932"/>
<polygon fill="black" stroke="black" points="146.691,-46.1643 143.121,-36.1893 139.692,-46.2137 146.691,-46.1643"/>
<g id="a_edge8&#45;headlabel"><a xlink:href="dir_000066_000016.html" target="_top" xlink:title="33">
<text text-anchor="middle" x="149.556" y="-47.2389" font-family="Helvetica,sans-Serif" font-size="10.00">33</text>
</a>
</g>
</g>
<!-- dir_051dca18e802f8e9474f2e30d29c04e0&#45;&gt;dir_2171f7ec022c5423887b07c69b2f5b48 -->
<g id="edge9" class="edge"><title>dir_051dca18e802f8e9474f2e30d29c04e0&#45;&gt;dir_2171f7ec022c5423887b07c69b2f5b48</title>
<path fill="none" stroke="black" d="M121.77,-143.697C112.992,-135.305 103.15,-125.07 94.949,-115.861"/>
<polygon fill="black" stroke="black" points="97.424,-113.373 88.2319,-108.104 92.1322,-117.955 97.424,-113.373"/>
<g id="a_edge9&#45;headlabel"><a xlink:href="dir_000066_000038.html" target="_top" xlink:title="79">
<text text-anchor="middle" x="101.923" y="-111.732" font-family="Helvetica,sans-Serif" font-size="10.00">79</text>
</a>
</g>
</g>
<!-- dir_2171f7ec022c5423887b07c69b2f5b48&#45;&gt;dir_4ab6b4cc6a7edbff49100e9123df213f -->
<g id="edge11" class="edge"><title>dir_2171f7ec022c5423887b07c69b2f5b48&#45;&gt;dir_4ab6b4cc6a7edbff49100e9123df213f</title>
<path fill="none" stroke="black" d="M94.0674,-71.6966C101.939,-63.2198 111.555,-52.8636 120.173,-43.5826"/>
<polygon fill="black" stroke="black" points="122.878,-45.8139 127.117,-36.1043 117.748,-41.0507 122.878,-45.8139"/>
<g id="a_edge11&#45;headlabel"><a xlink:href="dir_000038_000016.html" target="_top" xlink:title="4">
<text text-anchor="middle" x="122.512" y="-47.8799" font-family="Helvetica,sans-Serif" font-size="10.00">4</text>
</a>
</g>
</g>
<!-- dir_2171f7ec022c5423887b07c69b2f5b48&#45;&gt;dir_051dca18e802f8e9474f2e30d29c04e0 -->
<g id="edge12" class="edge"><title>dir_2171f7ec022c5423887b07c69b2f5b48&#45;&gt;dir_051dca18e802f8e9474f2e30d29c04e0</title>
<path fill="none" stroke="black" d="M100.022,-108.104C108.783,-116.467 118.629,-126.694 126.856,-135.92"/>
<polygon fill="black" stroke="black" points="124.405,-138.436 133.601,-143.697 129.693,-133.849 124.405,-138.436"/>
<g id="a_edge12&#45;headlabel"><a xlink:href="dir_000038_000066.html" target="_top" xlink:title="8">
<text text-anchor="middle" x="119.905" y="-135.08" font-family="Helvetica,sans-Serif" font-size="10.00">8</text>
</a>
</g>
</g>
</g>
</svg>
