<?xml version="1.0" encoding="UTF-8" standalone="no"?>
<!DOCTYPE svg PUBLIC "-//W3C//DTD SVG 1.1//EN"
 "http://www.w3.org/Graphics/SVG/1.1/DTD/svg11.dtd">
<!-- Generated by graphviz version 2.36.0 (20140111.2315)
 -->
<!-- Title: /home/travis/build/AliceO2Group/AliceO2/Detectors/TPC/monitor/src Pages: 1 -->
<svg width="106pt" height="223pt"
 viewBox="0.00 0.00 106.00 223.00" xmlns="http://www.w3.org/2000/svg" xmlns:xlink="http://www.w3.org/1999/xlink">
<g id="graph0" class="graph" transform="scale(1 1) rotate(0) translate(4 219)">
<title>/home/travis/build/AliceO2Group/AliceO2/Detectors/TPC/monitor/src</title>
<g id="clust1" class="cluster"><title>clusterdir_c8aedc994017b243e124cedd663b3bbb</title>
<g id="a_clust1"><a xlink:href="dir_c8aedc994017b243e124cedd663b3bbb.html" target="_top" xlink:title="monitor">
<polygon fill="#ddddee" stroke="black" points="8,-136 8,-207 78,-207 78,-136 8,-136"/>
<text text-anchor="middle" x="43" y="-195" font-family="Helvetica,sans-Serif" font-size="10.00">monitor</text>
</a>
</g>
</g>
<!-- dir_75a22ffed9615d68d9baca3734fb0768 -->
<g id="node1" class="node"><title>dir_75a22ffed9615d68d9baca3734fb0768</title>
<g id="a_node1"><a xlink:href="dir_75a22ffed9615d68d9baca3734fb0768.html" target="_top" xlink:title="src">
<polygon fill="#eeeeff" stroke="black" points="70,-180 16,-180 16,-144 70,-144 70,-180"/>
<text text-anchor="middle" x="43" y="-159.5" font-family="Helvetica,sans-Serif" font-size="10.00">src</text>
</a>
</g>
</g>
<!-- dir_677b030cc750909e4cd27413873678d8 -->
<g id="node2" class="node"><title>dir_677b030cc750909e4cd27413873678d8</title>
<g id="a_node2"><a xlink:href="dir_677b030cc750909e4cd27413873678d8.html" target="_top" xlink:title="base">
<polygon fill="none" stroke="red" points="70,-36 16,-36 16,-0 70,-0 70,-36"/>
<text text-anchor="middle" x="43" y="-15.5" font-family="Helvetica,sans-Serif" font-size="10.00">base</text>
</a>
</g>
</g>
<!-- dir_75a22ffed9615d68d9baca3734fb0768&#45;&gt;dir_677b030cc750909e4cd27413873678d8 -->
<g id="edge1" class="edge"><title>dir_75a22ffed9615d68d9baca3734fb0768&#45;&gt;dir_677b030cc750909e4cd27413873678d8</title>
<path fill="none" stroke="black" d="M39.7517,-143.888C37.9542,-133.542 35.9053,-120.063 35,-108 33.8026,-92.0449 33.8026,-87.9551 35,-72 35.6366,-63.5179 36.8384,-54.3361 38.1208,-46.0356"/>
<polygon fill="black" stroke="black" points="41.5836,-46.5472 39.7517,-36.1119 34.6763,-45.412 41.5836,-46.5472"/>
<g id="a_edge1&#45;headlabel"><a xlink:href="dir_000210_000080.html" target="_top" xlink:title="5">
<text text-anchor="middle" x="43.8024" y="-48.0546" font-family="Helvetica,sans-Serif" font-size="10.00">5</text>
</a>
</g>
</g>
<!-- dir_aa18e31672ad680cbed4898267bc1ea1 -->
<g id="node3" class="node"><title>dir_aa18e31672ad680cbed4898267bc1ea1</title>
<g id="a_node3"><a xlink:href="dir_aa18e31672ad680cbed4898267bc1ea1.html" target="_top" xlink:title="include">
<polygon fill="none" stroke="red" points="98,-108 44,-108 44,-72 98,-72 98,-108"/>
<text text-anchor="middle" x="71" y="-87.5" font-family="Helvetica,sans-Serif" font-size="10.00">include</text>
</a>
</g>
</g>
<!-- dir_75a22ffed9615d68d9baca3734fb0768&#45;&gt;dir_aa18e31672ad680cbed4898267bc1ea1 -->
<g id="edge2" class="edge"><title>dir_75a22ffed9615d68d9baca3734fb0768&#45;&gt;dir_aa18e31672ad680cbed4898267bc1ea1</title>
<path fill="none" stroke="black" d="M49.9214,-143.697C53.0747,-135.813 56.8783,-126.304 60.3814,-117.546"/>
<polygon fill="black" stroke="black" points="63.694,-118.689 64.1583,-108.104 57.1946,-116.089 63.694,-118.689"/>
<g id="a_edge2&#45;headlabel"><a xlink:href="dir_000210_000206.html" target="_top" xlink:title="1">
<text text-anchor="middle" x="64.9952" y="-120.581" font-family="Helvetica,sans-Serif" font-size="10.00">1</text>
</a>
</g>
</g>
<!-- dir_aa18e31672ad680cbed4898267bc1ea1&#45;&gt;dir_677b030cc750909e4cd27413873678d8 -->
<g id="edge3" class="edge"><title>dir_aa18e31672ad680cbed4898267bc1ea1&#45;&gt;dir_677b030cc750909e4cd27413873678d8</title>
<path fill="none" stroke="black" d="M64.0786,-71.6966C60.9253,-63.8132 57.1217,-54.3042 53.6186,-45.5464"/>
<polygon fill="black" stroke="black" points="56.8054,-44.0892 49.8417,-36.1043 50.306,-46.689 56.8054,-44.0892"/>
<g id="a_edge3&#45;headlabel"><a xlink:href="dir_000206_000080.html" target="_top" xlink:title="2">
<text text-anchor="middle" x="60.7765" y="-43.8723" font-family="Helvetica,sans-Serif" font-size="10.00">2</text>
</a>
</g>
</g>
</g>
</svg>
