<?xml version="1.0" encoding="UTF-8" standalone="no"?>
<!DOCTYPE svg PUBLIC "-//W3C//DTD SVG 1.1//EN"
 "http://www.w3.org/Graphics/SVG/1.1/DTD/svg11.dtd">
<!-- Generated by graphviz version 2.36.0 (20140111.2315)
 -->
<!-- Title: /home/travis/build/AliceO2Group/AliceO2/Detectors/PHOS/simulation Pages: 1 -->
<svg width="190pt" height="447pt"
 viewBox="0.00 0.00 190.00 447.00" xmlns="http://www.w3.org/2000/svg" xmlns:xlink="http://www.w3.org/1999/xlink">
<g id="graph0" class="graph" transform="scale(1 1) rotate(0) translate(4 443)">
<title>/home/travis/build/AliceO2Group/AliceO2/Detectors/PHOS/simulation</title>
<g id="clust1" class="cluster"><title>clusterdir_cd3c152a7db0580c86a4c50ad0325149</title>
<g id="a_clust1"><a xlink:href="dir_cd3c152a7db0580c86a4c50ad0325149.html" target="_top" xlink:title="PHOS">
<polygon fill="#ddddee" stroke="black" points="8,-272 8,-431 174,-431 174,-272 8,-272"/>
<text text-anchor="middle" x="91" y="-419" font-family="Helvetica,sans-Serif" font-size="10.00">PHOS</text>
</a>
</g>
</g>
<g id="clust2" class="cluster"><title>clusterdir_3af9af54da49e799fe4b1df79119dad7</title>
<g id="a_clust2"><a xlink:href="dir_3af9af54da49e799fe4b1df79119dad7.html" target="_top">
<polygon fill="#eeeeff" stroke="black" points="16,-280 16,-404 166,-404 166,-280 16,-280"/>
</a>
</g>
</g>
<!-- dir_3af9af54da49e799fe4b1df79119dad7 -->
<g id="node1" class="node"><title>dir_3af9af54da49e799fe4b1df79119dad7</title>
<text text-anchor="middle" x="127" y="-375.5" font-family="Helvetica,sans-Serif" font-size="10.00">simulation</text>
</g>
<!-- dir_a3ab2a46c8d9ae8abe901048b5095b9f -->
<g id="node2" class="node"><title>dir_a3ab2a46c8d9ae8abe901048b5095b9f</title>
<g id="a_node2"><a xlink:href="dir_a3ab2a46c8d9ae8abe901048b5095b9f.html" target="_top" xlink:title="include">
<polygon fill="white" stroke="red" points="78,-324 24,-324 24,-288 78,-288 78,-324"/>
<text text-anchor="middle" x="51" y="-303.5" font-family="Helvetica,sans-Serif" font-size="10.00">include</text>
</a>
</g>
</g>
<!-- dir_fa21b46838f21636bfdcc60e4853f0ed -->
<g id="node4" class="node"><title>dir_fa21b46838f21636bfdcc60e4853f0ed</title>
<g id="a_node4"><a xlink:href="dir_fa21b46838f21636bfdcc60e4853f0ed.html" target="_top" xlink:title="base">
<polygon fill="none" stroke="red" points="133,-252 79,-252 79,-216 133,-216 133,-252"/>
<text text-anchor="middle" x="106" y="-231.5" font-family="Helvetica,sans-Serif" font-size="10.00">base</text>
</a>
</g>
</g>
<!-- dir_a3ab2a46c8d9ae8abe901048b5095b9f&#45;&gt;dir_fa21b46838f21636bfdcc60e4853f0ed -->
<g id="edge1" class="edge"><title>dir_a3ab2a46c8d9ae8abe901048b5095b9f&#45;&gt;dir_fa21b46838f21636bfdcc60e4853f0ed</title>
<path fill="none" stroke="black" d="M64.5955,-287.697C71.1227,-279.389 79.068,-269.277 86.2466,-260.141"/>
<polygon fill="black" stroke="black" points="89.1347,-262.13 92.5609,-252.104 83.6305,-257.805 89.1347,-262.13"/>
<g id="a_edge1&#45;headlabel"><a xlink:href="dir_000099_000138.html" target="_top" xlink:title="1">
<text text-anchor="middle" x="89.1465" y="-264.211" font-family="Helvetica,sans-Serif" font-size="10.00">1</text>
</a>
</g>
</g>
<!-- dir_4ab6b4cc6a7edbff49100e9123df213f -->
<g id="node5" class="node"><title>dir_4ab6b4cc6a7edbff49100e9123df213f</title>
<g id="a_node5"><a xlink:href="dir_4ab6b4cc6a7edbff49100e9123df213f.html" target="_top" xlink:title="Common">
<polygon fill="none" stroke="red" points="93.5,-36 38.5,-36 38.5,-0 93.5,-0 93.5,-36"/>
<text text-anchor="middle" x="66" y="-15.5" font-family="Helvetica,sans-Serif" font-size="10.00">Common</text>
</a>
</g>
</g>
<!-- dir_a3ab2a46c8d9ae8abe901048b5095b9f&#45;&gt;dir_4ab6b4cc6a7edbff49100e9123df213f -->
<g id="edge2" class="edge"><title>dir_a3ab2a46c8d9ae8abe901048b5095b9f&#45;&gt;dir_4ab6b4cc6a7edbff49100e9123df213f</title>
<path fill="none" stroke="black" d="M45.092,-287.87C32.5033,-248.673 6.06461,-149.837 30,-72 33.0089,-62.2153 38.507,-52.6161 44.3157,-44.3336"/>
<polygon fill="black" stroke="black" points="47.1948,-46.3279 50.3901,-36.2264 41.5928,-42.1306 47.1948,-46.3279"/>
<g id="a_edge2&#45;headlabel"><a xlink:href="dir_000099_000016.html" target="_top" xlink:title="1">
<text text-anchor="middle" x="47.3117" y="-48.4071" font-family="Helvetica,sans-Serif" font-size="10.00">1</text>
</a>
</g>
</g>
<!-- dir_37c90836491b695b472bf98d1be8336b -->
<g id="node6" class="node"><title>dir_37c90836491b695b472bf98d1be8336b</title>
<g id="a_node6"><a xlink:href="dir_37c90836491b695b472bf98d1be8336b.html" target="_top" xlink:title="Base">
<polygon fill="none" stroke="red" points="93,-108 39,-108 39,-72 93,-72 93,-108"/>
<text text-anchor="middle" x="66" y="-87.5" font-family="Helvetica,sans-Serif" font-size="10.00">Base</text>
</a>
</g>
</g>
<!-- dir_a3ab2a46c8d9ae8abe901048b5095b9f&#45;&gt;dir_37c90836491b695b472bf98d1be8336b -->
<g id="edge3" class="edge"><title>dir_a3ab2a46c8d9ae8abe901048b5095b9f&#45;&gt;dir_37c90836491b695b472bf98d1be8336b</title>
<path fill="none" stroke="black" d="M52.2022,-287.849C54.7968,-250.832 60.9406,-163.181 64.0804,-118.386"/>
<polygon fill="black" stroke="black" points="67.5842,-118.453 64.7921,-108.232 60.6014,-117.963 67.5842,-118.453"/>
<g id="a_edge3&#45;headlabel"><a xlink:href="dir_000099_000067.html" target="_top" xlink:title="1">
<text text-anchor="middle" x="70.1653" y="-119.737" font-family="Helvetica,sans-Serif" font-size="10.00">1</text>
</a>
</g>
</g>
<!-- dir_03284ba3c3f059587cc689a1c2ebdcfe -->
<g id="node3" class="node"><title>dir_03284ba3c3f059587cc689a1c2ebdcfe</title>
<g id="a_node3"><a xlink:href="dir_03284ba3c3f059587cc689a1c2ebdcfe.html" target="_top" xlink:title="src">
<polygon fill="white" stroke="black" points="78,-396 24,-396 24,-360 78,-360 78,-396"/>
<text text-anchor="middle" x="51" y="-375.5" font-family="Helvetica,sans-Serif" font-size="10.00">src</text>
</a>
</g>
</g>
<!-- dir_03284ba3c3f059587cc689a1c2ebdcfe&#45;&gt;dir_a3ab2a46c8d9ae8abe901048b5095b9f -->
<g id="edge6" class="edge"><title>dir_03284ba3c3f059587cc689a1c2ebdcfe&#45;&gt;dir_a3ab2a46c8d9ae8abe901048b5095b9f</title>
<path fill="none" stroke="black" d="M51,-359.697C51,-351.983 51,-342.712 51,-334.112"/>
<polygon fill="black" stroke="black" points="54.5001,-334.104 51,-324.104 47.5001,-334.104 54.5001,-334.104"/>
<g id="a_edge6&#45;headlabel"><a xlink:href="dir_000124_000099.html" target="_top" xlink:title="3">
<text text-anchor="middle" x="57.3393" y="-335.199" font-family="Helvetica,sans-Serif" font-size="10.00">3</text>
</a>
</g>
</g>
<!-- dir_03284ba3c3f059587cc689a1c2ebdcfe&#45;&gt;dir_fa21b46838f21636bfdcc60e4853f0ed -->
<g id="edge7" class="edge"><title>dir_03284ba3c3f059587cc689a1c2ebdcfe&#45;&gt;dir_fa21b46838f21636bfdcc60e4853f0ed</title>
<path fill="none" stroke="black" d="M65.1647,-359.851C72.6902,-349.93 81.4971,-336.89 87,-324 95.4132,-304.293 100.245,-280.488 102.928,-262.458"/>
<polygon fill="black" stroke="black" points="106.427,-262.705 104.303,-252.326 99.4903,-261.764 106.427,-262.705"/>
<g id="a_edge7&#45;headlabel"><a xlink:href="dir_000124_000138.html" target="_top" xlink:title="2">
<text text-anchor="middle" x="108.757" y="-264.149" font-family="Helvetica,sans-Serif" font-size="10.00">2</text>
</a>
</g>
</g>
<!-- dir_2171f7ec022c5423887b07c69b2f5b48 -->
<g id="node7" class="node"><title>dir_2171f7ec022c5423887b07c69b2f5b48</title>
<g id="a_node7"><a xlink:href="dir_2171f7ec022c5423887b07c69b2f5b48.html" target="_top" xlink:title="DataFormats">
<polygon fill="none" stroke="red" points="156,-180 82,-180 82,-144 156,-144 156,-180"/>
<text text-anchor="middle" x="119" y="-159.5" font-family="Helvetica,sans-Serif" font-size="10.00">DataFormats</text>
</a>
</g>
</g>
<!-- dir_03284ba3c3f059587cc689a1c2ebdcfe&#45;&gt;dir_2171f7ec022c5423887b07c69b2f5b48 -->
<g id="edge8" class="edge"><title>dir_03284ba3c3f059587cc689a1c2ebdcfe&#45;&gt;dir_2171f7ec022c5423887b07c69b2f5b48</title>
<path fill="none" stroke="black" d="M73.6936,-359.925C85.3389,-350.321 99.1144,-337.556 109,-324 129.741,-295.558 134.494,-286.391 142,-252 145.412,-236.368 145.253,-231.666 142,-216 140.124,-206.965 136.626,-197.579 132.914,-189.261"/>
<polygon fill="black" stroke="black" points="135.999,-187.598 128.542,-180.072 129.678,-190.606 135.999,-187.598"/>
<g id="a_edge8&#45;headlabel"><a xlink:href="dir_000124_000038.html" target="_top" xlink:title="1">
<text text-anchor="middle" x="140.107" y="-187.125" font-family="Helvetica,sans-Serif" font-size="10.00">1</text>
</a>
</g>
</g>
<!-- dir_fa21b46838f21636bfdcc60e4853f0ed&#45;&gt;dir_2171f7ec022c5423887b07c69b2f5b48 -->
<g id="edge4" class="edge"><title>dir_fa21b46838f21636bfdcc60e4853f0ed&#45;&gt;dir_2171f7ec022c5423887b07c69b2f5b48</title>
<path fill="none" stroke="black" d="M109.213,-215.697C110.646,-207.983 112.368,-198.712 113.965,-190.112"/>
<polygon fill="black" stroke="black" points="117.439,-190.575 115.823,-180.104 110.556,-189.297 117.439,-190.575"/>
<g id="a_edge4&#45;headlabel"><a xlink:href="dir_000138_000038.html" target="_top" xlink:title="1">
<text text-anchor="middle" x="119.574" y="-192.128" font-family="Helvetica,sans-Serif" font-size="10.00">1</text>
</a>
</g>
</g>
<!-- dir_37c90836491b695b472bf98d1be8336b&#45;&gt;dir_4ab6b4cc6a7edbff49100e9123df213f -->
<g id="edge5" class="edge"><title>dir_37c90836491b695b472bf98d1be8336b&#45;&gt;dir_4ab6b4cc6a7edbff49100e9123df213f</title>
<path fill="none" stroke="black" d="M66,-71.6966C66,-63.9827 66,-54.7125 66,-46.1124"/>
<polygon fill="black" stroke="black" points="69.5001,-46.1043 66,-36.1043 62.5001,-46.1044 69.5001,-46.1043"/>
<g id="a_edge5&#45;headlabel"><a xlink:href="dir_000067_000016.html" target="_top" xlink:title="5">
<text text-anchor="middle" x="72.3393" y="-47.199" font-family="Helvetica,sans-Serif" font-size="10.00">5</text>
</a>
</g>
</g>
<!-- dir_2171f7ec022c5423887b07c69b2f5b48&#45;&gt;dir_4ab6b4cc6a7edbff49100e9123df213f -->
<g id="edge9" class="edge"><title>dir_2171f7ec022c5423887b07c69b2f5b48&#45;&gt;dir_4ab6b4cc6a7edbff49100e9123df213f</title>
<path fill="none" stroke="black" d="M117.784,-143.676C116.021,-125.293 111.812,-95.6893 102,-72 98.0193,-62.3898 92.143,-52.7283 86.2872,-44.3355"/>
<polygon fill="black" stroke="black" points="88.9983,-42.1132 80.2726,-36.1038 83.3462,-46.243 88.9983,-42.1132"/>
<g id="a_edge9&#45;headlabel"><a xlink:href="dir_000038_000016.html" target="_top" xlink:title="4">
<text text-anchor="middle" x="93.4114" y="-40.8406" font-family="Helvetica,sans-Serif" font-size="10.00">4</text>
</a>
</g>
</g>
<!-- dir_2171f7ec022c5423887b07c69b2f5b48&#45;&gt;dir_37c90836491b695b472bf98d1be8336b -->
<g id="edge10" class="edge"><title>dir_2171f7ec022c5423887b07c69b2f5b48&#45;&gt;dir_37c90836491b695b472bf98d1be8336b</title>
<path fill="none" stroke="black" d="M105.899,-143.697C99.6091,-135.389 91.9526,-125.277 85.0351,-116.141"/>
<polygon fill="black" stroke="black" points="87.7773,-113.964 78.9504,-108.104 82.1964,-118.19 87.7773,-113.964"/>
<g id="a_edge10&#45;headlabel"><a xlink:href="dir_000038_000067.html" target="_top" xlink:title="6">
<text text-anchor="middle" x="92.2107" y="-112.616" font-family="Helvetica,sans-Serif" font-size="10.00">6</text>
</a>
</g>
</g>
</g>
</svg>
