<?xml version="1.0" encoding="UTF-8" standalone="no"?>
<!DOCTYPE svg PUBLIC "-//W3C//DTD SVG 1.1//EN"
 "http://www.w3.org/Graphics/SVG/1.1/DTD/svg11.dtd">
<!-- Generated by graphviz version 2.36.0 (20140111.2315)
 -->
<!-- Title: /home/travis/build/AliceO2Group/AliceO2/macro Pages: 1 -->
<svg width="216pt" height="260pt"
 viewBox="0.00 0.00 215.87 260.00" xmlns="http://www.w3.org/2000/svg" xmlns:xlink="http://www.w3.org/1999/xlink">
<g id="graph0" class="graph" transform="scale(1 1) rotate(0) translate(4 256)">
<title>/home/travis/build/AliceO2Group/AliceO2/macro</title>
<!-- dir_3b579af105d68949fc87077585f616df -->
<g id="node1" class="node"><title>dir_3b579af105d68949fc87077585f616df</title>
<g id="a_node1"><a xlink:href="dir_3b579af105d68949fc87077585f616df.html" target="_top" xlink:title="macro">
<polygon fill="#eeeeff" stroke="black" points="156,-252 102,-252 102,-216 156,-216 156,-252"/>
<text text-anchor="middle" x="129" y="-231.5" font-family="Helvetica,sans-Serif" font-size="10.00">macro</text>
</a>
</g>
</g>
<!-- dir_0b342c6c6b7d2278121a0bb9c4985063 -->
<g id="node2" class="node"><title>dir_0b342c6c6b7d2278121a0bb9c4985063</title>
<g id="a_node2"><a xlink:href="dir_0b342c6c6b7d2278121a0bb9c4985063.html" target="_top" xlink:title="Generators">
<polygon fill="none" stroke="red" points="64.25,-108 -0.25,-108 -0.25,-72 64.25,-72 64.25,-108"/>
<text text-anchor="middle" x="32" y="-87.5" font-family="Helvetica,sans-Serif" font-size="10.00">Generators</text>
</a>
</g>
</g>
<!-- dir_3b579af105d68949fc87077585f616df&#45;&gt;dir_0b342c6c6b7d2278121a0bb9c4985063 -->
<g id="edge4" class="edge"><title>dir_3b579af105d68949fc87077585f616df&#45;&gt;dir_0b342c6c6b7d2278121a0bb9c4985063</title>
<path fill="none" stroke="black" d="M101.91,-217.376C87.9481,-208.103 71.6609,-195.193 61,-180 47.9864,-161.454 40.5462,-136.713 36.4685,-118.024"/>
<polygon fill="black" stroke="black" points="39.8735,-117.201 34.4872,-108.078 33.0083,-118.569 39.8735,-117.201"/>
<g id="a_edge4&#45;headlabel"><a xlink:href="dir_000152_000268.html" target="_top" xlink:title="5">
<text text-anchor="middle" x="43.3602" y="-117.672" font-family="Helvetica,sans-Serif" font-size="10.00">5</text>
</a>
</g>
</g>
<!-- dir_4ab6b4cc6a7edbff49100e9123df213f -->
<g id="node3" class="node"><title>dir_4ab6b4cc6a7edbff49100e9123df213f</title>
<g id="a_node3"><a xlink:href="dir_4ab6b4cc6a7edbff49100e9123df213f.html" target="_top" xlink:title="Common">
<polygon fill="none" stroke="red" points="185.5,-36 130.5,-36 130.5,-0 185.5,-0 185.5,-36"/>
<text text-anchor="middle" x="158" y="-15.5" font-family="Helvetica,sans-Serif" font-size="10.00">Common</text>
</a>
</g>
</g>
<!-- dir_3b579af105d68949fc87077585f616df&#45;&gt;dir_4ab6b4cc6a7edbff49100e9123df213f -->
<g id="edge5" class="edge"><title>dir_3b579af105d68949fc87077585f616df&#45;&gt;dir_4ab6b4cc6a7edbff49100e9123df213f</title>
<path fill="none" stroke="black" d="M143.537,-215.803C161.822,-192.934 192.245,-150.438 204,-108 208.271,-92.5806 209.597,-86.9889 204,-72 200.124,-61.6206 193.197,-51.9274 185.876,-43.7427"/>
<polygon fill="black" stroke="black" points="188.269,-41.1816 178.823,-36.3845 183.216,-46.0256 188.269,-41.1816"/>
<g id="a_edge5&#45;headlabel"><a xlink:href="dir_000152_000016.html" target="_top" xlink:title="12">
<text text-anchor="middle" x="192.806" y="-39.3118" font-family="Helvetica,sans-Serif" font-size="10.00">12</text>
</a>
</g>
</g>
<!-- dir_051dca18e802f8e9474f2e30d29c04e0 -->
<g id="node4" class="node"><title>dir_051dca18e802f8e9474f2e30d29c04e0</title>
<g id="a_node4"><a xlink:href="dir_051dca18e802f8e9474f2e30d29c04e0.html" target="_top" xlink:title="Detectors">
<polygon fill="none" stroke="red" points="129.25,-180 70.75,-180 70.75,-144 129.25,-144 129.25,-180"/>
<text text-anchor="middle" x="100" y="-159.5" font-family="Helvetica,sans-Serif" font-size="10.00">Detectors</text>
</a>
</g>
</g>
<!-- dir_3b579af105d68949fc87077585f616df&#45;&gt;dir_051dca18e802f8e9474f2e30d29c04e0 -->
<g id="edge6" class="edge"><title>dir_3b579af105d68949fc87077585f616df&#45;&gt;dir_051dca18e802f8e9474f2e30d29c04e0</title>
<path fill="none" stroke="black" d="M121.831,-215.697C118.565,-207.813 114.626,-198.304 110.998,-189.546"/>
<polygon fill="black" stroke="black" points="114.147,-188.003 107.086,-180.104 107.68,-190.683 114.147,-188.003"/>
<g id="a_edge6&#45;headlabel"><a xlink:href="dir_000152_000066.html" target="_top" xlink:title="37">
<text text-anchor="middle" x="118.146" y="-187.738" font-family="Helvetica,sans-Serif" font-size="10.00">37</text>
</a>
</g>
</g>
<!-- dir_2171f7ec022c5423887b07c69b2f5b48 -->
<g id="node5" class="node"><title>dir_2171f7ec022c5423887b07c69b2f5b48</title>
<g id="a_node5"><a xlink:href="dir_2171f7ec022c5423887b07c69b2f5b48.html" target="_top" xlink:title="DataFormats">
<polygon fill="none" stroke="red" points="195,-108 121,-108 121,-72 195,-72 195,-108"/>
<text text-anchor="middle" x="158" y="-87.5" font-family="Helvetica,sans-Serif" font-size="10.00">DataFormats</text>
</a>
</g>
</g>
<!-- dir_3b579af105d68949fc87077585f616df&#45;&gt;dir_2171f7ec022c5423887b07c69b2f5b48 -->
<g id="edge7" class="edge"><title>dir_3b579af105d68949fc87077585f616df&#45;&gt;dir_2171f7ec022c5423887b07c69b2f5b48</title>
<path fill="none" stroke="black" d="M132.498,-215.871C137.462,-191.564 146.6,-146.819 152.483,-118.013"/>
<polygon fill="black" stroke="black" points="155.918,-118.687 154.49,-108.189 149.059,-117.287 155.918,-118.687"/>
<g id="a_edge7&#45;headlabel"><a xlink:href="dir_000152_000038.html" target="_top" xlink:title="4">
<text text-anchor="middle" x="157.98" y="-120.277" font-family="Helvetica,sans-Serif" font-size="10.00">4</text>
</a>
</g>
</g>
<!-- dir_051dca18e802f8e9474f2e30d29c04e0&#45;&gt;dir_0b342c6c6b7d2278121a0bb9c4985063 -->
<g id="edge1" class="edge"><title>dir_051dca18e802f8e9474f2e30d29c04e0&#45;&gt;dir_0b342c6c6b7d2278121a0bb9c4985063</title>
<path fill="none" stroke="black" d="M83.191,-143.697C74.874,-135.135 64.6946,-124.656 55.6101,-115.304"/>
<polygon fill="black" stroke="black" points="58.094,-112.838 48.6156,-108.104 53.073,-117.716 58.094,-112.838"/>
<g id="a_edge1&#45;headlabel"><a xlink:href="dir_000066_000268.html" target="_top" xlink:title="1">
<text text-anchor="middle" x="62.6352" y="-110.938" font-family="Helvetica,sans-Serif" font-size="10.00">1</text>
</a>
</g>
</g>
<!-- dir_051dca18e802f8e9474f2e30d29c04e0&#45;&gt;dir_4ab6b4cc6a7edbff49100e9123df213f -->
<g id="edge2" class="edge"><title>dir_051dca18e802f8e9474f2e30d29c04e0&#45;&gt;dir_4ab6b4cc6a7edbff49100e9123df213f</title>
<path fill="none" stroke="black" d="M99.4559,-143.806C99.5073,-125.273 101.471,-95.301 112,-72 116.638,-61.7351 123.926,-51.9719 131.345,-43.6868"/>
<polygon fill="black" stroke="black" points="134.076,-45.8935 138.415,-36.2281 128.995,-41.0777 134.076,-45.8935"/>
<g id="a_edge2&#45;headlabel"><a xlink:href="dir_000066_000016.html" target="_top" xlink:title="33">
<text text-anchor="middle" x="133.663" y="-47.9555" font-family="Helvetica,sans-Serif" font-size="10.00">33</text>
</a>
</g>
</g>
<!-- dir_051dca18e802f8e9474f2e30d29c04e0&#45;&gt;dir_2171f7ec022c5423887b07c69b2f5b48 -->
<g id="edge3" class="edge"><title>dir_051dca18e802f8e9474f2e30d29c04e0&#45;&gt;dir_2171f7ec022c5423887b07c69b2f5b48</title>
<path fill="none" stroke="black" d="M108.421,-143.697C114.571,-135.22 122.964,-124.864 131.155,-115.583"/>
<polygon fill="black" stroke="black" points="133.81,-117.864 137.933,-108.104 128.624,-113.163 133.81,-117.864"/>
<g id="a_edge3&#45;headlabel"><a xlink:href="dir_000066_000038.html" target="_top" xlink:title="79">
<text text-anchor="middle" x="133.5" y="-119.934" font-family="Helvetica,sans-Serif" font-size="10.00">79</text>
</a>
</g>
</g>
<!-- dir_2171f7ec022c5423887b07c69b2f5b48&#45;&gt;dir_4ab6b4cc6a7edbff49100e9123df213f -->
<g id="edge8" class="edge"><title>dir_2171f7ec022c5423887b07c69b2f5b48&#45;&gt;dir_4ab6b4cc6a7edbff49100e9123df213f</title>
<path fill="none" stroke="black" d="M158,-71.6966C158,-63.9827 158,-54.7125 158,-46.1124"/>
<polygon fill="black" stroke="black" points="161.5,-46.1043 158,-36.1043 154.5,-46.1044 161.5,-46.1043"/>
<g id="a_edge8&#45;headlabel"><a xlink:href="dir_000038_000016.html" target="_top" xlink:title="4">
<text text-anchor="middle" x="164.339" y="-47.199" font-family="Helvetica,sans-Serif" font-size="10.00">4</text>
</a>
</g>
</g>
<!-- dir_2171f7ec022c5423887b07c69b2f5b48&#45;&gt;dir_051dca18e802f8e9474f2e30d29c04e0 -->
<g id="edge9" class="edge"><title>dir_2171f7ec022c5423887b07c69b2f5b48&#45;&gt;dir_051dca18e802f8e9474f2e30d29c04e0</title>
<path fill="none" stroke="black" d="M149.723,-108.104C143.609,-116.552 135.231,-126.901 127.038,-136.199"/>
<polygon fill="black" stroke="black" points="124.368,-133.934 120.253,-143.697 129.558,-138.631 124.368,-133.934"/>
<g id="a_edge9&#45;headlabel"><a xlink:href="dir_000038_000066.html" target="_top" xlink:title="8">
<text text-anchor="middle" x="124.674" y="-126.863" font-family="Helvetica,sans-Serif" font-size="10.00">8</text>
</a>
</g>
</g>
</g>
</svg>
