<?xml version="1.0" encoding="UTF-8" standalone="no"?>
<!DOCTYPE svg PUBLIC "-//W3C//DTD SVG 1.1//EN"
 "http://www.w3.org/Graphics/SVG/1.1/DTD/svg11.dtd">
<!-- Generated by graphviz version 2.36.0 (20140111.2315)
 -->
<!-- Title: Graphical Class Hierarchy Pages: 1 -->
<svg width="280pt" height="104pt"
 viewBox="0.00 0.00 280.00 104.00" xmlns="http://www.w3.org/2000/svg" xmlns:xlink="http://www.w3.org/1999/xlink">
<g id="graph0" class="graph" transform="scale(1 1) rotate(0) translate(4 100)">
<title>Graphical Class Hierarchy</title>
<!-- Node1 -->
<g id="node1" class="node"><title>Node1</title>
<g id="a_node1"><a xlink:href="df/d40/classFairGenerator.html" target="_top" xlink:title="FairGenerator">
<polygon fill="none" stroke="black" points="0,-38.5 0,-57.5 76,-57.5 76,-38.5 0,-38.5"/>
<text text-anchor="middle" x="38" y="-45.5" font-family="Helvetica,sans-Serif" font-size="10.00">FairGenerator</text>
</a>
</g>
</g>
<!-- Node2 -->
<g id="node2" class="node"><title>Node2</title>
<g id="a_node2"><a xlink:href="d6/db8/classo2_1_1eventgen_1_1GeneratorFromFile.html" target="_top" xlink:title="o2::eventgen::GeneratorFromFile">
<polygon fill="none" stroke="black" points="112,-76.5 112,-95.5 272,-95.5 272,-76.5 112,-76.5"/>
<text text-anchor="middle" x="192" y="-83.5" font-family="Helvetica,sans-Serif" font-size="10.00">o2::eventgen::GeneratorFromFile</text>
</a>
</g>
</g>
<!-- Node1&#45;&gt;Node2 -->
<g id="edge1" class="edge"><title>Node1&#45;&gt;Node2</title>
<path fill="none" stroke="midnightblue" d="M84.9084,-60.0878C93.8844,-62.4119 103.231,-64.8046 112,-67 124.589,-70.1519 138.333,-73.4923 150.775,-76.4785"/>
<polygon fill="midnightblue" stroke="midnightblue" points="85.5413,-56.636 74.9823,-57.5071 83.7799,-63.4108 85.5413,-56.636"/>
</g>
<!-- Node3 -->
<g id="node3" class="node"><title>Node3</title>
<g id="a_node3"><a xlink:href="d9/d2a/classPythia6Generator.html" target="_top" xlink:title="Pythia6Generator">
<polygon fill="none" stroke="black" points="146,-38.5 146,-57.5 238,-57.5 238,-38.5 146,-38.5"/>
<text text-anchor="middle" x="192" y="-45.5" font-family="Helvetica,sans-Serif" font-size="10.00">Pythia6Generator</text>
</a>
</g>
</g>
<!-- Node1&#45;&gt;Node3 -->
<g id="edge2" class="edge"><title>Node1&#45;&gt;Node3</title>
<path fill="none" stroke="midnightblue" d="M86.3891,-48C105.34,-48 127.07,-48 145.798,-48"/>
<polygon fill="midnightblue" stroke="midnightblue" points="86.1834,-44.5001 76.1834,-48 86.1833,-51.5001 86.1834,-44.5001"/>
</g>
<!-- Node4 -->
<g id="node4" class="node"><title>Node4</title>
<g id="a_node4"><a xlink:href="de/d55/classPythia8Generator.html" target="_top" xlink:title="Pythia8Generator">
<polygon fill="none" stroke="black" points="146,-0.5 146,-19.5 238,-19.5 238,-0.5 146,-0.5"/>
<text text-anchor="middle" x="192" y="-7.5" font-family="Helvetica,sans-Serif" font-size="10.00">Pythia8Generator</text>
</a>
</g>
</g>
<!-- Node1&#45;&gt;Node4 -->
<g id="edge3" class="edge"><title>Node1&#45;&gt;Node4</title>
<path fill="none" stroke="midnightblue" d="M84.9084,-35.9122C93.8844,-33.5881 103.231,-31.1954 112,-29 124.589,-25.8481 138.333,-22.5077 150.775,-19.5215"/>
<polygon fill="midnightblue" stroke="midnightblue" points="83.7799,-32.5892 74.9823,-38.4929 85.5413,-39.364 83.7799,-32.5892"/>
</g>
</g>
</svg>
