<?xml version="1.0" encoding="UTF-8" standalone="no"?>
<!DOCTYPE svg PUBLIC "-//W3C//DTD SVG 1.1//EN"
 "http://www.w3.org/Graphics/SVG/1.1/DTD/svg11.dtd">
<!-- Generated by graphviz version 2.36.0 (20140111.2315)
 -->
<!-- Title: Graphical Class Hierarchy Pages: 1 -->
<svg width="278pt" height="214pt"
 viewBox="0.00 0.00 278.00 214.00" xmlns="http://www.w3.org/2000/svg" xmlns:xlink="http://www.w3.org/1999/xlink">
<g id="graph0" class="graph" transform="scale(1 1) rotate(0) translate(4 210)">
<title>Graphical Class Hierarchy</title>
<!-- Node1 -->
<g id="node1" class="node"><title>Node1</title>
<polygon fill="none" stroke="#bfbfbf" points="0.5,-93.5 0.5,-112.5 59.5,-112.5 59.5,-93.5 0.5,-93.5"/>
<text text-anchor="middle" x="30" y="-100.5" font-family="Helvetica,sans-Serif" font-size="10.00">exception</text>
</g>
<!-- Node2 -->
<g id="node2" class="node"><title>Node2</title>
<g id="a_node2"><a xlink:href="d7/db3/classo2_1_1EMCAL_1_1InvalidCellIDException.html" target="_top" xlink:title="o2::EMCAL::InvalidCellIDException">
<polygon fill="none" stroke="black" points="96.5,-186.5 96.5,-205.5 269.5,-205.5 269.5,-186.5 96.5,-186.5"/>
<text text-anchor="middle" x="183" y="-193.5" font-family="Helvetica,sans-Serif" font-size="10.00">o2::EMCAL::InvalidCellIDException</text>
</a>
</g>
</g>
<!-- Node1&#45;&gt;Node2 -->
<g id="edge1" class="edge"><title>Node1&#45;&gt;Node2</title>
<path fill="none" stroke="midnightblue" d="M42.196,-120.954C53.6438,-137.779 72.9788,-162.328 96,-176 103.381,-180.383 111.648,-183.806 120.06,-186.478"/>
<polygon fill="midnightblue" stroke="midnightblue" points="45.0799,-118.969 36.6743,-112.52 39.2233,-122.803 45.0799,-118.969"/>
</g>
<!-- Node3 -->
<g id="node3" class="node"><title>Node3</title>
<g id="a_node3"><a xlink:href="da/db6/classo2_1_1EMCAL_1_1InvalidModuleException.html" target="_top" xlink:title="Error Handling when an invalid module ID (outside the limits) is called. ">
<polygon fill="none" stroke="black" points="116,-137 116,-167 250,-167 250,-137 116,-137"/>
<text text-anchor="start" x="124" y="-155" font-family="Helvetica,sans-Serif" font-size="10.00">o2::EMCAL::InvalidModule</text>
<text text-anchor="middle" x="183" y="-144" font-family="Helvetica,sans-Serif" font-size="10.00">Exception</text>
</a>
</g>
</g>
<!-- Node1&#45;&gt;Node3 -->
<g id="edge2" class="edge"><title>Node1&#45;&gt;Node3</title>
<path fill="none" stroke="midnightblue" d="M65.0804,-116.099C75.0003,-119.772 85.8888,-123.668 96,-127 106.337,-130.406 117.451,-133.819 128.145,-136.98"/>
<polygon fill="midnightblue" stroke="midnightblue" points="66.1404,-112.759 55.548,-112.531 63.6861,-119.315 66.1404,-112.759"/>
</g>
<!-- Node4 -->
<g id="node4" class="node"><title>Node4</title>
<g id="a_node4"><a xlink:href="d6/d49/classo2_1_1EMCAL_1_1InvalidPositionException.html" target="_top" xlink:title="o2::EMCAL::InvalidPosition\lException">
<polygon fill="none" stroke="black" points="114.5,-88 114.5,-118 251.5,-118 251.5,-88 114.5,-88"/>
<text text-anchor="start" x="122.5" y="-106" font-family="Helvetica,sans-Serif" font-size="10.00">o2::EMCAL::InvalidPosition</text>
<text text-anchor="middle" x="183" y="-95" font-family="Helvetica,sans-Serif" font-size="10.00">Exception</text>
</a>
</g>
</g>
<!-- Node1&#45;&gt;Node4 -->
<g id="edge3" class="edge"><title>Node1&#45;&gt;Node4</title>
<path fill="none" stroke="midnightblue" d="M70.089,-103C83.5749,-103 99.0986,-103 114.206,-103"/>
<polygon fill="midnightblue" stroke="midnightblue" points="69.7574,-99.5001 59.7574,-103 69.7573,-106.5 69.7574,-99.5001"/>
</g>
<!-- Node5 -->
<g id="node5" class="node"><title>Node5</title>
<g id="a_node5"><a xlink:href="d9/da7/classo2_1_1EMCAL_1_1InvalidSupermoduleTypeException.html" target="_top" xlink:title="o2::EMCAL::InvalidSupermodule\lTypeException">
<polygon fill="none" stroke="black" points="103.5,-39 103.5,-69 262.5,-69 262.5,-39 103.5,-39"/>
<text text-anchor="start" x="111.5" y="-57" font-family="Helvetica,sans-Serif" font-size="10.00">o2::EMCAL::InvalidSupermodule</text>
<text text-anchor="middle" x="183" y="-46" font-family="Helvetica,sans-Serif" font-size="10.00">TypeException</text>
</a>
</g>
</g>
<!-- Node1&#45;&gt;Node5 -->
<g id="edge4" class="edge"><title>Node1&#45;&gt;Node5</title>
<path fill="none" stroke="midnightblue" d="M65.0804,-89.9006C75.0003,-86.2281 85.8888,-82.3317 96,-79 106.337,-75.5938 117.451,-72.1812 128.145,-69.0203"/>
<polygon fill="midnightblue" stroke="midnightblue" points="63.6861,-86.6853 55.548,-93.4692 66.1404,-93.2409 63.6861,-86.6853"/>
</g>
<!-- Node6 -->
<g id="node6" class="node"><title>Node6</title>
<g id="a_node6"><a xlink:href="d5/d9e/classo2_1_1ITSMFT_1_1Chip_1_1IndexException.html" target="_top" xlink:title="Handling discrepancies between Chip index stored in the hit and Chip index stored in the chip...">
<polygon fill="none" stroke="black" points="98.5,-0.5 98.5,-19.5 267.5,-19.5 267.5,-0.5 98.5,-0.5"/>
<text text-anchor="middle" x="183" y="-7.5" font-family="Helvetica,sans-Serif" font-size="10.00">o2::ITSMFT::Chip::IndexException</text>
</a>
</g>
</g>
<!-- Node1&#45;&gt;Node6 -->
<g id="edge5" class="edge"><title>Node1&#45;&gt;Node6</title>
<path fill="none" stroke="midnightblue" d="M42.196,-85.046C53.6438,-68.2209 72.9788,-43.6716 96,-30 103.381,-25.6168 111.648,-22.1942 120.06,-19.5217"/>
<polygon fill="midnightblue" stroke="midnightblue" points="39.2233,-83.1968 36.6743,-93.4804 45.0799,-87.0309 39.2233,-83.1968"/>
</g>
</g>
</svg>
