<?xml version="1.0" encoding="UTF-8" standalone="no"?>
<!DOCTYPE svg PUBLIC "-//W3C//DTD SVG 1.1//EN"
 "http://www.w3.org/Graphics/SVG/1.1/DTD/svg11.dtd">
<!-- Generated by graphviz version 2.36.0 (20140111.2315)
 -->
<!-- Title: Graphical Class Hierarchy Pages: 1 -->
<svg width="476pt" height="104pt"
 viewBox="0.00 0.00 476.00 104.00" xmlns="http://www.w3.org/2000/svg" xmlns:xlink="http://www.w3.org/1999/xlink">
<g id="graph0" class="graph" transform="scale(1 1) rotate(0) translate(4 100)">
<title>Graphical Class Hierarchy</title>
<!-- Node1 -->
<g id="node1" class="node"><title>Node1</title>
<g id="a_node1"><a xlink:href="db/da2/classo2_1_1Base_1_1Track_1_1TrackPar.html" target="_top" xlink:title="o2::Base::Track::TrackPar">
<polygon fill="none" stroke="black" points="0,-38.5 0,-57.5 132,-57.5 132,-38.5 0,-38.5"/>
<text text-anchor="middle" x="66" y="-45.5" font-family="Helvetica,sans-Serif" font-size="10.00">o2::Base::Track::TrackPar</text>
</a>
</g>
</g>
<!-- Node2 -->
<g id="node2" class="node"><title>Node2</title>
<g id="a_node2"><a xlink:href="d0/d8b/classo2_1_1Base_1_1Track_1_1TrackParCov.html" target="_top" xlink:title="o2::Base::Track::TrackParCov">
<polygon fill="none" stroke="black" points="168,-38.5 168,-57.5 318,-57.5 318,-38.5 168,-38.5"/>
<text text-anchor="middle" x="243" y="-45.5" font-family="Helvetica,sans-Serif" font-size="10.00">o2::Base::Track::TrackParCov</text>
</a>
</g>
</g>
<!-- Node1&#45;&gt;Node2 -->
<g id="edge1" class="edge"><title>Node1&#45;&gt;Node2</title>
<path fill="none" stroke="midnightblue" d="M142.396,-48C150.866,-48 159.49,-48 167.943,-48"/>
<polygon fill="midnightblue" stroke="midnightblue" points="142.164,-44.5001 132.164,-48 142.164,-51.5001 142.164,-44.5001"/>
</g>
<!-- Node3 -->
<g id="node3" class="node"><title>Node3</title>
<g id="a_node3"><a xlink:href="de/da8/classo2_1_1ITS_1_1CA_1_1Track.html" target="_top" xlink:title="o2::ITS::CA::Track">
<polygon fill="none" stroke="black" points="361,-76.5 361,-95.5 461,-95.5 461,-76.5 361,-76.5"/>
<text text-anchor="middle" x="411" y="-83.5" font-family="Helvetica,sans-Serif" font-size="10.00">o2::ITS::CA::Track</text>
</a>
</g>
</g>
<!-- Node2&#45;&gt;Node3 -->
<g id="edge2" class="edge"><title>Node2&#45;&gt;Node3</title>
<path fill="none" stroke="midnightblue" d="M295.653,-59.8243C319.056,-65.1816 346.357,-71.4311 368.412,-76.4799"/>
<polygon fill="midnightblue" stroke="midnightblue" points="296.418,-56.4088 285.889,-57.589 294.856,-63.2323 296.418,-56.4088"/>
</g>
<!-- Node4 -->
<g id="node4" class="node"><title>Node4</title>
<g id="a_node4"><a xlink:href="d6/dca/classo2_1_1ITS_1_1CookedTrack.html" target="_top" xlink:title="o2::ITS::CookedTrack">
<polygon fill="none" stroke="black" points="354.5,-38.5 354.5,-57.5 467.5,-57.5 467.5,-38.5 354.5,-38.5"/>
<text text-anchor="middle" x="411" y="-45.5" font-family="Helvetica,sans-Serif" font-size="10.00">o2::ITS::CookedTrack</text>
</a>
</g>
</g>
<!-- Node2&#45;&gt;Node4 -->
<g id="edge3" class="edge"><title>Node2&#45;&gt;Node4</title>
<path fill="none" stroke="midnightblue" d="M328.494,-48C337.222,-48 345.928,-48 354.226,-48"/>
<polygon fill="midnightblue" stroke="midnightblue" points="328.261,-44.5001 318.261,-48 328.26,-51.5001 328.261,-44.5001"/>
</g>
<!-- Node5 -->
<g id="node5" class="node"><title>Node5</title>
<g id="a_node5"><a xlink:href="d9/d6e/classo2_1_1TPC_1_1TrackTPC.html" target="_top" xlink:title="o2::TPC::TrackTPC">
<polygon fill="none" stroke="black" points="359,-0.5 359,-19.5 463,-19.5 463,-0.5 359,-0.5"/>
<text text-anchor="middle" x="411" y="-7.5" font-family="Helvetica,sans-Serif" font-size="10.00">o2::TPC::TrackTPC</text>
</a>
</g>
</g>
<!-- Node2&#45;&gt;Node5 -->
<g id="edge4" class="edge"><title>Node2&#45;&gt;Node5</title>
<path fill="none" stroke="midnightblue" d="M295.653,-36.1757C319.056,-30.8184 346.357,-24.5689 368.412,-19.5201"/>
<polygon fill="midnightblue" stroke="midnightblue" points="294.856,-32.7677 285.889,-38.411 296.418,-39.5912 294.856,-32.7677"/>
</g>
</g>
</svg>
