<?xml version="1.0" encoding="UTF-8" standalone="no"?>
<!DOCTYPE svg PUBLIC "-//W3C//DTD SVG 1.1//EN"
 "http://www.w3.org/Graphics/SVG/1.1/DTD/svg11.dtd">
<!-- Generated by graphviz version 2.36.0 (20140111.2315)
 -->
<!-- Title: Graphical Class Hierarchy Pages: 1 -->
<svg width="254pt" height="218pt"
 viewBox="0.00 0.00 254.00 218.00" xmlns="http://www.w3.org/2000/svg" xmlns:xlink="http://www.w3.org/1999/xlink">
<g id="graph0" class="graph" transform="scale(1 1) rotate(0) translate(4 214)">
<title>Graphical Class Hierarchy</title>
<!-- Node1 -->
<g id="node1" class="node"><title>Node1</title>
<g id="a_node1"><a xlink:href="d9/dc7/classTMessage.html" target="_top" xlink:title="TMessage">
<polygon fill="none" stroke="black" points="0,-95.5 0,-114.5 62,-114.5 62,-95.5 0,-95.5"/>
<text text-anchor="middle" x="31" y="-102.5" font-family="Helvetica,sans-Serif" font-size="10.00">TMessage</text>
</a>
</g>
</g>
<!-- Node2 -->
<g id="node2" class="node"><title>Node2</title>
<g id="a_node2"><a xlink:href="d0/d4b/classo2_1_1framework_1_1FairTMessage.html" target="_top" xlink:title="o2::framework::FairTMessage">
<polygon fill="none" stroke="black" points="98.5,-190.5 98.5,-209.5 245.5,-209.5 245.5,-190.5 98.5,-190.5"/>
<text text-anchor="middle" x="172" y="-197.5" font-family="Helvetica,sans-Serif" font-size="10.00">o2::framework::FairTMessage</text>
</a>
</g>
</g>
<!-- Node1&#45;&gt;Node2 -->
<g id="edge1" class="edge"><title>Node1&#45;&gt;Node2</title>
<path fill="none" stroke="midnightblue" d="M43.1579,-123.281C54.7391,-140.705 74.443,-166.389 98,-181 104.232,-184.865 111.231,-187.949 118.363,-190.408"/>
<polygon fill="midnightblue" stroke="midnightblue" points="45.9242,-121.11 37.5866,-114.573 40.0277,-124.883 45.9242,-121.11"/>
</g>
<!-- Node3 -->
<g id="node3" class="node"><title>Node3</title>
<g id="a_node3"><a xlink:href="da/d50/classo2_1_1MFT_1_1MergerTMessage.html" target="_top" xlink:title="o2::MFT::MergerTMessage">
<polygon fill="none" stroke="black" points="104.5,-152.5 104.5,-171.5 239.5,-171.5 239.5,-152.5 104.5,-152.5"/>
<text text-anchor="middle" x="172" y="-159.5" font-family="Helvetica,sans-Serif" font-size="10.00">o2::MFT::MergerTMessage</text>
</a>
</g>
</g>
<!-- Node1&#45;&gt;Node3 -->
<g id="edge2" class="edge"><title>Node1&#45;&gt;Node3</title>
<path fill="none" stroke="midnightblue" d="M54.8304,-120.177C67.1975,-127.868 82.9836,-136.853 98,-143 106.969,-146.671 116.852,-149.807 126.372,-152.411"/>
<polygon fill="midnightblue" stroke="midnightblue" points="56.4227,-117.042 46.1089,-114.617 52.6597,-122.944 56.4227,-117.042"/>
</g>
<!-- Node4 -->
<g id="node4" class="node"><title>Node4</title>
<g id="a_node4"><a xlink:href="d0/dcf/classo2_1_1MFT_1_1SinkTMessage.html" target="_top" xlink:title="o2::MFT::SinkTMessage">
<polygon fill="none" stroke="black" points="109.5,-114.5 109.5,-133.5 234.5,-133.5 234.5,-114.5 109.5,-114.5"/>
<text text-anchor="middle" x="172" y="-121.5" font-family="Helvetica,sans-Serif" font-size="10.00">o2::MFT::SinkTMessage</text>
</a>
</g>
</g>
<!-- Node1&#45;&gt;Node4 -->
<g id="edge3" class="edge"><title>Node1&#45;&gt;Node4</title>
<path fill="none" stroke="midnightblue" d="M72.3969,-110.522C83.9993,-112.108 96.9223,-113.874 109.492,-115.592"/>
<polygon fill="midnightblue" stroke="midnightblue" points="72.5428,-107.009 62.1609,-109.123 71.5948,-113.945 72.5428,-107.009"/>
</g>
<!-- Node5 -->
<g id="node5" class="node"><title>Node5</title>
<g id="a_node5"><a xlink:href="d9/db2/classo2_1_1MFT_1_1TMessage2.html" target="_top" xlink:title="o2::MFT::TMessage2">
<polygon fill="none" stroke="black" points="117,-76.5 117,-95.5 227,-95.5 227,-76.5 117,-76.5"/>
<text text-anchor="middle" x="172" y="-83.5" font-family="Helvetica,sans-Serif" font-size="10.00">o2::MFT::TMessage2</text>
</a>
</g>
</g>
<!-- Node1&#45;&gt;Node5 -->
<g id="edge4" class="edge"><title>Node1&#45;&gt;Node5</title>
<path fill="none" stroke="midnightblue" d="M72.3561,-99.4837C86.2328,-97.5869 102.002,-95.4313 116.799,-93.4088"/>
<polygon fill="midnightblue" stroke="midnightblue" points="71.5948,-96.0551 62.1609,-100.877 72.5428,-102.991 71.5948,-96.0551"/>
</g>
<!-- Node6 -->
<g id="node6" class="node"><title>Node6</title>
<g id="a_node6"><a xlink:href="d3/d37/classo2_1_1qc_1_1TMessageWrapper.html" target="_top" xlink:title="o2::qc::TMessageWrapper">
<polygon fill="none" stroke="black" points="106,-38.5 106,-57.5 238,-57.5 238,-38.5 106,-38.5"/>
<text text-anchor="middle" x="172" y="-45.5" font-family="Helvetica,sans-Serif" font-size="10.00">o2::qc::TMessageWrapper</text>
</a>
</g>
</g>
<!-- Node1&#45;&gt;Node6 -->
<g id="edge5" class="edge"><title>Node1&#45;&gt;Node6</title>
<path fill="none" stroke="midnightblue" d="M54.8304,-89.8229C67.1975,-82.1323 82.9836,-73.1465 98,-67 106.969,-63.3289 116.852,-60.1926 126.372,-57.5887"/>
<polygon fill="midnightblue" stroke="midnightblue" points="52.6597,-87.0559 46.1089,-95.3829 56.4227,-92.9585 52.6597,-87.0559"/>
</g>
<!-- Node7 -->
<g id="node7" class="node"><title>Node7</title>
<g id="a_node7"><a xlink:href="de/dd8/classWrapTMessage.html" target="_top" xlink:title="WrapTMessage">
<polygon fill="none" stroke="black" points="129,-0.5 129,-19.5 215,-19.5 215,-0.5 129,-0.5"/>
<text text-anchor="middle" x="172" y="-7.5" font-family="Helvetica,sans-Serif" font-size="10.00">WrapTMessage</text>
</a>
</g>
</g>
<!-- Node1&#45;&gt;Node7 -->
<g id="edge6" class="edge"><title>Node1&#45;&gt;Node7</title>
<path fill="none" stroke="midnightblue" d="M43.1579,-86.7193C54.7391,-69.2945 74.443,-43.6109 98,-29 107.237,-23.2708 118.158,-19.2594 128.7,-16.4542"/>
<polygon fill="midnightblue" stroke="midnightblue" points="40.0277,-85.1174 37.5866,-95.4272 45.9242,-88.8899 40.0277,-85.1174"/>
</g>
</g>
</svg>
