<?xml version="1.0" encoding="UTF-8" standalone="no"?>
<!DOCTYPE svg PUBLIC "-//W3C//DTD SVG 1.1//EN"
 "http://www.w3.org/Graphics/SVG/1.1/DTD/svg11.dtd">
<!-- Generated by graphviz version 2.36.0 (20140111.2315)
 -->
<!-- Title: Graphical Class Hierarchy Pages: 1 -->
<svg width="272pt" height="66pt"
 viewBox="0.00 0.00 272.00 66.00" xmlns="http://www.w3.org/2000/svg" xmlns:xlink="http://www.w3.org/1999/xlink">
<g id="graph0" class="graph" transform="scale(1 1) rotate(0) translate(4 62)">
<title>Graphical Class Hierarchy</title>
<!-- Node1 -->
<g id="node1" class="node"><title>Node1</title>
<g id="a_node1"><a xlink:href="dc/d7d/classo2_1_1CDB_1_1Backend.html" target="_top" xlink:title="o2::CDB::Backend">
<polygon fill="none" stroke="black" points="0.5,-19.5 0.5,-38.5 99.5,-38.5 99.5,-19.5 0.5,-19.5"/>
<text text-anchor="middle" x="50" y="-26.5" font-family="Helvetica,sans-Serif" font-size="10.00">o2::CDB::Backend</text>
</a>
</g>
</g>
<!-- Node2 -->
<g id="node2" class="node"><title>Node2</title>
<g id="a_node2"><a xlink:href="d1/d5c/classo2_1_1CDB_1_1BackendOCDB.html" target="_top" xlink:title="o2::CDB::BackendOCDB">
<polygon fill="none" stroke="black" points="136,-38.5 136,-57.5 264,-57.5 264,-38.5 136,-38.5"/>
<text text-anchor="middle" x="200" y="-45.5" font-family="Helvetica,sans-Serif" font-size="10.00">o2::CDB::BackendOCDB</text>
</a>
</g>
</g>
<!-- Node1&#45;&gt;Node2 -->
<g id="edge1" class="edge"><title>Node1&#45;&gt;Node2</title>
<path fill="none" stroke="midnightblue" d="M109.794,-36.5478C118.383,-37.6505 127.258,-38.7899 135.929,-39.903"/>
<polygon fill="midnightblue" stroke="midnightblue" points="110.235,-33.0759 99.8709,-35.274 109.344,-40.0189 110.235,-33.0759"/>
</g>
<!-- Node3 -->
<g id="node3" class="node"><title>Node3</title>
<g id="a_node3"><a xlink:href="d9/dab/classo2_1_1CDB_1_1BackendRiak.html" target="_top" xlink:title="o2::CDB::BackendRiak">
<polygon fill="none" stroke="black" points="140.5,-0.5 140.5,-19.5 259.5,-19.5 259.5,-0.5 140.5,-0.5"/>
<text text-anchor="middle" x="200" y="-7.5" font-family="Helvetica,sans-Serif" font-size="10.00">o2::CDB::BackendRiak</text>
</a>
</g>
</g>
<!-- Node1&#45;&gt;Node3 -->
<g id="edge2" class="edge"><title>Node1&#45;&gt;Node3</title>
<path fill="none" stroke="midnightblue" d="M110.1,-21.4128C120.078,-20.1318 130.433,-18.8025 140.399,-17.5232"/>
<polygon fill="midnightblue" stroke="midnightblue" points="109.344,-17.9811 99.8709,-22.726 110.235,-24.9241 109.344,-17.9811"/>
</g>
</g>
</svg>
