<?xml version="1.0" encoding="UTF-8" standalone="no"?>
<!DOCTYPE svg PUBLIC "-//W3C//DTD SVG 1.1//EN"
 "http://www.w3.org/Graphics/SVG/1.1/DTD/svg11.dtd">
<!-- Generated by graphviz version 2.36.0 (20140111.2315)
 -->
<!-- Title: Graphical Class Hierarchy Pages: 1 -->
<svg width="498pt" height="97pt"
 viewBox="0.00 0.00 498.00 97.00" xmlns="http://www.w3.org/2000/svg" xmlns:xlink="http://www.w3.org/1999/xlink">
<g id="graph0" class="graph" transform="scale(1 1) rotate(0) translate(4 93)">
<title>Graphical Class Hierarchy</title>
<!-- Node1 -->
<g id="node1" class="node"><title>Node1</title>
<g id="a_node1"><a xlink:href="d1/d8d/classContiguousAlphabet.html" target="_top" xlink:title="ContiguousAlphabet\l\&lt; T, 0, _max, NameT \&gt;">
<polygon fill="none" stroke="black" points="0,-32 0,-62 120,-62 120,-32 0,-32"/>
<text text-anchor="start" x="8" y="-50" font-family="Helvetica,sans-Serif" font-size="10.00">ContiguousAlphabet</text>
<text text-anchor="middle" x="60" y="-39" font-family="Helvetica,sans-Serif" font-size="10.00">&lt; T, 0, _max, NameT &gt;</text>
</a>
</g>
</g>
<!-- Node2 -->
<g id="node2" class="node"><title>Node2</title>
<g id="a_node2"><a xlink:href="da/d16/classZeroBoundContiguousAlphabet.html" target="_top" xlink:title="ZeroBoundContiguousAlphabet\l\&lt; T, _max, NameT \&gt;">
<polygon fill="none" stroke="black" points="156,-59 156,-89 308,-89 308,-59 156,-59"/>
<text text-anchor="start" x="164" y="-77" font-family="Helvetica,sans-Serif" font-size="10.00">ZeroBoundContiguousAlphabet</text>
<text text-anchor="middle" x="232" y="-66" font-family="Helvetica,sans-Serif" font-size="10.00">&lt; T, _max, NameT &gt;</text>
</a>
</g>
</g>
<!-- Node1&#45;&gt;Node2 -->
<g id="edge1" class="edge"><title>Node1&#45;&gt;Node2</title>
<path fill="none" stroke="midnightblue" d="M130.485,-58.0359C138.808,-59.3577 147.336,-60.7122 155.736,-62.0463"/>
<polygon fill="midnightblue" stroke="midnightblue" points="130.883,-54.5553 120.458,-56.4433 129.785,-61.4686 130.883,-54.5553"/>
</g>
<!-- Node3 -->
<g id="node3" class="node"><title>Node3</title>
<g id="a_node3"><a xlink:href="da/d16/classZeroBoundContiguousAlphabet.html" target="_top" xlink:title="ZeroBoundContiguousAlphabet\l\&lt; T, getmax\&lt; T, _nbits \&gt;\l::value, NameT \&gt;">
<polygon fill="none" stroke="black" points="156,0.5 156,-40.5 308,-40.5 308,0.5 156,0.5"/>
<text text-anchor="start" x="164" y="-28.5" font-family="Helvetica,sans-Serif" font-size="10.00">ZeroBoundContiguousAlphabet</text>
<text text-anchor="start" x="164" y="-17.5" font-family="Helvetica,sans-Serif" font-size="10.00">&lt; T, getmax&lt; T, _nbits &gt;</text>
<text text-anchor="middle" x="232" y="-6.5" font-family="Helvetica,sans-Serif" font-size="10.00">::value, NameT &gt;</text>
</a>
</g>
</g>
<!-- Node1&#45;&gt;Node3 -->
<g id="edge2" class="edge"><title>Node1&#45;&gt;Node3</title>
<path fill="none" stroke="midnightblue" d="M130.485,-35.9641C138.808,-34.6423 147.336,-33.2878 155.736,-31.9537"/>
<polygon fill="midnightblue" stroke="midnightblue" points="129.785,-32.5314 120.458,-37.5567 130.883,-39.4447 129.785,-32.5314"/>
</g>
<!-- Node4 -->
<g id="node4" class="node"><title>Node4</title>
<g id="a_node4"><a xlink:href="df/df4/classBitRangeContiguousAlphabet.html" target="_top" xlink:title="BitRangeContiguousAlphabet\l\&lt; T, _nbits, NameT \&gt;">
<polygon fill="none" stroke="black" points="344.5,-5 344.5,-35 489.5,-35 489.5,-5 344.5,-5"/>
<text text-anchor="start" x="352.5" y="-23" font-family="Helvetica,sans-Serif" font-size="10.00">BitRangeContiguousAlphabet</text>
<text text-anchor="middle" x="417" y="-12" font-family="Helvetica,sans-Serif" font-size="10.00">&lt; T, _nbits, NameT &gt;</text>
</a>
</g>
</g>
<!-- Node3&#45;&gt;Node4 -->
<g id="edge3" class="edge"><title>Node3&#45;&gt;Node4</title>
<path fill="none" stroke="midnightblue" d="M318.362,-20C327.041,-20 335.795,-20 344.308,-20"/>
<polygon fill="midnightblue" stroke="midnightblue" points="318.225,-16.5001 308.225,-20 318.225,-23.5001 318.225,-16.5001"/>
</g>
</g>
</svg>
