<?xml version="1.0" encoding="UTF-8" standalone="no"?>
<!DOCTYPE svg PUBLIC "-//W3C//DTD SVG 1.1//EN"
 "http://www.w3.org/Graphics/SVG/1.1/DTD/svg11.dtd">
<!-- Generated by graphviz version 2.36.0 (20140111.2315)
 -->
<!-- Title: Graphical Class Hierarchy Pages: 1 -->
<svg width="370pt" height="216pt"
 viewBox="0.00 0.00 370.00 216.00" xmlns="http://www.w3.org/2000/svg" xmlns:xlink="http://www.w3.org/1999/xlink">
<g id="graph0" class="graph" transform="scale(1 1) rotate(0) translate(4 212)">
<title>Graphical Class Hierarchy</title>
<!-- Node1 -->
<g id="node1" class="node"><title>Node1</title>
<g id="a_node1"><a xlink:href="db/dfe/classo2_1_1BaseHit.html" target="_top" xlink:title="o2::BaseHit">
<polygon fill="none" stroke="black" points="0,-60.5 0,-79.5 68,-79.5 68,-60.5 0,-60.5"/>
<text text-anchor="middle" x="34" y="-67.5" font-family="Helvetica,sans-Serif" font-size="10.00">o2::BaseHit</text>
</a>
</g>
</g>
<!-- Node2 -->
<g id="node2" class="node"><title>Node2</title>
<g id="a_node2"><a xlink:href="de/d90/classo2_1_1BasicXYZEHit.html" target="_top" xlink:title="o2::BasicXYZEHit\&lt; float \&gt;">
<polygon fill="none" stroke="black" points="104,-142.5 104,-161.5 238,-161.5 238,-142.5 104,-142.5"/>
<text text-anchor="middle" x="171" y="-149.5" font-family="Helvetica,sans-Serif" font-size="10.00">o2::BasicXYZEHit&lt; float &gt;</text>
</a>
</g>
</g>
<!-- Node1&#45;&gt;Node2 -->
<g id="edge1" class="edge"><title>Node1&#45;&gt;Node2</title>
<path fill="none" stroke="midnightblue" d="M57.0507,-85.4249C70.4393,-94.6074 87.9823,-106.318 104,-116 119.75,-125.52 138.172,-135.474 151.545,-142.496"/>
<polygon fill="midnightblue" stroke="midnightblue" points="58.732,-82.3324 48.5152,-79.5277 54.753,-88.0916 58.732,-82.3324"/>
</g>
<!-- Node6 -->
<g id="node6" class="node"><title>Node6</title>
<g id="a_node6"><a xlink:href="de/d90/classo2_1_1BasicXYZEHit.html" target="_top" xlink:title="o2::BasicXYZEHit\&lt; Float\l_t, Float_t \&gt;">
<polygon fill="none" stroke="black" points="107,-77 107,-107 235,-107 235,-77 107,-77"/>
<text text-anchor="start" x="115" y="-95" font-family="Helvetica,sans-Serif" font-size="10.00">o2::BasicXYZEHit&lt; Float</text>
<text text-anchor="middle" x="171" y="-84" font-family="Helvetica,sans-Serif" font-size="10.00">_t, Float_t &gt;</text>
</a>
</g>
</g>
<!-- Node1&#45;&gt;Node6 -->
<g id="edge5" class="edge"><title>Node1&#45;&gt;Node6</title>
<path fill="none" stroke="midnightblue" d="M78.0797,-77.0204C87.2884,-78.5211 97.1979,-80.136 106.981,-81.7303"/>
<polygon fill="midnightblue" stroke="midnightblue" points="78.4575,-73.5359 68.0247,-75.3818 77.3315,-80.4447 78.4575,-73.5359"/>
</g>
<!-- Node8 -->
<g id="node8" class="node"><title>Node8</title>
<g id="a_node8"><a xlink:href="de/d90/classo2_1_1BasicXYZEHit.html" target="_top" xlink:title="o2::BasicXYZEHit\&lt; T, E \&gt;">
<polygon fill="none" stroke="black" points="104,-38.5 104,-57.5 238,-57.5 238,-38.5 104,-38.5"/>
<text text-anchor="middle" x="171" y="-45.5" font-family="Helvetica,sans-Serif" font-size="10.00">o2::BasicXYZEHit&lt; T, E &gt;</text>
</a>
</g>
</g>
<!-- Node1&#45;&gt;Node8 -->
<g id="edge7" class="edge"><title>Node1&#45;&gt;Node8</title>
<path fill="none" stroke="midnightblue" d="M77.9283,-63.0043C88.6054,-61.2643 100.232,-59.3695 111.517,-57.5306"/>
<polygon fill="midnightblue" stroke="midnightblue" points="77.3315,-59.5553 68.0247,-64.6182 78.4575,-66.4641 77.3315,-59.5553"/>
</g>
<!-- Node9 -->
<g id="node9" class="node"><title>Node9</title>
<g id="a_node9"><a xlink:href="d6/dec/classo2_1_1TPC_1_1HitGroup.html" target="_top" xlink:title="o2::TPC::HitGroup">
<polygon fill="none" stroke="black" points="122,-0.5 122,-19.5 220,-19.5 220,-0.5 122,-0.5"/>
<text text-anchor="middle" x="171" y="-7.5" font-family="Helvetica,sans-Serif" font-size="10.00">o2::TPC::HitGroup</text>
</a>
</g>
</g>
<!-- Node1&#45;&gt;Node9 -->
<g id="edge8" class="edge"><title>Node1&#45;&gt;Node9</title>
<path fill="none" stroke="midnightblue" d="M57.1067,-54.8849C70.2785,-46.3906 87.5816,-36.1013 104,-29 112.427,-25.3552 121.755,-22.1841 130.681,-19.5314"/>
<polygon fill="midnightblue" stroke="midnightblue" points="55.1342,-51.993 48.7094,-60.4175 58.9855,-57.8384 55.1342,-51.993"/>
</g>
<!-- Node3 -->
<g id="node3" class="node"><title>Node3</title>
<g id="a_node3"><a xlink:href="da/d56/classo2_1_1EMCAL_1_1Hit.html" target="_top" xlink:title="EMCAL simulation hit information. ">
<polygon fill="none" stroke="black" points="275,-188.5 275,-207.5 361,-207.5 361,-188.5 275,-188.5"/>
<text text-anchor="middle" x="318" y="-195.5" font-family="Helvetica,sans-Serif" font-size="10.00">o2::EMCAL::Hit</text>
</a>
</g>
</g>
<!-- Node2&#45;&gt;Node3 -->
<g id="edge2" class="edge"><title>Node2&#45;&gt;Node3</title>
<path fill="none" stroke="midnightblue" d="M211.819,-164.632C235.566,-172.166 265.229,-181.576 286.994,-188.481"/>
<polygon fill="midnightblue" stroke="midnightblue" points="212.634,-161.219 202.044,-161.531 210.518,-167.891 212.634,-161.219"/>
</g>
<!-- Node4 -->
<g id="node4" class="node"><title>Node4</title>
<g id="a_node4"><a xlink:href="d0/d6a/classo2_1_1phos_1_1Hit.html" target="_top" xlink:title="PHOS simulation hit information. ">
<polygon fill="none" stroke="black" points="281.5,-150.5 281.5,-169.5 354.5,-169.5 354.5,-150.5 281.5,-150.5"/>
<text text-anchor="middle" x="318" y="-157.5" font-family="Helvetica,sans-Serif" font-size="10.00">o2::phos::Hit</text>
</a>
</g>
</g>
<!-- Node2&#45;&gt;Node4 -->
<g id="edge3" class="edge"><title>Node2&#45;&gt;Node4</title>
<path fill="none" stroke="midnightblue" d="M248.315,-156.21C259.894,-156.849 271.344,-157.481 281.477,-158.04"/>
<polygon fill="midnightblue" stroke="midnightblue" points="248.313,-152.705 238.135,-155.649 247.927,-159.695 248.313,-152.705"/>
</g>
<!-- Node5 -->
<g id="node5" class="node"><title>Node5</title>
<g id="a_node5"><a xlink:href="d1/dbc/classo2_1_1TPC_1_1Point.html" target="_top" xlink:title="o2::TPC::Point">
<polygon fill="none" stroke="black" points="277,-112.5 277,-131.5 359,-131.5 359,-112.5 277,-112.5"/>
<text text-anchor="middle" x="318" y="-119.5" font-family="Helvetica,sans-Serif" font-size="10.00">o2::TPC::Point</text>
</a>
</g>
</g>
<!-- Node2&#45;&gt;Node5 -->
<g id="edge4" class="edge"><title>Node2&#45;&gt;Node5</title>
<path fill="none" stroke="midnightblue" d="M228.144,-140.384C244.277,-137.046 261.549,-133.473 276.536,-130.372"/>
<polygon fill="midnightblue" stroke="midnightblue" points="227.361,-136.972 218.278,-142.425 228.779,-143.827 227.361,-136.972"/>
</g>
<!-- Node7 -->
<g id="node7" class="node"><title>Node7</title>
<g id="a_node7"><a xlink:href="dd/d52/classo2_1_1ITSMFT_1_1Hit.html" target="_top" xlink:title="o2::ITSMFT::Hit">
<polygon fill="none" stroke="black" points="274,-74.5 274,-93.5 362,-93.5 362,-74.5 274,-74.5"/>
<text text-anchor="middle" x="318" y="-81.5" font-family="Helvetica,sans-Serif" font-size="10.00">o2::ITSMFT::Hit</text>
</a>
</g>
</g>
<!-- Node6&#45;&gt;Node7 -->
<g id="edge6" class="edge"><title>Node6&#45;&gt;Node7</title>
<path fill="none" stroke="midnightblue" d="M245.263,-87.9579C254.964,-87.4227 264.646,-86.8885 273.615,-86.3937"/>
<polygon fill="midnightblue" stroke="midnightblue" points="244.969,-84.4687 235.177,-88.5144 245.355,-91.4581 244.969,-84.4687"/>
</g>
</g>
</svg>
