<?xml version="1.0" encoding="UTF-8" standalone="no"?>
<!DOCTYPE svg PUBLIC "-//W3C//DTD SVG 1.1//EN"
 "http://www.w3.org/Graphics/SVG/1.1/DTD/svg11.dtd">
<!-- Generated by graphviz version 2.36.0 (20140111.2315)
 -->
<!-- Title: /home/travis/build/AliceO2Group/AliceO2/Utilities/QC/QCMerger/src/runMerger.cxx Pages: 1 -->
<!--zoomable 254 -->
<svg id="main" version="1.1" xmlns="http://www.w3.org/2000/svg" xmlns:xlink="http://www.w3.org/1999/xlink" xml:space="preserve" onload="init(evt)">
<style type="text/css"><![CDATA[
.edge:hover path { stroke: red; }
.edge:hover polygon { stroke: red; fill: red; }
]]></style>
<script type="text/javascript"><![CDATA[
var edges = document.getElementsByTagName('g');
if (edges && edges.length) {
  for (var i=0;i<edges.length;i++) {
    if (edges[i].id.substr(0,4)=='edge') {
      edges[i].setAttribute('class','edge');
    }
  }
}
]]></script>
        <defs>
                <circle id="rim" cx="0" cy="0" r="7"/>
                <circle id="rim2" cx="0" cy="0" r="3.5"/>
                <g id="zoomPlus">
                        <use xlink:href="#rim" fill="#404040">
                                <set attributeName="fill" to="#808080" begin="zoomplus.mouseover" end="zoomplus.mouseout"/>
                        </use>
                        <path d="M-4,0h8M0,-4v8" fill="none" stroke="white" stroke-width="1.5" pointer-events="none"/>
                </g>
                <g id="zoomMin">
                        <use xlink:href="#rim" fill="#404040">
                                <set attributeName="fill" to="#808080" begin="zoomminus.mouseover" end="zoomminus.mouseout"/>
                        </use>
                        <path d="M-4,0h8" fill="none" stroke="white" stroke-width="1.5" pointer-events="none"/>
                </g>
                <g id="dirArrow">
                        <path fill="none" stroke="white" stroke-width="1.5" d="M0,-3.0v7 M-2.5,-0.5L0,-3.0L2.5,-0.5"/>
                </g>
               <g id="resetDef">
                       <use xlink:href="#rim2" fill="#404040">
                               <set attributeName="fill" to="#808080" begin="reset.mouseover" end="reset.mouseout"/>
                       </use>
               </g>
        </defs>

<script type="text/javascript">
var viewWidth = 1366;
var viewHeight = 254;
var sectionId = 'dynsection-0';
</script>
<script xlink:href="../../svgpan.js"/>
<svg id="graph" class="graph">
<g id="viewport">
<title>/home/travis/build/AliceO2Group/AliceO2/Utilities/QC/QCMerger/src/runMerger.cxx</title>
<!-- Node1 -->
<g id="node1" class="node"><title>Node1</title>
<polygon fill="#bfbfbf" stroke="black" points="441.5,-193 441.5,-245 560.5,-245 560.5,-193 441.5,-193"/>
<text text-anchor="start" x="449.5" y="-233" font-family="Helvetica,sans-Serif" font-size="10.00">/home/travis/build</text>
<text text-anchor="start" x="449.5" y="-222" font-family="Helvetica,sans-Serif" font-size="10.00">/AliceO2Group/AliceO2</text>
<text text-anchor="start" x="449.5" y="-211" font-family="Helvetica,sans-Serif" font-size="10.00">/Utilities/QC/QCMerger</text>
<text text-anchor="middle" x="501" y="-200" font-family="Helvetica,sans-Serif" font-size="10.00">/src/runMerger.cxx</text>
</g>
<!-- Node2 -->
<g id="node2" class="node"><title>Node2</title>
<polygon fill="none" stroke="#bfbfbf" points="-0.5,-130.5 -0.5,-149.5 42.5,-149.5 42.5,-130.5 -0.5,-130.5"/>
<text text-anchor="middle" x="21" y="-137.5" font-family="Helvetica,sans-Serif" font-size="10.00">cstdio</text>
</g>
<!-- Node1&#45;&gt;Node2 -->
<g id="edge1" class="edge"><title>Node1&#45;&gt;Node2</title>
<path fill="none" stroke="midnightblue" d="M441.42,-215.953C353.987,-211.582 186.601,-197.988 51,-156 49.0809,-155.406 47.1343,-154.699 45.2023,-153.922"/>
<polygon fill="midnightblue" stroke="midnightblue" points="46.4086,-150.624 35.8606,-149.63 43.4862,-156.985 46.4086,-150.624"/>
</g>
<!-- Node3 -->
<g id="node3" class="node"><title>Node3</title>
<polygon fill="none" stroke="#bfbfbf" points="60.5,-130.5 60.5,-149.5 105.5,-149.5 105.5,-130.5 60.5,-130.5"/>
<text text-anchor="middle" x="83" y="-137.5" font-family="Helvetica,sans-Serif" font-size="10.00">cstdlib</text>
</g>
<!-- Node1&#45;&gt;Node3 -->
<g id="edge2" class="edge"><title>Node1&#45;&gt;Node3</title>
<path fill="none" stroke="midnightblue" d="M441.305,-213.604C364.44,-206.774 227.379,-190.615 115,-156 112.724,-155.299 110.403,-154.466 108.102,-153.556"/>
<polygon fill="midnightblue" stroke="midnightblue" points="109.494,-150.345 98.9301,-149.535 106.683,-156.756 109.494,-150.345"/>
</g>
<!-- Node4 -->
<g id="node4" class="node"><title>Node4</title>
<polygon fill="none" stroke="#bfbfbf" points="124,-130.5 124,-149.5 164,-149.5 164,-130.5 124,-130.5"/>
<text text-anchor="middle" x="144" y="-137.5" font-family="Helvetica,sans-Serif" font-size="10.00">limits</text>
</g>
<!-- Node1&#45;&gt;Node4 -->
<g id="edge3" class="edge"><title>Node1&#45;&gt;Node4</title>
<path fill="none" stroke="midnightblue" d="M441.369,-210.668C375.791,-201.661 267.799,-184.031 178,-156 175.575,-155.243 173.092,-154.364 170.625,-153.419"/>
<polygon fill="midnightblue" stroke="midnightblue" points="171.933,-150.172 161.356,-149.559 169.243,-156.634 171.933,-150.172"/>
</g>
<!-- Node5 -->
<g id="node5" class="node"><title>Node5</title>
<polygon fill="none" stroke="#bfbfbf" points="99,-62.5 99,-81.5 151,-81.5 151,-62.5 99,-62.5"/>
<text text-anchor="middle" x="125" y="-69.5" font-family="Helvetica,sans-Serif" font-size="10.00">memory</text>
</g>
<!-- Node1&#45;&gt;Node5 -->
<g id="edge4" class="edge"><title>Node1&#45;&gt;Node5</title>
<path fill="none" stroke="midnightblue" d="M441.304,-210.611C386.948,-202.327 305.43,-185.944 240,-156 201.655,-138.452 163.146,-107.235 141.854,-88.4924"/>
<polygon fill="midnightblue" stroke="midnightblue" points="144.11,-85.8142 134.326,-81.7492 139.439,-91.0283 144.11,-85.8142"/>
</g>
<!-- Node6 -->
<g id="node6" class="node"><title>Node6</title>
<polygon fill="none" stroke="#bfbfbf" points="708,-130.5 708,-149.5 760,-149.5 760,-130.5 708,-130.5"/>
<text text-anchor="middle" x="734" y="-137.5" font-family="Helvetica,sans-Serif" font-size="10.00">sstream</text>
</g>
<!-- Node1&#45;&gt;Node6 -->
<g id="edge5" class="edge"><title>Node1&#45;&gt;Node6</title>
<path fill="none" stroke="midnightblue" d="M560.802,-199.602C599.047,-187.635 649.625,-171.438 694,-156 696.603,-155.095 699.293,-154.136 701.989,-153.159"/>
<polygon fill="midnightblue" stroke="midnightblue" points="703.472,-156.343 711.644,-149.599 701.05,-149.775 703.472,-156.343"/>
</g>
<!-- Node7 -->
<g id="node7" class="node"><title>Node7</title>
<polygon fill="none" stroke="#bfbfbf" points="778.5,-130.5 778.5,-149.5 837.5,-149.5 837.5,-130.5 778.5,-130.5"/>
<text text-anchor="middle" x="808" y="-137.5" font-family="Helvetica,sans-Serif" font-size="10.00">stdexcept</text>
</g>
<!-- Node1&#45;&gt;Node7 -->
<g id="edge6" class="edge"><title>Node1&#45;&gt;Node7</title>
<path fill="none" stroke="midnightblue" d="M560.711,-206.681C615.444,-195.719 698.452,-177.611 769,-156 771.796,-155.143 774.679,-154.185 777.551,-153.177"/>
<polygon fill="midnightblue" stroke="midnightblue" points="778.967,-156.386 787.138,-149.641 776.545,-149.818 778.967,-156.386"/>
</g>
<!-- Node8 -->
<g id="node8" class="node"><title>Node8</title>
<polygon fill="none" stroke="#bfbfbf" points="169.5,-62.5 169.5,-81.5 210.5,-81.5 210.5,-62.5 169.5,-62.5"/>
<text text-anchor="middle" x="190" y="-69.5" font-family="Helvetica,sans-Serif" font-size="10.00">string</text>
</g>
<!-- Node1&#45;&gt;Node8 -->
<g id="edge7" class="edge"><title>Node1&#45;&gt;Node8</title>
<path fill="none" stroke="midnightblue" d="M441.175,-207.78C396.746,-198.537 335.677,-182.27 287,-156 254.039,-138.211 222.325,-107.74 204.576,-89.0813"/>
<polygon fill="midnightblue" stroke="midnightblue" points="207.032,-86.5836 197.654,-81.6536 201.911,-91.3557 207.032,-86.5836"/>
</g>
<!-- Node9 -->
<g id="node9" class="node"><title>Node9</title>
<polygon fill="none" stroke="#bfbfbf" points="856,-130.5 856,-149.5 942,-149.5 942,-130.5 856,-130.5"/>
<text text-anchor="middle" x="899" y="-137.5" font-family="Helvetica,sans-Serif" font-size="10.00">FairMQLogger.h</text>
</g>
<!-- Node1&#45;&gt;Node9 -->
<g id="edge8" class="edge"><title>Node1&#45;&gt;Node9</title>
<path fill="none" stroke="midnightblue" d="M560.576,-209.112C629.632,-198.391 746.678,-178.922 846,-156 850.813,-154.889 855.842,-153.616 860.803,-152.291"/>
<polygon fill="midnightblue" stroke="midnightblue" points="862.092,-155.566 870.802,-149.534 860.231,-148.818 862.092,-155.566"/>
</g>
<!-- Node10 -->
<g id="node10" class="node"><title>Node10</title>
<polygon fill="none" stroke="#bfbfbf" points="228.5,-62.5 228.5,-81.5 307.5,-81.5 307.5,-62.5 228.5,-62.5"/>
<text text-anchor="middle" x="268" y="-69.5" font-family="Helvetica,sans-Serif" font-size="10.00">TApplication.h</text>
</g>
<!-- Node1&#45;&gt;Node10 -->
<g id="edge9" class="edge"><title>Node1&#45;&gt;Node10</title>
<path fill="none" stroke="midnightblue" d="M441.109,-209.204C402.028,-200.935 351.81,-185.251 316,-156 294.996,-138.843 281.285,-109.905 274.091,-91.1313"/>
<polygon fill="midnightblue" stroke="midnightblue" points="277.36,-89.8773 270.682,-81.6522 270.773,-92.2466 277.36,-89.8773"/>
</g>
<!-- Node11 -->
<g id="node11" class="node"><title>Node11</title>
<polygon fill="none" stroke="#bfbfbf" points="960.5,-130.5 960.5,-149.5 1089.5,-149.5 1089.5,-130.5 960.5,-130.5"/>
<text text-anchor="middle" x="1025" y="-137.5" font-family="Helvetica,sans-Serif" font-size="10.00">boost/algorithm/string.hpp</text>
</g>
<!-- Node1&#45;&gt;Node11 -->
<g id="edge10" class="edge"><title>Node1&#45;&gt;Node11</title>
<path fill="none" stroke="midnightblue" d="M560.511,-211.014C646.815,-200.608 811.639,-179.701 951,-156 958.814,-154.671 967.066,-153.133 975.112,-151.559"/>
<polygon fill="midnightblue" stroke="midnightblue" points="976.023,-154.946 985.145,-149.558 974.654,-148.081 976.023,-154.946"/>
</g>
<!-- Node12 -->
<g id="node12" class="node"><title>Node12</title>
<polygon fill="none" stroke="#bfbfbf" points="1108,-125 1108,-155 1224,-155 1224,-125 1108,-125"/>
<text text-anchor="start" x="1116" y="-143" font-family="Helvetica,sans-Serif" font-size="10.00">boost/program_options</text>
<text text-anchor="middle" x="1166" y="-132" font-family="Helvetica,sans-Serif" font-size="10.00">/parsers.hpp</text>
</g>
<!-- Node1&#45;&gt;Node12 -->
<g id="edge11" class="edge"><title>Node1&#45;&gt;Node12</title>
<path fill="none" stroke="midnightblue" d="M560.61,-214.063C666.633,-206.569 895.038,-188.205 1097.9,-155.883"/>
<polygon fill="midnightblue" stroke="midnightblue" points="1098.53,-159.327 1107.84,-154.284 1097.42,-152.416 1098.53,-159.327"/>
</g>
<!-- Node13 -->
<g id="node13" class="node"><title>Node13</title>
<polygon fill="none" stroke="#bfbfbf" points="1242,-125 1242,-155 1358,-155 1358,-125 1242,-125"/>
<text text-anchor="start" x="1250" y="-143" font-family="Helvetica,sans-Serif" font-size="10.00">boost/program_options</text>
<text text-anchor="middle" x="1300" y="-132" font-family="Helvetica,sans-Serif" font-size="10.00">/variables_map.hpp</text>
</g>
<!-- Node1&#45;&gt;Node13 -->
<g id="edge12" class="edge"><title>Node1&#45;&gt;Node13</title>
<path fill="none" stroke="midnightblue" d="M560.534,-215.626C683.889,-210.129 976.409,-194.092 1231.65,-155.9"/>
<polygon fill="midnightblue" stroke="midnightblue" points="1232.49,-159.312 1241.86,-154.357 1231.45,-152.39 1232.49,-159.312"/>
</g>
<!-- Node14 -->
<g id="node14" class="node"><title>Node14</title>
<polygon fill="none" stroke="#bfbfbf" points="325.5,-62.5 325.5,-81.5 408.5,-81.5 408.5,-62.5 325.5,-62.5"/>
<text text-anchor="middle" x="367" y="-69.5" font-family="Helvetica,sans-Serif" font-size="10.00">dds_intercom.h</text>
</g>
<!-- Node1&#45;&gt;Node14 -->
<g id="edge13" class="edge"><title>Node1&#45;&gt;Node14</title>
<path fill="none" stroke="midnightblue" d="M441.382,-213.981C401.581,-207.833 351.948,-192.721 326,-156 310.718,-134.373 332.092,-106.203 349.267,-88.8712"/>
<polygon fill="midnightblue" stroke="midnightblue" points="351.917,-91.1788 356.716,-81.7329 347.074,-86.1247 351.917,-91.1788"/>
</g>
<!-- Node15 -->
<g id="node15" class="node"><title>Node15</title>
<g id="a_node15"><a xlink:href="../../d5/dde/TMessageWrapper_8h.html" target="_top" xlink:title="QCCommon/TMessageWrapper.h">
<polygon fill="none" stroke="black" points="334.5,-130.5 334.5,-149.5 499.5,-149.5 499.5,-130.5 334.5,-130.5"/>
<text text-anchor="middle" x="417" y="-137.5" font-family="Helvetica,sans-Serif" font-size="10.00">QCCommon/TMessageWrapper.h</text>
</a>
</g>
</g>
<!-- Node1&#45;&gt;Node15 -->
<g id="edge14" class="edge"><title>Node1&#45;&gt;Node15</title>
<path fill="none" stroke="midnightblue" d="M473.495,-192.787C460.404,-180.787 445.172,-166.825 433.825,-156.423"/>
<polygon fill="midnightblue" stroke="midnightblue" points="436.072,-153.735 426.336,-149.558 431.342,-158.895 436.072,-153.735"/>
</g>
<!-- Node17 -->
<g id="node17" class="node"><title>Node17</title>
<g id="a_node17"><a xlink:href="../../db/dad/Utilities_2QC_2QCMerger_2include_2QCMerger_2Merger_8h.html" target="_top" xlink:title="QCMerger/Merger.h">
<polygon fill="none" stroke="black" points="899.5,-62.5 899.5,-81.5 1002.5,-81.5 1002.5,-62.5 899.5,-62.5"/>
<text text-anchor="middle" x="951" y="-69.5" font-family="Helvetica,sans-Serif" font-size="10.00">QCMerger/Merger.h</text>
</a>
</g>
</g>
<!-- Node1&#45;&gt;Node17 -->
<g id="edge16" class="edge"><title>Node1&#45;&gt;Node17</title>
<path fill="none" stroke="midnightblue" d="M560.537,-200.177C591.617,-189.595 629.602,-174.599 661,-156 679.997,-144.747 679.053,-133.466 699,-124 777.041,-86.9641 805.582,-106.321 890,-88 895.803,-86.7405 901.898,-85.3382 907.897,-83.9108"/>
<polygon fill="midnightblue" stroke="midnightblue" points="908.939,-87.2597 917.835,-81.5055 907.292,-80.4562 908.939,-87.2597"/>
</g>
<!-- Node21 -->
<g id="node21" class="node"><title>Node21</title>
<g id="a_node21"><a xlink:href="../../d7/d2a/MergerDevice_8h.html" target="_top" xlink:title="QCMerger/MergerDevice.h">
<polygon fill="none" stroke="black" points="518,-130.5 518,-149.5 652,-149.5 652,-130.5 518,-130.5"/>
<text text-anchor="middle" x="585" y="-137.5" font-family="Helvetica,sans-Serif" font-size="10.00">QCMerger/MergerDevice.h</text>
</a>
</g>
</g>
<!-- Node1&#45;&gt;Node21 -->
<g id="edge20" class="edge"><title>Node1&#45;&gt;Node21</title>
<path fill="none" stroke="midnightblue" d="M528.505,-192.787C541.596,-180.787 556.828,-166.825 568.175,-156.423"/>
<polygon fill="midnightblue" stroke="midnightblue" points="570.658,-158.895 575.664,-149.558 565.928,-153.735 570.658,-158.895"/>
</g>
<!-- Node16 -->
<g id="node16" class="node"><title>Node16</title>
<polygon fill="none" stroke="#bfbfbf" points="426.5,-62.5 426.5,-81.5 497.5,-81.5 497.5,-62.5 426.5,-62.5"/>
<text text-anchor="middle" x="462" y="-69.5" font-family="Helvetica,sans-Serif" font-size="10.00">TMessage.h</text>
</g>
<!-- Node15&#45;&gt;Node16 -->
<g id="edge15" class="edge"><title>Node15&#45;&gt;Node16</title>
<path fill="none" stroke="midnightblue" d="M422.883,-130.372C429.784,-120.25 441.399,-103.215 450.183,-90.3312"/>
<polygon fill="midnightblue" stroke="midnightblue" points="453.23,-92.0751 455.972,-81.8411 447.447,-88.1317 453.23,-92.0751"/>
</g>
<!-- Node18 -->
<g id="node18" class="node"><title>Node18</title>
<polygon fill="none" stroke="#bfbfbf" points="795,-0.5 795,-19.5 841,-19.5 841,-0.5 795,-0.5"/>
<text text-anchor="middle" x="818" y="-7.5" font-family="Helvetica,sans-Serif" font-size="10.00">chrono</text>
</g>
<!-- Node17&#45;&gt;Node18 -->
<g id="edge17" class="edge"><title>Node17&#45;&gt;Node18</title>
<path fill="none" stroke="midnightblue" d="M931.944,-62.4035C909.525,-52.2896 872.095,-35.4036 846.287,-23.761"/>
<polygon fill="midnightblue" stroke="midnightblue" points="847.575,-20.5025 837.02,-19.5806 844.696,-26.8832 847.575,-20.5025"/>
</g>
<!-- Node19 -->
<g id="node19" class="node"><title>Node19</title>
<polygon fill="none" stroke="#bfbfbf" points="950.5,-0.5 950.5,-19.5 1033.5,-19.5 1033.5,-0.5 950.5,-0.5"/>
<text text-anchor="middle" x="992" y="-7.5" font-family="Helvetica,sans-Serif" font-size="10.00">unordered_map</text>
</g>
<!-- Node17&#45;&gt;Node19 -->
<g id="edge18" class="edge"><title>Node17&#45;&gt;Node19</title>
<path fill="none" stroke="midnightblue" d="M956.874,-62.4035C962.963,-53.4925 972.645,-39.3247 980.303,-28.1177"/>
<polygon fill="midnightblue" stroke="midnightblue" points="983.384,-29.8117 986.137,-19.5806 977.605,-25.8624 983.384,-29.8117"/>
</g>
<!-- Node20 -->
<g id="node20" class="node"><title>Node20</title>
<polygon fill="none" stroke="#bfbfbf" points="885.5,-0.5 885.5,-19.5 932.5,-19.5 932.5,-0.5 885.5,-0.5"/>
<text text-anchor="middle" x="909" y="-7.5" font-family="Helvetica,sans-Serif" font-size="10.00">TList.h</text>
</g>
<!-- Node17&#45;&gt;Node20 -->
<g id="edge19" class="edge"><title>Node17&#45;&gt;Node20</title>
<path fill="none" stroke="midnightblue" d="M944.982,-62.4035C938.682,-53.4034 928.629,-39.0408 920.748,-27.7824"/>
<polygon fill="midnightblue" stroke="midnightblue" points="923.608,-25.7658 915.006,-19.5806 917.874,-29.7801 923.608,-25.7658"/>
</g>
<!-- Node21&#45;&gt;Node5 -->
<g id="edge24" class="edge"><title>Node21&#45;&gt;Node5</title>
<path fill="none" stroke="midnightblue" d="M544.755,-130.458C532.948,-128.143 519.989,-125.786 508,-124 354.642,-101.154 311.265,-126.222 161,-88 158.012,-87.24 154.949,-86.2759 151.93,-85.2043"/>
<polygon fill="midnightblue" stroke="midnightblue" points="153.18,-81.9349 142.593,-81.5331 150.619,-88.4495 153.18,-81.9349"/>
</g>
<!-- Node21&#45;&gt;Node8 -->
<g id="edge25" class="edge"><title>Node21&#45;&gt;Node8</title>
<path fill="none" stroke="midnightblue" d="M543.932,-130.463C532.341,-128.2 519.701,-125.869 508,-124 380.618,-103.655 343.461,-125.381 220,-88 218.035,-87.4052 216.043,-86.6898 214.068,-85.8982"/>
<polygon fill="midnightblue" stroke="midnightblue" points="215.09,-82.5155 204.542,-81.5124 212.162,-88.8739 215.09,-82.5155"/>
</g>
<!-- Node21&#45;&gt;Node10 -->
<g id="edge28" class="edge"><title>Node21&#45;&gt;Node10</title>
<path fill="none" stroke="midnightblue" d="M541.437,-130.466C530.521,-128.34 518.835,-126.076 508,-124 423.16,-107.741 400.873,-108.675 317,-88 312.655,-86.929 308.126,-85.6999 303.653,-84.4161"/>
<polygon fill="midnightblue" stroke="midnightblue" points="304.626,-81.054 294.044,-81.5583 302.631,-87.7636 304.626,-81.054"/>
</g>
<!-- Node21&#45;&gt;Node14 -->
<g id="edge30" class="edge"><title>Node21&#45;&gt;Node14</title>
<path fill="none" stroke="midnightblue" d="M556.5,-130.372C517.633,-118.604 447.911,-97.4961 404.739,-84.4257"/>
<polygon fill="midnightblue" stroke="midnightblue" points="405.746,-81.0737 395.161,-81.5259 403.718,-87.7734 405.746,-81.0737"/>
</g>
<!-- Node21&#45;&gt;Node16 -->
<g id="edge29" class="edge"><title>Node21&#45;&gt;Node16</title>
<path fill="none" stroke="midnightblue" d="M568.92,-130.372C548.109,-119.205 511.622,-99.6266 487.136,-86.4876"/>
<polygon fill="midnightblue" stroke="midnightblue" points="488.551,-83.2746 478.084,-81.6305 485.241,-89.4428 488.551,-83.2746"/>
</g>
<!-- Node21&#45;&gt;Node17 -->
<g id="edge31" class="edge"><title>Node21&#45;&gt;Node17</title>
<path fill="none" stroke="midnightblue" d="M629.953,-130.479C641.677,-128.311 654.303,-126.023 666,-124 765.358,-106.818 791.182,-108.056 890,-88 895.957,-86.791 902.211,-85.3975 908.351,-83.9571"/>
<polygon fill="midnightblue" stroke="midnightblue" points="909.601,-87.2563 918.504,-81.513 907.962,-80.4508 909.601,-87.2563"/>
</g>
<!-- Node21&#45;&gt;Node18 -->
<g id="edge21" class="edge"><title>Node21&#45;&gt;Node18</title>
<path fill="none" stroke="midnightblue" d="M621.495,-130.486C652.104,-122.378 696.257,-108.369 731,-88 746.208,-79.0839 781.208,-46.445 801.883,-26.636"/>
<polygon fill="midnightblue" stroke="midnightblue" points="804.505,-28.9696 809.279,-19.5111 799.649,-23.9283 804.505,-28.9696"/>
</g>
<!-- Node22 -->
<g id="node22" class="node"><title>Node22</title>
<polygon fill="none" stroke="#bfbfbf" points="779.5,-62.5 779.5,-81.5 820.5,-81.5 820.5,-62.5 779.5,-62.5"/>
<text text-anchor="middle" x="800" y="-69.5" font-family="Helvetica,sans-Serif" font-size="10.00">ctime</text>
</g>
<!-- Node21&#45;&gt;Node22 -->
<g id="edge22" class="edge"><title>Node21&#45;&gt;Node22</title>
<path fill="none" stroke="midnightblue" d="M620.262,-130.443C656.859,-121.23 715.556,-105.518 765,-88 767.261,-87.199 769.584,-86.3238 771.906,-85.4114"/>
<polygon fill="midnightblue" stroke="midnightblue" points="773.373,-88.5926 781.285,-81.5471 770.706,-82.1204 773.373,-88.5926"/>
</g>
<!-- Node23 -->
<g id="node23" class="node"><title>Node23</title>
<polygon fill="none" stroke="#bfbfbf" points="838.5,-62.5 838.5,-81.5 881.5,-81.5 881.5,-62.5 838.5,-62.5"/>
<text text-anchor="middle" x="860" y="-69.5" font-family="Helvetica,sans-Serif" font-size="10.00">deque</text>
</g>
<!-- Node21&#45;&gt;Node23 -->
<g id="edge23" class="edge"><title>Node21&#45;&gt;Node23</title>
<path fill="none" stroke="midnightblue" d="M628.635,-130.482C693.627,-117.702 810.259,-94.3849 829,-88 830.91,-87.3493 832.855,-86.6094 834.793,-85.8152"/>
<polygon fill="midnightblue" stroke="midnightblue" points="836.554,-88.8603 844.225,-81.5528 833.671,-82.4814 836.554,-88.8603"/>
</g>
<!-- Node24 -->
<g id="node24" class="node"><title>Node24</title>
<polygon fill="none" stroke="#bfbfbf" points="515.5,-57 515.5,-87 616.5,-87 616.5,-57 515.5,-57"/>
<text text-anchor="start" x="523.5" y="-75" font-family="Helvetica,sans-Serif" font-size="10.00">boost/property_tree</text>
<text text-anchor="middle" x="566" y="-64" font-family="Helvetica,sans-Serif" font-size="10.00">/ptree.hpp</text>
</g>
<!-- Node21&#45;&gt;Node24 -->
<g id="edge26" class="edge"><title>Node21&#45;&gt;Node24</title>
<path fill="none" stroke="midnightblue" d="M582.516,-130.372C580.073,-121.886 576.232,-108.542 572.868,-96.858"/>
<polygon fill="midnightblue" stroke="midnightblue" points="576.212,-95.8229 570.083,-87.1815 569.486,-97.7595 576.212,-95.8229"/>
</g>
<!-- Node25 -->
<g id="node25" class="node"><title>Node25</title>
<polygon fill="none" stroke="#bfbfbf" points="635,-62.5 635,-81.5 723,-81.5 723,-62.5 635,-62.5"/>
<text text-anchor="middle" x="679" y="-69.5" font-family="Helvetica,sans-Serif" font-size="10.00">FairMQDevice.h</text>
</g>
<!-- Node21&#45;&gt;Node25 -->
<g id="edge27" class="edge"><title>Node21&#45;&gt;Node25</title>
<path fill="none" stroke="midnightblue" d="M597.289,-130.372C612.771,-119.502 639.605,-100.66 658.281,-87.5474"/>
<polygon fill="midnightblue" stroke="midnightblue" points="660.535,-90.2413 666.708,-81.6305 656.513,-84.5124 660.535,-90.2413"/>
</g>
</g>
</svg>
        <g id="navigator" transform="translate(0 0)" fill="#404254">
                <rect fill="#f2f5e9" fill-opacity="0.5" stroke="#606060" stroke-width=".5" x="0" y="0" width="60" height="60"/>
                <use id="zoomplus" xlink:href="#zoomPlus" x="17" y="9" onmousedown="handleZoom(evt,'in')"/>
                <use id="zoomminus" xlink:href="#zoomMin" x="42" y="9" onmousedown="handleZoom(evt,'out')"/>
                <use id="reset" xlink:href="#resetDef" x="30" y="36" onmousedown="handleReset()"/>
                <g id="arrowUp" xlink:href="#dirArrow" transform="translate(30 24)" onmousedown="handlePan(0,-1)">
                  <use xlink:href="#rim" fill="#404040">
                        <set attributeName="fill" to="#808080" begin="arrowUp.mouseover" end="arrowUp.mouseout"/>
                  </use>
                  <path fill="none" stroke="white" stroke-width="1.5" d="M0,-3.0v7 M-2.5,-0.5L0,-3.0L2.5,-0.5"/>
                </g>
                <g id="arrowRight" xlink:href="#dirArrow" transform="rotate(90) translate(36 -43)" onmousedown="handlePan(1,0)">
                  <use xlink:href="#rim" fill="#404040">
                        <set attributeName="fill" to="#808080" begin="arrowRight.mouseover" end="arrowRight.mouseout"/>
                  </use>
                  <path fill="none" stroke="white" stroke-width="1.5" d="M0,-3.0v7 M-2.5,-0.5L0,-3.0L2.5,-0.5"/>
                </g>
                <g id="arrowDown" xlink:href="#dirArrow" transform="rotate(180) translate(-30 -48)" onmousedown="handlePan(0,1)">
                  <use xlink:href="#rim" fill="#404040">
                        <set attributeName="fill" to="#808080" begin="arrowDown.mouseover" end="arrowDown.mouseout"/>
                  </use>
                  <path fill="none" stroke="white" stroke-width="1.5" d="M0,-3.0v7 M-2.5,-0.5L0,-3.0L2.5,-0.5"/>
                </g>
                <g id="arrowLeft" xlink:href="#dirArrow" transform="rotate(270) translate(-36 17)" onmousedown="handlePan(-1,0)">
                  <use xlink:href="#rim" fill="#404040">
                        <set attributeName="fill" to="#808080" begin="arrowLeft.mouseover" end="arrowLeft.mouseout"/>
                  </use>
                  <path fill="none" stroke="white" stroke-width="1.5" d="M0,-3.0v7 M-2.5,-0.5L0,-3.0L2.5,-0.5"/>
                </g>
        </g>
        <svg viewBox="0 0 15 15" width="100%" height="30px" preserveAspectRatio="xMaxYMin meet">
         <g id="arrow_out" transform="scale(0.3 0.3)">
          <a xlink:href="runMerger_8cxx__incl_org.svg" target="_base">
           <rect id="button" ry="5" rx="5" y="6" x="6" height="38" width="38"
                fill="#f2f5e9" fill-opacity="0.5" stroke="#606060" stroke-width="1.0"/>
           <path id="arrow"
             d="M 11.500037,31.436501 C 11.940474,20.09759 22.043105,11.32322 32.158766,21.979434 L 37.068811,17.246167 C 37.068811,17.246167 37.088388,32 37.088388,32 L 22.160133,31.978069 C 22.160133,31.978069 26.997745,27.140456 26.997745,27.140456 C 18.528582,18.264221 13.291696,25.230495 11.500037,31.436501 z"
             style="fill:#404040;"/>
          </a>
         </g>
        </svg>
</svg>
