<?xml version="1.0" encoding="UTF-8" standalone="no"?>
<!DOCTYPE svg PUBLIC "-//W3C//DTD SVG 1.1//EN"
 "http://www.w3.org/Graphics/SVG/1.1/DTD/svg11.dtd">
<!-- Generated by graphviz version 2.36.0 (20140111.2315)
 -->
<!-- Title: o2::MCCompLabel Pages: 1 -->
<svg width="183pt" height="392pt"
 viewBox="0.00 0.00 183.00 392.00" xmlns="http://www.w3.org/2000/svg" xmlns:xlink="http://www.w3.org/1999/xlink">
<g id="graph0" class="graph" transform="scale(1 1) rotate(0) translate(4 388)">
<title>o2::MCCompLabel</title>
<!-- Node1 -->
<g id="node1" class="node"><title>Node1</title>
<polygon fill="#bfbfbf" stroke="black" points="17.5,-1 17.5,-245 134.5,-245 134.5,-1 17.5,-1"/>
<text text-anchor="middle" x="76" y="-233" font-family="Helvetica,sans-Serif" font-size="10.00">o2::MCCompLabel</text>
<polyline fill="none" stroke="black" points="17.5,-226 134.5,-226 "/>
<text text-anchor="middle" x="76" y="-214" font-family="Helvetica,sans-Serif" font-size="10.00"> </text>
<polyline fill="none" stroke="black" points="17.5,-207 134.5,-207 "/>
<text text-anchor="start" x="25.5" y="-195" font-family="Helvetica,sans-Serif" font-size="10.00">+ MCCompLabel()</text>
<text text-anchor="start" x="25.5" y="-184" font-family="Helvetica,sans-Serif" font-size="10.00">+ MCCompLabel()</text>
<text text-anchor="start" x="25.5" y="-173" font-family="Helvetica,sans-Serif" font-size="10.00">+ ~MCCompLabel()</text>
<text text-anchor="start" x="25.5" y="-162" font-family="Helvetica,sans-Serif" font-size="10.00">+ isSet()</text>
<text text-anchor="start" x="25.5" y="-151" font-family="Helvetica,sans-Serif" font-size="10.00">+ isEmpty()</text>
<text text-anchor="start" x="25.5" y="-140" font-family="Helvetica,sans-Serif" font-size="10.00">+ isPosTrackID()</text>
<text text-anchor="start" x="25.5" y="-129" font-family="Helvetica,sans-Serif" font-size="10.00">+ operator ULong64_t()</text>
<text text-anchor="start" x="25.5" y="-118" font-family="Helvetica,sans-Serif" font-size="10.00">+ unset()</text>
<text text-anchor="start" x="25.5" y="-107" font-family="Helvetica,sans-Serif" font-size="10.00">+ set()</text>
<text text-anchor="start" x="25.5" y="-96" font-family="Helvetica,sans-Serif" font-size="10.00">+ getTrackID()</text>
<text text-anchor="start" x="25.5" y="-85" font-family="Helvetica,sans-Serif" font-size="10.00">+ getEventID()</text>
<text text-anchor="start" x="25.5" y="-74" font-family="Helvetica,sans-Serif" font-size="10.00">+ getSourceID()</text>
<text text-anchor="start" x="25.5" y="-63" font-family="Helvetica,sans-Serif" font-size="10.00">+ get()</text>
<text text-anchor="start" x="25.5" y="-52" font-family="Helvetica,sans-Serif" font-size="10.00">+ print()</text>
<text text-anchor="start" x="25.5" y="-41" font-family="Helvetica,sans-Serif" font-size="10.00">+ ClassDefNV()</text>
<text text-anchor="start" x="25.5" y="-30" font-family="Helvetica,sans-Serif" font-size="10.00">+ maxSourceID()</text>
<text text-anchor="start" x="25.5" y="-19" font-family="Helvetica,sans-Serif" font-size="10.00">+ maxEventID()</text>
<text text-anchor="start" x="25.5" y="-8" font-family="Helvetica,sans-Serif" font-size="10.00">+ maxTrackID()</text>
</g>
<!-- Node2 -->
<g id="node2" class="node"><title>Node2</title>
<polygon fill="none" stroke="#bfbfbf" points="0,-326.5 0,-383.5 64,-383.5 64,-326.5 0,-326.5"/>
<text text-anchor="middle" x="32" y="-371.5" font-family="Helvetica,sans-Serif" font-size="10.00">ULong64_t</text>
<polyline fill="none" stroke="#bfbfbf" points="0,-364.5 64,-364.5 "/>
<text text-anchor="middle" x="32" y="-352.5" font-family="Helvetica,sans-Serif" font-size="10.00"> </text>
<polyline fill="none" stroke="#bfbfbf" points="0,-345.5 64,-345.5 "/>
<text text-anchor="middle" x="32" y="-333.5" font-family="Helvetica,sans-Serif" font-size="10.00"> </text>
</g>
<!-- Node2&#45;&gt;Node1 -->
<g id="edge1" class="edge"><title>Node2&#45;&gt;Node1</title>
<path fill="none" stroke="#404040" d="M30.2687,-326.258C29.6538,-308.378 29.7767,-284.689 33,-264 33.3446,-261.788 33.7164,-259.563 34.1131,-257.327"/>
<polygon fill="none" stroke="#404040" points="34.1619,-257.077 31.3842,-250.422 36.4587,-245.298 39.2363,-251.953 34.1619,-257.077"/>
<text text-anchor="middle" x="66" y="-300" font-family="Helvetica,sans-Serif" font-size="10.00"> +maskFull</text>
<text text-anchor="middle" x="66" y="-289" font-family="Helvetica,sans-Serif" font-size="10.00">+maskSrcID</text>
<text text-anchor="middle" x="66" y="-278" font-family="Helvetica,sans-Serif" font-size="10.00">+maskEvID</text>
<text text-anchor="middle" x="66" y="-267" font-family="Helvetica,sans-Serif" font-size="10.00">+maskTrackID</text>
</g>
<!-- Node3 -->
<g id="node3" class="node"><title>Node3</title>
<polygon fill="none" stroke="#bfbfbf" points="106.5,-326.5 106.5,-383.5 135.5,-383.5 135.5,-326.5 106.5,-326.5"/>
<text text-anchor="middle" x="121" y="-371.5" font-family="Helvetica,sans-Serif" font-size="10.00">int</text>
<polyline fill="none" stroke="#bfbfbf" points="106.5,-364.5 135.5,-364.5 "/>
<text text-anchor="middle" x="121" y="-352.5" font-family="Helvetica,sans-Serif" font-size="10.00"> </text>
<polyline fill="none" stroke="#bfbfbf" points="106.5,-345.5 135.5,-345.5 "/>
<text text-anchor="middle" x="121" y="-333.5" font-family="Helvetica,sans-Serif" font-size="10.00"> </text>
</g>
<!-- Node3&#45;&gt;Node1 -->
<g id="edge2" class="edge"><title>Node3&#45;&gt;Node1</title>
<path fill="none" stroke="#404040" d="M115.572,-326.257C112.055,-308.28 107.188,-283.403 102.067,-257.234"/>
<polygon fill="none" stroke="#404040" points="102.005,-256.916 96.9276,-251.795 99.7011,-245.139 104.779,-250.259 102.005,-256.916"/>
<text text-anchor="middle" x="143.5" y="-294.5" font-family="Helvetica,sans-Serif" font-size="10.00"> +nbitsSrcID</text>
<text text-anchor="middle" x="143.5" y="-283.5" font-family="Helvetica,sans-Serif" font-size="10.00">+nbitsTrackID</text>
<text text-anchor="middle" x="143.5" y="-272.5" font-family="Helvetica,sans-Serif" font-size="10.00">+nbitsEvID</text>
</g>
</g>
</svg>
