<?xml version="1.0" encoding="UTF-8" standalone="no"?>
<!DOCTYPE svg PUBLIC "-//W3C//DTD SVG 1.1//EN"
 "http://www.w3.org/Graphics/SVG/1.1/DTD/svg11.dtd">
<!-- Generated by graphviz version 2.36.0 (20140111.2315)
 -->
<!-- Title: /home/travis/build/AliceO2Group/AliceO2/Detectors/TPC/simulation/include/TPCSimulation/DigitPad.h Pages: 1 -->
<svg width="960pt" height="780pt"
 viewBox="0.00 0.00 960.00 780.00" xmlns="http://www.w3.org/2000/svg" xmlns:xlink="http://www.w3.org/1999/xlink">
<g id="graph0" class="graph" transform="scale(1 1) rotate(0) translate(4 776)">
<title>/home/travis/build/AliceO2Group/AliceO2/Detectors/TPC/simulation/include/TPCSimulation/DigitPad.h</title>
<!-- Node1 -->
<g id="node1" class="node"><title>Node1</title>
<polygon fill="#bfbfbf" stroke="black" points="316,-719 316,-771 484,-771 484,-719 316,-719"/>
<text text-anchor="start" x="324" y="-759" font-family="Helvetica,sans-Serif" font-size="10.00">/home/travis/build</text>
<text text-anchor="start" x="324" y="-748" font-family="Helvetica,sans-Serif" font-size="10.00">/AliceO2Group/AliceO2</text>
<text text-anchor="start" x="324" y="-737" font-family="Helvetica,sans-Serif" font-size="10.00">/Detectors/TPC/simulation</text>
<text text-anchor="middle" x="400" y="-726" font-family="Helvetica,sans-Serif" font-size="10.00">/include/TPCSimulation/DigitPad.h</text>
</g>
<!-- Node2 -->
<g id="node2" class="node"><title>Node2</title>
<g id="a_node2"><a xlink:href="../../de/dc8/DigitRow_8h.html" target="_top" xlink:title="Definition of the Row container. ">
<polygon fill="none" stroke="black" points="172.5,-629 172.5,-681 343.5,-681 343.5,-629 172.5,-629"/>
<text text-anchor="start" x="180.5" y="-669" font-family="Helvetica,sans-Serif" font-size="10.00">/home/travis/build</text>
<text text-anchor="start" x="180.5" y="-658" font-family="Helvetica,sans-Serif" font-size="10.00">/AliceO2Group/AliceO2</text>
<text text-anchor="start" x="180.5" y="-647" font-family="Helvetica,sans-Serif" font-size="10.00">/Detectors/TPC/simulation</text>
<text text-anchor="middle" x="258" y="-636" font-family="Helvetica,sans-Serif" font-size="10.00">/include/TPCSimulation/DigitRow.h</text>
</a>
</g>
</g>
<!-- Node1&#45;&gt;Node2 -->
<g id="edge1" class="edge"><title>Node1&#45;&gt;Node2</title>
<path fill="none" stroke="midnightblue" d="M350.629,-713.404C333.669,-702.894 314.889,-691.255 298.697,-681.221"/>
<polygon fill="midnightblue" stroke="midnightblue" points="348.965,-716.49 359.308,-718.783 352.652,-710.54 348.965,-716.49"/>
</g>
<!-- Node20 -->
<g id="node20" class="node"><title>Node20</title>
<g id="a_node20"><a xlink:href="../../d2/daa/DigitRow_8cxx.html" target="_top" xlink:title="Implementation of the Row container. ">
<polygon fill="none" stroke="black" points="348.5,-539 348.5,-591 481.5,-591 481.5,-539 348.5,-539"/>
<text text-anchor="start" x="356.5" y="-579" font-family="Helvetica,sans-Serif" font-size="10.00">/home/travis/build</text>
<text text-anchor="start" x="356.5" y="-568" font-family="Helvetica,sans-Serif" font-size="10.00">/AliceO2Group/AliceO2</text>
<text text-anchor="start" x="356.5" y="-557" font-family="Helvetica,sans-Serif" font-size="10.00">/Detectors/TPC/simulation</text>
<text text-anchor="middle" x="415" y="-546" font-family="Helvetica,sans-Serif" font-size="10.00">/src/DigitRow.cxx</text>
</a>
</g>
</g>
<!-- Node1&#45;&gt;Node20 -->
<g id="edge25" class="edge"><title>Node1&#45;&gt;Node20</title>
<path fill="none" stroke="midnightblue" d="M402.973,-708.717C405.894,-674.052 410.28,-622.016 412.869,-591.285"/>
<polygon fill="midnightblue" stroke="midnightblue" points="399.469,-708.616 402.117,-718.874 406.445,-709.204 399.469,-708.616"/>
</g>
<!-- Node21 -->
<g id="node21" class="node"><title>Node21</title>
<g id="a_node21"><a xlink:href="../../db/d73/DigitPad_8cxx.html" target="_top" xlink:title="Implementation of the Pad container. ">
<polygon fill="none" stroke="black" points="428.5,-629 428.5,-681 561.5,-681 561.5,-629 428.5,-629"/>
<text text-anchor="start" x="436.5" y="-669" font-family="Helvetica,sans-Serif" font-size="10.00">/home/travis/build</text>
<text text-anchor="start" x="436.5" y="-658" font-family="Helvetica,sans-Serif" font-size="10.00">/AliceO2Group/AliceO2</text>
<text text-anchor="start" x="436.5" y="-647" font-family="Helvetica,sans-Serif" font-size="10.00">/Detectors/TPC/simulation</text>
<text text-anchor="middle" x="495" y="-636" font-family="Helvetica,sans-Serif" font-size="10.00">/src/DigitPad.cxx</text>
</a>
</g>
</g>
<!-- Node1&#45;&gt;Node21 -->
<g id="edge24" class="edge"><title>Node1&#45;&gt;Node21</title>
<path fill="none" stroke="midnightblue" d="M434.599,-711.951C445.525,-701.829 457.437,-690.795 467.773,-681.221"/>
<polygon fill="midnightblue" stroke="midnightblue" points="432.181,-709.419 427.223,-718.783 436.938,-714.555 432.181,-709.419"/>
</g>
<!-- Node3 -->
<g id="node3" class="node"><title>Node3</title>
<g id="a_node3"><a xlink:href="../../d0/d60/DigitTime_8h.html" target="_top" xlink:title="Definition of the Time Bin container. ">
<polygon fill="none" stroke="black" points="157.5,-539 157.5,-591 330.5,-591 330.5,-539 157.5,-539"/>
<text text-anchor="start" x="165.5" y="-579" font-family="Helvetica,sans-Serif" font-size="10.00">/home/travis/build</text>
<text text-anchor="start" x="165.5" y="-568" font-family="Helvetica,sans-Serif" font-size="10.00">/AliceO2Group/AliceO2</text>
<text text-anchor="start" x="165.5" y="-557" font-family="Helvetica,sans-Serif" font-size="10.00">/Detectors/TPC/simulation</text>
<text text-anchor="middle" x="244" y="-546" font-family="Helvetica,sans-Serif" font-size="10.00">/include/TPCSimulation/DigitTime.h</text>
</a>
</g>
</g>
<!-- Node2&#45;&gt;Node3 -->
<g id="edge2" class="edge"><title>Node2&#45;&gt;Node3</title>
<path fill="none" stroke="midnightblue" d="M252.351,-618.489C250.89,-609.309 249.348,-599.616 247.992,-591.092"/>
<polygon fill="midnightblue" stroke="midnightblue" points="248.923,-619.221 253.951,-628.547 255.836,-618.121 248.923,-619.221"/>
</g>
<!-- Node19 -->
<g id="node19" class="node"><title>Node19</title>
<g id="a_node19"><a xlink:href="../../dd/dcd/DigitTime_8cxx.html" target="_top" xlink:title="Implementation of the Time Bin container. ">
<polygon fill="none" stroke="black" points="72.5,-449 72.5,-501 205.5,-501 205.5,-449 72.5,-449"/>
<text text-anchor="start" x="80.5" y="-489" font-family="Helvetica,sans-Serif" font-size="10.00">/home/travis/build</text>
<text text-anchor="start" x="80.5" y="-478" font-family="Helvetica,sans-Serif" font-size="10.00">/AliceO2Group/AliceO2</text>
<text text-anchor="start" x="80.5" y="-467" font-family="Helvetica,sans-Serif" font-size="10.00">/Detectors/TPC/simulation</text>
<text text-anchor="middle" x="139" y="-456" font-family="Helvetica,sans-Serif" font-size="10.00">/src/DigitTime.cxx</text>
</a>
</g>
</g>
<!-- Node2&#45;&gt;Node19 -->
<g id="edge23" class="edge"><title>Node2&#45;&gt;Node19</title>
<path fill="none" stroke="midnightblue" d="M181.086,-623.766C168.117,-615.357 156.216,-604.889 148,-592 130.628,-564.747 131.455,-526.248 134.519,-501.206"/>
<polygon fill="midnightblue" stroke="midnightblue" points="179.367,-626.816 189.734,-628.999 182.991,-620.827 179.367,-626.816"/>
</g>
<!-- Node2&#45;&gt;Node20 -->
<g id="edge22" class="edge"><title>Node2&#45;&gt;Node20</title>
<path fill="none" stroke="midnightblue" d="M311.852,-623.815C330.889,-613.145 352.078,-601.268 370.275,-591.069"/>
<polygon fill="midnightblue" stroke="midnightblue" points="310.002,-620.84 302.99,-628.783 313.424,-626.946 310.002,-620.84"/>
</g>
<!-- Node4 -->
<g id="node4" class="node"><title>Node4</title>
<g id="a_node4"><a xlink:href="../../d6/d95/DigitCRU_8h.html" target="_top" xlink:title="Definition of the CRU container. ">
<polygon fill="none" stroke="black" points="267.5,-449 267.5,-501 440.5,-501 440.5,-449 267.5,-449"/>
<text text-anchor="start" x="275.5" y="-489" font-family="Helvetica,sans-Serif" font-size="10.00">/home/travis/build</text>
<text text-anchor="start" x="275.5" y="-478" font-family="Helvetica,sans-Serif" font-size="10.00">/AliceO2Group/AliceO2</text>
<text text-anchor="start" x="275.5" y="-467" font-family="Helvetica,sans-Serif" font-size="10.00">/Detectors/TPC/simulation</text>
<text text-anchor="middle" x="354" y="-456" font-family="Helvetica,sans-Serif" font-size="10.00">/include/TPCSimulation/DigitCRU.h</text>
</a>
</g>
</g>
<!-- Node3&#45;&gt;Node4 -->
<g id="edge3" class="edge"><title>Node3&#45;&gt;Node4</title>
<path fill="none" stroke="midnightblue" d="M283.333,-532.534C296.182,-522.254 310.276,-510.979 322.474,-501.221"/>
<polygon fill="midnightblue" stroke="midnightblue" points="281.144,-529.803 275.522,-538.783 285.517,-535.269 281.144,-529.803"/>
</g>
<!-- Node18 -->
<g id="node18" class="node"><title>Node18</title>
<g id="a_node18"><a xlink:href="../../da/dc3/DigitCRU_8cxx.html" target="_top" xlink:title="Implementation of the CRU container. ">
<polygon fill="none" stroke="black" points="172.5,-359 172.5,-411 305.5,-411 305.5,-359 172.5,-359"/>
<text text-anchor="start" x="180.5" y="-399" font-family="Helvetica,sans-Serif" font-size="10.00">/home/travis/build</text>
<text text-anchor="start" x="180.5" y="-388" font-family="Helvetica,sans-Serif" font-size="10.00">/AliceO2Group/AliceO2</text>
<text text-anchor="start" x="180.5" y="-377" font-family="Helvetica,sans-Serif" font-size="10.00">/Detectors/TPC/simulation</text>
<text text-anchor="middle" x="239" y="-366" font-family="Helvetica,sans-Serif" font-size="10.00">/src/DigitCRU.cxx</text>
</a>
</g>
</g>
<!-- Node3&#45;&gt;Node18 -->
<g id="edge20" class="edge"><title>Node3&#45;&gt;Node18</title>
<path fill="none" stroke="midnightblue" d="M243.009,-528.717C242.035,-494.052 240.573,-442.016 239.71,-411.285"/>
<polygon fill="midnightblue" stroke="midnightblue" points="239.515,-528.977 243.294,-538.874 246.512,-528.78 239.515,-528.977"/>
</g>
<!-- Node3&#45;&gt;Node19 -->
<g id="edge21" class="edge"><title>Node3&#45;&gt;Node19</title>
<path fill="none" stroke="midnightblue" d="M206.107,-532.242C193.936,-522.042 180.627,-510.887 169.093,-501.221"/>
<polygon fill="midnightblue" stroke="midnightblue" points="203.999,-535.042 213.911,-538.783 208.495,-529.677 203.999,-535.042"/>
</g>
<!-- Node5 -->
<g id="node5" class="node"><title>Node5</title>
<g id="a_node5"><a xlink:href="../../dd/d94/DigitContainer_8h.html" target="_top" xlink:title="Definition of the Digit Container. ">
<polygon fill="none" stroke="black" points="323.5,-359 323.5,-411 516.5,-411 516.5,-359 323.5,-359"/>
<text text-anchor="start" x="331.5" y="-399" font-family="Helvetica,sans-Serif" font-size="10.00">/home/travis/build</text>
<text text-anchor="start" x="331.5" y="-388" font-family="Helvetica,sans-Serif" font-size="10.00">/AliceO2Group/AliceO2</text>
<text text-anchor="start" x="331.5" y="-377" font-family="Helvetica,sans-Serif" font-size="10.00">/Detectors/TPC/simulation</text>
<text text-anchor="middle" x="420" y="-366" font-family="Helvetica,sans-Serif" font-size="10.00">/include/TPCSimulation/DigitContainer.h</text>
</a>
</g>
</g>
<!-- Node4&#45;&gt;Node5 -->
<g id="edge4" class="edge"><title>Node4&#45;&gt;Node5</title>
<path fill="none" stroke="midnightblue" d="M379.306,-440.259C386.577,-430.564 394.376,-420.166 401.181,-411.092"/>
<polygon fill="midnightblue" stroke="midnightblue" points="376.29,-438.447 373.09,-448.547 381.89,-442.647 376.29,-438.447"/>
</g>
<!-- Node4&#45;&gt;Node18 -->
<g id="edge19" class="edge"><title>Node4&#45;&gt;Node18</title>
<path fill="none" stroke="midnightblue" d="M312.879,-442.534C299.446,-432.254 284.711,-420.979 271.959,-411.221"/>
<polygon fill="midnightblue" stroke="midnightblue" points="310.977,-445.485 321.046,-448.783 315.231,-439.926 310.977,-445.485"/>
</g>
<!-- Node6 -->
<g id="node6" class="node"><title>Node6</title>
<g id="a_node6"><a xlink:href="../../de/d92/TPC_2simulation_2include_2TPCSimulation_2Digitizer_8h.html" target="_top" xlink:title="/home/travis/build\l/AliceO2Group/AliceO2\l/Detectors/TPC/simulation\l/include/TPCSimulation/Digitizer.h">
<polygon fill="none" stroke="black" points="252.5,-269 252.5,-321 419.5,-321 419.5,-269 252.5,-269"/>
<text text-anchor="start" x="260.5" y="-309" font-family="Helvetica,sans-Serif" font-size="10.00">/home/travis/build</text>
<text text-anchor="start" x="260.5" y="-298" font-family="Helvetica,sans-Serif" font-size="10.00">/AliceO2Group/AliceO2</text>
<text text-anchor="start" x="260.5" y="-287" font-family="Helvetica,sans-Serif" font-size="10.00">/Detectors/TPC/simulation</text>
<text text-anchor="middle" x="336" y="-276" font-family="Helvetica,sans-Serif" font-size="10.00">/include/TPCSimulation/Digitizer.h</text>
</a>
</g>
</g>
<!-- Node5&#45;&gt;Node6 -->
<g id="edge5" class="edge"><title>Node5&#45;&gt;Node6</title>
<path fill="none" stroke="midnightblue" d="M388.632,-351.139C379.141,-341.196 368.875,-330.441 359.952,-321.092"/>
<polygon fill="midnightblue" stroke="midnightblue" points="386.267,-353.73 395.704,-358.547 391.331,-348.896 386.267,-353.73"/>
</g>
<!-- Node9 -->
<g id="node9" class="node"><title>Node9</title>
<g id="a_node9"><a xlink:href="../../df/d46/TPC_2simulation_2src_2DigitizerTask_8cxx.html" target="_top" xlink:title="/home/travis/build\l/AliceO2Group/AliceO2\l/Detectors/TPC/simulation\l/src/DigitizerTask.cxx">
<polygon fill="none" stroke="black" points="-0.5,-79 -0.5,-131 132.5,-131 132.5,-79 -0.5,-79"/>
<text text-anchor="start" x="7.5" y="-119" font-family="Helvetica,sans-Serif" font-size="10.00">/home/travis/build</text>
<text text-anchor="start" x="7.5" y="-108" font-family="Helvetica,sans-Serif" font-size="10.00">/AliceO2Group/AliceO2</text>
<text text-anchor="start" x="7.5" y="-97" font-family="Helvetica,sans-Serif" font-size="10.00">/Detectors/TPC/simulation</text>
<text text-anchor="middle" x="66" y="-86" font-family="Helvetica,sans-Serif" font-size="10.00">/src/DigitizerTask.cxx</text>
</a>
</g>
</g>
<!-- Node5&#45;&gt;Node9 -->
<g id="edge17" class="edge"><title>Node5&#45;&gt;Node9</title>
<path fill="none" stroke="midnightblue" d="M319.417,-355.942C222.73,-326.628 87.0955,-278.51 58,-232 38.9355,-201.525 47.5806,-158.385 56.2564,-131.315"/>
<polygon fill="midnightblue" stroke="midnightblue" points="318.65,-359.367 329.235,-358.895 320.666,-352.663 318.65,-359.367"/>
</g>
<!-- Node16 -->
<g id="node16" class="node"><title>Node16</title>
<g id="a_node16"><a xlink:href="../../df/d53/DigitContainer_8cxx.html" target="_top" xlink:title="Implementation of the Digit Container. ">
<polygon fill="none" stroke="black" points="437.5,-269 437.5,-321 570.5,-321 570.5,-269 437.5,-269"/>
<text text-anchor="start" x="445.5" y="-309" font-family="Helvetica,sans-Serif" font-size="10.00">/home/travis/build</text>
<text text-anchor="start" x="445.5" y="-298" font-family="Helvetica,sans-Serif" font-size="10.00">/AliceO2Group/AliceO2</text>
<text text-anchor="start" x="445.5" y="-287" font-family="Helvetica,sans-Serif" font-size="10.00">/Detectors/TPC/simulation</text>
<text text-anchor="middle" x="504" y="-276" font-family="Helvetica,sans-Serif" font-size="10.00">/src/DigitContainer.cxx</text>
</a>
</g>
</g>
<!-- Node5&#45;&gt;Node16 -->
<g id="edge16" class="edge"><title>Node5&#45;&gt;Node16</title>
<path fill="none" stroke="midnightblue" d="M451.368,-351.139C460.859,-341.196 471.125,-330.441 480.048,-321.092"/>
<polygon fill="midnightblue" stroke="midnightblue" points="448.669,-348.896 444.296,-358.547 453.733,-353.73 448.669,-348.896"/>
</g>
<!-- Node17 -->
<g id="node17" class="node"><title>Node17</title>
<g id="a_node17"><a xlink:href="../../dd/d5e/testTPCDigitContainer_8cxx.html" target="_top" xlink:title="This task tests the DigitContainer of the TPC digitization. ">
<polygon fill="none" stroke="black" points="588.5,-269 588.5,-321 745.5,-321 745.5,-269 588.5,-269"/>
<text text-anchor="start" x="596.5" y="-309" font-family="Helvetica,sans-Serif" font-size="10.00">/home/travis/build</text>
<text text-anchor="start" x="596.5" y="-298" font-family="Helvetica,sans-Serif" font-size="10.00">/AliceO2Group/AliceO2</text>
<text text-anchor="start" x="596.5" y="-287" font-family="Helvetica,sans-Serif" font-size="10.00">/Detectors/TPC/simulation</text>
<text text-anchor="middle" x="667" y="-276" font-family="Helvetica,sans-Serif" font-size="10.00">/test/testTPCDigitContainer.cxx</text>
</a>
</g>
</g>
<!-- Node5&#45;&gt;Node17 -->
<g id="edge18" class="edge"><title>Node5&#45;&gt;Node17</title>
<path fill="none" stroke="midnightblue" d="M499.95,-355.516C531.033,-344.442 566.337,-331.864 596.457,-321.133"/>
<polygon fill="midnightblue" stroke="midnightblue" points="498.695,-352.247 490.45,-358.901 501.044,-358.841 498.695,-352.247"/>
</g>
<!-- Node7 -->
<g id="node7" class="node"><title>Node7</title>
<g id="a_node7"><a xlink:href="../../db/d60/testTracks_8C.html" target="_top" xlink:title="/home/travis/build\l/AliceO2Group/AliceO2\l/Detectors/TPC/reconstruction\l/macro/testTracks.C">
<polygon fill="none" stroke="black" points="578,-174 578,-226 728,-226 728,-174 578,-174"/>
<text text-anchor="start" x="586" y="-214" font-family="Helvetica,sans-Serif" font-size="10.00">/home/travis/build</text>
<text text-anchor="start" x="586" y="-203" font-family="Helvetica,sans-Serif" font-size="10.00">/AliceO2Group/AliceO2</text>
<text text-anchor="start" x="586" y="-192" font-family="Helvetica,sans-Serif" font-size="10.00">/Detectors/TPC/reconstruction</text>
<text text-anchor="middle" x="653" y="-181" font-family="Helvetica,sans-Serif" font-size="10.00">/macro/testTracks.C</text>
</a>
</g>
</g>
<!-- Node6&#45;&gt;Node7 -->
<g id="edge6" class="edge"><title>Node6&#45;&gt;Node7</title>
<path fill="none" stroke="midnightblue" d="M429.641,-267.599C491.757,-251.195 509.633,-250.1 568,-232 573.851,-230.186 579.892,-228.204 585.93,-226.15"/>
<polygon fill="midnightblue" stroke="midnightblue" points="428.472,-264.289 419.714,-270.251 430.278,-271.052 428.472,-264.289"/>
</g>
<!-- Node8 -->
<g id="node8" class="node"><title>Node8</title>
<g id="a_node8"><a xlink:href="../../dd/d4b/TPC_2simulation_2include_2TPCSimulation_2DigitizerTask_8h.html" target="_top" xlink:title="/home/travis/build\l/AliceO2Group/AliceO2\l/Detectors/TPC/simulation\l/include/TPCSimulation/Digitizer\lTask.h">
<polygon fill="none" stroke="black" points="746,-168.5 746,-231.5 904,-231.5 904,-168.5 746,-168.5"/>
<text text-anchor="start" x="754" y="-219.5" font-family="Helvetica,sans-Serif" font-size="10.00">/home/travis/build</text>
<text text-anchor="start" x="754" y="-208.5" font-family="Helvetica,sans-Serif" font-size="10.00">/AliceO2Group/AliceO2</text>
<text text-anchor="start" x="754" y="-197.5" font-family="Helvetica,sans-Serif" font-size="10.00">/Detectors/TPC/simulation</text>
<text text-anchor="start" x="754" y="-186.5" font-family="Helvetica,sans-Serif" font-size="10.00">/include/TPCSimulation/Digitizer</text>
<text text-anchor="middle" x="825" y="-175.5" font-family="Helvetica,sans-Serif" font-size="10.00">Task.h</text>
</a>
</g>
</g>
<!-- Node6&#45;&gt;Node8 -->
<g id="edge7" class="edge"><title>Node6&#45;&gt;Node8</title>
<path fill="none" stroke="midnightblue" d="M429.525,-267.836C565.042,-242.162 604.825,-262.128 736,-232 739.189,-231.267 742.424,-230.46 745.676,-229.594"/>
<polygon fill="midnightblue" stroke="midnightblue" points="428.749,-264.421 419.6,-269.765 430.084,-271.293 428.749,-264.421"/>
</g>
<!-- Node6&#45;&gt;Node9 -->
<g id="edge14" class="edge"><title>Node6&#45;&gt;Node9</title>
<path fill="none" stroke="midnightblue" d="M242.021,-281.794C179.949,-271.743 106.268,-255.332 85,-232 60.1122,-204.697 59.6097,-159.396 62.2684,-131.198"/>
<polygon fill="midnightblue" stroke="midnightblue" points="241.845,-285.309 252.269,-283.413 242.938,-278.395 241.845,-285.309"/>
</g>
<!-- Node13 -->
<g id="node13" class="node"><title>Node13</title>
<g id="a_node13"><a xlink:href="../../d9/d59/testHitsDigitsClusters_8C.html" target="_top" xlink:title="/home/travis/build\l/AliceO2Group/AliceO2\l/Detectors/TPC/simulation\l/macro/testHitsDigitsClusters.C">
<polygon fill="none" stroke="black" points="94.5,-174 94.5,-226 251.5,-226 251.5,-174 94.5,-174"/>
<text text-anchor="start" x="102.5" y="-214" font-family="Helvetica,sans-Serif" font-size="10.00">/home/travis/build</text>
<text text-anchor="start" x="102.5" y="-203" font-family="Helvetica,sans-Serif" font-size="10.00">/AliceO2Group/AliceO2</text>
<text text-anchor="start" x="102.5" y="-192" font-family="Helvetica,sans-Serif" font-size="10.00">/Detectors/TPC/simulation</text>
<text text-anchor="middle" x="173" y="-181" font-family="Helvetica,sans-Serif" font-size="10.00">/macro/testHitsDigitsClusters.C</text>
</a>
</g>
</g>
<!-- Node6&#45;&gt;Node13 -->
<g id="edge12" class="edge"><title>Node6&#45;&gt;Node13</title>
<path fill="none" stroke="midnightblue" d="M282.933,-263.723C261.562,-251.529 237.207,-237.634 216.863,-226.026"/>
<polygon fill="midnightblue" stroke="midnightblue" points="281.47,-266.917 291.89,-268.833 284.939,-260.837 281.47,-266.917"/>
</g>
<!-- Node14 -->
<g id="node14" class="node"><title>Node14</title>
<g id="a_node14"><a xlink:href="../../d7/d0a/TPC_2simulation_2src_2Digitizer_8cxx.html" target="_top" xlink:title="/home/travis/build\l/AliceO2Group/AliceO2\l/Detectors/TPC/simulation\l/src/Digitizer.cxx">
<polygon fill="none" stroke="black" points="269.5,-174 269.5,-226 402.5,-226 402.5,-174 269.5,-174"/>
<text text-anchor="start" x="277.5" y="-214" font-family="Helvetica,sans-Serif" font-size="10.00">/home/travis/build</text>
<text text-anchor="start" x="277.5" y="-203" font-family="Helvetica,sans-Serif" font-size="10.00">/AliceO2Group/AliceO2</text>
<text text-anchor="start" x="277.5" y="-192" font-family="Helvetica,sans-Serif" font-size="10.00">/Detectors/TPC/simulation</text>
<text text-anchor="middle" x="336" y="-181" font-family="Helvetica,sans-Serif" font-size="10.00">/src/Digitizer.cxx</text>
</a>
</g>
</g>
<!-- Node6&#45;&gt;Node14 -->
<g id="edge13" class="edge"><title>Node6&#45;&gt;Node14</title>
<path fill="none" stroke="midnightblue" d="M336,-258.549C336,-247.722 336,-236.046 336,-226.06"/>
<polygon fill="midnightblue" stroke="midnightblue" points="332.5,-258.587 336,-268.587 339.5,-258.587 332.5,-258.587"/>
</g>
<!-- Node15 -->
<g id="node15" class="node"><title>Node15</title>
<g id="a_node15"><a xlink:href="../../d1/dd8/SAMPAProcessing_8cxx.html" target="_top" xlink:title="Implementation of the SAMPA response. ">
<polygon fill="none" stroke="black" points="420.5,-174 420.5,-226 559.5,-226 559.5,-174 420.5,-174"/>
<text text-anchor="start" x="428.5" y="-214" font-family="Helvetica,sans-Serif" font-size="10.00">/home/travis/build</text>
<text text-anchor="start" x="428.5" y="-203" font-family="Helvetica,sans-Serif" font-size="10.00">/AliceO2Group/AliceO2</text>
<text text-anchor="start" x="428.5" y="-192" font-family="Helvetica,sans-Serif" font-size="10.00">/Detectors/TPC/simulation</text>
<text text-anchor="middle" x="490" y="-181" font-family="Helvetica,sans-Serif" font-size="10.00">/src/SAMPAProcessing.cxx</text>
</a>
</g>
</g>
<!-- Node6&#45;&gt;Node15 -->
<g id="edge15" class="edge"><title>Node6&#45;&gt;Node15</title>
<path fill="none" stroke="midnightblue" d="M386.407,-263.559C406.534,-251.405 429.424,-237.582 448.559,-226.026"/>
<polygon fill="midnightblue" stroke="midnightblue" points="384.425,-260.667 377.675,-268.833 388.044,-266.659 384.425,-260.667"/>
</g>
<!-- Node8&#45;&gt;Node9 -->
<g id="edge8" class="edge"><title>Node8&#45;&gt;Node9</title>
<path fill="none" stroke="midnightblue" d="M735.704,-168.159C511.097,-120.532 252.621,-109.505 132.907,-106.84"/>
<polygon fill="midnightblue" stroke="midnightblue" points="735.186,-171.628 745.698,-170.308 736.657,-164.784 735.186,-171.628"/>
</g>
<!-- Node10 -->
<g id="node10" class="node"><title>Node10</title>
<g id="a_node10"><a xlink:href="../../d7/d11/macro_2run__digi_8C.html" target="_top" xlink:title="/home/travis/build\l/AliceO2Group/AliceO2\l/macro/run_digi.C">
<polygon fill="none" stroke="black" points="698,-84.5 698,-125.5 816,-125.5 816,-84.5 698,-84.5"/>
<text text-anchor="start" x="706" y="-113.5" font-family="Helvetica,sans-Serif" font-size="10.00">/home/travis/build</text>
<text text-anchor="start" x="706" y="-102.5" font-family="Helvetica,sans-Serif" font-size="10.00">/AliceO2Group/AliceO2</text>
<text text-anchor="middle" x="757" y="-91.5" font-family="Helvetica,sans-Serif" font-size="10.00">/macro/run_digi.C</text>
</a>
</g>
</g>
<!-- Node8&#45;&gt;Node10 -->
<g id="edge9" class="edge"><title>Node8&#45;&gt;Node10</title>
<path fill="none" stroke="midnightblue" d="M796.618,-160.183C787.896,-148.255 778.667,-135.633 771.313,-125.575"/>
<polygon fill="midnightblue" stroke="midnightblue" points="793.818,-162.284 802.546,-168.291 799.469,-158.152 793.818,-162.284"/>
</g>
<!-- Node11 -->
<g id="node11" class="node"><title>Node11</title>
<g id="a_node11"><a xlink:href="../../d3/db7/run__digi__tpc_8C.html" target="_top" xlink:title="/home/travis/build\l/AliceO2Group/AliceO2\l/macro/run_digi_tpc.C">
<polygon fill="none" stroke="black" points="834,-84.5 834,-125.5 952,-125.5 952,-84.5 834,-84.5"/>
<text text-anchor="start" x="842" y="-113.5" font-family="Helvetica,sans-Serif" font-size="10.00">/home/travis/build</text>
<text text-anchor="start" x="842" y="-102.5" font-family="Helvetica,sans-Serif" font-size="10.00">/AliceO2Group/AliceO2</text>
<text text-anchor="middle" x="893" y="-91.5" font-family="Helvetica,sans-Serif" font-size="10.00">/macro/run_digi_tpc.C</text>
</a>
</g>
</g>
<!-- Node8&#45;&gt;Node11 -->
<g id="edge10" class="edge"><title>Node8&#45;&gt;Node11</title>
<path fill="none" stroke="midnightblue" d="M853.382,-160.183C862.104,-148.255 871.333,-135.633 878.687,-125.575"/>
<polygon fill="midnightblue" stroke="midnightblue" points="850.531,-158.152 847.454,-168.291 856.182,-162.284 850.531,-158.152"/>
</g>
<!-- Node12 -->
<g id="node12" class="node"><title>Node12</title>
<g id="a_node12"><a xlink:href="../../d3/d56/runTPC_8cxx.html" target="_top" xlink:title="/home/travis/build\l/AliceO2Group/AliceO2\l/run/runTPC.cxx">
<polygon fill="none" stroke="black" points="834,-0.5 834,-41.5 952,-41.5 952,-0.5 834,-0.5"/>
<text text-anchor="start" x="842" y="-29.5" font-family="Helvetica,sans-Serif" font-size="10.00">/home/travis/build</text>
<text text-anchor="start" x="842" y="-18.5" font-family="Helvetica,sans-Serif" font-size="10.00">/AliceO2Group/AliceO2</text>
<text text-anchor="middle" x="893" y="-7.5" font-family="Helvetica,sans-Serif" font-size="10.00">/run/runTPC.cxx</text>
</a>
</g>
</g>
<!-- Node11&#45;&gt;Node12 -->
<g id="edge11" class="edge"><title>Node11&#45;&gt;Node12</title>
<path fill="none" stroke="midnightblue" d="M893,-73.881C893,-63.1328 893,-51.309 893,-41.6671"/>
<polygon fill="midnightblue" stroke="midnightblue" points="889.5,-74.1501 893,-84.1501 896.5,-74.1501 889.5,-74.1501"/>
</g>
</g>
</svg>
