<?xml version="1.0" encoding="UTF-8" standalone="no"?>
<!DOCTYPE svg PUBLIC "-//W3C//DTD SVG 1.1//EN"
 "http://www.w3.org/Graphics/SVG/1.1/DTD/svg11.dtd">
<!-- Generated by graphviz version 2.36.0 (20140111.2315)
 -->
<!-- Title: /home/travis/build/AliceO2Group/AliceO2/Detectors/Base/include/DetectorsBase/Detector.h Pages: 1 -->
<svg width="745pt" height="118pt"
 viewBox="0.00 0.00 745.00 118.00" xmlns="http://www.w3.org/2000/svg" xmlns:xlink="http://www.w3.org/1999/xlink">
<g id="graph0" class="graph" transform="scale(1 1) rotate(0) translate(4 114)">
<title>/home/travis/build/AliceO2Group/AliceO2/Detectors/Base/include/DetectorsBase/Detector.h</title>
<!-- Node1 -->
<g id="node1" class="node"><title>Node1</title>
<polygon fill="#bfbfbf" stroke="black" points="314,-57 314,-109 448,-109 448,-57 314,-57"/>
<text text-anchor="start" x="322" y="-97" font-family="Helvetica,sans-Serif" font-size="10.00">/home/travis/build</text>
<text text-anchor="start" x="322" y="-86" font-family="Helvetica,sans-Serif" font-size="10.00">/AliceO2Group/AliceO2</text>
<text text-anchor="start" x="322" y="-75" font-family="Helvetica,sans-Serif" font-size="10.00">/Detectors/Base/include</text>
<text text-anchor="middle" x="381" y="-64" font-family="Helvetica,sans-Serif" font-size="10.00">/DetectorsBase/Detector.h</text>
</g>
<!-- Node2 -->
<g id="node2" class="node"><title>Node2</title>
<polygon fill="none" stroke="#bfbfbf" points="-0.5,-0.5 -0.5,-19.5 34.5,-19.5 34.5,-0.5 -0.5,-0.5"/>
<text text-anchor="middle" x="17" y="-7.5" font-family="Helvetica,sans-Serif" font-size="10.00">map</text>
</g>
<!-- Node1&#45;&gt;Node2 -->
<g id="edge1" class="edge"><title>Node1&#45;&gt;Node2</title>
<path fill="none" stroke="midnightblue" d="M313.9,-72.4862C247.66,-62.456 143.45,-44.9659 44.4811,-19.8032"/>
<polygon fill="midnightblue" stroke="midnightblue" points="45.17,-16.3665 34.6132,-17.264 43.4255,-23.1457 45.17,-16.3665"/>
</g>
<!-- Node3 -->
<g id="node3" class="node"><title>Node3</title>
<polygon fill="none" stroke="#bfbfbf" points="53,-0.5 53,-19.5 97,-19.5 97,-0.5 53,-0.5"/>
<text text-anchor="middle" x="75" y="-7.5" font-family="Helvetica,sans-Serif" font-size="10.00">vector</text>
</g>
<!-- Node1&#45;&gt;Node3 -->
<g id="edge2" class="edge"><title>Node1&#45;&gt;Node3</title>
<path fill="none" stroke="midnightblue" d="M313.763,-68.0356C260.207,-56.6386 183.134,-39.6281 107.06,-20.1626"/>
<polygon fill="midnightblue" stroke="midnightblue" points="107.863,-16.7554 97.3064,-17.6518 106.118,-23.5343 107.863,-16.7554"/>
</g>
<!-- Node4 -->
<g id="node4" class="node"><title>Node4</title>
<polygon fill="none" stroke="#bfbfbf" points="115,-0.5 115,-19.5 167,-19.5 167,-0.5 115,-0.5"/>
<text text-anchor="middle" x="141" y="-7.5" font-family="Helvetica,sans-Serif" font-size="10.00">memory</text>
</g>
<!-- Node1&#45;&gt;Node4 -->
<g id="edge3" class="edge"><title>Node1&#45;&gt;Node4</title>
<path fill="none" stroke="midnightblue" d="M313.827,-62.1281C269.336,-48.9661 212.74,-32.2232 176.681,-21.5555"/>
<polygon fill="midnightblue" stroke="midnightblue" points="177.664,-18.1964 167.082,-18.7158 175.678,-24.9089 177.664,-18.1964"/>
</g>
<!-- Node5 -->
<g id="node5" class="node"><title>Node5</title>
<polygon fill="none" stroke="#bfbfbf" points="185.5,-0.5 185.5,-19.5 264.5,-19.5 264.5,-0.5 185.5,-0.5"/>
<text text-anchor="middle" x="225" y="-7.5" font-family="Helvetica,sans-Serif" font-size="10.00">FairDetector.h</text>
</g>
<!-- Node1&#45;&gt;Node5 -->
<g id="edge4" class="edge"><title>Node1&#45;&gt;Node5</title>
<path fill="none" stroke="midnightblue" d="M326,-56.9681C301.425,-45.783 273.503,-33.0753 253.256,-23.8601"/>
<polygon fill="midnightblue" stroke="midnightblue" points="254.533,-20.5958 243.981,-19.6389 251.633,-26.967 254.533,-20.5958"/>
</g>
<!-- Node6 -->
<g id="node6" class="node"><title>Node6</title>
<polygon fill="none" stroke="#bfbfbf" points="283,-0.5 283,-19.5 383,-19.5 383,-0.5 283,-0.5"/>
<text text-anchor="middle" x="333" y="-7.5" font-family="Helvetica,sans-Serif" font-size="10.00">FairRootManager.h</text>
</g>
<!-- Node1&#45;&gt;Node6 -->
<g id="edge5" class="edge"><title>Node1&#45;&gt;Node6</title>
<path fill="none" stroke="midnightblue" d="M363.942,-56.7681C357.53,-47.2844 350.396,-36.7308 344.594,-28.15"/>
<polygon fill="midnightblue" stroke="midnightblue" points="347.421,-26.0813 338.92,-19.7572 341.622,-30.0019 347.421,-26.0813"/>
</g>
<!-- Node7 -->
<g id="node7" class="node"><title>Node7</title>
<polygon fill="none" stroke="#bfbfbf" points="401,-0.5 401,-19.5 457,-19.5 457,-0.5 401,-0.5"/>
<text text-anchor="middle" x="429" y="-7.5" font-family="Helvetica,sans-Serif" font-size="10.00">Rtypes.h</text>
</g>
<!-- Node1&#45;&gt;Node7 -->
<g id="edge6" class="edge"><title>Node1&#45;&gt;Node7</title>
<path fill="none" stroke="midnightblue" d="M398.058,-56.7681C404.47,-47.2844 411.604,-36.7308 417.406,-28.15"/>
<polygon fill="midnightblue" stroke="midnightblue" points="420.378,-30.0019 423.08,-19.7572 414.579,-26.0813 420.378,-30.0019"/>
</g>
<!-- Node8 -->
<g id="node8" class="node"><title>Node8</title>
<polygon fill="none" stroke="#bfbfbf" points="475.5,-0.5 475.5,-19.5 528.5,-19.5 528.5,-0.5 475.5,-0.5"/>
<text text-anchor="middle" x="502" y="-7.5" font-family="Helvetica,sans-Serif" font-size="10.00">cxxabi.h</text>
</g>
<!-- Node1&#45;&gt;Node8 -->
<g id="edge7" class="edge"><title>Node1&#45;&gt;Node8</title>
<path fill="none" stroke="midnightblue" d="M423.66,-56.9681C442.029,-46.1897 462.807,-33.9975 478.347,-24.879"/>
<polygon fill="midnightblue" stroke="midnightblue" points="480.424,-27.7185 487.277,-19.6389 476.881,-21.6811 480.424,-27.7185"/>
</g>
<!-- Node9 -->
<g id="node9" class="node"><title>Node9</title>
<polygon fill="none" stroke="#bfbfbf" points="546.5,-0.5 546.5,-19.5 597.5,-19.5 597.5,-0.5 546.5,-0.5"/>
<text text-anchor="middle" x="572" y="-7.5" font-family="Helvetica,sans-Serif" font-size="10.00">typeinfo</text>
</g>
<!-- Node1&#45;&gt;Node9 -->
<g id="edge8" class="edge"><title>Node1&#45;&gt;Node9</title>
<path fill="none" stroke="midnightblue" d="M448.071,-57.0679C479.006,-45.5684 514.32,-32.4411 539.316,-23.1494"/>
<polygon fill="midnightblue" stroke="midnightblue" points="540.537,-26.4297 548.691,-19.6647 538.098,-19.8684 540.537,-26.4297"/>
</g>
<!-- Node10 -->
<g id="node10" class="node"><title>Node10</title>
<polygon fill="none" stroke="#bfbfbf" points="616,-0.5 616,-19.5 678,-19.5 678,-0.5 616,-0.5"/>
<text text-anchor="middle" x="647" y="-7.5" font-family="Helvetica,sans-Serif" font-size="10.00">type_traits</text>
</g>
<!-- Node1&#45;&gt;Node10 -->
<g id="edge9" class="edge"><title>Node1&#45;&gt;Node10</title>
<path fill="none" stroke="midnightblue" d="M448.123,-64.0837C497.745,-50.8387 563.735,-33.2249 605.801,-21.9967"/>
<polygon fill="midnightblue" stroke="midnightblue" points="606.937,-25.3161 615.696,-19.3556 605.132,-18.5529 606.937,-25.3161"/>
</g>
<!-- Node11 -->
<g id="node11" class="node"><title>Node11</title>
<polygon fill="none" stroke="#bfbfbf" points="696.5,-0.5 696.5,-19.5 737.5,-19.5 737.5,-0.5 696.5,-0.5"/>
<text text-anchor="middle" x="717" y="-7.5" font-family="Helvetica,sans-Serif" font-size="10.00">string</text>
</g>
<!-- Node1&#45;&gt;Node11 -->
<g id="edge10" class="edge"><title>Node1&#45;&gt;Node11</title>
<path fill="none" stroke="midnightblue" d="M448.29,-69.9629C510.327,-58.4775 604.809,-40.0022 686,-20 686.211,-19.9481 686.422,-19.8956 686.635,-19.8427"/>
<polygon fill="midnightblue" stroke="midnightblue" points="687.627,-23.2004 696.387,-17.2401 685.822,-16.4371 687.627,-23.2004"/>
</g>
</g>
</svg>
