<?xml version="1.0" encoding="UTF-8" standalone="no"?>
<!DOCTYPE svg PUBLIC "-//W3C//DTD SVG 1.1//EN"
 "http://www.w3.org/Graphics/SVG/1.1/DTD/svg11.dtd">
<!-- Generated by graphviz version 2.36.0 (20140111.2315)
 -->
<!-- Title: /home/travis/build/AliceO2Group/AliceO2/Framework/Core/src/ConfigParamsHelper.cxx Pages: 1 -->
<svg width="758pt" height="286pt"
 viewBox="0.00 0.00 758.00 286.00" xmlns="http://www.w3.org/2000/svg" xmlns:xlink="http://www.w3.org/1999/xlink">
<g id="graph0" class="graph" transform="scale(1 1) rotate(0) translate(4 282)">
<title>/home/travis/build/AliceO2Group/AliceO2/Framework/Core/src/ConfigParamsHelper.cxx</title>
<!-- Node1 -->
<g id="node1" class="node"><title>Node1</title>
<polygon fill="#bfbfbf" stroke="black" points="423,-225 423,-277 597,-277 597,-225 423,-225"/>
<text text-anchor="start" x="431" y="-265" font-family="Helvetica,sans-Serif" font-size="10.00">/home/travis/build</text>
<text text-anchor="start" x="431" y="-254" font-family="Helvetica,sans-Serif" font-size="10.00">/AliceO2Group/AliceO2</text>
<text text-anchor="start" x="431" y="-243" font-family="Helvetica,sans-Serif" font-size="10.00">/Framework/Core/src/ConfigParams</text>
<text text-anchor="middle" x="510" y="-232" font-family="Helvetica,sans-Serif" font-size="10.00">Helper.cxx</text>
</g>
<!-- Node2 -->
<g id="node2" class="node"><title>Node2</title>
<g id="a_node2"><a xlink:href="../../dd/d2b/ConfigParamsHelper_8h.html" target="_top" xlink:title="Framework/ConfigParamsHelper.h">
<polygon fill="none" stroke="black" points="426.5,-168.5 426.5,-187.5 593.5,-187.5 593.5,-168.5 426.5,-168.5"/>
<text text-anchor="middle" x="510" y="-175.5" font-family="Helvetica,sans-Serif" font-size="10.00">Framework/ConfigParamsHelper.h</text>
</a>
</g>
</g>
<!-- Node1&#45;&gt;Node2 -->
<g id="edge1" class="edge"><title>Node1&#45;&gt;Node2</title>
<path fill="none" stroke="midnightblue" d="M510,-224.768C510,-215.89 510,-206.074 510,-197.816"/>
<polygon fill="midnightblue" stroke="midnightblue" points="513.5,-197.757 510,-187.757 506.5,-197.757 513.5,-197.757"/>
</g>
<!-- Node3 -->
<g id="node3" class="node"><title>Node3</title>
<g id="a_node3"><a xlink:href="../../d0/d1c/ConfigParamSpec_8h.html" target="_top" xlink:title="Framework/ConfigParamSpec.h">
<polygon fill="none" stroke="black" points="304,-112.5 304,-131.5 460,-131.5 460,-112.5 304,-112.5"/>
<text text-anchor="middle" x="382" y="-119.5" font-family="Helvetica,sans-Serif" font-size="10.00">Framework/ConfigParamSpec.h</text>
</a>
</g>
</g>
<!-- Node1&#45;&gt;Node3 -->
<g id="edge17" class="edge"><title>Node1&#45;&gt;Node3</title>
<path fill="none" stroke="midnightblue" d="M463.036,-224.978C447.109,-214.951 430.061,-202.351 417,-188 404.489,-174.253 394.92,-155.22 388.975,-141.303"/>
<polygon fill="midnightblue" stroke="midnightblue" points="392.139,-139.789 385.147,-131.829 385.649,-142.412 392.139,-139.789"/>
</g>
<!-- Node4 -->
<g id="node4" class="node"><title>Node4</title>
<polygon fill="none" stroke="#bfbfbf" points="372.5,-56.5 372.5,-75.5 413.5,-75.5 413.5,-56.5 372.5,-56.5"/>
<text text-anchor="middle" x="393" y="-63.5" font-family="Helvetica,sans-Serif" font-size="10.00">string</text>
</g>
<!-- Node1&#45;&gt;Node4 -->
<g id="edge19" class="edge"><title>Node1&#45;&gt;Node4</title>
<path fill="none" stroke="midnightblue" d="M422.771,-225.967C376.09,-208.17 322.651,-178.718 295,-132 290.472,-124.351 290.202,-119.483 295,-112 302.806,-99.8258 336.882,-85.9568 362.677,-76.8723"/>
<polygon fill="midnightblue" stroke="midnightblue" points="364.11,-80.0809 372.431,-73.5226 361.836,-73.4604 364.11,-80.0809"/>
</g>
<!-- Node14 -->
<g id="node14" class="node"><title>Node14</title>
<polygon fill="none" stroke="#bfbfbf" points="554,-112.5 554,-131.5 688,-131.5 688,-112.5 554,-112.5"/>
<text text-anchor="middle" x="621" y="-119.5" font-family="Helvetica,sans-Serif" font-size="10.00">boost/program_options.hpp</text>
</g>
<!-- Node1&#45;&gt;Node14 -->
<g id="edge18" class="edge"><title>Node1&#45;&gt;Node14</title>
<path fill="none" stroke="midnightblue" d="M560.585,-224.807C575.751,-215.12 591.204,-202.773 602,-188 611.863,-174.503 616.631,-155.947 618.922,-142.116"/>
<polygon fill="midnightblue" stroke="midnightblue" points="622.442,-142.203 620.32,-131.823 615.505,-141.261 622.442,-142.203"/>
</g>
<!-- Node15 -->
<g id="node15" class="node"><title>Node15</title>
<polygon fill="none" stroke="#bfbfbf" points="706,-112.5 706,-131.5 750,-131.5 750,-112.5 706,-112.5"/>
<text text-anchor="middle" x="728" y="-119.5" font-family="Helvetica,sans-Serif" font-size="10.00">vector</text>
</g>
<!-- Node1&#45;&gt;Node15 -->
<g id="edge20" class="edge"><title>Node1&#45;&gt;Node15</title>
<path fill="none" stroke="midnightblue" d="M556.306,-224.969C576.586,-213.851 600.592,-200.481 622,-188 651.241,-170.952 684.428,-150.403 705.757,-137.037"/>
<polygon fill="midnightblue" stroke="midnightblue" points="707.79,-139.894 714.396,-131.61 704.066,-133.966 707.79,-139.894"/>
</g>
<!-- Node2&#45;&gt;Node3 -->
<g id="edge2" class="edge"><title>Node2&#45;&gt;Node3</title>
<path fill="none" stroke="midnightblue" d="M489.718,-168.444C468.653,-159.557 435.483,-145.563 411.514,-135.451"/>
<polygon fill="midnightblue" stroke="midnightblue" points="412.761,-132.179 402.187,-131.516 410.04,-138.628 412.761,-132.179"/>
</g>
<!-- Node2&#45;&gt;Node4 -->
<g id="edge14" class="edge"><title>Node2&#45;&gt;Node4</title>
<path fill="none" stroke="midnightblue" d="M506.067,-168.089C499.788,-154.639 486.41,-128.927 469,-112 455.343,-98.7222 437.046,-87.7348 421.827,-79.9413"/>
<polygon fill="midnightblue" stroke="midnightblue" points="423.335,-76.783 412.817,-75.5096 420.246,-83.0642 423.335,-76.783"/>
</g>
<!-- Node6 -->
<g id="node6" class="node"><title>Node6</title>
<polygon fill="none" stroke="#bfbfbf" points="495,-0.5 495,-19.5 557,-19.5 557,-0.5 495,-0.5"/>
<text text-anchor="middle" x="526" y="-7.5" font-family="Helvetica,sans-Serif" font-size="10.00">type_traits</text>
</g>
<!-- Node2&#45;&gt;Node6 -->
<g id="edge16" class="edge"><title>Node2&#45;&gt;Node6</title>
<path fill="none" stroke="midnightblue" d="M510.86,-168.075C513.379,-141.945 520.775,-65.2106 524.209,-29.577"/>
<polygon fill="midnightblue" stroke="midnightblue" points="527.699,-29.8578 525.174,-19.5681 520.731,-29.1862 527.699,-29.8578"/>
</g>
<!-- Node2&#45;&gt;Node14 -->
<g id="edge13" class="edge"><title>Node2&#45;&gt;Node14</title>
<path fill="none" stroke="midnightblue" d="M527.834,-168.324C545.716,-159.625 573.475,-146.12 594.046,-136.113"/>
<polygon fill="midnightblue" stroke="midnightblue" points="595.749,-139.177 603.21,-131.655 592.687,-132.882 595.749,-139.177"/>
</g>
<!-- Node2&#45;&gt;Node15 -->
<g id="edge15" class="edge"><title>Node2&#45;&gt;Node15</title>
<path fill="none" stroke="midnightblue" d="M547.738,-168.461C583.528,-160.241 639.033,-147.186 695.819,-132.228"/>
<polygon fill="midnightblue" stroke="midnightblue" points="696.914,-135.558 705.683,-129.613 695.12,-128.792 696.914,-135.558"/>
</g>
<!-- Node3&#45;&gt;Node4 -->
<g id="edge3" class="edge"><title>Node3&#45;&gt;Node4</title>
<path fill="none" stroke="midnightblue" d="M383.816,-112.083C385.274,-104.927 387.371,-94.6353 389.193,-85.6911"/>
<polygon fill="midnightblue" stroke="midnightblue" points="392.651,-86.2485 391.217,-75.7511 385.792,-84.8512 392.651,-86.2485"/>
</g>
<!-- Node5 -->
<g id="node5" class="node"><title>Node5</title>
<g id="a_node5"><a xlink:href="../../de/d56/Variant_8h.html" target="_top" xlink:title="Framework/Variant.h">
<polygon fill="none" stroke="black" points="247.5,-56.5 247.5,-75.5 354.5,-75.5 354.5,-56.5 247.5,-56.5"/>
<text text-anchor="middle" x="301" y="-63.5" font-family="Helvetica,sans-Serif" font-size="10.00">Framework/Variant.h</text>
</a>
</g>
</g>
<!-- Node3&#45;&gt;Node5 -->
<g id="edge4" class="edge"><title>Node3&#45;&gt;Node5</title>
<path fill="none" stroke="midnightblue" d="M368.986,-112.324C356.468,-103.979 337.318,-91.2122 322.529,-81.3524"/>
<polygon fill="midnightblue" stroke="midnightblue" points="324.244,-78.2894 313.982,-75.6545 320.361,-84.1137 324.244,-78.2894"/>
</g>
<!-- Node5&#45;&gt;Node6 -->
<g id="edge5" class="edge"><title>Node5&#45;&gt;Node6</title>
<path fill="none" stroke="midnightblue" d="M336.652,-56.4435C377.032,-46.7522 442.715,-30.9883 485.134,-20.8078"/>
<polygon fill="midnightblue" stroke="midnightblue" points="485.955,-24.2102 494.862,-18.473 484.322,-17.4035 485.955,-24.2102"/>
</g>
<!-- Node7 -->
<g id="node7" class="node"><title>Node7</title>
<polygon fill="none" stroke="#bfbfbf" points="367,-0.5 367,-19.5 413,-19.5 413,-0.5 367,-0.5"/>
<text text-anchor="middle" x="390" y="-7.5" font-family="Helvetica,sans-Serif" font-size="10.00">cstring</text>
</g>
<!-- Node5&#45;&gt;Node7 -->
<g id="edge6" class="edge"><title>Node5&#45;&gt;Node7</title>
<path fill="none" stroke="midnightblue" d="M315.299,-56.324C329.183,-47.9002 350.492,-34.9709 366.804,-25.0741"/>
<polygon fill="midnightblue" stroke="midnightblue" points="369.002,-27.8341 375.736,-19.6545 365.371,-21.8495 369.002,-27.8341"/>
</g>
<!-- Node8 -->
<g id="node8" class="node"><title>Node8</title>
<polygon fill="none" stroke="#bfbfbf" points="431,-0.5 431,-19.5 477,-19.5 477,-0.5 431,-0.5"/>
<text text-anchor="middle" x="454" y="-7.5" font-family="Helvetica,sans-Serif" font-size="10.00">cstdint</text>
</g>
<!-- Node5&#45;&gt;Node8 -->
<g id="edge7" class="edge"><title>Node5&#45;&gt;Node8</title>
<path fill="none" stroke="midnightblue" d="M325.243,-56.4435C351.172,-47.2922 392.443,-32.726 421.248,-22.5594"/>
<polygon fill="midnightblue" stroke="midnightblue" points="422.607,-25.7917 430.872,-19.1629 420.277,-19.1907 422.607,-25.7917"/>
</g>
<!-- Node9 -->
<g id="node9" class="node"><title>Node9</title>
<polygon fill="none" stroke="#bfbfbf" points="-0.5,-0.5 -0.5,-19.5 44.5,-19.5 44.5,-0.5 -0.5,-0.5"/>
<text text-anchor="middle" x="22" y="-7.5" font-family="Helvetica,sans-Serif" font-size="10.00">cstdlib</text>
</g>
<!-- Node5&#45;&gt;Node9 -->
<g id="edge8" class="edge"><title>Node5&#45;&gt;Node9</title>
<path fill="none" stroke="midnightblue" d="M247.457,-56.9203C199.272,-49.281 126.363,-36.8142 54.7145,-20.2257"/>
<polygon fill="midnightblue" stroke="midnightblue" points="55.1506,-16.7331 44.6156,-17.8578 53.5525,-23.5483 55.1506,-16.7331"/>
</g>
<!-- Node10 -->
<g id="node10" class="node"><title>Node10</title>
<polygon fill="none" stroke="#bfbfbf" points="62.5,-0.5 62.5,-19.5 121.5,-19.5 121.5,-0.5 62.5,-0.5"/>
<text text-anchor="middle" x="92" y="-7.5" font-family="Helvetica,sans-Serif" font-size="10.00">stdexcept</text>
</g>
<!-- Node5&#45;&gt;Node10 -->
<g id="edge9" class="edge"><title>Node5&#45;&gt;Node10</title>
<path fill="none" stroke="midnightblue" d="M267.883,-56.4435C230.824,-46.8683 170.82,-31.365 131.385,-21.1759"/>
<polygon fill="midnightblue" stroke="midnightblue" points="132.14,-17.7563 121.583,-18.6433 130.389,-24.5337 132.14,-17.7563"/>
</g>
<!-- Node11 -->
<g id="node11" class="node"><title>Node11</title>
<polygon fill="none" stroke="#bfbfbf" points="139.5,-0.5 139.5,-19.5 184.5,-19.5 184.5,-0.5 139.5,-0.5"/>
<text text-anchor="middle" x="162" y="-7.5" font-family="Helvetica,sans-Serif" font-size="10.00">iosfwd</text>
</g>
<!-- Node5&#45;&gt;Node11 -->
<g id="edge10" class="edge"><title>Node5&#45;&gt;Node11</title>
<path fill="none" stroke="midnightblue" d="M278.975,-56.4435C255.896,-47.4776 219.438,-33.314 193.359,-23.1827"/>
<polygon fill="midnightblue" stroke="midnightblue" points="194.511,-19.8753 183.922,-19.5164 191.976,-26.4002 194.511,-19.8753"/>
</g>
<!-- Node12 -->
<g id="node12" class="node"><title>Node12</title>
<polygon fill="none" stroke="#bfbfbf" points="203,-0.5 203,-19.5 257,-19.5 257,-0.5 203,-0.5"/>
<text text-anchor="middle" x="230" y="-7.5" font-family="Helvetica,sans-Serif" font-size="10.00">iostream</text>
</g>
<!-- Node5&#45;&gt;Node12 -->
<g id="edge11" class="edge"><title>Node5&#45;&gt;Node12</title>
<path fill="none" stroke="midnightblue" d="M289.593,-56.324C278.891,-48.1849 262.659,-35.8395 249.837,-26.0874"/>
<polygon fill="midnightblue" stroke="midnightblue" points="251.693,-23.1018 241.615,-19.8339 247.456,-28.6734 251.693,-23.1018"/>
</g>
<!-- Node13 -->
<g id="node13" class="node"><title>Node13</title>
<polygon fill="none" stroke="#bfbfbf" points="275.5,-0.5 275.5,-19.5 348.5,-19.5 348.5,-0.5 275.5,-0.5"/>
<text text-anchor="middle" x="312" y="-7.5" font-family="Helvetica,sans-Serif" font-size="10.00">initializer_list</text>
</g>
<!-- Node5&#45;&gt;Node13 -->
<g id="edge12" class="edge"><title>Node5&#45;&gt;Node13</title>
<path fill="none" stroke="midnightblue" d="M302.816,-56.083C304.274,-48.9272 306.371,-38.6353 308.193,-29.6911"/>
<polygon fill="midnightblue" stroke="midnightblue" points="311.651,-30.2485 310.217,-19.7511 304.792,-28.8512 311.651,-30.2485"/>
</g>
</g>
</svg>
