<?xml version="1.0" encoding="UTF-8" standalone="no"?>
<!DOCTYPE svg PUBLIC "-//W3C//DTD SVG 1.1//EN"
 "http://www.w3.org/Graphics/SVG/1.1/DTD/svg11.dtd">
<!-- Generated by graphviz version 2.36.0 (20140111.2315)
 -->
<!-- Title: /home/travis/build/AliceO2Group/AliceO2/Detectors/TPC/simulation/src/DigitRow.cxx Pages: 1 -->
<svg width="665pt" height="310pt"
 viewBox="0.00 0.00 665.00 310.00" xmlns="http://www.w3.org/2000/svg" xmlns:xlink="http://www.w3.org/1999/xlink">
<g id="graph0" class="graph" transform="scale(1 1) rotate(0) translate(4 306)">
<title>/home/travis/build/AliceO2Group/AliceO2/Detectors/TPC/simulation/src/DigitRow.cxx</title>
<!-- Node1 -->
<g id="node1" class="node"><title>Node1</title>
<polygon fill="#bfbfbf" stroke="black" points="253.5,-249 253.5,-301 386.5,-301 386.5,-249 253.5,-249"/>
<text text-anchor="start" x="261.5" y="-289" font-family="Helvetica,sans-Serif" font-size="10.00">/home/travis/build</text>
<text text-anchor="start" x="261.5" y="-278" font-family="Helvetica,sans-Serif" font-size="10.00">/AliceO2Group/AliceO2</text>
<text text-anchor="start" x="261.5" y="-267" font-family="Helvetica,sans-Serif" font-size="10.00">/Detectors/TPC/simulation</text>
<text text-anchor="middle" x="320" y="-256" font-family="Helvetica,sans-Serif" font-size="10.00">/src/DigitRow.cxx</text>
</g>
<!-- Node2 -->
<g id="node2" class="node"><title>Node2</title>
<g id="a_node2"><a xlink:href="../../de/dc8/DigitRow_8h.html" target="_top" xlink:title="Definition of the Row container. ">
<polygon fill="none" stroke="black" points="313,-192.5 313,-211.5 447,-211.5 447,-192.5 313,-192.5"/>
<text text-anchor="middle" x="380" y="-199.5" font-family="Helvetica,sans-Serif" font-size="10.00">TPCSimulation/DigitRow.h</text>
</a>
</g>
</g>
<!-- Node1&#45;&gt;Node2 -->
<g id="edge1" class="edge"><title>Node1&#45;&gt;Node2</title>
<path fill="none" stroke="midnightblue" d="M341.323,-248.768C349.508,-239.083 358.636,-228.281 365.968,-219.605"/>
<polygon fill="midnightblue" stroke="midnightblue" points="368.818,-221.654 372.6,-211.757 363.472,-217.136 368.818,-221.654"/>
</g>
<!-- Node3 -->
<g id="node3" class="node"><title>Node3</title>
<g id="a_node3"><a xlink:href="../../d3/d5d/DigitPad_8h.html" target="_top" xlink:title="Definition of the Pad container. ">
<polygon fill="none" stroke="black" points="170.5,-130.5 170.5,-149.5 301.5,-149.5 301.5,-130.5 170.5,-130.5"/>
<text text-anchor="middle" x="236" y="-137.5" font-family="Helvetica,sans-Serif" font-size="10.00">TPCSimulation/DigitPad.h</text>
</a>
</g>
</g>
<!-- Node1&#45;&gt;Node3 -->
<g id="edge17" class="edge"><title>Node1&#45;&gt;Node3</title>
<path fill="none" stroke="midnightblue" d="M304.2,-248.984C287.483,-222.515 261.546,-181.448 246.948,-158.334"/>
<polygon fill="midnightblue" stroke="midnightblue" points="249.745,-156.208 241.446,-149.622 243.827,-159.946 249.745,-156.208"/>
</g>
<!-- Node2&#45;&gt;Node3 -->
<g id="edge2" class="edge"><title>Node2&#45;&gt;Node3</title>
<path fill="none" stroke="midnightblue" d="M359.368,-192.403C334.881,-182.2 293.853,-165.105 265.891,-153.454"/>
<polygon fill="midnightblue" stroke="midnightblue" points="267.17,-150.196 256.593,-149.581 264.478,-156.658 267.17,-150.196"/>
</g>
<!-- Node13 -->
<g id="node13" class="node"><title>Node13</title>
<g id="a_node13"><a xlink:href="../../df/db1/TPC_2base_2include_2TPCBase_2Digit_8h.html" target="_top" xlink:title="TPCBase/Digit.h">
<polygon fill="none" stroke="black" points="334.5,-130.5 334.5,-149.5 425.5,-149.5 425.5,-130.5 334.5,-130.5"/>
<text text-anchor="middle" x="380" y="-137.5" font-family="Helvetica,sans-Serif" font-size="10.00">TPCBase/Digit.h</text>
</a>
</g>
</g>
<!-- Node2&#45;&gt;Node13 -->
<g id="edge12" class="edge"><title>Node2&#45;&gt;Node13</title>
<path fill="none" stroke="midnightblue" d="M380,-192.403C380,-183.938 380,-170.728 380,-159.82"/>
<polygon fill="midnightblue" stroke="midnightblue" points="383.5,-159.581 380,-149.581 376.5,-159.581 383.5,-159.581"/>
</g>
<!-- Node15 -->
<g id="node15" class="node"><title>Node15</title>
<g id="a_node15"><a xlink:href="../../dd/df5/DigitMCMetaData_8h.html" target="_top" xlink:title="Definition of the Meta Data object of the Monte Carlo Digit. ">
<polygon fill="none" stroke="black" points="443.5,-125 443.5,-155 586.5,-155 586.5,-125 443.5,-125"/>
<text text-anchor="start" x="451.5" y="-143" font-family="Helvetica,sans-Serif" font-size="10.00">TPCSimulation/DigitMCMeta</text>
<text text-anchor="middle" x="515" y="-132" font-family="Helvetica,sans-Serif" font-size="10.00">Data.h</text>
</a>
</g>
</g>
<!-- Node2&#45;&gt;Node15 -->
<g id="edge14" class="edge"><title>Node2&#45;&gt;Node15</title>
<path fill="none" stroke="midnightblue" d="M399.342,-192.403C418.801,-183.755 449.402,-170.155 474.241,-159.115"/>
<polygon fill="midnightblue" stroke="midnightblue" points="475.726,-162.285 483.443,-155.025 472.883,-155.888 475.726,-162.285"/>
</g>
<!-- Node16 -->
<g id="node16" class="node"><title>Node16</title>
<polygon fill="none" stroke="#bfbfbf" points="605,-130.5 605,-149.5 657,-149.5 657,-130.5 605,-130.5"/>
<text text-anchor="middle" x="631" y="-137.5" font-family="Helvetica,sans-Serif" font-size="10.00">memory</text>
</g>
<!-- Node2&#45;&gt;Node16 -->
<g id="edge16" class="edge"><title>Node2&#45;&gt;Node16</title>
<path fill="none" stroke="midnightblue" d="M434.618,-192.499C478.511,-184.971 541.454,-172.596 595,-156 597.579,-155.201 600.228,-154.286 602.862,-153.313"/>
<polygon fill="midnightblue" stroke="midnightblue" points="604.179,-156.556 612.19,-149.622 601.604,-150.046 604.179,-156.556"/>
</g>
<!-- Node4 -->
<g id="node4" class="node"><title>Node4</title>
<polygon fill="none" stroke="#bfbfbf" points="-0.5,-62.5 -0.5,-81.5 34.5,-81.5 34.5,-62.5 -0.5,-62.5"/>
<text text-anchor="middle" x="17" y="-69.5" font-family="Helvetica,sans-Serif" font-size="10.00">map</text>
</g>
<!-- Node3&#45;&gt;Node4 -->
<g id="edge3" class="edge"><title>Node3&#45;&gt;Node4</title>
<path fill="none" stroke="midnightblue" d="M191.534,-130.461C151.961,-122.099 92.9381,-107.738 44,-88 42.6324,-87.4484 41.2471,-86.8423 39.8636,-86.1996"/>
<polygon fill="midnightblue" stroke="midnightblue" points="41.4611,-83.0855 30.968,-81.6208 38.2574,-89.3094 41.4611,-83.0855"/>
</g>
<!-- Node5 -->
<g id="node5" class="node"><title>Node5</title>
<polygon fill="none" stroke="#bfbfbf" points="53,-62.5 53,-81.5 153,-81.5 153,-62.5 53,-62.5"/>
<text text-anchor="middle" x="103" y="-69.5" font-family="Helvetica,sans-Serif" font-size="10.00">FairRootManager.h</text>
</g>
<!-- Node3&#45;&gt;Node5 -->
<g id="edge4" class="edge"><title>Node3&#45;&gt;Node5</title>
<path fill="none" stroke="midnightblue" d="M218.613,-130.372C195.911,-119.106 155.957,-99.2794 129.48,-86.1403"/>
<polygon fill="midnightblue" stroke="midnightblue" points="130.905,-82.9405 120.392,-81.6305 127.794,-89.2109 130.905,-82.9405"/>
</g>
<!-- Node6 -->
<g id="node6" class="node"><title>Node6</title>
<g id="a_node6"><a xlink:href="../../db/d14/MCTruthContainer_8h.html" target="_top" xlink:title="Definition of a container to keep Monte Carlo truth external to simulation objects. ">
<polygon fill="none" stroke="black" points="171,-57 171,-87 285,-87 285,-57 171,-57"/>
<text text-anchor="start" x="179" y="-75" font-family="Helvetica,sans-Serif" font-size="10.00">SimulationDataFormat</text>
<text text-anchor="middle" x="228" y="-64" font-family="Helvetica,sans-Serif" font-size="10.00">/MCTruthContainer.h</text>
</a>
</g>
</g>
<!-- Node3&#45;&gt;Node6 -->
<g id="edge5" class="edge"><title>Node3&#45;&gt;Node6</title>
<path fill="none" stroke="midnightblue" d="M234.954,-130.372C233.936,-121.971 232.341,-108.811 230.935,-97.2126"/>
<polygon fill="midnightblue" stroke="midnightblue" points="234.397,-96.6876 229.719,-87.1815 227.448,-97.53 234.397,-96.6876"/>
</g>
<!-- Node11 -->
<g id="node11" class="node"><title>Node11</title>
<g id="a_node11"><a xlink:href="../../d7/dcd/MCCompLabel_8h.html" target="_top" xlink:title="SimulationDataFormat\l/MCCompLabel.h">
<polygon fill="none" stroke="black" points="303,-57 303,-87 417,-87 417,-57 303,-57"/>
<text text-anchor="start" x="311" y="-75" font-family="Helvetica,sans-Serif" font-size="10.00">SimulationDataFormat</text>
<text text-anchor="middle" x="360" y="-64" font-family="Helvetica,sans-Serif" font-size="10.00">/MCCompLabel.h</text>
</a>
</g>
</g>
<!-- Node3&#45;&gt;Node11 -->
<g id="edge10" class="edge"><title>Node3&#45;&gt;Node11</title>
<path fill="none" stroke="midnightblue" d="M252.211,-130.372C270.409,-120.686 300.497,-104.671 324.267,-92.0192"/>
<polygon fill="midnightblue" stroke="midnightblue" points="326.173,-94.9696 333.356,-87.1815 322.884,-88.7904 326.173,-94.9696"/>
</g>
<!-- Node7 -->
<g id="node7" class="node"><title>Node7</title>
<polygon fill="none" stroke="#bfbfbf" points="87,-0.5 87,-19.5 149,-19.5 149,-0.5 87,-0.5"/>
<text text-anchor="middle" x="118" y="-7.5" font-family="Helvetica,sans-Serif" font-size="10.00">TNamed.h</text>
</g>
<!-- Node6&#45;&gt;Node7 -->
<g id="edge6" class="edge"><title>Node6&#45;&gt;Node7</title>
<path fill="none" stroke="midnightblue" d="M202.21,-56.9327C184.314,-47.1715 160.607,-34.2401 142.907,-24.5856"/>
<polygon fill="midnightblue" stroke="midnightblue" points="144.222,-21.316 133.767,-19.6 140.87,-27.4612 144.222,-21.316"/>
</g>
<!-- Node8 -->
<g id="node8" class="node"><title>Node8</title>
<polygon fill="none" stroke="#bfbfbf" points="167.5,-0.5 167.5,-19.5 216.5,-19.5 216.5,-0.5 167.5,-0.5"/>
<text text-anchor="middle" x="192" y="-7.5" font-family="Helvetica,sans-Serif" font-size="10.00">cassert</text>
</g>
<!-- Node6&#45;&gt;Node8 -->
<g id="edge7" class="edge"><title>Node6&#45;&gt;Node8</title>
<path fill="none" stroke="midnightblue" d="M219.469,-56.7808C214.399,-48.3318 207.929,-37.5481 202.542,-28.5693"/>
<polygon fill="midnightblue" stroke="midnightblue" points="205.385,-26.5047 197.238,-19.7305 199.382,-30.1062 205.385,-26.5047"/>
</g>
<!-- Node9 -->
<g id="node9" class="node"><title>Node9</title>
<polygon fill="none" stroke="#bfbfbf" points="234.5,-0.5 234.5,-19.5 293.5,-19.5 293.5,-0.5 234.5,-0.5"/>
<text text-anchor="middle" x="264" y="-7.5" font-family="Helvetica,sans-Serif" font-size="10.00">stdexcept</text>
</g>
<!-- Node6&#45;&gt;Node9 -->
<g id="edge8" class="edge"><title>Node6&#45;&gt;Node9</title>
<path fill="none" stroke="midnightblue" d="M236.531,-56.7808C241.601,-48.3318 248.071,-37.5481 253.458,-28.5693"/>
<polygon fill="midnightblue" stroke="midnightblue" points="256.618,-30.1062 258.762,-19.7305 250.615,-26.5047 256.618,-30.1062"/>
</g>
<!-- Node10 -->
<g id="node10" class="node"><title>Node10</title>
<polygon fill="none" stroke="#bfbfbf" points="311.5,-0.5 311.5,-19.5 356.5,-19.5 356.5,-0.5 311.5,-0.5"/>
<text text-anchor="middle" x="334" y="-7.5" font-family="Helvetica,sans-Serif" font-size="10.00">gsl/gsl</text>
</g>
<!-- Node6&#45;&gt;Node10 -->
<g id="edge9" class="edge"><title>Node6&#45;&gt;Node10</title>
<path fill="none" stroke="midnightblue" d="M252.852,-56.9327C270.097,-47.1715 292.942,-34.2401 309.999,-24.5856"/>
<polygon fill="midnightblue" stroke="midnightblue" points="311.828,-27.572 318.807,-19.6 308.38,-21.4802 311.828,-27.572"/>
</g>
<!-- Node12 -->
<g id="node12" class="node"><title>Node12</title>
<polygon fill="none" stroke="#bfbfbf" points="417,-0.5 417,-19.5 473,-19.5 473,-0.5 417,-0.5"/>
<text text-anchor="middle" x="445" y="-7.5" font-family="Helvetica,sans-Serif" font-size="10.00">Rtypes.h</text>
</g>
<!-- Node11&#45;&gt;Node12 -->
<g id="edge11" class="edge"><title>Node11&#45;&gt;Node12</title>
<path fill="none" stroke="midnightblue" d="M380.144,-56.7808C393.595,-47.2862 411.222,-34.8434 424.704,-25.3267"/>
<polygon fill="midnightblue" stroke="midnightblue" points="426.728,-28.182 432.879,-19.5557 422.691,-22.4632 426.728,-28.182"/>
</g>
<!-- Node14 -->
<g id="node14" class="node"><title>Node14</title>
<polygon fill="none" stroke="#bfbfbf" points="435.5,-62.5 435.5,-81.5 494.5,-81.5 494.5,-62.5 435.5,-62.5"/>
<text text-anchor="middle" x="465" y="-69.5" font-family="Helvetica,sans-Serif" font-size="10.00">TObject.h</text>
</g>
<!-- Node13&#45;&gt;Node14 -->
<g id="edge13" class="edge"><title>Node13&#45;&gt;Node14</title>
<path fill="none" stroke="midnightblue" d="M391.112,-130.372C404.984,-119.6 428.937,-101.002 445.802,-87.9065"/>
<polygon fill="midnightblue" stroke="midnightblue" points="448.133,-90.528 453.885,-81.6305 443.84,-84.999 448.133,-90.528"/>
</g>
<!-- Node15&#45;&gt;Node12 -->
<g id="edge15" class="edge"><title>Node15&#45;&gt;Node12</title>
<path fill="none" stroke="midnightblue" d="M516.053,-124.741C516.673,-107.321 515.527,-77.5155 503,-56 495.437,-43.0105 482.533,-32.4387 470.813,-24.8137"/>
<polygon fill="midnightblue" stroke="midnightblue" points="472.553,-21.7751 462.191,-19.5661 468.914,-27.7548 472.553,-21.7751"/>
</g>
</g>
</svg>
