<?xml version="1.0" encoding="UTF-8" standalone="no"?>
<!DOCTYPE svg PUBLIC "-//W3C//DTD SVG 1.1//EN"
 "http://www.w3.org/Graphics/SVG/1.1/DTD/svg11.dtd">
<!-- Generated by graphviz version 2.36.0 (20140111.2315)
 -->
<!-- Title: /home/travis/build/AliceO2Group/AliceO2/Utilities/QC/QCProducer/src/ProducerDevice.cxx Pages: 1 -->
<svg width="1118pt" height="186pt"
 viewBox="0.00 0.00 1118.00 186.00" xmlns="http://www.w3.org/2000/svg" xmlns:xlink="http://www.w3.org/1999/xlink">
<g id="graph0" class="graph" transform="scale(1 1) rotate(0) translate(4 182)">
<title>/home/travis/build/AliceO2Group/AliceO2/Utilities/QC/QCProducer/src/ProducerDevice.cxx</title>
<!-- Node1 -->
<g id="node1" class="node"><title>Node1</title>
<polygon fill="#bfbfbf" stroke="black" points="304,-125 304,-177 432,-177 432,-125 304,-125"/>
<text text-anchor="start" x="312" y="-165" font-family="Helvetica,sans-Serif" font-size="10.00">/home/travis/build</text>
<text text-anchor="start" x="312" y="-154" font-family="Helvetica,sans-Serif" font-size="10.00">/AliceO2Group/AliceO2</text>
<text text-anchor="start" x="312" y="-143" font-family="Helvetica,sans-Serif" font-size="10.00">/Utilities/QC/QCProducer</text>
<text text-anchor="middle" x="368" y="-132" font-family="Helvetica,sans-Serif" font-size="10.00">/src/ProducerDevice.cxx</text>
</g>
<!-- Node2 -->
<g id="node2" class="node"><title>Node2</title>
<polygon fill="none" stroke="#bfbfbf" points="0,-62.5 0,-81.5 46,-81.5 46,-62.5 0,-62.5"/>
<text text-anchor="middle" x="23" y="-69.5" font-family="Helvetica,sans-Serif" font-size="10.00">chrono</text>
</g>
<!-- Node1&#45;&gt;Node2 -->
<g id="edge1" class="edge"><title>Node1&#45;&gt;Node2</title>
<path fill="none" stroke="midnightblue" d="M303.866,-141.673C240.014,-132.359 139.717,-114.946 56,-88 53.7254,-87.2679 51.3997,-86.423 49.0879,-85.5149"/>
<polygon fill="midnightblue" stroke="midnightblue" points="50.4014,-82.27 39.8308,-81.5527 47.6469,-88.7053 50.4014,-82.27"/>
</g>
<!-- Node3 -->
<g id="node3" class="node"><title>Node3</title>
<polygon fill="none" stroke="#bfbfbf" points="64.5,-62.5 64.5,-81.5 105.5,-81.5 105.5,-62.5 64.5,-62.5"/>
<text text-anchor="middle" x="85" y="-69.5" font-family="Helvetica,sans-Serif" font-size="10.00">ctime</text>
</g>
<!-- Node1&#45;&gt;Node3 -->
<g id="edge2" class="edge"><title>Node1&#45;&gt;Node3</title>
<path fill="none" stroke="midnightblue" d="M303.926,-138.422C252.065,-128.076 177.615,-110.997 115,-88 113.347,-87.3927 111.665,-86.7195 109.985,-86.0044"/>
<polygon fill="midnightblue" stroke="midnightblue" points="111.13,-82.6763 100.588,-81.6187 108.169,-89.0195 111.13,-82.6763"/>
</g>
<!-- Node4 -->
<g id="node4" class="node"><title>Node4</title>
<polygon fill="none" stroke="#bfbfbf" points="124,-62.5 124,-81.5 168,-81.5 168,-62.5 124,-62.5"/>
<text text-anchor="middle" x="146" y="-69.5" font-family="Helvetica,sans-Serif" font-size="10.00">thread</text>
</g>
<!-- Node1&#45;&gt;Node4 -->
<g id="edge3" class="edge"><title>Node1&#45;&gt;Node4</title>
<path fill="none" stroke="midnightblue" d="M303.972,-131.259C266.796,-119.845 219.296,-104.345 178,-88 176.353,-87.348 174.67,-86.6522 172.981,-85.9309"/>
<polygon fill="midnightblue" stroke="midnightblue" points="173.992,-82.5483 163.435,-81.6462 171.125,-88.9345 173.992,-82.5483"/>
</g>
<!-- Node5 -->
<g id="node5" class="node"><title>Node5</title>
<polygon fill="none" stroke="#bfbfbf" points="186.5,-57 186.5,-87 299.5,-87 299.5,-57 186.5,-57"/>
<text text-anchor="start" x="194.5" y="-75" font-family="Helvetica,sans-Serif" font-size="10.00">boost/date_time/posix</text>
<text text-anchor="middle" x="243" y="-64" font-family="Helvetica,sans-Serif" font-size="10.00">_time/posix_time.hpp</text>
</g>
<!-- Node1&#45;&gt;Node5 -->
<g id="edge4" class="edge"><title>Node1&#45;&gt;Node5</title>
<path fill="none" stroke="midnightblue" d="M327.07,-124.787C310.048,-114.301 290.591,-102.316 274.686,-92.5187"/>
<polygon fill="midnightblue" stroke="midnightblue" points="276.127,-89.2955 265.777,-87.0307 272.456,-95.2555 276.127,-89.2955"/>
</g>
<!-- Node6 -->
<g id="node6" class="node"><title>Node6</title>
<polygon fill="none" stroke="#bfbfbf" points="317.5,-57 317.5,-87 418.5,-87 418.5,-57 317.5,-57"/>
<text text-anchor="start" x="325.5" y="-75" font-family="Helvetica,sans-Serif" font-size="10.00">boost/property_tree</text>
<text text-anchor="middle" x="368" y="-64" font-family="Helvetica,sans-Serif" font-size="10.00">/json_parser.hpp</text>
</g>
<!-- Node1&#45;&gt;Node6 -->
<g id="edge5" class="edge"><title>Node1&#45;&gt;Node6</title>
<path fill="none" stroke="midnightblue" d="M368,-124.787C368,-116.029 368,-106.225 368,-97.5232"/>
<polygon fill="midnightblue" stroke="midnightblue" points="371.5,-97.252 368,-87.252 364.5,-97.2521 371.5,-97.252"/>
</g>
<!-- Node7 -->
<g id="node7" class="node"><title>Node7</title>
<polygon fill="none" stroke="#bfbfbf" points="436.5,-57 436.5,-87 537.5,-87 537.5,-57 436.5,-57"/>
<text text-anchor="start" x="444.5" y="-75" font-family="Helvetica,sans-Serif" font-size="10.00">boost/property_tree</text>
<text text-anchor="middle" x="487" y="-64" font-family="Helvetica,sans-Serif" font-size="10.00">/ptree.hpp</text>
</g>
<!-- Node1&#45;&gt;Node7 -->
<g id="edge6" class="edge"><title>Node1&#45;&gt;Node7</title>
<path fill="none" stroke="midnightblue" d="M406.965,-124.787C423.171,-114.301 441.693,-102.316 456.835,-92.5187"/>
<polygon fill="midnightblue" stroke="midnightblue" points="458.822,-95.4017 465.316,-87.0307 455.019,-89.5247 458.822,-95.4017"/>
</g>
<!-- Node8 -->
<g id="node8" class="node"><title>Node8</title>
<polygon fill="none" stroke="#bfbfbf" points="556,-62.5 556,-81.5 642,-81.5 642,-62.5 556,-62.5"/>
<text text-anchor="middle" x="599" y="-69.5" font-family="Helvetica,sans-Serif" font-size="10.00">FairMQLogger.h</text>
</g>
<!-- Node1&#45;&gt;Node8 -->
<g id="edge7" class="edge"><title>Node1&#45;&gt;Node8</title>
<path fill="none" stroke="midnightblue" d="M432.04,-128.653C474.574,-114.475 528.811,-96.3962 563.724,-84.7586"/>
<polygon fill="midnightblue" stroke="midnightblue" points="565.088,-87.9933 573.468,-81.5105 562.875,-81.3525 565.088,-87.9933"/>
</g>
<!-- Node9 -->
<g id="node9" class="node"><title>Node9</title>
<polygon fill="none" stroke="#bfbfbf" points="660.5,-62.5 660.5,-81.5 731.5,-81.5 731.5,-62.5 660.5,-62.5"/>
<text text-anchor="middle" x="696" y="-69.5" font-family="Helvetica,sans-Serif" font-size="10.00">TMessage.h</text>
</g>
<!-- Node1&#45;&gt;Node9 -->
<g id="edge8" class="edge"><title>Node1&#45;&gt;Node9</title>
<path fill="none" stroke="midnightblue" d="M432.258,-137.944C489.929,-126.646 576.686,-108.464 651,-88 654.627,-87.0011 658.393,-85.881 662.133,-84.7148"/>
<polygon fill="midnightblue" stroke="midnightblue" points="663.418,-87.9778 671.856,-81.5715 661.264,-81.3172 663.418,-87.9778"/>
</g>
<!-- Node10 -->
<g id="node10" class="node"><title>Node10</title>
<g id="a_node10"><a xlink:href="../../d1/da7/ProducerDevice_8h.html" target="_top" xlink:title="QCProducer/ProducerDevice.h">
<polygon fill="none" stroke="black" points="750,-62.5 750,-81.5 902,-81.5 902,-62.5 750,-62.5"/>
<text text-anchor="middle" x="826" y="-69.5" font-family="Helvetica,sans-Serif" font-size="10.00">QCProducer/ProducerDevice.h</text>
</a>
</g>
</g>
<!-- Node1&#45;&gt;Node10 -->
<g id="edge9" class="edge"><title>Node1&#45;&gt;Node10</title>
<path fill="none" stroke="midnightblue" d="M432.207,-139.45C506.374,-127.228 632.053,-106.409 740,-88 748.887,-86.4844 758.287,-84.8632 767.483,-83.2674"/>
<polygon fill="midnightblue" stroke="midnightblue" points="768.094,-86.7138 777.346,-81.552 766.894,-79.8173 768.094,-86.7138"/>
</g>
<!-- Node11 -->
<g id="node11" class="node"><title>Node11</title>
<polygon fill="none" stroke="#bfbfbf" points="652,-0.5 652,-19.5 704,-19.5 704,-0.5 652,-0.5"/>
<text text-anchor="middle" x="678" y="-7.5" font-family="Helvetica,sans-Serif" font-size="10.00">memory</text>
</g>
<!-- Node10&#45;&gt;Node11 -->
<g id="edge10" class="edge"><title>Node10&#45;&gt;Node11</title>
<path fill="none" stroke="midnightblue" d="M804.795,-62.4035C779.628,-52.2004 737.46,-35.1055 708.721,-23.4544"/>
<polygon fill="midnightblue" stroke="midnightblue" points="709.748,-20.0941 699.165,-19.5806 707.118,-26.5813 709.748,-20.0941"/>
</g>
<!-- Node12 -->
<g id="node12" class="node"><title>Node12</title>
<polygon fill="none" stroke="#bfbfbf" points="722.5,-0.5 722.5,-19.5 763.5,-19.5 763.5,-0.5 722.5,-0.5"/>
<text text-anchor="middle" x="743" y="-7.5" font-family="Helvetica,sans-Serif" font-size="10.00">string</text>
</g>
<!-- Node10&#45;&gt;Node12 -->
<g id="edge11" class="edge"><title>Node10&#45;&gt;Node12</title>
<path fill="none" stroke="midnightblue" d="M814.108,-62.4035C800.795,-52.7797 779,-37.0242 763.043,-25.4891"/>
<polygon fill="midnightblue" stroke="midnightblue" points="765.025,-22.6026 754.87,-19.5806 760.924,-28.2756 765.025,-22.6026"/>
</g>
<!-- Node13 -->
<g id="node13" class="node"><title>Node13</title>
<polygon fill="none" stroke="#bfbfbf" points="782,-0.5 782,-19.5 870,-19.5 870,-0.5 782,-0.5"/>
<text text-anchor="middle" x="826" y="-7.5" font-family="Helvetica,sans-Serif" font-size="10.00">FairMQDevice.h</text>
</g>
<!-- Node10&#45;&gt;Node13 -->
<g id="edge12" class="edge"><title>Node10&#45;&gt;Node13</title>
<path fill="none" stroke="midnightblue" d="M826,-62.4035C826,-53.9381 826,-40.7283 826,-29.8199"/>
<polygon fill="midnightblue" stroke="midnightblue" points="829.5,-29.5806 826,-19.5806 822.5,-29.5806 829.5,-29.5806"/>
</g>
<!-- Node14 -->
<g id="node14" class="node"><title>Node14</title>
<polygon fill="none" stroke="#bfbfbf" points="888.5,-0.5 888.5,-19.5 971.5,-19.5 971.5,-0.5 888.5,-0.5"/>
<text text-anchor="middle" x="930" y="-7.5" font-family="Helvetica,sans-Serif" font-size="10.00">dds_intercom.h</text>
</g>
<!-- Node10&#45;&gt;Node14 -->
<g id="edge13" class="edge"><title>Node10&#45;&gt;Node14</title>
<path fill="none" stroke="midnightblue" d="M840.901,-62.4035C857.968,-52.5569 886.161,-36.2915 906.262,-24.6949"/>
<polygon fill="midnightblue" stroke="midnightblue" points="908.214,-27.6095 915.127,-19.5806 904.716,-21.5462 908.214,-27.6095"/>
</g>
<!-- Node15 -->
<g id="node15" class="node"><title>Node15</title>
<g id="a_node15"><a xlink:href="../../da/d94/Producer_8h.html" target="_top" xlink:title="QCProducer/Producer.h">
<polygon fill="none" stroke="black" points="989.5,-0.5 989.5,-19.5 1110.5,-19.5 1110.5,-0.5 989.5,-0.5"/>
<text text-anchor="middle" x="1050" y="-7.5" font-family="Helvetica,sans-Serif" font-size="10.00">QCProducer/Producer.h</text>
</a>
</g>
</g>
<!-- Node10&#45;&gt;Node15 -->
<g id="edge14" class="edge"><title>Node10&#45;&gt;Node15</title>
<path fill="none" stroke="midnightblue" d="M858.094,-62.4035C897.599,-51.8217 964.779,-33.8269 1008.26,-22.1802"/>
<polygon fill="midnightblue" stroke="midnightblue" points="1009.21,-25.5488 1017.97,-19.5806 1007.4,-18.7872 1009.21,-25.5488"/>
</g>
</g>
</svg>
