<?xml version="1.0" encoding="UTF-8" standalone="no"?>
<!DOCTYPE svg PUBLIC "-//W3C//DTD SVG 1.1//EN"
 "http://www.w3.org/Graphics/SVG/1.1/DTD/svg11.dtd">
<!-- Generated by graphviz version 2.36.0 (20140111.2315)
 -->
<!-- Title: o2::ITSMFT::SimulationAlpide Pages: 1 -->
<svg width="644pt" height="1024pt"
 viewBox="0.00 0.00 644.00 1024.00" xmlns="http://www.w3.org/2000/svg" xmlns:xlink="http://www.w3.org/1999/xlink">
<g id="graph0" class="graph" transform="scale(1 1) rotate(0) translate(4 1020)">
<title>o2::ITSMFT::SimulationAlpide</title>
<!-- Node1 -->
<g id="node1" class="node"><title>Node1</title>
<polygon fill="#bfbfbf" stroke="black" points="284,-0.5 284,-123.5 432,-123.5 432,-0.5 284,-0.5"/>
<text text-anchor="middle" x="358" y="-111.5" font-family="Helvetica,sans-Serif" font-size="10.00">o2::ITSMFT::SimulationAlpide</text>
<polyline fill="none" stroke="black" points="284,-104.5 432,-104.5 "/>
<text text-anchor="middle" x="358" y="-92.5" font-family="Helvetica,sans-Serif" font-size="10.00"> </text>
<polyline fill="none" stroke="black" points="284,-85.5 432,-85.5 "/>
<text text-anchor="start" x="292" y="-73.5" font-family="Helvetica,sans-Serif" font-size="10.00">+ SimulationAlpide()</text>
<text text-anchor="start" x="292" y="-62.5" font-family="Helvetica,sans-Serif" font-size="10.00">+ SimulationAlpide()</text>
<text text-anchor="start" x="292" y="-51.5" font-family="Helvetica,sans-Serif" font-size="10.00">+ ~SimulationAlpide()</text>
<text text-anchor="start" x="292" y="-40.5" font-family="Helvetica,sans-Serif" font-size="10.00">+ operator=()</text>
<text text-anchor="start" x="292" y="-29.5" font-family="Helvetica,sans-Serif" font-size="10.00">+ Hits2Digits()</text>
<text text-anchor="start" x="292" y="-18.5" font-family="Helvetica,sans-Serif" font-size="10.00">+ addNoise()</text>
<text text-anchor="start" x="292" y="-7.5" font-family="Helvetica,sans-Serif" font-size="10.00">+ clearSimulation()</text>
</g>
<!-- Node2 -->
<g id="node2" class="node"><title>Node2</title>
<g id="a_node2"><a xlink:href="../../d5/dc4/classo2_1_1ITSMFT_1_1Chip.html" target="_top" xlink:title="Container for similated points connected to a given chip. ">
<polygon fill="none" stroke="black" points="300,-162.5 300,-505.5 416,-505.5 416,-162.5 300,-162.5"/>
<text text-anchor="middle" x="358" y="-493.5" font-family="Helvetica,sans-Serif" font-size="10.00">o2::ITSMFT::Chip</text>
<polyline fill="none" stroke="black" points="300,-486.5 416,-486.5 "/>
<text text-anchor="middle" x="358" y="-474.5" font-family="Helvetica,sans-Serif" font-size="10.00"> </text>
<polyline fill="none" stroke="black" points="300,-467.5 416,-467.5 "/>
<text text-anchor="start" x="308" y="-455.5" font-family="Helvetica,sans-Serif" font-size="10.00">+ Chip()</text>
<text text-anchor="start" x="308" y="-444.5" font-family="Helvetica,sans-Serif" font-size="10.00">+ ~Chip()</text>
<text text-anchor="start" x="308" y="-433.5" font-family="Helvetica,sans-Serif" font-size="10.00">+ Chip()</text>
<text text-anchor="start" x="308" y="-422.5" font-family="Helvetica,sans-Serif" font-size="10.00">+ Chip()</text>
<text text-anchor="start" x="308" y="-411.5" font-family="Helvetica,sans-Serif" font-size="10.00">+ operator=()</text>
<text text-anchor="start" x="308" y="-400.5" font-family="Helvetica,sans-Serif" font-size="10.00">+ operator==()</text>
<text text-anchor="start" x="308" y="-389.5" font-family="Helvetica,sans-Serif" font-size="10.00">+ operator!=()</text>
<text text-anchor="start" x="308" y="-378.5" font-family="Helvetica,sans-Serif" font-size="10.00">+ operator&lt;()</text>
<text text-anchor="start" x="308" y="-367.5" font-family="Helvetica,sans-Serif" font-size="10.00">+ Clear()</text>
<text text-anchor="start" x="308" y="-356.5" font-family="Helvetica,sans-Serif" font-size="10.00">+ SetChipIndex()</text>
<text text-anchor="start" x="308" y="-345.5" font-family="Helvetica,sans-Serif" font-size="10.00">+ Init()</text>
<text text-anchor="start" x="308" y="-334.5" font-family="Helvetica,sans-Serif" font-size="10.00">+ GetChipIndex()</text>
<text text-anchor="start" x="308" y="-323.5" font-family="Helvetica,sans-Serif" font-size="10.00">+ InsertHit()</text>
<text text-anchor="start" x="308" y="-312.5" font-family="Helvetica,sans-Serif" font-size="10.00">+ GetNumberOfHits()</text>
<text text-anchor="start" x="308" y="-301.5" font-family="Helvetica,sans-Serif" font-size="10.00">+ ClearHits()</text>
<text text-anchor="start" x="308" y="-290.5" font-family="Helvetica,sans-Serif" font-size="10.00">+ findDigit()</text>
<text text-anchor="start" x="308" y="-279.5" font-family="Helvetica,sans-Serif" font-size="10.00">+ GetHitAt()</text>
<text text-anchor="start" x="308" y="-268.5" font-family="Helvetica,sans-Serif" font-size="10.00">+ LineSegmentLocal()</text>
<text text-anchor="start" x="308" y="-257.5" font-family="Helvetica,sans-Serif" font-size="10.00">+ LineSegmentLocal()</text>
<text text-anchor="start" x="308" y="-246.5" font-family="Helvetica,sans-Serif" font-size="10.00">+ LineSegmentGlobal()</text>
<text text-anchor="start" x="308" y="-235.5" font-family="Helvetica,sans-Serif" font-size="10.00">+ LineSegmentGlobal()</text>
<text text-anchor="start" x="308" y="-224.5" font-family="Helvetica,sans-Serif" font-size="10.00">+ MedianHitLocal()</text>
<text text-anchor="start" x="308" y="-213.5" font-family="Helvetica,sans-Serif" font-size="10.00">+ MedianHitGlobal()</text>
<text text-anchor="start" x="308" y="-202.5" font-family="Helvetica,sans-Serif" font-size="10.00">+ PathLength()</text>
<text text-anchor="start" x="308" y="-191.5" font-family="Helvetica,sans-Serif" font-size="10.00">+ addDigit()</text>
<text text-anchor="start" x="308" y="-180.5" font-family="Helvetica,sans-Serif" font-size="10.00">+ fillOutputContainer()</text>
<text text-anchor="start" x="308" y="-169.5" font-family="Helvetica,sans-Serif" font-size="10.00"># ClassDefNV()</text>
</a>
</g>
</g>
<!-- Node2&#45;&gt;Node1 -->
<g id="edge1" class="edge"><title>Node2&#45;&gt;Node1</title>
<path fill="none" stroke="midnightblue" d="M358,-152.26C358,-142.249 358,-132.619 358,-123.629"/>
<polygon fill="none" stroke="midnightblue" points="354.5,-152.388 358,-162.388 361.5,-152.388 354.5,-152.388"/>
</g>
<!-- Node3 -->
<g id="node3" class="node"><title>Node3</title>
<g id="a_node3"><a xlink:href="../../d6/d5a/classo2_1_1Base_1_1Transform3D.html" target="_top" xlink:title="{o2::Base::Transform3D\n||+ Transform3D()\l+ Transform3D()\l+ ~Transform3D()\l+ Transform3D()\l+ Transform3D()\l+ Transform3D()\l+ operator TGeoHMatrix &amp;()\l+ set()\l+ operator^()\l+ operator^()\l+ LocalToMaster()\l+ MasterToLocal()\l+ LocalToMasterVect()\l+ MasterToLocalVect()\l+ print()\l}">
<polygon fill="none" stroke="black" points="0,-631.5 0,-842.5 138,-842.5 138,-631.5 0,-631.5"/>
<text text-anchor="middle" x="69" y="-830.5" font-family="Helvetica,sans-Serif" font-size="10.00">o2::Base::Transform3D</text>
<polyline fill="none" stroke="black" points="0,-823.5 138,-823.5 "/>
<text text-anchor="middle" x="69" y="-811.5" font-family="Helvetica,sans-Serif" font-size="10.00"> </text>
<polyline fill="none" stroke="black" points="0,-804.5 138,-804.5 "/>
<text text-anchor="start" x="8" y="-792.5" font-family="Helvetica,sans-Serif" font-size="10.00">+ Transform3D()</text>
<text text-anchor="start" x="8" y="-781.5" font-family="Helvetica,sans-Serif" font-size="10.00">+ Transform3D()</text>
<text text-anchor="start" x="8" y="-770.5" font-family="Helvetica,sans-Serif" font-size="10.00">+ ~Transform3D()</text>
<text text-anchor="start" x="8" y="-759.5" font-family="Helvetica,sans-Serif" font-size="10.00">+ Transform3D()</text>
<text text-anchor="start" x="8" y="-748.5" font-family="Helvetica,sans-Serif" font-size="10.00">+ Transform3D()</text>
<text text-anchor="start" x="8" y="-737.5" font-family="Helvetica,sans-Serif" font-size="10.00">+ Transform3D()</text>
<text text-anchor="start" x="8" y="-726.5" font-family="Helvetica,sans-Serif" font-size="10.00">+ operator TGeoHMatrix &amp;()</text>
<text text-anchor="start" x="8" y="-715.5" font-family="Helvetica,sans-Serif" font-size="10.00">+ set()</text>
<text text-anchor="start" x="8" y="-704.5" font-family="Helvetica,sans-Serif" font-size="10.00">+ operator^()</text>
<text text-anchor="start" x="8" y="-693.5" font-family="Helvetica,sans-Serif" font-size="10.00">+ operator^()</text>
<text text-anchor="start" x="8" y="-682.5" font-family="Helvetica,sans-Serif" font-size="10.00">+ LocalToMaster()</text>
<text text-anchor="start" x="8" y="-671.5" font-family="Helvetica,sans-Serif" font-size="10.00">+ MasterToLocal()</text>
<text text-anchor="start" x="8" y="-660.5" font-family="Helvetica,sans-Serif" font-size="10.00">+ LocalToMasterVect()</text>
<text text-anchor="start" x="8" y="-649.5" font-family="Helvetica,sans-Serif" font-size="10.00">+ MasterToLocalVect()</text>
<text text-anchor="start" x="8" y="-638.5" font-family="Helvetica,sans-Serif" font-size="10.00">+ print()</text>
</a>
</g>
</g>
<!-- Node3&#45;&gt;Node2 -->
<g id="edge2" class="edge"><title>Node3&#45;&gt;Node2</title>
<path fill="none" stroke="#404040" d="M106.311,-631.086C117.645,-604.933 131.319,-577.632 147,-554 187.282,-493.293 245.445,-434.4 290.508,-393.004"/>
<polygon fill="none" stroke="#404040" points="290.752,-392.782 292.496,-385.785 299.625,-384.703 297.882,-391.7 290.752,-392.782"/>
<text text-anchor="middle" x="184" y="-527.5" font-family="Helvetica,sans-Serif" font-size="10.00"> #mMat</text>
</g>
<!-- Node4 -->
<g id="node4" class="node"><title>Node4</title>
<polygon fill="none" stroke="#bfbfbf" points="1,-958.5 1,-1015.5 137,-1015.5 137,-958.5 1,-958.5"/>
<text text-anchor="middle" x="69" y="-1003.5" font-family="Helvetica,sans-Serif" font-size="10.00">ROOT::Math::Transform3D</text>
<polyline fill="none" stroke="#bfbfbf" points="1,-996.5 137,-996.5 "/>
<text text-anchor="middle" x="69" y="-984.5" font-family="Helvetica,sans-Serif" font-size="10.00"> </text>
<polyline fill="none" stroke="#bfbfbf" points="1,-977.5 137,-977.5 "/>
<text text-anchor="middle" x="69" y="-965.5" font-family="Helvetica,sans-Serif" font-size="10.00"> </text>
</g>
<!-- Node4&#45;&gt;Node3 -->
<g id="edge3" class="edge"><title>Node4&#45;&gt;Node3</title>
<path fill="none" stroke="midnightblue" d="M69,-947.852C69,-919.732 69,-880.043 69,-842.739"/>
<polygon fill="none" stroke="midnightblue" points="65.5001,-948.033 69,-958.033 72.5001,-948.033 65.5001,-948.033"/>
</g>
<!-- Node5 -->
<g id="node5" class="node"><title>Node5</title>
<polygon fill="none" stroke="#bfbfbf" points="156.5,-697.5 156.5,-776.5 273.5,-776.5 273.5,-697.5 156.5,-697.5"/>
<text text-anchor="start" x="164.5" y="-764.5" font-family="Helvetica,sans-Serif" font-size="10.00">map&lt; ULong64_t, o2</text>
<text text-anchor="start" x="164.5" y="-753.5" font-family="Helvetica,sans-Serif" font-size="10.00">::ITSMFT::o2::ITSMFT</text>
<text text-anchor="middle" x="215" y="-742.5" font-family="Helvetica,sans-Serif" font-size="10.00">::Digit &gt;</text>
<polyline fill="none" stroke="#bfbfbf" points="156.5,-735.5 273.5,-735.5 "/>
<text text-anchor="middle" x="215" y="-723.5" font-family="Helvetica,sans-Serif" font-size="10.00"> </text>
<polyline fill="none" stroke="#bfbfbf" points="156.5,-716.5 273.5,-716.5 "/>
<text text-anchor="middle" x="215" y="-704.5" font-family="Helvetica,sans-Serif" font-size="10.00"> </text>
</g>
<!-- Node5&#45;&gt;Node2 -->
<g id="edge4" class="edge"><title>Node5&#45;&gt;Node2</title>
<path fill="none" stroke="#404040" d="M228.841,-697.186C244.445,-653.432 270.895,-579.259 295.811,-509.39"/>
<polygon fill="none" stroke="#404040" points="295.925,-509.07 294.173,-502.075 299.956,-497.767 301.708,-504.762 295.925,-509.07"/>
<text text-anchor="middle" x="308.5" y="-527.5" font-family="Helvetica,sans-Serif" font-size="10.00"> #mDigits</text>
</g>
<!-- Node6 -->
<g id="node6" class="node"><title>Node6</title>
<polygon fill="none" stroke="#bfbfbf" points="292,-703 292,-771 424,-771 424,-703 292,-703"/>
<text text-anchor="start" x="300" y="-759" font-family="Helvetica,sans-Serif" font-size="10.00">vector&lt; const o2::ITSMFT</text>
<text text-anchor="middle" x="358" y="-748" font-family="Helvetica,sans-Serif" font-size="10.00">::Hit * &gt;</text>
<polyline fill="none" stroke="#bfbfbf" points="292,-741 424,-741 "/>
<text text-anchor="middle" x="358" y="-729" font-family="Helvetica,sans-Serif" font-size="10.00"> </text>
<polyline fill="none" stroke="#bfbfbf" points="292,-722 424,-722 "/>
<text text-anchor="middle" x="358" y="-710" font-family="Helvetica,sans-Serif" font-size="10.00"> </text>
</g>
<!-- Node6&#45;&gt;Node2 -->
<g id="edge5" class="edge"><title>Node6&#45;&gt;Node2</title>
<path fill="none" stroke="#404040" d="M358,-702.843C358,-661.69 358,-588.301 358,-517.843"/>
<polygon fill="none" stroke="#404040" points="358,-517.651 354,-511.651 358,-505.651 362,-511.651 358,-517.651"/>
<text text-anchor="middle" x="375.5" y="-527.5" font-family="Helvetica,sans-Serif" font-size="10.00"> #mHits</text>
</g>
<!-- Node7 -->
<g id="node7" class="node"><title>Node7</title>
<g id="a_node7"><a xlink:href="../../d3/d06/classo2_1_1ITSMFT_1_1DigiParams.html" target="_top" xlink:title="{o2::ITSMFT::DigiParams\n||+ DigiParams()\l+ ~DigiParams()\l+ setNoisePerPixel()\l+ getNoisePerPixel()\l+ setContinuous()\l+ isContinuous()\l+ setROFrameLenght()\l+ setROFrameDeadTime()\l+ getROFrameLenght()\l+ getROFrameDeadTime()\l+ setTimeOffset()\l+ getTimeOffset()\l+ setACSFromBGPar0()\l+ setACSFromBGPar1()\l+ setACSFromBGPar2()\l+ setChargeThreshold()\l+ setNSimSteps()\l+ setEnergyToNElectrons()\l+ getACSFromBGPar0()\l+ getACSFromBGPar1()\l+ getACSFromBGPar2()\l+ getChargeThreshold()\l+ getNSimSteps()\l+ getEnergyToNElectrons()\l+ isTimeOffsetSet()\l+ getHit2DigitsMethod()\l+ setHitDigitsMethod()\l+ getAlpSimResponse()\l+ setAlpSimResponse()\l}">
<polygon fill="none" stroke="black" points="442,-554.5 442,-919.5 578,-919.5 578,-554.5 442,-554.5"/>
<text text-anchor="middle" x="510" y="-907.5" font-family="Helvetica,sans-Serif" font-size="10.00">o2::ITSMFT::DigiParams</text>
<polyline fill="none" stroke="black" points="442,-900.5 578,-900.5 "/>
<text text-anchor="middle" x="510" y="-888.5" font-family="Helvetica,sans-Serif" font-size="10.00"> </text>
<polyline fill="none" stroke="black" points="442,-881.5 578,-881.5 "/>
<text text-anchor="start" x="450" y="-869.5" font-family="Helvetica,sans-Serif" font-size="10.00">+ DigiParams()</text>
<text text-anchor="start" x="450" y="-858.5" font-family="Helvetica,sans-Serif" font-size="10.00">+ ~DigiParams()</text>
<text text-anchor="start" x="450" y="-847.5" font-family="Helvetica,sans-Serif" font-size="10.00">+ setNoisePerPixel()</text>
<text text-anchor="start" x="450" y="-836.5" font-family="Helvetica,sans-Serif" font-size="10.00">+ getNoisePerPixel()</text>
<text text-anchor="start" x="450" y="-825.5" font-family="Helvetica,sans-Serif" font-size="10.00">+ setContinuous()</text>
<text text-anchor="start" x="450" y="-814.5" font-family="Helvetica,sans-Serif" font-size="10.00">+ isContinuous()</text>
<text text-anchor="start" x="450" y="-803.5" font-family="Helvetica,sans-Serif" font-size="10.00">+ setROFrameLenght()</text>
<text text-anchor="start" x="450" y="-792.5" font-family="Helvetica,sans-Serif" font-size="10.00">+ setROFrameDeadTime()</text>
<text text-anchor="start" x="450" y="-781.5" font-family="Helvetica,sans-Serif" font-size="10.00">+ getROFrameLenght()</text>
<text text-anchor="start" x="450" y="-770.5" font-family="Helvetica,sans-Serif" font-size="10.00">+ getROFrameDeadTime()</text>
<text text-anchor="start" x="450" y="-759.5" font-family="Helvetica,sans-Serif" font-size="10.00">+ setTimeOffset()</text>
<text text-anchor="start" x="450" y="-748.5" font-family="Helvetica,sans-Serif" font-size="10.00">+ getTimeOffset()</text>
<text text-anchor="start" x="450" y="-737.5" font-family="Helvetica,sans-Serif" font-size="10.00">+ setACSFromBGPar0()</text>
<text text-anchor="start" x="450" y="-726.5" font-family="Helvetica,sans-Serif" font-size="10.00">+ setACSFromBGPar1()</text>
<text text-anchor="start" x="450" y="-715.5" font-family="Helvetica,sans-Serif" font-size="10.00">+ setACSFromBGPar2()</text>
<text text-anchor="start" x="450" y="-704.5" font-family="Helvetica,sans-Serif" font-size="10.00">+ setChargeThreshold()</text>
<text text-anchor="start" x="450" y="-693.5" font-family="Helvetica,sans-Serif" font-size="10.00">+ setNSimSteps()</text>
<text text-anchor="start" x="450" y="-682.5" font-family="Helvetica,sans-Serif" font-size="10.00">+ setEnergyToNElectrons()</text>
<text text-anchor="start" x="450" y="-671.5" font-family="Helvetica,sans-Serif" font-size="10.00">+ getACSFromBGPar0()</text>
<text text-anchor="start" x="450" y="-660.5" font-family="Helvetica,sans-Serif" font-size="10.00">+ getACSFromBGPar1()</text>
<text text-anchor="start" x="450" y="-649.5" font-family="Helvetica,sans-Serif" font-size="10.00">+ getACSFromBGPar2()</text>
<text text-anchor="start" x="450" y="-638.5" font-family="Helvetica,sans-Serif" font-size="10.00">+ getChargeThreshold()</text>
<text text-anchor="start" x="450" y="-627.5" font-family="Helvetica,sans-Serif" font-size="10.00">+ getNSimSteps()</text>
<text text-anchor="start" x="450" y="-616.5" font-family="Helvetica,sans-Serif" font-size="10.00">+ getEnergyToNElectrons()</text>
<text text-anchor="start" x="450" y="-605.5" font-family="Helvetica,sans-Serif" font-size="10.00">+ isTimeOffsetSet()</text>
<text text-anchor="start" x="450" y="-594.5" font-family="Helvetica,sans-Serif" font-size="10.00">+ getHit2DigitsMethod()</text>
<text text-anchor="start" x="450" y="-583.5" font-family="Helvetica,sans-Serif" font-size="10.00">+ setHitDigitsMethod()</text>
<text text-anchor="start" x="450" y="-572.5" font-family="Helvetica,sans-Serif" font-size="10.00">+ getAlpSimResponse()</text>
<text text-anchor="start" x="450" y="-561.5" font-family="Helvetica,sans-Serif" font-size="10.00">+ setAlpSimResponse()</text>
</a>
</g>
</g>
<!-- Node7&#45;&gt;Node2 -->
<g id="edge6" class="edge"><title>Node7&#45;&gt;Node2</title>
<path fill="none" stroke="#404040" d="M441.892,-556.319C434.729,-537.422 427.471,-518.275 420.377,-499.56"/>
<polygon fill="none" stroke="#404040" points="420.356,-499.505 414.489,-495.313 416.103,-488.284 421.97,-492.477 420.356,-499.505"/>
<text text-anchor="middle" x="459.5" y="-527.5" font-family="Helvetica,sans-Serif" font-size="10.00"> #mParams</text>
</g>
<!-- Node8 -->
<g id="node8" class="node"><title>Node8</title>
<polygon fill="none" stroke="#bfbfbf" points="596,-708.5 596,-765.5 632,-765.5 632,-708.5 596,-708.5"/>
<text text-anchor="middle" x="614" y="-753.5" font-family="Helvetica,sans-Serif" font-size="10.00">Int_t</text>
<polyline fill="none" stroke="#bfbfbf" points="596,-746.5 632,-746.5 "/>
<text text-anchor="middle" x="614" y="-734.5" font-family="Helvetica,sans-Serif" font-size="10.00"> </text>
<polyline fill="none" stroke="#bfbfbf" points="596,-727.5 632,-727.5 "/>
<text text-anchor="middle" x="614" y="-715.5" font-family="Helvetica,sans-Serif" font-size="10.00"> </text>
</g>
<!-- Node8&#45;&gt;Node2 -->
<g id="edge7" class="edge"><title>Node8&#45;&gt;Node2</title>
<path fill="none" stroke="#404040" d="M615.307,-708.416C615.909,-671.231 612.836,-603.931 587,-554 549.653,-481.823 479.151,-420.019 426.196,-380.653"/>
<polygon fill="none" stroke="#404040" points="425.871,-380.414 418.667,-380.096 416.19,-373.324 423.394,-373.642 425.871,-380.414"/>
<text text-anchor="middle" x="605.5" y="-527.5" font-family="Helvetica,sans-Serif" font-size="10.00"> #mChipIndex</text>
</g>
</g>
</svg>
