<?xml version="1.0" encoding="UTF-8" standalone="no"?>
<!DOCTYPE svg PUBLIC "-//W3C//DTD SVG 1.1//EN"
 "http://www.w3.org/Graphics/SVG/1.1/DTD/svg11.dtd">
<!-- Generated by graphviz version 2.36.0 (20140111.2315)
 -->
<!-- Title: ExampleAppConsole Pages: 1 -->
<svg width="525pt" height="1022pt"
 viewBox="0.00 0.00 524.97 1022.00" xmlns="http://www.w3.org/2000/svg" xmlns:xlink="http://www.w3.org/1999/xlink">
<g id="graph0" class="graph" transform="scale(1 1) rotate(0) translate(4 1018)">
<title>ExampleAppConsole</title>
<!-- Node1 -->
<g id="node1" class="node"><title>Node1</title>
<polygon fill="#bfbfbf" stroke="black" points="215.469,-0.5 215.469,-167.5 344.469,-167.5 344.469,-0.5 215.469,-0.5"/>
<text text-anchor="middle" x="279.969" y="-155.5" font-family="Helvetica,sans-Serif" font-size="10.00">ExampleAppConsole</text>
<polyline fill="none" stroke="black" points="215.469,-148.5 344.469,-148.5 "/>
<text text-anchor="middle" x="279.969" y="-136.5" font-family="Helvetica,sans-Serif" font-size="10.00"> </text>
<polyline fill="none" stroke="black" points="215.469,-129.5 344.469,-129.5 "/>
<text text-anchor="start" x="223.469" y="-117.5" font-family="Helvetica,sans-Serif" font-size="10.00">+ ExampleAppConsole()</text>
<text text-anchor="start" x="223.469" y="-106.5" font-family="Helvetica,sans-Serif" font-size="10.00">+ ~ExampleAppConsole()</text>
<text text-anchor="start" x="223.469" y="-95.5" font-family="Helvetica,sans-Serif" font-size="10.00">+ ClearLog()</text>
<text text-anchor="start" x="223.469" y="-84.5" font-family="Helvetica,sans-Serif" font-size="10.00">+ AddLog()</text>
<text text-anchor="start" x="223.469" y="-73.5" font-family="Helvetica,sans-Serif" font-size="10.00">+ Draw()</text>
<text text-anchor="start" x="223.469" y="-62.5" font-family="Helvetica,sans-Serif" font-size="10.00">+ ExecCommand()</text>
<text text-anchor="start" x="223.469" y="-51.5" font-family="Helvetica,sans-Serif" font-size="10.00">+ TextEditCallback()</text>
<text text-anchor="start" x="223.469" y="-40.5" font-family="Helvetica,sans-Serif" font-size="10.00">+ Stricmp()</text>
<text text-anchor="start" x="223.469" y="-29.5" font-family="Helvetica,sans-Serif" font-size="10.00">+ Strnicmp()</text>
<text text-anchor="start" x="223.469" y="-18.5" font-family="Helvetica,sans-Serif" font-size="10.00">+ Strdup()</text>
<text text-anchor="start" x="223.469" y="-7.5" font-family="Helvetica,sans-Serif" font-size="10.00">+ TextEditCallbackStub()</text>
</g>
<!-- Node2 -->
<g id="node2" class="node"><title>Node2</title>
<g id="a_node2"><a xlink:href="../../d3/d32/classImVector.html" target="_top" xlink:title="{ImVector\&lt; char * \&gt;\n||+ ImVector()\l+ ~ImVector()\l+ empty()\l+ size()\l+ capacity()\l+ operator[]()\l+ operator[]()\l+ clear()\l+ begin()\l+ begin()\l+ end()\l+ end()\l+ front()\l+ front()\l+ back()\l+ back()\l+ swap()\l+ _grow_capacity()\l+ resize()\l+ reserve()\l+ push_back()\l+ pop_back()\l+ erase()\l+ insert()\l}">
<polygon fill="none" stroke="black" points="343.969,-227 343.969,-537 443.969,-537 443.969,-227 343.969,-227"/>
<text text-anchor="middle" x="393.969" y="-525" font-family="Helvetica,sans-Serif" font-size="10.00">ImVector&lt; char * &gt;</text>
<polyline fill="none" stroke="black" points="343.969,-518 443.969,-518 "/>
<text text-anchor="middle" x="393.969" y="-506" font-family="Helvetica,sans-Serif" font-size="10.00"> </text>
<polyline fill="none" stroke="black" points="343.969,-499 443.969,-499 "/>
<text text-anchor="start" x="351.969" y="-487" font-family="Helvetica,sans-Serif" font-size="10.00">+ ImVector()</text>
<text text-anchor="start" x="351.969" y="-476" font-family="Helvetica,sans-Serif" font-size="10.00">+ ~ImVector()</text>
<text text-anchor="start" x="351.969" y="-465" font-family="Helvetica,sans-Serif" font-size="10.00">+ empty()</text>
<text text-anchor="start" x="351.969" y="-454" font-family="Helvetica,sans-Serif" font-size="10.00">+ size()</text>
<text text-anchor="start" x="351.969" y="-443" font-family="Helvetica,sans-Serif" font-size="10.00">+ capacity()</text>
<text text-anchor="start" x="351.969" y="-432" font-family="Helvetica,sans-Serif" font-size="10.00">+ operator[]()</text>
<text text-anchor="start" x="351.969" y="-421" font-family="Helvetica,sans-Serif" font-size="10.00">+ operator[]()</text>
<text text-anchor="start" x="351.969" y="-410" font-family="Helvetica,sans-Serif" font-size="10.00">+ clear()</text>
<text text-anchor="start" x="351.969" y="-399" font-family="Helvetica,sans-Serif" font-size="10.00">+ begin()</text>
<text text-anchor="start" x="351.969" y="-388" font-family="Helvetica,sans-Serif" font-size="10.00">+ begin()</text>
<text text-anchor="start" x="351.969" y="-377" font-family="Helvetica,sans-Serif" font-size="10.00">+ end()</text>
<text text-anchor="start" x="351.969" y="-366" font-family="Helvetica,sans-Serif" font-size="10.00">+ end()</text>
<text text-anchor="start" x="351.969" y="-355" font-family="Helvetica,sans-Serif" font-size="10.00">+ front()</text>
<text text-anchor="start" x="351.969" y="-344" font-family="Helvetica,sans-Serif" font-size="10.00">+ front()</text>
<text text-anchor="start" x="351.969" y="-333" font-family="Helvetica,sans-Serif" font-size="10.00">+ back()</text>
<text text-anchor="start" x="351.969" y="-322" font-family="Helvetica,sans-Serif" font-size="10.00">+ back()</text>
<text text-anchor="start" x="351.969" y="-311" font-family="Helvetica,sans-Serif" font-size="10.00">+ swap()</text>
<text text-anchor="start" x="351.969" y="-300" font-family="Helvetica,sans-Serif" font-size="10.00">+ _grow_capacity()</text>
<text text-anchor="start" x="351.969" y="-289" font-family="Helvetica,sans-Serif" font-size="10.00">+ resize()</text>
<text text-anchor="start" x="351.969" y="-278" font-family="Helvetica,sans-Serif" font-size="10.00">+ reserve()</text>
<text text-anchor="start" x="351.969" y="-267" font-family="Helvetica,sans-Serif" font-size="10.00">+ push_back()</text>
<text text-anchor="start" x="351.969" y="-256" font-family="Helvetica,sans-Serif" font-size="10.00">+ pop_back()</text>
<text text-anchor="start" x="351.969" y="-245" font-family="Helvetica,sans-Serif" font-size="10.00">+ erase()</text>
<text text-anchor="start" x="351.969" y="-234" font-family="Helvetica,sans-Serif" font-size="10.00">+ insert()</text>
</a>
</g>
</g>
<!-- Node2&#45;&gt;Node1 -->
<g id="edge1" class="edge"><title>Node2&#45;&gt;Node1</title>
<path fill="none" stroke="#404040" d="M343.967,-251.17C334.653,-226.985 325.085,-202.143 316.28,-179.28"/>
<polygon fill="none" stroke="#404040" points="316.2,-179.072 310.311,-174.911 311.887,-167.874 317.776,-172.035 316.2,-179.072"/>
<text text-anchor="middle" x="347.469" y="-200" font-family="Helvetica,sans-Serif" font-size="10.00"> +History</text>
<text text-anchor="middle" x="347.469" y="-189" font-family="Helvetica,sans-Serif" font-size="10.00">+Items</text>
</g>
<!-- Node3 -->
<g id="node3" class="node"><title>Node3</title>
<polygon fill="none" stroke="#bfbfbf" points="297.469,-713.5 297.469,-770.5 332.469,-770.5 332.469,-713.5 297.469,-713.5"/>
<text text-anchor="middle" x="314.969" y="-758.5" font-family="Helvetica,sans-Serif" font-size="10.00">char</text>
<polyline fill="none" stroke="#bfbfbf" points="297.469,-751.5 332.469,-751.5 "/>
<text text-anchor="middle" x="314.969" y="-739.5" font-family="Helvetica,sans-Serif" font-size="10.00"> </text>
<polyline fill="none" stroke="#bfbfbf" points="297.469,-732.5 332.469,-732.5 "/>
<text text-anchor="middle" x="314.969" y="-720.5" font-family="Helvetica,sans-Serif" font-size="10.00"> </text>
</g>
<!-- Node3&#45;&gt;Node1 -->
<g id="edge7" class="edge"><title>Node3&#45;&gt;Node1</title>
<path fill="none" stroke="#404040" d="M317.149,-713.48C319.129,-676.558 319.382,-609.446 300.969,-556 297.838,-546.91 291.847,-547.174 288.969,-538 268.811,-473.73 271.596,-292.716 275.649,-179.921"/>
<polygon fill="none" stroke="#404040" points="275.651,-179.863 271.876,-173.719 276.096,-167.872 279.87,-174.016 275.651,-179.863"/>
<text text-anchor="middle" x="311.969" y="-379.5" font-family="Helvetica,sans-Serif" font-size="10.00"> +InputBuf</text>
</g>
<!-- Node3&#45;&gt;Node2 -->
<g id="edge2" class="edge"><title>Node3&#45;&gt;Node2</title>
<path fill="none" stroke="#404040" d="M319.415,-713.292C325.385,-677.004 336.674,-611.475 348.969,-556 349.486,-553.671 350.012,-551.325 350.546,-548.967"/>
<polygon fill="none" stroke="#404040" points="350.59,-548.774 348.039,-542.03 353.284,-537.081 355.835,-543.825 350.59,-548.774"/>
<text text-anchor="middle" x="364.469" y="-559.5" font-family="Helvetica,sans-Serif" font-size="10.00"> +Data</text>
</g>
<!-- Node8 -->
<g id="node8" class="node"><title>Node8</title>
<g id="a_node8"><a xlink:href="../../d3/d32/classImVector.html" target="_top" xlink:title="{ImVector\&lt; const char * \&gt;\n||+ ImVector()\l+ ~ImVector()\l+ empty()\l+ size()\l+ capacity()\l+ operator[]()\l+ operator[]()\l+ clear()\l+ begin()\l+ begin()\l+ end()\l+ end()\l+ front()\l+ front()\l+ back()\l+ back()\l+ swap()\l+ _grow_capacity()\l+ resize()\l+ reserve()\l+ push_back()\l+ pop_back()\l+ erase()\l+ insert()\l}">
<polygon fill="none" stroke="black" points="77.4695,-227 77.4695,-537 204.469,-537 204.469,-227 77.4695,-227"/>
<text text-anchor="middle" x="140.969" y="-525" font-family="Helvetica,sans-Serif" font-size="10.00">ImVector&lt; const char * &gt;</text>
<polyline fill="none" stroke="black" points="77.4695,-518 204.469,-518 "/>
<text text-anchor="middle" x="140.969" y="-506" font-family="Helvetica,sans-Serif" font-size="10.00"> </text>
<polyline fill="none" stroke="black" points="77.4695,-499 204.469,-499 "/>
<text text-anchor="start" x="85.4695" y="-487" font-family="Helvetica,sans-Serif" font-size="10.00">+ ImVector()</text>
<text text-anchor="start" x="85.4695" y="-476" font-family="Helvetica,sans-Serif" font-size="10.00">+ ~ImVector()</text>
<text text-anchor="start" x="85.4695" y="-465" font-family="Helvetica,sans-Serif" font-size="10.00">+ empty()</text>
<text text-anchor="start" x="85.4695" y="-454" font-family="Helvetica,sans-Serif" font-size="10.00">+ size()</text>
<text text-anchor="start" x="85.4695" y="-443" font-family="Helvetica,sans-Serif" font-size="10.00">+ capacity()</text>
<text text-anchor="start" x="85.4695" y="-432" font-family="Helvetica,sans-Serif" font-size="10.00">+ operator[]()</text>
<text text-anchor="start" x="85.4695" y="-421" font-family="Helvetica,sans-Serif" font-size="10.00">+ operator[]()</text>
<text text-anchor="start" x="85.4695" y="-410" font-family="Helvetica,sans-Serif" font-size="10.00">+ clear()</text>
<text text-anchor="start" x="85.4695" y="-399" font-family="Helvetica,sans-Serif" font-size="10.00">+ begin()</text>
<text text-anchor="start" x="85.4695" y="-388" font-family="Helvetica,sans-Serif" font-size="10.00">+ begin()</text>
<text text-anchor="start" x="85.4695" y="-377" font-family="Helvetica,sans-Serif" font-size="10.00">+ end()</text>
<text text-anchor="start" x="85.4695" y="-366" font-family="Helvetica,sans-Serif" font-size="10.00">+ end()</text>
<text text-anchor="start" x="85.4695" y="-355" font-family="Helvetica,sans-Serif" font-size="10.00">+ front()</text>
<text text-anchor="start" x="85.4695" y="-344" font-family="Helvetica,sans-Serif" font-size="10.00">+ front()</text>
<text text-anchor="start" x="85.4695" y="-333" font-family="Helvetica,sans-Serif" font-size="10.00">+ back()</text>
<text text-anchor="start" x="85.4695" y="-322" font-family="Helvetica,sans-Serif" font-size="10.00">+ back()</text>
<text text-anchor="start" x="85.4695" y="-311" font-family="Helvetica,sans-Serif" font-size="10.00">+ swap()</text>
<text text-anchor="start" x="85.4695" y="-300" font-family="Helvetica,sans-Serif" font-size="10.00">+ _grow_capacity()</text>
<text text-anchor="start" x="85.4695" y="-289" font-family="Helvetica,sans-Serif" font-size="10.00">+ resize()</text>
<text text-anchor="start" x="85.4695" y="-278" font-family="Helvetica,sans-Serif" font-size="10.00">+ reserve()</text>
<text text-anchor="start" x="85.4695" y="-267" font-family="Helvetica,sans-Serif" font-size="10.00">+ push_back()</text>
<text text-anchor="start" x="85.4695" y="-256" font-family="Helvetica,sans-Serif" font-size="10.00">+ pop_back()</text>
<text text-anchor="start" x="85.4695" y="-245" font-family="Helvetica,sans-Serif" font-size="10.00">+ erase()</text>
<text text-anchor="start" x="85.4695" y="-234" font-family="Helvetica,sans-Serif" font-size="10.00">+ insert()</text>
</a>
</g>
</g>
<!-- Node3&#45;&gt;Node8 -->
<g id="edge11" class="edge"><title>Node3&#45;&gt;Node8</title>
<path fill="none" stroke="#404040" d="M314.175,-713.345C311.655,-678.704 302.076,-619.802 266.969,-586 244.758,-564.614 222.271,-589.293 199.969,-568 193.516,-561.838 187.766,-554.973 182.643,-547.615"/>
<polygon fill="none" stroke="#404040" points="182.508,-547.404 175.904,-544.507 176.039,-537.297 182.643,-540.194 182.508,-547.404"/>
<text text-anchor="middle" x="215.469" y="-559.5" font-family="Helvetica,sans-Serif" font-size="10.00"> +Data</text>
</g>
<!-- Node4 -->
<g id="node4" class="node"><title>Node4</title>
<polygon fill="none" stroke="#bfbfbf" points="97.4695,-956.5 97.4695,-1013.5 126.469,-1013.5 126.469,-956.5 97.4695,-956.5"/>
<text text-anchor="middle" x="111.969" y="-1001.5" font-family="Helvetica,sans-Serif" font-size="10.00">int</text>
<polyline fill="none" stroke="#bfbfbf" points="97.4695,-994.5 126.469,-994.5 "/>
<text text-anchor="middle" x="111.969" y="-982.5" font-family="Helvetica,sans-Serif" font-size="10.00"> </text>
<polyline fill="none" stroke="#bfbfbf" points="97.4695,-975.5 126.469,-975.5 "/>
<text text-anchor="middle" x="111.969" y="-963.5" font-family="Helvetica,sans-Serif" font-size="10.00"> </text>
</g>
<!-- Node4&#45;&gt;Node1 -->
<g id="edge8" class="edge"><title>Node4&#45;&gt;Node1</title>
<path fill="none" stroke="#404040" d="M99.9542,-956.188C56.6093,-851.227 -81.4626,-472.613 67.9695,-226 99.1561,-174.532 157.131,-137.928 204.581,-114.935"/>
<polygon fill="none" stroke="#404040" points="204.605,-114.924 208.328,-108.748 215.461,-109.809 211.738,-115.985 204.605,-114.924"/>
<text text-anchor="middle" x="31.9695" y="-559.5" font-family="Helvetica,sans-Serif" font-size="10.00"> +HistoryPos</text>
</g>
<!-- Node4&#45;&gt;Node2 -->
<g id="edge3" class="edge"><title>Node4&#45;&gt;Node2</title>
<path fill="none" stroke="#404040" d="M126.756,-983.433C168.237,-980.975 286.229,-967.868 340.969,-898 417.175,-800.736 426.819,-659.424 419.414,-549.419"/>
<polygon fill="none" stroke="#404040" points="419.394,-549.151 414.964,-543.462 418.512,-537.184 422.942,-542.873 419.394,-549.151"/>
<text text-anchor="middle" x="446.469" y="-745" font-family="Helvetica,sans-Serif" font-size="10.00"> +Capacity</text>
<text text-anchor="middle" x="446.469" y="-734" font-family="Helvetica,sans-Serif" font-size="10.00">+Size</text>
</g>
<!-- Node5 -->
<g id="node5" class="node"><title>Node5</title>
<g id="a_node5"><a xlink:href="../../d3/d32/classImVector.html" target="_top" xlink:title="{ImVector\&lt; T \&gt;\n||+ ImVector()\l+ ~ImVector()\l+ empty()\l+ size()\l+ capacity()\l+ operator[]()\l+ operator[]()\l+ clear()\l+ begin()\l+ begin()\l+ end()\l+ end()\l+ front()\l+ front()\l+ back()\l+ back()\l+ swap()\l+ _grow_capacity()\l+ resize()\l+ reserve()\l+ push_back()\l+ pop_back()\l+ erase()\l+ insert()\l}">
<polygon fill="none" stroke="black" points="157.969,-587 157.969,-897 257.969,-897 257.969,-587 157.969,-587"/>
<text text-anchor="middle" x="207.969" y="-885" font-family="Helvetica,sans-Serif" font-size="10.00">ImVector&lt; T &gt;</text>
<polyline fill="none" stroke="black" points="157.969,-878 257.969,-878 "/>
<text text-anchor="middle" x="207.969" y="-866" font-family="Helvetica,sans-Serif" font-size="10.00"> </text>
<polyline fill="none" stroke="black" points="157.969,-859 257.969,-859 "/>
<text text-anchor="start" x="165.969" y="-847" font-family="Helvetica,sans-Serif" font-size="10.00">+ ImVector()</text>
<text text-anchor="start" x="165.969" y="-836" font-family="Helvetica,sans-Serif" font-size="10.00">+ ~ImVector()</text>
<text text-anchor="start" x="165.969" y="-825" font-family="Helvetica,sans-Serif" font-size="10.00">+ empty()</text>
<text text-anchor="start" x="165.969" y="-814" font-family="Helvetica,sans-Serif" font-size="10.00">+ size()</text>
<text text-anchor="start" x="165.969" y="-803" font-family="Helvetica,sans-Serif" font-size="10.00">+ capacity()</text>
<text text-anchor="start" x="165.969" y="-792" font-family="Helvetica,sans-Serif" font-size="10.00">+ operator[]()</text>
<text text-anchor="start" x="165.969" y="-781" font-family="Helvetica,sans-Serif" font-size="10.00">+ operator[]()</text>
<text text-anchor="start" x="165.969" y="-770" font-family="Helvetica,sans-Serif" font-size="10.00">+ clear()</text>
<text text-anchor="start" x="165.969" y="-759" font-family="Helvetica,sans-Serif" font-size="10.00">+ begin()</text>
<text text-anchor="start" x="165.969" y="-748" font-family="Helvetica,sans-Serif" font-size="10.00">+ begin()</text>
<text text-anchor="start" x="165.969" y="-737" font-family="Helvetica,sans-Serif" font-size="10.00">+ end()</text>
<text text-anchor="start" x="165.969" y="-726" font-family="Helvetica,sans-Serif" font-size="10.00">+ end()</text>
<text text-anchor="start" x="165.969" y="-715" font-family="Helvetica,sans-Serif" font-size="10.00">+ front()</text>
<text text-anchor="start" x="165.969" y="-704" font-family="Helvetica,sans-Serif" font-size="10.00">+ front()</text>
<text text-anchor="start" x="165.969" y="-693" font-family="Helvetica,sans-Serif" font-size="10.00">+ back()</text>
<text text-anchor="start" x="165.969" y="-682" font-family="Helvetica,sans-Serif" font-size="10.00">+ back()</text>
<text text-anchor="start" x="165.969" y="-671" font-family="Helvetica,sans-Serif" font-size="10.00">+ swap()</text>
<text text-anchor="start" x="165.969" y="-660" font-family="Helvetica,sans-Serif" font-size="10.00">+ _grow_capacity()</text>
<text text-anchor="start" x="165.969" y="-649" font-family="Helvetica,sans-Serif" font-size="10.00">+ resize()</text>
<text text-anchor="start" x="165.969" y="-638" font-family="Helvetica,sans-Serif" font-size="10.00">+ reserve()</text>
<text text-anchor="start" x="165.969" y="-627" font-family="Helvetica,sans-Serif" font-size="10.00">+ push_back()</text>
<text text-anchor="start" x="165.969" y="-616" font-family="Helvetica,sans-Serif" font-size="10.00">+ pop_back()</text>
<text text-anchor="start" x="165.969" y="-605" font-family="Helvetica,sans-Serif" font-size="10.00">+ erase()</text>
<text text-anchor="start" x="165.969" y="-594" font-family="Helvetica,sans-Serif" font-size="10.00">+ insert()</text>
</a>
</g>
</g>
<!-- Node4&#45;&gt;Node5 -->
<g id="edge5" class="edge"><title>Node4&#45;&gt;Node5</title>
<path fill="none" stroke="#404040" d="M122.982,-956.354C130.777,-936.785 141.875,-908.925 153.488,-879.771"/>
<polygon fill="none" stroke="#404040" points="153.518,-879.697 152.022,-872.642 157.958,-868.549 159.454,-875.603 153.518,-879.697"/>
<text text-anchor="middle" x="162.469" y="-930" font-family="Helvetica,sans-Serif" font-size="10.00"> +Capacity</text>
<text text-anchor="middle" x="162.469" y="-919" font-family="Helvetica,sans-Serif" font-size="10.00">+Size</text>
</g>
<!-- Node4&#45;&gt;Node8 -->
<g id="edge12" class="edge"><title>Node4&#45;&gt;Node8</title>
<path fill="none" stroke="#404040" d="M107.183,-956.21C104.517,-939.414 101.445,-917.542 99.9695,-898 88.5217,-746.421 76.6801,-706.782 95.9695,-556 96.2525,-553.787 96.5551,-551.563 96.876,-549.328"/>
<polygon fill="none" stroke="#404040" points="96.9029,-549.156 93.8789,-542.61 98.7586,-537.3 101.783,-543.847 96.9029,-549.156"/>
<text text-anchor="middle" x="124.469" y="-745" font-family="Helvetica,sans-Serif" font-size="10.00"> +Capacity</text>
<text text-anchor="middle" x="124.469" y="-734" font-family="Helvetica,sans-Serif" font-size="10.00">+Size</text>
</g>
<!-- Node5&#45;&gt;Node2 -->
<g id="edge4" class="edge"><title>Node5&#45;&gt;Node2</title>
<path fill="none" stroke="orange" d="M263.197,-599.551C272.726,-583.845 283.617,-568.894 295.969,-556 307.798,-543.653 318.469,-550.652 329.969,-538 334.963,-532.506 339.597,-526.569 343.893,-520.332"/>
<polygon fill="orange" stroke="orange" points="260.079,-597.949 258.042,-608.346 266.118,-601.488 260.079,-597.949"/>
<text text-anchor="middle" x="319.469" y="-559.5" font-family="Helvetica,sans-Serif" font-size="10.00"> &lt; char * &gt;</text>
</g>
<!-- Node5&#45;&gt;Node8 -->
<g id="edge13" class="edge"><title>Node5&#45;&gt;Node8</title>
<path fill="none" stroke="orange" d="M152.739,-631.413C143.228,-615.667 132.867,-600.057 121.969,-586 114.842,-576.807 107.566,-578.686 102.969,-568 98.7588,-558.211 96.2298,-547.926 95.0232,-537.428"/>
<polygon fill="orange" stroke="orange" points="149.819,-633.352 157.933,-640.165 155.839,-629.779 149.819,-633.352"/>
<text text-anchor="middle" x="139.969" y="-559.5" font-family="Helvetica,sans-Serif" font-size="10.00"> &lt; const char * &gt;</text>
</g>
<!-- Node6 -->
<g id="node6" class="node"><title>Node6</title>
<polygon fill="none" stroke="#bfbfbf" points="412.469,-956.5 412.469,-1013.5 441.469,-1013.5 441.469,-956.5 412.469,-956.5"/>
<text text-anchor="middle" x="426.969" y="-1001.5" font-family="Helvetica,sans-Serif" font-size="10.00">T</text>
<polyline fill="none" stroke="#bfbfbf" points="412.469,-994.5 441.469,-994.5 "/>
<text text-anchor="middle" x="426.969" y="-982.5" font-family="Helvetica,sans-Serif" font-size="10.00"> </text>
<polyline fill="none" stroke="#bfbfbf" points="412.469,-975.5 441.469,-975.5 "/>
<text text-anchor="middle" x="426.969" y="-963.5" font-family="Helvetica,sans-Serif" font-size="10.00"> </text>
</g>
<!-- Node6&#45;&gt;Node5 -->
<g id="edge6" class="edge"><title>Node6&#45;&gt;Node5</title>
<path fill="none" stroke="#404040" d="M412.189,-978.061C384.658,-966.371 324.972,-937.992 287.969,-898 279.553,-888.904 271.784,-878.756 264.669,-868.123"/>
<polygon fill="none" stroke="#404040" points="264.526,-867.901 257.92,-865.01 258.048,-857.8 264.654,-860.691 264.526,-867.901"/>
<text text-anchor="middle" x="352.469" y="-924.5" font-family="Helvetica,sans-Serif" font-size="10.00"> +Data</text>
</g>
<!-- Node7 -->
<g id="node7" class="node"><title>Node7</title>
<polygon fill="none" stroke="#bfbfbf" points="462.469,-353.5 462.469,-410.5 497.469,-410.5 497.469,-353.5 462.469,-353.5"/>
<text text-anchor="middle" x="479.969" y="-398.5" font-family="Helvetica,sans-Serif" font-size="10.00">bool</text>
<polyline fill="none" stroke="#bfbfbf" points="462.469,-391.5 497.469,-391.5 "/>
<text text-anchor="middle" x="479.969" y="-379.5" font-family="Helvetica,sans-Serif" font-size="10.00"> </text>
<polyline fill="none" stroke="#bfbfbf" points="462.469,-372.5 497.469,-372.5 "/>
<text text-anchor="middle" x="479.969" y="-360.5" font-family="Helvetica,sans-Serif" font-size="10.00"> </text>
</g>
<!-- Node7&#45;&gt;Node1 -->
<g id="edge9" class="edge"><title>Node7&#45;&gt;Node1</title>
<path fill="none" stroke="#404040" d="M480.816,-353.265C480.59,-320.626 476.294,-265.836 452.969,-226 429.537,-185.981 390.201,-152.562 354.954,-128.319"/>
<polygon fill="none" stroke="#404040" points="354.621,-128.096 347.41,-128.075 344.655,-121.411 351.866,-121.431 354.621,-128.096"/>
<text text-anchor="middle" x="478.469" y="-194.5" font-family="Helvetica,sans-Serif" font-size="10.00"> +ScrollToBottom</text>
</g>
<!-- Node8&#45;&gt;Node1 -->
<g id="edge10" class="edge"><title>Node8&#45;&gt;Node1</title>
<path fill="none" stroke="#404040" d="M187.287,-226.906C193.018,-212.834 199.252,-198.998 205.969,-186 207.296,-183.434 208.684,-180.862 210.124,-178.292"/>
<polygon fill="none" stroke="#404040" points="210.234,-178.104 209.821,-170.904 216.308,-167.755 216.721,-174.954 210.234,-178.104"/>
<text text-anchor="middle" x="235.969" y="-194.5" font-family="Helvetica,sans-Serif" font-size="10.00"> +Commands</text>
</g>
</g>
</svg>
