<?xml version="1.0" encoding="UTF-8" standalone="no"?>
<!DOCTYPE svg PUBLIC "-//W3C//DTD SVG 1.1//EN"
 "http://www.w3.org/Graphics/SVG/1.1/DTD/svg11.dtd">
<!-- Generated by graphviz version 2.36.0 (20140111.2315)
 -->
<!-- Title: /home/travis/build/AliceO2Group/AliceO2/CCDB/src/runConditionsServer.cxx Pages: 1 -->
<svg width="666pt" height="274pt"
 viewBox="0.00 0.00 666.00 274.00" xmlns="http://www.w3.org/2000/svg" xmlns:xlink="http://www.w3.org/1999/xlink">
<g id="graph0" class="graph" transform="scale(1 1) rotate(0) translate(4 270)">
<title>/home/travis/build/AliceO2Group/AliceO2/CCDB/src/runConditionsServer.cxx</title>
<!-- Node1 -->
<g id="node1" class="node"><title>Node1</title>
<polygon fill="#bfbfbf" stroke="black" points="36,-224.5 36,-265.5 212,-265.5 212,-224.5 36,-224.5"/>
<text text-anchor="start" x="44" y="-253.5" font-family="Helvetica,sans-Serif" font-size="10.00">/home/travis/build</text>
<text text-anchor="start" x="44" y="-242.5" font-family="Helvetica,sans-Serif" font-size="10.00">/AliceO2Group/AliceO2</text>
<text text-anchor="middle" x="124" y="-231.5" font-family="Helvetica,sans-Serif" font-size="10.00">/CCDB/src/runConditionsServer.cxx</text>
</g>
<!-- Node2 -->
<g id="node2" class="node"><title>Node2</title>
<polygon fill="none" stroke="#bfbfbf" points="2.5,-168.5 2.5,-187.5 103.5,-187.5 103.5,-168.5 2.5,-168.5"/>
<text text-anchor="middle" x="53" y="-175.5" font-family="Helvetica,sans-Serif" font-size="10.00">runFairMQDevice.h</text>
</g>
<!-- Node1&#45;&gt;Node2 -->
<g id="edge1" class="edge"><title>Node1&#45;&gt;Node2</title>
<path fill="none" stroke="midnightblue" d="M102.698,-224.498C92.2307,-214.915 79.7922,-203.528 69.9775,-194.543"/>
<polygon fill="midnightblue" stroke="midnightblue" points="72.1905,-191.824 62.4512,-187.652 67.4637,-196.987 72.1905,-191.824"/>
</g>
<!-- Node3 -->
<g id="node3" class="node"><title>Node3</title>
<g id="a_node3"><a xlink:href="../../d7/dc8/ConditionsMQServer_8h.html" target="_top" xlink:title="CCDB/ConditionsMQServer.h">
<polygon fill="none" stroke="black" points="122,-168.5 122,-187.5 270,-187.5 270,-168.5 122,-168.5"/>
<text text-anchor="middle" x="196" y="-175.5" font-family="Helvetica,sans-Serif" font-size="10.00">CCDB/ConditionsMQServer.h</text>
</a>
</g>
</g>
<!-- Node1&#45;&gt;Node3 -->
<g id="edge2" class="edge"><title>Node1&#45;&gt;Node3</title>
<path fill="none" stroke="midnightblue" d="M145.602,-224.498C156.217,-214.915 168.83,-203.528 178.783,-194.543"/>
<polygon fill="midnightblue" stroke="midnightblue" points="181.338,-196.952 186.416,-187.652 176.648,-191.756 181.338,-196.952"/>
</g>
<!-- Node4 -->
<g id="node4" class="node"><title>Node4</title>
<polygon fill="none" stroke="#bfbfbf" points="89.5,-112.5 89.5,-131.5 130.5,-131.5 130.5,-112.5 89.5,-112.5"/>
<text text-anchor="middle" x="110" y="-119.5" font-family="Helvetica,sans-Serif" font-size="10.00">string</text>
</g>
<!-- Node3&#45;&gt;Node4 -->
<g id="edge3" class="edge"><title>Node3&#45;&gt;Node4</title>
<path fill="none" stroke="midnightblue" d="M182.183,-168.324C168.767,-159.9 148.176,-146.971 132.414,-137.074"/>
<polygon fill="midnightblue" stroke="midnightblue" points="134.113,-134.008 123.783,-131.655 130.391,-139.936 134.113,-134.008"/>
</g>
<!-- Node5 -->
<g id="node5" class="node"><title>Node5</title>
<g id="a_node5"><a xlink:href="../../d1/da0/Manager_8h.html" target="_top" xlink:title="CCDB/Manager.h">
<polygon fill="none" stroke="black" points="148.5,-112.5 148.5,-131.5 243.5,-131.5 243.5,-112.5 148.5,-112.5"/>
<text text-anchor="middle" x="196" y="-119.5" font-family="Helvetica,sans-Serif" font-size="10.00">CCDB/Manager.h</text>
</a>
</g>
</g>
<!-- Node3&#45;&gt;Node5 -->
<g id="edge4" class="edge"><title>Node3&#45;&gt;Node5</title>
<path fill="none" stroke="midnightblue" d="M196,-168.083C196,-161.006 196,-150.861 196,-141.986"/>
<polygon fill="midnightblue" stroke="midnightblue" points="199.5,-141.751 196,-131.751 192.5,-141.751 199.5,-141.751"/>
</g>
<!-- Node19 -->
<g id="node19" class="node"><title>Node19</title>
<polygon fill="none" stroke="#bfbfbf" points="262,-112.5 262,-131.5 376,-131.5 376,-112.5 262,-112.5"/>
<text text-anchor="middle" x="319" y="-119.5" font-family="Helvetica,sans-Serif" font-size="10.00">ParameterMQServer.h</text>
</g>
<!-- Node3&#45;&gt;Node19 -->
<g id="edge19" class="edge"><title>Node3&#45;&gt;Node19</title>
<path fill="none" stroke="midnightblue" d="M215.49,-168.444C235.642,-159.596 267.323,-145.687 290.331,-135.586"/>
<polygon fill="midnightblue" stroke="midnightblue" points="291.852,-138.741 299.601,-131.516 289.038,-132.332 291.852,-138.741"/>
</g>
<!-- Node6 -->
<g id="node6" class="node"><title>Node6</title>
<polygon fill="none" stroke="#bfbfbf" points="-0.5,-56.5 -0.5,-75.5 46.5,-75.5 46.5,-56.5 -0.5,-56.5"/>
<text text-anchor="middle" x="23" y="-63.5" font-family="Helvetica,sans-Serif" font-size="10.00">TList.h</text>
</g>
<!-- Node5&#45;&gt;Node6 -->
<g id="edge5" class="edge"><title>Node5&#45;&gt;Node6</title>
<path fill="none" stroke="midnightblue" d="M168.588,-112.444C138.108,-102.93 88.8801,-87.5637 56.2313,-77.3728"/>
<polygon fill="midnightblue" stroke="midnightblue" points="57.2589,-74.0271 46.6703,-74.3884 55.1732,-80.7091 57.2589,-74.0271"/>
</g>
<!-- Node7 -->
<g id="node7" class="node"><title>Node7</title>
<polygon fill="none" stroke="#bfbfbf" points="65,-56.5 65,-75.5 115,-75.5 115,-56.5 65,-56.5"/>
<text text-anchor="middle" x="90" y="-63.5" font-family="Helvetica,sans-Serif" font-size="10.00">TMap.h</text>
</g>
<!-- Node5&#45;&gt;Node7 -->
<g id="edge6" class="edge"><title>Node5&#45;&gt;Node7</title>
<path fill="none" stroke="midnightblue" d="M178.969,-112.324C161.97,-103.664 135.624,-90.2424 116.007,-80.249"/>
<polygon fill="midnightblue" stroke="midnightblue" points="117.488,-77.0752 106.988,-75.6545 114.31,-83.3125 117.488,-77.0752"/>
</g>
<!-- Node8 -->
<g id="node8" class="node"><title>Node8</title>
<polygon fill="none" stroke="#bfbfbf" points="121.5,-0.5 121.5,-19.5 180.5,-19.5 180.5,-0.5 121.5,-0.5"/>
<text text-anchor="middle" x="151" y="-7.5" font-family="Helvetica,sans-Serif" font-size="10.00">TObject.h</text>
</g>
<!-- Node5&#45;&gt;Node8 -->
<g id="edge7" class="edge"><title>Node5&#45;&gt;Node8</title>
<path fill="none" stroke="midnightblue" d="M187.259,-112.185C179.353,-103.667 168.052,-90.0252 162,-76 155.687,-61.3699 152.988,-43.4289 151.838,-30.1048"/>
<polygon fill="midnightblue" stroke="midnightblue" points="155.309,-29.5385 151.175,-19.7835 148.323,-29.9873 155.309,-29.5385"/>
</g>
<!-- Node9 -->
<g id="node9" class="node"><title>Node9</title>
<polygon fill="none" stroke="#bfbfbf" points="171.5,-56.5 171.5,-75.5 220.5,-75.5 220.5,-56.5 171.5,-56.5"/>
<text text-anchor="middle" x="196" y="-63.5" font-family="Helvetica,sans-Serif" font-size="10.00">cstddef</text>
</g>
<!-- Node5&#45;&gt;Node9 -->
<g id="edge8" class="edge"><title>Node5&#45;&gt;Node9</title>
<path fill="none" stroke="midnightblue" d="M196,-112.083C196,-105.006 196,-94.8611 196,-85.9865"/>
<polygon fill="midnightblue" stroke="midnightblue" points="199.5,-85.751 196,-75.7511 192.5,-85.7511 199.5,-85.751"/>
</g>
<!-- Node10 -->
<g id="node10" class="node"><title>Node10</title>
<polygon fill="none" stroke="#bfbfbf" points="239,-56.5 239,-75.5 295,-75.5 295,-56.5 239,-56.5"/>
<text text-anchor="middle" x="267" y="-63.5" font-family="Helvetica,sans-Serif" font-size="10.00">Rtypes.h</text>
</g>
<!-- Node5&#45;&gt;Node10 -->
<g id="edge9" class="edge"><title>Node5&#45;&gt;Node10</title>
<path fill="none" stroke="midnightblue" d="M207.407,-112.324C218.109,-104.185 234.341,-91.8395 247.163,-82.0874"/>
<polygon fill="midnightblue" stroke="midnightblue" points="249.544,-84.6734 255.385,-75.8339 245.307,-79.1018 249.544,-84.6734"/>
</g>
<!-- Node11 -->
<g id="node11" class="node"><title>Node11</title>
<polygon fill="none" stroke="#bfbfbf" points="313,-56.5 313,-75.5 369,-75.5 369,-56.5 313,-56.5"/>
<text text-anchor="middle" x="341" y="-63.5" font-family="Helvetica,sans-Serif" font-size="10.00">TString.h</text>
</g>
<!-- Node5&#45;&gt;Node11 -->
<g id="edge10" class="edge"><title>Node5&#45;&gt;Node11</title>
<path fill="none" stroke="midnightblue" d="M218.976,-112.444C243.157,-103.438 281.418,-89.1891 308.646,-79.049"/>
<polygon fill="midnightblue" stroke="midnightblue" points="309.982,-82.2864 318.132,-75.5164 307.539,-75.7265 309.982,-82.2864"/>
</g>
<!-- Node12 -->
<g id="node12" class="node"><title>Node12</title>
<g id="a_node12"><a xlink:href="../../d7/d44/TObjectWrapper_8h.html" target="_top" xlink:title="CCDB/TObjectWrapper.h">
<polygon fill="none" stroke="black" points="387,-56.5 387,-75.5 515,-75.5 515,-56.5 387,-56.5"/>
<text text-anchor="middle" x="451" y="-63.5" font-family="Helvetica,sans-Serif" font-size="10.00">CCDB/TObjectWrapper.h</text>
</a>
</g>
</g>
<!-- Node5&#45;&gt;Node12 -->
<g id="edge11" class="edge"><title>Node5&#45;&gt;Node12</title>
<path fill="none" stroke="midnightblue" d="M236.406,-112.444C280.983,-103.004 352.768,-87.802 400.892,-77.6111"/>
<polygon fill="midnightblue" stroke="midnightblue" points="401.726,-81.0123 410.784,-75.5164 400.275,-74.1641 401.726,-81.0123"/>
</g>
<!-- Node12&#45;&gt;Node8 -->
<g id="edge13" class="edge"><title>Node12&#45;&gt;Node8</title>
<path fill="none" stroke="midnightblue" d="M403.464,-56.4435C344.638,-45.8548 245.537,-28.0166 190.625,-18.1324"/>
<polygon fill="midnightblue" stroke="midnightblue" points="191.043,-14.6515 180.581,-16.3245 189.803,-21.5408 191.043,-14.6515"/>
</g>
<!-- Node13 -->
<g id="node13" class="node"><title>Node13</title>
<polygon fill="none" stroke="#bfbfbf" points="242,-0.5 242,-19.5 298,-19.5 298,-0.5 242,-0.5"/>
<text text-anchor="middle" x="270" y="-7.5" font-family="Helvetica,sans-Serif" font-size="10.00">TClass.h</text>
</g>
<!-- Node12&#45;&gt;Node13 -->
<g id="edge12" class="edge"><title>Node12&#45;&gt;Node13</title>
<path fill="none" stroke="midnightblue" d="M422.32,-56.4435C391.382,-47.2135 341.982,-32.4753 307.87,-22.2983"/>
<polygon fill="midnightblue" stroke="midnightblue" points="308.831,-18.9326 298.248,-19.4275 306.83,-25.6404 308.831,-18.9326"/>
</g>
<!-- Node14 -->
<g id="node14" class="node"><title>Node14</title>
<polygon fill="none" stroke="#bfbfbf" points="316.5,-0.5 316.5,-19.5 369.5,-19.5 369.5,-0.5 316.5,-0.5"/>
<text text-anchor="middle" x="343" y="-7.5" font-family="Helvetica,sans-Serif" font-size="10.00">cxxabi.h</text>
</g>
<!-- Node12&#45;&gt;Node14 -->
<g id="edge14" class="edge"><title>Node12&#45;&gt;Node14</title>
<path fill="none" stroke="midnightblue" d="M433.648,-56.324C416.328,-47.6641 389.485,-34.2424 369.498,-24.249"/>
<polygon fill="midnightblue" stroke="midnightblue" points="370.819,-20.9962 360.309,-19.6545 367.688,-27.2572 370.819,-20.9962"/>
</g>
<!-- Node15 -->
<g id="node15" class="node"><title>Node15</title>
<polygon fill="none" stroke="#bfbfbf" points="388,-0.5 388,-19.5 442,-19.5 442,-0.5 388,-0.5"/>
<text text-anchor="middle" x="415" y="-7.5" font-family="Helvetica,sans-Serif" font-size="10.00">iostream</text>
</g>
<!-- Node12&#45;&gt;Node15 -->
<g id="edge15" class="edge"><title>Node12&#45;&gt;Node15</title>
<path fill="none" stroke="midnightblue" d="M445.055,-56.083C440.023,-48.5341 432.663,-37.4948 426.487,-28.2298"/>
<polygon fill="midnightblue" stroke="midnightblue" points="429.293,-26.1301 420.834,-19.7511 423.469,-30.0131 429.293,-26.1301"/>
</g>
<!-- Node16 -->
<g id="node16" class="node"><title>Node16</title>
<polygon fill="none" stroke="#bfbfbf" points="460,-0.5 460,-19.5 512,-19.5 512,-0.5 460,-0.5"/>
<text text-anchor="middle" x="486" y="-7.5" font-family="Helvetica,sans-Serif" font-size="10.00">memory</text>
</g>
<!-- Node12&#45;&gt;Node16 -->
<g id="edge16" class="edge"><title>Node12&#45;&gt;Node16</title>
<path fill="none" stroke="midnightblue" d="M456.78,-56.083C461.672,-48.5341 468.827,-37.4948 474.833,-28.2298"/>
<polygon fill="midnightblue" stroke="midnightblue" points="477.826,-30.0463 480.328,-19.7511 471.952,-26.239 477.826,-30.0463"/>
</g>
<!-- Node17 -->
<g id="node17" class="node"><title>Node17</title>
<polygon fill="none" stroke="#bfbfbf" points="530.5,-0.5 530.5,-19.5 589.5,-19.5 589.5,-0.5 530.5,-0.5"/>
<text text-anchor="middle" x="560" y="-7.5" font-family="Helvetica,sans-Serif" font-size="10.00">stdexcept</text>
</g>
<!-- Node12&#45;&gt;Node17 -->
<g id="edge17" class="edge"><title>Node12&#45;&gt;Node17</title>
<path fill="none" stroke="midnightblue" d="M468.513,-56.324C486.072,-47.6247 513.331,-34.1202 533.531,-24.113"/>
<polygon fill="midnightblue" stroke="midnightblue" points="535.124,-27.23 542.531,-19.6545 532.016,-20.9575 535.124,-27.23"/>
</g>
<!-- Node18 -->
<g id="node18" class="node"><title>Node18</title>
<polygon fill="none" stroke="#bfbfbf" points="607.5,-0.5 607.5,-19.5 658.5,-19.5 658.5,-0.5 607.5,-0.5"/>
<text text-anchor="middle" x="633" y="-7.5" font-family="Helvetica,sans-Serif" font-size="10.00">typeinfo</text>
</g>
<!-- Node12&#45;&gt;Node18 -->
<g id="edge18" class="edge"><title>Node12&#45;&gt;Node18</title>
<path fill="none" stroke="midnightblue" d="M479.838,-56.4435C511.768,-46.9699 563.255,-31.6935 597.604,-21.5022"/>
<polygon fill="midnightblue" stroke="midnightblue" points="598.648,-24.8433 607.239,-18.6433 596.657,-18.1324 598.648,-24.8433"/>
</g>
</g>
</svg>
