<?xml version="1.0" encoding="UTF-8" standalone="no"?>
<!DOCTYPE svg PUBLIC "-//W3C//DTD SVG 1.1//EN"
 "http://www.w3.org/Graphics/SVG/1.1/DTD/svg11.dtd">
<!-- Generated by graphviz version 2.36.0 (20140111.2315)
 -->
<!-- Title: /home/travis/build/AliceO2Group/AliceO2/Detectors/EMCAL/base/include/EMCALBase/GeometryBase.h Pages: 1 -->
<svg width="473pt" height="242pt"
 viewBox="0.00 0.00 473.00 242.00" xmlns="http://www.w3.org/2000/svg" xmlns:xlink="http://www.w3.org/1999/xlink">
<g id="graph0" class="graph" transform="scale(1 1) rotate(0) translate(4 238)">
<title>/home/travis/build/AliceO2Group/AliceO2/Detectors/EMCAL/base/include/EMCALBase/GeometryBase.h</title>
<!-- Node1 -->
<g id="node1" class="node"><title>Node1</title>
<polygon fill="#bfbfbf" stroke="black" points="127.5,-181 127.5,-233 314.5,-233 314.5,-181 127.5,-181"/>
<text text-anchor="start" x="135.5" y="-221" font-family="Helvetica,sans-Serif" font-size="10.00">/home/travis/build</text>
<text text-anchor="start" x="135.5" y="-210" font-family="Helvetica,sans-Serif" font-size="10.00">/AliceO2Group/AliceO2</text>
<text text-anchor="start" x="135.5" y="-199" font-family="Helvetica,sans-Serif" font-size="10.00">/Detectors/EMCAL/base</text>
<text text-anchor="middle" x="221" y="-188" font-family="Helvetica,sans-Serif" font-size="10.00">/include/EMCALBase/GeometryBase.h</text>
</g>
<!-- Node2 -->
<g id="node2" class="node"><title>Node2</title>
<g id="a_node2"><a xlink:href="../../dd/da8/EMCAL_2base_2include_2EMCALBase_2Geometry_8h.html" target="_top" xlink:title="/home/travis/build\l/AliceO2Group/AliceO2\l/Detectors/EMCAL/base\l/include/EMCALBase/Geometry.h">
<polygon fill="none" stroke="black" points="139,-91 139,-143 303,-143 303,-91 139,-91"/>
<text text-anchor="start" x="147" y="-131" font-family="Helvetica,sans-Serif" font-size="10.00">/home/travis/build</text>
<text text-anchor="start" x="147" y="-120" font-family="Helvetica,sans-Serif" font-size="10.00">/AliceO2Group/AliceO2</text>
<text text-anchor="start" x="147" y="-109" font-family="Helvetica,sans-Serif" font-size="10.00">/Detectors/EMCAL/base</text>
<text text-anchor="middle" x="221" y="-98" font-family="Helvetica,sans-Serif" font-size="10.00">/include/EMCALBase/Geometry.h</text>
</a>
</g>
</g>
<!-- Node1&#45;&gt;Node2 -->
<g id="edge1" class="edge"><title>Node1&#45;&gt;Node2</title>
<path fill="none" stroke="midnightblue" d="M221,-170.489C221,-161.309 221,-151.616 221,-143.092"/>
<polygon fill="midnightblue" stroke="midnightblue" points="217.5,-170.547 221,-180.547 224.5,-170.547 217.5,-170.547"/>
</g>
<!-- Node3 -->
<g id="node3" class="node"><title>Node3</title>
<g id="a_node3"><a xlink:href="../../de/d49/EMCAL_2base_2src_2Geometry_8cxx.html" target="_top" xlink:title="/home/travis/build\l/AliceO2Group/AliceO2\l/Detectors/EMCAL/base\l/src/Geometry.cxx">
<polygon fill="none" stroke="black" points="0,-1 0,-53 124,-53 124,-1 0,-1"/>
<text text-anchor="start" x="8" y="-41" font-family="Helvetica,sans-Serif" font-size="10.00">/home/travis/build</text>
<text text-anchor="start" x="8" y="-30" font-family="Helvetica,sans-Serif" font-size="10.00">/AliceO2Group/AliceO2</text>
<text text-anchor="start" x="8" y="-19" font-family="Helvetica,sans-Serif" font-size="10.00">/Detectors/EMCAL/base</text>
<text text-anchor="middle" x="62" y="-8" font-family="Helvetica,sans-Serif" font-size="10.00">/src/Geometry.cxx</text>
</a>
</g>
</g>
<!-- Node2&#45;&gt;Node3 -->
<g id="edge2" class="edge"><title>Node2&#45;&gt;Node3</title>
<path fill="none" stroke="midnightblue" d="M166.462,-85.8154C147.183,-75.1451 125.724,-63.2684 107.295,-53.0687"/>
<polygon fill="midnightblue" stroke="midnightblue" points="164.993,-89.0026 175.437,-90.7827 168.382,-82.878 164.993,-89.0026"/>
</g>
<!-- Node4 -->
<g id="node4" class="node"><title>Node4</title>
<g id="a_node4"><a xlink:href="../../df/d2e/ShishKebabTrd1Module_8cxx.html" target="_top" xlink:title="/home/travis/build\l/AliceO2Group/AliceO2\l/Detectors/EMCAL/base\l/src/ShishKebabTrd1Module.cxx">
<polygon fill="none" stroke="black" points="142,-1 142,-53 300,-53 300,-1 142,-1"/>
<text text-anchor="start" x="150" y="-41" font-family="Helvetica,sans-Serif" font-size="10.00">/home/travis/build</text>
<text text-anchor="start" x="150" y="-30" font-family="Helvetica,sans-Serif" font-size="10.00">/AliceO2Group/AliceO2</text>
<text text-anchor="start" x="150" y="-19" font-family="Helvetica,sans-Serif" font-size="10.00">/Detectors/EMCAL/base</text>
<text text-anchor="middle" x="221" y="-8" font-family="Helvetica,sans-Serif" font-size="10.00">/src/ShishKebabTrd1Module.cxx</text>
</a>
</g>
</g>
<!-- Node2&#45;&gt;Node4 -->
<g id="edge3" class="edge"><title>Node2&#45;&gt;Node4</title>
<path fill="none" stroke="midnightblue" d="M221,-80.4892C221,-71.3088 221,-61.616 221,-53.0921"/>
<polygon fill="midnightblue" stroke="midnightblue" points="217.5,-80.5467 221,-90.5468 224.5,-80.5468 217.5,-80.5467"/>
</g>
<!-- Node5 -->
<g id="node5" class="node"><title>Node5</title>
<g id="a_node5"><a xlink:href="../../da/d98/EMCAL_2simulation_2src_2Detector_8cxx.html" target="_top" xlink:title="/home/travis/build\l/AliceO2Group/AliceO2\l/Detectors/EMCAL/simulation\l/src/Detector.cxx">
<polygon fill="none" stroke="black" points="318.5,-1 318.5,-53 465.5,-53 465.5,-1 318.5,-1"/>
<text text-anchor="start" x="326.5" y="-41" font-family="Helvetica,sans-Serif" font-size="10.00">/home/travis/build</text>
<text text-anchor="start" x="326.5" y="-30" font-family="Helvetica,sans-Serif" font-size="10.00">/AliceO2Group/AliceO2</text>
<text text-anchor="start" x="326.5" y="-19" font-family="Helvetica,sans-Serif" font-size="10.00">/Detectors/EMCAL/simulation</text>
<text text-anchor="middle" x="392" y="-8" font-family="Helvetica,sans-Serif" font-size="10.00">/src/Detector.cxx</text>
</a>
</g>
</g>
<!-- Node2&#45;&gt;Node5 -->
<g id="edge4" class="edge"><title>Node2&#45;&gt;Node5</title>
<path fill="none" stroke="midnightblue" d="M279.092,-86.1047C299.971,-75.3602 323.288,-63.3607 343.287,-53.0687"/>
<polygon fill="midnightblue" stroke="midnightblue" points="277.292,-83.0948 270.002,-90.7827 280.495,-89.3189 277.292,-83.0948"/>
</g>
</g>
</svg>
