<?xml version="1.0" encoding="UTF-8" standalone="no"?>
<!DOCTYPE svg PUBLIC "-//W3C//DTD SVG 1.1//EN"
 "http://www.w3.org/Graphics/SVG/1.1/DTD/svg11.dtd">
<!-- Generated by graphviz version 2.36.0 (20140111.2315)
 -->
<!-- Title: /home/travis/build/AliceO2Group/AliceO2/Detectors/TPC/reconstruction/src/SyncPatternMonitor.cxx Pages: 1 -->
<svg width="275pt" height="186pt"
 viewBox="0.00 0.00 275.00 186.00" xmlns="http://www.w3.org/2000/svg" xmlns:xlink="http://www.w3.org/1999/xlink">
<g id="graph0" class="graph" transform="scale(1 1) rotate(0) translate(4 182)">
<title>/home/travis/build/AliceO2Group/AliceO2/Detectors/TPC/reconstruction/src/SyncPatternMonitor.cxx</title>
<!-- Node1 -->
<g id="node1" class="node"><title>Node1</title>
<polygon fill="#bfbfbf" stroke="black" points="76,-125 76,-177 226,-177 226,-125 76,-125"/>
<text text-anchor="start" x="84" y="-165" font-family="Helvetica,sans-Serif" font-size="10.00">/home/travis/build</text>
<text text-anchor="start" x="84" y="-154" font-family="Helvetica,sans-Serif" font-size="10.00">/AliceO2Group/AliceO2</text>
<text text-anchor="start" x="84" y="-143" font-family="Helvetica,sans-Serif" font-size="10.00">/Detectors/TPC/reconstruction</text>
<text text-anchor="middle" x="151" y="-132" font-family="Helvetica,sans-Serif" font-size="10.00">/src/SyncPatternMonitor.cxx</text>
</g>
<!-- Node2 -->
<g id="node2" class="node"><title>Node2</title>
<g id="a_node2"><a xlink:href="../../d1/df0/SyncPatternMonitor_8h.html" target="_top" xlink:title="Class to monitor the data stream and detect synchronization patterns. ">
<polygon fill="none" stroke="black" points="71,-57 71,-87 231,-87 231,-57 71,-57"/>
<text text-anchor="start" x="79" y="-75" font-family="Helvetica,sans-Serif" font-size="10.00">TPCReconstruction/SyncPattern</text>
<text text-anchor="middle" x="151" y="-64" font-family="Helvetica,sans-Serif" font-size="10.00">Monitor.h</text>
</a>
</g>
</g>
<!-- Node1&#45;&gt;Node2 -->
<g id="edge1" class="edge"><title>Node1&#45;&gt;Node2</title>
<path fill="none" stroke="midnightblue" d="M151,-124.787C151,-116.029 151,-106.225 151,-97.5232"/>
<polygon fill="midnightblue" stroke="midnightblue" points="154.5,-97.252 151,-87.252 147.5,-97.2521 154.5,-97.252"/>
</g>
<!-- Node3 -->
<g id="node3" class="node"><title>Node3</title>
<polygon fill="none" stroke="#bfbfbf" points="-0.5,-0.5 -0.5,-19.5 70.5,-19.5 70.5,-0.5 -0.5,-0.5"/>
<text text-anchor="middle" x="35" y="-7.5" font-family="Helvetica,sans-Serif" font-size="10.00">FairLogger.h</text>
</g>
<!-- Node2&#45;&gt;Node3 -->
<g id="edge2" class="edge"><title>Node2&#45;&gt;Node3</title>
<path fill="none" stroke="midnightblue" d="M123.803,-56.9327C104.757,-47.0811 79.4674,-34.0004 60.7486,-24.3182"/>
<polygon fill="midnightblue" stroke="midnightblue" points="62.1169,-21.0855 51.6267,-19.6 58.9009,-27.3031 62.1169,-21.0855"/>
</g>
<!-- Node4 -->
<g id="node4" class="node"><title>Node4</title>
<polygon fill="none" stroke="#bfbfbf" points="89,-0.5 89,-19.5 143,-19.5 143,-0.5 89,-0.5"/>
<text text-anchor="middle" x="116" y="-7.5" font-family="Helvetica,sans-Serif" font-size="10.00">iostream</text>
</g>
<!-- Node2&#45;&gt;Node4 -->
<g id="edge3" class="edge"><title>Node2&#45;&gt;Node4</title>
<path fill="none" stroke="midnightblue" d="M142.705,-56.7808C137.777,-48.3318 131.486,-37.5481 126.249,-28.5693"/>
<polygon fill="midnightblue" stroke="midnightblue" points="129.155,-26.6048 121.093,-19.7305 123.108,-30.1319 129.155,-26.6048"/>
</g>
<!-- Node5 -->
<g id="node5" class="node"><title>Node5</title>
<polygon fill="none" stroke="#bfbfbf" points="161,-0.5 161,-19.5 211,-19.5 211,-0.5 161,-0.5"/>
<text text-anchor="middle" x="186" y="-7.5" font-family="Helvetica,sans-Serif" font-size="10.00">iomanip</text>
</g>
<!-- Node2&#45;&gt;Node5 -->
<g id="edge4" class="edge"><title>Node2&#45;&gt;Node5</title>
<path fill="none" stroke="midnightblue" d="M159.295,-56.7808C164.223,-48.3318 170.514,-37.5481 175.751,-28.5693"/>
<polygon fill="midnightblue" stroke="midnightblue" points="178.892,-30.1319 180.907,-19.7305 172.845,-26.6048 178.892,-30.1319"/>
</g>
<!-- Node6 -->
<g id="node6" class="node"><title>Node6</title>
<polygon fill="none" stroke="#bfbfbf" points="229,-0.5 229,-19.5 267,-19.5 267,-0.5 229,-0.5"/>
<text text-anchor="middle" x="248" y="-7.5" font-family="Helvetica,sans-Serif" font-size="10.00">array</text>
</g>
<!-- Node2&#45;&gt;Node6 -->
<g id="edge5" class="edge"><title>Node2&#45;&gt;Node6</title>
<path fill="none" stroke="midnightblue" d="M173.988,-56.7808C189.483,-47.1958 209.837,-34.6062 225.277,-25.0555"/>
<polygon fill="midnightblue" stroke="midnightblue" points="227.505,-27.7929 234.168,-19.5557 223.823,-21.8397 227.505,-27.7929"/>
</g>
</g>
</svg>
