<?xml version="1.0" encoding="UTF-8" standalone="no"?>
<!DOCTYPE svg PUBLIC "-//W3C//DTD SVG 1.1//EN"
 "http://www.w3.org/Graphics/SVG/1.1/DTD/svg11.dtd">
<!-- Generated by graphviz version 2.36.0 (20140111.2315)
 -->
<!-- Title: /home/travis/build/AliceO2Group/AliceO2/CCDB/test/testQueryServerStandalone.cxx Pages: 1 -->
<!--zoomable 286 -->
<svg id="main" version="1.1" xmlns="http://www.w3.org/2000/svg" xmlns:xlink="http://www.w3.org/1999/xlink" xml:space="preserve" onload="init(evt)">
<style type="text/css"><![CDATA[
.edge:hover path { stroke: red; }
.edge:hover polygon { stroke: red; fill: red; }
]]></style>
<script type="text/javascript"><![CDATA[
var edges = document.getElementsByTagName('g');
if (edges && edges.length) {
  for (var i=0;i<edges.length;i++) {
    if (edges[i].id.substr(0,4)=='edge') {
      edges[i].setAttribute('class','edge');
    }
  }
}
]]></script>
        <defs>
                <circle id="rim" cx="0" cy="0" r="7"/>
                <circle id="rim2" cx="0" cy="0" r="3.5"/>
                <g id="zoomPlus">
                        <use xlink:href="#rim" fill="#404040">
                                <set attributeName="fill" to="#808080" begin="zoomplus.mouseover" end="zoomplus.mouseout"/>
                        </use>
                        <path d="M-4,0h8M0,-4v8" fill="none" stroke="white" stroke-width="1.5" pointer-events="none"/>
                </g>
                <g id="zoomMin">
                        <use xlink:href="#rim" fill="#404040">
                                <set attributeName="fill" to="#808080" begin="zoomminus.mouseover" end="zoomminus.mouseout"/>
                        </use>
                        <path d="M-4,0h8" fill="none" stroke="white" stroke-width="1.5" pointer-events="none"/>
                </g>
                <g id="dirArrow">
                        <path fill="none" stroke="white" stroke-width="1.5" d="M0,-3.0v7 M-2.5,-0.5L0,-3.0L2.5,-0.5"/>
                </g>
               <g id="resetDef">
                       <use xlink:href="#rim2" fill="#404040">
                               <set attributeName="fill" to="#808080" begin="reset.mouseover" end="reset.mouseout"/>
                       </use>
               </g>
        </defs>

<script type="text/javascript">
var viewWidth = 1585;
var viewHeight = 286;
var sectionId = 'dynsection-0';
</script>
<script xlink:href="../../svgpan.js"/>
<svg id="graph" class="graph">
<g id="viewport">
<title>/home/travis/build/AliceO2Group/AliceO2/CCDB/test/testQueryServerStandalone.cxx</title>
<!-- Node1 -->
<g id="node1" class="node"><title>Node1</title>
<polygon fill="#bfbfbf" stroke="black" points="949,-236.5 949,-277.5 1159,-277.5 1159,-236.5 949,-236.5"/>
<text text-anchor="start" x="957" y="-265.5" font-family="Helvetica,sans-Serif" font-size="10.00">/home/travis/build</text>
<text text-anchor="start" x="957" y="-254.5" font-family="Helvetica,sans-Serif" font-size="10.00">/AliceO2Group/AliceO2</text>
<text text-anchor="middle" x="1054" y="-243.5" font-family="Helvetica,sans-Serif" font-size="10.00">/CCDB/test/testQueryServerStandalone.cxx</text>
</g>
<!-- Node2 -->
<g id="node2" class="node"><title>Node2</title>
<g id="a_node2"><a xlink:href="../../d7/da5/BackendOCDB_8h.html" target="_top" xlink:title="Definition of the BackendOCDB class. ">
<polygon fill="none" stroke="black" points="315.5,-180.5 315.5,-199.5 440.5,-199.5 440.5,-180.5 315.5,-180.5"/>
<text text-anchor="middle" x="378" y="-187.5" font-family="Helvetica,sans-Serif" font-size="10.00">CCDB/BackendOCDB.h</text>
</a>
</g>
</g>
<!-- Node1&#45;&gt;Node2 -->
<g id="edge1" class="edge"><title>Node1&#45;&gt;Node2</title>
<path fill="none" stroke="midnightblue" d="M948.968,-246.922C829.311,-236.407 627.95,-218.189 455,-200 453.536,-199.846 452.057,-199.689 450.566,-199.529"/>
<polygon fill="midnightblue" stroke="midnightblue" points="450.923,-196.047 440.602,-198.44 450.162,-203.006 450.923,-196.047"/>
</g>
<!-- Node4 -->
<g id="node4" class="node"><title>Node4</title>
<polygon fill="none" stroke="#bfbfbf" points="-0.5,-62.5 -0.5,-81.5 40.5,-81.5 40.5,-62.5 -0.5,-62.5"/>
<text text-anchor="middle" x="20" y="-69.5" font-family="Helvetica,sans-Serif" font-size="10.00">string</text>
</g>
<!-- Node1&#45;&gt;Node4 -->
<g id="edge45" class="edge"><title>Node1&#45;&gt;Node4</title>
<path fill="none" stroke="midnightblue" d="M948.689,-251.676C772.518,-243.845 425.597,-225.71 306,-200 201.648,-177.567 89.02,-114.768 42.2783,-86.7715"/>
<polygon fill="midnightblue" stroke="midnightblue" points="43.9471,-83.6904 33.58,-81.5054 40.3218,-89.6785 43.9471,-83.6904"/>
</g>
<!-- Node9 -->
<g id="node9" class="node"><title>Node9</title>
<polygon fill="none" stroke="#bfbfbf" points="427,-62.5 427,-81.5 479,-81.5 479,-62.5 427,-62.5"/>
<text text-anchor="middle" x="453" y="-69.5" font-family="Helvetica,sans-Serif" font-size="10.00">memory</text>
</g>
<!-- Node1&#45;&gt;Node9 -->
<g id="edge43" class="edge"><title>Node1&#45;&gt;Node9</title>
<path fill="none" stroke="midnightblue" d="M948.915,-250.063C839.126,-240.184 664.597,-213.897 531,-144 504.748,-130.265 480.523,-105.531 466.248,-89.1873"/>
<polygon fill="midnightblue" stroke="midnightblue" points="468.872,-86.8689 459.733,-81.5081 463.534,-91.3977 468.872,-86.8689"/>
</g>
<!-- Node10 -->
<g id="node10" class="node"><title>Node10</title>
<g id="a_node10"><a xlink:href="../../da/d6a/Condition_8h.html" target="_top" xlink:title="Definition of the Condition class (CDB object) containing the condition and its metadata. ">
<polygon fill="none" stroke="black" points="784,-180.5 784,-199.5 882,-199.5 882,-180.5 784,-180.5"/>
<text text-anchor="middle" x="833" y="-187.5" font-family="Helvetica,sans-Serif" font-size="10.00">CCDB/Condition.h</text>
</a>
</g>
</g>
<!-- Node1&#45;&gt;Node10 -->
<g id="edge9" class="edge"><title>Node1&#45;&gt;Node10</title>
<path fill="none" stroke="midnightblue" d="M987.693,-236.498C949.948,-225.396 903.966,-211.872 871.99,-202.468"/>
<polygon fill="midnightblue" stroke="midnightblue" points="872.709,-199.031 862.128,-199.567 870.734,-205.747 872.709,-199.031"/>
</g>
<!-- Node24 -->
<g id="node24" class="node"><title>Node24</title>
<polygon fill="none" stroke="#bfbfbf" points="899.5,-180.5 899.5,-199.5 992.5,-199.5 992.5,-180.5 899.5,-180.5"/>
<text text-anchor="middle" x="946" y="-187.5" font-family="Helvetica,sans-Serif" font-size="10.00">FairMQChannel.h</text>
</g>
<!-- Node1&#45;&gt;Node24 -->
<g id="edge38" class="edge"><title>Node1&#45;&gt;Node24</title>
<path fill="none" stroke="midnightblue" d="M1021.6,-236.498C1004.72,-226.34 984.473,-214.155 969.182,-204.952"/>
<polygon fill="midnightblue" stroke="midnightblue" points="970.749,-201.81 960.376,-199.652 967.14,-207.808 970.749,-201.81"/>
</g>
<!-- Node25 -->
<g id="node25" class="node"><title>Node25</title>
<polygon fill="none" stroke="#bfbfbf" points="1011,-180.5 1011,-199.5 1097,-199.5 1097,-180.5 1011,-180.5"/>
<text text-anchor="middle" x="1054" y="-187.5" font-family="Helvetica,sans-Serif" font-size="10.00">FairMQLogger.h</text>
</g>
<!-- Node1&#45;&gt;Node25 -->
<g id="edge39" class="edge"><title>Node1&#45;&gt;Node25</title>
<path fill="none" stroke="midnightblue" d="M1054,-236.498C1054,-228.065 1054,-218.235 1054,-209.874"/>
<polygon fill="midnightblue" stroke="midnightblue" points="1057.5,-209.652 1054,-199.652 1050.5,-209.653 1057.5,-209.652"/>
</g>
<!-- Node26 -->
<g id="node26" class="node"><title>Node26</title>
<polygon fill="none" stroke="#bfbfbf" points="1115,-180.5 1115,-199.5 1195,-199.5 1195,-180.5 1115,-180.5"/>
<text text-anchor="middle" x="1155" y="-187.5" font-family="Helvetica,sans-Serif" font-size="10.00">FairMQParts.h</text>
</g>
<!-- Node1&#45;&gt;Node26 -->
<g id="edge40" class="edge"><title>Node1&#45;&gt;Node26</title>
<path fill="none" stroke="midnightblue" d="M1084.3,-236.498C1099.94,-226.436 1118.66,-214.385 1132.91,-205.214"/>
<polygon fill="midnightblue" stroke="midnightblue" points="1135.04,-208.008 1141.56,-199.652 1131.25,-202.121 1135.04,-208.008"/>
</g>
<!-- Node27 -->
<g id="node27" class="node"><title>Node27</title>
<polygon fill="none" stroke="#bfbfbf" points="1213.5,-180.5 1213.5,-199.5 1344.5,-199.5 1344.5,-180.5 1213.5,-180.5"/>
<text text-anchor="middle" x="1279" y="-187.5" font-family="Helvetica,sans-Serif" font-size="10.00">FairMQTransportFactory.h</text>
</g>
<!-- Node1&#45;&gt;Node27 -->
<g id="edge41" class="edge"><title>Node1&#45;&gt;Node27</title>
<path fill="none" stroke="midnightblue" d="M1121.51,-236.498C1160.1,-225.348 1207.15,-211.755 1239.73,-202.346"/>
<polygon fill="midnightblue" stroke="midnightblue" points="1240.71,-205.705 1249.34,-199.567 1238.77,-198.98 1240.71,-205.705"/>
</g>
<!-- Node28 -->
<g id="node28" class="node"><title>Node28</title>
<polygon fill="none" stroke="#bfbfbf" points="1363,-180.5 1363,-199.5 1419,-199.5 1419,-180.5 1363,-180.5"/>
<text text-anchor="middle" x="1391" y="-187.5" font-family="Helvetica,sans-Serif" font-size="10.00">algorithm</text>
</g>
<!-- Node1&#45;&gt;Node28 -->
<g id="edge42" class="edge"><title>Node1&#45;&gt;Node28</title>
<path fill="none" stroke="midnightblue" d="M1159.06,-237.58C1216.49,-227.196 1288.81,-213.605 1353,-200 1353.1,-199.979 1353.2,-199.958 1353.3,-199.937"/>
<polygon fill="midnightblue" stroke="midnightblue" points="1353.8,-203.41 1362.81,-197.833 1352.29,-196.575 1353.8,-203.41"/>
</g>
<!-- Node29 -->
<g id="node29" class="node"><title>Node29</title>
<polygon fill="none" stroke="#bfbfbf" points="1437,-180.5 1437,-199.5 1489,-199.5 1489,-180.5 1437,-180.5"/>
<text text-anchor="middle" x="1463" y="-187.5" font-family="Helvetica,sans-Serif" font-size="10.00">sstream</text>
</g>
<!-- Node1&#45;&gt;Node29 -->
<g id="edge44" class="edge"><title>Node1&#45;&gt;Node29</title>
<path fill="none" stroke="midnightblue" d="M1159.38,-242.925C1231.85,-233.287 1330.45,-218.905 1426.8,-199.858"/>
<polygon fill="midnightblue" stroke="midnightblue" points="1427.6,-203.269 1436.72,-197.879 1426.23,-196.404 1427.6,-203.269"/>
</g>
<!-- Node30 -->
<g id="node30" class="node"><title>Node30</title>
<g id="a_node30"><a xlink:href="../../df/de5/TestClass_8h.html" target="_top" xlink:title="TestClass.h">
<polygon fill="none" stroke="black" points="1507,-180.5 1507,-199.5 1577,-199.5 1577,-180.5 1507,-180.5"/>
<text text-anchor="middle" x="1542" y="-187.5" font-family="Helvetica,sans-Serif" font-size="10.00">TestClass.h</text>
</a>
</g>
</g>
<!-- Node1&#45;&gt;Node30 -->
<g id="edge46" class="edge"><title>Node1&#45;&gt;Node30</title>
<path fill="none" stroke="midnightblue" d="M1159.29,-245.011C1246.99,-235.325 1375.38,-219.917 1496.76,-200.096"/>
<polygon fill="midnightblue" stroke="midnightblue" points="1497.68,-203.492 1506.98,-198.414 1496.54,-196.585 1497.68,-203.492"/>
</g>
<!-- Node3 -->
<g id="node3" class="node"><title>Node3</title>
<g id="a_node3"><a xlink:href="../../df/d83/Backend_8h.html" target="_top" xlink:title="Definition of the Backend class. ">
<polygon fill="none" stroke="black" points="161.5,-124.5 161.5,-143.5 256.5,-143.5 256.5,-124.5 161.5,-124.5"/>
<text text-anchor="middle" x="209" y="-131.5" font-family="Helvetica,sans-Serif" font-size="10.00">CCDB/Backend.h</text>
</a>
</g>
</g>
<!-- Node2&#45;&gt;Node3 -->
<g id="edge2" class="edge"><title>Node2&#45;&gt;Node3</title>
<path fill="none" stroke="midnightblue" d="M351.221,-180.444C322.667,-171.32 277.267,-156.813 245.463,-146.651"/>
<polygon fill="midnightblue" stroke="midnightblue" points="246.244,-143.226 235.653,-143.516 244.114,-149.894 246.244,-143.226"/>
</g>
<!-- Node8 -->
<g id="node8" class="node"><title>Node8</title>
<polygon fill="none" stroke="#bfbfbf" points="355,-62.5 355,-81.5 409,-81.5 409,-62.5 355,-62.5"/>
<text text-anchor="middle" x="382" y="-69.5" font-family="Helvetica,sans-Serif" font-size="10.00">iostream</text>
</g>
<!-- Node2&#45;&gt;Node8 -->
<g id="edge7" class="edge"><title>Node2&#45;&gt;Node8</title>
<path fill="none" stroke="midnightblue" d="M378.301,-180.281C378.947,-161.547 380.479,-117.098 381.356,-91.6822"/>
<polygon fill="midnightblue" stroke="midnightblue" points="384.86,-91.6195 381.707,-81.5048 377.864,-91.3782 384.86,-91.6195"/>
</g>
<!-- Node2&#45;&gt;Node9 -->
<g id="edge8" class="edge"><title>Node2&#45;&gt;Node9</title>
<path fill="none" stroke="midnightblue" d="M383.637,-180.281C396.022,-161.126 425.791,-115.083 442.012,-89.9944"/>
<polygon fill="midnightblue" stroke="midnightblue" points="445.011,-91.8028 447.501,-81.5048 439.132,-88.0021 445.011,-91.8028"/>
</g>
<!-- Node3&#45;&gt;Node4 -->
<g id="edge3" class="edge"><title>Node3&#45;&gt;Node4</title>
<path fill="none" stroke="midnightblue" d="M171.406,-124.478C138.771,-116.582 90.526,-103.706 50,-88 48.3575,-87.3635 46.6844,-86.6679 45.0107,-85.9362"/>
<polygon fill="midnightblue" stroke="midnightblue" points="46.1665,-82.6115 35.6292,-81.5088 43.1789,-88.942 46.1665,-82.6115"/>
</g>
<!-- Node5 -->
<g id="node5" class="node"><title>Node5</title>
<polygon fill="none" stroke="#bfbfbf" points="187,-62.5 187,-81.5 231,-81.5 231,-62.5 187,-62.5"/>
<text text-anchor="middle" x="209" y="-69.5" font-family="Helvetica,sans-Serif" font-size="10.00">vector</text>
</g>
<!-- Node3&#45;&gt;Node5 -->
<g id="edge4" class="edge"><title>Node3&#45;&gt;Node5</title>
<path fill="none" stroke="midnightblue" d="M209,-124.403C209,-115.938 209,-102.728 209,-91.8199"/>
<polygon fill="midnightblue" stroke="midnightblue" points="212.5,-91.5806 209,-81.5806 205.5,-91.5806 212.5,-91.5806"/>
</g>
<!-- Node6 -->
<g id="node6" class="node"><title>Node6</title>
<polygon fill="none" stroke="#bfbfbf" points="249,-62.5 249,-81.5 337,-81.5 337,-62.5 249,-62.5"/>
<text text-anchor="middle" x="293" y="-69.5" font-family="Helvetica,sans-Serif" font-size="10.00">FairMQDevice.h</text>
</g>
<!-- Node3&#45;&gt;Node6 -->
<g id="edge5" class="edge"><title>Node3&#45;&gt;Node6</title>
<path fill="none" stroke="midnightblue" d="M221.035,-124.403C234.508,-114.78 256.566,-99.0242 272.715,-87.4891"/>
<polygon fill="midnightblue" stroke="midnightblue" points="274.884,-90.2411 280.987,-81.5806 270.815,-84.5449 274.884,-90.2411"/>
</g>
<!-- Node7 -->
<g id="node7" class="node"><title>Node7</title>
<polygon fill="none" stroke="#bfbfbf" points="59,-57 59,-87 169,-87 169,-57 59,-57"/>
<text text-anchor="start" x="67" y="-75" font-family="Helvetica,sans-Serif" font-size="10.00">google/protobuf/stubs</text>
<text text-anchor="middle" x="114" y="-64" font-family="Helvetica,sans-Serif" font-size="10.00">/common.h</text>
</g>
<!-- Node3&#45;&gt;Node7 -->
<g id="edge6" class="edge"><title>Node3&#45;&gt;Node7</title>
<path fill="none" stroke="midnightblue" d="M195.389,-124.403C182.282,-116.125 161.992,-103.311 144.95,-92.5474"/>
<polygon fill="midnightblue" stroke="midnightblue" points="146.714,-89.5216 136.39,-87.1408 142.976,-95.44 146.714,-89.5216"/>
</g>
<!-- Node11 -->
<g id="node11" class="node"><title>Node11</title>
<g id="a_node11"><a xlink:href="../../da/d53/ConditionId_8h.html" target="_top" xlink:title="CCDB/ConditionId.h">
<polygon fill="none" stroke="black" points="923.5,-124.5 923.5,-143.5 1030.5,-143.5 1030.5,-124.5 923.5,-124.5"/>
<text text-anchor="middle" x="977" y="-131.5" font-family="Helvetica,sans-Serif" font-size="10.00">CCDB/ConditionId.h</text>
</a>
</g>
</g>
<!-- Node10&#45;&gt;Node11 -->
<g id="edge10" class="edge"><title>Node10&#45;&gt;Node11</title>
<path fill="none" stroke="midnightblue" d="M855.817,-180.444C879.832,-171.438 917.829,-157.189 944.869,-147.049"/>
<polygon fill="midnightblue" stroke="midnightblue" points="946.155,-150.305 954.29,-143.516 943.697,-143.751 946.155,-150.305"/>
</g>
<!-- Node12 -->
<g id="node12" class="node"><title>Node12</title>
<polygon fill="none" stroke="#bfbfbf" points="887.5,-0.5 887.5,-19.5 946.5,-19.5 946.5,-0.5 887.5,-0.5"/>
<text text-anchor="middle" x="917" y="-7.5" font-family="Helvetica,sans-Serif" font-size="10.00">TObject.h</text>
</g>
<!-- Node10&#45;&gt;Node12 -->
<g id="edge36" class="edge"><title>Node10&#45;&gt;Node12</title>
<path fill="none" stroke="midnightblue" d="M783.865,-185.102C678.98,-175.033 448.79,-142.606 526,-56 549.119,-30.0675 782.277,-16.9376 877.157,-12.6354"/>
<polygon fill="midnightblue" stroke="midnightblue" points="877.391,-16.1285 887.226,-12.1886 877.081,-9.13542 877.391,-16.1285"/>
</g>
<!-- Node13 -->
<g id="node13" class="node"><title>Node13</title>
<g id="a_node13"><a xlink:href="../../d4/dd1/IdPath_8h.html" target="_top" xlink:title="CCDB/IdPath.h">
<polygon fill="none" stroke="black" points="1071,-62.5 1071,-81.5 1157,-81.5 1157,-62.5 1071,-62.5"/>
<text text-anchor="middle" x="1114" y="-69.5" font-family="Helvetica,sans-Serif" font-size="10.00">CCDB/IdPath.h</text>
</a>
</g>
</g>
<!-- Node10&#45;&gt;Node13 -->
<g id="edge26" class="edge"><title>Node10&#45;&gt;Node13</title>
<path fill="none" stroke="midnightblue" d="M878.05,-180.492C934.297,-169.663 1024.88,-151.467 1039,-144 1064.41,-130.56 1087.41,-106.11 1101.05,-89.71"/>
<polygon fill="midnightblue" stroke="midnightblue" points="1104.07,-91.5319 1107.62,-81.548 1098.62,-87.1417 1104.07,-91.5319"/>
</g>
<!-- Node14 -->
<g id="node14" class="node"><title>Node14</title>
<polygon fill="none" stroke="#bfbfbf" points="1341,-0.5 1341,-19.5 1397,-19.5 1397,-0.5 1341,-0.5"/>
<text text-anchor="middle" x="1369" y="-7.5" font-family="Helvetica,sans-Serif" font-size="10.00">TString.h</text>
</g>
<!-- Node10&#45;&gt;Node14 -->
<g id="edge37" class="edge"><title>Node10&#45;&gt;Node14</title>
<path fill="none" stroke="midnightblue" d="M882.102,-181.086C884.772,-180.706 887.418,-180.341 890,-180 1039.77,-160.213 1080.78,-177.912 1228,-144 1299.38,-127.558 1340.92,-147.951 1383,-88 1395.28,-70.5022 1387.18,-45.4258 1379.11,-28.6968"/>
<polygon fill="midnightblue" stroke="midnightblue" points="1382.02,-26.7216 1374.27,-19.5017 1375.83,-29.9812 1382.02,-26.7216"/>
</g>
<!-- Node15 -->
<g id="node15" class="node"><title>Node15</title>
<polygon fill="none" stroke="#bfbfbf" points="1086,-0.5 1086,-19.5 1142,-19.5 1142,-0.5 1086,-0.5"/>
<text text-anchor="middle" x="1114" y="-7.5" font-family="Helvetica,sans-Serif" font-size="10.00">Rtypes.h</text>
</g>
<!-- Node10&#45;&gt;Node15 -->
<g id="edge35" class="edge"><title>Node10&#45;&gt;Node15</title>
<path fill="none" stroke="midnightblue" d="M881.728,-180.499C945.128,-169.304 1049.87,-150.3 1067,-144 1114.45,-126.553 1140.53,-131.667 1166,-88 1173.17,-75.7147 1171.91,-68.9351 1166,-56 1160.22,-43.3602 1148.95,-32.911 1138.37,-25.2737"/>
<polygon fill="midnightblue" stroke="midnightblue" points="1140.04,-22.1817 1129.78,-19.5333 1136.15,-28.0009 1140.04,-22.1817"/>
</g>
<!-- Node17 -->
<g id="node17" class="node"><title>Node17</title>
<g id="a_node17"><a xlink:href="../../d1/d3f/ConditionMetaData_8h.html" target="_top" xlink:title="CCDB/ConditionMetaData.h">
<polygon fill="none" stroke="black" points="1213.5,-62.5 1213.5,-81.5 1354.5,-81.5 1354.5,-62.5 1213.5,-62.5"/>
<text text-anchor="middle" x="1284" y="-69.5" font-family="Helvetica,sans-Serif" font-size="10.00">CCDB/ConditionMetaData.h</text>
</a>
</g>
</g>
<!-- Node10&#45;&gt;Node17 -->
<g id="edge21" class="edge"><title>Node10&#45;&gt;Node17</title>
<path fill="none" stroke="midnightblue" d="M882.106,-181.117C884.775,-180.729 887.419,-180.354 890,-180 1026.98,-161.214 1071.97,-198.597 1199,-144 1227.84,-131.603 1254.47,-106.136 1269.98,-89.3154"/>
<polygon fill="midnightblue" stroke="midnightblue" points="1272.6,-91.6347 1276.66,-81.8476 1267.38,-86.9681 1272.6,-91.6347"/>
</g>
<!-- Node19 -->
<g id="node19" class="node"><title>Node19</title>
<g id="a_node19"><a xlink:href="../../d7/d44/TObjectWrapper_8h.html" target="_top" xlink:title="CCDB/TObjectWrapper.h">
<polygon fill="none" stroke="black" points="608,-124.5 608,-143.5 736,-143.5 736,-124.5 608,-124.5"/>
<text text-anchor="middle" x="672" y="-131.5" font-family="Helvetica,sans-Serif" font-size="10.00">CCDB/TObjectWrapper.h</text>
</a>
</g>
</g>
<!-- Node10&#45;&gt;Node19 -->
<g id="edge27" class="edge"><title>Node10&#45;&gt;Node19</title>
<path fill="none" stroke="midnightblue" d="M807.489,-180.444C780.404,-171.359 737.41,-156.939 707.131,-146.783"/>
<polygon fill="midnightblue" stroke="midnightblue" points="707.986,-143.378 697.392,-143.516 705.76,-150.015 707.986,-143.378"/>
</g>
<!-- Node11&#45;&gt;Node12 -->
<g id="edge11" class="edge"><title>Node11&#45;&gt;Node12</title>
<path fill="none" stroke="midnightblue" d="M944.815,-124.488C926.461,-117.801 904.984,-106.45 894,-88 882.784,-69.1601 894.006,-44.4331 904.345,-28.1471"/>
<polygon fill="midnightblue" stroke="midnightblue" points="907.404,-29.8737 910.154,-19.6419 901.624,-25.9259 907.404,-29.8737"/>
</g>
<!-- Node11&#45;&gt;Node13 -->
<g id="edge12" class="edge"><title>Node11&#45;&gt;Node13</title>
<path fill="none" stroke="midnightblue" d="M996.629,-124.403C1019.82,-114.245 1058.62,-97.2547 1085.21,-85.6074"/>
<polygon fill="midnightblue" stroke="midnightblue" points="1086.65,-88.7984 1094.41,-81.5806 1083.84,-82.3863 1086.65,-88.7984"/>
</g>
<!-- Node11&#45;&gt;Node14 -->
<g id="edge20" class="edge"><title>Node11&#45;&gt;Node14</title>
<path fill="none" stroke="midnightblue" d="M1030.74,-130.468C1131.42,-125.192 1340.37,-111.516 1363,-88 1377.64,-72.7838 1376.54,-47.1451 1373.52,-29.6681"/>
<polygon fill="midnightblue" stroke="midnightblue" points="1376.88,-28.6262 1371.41,-19.5533 1370.03,-30.0577 1376.88,-28.6262"/>
</g>
<!-- Node11&#45;&gt;Node15 -->
<g id="edge19" class="edge"><title>Node11&#45;&gt;Node15</title>
<path fill="none" stroke="midnightblue" d="M986.371,-124.384C1001.97,-110.074 1034.27,-80.5515 1062,-56 1073.31,-45.9833 1086.15,-34.8721 1096.24,-26.1968"/>
<polygon fill="midnightblue" stroke="midnightblue" points="1098.66,-28.7282 1103.97,-19.56 1094.1,-23.4159 1098.66,-28.7282"/>
</g>
<!-- Node16 -->
<g id="node16" class="node"><title>Node16</title>
<g id="a_node16"><a xlink:href="../../dd/d18/IdRunRange_8h.html" target="_top" xlink:title="CCDB/IdRunRange.h">
<polygon fill="none" stroke="black" points="903,-62.5 903,-81.5 1015,-81.5 1015,-62.5 903,-62.5"/>
<text text-anchor="middle" x="959" y="-69.5" font-family="Helvetica,sans-Serif" font-size="10.00">CCDB/IdRunRange.h</text>
</a>
</g>
</g>
<!-- Node11&#45;&gt;Node16 -->
<g id="edge16" class="edge"><title>Node11&#45;&gt;Node16</title>
<path fill="none" stroke="midnightblue" d="M974.421,-124.403C971.855,-115.849 967.835,-102.45 964.543,-91.4762"/>
<polygon fill="midnightblue" stroke="midnightblue" points="967.8,-90.1531 961.574,-81.5806 961.095,-92.1646 967.8,-90.1531"/>
</g>
<!-- Node13&#45;&gt;Node12 -->
<g id="edge13" class="edge"><title>Node13&#45;&gt;Node12</title>
<path fill="none" stroke="midnightblue" d="M1085.77,-62.4035C1051.4,-51.9331 993.19,-34.2049 954.923,-22.5501"/>
<polygon fill="midnightblue" stroke="midnightblue" points="955.759,-19.1461 945.173,-19.5806 953.719,-25.8424 955.759,-19.1461"/>
</g>
<!-- Node13&#45;&gt;Node14 -->
<g id="edge14" class="edge"><title>Node13&#45;&gt;Node14</title>
<path fill="none" stroke="midnightblue" d="M1150.26,-62.4672C1198.15,-51.2007 1282.08,-31.4517 1330.88,-19.9704"/>
<polygon fill="midnightblue" stroke="midnightblue" points="1331.8,-23.3494 1340.73,-17.652 1330.19,-16.5355 1331.8,-23.3494"/>
</g>
<!-- Node13&#45;&gt;Node15 -->
<g id="edge15" class="edge"><title>Node13&#45;&gt;Node15</title>
<path fill="none" stroke="midnightblue" d="M1114,-62.4035C1114,-53.9381 1114,-40.7283 1114,-29.8199"/>
<polygon fill="midnightblue" stroke="midnightblue" points="1117.5,-29.5806 1114,-19.5806 1110.5,-29.5806 1117.5,-29.5806"/>
</g>
<!-- Node16&#45;&gt;Node12 -->
<g id="edge17" class="edge"><title>Node16&#45;&gt;Node12</title>
<path fill="none" stroke="midnightblue" d="M952.982,-62.4035C946.682,-53.4034 936.629,-39.0408 928.748,-27.7824"/>
<polygon fill="midnightblue" stroke="midnightblue" points="931.608,-25.7658 923.006,-19.5806 925.874,-29.7801 931.608,-25.7658"/>
</g>
<!-- Node16&#45;&gt;Node15 -->
<g id="edge18" class="edge"><title>Node16&#45;&gt;Node15</title>
<path fill="none" stroke="midnightblue" d="M981.208,-62.4035C1007.68,-52.1559 1052.11,-34.9561 1082.22,-23.3021"/>
<polygon fill="midnightblue" stroke="midnightblue" points="1083.77,-26.4546 1091.83,-19.5806 1081.24,-19.9266 1083.77,-26.4546"/>
</g>
<!-- Node17&#45;&gt;Node12 -->
<g id="edge23" class="edge"><title>Node17&#45;&gt;Node12</title>
<path fill="none" stroke="midnightblue" d="M1231.81,-62.4672C1157.61,-50.3366 1023.26,-28.3721 956.648,-17.4819"/>
<polygon fill="midnightblue" stroke="midnightblue" points="956.992,-13.9918 946.558,-15.8324 955.863,-20.9001 956.992,-13.9918"/>
</g>
<!-- Node17&#45;&gt;Node14 -->
<g id="edge25" class="edge"><title>Node17&#45;&gt;Node14</title>
<path fill="none" stroke="midnightblue" d="M1296.18,-62.4035C1309.81,-52.7797 1332.13,-37.0242 1348.47,-25.4891"/>
<polygon fill="midnightblue" stroke="midnightblue" points="1350.69,-28.2069 1356.84,-19.5806 1346.66,-22.4881 1350.69,-28.2069"/>
</g>
<!-- Node17&#45;&gt;Node15 -->
<g id="edge24" class="edge"><title>Node17&#45;&gt;Node15</title>
<path fill="none" stroke="midnightblue" d="M1259.64,-62.4035C1230.36,-52.0668 1181.03,-34.6564 1148,-22.9994"/>
<polygon fill="midnightblue" stroke="midnightblue" points="1148.91,-19.6084 1138.31,-19.5806 1146.58,-26.2093 1148.91,-19.6084"/>
</g>
<!-- Node18 -->
<g id="node18" class="node"><title>Node18</title>
<polygon fill="none" stroke="#bfbfbf" points="1259,-0.5 1259,-19.5 1309,-19.5 1309,-0.5 1259,-0.5"/>
<text text-anchor="middle" x="1284" y="-7.5" font-family="Helvetica,sans-Serif" font-size="10.00">TMap.h</text>
</g>
<!-- Node17&#45;&gt;Node18 -->
<g id="edge22" class="edge"><title>Node17&#45;&gt;Node18</title>
<path fill="none" stroke="midnightblue" d="M1284,-62.4035C1284,-53.9381 1284,-40.7283 1284,-29.8199"/>
<polygon fill="midnightblue" stroke="midnightblue" points="1287.5,-29.5806 1284,-19.5806 1280.5,-29.5806 1287.5,-29.5806"/>
</g>
<!-- Node19&#45;&gt;Node8 -->
<g id="edge31" class="edge"><title>Node19&#45;&gt;Node8</title>
<path fill="none" stroke="midnightblue" d="M607.957,-125.613C556.055,-118.685 481.39,-106.577 418,-88 415.35,-87.2235 412.631,-86.3137 409.932,-85.3328"/>
<polygon fill="midnightblue" stroke="midnightblue" points="410.991,-81.9882 400.404,-81.58 408.425,-88.5012 410.991,-81.9882"/>
</g>
<!-- Node19&#45;&gt;Node9 -->
<g id="edge32" class="edge"><title>Node19&#45;&gt;Node9</title>
<path fill="none" stroke="midnightblue" d="M640.623,-124.403C600.523,-113.417 531.258,-94.4404 489.037,-82.8732"/>
<polygon fill="midnightblue" stroke="midnightblue" points="489.746,-79.4386 479.177,-80.1718 487.897,-86.1898 489.746,-79.4386"/>
</g>
<!-- Node19&#45;&gt;Node12 -->
<g id="edge29" class="edge"><title>Node19&#45;&gt;Node12</title>
<path fill="none" stroke="midnightblue" d="M712.888,-124.43C742.797,-117.196 783.776,-105.235 817,-88 849.361,-71.2123 881.897,-43.7216 900.712,-26.531"/>
<polygon fill="midnightblue" stroke="midnightblue" points="903.178,-29.0169 908.118,-19.6441 898.412,-23.8907 903.178,-29.0169"/>
</g>
<!-- Node20 -->
<g id="node20" class="node"><title>Node20</title>
<polygon fill="none" stroke="#bfbfbf" points="753,-62.5 753,-81.5 809,-81.5 809,-62.5 753,-62.5"/>
<text text-anchor="middle" x="781" y="-69.5" font-family="Helvetica,sans-Serif" font-size="10.00">TClass.h</text>
</g>
<!-- Node19&#45;&gt;Node20 -->
<g id="edge28" class="edge"><title>Node19&#45;&gt;Node20</title>
<path fill="none" stroke="midnightblue" d="M687.617,-124.403C705.586,-114.512 735.321,-98.1442 756.406,-86.5378"/>
<polygon fill="midnightblue" stroke="midnightblue" points="758.339,-89.4691 765.412,-81.5806 754.964,-83.3367 758.339,-89.4691"/>
</g>
<!-- Node21 -->
<g id="node21" class="node"><title>Node21</title>
<polygon fill="none" stroke="#bfbfbf" points="535.5,-62.5 535.5,-81.5 588.5,-81.5 588.5,-62.5 535.5,-62.5"/>
<text text-anchor="middle" x="562" y="-69.5" font-family="Helvetica,sans-Serif" font-size="10.00">cxxabi.h</text>
</g>
<!-- Node19&#45;&gt;Node21 -->
<g id="edge30" class="edge"><title>Node19&#45;&gt;Node21</title>
<path fill="none" stroke="midnightblue" d="M656.24,-124.403C638.024,-114.468 607.827,-97.9966 586.532,-86.3812"/>
<polygon fill="midnightblue" stroke="midnightblue" points="588.186,-83.2965 577.731,-81.5806 584.834,-89.4418 588.186,-83.2965"/>
</g>
<!-- Node22 -->
<g id="node22" class="node"><title>Node22</title>
<polygon fill="none" stroke="#bfbfbf" points="606.5,-62.5 606.5,-81.5 665.5,-81.5 665.5,-62.5 606.5,-62.5"/>
<text text-anchor="middle" x="636" y="-69.5" font-family="Helvetica,sans-Serif" font-size="10.00">stdexcept</text>
</g>
<!-- Node19&#45;&gt;Node22 -->
<g id="edge33" class="edge"><title>Node19&#45;&gt;Node22</title>
<path fill="none" stroke="midnightblue" d="M666.842,-124.403C661.549,-115.582 653.165,-101.608 646.473,-90.4548"/>
<polygon fill="midnightblue" stroke="midnightblue" points="649.295,-88.3548 641.148,-81.5806 643.292,-91.9563 649.295,-88.3548"/>
</g>
<!-- Node23 -->
<g id="node23" class="node"><title>Node23</title>
<polygon fill="none" stroke="#bfbfbf" points="683.5,-62.5 683.5,-81.5 734.5,-81.5 734.5,-62.5 683.5,-62.5"/>
<text text-anchor="middle" x="709" y="-69.5" font-family="Helvetica,sans-Serif" font-size="10.00">typeinfo</text>
</g>
<!-- Node19&#45;&gt;Node23 -->
<g id="edge34" class="edge"><title>Node19&#45;&gt;Node23</title>
<path fill="none" stroke="midnightblue" d="M677.301,-124.403C682.796,-115.493 691.533,-101.325 698.444,-90.1177"/>
<polygon fill="midnightblue" stroke="midnightblue" points="701.439,-91.9294 703.709,-81.5806 695.481,-88.2552 701.439,-91.9294"/>
</g>
</g>
</svg>
        <g id="navigator" transform="translate(0 0)" fill="#404254">
                <rect fill="#f2f5e9" fill-opacity="0.5" stroke="#606060" stroke-width=".5" x="0" y="0" width="60" height="60"/>
                <use id="zoomplus" xlink:href="#zoomPlus" x="17" y="9" onmousedown="handleZoom(evt,'in')"/>
                <use id="zoomminus" xlink:href="#zoomMin" x="42" y="9" onmousedown="handleZoom(evt,'out')"/>
                <use id="reset" xlink:href="#resetDef" x="30" y="36" onmousedown="handleReset()"/>
                <g id="arrowUp" xlink:href="#dirArrow" transform="translate(30 24)" onmousedown="handlePan(0,-1)">
                  <use xlink:href="#rim" fill="#404040">
                        <set attributeName="fill" to="#808080" begin="arrowUp.mouseover" end="arrowUp.mouseout"/>
                  </use>
                  <path fill="none" stroke="white" stroke-width="1.5" d="M0,-3.0v7 M-2.5,-0.5L0,-3.0L2.5,-0.5"/>
                </g>
                <g id="arrowRight" xlink:href="#dirArrow" transform="rotate(90) translate(36 -43)" onmousedown="handlePan(1,0)">
                  <use xlink:href="#rim" fill="#404040">
                        <set attributeName="fill" to="#808080" begin="arrowRight.mouseover" end="arrowRight.mouseout"/>
                  </use>
                  <path fill="none" stroke="white" stroke-width="1.5" d="M0,-3.0v7 M-2.5,-0.5L0,-3.0L2.5,-0.5"/>
                </g>
                <g id="arrowDown" xlink:href="#dirArrow" transform="rotate(180) translate(-30 -48)" onmousedown="handlePan(0,1)">
                  <use xlink:href="#rim" fill="#404040">
                        <set attributeName="fill" to="#808080" begin="arrowDown.mouseover" end="arrowDown.mouseout"/>
                  </use>
                  <path fill="none" stroke="white" stroke-width="1.5" d="M0,-3.0v7 M-2.5,-0.5L0,-3.0L2.5,-0.5"/>
                </g>
                <g id="arrowLeft" xlink:href="#dirArrow" transform="rotate(270) translate(-36 17)" onmousedown="handlePan(-1,0)">
                  <use xlink:href="#rim" fill="#404040">
                        <set attributeName="fill" to="#808080" begin="arrowLeft.mouseover" end="arrowLeft.mouseout"/>
                  </use>
                  <path fill="none" stroke="white" stroke-width="1.5" d="M0,-3.0v7 M-2.5,-0.5L0,-3.0L2.5,-0.5"/>
                </g>
        </g>
        <svg viewBox="0 0 15 15" width="100%" height="30px" preserveAspectRatio="xMaxYMin meet">
         <g id="arrow_out" transform="scale(0.3 0.3)">
          <a xlink:href="testQueryServerStandalone_8cxx__incl_org.svg" target="_base">
           <rect id="button" ry="5" rx="5" y="6" x="6" height="38" width="38"
                fill="#f2f5e9" fill-opacity="0.5" stroke="#606060" stroke-width="1.0"/>
           <path id="arrow"
             d="M 11.500037,31.436501 C 11.940474,20.09759 22.043105,11.32322 32.158766,21.979434 L 37.068811,17.246167 C 37.068811,17.246167 37.088388,32 37.088388,32 L 22.160133,31.978069 C 22.160133,31.978069 26.997745,27.140456 26.997745,27.140456 C 18.528582,18.264221 13.291696,25.230495 11.500037,31.436501 z"
             style="fill:#404040;"/>
          </a>
         </g>
        </svg>
</svg>
