<?xml version="1.0" encoding="UTF-8" standalone="no"?>
<!DOCTYPE svg PUBLIC "-//W3C//DTD SVG 1.1//EN"
 "http://www.w3.org/Graphics/SVG/1.1/DTD/svg11.dtd">
<!-- Generated by graphviz version 2.36.0 (20140111.2315)
 -->
<!-- Title: /home/travis/build/AliceO2Group/AliceO2/Detectors/ITSMFT/test/HitAnalysis/include/HitAnalysis/HitAnalysis.h Pages: 1 -->
<svg width="1313pt" height="400pt"
 viewBox="0.00 0.00 1313.00 400.00" xmlns="http://www.w3.org/2000/svg" xmlns:xlink="http://www.w3.org/1999/xlink">
<g id="graph0" class="graph" transform="scale(1 1) rotate(0) translate(4 396)">
<title>/home/travis/build/AliceO2Group/AliceO2/Detectors/ITSMFT/test/HitAnalysis/include/HitAnalysis/HitAnalysis.h</title>
<!-- Node1 -->
<g id="node1" class="node"><title>Node1</title>
<polygon fill="#bfbfbf" stroke="black" points="65.5,-328.5 65.5,-391.5 222.5,-391.5 222.5,-328.5 65.5,-328.5"/>
<text text-anchor="start" x="73.5" y="-379.5" font-family="Helvetica,sans-Serif" font-size="10.00">/home/travis/build</text>
<text text-anchor="start" x="73.5" y="-368.5" font-family="Helvetica,sans-Serif" font-size="10.00">/AliceO2Group/AliceO2</text>
<text text-anchor="start" x="73.5" y="-357.5" font-family="Helvetica,sans-Serif" font-size="10.00">/Detectors/ITSMFT/test</text>
<text text-anchor="start" x="73.5" y="-346.5" font-family="Helvetica,sans-Serif" font-size="10.00">/HitAnalysis/include/HitAnalysis</text>
<text text-anchor="middle" x="144" y="-335.5" font-family="Helvetica,sans-Serif" font-size="10.00">/HitAnalysis.h</text>
</g>
<!-- Node2 -->
<g id="node2" class="node"><title>Node2</title>
<polygon fill="none" stroke="#bfbfbf" points="-0.5,-272.5 -0.5,-291.5 34.5,-291.5 34.5,-272.5 -0.5,-272.5"/>
<text text-anchor="middle" x="17" y="-279.5" font-family="Helvetica,sans-Serif" font-size="10.00">map</text>
</g>
<!-- Node1&#45;&gt;Node2 -->
<g id="edge1" class="edge"><title>Node1&#45;&gt;Node2</title>
<path fill="none" stroke="midnightblue" d="M92.7103,-328.307C74.5263,-317.425 54.9541,-305.713 40.2657,-296.923"/>
<polygon fill="midnightblue" stroke="midnightblue" points="41.7604,-293.738 31.3822,-291.607 38.1659,-299.745 41.7604,-293.738"/>
</g>
<!-- Node3 -->
<g id="node3" class="node"><title>Node3</title>
<polygon fill="none" stroke="#bfbfbf" points="52.5,-272.5 52.5,-291.5 115.5,-291.5 115.5,-272.5 52.5,-272.5"/>
<text text-anchor="middle" x="84" y="-279.5" font-family="Helvetica,sans-Serif" font-size="10.00">FairTask.h</text>
</g>
<!-- Node1&#45;&gt;Node3 -->
<g id="edge2" class="edge"><title>Node1&#45;&gt;Node3</title>
<path fill="none" stroke="midnightblue" d="M119.596,-328.088C111.89,-318.328 103.674,-307.921 97.0792,-299.567"/>
<polygon fill="midnightblue" stroke="midnightblue" points="99.8263,-297.398 90.8828,-291.718 94.3321,-301.736 99.8263,-297.398"/>
</g>
<!-- Node4 -->
<g id="node4" class="node"><title>Node4</title>
<polygon fill="none" stroke="#bfbfbf" points="13,-74.5 13,-93.5 69,-93.5 69,-74.5 13,-74.5"/>
<text text-anchor="middle" x="41" y="-81.5" font-family="Helvetica,sans-Serif" font-size="10.00">Rtypes.h</text>
</g>
<!-- Node1&#45;&gt;Node4 -->
<g id="edge3" class="edge"><title>Node1&#45;&gt;Node4</title>
<path fill="none" stroke="midnightblue" d="M138.462,-328.408C135.04,-311.551 130.128,-290.378 124,-272 102.608,-207.845 67.1259,-135.682 50.3445,-102.909"/>
<polygon fill="midnightblue" stroke="midnightblue" points="53.2934,-100.991 45.5947,-93.7124 47.0739,-104.203 53.2934,-100.991"/>
</g>
<!-- Node5 -->
<g id="node5" class="node"><title>Node5</title>
<g id="a_node5"><a xlink:href="../../d0/dae/ITSMFT_2common_2simulation_2include_2ITSMFTSimulation_2Hit_8h.html" target="_top" xlink:title="ITSMFTSimulation/Hit.h">
<polygon fill="none" stroke="black" points="206,-272.5 206,-291.5 328,-291.5 328,-272.5 206,-272.5"/>
<text text-anchor="middle" x="267" y="-279.5" font-family="Helvetica,sans-Serif" font-size="10.00">ITSMFTSimulation/Hit.h</text>
</a>
</g>
</g>
<!-- Node1&#45;&gt;Node5 -->
<g id="edge4" class="edge"><title>Node1&#45;&gt;Node5</title>
<path fill="none" stroke="midnightblue" d="M193.674,-328.307C211.286,-317.425 230.241,-305.713 244.467,-296.923"/>
<polygon fill="midnightblue" stroke="midnightblue" points="246.403,-299.841 253.071,-291.607 242.724,-293.886 246.403,-299.841"/>
</g>
<!-- Node20 -->
<g id="node20" class="node"><title>Node20</title>
<polygon fill="none" stroke="#bfbfbf" points="346,-272.5 346,-291.5 390,-291.5 390,-272.5 346,-272.5"/>
<text text-anchor="middle" x="368" y="-279.5" font-family="Helvetica,sans-Serif" font-size="10.00">vector</text>
</g>
<!-- Node1&#45;&gt;Node20 -->
<g id="edge23" class="edge"><title>Node1&#45;&gt;Node20</title>
<path fill="none" stroke="midnightblue" d="M222.659,-332.312C261.676,-319.074 306.633,-303.821 336.09,-293.827"/>
<polygon fill="midnightblue" stroke="midnightblue" points="337.483,-297.05 345.828,-290.523 335.233,-290.421 337.483,-297.05"/>
</g>
<!-- Node5&#45;&gt;Node4 -->
<g id="edge20" class="edge"><title>Node5&#45;&gt;Node4</title>
<path fill="none" stroke="midnightblue" d="M262.55,-272.258C249.615,-247.628 209.648,-176.803 158,-136 154.311,-133.085 104.075,-111.614 70.6405,-97.4753"/>
<polygon fill="midnightblue" stroke="midnightblue" points="71.8655,-94.1933 61.2916,-93.5277 69.1425,-100.642 71.8655,-94.1933"/>
</g>
<!-- Node6 -->
<g id="node6" class="node"><title>Node6</title>
<g id="a_node6"><a xlink:href="../../d4/d25/BaseHits_8h.html" target="_top" xlink:title="SimulationDataFormat\l/BaseHits.h">
<polygon fill="none" stroke="black" points="373,-205 373,-235 487,-235 487,-205 373,-205"/>
<text text-anchor="start" x="381" y="-223" font-family="Helvetica,sans-Serif" font-size="10.00">SimulationDataFormat</text>
<text text-anchor="middle" x="430" y="-212" font-family="Helvetica,sans-Serif" font-size="10.00">/BaseHits.h</text>
</a>
</g>
</g>
<!-- Node5&#45;&gt;Node6 -->
<g id="edge5" class="edge"><title>Node5&#45;&gt;Node6</title>
<path fill="none" stroke="midnightblue" d="M290.354,-272.403C314.263,-263.603 352.103,-249.674 382.366,-238.534"/>
<polygon fill="midnightblue" stroke="midnightblue" points="383.723,-241.764 391.898,-235.025 381.304,-235.195 383.723,-241.764"/>
</g>
<!-- Node17 -->
<g id="node17" class="node"><title>Node17</title>
<polygon fill="none" stroke="#bfbfbf" points="1207,-74.5 1207,-93.5 1261,-93.5 1261,-74.5 1207,-74.5"/>
<text text-anchor="middle" x="1234" y="-81.5" font-family="Helvetica,sans-Serif" font-size="10.00">iostream</text>
</g>
<!-- Node5&#45;&gt;Node17 -->
<g id="edge22" class="edge"><title>Node5&#45;&gt;Node17</title>
<path fill="none" stroke="midnightblue" d="M314.992,-272.472C361.454,-264.002 433.798,-250.255 496,-236 550.64,-223.478 563.26,-216.076 618,-204 873.313,-147.678 945.835,-172.616 1197,-100 1199.81,-99.1878 1202.7,-98.236 1205.56,-97.2126"/>
<polygon fill="midnightblue" stroke="midnightblue" points="1206.99,-100.414 1215.06,-93.5562 1204.47,-93.8813 1206.99,-100.414"/>
</g>
<!-- Node18 -->
<g id="node18" class="node"><title>Node18</title>
<g id="a_node18"><a xlink:href="../../d7/dcd/MCCompLabel_8h.html" target="_top" xlink:title="SimulationDataFormat\l/MCCompLabel.h">
<polygon fill="none" stroke="black" points="210,-137 210,-167 324,-167 324,-137 210,-137"/>
<text text-anchor="start" x="218" y="-155" font-family="Helvetica,sans-Serif" font-size="10.00">SimulationDataFormat</text>
<text text-anchor="middle" x="267" y="-144" font-family="Helvetica,sans-Serif" font-size="10.00">/MCCompLabel.h</text>
</a>
</g>
</g>
<!-- Node5&#45;&gt;Node18 -->
<g id="edge18" class="edge"><title>Node5&#45;&gt;Node18</title>
<path fill="none" stroke="midnightblue" d="M267,-272.202C267,-252.87 267,-206.114 267,-177.239"/>
<polygon fill="midnightblue" stroke="midnightblue" points="270.5,-177.143 267,-167.143 263.5,-177.143 270.5,-177.143"/>
</g>
<!-- Node19 -->
<g id="node19" class="node"><title>Node19</title>
<polygon fill="none" stroke="#bfbfbf" points="627.5,-210.5 627.5,-229.5 692.5,-229.5 692.5,-210.5 627.5,-210.5"/>
<text text-anchor="middle" x="660" y="-217.5" font-family="Helvetica,sans-Serif" font-size="10.00">TVector3.h</text>
</g>
<!-- Node5&#45;&gt;Node19 -->
<g id="edge21" class="edge"><title>Node5&#45;&gt;Node19</title>
<path fill="none" stroke="midnightblue" d="M328.105,-273.123C426.517,-260.426 609.545,-236.77 613,-236 617.232,-235.057 621.629,-233.901 625.959,-232.652"/>
<polygon fill="midnightblue" stroke="midnightblue" points="627.297,-235.903 635.834,-229.628 625.247,-229.21 627.297,-235.903"/>
</g>
<!-- Node7 -->
<g id="node7" class="node"><title>Node7</title>
<g id="a_node7"><a xlink:href="../../dd/d76/Cartesian3D_8h.html" target="_top" xlink:title="MathUtils/Cartesian3D.h">
<polygon fill="none" stroke="black" points="445.5,-142.5 445.5,-161.5 570.5,-161.5 570.5,-142.5 445.5,-142.5"/>
<text text-anchor="middle" x="508" y="-149.5" font-family="Helvetica,sans-Serif" font-size="10.00">MathUtils/Cartesian3D.h</text>
</a>
</g>
</g>
<!-- Node6&#45;&gt;Node7 -->
<g id="edge6" class="edge"><title>Node6&#45;&gt;Node7</title>
<path fill="none" stroke="midnightblue" d="M446.925,-204.679C459.568,-193.981 476.827,-179.377 489.774,-168.422"/>
<polygon fill="midnightblue" stroke="midnightblue" points="492.193,-170.96 497.567,-161.828 487.672,-165.616 492.193,-170.96"/>
</g>
<!-- Node7&#45;&gt;Node4 -->
<g id="edge10" class="edge"><title>Node7&#45;&gt;Node4</title>
<path fill="none" stroke="midnightblue" d="M445.389,-145.738C343.181,-136.789 145.059,-117.835 77,-100 74.1754,-99.2598 71.2809,-98.3434 68.4202,-97.331"/>
<polygon fill="midnightblue" stroke="midnightblue" points="69.5626,-94.0197 58.9747,-93.6365 67.0127,-100.539 69.5626,-94.0197"/>
</g>
<!-- Node8 -->
<g id="node8" class="node"><title>Node8</title>
<polygon fill="none" stroke="#bfbfbf" points="86.5,-74.5 86.5,-93.5 235.5,-93.5 235.5,-74.5 86.5,-74.5"/>
<text text-anchor="middle" x="161" y="-81.5" font-family="Helvetica,sans-Serif" font-size="10.00">Math/GenVector/Rotation3D.h</text>
</g>
<!-- Node7&#45;&gt;Node8 -->
<g id="edge7" class="edge"><title>Node7&#45;&gt;Node8</title>
<path fill="none" stroke="midnightblue" d="M462.992,-142.439C399.676,-130.396 284.419,-108.475 216.07,-95.4745"/>
<polygon fill="midnightblue" stroke="midnightblue" points="216.407,-91.9758 205.929,-93.5455 215.099,-98.8525 216.407,-91.9758"/>
</g>
<!-- Node9 -->
<g id="node9" class="node"><title>Node9</title>
<polygon fill="none" stroke="#bfbfbf" points="254,-74.5 254,-93.5 410,-93.5 410,-74.5 254,-74.5"/>
<text text-anchor="middle" x="332" y="-81.5" font-family="Helvetica,sans-Serif" font-size="10.00">Math/GenVector/Transform3D.h</text>
</g>
<!-- Node7&#45;&gt;Node9 -->
<g id="edge8" class="edge"><title>Node7&#45;&gt;Node9</title>
<path fill="none" stroke="midnightblue" d="M484.991,-142.372C454.206,-130.827 399.447,-110.293 364.472,-97.1772"/>
<polygon fill="midnightblue" stroke="midnightblue" points="365.328,-93.76 354.736,-93.5259 362.87,-100.314 365.328,-93.76"/>
</g>
<!-- Node10 -->
<g id="node10" class="node"><title>Node10</title>
<polygon fill="none" stroke="#bfbfbf" points="428,-74.5 428,-93.5 588,-93.5 588,-74.5 428,-74.5"/>
<text text-anchor="middle" x="508" y="-81.5" font-family="Helvetica,sans-Serif" font-size="10.00">Math/GenVector/Translation3D.h</text>
</g>
<!-- Node7&#45;&gt;Node10 -->
<g id="edge9" class="edge"><title>Node7&#45;&gt;Node10</title>
<path fill="none" stroke="midnightblue" d="M508,-142.372C508,-132.643 508,-116.528 508,-103.85"/>
<polygon fill="midnightblue" stroke="midnightblue" points="511.5,-103.841 508,-93.8411 504.5,-103.841 511.5,-103.841"/>
</g>
<!-- Node11 -->
<g id="node11" class="node"><title>Node11</title>
<polygon fill="none" stroke="#bfbfbf" points="606,-74.5 606,-93.5 682,-93.5 682,-74.5 606,-74.5"/>
<text text-anchor="middle" x="644" y="-81.5" font-family="Helvetica,sans-Serif" font-size="10.00">TGeoMatrix.h</text>
</g>
<!-- Node7&#45;&gt;Node11 -->
<g id="edge11" class="edge"><title>Node7&#45;&gt;Node11</title>
<path fill="none" stroke="midnightblue" d="M525.78,-142.372C548.993,-131.106 589.849,-111.279 616.923,-98.1403"/>
<polygon fill="midnightblue" stroke="midnightblue" points="618.748,-101.145 626.216,-93.6305 615.691,-94.8477 618.748,-101.145"/>
</g>
<!-- Node12 -->
<g id="node12" class="node"><title>Node12</title>
<polygon fill="none" stroke="#bfbfbf" points="700.5,-69 700.5,-99 851.5,-99 851.5,-69 700.5,-69"/>
<text text-anchor="start" x="708.5" y="-87" font-family="Helvetica,sans-Serif" font-size="10.00">Math/GenVector/Displacement</text>
<text text-anchor="middle" x="776" y="-76" font-family="Helvetica,sans-Serif" font-size="10.00">Vector3D.h</text>
</g>
<!-- Node7&#45;&gt;Node12 -->
<g id="edge12" class="edge"><title>Node7&#45;&gt;Node12</title>
<path fill="none" stroke="midnightblue" d="M542.762,-142.439C584.74,-132.101 656.28,-114.483 709.087,-101.478"/>
<polygon fill="midnightblue" stroke="midnightblue" points="710.178,-104.815 719.051,-99.0247 708.504,-98.0176 710.178,-104.815"/>
</g>
<!-- Node13 -->
<g id="node13" class="node"><title>Node13</title>
<polygon fill="none" stroke="#bfbfbf" points="870,-74.5 870,-93.5 1046,-93.5 1046,-74.5 870,-74.5"/>
<text text-anchor="middle" x="958" y="-81.5" font-family="Helvetica,sans-Serif" font-size="10.00">Math/GenVector/PositionVector3D.h</text>
</g>
<!-- Node7&#45;&gt;Node13 -->
<g id="edge13" class="edge"><title>Node7&#45;&gt;Node13</title>
<path fill="none" stroke="midnightblue" d="M549.475,-142.429C560.956,-140.191 573.439,-137.881 585,-136 706.665,-116.206 737.959,-117.326 860,-100 870.894,-98.4533 882.459,-96.7437 893.68,-95.049"/>
<polygon fill="midnightblue" stroke="midnightblue" points="894.499,-98.4649 903.859,-93.5019 893.447,-91.5443 894.499,-98.4649"/>
</g>
<!-- Node14 -->
<g id="node14" class="node"><title>Node14</title>
<g id="a_node14"><a xlink:href="../../d2/dd0/Cartesian2D_8h.html" target="_top" xlink:title="MathUtils/Cartesian2D.h">
<polygon fill="none" stroke="black" points="1063.5,-74.5 1063.5,-93.5 1188.5,-93.5 1188.5,-74.5 1063.5,-74.5"/>
<text text-anchor="middle" x="1126" y="-81.5" font-family="Helvetica,sans-Serif" font-size="10.00">MathUtils/Cartesian2D.h</text>
</a>
</g>
</g>
<!-- Node7&#45;&gt;Node14 -->
<g id="edge14" class="edge"><title>Node7&#45;&gt;Node14</title>
<path fill="none" stroke="midnightblue" d="M547.027,-142.488C559.147,-140.09 572.583,-137.68 585,-136 792.169,-107.966 847.017,-129.38 1054,-100 1062.36,-98.8134 1071.2,-97.2391 1079.73,-95.5564"/>
<polygon fill="midnightblue" stroke="midnightblue" points="1080.44,-98.9833 1089.53,-93.5481 1079.03,-92.1256 1080.44,-98.9833"/>
</g>
<!-- Node7&#45;&gt;Node17 -->
<g id="edge17" class="edge"><title>Node7&#45;&gt;Node17</title>
<path fill="none" stroke="midnightblue" d="M546.614,-142.43C558.836,-140 572.434,-137.586 585,-136 855.325,-101.874 931.214,-159.981 1197,-100 1200.25,-99.2676 1203.57,-98.2825 1206.84,-97.1652"/>
<polygon fill="midnightblue" stroke="midnightblue" points="1208.23,-100.383 1216.31,-93.5373 1205.72,-93.8458 1208.23,-100.383"/>
</g>
<!-- Node15 -->
<g id="node15" class="node"><title>Node15</title>
<polygon fill="none" stroke="#bfbfbf" points="959.5,-1 959.5,-31 1110.5,-31 1110.5,-1 959.5,-1"/>
<text text-anchor="start" x="967.5" y="-19" font-family="Helvetica,sans-Serif" font-size="10.00">Math/GenVector/Displacement</text>
<text text-anchor="middle" x="1035" y="-8" font-family="Helvetica,sans-Serif" font-size="10.00">Vector2D.h</text>
</g>
<!-- Node14&#45;&gt;Node15 -->
<g id="edge15" class="edge"><title>Node14&#45;&gt;Node15</title>
<path fill="none" stroke="midnightblue" d="M1114.1,-74.3717C1101.22,-65.0286 1080.22,-49.7966 1063.09,-37.375"/>
<polygon fill="midnightblue" stroke="midnightblue" points="1064.7,-34.2194 1054.55,-31.1815 1060.59,-39.8859 1064.7,-34.2194"/>
</g>
<!-- Node16 -->
<g id="node16" class="node"><title>Node16</title>
<polygon fill="none" stroke="#bfbfbf" points="1129,-6.5 1129,-25.5 1305,-25.5 1305,-6.5 1129,-6.5"/>
<text text-anchor="middle" x="1217" y="-13.5" font-family="Helvetica,sans-Serif" font-size="10.00">Math/GenVector/PositionVector2D.h</text>
</g>
<!-- Node14&#45;&gt;Node16 -->
<g id="edge16" class="edge"><title>Node14&#45;&gt;Node16</title>
<path fill="none" stroke="midnightblue" d="M1137.9,-74.3717C1152.88,-63.5015 1178.86,-44.6602 1196.94,-31.5474"/>
<polygon fill="midnightblue" stroke="midnightblue" points="1199.06,-34.3349 1205.1,-25.6305 1194.95,-28.6684 1199.06,-34.3349"/>
</g>
<!-- Node18&#45;&gt;Node4 -->
<g id="edge19" class="edge"><title>Node18&#45;&gt;Node4</title>
<path fill="none" stroke="midnightblue" d="M209.876,-137.766C171.84,-128.443 120.965,-114.986 77,-100 74.5887,-99.1781 72.1086,-98.2737 69.6319,-97.329"/>
<polygon fill="midnightblue" stroke="midnightblue" points="70.8346,-94.0404 60.25,-93.5735 68.2332,-100.539 70.8346,-94.0404"/>
</g>
</g>
</svg>
