<?xml version="1.0" encoding="UTF-8" standalone="no"?>
<!DOCTYPE svg PUBLIC "-//W3C//DTD SVG 1.1//EN"
 "http://www.w3.org/Graphics/SVG/1.1/DTD/svg11.dtd">
<!-- Generated by graphviz version 2.36.0 (20140111.2315)
 -->
<!-- Title: /home/travis/build/AliceO2Group/AliceO2/Detectors/FIT/simulation/src/Detector.cxx Pages: 1 -->
<svg width="2102pt" height="378pt"
 viewBox="0.00 0.00 2102.00 378.00" xmlns="http://www.w3.org/2000/svg" xmlns:xlink="http://www.w3.org/1999/xlink">
<g id="graph0" class="graph" transform="scale(1 1) rotate(0) translate(4 374)">
<title>/home/travis/build/AliceO2Group/AliceO2/Detectors/FIT/simulation/src/Detector.cxx</title>
<!-- Node1 -->
<g id="node1" class="node"><title>Node1</title>
<polygon fill="#bfbfbf" stroke="black" points="551,-317 551,-369 679,-369 679,-317 551,-317"/>
<text text-anchor="start" x="559" y="-357" font-family="Helvetica,sans-Serif" font-size="10.00">/home/travis/build</text>
<text text-anchor="start" x="559" y="-346" font-family="Helvetica,sans-Serif" font-size="10.00">/AliceO2Group/AliceO2</text>
<text text-anchor="start" x="559" y="-335" font-family="Helvetica,sans-Serif" font-size="10.00">/Detectors/FIT/simulation</text>
<text text-anchor="middle" x="615" y="-324" font-family="Helvetica,sans-Serif" font-size="10.00">/src/Detector.cxx</text>
</g>
<!-- Node2 -->
<g id="node2" class="node"><title>Node2</title>
<polygon fill="none" stroke="#bfbfbf" points="-0.5,-260.5 -0.5,-279.5 84.5,-279.5 84.5,-260.5 -0.5,-260.5"/>
<text text-anchor="middle" x="42" y="-267.5" font-family="Helvetica,sans-Serif" font-size="10.00">TClonesArray.h</text>
</g>
<!-- Node1&#45;&gt;Node2 -->
<g id="edge1" class="edge"><title>Node1&#45;&gt;Node2</title>
<path fill="none" stroke="midnightblue" d="M550.689,-335.454C454.045,-325.373 265.404,-304.745 94.4718,-279.997"/>
<polygon fill="midnightblue" stroke="midnightblue" points="94.9377,-276.528 84.5378,-278.551 93.9294,-283.455 94.9377,-276.528"/>
</g>
<!-- Node3 -->
<g id="node3" class="node"><title>Node3</title>
<polygon fill="none" stroke="#bfbfbf" points="103,-260.5 103,-279.5 189,-279.5 189,-260.5 103,-260.5"/>
<text text-anchor="middle" x="146" y="-267.5" font-family="Helvetica,sans-Serif" font-size="10.00">TGeoManager.h</text>
</g>
<!-- Node1&#45;&gt;Node3 -->
<g id="edge2" class="edge"><title>Node1&#45;&gt;Node3</title>
<path fill="none" stroke="midnightblue" d="M550.99,-332.965C471.156,-321.589 330.219,-301.151 199.325,-280.184"/>
<polygon fill="midnightblue" stroke="midnightblue" points="199.546,-276.674 189.117,-278.544 198.435,-283.585 199.546,-276.674"/>
</g>
<!-- Node4 -->
<g id="node4" class="node"><title>Node4</title>
<polygon fill="none" stroke="#bfbfbf" points="207,-260.5 207,-279.5 299,-279.5 299,-260.5 207,-260.5"/>
<text text-anchor="middle" x="253" y="-267.5" font-family="Helvetica,sans-Serif" font-size="10.00">TLorentzVector.h</text>
</g>
<!-- Node1&#45;&gt;Node4 -->
<g id="edge3" class="edge"><title>Node1&#45;&gt;Node4</title>
<path fill="none" stroke="midnightblue" d="M550.699,-329.388C481.174,-315.752 371.605,-294.262 306.573,-281.508"/>
<polygon fill="midnightblue" stroke="midnightblue" points="307.018,-278.028 296.532,-279.538 305.671,-284.897 307.018,-278.028"/>
</g>
<!-- Node5 -->
<g id="node5" class="node"><title>Node5</title>
<polygon fill="none" stroke="#bfbfbf" points="317.5,-260.5 317.5,-279.5 370.5,-279.5 370.5,-260.5 317.5,-260.5"/>
<text text-anchor="middle" x="344" y="-267.5" font-family="Helvetica,sans-Serif" font-size="10.00">TMath.h</text>
</g>
<!-- Node1&#45;&gt;Node5 -->
<g id="edge4" class="edge"><title>Node1&#45;&gt;Node5</title>
<path fill="none" stroke="midnightblue" d="M550.777,-325.174C497.597,-311.241 423.941,-291.944 380.403,-280.537"/>
<polygon fill="midnightblue" stroke="midnightblue" points="381.099,-277.102 370.538,-277.953 379.325,-283.873 381.099,-277.102"/>
</g>
<!-- Node6 -->
<g id="node6" class="node"><title>Node6</title>
<polygon fill="none" stroke="#bfbfbf" points="388.5,-260.5 388.5,-279.5 445.5,-279.5 445.5,-260.5 388.5,-260.5"/>
<text text-anchor="middle" x="417" y="-267.5" font-family="Helvetica,sans-Serif" font-size="10.00">TGraph.h</text>
</g>
<!-- Node1&#45;&gt;Node6 -->
<g id="edge5" class="edge"><title>Node1&#45;&gt;Node6</title>
<path fill="none" stroke="midnightblue" d="M550.989,-319.046C517.58,-307.067 478.071,-292.899 450.65,-283.067"/>
<polygon fill="midnightblue" stroke="midnightblue" points="451.723,-279.733 441.129,-279.652 449.36,-286.322 451.723,-279.733"/>
</g>
<!-- Node7 -->
<g id="node7" class="node"><title>Node7</title>
<polygon fill="none" stroke="#bfbfbf" points="464,-260.5 464,-279.5 520,-279.5 520,-260.5 464,-260.5"/>
<text text-anchor="middle" x="492" y="-267.5" font-family="Helvetica,sans-Serif" font-size="10.00">TString.h</text>
</g>
<!-- Node1&#45;&gt;Node7 -->
<g id="edge6" class="edge"><title>Node1&#45;&gt;Node7</title>
<path fill="none" stroke="midnightblue" d="M571.635,-316.968C552.962,-306.19 531.841,-293.997 516.044,-284.879"/>
<polygon fill="midnightblue" stroke="midnightblue" points="517.376,-281.607 506.966,-279.639 513.877,-287.669 517.376,-281.607"/>
</g>
<!-- Node8 -->
<g id="node8" class="node"><title>Node8</title>
<polygon fill="none" stroke="#bfbfbf" points="538.5,-260.5 538.5,-279.5 603.5,-279.5 603.5,-260.5 538.5,-260.5"/>
<text text-anchor="middle" x="571" y="-267.5" font-family="Helvetica,sans-Serif" font-size="10.00">TSystem.h</text>
</g>
<!-- Node1&#45;&gt;Node8 -->
<g id="edge7" class="edge"><title>Node1&#45;&gt;Node8</title>
<path fill="none" stroke="midnightblue" d="M599.363,-316.768C593.549,-307.385 587.085,-296.955 581.798,-288.425"/>
<polygon fill="midnightblue" stroke="midnightblue" points="584.67,-286.414 576.427,-279.757 578.72,-290.101 584.67,-286.414"/>
</g>
<!-- Node9 -->
<g id="node9" class="node"><title>Node9</title>
<polygon fill="none" stroke="#bfbfbf" points="622,-260.5 622,-279.5 696,-279.5 696,-260.5 622,-260.5"/>
<text text-anchor="middle" x="659" y="-267.5" font-family="Helvetica,sans-Serif" font-size="10.00">TVirtualMC.h</text>
</g>
<!-- Node1&#45;&gt;Node9 -->
<g id="edge8" class="edge"><title>Node1&#45;&gt;Node9</title>
<path fill="none" stroke="midnightblue" d="M630.637,-316.768C636.451,-307.385 642.915,-296.955 648.202,-288.425"/>
<polygon fill="midnightblue" stroke="midnightblue" points="651.28,-290.101 653.573,-279.757 645.33,-286.414 651.28,-290.101"/>
</g>
<!-- Node10 -->
<g id="node10" class="node"><title>Node10</title>
<polygon fill="none" stroke="#bfbfbf" points="708,-136.5 708,-155.5 808,-155.5 808,-136.5 708,-136.5"/>
<text text-anchor="middle" x="758" y="-143.5" font-family="Helvetica,sans-Serif" font-size="10.00">FairRootManager.h</text>
</g>
<!-- Node1&#45;&gt;Node10 -->
<g id="edge9" class="edge"><title>Node1&#45;&gt;Node10</title>
<path fill="none" stroke="midnightblue" d="M672.551,-316.86C689.546,-307.269 707.044,-294.965 720,-280 748.596,-246.969 755.74,-193.713 757.479,-165.662"/>
<polygon fill="midnightblue" stroke="midnightblue" points="760.978,-165.77 757.932,-155.622 753.985,-165.454 760.978,-165.77"/>
</g>
<!-- Node11 -->
<g id="node11" class="node"><title>Node11</title>
<polygon fill="none" stroke="#bfbfbf" points="934.5,-260.5 934.5,-279.5 1005.5,-279.5 1005.5,-260.5 934.5,-260.5"/>
<text text-anchor="middle" x="970" y="-267.5" font-family="Helvetica,sans-Serif" font-size="10.00">FairLogger.h</text>
</g>
<!-- Node1&#45;&gt;Node11 -->
<g id="edge10" class="edge"><title>Node1&#45;&gt;Node11</title>
<path fill="none" stroke="midnightblue" d="M679.288,-329.142C750.075,-314.985 862.091,-292.582 924.387,-280.123"/>
<polygon fill="midnightblue" stroke="midnightblue" points="925.193,-283.531 934.313,-278.137 923.821,-276.667 925.193,-283.531"/>
</g>
<!-- Node12 -->
<g id="node12" class="node"><title>Node12</title>
<polygon fill="none" stroke="#bfbfbf" points="1024,-260.5 1024,-279.5 1098,-279.5 1098,-260.5 1024,-260.5"/>
<text text-anchor="middle" x="1061" y="-267.5" font-family="Helvetica,sans-Serif" font-size="10.00">FairVolume.h</text>
</g>
<!-- Node1&#45;&gt;Node12 -->
<g id="edge11" class="edge"><title>Node1&#45;&gt;Node12</title>
<path fill="none" stroke="midnightblue" d="M679.035,-332.756C755.863,-321.506 888.818,-301.537 1013.7,-279.997"/>
<polygon fill="midnightblue" stroke="midnightblue" points="1014.57,-283.399 1023.82,-278.244 1013.37,-276.501 1014.57,-283.399"/>
</g>
<!-- Node13 -->
<g id="node13" class="node"><title>Node13</title>
<polygon fill="none" stroke="#bfbfbf" points="1116,-260.5 1116,-279.5 1168,-279.5 1168,-260.5 1116,-260.5"/>
<text text-anchor="middle" x="1142" y="-267.5" font-family="Helvetica,sans-Serif" font-size="10.00">sstream</text>
</g>
<!-- Node1&#45;&gt;Node13 -->
<g id="edge12" class="edge"><title>Node1&#45;&gt;Node13</title>
<path fill="none" stroke="midnightblue" d="M679.093,-336.53C771.448,-328.073 947.376,-309.811 1105.78,-280.027"/>
<polygon fill="midnightblue" stroke="midnightblue" points="1106.54,-283.446 1115.71,-278.141 1105.23,-276.569 1106.54,-283.446"/>
</g>
<!-- Node14 -->
<g id="node14" class="node"><title>Node14</title>
<g id="a_node14"><a xlink:href="../../d1/db1/FIT_2base_2include_2FITBase_2Geometry_8h.html" target="_top" xlink:title="FITBase/Geometry.h">
<polygon fill="none" stroke="black" points="626,-198.5 626,-217.5 734,-217.5 734,-198.5 626,-198.5"/>
<text text-anchor="middle" x="680" y="-205.5" font-family="Helvetica,sans-Serif" font-size="10.00">FITBase/Geometry.h</text>
</a>
</g>
</g>
<!-- Node1&#45;&gt;Node14 -->
<g id="edge13" class="edge"><title>Node1&#45;&gt;Node14</title>
<path fill="none" stroke="midnightblue" d="M668.96,-316.982C683.275,-307.537 696.969,-295.285 705,-280 714.262,-262.372 703.641,-240.575 693.525,-225.817"/>
<polygon fill="midnightblue" stroke="midnightblue" points="696.236,-223.596 687.474,-217.638 690.608,-227.759 696.236,-223.596"/>
</g>
<!-- Node17 -->
<g id="node17" class="node"><title>Node17</title>
<g id="a_node17"><a xlink:href="../../de/d6b/FIT_2simulation_2include_2FITSimulation_2Detector_8h.html" target="_top" xlink:title="FITSimulation/Detector.h">
<polygon fill="none" stroke="black" points="790,-260.5 790,-279.5 916,-279.5 916,-260.5 790,-260.5"/>
<text text-anchor="middle" x="853" y="-267.5" font-family="Helvetica,sans-Serif" font-size="10.00">FITSimulation/Detector.h</text>
</a>
</g>
</g>
<!-- Node1&#45;&gt;Node17 -->
<g id="edge16" class="edge"><title>Node1&#45;&gt;Node17</title>
<path fill="none" stroke="midnightblue" d="M679.093,-322.88C722.384,-309.965 778.093,-293.346 814.64,-282.444"/>
<polygon fill="midnightblue" stroke="midnightblue" points="815.832,-285.741 824.414,-279.528 813.83,-279.033 815.832,-285.741"/>
</g>
<!-- Node15 -->
<g id="node15" class="node"><title>Node15</title>
<polygon fill="none" stroke="#bfbfbf" points="808,-74.5 808,-93.5 864,-93.5 864,-74.5 808,-74.5"/>
<text text-anchor="middle" x="836" y="-81.5" font-family="Helvetica,sans-Serif" font-size="10.00">Rtypes.h</text>
</g>
<!-- Node14&#45;&gt;Node15 -->
<g id="edge14" class="edge"><title>Node14&#45;&gt;Node15</title>
<path fill="none" stroke="midnightblue" d="M679.893,-198.39C680.179,-183.72 682.861,-153.748 699,-136 724.542,-107.912 767.012,-95.2356 797.906,-89.5505"/>
<polygon fill="midnightblue" stroke="midnightblue" points="798.613,-92.981 807.898,-87.8784 797.457,-86.077 798.613,-92.981"/>
</g>
<!-- Node16 -->
<g id="node16" class="node"><title>Node16</title>
<polygon fill="none" stroke="#bfbfbf" points="586.5,-136.5 586.5,-155.5 651.5,-155.5 651.5,-136.5 586.5,-136.5"/>
<text text-anchor="middle" x="619" y="-143.5" font-family="Helvetica,sans-Serif" font-size="10.00">TVector3.h</text>
</g>
<!-- Node14&#45;&gt;Node16 -->
<g id="edge15" class="edge"><title>Node14&#45;&gt;Node16</title>
<path fill="none" stroke="midnightblue" d="M671.26,-198.403C661.838,-189.136 646.636,-174.183 635.051,-162.788"/>
<polygon fill="midnightblue" stroke="midnightblue" points="637.307,-160.098 627.724,-155.581 632.399,-165.088 637.307,-160.098"/>
</g>
<!-- Node17&#45;&gt;Node14 -->
<g id="edge41" class="edge"><title>Node17&#45;&gt;Node14</title>
<path fill="none" stroke="midnightblue" d="M828.213,-260.403C798.409,-250.067 748.209,-232.656 714.598,-220.999"/>
<polygon fill="midnightblue" stroke="midnightblue" points="715.335,-217.551 704.741,-217.581 713.042,-224.164 715.335,-217.551"/>
</g>
<!-- Node18 -->
<g id="node18" class="node"><title>Node18</title>
<g id="a_node18"><a xlink:href="../../d4/d25/BaseHits_8h.html" target="_top" xlink:title="SimulationDataFormat\l/BaseHits.h">
<polygon fill="none" stroke="black" points="1276,-193 1276,-223 1390,-223 1390,-193 1276,-193"/>
<text text-anchor="start" x="1284" y="-211" font-family="Helvetica,sans-Serif" font-size="10.00">SimulationDataFormat</text>
<text text-anchor="middle" x="1333" y="-200" font-family="Helvetica,sans-Serif" font-size="10.00">/BaseHits.h</text>
</a>
</g>
</g>
<!-- Node17&#45;&gt;Node18 -->
<g id="edge17" class="edge"><title>Node17&#45;&gt;Node18</title>
<path fill="none" stroke="midnightblue" d="M916.245,-261.094C1006.91,-249.761 1173.09,-228.988 1265.87,-217.392"/>
<polygon fill="midnightblue" stroke="midnightblue" points="1266.49,-220.841 1275.98,-216.127 1265.62,-213.895 1266.49,-220.841"/>
</g>
<!-- Node30 -->
<g id="node30" class="node"><title>Node30</title>
<g id="a_node30"><a xlink:href="../../d1/d3a/Base_2include_2DetectorsBase_2Detector_8h.html" target="_top" xlink:title="DetectorsBase/Detector.h">
<polygon fill="none" stroke="black" points="970.5,-198.5 970.5,-217.5 1101.5,-217.5 1101.5,-198.5 970.5,-198.5"/>
<text text-anchor="middle" x="1036" y="-205.5" font-family="Helvetica,sans-Serif" font-size="10.00">DetectorsBase/Detector.h</text>
</a>
</g>
</g>
<!-- Node17&#45;&gt;Node30 -->
<g id="edge30" class="edge"><title>Node17&#45;&gt;Node30</title>
<path fill="none" stroke="midnightblue" d="M879.219,-260.403C911.018,-249.978 964.765,-232.356 1000.32,-220.699"/>
<polygon fill="midnightblue" stroke="midnightblue" points="1001.42,-224.022 1009.83,-217.581 999.236,-217.37 1001.42,-224.022"/>
</g>
<!-- Node19 -->
<g id="node19" class="node"><title>Node19</title>
<g id="a_node19"><a xlink:href="../../dd/d76/Cartesian3D_8h.html" target="_top" xlink:title="MathUtils/Cartesian3D.h">
<polygon fill="none" stroke="black" points="1426.5,-136.5 1426.5,-155.5 1551.5,-155.5 1551.5,-136.5 1426.5,-136.5"/>
<text text-anchor="middle" x="1489" y="-143.5" font-family="Helvetica,sans-Serif" font-size="10.00">MathUtils/Cartesian3D.h</text>
</a>
</g>
</g>
<!-- Node18&#45;&gt;Node19 -->
<g id="edge18" class="edge"><title>Node18&#45;&gt;Node19</title>
<path fill="none" stroke="midnightblue" d="M1369.58,-192.933C1396.13,-182.72 1431.71,-169.036 1457.11,-159.266"/>
<polygon fill="midnightblue" stroke="midnightblue" points="1458.56,-162.457 1466.64,-155.6 1456.05,-155.923 1458.56,-162.457"/>
</g>
<!-- Node19&#45;&gt;Node15 -->
<g id="edge22" class="edge"><title>Node19&#45;&gt;Node15</title>
<path fill="none" stroke="midnightblue" d="M1426.19,-136.949C1423.09,-136.614 1420.01,-136.295 1417,-136 1192.62,-114.01 1134.43,-130.168 911,-100 898.99,-98.3784 886.011,-96.0066 874.281,-93.6255"/>
<polygon fill="midnightblue" stroke="midnightblue" points="874.853,-90.1697 864.349,-91.5494 873.421,-97.0216 874.853,-90.1697"/>
</g>
<!-- Node20 -->
<g id="node20" class="node"><title>Node20</title>
<polygon fill="none" stroke="#bfbfbf" points="1770.5,-74.5 1770.5,-93.5 1919.5,-93.5 1919.5,-74.5 1770.5,-74.5"/>
<text text-anchor="middle" x="1845" y="-81.5" font-family="Helvetica,sans-Serif" font-size="10.00">Math/GenVector/Rotation3D.h</text>
</g>
<!-- Node19&#45;&gt;Node20 -->
<g id="edge19" class="edge"><title>Node19&#45;&gt;Node20</title>
<path fill="none" stroke="midnightblue" d="M1542.14,-136.489C1597.19,-127.615 1685.67,-113.187 1762,-100 1770.6,-98.5148 1779.69,-96.9084 1788.58,-95.3177"/>
<polygon fill="midnightblue" stroke="midnightblue" points="1789.27,-98.7498 1798.49,-93.5358 1788.03,-91.8602 1789.27,-98.7498"/>
</g>
<!-- Node21 -->
<g id="node21" class="node"><title>Node21</title>
<polygon fill="none" stroke="#bfbfbf" points="1938,-74.5 1938,-93.5 2094,-93.5 2094,-74.5 1938,-74.5"/>
<text text-anchor="middle" x="2016" y="-81.5" font-family="Helvetica,sans-Serif" font-size="10.00">Math/GenVector/Transform3D.h</text>
</g>
<!-- Node19&#45;&gt;Node21 -->
<g id="edge20" class="edge"><title>Node19&#45;&gt;Node21</title>
<path fill="none" stroke="midnightblue" d="M1551.68,-139.899C1637,-132.653 1794.39,-118.214 1928,-100 1938.24,-98.6039 1949.12,-96.9173 1959.6,-95.1863"/>
<polygon fill="midnightblue" stroke="midnightblue" points="1960.22,-98.6312 1969.51,-93.5211 1959.06,-91.7282 1960.22,-98.6312"/>
</g>
<!-- Node22 -->
<g id="node22" class="node"><title>Node22</title>
<polygon fill="none" stroke="#bfbfbf" points="920,-74.5 920,-93.5 1080,-93.5 1080,-74.5 920,-74.5"/>
<text text-anchor="middle" x="1000" y="-81.5" font-family="Helvetica,sans-Serif" font-size="10.00">Math/GenVector/Translation3D.h</text>
</g>
<!-- Node19&#45;&gt;Node22 -->
<g id="edge21" class="edge"><title>Node19&#45;&gt;Node22</title>
<path fill="none" stroke="midnightblue" d="M1426.18,-137.091C1423.08,-136.718 1420,-136.352 1417,-136 1271.35,-118.904 1234.26,-120.195 1089,-100 1078.77,-98.5774 1067.9,-96.8927 1057.41,-95.1752"/>
<polygon fill="midnightblue" stroke="midnightblue" points="1057.94,-91.7145 1047.5,-93.5259 1056.79,-98.6196 1057.94,-91.7145"/>
</g>
<!-- Node23 -->
<g id="node23" class="node"><title>Node23</title>
<polygon fill="none" stroke="#bfbfbf" points="1098,-74.5 1098,-93.5 1174,-93.5 1174,-74.5 1098,-74.5"/>
<text text-anchor="middle" x="1136" y="-81.5" font-family="Helvetica,sans-Serif" font-size="10.00">TGeoMatrix.h</text>
</g>
<!-- Node19&#45;&gt;Node23 -->
<g id="edge23" class="edge"><title>Node19&#45;&gt;Node23</title>
<path fill="none" stroke="midnightblue" d="M1426.2,-136.914C1350.78,-126.995 1228.81,-110.241 1184,-100 1179.57,-98.9879 1174.96,-97.7676 1170.42,-96.4654"/>
<polygon fill="midnightblue" stroke="midnightblue" points="1171.3,-93.0728 1160.71,-93.5334 1169.27,-99.7741 1171.3,-93.0728"/>
</g>
<!-- Node24 -->
<g id="node24" class="node"><title>Node24</title>
<polygon fill="none" stroke="#bfbfbf" points="1192.5,-69 1192.5,-99 1343.5,-99 1343.5,-69 1192.5,-69"/>
<text text-anchor="start" x="1200.5" y="-87" font-family="Helvetica,sans-Serif" font-size="10.00">Math/GenVector/Displacement</text>
<text text-anchor="middle" x="1268" y="-76" font-family="Helvetica,sans-Serif" font-size="10.00">Vector3D.h</text>
</g>
<!-- Node19&#45;&gt;Node24 -->
<g id="edge24" class="edge"><title>Node19&#45;&gt;Node24</title>
<path fill="none" stroke="midnightblue" d="M1457.34,-136.403C1424.08,-127.374 1370.94,-112.947 1329.41,-101.672"/>
<polygon fill="midnightblue" stroke="midnightblue" points="1330.23,-98.2677 1319.66,-99.0253 1328.39,-105.023 1330.23,-98.2677"/>
</g>
<!-- Node25 -->
<g id="node25" class="node"><title>Node25</title>
<polygon fill="none" stroke="#bfbfbf" points="1362,-74.5 1362,-93.5 1538,-93.5 1538,-74.5 1362,-74.5"/>
<text text-anchor="middle" x="1450" y="-81.5" font-family="Helvetica,sans-Serif" font-size="10.00">Math/GenVector/PositionVector3D.h</text>
</g>
<!-- Node19&#45;&gt;Node25 -->
<g id="edge25" class="edge"><title>Node19&#45;&gt;Node25</title>
<path fill="none" stroke="midnightblue" d="M1483.41,-136.403C1477.62,-127.493 1468.41,-113.325 1461.13,-102.118"/>
<polygon fill="midnightblue" stroke="midnightblue" points="1463.96,-100.058 1455.58,-93.5806 1458.09,-103.873 1463.96,-100.058"/>
</g>
<!-- Node26 -->
<g id="node26" class="node"><title>Node26</title>
<g id="a_node26"><a xlink:href="../../d2/dd0/Cartesian2D_8h.html" target="_top" xlink:title="MathUtils/Cartesian2D.h">
<polygon fill="none" stroke="black" points="1555.5,-74.5 1555.5,-93.5 1680.5,-93.5 1680.5,-74.5 1555.5,-74.5"/>
<text text-anchor="middle" x="1618" y="-81.5" font-family="Helvetica,sans-Serif" font-size="10.00">MathUtils/Cartesian2D.h</text>
</a>
</g>
</g>
<!-- Node19&#45;&gt;Node26 -->
<g id="edge26" class="edge"><title>Node19&#45;&gt;Node26</title>
<path fill="none" stroke="midnightblue" d="M1507.48,-136.403C1529.13,-126.334 1565.21,-109.552 1590.23,-97.9151"/>
<polygon fill="midnightblue" stroke="midnightblue" points="1591.96,-100.971 1599.55,-93.5806 1589.01,-94.6244 1591.96,-100.971"/>
</g>
<!-- Node29 -->
<g id="node29" class="node"><title>Node29</title>
<polygon fill="none" stroke="#bfbfbf" points="1699,-74.5 1699,-93.5 1753,-93.5 1753,-74.5 1699,-74.5"/>
<text text-anchor="middle" x="1726" y="-81.5" font-family="Helvetica,sans-Serif" font-size="10.00">iostream</text>
</g>
<!-- Node19&#45;&gt;Node29 -->
<g id="edge29" class="edge"><title>Node19&#45;&gt;Node29</title>
<path fill="none" stroke="midnightblue" d="M1537.27,-136.443C1578.14,-128.651 1638.05,-115.941 1689,-100 1691.64,-99.1747 1694.35,-98.2425 1697.05,-97.2569"/>
<polygon fill="midnightblue" stroke="midnightblue" points="1698.57,-100.423 1706.63,-93.5479 1696.04,-93.8952 1698.57,-100.423"/>
</g>
<!-- Node27 -->
<g id="node27" class="node"><title>Node27</title>
<polygon fill="none" stroke="#bfbfbf" points="1451.5,-1 1451.5,-31 1602.5,-31 1602.5,-1 1451.5,-1"/>
<text text-anchor="start" x="1459.5" y="-19" font-family="Helvetica,sans-Serif" font-size="10.00">Math/GenVector/Displacement</text>
<text text-anchor="middle" x="1527" y="-8" font-family="Helvetica,sans-Serif" font-size="10.00">Vector2D.h</text>
</g>
<!-- Node26&#45;&gt;Node27 -->
<g id="edge27" class="edge"><title>Node26&#45;&gt;Node27</title>
<path fill="none" stroke="midnightblue" d="M1606.1,-74.3717C1593.22,-65.0286 1572.22,-49.7966 1555.09,-37.375"/>
<polygon fill="midnightblue" stroke="midnightblue" points="1556.7,-34.2194 1546.55,-31.1815 1552.59,-39.8859 1556.7,-34.2194"/>
</g>
<!-- Node28 -->
<g id="node28" class="node"><title>Node28</title>
<polygon fill="none" stroke="#bfbfbf" points="1621,-6.5 1621,-25.5 1797,-25.5 1797,-6.5 1621,-6.5"/>
<text text-anchor="middle" x="1709" y="-13.5" font-family="Helvetica,sans-Serif" font-size="10.00">Math/GenVector/PositionVector2D.h</text>
</g>
<!-- Node26&#45;&gt;Node28 -->
<g id="edge28" class="edge"><title>Node26&#45;&gt;Node28</title>
<path fill="none" stroke="midnightblue" d="M1629.9,-74.3717C1644.88,-63.5015 1670.86,-44.6602 1688.94,-31.5474"/>
<polygon fill="midnightblue" stroke="midnightblue" points="1691.06,-34.3349 1697.1,-25.6305 1686.95,-28.6684 1691.06,-34.3349"/>
</g>
<!-- Node30&#45;&gt;Node10 -->
<g id="edge35" class="edge"><title>Node30&#45;&gt;Node10</title>
<path fill="none" stroke="midnightblue" d="M996.465,-198.467C946.752,-187.738 861.396,-169.316 807.425,-157.667"/>
<polygon fill="midnightblue" stroke="midnightblue" points="807.912,-154.192 797.399,-155.503 806.436,-161.034 807.912,-154.192"/>
</g>
<!-- Node30&#45;&gt;Node15 -->
<g id="edge36" class="edge"><title>Node30&#45;&gt;Node15</title>
<path fill="none" stroke="midnightblue" d="M970.169,-204.169C931.734,-199.081 885.042,-186.44 855,-156 841.44,-142.261 837.272,-119.966 836.13,-104.025"/>
<polygon fill="midnightblue" stroke="midnightblue" points="839.617,-103.614 835.743,-93.7532 832.622,-103.878 839.617,-103.614"/>
</g>
<!-- Node31 -->
<g id="node31" class="node"><title>Node31</title>
<polygon fill="none" stroke="#bfbfbf" points="1373.5,-136.5 1373.5,-155.5 1408.5,-155.5 1408.5,-136.5 1373.5,-136.5"/>
<text text-anchor="middle" x="1391" y="-143.5" font-family="Helvetica,sans-Serif" font-size="10.00">map</text>
</g>
<!-- Node30&#45;&gt;Node31 -->
<g id="edge31" class="edge"><title>Node30&#45;&gt;Node31</title>
<path fill="none" stroke="midnightblue" d="M1101.67,-200.071C1166.13,-192.53 1267.26,-178.728 1363.51,-155.737"/>
<polygon fill="midnightblue" stroke="midnightblue" points="1364.51,-159.095 1373.4,-153.336 1362.86,-152.292 1364.51,-159.095"/>
</g>
<!-- Node32 -->
<g id="node32" class="node"><title>Node32</title>
<polygon fill="none" stroke="#bfbfbf" points="864,-136.5 864,-155.5 908,-155.5 908,-136.5 864,-136.5"/>
<text text-anchor="middle" x="886" y="-143.5" font-family="Helvetica,sans-Serif" font-size="10.00">vector</text>
</g>
<!-- Node30&#45;&gt;Node32 -->
<g id="edge32" class="edge"><title>Node30&#45;&gt;Node32</title>
<path fill="none" stroke="midnightblue" d="M1014.51,-198.403C988.89,-188.156 945.89,-170.956 916.755,-159.302"/>
<polygon fill="midnightblue" stroke="midnightblue" points="918.036,-156.045 907.451,-155.581 915.436,-162.544 918.036,-156.045"/>
</g>
<!-- Node33 -->
<g id="node33" class="node"><title>Node33</title>
<polygon fill="none" stroke="#bfbfbf" points="926,-136.5 926,-155.5 978,-155.5 978,-136.5 926,-136.5"/>
<text text-anchor="middle" x="952" y="-143.5" font-family="Helvetica,sans-Serif" font-size="10.00">memory</text>
</g>
<!-- Node30&#45;&gt;Node33 -->
<g id="edge33" class="edge"><title>Node30&#45;&gt;Node33</title>
<path fill="none" stroke="midnightblue" d="M1023.96,-198.403C1010.49,-188.78 988.434,-173.024 972.285,-161.489"/>
<polygon fill="midnightblue" stroke="midnightblue" points="974.185,-158.545 964.013,-155.581 970.116,-164.241 974.185,-158.545"/>
</g>
<!-- Node34 -->
<g id="node34" class="node"><title>Node34</title>
<polygon fill="none" stroke="#bfbfbf" points="996.5,-136.5 996.5,-155.5 1075.5,-155.5 1075.5,-136.5 996.5,-136.5"/>
<text text-anchor="middle" x="1036" y="-143.5" font-family="Helvetica,sans-Serif" font-size="10.00">FairDetector.h</text>
</g>
<!-- Node30&#45;&gt;Node34 -->
<g id="edge34" class="edge"><title>Node30&#45;&gt;Node34</title>
<path fill="none" stroke="midnightblue" d="M1036,-198.403C1036,-189.938 1036,-176.728 1036,-165.82"/>
<polygon fill="midnightblue" stroke="midnightblue" points="1039.5,-165.581 1036,-155.581 1032.5,-165.581 1039.5,-165.581"/>
</g>
<!-- Node35 -->
<g id="node35" class="node"><title>Node35</title>
<polygon fill="none" stroke="#bfbfbf" points="1093.5,-136.5 1093.5,-155.5 1146.5,-155.5 1146.5,-136.5 1093.5,-136.5"/>
<text text-anchor="middle" x="1120" y="-143.5" font-family="Helvetica,sans-Serif" font-size="10.00">cxxabi.h</text>
</g>
<!-- Node30&#45;&gt;Node35 -->
<g id="edge37" class="edge"><title>Node30&#45;&gt;Node35</title>
<path fill="none" stroke="midnightblue" d="M1048.04,-198.403C1061.51,-188.78 1083.57,-173.024 1099.72,-161.489"/>
<polygon fill="midnightblue" stroke="midnightblue" points="1101.88,-164.241 1107.99,-155.581 1097.82,-158.545 1101.88,-164.241"/>
</g>
<!-- Node36 -->
<g id="node36" class="node"><title>Node36</title>
<polygon fill="none" stroke="#bfbfbf" points="1164.5,-136.5 1164.5,-155.5 1215.5,-155.5 1215.5,-136.5 1164.5,-136.5"/>
<text text-anchor="middle" x="1190" y="-143.5" font-family="Helvetica,sans-Serif" font-size="10.00">typeinfo</text>
</g>
<!-- Node30&#45;&gt;Node36 -->
<g id="edge38" class="edge"><title>Node30&#45;&gt;Node36</title>
<path fill="none" stroke="midnightblue" d="M1058.06,-198.403C1084.37,-188.156 1128.51,-170.956 1158.42,-159.302"/>
<polygon fill="midnightblue" stroke="midnightblue" points="1159.93,-162.472 1167.98,-155.581 1157.39,-155.95 1159.93,-162.472"/>
</g>
<!-- Node37 -->
<g id="node37" class="node"><title>Node37</title>
<polygon fill="none" stroke="#bfbfbf" points="1234,-136.5 1234,-155.5 1296,-155.5 1296,-136.5 1234,-136.5"/>
<text text-anchor="middle" x="1265" y="-143.5" font-family="Helvetica,sans-Serif" font-size="10.00">type_traits</text>
</g>
<!-- Node30&#45;&gt;Node37 -->
<g id="edge39" class="edge"><title>Node30&#45;&gt;Node37</title>
<path fill="none" stroke="midnightblue" d="M1068.81,-198.403C1109.66,-187.701 1179.44,-169.417 1223.83,-157.786"/>
<polygon fill="midnightblue" stroke="midnightblue" points="1224.93,-161.116 1233.72,-155.195 1223.16,-154.344 1224.93,-161.116"/>
</g>
<!-- Node38 -->
<g id="node38" class="node"><title>Node38</title>
<polygon fill="none" stroke="#bfbfbf" points="1314.5,-136.5 1314.5,-155.5 1355.5,-155.5 1355.5,-136.5 1314.5,-136.5"/>
<text text-anchor="middle" x="1335" y="-143.5" font-family="Helvetica,sans-Serif" font-size="10.00">string</text>
</g>
<!-- Node30&#45;&gt;Node38 -->
<g id="edge40" class="edge"><title>Node30&#45;&gt;Node38</title>
<path fill="none" stroke="midnightblue" d="M1088.69,-198.487C1142.96,-189.366 1229.85,-173.778 1304,-156 1304.21,-155.949 1304.42,-155.898 1304.64,-155.847"/>
<polygon fill="midnightblue" stroke="midnightblue" points="1305.62,-159.208 1314.4,-153.276 1303.83,-152.438 1305.62,-159.208"/>
</g>
</g>
</svg>
