<?xml version="1.0" encoding="UTF-8" standalone="no"?>
<!DOCTYPE svg PUBLIC "-//W3C//DTD SVG 1.1//EN"
 "http://www.w3.org/Graphics/SVG/1.1/DTD/svg11.dtd">
<!-- Generated by graphviz version 2.36.0 (20140111.2315)
 -->
<!-- Title: /home/travis/build/AliceO2Group/AliceO2/Utilities/QC/QCProducer/include/QCProducer/TH2Producer.h Pages: 1 -->
<svg width="624pt" height="152pt"
 viewBox="0.00 0.00 624.00 152.00" xmlns="http://www.w3.org/2000/svg" xmlns:xlink="http://www.w3.org/1999/xlink">
<g id="graph0" class="graph" transform="scale(1 1) rotate(0) translate(4 148)">
<title>/home/travis/build/AliceO2Group/AliceO2/Utilities/QC/QCProducer/include/QCProducer/TH2Producer.h</title>
<!-- Node1 -->
<g id="node1" class="node"><title>Node1</title>
<polygon fill="#bfbfbf" stroke="black" points="198,-91 198,-143 374,-143 374,-91 198,-91"/>
<text text-anchor="start" x="206" y="-131" font-family="Helvetica,sans-Serif" font-size="10.00">/home/travis/build</text>
<text text-anchor="start" x="206" y="-120" font-family="Helvetica,sans-Serif" font-size="10.00">/AliceO2Group/AliceO2</text>
<text text-anchor="start" x="206" y="-109" font-family="Helvetica,sans-Serif" font-size="10.00">/Utilities/QC/QCProducer</text>
<text text-anchor="middle" x="286" y="-98" font-family="Helvetica,sans-Serif" font-size="10.00">/include/QCProducer/TH2Producer.h</text>
</g>
<!-- Node2 -->
<g id="node2" class="node"><title>Node2</title>
<g id="a_node2"><a xlink:href="../../d0/d05/runProducer_8cxx.html" target="_top" xlink:title="/home/travis/build\l/AliceO2Group/AliceO2\l/Utilities/QC/QCProducer\l/src/runProducer.cxx">
<polygon fill="none" stroke="black" points="0,-1 0,-53 128,-53 128,-1 0,-1"/>
<text text-anchor="start" x="8" y="-41" font-family="Helvetica,sans-Serif" font-size="10.00">/home/travis/build</text>
<text text-anchor="start" x="8" y="-30" font-family="Helvetica,sans-Serif" font-size="10.00">/AliceO2Group/AliceO2</text>
<text text-anchor="start" x="8" y="-19" font-family="Helvetica,sans-Serif" font-size="10.00">/Utilities/QC/QCProducer</text>
<text text-anchor="middle" x="64" y="-8" font-family="Helvetica,sans-Serif" font-size="10.00">/src/runProducer.cxx</text>
</a>
</g>
</g>
<!-- Node1&#45;&gt;Node2 -->
<g id="edge1" class="edge"><title>Node1&#45;&gt;Node2</title>
<path fill="none" stroke="midnightblue" d="M213.056,-87.0854C185.385,-76.1167 154.124,-63.725 127.403,-53.1328"/>
<polygon fill="midnightblue" stroke="midnightblue" points="212.095,-90.4691 222.681,-90.9005 214.674,-83.9617 212.095,-90.4691"/>
</g>
<!-- Node3 -->
<g id="node3" class="node"><title>Node3</title>
<g id="a_node3"><a xlink:href="../../db/d28/TH2Producer_8cxx.html" target="_top" xlink:title="/home/travis/build\l/AliceO2Group/AliceO2\l/Utilities/QC/QCProducer\l/src/TH2Producer.cxx">
<polygon fill="none" stroke="black" points="146,-1 146,-53 274,-53 274,-1 146,-1"/>
<text text-anchor="start" x="154" y="-41" font-family="Helvetica,sans-Serif" font-size="10.00">/home/travis/build</text>
<text text-anchor="start" x="154" y="-30" font-family="Helvetica,sans-Serif" font-size="10.00">/AliceO2Group/AliceO2</text>
<text text-anchor="start" x="154" y="-19" font-family="Helvetica,sans-Serif" font-size="10.00">/Utilities/QC/QCProducer</text>
<text text-anchor="middle" x="210" y="-8" font-family="Helvetica,sans-Serif" font-size="10.00">/src/TH2Producer.cxx</text>
</a>
</g>
</g>
<!-- Node1&#45;&gt;Node3 -->
<g id="edge2" class="edge"><title>Node1&#45;&gt;Node3</title>
<path fill="none" stroke="midnightblue" d="M257.367,-82.8459C248.851,-72.9851 239.665,-62.3492 231.67,-53.0921"/>
<polygon fill="midnightblue" stroke="midnightblue" points="254.833,-85.2662 264.018,-90.5468 260.13,-80.6908 254.833,-85.2662"/>
</g>
<!-- Node4 -->
<g id="node4" class="node"><title>Node4</title>
<g id="a_node4"><a xlink:href="../../d1/d06/ProducerTestSuite_8cxx.html" target="_top" xlink:title="/home/travis/build\l/AliceO2Group/AliceO2\l/Utilities/QC/QCProducer\l/test/ProducerTestSuite.cxx">
<polygon fill="none" stroke="black" points="292.5,-1 292.5,-53 431.5,-53 431.5,-1 292.5,-1"/>
<text text-anchor="start" x="300.5" y="-41" font-family="Helvetica,sans-Serif" font-size="10.00">/home/travis/build</text>
<text text-anchor="start" x="300.5" y="-30" font-family="Helvetica,sans-Serif" font-size="10.00">/AliceO2Group/AliceO2</text>
<text text-anchor="start" x="300.5" y="-19" font-family="Helvetica,sans-Serif" font-size="10.00">/Utilities/QC/QCProducer</text>
<text text-anchor="middle" x="362" y="-8" font-family="Helvetica,sans-Serif" font-size="10.00">/test/ProducerTestSuite.cxx</text>
</a>
</g>
</g>
<!-- Node1&#45;&gt;Node4 -->
<g id="edge3" class="edge"><title>Node1&#45;&gt;Node4</title>
<path fill="none" stroke="midnightblue" d="M314.633,-82.8459C323.149,-72.9851 332.335,-62.3492 340.33,-53.0921"/>
<polygon fill="midnightblue" stroke="midnightblue" points="311.87,-80.6908 307.982,-90.5468 317.167,-85.2662 311.87,-80.6908"/>
</g>
<!-- Node5 -->
<g id="node5" class="node"><title>Node5</title>
<g id="a_node5"><a xlink:href="../../d6/d5e/RootObjectProducerSpec_8cxx.html" target="_top" xlink:title="Processor spec for a test data producer for ROOT objects. ">
<polygon fill="none" stroke="black" points="450,-1 450,-53 616,-53 616,-1 450,-1"/>
<text text-anchor="start" x="458" y="-41" font-family="Helvetica,sans-Serif" font-size="10.00">/home/travis/build</text>
<text text-anchor="start" x="458" y="-30" font-family="Helvetica,sans-Serif" font-size="10.00">/AliceO2Group/AliceO2</text>
<text text-anchor="start" x="458" y="-19" font-family="Helvetica,sans-Serif" font-size="10.00">/Utilities/QC/Workflow</text>
<text text-anchor="middle" x="533" y="-8" font-family="Helvetica,sans-Serif" font-size="10.00">/src/RootObjectProducerSpec.cxx</text>
</a>
</g>
</g>
<!-- Node1&#45;&gt;Node5 -->
<g id="edge4" class="edge"><title>Node1&#45;&gt;Node5</title>
<path fill="none" stroke="midnightblue" d="M365.95,-87.5157C397.033,-76.4416 432.337,-63.8637 462.457,-53.1328"/>
<polygon fill="midnightblue" stroke="midnightblue" points="364.695,-84.2473 356.45,-90.9005 367.044,-90.8413 364.695,-84.2473"/>
</g>
</g>
</svg>
