<?xml version="1.0" encoding="UTF-8" standalone="no"?>
<!DOCTYPE svg PUBLIC "-//W3C//DTD SVG 1.1//EN"
 "http://www.w3.org/Graphics/SVG/1.1/DTD/svg11.dtd">
<!-- Generated by graphviz version 2.36.0 (20140111.2315)
 -->
<!-- Title: o2::Devices::EPNReceiverDevice Pages: 1 -->
<svg width="470pt" height="314pt"
 viewBox="0.00 0.00 470.00 314.00" xmlns="http://www.w3.org/2000/svg" xmlns:xlink="http://www.w3.org/1999/xlink">
<g id="graph0" class="graph" transform="scale(1 1) rotate(0) translate(4 310)">
<title>o2::Devices::EPNReceiverDevice</title>
<!-- Node1 -->
<g id="node1" class="node"><title>Node1</title>
<polygon fill="#bfbfbf" stroke="black" points="129.5,-0.5 129.5,-123.5 294.5,-123.5 294.5,-0.5 129.5,-0.5"/>
<text text-anchor="start" x="137.5" y="-111.5" font-family="Helvetica,sans-Serif" font-size="10.00">o2::Devices::EPNReceiver</text>
<text text-anchor="middle" x="212" y="-100.5" font-family="Helvetica,sans-Serif" font-size="10.00">Device</text>
<polyline fill="none" stroke="black" points="129.5,-93.5 294.5,-93.5 "/>
<text text-anchor="middle" x="212" y="-81.5" font-family="Helvetica,sans-Serif" font-size="10.00"> </text>
<polyline fill="none" stroke="black" points="129.5,-74.5 294.5,-74.5 "/>
<text text-anchor="start" x="137.5" y="-62.5" font-family="Helvetica,sans-Serif" font-size="10.00">+ EPNReceiverDevice()</text>
<text text-anchor="start" x="137.5" y="-51.5" font-family="Helvetica,sans-Serif" font-size="10.00">+ ~EPNReceiverDevice()</text>
<text text-anchor="start" x="137.5" y="-40.5" font-family="Helvetica,sans-Serif" font-size="10.00">+ InitTask()</text>
<text text-anchor="start" x="137.5" y="-29.5" font-family="Helvetica,sans-Serif" font-size="10.00">+ PrintBuffer()</text>
<text text-anchor="start" x="137.5" y="-18.5" font-family="Helvetica,sans-Serif" font-size="10.00">+ DiscardIncompleteTimeframes()</text>
<text text-anchor="start" x="137.5" y="-7.5" font-family="Helvetica,sans-Serif" font-size="10.00"># Run()</text>
</g>
<!-- Node2 -->
<g id="node2" class="node"><title>Node2</title>
<g id="a_node2"><a xlink:href="../../db/dfe/classFairMQDevice.html" target="_top" xlink:title="{FairMQDevice\n||}">
<polygon fill="none" stroke="black" points="0,-237.5 0,-294.5 80,-294.5 80,-237.5 0,-237.5"/>
<text text-anchor="middle" x="40" y="-282.5" font-family="Helvetica,sans-Serif" font-size="10.00">FairMQDevice</text>
<polyline fill="none" stroke="black" points="0,-275.5 80,-275.5 "/>
<text text-anchor="middle" x="40" y="-263.5" font-family="Helvetica,sans-Serif" font-size="10.00"> </text>
<polyline fill="none" stroke="black" points="0,-256.5 80,-256.5 "/>
<text text-anchor="middle" x="40" y="-244.5" font-family="Helvetica,sans-Serif" font-size="10.00"> </text>
</a>
</g>
</g>
<!-- Node2&#45;&gt;Node1 -->
<g id="edge1" class="edge"><title>Node2&#45;&gt;Node1</title>
<path fill="none" stroke="midnightblue" d="M70.2533,-229.47C95.0752,-200.319 130.785,-158.381 160.151,-123.892"/>
<polygon fill="none" stroke="midnightblue" points="67.3735,-227.453 63.5552,-237.336 72.7031,-231.992 67.3735,-227.453"/>
</g>
<!-- Node3 -->
<g id="node3" class="node"><title>Node3</title>
<polygon fill="none" stroke="#bfbfbf" points="98,-226.5 98,-305.5 214,-305.5 214,-226.5 98,-226.5"/>
<text text-anchor="start" x="106" y="-293.5" font-family="Helvetica,sans-Serif" font-size="10.00">unordered_map&lt; std</text>
<text text-anchor="start" x="106" y="-282.5" font-family="Helvetica,sans-Serif" font-size="10.00">::uint16_t, o2::Devices</text>
<text text-anchor="middle" x="156" y="-271.5" font-family="Helvetica,sans-Serif" font-size="10.00">::TFBuffer &gt;</text>
<polyline fill="none" stroke="#bfbfbf" points="98,-264.5 214,-264.5 "/>
<text text-anchor="middle" x="156" y="-252.5" font-family="Helvetica,sans-Serif" font-size="10.00"> </text>
<polyline fill="none" stroke="#bfbfbf" points="98,-245.5 214,-245.5 "/>
<text text-anchor="middle" x="156" y="-233.5" font-family="Helvetica,sans-Serif" font-size="10.00"> </text>
</g>
<!-- Node3&#45;&gt;Node1 -->
<g id="edge2" class="edge"><title>Node3&#45;&gt;Node1</title>
<path fill="none" stroke="#404040" d="M150.552,-226.399C148.454,-201.69 148.321,-169.268 157,-142 157.772,-139.574 158.647,-137.157 159.61,-134.756"/>
<polygon fill="none" stroke="#404040" points="159.693,-134.576 158.562,-127.454 164.702,-123.671 165.832,-130.793 159.693,-134.576"/>
<text text-anchor="middle" x="202" y="-172.5" font-family="Helvetica,sans-Serif" font-size="10.00"> #mTimeframeBuffer</text>
</g>
<!-- Node4 -->
<g id="node4" class="node"><title>Node4</title>
<polygon fill="none" stroke="#bfbfbf" points="254.5,-237.5 254.5,-294.5 283.5,-294.5 283.5,-237.5 254.5,-237.5"/>
<text text-anchor="middle" x="269" y="-282.5" font-family="Helvetica,sans-Serif" font-size="10.00">int</text>
<polyline fill="none" stroke="#bfbfbf" points="254.5,-275.5 283.5,-275.5 "/>
<text text-anchor="middle" x="269" y="-263.5" font-family="Helvetica,sans-Serif" font-size="10.00"> </text>
<polyline fill="none" stroke="#bfbfbf" points="254.5,-256.5 283.5,-256.5 "/>
<text text-anchor="middle" x="269" y="-244.5" font-family="Helvetica,sans-Serif" font-size="10.00"> </text>
</g>
<!-- Node4&#45;&gt;Node1 -->
<g id="edge3" class="edge"><title>Node4&#45;&gt;Node1</title>
<path fill="none" stroke="#404040" d="M265.962,-237.194C262.753,-211.967 256.777,-173.944 247,-142 246.309,-139.741 245.57,-137.461 244.792,-135.17"/>
<polygon fill="none" stroke="#404040" points="244.718,-134.966 238.908,-130.694 240.617,-123.689 246.427,-127.961 244.718,-134.966"/>
<text text-anchor="middle" x="309.5" y="-200" font-family="Helvetica,sans-Serif" font-size="10.00"> #mAckChannelName</text>
<text text-anchor="middle" x="309.5" y="-189" font-family="Helvetica,sans-Serif" font-size="10.00">#mBufferTimeoutInMs</text>
<text text-anchor="middle" x="309.5" y="-178" font-family="Helvetica,sans-Serif" font-size="10.00">#mOutChannelName</text>
<text text-anchor="middle" x="309.5" y="-167" font-family="Helvetica,sans-Serif" font-size="10.00">#mInChannelName</text>
<text text-anchor="middle" x="309.5" y="-156" font-family="Helvetica,sans-Serif" font-size="10.00">#mNumFLPs</text>
<text text-anchor="middle" x="309.5" y="-145" font-family="Helvetica,sans-Serif" font-size="10.00">#mTestMode</text>
</g>
<!-- Node5 -->
<g id="node5" class="node"><title>Node5</title>
<polygon fill="none" stroke="#bfbfbf" points="338.5,-232 338.5,-300 439.5,-300 439.5,-232 338.5,-232"/>
<text text-anchor="start" x="346.5" y="-288" font-family="Helvetica,sans-Serif" font-size="10.00">unordered_set&lt; std</text>
<text text-anchor="middle" x="389" y="-277" font-family="Helvetica,sans-Serif" font-size="10.00">::uint16_t &gt;</text>
<polyline fill="none" stroke="#bfbfbf" points="338.5,-270 439.5,-270 "/>
<text text-anchor="middle" x="389" y="-258" font-family="Helvetica,sans-Serif" font-size="10.00"> </text>
<polyline fill="none" stroke="#bfbfbf" points="338.5,-251 439.5,-251 "/>
<text text-anchor="middle" x="389" y="-239" font-family="Helvetica,sans-Serif" font-size="10.00"> </text>
</g>
<!-- Node5&#45;&gt;Node1 -->
<g id="edge4" class="edge"><title>Node5&#45;&gt;Node1</title>
<path fill="none" stroke="#404040" d="M389.124,-231.809C387.61,-205.077 381.675,-167.825 362,-142 347.428,-122.873 326.88,-107.909 305.654,-96.3975"/>
<polygon fill="none" stroke="#404040" points="305.538,-96.3379 298.373,-97.1549 294.863,-90.8555 302.028,-90.0386 305.538,-96.3379"/>
<text text-anchor="middle" x="424" y="-172.5" font-family="Helvetica,sans-Serif" font-size="10.00"> #mDiscardedSet</text>
</g>
</g>
</svg>
