<?xml version="1.0" encoding="UTF-8" standalone="no"?>
<!DOCTYPE svg PUBLIC "-//W3C//DTD SVG 1.1//EN"
 "http://www.w3.org/Graphics/SVG/1.1/DTD/svg11.dtd">
<!-- Generated by graphviz version 2.36.0 (20140111.2315)
 -->
<!-- Title: /home/travis/build/AliceO2Group/AliceO2/Detectors/ITSMFT/common/simulation/include/ITSMFTSimulation/SimulationAlpide.h Pages: 1 -->
<!--zoomable 332 -->
<svg id="main" version="1.1" xmlns="http://www.w3.org/2000/svg" xmlns:xlink="http://www.w3.org/1999/xlink" xml:space="preserve" onload="init(evt)">
<style type="text/css"><![CDATA[
.edge:hover path { stroke: red; }
.edge:hover polygon { stroke: red; fill: red; }
]]></style>
<script type="text/javascript"><![CDATA[
var edges = document.getElementsByTagName('g');
if (edges && edges.length) {
  for (var i=0;i<edges.length;i++) {
    if (edges[i].id.substr(0,4)=='edge') {
      edges[i].setAttribute('class','edge');
    }
  }
}
]]></script>
        <defs>
                <circle id="rim" cx="0" cy="0" r="7"/>
                <circle id="rim2" cx="0" cy="0" r="3.5"/>
                <g id="zoomPlus">
                        <use xlink:href="#rim" fill="#404040">
                                <set attributeName="fill" to="#808080" begin="zoomplus.mouseover" end="zoomplus.mouseout"/>
                        </use>
                        <path d="M-4,0h8M0,-4v8" fill="none" stroke="white" stroke-width="1.5" pointer-events="none"/>
                </g>
                <g id="zoomMin">
                        <use xlink:href="#rim" fill="#404040">
                                <set attributeName="fill" to="#808080" begin="zoomminus.mouseover" end="zoomminus.mouseout"/>
                        </use>
                        <path d="M-4,0h8" fill="none" stroke="white" stroke-width="1.5" pointer-events="none"/>
                </g>
                <g id="dirArrow">
                        <path fill="none" stroke="white" stroke-width="1.5" d="M0,-3.0v7 M-2.5,-0.5L0,-3.0L2.5,-0.5"/>
                </g>
               <g id="resetDef">
                       <use xlink:href="#rim2" fill="#404040">
                               <set attributeName="fill" to="#808080" begin="reset.mouseover" end="reset.mouseout"/>
                       </use>
               </g>
        </defs>

<script type="text/javascript">
var viewWidth = 1708;
var viewHeight = 332;
var sectionId = 'dynsection-0';
</script>
<script xlink:href="../../svgpan.js"/>
<svg id="graph" class="graph">
<g id="viewport">
<title>/home/travis/build/AliceO2Group/AliceO2/Detectors/ITSMFT/common/simulation/include/ITSMFTSimulation/SimulationAlpide.h</title>
<!-- Node1 -->
<g id="node1" class="node"><title>Node1</title>
<polygon fill="#bfbfbf" stroke="black" points="1177,-260.5 1177,-323.5 1359,-323.5 1359,-260.5 1177,-260.5"/>
<text text-anchor="start" x="1185" y="-311.5" font-family="Helvetica,sans-Serif" font-size="10.00">/home/travis/build</text>
<text text-anchor="start" x="1185" y="-300.5" font-family="Helvetica,sans-Serif" font-size="10.00">/AliceO2Group/AliceO2</text>
<text text-anchor="start" x="1185" y="-289.5" font-family="Helvetica,sans-Serif" font-size="10.00">/Detectors/ITSMFT/common</text>
<text text-anchor="start" x="1185" y="-278.5" font-family="Helvetica,sans-Serif" font-size="10.00">/simulation/include/ITSMFTSimulation</text>
<text text-anchor="middle" x="1268" y="-267.5" font-family="Helvetica,sans-Serif" font-size="10.00">/SimulationAlpide.h</text>
</g>
<!-- Node2 -->
<g id="node2" class="node"><title>Node2</title>
<polygon fill="none" stroke="#bfbfbf" points="815.5,-136.5 815.5,-155.5 874.5,-155.5 874.5,-136.5 815.5,-136.5"/>
<text text-anchor="middle" x="845" y="-143.5" font-family="Helvetica,sans-Serif" font-size="10.00">TObject.h</text>
</g>
<!-- Node1&#45;&gt;Node2 -->
<g id="edge1" class="edge"><title>Node1&#45;&gt;Node2</title>
<path fill="none" stroke="midnightblue" d="M1178.29,-260.461C1085.29,-228.801 944.631,-180.917 879.877,-158.873"/>
<polygon fill="midnightblue" stroke="midnightblue" points="880.749,-155.473 870.155,-155.563 878.493,-162.099 880.749,-155.473"/>
</g>
<!-- Node3 -->
<g id="node3" class="node"><title>Node3</title>
<g id="a_node3"><a xlink:href="../../d9/d55/Chip_8h.html" target="_top" xlink:title="ITSMFTSimulation/Chip.h">
<polygon fill="none" stroke="black" points="1203,-198.5 1203,-217.5 1333,-217.5 1333,-198.5 1203,-198.5"/>
<text text-anchor="middle" x="1268" y="-205.5" font-family="Helvetica,sans-Serif" font-size="10.00">ITSMFTSimulation/Chip.h</text>
</a>
</g>
</g>
<!-- Node1&#45;&gt;Node3 -->
<g id="edge2" class="edge"><title>Node1&#45;&gt;Node3</title>
<path fill="none" stroke="midnightblue" d="M1268,-260.466C1268,-249.47 1268,-237.396 1268,-227.709"/>
<polygon fill="midnightblue" stroke="midnightblue" points="1271.5,-227.64 1268,-217.64 1264.5,-227.64 1271.5,-227.64"/>
</g>
<!-- Node24 -->
<g id="node24" class="node"><title>Node24</title>
<g id="a_node24"><a xlink:href="../../dc/d1a/AlpideSimResponse_8h.html" target="_top" xlink:title="Definition of the ITSMFT Alpide simulated response parametrization. ">
<polygon fill="none" stroke="black" points="1512,-193 1512,-223 1658,-223 1658,-193 1512,-193"/>
<text text-anchor="start" x="1520" y="-211" font-family="Helvetica,sans-Serif" font-size="10.00">ITSMFTSimulation/AlpideSim</text>
<text text-anchor="middle" x="1585" y="-200" font-family="Helvetica,sans-Serif" font-size="10.00">Response.h</text>
</a>
</g>
</g>
<!-- Node1&#45;&gt;Node24 -->
<g id="edge27" class="edge"><title>Node1&#45;&gt;Node24</title>
<path fill="none" stroke="midnightblue" d="M1359.26,-267.392C1410.9,-254.036 1474.21,-237.658 1520.64,-225.65"/>
<polygon fill="midnightblue" stroke="midnightblue" points="1521.77,-228.973 1530.57,-223.08 1520.01,-222.196 1521.77,-228.973"/>
</g>
<!-- Node3&#45;&gt;Node2 -->
<g id="edge7" class="edge"><title>Node3&#45;&gt;Node2</title>
<path fill="none" stroke="midnightblue" d="M1202.82,-200.249C1128.29,-192.101 1002.45,-177.045 884.664,-155.963"/>
<polygon fill="midnightblue" stroke="midnightblue" points="885.214,-152.506 874.75,-154.171 883.968,-159.394 885.214,-152.506"/>
</g>
<!-- Node4 -->
<g id="node4" class="node"><title>Node4</title>
<polygon fill="none" stroke="#bfbfbf" points="1133.5,-136.5 1133.5,-155.5 1192.5,-155.5 1192.5,-136.5 1133.5,-136.5"/>
<text text-anchor="middle" x="1163" y="-143.5" font-family="Helvetica,sans-Serif" font-size="10.00">exception</text>
</g>
<!-- Node3&#45;&gt;Node4 -->
<g id="edge3" class="edge"><title>Node3&#45;&gt;Node4</title>
<path fill="none" stroke="midnightblue" d="M1252.96,-198.403C1235.72,-188.557 1207.26,-172.291 1186.97,-160.695"/>
<polygon fill="midnightblue" stroke="midnightblue" points="1188.43,-157.503 1178.02,-155.581 1184.96,-163.581 1188.43,-157.503"/>
</g>
<!-- Node5 -->
<g id="node5" class="node"><title>Node5</title>
<polygon fill="none" stroke="#bfbfbf" points="1211,-136.5 1211,-155.5 1263,-155.5 1263,-136.5 1211,-136.5"/>
<text text-anchor="middle" x="1237" y="-143.5" font-family="Helvetica,sans-Serif" font-size="10.00">sstream</text>
</g>
<!-- Node3&#45;&gt;Node5 -->
<g id="edge4" class="edge"><title>Node3&#45;&gt;Node5</title>
<path fill="none" stroke="midnightblue" d="M1263.56,-198.403C1259.05,-189.671 1251.93,-175.889 1246.19,-164.794"/>
<polygon fill="midnightblue" stroke="midnightblue" points="1249.13,-162.858 1241.43,-155.581 1242.91,-166.071 1249.13,-162.858"/>
</g>
<!-- Node6 -->
<g id="node6" class="node"><title>Node6</title>
<polygon fill="none" stroke="#bfbfbf" points="1501,-136.5 1501,-155.5 1545,-155.5 1545,-136.5 1501,-136.5"/>
<text text-anchor="middle" x="1523" y="-143.5" font-family="Helvetica,sans-Serif" font-size="10.00">vector</text>
</g>
<!-- Node3&#45;&gt;Node6 -->
<g id="edge5" class="edge"><title>Node3&#45;&gt;Node6</title>
<path fill="none" stroke="midnightblue" d="M1304.48,-198.447C1347.6,-188.331 1421.53,-170.974 1485,-156 1486.93,-155.545 1488.92,-155.076 1490.92,-154.603"/>
<polygon fill="midnightblue" stroke="midnightblue" points="1491.97,-157.95 1500.9,-152.241 1490.36,-151.138 1491.97,-157.95"/>
</g>
<!-- Node7 -->
<g id="node7" class="node"><title>Node7</title>
<polygon fill="none" stroke="#bfbfbf" points="1281.5,-136.5 1281.5,-155.5 1316.5,-155.5 1316.5,-136.5 1281.5,-136.5"/>
<text text-anchor="middle" x="1299" y="-143.5" font-family="Helvetica,sans-Serif" font-size="10.00">map</text>
</g>
<!-- Node3&#45;&gt;Node7 -->
<g id="edge6" class="edge"><title>Node3&#45;&gt;Node7</title>
<path fill="none" stroke="midnightblue" d="M1272.44,-198.403C1276.95,-189.671 1284.07,-175.889 1289.81,-164.794"/>
<polygon fill="midnightblue" stroke="midnightblue" points="1293.09,-166.071 1294.57,-155.581 1286.87,-162.858 1293.09,-166.071"/>
</g>
<!-- Node8 -->
<g id="node8" class="node"><title>Node8</title>
<g id="a_node8"><a xlink:href="../../d0/d06/ITSMFT_2common_2base_2include_2ITSMFTBase_2Digit_8h.html" target="_top" xlink:title="ITSMFTBase/Digit.h">
<polygon fill="none" stroke="black" points="1334.5,-136.5 1334.5,-155.5 1441.5,-155.5 1441.5,-136.5 1334.5,-136.5"/>
<text text-anchor="middle" x="1388" y="-143.5" font-family="Helvetica,sans-Serif" font-size="10.00">ITSMFTBase/Digit.h</text>
</a>
</g>
</g>
<!-- Node3&#45;&gt;Node8 -->
<g id="edge8" class="edge"><title>Node3&#45;&gt;Node8</title>
<path fill="none" stroke="midnightblue" d="M1285.19,-198.403C1305.24,-188.379 1338.6,-171.701 1361.86,-160.07"/>
<polygon fill="midnightblue" stroke="midnightblue" points="1363.46,-163.183 1370.84,-155.581 1360.33,-156.922 1363.46,-163.183"/>
</g>
<!-- Node10 -->
<g id="node10" class="node"><title>Node10</title>
<g id="a_node10"><a xlink:href="../../d7/dcd/MCCompLabel_8h.html" target="_top" xlink:title="SimulationDataFormat\l/MCCompLabel.h">
<polygon fill="none" stroke="black" points="1492,-69 1492,-99 1606,-99 1606,-69 1492,-69"/>
<text text-anchor="start" x="1500" y="-87" font-family="Helvetica,sans-Serif" font-size="10.00">SimulationDataFormat</text>
<text text-anchor="middle" x="1549" y="-76" font-family="Helvetica,sans-Serif" font-size="10.00">/MCCompLabel.h</text>
</a>
</g>
</g>
<!-- Node3&#45;&gt;Node10 -->
<g id="edge14" class="edge"><title>Node3&#45;&gt;Node10</title>
<path fill="none" stroke="midnightblue" d="M1315.24,-198.492C1352.96,-190.597 1406.52,-176.881 1450,-156 1477.74,-142.681 1505.92,-121.572 1525.08,-105.828"/>
<polygon fill="midnightblue" stroke="midnightblue" points="1527.54,-108.334 1532.97,-99.2334 1523.05,-102.964 1527.54,-108.334"/>
</g>
<!-- Node13 -->
<g id="node13" class="node"><title>Node13</title>
<g id="a_node13"><a xlink:href="../../dd/d76/Cartesian3D_8h.html" target="_top" xlink:title="MathUtils/Cartesian3D.h">
<polygon fill="none" stroke="black" points="892.5,-136.5 892.5,-155.5 1017.5,-155.5 1017.5,-136.5 892.5,-136.5"/>
<text text-anchor="middle" x="955" y="-143.5" font-family="Helvetica,sans-Serif" font-size="10.00">MathUtils/Cartesian3D.h</text>
</a>
</g>
</g>
<!-- Node3&#45;&gt;Node13 -->
<g id="edge15" class="edge"><title>Node3&#45;&gt;Node13</title>
<path fill="none" stroke="midnightblue" d="M1223.49,-198.467C1167.17,-187.671 1070.21,-169.086 1009.51,-157.45"/>
<polygon fill="midnightblue" stroke="midnightblue" points="1009.84,-153.949 999.359,-155.503 1008.52,-160.824 1009.84,-153.949"/>
</g>
<!-- Node9 -->
<g id="node9" class="node"><title>Node9</title>
<polygon fill="none" stroke="#bfbfbf" points="1340.5,-69 1340.5,-99 1435.5,-99 1435.5,-69 1340.5,-69"/>
<text text-anchor="start" x="1348.5" y="-87" font-family="Helvetica,sans-Serif" font-size="10.00">boost/serialization</text>
<text text-anchor="middle" x="1388" y="-76" font-family="Helvetica,sans-Serif" font-size="10.00">/base_object.hpp</text>
</g>
<!-- Node8&#45;&gt;Node9 -->
<g id="edge9" class="edge"><title>Node8&#45;&gt;Node9</title>
<path fill="none" stroke="midnightblue" d="M1388,-136.403C1388,-129.341 1388,-118.975 1388,-109.399"/>
<polygon fill="midnightblue" stroke="midnightblue" points="1391.5,-109.141 1388,-99.1408 1384.5,-109.141 1391.5,-109.141"/>
</g>
<!-- Node8&#45;&gt;Node10 -->
<g id="edge10" class="edge"><title>Node8&#45;&gt;Node10</title>
<path fill="none" stroke="midnightblue" d="M1411.07,-136.403C1434.68,-127.603 1472.06,-113.674 1501.95,-102.534"/>
<polygon fill="midnightblue" stroke="midnightblue" points="1503.22,-105.797 1511.37,-99.0253 1500.77,-99.2378 1503.22,-105.797"/>
</g>
<!-- Node11 -->
<g id="node11" class="node"><title>Node11</title>
<polygon fill="none" stroke="#bfbfbf" points="1478,-6.5 1478,-25.5 1534,-25.5 1534,-6.5 1478,-6.5"/>
<text text-anchor="middle" x="1506" y="-13.5" font-family="Helvetica,sans-Serif" font-size="10.00">Rtypes.h</text>
</g>
<!-- Node8&#45;&gt;Node11 -->
<g id="edge13" class="edge"><title>Node8&#45;&gt;Node11</title>
<path fill="none" stroke="midnightblue" d="M1400.32,-136.499C1412.19,-127.997 1430.31,-114.178 1444,-100 1464.13,-79.145 1483.49,-51.6549 1495.06,-34.1483"/>
<polygon fill="midnightblue" stroke="midnightblue" points="1498.14,-35.8464 1500.65,-25.555 1492.27,-32.0303 1498.14,-35.8464"/>
</g>
<!-- Node12 -->
<g id="node12" class="node"><title>Node12</title>
<polygon fill="none" stroke="#bfbfbf" points="1230,-74.5 1230,-93.5 1322,-93.5 1322,-74.5 1230,-74.5"/>
<text text-anchor="middle" x="1276" y="-81.5" font-family="Helvetica,sans-Serif" font-size="10.00">FairTimeStamp.h</text>
</g>
<!-- Node8&#45;&gt;Node12 -->
<g id="edge12" class="edge"><title>Node8&#45;&gt;Node12</title>
<path fill="none" stroke="midnightblue" d="M1371.95,-136.403C1353.41,-126.468 1322.66,-109.997 1300.98,-98.3812"/>
<polygon fill="midnightblue" stroke="midnightblue" points="1302.48,-95.2177 1292.02,-93.5806 1299.18,-101.388 1302.48,-95.2177"/>
</g>
<!-- Node10&#45;&gt;Node11 -->
<g id="edge11" class="edge"><title>Node10&#45;&gt;Node11</title>
<path fill="none" stroke="midnightblue" d="M1539.67,-68.679C1533.1,-58.5919 1524.26,-45.033 1517.29,-34.3345"/>
<polygon fill="midnightblue" stroke="midnightblue" points="1520.14,-32.2963 1511.75,-25.8283 1514.28,-36.1175 1520.14,-32.2963"/>
</g>
<!-- Node13&#45;&gt;Node11 -->
<g id="edge19" class="edge"><title>Node13&#45;&gt;Node11</title>
<path fill="none" stroke="midnightblue" d="M1017.66,-141.129C1065.03,-136.231 1130.62,-125.134 1183,-100 1202.91,-90.4483 1201.01,-77.3742 1221,-68 1303.09,-29.5064 1410.99,-19.9384 1467.57,-17.6447"/>
<polygon fill="midnightblue" stroke="midnightblue" points="1467.98,-21.1326 1477.85,-17.286 1467.74,-14.1369 1467.98,-21.1326"/>
</g>
<!-- Node14 -->
<g id="node14" class="node"><title>Node14</title>
<polygon fill="none" stroke="#bfbfbf" points="-0.5,-74.5 -0.5,-93.5 148.5,-93.5 148.5,-74.5 -0.5,-74.5"/>
<text text-anchor="middle" x="74" y="-81.5" font-family="Helvetica,sans-Serif" font-size="10.00">Math/GenVector/Rotation3D.h</text>
</g>
<!-- Node13&#45;&gt;Node14 -->
<g id="edge16" class="edge"><title>Node13&#45;&gt;Node14</title>
<path fill="none" stroke="midnightblue" d="M892.201,-136.87C889.092,-136.555 886.012,-136.263 883,-136 561.601,-107.972 478.556,-136.43 158,-100 147.515,-98.8084 136.361,-97.1185 125.722,-95.2999"/>
<polygon fill="midnightblue" stroke="midnightblue" points="126.176,-91.8259 115.719,-93.5289 124.955,-98.7187 126.176,-91.8259"/>
</g>
<!-- Node15 -->
<g id="node15" class="node"><title>Node15</title>
<polygon fill="none" stroke="#bfbfbf" points="167,-74.5 167,-93.5 323,-93.5 323,-74.5 167,-74.5"/>
<text text-anchor="middle" x="245" y="-81.5" font-family="Helvetica,sans-Serif" font-size="10.00">Math/GenVector/Transform3D.h</text>
</g>
<!-- Node13&#45;&gt;Node15 -->
<g id="edge17" class="edge"><title>Node13&#45;&gt;Node15</title>
<path fill="none" stroke="midnightblue" d="M892.195,-136.928C889.088,-136.598 886.01,-136.286 883,-136 638.691,-112.77 575.705,-128.889 332,-100 321.388,-98.7421 310.104,-97.0568 299.301,-95.2703"/>
<polygon fill="midnightblue" stroke="midnightblue" points="299.573,-91.7664 289.127,-93.537 298.397,-98.6669 299.573,-91.7664"/>
</g>
<!-- Node16 -->
<g id="node16" class="node"><title>Node16</title>
<polygon fill="none" stroke="#bfbfbf" points="341,-74.5 341,-93.5 501,-93.5 501,-74.5 341,-74.5"/>
<text text-anchor="middle" x="421" y="-81.5" font-family="Helvetica,sans-Serif" font-size="10.00">Math/GenVector/Translation3D.h</text>
</g>
<!-- Node13&#45;&gt;Node16 -->
<g id="edge18" class="edge"><title>Node13&#45;&gt;Node16</title>
<path fill="none" stroke="midnightblue" d="M892.184,-137.042C889.079,-136.682 886.005,-136.333 883,-136 717.464,-117.669 675.108,-121.853 510,-100 499.641,-98.6289 488.639,-96.9542 478.033,-95.2272"/>
<polygon fill="midnightblue" stroke="midnightblue" points="478.458,-91.7498 468.019,-93.5636 477.31,-98.6552 478.458,-91.7498"/>
</g>
<!-- Node17 -->
<g id="node17" class="node"><title>Node17</title>
<polygon fill="none" stroke="#bfbfbf" points="519,-74.5 519,-93.5 595,-93.5 595,-74.5 519,-74.5"/>
<text text-anchor="middle" x="557" y="-81.5" font-family="Helvetica,sans-Serif" font-size="10.00">TGeoMatrix.h</text>
</g>
<!-- Node13&#45;&gt;Node17 -->
<g id="edge20" class="edge"><title>Node13&#45;&gt;Node17</title>
<path fill="none" stroke="midnightblue" d="M892.185,-137.093C793.104,-124.601 610.973,-101.546 604,-100 599.767,-99.0613 595.37,-97.9072 591.039,-96.6597"/>
<polygon fill="midnightblue" stroke="midnightblue" points="591.751,-93.2172 581.164,-93.6366 589.702,-99.9106 591.751,-93.2172"/>
</g>
<!-- Node18 -->
<g id="node18" class="node"><title>Node18</title>
<polygon fill="none" stroke="#bfbfbf" points="613.5,-69 613.5,-99 764.5,-99 764.5,-69 613.5,-69"/>
<text text-anchor="start" x="621.5" y="-87" font-family="Helvetica,sans-Serif" font-size="10.00">Math/GenVector/Displacement</text>
<text text-anchor="middle" x="689" y="-76" font-family="Helvetica,sans-Serif" font-size="10.00">Vector3D.h</text>
</g>
<!-- Node13&#45;&gt;Node18 -->
<g id="edge21" class="edge"><title>Node13&#45;&gt;Node18</title>
<path fill="none" stroke="midnightblue" d="M917.171,-136.467C876.696,-127.337 811.526,-112.638 761.178,-101.281"/>
<polygon fill="midnightblue" stroke="midnightblue" points="761.842,-97.8427 751.317,-99.0565 760.302,-104.671 761.842,-97.8427"/>
</g>
<!-- Node19 -->
<g id="node19" class="node"><title>Node19</title>
<polygon fill="none" stroke="#bfbfbf" points="783,-74.5 783,-93.5 959,-93.5 959,-74.5 783,-74.5"/>
<text text-anchor="middle" x="871" y="-81.5" font-family="Helvetica,sans-Serif" font-size="10.00">Math/GenVector/PositionVector3D.h</text>
</g>
<!-- Node13&#45;&gt;Node19 -->
<g id="edge22" class="edge"><title>Node13&#45;&gt;Node19</title>
<path fill="none" stroke="midnightblue" d="M942.965,-136.403C929.492,-126.78 907.434,-111.024 891.285,-99.4891"/>
<polygon fill="midnightblue" stroke="midnightblue" points="893.185,-96.5449 883.013,-93.5806 889.116,-102.241 893.185,-96.5449"/>
</g>
<!-- Node20 -->
<g id="node20" class="node"><title>Node20</title>
<g id="a_node20"><a xlink:href="../../d2/dd0/Cartesian2D_8h.html" target="_top" xlink:title="MathUtils/Cartesian2D.h">
<polygon fill="none" stroke="black" points="976.5,-74.5 976.5,-93.5 1101.5,-93.5 1101.5,-74.5 976.5,-74.5"/>
<text text-anchor="middle" x="1039" y="-81.5" font-family="Helvetica,sans-Serif" font-size="10.00">MathUtils/Cartesian2D.h</text>
</a>
</g>
</g>
<!-- Node13&#45;&gt;Node20 -->
<g id="edge23" class="edge"><title>Node13&#45;&gt;Node20</title>
<path fill="none" stroke="midnightblue" d="M967.035,-136.403C980.508,-126.78 1002.57,-111.024 1018.72,-99.4891"/>
<polygon fill="midnightblue" stroke="midnightblue" points="1020.88,-102.241 1026.99,-93.5806 1016.82,-96.5449 1020.88,-102.241"/>
</g>
<!-- Node23 -->
<g id="node23" class="node"><title>Node23</title>
<polygon fill="none" stroke="#bfbfbf" points="1120,-74.5 1120,-93.5 1174,-93.5 1174,-74.5 1120,-74.5"/>
<text text-anchor="middle" x="1147" y="-81.5" font-family="Helvetica,sans-Serif" font-size="10.00">iostream</text>
</g>
<!-- Node13&#45;&gt;Node23 -->
<g id="edge26" class="edge"><title>Node13&#45;&gt;Node23</title>
<path fill="none" stroke="midnightblue" d="M987.965,-136.483C1019.56,-128.075 1068.44,-114.416 1110,-100 1112.41,-99.1653 1114.88,-98.2611 1117.36,-97.3246"/>
<polygon fill="midnightblue" stroke="midnightblue" points="1118.75,-100.539 1126.79,-93.6311 1116.2,-94.0223 1118.75,-100.539"/>
</g>
<!-- Node21 -->
<g id="node21" class="node"><title>Node21</title>
<polygon fill="none" stroke="#bfbfbf" points="872.5,-1 872.5,-31 1023.5,-31 1023.5,-1 872.5,-1"/>
<text text-anchor="start" x="880.5" y="-19" font-family="Helvetica,sans-Serif" font-size="10.00">Math/GenVector/Displacement</text>
<text text-anchor="middle" x="948" y="-8" font-family="Helvetica,sans-Serif" font-size="10.00">Vector2D.h</text>
</g>
<!-- Node20&#45;&gt;Node21 -->
<g id="edge24" class="edge"><title>Node20&#45;&gt;Node21</title>
<path fill="none" stroke="midnightblue" d="M1027.1,-74.3717C1014.22,-65.0286 993.22,-49.7966 976.093,-37.375"/>
<polygon fill="midnightblue" stroke="midnightblue" points="977.703,-34.2194 967.553,-31.1815 973.593,-39.8859 977.703,-34.2194"/>
</g>
<!-- Node22 -->
<g id="node22" class="node"><title>Node22</title>
<polygon fill="none" stroke="#bfbfbf" points="1042,-6.5 1042,-25.5 1218,-25.5 1218,-6.5 1042,-6.5"/>
<text text-anchor="middle" x="1130" y="-13.5" font-family="Helvetica,sans-Serif" font-size="10.00">Math/GenVector/PositionVector2D.h</text>
</g>
<!-- Node20&#45;&gt;Node22 -->
<g id="edge25" class="edge"><title>Node20&#45;&gt;Node22</title>
<path fill="none" stroke="midnightblue" d="M1050.9,-74.3717C1065.88,-63.5015 1091.86,-44.6602 1109.94,-31.5474"/>
<polygon fill="midnightblue" stroke="midnightblue" points="1112.06,-34.3349 1118.1,-25.6305 1107.95,-28.6684 1112.06,-34.3349"/>
</g>
<!-- Node24&#45;&gt;Node6 -->
<g id="edge30" class="edge"><title>Node24&#45;&gt;Node6</title>
<path fill="none" stroke="midnightblue" d="M1570.31,-192.781C1561.02,-183.792 1549,-172.162 1539.4,-162.873"/>
<polygon fill="midnightblue" stroke="midnightblue" points="1541.64,-160.17 1532.02,-155.731 1536.77,-165.2 1541.64,-160.17"/>
</g>
<!-- Node24&#45;&gt;Node11 -->
<g id="edge31" class="edge"><title>Node24&#45;&gt;Node11</title>
<path fill="none" stroke="midnightblue" d="M1595.73,-192.694C1602.38,-182.918 1610.34,-169.36 1614,-156 1624.34,-118.277 1635.99,-101.002 1615,-68 1599.53,-43.6756 1569.06,-30.7562 1544.27,-24.014"/>
<polygon fill="midnightblue" stroke="midnightblue" points="1544.94,-20.5758 1534.4,-21.5654 1543.26,-27.3699 1544.94,-20.5758"/>
</g>
<!-- Node25 -->
<g id="node25" class="node"><title>Node25</title>
<polygon fill="none" stroke="#bfbfbf" points="1662,-136.5 1662,-155.5 1700,-155.5 1700,-136.5 1662,-136.5"/>
<text text-anchor="middle" x="1681" y="-143.5" font-family="Helvetica,sans-Serif" font-size="10.00">array</text>
</g>
<!-- Node24&#45;&gt;Node25 -->
<g id="edge28" class="edge"><title>Node24&#45;&gt;Node25</title>
<path fill="none" stroke="midnightblue" d="M1607.75,-192.781C1623.09,-183.196 1643.23,-170.606 1658.51,-161.056"/>
<polygon fill="midnightblue" stroke="midnightblue" points="1660.69,-163.824 1667.31,-155.556 1656.98,-157.888 1660.69,-163.824"/>
</g>
<!-- Node26 -->
<g id="node26" class="node"><title>Node26</title>
<polygon fill="none" stroke="#bfbfbf" points="1564.5,-136.5 1564.5,-155.5 1605.5,-155.5 1605.5,-136.5 1564.5,-136.5"/>
<text text-anchor="middle" x="1585" y="-143.5" font-family="Helvetica,sans-Serif" font-size="10.00">string</text>
</g>
<!-- Node24&#45;&gt;Node26 -->
<g id="edge29" class="edge"><title>Node24&#45;&gt;Node26</title>
<path fill="none" stroke="midnightblue" d="M1585,-192.781C1585,-184.781 1585,-174.689 1585,-166.017"/>
<polygon fill="midnightblue" stroke="midnightblue" points="1588.5,-165.73 1585,-155.731 1581.5,-165.731 1588.5,-165.73"/>
</g>
</g>
</svg>
        <g id="navigator" transform="translate(0 0)" fill="#404254">
                <rect fill="#f2f5e9" fill-opacity="0.5" stroke="#606060" stroke-width=".5" x="0" y="0" width="60" height="60"/>
                <use id="zoomplus" xlink:href="#zoomPlus" x="17" y="9" onmousedown="handleZoom(evt,'in')"/>
                <use id="zoomminus" xlink:href="#zoomMin" x="42" y="9" onmousedown="handleZoom(evt,'out')"/>
                <use id="reset" xlink:href="#resetDef" x="30" y="36" onmousedown="handleReset()"/>
                <g id="arrowUp" xlink:href="#dirArrow" transform="translate(30 24)" onmousedown="handlePan(0,-1)">
                  <use xlink:href="#rim" fill="#404040">
                        <set attributeName="fill" to="#808080" begin="arrowUp.mouseover" end="arrowUp.mouseout"/>
                  </use>
                  <path fill="none" stroke="white" stroke-width="1.5" d="M0,-3.0v7 M-2.5,-0.5L0,-3.0L2.5,-0.5"/>
                </g>
                <g id="arrowRight" xlink:href="#dirArrow" transform="rotate(90) translate(36 -43)" onmousedown="handlePan(1,0)">
                  <use xlink:href="#rim" fill="#404040">
                        <set attributeName="fill" to="#808080" begin="arrowRight.mouseover" end="arrowRight.mouseout"/>
                  </use>
                  <path fill="none" stroke="white" stroke-width="1.5" d="M0,-3.0v7 M-2.5,-0.5L0,-3.0L2.5,-0.5"/>
                </g>
                <g id="arrowDown" xlink:href="#dirArrow" transform="rotate(180) translate(-30 -48)" onmousedown="handlePan(0,1)">
                  <use xlink:href="#rim" fill="#404040">
                        <set attributeName="fill" to="#808080" begin="arrowDown.mouseover" end="arrowDown.mouseout"/>
                  </use>
                  <path fill="none" stroke="white" stroke-width="1.5" d="M0,-3.0v7 M-2.5,-0.5L0,-3.0L2.5,-0.5"/>
                </g>
                <g id="arrowLeft" xlink:href="#dirArrow" transform="rotate(270) translate(-36 17)" onmousedown="handlePan(-1,0)">
                  <use xlink:href="#rim" fill="#404040">
                        <set attributeName="fill" to="#808080" begin="arrowLeft.mouseover" end="arrowLeft.mouseout"/>
                  </use>
                  <path fill="none" stroke="white" stroke-width="1.5" d="M0,-3.0v7 M-2.5,-0.5L0,-3.0L2.5,-0.5"/>
                </g>
        </g>
        <svg viewBox="0 0 15 15" width="100%" height="30px" preserveAspectRatio="xMaxYMin meet">
         <g id="arrow_out" transform="scale(0.3 0.3)">
          <a xlink:href="SimulationAlpide_8h__incl_org.svg" target="_base">
           <rect id="button" ry="5" rx="5" y="6" x="6" height="38" width="38"
                fill="#f2f5e9" fill-opacity="0.5" stroke="#606060" stroke-width="1.0"/>
           <path id="arrow"
             d="M 11.500037,31.436501 C 11.940474,20.09759 22.043105,11.32322 32.158766,21.979434 L 37.068811,17.246167 C 37.068811,17.246167 37.088388,32 37.088388,32 L 22.160133,31.978069 C 22.160133,31.978069 26.997745,27.140456 26.997745,27.140456 C 18.528582,18.264221 13.291696,25.230495 11.500037,31.436501 z"
             style="fill:#404040;"/>
          </a>
         </g>
        </svg>
</svg>
