<?xml version="1.0" encoding="UTF-8" standalone="no"?>
<!DOCTYPE svg PUBLIC "-//W3C//DTD SVG 1.1//EN"
 "http://www.w3.org/Graphics/SVG/1.1/DTD/svg11.dtd">
<!-- Generated by graphviz version 2.36.0 (20140111.2315)
 -->
<!-- Title: /home/travis/build/AliceO2Group/AliceO2/Detectors/ITSMFT/MFT/simulation/include/MFTSimulation/Detector.h Pages: 1 -->
<svg width="1842pt" height="400pt"
 viewBox="0.00 0.00 1842.00 400.00" xmlns="http://www.w3.org/2000/svg" xmlns:xlink="http://www.w3.org/1999/xlink">
<g id="graph0" class="graph" transform="scale(1 1) rotate(0) translate(4 396)">
<title>/home/travis/build/AliceO2Group/AliceO2/Detectors/ITSMFT/MFT/simulation/include/MFTSimulation/Detector.h</title>
<!-- Node1 -->
<g id="node1" class="node"><title>Node1</title>
<polygon fill="#bfbfbf" stroke="black" points="313.5,-328.5 313.5,-391.5 480.5,-391.5 480.5,-328.5 313.5,-328.5"/>
<text text-anchor="start" x="321.5" y="-379.5" font-family="Helvetica,sans-Serif" font-size="10.00">/home/travis/build</text>
<text text-anchor="start" x="321.5" y="-368.5" font-family="Helvetica,sans-Serif" font-size="10.00">/AliceO2Group/AliceO2</text>
<text text-anchor="start" x="321.5" y="-357.5" font-family="Helvetica,sans-Serif" font-size="10.00">/Detectors/ITSMFT/MFT</text>
<text text-anchor="start" x="321.5" y="-346.5" font-family="Helvetica,sans-Serif" font-size="10.00">/simulation/include/MFTSimulation</text>
<text text-anchor="middle" x="397" y="-335.5" font-family="Helvetica,sans-Serif" font-size="10.00">/Detector.h</text>
</g>
<!-- Node2 -->
<g id="node2" class="node"><title>Node2</title>
<polygon fill="none" stroke="#bfbfbf" points="183,-272.5 183,-291.5 275,-291.5 275,-272.5 183,-272.5"/>
<text text-anchor="middle" x="229" y="-279.5" font-family="Helvetica,sans-Serif" font-size="10.00">TLorentzVector.h</text>
</g>
<!-- Node1&#45;&gt;Node2 -->
<g id="edge1" class="edge"><title>Node1&#45;&gt;Node2</title>
<path fill="none" stroke="midnightblue" d="M329.152,-328.307C304.067,-316.959 276.984,-304.707 257.315,-295.809"/>
<polygon fill="midnightblue" stroke="midnightblue" points="258.579,-292.54 248.025,-291.607 255.694,-298.917 258.579,-292.54"/>
</g>
<!-- Node3 -->
<g id="node3" class="node"><title>Node3</title>
<g id="a_node3"><a xlink:href="../../d1/d3a/Base_2include_2DetectorsBase_2Detector_8h.html" target="_top" xlink:title="DetectorsBase/Detector.h">
<polygon fill="none" stroke="black" points="331.5,-272.5 331.5,-291.5 462.5,-291.5 462.5,-272.5 331.5,-272.5"/>
<text text-anchor="middle" x="397" y="-279.5" font-family="Helvetica,sans-Serif" font-size="10.00">DetectorsBase/Detector.h</text>
</a>
</g>
</g>
<!-- Node1&#45;&gt;Node3 -->
<g id="edge2" class="edge"><title>Node1&#45;&gt;Node3</title>
<path fill="none" stroke="midnightblue" d="M397,-328.088C397,-319.15 397,-309.669 397,-301.719"/>
<polygon fill="midnightblue" stroke="midnightblue" points="400.5,-301.718 397,-291.718 393.5,-301.718 400.5,-301.718"/>
</g>
<!-- Node5 -->
<g id="node5" class="node"><title>Node5</title>
<polygon fill="none" stroke="#bfbfbf" points="0,-210.5 0,-229.5 44,-229.5 44,-210.5 0,-210.5"/>
<text text-anchor="middle" x="22" y="-217.5" font-family="Helvetica,sans-Serif" font-size="10.00">vector</text>
</g>
<!-- Node1&#45;&gt;Node5 -->
<g id="edge43" class="edge"><title>Node1&#45;&gt;Node5</title>
<path fill="none" stroke="midnightblue" d="M366.187,-328.326C344.901,-309.002 314.943,-285.279 284,-272 188.515,-231.025 152.184,-266.967 53,-236 50.8669,-235.334 48.696,-234.543 46.5436,-233.677"/>
<polygon fill="midnightblue" stroke="midnightblue" points="47.9575,-230.475 37.4021,-229.562 45.0843,-236.858 47.9575,-230.475"/>
</g>
<!-- Node14 -->
<g id="node14" class="node"><title>Node14</title>
<g id="a_node14"><a xlink:href="../../d6/d31/DetID_8h.html" target="_top" xlink:title="DetectorsBase/DetID.h">
<polygon fill="none" stroke="black" points="1099.5,-272.5 1099.5,-291.5 1218.5,-291.5 1218.5,-272.5 1099.5,-272.5"/>
<text text-anchor="middle" x="1159" y="-279.5" font-family="Helvetica,sans-Serif" font-size="10.00">DetectorsBase/DetID.h</text>
</a>
</g>
</g>
<!-- Node1&#45;&gt;Node14 -->
<g id="edge13" class="edge"><title>Node1&#45;&gt;Node14</title>
<path fill="none" stroke="midnightblue" d="M480.727,-350.649C632.069,-335.555 948.476,-303.997 1089.08,-289.974"/>
<polygon fill="midnightblue" stroke="midnightblue" points="1089.69,-293.43 1099.3,-288.955 1089,-286.464 1089.69,-293.43"/>
</g>
<!-- Node22 -->
<g id="node22" class="node"><title>Node22</title>
<g id="a_node22"><a xlink:href="../../d0/dae/ITSMFT_2common_2simulation_2include_2ITSMFTSimulation_2Hit_8h.html" target="_top" xlink:title="ITSMFTSimulation/Hit.h">
<polygon fill="none" stroke="black" points="771,-272.5 771,-291.5 893,-291.5 893,-272.5 771,-272.5"/>
<text text-anchor="middle" x="832" y="-279.5" font-family="Helvetica,sans-Serif" font-size="10.00">ITSMFTSimulation/Hit.h</text>
</a>
</g>
</g>
<!-- Node1&#45;&gt;Node22 -->
<g id="edge24" class="edge"><title>Node1&#45;&gt;Node22</title>
<path fill="none" stroke="midnightblue" d="M480.615,-344.391C566.294,-329.422 697.339,-306.527 772.835,-293.337"/>
<polygon fill="midnightblue" stroke="midnightblue" points="773.86,-296.711 783.108,-291.542 772.655,-289.815 773.86,-296.711"/>
</g>
<!-- Node4 -->
<g id="node4" class="node"><title>Node4</title>
<polygon fill="none" stroke="#bfbfbf" points="379.5,-210.5 379.5,-229.5 414.5,-229.5 414.5,-210.5 379.5,-210.5"/>
<text text-anchor="middle" x="397" y="-217.5" font-family="Helvetica,sans-Serif" font-size="10.00">map</text>
</g>
<!-- Node3&#45;&gt;Node4 -->
<g id="edge3" class="edge"><title>Node3&#45;&gt;Node4</title>
<path fill="none" stroke="midnightblue" d="M397,-272.403C397,-263.938 397,-250.728 397,-239.82"/>
<polygon fill="midnightblue" stroke="midnightblue" points="400.5,-239.581 397,-229.581 393.5,-239.581 400.5,-239.581"/>
</g>
<!-- Node3&#45;&gt;Node5 -->
<g id="edge4" class="edge"><title>Node3&#45;&gt;Node5</title>
<path fill="none" stroke="midnightblue" d="M331.298,-273.553C238.931,-262.908 79.0054,-243.771 53,-236 50.8589,-235.36 48.6823,-234.588 46.5261,-233.734"/>
<polygon fill="midnightblue" stroke="midnightblue" points="47.9353,-230.531 37.3778,-229.642 45.0767,-236.92 47.9353,-230.531"/>
</g>
<!-- Node6 -->
<g id="node6" class="node"><title>Node6</title>
<polygon fill="none" stroke="#bfbfbf" points="433,-210.5 433,-229.5 485,-229.5 485,-210.5 433,-210.5"/>
<text text-anchor="middle" x="459" y="-217.5" font-family="Helvetica,sans-Serif" font-size="10.00">memory</text>
</g>
<!-- Node3&#45;&gt;Node6 -->
<g id="edge5" class="edge"><title>Node3&#45;&gt;Node6</title>
<path fill="none" stroke="midnightblue" d="M405.883,-272.403C415.459,-263.136 430.911,-248.183 442.686,-236.788"/>
<polygon fill="midnightblue" stroke="midnightblue" points="445.381,-239.05 450.133,-229.581 440.513,-234.02 445.381,-239.05"/>
</g>
<!-- Node7 -->
<g id="node7" class="node"><title>Node7</title>
<polygon fill="none" stroke="#bfbfbf" points="503.5,-210.5 503.5,-229.5 582.5,-229.5 582.5,-210.5 503.5,-210.5"/>
<text text-anchor="middle" x="543" y="-217.5" font-family="Helvetica,sans-Serif" font-size="10.00">FairDetector.h</text>
</g>
<!-- Node3&#45;&gt;Node7 -->
<g id="edge6" class="edge"><title>Node3&#45;&gt;Node7</title>
<path fill="none" stroke="midnightblue" d="M417.918,-272.403C442.746,-262.2 484.343,-245.105 512.694,-233.454"/>
<polygon fill="midnightblue" stroke="midnightblue" points="514.202,-236.619 522.121,-229.581 511.541,-230.144 514.202,-236.619"/>
</g>
<!-- Node8 -->
<g id="node8" class="node"><title>Node8</title>
<polygon fill="none" stroke="#bfbfbf" points="62,-210.5 62,-229.5 162,-229.5 162,-210.5 62,-210.5"/>
<text text-anchor="middle" x="112" y="-217.5" font-family="Helvetica,sans-Serif" font-size="10.00">FairRootManager.h</text>
</g>
<!-- Node3&#45;&gt;Node8 -->
<g id="edge7" class="edge"><title>Node3&#45;&gt;Node8</title>
<path fill="none" stroke="midnightblue" d="M350.536,-272.486C304.741,-263.92 232.843,-250.008 171,-236 165.588,-234.774 159.915,-233.42 154.315,-232.042"/>
<polygon fill="midnightblue" stroke="midnightblue" points="154.936,-228.59 144.386,-229.559 153.238,-235.381 154.936,-228.59"/>
</g>
<!-- Node9 -->
<g id="node9" class="node"><title>Node9</title>
<polygon fill="none" stroke="#bfbfbf" points="542,-74.5 542,-93.5 598,-93.5 598,-74.5 542,-74.5"/>
<text text-anchor="middle" x="570" y="-81.5" font-family="Helvetica,sans-Serif" font-size="10.00">Rtypes.h</text>
</g>
<!-- Node3&#45;&gt;Node9 -->
<g id="edge8" class="edge"><title>Node3&#45;&gt;Node9</title>
<path fill="none" stroke="midnightblue" d="M462.7,-274.459C512.519,-267.982 575.056,-256.065 591,-236 622.066,-196.903 595.934,-133.416 580.04,-102.727"/>
<polygon fill="midnightblue" stroke="midnightblue" points="582.973,-100.793 575.14,-93.659 576.815,-104.121 582.973,-100.793"/>
</g>
<!-- Node10 -->
<g id="node10" class="node"><title>Node10</title>
<polygon fill="none" stroke="#bfbfbf" points="180.5,-210.5 180.5,-229.5 233.5,-229.5 233.5,-210.5 180.5,-210.5"/>
<text text-anchor="middle" x="207" y="-217.5" font-family="Helvetica,sans-Serif" font-size="10.00">cxxabi.h</text>
</g>
<!-- Node3&#45;&gt;Node10 -->
<g id="edge9" class="edge"><title>Node3&#45;&gt;Node10</title>
<path fill="none" stroke="midnightblue" d="M363.059,-272.428C331.399,-264.132 283.024,-250.684 242,-236 239.742,-235.192 237.421,-234.311 235.1,-233.395"/>
<polygon fill="midnightblue" stroke="midnightblue" points="236.302,-230.105 225.723,-229.524 233.63,-236.575 236.302,-230.105"/>
</g>
<!-- Node11 -->
<g id="node11" class="node"><title>Node11</title>
<polygon fill="none" stroke="#bfbfbf" points="251.5,-210.5 251.5,-229.5 302.5,-229.5 302.5,-210.5 251.5,-210.5"/>
<text text-anchor="middle" x="277" y="-217.5" font-family="Helvetica,sans-Serif" font-size="10.00">typeinfo</text>
</g>
<!-- Node3&#45;&gt;Node11 -->
<g id="edge10" class="edge"><title>Node3&#45;&gt;Node11</title>
<path fill="none" stroke="midnightblue" d="M379.807,-272.403C359.757,-262.379 326.401,-245.701 303.14,-234.07"/>
<polygon fill="midnightblue" stroke="midnightblue" points="304.671,-230.922 294.161,-229.581 301.54,-237.183 304.671,-230.922"/>
</g>
<!-- Node12 -->
<g id="node12" class="node"><title>Node12</title>
<polygon fill="none" stroke="#bfbfbf" points="723,-210.5 723,-229.5 785,-229.5 785,-210.5 723,-210.5"/>
<text text-anchor="middle" x="754" y="-217.5" font-family="Helvetica,sans-Serif" font-size="10.00">type_traits</text>
</g>
<!-- Node3&#45;&gt;Node12 -->
<g id="edge11" class="edge"><title>Node3&#45;&gt;Node12</title>
<path fill="none" stroke="midnightblue" d="M462.527,-275.701C526.978,-269.549 627.814,-257.397 713,-236 716.411,-235.143 719.933,-234.104 723.413,-232.977"/>
<polygon fill="midnightblue" stroke="midnightblue" points="724.691,-236.238 732.985,-229.645 722.39,-229.627 724.691,-236.238"/>
</g>
<!-- Node13 -->
<g id="node13" class="node"><title>Node13</title>
<polygon fill="none" stroke="#bfbfbf" points="320.5,-210.5 320.5,-229.5 361.5,-229.5 361.5,-210.5 320.5,-210.5"/>
<text text-anchor="middle" x="341" y="-217.5" font-family="Helvetica,sans-Serif" font-size="10.00">string</text>
</g>
<!-- Node3&#45;&gt;Node13 -->
<g id="edge12" class="edge"><title>Node3&#45;&gt;Node13</title>
<path fill="none" stroke="midnightblue" d="M388.977,-272.403C380.41,-263.225 366.639,-248.47 356.043,-237.117"/>
<polygon fill="midnightblue" stroke="midnightblue" points="358.39,-234.503 349.009,-229.581 353.273,-239.279 358.39,-234.503"/>
</g>
<!-- Node14&#45;&gt;Node9 -->
<g id="edge14" class="edge"><title>Node14&#45;&gt;Node9</title>
<path fill="none" stroke="midnightblue" d="M1142.74,-272.377C1114.51,-257.548 1054.4,-226.629 1002,-204 923.109,-169.929 903.979,-158.343 821,-136 727.869,-110.924 699.8,-126.275 607,-100 604.186,-99.2034 601.295,-98.262 598.429,-97.2451"/>
<polygon fill="midnightblue" stroke="midnightblue" points="599.515,-93.9131 588.925,-93.598 597.007,-100.448 599.515,-93.9131"/>
</g>
<!-- Node14&#45;&gt;Node12 -->
<g id="edge19" class="edge"><title>Node14&#45;&gt;Node12</title>
<path fill="none" stroke="midnightblue" d="M1101.4,-272.467C1018.56,-260.194 867.771,-237.855 795.195,-227.103"/>
<polygon fill="midnightblue" stroke="midnightblue" points="795.477,-223.607 785.072,-225.603 794.451,-230.531 795.477,-223.607"/>
</g>
<!-- Node15 -->
<g id="node15" class="node"><title>Node15</title>
<polygon fill="none" stroke="#bfbfbf" points="1345,-142.5 1345,-161.5 1383,-161.5 1383,-142.5 1345,-142.5"/>
<text text-anchor="middle" x="1364" y="-149.5" font-family="Helvetica,sans-Serif" font-size="10.00">array</text>
</g>
<!-- Node14&#45;&gt;Node15 -->
<g id="edge15" class="edge"><title>Node14&#45;&gt;Node15</title>
<path fill="none" stroke="midnightblue" d="M1218.69,-278.9C1255.37,-274.639 1301.09,-263.587 1332,-236 1350.6,-219.401 1358.47,-190.737 1361.74,-171.821"/>
<polygon fill="midnightblue" stroke="midnightblue" points="1365.23,-172.137 1363.21,-161.737 1358.3,-171.126 1365.23,-172.137"/>
</g>
<!-- Node16 -->
<g id="node16" class="node"><title>Node16</title>
<polygon fill="none" stroke="#bfbfbf" points="1282.5,-210.5 1282.5,-229.5 1323.5,-229.5 1323.5,-210.5 1282.5,-210.5"/>
<text text-anchor="middle" x="1303" y="-217.5" font-family="Helvetica,sans-Serif" font-size="10.00">bitset</text>
</g>
<!-- Node14&#45;&gt;Node16 -->
<g id="edge16" class="edge"><title>Node14&#45;&gt;Node16</title>
<path fill="none" stroke="midnightblue" d="M1182.39,-272.453C1205.61,-263.809 1242.11,-249.789 1273,-236 1274.4,-235.377 1275.82,-234.724 1277.25,-234.054"/>
<polygon fill="midnightblue" stroke="midnightblue" points="1279.15,-237.026 1286.62,-229.515 1276.09,-230.727 1279.15,-237.026"/>
</g>
<!-- Node17 -->
<g id="node17" class="node"><title>Node17</title>
<polygon fill="none" stroke="#bfbfbf" points="1380.5,-210.5 1380.5,-229.5 1429.5,-229.5 1429.5,-210.5 1380.5,-210.5"/>
<text text-anchor="middle" x="1405" y="-217.5" font-family="Helvetica,sans-Serif" font-size="10.00">cassert</text>
</g>
<!-- Node14&#45;&gt;Node17 -->
<g id="edge17" class="edge"><title>Node14&#45;&gt;Node17</title>
<path fill="none" stroke="midnightblue" d="M1208.47,-272.452C1250.75,-264.625 1312.97,-251.86 1366,-236 1368.96,-235.114 1372.02,-234.107 1375.06,-233.044"/>
<polygon fill="midnightblue" stroke="midnightblue" points="1376.39,-236.284 1384.56,-229.538 1373.97,-229.717 1376.39,-236.284"/>
</g>
<!-- Node18 -->
<g id="node18" class="node"><title>Node18</title>
<polygon fill="none" stroke="#bfbfbf" points="1087,-210.5 1087,-229.5 1133,-229.5 1133,-210.5 1087,-210.5"/>
<text text-anchor="middle" x="1110" y="-217.5" font-family="Helvetica,sans-Serif" font-size="10.00">cstdint</text>
</g>
<!-- Node14&#45;&gt;Node18 -->
<g id="edge18" class="edge"><title>Node14&#45;&gt;Node18</title>
<path fill="none" stroke="midnightblue" d="M1151.98,-272.403C1144.56,-263.314 1132.67,-248.756 1123.43,-237.449"/>
<polygon fill="midnightblue" stroke="midnightblue" points="1126.04,-235.112 1117.01,-229.581 1120.62,-239.54 1126.04,-235.112"/>
</g>
<!-- Node19 -->
<g id="node19" class="node"><title>Node19</title>
<g id="a_node19"><a xlink:href="../../d9/ded/Utils_8h.html" target="_top" xlink:title="DetectorsBase/Utils.h">
<polygon fill="none" stroke="black" points="1151.5,-210.5 1151.5,-229.5 1264.5,-229.5 1264.5,-210.5 1151.5,-210.5"/>
<text text-anchor="middle" x="1208" y="-217.5" font-family="Helvetica,sans-Serif" font-size="10.00">DetectorsBase/Utils.h</text>
</a>
</g>
</g>
<!-- Node14&#45;&gt;Node19 -->
<g id="edge20" class="edge"><title>Node14&#45;&gt;Node19</title>
<path fill="none" stroke="midnightblue" d="M1166.02,-272.403C1173.44,-263.314 1185.33,-248.756 1194.57,-237.449"/>
<polygon fill="midnightblue" stroke="midnightblue" points="1197.38,-239.54 1200.99,-229.581 1191.96,-235.112 1197.38,-239.54"/>
</g>
<!-- Node19&#45;&gt;Node15 -->
<g id="edge23" class="edge"><title>Node19&#45;&gt;Node15</title>
<path fill="none" stroke="midnightblue" d="M1231.22,-210.439C1256.9,-200.795 1299.36,-184.329 1335,-168 1336.35,-167.38 1337.73,-166.73 1339.12,-166.062"/>
<polygon fill="midnightblue" stroke="midnightblue" points="1340.8,-169.134 1348.18,-161.529 1337.67,-162.874 1340.8,-169.134"/>
</g>
<!-- Node20 -->
<g id="node20" class="node"><title>Node20</title>
<g id="a_node20"><a xlink:href="../../d1/daa/Base_2include_2DetectorsBase_2Constants_8h.html" target="_top" xlink:title="DetectorsBase/Constants.h">
<polygon fill="none" stroke="black" points="1127,-142.5 1127,-161.5 1265,-161.5 1265,-142.5 1127,-142.5"/>
<text text-anchor="middle" x="1196" y="-149.5" font-family="Helvetica,sans-Serif" font-size="10.00">DetectorsBase/Constants.h</text>
</a>
</g>
</g>
<!-- Node19&#45;&gt;Node20 -->
<g id="edge21" class="edge"><title>Node19&#45;&gt;Node20</title>
<path fill="none" stroke="midnightblue" d="M1206.43,-210.372C1204.66,-200.643 1201.73,-184.528 1199.43,-171.85"/>
<polygon fill="midnightblue" stroke="midnightblue" points="1202.84,-171.054 1197.61,-161.841 1195.95,-172.306 1202.84,-171.054"/>
</g>
<!-- Node21 -->
<g id="node21" class="node"><title>Node21</title>
<polygon fill="none" stroke="#bfbfbf" points="1283,-142.5 1283,-161.5 1327,-161.5 1327,-142.5 1283,-142.5"/>
<text text-anchor="middle" x="1305" y="-149.5" font-family="Helvetica,sans-Serif" font-size="10.00">cmath</text>
</g>
<!-- Node19&#45;&gt;Node21 -->
<g id="edge22" class="edge"><title>Node19&#45;&gt;Node21</title>
<path fill="none" stroke="midnightblue" d="M1220.68,-210.372C1236.73,-199.452 1264.6,-180.489 1283.88,-167.369"/>
<polygon fill="midnightblue" stroke="midnightblue" points="1286.02,-170.15 1292.32,-161.63 1282.08,-164.362 1286.02,-170.15"/>
</g>
<!-- Node22&#45;&gt;Node9 -->
<g id="edge40" class="edge"><title>Node22&#45;&gt;Node9</title>
<path fill="none" stroke="midnightblue" d="M832.92,-272.174C835.037,-246.693 837.306,-172.509 797,-136 733.3,-78.3014 689.451,-124.264 607,-100 604.195,-99.1745 601.309,-98.2136 598.446,-97.1846"/>
<polygon fill="midnightblue" stroke="midnightblue" points="599.537,-93.854 588.947,-93.5202 597.017,-100.385 599.537,-93.854"/>
</g>
<!-- Node23 -->
<g id="node23" class="node"><title>Node23</title>
<g id="a_node23"><a xlink:href="../../d4/d25/BaseHits_8h.html" target="_top" xlink:title="SimulationDataFormat\l/BaseHits.h">
<polygon fill="none" stroke="black" points="879,-205 879,-235 993,-235 993,-205 879,-205"/>
<text text-anchor="start" x="887" y="-223" font-family="Helvetica,sans-Serif" font-size="10.00">SimulationDataFormat</text>
<text text-anchor="middle" x="936" y="-212" font-family="Helvetica,sans-Serif" font-size="10.00">/BaseHits.h</text>
</a>
</g>
</g>
<!-- Node22&#45;&gt;Node23 -->
<g id="edge25" class="edge"><title>Node22&#45;&gt;Node23</title>
<path fill="none" stroke="midnightblue" d="M846.901,-272.403C861.381,-264.049 883.87,-251.075 902.63,-240.252"/>
<polygon fill="midnightblue" stroke="midnightblue" points="904.576,-243.17 911.489,-235.141 901.078,-237.106 904.576,-243.17"/>
</g>
<!-- Node34 -->
<g id="node34" class="node"><title>Node34</title>
<polygon fill="none" stroke="#bfbfbf" points="1736,-74.5 1736,-93.5 1790,-93.5 1790,-74.5 1736,-74.5"/>
<text text-anchor="middle" x="1763" y="-81.5" font-family="Helvetica,sans-Serif" font-size="10.00">iostream</text>
</g>
<!-- Node22&#45;&gt;Node34 -->
<g id="edge42" class="edge"><title>Node22&#45;&gt;Node34</title>
<path fill="none" stroke="midnightblue" d="M889.492,-272.478C923.6,-265.823 966.89,-254.508 1002,-236 1009.53,-232.032 1110.12,-139.198 1118,-136 1243.42,-85.1312 1593.98,-129.821 1726,-100 1729.25,-99.267 1732.57,-98.2815 1735.84,-97.164"/>
<polygon fill="midnightblue" stroke="midnightblue" points="1737.23,-100.381 1745.31,-93.5358 1734.72,-93.8446 1737.23,-100.381"/>
</g>
<!-- Node35 -->
<g id="node35" class="node"><title>Node35</title>
<g id="a_node35"><a xlink:href="../../d7/dcd/MCCompLabel_8h.html" target="_top" xlink:title="SimulationDataFormat\l/MCCompLabel.h">
<polygon fill="none" stroke="black" points="674,-137 674,-167 788,-167 788,-137 674,-137"/>
<text text-anchor="start" x="682" y="-155" font-family="Helvetica,sans-Serif" font-size="10.00">SimulationDataFormat</text>
<text text-anchor="middle" x="731" y="-144" font-family="Helvetica,sans-Serif" font-size="10.00">/MCCompLabel.h</text>
</a>
</g>
</g>
<!-- Node22&#45;&gt;Node35 -->
<g id="edge38" class="edge"><title>Node22&#45;&gt;Node35</title>
<path fill="none" stroke="midnightblue" d="M828.936,-272.241C823.393,-257.205 810.618,-225.983 793,-204 783.831,-192.56 771.73,-181.911 760.654,-173.334"/>
<polygon fill="midnightblue" stroke="midnightblue" points="762.554,-170.385 752.449,-167.201 758.363,-175.991 762.554,-170.385"/>
</g>
<!-- Node36 -->
<g id="node36" class="node"><title>Node36</title>
<polygon fill="none" stroke="#bfbfbf" points="639.5,-210.5 639.5,-229.5 704.5,-229.5 704.5,-210.5 639.5,-210.5"/>
<text text-anchor="middle" x="672" y="-217.5" font-family="Helvetica,sans-Serif" font-size="10.00">TVector3.h</text>
</g>
<!-- Node22&#45;&gt;Node36 -->
<g id="edge41" class="edge"><title>Node22&#45;&gt;Node36</title>
<path fill="none" stroke="midnightblue" d="M809.076,-272.403C781.63,-262.111 735.484,-244.806 704.401,-233.15"/>
<polygon fill="midnightblue" stroke="midnightblue" points="705.474,-229.815 694.882,-229.581 703.016,-236.369 705.474,-229.815"/>
</g>
<!-- Node24 -->
<g id="node24" class="node"><title>Node24</title>
<g id="a_node24"><a xlink:href="../../dd/d76/Cartesian3D_8h.html" target="_top" xlink:title="MathUtils/Cartesian3D.h">
<polygon fill="none" stroke="black" points="945.5,-142.5 945.5,-161.5 1070.5,-161.5 1070.5,-142.5 945.5,-142.5"/>
<text text-anchor="middle" x="1008" y="-149.5" font-family="Helvetica,sans-Serif" font-size="10.00">MathUtils/Cartesian3D.h</text>
</a>
</g>
</g>
<!-- Node23&#45;&gt;Node24 -->
<g id="edge26" class="edge"><title>Node23&#45;&gt;Node24</title>
<path fill="none" stroke="midnightblue" d="M951.623,-204.679C963.183,-194.082 978.922,-179.655 990.833,-168.736"/>
<polygon fill="midnightblue" stroke="midnightblue" points="993.363,-171.166 998.369,-161.828 988.633,-166.006 993.363,-171.166"/>
</g>
<!-- Node24&#45;&gt;Node9 -->
<g id="edge30" class="edge"><title>Node24&#45;&gt;Node9</title>
<path fill="none" stroke="midnightblue" d="M967.348,-142.436C955.649,-140.147 942.848,-137.809 931,-136 787.774,-114.13 747.457,-135.552 607,-100 604.006,-99.2421 600.933,-98.2935 597.899,-97.2436"/>
<polygon fill="midnightblue" stroke="midnightblue" points="599.078,-93.9476 588.488,-93.6541 596.584,-100.488 599.078,-93.9476"/>
</g>
<!-- Node25 -->
<g id="node25" class="node"><title>Node25</title>
<polygon fill="none" stroke="#bfbfbf" points="615.5,-74.5 615.5,-93.5 764.5,-93.5 764.5,-74.5 615.5,-74.5"/>
<text text-anchor="middle" x="690" y="-81.5" font-family="Helvetica,sans-Serif" font-size="10.00">Math/GenVector/Rotation3D.h</text>
</g>
<!-- Node24&#45;&gt;Node25 -->
<g id="edge27" class="edge"><title>Node24&#45;&gt;Node25</title>
<path fill="none" stroke="midnightblue" d="M966.753,-142.439C908.967,-130.446 803.971,-108.654 741.242,-95.6351"/>
<polygon fill="midnightblue" stroke="midnightblue" points="741.676,-92.1508 731.174,-93.5455 740.254,-99.0047 741.676,-92.1508"/>
</g>
<!-- Node26 -->
<g id="node26" class="node"><title>Node26</title>
<polygon fill="none" stroke="#bfbfbf" points="783,-74.5 783,-93.5 939,-93.5 939,-74.5 783,-74.5"/>
<text text-anchor="middle" x="861" y="-81.5" font-family="Helvetica,sans-Serif" font-size="10.00">Math/GenVector/Transform3D.h</text>
</g>
<!-- Node24&#45;&gt;Node26 -->
<g id="edge28" class="edge"><title>Node24&#45;&gt;Node26</title>
<path fill="none" stroke="midnightblue" d="M988.782,-142.372C963.471,-131.007 918.755,-110.931 889.5,-97.7961"/>
<polygon fill="midnightblue" stroke="midnightblue" points="890.779,-94.5335 880.222,-93.6305 887.912,-100.919 890.779,-94.5335"/>
</g>
<!-- Node27 -->
<g id="node27" class="node"><title>Node27</title>
<polygon fill="none" stroke="#bfbfbf" points="957,-74.5 957,-93.5 1117,-93.5 1117,-74.5 957,-74.5"/>
<text text-anchor="middle" x="1037" y="-81.5" font-family="Helvetica,sans-Serif" font-size="10.00">Math/GenVector/Translation3D.h</text>
</g>
<!-- Node24&#45;&gt;Node27 -->
<g id="edge29" class="edge"><title>Node24&#45;&gt;Node27</title>
<path fill="none" stroke="midnightblue" d="M1011.79,-142.372C1016.15,-132.446 1023.43,-115.874 1029.05,-103.086"/>
<polygon fill="midnightblue" stroke="midnightblue" points="1032.3,-104.404 1033.12,-93.8411 1025.89,-101.588 1032.3,-104.404"/>
</g>
<!-- Node28 -->
<g id="node28" class="node"><title>Node28</title>
<polygon fill="none" stroke="#bfbfbf" points="1135,-74.5 1135,-93.5 1211,-93.5 1211,-74.5 1135,-74.5"/>
<text text-anchor="middle" x="1173" y="-81.5" font-family="Helvetica,sans-Serif" font-size="10.00">TGeoMatrix.h</text>
</g>
<!-- Node24&#45;&gt;Node28 -->
<g id="edge31" class="edge"><title>Node24&#45;&gt;Node28</title>
<path fill="none" stroke="midnightblue" d="M1029.57,-142.372C1058.31,-130.877 1109.33,-110.469 1142.13,-97.3465"/>
<polygon fill="midnightblue" stroke="midnightblue" points="1143.7,-100.49 1151.69,-93.5259 1141.1,-93.9902 1143.7,-100.49"/>
</g>
<!-- Node29 -->
<g id="node29" class="node"><title>Node29</title>
<polygon fill="none" stroke="#bfbfbf" points="1229.5,-69 1229.5,-99 1380.5,-99 1380.5,-69 1229.5,-69"/>
<text text-anchor="start" x="1237.5" y="-87" font-family="Helvetica,sans-Serif" font-size="10.00">Math/GenVector/Displacement</text>
<text text-anchor="middle" x="1305" y="-76" font-family="Helvetica,sans-Serif" font-size="10.00">Vector3D.h</text>
</g>
<!-- Node24&#45;&gt;Node29 -->
<g id="edge32" class="edge"><title>Node24&#45;&gt;Node29</title>
<path fill="none" stroke="midnightblue" d="M1046.52,-142.439C1093.33,-132.037 1173.32,-114.263 1231.94,-101.236"/>
<polygon fill="midnightblue" stroke="midnightblue" points="1232.89,-104.611 1241.89,-99.0247 1231.37,-97.7775 1232.89,-104.611"/>
</g>
<!-- Node30 -->
<g id="node30" class="node"><title>Node30</title>
<polygon fill="none" stroke="#bfbfbf" points="1399,-74.5 1399,-93.5 1575,-93.5 1575,-74.5 1399,-74.5"/>
<text text-anchor="middle" x="1487" y="-81.5" font-family="Helvetica,sans-Serif" font-size="10.00">Math/GenVector/PositionVector3D.h</text>
</g>
<!-- Node24&#45;&gt;Node30 -->
<g id="edge33" class="edge"><title>Node24&#45;&gt;Node30</title>
<path fill="none" stroke="midnightblue" d="M1048.66,-142.491C1060.36,-140.203 1073.16,-137.852 1085,-136 1219.42,-114.978 1254.18,-118.295 1389,-100 1400.21,-98.4784 1412.13,-96.7491 1423.65,-95.0191"/>
<polygon fill="midnightblue" stroke="midnightblue" points="1424.28,-98.4635 1433.64,-93.5038 1423.23,-91.5426 1424.28,-98.4635"/>
</g>
<!-- Node31 -->
<g id="node31" class="node"><title>Node31</title>
<g id="a_node31"><a xlink:href="../../d2/dd0/Cartesian2D_8h.html" target="_top" xlink:title="MathUtils/Cartesian2D.h">
<polygon fill="none" stroke="black" points="1592.5,-74.5 1592.5,-93.5 1717.5,-93.5 1717.5,-74.5 1592.5,-74.5"/>
<text text-anchor="middle" x="1655" y="-81.5" font-family="Helvetica,sans-Serif" font-size="10.00">MathUtils/Cartesian2D.h</text>
</a>
</g>
</g>
<!-- Node24&#45;&gt;Node31 -->
<g id="edge34" class="edge"><title>Node24&#45;&gt;Node31</title>
<path fill="none" stroke="midnightblue" d="M1047.02,-142.454C1059.14,-140.055 1072.58,-137.653 1085,-136 1304.97,-106.731 1363.22,-130.698 1583,-100 1591.45,-98.8193 1600.4,-97.2326 1609.01,-95.5323"/>
<polygon fill="midnightblue" stroke="midnightblue" points="1609.81,-98.94 1618.91,-93.5016 1608.41,-92.0828 1609.81,-98.94"/>
</g>
<!-- Node24&#45;&gt;Node34 -->
<g id="edge37" class="edge"><title>Node24&#45;&gt;Node34</title>
<path fill="none" stroke="midnightblue" d="M1046.22,-142.488C1058.54,-140.03 1072.3,-137.587 1085,-136 1368.14,-100.638 1447.58,-162.445 1726,-100 1729.25,-99.2719 1732.58,-98.2895 1735.84,-97.1737"/>
<polygon fill="midnightblue" stroke="midnightblue" points="1737.23,-100.392 1745.32,-93.5474 1734.73,-93.8543 1737.23,-100.392"/>
</g>
<!-- Node32 -->
<g id="node32" class="node"><title>Node32</title>
<polygon fill="none" stroke="#bfbfbf" points="1488.5,-1 1488.5,-31 1639.5,-31 1639.5,-1 1488.5,-1"/>
<text text-anchor="start" x="1496.5" y="-19" font-family="Helvetica,sans-Serif" font-size="10.00">Math/GenVector/Displacement</text>
<text text-anchor="middle" x="1564" y="-8" font-family="Helvetica,sans-Serif" font-size="10.00">Vector2D.h</text>
</g>
<!-- Node31&#45;&gt;Node32 -->
<g id="edge35" class="edge"><title>Node31&#45;&gt;Node32</title>
<path fill="none" stroke="midnightblue" d="M1643.1,-74.3717C1630.22,-65.0286 1609.22,-49.7966 1592.09,-37.375"/>
<polygon fill="midnightblue" stroke="midnightblue" points="1593.7,-34.2194 1583.55,-31.1815 1589.59,-39.8859 1593.7,-34.2194"/>
</g>
<!-- Node33 -->
<g id="node33" class="node"><title>Node33</title>
<polygon fill="none" stroke="#bfbfbf" points="1658,-6.5 1658,-25.5 1834,-25.5 1834,-6.5 1658,-6.5"/>
<text text-anchor="middle" x="1746" y="-13.5" font-family="Helvetica,sans-Serif" font-size="10.00">Math/GenVector/PositionVector2D.h</text>
</g>
<!-- Node31&#45;&gt;Node33 -->
<g id="edge36" class="edge"><title>Node31&#45;&gt;Node33</title>
<path fill="none" stroke="midnightblue" d="M1666.9,-74.3717C1681.88,-63.5015 1707.86,-44.6602 1725.94,-31.5474"/>
<polygon fill="midnightblue" stroke="midnightblue" points="1728.06,-34.3349 1734.1,-25.6305 1723.95,-28.6684 1728.06,-34.3349"/>
</g>
<!-- Node35&#45;&gt;Node9 -->
<g id="edge39" class="edge"><title>Node35&#45;&gt;Node9</title>
<path fill="none" stroke="midnightblue" d="M696.461,-136.841C667.989,-125.169 627.98,-108.768 600.635,-97.5585"/>
<polygon fill="midnightblue" stroke="midnightblue" points="601.759,-94.2365 591.179,-93.6819 599.104,-100.713 601.759,-94.2365"/>
</g>
</g>
</svg>
