<?xml version="1.0" encoding="UTF-8" standalone="no"?>
<!DOCTYPE svg PUBLIC "-//W3C//DTD SVG 1.1//EN"
 "http://www.w3.org/Graphics/SVG/1.1/DTD/svg11.dtd">
<!-- Generated by graphviz version 2.36.0 (20140111.2315)
 -->
<!-- Title: ImGuiSizeConstraintCallbackData Pages: 1 -->
<svg width="174pt" height="322pt"
 viewBox="0.00 0.00 174.00 322.00" xmlns="http://www.w3.org/2000/svg" xmlns:xlink="http://www.w3.org/1999/xlink">
<g id="graph0" class="graph" transform="scale(1 1) rotate(0) translate(4 318)">
<title>ImGuiSizeConstraintCallbackData</title>
<!-- Node1 -->
<g id="node1" class="node"><title>Node1</title>
<polygon fill="#bfbfbf" stroke="black" points="-0.5,-0.5 -0.5,-57.5 166.5,-57.5 166.5,-0.5 -0.5,-0.5"/>
<text text-anchor="middle" x="83" y="-45.5" font-family="Helvetica,sans-Serif" font-size="10.00">ImGuiSizeConstraintCallbackData</text>
<polyline fill="none" stroke="black" points="-0.5,-38.5 166.5,-38.5 "/>
<text text-anchor="middle" x="83" y="-26.5" font-family="Helvetica,sans-Serif" font-size="10.00"> </text>
<polyline fill="none" stroke="black" points="-0.5,-19.5 166.5,-19.5 "/>
<text text-anchor="middle" x="83" y="-7.5" font-family="Helvetica,sans-Serif" font-size="10.00"> </text>
</g>
<!-- Node2 -->
<g id="node2" class="node"><title>Node2</title>
<g id="a_node2"><a xlink:href="../../d3/dc2/structImVec2.html" target="_top" xlink:title="{ImVec2\n||+ ImVec2()\l+ ImVec2()\l}">
<polygon fill="none" stroke="black" points="7.5,-129 7.5,-197 72.5,-197 72.5,-129 7.5,-129"/>
<text text-anchor="middle" x="40" y="-185" font-family="Helvetica,sans-Serif" font-size="10.00">ImVec2</text>
<polyline fill="none" stroke="black" points="7.5,-178 72.5,-178 "/>
<text text-anchor="middle" x="40" y="-166" font-family="Helvetica,sans-Serif" font-size="10.00"> </text>
<polyline fill="none" stroke="black" points="7.5,-159 72.5,-159 "/>
<text text-anchor="start" x="15.5" y="-147" font-family="Helvetica,sans-Serif" font-size="10.00">+ ImVec2()</text>
<text text-anchor="start" x="15.5" y="-136" font-family="Helvetica,sans-Serif" font-size="10.00">+ ImVec2()</text>
</a>
</g>
</g>
<!-- Node2&#45;&gt;Node1 -->
<g id="edge1" class="edge"><title>Node2&#45;&gt;Node1</title>
<path fill="none" stroke="#404040" d="M34.9496,-128.673C33.804,-112.274 34.4786,-92.5286 41,-76 42.1287,-73.1393 43.5249,-70.3466 45.1152,-67.642"/>
<polygon fill="none" stroke="#404040" points="45.1915,-67.5325 45.3431,-60.323 52.0563,-57.6899 51.9048,-64.8995 45.1915,-67.5325"/>
<text text-anchor="middle" x="72.5" y="-101.5" font-family="Helvetica,sans-Serif" font-size="10.00"> +DesiredSize</text>
<text text-anchor="middle" x="72.5" y="-90.5" font-family="Helvetica,sans-Serif" font-size="10.00">+CurrentSize</text>
<text text-anchor="middle" x="72.5" y="-79.5" font-family="Helvetica,sans-Serif" font-size="10.00">+Pos</text>
</g>
<!-- Node3 -->
<g id="node3" class="node"><title>Node3</title>
<g id="a_node3"><a xlink:href="../../d4/dc3/classfloat.html" target="_top" xlink:title="{float\n||}">
<polygon fill="none" stroke="black" points="22.5,-256.5 22.5,-313.5 57.5,-313.5 57.5,-256.5 22.5,-256.5"/>
<text text-anchor="middle" x="40" y="-301.5" font-family="Helvetica,sans-Serif" font-size="10.00">float</text>
<polyline fill="none" stroke="black" points="22.5,-294.5 57.5,-294.5 "/>
<text text-anchor="middle" x="40" y="-282.5" font-family="Helvetica,sans-Serif" font-size="10.00"> </text>
<polyline fill="none" stroke="black" points="22.5,-275.5 57.5,-275.5 "/>
<text text-anchor="middle" x="40" y="-263.5" font-family="Helvetica,sans-Serif" font-size="10.00"> </text>
</a>
</g>
</g>
<!-- Node3&#45;&gt;Node2 -->
<g id="edge2" class="edge"><title>Node3&#45;&gt;Node2</title>
<path fill="none" stroke="#404040" d="M40,-256.47C40,-242.601 40,-225.421 40,-209.647"/>
<polygon fill="none" stroke="#404040" points="40.0001,-209.388 36,-203.388 40,-197.388 44,-203.388 40.0001,-209.388"/>
<text text-anchor="middle" x="47.5" y="-230" font-family="Helvetica,sans-Serif" font-size="10.00"> +x</text>
<text text-anchor="middle" x="47.5" y="-219" font-family="Helvetica,sans-Serif" font-size="10.00">+y</text>
</g>
<!-- Node4 -->
<g id="node4" class="node"><title>Node4</title>
<polygon fill="none" stroke="#bfbfbf" points="105.5,-134.5 105.5,-191.5 146.5,-191.5 146.5,-134.5 105.5,-134.5"/>
<text text-anchor="middle" x="126" y="-179.5" font-family="Helvetica,sans-Serif" font-size="10.00">void *</text>
<polyline fill="none" stroke="#bfbfbf" points="105.5,-172.5 146.5,-172.5 "/>
<text text-anchor="middle" x="126" y="-160.5" font-family="Helvetica,sans-Serif" font-size="10.00"> </text>
<polyline fill="none" stroke="#bfbfbf" points="105.5,-153.5 146.5,-153.5 "/>
<text text-anchor="middle" x="126" y="-141.5" font-family="Helvetica,sans-Serif" font-size="10.00"> </text>
</g>
<!-- Node4&#45;&gt;Node1 -->
<g id="edge3" class="edge"><title>Node4&#45;&gt;Node1</title>
<path fill="none" stroke="#404040" d="M120.193,-134.128C116.324,-117.111 110.72,-95.0375 104,-76 103.211,-73.7649 102.355,-71.4895 101.454,-69.2073"/>
<polygon fill="none" stroke="#404040" points="101.347,-68.9528 95.3322,-64.9754 96.6901,-57.8933 102.705,-61.8707 101.347,-68.9528"/>
<text text-anchor="middle" x="139" y="-90.5" font-family="Helvetica,sans-Serif" font-size="10.00"> +UserData</text>
</g>
</g>
</svg>
