<?xml version="1.0" encoding="UTF-8" standalone="no"?>
<!DOCTYPE svg PUBLIC "-//W3C//DTD SVG 1.1//EN"
 "http://www.w3.org/Graphics/SVG/1.1/DTD/svg11.dtd">
<!-- Generated by graphviz version 2.36.0 (20140111.2315)
 -->
<!-- Title: /home/travis/build/AliceO2Group/AliceO2/Detectors/TRD/base/include/TRDBase/TRDSimParam.h Pages: 1 -->
<svg width="433pt" height="242pt"
 viewBox="0.00 0.00 433.00 242.00" xmlns="http://www.w3.org/2000/svg" xmlns:xlink="http://www.w3.org/1999/xlink">
<g id="graph0" class="graph" transform="scale(1 1) rotate(0) translate(4 238)">
<title>/home/travis/build/AliceO2Group/AliceO2/Detectors/TRD/base/include/TRDBase/TRDSimParam.h</title>
<!-- Node1 -->
<g id="node1" class="node"><title>Node1</title>
<polygon fill="#bfbfbf" stroke="black" points="215,-181 215,-233 359,-233 359,-181 215,-181"/>
<text text-anchor="start" x="223" y="-221" font-family="Helvetica,sans-Serif" font-size="10.00">/home/travis/build</text>
<text text-anchor="start" x="223" y="-210" font-family="Helvetica,sans-Serif" font-size="10.00">/AliceO2Group/AliceO2</text>
<text text-anchor="start" x="223" y="-199" font-family="Helvetica,sans-Serif" font-size="10.00">/Detectors/TRD/base/include</text>
<text text-anchor="middle" x="287" y="-188" font-family="Helvetica,sans-Serif" font-size="10.00">/TRDBase/TRDSimParam.h</text>
</g>
<!-- Node2 -->
<g id="node2" class="node"><title>Node2</title>
<g id="a_node2"><a xlink:href="../../da/d32/TRDCommonParam_8h.html" target="_top" xlink:title="/home/travis/build\l/AliceO2Group/AliceO2\l/Detectors/TRD/base/include\l/TRDBase/TRDCommonParam.h">
<polygon fill="none" stroke="black" points="141,-91 141,-143 305,-143 305,-91 141,-91"/>
<text text-anchor="start" x="149" y="-131" font-family="Helvetica,sans-Serif" font-size="10.00">/home/travis/build</text>
<text text-anchor="start" x="149" y="-120" font-family="Helvetica,sans-Serif" font-size="10.00">/AliceO2Group/AliceO2</text>
<text text-anchor="start" x="149" y="-109" font-family="Helvetica,sans-Serif" font-size="10.00">/Detectors/TRD/base/include</text>
<text text-anchor="middle" x="223" y="-98" font-family="Helvetica,sans-Serif" font-size="10.00">/TRDBase/TRDCommonParam.h</text>
</a>
</g>
</g>
<!-- Node1&#45;&gt;Node2 -->
<g id="edge1" class="edge"><title>Node1&#45;&gt;Node2</title>
<path fill="none" stroke="midnightblue" d="M262.461,-172.259C255.41,-162.564 247.848,-152.166 241.249,-143.092"/>
<polygon fill="midnightblue" stroke="midnightblue" points="259.776,-174.518 268.489,-180.547 265.437,-170.401 259.776,-174.518"/>
</g>
<!-- Node4 -->
<g id="node4" class="node"><title>Node4</title>
<g id="a_node4"><a xlink:href="../../d9/dbe/TRDSimParam_8cxx.html" target="_top" xlink:title="/home/travis/build\l/AliceO2Group/AliceO2\l/Detectors/TRD/base/src\l/TRDSimParam.cxx">
<polygon fill="none" stroke="black" points="298.5,-1 298.5,-53 425.5,-53 425.5,-1 298.5,-1"/>
<text text-anchor="start" x="306.5" y="-41" font-family="Helvetica,sans-Serif" font-size="10.00">/home/travis/build</text>
<text text-anchor="start" x="306.5" y="-30" font-family="Helvetica,sans-Serif" font-size="10.00">/AliceO2Group/AliceO2</text>
<text text-anchor="start" x="306.5" y="-19" font-family="Helvetica,sans-Serif" font-size="10.00">/Detectors/TRD/base/src</text>
<text text-anchor="middle" x="362" y="-8" font-family="Helvetica,sans-Serif" font-size="10.00">/TRDSimParam.cxx</text>
</a>
</g>
</g>
<!-- Node1&#45;&gt;Node4 -->
<g id="edge5" class="edge"><title>Node1&#45;&gt;Node4</title>
<path fill="none" stroke="midnightblue" d="M302.214,-171.371C306.09,-162.465 310.226,-152.888 314,-144 327.203,-112.905 342.014,-76.9392 351.646,-53.4002"/>
<polygon fill="midnightblue" stroke="midnightblue" points="298.932,-170.141 298.14,-180.706 305.348,-172.941 298.932,-170.141"/>
</g>
<!-- Node3 -->
<g id="node3" class="node"><title>Node3</title>
<g id="a_node3"><a xlink:href="../../d8/dd6/TRDCommonParam_8cxx.html" target="_top" xlink:title="/home/travis/build\l/AliceO2Group/AliceO2\l/Detectors/TRD/base/src\l/TRDCommonParam.cxx">
<polygon fill="none" stroke="black" points="0,-1 0,-53 128,-53 128,-1 0,-1"/>
<text text-anchor="start" x="8" y="-41" font-family="Helvetica,sans-Serif" font-size="10.00">/home/travis/build</text>
<text text-anchor="start" x="8" y="-30" font-family="Helvetica,sans-Serif" font-size="10.00">/AliceO2Group/AliceO2</text>
<text text-anchor="start" x="8" y="-19" font-family="Helvetica,sans-Serif" font-size="10.00">/Detectors/TRD/base/src</text>
<text text-anchor="middle" x="64" y="-8" font-family="Helvetica,sans-Serif" font-size="10.00">/TRDCommonParam.cxx</text>
</a>
</g>
</g>
<!-- Node2&#45;&gt;Node3 -->
<g id="edge2" class="edge"><title>Node2&#45;&gt;Node3</title>
<path fill="none" stroke="midnightblue" d="M168.462,-85.8154C149.183,-75.1451 127.724,-63.2684 109.295,-53.0687"/>
<polygon fill="midnightblue" stroke="midnightblue" points="166.993,-89.0026 177.437,-90.7827 170.382,-82.878 166.993,-89.0026"/>
</g>
<!-- Node2&#45;&gt;Node4 -->
<g id="edge3" class="edge"><title>Node2&#45;&gt;Node4</title>
<path fill="none" stroke="midnightblue" d="M271.328,-85.4039C287.929,-74.8936 306.313,-63.2553 322.162,-53.221"/>
<polygon fill="midnightblue" stroke="midnightblue" points="269.409,-82.4764 262.832,-90.7827 273.153,-88.3908 269.409,-82.4764"/>
</g>
<!-- Node5 -->
<g id="node5" class="node"><title>Node5</title>
<g id="a_node5"><a xlink:href="../../da/d16/TRD_2simulation_2src_2Detector_8cxx.html" target="_top" xlink:title="/home/travis/build\l/AliceO2Group/AliceO2\l/Detectors/TRD/simulation\l/src/Detector.cxx">
<polygon fill="none" stroke="black" points="146,-1 146,-53 280,-53 280,-1 146,-1"/>
<text text-anchor="start" x="154" y="-41" font-family="Helvetica,sans-Serif" font-size="10.00">/home/travis/build</text>
<text text-anchor="start" x="154" y="-30" font-family="Helvetica,sans-Serif" font-size="10.00">/AliceO2Group/AliceO2</text>
<text text-anchor="start" x="154" y="-19" font-family="Helvetica,sans-Serif" font-size="10.00">/Detectors/TRD/simulation</text>
<text text-anchor="middle" x="213" y="-8" font-family="Helvetica,sans-Serif" font-size="10.00">/src/Detector.cxx</text>
</a>
</g>
</g>
<!-- Node2&#45;&gt;Node5 -->
<g id="edge4" class="edge"><title>Node2&#45;&gt;Node5</title>
<path fill="none" stroke="midnightblue" d="M218.965,-80.4892C217.921,-71.3088 216.82,-61.616 215.851,-53.0921"/>
<polygon fill="midnightblue" stroke="midnightblue" points="215.501,-81.0059 220.108,-90.5468 222.456,-80.2155 215.501,-81.0059"/>
</g>
</g>
</svg>
