<?xml version="1.0" encoding="UTF-8" standalone="no"?>
<!DOCTYPE svg PUBLIC "-//W3C//DTD SVG 1.1//EN"
 "http://www.w3.org/Graphics/SVG/1.1/DTD/svg11.dtd">
<!-- Generated by graphviz version 2.36.0 (20140111.2315)
 -->
<!-- Title: /home/travis/build/AliceO2Group/AliceO2/Detectors/TPC/base/src/Digit.cxx Pages: 1 -->
<svg width="134pt" height="174pt"
 viewBox="0.00 0.00 134.00 174.00" xmlns="http://www.w3.org/2000/svg" xmlns:xlink="http://www.w3.org/1999/xlink">
<g id="graph0" class="graph" transform="scale(1 1) rotate(0) translate(4 170)">
<title>/home/travis/build/AliceO2Group/AliceO2/Detectors/TPC/base/src/Digit.cxx</title>
<!-- Node1 -->
<g id="node1" class="node"><title>Node1</title>
<polygon fill="#bfbfbf" stroke="black" points="0,-113 0,-165 126,-165 126,-113 0,-113"/>
<text text-anchor="start" x="8" y="-153" font-family="Helvetica,sans-Serif" font-size="10.00">/home/travis/build</text>
<text text-anchor="start" x="8" y="-142" font-family="Helvetica,sans-Serif" font-size="10.00">/AliceO2Group/AliceO2</text>
<text text-anchor="start" x="8" y="-131" font-family="Helvetica,sans-Serif" font-size="10.00">/Detectors/TPC/base/src</text>
<text text-anchor="middle" x="63" y="-120" font-family="Helvetica,sans-Serif" font-size="10.00">/Digit.cxx</text>
</g>
<!-- Node2 -->
<g id="node2" class="node"><title>Node2</title>
<g id="a_node2"><a xlink:href="../../df/db1/TPC_2base_2include_2TPCBase_2Digit_8h.html" target="_top" xlink:title="TPCBase/Digit.h">
<polygon fill="none" stroke="black" points="17.5,-56.5 17.5,-75.5 108.5,-75.5 108.5,-56.5 17.5,-56.5"/>
<text text-anchor="middle" x="63" y="-63.5" font-family="Helvetica,sans-Serif" font-size="10.00">TPCBase/Digit.h</text>
</a>
</g>
</g>
<!-- Node1&#45;&gt;Node2 -->
<g id="edge1" class="edge"><title>Node1&#45;&gt;Node2</title>
<path fill="none" stroke="midnightblue" d="M63,-112.768C63,-103.89 63,-94.0737 63,-85.8165"/>
<polygon fill="midnightblue" stroke="midnightblue" points="66.5001,-85.7571 63,-75.7572 59.5001,-85.7572 66.5001,-85.7571"/>
</g>
<!-- Node3 -->
<g id="node3" class="node"><title>Node3</title>
<polygon fill="none" stroke="#bfbfbf" points="33.5,-0.5 33.5,-19.5 92.5,-19.5 92.5,-0.5 33.5,-0.5"/>
<text text-anchor="middle" x="63" y="-7.5" font-family="Helvetica,sans-Serif" font-size="10.00">TObject.h</text>
</g>
<!-- Node2&#45;&gt;Node3 -->
<g id="edge2" class="edge"><title>Node2&#45;&gt;Node3</title>
<path fill="none" stroke="midnightblue" d="M63,-56.083C63,-49.0059 63,-38.8611 63,-29.9865"/>
<polygon fill="midnightblue" stroke="midnightblue" points="66.5001,-29.751 63,-19.7511 59.5001,-29.7511 66.5001,-29.751"/>
</g>
</g>
</svg>
