<?xml version="1.0" encoding="UTF-8" standalone="no"?>
<!DOCTYPE svg PUBLIC "-//W3C//DTD SVG 1.1//EN"
 "http://www.w3.org/Graphics/SVG/1.1/DTD/svg11.dtd">
<!-- Generated by graphviz version 2.36.0 (20140111.2315)
 -->
<!-- Title: /home/travis/build/AliceO2Group/AliceO2/Utilities/QC/QCProducer/include/QCProducer/ProducerDevice.h Pages: 1 -->
<svg width="627pt" height="152pt"
 viewBox="0.00 0.00 627.00 152.00" xmlns="http://www.w3.org/2000/svg" xmlns:xlink="http://www.w3.org/1999/xlink">
<g id="graph0" class="graph" transform="scale(1 1) rotate(0) translate(4 148)">
<title>/home/travis/build/AliceO2Group/AliceO2/Utilities/QC/QCProducer/include/QCProducer/ProducerDevice.h</title>
<!-- Node1 -->
<g id="node1" class="node"><title>Node1</title>
<polygon fill="#bfbfbf" stroke="black" points="199,-91 199,-143 387,-143 387,-91 199,-91"/>
<text text-anchor="start" x="207" y="-131" font-family="Helvetica,sans-Serif" font-size="10.00">/home/travis/build</text>
<text text-anchor="start" x="207" y="-120" font-family="Helvetica,sans-Serif" font-size="10.00">/AliceO2Group/AliceO2</text>
<text text-anchor="start" x="207" y="-109" font-family="Helvetica,sans-Serif" font-size="10.00">/Utilities/QC/QCProducer</text>
<text text-anchor="middle" x="293" y="-98" font-family="Helvetica,sans-Serif" font-size="10.00">/include/QCProducer/ProducerDevice.h</text>
</g>
<!-- Node2 -->
<g id="node2" class="node"><title>Node2</title>
<g id="a_node2"><a xlink:href="../../d5/dc5/ProducerDevice_8cxx.html" target="_top" xlink:title="/home/travis/build\l/AliceO2Group/AliceO2\l/Utilities/QC/QCProducer\l/src/ProducerDevice.cxx">
<polygon fill="none" stroke="black" points="0,-1 0,-53 128,-53 128,-1 0,-1"/>
<text text-anchor="start" x="8" y="-41" font-family="Helvetica,sans-Serif" font-size="10.00">/home/travis/build</text>
<text text-anchor="start" x="8" y="-30" font-family="Helvetica,sans-Serif" font-size="10.00">/AliceO2Group/AliceO2</text>
<text text-anchor="start" x="8" y="-19" font-family="Helvetica,sans-Serif" font-size="10.00">/Utilities/QC/QCProducer</text>
<text text-anchor="middle" x="64" y="-8" font-family="Helvetica,sans-Serif" font-size="10.00">/src/ProducerDevice.cxx</text>
</a>
</g>
</g>
<!-- Node1&#45;&gt;Node2 -->
<g id="edge1" class="edge"><title>Node1&#45;&gt;Node2</title>
<path fill="none" stroke="midnightblue" d="M218.005,-87.1809C188.99,-76.0309 156.117,-63.3986 128.215,-52.6766"/>
<polygon fill="midnightblue" stroke="midnightblue" points="217.094,-90.5805 227.684,-90.9005 219.605,-84.0463 217.094,-90.5805"/>
</g>
<!-- Node3 -->
<g id="node3" class="node"><title>Node3</title>
<g id="a_node3"><a xlink:href="../../d0/d05/runProducer_8cxx.html" target="_top" xlink:title="/home/travis/build\l/AliceO2Group/AliceO2\l/Utilities/QC/QCProducer\l/src/runProducer.cxx">
<polygon fill="none" stroke="black" points="146,-1 146,-53 274,-53 274,-1 146,-1"/>
<text text-anchor="start" x="154" y="-41" font-family="Helvetica,sans-Serif" font-size="10.00">/home/travis/build</text>
<text text-anchor="start" x="154" y="-30" font-family="Helvetica,sans-Serif" font-size="10.00">/AliceO2Group/AliceO2</text>
<text text-anchor="start" x="154" y="-19" font-family="Helvetica,sans-Serif" font-size="10.00">/Utilities/QC/QCProducer</text>
<text text-anchor="middle" x="210" y="-8" font-family="Helvetica,sans-Serif" font-size="10.00">/src/runProducer.cxx</text>
</a>
</g>
</g>
<!-- Node1&#45;&gt;Node3 -->
<g id="edge2" class="edge"><title>Node1&#45;&gt;Node3</title>
<path fill="none" stroke="midnightblue" d="M262.006,-83.1386C252.628,-73.1958 242.484,-62.4408 233.666,-53.0921"/>
<polygon fill="midnightblue" stroke="midnightblue" points="259.585,-85.6735 268.993,-90.5468 264.678,-80.8705 259.585,-85.6735"/>
</g>
<!-- Node4 -->
<g id="node4" class="node"><title>Node4</title>
<g id="a_node4"><a xlink:href="../../da/d94/ProducerDeviceTestSuite_8cxx.html" target="_top" xlink:title="/home/travis/build\l/AliceO2Group/AliceO2\l/Utilities/QC/QCProducer\l/test/ProducerDeviceTestSuite.cxx">
<polygon fill="none" stroke="black" points="292,-1 292,-53 462,-53 462,-1 292,-1"/>
<text text-anchor="start" x="300" y="-41" font-family="Helvetica,sans-Serif" font-size="10.00">/home/travis/build</text>
<text text-anchor="start" x="300" y="-30" font-family="Helvetica,sans-Serif" font-size="10.00">/AliceO2Group/AliceO2</text>
<text text-anchor="start" x="300" y="-19" font-family="Helvetica,sans-Serif" font-size="10.00">/Utilities/QC/QCProducer</text>
<text text-anchor="middle" x="377" y="-8" font-family="Helvetica,sans-Serif" font-size="10.00">/test/ProducerDeviceTestSuite.cxx</text>
</a>
</g>
</g>
<!-- Node1&#45;&gt;Node4 -->
<g id="edge3" class="edge"><title>Node1&#45;&gt;Node4</title>
<path fill="none" stroke="midnightblue" d="M324.368,-83.1386C333.859,-73.1958 344.125,-62.4408 353.048,-53.0921"/>
<polygon fill="midnightblue" stroke="midnightblue" points="321.669,-80.8965 317.296,-90.5468 326.733,-85.7298 321.669,-80.8965"/>
</g>
<!-- Node5 -->
<g id="node5" class="node"><title>Node5</title>
<g id="a_node5"><a xlink:href="../../d1/d06/ProducerTestSuite_8cxx.html" target="_top" xlink:title="/home/travis/build\l/AliceO2Group/AliceO2\l/Utilities/QC/QCProducer\l/test/ProducerTestSuite.cxx">
<polygon fill="none" stroke="black" points="480.5,-1 480.5,-53 619.5,-53 619.5,-1 480.5,-1"/>
<text text-anchor="start" x="488.5" y="-41" font-family="Helvetica,sans-Serif" font-size="10.00">/home/travis/build</text>
<text text-anchor="start" x="488.5" y="-30" font-family="Helvetica,sans-Serif" font-size="10.00">/AliceO2Group/AliceO2</text>
<text text-anchor="start" x="488.5" y="-19" font-family="Helvetica,sans-Serif" font-size="10.00">/Utilities/QC/QCProducer</text>
<text text-anchor="middle" x="550" y="-8" font-family="Helvetica,sans-Serif" font-size="10.00">/test/ProducerTestSuite.cxx</text>
</a>
</g>
</g>
<!-- Node1&#45;&gt;Node5 -->
<g id="edge4" class="edge"><title>Node1&#45;&gt;Node5</title>
<path fill="none" stroke="midnightblue" d="M376.099,-87.5458C409.687,-76.045 448.023,-62.9181 480.139,-51.9213"/>
<polygon fill="midnightblue" stroke="midnightblue" points="374.629,-84.3497 366.302,-90.9005 376.897,-90.9722 374.629,-84.3497"/>
</g>
</g>
</svg>
