<?xml version="1.0" encoding="UTF-8" standalone="no"?>
<!DOCTYPE svg PUBLIC "-//W3C//DTD SVG 1.1//EN"
 "http://www.w3.org/Graphics/SVG/1.1/DTD/svg11.dtd">
<!-- Generated by graphviz version 2.36.0 (20140111.2315)
 -->
<!-- Title: o2::ITSMFT::PixelReader Pages: 1 -->
<svg width="323pt" height="250pt"
 viewBox="0.00 0.00 323.00 250.00" xmlns="http://www.w3.org/2000/svg" xmlns:xlink="http://www.w3.org/1999/xlink">
<g id="graph0" class="graph" transform="scale(1 1) rotate(0) translate(4 246)">
<title>o2::ITSMFT::PixelReader</title>
<!-- Node1 -->
<g id="node1" class="node"><title>Node1</title>
<polygon fill="#bfbfbf" stroke="black" points="93,-129 93,-241 221,-241 221,-129 93,-129"/>
<text text-anchor="middle" x="157" y="-229" font-family="Helvetica,sans-Serif" font-size="10.00">o2::ITSMFT::PixelReader</text>
<polyline fill="none" stroke="black" points="93,-222 221,-222 "/>
<text text-anchor="middle" x="157" y="-210" font-family="Helvetica,sans-Serif" font-size="10.00"> </text>
<polyline fill="none" stroke="black" points="93,-203 221,-203 "/>
<text text-anchor="start" x="101" y="-191" font-family="Helvetica,sans-Serif" font-size="10.00">+ PixelReader()</text>
<text text-anchor="start" x="101" y="-180" font-family="Helvetica,sans-Serif" font-size="10.00">+ PixelReader()</text>
<text text-anchor="start" x="101" y="-169" font-family="Helvetica,sans-Serif" font-size="10.00">+ ~PixelReader()</text>
<text text-anchor="start" x="101" y="-158" font-family="Helvetica,sans-Serif" font-size="10.00">+ operator=()</text>
<text text-anchor="start" x="101" y="-147" font-family="Helvetica,sans-Serif" font-size="10.00">+ init()</text>
<text text-anchor="start" x="101" y="-136" font-family="Helvetica,sans-Serif" font-size="10.00">+ getNextChipData()</text>
</g>
<!-- Node2 -->
<g id="node2" class="node"><title>Node2</title>
<g id="a_node2"><a xlink:href="../../d2/dfc/classo2_1_1ITSMFT_1_1DigitPixelReader.html" target="_top" xlink:title="DigitPixelReader class for the ITS. Feeds the MC digits to the Cluster Finder. ">
<polygon fill="none" stroke="black" points="-0.5,-1 -0.5,-91 148.5,-91 148.5,-1 -0.5,-1"/>
<text text-anchor="middle" x="74" y="-79" font-family="Helvetica,sans-Serif" font-size="10.00">o2::ITSMFT::DigitPixelReader</text>
<polyline fill="none" stroke="black" points="-0.5,-72 148.5,-72 "/>
<text text-anchor="middle" x="74" y="-60" font-family="Helvetica,sans-Serif" font-size="10.00"> </text>
<polyline fill="none" stroke="black" points="-0.5,-53 148.5,-53 "/>
<text text-anchor="start" x="7.5" y="-41" font-family="Helvetica,sans-Serif" font-size="10.00">+ DigitPixelReader()</text>
<text text-anchor="start" x="7.5" y="-30" font-family="Helvetica,sans-Serif" font-size="10.00">+ setDigitArray()</text>
<text text-anchor="start" x="7.5" y="-19" font-family="Helvetica,sans-Serif" font-size="10.00">+ init()</text>
<text text-anchor="start" x="7.5" y="-8" font-family="Helvetica,sans-Serif" font-size="10.00">+ getNextChipData()</text>
</a>
</g>
</g>
<!-- Node1&#45;&gt;Node2 -->
<g id="edge1" class="edge"><title>Node1&#45;&gt;Node2</title>
<path fill="none" stroke="midnightblue" d="M118.298,-120.119C112.365,-110.326 106.356,-100.407 100.758,-91.1667"/>
<polygon fill="none" stroke="midnightblue" points="115.305,-121.933 123.48,-128.672 121.292,-118.305 115.305,-121.933"/>
</g>
<!-- Node3 -->
<g id="node3" class="node"><title>Node3</title>
<g id="a_node3"><a xlink:href="../../df/dae/classo2_1_1ITSMFT_1_1RawPixelReader.html" target="_top" xlink:title="RawPixelReader class for the ITS. Feeds raw data to the Cluster Finder. ">
<polygon fill="none" stroke="black" points="166.5,-17.5 166.5,-74.5 315.5,-74.5 315.5,-17.5 166.5,-17.5"/>
<text text-anchor="middle" x="241" y="-62.5" font-family="Helvetica,sans-Serif" font-size="10.00">o2::ITSMFT::RawPixelReader</text>
<polyline fill="none" stroke="black" points="166.5,-55.5 315.5,-55.5 "/>
<text text-anchor="middle" x="241" y="-43.5" font-family="Helvetica,sans-Serif" font-size="10.00"> </text>
<polyline fill="none" stroke="black" points="166.5,-36.5 315.5,-36.5 "/>
<text text-anchor="start" x="174.5" y="-24.5" font-family="Helvetica,sans-Serif" font-size="10.00">+ getNextChipData()</text>
</a>
</g>
</g>
<!-- Node1&#45;&gt;Node3 -->
<g id="edge2" class="edge"><title>Node1&#45;&gt;Node3</title>
<path fill="none" stroke="midnightblue" d="M196.307,-119.893C206.056,-103.992 215.999,-87.7751 224.024,-74.6866"/>
<polygon fill="none" stroke="midnightblue" points="193.167,-118.317 190.924,-128.672 199.135,-121.976 193.167,-118.317"/>
</g>
</g>
</svg>
