<?xml version="1.0" encoding="UTF-8" standalone="no"?>
<!DOCTYPE svg PUBLIC "-//W3C//DTD SVG 1.1//EN"
 "http://www.w3.org/Graphics/SVG/1.1/DTD/svg11.dtd">
<!-- Generated by graphviz version 2.36.0 (20140111.2315)
 -->
<!-- Title: o2::header::BaseHeader Pages: 1 -->
<svg width="900pt" height="824pt"
 viewBox="0.00 0.00 900.44 824.00" xmlns="http://www.w3.org/2000/svg" xmlns:xlink="http://www.w3.org/1999/xlink">
<g id="graph0" class="graph" transform="scale(1 1) rotate(0) translate(4 820)">
<title>o2::header::BaseHeader</title>
<!-- Node1 -->
<g id="node1" class="node"><title>Node1</title>
<polygon fill="#bfbfbf" stroke="black" points="436.44,-0.5 436.44,-123.5 558.44,-123.5 558.44,-0.5 436.44,-0.5"/>
<text text-anchor="middle" x="497.44" y="-111.5" font-family="Helvetica,sans-Serif" font-size="10.00">o2::header::BaseHeader</text>
<polyline fill="none" stroke="black" points="436.44,-104.5 558.44,-104.5 "/>
<text text-anchor="middle" x="497.44" y="-92.5" font-family="Helvetica,sans-Serif" font-size="10.00"> </text>
<polyline fill="none" stroke="black" points="436.44,-85.5 558.44,-85.5 "/>
<text text-anchor="start" x="444.44" y="-73.5" font-family="Helvetica,sans-Serif" font-size="10.00">+ BaseHeader()</text>
<text text-anchor="start" x="444.44" y="-62.5" font-family="Helvetica,sans-Serif" font-size="10.00">+ BaseHeader()</text>
<text text-anchor="start" x="444.44" y="-51.5" font-family="Helvetica,sans-Serif" font-size="10.00">+ BaseHeader()</text>
<text text-anchor="start" x="444.44" y="-40.5" font-family="Helvetica,sans-Serif" font-size="10.00">+ size()</text>
<text text-anchor="start" x="444.44" y="-29.5" font-family="Helvetica,sans-Serif" font-size="10.00">+ data()</text>
<text text-anchor="start" x="444.44" y="-18.5" font-family="Helvetica,sans-Serif" font-size="10.00">+ next()</text>
<text text-anchor="start" x="444.44" y="-7.5" font-family="Helvetica,sans-Serif" font-size="10.00">+ get()</text>
</g>
<!-- Node2 -->
<g id="node2" class="node"><title>Node2</title>
<g id="a_node2"><a xlink:href="../../d9/db3/structo2_1_1header_1_1Descriptor.html" target="_top" xlink:title="{o2::header::Descriptor\l\&lt; gSizeHeaderDescriptionString \&gt;\n||+ Descriptor()\l+ Descriptor()\l+ Descriptor()\l+ Descriptor()\l+ operator=()\l+ operator ItgType()\l+ runtimeInit()\l+ operator==()\l+ operator==()\l+ operator!=()\l+ operator!=()\l+ print()\l}">
<polygon fill="none" stroke="black" points="414.44,-248.5 414.44,-437.5 580.44,-437.5 580.44,-248.5 414.44,-248.5"/>
<text text-anchor="start" x="422.44" y="-425.5" font-family="Helvetica,sans-Serif" font-size="10.00">o2::header::Descriptor</text>
<text text-anchor="middle" x="497.44" y="-414.5" font-family="Helvetica,sans-Serif" font-size="10.00">&lt; gSizeHeaderDescriptionString &gt;</text>
<polyline fill="none" stroke="black" points="414.44,-407.5 580.44,-407.5 "/>
<text text-anchor="middle" x="497.44" y="-395.5" font-family="Helvetica,sans-Serif" font-size="10.00"> </text>
<polyline fill="none" stroke="black" points="414.44,-388.5 580.44,-388.5 "/>
<text text-anchor="start" x="422.44" y="-376.5" font-family="Helvetica,sans-Serif" font-size="10.00">+ Descriptor()</text>
<text text-anchor="start" x="422.44" y="-365.5" font-family="Helvetica,sans-Serif" font-size="10.00">+ Descriptor()</text>
<text text-anchor="start" x="422.44" y="-354.5" font-family="Helvetica,sans-Serif" font-size="10.00">+ Descriptor()</text>
<text text-anchor="start" x="422.44" y="-343.5" font-family="Helvetica,sans-Serif" font-size="10.00">+ Descriptor()</text>
<text text-anchor="start" x="422.44" y="-332.5" font-family="Helvetica,sans-Serif" font-size="10.00">+ operator=()</text>
<text text-anchor="start" x="422.44" y="-321.5" font-family="Helvetica,sans-Serif" font-size="10.00">+ operator ItgType()</text>
<text text-anchor="start" x="422.44" y="-310.5" font-family="Helvetica,sans-Serif" font-size="10.00">+ runtimeInit()</text>
<text text-anchor="start" x="422.44" y="-299.5" font-family="Helvetica,sans-Serif" font-size="10.00">+ operator==()</text>
<text text-anchor="start" x="422.44" y="-288.5" font-family="Helvetica,sans-Serif" font-size="10.00">+ operator==()</text>
<text text-anchor="start" x="422.44" y="-277.5" font-family="Helvetica,sans-Serif" font-size="10.00">+ operator!=()</text>
<text text-anchor="start" x="422.44" y="-266.5" font-family="Helvetica,sans-Serif" font-size="10.00">+ operator!=()</text>
<text text-anchor="start" x="422.44" y="-255.5" font-family="Helvetica,sans-Serif" font-size="10.00">+ print()</text>
</a>
</g>
</g>
<!-- Node2&#45;&gt;Node1 -->
<g id="edge1" class="edge"><title>Node2&#45;&gt;Node1</title>
<path fill="none" stroke="#404040" d="M497.44,-248.321C497.44,-211.663 497.44,-170.257 497.44,-135.895"/>
<polygon fill="none" stroke="#404040" points="497.44,-135.576 493.44,-129.576 497.44,-123.576 501.44,-129.576 497.44,-135.576"/>
<text text-anchor="middle" x="525.94" y="-183.5" font-family="Helvetica,sans-Serif" font-size="10.00"> +description</text>
</g>
<!-- Node3 -->
<g id="node3" class="node"><title>Node3</title>
<polygon fill="none" stroke="#bfbfbf" points="285.44,-757.5 285.44,-814.5 323.44,-814.5 323.44,-757.5 285.44,-757.5"/>
<text text-anchor="middle" x="304.44" y="-802.5" font-family="Helvetica,sans-Serif" font-size="10.00">Type</text>
<polyline fill="none" stroke="#bfbfbf" points="285.44,-795.5 323.44,-795.5 "/>
<text text-anchor="middle" x="304.44" y="-783.5" font-family="Helvetica,sans-Serif" font-size="10.00"> </text>
<polyline fill="none" stroke="#bfbfbf" points="285.44,-776.5 323.44,-776.5 "/>
<text text-anchor="middle" x="304.44" y="-764.5" font-family="Helvetica,sans-Serif" font-size="10.00"> </text>
</g>
<!-- Node3&#45;&gt;Node2 -->
<g id="edge2" class="edge"><title>Node3&#45;&gt;Node2</title>
<path fill="none" stroke="#404040" d="M323.656,-782.272C348.633,-777.683 391.837,-766.002 415.44,-738 491.936,-647.245 453.68,-594.491 476.44,-478 478.254,-468.717 480.015,-459.048 481.696,-449.343"/>
<polygon fill="none" stroke="#404040" points="481.696,-449.341 478.757,-442.756 483.705,-437.51 486.644,-444.095 481.696,-449.341"/>
<text text-anchor="middle" x="483.44" y="-588.5" font-family="Helvetica,sans-Serif" font-size="10.00"> +itg</text>
</g>
<!-- Node7 -->
<g id="node7" class="node"><title>Node7</title>
<g id="a_node7"><a xlink:href="../../d9/db3/structo2_1_1header_1_1Descriptor.html" target="_top" xlink:title="{o2::header::Descriptor\l\&lt; N, PrinterPolicy \&gt;\n||+ Descriptor()\l+ Descriptor()\l+ Descriptor()\l+ operator=()\l+ operator ItgType()\l+ Descriptor()\l+ runtimeInit()\l+ operator==()\l+ operator!=()\l+ operator==()\l+ operator!=()\l+ print()\l}">
<polygon fill="none" stroke="black" points="247.94,-496.5 247.94,-685.5 360.94,-685.5 360.94,-496.5 247.94,-496.5"/>
<text text-anchor="start" x="255.94" y="-673.5" font-family="Helvetica,sans-Serif" font-size="10.00">o2::header::Descriptor</text>
<text text-anchor="middle" x="304.44" y="-662.5" font-family="Helvetica,sans-Serif" font-size="10.00">&lt; N, PrinterPolicy &gt;</text>
<polyline fill="none" stroke="black" points="247.94,-655.5 360.94,-655.5 "/>
<text text-anchor="middle" x="304.44" y="-643.5" font-family="Helvetica,sans-Serif" font-size="10.00"> </text>
<polyline fill="none" stroke="black" points="247.94,-636.5 360.94,-636.5 "/>
<text text-anchor="start" x="255.94" y="-624.5" font-family="Helvetica,sans-Serif" font-size="10.00">+ Descriptor()</text>
<text text-anchor="start" x="255.94" y="-613.5" font-family="Helvetica,sans-Serif" font-size="10.00">+ Descriptor()</text>
<text text-anchor="start" x="255.94" y="-602.5" font-family="Helvetica,sans-Serif" font-size="10.00">+ Descriptor()</text>
<text text-anchor="start" x="255.94" y="-591.5" font-family="Helvetica,sans-Serif" font-size="10.00">+ operator=()</text>
<text text-anchor="start" x="255.94" y="-580.5" font-family="Helvetica,sans-Serif" font-size="10.00">+ operator ItgType()</text>
<text text-anchor="start" x="255.94" y="-569.5" font-family="Helvetica,sans-Serif" font-size="10.00">+ Descriptor()</text>
<text text-anchor="start" x="255.94" y="-558.5" font-family="Helvetica,sans-Serif" font-size="10.00">+ runtimeInit()</text>
<text text-anchor="start" x="255.94" y="-547.5" font-family="Helvetica,sans-Serif" font-size="10.00">+ operator==()</text>
<text text-anchor="start" x="255.94" y="-536.5" font-family="Helvetica,sans-Serif" font-size="10.00">+ operator!=()</text>
<text text-anchor="start" x="255.94" y="-525.5" font-family="Helvetica,sans-Serif" font-size="10.00">+ operator==()</text>
<text text-anchor="start" x="255.94" y="-514.5" font-family="Helvetica,sans-Serif" font-size="10.00">+ operator!=()</text>
<text text-anchor="start" x="255.94" y="-503.5" font-family="Helvetica,sans-Serif" font-size="10.00">+ print()</text>
</a>
</g>
</g>
<!-- Node3&#45;&gt;Node7 -->
<g id="edge7" class="edge"><title>Node3&#45;&gt;Node7</title>
<path fill="none" stroke="#404040" d="M304.44,-757.348C304.44,-741.342 304.44,-720.063 304.44,-698.114"/>
<polygon fill="none" stroke="#404040" points="304.44,-697.881 300.44,-691.881 304.44,-685.881 308.44,-691.881 304.44,-697.881"/>
<text text-anchor="middle" x="314.44" y="-718.5" font-family="Helvetica,sans-Serif" font-size="10.00"> +itg</text>
</g>
<!-- Node8 -->
<g id="node8" class="node"><title>Node8</title>
<g id="a_node8"><a xlink:href="../../d9/db3/structo2_1_1header_1_1Descriptor.html" target="_top" xlink:title="{o2::header::Descriptor\l\&lt; gSizeSerializationMethodString \&gt;\n||+ Descriptor()\l+ Descriptor()\l+ Descriptor()\l+ Descriptor()\l+ operator=()\l+ operator ItgType()\l+ runtimeInit()\l+ operator==()\l+ operator==()\l+ operator!=()\l+ operator!=()\l+ print()\l}">
<polygon fill="none" stroke="black" points="59.4398,-248.5 59.4398,-437.5 229.44,-437.5 229.44,-248.5 59.4398,-248.5"/>
<text text-anchor="start" x="67.4398" y="-425.5" font-family="Helvetica,sans-Serif" font-size="10.00">o2::header::Descriptor</text>
<text text-anchor="middle" x="144.44" y="-414.5" font-family="Helvetica,sans-Serif" font-size="10.00">&lt; gSizeSerializationMethodString &gt;</text>
<polyline fill="none" stroke="black" points="59.4398,-407.5 229.44,-407.5 "/>
<text text-anchor="middle" x="144.44" y="-395.5" font-family="Helvetica,sans-Serif" font-size="10.00"> </text>
<polyline fill="none" stroke="black" points="59.4398,-388.5 229.44,-388.5 "/>
<text text-anchor="start" x="67.4398" y="-376.5" font-family="Helvetica,sans-Serif" font-size="10.00">+ Descriptor()</text>
<text text-anchor="start" x="67.4398" y="-365.5" font-family="Helvetica,sans-Serif" font-size="10.00">+ Descriptor()</text>
<text text-anchor="start" x="67.4398" y="-354.5" font-family="Helvetica,sans-Serif" font-size="10.00">+ Descriptor()</text>
<text text-anchor="start" x="67.4398" y="-343.5" font-family="Helvetica,sans-Serif" font-size="10.00">+ Descriptor()</text>
<text text-anchor="start" x="67.4398" y="-332.5" font-family="Helvetica,sans-Serif" font-size="10.00">+ operator=()</text>
<text text-anchor="start" x="67.4398" y="-321.5" font-family="Helvetica,sans-Serif" font-size="10.00">+ operator ItgType()</text>
<text text-anchor="start" x="67.4398" y="-310.5" font-family="Helvetica,sans-Serif" font-size="10.00">+ runtimeInit()</text>
<text text-anchor="start" x="67.4398" y="-299.5" font-family="Helvetica,sans-Serif" font-size="10.00">+ operator==()</text>
<text text-anchor="start" x="67.4398" y="-288.5" font-family="Helvetica,sans-Serif" font-size="10.00">+ operator==()</text>
<text text-anchor="start" x="67.4398" y="-277.5" font-family="Helvetica,sans-Serif" font-size="10.00">+ operator!=()</text>
<text text-anchor="start" x="67.4398" y="-266.5" font-family="Helvetica,sans-Serif" font-size="10.00">+ operator!=()</text>
<text text-anchor="start" x="67.4398" y="-255.5" font-family="Helvetica,sans-Serif" font-size="10.00">+ print()</text>
</a>
</g>
</g>
<!-- Node3&#45;&gt;Node8 -->
<g id="edge15" class="edge"><title>Node3&#45;&gt;Node8</title>
<path fill="none" stroke="#404040" d="M285.378,-784.014C253.154,-781.422 187.334,-772.027 145.44,-738 125.065,-721.452 123.857,-711.452 117.44,-686 92.4497,-586.879 105.377,-557.508 117.44,-456 117.698,-453.823 117.985,-451.627 118.295,-449.418"/>
<polygon fill="none" stroke="#404040" points="118.304,-449.362 115.288,-442.812 120.174,-437.508 123.19,-444.058 118.304,-449.362"/>
<text text-anchor="middle" x="127.44" y="-588.5" font-family="Helvetica,sans-Serif" font-size="10.00"> +itg</text>
</g>
<!-- Node4 -->
<g id="node4" class="node"><title>Node4</title>
<polygon fill="none" stroke="#bfbfbf" points="44.9398,-757.5 44.9398,-814.5 79.9398,-814.5 79.9398,-757.5 44.9398,-757.5"/>
<text text-anchor="middle" x="62.4398" y="-802.5" font-family="Helvetica,sans-Serif" font-size="10.00">char</text>
<polyline fill="none" stroke="#bfbfbf" points="44.9398,-795.5 79.9398,-795.5 "/>
<text text-anchor="middle" x="62.4398" y="-783.5" font-family="Helvetica,sans-Serif" font-size="10.00"> </text>
<polyline fill="none" stroke="#bfbfbf" points="44.9398,-776.5 79.9398,-776.5 "/>
<text text-anchor="middle" x="62.4398" y="-764.5" font-family="Helvetica,sans-Serif" font-size="10.00"> </text>
</g>
<!-- Node4&#45;&gt;Node1 -->
<g id="edge13" class="edge"><title>Node4&#45;&gt;Node1</title>
<path fill="none" stroke="#404040" d="M52.4947,-757.421C24.1774,-673.818 -48.6612,-418.523 50.4398,-248 126.756,-116.682 318.309,-78.5748 424.208,-67.5181"/>
<polygon fill="none" stroke="#404040" points="424.429,-67.4966 430.011,-62.9313 436.372,-66.3279 430.79,-70.8932 424.429,-67.4966"/>
<text text-anchor="middle" x="30.9398" y="-464.5" font-family="Helvetica,sans-Serif" font-size="10.00"> +magicString</text>
</g>
<!-- Node4&#45;&gt;Node2 -->
<g id="edge3" class="edge"><title>Node4&#45;&gt;Node2</title>
<path fill="none" stroke="#404040" d="M80.2717,-783.508C132.809,-778.857 285.979,-763.395 328.44,-738 353.698,-722.894 355.924,-712.144 369.44,-686 409.87,-607.797 373.863,-567.346 425.44,-496 433.674,-484.61 442.957,-489.206 451.44,-478 458.216,-469.049 464.038,-459.029 469.031,-448.608"/>
<polygon fill="none" stroke="#404040" points="469.041,-448.584 467.839,-441.474 473.939,-437.629 475.142,-444.739 469.041,-448.584"/>
<text text-anchor="middle" x="435.94" y="-588.5" font-family="Helvetica,sans-Serif" font-size="10.00"> +str</text>
</g>
<!-- Node4&#45;&gt;Node7 -->
<g id="edge8" class="edge"><title>Node4&#45;&gt;Node7</title>
<path fill="none" stroke="#404040" d="M80.2041,-775.228C109.539,-758.707 169.346,-723.386 214.44,-686 222.742,-679.117 231.078,-671.532 239.145,-663.747"/>
<polygon fill="none" stroke="#404040" points="239.229,-663.664 240.698,-656.604 247.78,-655.244 246.311,-662.304 239.229,-663.664"/>
<text text-anchor="middle" x="201.94" y="-718.5" font-family="Helvetica,sans-Serif" font-size="10.00"> +str</text>
</g>
<!-- Node4&#45;&gt;Node8 -->
<g id="edge16" class="edge"><title>Node4&#45;&gt;Node8</title>
<path fill="none" stroke="#404040" d="M57.6159,-757.334C49.5344,-705.204 36.3791,-589.283 60.4398,-496 64.5299,-480.142 70.666,-464.171 77.7955,-448.849"/>
<polygon fill="none" stroke="#404040" points="77.9096,-448.613 76.9297,-441.469 83.1475,-437.817 84.1274,-444.961 77.9096,-448.613"/>
<text text-anchor="middle" x="70.9398" y="-588.5" font-family="Helvetica,sans-Serif" font-size="10.00"> +str</text>
</g>
<!-- Node5 -->
<g id="node5" class="node"><title>Node5</title>
<polygon fill="none" stroke="#bfbfbf" points="447.94,-757.5 447.94,-814.5 476.94,-814.5 476.94,-757.5 447.94,-757.5"/>
<text text-anchor="middle" x="462.44" y="-802.5" font-family="Helvetica,sans-Serif" font-size="10.00">int</text>
<polyline fill="none" stroke="#bfbfbf" points="447.94,-795.5 476.94,-795.5 "/>
<text text-anchor="middle" x="462.44" y="-783.5" font-family="Helvetica,sans-Serif" font-size="10.00"> </text>
<polyline fill="none" stroke="#bfbfbf" points="447.94,-776.5 476.94,-776.5 "/>
<text text-anchor="middle" x="462.44" y="-764.5" font-family="Helvetica,sans-Serif" font-size="10.00"> </text>
</g>
<!-- Node5&#45;&gt;Node2 -->
<g id="edge4" class="edge"><title>Node5&#45;&gt;Node2</title>
<path fill="none" stroke="#404040" d="M477.231,-783.009C500.137,-779.041 543.52,-767.798 562.44,-738 579.121,-711.728 621.568,-890.436 544.44,-496 541.462,-480.771 537.527,-464.905 533.2,-449.417"/>
<polygon fill="none" stroke="#404040" points="533.136,-449.196 527.635,-444.534 529.823,-437.663 535.324,-442.325 533.136,-449.196"/>
<text text-anchor="middle" x="605.94" y="-599.5" font-family="Helvetica,sans-Serif" font-size="10.00"> +arraySize</text>
<text text-anchor="middle" x="605.94" y="-588.5" font-family="Helvetica,sans-Serif" font-size="10.00">+size</text>
<text text-anchor="middle" x="605.94" y="-577.5" font-family="Helvetica,sans-Serif" font-size="10.00">+bitcount</text>
</g>
<!-- Node5&#45;&gt;Node7 -->
<g id="edge9" class="edge"><title>Node5&#45;&gt;Node7</title>
<path fill="none" stroke="#404040" d="M447.861,-767.526C431.416,-747.786 403.902,-714.671 380.44,-686 376.593,-681.299 372.644,-676.459 368.666,-671.572"/>
<polygon fill="none" stroke="#404040" points="368.568,-671.452 361.679,-669.319 360.998,-662.14 367.887,-664.273 368.568,-671.452"/>
<text text-anchor="middle" x="448.94" y="-729.5" font-family="Helvetica,sans-Serif" font-size="10.00"> +arraySize</text>
<text text-anchor="middle" x="448.94" y="-718.5" font-family="Helvetica,sans-Serif" font-size="10.00">+size</text>
<text text-anchor="middle" x="448.94" y="-707.5" font-family="Helvetica,sans-Serif" font-size="10.00">+bitcount</text>
</g>
<!-- Node5&#45;&gt;Node8 -->
<g id="edge17" class="edge"><title>Node5&#45;&gt;Node8</title>
<path fill="none" stroke="#404040" d="M447.609,-781.819C395.411,-770.313 221.502,-729.254 187.44,-686 129.145,-611.974 156.294,-571.707 146.44,-478 145.482,-468.889 144.771,-459.411 144.254,-449.894"/>
<polygon fill="none" stroke="#404040" points="144.251,-449.83 139.98,-444.02 143.7,-437.843 147.971,-443.652 144.251,-449.83"/>
<text text-anchor="middle" x="212.94" y="-599.5" font-family="Helvetica,sans-Serif" font-size="10.00"> +arraySize</text>
<text text-anchor="middle" x="212.94" y="-588.5" font-family="Helvetica,sans-Serif" font-size="10.00">+size</text>
<text text-anchor="middle" x="212.94" y="-577.5" font-family="Helvetica,sans-Serif" font-size="10.00">+bitcount</text>
</g>
<!-- Node6 -->
<g id="node6" class="node"><title>Node6</title>
<polygon fill="none" stroke="#bfbfbf" points="648.94,-757 648.94,-815 677.94,-815 677.94,-757 648.94,-757"/>
<polyline fill="none" stroke="#bfbfbf" points="648.94,-795 677.94,-795 "/>
<text text-anchor="middle" x="663.44" y="-783" font-family="Helvetica,sans-Serif" font-size="10.00"> </text>
<polyline fill="none" stroke="#bfbfbf" points="648.94,-776 677.94,-776 "/>
<text text-anchor="middle" x="663.44" y="-764" font-family="Helvetica,sans-Serif" font-size="10.00"> </text>
</g>
<!-- Node6&#45;&gt;Node1 -->
<g id="edge11" class="edge"><title>Node6&#45;&gt;Node1</title>
<path fill="none" stroke="#404040" d="M676.69,-756.722C684.963,-737.314 694.726,-710.697 698.44,-686 710.996,-602.494 714.247,-578.952 698.44,-496 666.769,-329.8 642.076,-289.073 558.44,-142 556.848,-139.202 555.167,-136.393 553.416,-133.591"/>
<polygon fill="none" stroke="#404040" points="553.385,-133.544 546.753,-130.713 546.816,-123.502 553.448,-126.333 553.385,-133.544"/>
<text text-anchor="middle" x="707.94" y="-464.5" font-family="Helvetica,sans-Serif" font-size="10.00"> +@5</text>
</g>
<!-- Node6&#45;&gt;Node1 -->
<g id="edge12" class="edge"><title>Node6&#45;&gt;Node1</title>
<path fill="none" stroke="#404040" d="M678.243,-771.477C687.021,-762.712 697.711,-750.61 704.44,-738 715.707,-716.884 714.96,-709.68 718.44,-686 733.308,-584.83 738.301,-557.313 724.44,-456 704.034,-306.851 698.902,-253.207 597.44,-142 588.591,-132.302 578.473,-122.855 568.148,-114.065"/>
<polygon fill="none" stroke="#404040" points="567.879,-113.843 560.707,-113.096 558.638,-106.188 565.81,-106.935 567.879,-113.843"/>
<text text-anchor="middle" x="739.94" y="-464.5" font-family="Helvetica,sans-Serif" font-size="10.00"> +@7</text>
</g>
<!-- Node6&#45;&gt;Node2 -->
<g id="edge5" class="edge"><title>Node6&#45;&gt;Node2</title>
<path fill="none" stroke="#404040" d="M666.378,-756.854C670.764,-703.427 674.73,-584.726 635.44,-496 624.251,-470.734 607.183,-446.831 588.823,-425.782"/>
<polygon fill="none" stroke="#404040" points="588.621,-425.557 581.635,-423.767 580.601,-416.63 587.587,-418.421 588.621,-425.557"/>
<text text-anchor="middle" x="681.94" y="-588.5" font-family="Helvetica,sans-Serif" font-size="10.00"> +@3</text>
</g>
<!-- Node6&#45;&gt;Node7 -->
<g id="edge10" class="edge"><title>Node6&#45;&gt;Node7</title>
<path fill="none" stroke="#404040" d="M648.704,-778.019C611.241,-760.357 512.887,-714.549 478.44,-704 436.097,-691.033 418.507,-708.626 380.44,-686 377.012,-683.963 373.675,-681.71 370.433,-679.285"/>
<polygon fill="none" stroke="#404040" points="370.273,-679.154 363.097,-678.437 361,-671.537 368.175,-672.255 370.273,-679.154"/>
<text text-anchor="middle" x="569.94" y="-718.5" font-family="Helvetica,sans-Serif" font-size="10.00"> +@3</text>
</g>
<!-- Node6&#45;&gt;Node8 -->
<g id="edge18" class="edge"><title>Node6&#45;&gt;Node8</title>
<path fill="none" stroke="#404040" d="M648.791,-763.858C634.854,-745.339 612.228,-719.092 586.44,-704 558.344,-687.557 536.878,-710.498 515.44,-686 487.449,-654.014 511.449,-534.501 493.44,-496 483.05,-473.789 477.414,-466.883 455.44,-456 389.334,-423.261 359.977,-462.625 290.44,-438 273.423,-431.974 256.378,-423.624 240.25,-414.366"/>
<polygon fill="none" stroke="#404040" points="240.116,-414.286 232.915,-414.667 229.793,-408.167 236.994,-407.786 240.116,-414.286"/>
<text text-anchor="middle" x="527.94" y="-588.5" font-family="Helvetica,sans-Serif" font-size="10.00"> +@3</text>
</g>
<!-- Node7&#45;&gt;Node1 -->
<g id="edge21" class="edge"><title>Node7&#45;&gt;Node1</title>
<path fill="none" stroke="#404040" d="M297.599,-496.166C292.784,-410.54 290.063,-290.999 308.44,-248 332.714,-191.204 383.665,-143.015 426.553,-110.07"/>
<polygon fill="none" stroke="#404040" points="426.824,-109.866 429.213,-103.063 436.413,-102.652 434.023,-109.455 426.824,-109.866"/>
<text text-anchor="middle" x="356.94" y="-346" font-family="Helvetica,sans-Serif" font-size="10.00"> +sHeaderType</text>
<text text-anchor="middle" x="356.94" y="-335" font-family="Helvetica,sans-Serif" font-size="10.00">+sSerializationMethod</text>
</g>
<!-- Node7&#45;&gt;Node2 -->
<g id="edge6" class="edge"><title>Node7&#45;&gt;Node2</title>
<path fill="none" stroke="orange" d="M314.403,-486.605C318.938,-475.31 325.106,-464.755 333.44,-456 354.698,-433.666 373.622,-453.216 400.44,-438 405.131,-435.338 409.762,-432.396 414.306,-429.246"/>
<polygon fill="orange" stroke="orange" points="311.028,-485.649 310.967,-496.244 317.622,-488 311.028,-485.649"/>
<text text-anchor="start" x="333.44" y="-470" font-family="Helvetica,sans-Serif" font-size="10.00"> &lt; gSizeHeaderDescription</text>
<text text-anchor="middle" x="392.44" y="-459" font-family="Helvetica,sans-Serif" font-size="10.00">String &gt;</text>
</g>
<!-- Node7&#45;&gt;Node8 -->
<g id="edge19" class="edge"><title>Node7&#45;&gt;Node8</title>
<path fill="none" stroke="orange" d="M240.346,-515.843C232.101,-508.553 223.395,-501.742 214.44,-496 193.852,-482.799 177.923,-496.931 162.44,-478 153.003,-466.462 147.141,-452.404 143.66,-437.785"/>
<polygon fill="orange" stroke="orange" points="238.045,-518.482 247.782,-522.657 242.774,-513.321 238.045,-518.482"/>
<text text-anchor="start" x="162.44" y="-470" font-family="Helvetica,sans-Serif" font-size="10.00"> &lt; gSizeSerializationMethod</text>
<text text-anchor="middle" x="223.94" y="-459" font-family="Helvetica,sans-Serif" font-size="10.00">String &gt;</text>
</g>
<!-- Node8&#45;&gt;Node1 -->
<g id="edge14" class="edge"><title>Node8&#45;&gt;Node1</title>
<path fill="none" stroke="#404040" d="M162.991,-248.248C174.806,-210.611 193.881,-169.679 224.44,-142 279.351,-92.2639 363.768,-73.6939 424.186,-66.8404"/>
<polygon fill="none" stroke="#404040" points="424.378,-66.8206 429.934,-62.2238 436.314,-65.5844 430.758,-70.1812 424.378,-66.8206"/>
<text text-anchor="middle" x="254.94" y="-183.5" font-family="Helvetica,sans-Serif" font-size="10.00"> +serialization</text>
</g>
<!-- Node9 -->
<g id="node9" class="node"><title>Node9</title>
<polygon fill="none" stroke="#bfbfbf" points="787.94,-314.5 787.94,-371.5 838.94,-371.5 838.94,-314.5 787.94,-314.5"/>
<text text-anchor="middle" x="813.44" y="-359.5" font-family="Helvetica,sans-Serif" font-size="10.00">uint32_t</text>
<polyline fill="none" stroke="#bfbfbf" points="787.94,-352.5 838.94,-352.5 "/>
<text text-anchor="middle" x="813.44" y="-340.5" font-family="Helvetica,sans-Serif" font-size="10.00"> </text>
<polyline fill="none" stroke="#bfbfbf" points="787.94,-333.5 838.94,-333.5 "/>
<text text-anchor="middle" x="813.44" y="-321.5" font-family="Helvetica,sans-Serif" font-size="10.00"> </text>
</g>
<!-- Node9&#45;&gt;Node1 -->
<g id="edge20" class="edge"><title>Node9&#45;&gt;Node1</title>
<path fill="none" stroke="#404040" d="M816.229,-314.459C818.935,-271.821 817.478,-189.777 773.44,-142 721.82,-85.9983 633.482,-68.7049 570.656,-63.8625"/>
<polygon fill="none" stroke="#404040" points="570.423,-63.8471 564.171,-67.4409 558.449,-63.0523 564.701,-59.4585 570.423,-63.8471"/>
<text text-anchor="middle" x="852.44" y="-222" font-family="Helvetica,sans-Serif" font-size="10.00"> +headerVersion</text>
<text text-anchor="middle" x="852.44" y="-211" font-family="Helvetica,sans-Serif" font-size="10.00">+headerSize</text>
<text text-anchor="middle" x="852.44" y="-200" font-family="Helvetica,sans-Serif" font-size="10.00">+sMagicString</text>
<text text-anchor="middle" x="852.44" y="-189" font-family="Helvetica,sans-Serif" font-size="10.00">+flagsNextHeader</text>
<text text-anchor="middle" x="852.44" y="-178" font-family="Helvetica,sans-Serif" font-size="10.00">+magicStringInt</text>
<text text-anchor="middle" x="852.44" y="-167" font-family="Helvetica,sans-Serif" font-size="10.00">+flagsUnused</text>
<text text-anchor="middle" x="852.44" y="-156" font-family="Helvetica,sans-Serif" font-size="10.00">+flags</text>
<text text-anchor="middle" x="852.44" y="-145" font-family="Helvetica,sans-Serif" font-size="10.00">+sVersion</text>
</g>
</g>
</svg>
