<?xml version="1.0" encoding="UTF-8" standalone="no"?>
<!DOCTYPE svg PUBLIC "-//W3C//DTD SVG 1.1//EN"
 "http://www.w3.org/Graphics/SVG/1.1/DTD/svg11.dtd">
<!-- Generated by graphviz version 2.36.0 (20140111.2315)
 -->
<!-- Title: o2::DataFlow::StreamingState Pages: 1 -->
<!--zoomable 1188 -->
<svg id="main" version="1.1" xmlns="http://www.w3.org/2000/svg" xmlns:xlink="http://www.w3.org/1999/xlink" xml:space="preserve" onload="init(evt)">
<style type="text/css"><![CDATA[
.edge:hover path { stroke: red; }
.edge:hover polygon { stroke: red; fill: red; }
]]></style>
<script type="text/javascript"><![CDATA[
var edges = document.getElementsByTagName('g');
if (edges && edges.length) {
  for (var i=0;i<edges.length;i++) {
    if (edges[i].id.substr(0,4)=='edge') {
      edges[i].setAttribute('class','edge');
    }
  }
}
]]></script>
        <defs>
                <circle id="rim" cx="0" cy="0" r="7"/>
                <circle id="rim2" cx="0" cy="0" r="3.5"/>
                <g id="zoomPlus">
                        <use xlink:href="#rim" fill="#404040">
                                <set attributeName="fill" to="#808080" begin="zoomplus.mouseover" end="zoomplus.mouseout"/>
                        </use>
                        <path d="M-4,0h8M0,-4v8" fill="none" stroke="white" stroke-width="1.5" pointer-events="none"/>
                </g>
                <g id="zoomMin">
                        <use xlink:href="#rim" fill="#404040">
                                <set attributeName="fill" to="#808080" begin="zoomminus.mouseover" end="zoomminus.mouseout"/>
                        </use>
                        <path d="M-4,0h8" fill="none" stroke="white" stroke-width="1.5" pointer-events="none"/>
                </g>
                <g id="dirArrow">
                        <path fill="none" stroke="white" stroke-width="1.5" d="M0,-3.0v7 M-2.5,-0.5L0,-3.0L2.5,-0.5"/>
                </g>
               <g id="resetDef">
                       <use xlink:href="#rim2" fill="#404040">
                               <set attributeName="fill" to="#808080" begin="reset.mouseover" end="reset.mouseout"/>
                       </use>
               </g>
        </defs>

<script type="text/javascript">
var viewWidth = 1307;
var viewHeight = 1188;
var sectionId = 'dynsection-0';
</script>
<script xlink:href="../../svgpan.js"/>
<svg id="graph" class="graph">
<g id="viewport">
<title>o2::DataFlow::StreamingState</title>
<!-- Node1 -->
<g id="node1" class="node"><title>Node1</title>
<polygon fill="#bfbfbf" stroke="black" points="605.163,-0.5 605.163,-57.5 754.163,-57.5 754.163,-0.5 605.163,-0.5"/>
<text text-anchor="middle" x="679.663" y="-45.5" font-family="Helvetica,sans-Serif" font-size="10.00">o2::DataFlow::StreamingState</text>
<polyline fill="none" stroke="black" points="605.163,-38.5 754.163,-38.5 "/>
<text text-anchor="middle" x="679.663" y="-26.5" font-family="Helvetica,sans-Serif" font-size="10.00"> </text>
<polyline fill="none" stroke="black" points="605.163,-19.5 754.163,-19.5 "/>
<text text-anchor="start" x="613.163" y="-7.5" font-family="Helvetica,sans-Serif" font-size="10.00">+ StreamingState()</text>
</g>
<!-- Node2 -->
<g id="node2" class="node"><title>Node2</title>
<polygon fill="none" stroke="#bfbfbf" points="513.163,-182.5 513.163,-239.5 586.163,-239.5 586.163,-182.5 513.163,-182.5"/>
<text text-anchor="middle" x="549.663" y="-227.5" font-family="Helvetica,sans-Serif" font-size="10.00">ParsingState</text>
<polyline fill="none" stroke="#bfbfbf" points="513.163,-220.5 586.163,-220.5 "/>
<text text-anchor="middle" x="549.663" y="-208.5" font-family="Helvetica,sans-Serif" font-size="10.00"> </text>
<polyline fill="none" stroke="#bfbfbf" points="513.163,-201.5 586.163,-201.5 "/>
<text text-anchor="middle" x="549.663" y="-189.5" font-family="Helvetica,sans-Serif" font-size="10.00"> </text>
</g>
<!-- Node2&#45;&gt;Node1 -->
<g id="edge1" class="edge"><title>Node2&#45;&gt;Node1</title>
<path fill="none" stroke="#404040" d="M549.237,-182.303C550.207,-152.852 555.991,-106.411 580.663,-76 584.842,-70.8488 589.729,-66.2462 595.052,-62.1387"/>
<polygon fill="none" stroke="#404040" points="595.157,-62.0663 597.835,-55.371 605.046,-55.268 602.368,-61.9633 595.157,-62.0663"/>
<text text-anchor="middle" x="596.163" y="-84.5" font-family="Helvetica,sans-Serif" font-size="10.00"> +state</text>
</g>
<!-- Node3 -->
<g id="node3" class="node"><title>Node3</title>
<polygon fill="none" stroke="#bfbfbf" points="604.163,-182.5 604.163,-239.5 639.163,-239.5 639.163,-182.5 604.163,-182.5"/>
<text text-anchor="middle" x="621.663" y="-227.5" font-family="Helvetica,sans-Serif" font-size="10.00">bool</text>
<polyline fill="none" stroke="#bfbfbf" points="604.163,-220.5 639.163,-220.5 "/>
<text text-anchor="middle" x="621.663" y="-208.5" font-family="Helvetica,sans-Serif" font-size="10.00"> </text>
<polyline fill="none" stroke="#bfbfbf" points="604.163,-201.5 639.163,-201.5 "/>
<text text-anchor="middle" x="621.663" y="-189.5" font-family="Helvetica,sans-Serif" font-size="10.00"> </text>
</g>
<!-- Node3&#45;&gt;Node1 -->
<g id="edge2" class="edge"><title>Node3&#45;&gt;Node1</title>
<path fill="none" stroke="#404040" d="M615.248,-182.272C610.185,-154.036 606.383,-109.733 622.663,-76 624.217,-72.779 626.118,-69.7105 628.271,-66.7999"/>
<polygon fill="none" stroke="#404040" points="628.502,-66.5368 629.455,-59.389 636.42,-57.5201 635.466,-64.6679 628.502,-66.5368"/>
<text text-anchor="middle" x="669.663" y="-90" font-family="Helvetica,sans-Serif" font-size="10.00"> +hasDataHeader</text>
<text text-anchor="middle" x="669.663" y="-79" font-family="Helvetica,sans-Serif" font-size="10.00">+hasConcreteHeader</text>
</g>
<!-- Node4 -->
<g id="node4" class="node"><title>Node4</title>
<polygon fill="none" stroke="#bfbfbf" points="718.163,-182.5 718.163,-239.5 759.163,-239.5 759.163,-182.5 718.163,-182.5"/>
<text text-anchor="middle" x="738.663" y="-227.5" font-family="Helvetica,sans-Serif" font-size="10.00">void *</text>
<polyline fill="none" stroke="#bfbfbf" points="718.163,-220.5 759.163,-220.5 "/>
<text text-anchor="middle" x="738.663" y="-208.5" font-family="Helvetica,sans-Serif" font-size="10.00"> </text>
<polyline fill="none" stroke="#bfbfbf" points="718.163,-201.5 759.163,-201.5 "/>
<text text-anchor="middle" x="738.663" y="-189.5" font-family="Helvetica,sans-Serif" font-size="10.00"> </text>
</g>
<!-- Node4&#45;&gt;Node1 -->
<g id="edge3" class="edge"><title>Node4&#45;&gt;Node1</title>
<path fill="none" stroke="#404040" d="M738.205,-182.393C736.823,-154.448 732.094,-110.549 716.663,-76 715.419,-73.216 713.965,-70.4578 712.366,-67.7571"/>
<polygon fill="none" stroke="#404040" points="712.301,-67.6598 705.638,-64.903 705.619,-57.6919 712.283,-60.4487 712.301,-67.6598"/>
<text text-anchor="middle" x="758.163" y="-90" font-family="Helvetica,sans-Serif" font-size="10.00"> +headerBuffer</text>
<text text-anchor="middle" x="758.163" y="-79" font-family="Helvetica,sans-Serif" font-size="10.00">+payloadBuffer</text>
</g>
<!-- Node5 -->
<g id="node5" class="node"><title>Node5</title>
<g id="a_node5"><a xlink:href="../../db/d87/structo2_1_1header_1_1DataHeader.html" target="_top" xlink:title="the main header struct ">
<polygon fill="none" stroke="black" points="777.163,-116.5 777.163,-305.5 898.163,-305.5 898.163,-116.5 777.163,-116.5"/>
<text text-anchor="middle" x="837.663" y="-293.5" font-family="Helvetica,sans-Serif" font-size="10.00">o2::header::DataHeader</text>
<polyline fill="none" stroke="black" points="777.163,-286.5 898.163,-286.5 "/>
<text text-anchor="middle" x="837.663" y="-274.5" font-family="Helvetica,sans-Serif" font-size="10.00"> </text>
<polyline fill="none" stroke="black" points="777.163,-267.5 898.163,-267.5 "/>
<text text-anchor="start" x="785.163" y="-255.5" font-family="Helvetica,sans-Serif" font-size="10.00">+ DataHeader()</text>
<text text-anchor="start" x="785.163" y="-244.5" font-family="Helvetica,sans-Serif" font-size="10.00">+ DataHeader()</text>
<text text-anchor="start" x="785.163" y="-233.5" font-family="Helvetica,sans-Serif" font-size="10.00">+ DataHeader()</text>
<text text-anchor="start" x="785.163" y="-222.5" font-family="Helvetica,sans-Serif" font-size="10.00">+ operator=()</text>
<text text-anchor="start" x="785.163" y="-211.5" font-family="Helvetica,sans-Serif" font-size="10.00">+ operator=()</text>
<text text-anchor="start" x="785.163" y="-200.5" font-family="Helvetica,sans-Serif" font-size="10.00">+ operator=()</text>
<text text-anchor="start" x="785.163" y="-189.5" font-family="Helvetica,sans-Serif" font-size="10.00">+ operator=()</text>
<text text-anchor="start" x="785.163" y="-178.5" font-family="Helvetica,sans-Serif" font-size="10.00">+ operator==()</text>
<text text-anchor="start" x="785.163" y="-167.5" font-family="Helvetica,sans-Serif" font-size="10.00">+ operator==()</text>
<text text-anchor="start" x="785.163" y="-156.5" font-family="Helvetica,sans-Serif" font-size="10.00">+ operator==()</text>
<text text-anchor="start" x="785.163" y="-145.5" font-family="Helvetica,sans-Serif" font-size="10.00">+ operator==()</text>
<text text-anchor="start" x="785.163" y="-134.5" font-family="Helvetica,sans-Serif" font-size="10.00">+ print()</text>
<text text-anchor="start" x="785.163" y="-123.5" font-family="Helvetica,sans-Serif" font-size="10.00">+ Get()</text>
</a>
</g>
</g>
<!-- Node5&#45;&gt;Node1 -->
<g id="edge4" class="edge"><title>Node5&#45;&gt;Node1</title>
<path fill="none" stroke="#404040" d="M820.144,-116.23C814.216,-101.524 806.281,-87.4326 795.663,-76 787.171,-66.8577 776.629,-59.5007 765.389,-53.5885"/>
<polygon fill="none" stroke="#404040" points="765.268,-53.5305 758.129,-54.5494 754.443,-48.3516 761.582,-47.3327 765.268,-53.5305"/>
<text text-anchor="middle" x="821.663" y="-84.5" font-family="Helvetica,sans-Serif" font-size="10.00"> +dh</text>
</g>
<!-- Node6 -->
<g id="node6" class="node"><title>Node6</title>
<g id="a_node6"><a xlink:href="../../d8/dbd/structo2_1_1header_1_1BaseHeader.html" target="_top" xlink:title="the base header struct Every header type must begin (i.e. derive) with this. Don&#39;t use this struct di...">
<polygon fill="none" stroke="black" points="568.663,-364.5 568.663,-487.5 690.663,-487.5 690.663,-364.5 568.663,-364.5"/>
<text text-anchor="middle" x="629.663" y="-475.5" font-family="Helvetica,sans-Serif" font-size="10.00">o2::header::BaseHeader</text>
<polyline fill="none" stroke="black" points="568.663,-468.5 690.663,-468.5 "/>
<text text-anchor="middle" x="629.663" y="-456.5" font-family="Helvetica,sans-Serif" font-size="10.00"> </text>
<polyline fill="none" stroke="black" points="568.663,-449.5 690.663,-449.5 "/>
<text text-anchor="start" x="576.663" y="-437.5" font-family="Helvetica,sans-Serif" font-size="10.00">+ BaseHeader()</text>
<text text-anchor="start" x="576.663" y="-426.5" font-family="Helvetica,sans-Serif" font-size="10.00">+ BaseHeader()</text>
<text text-anchor="start" x="576.663" y="-415.5" font-family="Helvetica,sans-Serif" font-size="10.00">+ BaseHeader()</text>
<text text-anchor="start" x="576.663" y="-404.5" font-family="Helvetica,sans-Serif" font-size="10.00">+ size()</text>
<text text-anchor="start" x="576.663" y="-393.5" font-family="Helvetica,sans-Serif" font-size="10.00">+ data()</text>
<text text-anchor="start" x="576.663" y="-382.5" font-family="Helvetica,sans-Serif" font-size="10.00">+ next()</text>
<text text-anchor="start" x="576.663" y="-371.5" font-family="Helvetica,sans-Serif" font-size="10.00">+ get()</text>
</a>
</g>
</g>
<!-- Node6&#45;&gt;Node5 -->
<g id="edge5" class="edge"><title>Node6&#45;&gt;Node5</title>
<path fill="none" stroke="midnightblue" d="M698.385,-370.855C721.4,-351.417 746.553,-328.676 767.663,-306 770.713,-302.724 773.756,-299.316 776.77,-295.824"/>
<polygon fill="none" stroke="midnightblue" points="696.091,-368.211 690.671,-377.316 700.585,-373.578 696.091,-368.211"/>
</g>
<!-- Node7 -->
<g id="node7" class="node"><title>Node7</title>
<g id="a_node7"><a xlink:href="../../d9/db3/structo2_1_1header_1_1Descriptor.html" target="_top" xlink:title="{o2::header::Descriptor\l\&lt; gSizeHeaderDescriptionString \&gt;\n||+ Descriptor()\l+ Descriptor()\l+ Descriptor()\l+ Descriptor()\l+ operator=()\l+ operator ItgType()\l+ runtimeInit()\l+ operator==()\l+ operator==()\l+ operator!=()\l+ operator!=()\l+ print()\l}">
<polygon fill="none" stroke="black" points="490.663,-612.5 490.663,-801.5 656.663,-801.5 656.663,-612.5 490.663,-612.5"/>
<text text-anchor="start" x="498.663" y="-789.5" font-family="Helvetica,sans-Serif" font-size="10.00">o2::header::Descriptor</text>
<text text-anchor="middle" x="573.663" y="-778.5" font-family="Helvetica,sans-Serif" font-size="10.00">&lt; gSizeHeaderDescriptionString &gt;</text>
<polyline fill="none" stroke="black" points="490.663,-771.5 656.663,-771.5 "/>
<text text-anchor="middle" x="573.663" y="-759.5" font-family="Helvetica,sans-Serif" font-size="10.00"> </text>
<polyline fill="none" stroke="black" points="490.663,-752.5 656.663,-752.5 "/>
<text text-anchor="start" x="498.663" y="-740.5" font-family="Helvetica,sans-Serif" font-size="10.00">+ Descriptor()</text>
<text text-anchor="start" x="498.663" y="-729.5" font-family="Helvetica,sans-Serif" font-size="10.00">+ Descriptor()</text>
<text text-anchor="start" x="498.663" y="-718.5" font-family="Helvetica,sans-Serif" font-size="10.00">+ Descriptor()</text>
<text text-anchor="start" x="498.663" y="-707.5" font-family="Helvetica,sans-Serif" font-size="10.00">+ Descriptor()</text>
<text text-anchor="start" x="498.663" y="-696.5" font-family="Helvetica,sans-Serif" font-size="10.00">+ operator=()</text>
<text text-anchor="start" x="498.663" y="-685.5" font-family="Helvetica,sans-Serif" font-size="10.00">+ operator ItgType()</text>
<text text-anchor="start" x="498.663" y="-674.5" font-family="Helvetica,sans-Serif" font-size="10.00">+ runtimeInit()</text>
<text text-anchor="start" x="498.663" y="-663.5" font-family="Helvetica,sans-Serif" font-size="10.00">+ operator==()</text>
<text text-anchor="start" x="498.663" y="-652.5" font-family="Helvetica,sans-Serif" font-size="10.00">+ operator==()</text>
<text text-anchor="start" x="498.663" y="-641.5" font-family="Helvetica,sans-Serif" font-size="10.00">+ operator!=()</text>
<text text-anchor="start" x="498.663" y="-630.5" font-family="Helvetica,sans-Serif" font-size="10.00">+ operator!=()</text>
<text text-anchor="start" x="498.663" y="-619.5" font-family="Helvetica,sans-Serif" font-size="10.00">+ print()</text>
</a>
</g>
</g>
<!-- Node7&#45;&gt;Node6 -->
<g id="edge6" class="edge"><title>Node7&#45;&gt;Node6</title>
<path fill="none" stroke="#404040" d="M592.337,-612.382C599.044,-578.825 606.676,-540.714 613.663,-506 614.071,-503.972 614.485,-501.915 614.904,-499.839"/>
<polygon fill="none" stroke="#404040" points="614.957,-499.574 612.223,-492.901 617.331,-487.811 620.065,-494.484 614.957,-499.574"/>
<text text-anchor="middle" x="642.163" y="-547.5" font-family="Helvetica,sans-Serif" font-size="10.00"> +description</text>
</g>
<!-- Node8 -->
<g id="node8" class="node"><title>Node8</title>
<polygon fill="none" stroke="#bfbfbf" points="220.663,-1121.5 220.663,-1178.5 258.663,-1178.5 258.663,-1121.5 220.663,-1121.5"/>
<text text-anchor="middle" x="239.663" y="-1166.5" font-family="Helvetica,sans-Serif" font-size="10.00">Type</text>
<polyline fill="none" stroke="#bfbfbf" points="220.663,-1159.5 258.663,-1159.5 "/>
<text text-anchor="middle" x="239.663" y="-1147.5" font-family="Helvetica,sans-Serif" font-size="10.00"> </text>
<polyline fill="none" stroke="#bfbfbf" points="220.663,-1140.5 258.663,-1140.5 "/>
<text text-anchor="middle" x="239.663" y="-1128.5" font-family="Helvetica,sans-Serif" font-size="10.00"> </text>
</g>
<!-- Node8&#45;&gt;Node7 -->
<g id="edge7" class="edge"><title>Node8&#45;&gt;Node7</title>
<path fill="none" stroke="#404040" d="M258.674,-1144.76C304.59,-1134.43 418.171,-1108.37 423.663,-1102 494.294,-1020.13 376.971,-940.944 448.663,-860 472.539,-833.042 500.878,-866.07 527.663,-842 536.882,-833.715 544.255,-823.499 550.15,-812.434"/>
<polygon fill="none" stroke="#404040" points="550.159,-812.413 549.155,-805.272 555.361,-801.599 556.365,-808.74 550.159,-812.413"/>
<text text-anchor="middle" x="458.663" y="-952.5" font-family="Helvetica,sans-Serif" font-size="10.00"> +itg</text>
</g>
<!-- Node12 -->
<g id="node12" class="node"><title>Node12</title>
<g id="a_node12"><a xlink:href="../../d9/db3/structo2_1_1header_1_1Descriptor.html" target="_top" xlink:title="{o2::header::Descriptor\l\&lt; N, PrinterPolicy \&gt;\n||+ Descriptor()\l+ Descriptor()\l+ Descriptor()\l+ operator=()\l+ operator ItgType()\l+ Descriptor()\l+ runtimeInit()\l+ operator==()\l+ operator!=()\l+ operator==()\l+ operator!=()\l+ print()\l}">
<polygon fill="none" stroke="black" points="201.163,-860.5 201.163,-1049.5 314.163,-1049.5 314.163,-860.5 201.163,-860.5"/>
<text text-anchor="start" x="209.163" y="-1037.5" font-family="Helvetica,sans-Serif" font-size="10.00">o2::header::Descriptor</text>
<text text-anchor="middle" x="257.663" y="-1026.5" font-family="Helvetica,sans-Serif" font-size="10.00">&lt; N, PrinterPolicy &gt;</text>
<polyline fill="none" stroke="black" points="201.163,-1019.5 314.163,-1019.5 "/>
<text text-anchor="middle" x="257.663" y="-1007.5" font-family="Helvetica,sans-Serif" font-size="10.00"> </text>
<polyline fill="none" stroke="black" points="201.163,-1000.5 314.163,-1000.5 "/>
<text text-anchor="start" x="209.163" y="-988.5" font-family="Helvetica,sans-Serif" font-size="10.00">+ Descriptor()</text>
<text text-anchor="start" x="209.163" y="-977.5" font-family="Helvetica,sans-Serif" font-size="10.00">+ Descriptor()</text>
<text text-anchor="start" x="209.163" y="-966.5" font-family="Helvetica,sans-Serif" font-size="10.00">+ Descriptor()</text>
<text text-anchor="start" x="209.163" y="-955.5" font-family="Helvetica,sans-Serif" font-size="10.00">+ operator=()</text>
<text text-anchor="start" x="209.163" y="-944.5" font-family="Helvetica,sans-Serif" font-size="10.00">+ operator ItgType()</text>
<text text-anchor="start" x="209.163" y="-933.5" font-family="Helvetica,sans-Serif" font-size="10.00">+ Descriptor()</text>
<text text-anchor="start" x="209.163" y="-922.5" font-family="Helvetica,sans-Serif" font-size="10.00">+ runtimeInit()</text>
<text text-anchor="start" x="209.163" y="-911.5" font-family="Helvetica,sans-Serif" font-size="10.00">+ operator==()</text>
<text text-anchor="start" x="209.163" y="-900.5" font-family="Helvetica,sans-Serif" font-size="10.00">+ operator!=()</text>
<text text-anchor="start" x="209.163" y="-889.5" font-family="Helvetica,sans-Serif" font-size="10.00">+ operator==()</text>
<text text-anchor="start" x="209.163" y="-878.5" font-family="Helvetica,sans-Serif" font-size="10.00">+ operator!=()</text>
<text text-anchor="start" x="209.163" y="-867.5" font-family="Helvetica,sans-Serif" font-size="10.00">+ print()</text>
</a>
</g>
</g>
<!-- Node8&#45;&gt;Node12 -->
<g id="edge12" class="edge"><title>Node8&#45;&gt;Node12</title>
<path fill="none" stroke="#404040" d="M239.059,-1121.21C238.956,-1105.56 239.22,-1085.66 240.663,-1068 240.831,-1065.94 241.013,-1063.87 241.209,-1061.78"/>
<polygon fill="none" stroke="#404040" points="241.225,-1061.63 237.867,-1055.25 242.466,-1049.69 245.824,-1056.07 241.225,-1061.63"/>
<text text-anchor="middle" x="250.663" y="-1082.5" font-family="Helvetica,sans-Serif" font-size="10.00"> +itg</text>
</g>
<!-- Node13 -->
<g id="node13" class="node"><title>Node13</title>
<g id="a_node13"><a xlink:href="../../d9/db3/structo2_1_1header_1_1Descriptor.html" target="_top" xlink:title="{o2::header::Descriptor\l\&lt; gSizeSerializationMethodString \&gt;\n||+ Descriptor()\l+ Descriptor()\l+ Descriptor()\l+ Descriptor()\l+ operator=()\l+ operator ItgType()\l+ runtimeInit()\l+ operator==()\l+ operator==()\l+ operator!=()\l+ operator!=()\l+ print()\l}">
<polygon fill="none" stroke="black" points="169.663,-612.5 169.663,-801.5 339.663,-801.5 339.663,-612.5 169.663,-612.5"/>
<text text-anchor="start" x="177.663" y="-789.5" font-family="Helvetica,sans-Serif" font-size="10.00">o2::header::Descriptor</text>
<text text-anchor="middle" x="254.663" y="-778.5" font-family="Helvetica,sans-Serif" font-size="10.00">&lt; gSizeSerializationMethodString &gt;</text>
<polyline fill="none" stroke="black" points="169.663,-771.5 339.663,-771.5 "/>
<text text-anchor="middle" x="254.663" y="-759.5" font-family="Helvetica,sans-Serif" font-size="10.00"> </text>
<polyline fill="none" stroke="black" points="169.663,-752.5 339.663,-752.5 "/>
<text text-anchor="start" x="177.663" y="-740.5" font-family="Helvetica,sans-Serif" font-size="10.00">+ Descriptor()</text>
<text text-anchor="start" x="177.663" y="-729.5" font-family="Helvetica,sans-Serif" font-size="10.00">+ Descriptor()</text>
<text text-anchor="start" x="177.663" y="-718.5" font-family="Helvetica,sans-Serif" font-size="10.00">+ Descriptor()</text>
<text text-anchor="start" x="177.663" y="-707.5" font-family="Helvetica,sans-Serif" font-size="10.00">+ Descriptor()</text>
<text text-anchor="start" x="177.663" y="-696.5" font-family="Helvetica,sans-Serif" font-size="10.00">+ operator=()</text>
<text text-anchor="start" x="177.663" y="-685.5" font-family="Helvetica,sans-Serif" font-size="10.00">+ operator ItgType()</text>
<text text-anchor="start" x="177.663" y="-674.5" font-family="Helvetica,sans-Serif" font-size="10.00">+ runtimeInit()</text>
<text text-anchor="start" x="177.663" y="-663.5" font-family="Helvetica,sans-Serif" font-size="10.00">+ operator==()</text>
<text text-anchor="start" x="177.663" y="-652.5" font-family="Helvetica,sans-Serif" font-size="10.00">+ operator==()</text>
<text text-anchor="start" x="177.663" y="-641.5" font-family="Helvetica,sans-Serif" font-size="10.00">+ operator!=()</text>
<text text-anchor="start" x="177.663" y="-630.5" font-family="Helvetica,sans-Serif" font-size="10.00">+ operator!=()</text>
<text text-anchor="start" x="177.663" y="-619.5" font-family="Helvetica,sans-Serif" font-size="10.00">+ print()</text>
</a>
</g>
</g>
<!-- Node8&#45;&gt;Node13 -->
<g id="edge20" class="edge"><title>Node8&#45;&gt;Node13</title>
<path fill="none" stroke="#404040" d="M220.478,-1140.2C205.817,-1132.38 186.505,-1119.48 176.663,-1102 152.928,-1059.85 138.982,-988.04 171.663,-860 175.702,-844.176 181.763,-828.224 188.807,-812.911"/>
<polygon fill="none" stroke="#404040" points="188.906,-812.705 187.894,-805.565 194.095,-801.885 195.107,-809.025 188.906,-812.705"/>
<text text-anchor="middle" x="181.663" y="-952.5" font-family="Helvetica,sans-Serif" font-size="10.00"> +itg</text>
</g>
<!-- Node9 -->
<g id="node9" class="node"><title>Node9</title>
<polygon fill="none" stroke="#bfbfbf" points="59.1628,-1121.5 59.1628,-1178.5 94.1628,-1178.5 94.1628,-1121.5 59.1628,-1121.5"/>
<text text-anchor="middle" x="76.6628" y="-1166.5" font-family="Helvetica,sans-Serif" font-size="10.00">char</text>
<polyline fill="none" stroke="#bfbfbf" points="59.1628,-1159.5 94.1628,-1159.5 "/>
<text text-anchor="middle" x="76.6628" y="-1147.5" font-family="Helvetica,sans-Serif" font-size="10.00"> </text>
<polyline fill="none" stroke="#bfbfbf" points="59.1628,-1140.5 94.1628,-1140.5 "/>
<text text-anchor="middle" x="76.6628" y="-1128.5" font-family="Helvetica,sans-Serif" font-size="10.00"> </text>
</g>
<!-- Node9&#45;&gt;Node6 -->
<g id="edge18" class="edge"><title>Node9&#45;&gt;Node6</title>
<path fill="none" stroke="#404040" d="M58.9152,-1123.42C54.7894,-1116.67 50.7166,-1109.24 47.6628,-1102 38.4098,-1080.05 38.8146,-1073.46 34.6628,-1050 16.7658,-948.883 -18.5864,-917.819 12.6628,-820 47.1891,-711.923 72.6575,-683.608 160.663,-612 176.099,-599.44 185.854,-606.088 201.663,-594 241.584,-563.475 228.015,-529.065 272.663,-506 327.078,-477.889 485.418,-509.595 556.864,-489.794"/>
<polygon fill="none" stroke="#404040" points="557.014,-489.742 561.376,-484 568.354,-485.818 563.992,-491.56 557.014,-489.742"/>
<text text-anchor="middle" x="43.1628" y="-828.5" font-family="Helvetica,sans-Serif" font-size="10.00"> +magicString</text>
</g>
<!-- Node9&#45;&gt;Node7 -->
<g id="edge8" class="edge"><title>Node9&#45;&gt;Node7</title>
<path fill="none" stroke="#404040" d="M78.3924,-1121.34C82.8858,-1057.31 96.7925,-901.17 127.663,-860 192.111,-774.048 406.411,-820.31 478.692,-803.498"/>
<polygon fill="none" stroke="#404040" points="479.081,-803.368 483.511,-797.678 490.467,-799.578 486.038,-805.269 479.081,-803.368"/>
<text text-anchor="middle" x="138.163" y="-952.5" font-family="Helvetica,sans-Serif" font-size="10.00"> +str</text>
</g>
<!-- Node9&#45;&gt;Node12 -->
<g id="edge13" class="edge"><title>Node9&#45;&gt;Node12</title>
<path fill="none" stroke="#404040" d="M94.3771,-1134.86C116.942,-1116.45 156.612,-1082.75 186.663,-1050 188.856,-1047.61 191.049,-1045.16 193.235,-1042.65"/>
<polygon fill="none" stroke="#404040" points="193.321,-1042.55 194.166,-1035.39 201.101,-1033.42 200.256,-1040.58 193.321,-1042.55"/>
<text text-anchor="middle" x="178.163" y="-1082.5" font-family="Helvetica,sans-Serif" font-size="10.00"> +str</text>
</g>
<!-- Node9&#45;&gt;Node13 -->
<g id="edge21" class="edge"><title>Node9&#45;&gt;Node13</title>
<path fill="none" stroke="#404040" d="M66.277,-1121.35C47.8003,-1067.24 15.3804,-945.212 62.6628,-860 86.2978,-817.405 117.137,-831.811 155.663,-802 157.098,-800.889 158.536,-799.761 159.975,-798.618"/>
<polygon fill="none" stroke="#404040" points="160.179,-798.451 162.298,-791.559 169.476,-790.864 167.356,-797.757 160.179,-798.451"/>
<text text-anchor="middle" x="73.1628" y="-952.5" font-family="Helvetica,sans-Serif" font-size="10.00"> +str</text>
</g>
<!-- Node10 -->
<g id="node10" class="node"><title>Node10</title>
<polygon fill="none" stroke="#bfbfbf" points="382.163,-1121.5 382.163,-1178.5 411.163,-1178.5 411.163,-1121.5 382.163,-1121.5"/>
<text text-anchor="middle" x="396.663" y="-1166.5" font-family="Helvetica,sans-Serif" font-size="10.00">int</text>
<polyline fill="none" stroke="#bfbfbf" points="382.163,-1159.5 411.163,-1159.5 "/>
<text text-anchor="middle" x="396.663" y="-1147.5" font-family="Helvetica,sans-Serif" font-size="10.00"> </text>
<polyline fill="none" stroke="#bfbfbf" points="382.163,-1140.5 411.163,-1140.5 "/>
<text text-anchor="middle" x="396.663" y="-1128.5" font-family="Helvetica,sans-Serif" font-size="10.00"> </text>
</g>
<!-- Node10&#45;&gt;Node7 -->
<g id="edge9" class="edge"><title>Node10&#45;&gt;Node7</title>
<path fill="none" stroke="#404040" d="M411.614,-1140.11C424.224,-1131.83 441.757,-1118.32 451.663,-1102 508.946,-1007.63 434.892,-943.018 507.663,-860 522.681,-842.867 541.465,-859.819 555.663,-842 562.411,-833.53 567.312,-823.761 570.812,-813.436"/>
<polygon fill="none" stroke="#404040" points="570.901,-813.122 568.7,-806.255 574.192,-801.582 576.393,-808.449 570.901,-813.122"/>
<text text-anchor="middle" x="533.163" y="-963.5" font-family="Helvetica,sans-Serif" font-size="10.00"> +arraySize</text>
<text text-anchor="middle" x="533.163" y="-952.5" font-family="Helvetica,sans-Serif" font-size="10.00">+size</text>
<text text-anchor="middle" x="533.163" y="-941.5" font-family="Helvetica,sans-Serif" font-size="10.00">+bitcount</text>
</g>
<!-- Node10&#45;&gt;Node12 -->
<g id="edge14" class="edge"><title>Node10&#45;&gt;Node12</title>
<path fill="none" stroke="#404040" d="M381.882,-1147.35C357.366,-1143.78 308.536,-1132.98 283.663,-1102 274.188,-1090.2 267.694,-1076.12 263.311,-1061.43"/>
<polygon fill="none" stroke="#404040" points="263.242,-1061.16 257.865,-1056.36 260.232,-1049.55 265.609,-1054.35 263.242,-1061.16"/>
<text text-anchor="middle" x="309.163" y="-1093.5" font-family="Helvetica,sans-Serif" font-size="10.00"> +arraySize</text>
<text text-anchor="middle" x="309.163" y="-1082.5" font-family="Helvetica,sans-Serif" font-size="10.00">+size</text>
<text text-anchor="middle" x="309.163" y="-1071.5" font-family="Helvetica,sans-Serif" font-size="10.00">+bitcount</text>
</g>
<!-- Node10&#45;&gt;Node13 -->
<g id="edge22" class="edge"><title>Node10&#45;&gt;Node13</title>
<path fill="none" stroke="#404040" d="M396.032,-1121.42C394.678,-1105.1 391.201,-1084.47 382.663,-1068 377.456,-1057.96 369.617,-1060.17 364.663,-1050 319.568,-957.422 374.53,-915.762 336.663,-820 335.673,-817.496 334.613,-814.998 333.491,-812.509"/>
<polygon fill="none" stroke="#404040" points="333.465,-812.455 327.239,-808.817 328.203,-801.671 334.429,-805.309 333.465,-812.455"/>
<text text-anchor="middle" x="390.163" y="-963.5" font-family="Helvetica,sans-Serif" font-size="10.00"> +arraySize</text>
<text text-anchor="middle" x="390.163" y="-952.5" font-family="Helvetica,sans-Serif" font-size="10.00">+size</text>
<text text-anchor="middle" x="390.163" y="-941.5" font-family="Helvetica,sans-Serif" font-size="10.00">+bitcount</text>
</g>
<!-- Node11 -->
<g id="node11" class="node"><title>Node11</title>
<polygon fill="none" stroke="#bfbfbf" points="627.163,-1121 627.163,-1179 656.163,-1179 656.163,-1121 627.163,-1121"/>
<polyline fill="none" stroke="#bfbfbf" points="627.163,-1159 656.163,-1159 "/>
<text text-anchor="middle" x="641.663" y="-1147" font-family="Helvetica,sans-Serif" font-size="10.00"> </text>
<polyline fill="none" stroke="#bfbfbf" points="627.163,-1140 656.163,-1140 "/>
<text text-anchor="middle" x="641.663" y="-1128" font-family="Helvetica,sans-Serif" font-size="10.00"> </text>
</g>
<!-- Node11&#45;&gt;Node6 -->
<g id="edge16" class="edge"><title>Node11&#45;&gt;Node6</title>
<path fill="none" stroke="#404040" d="M649.96,-1120.7C655.292,-1101.05 661.748,-1074.18 664.663,-1050 688.922,-848.773 669.329,-796.68 670.663,-594 670.92,-554.89 679.935,-543.996 670.663,-506 670.1,-503.692 669.456,-501.376 668.744,-499.062"/>
<polygon fill="none" stroke="#404040" points="668.672,-498.858 662.899,-494.537 664.666,-487.546 670.44,-491.867 668.672,-498.858"/>
<text text-anchor="middle" x="689.163" y="-828.5" font-family="Helvetica,sans-Serif" font-size="10.00"> +@5</text>
</g>
<!-- Node11&#45;&gt;Node6 -->
<g id="edge17" class="edge"><title>Node11&#45;&gt;Node6</title>
<path fill="none" stroke="#404040" d="M656.19,-1130.18C662.005,-1121.91 668.337,-1111.84 672.663,-1102 704.643,-1029.22 703.899,-878.773 705.663,-842 712.828,-692.624 738.279,-646.721 687.663,-506 686.75,-503.463 685.729,-500.938 684.615,-498.432"/>
<polygon fill="none" stroke="#404040" points="684.564,-498.33 678.301,-494.754 679.193,-487.599 685.456,-491.174 684.564,-498.33"/>
<text text-anchor="middle" x="720.163" y="-828.5" font-family="Helvetica,sans-Serif" font-size="10.00"> +@7</text>
</g>
<!-- Node11&#45;&gt;Node7 -->
<g id="edge10" class="edge"><title>Node11&#45;&gt;Node7</title>
<path fill="none" stroke="#404040" d="M640.178,-1120.59C636.826,-1063.29 627.224,-929.951 605.663,-820 605.236,-817.825 604.788,-815.631 604.319,-813.423"/>
<polygon fill="none" stroke="#404040" points="604.276,-813.229 599.058,-808.251 601.645,-801.521 606.863,-806.498 604.276,-813.229"/>
<text text-anchor="middle" x="648.163" y="-952.5" font-family="Helvetica,sans-Serif" font-size="10.00"> +@3</text>
</g>
<!-- Node11&#45;&gt;Node12 -->
<g id="edge15" class="edge"><title>Node11&#45;&gt;Node12</title>
<path fill="none" stroke="#404040" d="M626.864,-1147.53C579.36,-1142.17 428.041,-1120.22 328.663,-1050 326.94,-1048.78 325.241,-1047.51 323.567,-1046.19"/>
<polygon fill="none" stroke="#404040" points="323.335,-1045.99 316.18,-1045.1 314.25,-1038.15 321.406,-1039.04 323.335,-1045.99"/>
<text text-anchor="middle" x="436.163" y="-1082.5" font-family="Helvetica,sans-Serif" font-size="10.00"> +@3</text>
</g>
<!-- Node11&#45;&gt;Node13 -->
<g id="edge23" class="edge"><title>Node11&#45;&gt;Node13</title>
<path fill="none" stroke="#404040" d="M626.944,-1128.89C613.643,-1109.64 594.665,-1079.28 584.663,-1050 550.75,-950.732 621.741,-873.761 531.663,-820 462.245,-778.57 423.907,-836.214 350.663,-802 350.547,-801.946 350.432,-801.892 350.316,-801.837"/>
<polygon fill="none" stroke="#404040" points="350.354,-801.858 343.18,-802.586 339.748,-796.244 346.922,-795.515 350.354,-801.858"/>
<text text-anchor="middle" x="597.163" y="-952.5" font-family="Helvetica,sans-Serif" font-size="10.00"> +@3</text>
</g>
<!-- Node12&#45;&gt;Node5 -->
<g id="edge32" class="edge"><title>Node12&#45;&gt;Node5</title>
<path fill="none" stroke="#404040" d="M201.111,-867.357C180.568,-835.525 161.996,-806.155 160.663,-802 120.45,-676.646 102.213,-628.798 149.663,-506 180.395,-426.466 203.995,-405.168 278.663,-364 368.374,-314.538 403.975,-336.417 505.663,-324 560.311,-317.327 699.428,-332.109 765.845,-305.395"/>
<polygon fill="none" stroke="#404040" points="766.142,-305.255 769.854,-299.073 776.988,-300.121 773.276,-306.303 766.142,-305.255"/>
<text text-anchor="middle" x="198.163" y="-553" font-family="Helvetica,sans-Serif" font-size="10.00"> +sHeaderType</text>
<text text-anchor="middle" x="198.163" y="-542" font-family="Helvetica,sans-Serif" font-size="10.00">+sSerializationMethod</text>
</g>
<!-- Node12&#45;&gt;Node6 -->
<g id="edge26" class="edge"><title>Node12&#45;&gt;Node6</title>
<path fill="none" stroke="#404040" d="M314.346,-887.371C324.34,-873.096 333.743,-857.596 340.663,-842 382.871,-746.867 329.764,-700.419 384.663,-612 426.262,-545.001 501.62,-493.649 557.816,-462.238"/>
<polygon fill="none" stroke="#404040" points="557.908,-462.187 561.244,-455.794 568.428,-456.414 565.092,-462.808 557.908,-462.187"/>
<text text-anchor="middle" x="433.163" y="-710" font-family="Helvetica,sans-Serif" font-size="10.00"> +sHeaderType</text>
<text text-anchor="middle" x="433.163" y="-699" font-family="Helvetica,sans-Serif" font-size="10.00">+sSerializationMethod</text>
</g>
<!-- Node12&#45;&gt;Node7 -->
<g id="edge11" class="edge"><title>Node12&#45;&gt;Node7</title>
<path fill="none" stroke="orange" d="M322.191,-864.882C324.309,-863.175 326.466,-861.543 328.663,-860 350.748,-844.485 363.403,-855.692 386.663,-842 398.853,-834.824 397.337,-826.94 409.663,-820 436.53,-804.872 449.845,-817.216 476.663,-802 481.354,-799.338 485.985,-796.396 490.529,-793.246"/>
<polygon fill="orange" stroke="orange" points="319.471,-862.61 314.228,-871.816 324.068,-867.889 319.471,-862.61"/>
<text text-anchor="start" x="409.663" y="-834" font-family="Helvetica,sans-Serif" font-size="10.00"> &lt; gSizeHeaderDescription</text>
<text text-anchor="middle" x="468.663" y="-823" font-family="Helvetica,sans-Serif" font-size="10.00">String &gt;</text>
</g>
<!-- Node12&#45;&gt;Node13 -->
<g id="edge24" class="edge"><title>Node12&#45;&gt;Node13</title>
<path fill="none" stroke="orange" d="M215.477,-850.565C214.808,-847.697 214.2,-844.838 213.663,-842 211.173,-828.853 211.645,-815.17 213.922,-801.788"/>
<polygon fill="orange" stroke="orange" points="212.108,-851.517 217.974,-860.339 218.89,-849.784 212.108,-851.517"/>
<text text-anchor="start" x="213.663" y="-834" font-family="Helvetica,sans-Serif" font-size="10.00"> &lt; gSizeSerializationMethod</text>
<text text-anchor="middle" x="275.163" y="-823" font-family="Helvetica,sans-Serif" font-size="10.00">String &gt;</text>
</g>
<!-- Node13&#45;&gt;Node5 -->
<g id="edge30" class="edge"><title>Node13&#45;&gt;Node5</title>
<path fill="none" stroke="#404040" d="M248.996,-612.493C250.415,-577.507 256.43,-538.42 272.663,-506 314.935,-421.577 345.7,-405.176 430.663,-364 495.974,-332.348 684.86,-344.515 766.031,-305.55"/>
<polygon fill="none" stroke="#404040" points="766.212,-305.451 769.563,-299.066 776.746,-299.703 773.395,-306.088 766.212,-305.451"/>
<text text-anchor="middle" x="495.163" y="-423.5" font-family="Helvetica,sans-Serif" font-size="10.00"> +payloadSerializationMethod</text>
</g>
<!-- Node13&#45;&gt;Node6 -->
<g id="edge19" class="edge"><title>Node13&#45;&gt;Node6</title>
<path fill="none" stroke="#404040" d="M271.475,-612.24C280.941,-564.141 292.47,-513.961 300.663,-506 329.918,-477.572 350.887,-497.047 390.663,-488 446.672,-475.261 509.601,-459.125 556.823,-446.649"/>
<polygon fill="none" stroke="#404040" points="556.876,-446.635 561.651,-441.231 568.476,-443.56 563.701,-448.964 556.876,-446.635"/>
<text text-anchor="middle" x="331.163" y="-547.5" font-family="Helvetica,sans-Serif" font-size="10.00"> +serialization</text>
</g>
<!-- Node14 -->
<g id="node14" class="node"><title>Node14</title>
<polygon fill="none" stroke="#bfbfbf" points="781.163,-678.5 781.163,-735.5 832.163,-735.5 832.163,-678.5 781.163,-678.5"/>
<text text-anchor="middle" x="806.663" y="-723.5" font-family="Helvetica,sans-Serif" font-size="10.00">uint32_t</text>
<polyline fill="none" stroke="#bfbfbf" points="781.163,-716.5 832.163,-716.5 "/>
<text text-anchor="middle" x="806.663" y="-704.5" font-family="Helvetica,sans-Serif" font-size="10.00"> </text>
<polyline fill="none" stroke="#bfbfbf" points="781.163,-697.5 832.163,-697.5 "/>
<text text-anchor="middle" x="806.663" y="-685.5" font-family="Helvetica,sans-Serif" font-size="10.00"> </text>
</g>
<!-- Node14&#45;&gt;Node5 -->
<g id="edge31" class="edge"><title>Node14&#45;&gt;Node5</title>
<path fill="none" stroke="#404040" d="M811.734,-678.492C815.685,-655.885 820.941,-622.98 823.663,-594 832.409,-500.864 835.768,-394.477 837.021,-317.669"/>
<polygon fill="none" stroke="#404040" points="837.022,-317.601 833.114,-311.541 837.204,-305.602 841.113,-311.663 837.022,-317.601"/>
<text text-anchor="middle" x="860.163" y="-429" font-family="Helvetica,sans-Serif" font-size="10.00"> +reserved</text>
<text text-anchor="middle" x="860.163" y="-418" font-family="Helvetica,sans-Serif" font-size="10.00">+sVersion</text>
</g>
<!-- Node14&#45;&gt;Node6 -->
<g id="edge25" class="edge"><title>Node14&#45;&gt;Node6</title>
<path fill="none" stroke="#404040" d="M788.523,-678.462C774.641,-656.382 755.866,-624.2 743.663,-594 728.518,-556.519 741.99,-540.341 720.663,-506 714.827,-496.603 707.519,-487.717 699.597,-479.533"/>
<polygon fill="none" stroke="#404040" points="699.383,-479.323 692.296,-477.99 690.8,-470.936 697.887,-472.269 699.383,-479.323"/>
<text text-anchor="middle" x="783.663" y="-586" font-family="Helvetica,sans-Serif" font-size="10.00"> +headerVersion</text>
<text text-anchor="middle" x="783.663" y="-575" font-family="Helvetica,sans-Serif" font-size="10.00">+headerSize</text>
<text text-anchor="middle" x="783.663" y="-564" font-family="Helvetica,sans-Serif" font-size="10.00">+sMagicString</text>
<text text-anchor="middle" x="783.663" y="-553" font-family="Helvetica,sans-Serif" font-size="10.00">+flagsNextHeader</text>
<text text-anchor="middle" x="783.663" y="-542" font-family="Helvetica,sans-Serif" font-size="10.00">+magicStringInt</text>
<text text-anchor="middle" x="783.663" y="-531" font-family="Helvetica,sans-Serif" font-size="10.00">+flagsUnused</text>
<text text-anchor="middle" x="783.663" y="-520" font-family="Helvetica,sans-Serif" font-size="10.00">+flags</text>
<text text-anchor="middle" x="783.663" y="-509" font-family="Helvetica,sans-Serif" font-size="10.00">+sVersion</text>
</g>
<!-- Node15 -->
<g id="node15" class="node"><title>Node15</title>
<polygon fill="none" stroke="#bfbfbf" points="903.163,-397.5 903.163,-454.5 954.163,-454.5 954.163,-397.5 903.163,-397.5"/>
<text text-anchor="middle" x="928.663" y="-442.5" font-family="Helvetica,sans-Serif" font-size="10.00">uint64_t</text>
<polyline fill="none" stroke="#bfbfbf" points="903.163,-435.5 954.163,-435.5 "/>
<text text-anchor="middle" x="928.663" y="-423.5" font-family="Helvetica,sans-Serif" font-size="10.00"> </text>
<polyline fill="none" stroke="#bfbfbf" points="903.163,-416.5 954.163,-416.5 "/>
<text text-anchor="middle" x="928.663" y="-404.5" font-family="Helvetica,sans-Serif" font-size="10.00"> </text>
</g>
<!-- Node15&#45;&gt;Node5 -->
<g id="edge27" class="edge"><title>Node15&#45;&gt;Node5</title>
<path fill="none" stroke="#404040" d="M916.766,-397.154C907.88,-376.356 895.132,-346.515 882.456,-316.846"/>
<polygon fill="none" stroke="#404040" points="882.324,-316.537 876.289,-312.591 877.61,-305.502 883.645,-309.448 882.324,-316.537"/>
<text text-anchor="middle" x="934.163" y="-338" font-family="Helvetica,sans-Serif" font-size="10.00"> +payloadSize</text>
<text text-anchor="middle" x="934.163" y="-327" font-family="Helvetica,sans-Serif" font-size="10.00">+subSpecification</text>
</g>
<!-- Node16 -->
<g id="node16" class="node"><title>Node16</title>
<polygon fill="none" stroke="#bfbfbf" points="972.663,-392 972.663,-460 1114.66,-460 1114.66,-392 972.663,-392"/>
<text text-anchor="start" x="980.663" y="-448" font-family="Helvetica,sans-Serif" font-size="10.00">Descriptor&lt; gSizeDataOrigin</text>
<text text-anchor="middle" x="1043.66" y="-437" font-family="Helvetica,sans-Serif" font-size="10.00">String, printDataOrigin &gt;</text>
<polyline fill="none" stroke="#bfbfbf" points="972.663,-430 1114.66,-430 "/>
<text text-anchor="middle" x="1043.66" y="-418" font-family="Helvetica,sans-Serif" font-size="10.00"> </text>
<polyline fill="none" stroke="#bfbfbf" points="972.663,-411 1114.66,-411 "/>
<text text-anchor="middle" x="1043.66" y="-399" font-family="Helvetica,sans-Serif" font-size="10.00"> </text>
</g>
<!-- Node16&#45;&gt;Node5 -->
<g id="edge28" class="edge"><title>Node16&#45;&gt;Node5</title>
<path fill="none" stroke="#404040" d="M1025.57,-391.739C1013.48,-371.077 996.395,-344.621 977.663,-324 957.061,-301.32 931.603,-279.522 908.069,-261.281"/>
<polygon fill="none" stroke="#404040" points="908.007,-261.234 900.811,-260.772 898.469,-253.951 905.666,-254.413 908.007,-261.234"/>
<text text-anchor="middle" x="1021.66" y="-332.5" font-family="Helvetica,sans-Serif" font-size="10.00"> +dataOrigin</text>
</g>
<!-- Node17 -->
<g id="node17" class="node"><title>Node17</title>
<polygon fill="none" stroke="#bfbfbf" points="1132.66,-392 1132.66,-460 1298.66,-460 1298.66,-392 1132.66,-392"/>
<text text-anchor="start" x="1140.66" y="-448" font-family="Helvetica,sans-Serif" font-size="10.00">Descriptor&lt; gSizeDataDescription</text>
<text text-anchor="middle" x="1215.66" y="-437" font-family="Helvetica,sans-Serif" font-size="10.00">String, printDataDescription &gt;</text>
<polyline fill="none" stroke="#bfbfbf" points="1132.66,-430 1298.66,-430 "/>
<text text-anchor="middle" x="1215.66" y="-418" font-family="Helvetica,sans-Serif" font-size="10.00"> </text>
<polyline fill="none" stroke="#bfbfbf" points="1132.66,-411 1298.66,-411 "/>
<text text-anchor="middle" x="1215.66" y="-399" font-family="Helvetica,sans-Serif" font-size="10.00"> </text>
</g>
<!-- Node17&#45;&gt;Node5 -->
<g id="edge29" class="edge"><title>Node17&#45;&gt;Node5</title>
<path fill="none" stroke="#404040" d="M1166.91,-391.727C1153.06,-382.538 1137.88,-372.704 1123.66,-364 1052.59,-320.495 967.958,-276.421 909.286,-247.016"/>
<polygon fill="none" stroke="#404040" points="909.011,-246.879 901.856,-247.777 898.276,-241.518 905.431,-240.62 909.011,-246.879"/>
<text text-anchor="middle" x="1132.66" y="-332.5" font-family="Helvetica,sans-Serif" font-size="10.00"> +dataDescription</text>
</g>
</g>
</svg>
        <g id="navigator" transform="translate(0 0)" fill="#404254">
                <rect fill="#f2f5e9" fill-opacity="0.5" stroke="#606060" stroke-width=".5" x="0" y="0" width="60" height="60"/>
                <use id="zoomplus" xlink:href="#zoomPlus" x="17" y="9" onmousedown="handleZoom(evt,'in')"/>
                <use id="zoomminus" xlink:href="#zoomMin" x="42" y="9" onmousedown="handleZoom(evt,'out')"/>
                <use id="reset" xlink:href="#resetDef" x="30" y="36" onmousedown="handleReset()"/>
                <g id="arrowUp" xlink:href="#dirArrow" transform="translate(30 24)" onmousedown="handlePan(0,-1)">
                  <use xlink:href="#rim" fill="#404040">
                        <set attributeName="fill" to="#808080" begin="arrowUp.mouseover" end="arrowUp.mouseout"/>
                  </use>
                  <path fill="none" stroke="white" stroke-width="1.5" d="M0,-3.0v7 M-2.5,-0.5L0,-3.0L2.5,-0.5"/>
                </g>
                <g id="arrowRight" xlink:href="#dirArrow" transform="rotate(90) translate(36 -43)" onmousedown="handlePan(1,0)">
                  <use xlink:href="#rim" fill="#404040">
                        <set attributeName="fill" to="#808080" begin="arrowRight.mouseover" end="arrowRight.mouseout"/>
                  </use>
                  <path fill="none" stroke="white" stroke-width="1.5" d="M0,-3.0v7 M-2.5,-0.5L0,-3.0L2.5,-0.5"/>
                </g>
                <g id="arrowDown" xlink:href="#dirArrow" transform="rotate(180) translate(-30 -48)" onmousedown="handlePan(0,1)">
                  <use xlink:href="#rim" fill="#404040">
                        <set attributeName="fill" to="#808080" begin="arrowDown.mouseover" end="arrowDown.mouseout"/>
                  </use>
                  <path fill="none" stroke="white" stroke-width="1.5" d="M0,-3.0v7 M-2.5,-0.5L0,-3.0L2.5,-0.5"/>
                </g>
                <g id="arrowLeft" xlink:href="#dirArrow" transform="rotate(270) translate(-36 17)" onmousedown="handlePan(-1,0)">
                  <use xlink:href="#rim" fill="#404040">
                        <set attributeName="fill" to="#808080" begin="arrowLeft.mouseover" end="arrowLeft.mouseout"/>
                  </use>
                  <path fill="none" stroke="white" stroke-width="1.5" d="M0,-3.0v7 M-2.5,-0.5L0,-3.0L2.5,-0.5"/>
                </g>
        </g>
        <svg viewBox="0 0 15 15" width="100%" height="30px" preserveAspectRatio="xMaxYMin meet">
         <g id="arrow_out" transform="scale(0.3 0.3)">
          <a xlink:href="structo2_1_1DataFlow_1_1StreamingState__coll__graph_org.svg" target="_base">
           <rect id="button" ry="5" rx="5" y="6" x="6" height="38" width="38"
                fill="#f2f5e9" fill-opacity="0.5" stroke="#606060" stroke-width="1.0"/>
           <path id="arrow"
             d="M 11.500037,31.436501 C 11.940474,20.09759 22.043105,11.32322 32.158766,21.979434 L 37.068811,17.246167 C 37.068811,17.246167 37.088388,32 37.088388,32 L 22.160133,31.978069 C 22.160133,31.978069 26.997745,27.140456 26.997745,27.140456 C 18.528582,18.264221 13.291696,25.230495 11.500037,31.436501 z"
             style="fill:#404040;"/>
          </a>
         </g>
        </svg>
</svg>
