<?xml version="1.0" encoding="UTF-8" standalone="no"?>
<!DOCTYPE svg PUBLIC "-//W3C//DTD SVG 1.1//EN"
 "http://www.w3.org/Graphics/SVG/1.1/DTD/svg11.dtd">
<!-- Generated by graphviz version 2.36.0 (20140111.2315)
 -->
<!-- Title: /home/travis/build/AliceO2Group/AliceO2/Detectors/Base/src/GeometryManager.cxx Pages: 1 -->
<svg width="1696pt" height="310pt"
 viewBox="0.00 0.00 1696.00 310.00" xmlns="http://www.w3.org/2000/svg" xmlns:xlink="http://www.w3.org/1999/xlink">
<g id="graph0" class="graph" transform="scale(1 1) rotate(0) translate(4 306)">
<title>/home/travis/build/AliceO2Group/AliceO2/Detectors/Base/src/GeometryManager.cxx</title>
<!-- Node1 -->
<g id="node1" class="node"><title>Node1</title>
<polygon fill="#bfbfbf" stroke="black" points="1028,-249 1028,-301 1178,-301 1178,-249 1028,-249"/>
<text text-anchor="start" x="1036" y="-289" font-family="Helvetica,sans-Serif" font-size="10.00">/home/travis/build</text>
<text text-anchor="start" x="1036" y="-278" font-family="Helvetica,sans-Serif" font-size="10.00">/AliceO2Group/AliceO2</text>
<text text-anchor="start" x="1036" y="-267" font-family="Helvetica,sans-Serif" font-size="10.00">/Detectors/Base/src/Geometry</text>
<text text-anchor="middle" x="1103" y="-256" font-family="Helvetica,sans-Serif" font-size="10.00">Manager.cxx</text>
</g>
<!-- Node2 -->
<g id="node2" class="node"><title>Node2</title>
<g id="a_node2"><a xlink:href="../../db/dcc/Detectors_2Base_2include_2DetectorsBase_2GeometryManager_8h.html" target="_top" xlink:title="DetectorsBase/GeometryManager.h">
<polygon fill="none" stroke="black" points="575.5,-192.5 575.5,-211.5 748.5,-211.5 748.5,-192.5 575.5,-192.5"/>
<text text-anchor="middle" x="662" y="-199.5" font-family="Helvetica,sans-Serif" font-size="10.00">DetectorsBase/GeometryManager.h</text>
</a>
</g>
</g>
<!-- Node1&#45;&gt;Node2 -->
<g id="edge1" class="edge"><title>Node1&#45;&gt;Node2</title>
<path fill="none" stroke="midnightblue" d="M1027.94,-261.916C942.585,-248.174 804.744,-225.981 724.832,-213.116"/>
<polygon fill="midnightblue" stroke="midnightblue" points="725.334,-209.652 714.905,-211.518 724.221,-216.563 725.334,-209.652"/>
</g>
<!-- Node5 -->
<g id="node5" class="node"><title>Node5</title>
<polygon fill="none" stroke="#bfbfbf" points="111,-136.5 111,-155.5 221,-155.5 221,-136.5 111,-136.5"/>
<text text-anchor="middle" x="166" y="-143.5" font-family="Helvetica,sans-Serif" font-size="10.00">TGeoPhysicalNode.h</text>
</g>
<!-- Node1&#45;&gt;Node5 -->
<g id="edge35" class="edge"><title>Node1&#45;&gt;Node5</title>
<path fill="none" stroke="midnightblue" d="M1027.71,-266.415C923.709,-255.685 730.3,-234.822 566,-212 443.954,-195.047 301.686,-170.868 223.986,-157.285"/>
<polygon fill="midnightblue" stroke="midnightblue" points="224.372,-153.799 213.918,-155.521 223.164,-160.694 224.372,-153.799"/>
</g>
<!-- Node8 -->
<g id="node8" class="node"><title>Node8</title>
<polygon fill="none" stroke="#bfbfbf" points="1020.5,-136.5 1020.5,-155.5 1079.5,-155.5 1079.5,-136.5 1020.5,-136.5"/>
<text text-anchor="middle" x="1050" y="-143.5" font-family="Helvetica,sans-Serif" font-size="10.00">TObject.h</text>
</g>
<!-- Node1&#45;&gt;Node8 -->
<g id="edge37" class="edge"><title>Node1&#45;&gt;Node8</title>
<path fill="none" stroke="midnightblue" d="M1092.53,-248.909C1082.21,-224.184 1066.7,-187.015 1057.54,-165.061"/>
<polygon fill="midnightblue" stroke="midnightblue" points="1060.68,-163.508 1053.6,-155.628 1054.22,-166.204 1060.68,-163.508"/>
</g>
<!-- Node13 -->
<g id="node13" class="node"><title>Node13</title>
<polygon fill="none" stroke="#bfbfbf" points="372.5,-74.5 372.5,-93.5 421.5,-93.5 421.5,-74.5 372.5,-74.5"/>
<text text-anchor="middle" x="397" y="-81.5" font-family="Helvetica,sans-Serif" font-size="10.00">cassert</text>
</g>
<!-- Node1&#45;&gt;Node13 -->
<g id="edge38" class="edge"><title>Node1&#45;&gt;Node13</title>
<path fill="none" stroke="midnightblue" d="M1053.23,-248.897C974.438,-209.161 829.745,-136.213 829,-136 658.227,-87.1919 602.964,-144.432 431,-100 428.339,-99.3125 425.623,-98.4386 422.943,-97.4593"/>
<polygon fill="midnightblue" stroke="midnightblue" points="424.139,-94.167 413.56,-93.5954 421.474,-100.64 424.139,-94.167"/>
</g>
<!-- Node24 -->
<g id="node24" class="node"><title>Node24</title>
<polygon fill="none" stroke="#bfbfbf" points="1612,-74.5 1612,-93.5 1688,-93.5 1688,-74.5 1612,-74.5"/>
<text text-anchor="middle" x="1650" y="-81.5" font-family="Helvetica,sans-Serif" font-size="10.00">TGeoMatrix.h</text>
</g>
<!-- Node1&#45;&gt;Node24 -->
<g id="edge33" class="edge"><title>Node1&#45;&gt;Node24</title>
<path fill="none" stroke="midnightblue" d="M1102.04,-248.642C1102.78,-230.376 1106.94,-206.488 1122,-192 1278.85,-41.103 1392.06,-153.628 1603,-100 1607.11,-98.9553 1611.39,-97.7539 1615.61,-96.4952"/>
<polygon fill="midnightblue" stroke="midnightblue" points="1616.76,-99.803 1625.28,-93.5017 1614.69,-93.1162 1616.76,-99.803"/>
</g>
<!-- Node31 -->
<g id="node31" class="node"><title>Node31</title>
<polygon fill="none" stroke="#bfbfbf" points="1131,-192.5 1131,-211.5 1205,-211.5 1205,-192.5 1131,-192.5"/>
<text text-anchor="middle" x="1168" y="-199.5" font-family="Helvetica,sans-Serif" font-size="10.00">TCollection.h</text>
</g>
<!-- Node1&#45;&gt;Node31 -->
<g id="edge32" class="edge"><title>Node1&#45;&gt;Node31</title>
<path fill="none" stroke="midnightblue" d="M1126.1,-248.768C1135.06,-238.982 1145.06,-228.056 1153.05,-219.335"/>
<polygon fill="midnightblue" stroke="midnightblue" points="1155.81,-221.496 1159.98,-211.757 1150.65,-216.77 1155.81,-221.496"/>
</g>
<!-- Node32 -->
<g id="node32" class="node"><title>Node32</title>
<polygon fill="none" stroke="#bfbfbf" points="1223,-192.5 1223,-211.5 1295,-211.5 1295,-192.5 1223,-192.5"/>
<text text-anchor="middle" x="1259" y="-199.5" font-family="Helvetica,sans-Serif" font-size="10.00">TGeoNode.h</text>
</g>
<!-- Node1&#45;&gt;Node32 -->
<g id="edge34" class="edge"><title>Node1&#45;&gt;Node32</title>
<path fill="none" stroke="midnightblue" d="M1158,-248.968C1182.58,-237.783 1210.5,-225.075 1230.74,-215.86"/>
<polygon fill="midnightblue" stroke="midnightblue" points="1232.37,-218.967 1240.02,-211.639 1229.47,-212.596 1232.37,-218.967"/>
</g>
<!-- Node33 -->
<g id="node33" class="node"><title>Node33</title>
<polygon fill="none" stroke="#bfbfbf" points="1313.5,-192.5 1313.5,-211.5 1382.5,-211.5 1382.5,-192.5 1313.5,-192.5"/>
<text text-anchor="middle" x="1348" y="-199.5" font-family="Helvetica,sans-Serif" font-size="10.00">TObjArray.h</text>
</g>
<!-- Node1&#45;&gt;Node33 -->
<g id="edge36" class="edge"><title>Node1&#45;&gt;Node33</title>
<path fill="none" stroke="midnightblue" d="M1178.17,-252.215C1221.32,-239.712 1273.72,-224.527 1308.8,-214.36"/>
<polygon fill="midnightblue" stroke="midnightblue" points="1310.03,-217.649 1318.66,-211.504 1308.08,-210.926 1310.03,-217.649"/>
</g>
<!-- Node34 -->
<g id="node34" class="node"><title>Node34</title>
<polygon fill="none" stroke="#bfbfbf" points="1400.5,-192.5 1400.5,-211.5 1449.5,-211.5 1449.5,-192.5 1400.5,-192.5"/>
<text text-anchor="middle" x="1425" y="-199.5" font-family="Helvetica,sans-Serif" font-size="10.00">cstddef</text>
</g>
<!-- Node1&#45;&gt;Node34 -->
<g id="edge39" class="edge"><title>Node1&#45;&gt;Node34</title>
<path fill="none" stroke="midnightblue" d="M1178.11,-258.833C1233.96,-247.322 1312.27,-230.699 1390.16,-212.116"/>
<polygon fill="midnightblue" stroke="midnightblue" points="1391.24,-215.456 1400.15,-209.721 1389.61,-208.649 1391.24,-215.456"/>
</g>
<!-- Node3 -->
<g id="node3" class="node"><title>Node3</title>
<polygon fill="none" stroke="#bfbfbf" points="467,-136.5 467,-155.5 553,-155.5 553,-136.5 467,-136.5"/>
<text text-anchor="middle" x="510" y="-143.5" font-family="Helvetica,sans-Serif" font-size="10.00">TGeoManager.h</text>
</g>
<!-- Node2&#45;&gt;Node3 -->
<g id="edge2" class="edge"><title>Node2&#45;&gt;Node3</title>
<path fill="none" stroke="midnightblue" d="M637.915,-192.444C612.455,-183.399 572.106,-169.064 543.541,-158.916"/>
<polygon fill="midnightblue" stroke="midnightblue" points="544.567,-155.566 533.972,-155.516 542.223,-162.162 544.567,-155.566"/>
</g>
<!-- Node4 -->
<g id="node4" class="node"><title>Node4</title>
<polygon fill="none" stroke="#bfbfbf" points="571.5,-136.5 571.5,-155.5 654.5,-155.5 654.5,-136.5 571.5,-136.5"/>
<text text-anchor="middle" x="613" y="-143.5" font-family="Helvetica,sans-Serif" font-size="10.00">TGeoMaterial.h</text>
</g>
<!-- Node2&#45;&gt;Node4 -->
<g id="edge3" class="edge"><title>Node2&#45;&gt;Node4</title>
<path fill="none" stroke="midnightblue" d="M653.909,-192.083C646.845,-184.298 636.412,-172.801 627.851,-163.367"/>
<polygon fill="midnightblue" stroke="midnightblue" points="630.253,-160.805 620.941,-155.751 625.069,-165.509 630.253,-160.805"/>
</g>
<!-- Node2&#45;&gt;Node5 -->
<g id="edge4" class="edge"><title>Node2&#45;&gt;Node5</title>
<path fill="none" stroke="midnightblue" d="M575.425,-192.904C490.435,-184.745 356.841,-171.359 231.32,-156.124"/>
<polygon fill="midnightblue" stroke="midnightblue" points="231.492,-152.619 221.141,-154.882 230.644,-159.568 231.492,-152.619"/>
</g>
<!-- Node6 -->
<g id="node6" class="node"><title>Node6</title>
<polygon fill="none" stroke="#bfbfbf" points="672.5,-136.5 672.5,-155.5 749.5,-155.5 749.5,-136.5 672.5,-136.5"/>
<text text-anchor="middle" x="711" y="-143.5" font-family="Helvetica,sans-Serif" font-size="10.00">TGeoShape.h</text>
</g>
<!-- Node2&#45;&gt;Node6 -->
<g id="edge5" class="edge"><title>Node2&#45;&gt;Node6</title>
<path fill="none" stroke="midnightblue" d="M670.091,-192.083C677.155,-184.298 687.588,-172.801 696.149,-163.367"/>
<polygon fill="midnightblue" stroke="midnightblue" points="698.931,-165.509 703.059,-155.751 693.747,-160.805 698.931,-165.509"/>
</g>
<!-- Node7 -->
<g id="node7" class="node"><title>Node7</title>
<polygon fill="none" stroke="#bfbfbf" points="767.5,-136.5 767.5,-155.5 820.5,-155.5 820.5,-136.5 767.5,-136.5"/>
<text text-anchor="middle" x="794" y="-143.5" font-family="Helvetica,sans-Serif" font-size="10.00">TMath.h</text>
</g>
<!-- Node2&#45;&gt;Node7 -->
<g id="edge6" class="edge"><title>Node2&#45;&gt;Node7</title>
<path fill="none" stroke="midnightblue" d="M682.916,-192.444C704.736,-183.517 739.15,-169.439 763.892,-159.317"/>
<polygon fill="midnightblue" stroke="midnightblue" points="765.252,-162.542 773.182,-155.516 762.601,-156.063 765.252,-162.542"/>
</g>
<!-- Node2&#45;&gt;Node8 -->
<g id="edge7" class="edge"><title>Node2&#45;&gt;Node8</title>
<path fill="none" stroke="midnightblue" d="M746.272,-192.489C814.826,-185.022 914.238,-172.962 1010.36,-155.953"/>
<polygon fill="midnightblue" stroke="midnightblue" points="1011.02,-159.39 1020.25,-154.183 1009.79,-152.499 1011.02,-159.39"/>
</g>
<!-- Node9 -->
<g id="node9" class="node"><title>Node9</title>
<g id="a_node9"><a xlink:href="../../d6/d31/DetID_8h.html" target="_top" xlink:title="DetectorsBase/DetID.h">
<polygon fill="none" stroke="black" points="239.5,-136.5 239.5,-155.5 358.5,-155.5 358.5,-136.5 239.5,-136.5"/>
<text text-anchor="middle" x="299" y="-143.5" font-family="Helvetica,sans-Serif" font-size="10.00">DetectorsBase/DetID.h</text>
</a>
</g>
</g>
<!-- Node2&#45;&gt;Node9 -->
<g id="edge8" class="edge"><title>Node2&#45;&gt;Node9</title>
<path fill="none" stroke="midnightblue" d="M604.482,-192.444C539.83,-182.826 434.974,-167.228 366.497,-157.041"/>
<polygon fill="midnightblue" stroke="midnightblue" points="366.656,-153.526 356.249,-155.516 365.625,-160.45 366.656,-153.526"/>
</g>
<!-- Node19 -->
<g id="node19" class="node"><title>Node19</title>
<polygon fill="none" stroke="#bfbfbf" points="377.5,-136.5 377.5,-155.5 448.5,-155.5 448.5,-136.5 377.5,-136.5"/>
<text text-anchor="middle" x="413" y="-143.5" font-family="Helvetica,sans-Serif" font-size="10.00">FairLogger.h</text>
</g>
<!-- Node2&#45;&gt;Node19 -->
<g id="edge19" class="edge"><title>Node2&#45;&gt;Node19</title>
<path fill="none" stroke="midnightblue" d="M622.545,-192.444C577.958,-182.774 505.495,-167.059 458.542,-156.877"/>
<polygon fill="midnightblue" stroke="midnightblue" points="459.154,-153.428 448.639,-154.729 457.67,-160.269 459.154,-153.428"/>
</g>
<!-- Node20 -->
<g id="node20" class="node"><title>Node20</title>
<g id="a_node20"><a xlink:href="../../dd/d76/Cartesian3D_8h.html" target="_top" xlink:title="MathUtils/Cartesian3D.h">
<polygon fill="none" stroke="black" points="877.5,-136.5 877.5,-155.5 1002.5,-155.5 1002.5,-136.5 877.5,-136.5"/>
<text text-anchor="middle" x="940" y="-143.5" font-family="Helvetica,sans-Serif" font-size="10.00">MathUtils/Cartesian3D.h</text>
</a>
</g>
</g>
<!-- Node2&#45;&gt;Node20 -->
<g id="edge20" class="edge"><title>Node2&#45;&gt;Node20</title>
<path fill="none" stroke="midnightblue" d="M706.05,-192.444C754.851,-182.964 833.563,-167.675 886.03,-157.483"/>
<polygon fill="midnightblue" stroke="midnightblue" points="887.007,-160.859 896.156,-155.516 885.672,-153.988 887.007,-160.859"/>
</g>
<!-- Node10 -->
<g id="node10" class="node"><title>Node10</title>
<polygon fill="none" stroke="#bfbfbf" points="440,-74.5 440,-93.5 496,-93.5 496,-74.5 440,-74.5"/>
<text text-anchor="middle" x="468" y="-81.5" font-family="Helvetica,sans-Serif" font-size="10.00">Rtypes.h</text>
</g>
<!-- Node9&#45;&gt;Node10 -->
<g id="edge9" class="edge"><title>Node9&#45;&gt;Node10</title>
<path fill="none" stroke="midnightblue" d="M325.22,-136.38C351.755,-127.566 393.902,-113.317 430,-100 432.387,-99.1193 434.852,-98.1909 437.325,-97.2454"/>
<polygon fill="midnightblue" stroke="midnightblue" points="438.707,-100.463 446.761,-93.5791 436.172,-93.9383 438.707,-100.463"/>
</g>
<!-- Node11 -->
<g id="node11" class="node"><title>Node11</title>
<polygon fill="none" stroke="#bfbfbf" points="183,-6.5 183,-25.5 221,-25.5 221,-6.5 183,-6.5"/>
<text text-anchor="middle" x="202" y="-13.5" font-family="Helvetica,sans-Serif" font-size="10.00">array</text>
</g>
<!-- Node9&#45;&gt;Node11 -->
<g id="edge10" class="edge"><title>Node9&#45;&gt;Node11</title>
<path fill="none" stroke="midnightblue" d="M280.104,-136.457C265.164,-128.83 244.765,-116.343 232,-100 217.004,-80.8004 209.063,-53.4325 205.198,-35.4491"/>
<polygon fill="midnightblue" stroke="midnightblue" points="208.632,-34.7723 203.292,-25.6217 201.76,-36.1052 208.632,-34.7723"/>
</g>
<!-- Node12 -->
<g id="node12" class="node"><title>Node12</title>
<polygon fill="none" stroke="#bfbfbf" points="-0.5,-74.5 -0.5,-93.5 40.5,-93.5 40.5,-74.5 -0.5,-74.5"/>
<text text-anchor="middle" x="20" y="-81.5" font-family="Helvetica,sans-Serif" font-size="10.00">bitset</text>
</g>
<!-- Node9&#45;&gt;Node12 -->
<g id="edge11" class="edge"><title>Node9&#45;&gt;Node12</title>
<path fill="none" stroke="midnightblue" d="M241.141,-136.494C179.023,-127.015 84.5965,-111.512 50,-100 48.1352,-99.3795 46.2407,-98.6619 44.3567,-97.8836"/>
<polygon fill="midnightblue" stroke="midnightblue" points="45.7564,-94.6748 35.2108,-93.6545 42.8184,-101.028 45.7564,-94.6748"/>
</g>
<!-- Node9&#45;&gt;Node13 -->
<g id="edge12" class="edge"><title>Node9&#45;&gt;Node13</title>
<path fill="none" stroke="midnightblue" d="M313.041,-136.403C329.051,-126.601 355.45,-110.439 374.374,-98.8526"/>
<polygon fill="midnightblue" stroke="midnightblue" points="376.284,-101.787 382.985,-93.5806 372.629,-95.8172 376.284,-101.787"/>
</g>
<!-- Node14 -->
<g id="node14" class="node"><title>Node14</title>
<polygon fill="none" stroke="#bfbfbf" points="59,-74.5 59,-93.5 105,-93.5 105,-74.5 59,-74.5"/>
<text text-anchor="middle" x="82" y="-81.5" font-family="Helvetica,sans-Serif" font-size="10.00">cstdint</text>
</g>
<!-- Node9&#45;&gt;Node14 -->
<g id="edge13" class="edge"><title>Node9&#45;&gt;Node14</title>
<path fill="none" stroke="midnightblue" d="M253.025,-136.481C215.136,-128.831 160.301,-116.299 114,-100 112.09,-99.3277 110.141,-98.5795 108.194,-97.786"/>
<polygon fill="midnightblue" stroke="midnightblue" points="109.238,-94.4208 98.6757,-93.5849 106.411,-100.825 109.238,-94.4208"/>
</g>
<!-- Node15 -->
<g id="node15" class="node"><title>Node15</title>
<polygon fill="none" stroke="#bfbfbf" points="123,-74.5 123,-93.5 185,-93.5 185,-74.5 123,-74.5"/>
<text text-anchor="middle" x="154" y="-81.5" font-family="Helvetica,sans-Serif" font-size="10.00">type_traits</text>
</g>
<!-- Node9&#45;&gt;Node15 -->
<g id="edge14" class="edge"><title>Node9&#45;&gt;Node15</title>
<path fill="none" stroke="midnightblue" d="M278.225,-136.403C253.568,-126.2 212.255,-109.105 184.098,-97.4544"/>
<polygon fill="midnightblue" stroke="midnightblue" points="185.315,-94.1701 174.736,-93.5806 182.638,-100.638 185.315,-94.1701"/>
</g>
<!-- Node16 -->
<g id="node16" class="node"><title>Node16</title>
<g id="a_node16"><a xlink:href="../../d9/ded/Utils_8h.html" target="_top" xlink:title="DetectorsBase/Utils.h">
<polygon fill="none" stroke="black" points="241.5,-74.5 241.5,-93.5 354.5,-93.5 354.5,-74.5 241.5,-74.5"/>
<text text-anchor="middle" x="298" y="-81.5" font-family="Helvetica,sans-Serif" font-size="10.00">DetectorsBase/Utils.h</text>
</a>
</g>
</g>
<!-- Node9&#45;&gt;Node16 -->
<g id="edge15" class="edge"><title>Node9&#45;&gt;Node16</title>
<path fill="none" stroke="midnightblue" d="M298.857,-136.403C298.716,-127.938 298.495,-114.728 298.314,-103.82"/>
<polygon fill="midnightblue" stroke="midnightblue" points="301.809,-103.521 298.143,-93.5806 294.81,-103.638 301.809,-103.521"/>
</g>
<!-- Node16&#45;&gt;Node11 -->
<g id="edge18" class="edge"><title>Node16&#45;&gt;Node11</title>
<path fill="none" stroke="midnightblue" d="M285.45,-74.3717C269.567,-63.4521 241.984,-44.4888 222.9,-31.369"/>
<polygon fill="midnightblue" stroke="midnightblue" points="224.777,-28.4116 214.553,-25.6305 220.811,-34.1799 224.777,-28.4116"/>
</g>
<!-- Node17 -->
<g id="node17" class="node"><title>Node17</title>
<g id="a_node17"><a xlink:href="../../d1/daa/Base_2include_2DetectorsBase_2Constants_8h.html" target="_top" xlink:title="DetectorsBase/Constants.h">
<polygon fill="none" stroke="black" points="239,-6.5 239,-25.5 377,-25.5 377,-6.5 239,-6.5"/>
<text text-anchor="middle" x="308" y="-13.5" font-family="Helvetica,sans-Serif" font-size="10.00">DetectorsBase/Constants.h</text>
</a>
</g>
</g>
<!-- Node16&#45;&gt;Node17 -->
<g id="edge16" class="edge"><title>Node16&#45;&gt;Node17</title>
<path fill="none" stroke="midnightblue" d="M299.307,-74.3717C300.781,-64.6426 303.223,-48.528 305.144,-35.8504"/>
<polygon fill="midnightblue" stroke="midnightblue" points="308.623,-36.2526 306.66,-25.8411 301.702,-35.2039 308.623,-36.2526"/>
</g>
<!-- Node18 -->
<g id="node18" class="node"><title>Node18</title>
<polygon fill="none" stroke="#bfbfbf" points="395,-6.5 395,-25.5 439,-25.5 439,-6.5 395,-6.5"/>
<text text-anchor="middle" x="417" y="-13.5" font-family="Helvetica,sans-Serif" font-size="10.00">cmath</text>
</g>
<!-- Node16&#45;&gt;Node18 -->
<g id="edge17" class="edge"><title>Node16&#45;&gt;Node18</title>
<path fill="none" stroke="midnightblue" d="M313.557,-74.3717C333.691,-63.2051 368.991,-43.6266 392.681,-30.4876"/>
<polygon fill="midnightblue" stroke="midnightblue" points="394.392,-33.5415 401.439,-25.6305 390.996,-27.4199 394.392,-33.5415"/>
</g>
<!-- Node20&#45;&gt;Node10 -->
<g id="edge24" class="edge"><title>Node20&#45;&gt;Node10</title>
<path fill="none" stroke="midnightblue" d="M877.395,-137.597C872.525,-137.047 867.683,-136.509 863,-136 704.023,-118.717 660.227,-138.43 505,-100 501.937,-99.2416 498.792,-98.2784 495.693,-97.2074"/>
<polygon fill="midnightblue" stroke="midnightblue" points="496.69,-93.8415 486.1,-93.5369 494.189,-100.379 496.69,-93.8415"/>
</g>
<!-- Node21 -->
<g id="node21" class="node"><title>Node21</title>
<polygon fill="none" stroke="#bfbfbf" points="1092.5,-74.5 1092.5,-93.5 1241.5,-93.5 1241.5,-74.5 1092.5,-74.5"/>
<text text-anchor="middle" x="1167" y="-81.5" font-family="Helvetica,sans-Serif" font-size="10.00">Math/GenVector/Rotation3D.h</text>
</g>
<!-- Node20&#45;&gt;Node21 -->
<g id="edge21" class="edge"><title>Node20&#45;&gt;Node21</title>
<path fill="none" stroke="midnightblue" d="M972.524,-136.403C1012.56,-125.822 1080.64,-107.827 1124.7,-96.1802"/>
<polygon fill="midnightblue" stroke="midnightblue" points="1125.76,-99.5199 1134.54,-93.5806 1123.97,-92.7523 1125.76,-99.5199"/>
</g>
<!-- Node22 -->
<g id="node22" class="node"><title>Node22</title>
<polygon fill="none" stroke="#bfbfbf" points="1260,-74.5 1260,-93.5 1416,-93.5 1416,-74.5 1260,-74.5"/>
<text text-anchor="middle" x="1338" y="-81.5" font-family="Helvetica,sans-Serif" font-size="10.00">Math/GenVector/Transform3D.h</text>
</g>
<!-- Node20&#45;&gt;Node22 -->
<g id="edge22" class="edge"><title>Node20&#45;&gt;Node22</title>
<path fill="none" stroke="midnightblue" d="M1001.83,-136.483C1064.44,-127.749 1164.05,-113.562 1250,-100 1259.43,-98.512 1269.42,-96.8716 1279.15,-95.2383"/>
<polygon fill="midnightblue" stroke="midnightblue" points="1279.88,-98.6636 1289.16,-93.5454 1278.72,-91.7615 1279.88,-98.6636"/>
</g>
<!-- Node23 -->
<g id="node23" class="node"><title>Node23</title>
<polygon fill="none" stroke="#bfbfbf" points="1434,-74.5 1434,-93.5 1594,-93.5 1594,-74.5 1434,-74.5"/>
<text text-anchor="middle" x="1514" y="-81.5" font-family="Helvetica,sans-Serif" font-size="10.00">Math/GenVector/Translation3D.h</text>
</g>
<!-- Node20&#45;&gt;Node23 -->
<g id="edge23" class="edge"><title>Node20&#45;&gt;Node23</title>
<path fill="none" stroke="midnightblue" d="M1002.81,-137.008C1005.92,-136.657 1008.99,-136.319 1012,-136 1195.22,-116.57 1242.23,-123.33 1425,-100 1435.48,-98.6619 1446.62,-96.9877 1457.34,-95.2474"/>
<polygon fill="midnightblue" stroke="midnightblue" points="1458.16,-98.6588 1467.45,-93.5674 1457.01,-91.7535 1458.16,-98.6588"/>
</g>
<!-- Node20&#45;&gt;Node24 -->
<g id="edge25" class="edge"><title>Node20&#45;&gt;Node24</title>
<path fill="none" stroke="midnightblue" d="M1002.8,-136.911C1005.91,-136.586 1008.99,-136.28 1012,-136 1274.03,-111.668 1344.33,-148.376 1603,-100 1607.58,-99.1443 1612.33,-97.976 1616.97,-96.6663"/>
<polygon fill="midnightblue" stroke="midnightblue" points="1618.33,-99.9122 1626.86,-93.6399 1616.28,-93.2184 1618.33,-99.9122"/>
</g>
<!-- Node25 -->
<g id="node25" class="node"><title>Node25</title>
<polygon fill="none" stroke="#bfbfbf" points="514.5,-69 514.5,-99 665.5,-99 665.5,-69 514.5,-69"/>
<text text-anchor="start" x="522.5" y="-87" font-family="Helvetica,sans-Serif" font-size="10.00">Math/GenVector/Displacement</text>
<text text-anchor="middle" x="590" y="-76" font-family="Helvetica,sans-Serif" font-size="10.00">Vector3D.h</text>
</g>
<!-- Node20&#45;&gt;Node25 -->
<g id="edge26" class="edge"><title>Node20&#45;&gt;Node25</title>
<path fill="none" stroke="midnightblue" d="M889.181,-136.471C838.012,-127.86 756.517,-114.085 675.879,-100.146"/>
<polygon fill="midnightblue" stroke="midnightblue" points="675.99,-96.6129 665.539,-98.3566 674.796,-103.51 675.99,-96.6129"/>
</g>
<!-- Node26 -->
<g id="node26" class="node"><title>Node26</title>
<polygon fill="none" stroke="#bfbfbf" points="684,-74.5 684,-93.5 860,-93.5 860,-74.5 684,-74.5"/>
<text text-anchor="middle" x="772" y="-81.5" font-family="Helvetica,sans-Serif" font-size="10.00">Math/GenVector/PositionVector3D.h</text>
</g>
<!-- Node20&#45;&gt;Node26 -->
<g id="edge27" class="edge"><title>Node20&#45;&gt;Node26</title>
<path fill="none" stroke="midnightblue" d="M915.93,-136.403C886.987,-126.067 838.238,-108.656 805.598,-96.9994"/>
<polygon fill="midnightblue" stroke="midnightblue" points="806.62,-93.6479 796.026,-93.5806 804.266,-100.24 806.62,-93.6479"/>
</g>
<!-- Node27 -->
<g id="node27" class="node"><title>Node27</title>
<g id="a_node27"><a xlink:href="../../d2/dd0/Cartesian2D_8h.html" target="_top" xlink:title="MathUtils/Cartesian2D.h">
<polygon fill="none" stroke="black" points="877.5,-74.5 877.5,-93.5 1002.5,-93.5 1002.5,-74.5 877.5,-74.5"/>
<text text-anchor="middle" x="940" y="-81.5" font-family="Helvetica,sans-Serif" font-size="10.00">MathUtils/Cartesian2D.h</text>
</a>
</g>
</g>
<!-- Node20&#45;&gt;Node27 -->
<g id="edge28" class="edge"><title>Node20&#45;&gt;Node27</title>
<path fill="none" stroke="midnightblue" d="M940,-136.403C940,-127.938 940,-114.728 940,-103.82"/>
<polygon fill="midnightblue" stroke="midnightblue" points="943.5,-103.581 940,-93.5806 936.5,-103.581 943.5,-103.581"/>
</g>
<!-- Node30 -->
<g id="node30" class="node"><title>Node30</title>
<polygon fill="none" stroke="#bfbfbf" points="1021,-74.5 1021,-93.5 1075,-93.5 1075,-74.5 1021,-74.5"/>
<text text-anchor="middle" x="1048" y="-81.5" font-family="Helvetica,sans-Serif" font-size="10.00">iostream</text>
</g>
<!-- Node20&#45;&gt;Node30 -->
<g id="edge31" class="edge"><title>Node20&#45;&gt;Node30</title>
<path fill="none" stroke="midnightblue" d="M955.474,-136.403C973.278,-126.512 1002.74,-110.144 1023.63,-98.5378"/>
<polygon fill="midnightblue" stroke="midnightblue" points="1025.51,-101.497 1032.55,-93.5806 1022.11,-95.3775 1025.51,-101.497"/>
</g>
<!-- Node28 -->
<g id="node28" class="node"><title>Node28</title>
<polygon fill="none" stroke="#bfbfbf" points="955.5,-1 955.5,-31 1106.5,-31 1106.5,-1 955.5,-1"/>
<text text-anchor="start" x="963.5" y="-19" font-family="Helvetica,sans-Serif" font-size="10.00">Math/GenVector/Displacement</text>
<text text-anchor="middle" x="1031" y="-8" font-family="Helvetica,sans-Serif" font-size="10.00">Vector2D.h</text>
</g>
<!-- Node27&#45;&gt;Node28 -->
<g id="edge29" class="edge"><title>Node27&#45;&gt;Node28</title>
<path fill="none" stroke="midnightblue" d="M951.897,-74.3717C964.779,-65.0286 985.78,-49.7966 1002.91,-37.375"/>
<polygon fill="midnightblue" stroke="midnightblue" points="1005.41,-39.8859 1011.45,-31.1815 1001.3,-34.2194 1005.41,-39.8859"/>
</g>
<!-- Node29 -->
<g id="node29" class="node"><title>Node29</title>
<polygon fill="none" stroke="#bfbfbf" points="761,-6.5 761,-25.5 937,-25.5 937,-6.5 761,-6.5"/>
<text text-anchor="middle" x="849" y="-13.5" font-family="Helvetica,sans-Serif" font-size="10.00">Math/GenVector/PositionVector2D.h</text>
</g>
<!-- Node27&#45;&gt;Node29 -->
<g id="edge30" class="edge"><title>Node27&#45;&gt;Node29</title>
<path fill="none" stroke="midnightblue" d="M928.103,-74.3717C913.116,-63.5015 887.138,-44.6602 869.058,-31.5474"/>
<polygon fill="midnightblue" stroke="midnightblue" points="871.05,-28.6684 860.9,-25.6305 866.94,-34.3349 871.05,-28.6684"/>
</g>
</g>
</svg>
