<?xml version="1.0" encoding="UTF-8" standalone="no"?>
<!DOCTYPE svg PUBLIC "-//W3C//DTD SVG 1.1//EN"
 "http://www.w3.org/Graphics/SVG/1.1/DTD/svg11.dtd">
<!-- Generated by graphviz version 2.36.0 (20140111.2315)
 -->
<!-- Title: /home/travis/build/AliceO2Group/AliceO2/DataFormats/Headers/include/Headers/DataHeader.h Pages: 1 -->
<svg width="330pt" height="118pt"
 viewBox="0.00 0.00 330.00 118.00" xmlns="http://www.w3.org/2000/svg" xmlns:xlink="http://www.w3.org/1999/xlink">
<g id="graph0" class="graph" transform="scale(1 1) rotate(0) translate(4 114)">
<title>/home/travis/build/AliceO2Group/AliceO2/DataFormats/Headers/include/Headers/DataHeader.h</title>
<!-- Node1 -->
<g id="node1" class="node"><title>Node1</title>
<polygon fill="#bfbfbf" stroke="black" points="84,-57 84,-109 234,-109 234,-57 84,-57"/>
<text text-anchor="start" x="92" y="-97" font-family="Helvetica,sans-Serif" font-size="10.00">/home/travis/build</text>
<text text-anchor="start" x="92" y="-86" font-family="Helvetica,sans-Serif" font-size="10.00">/AliceO2Group/AliceO2</text>
<text text-anchor="start" x="92" y="-75" font-family="Helvetica,sans-Serif" font-size="10.00">/DataFormats/Headers/include</text>
<text text-anchor="middle" x="159" y="-64" font-family="Helvetica,sans-Serif" font-size="10.00">/Headers/DataHeader.h</text>
</g>
<!-- Node2 -->
<g id="node2" class="node"><title>Node2</title>
<polygon fill="none" stroke="#bfbfbf" points="0,-0.5 0,-19.5 46,-19.5 46,-0.5 0,-0.5"/>
<text text-anchor="middle" x="23" y="-7.5" font-family="Helvetica,sans-Serif" font-size="10.00">cstdint</text>
</g>
<!-- Node1&#45;&gt;Node2 -->
<g id="edge1" class="edge"><title>Node1&#45;&gt;Node2</title>
<path fill="none" stroke="midnightblue" d="M111.051,-56.9681C90.0161,-45.9863 66.1692,-33.5369 48.6029,-24.3662"/>
<polygon fill="midnightblue" stroke="midnightblue" points="50.0322,-21.1642 39.5477,-19.6389 46.7926,-27.3695 50.0322,-21.1642"/>
</g>
<!-- Node3 -->
<g id="node3" class="node"><title>Node3</title>
<polygon fill="none" stroke="#bfbfbf" points="64,-0.5 64,-19.5 116,-19.5 116,-0.5 64,-0.5"/>
<text text-anchor="middle" x="90" y="-7.5" font-family="Helvetica,sans-Serif" font-size="10.00">memory</text>
</g>
<!-- Node1&#45;&gt;Node3 -->
<g id="edge2" class="edge"><title>Node1&#45;&gt;Node3</title>
<path fill="none" stroke="midnightblue" d="M134.479,-56.7681C124.87,-46.8808 114.131,-35.8307 105.613,-27.0656"/>
<polygon fill="midnightblue" stroke="midnightblue" points="107.99,-24.4893 98.5105,-19.7572 102.97,-29.3678 107.99,-24.4893"/>
</g>
<!-- Node4 -->
<g id="node4" class="node"><title>Node4</title>
<polygon fill="none" stroke="#bfbfbf" points="134.5,-0.5 134.5,-19.5 183.5,-19.5 183.5,-0.5 134.5,-0.5"/>
<text text-anchor="middle" x="159" y="-7.5" font-family="Helvetica,sans-Serif" font-size="10.00">cassert</text>
</g>
<!-- Node1&#45;&gt;Node4 -->
<g id="edge3" class="edge"><title>Node1&#45;&gt;Node4</title>
<path fill="none" stroke="midnightblue" d="M159,-56.7681C159,-47.8897 159,-38.0737 159,-29.8165"/>
<polygon fill="midnightblue" stroke="midnightblue" points="162.5,-29.7571 159,-19.7572 155.5,-29.7572 162.5,-29.7571"/>
</g>
<!-- Node5 -->
<g id="node5" class="node"><title>Node5</title>
<polygon fill="none" stroke="#bfbfbf" points="202,-0.5 202,-19.5 248,-19.5 248,-0.5 202,-0.5"/>
<text text-anchor="middle" x="225" y="-7.5" font-family="Helvetica,sans-Serif" font-size="10.00">cstring</text>
</g>
<!-- Node1&#45;&gt;Node5 -->
<g id="edge4" class="edge"><title>Node1&#45;&gt;Node5</title>
<path fill="none" stroke="midnightblue" d="M182.455,-56.7681C191.552,-46.9817 201.708,-36.0561 209.816,-27.3346"/>
<polygon fill="midnightblue" stroke="midnightblue" points="212.615,-29.4644 216.86,-19.7572 207.488,-24.6985 212.615,-29.4644"/>
</g>
<!-- Node6 -->
<g id="node6" class="node"><title>Node6</title>
<polygon fill="none" stroke="#bfbfbf" points="266,-0.5 266,-19.5 322,-19.5 322,-0.5 266,-0.5"/>
<text text-anchor="middle" x="294" y="-7.5" font-family="Helvetica,sans-Serif" font-size="10.00">algorithm</text>
</g>
<!-- Node1&#45;&gt;Node6 -->
<g id="edge5" class="edge"><title>Node1&#45;&gt;Node6</title>
<path fill="none" stroke="midnightblue" d="M206.596,-56.9681C227.477,-45.9863 251.148,-33.5369 268.585,-24.3662"/>
<polygon fill="midnightblue" stroke="midnightblue" points="270.353,-27.3914 277.574,-19.6389 267.094,-21.196 270.353,-27.3914"/>
</g>
</g>
</svg>
