<?xml version="1.0" encoding="UTF-8" standalone="no"?>
<!DOCTYPE svg PUBLIC "-//W3C//DTD SVG 1.1//EN"
 "http://www.w3.org/Graphics/SVG/1.1/DTD/svg11.dtd">
<!-- Generated by graphviz version 2.36.0 (20140111.2315)
 -->
<!-- Title: o2::utilities::DataPublisherDevice Pages: 1 -->
<svg width="285pt" height="410pt"
 viewBox="0.00 0.00 285.00 410.00" xmlns="http://www.w3.org/2000/svg" xmlns:xlink="http://www.w3.org/1999/xlink">
<g id="graph0" class="graph" transform="scale(1 1) rotate(0) translate(4 406)">
<title>o2::utilities::DataPublisherDevice</title>
<!-- Node1 -->
<g id="node1" class="node"><title>Node1</title>
<polygon fill="#bfbfbf" stroke="black" points="52.5,-0.5 52.5,-123.5 183.5,-123.5 183.5,-0.5 52.5,-0.5"/>
<text text-anchor="start" x="60.5" y="-111.5" font-family="Helvetica,sans-Serif" font-size="10.00">o2::utilities::DataPublisher</text>
<text text-anchor="middle" x="118" y="-100.5" font-family="Helvetica,sans-Serif" font-size="10.00">Device</text>
<polyline fill="none" stroke="black" points="52.5,-93.5 183.5,-93.5 "/>
<text text-anchor="middle" x="118" y="-81.5" font-family="Helvetica,sans-Serif" font-size="10.00"> </text>
<polyline fill="none" stroke="black" points="52.5,-74.5 183.5,-74.5 "/>
<text text-anchor="start" x="60.5" y="-62.5" font-family="Helvetica,sans-Serif" font-size="10.00">+ DataPublisherDevice()</text>
<text text-anchor="start" x="60.5" y="-51.5" font-family="Helvetica,sans-Serif" font-size="10.00">+ ~DataPublisherDevice()</text>
<text text-anchor="start" x="60.5" y="-40.5" font-family="Helvetica,sans-Serif" font-size="10.00"># InitTask()</text>
<text text-anchor="start" x="60.5" y="-29.5" font-family="Helvetica,sans-Serif" font-size="10.00"># HandleData()</text>
<text text-anchor="start" x="60.5" y="-18.5" font-family="Helvetica,sans-Serif" font-size="10.00"># HandleO2LogicalBlock()</text>
<text text-anchor="start" x="60.5" y="-7.5" font-family="Helvetica,sans-Serif" font-size="10.00"># AppendFile()</text>
</g>
<!-- Node2 -->
<g id="node2" class="node"><title>Node2</title>
<g id="a_node2"><a xlink:href="../../da/df6/classo2_1_1Base_1_1O2Device.html" target="_top" xlink:title="{o2::Base::O2Device\n||+ ~O2Device()\l+ AddMessage()\l+ ForEach()\l}">
<polygon fill="none" stroke="black" points="-0.5,-226.5 -0.5,-305.5 104.5,-305.5 104.5,-226.5 -0.5,-226.5"/>
<text text-anchor="middle" x="52" y="-293.5" font-family="Helvetica,sans-Serif" font-size="10.00">o2::Base::O2Device</text>
<polyline fill="none" stroke="black" points="-0.5,-286.5 104.5,-286.5 "/>
<text text-anchor="middle" x="52" y="-274.5" font-family="Helvetica,sans-Serif" font-size="10.00"> </text>
<polyline fill="none" stroke="black" points="-0.5,-267.5 104.5,-267.5 "/>
<text text-anchor="start" x="7.5" y="-255.5" font-family="Helvetica,sans-Serif" font-size="10.00">+ ~O2Device()</text>
<text text-anchor="start" x="7.5" y="-244.5" font-family="Helvetica,sans-Serif" font-size="10.00">+ AddMessage()</text>
<text text-anchor="start" x="7.5" y="-233.5" font-family="Helvetica,sans-Serif" font-size="10.00">+ ForEach()</text>
</a>
</g>
</g>
<!-- Node2&#45;&gt;Node1 -->
<g id="edge1" class="edge"><title>Node2&#45;&gt;Node1</title>
<path fill="none" stroke="midnightblue" d="M67.8387,-216.524C76.9446,-188.654 88.466,-153.392 98.1699,-123.692"/>
<polygon fill="none" stroke="midnightblue" points="64.5044,-215.46 64.7255,-226.052 71.1582,-217.634 64.5044,-215.46"/>
</g>
<!-- Node3 -->
<g id="node3" class="node"><title>Node3</title>
<g id="a_node3"><a xlink:href="../../db/dfe/classFairMQDevice.html" target="_top" xlink:title="{FairMQDevice\n||}">
<polygon fill="none" stroke="black" points="12,-344.5 12,-401.5 92,-401.5 92,-344.5 12,-344.5"/>
<text text-anchor="middle" x="52" y="-389.5" font-family="Helvetica,sans-Serif" font-size="10.00">FairMQDevice</text>
<polyline fill="none" stroke="black" points="12,-382.5 92,-382.5 "/>
<text text-anchor="middle" x="52" y="-370.5" font-family="Helvetica,sans-Serif" font-size="10.00"> </text>
<polyline fill="none" stroke="black" points="12,-363.5 92,-363.5 "/>
<text text-anchor="middle" x="52" y="-351.5" font-family="Helvetica,sans-Serif" font-size="10.00"> </text>
</a>
</g>
</g>
<!-- Node3&#45;&gt;Node2 -->
<g id="edge2" class="edge"><title>Node3&#45;&gt;Node2</title>
<path fill="none" stroke="midnightblue" d="M52,-334.322C52,-325.073 52,-315.155 52,-305.851"/>
<polygon fill="none" stroke="midnightblue" points="48.5001,-334.412 52,-344.412 55.5001,-334.413 48.5001,-334.412"/>
</g>
<!-- Node4 -->
<g id="node4" class="node"><title>Node4</title>
<polygon fill="none" stroke="#bfbfbf" points="122.5,-237.5 122.5,-294.5 157.5,-294.5 157.5,-237.5 122.5,-237.5"/>
<text text-anchor="middle" x="140" y="-282.5" font-family="Helvetica,sans-Serif" font-size="10.00">char</text>
<polyline fill="none" stroke="#bfbfbf" points="122.5,-275.5 157.5,-275.5 "/>
<text text-anchor="middle" x="140" y="-263.5" font-family="Helvetica,sans-Serif" font-size="10.00"> </text>
<polyline fill="none" stroke="#bfbfbf" points="122.5,-256.5 157.5,-256.5 "/>
<text text-anchor="middle" x="140" y="-244.5" font-family="Helvetica,sans-Serif" font-size="10.00"> </text>
</g>
<!-- Node4&#45;&gt;Node1 -->
<g id="edge3" class="edge"><title>Node4&#45;&gt;Node1</title>
<path fill="none" stroke="#404040" d="M136.987,-237.336C134.155,-211.336 129.791,-171.267 125.961,-136.097"/>
<polygon fill="none" stroke="#404040" points="125.931,-135.822 121.305,-130.29 124.632,-123.892 129.258,-129.424 125.931,-135.822"/>
<text text-anchor="middle" x="205" y="-200" font-family="Helvetica,sans-Serif" font-size="10.00"> +OptionKeyFileName</text>
<text text-anchor="middle" x="205" y="-189" font-family="Helvetica,sans-Serif" font-size="10.00">+OptionKeySubspecification</text>
<text text-anchor="middle" x="205" y="-178" font-family="Helvetica,sans-Serif" font-size="10.00">+OptionKeyOutputChannelName</text>
<text text-anchor="middle" x="205" y="-167" font-family="Helvetica,sans-Serif" font-size="10.00">+OptionKeyDataOrigin</text>
<text text-anchor="middle" x="205" y="-156" font-family="Helvetica,sans-Serif" font-size="10.00">+OptionKeyDataDescription</text>
<text text-anchor="middle" x="205" y="-145" font-family="Helvetica,sans-Serif" font-size="10.00">+OptionKeyInputChannelName</text>
</g>
</g>
</svg>
