<?xml version="1.0" encoding="UTF-8" standalone="no"?>
<!DOCTYPE svg PUBLIC "-//W3C//DTD SVG 1.1//EN"
 "http://www.w3.org/Graphics/SVG/1.1/DTD/svg11.dtd">
<!-- Generated by graphviz version 2.36.0 (20140111.2315)
 -->
<!-- Title: ImGuiTextBuffer Pages: 1 -->
<svg width="246pt" height="1002pt"
 viewBox="0.00 0.00 246.00 1002.00" xmlns="http://www.w3.org/2000/svg" xmlns:xlink="http://www.w3.org/1999/xlink">
<g id="graph0" class="graph" transform="scale(1 1) rotate(0) translate(4 998)">
<title>ImGuiTextBuffer</title>
<!-- Node1 -->
<g id="node1" class="node"><title>Node1</title>
<polygon fill="#bfbfbf" stroke="black" points="19,-1 19,-157 123,-157 123,-1 19,-1"/>
<text text-anchor="middle" x="71" y="-145" font-family="Helvetica,sans-Serif" font-size="10.00">ImGuiTextBuffer</text>
<polyline fill="none" stroke="black" points="19,-138 123,-138 "/>
<text text-anchor="middle" x="71" y="-126" font-family="Helvetica,sans-Serif" font-size="10.00"> </text>
<polyline fill="none" stroke="black" points="19,-119 123,-119 "/>
<text text-anchor="start" x="27" y="-107" font-family="Helvetica,sans-Serif" font-size="10.00">+ ImGuiTextBuffer()</text>
<text text-anchor="start" x="27" y="-96" font-family="Helvetica,sans-Serif" font-size="10.00">+ operator[]()</text>
<text text-anchor="start" x="27" y="-85" font-family="Helvetica,sans-Serif" font-size="10.00">+ begin()</text>
<text text-anchor="start" x="27" y="-74" font-family="Helvetica,sans-Serif" font-size="10.00">+ end()</text>
<text text-anchor="start" x="27" y="-63" font-family="Helvetica,sans-Serif" font-size="10.00">+ size()</text>
<text text-anchor="start" x="27" y="-52" font-family="Helvetica,sans-Serif" font-size="10.00">+ empty()</text>
<text text-anchor="start" x="27" y="-41" font-family="Helvetica,sans-Serif" font-size="10.00">+ clear()</text>
<text text-anchor="start" x="27" y="-30" font-family="Helvetica,sans-Serif" font-size="10.00">+ c_str()</text>
<text text-anchor="start" x="27" y="-19" font-family="Helvetica,sans-Serif" font-size="10.00">+ append()</text>
<text text-anchor="start" x="27" y="-8" font-family="Helvetica,sans-Serif" font-size="10.00">+ appendv()</text>
</g>
<!-- Node2 -->
<g id="node2" class="node"><title>Node2</title>
<g id="a_node2"><a xlink:href="../../d3/d32/classImVector.html" target="_top" xlink:title="{ImVector\&lt; char \&gt;\n||+ ImVector()\l+ ~ImVector()\l+ empty()\l+ size()\l+ capacity()\l+ operator[]()\l+ operator[]()\l+ clear()\l+ begin()\l+ begin()\l+ end()\l+ end()\l+ front()\l+ front()\l+ back()\l+ back()\l+ swap()\l+ _grow_capacity()\l+ resize()\l+ reserve()\l+ push_back()\l+ pop_back()\l+ erase()\l+ insert()\l}">
<polygon fill="none" stroke="black" points="21,-207 21,-517 121,-517 121,-207 21,-207"/>
<text text-anchor="middle" x="71" y="-505" font-family="Helvetica,sans-Serif" font-size="10.00">ImVector&lt; char &gt;</text>
<polyline fill="none" stroke="black" points="21,-498 121,-498 "/>
<text text-anchor="middle" x="71" y="-486" font-family="Helvetica,sans-Serif" font-size="10.00"> </text>
<polyline fill="none" stroke="black" points="21,-479 121,-479 "/>
<text text-anchor="start" x="29" y="-467" font-family="Helvetica,sans-Serif" font-size="10.00">+ ImVector()</text>
<text text-anchor="start" x="29" y="-456" font-family="Helvetica,sans-Serif" font-size="10.00">+ ~ImVector()</text>
<text text-anchor="start" x="29" y="-445" font-family="Helvetica,sans-Serif" font-size="10.00">+ empty()</text>
<text text-anchor="start" x="29" y="-434" font-family="Helvetica,sans-Serif" font-size="10.00">+ size()</text>
<text text-anchor="start" x="29" y="-423" font-family="Helvetica,sans-Serif" font-size="10.00">+ capacity()</text>
<text text-anchor="start" x="29" y="-412" font-family="Helvetica,sans-Serif" font-size="10.00">+ operator[]()</text>
<text text-anchor="start" x="29" y="-401" font-family="Helvetica,sans-Serif" font-size="10.00">+ operator[]()</text>
<text text-anchor="start" x="29" y="-390" font-family="Helvetica,sans-Serif" font-size="10.00">+ clear()</text>
<text text-anchor="start" x="29" y="-379" font-family="Helvetica,sans-Serif" font-size="10.00">+ begin()</text>
<text text-anchor="start" x="29" y="-368" font-family="Helvetica,sans-Serif" font-size="10.00">+ begin()</text>
<text text-anchor="start" x="29" y="-357" font-family="Helvetica,sans-Serif" font-size="10.00">+ end()</text>
<text text-anchor="start" x="29" y="-346" font-family="Helvetica,sans-Serif" font-size="10.00">+ end()</text>
<text text-anchor="start" x="29" y="-335" font-family="Helvetica,sans-Serif" font-size="10.00">+ front()</text>
<text text-anchor="start" x="29" y="-324" font-family="Helvetica,sans-Serif" font-size="10.00">+ front()</text>
<text text-anchor="start" x="29" y="-313" font-family="Helvetica,sans-Serif" font-size="10.00">+ back()</text>
<text text-anchor="start" x="29" y="-302" font-family="Helvetica,sans-Serif" font-size="10.00">+ back()</text>
<text text-anchor="start" x="29" y="-291" font-family="Helvetica,sans-Serif" font-size="10.00">+ swap()</text>
<text text-anchor="start" x="29" y="-280" font-family="Helvetica,sans-Serif" font-size="10.00">+ _grow_capacity()</text>
<text text-anchor="start" x="29" y="-269" font-family="Helvetica,sans-Serif" font-size="10.00">+ resize()</text>
<text text-anchor="start" x="29" y="-258" font-family="Helvetica,sans-Serif" font-size="10.00">+ reserve()</text>
<text text-anchor="start" x="29" y="-247" font-family="Helvetica,sans-Serif" font-size="10.00">+ push_back()</text>
<text text-anchor="start" x="29" y="-236" font-family="Helvetica,sans-Serif" font-size="10.00">+ pop_back()</text>
<text text-anchor="start" x="29" y="-225" font-family="Helvetica,sans-Serif" font-size="10.00">+ erase()</text>
<text text-anchor="start" x="29" y="-214" font-family="Helvetica,sans-Serif" font-size="10.00">+ insert()</text>
</a>
</g>
</g>
<!-- Node2&#45;&gt;Node1 -->
<g id="edge1" class="edge"><title>Node2&#45;&gt;Node1</title>
<path fill="none" stroke="#404040" d="M71,-206.935C71,-194.127 71,-181.471 71,-169.398"/>
<polygon fill="none" stroke="#404040" points="71.0001,-169.045 67,-163.045 71,-157.045 75,-163.045 71.0001,-169.045"/>
<text text-anchor="middle" x="83.5" y="-179.5" font-family="Helvetica,sans-Serif" font-size="10.00"> +Buf</text>
</g>
<!-- Node3 -->
<g id="node3" class="node"><title>Node3</title>
<polygon fill="none" stroke="#bfbfbf" points="-0.5,-693.5 -0.5,-750.5 34.5,-750.5 34.5,-693.5 -0.5,-693.5"/>
<text text-anchor="middle" x="17" y="-738.5" font-family="Helvetica,sans-Serif" font-size="10.00">char</text>
<polyline fill="none" stroke="#bfbfbf" points="-0.5,-731.5 34.5,-731.5 "/>
<text text-anchor="middle" x="17" y="-719.5" font-family="Helvetica,sans-Serif" font-size="10.00"> </text>
<polyline fill="none" stroke="#bfbfbf" points="-0.5,-712.5 34.5,-712.5 "/>
<text text-anchor="middle" x="17" y="-700.5" font-family="Helvetica,sans-Serif" font-size="10.00"> </text>
</g>
<!-- Node3&#45;&gt;Node2 -->
<g id="edge2" class="edge"><title>Node3&#45;&gt;Node2</title>
<path fill="none" stroke="#404040" d="M16.5788,-693.241C16.4311,-656.899 17.5533,-591.31 26,-536 26.3367,-533.795 26.69,-531.577 27.0587,-529.35"/>
<polygon fill="none" stroke="#404040" points="27.0899,-529.172 24.1905,-522.57 29.17,-517.354 32.0694,-523.956 27.0899,-529.172"/>
<text text-anchor="middle" x="41.5" y="-539.5" font-family="Helvetica,sans-Serif" font-size="10.00"> +Data</text>
</g>
<!-- Node4 -->
<g id="node4" class="node"><title>Node4</title>
<polygon fill="none" stroke="#bfbfbf" points="78.5,-936.5 78.5,-993.5 107.5,-993.5 107.5,-936.5 78.5,-936.5"/>
<text text-anchor="middle" x="93" y="-981.5" font-family="Helvetica,sans-Serif" font-size="10.00">int</text>
<polyline fill="none" stroke="#bfbfbf" points="78.5,-974.5 107.5,-974.5 "/>
<text text-anchor="middle" x="93" y="-962.5" font-family="Helvetica,sans-Serif" font-size="10.00"> </text>
<polyline fill="none" stroke="#bfbfbf" points="78.5,-955.5 107.5,-955.5 "/>
<text text-anchor="middle" x="93" y="-943.5" font-family="Helvetica,sans-Serif" font-size="10.00"> </text>
</g>
<!-- Node4&#45;&gt;Node2 -->
<g id="edge3" class="edge"><title>Node4&#45;&gt;Node2</title>
<path fill="none" stroke="#404040" d="M87.8457,-936.224C84.9688,-919.433 81.6421,-897.561 80,-878 70.2419,-761.759 68.0916,-630.261 68.3296,-529.237"/>
<polygon fill="none" stroke="#404040" points="68.33,-529.071 64.3501,-523.058 68.3701,-517.071 72.35,-523.084 68.33,-529.071"/>
<text text-anchor="middle" x="104.5" y="-725" font-family="Helvetica,sans-Serif" font-size="10.00"> +Capacity</text>
<text text-anchor="middle" x="104.5" y="-714" font-family="Helvetica,sans-Serif" font-size="10.00">+Size</text>
</g>
<!-- Node5 -->
<g id="node5" class="node"><title>Node5</title>
<g id="a_node5"><a xlink:href="../../d3/d32/classImVector.html" target="_top" xlink:title="{ImVector\&lt; T \&gt;\n||+ ImVector()\l+ ~ImVector()\l+ empty()\l+ size()\l+ capacity()\l+ operator[]()\l+ operator[]()\l+ clear()\l+ begin()\l+ begin()\l+ end()\l+ end()\l+ front()\l+ front()\l+ back()\l+ back()\l+ swap()\l+ _grow_capacity()\l+ resize()\l+ reserve()\l+ push_back()\l+ pop_back()\l+ erase()\l+ insert()\l}">
<polygon fill="none" stroke="black" points="138,-567 138,-877 238,-877 238,-567 138,-567"/>
<text text-anchor="middle" x="188" y="-865" font-family="Helvetica,sans-Serif" font-size="10.00">ImVector&lt; T &gt;</text>
<polyline fill="none" stroke="black" points="138,-858 238,-858 "/>
<text text-anchor="middle" x="188" y="-846" font-family="Helvetica,sans-Serif" font-size="10.00"> </text>
<polyline fill="none" stroke="black" points="138,-839 238,-839 "/>
<text text-anchor="start" x="146" y="-827" font-family="Helvetica,sans-Serif" font-size="10.00">+ ImVector()</text>
<text text-anchor="start" x="146" y="-816" font-family="Helvetica,sans-Serif" font-size="10.00">+ ~ImVector()</text>
<text text-anchor="start" x="146" y="-805" font-family="Helvetica,sans-Serif" font-size="10.00">+ empty()</text>
<text text-anchor="start" x="146" y="-794" font-family="Helvetica,sans-Serif" font-size="10.00">+ size()</text>
<text text-anchor="start" x="146" y="-783" font-family="Helvetica,sans-Serif" font-size="10.00">+ capacity()</text>
<text text-anchor="start" x="146" y="-772" font-family="Helvetica,sans-Serif" font-size="10.00">+ operator[]()</text>
<text text-anchor="start" x="146" y="-761" font-family="Helvetica,sans-Serif" font-size="10.00">+ operator[]()</text>
<text text-anchor="start" x="146" y="-750" font-family="Helvetica,sans-Serif" font-size="10.00">+ clear()</text>
<text text-anchor="start" x="146" y="-739" font-family="Helvetica,sans-Serif" font-size="10.00">+ begin()</text>
<text text-anchor="start" x="146" y="-728" font-family="Helvetica,sans-Serif" font-size="10.00">+ begin()</text>
<text text-anchor="start" x="146" y="-717" font-family="Helvetica,sans-Serif" font-size="10.00">+ end()</text>
<text text-anchor="start" x="146" y="-706" font-family="Helvetica,sans-Serif" font-size="10.00">+ end()</text>
<text text-anchor="start" x="146" y="-695" font-family="Helvetica,sans-Serif" font-size="10.00">+ front()</text>
<text text-anchor="start" x="146" y="-684" font-family="Helvetica,sans-Serif" font-size="10.00">+ front()</text>
<text text-anchor="start" x="146" y="-673" font-family="Helvetica,sans-Serif" font-size="10.00">+ back()</text>
<text text-anchor="start" x="146" y="-662" font-family="Helvetica,sans-Serif" font-size="10.00">+ back()</text>
<text text-anchor="start" x="146" y="-651" font-family="Helvetica,sans-Serif" font-size="10.00">+ swap()</text>
<text text-anchor="start" x="146" y="-640" font-family="Helvetica,sans-Serif" font-size="10.00">+ _grow_capacity()</text>
<text text-anchor="start" x="146" y="-629" font-family="Helvetica,sans-Serif" font-size="10.00">+ resize()</text>
<text text-anchor="start" x="146" y="-618" font-family="Helvetica,sans-Serif" font-size="10.00">+ reserve()</text>
<text text-anchor="start" x="146" y="-607" font-family="Helvetica,sans-Serif" font-size="10.00">+ push_back()</text>
<text text-anchor="start" x="146" y="-596" font-family="Helvetica,sans-Serif" font-size="10.00">+ pop_back()</text>
<text text-anchor="start" x="146" y="-585" font-family="Helvetica,sans-Serif" font-size="10.00">+ erase()</text>
<text text-anchor="start" x="146" y="-574" font-family="Helvetica,sans-Serif" font-size="10.00">+ insert()</text>
</a>
</g>
</g>
<!-- Node4&#45;&gt;Node5 -->
<g id="edge5" class="edge"><title>Node4&#45;&gt;Node5</title>
<path fill="none" stroke="#404040" d="M103.898,-936.354C111.47,-917.144 122.192,-889.945 133.454,-861.375"/>
<polygon fill="none" stroke="#404040" points="133.561,-861.104 132.04,-854.055 137.961,-849.94 139.482,-856.989 133.561,-861.104"/>
<text text-anchor="middle" x="143.5" y="-910" font-family="Helvetica,sans-Serif" font-size="10.00"> +Capacity</text>
<text text-anchor="middle" x="143.5" y="-899" font-family="Helvetica,sans-Serif" font-size="10.00">+Size</text>
</g>
<!-- Node5&#45;&gt;Node2 -->
<g id="edge4" class="edge"><title>Node5&#45;&gt;Node2</title>
<path fill="none" stroke="orange" d="M134.788,-558.18C130.198,-544.135 125.564,-529.956 121,-515.993"/>
<polygon fill="orange" stroke="orange" points="131.524,-559.46 137.957,-567.878 138.178,-557.285 131.524,-559.46"/>
<text text-anchor="middle" x="150" y="-539.5" font-family="Helvetica,sans-Serif" font-size="10.00"> &lt; char &gt;</text>
</g>
<!-- Node6 -->
<g id="node6" class="node"><title>Node6</title>
<polygon fill="none" stroke="#bfbfbf" points="173.5,-936.5 173.5,-993.5 202.5,-993.5 202.5,-936.5 173.5,-936.5"/>
<text text-anchor="middle" x="188" y="-981.5" font-family="Helvetica,sans-Serif" font-size="10.00">T</text>
<polyline fill="none" stroke="#bfbfbf" points="173.5,-974.5 202.5,-974.5 "/>
<text text-anchor="middle" x="188" y="-962.5" font-family="Helvetica,sans-Serif" font-size="10.00"> </text>
<polyline fill="none" stroke="#bfbfbf" points="173.5,-955.5 202.5,-955.5 "/>
<text text-anchor="middle" x="188" y="-943.5" font-family="Helvetica,sans-Serif" font-size="10.00"> </text>
</g>
<!-- Node6&#45;&gt;Node5 -->
<g id="edge6" class="edge"><title>Node6&#45;&gt;Node5</title>
<path fill="none" stroke="#404040" d="M188,-936.354C188,-923.524 188,-907.131 188,-889.146"/>
<polygon fill="none" stroke="#404040" points="188,-889.119 184,-883.119 188,-877.119 192,-883.118 188,-889.119"/>
<text text-anchor="middle" x="203.5" y="-904.5" font-family="Helvetica,sans-Serif" font-size="10.00"> +Data</text>
</g>
</g>
</svg>
