<?xml version="1.0" encoding="UTF-8" standalone="no"?>
<!DOCTYPE svg PUBLIC "-//W3C//DTD SVG 1.1//EN"
 "http://www.w3.org/Graphics/SVG/1.1/DTD/svg11.dtd">
<!-- Generated by graphviz version 2.36.0 (20140111.2315)
 -->
<!-- Title: /home/travis/build/AliceO2Group/AliceO2/Framework/Core/src/DataProcessingHeader.cxx Pages: 1 -->
<svg width="382pt" height="242pt"
 viewBox="0.00 0.00 382.00 242.00" xmlns="http://www.w3.org/2000/svg" xmlns:xlink="http://www.w3.org/1999/xlink">
<g id="graph0" class="graph" transform="scale(1 1) rotate(0) translate(4 238)">
<title>/home/travis/build/AliceO2Group/AliceO2/Framework/Core/src/DataProcessingHeader.cxx</title>
<!-- Node1 -->
<g id="node1" class="node"><title>Node1</title>
<polygon fill="#bfbfbf" stroke="black" points="70,-181 70,-233 252,-233 252,-181 70,-181"/>
<text text-anchor="start" x="78" y="-221" font-family="Helvetica,sans-Serif" font-size="10.00">/home/travis/build</text>
<text text-anchor="start" x="78" y="-210" font-family="Helvetica,sans-Serif" font-size="10.00">/AliceO2Group/AliceO2</text>
<text text-anchor="start" x="78" y="-199" font-family="Helvetica,sans-Serif" font-size="10.00">/Framework/Core/src/DataProcessing</text>
<text text-anchor="middle" x="161" y="-188" font-family="Helvetica,sans-Serif" font-size="10.00">Header.cxx</text>
</g>
<!-- Node2 -->
<g id="node2" class="node"><title>Node2</title>
<g id="a_node2"><a xlink:href="../../d6/dc9/DataProcessingHeader_8h.html" target="_top" xlink:title="Framework/DataProcessing\lHeader.h">
<polygon fill="none" stroke="black" points="158,-113 158,-143 296,-143 296,-113 158,-113"/>
<text text-anchor="start" x="166" y="-131" font-family="Helvetica,sans-Serif" font-size="10.00">Framework/DataProcessing</text>
<text text-anchor="middle" x="227" y="-120" font-family="Helvetica,sans-Serif" font-size="10.00">Header.h</text>
</a>
</g>
</g>
<!-- Node1&#45;&gt;Node2 -->
<g id="edge1" class="edge"><title>Node1&#45;&gt;Node2</title>
<path fill="none" stroke="midnightblue" d="M182.611,-180.787C190.869,-171.153 200.211,-160.254 208.188,-150.948"/>
<polygon fill="midnightblue" stroke="midnightblue" points="210.933,-153.122 214.784,-143.252 205.619,-148.567 210.933,-153.122"/>
</g>
<!-- Node3 -->
<g id="node3" class="node"><title>Node3</title>
<g id="a_node3"><a xlink:href="../../dc/dcd/DataHeader_8h.html" target="_top" xlink:title="Headers/DataHeader.h">
<polygon fill="none" stroke="black" points="3.5,-56.5 3.5,-75.5 120.5,-75.5 120.5,-56.5 3.5,-56.5"/>
<text text-anchor="middle" x="62" y="-63.5" font-family="Helvetica,sans-Serif" font-size="10.00">Headers/DataHeader.h</text>
</a>
</g>
</g>
<!-- Node1&#45;&gt;Node3 -->
<g id="edge13" class="edge"><title>Node1&#45;&gt;Node3</title>
<path fill="none" stroke="midnightblue" d="M143.072,-180.828C123.012,-152.663 91.0794,-107.829 73.8883,-83.6917"/>
<polygon fill="midnightblue" stroke="midnightblue" points="76.7291,-81.647 68.0769,-75.5322 71.0274,-85.708 76.7291,-81.647"/>
</g>
<!-- Node2&#45;&gt;Node3 -->
<g id="edge2" class="edge"><title>Node2&#45;&gt;Node3</title>
<path fill="none" stroke="midnightblue" d="M188.315,-112.933C160.105,-102.674 122.266,-88.9148 95.3766,-79.1369"/>
<polygon fill="midnightblue" stroke="midnightblue" points="96.2441,-75.7282 85.6501,-75.6 93.8519,-82.3068 96.2441,-75.7282"/>
</g>
<!-- Node4 -->
<g id="node4" class="node"><title>Node4</title>
<polygon fill="none" stroke="#bfbfbf" points="168,-0.5 168,-19.5 214,-19.5 214,-0.5 168,-0.5"/>
<text text-anchor="middle" x="191" y="-7.5" font-family="Helvetica,sans-Serif" font-size="10.00">cstdint</text>
</g>
<!-- Node2&#45;&gt;Node4 -->
<g id="edge8" class="edge"><title>Node2&#45;&gt;Node4</title>
<path fill="none" stroke="midnightblue" d="M242.65,-112.965C256.767,-98.5262 273.786,-75.4615 263,-56 254.5,-40.6647 238.356,-29.8652 223.505,-22.6972"/>
<polygon fill="midnightblue" stroke="midnightblue" points="224.587,-19.3486 214.026,-18.5 221.753,-25.7492 224.587,-19.3486"/>
</g>
<!-- Node5 -->
<g id="node5" class="node"><title>Node5</title>
<polygon fill="none" stroke="#bfbfbf" points="247,-0.5 247,-19.5 299,-19.5 299,-0.5 247,-0.5"/>
<text text-anchor="middle" x="273" y="-7.5" font-family="Helvetica,sans-Serif" font-size="10.00">memory</text>
</g>
<!-- Node2&#45;&gt;Node5 -->
<g id="edge11" class="edge"><title>Node2&#45;&gt;Node5</title>
<path fill="none" stroke="midnightblue" d="M248.032,-112.903C259.53,-103.872 272.685,-91.0399 279,-76 285.17,-61.3063 282.751,-43.1419 279.317,-29.7537"/>
<polygon fill="midnightblue" stroke="midnightblue" points="282.566,-28.3993 276.361,-19.8119 275.857,-30.3948 282.566,-28.3993"/>
</g>
<!-- Node6 -->
<g id="node6" class="node"><title>Node6</title>
<polygon fill="none" stroke="#bfbfbf" points="325.5,-0.5 325.5,-19.5 374.5,-19.5 374.5,-0.5 325.5,-0.5"/>
<text text-anchor="middle" x="350" y="-7.5" font-family="Helvetica,sans-Serif" font-size="10.00">cassert</text>
</g>
<!-- Node2&#45;&gt;Node6 -->
<g id="edge12" class="edge"><title>Node2&#45;&gt;Node6</title>
<path fill="none" stroke="midnightblue" d="M248.191,-112.963C262.119,-103.301 280.398,-89.7683 295,-76 311.057,-60.8595 327.092,-41.2713 337.669,-27.5726"/>
<polygon fill="midnightblue" stroke="midnightblue" points="340.518,-29.6082 343.777,-19.5271 334.942,-25.3756 340.518,-29.6082"/>
</g>
<!-- Node9 -->
<g id="node9" class="node"><title>Node9</title>
<polygon fill="none" stroke="#bfbfbf" points="138.5,-56.5 138.5,-75.5 181.5,-75.5 181.5,-56.5 138.5,-56.5"/>
<text text-anchor="middle" x="160" y="-63.5" font-family="Helvetica,sans-Serif" font-size="10.00">cstdio</text>
</g>
<!-- Node2&#45;&gt;Node9 -->
<g id="edge9" class="edge"><title>Node2&#45;&gt;Node9</title>
<path fill="none" stroke="midnightblue" d="M211.122,-112.781C200.985,-103.703 187.838,-91.9291 177.415,-82.5951"/>
<polygon fill="midnightblue" stroke="midnightblue" points="179.534,-79.7944 169.749,-75.7305 174.864,-85.0091 179.534,-79.7944"/>
</g>
<!-- Node10 -->
<g id="node10" class="node"><title>Node10</title>
<polygon fill="none" stroke="#bfbfbf" points="200,-56.5 200,-75.5 254,-75.5 254,-56.5 200,-56.5"/>
<text text-anchor="middle" x="227" y="-63.5" font-family="Helvetica,sans-Serif" font-size="10.00">iostream</text>
</g>
<!-- Node2&#45;&gt;Node10 -->
<g id="edge10" class="edge"><title>Node2&#45;&gt;Node10</title>
<path fill="none" stroke="midnightblue" d="M227,-112.781C227,-104.781 227,-94.6887 227,-86.0168"/>
<polygon fill="midnightblue" stroke="midnightblue" points="230.5,-85.7305 227,-75.7305 223.5,-85.7306 230.5,-85.7305"/>
</g>
<!-- Node3&#45;&gt;Node4 -->
<g id="edge3" class="edge"><title>Node3&#45;&gt;Node4</title>
<path fill="none" stroke="midnightblue" d="M82.4404,-56.4435C103.67,-47.5566 137.099,-33.5632 161.255,-23.4514"/>
<polygon fill="midnightblue" stroke="midnightblue" points="162.782,-26.6064 170.655,-19.5164 160.079,-20.1493 162.782,-26.6064"/>
</g>
<!-- Node3&#45;&gt;Node5 -->
<g id="edge4" class="edge"><title>Node3&#45;&gt;Node5</title>
<path fill="none" stroke="midnightblue" d="M95.4336,-56.4435C134.024,-46.5674 197.256,-30.3846 236.929,-20.2314"/>
<polygon fill="midnightblue" stroke="midnightblue" points="237.902,-23.5952 246.722,-17.7251 236.167,-16.8138 237.902,-23.5952"/>
</g>
<!-- Node3&#45;&gt;Node6 -->
<g id="edge5" class="edge"><title>Node3&#45;&gt;Node6</title>
<path fill="none" stroke="midnightblue" d="M111.091,-56.4694C160.803,-47.7251 239.863,-33.5292 308,-20 310.345,-19.5343 312.762,-19.0442 315.195,-18.5429"/>
<polygon fill="midnightblue" stroke="midnightblue" points="316.083,-21.9328 325.152,-16.4543 314.646,-15.0819 316.083,-21.9328"/>
</g>
<!-- Node7 -->
<g id="node7" class="node"><title>Node7</title>
<polygon fill="none" stroke="#bfbfbf" points="74,-0.5 74,-19.5 120,-19.5 120,-0.5 74,-0.5"/>
<text text-anchor="middle" x="97" y="-7.5" font-family="Helvetica,sans-Serif" font-size="10.00">cstring</text>
</g>
<!-- Node3&#45;&gt;Node7 -->
<g id="edge6" class="edge"><title>Node3&#45;&gt;Node7</title>
<path fill="none" stroke="midnightblue" d="M67.7795,-56.083C72.6724,-48.5341 79.8274,-37.4948 85.8326,-28.2298"/>
<polygon fill="midnightblue" stroke="midnightblue" points="88.826,-30.0463 91.328,-19.7511 82.952,-26.239 88.826,-30.0463"/>
</g>
<!-- Node8 -->
<g id="node8" class="node"><title>Node8</title>
<polygon fill="none" stroke="#bfbfbf" points="0,-0.5 0,-19.5 56,-19.5 56,-0.5 0,-0.5"/>
<text text-anchor="middle" x="28" y="-7.5" font-family="Helvetica,sans-Serif" font-size="10.00">algorithm</text>
</g>
<!-- Node3&#45;&gt;Node8 -->
<g id="edge7" class="edge"><title>Node3&#45;&gt;Node8</title>
<path fill="none" stroke="midnightblue" d="M56.3856,-56.083C51.6326,-48.5341 44.6819,-37.4948 38.8484,-28.2298"/>
<polygon fill="midnightblue" stroke="midnightblue" points="41.7999,-26.3486 33.5099,-19.7511 35.8763,-30.0783 41.7999,-26.3486"/>
</g>
</g>
</svg>
