<?xml version="1.0" encoding="UTF-8" standalone="no"?>
<!DOCTYPE svg PUBLIC "-//W3C//DTD SVG 1.1//EN"
 "http://www.w3.org/Graphics/SVG/1.1/DTD/svg11.dtd">
<!-- Generated by graphviz version 2.36.0 (20140111.2315)
 -->
<!-- Title: /home/travis/build/AliceO2Group/AliceO2/DataFormats/TPC/include/DataFormatsTPC/Helpers.h Pages: 1 -->
<svg width="440pt" height="174pt"
 viewBox="0.00 0.00 440.00 174.00" xmlns="http://www.w3.org/2000/svg" xmlns:xlink="http://www.w3.org/1999/xlink">
<g id="graph0" class="graph" transform="scale(1 1) rotate(0) translate(4 170)">
<title>/home/travis/build/AliceO2Group/AliceO2/DataFormats/TPC/include/DataFormatsTPC/Helpers.h</title>
<!-- Node1 -->
<g id="node1" class="node"><title>Node1</title>
<polygon fill="#bfbfbf" stroke="black" points="208,-113 208,-165 350,-165 350,-113 208,-113"/>
<text text-anchor="start" x="216" y="-153" font-family="Helvetica,sans-Serif" font-size="10.00">/home/travis/build</text>
<text text-anchor="start" x="216" y="-142" font-family="Helvetica,sans-Serif" font-size="10.00">/AliceO2Group/AliceO2</text>
<text text-anchor="start" x="216" y="-131" font-family="Helvetica,sans-Serif" font-size="10.00">/DataFormats/TPC/include</text>
<text text-anchor="middle" x="279" y="-120" font-family="Helvetica,sans-Serif" font-size="10.00">/DataFormatsTPC/Helpers.h</text>
</g>
<!-- Node2 -->
<g id="node2" class="node"><title>Node2</title>
<g id="a_node2"><a xlink:href="../../d3/dc4/ClusterHardware_8h.html" target="_top" xlink:title="Class of a TPC cluster as produced by the hardware cluster finder (needs a postprocessing step to con...">
<polygon fill="none" stroke="black" points="-0.5,-56.5 -0.5,-75.5 178.5,-75.5 178.5,-56.5 -0.5,-56.5"/>
<text text-anchor="middle" x="89" y="-63.5" font-family="Helvetica,sans-Serif" font-size="10.00">DataFormatsTPC/ClusterHardware.h</text>
</a>
</g>
</g>
<!-- Node1&#45;&gt;Node2 -->
<g id="edge1" class="edge"><title>Node1&#45;&gt;Node2</title>
<path fill="none" stroke="midnightblue" d="M212.013,-112.968C181.401,-101.529 146.527,-88.4969 121.748,-79.2373"/>
<polygon fill="midnightblue" stroke="midnightblue" points="122.711,-75.8608 112.118,-75.6389 120.26,-82.4179 122.711,-75.8608"/>
</g>
<!-- Node4 -->
<g id="node4" class="node"><title>Node4</title>
<g id="a_node4"><a xlink:href="../../de/dcd/ClusterNative_8h.html" target="_top" xlink:title="Class of a TPC cluster in TPC&#45;native coordinates (row, time) ">
<polygon fill="none" stroke="black" points="196.5,-56.5 196.5,-75.5 361.5,-75.5 361.5,-56.5 196.5,-56.5"/>
<text text-anchor="middle" x="279" y="-63.5" font-family="Helvetica,sans-Serif" font-size="10.00">DataFormatsTPC/ClusterNative.h</text>
</a>
</g>
</g>
<!-- Node1&#45;&gt;Node4 -->
<g id="edge3" class="edge"><title>Node1&#45;&gt;Node4</title>
<path fill="none" stroke="midnightblue" d="M279,-112.768C279,-103.89 279,-94.0737 279,-85.8165"/>
<polygon fill="midnightblue" stroke="midnightblue" points="282.5,-85.7571 279,-75.7572 275.5,-85.7572 282.5,-85.7571"/>
</g>
<!-- Node7 -->
<g id="node7" class="node"><title>Node7</title>
<polygon fill="none" stroke="#bfbfbf" points="380,-56.5 380,-75.5 432,-75.5 432,-56.5 380,-56.5"/>
<text text-anchor="middle" x="406" y="-63.5" font-family="Helvetica,sans-Serif" font-size="10.00">memory</text>
</g>
<!-- Node1&#45;&gt;Node7 -->
<g id="edge6" class="edge"><title>Node1&#45;&gt;Node7</title>
<path fill="none" stroke="midnightblue" d="M323.775,-112.968C343.237,-102.088 365.275,-89.7673 381.634,-80.6218"/>
<polygon fill="midnightblue" stroke="midnightblue" points="383.527,-83.5737 390.547,-75.6389 380.111,-77.4637 383.527,-83.5737"/>
</g>
<!-- Node3 -->
<g id="node3" class="node"><title>Node3</title>
<polygon fill="none" stroke="#bfbfbf" points="66,-0.5 66,-19.5 112,-19.5 112,-0.5 66,-0.5"/>
<text text-anchor="middle" x="89" y="-7.5" font-family="Helvetica,sans-Serif" font-size="10.00">cstdint</text>
</g>
<!-- Node2&#45;&gt;Node3 -->
<g id="edge2" class="edge"><title>Node2&#45;&gt;Node3</title>
<path fill="none" stroke="midnightblue" d="M89,-56.083C89,-49.0059 89,-38.8611 89,-29.9865"/>
<polygon fill="midnightblue" stroke="midnightblue" points="92.5001,-29.751 89,-19.7511 85.5001,-29.7511 92.5001,-29.751"/>
</g>
<!-- Node5 -->
<g id="node5" class="node"><title>Node5</title>
<polygon fill="none" stroke="#bfbfbf" points="208,-0.5 208,-19.5 252,-19.5 252,-0.5 208,-0.5"/>
<text text-anchor="middle" x="230" y="-7.5" font-family="Helvetica,sans-Serif" font-size="10.00">vector</text>
</g>
<!-- Node4&#45;&gt;Node5 -->
<g id="edge4" class="edge"><title>Node4&#45;&gt;Node5</title>
<path fill="none" stroke="midnightblue" d="M270.909,-56.083C263.845,-48.2982 253.412,-36.8015 244.851,-27.3665"/>
<polygon fill="midnightblue" stroke="midnightblue" points="247.253,-24.8047 237.941,-19.7511 242.069,-29.5087 247.253,-24.8047"/>
</g>
<!-- Node6 -->
<g id="node6" class="node"><title>Node6</title>
<g id="a_node6"><a xlink:href="../../d6/d51/TPC_2base_2include_2TPCBase_2Constants_8h.html" target="_top" xlink:title="TPCBase/Constants.h">
<polygon fill="none" stroke="black" points="270,-0.5 270,-19.5 386,-19.5 386,-0.5 270,-0.5"/>
<text text-anchor="middle" x="328" y="-7.5" font-family="Helvetica,sans-Serif" font-size="10.00">TPCBase/Constants.h</text>
</a>
</g>
</g>
<!-- Node4&#45;&gt;Node6 -->
<g id="edge5" class="edge"><title>Node4&#45;&gt;Node6</title>
<path fill="none" stroke="midnightblue" d="M287.091,-56.083C294.155,-48.2982 304.588,-36.8015 313.149,-27.3665"/>
<polygon fill="midnightblue" stroke="midnightblue" points="315.931,-29.5087 320.059,-19.7511 310.747,-24.8047 315.931,-29.5087"/>
</g>
</g>
</svg>
