<?xml version="1.0" encoding="UTF-8" standalone="no"?>
<!DOCTYPE svg PUBLIC "-//W3C//DTD SVG 1.1//EN"
 "http://www.w3.org/Graphics/SVG/1.1/DTD/svg11.dtd">
<!-- Generated by graphviz version 2.36.0 (20140111.2315)
 -->
<!-- Title: /home/travis/build/AliceO2Group/AliceO2/Detectors/Base/include/DetectorsBase/Track.h Pages: 1 -->
<svg width="2938pt" height="474pt"
 viewBox="0.00 0.00 2938.00 474.00" xmlns="http://www.w3.org/2000/svg" xmlns:xlink="http://www.w3.org/1999/xlink">
<g id="graph0" class="graph" transform="scale(1 1) rotate(0) translate(4 470)">
<title>/home/travis/build/AliceO2Group/AliceO2/Detectors/Base/include/DetectorsBase/Track.h</title>
<!-- Node1 -->
<g id="node1" class="node"><title>Node1</title>
<polygon fill="#bfbfbf" stroke="black" points="1509,-413 1509,-465 1631,-465 1631,-413 1509,-413"/>
<text text-anchor="start" x="1517" y="-453" font-family="Helvetica,sans-Serif" font-size="10.00">/home/travis/build</text>
<text text-anchor="start" x="1517" y="-442" font-family="Helvetica,sans-Serif" font-size="10.00">/AliceO2Group/AliceO2</text>
<text text-anchor="start" x="1517" y="-431" font-family="Helvetica,sans-Serif" font-size="10.00">/Detectors/Base/include</text>
<text text-anchor="middle" x="1570" y="-420" font-family="Helvetica,sans-Serif" font-size="10.00">/DetectorsBase/Track.h</text>
</g>
<!-- Node2 -->
<g id="node2" class="node"><title>Node2</title>
<g id="a_node2"><a xlink:href="../../da/d26/Detectors_2Base_2src_2Track_8cxx.html" target="_top" xlink:title="/home/travis/build\l/AliceO2Group/AliceO2\l/Detectors/Base/src/Track.cxx">
<polygon fill="none" stroke="black" points="-0.5,-323.5 -0.5,-364.5 150.5,-364.5 150.5,-323.5 -0.5,-323.5"/>
<text text-anchor="start" x="7.5" y="-352.5" font-family="Helvetica,sans-Serif" font-size="10.00">/home/travis/build</text>
<text text-anchor="start" x="7.5" y="-341.5" font-family="Helvetica,sans-Serif" font-size="10.00">/AliceO2Group/AliceO2</text>
<text text-anchor="middle" x="75" y="-330.5" font-family="Helvetica,sans-Serif" font-size="10.00">/Detectors/Base/src/Track.cxx</text>
</a>
</g>
</g>
<!-- Node1&#45;&gt;Node2 -->
<g id="edge1" class="edge"><title>Node1&#45;&gt;Node2</title>
<path fill="none" stroke="midnightblue" d="M1498.57,-437.554C1250.12,-435.581 424.67,-425.377 165,-376 151.2,-373.376 136.642,-369.077 123.351,-364.504"/>
<polygon fill="midnightblue" stroke="midnightblue" points="1498.89,-441.057 1508.92,-437.634 1498.94,-434.057 1498.89,-441.057"/>
</g>
<!-- Node3 -->
<g id="node3" class="node"><title>Node3</title>
<g id="a_node3"><a xlink:href="../../d1/db5/CAaux_8h.html" target="_top" xlink:title="/home/travis/build\l/AliceO2Group/AliceO2\l/Detectors/ITSMFT/ITS\l/reconstruction/include\l/ITSReconstruction/CAaux.h">
<polygon fill="none" stroke="black" points="419.5,-312.5 419.5,-375.5 562.5,-375.5 562.5,-312.5 419.5,-312.5"/>
<text text-anchor="start" x="427.5" y="-363.5" font-family="Helvetica,sans-Serif" font-size="10.00">/home/travis/build</text>
<text text-anchor="start" x="427.5" y="-352.5" font-family="Helvetica,sans-Serif" font-size="10.00">/AliceO2Group/AliceO2</text>
<text text-anchor="start" x="427.5" y="-341.5" font-family="Helvetica,sans-Serif" font-size="10.00">/Detectors/ITSMFT/ITS</text>
<text text-anchor="start" x="427.5" y="-330.5" font-family="Helvetica,sans-Serif" font-size="10.00">/reconstruction/include</text>
<text text-anchor="middle" x="491" y="-319.5" font-family="Helvetica,sans-Serif" font-size="10.00">/ITSReconstruction/CAaux.h</text>
</a>
</g>
</g>
<!-- Node1&#45;&gt;Node3 -->
<g id="edge2" class="edge"><title>Node1&#45;&gt;Node3</title>
<path fill="none" stroke="midnightblue" d="M1498.73,-431.857C1303.08,-414.994 759.181,-368.115 562.846,-351.192"/>
<polygon fill="midnightblue" stroke="midnightblue" points="1498.63,-435.362 1508.9,-432.733 1499.23,-428.388 1498.63,-435.362"/>
</g>
<!-- Node4 -->
<g id="node4" class="node"><title>Node4</title>
<g id="a_node4"><a xlink:href="../../d0/d37/CATracker_8h.html" target="_top" xlink:title="/home/travis/build\l/AliceO2Group/AliceO2\l/Detectors/ITSMFT/ITS\l/reconstruction/include\l/ITSReconstruction/CATracker.h">
<polygon fill="none" stroke="black" points="207,-106.5 207,-169.5 367,-169.5 367,-106.5 207,-106.5"/>
<text text-anchor="start" x="215" y="-157.5" font-family="Helvetica,sans-Serif" font-size="10.00">/home/travis/build</text>
<text text-anchor="start" x="215" y="-146.5" font-family="Helvetica,sans-Serif" font-size="10.00">/AliceO2Group/AliceO2</text>
<text text-anchor="start" x="215" y="-135.5" font-family="Helvetica,sans-Serif" font-size="10.00">/Detectors/ITSMFT/ITS</text>
<text text-anchor="start" x="215" y="-124.5" font-family="Helvetica,sans-Serif" font-size="10.00">/reconstruction/include</text>
<text text-anchor="middle" x="287" y="-113.5" font-family="Helvetica,sans-Serif" font-size="10.00">/ITSReconstruction/CATracker.h</text>
</a>
</g>
</g>
<!-- Node1&#45;&gt;Node4 -->
<g id="edge9" class="edge"><title>Node1&#45;&gt;Node4</title>
<path fill="none" stroke="midnightblue" d="M1498.73,-436.495C1262.21,-431.183 512.454,-411.683 410,-376 337.447,-350.731 304.27,-344.253 269,-276 251.71,-242.54 262.397,-198.593 273.249,-169.607"/>
<polygon fill="midnightblue" stroke="midnightblue" points="1498.86,-439.999 1508.93,-436.723 1499.01,-433 1498.86,-439.999"/>
</g>
<!-- Node5 -->
<g id="node5" class="node"><title>Node5</title>
<g id="a_node5"><a xlink:href="../../df/de8/CATracker_8cxx.html" target="_top" xlink:title="/home/travis/build\l/AliceO2Group/AliceO2\l/Detectors/ITSMFT/ITS\l/reconstruction/src/CATracker.cxx">
<polygon fill="none" stroke="black" points="149.5,-6 149.5,-58 316.5,-58 316.5,-6 149.5,-6"/>
<text text-anchor="start" x="157.5" y="-46" font-family="Helvetica,sans-Serif" font-size="10.00">/home/travis/build</text>
<text text-anchor="start" x="157.5" y="-35" font-family="Helvetica,sans-Serif" font-size="10.00">/AliceO2Group/AliceO2</text>
<text text-anchor="start" x="157.5" y="-24" font-family="Helvetica,sans-Serif" font-size="10.00">/Detectors/ITSMFT/ITS</text>
<text text-anchor="middle" x="233" y="-13" font-family="Helvetica,sans-Serif" font-size="10.00">/reconstruction/src/CATracker.cxx</text>
</a>
</g>
</g>
<!-- Node1&#45;&gt;Node5 -->
<g id="edge19" class="edge"><title>Node1&#45;&gt;Node5</title>
<path fill="none" stroke="midnightblue" d="M1498.61,-436.601C1236.3,-431.198 338.284,-410.264 288,-376 207.448,-321.112 218.455,-271.304 198,-176 190.912,-142.974 189.948,-132.804 198,-100 201.598,-85.3431 209.026,-70.3341 216.117,-58.247"/>
<polygon fill="midnightblue" stroke="midnightblue" points="1498.71,-440.104 1508.78,-436.81 1498.86,-433.106 1498.71,-440.104"/>
</g>
<!-- Node9 -->
<g id="node9" class="node"><title>Node9</title>
<g id="a_node9"><a xlink:href="../../d8/ddd/CookedTrack_8h.html" target="_top" xlink:title="Definition of the ITS cooked track. ">
<polygon fill="none" stroke="black" points="1058.5,-312.5 1058.5,-375.5 1229.5,-375.5 1229.5,-312.5 1058.5,-312.5"/>
<text text-anchor="start" x="1066.5" y="-363.5" font-family="Helvetica,sans-Serif" font-size="10.00">/home/travis/build</text>
<text text-anchor="start" x="1066.5" y="-352.5" font-family="Helvetica,sans-Serif" font-size="10.00">/AliceO2Group/AliceO2</text>
<text text-anchor="start" x="1066.5" y="-341.5" font-family="Helvetica,sans-Serif" font-size="10.00">/Detectors/ITSMFT/ITS</text>
<text text-anchor="start" x="1066.5" y="-330.5" font-family="Helvetica,sans-Serif" font-size="10.00">/reconstruction/include</text>
<text text-anchor="middle" x="1144" y="-319.5" font-family="Helvetica,sans-Serif" font-size="10.00">/ITSReconstruction/CookedTrack.h</text>
</a>
</g>
</g>
<!-- Node1&#45;&gt;Node9 -->
<g id="edge10" class="edge"><title>Node1&#45;&gt;Node9</title>
<path fill="none" stroke="midnightblue" d="M1498.79,-422.455C1424.69,-406.277 1308.63,-380.94 1229.59,-363.684"/>
<polygon fill="midnightblue" stroke="midnightblue" points="1498.45,-425.962 1508.96,-424.675 1499.94,-419.123 1498.45,-425.962"/>
</g>
<!-- Node18 -->
<g id="node18" class="node"><title>Node18</title>
<g id="a_node18"><a xlink:href="../../d5/dc9/TrackTPC_8h.html" target="_top" xlink:title="/home/travis/build\l/AliceO2Group/AliceO2\l/Detectors/TPC/reconstruction\l/include/TPCReconstruction\l/TrackTPC.h">
<polygon fill="none" stroke="black" points="1983,-312.5 1983,-375.5 2133,-375.5 2133,-312.5 1983,-312.5"/>
<text text-anchor="start" x="1991" y="-363.5" font-family="Helvetica,sans-Serif" font-size="10.00">/home/travis/build</text>
<text text-anchor="start" x="1991" y="-352.5" font-family="Helvetica,sans-Serif" font-size="10.00">/AliceO2Group/AliceO2</text>
<text text-anchor="start" x="1991" y="-341.5" font-family="Helvetica,sans-Serif" font-size="10.00">/Detectors/TPC/reconstruction</text>
<text text-anchor="start" x="1991" y="-330.5" font-family="Helvetica,sans-Serif" font-size="10.00">/include/TPCReconstruction</text>
<text text-anchor="middle" x="2058" y="-319.5" font-family="Helvetica,sans-Serif" font-size="10.00">/TrackTPC.h</text>
</a>
</g>
</g>
<!-- Node1&#45;&gt;Node18 -->
<g id="edge20" class="edge"><title>Node1&#45;&gt;Node18</title>
<path fill="none" stroke="midnightblue" d="M1641.29,-424.414C1732.54,-407.024 1889.94,-377.028 1982.96,-359.3"/>
<polygon fill="midnightblue" stroke="midnightblue" points="1640.48,-421.005 1631.31,-426.316 1641.79,-427.882 1640.48,-421.005"/>
</g>
<!-- Node19 -->
<g id="node19" class="node"><title>Node19</title>
<g id="a_node19"><a xlink:href="../../d9/d90/convertTracks_8C.html" target="_top" xlink:title="/home/travis/build\l/AliceO2Group/AliceO2\l/Detectors/TPC/reconstruction\l/macro/convertTracks.C">
<polygon fill="none" stroke="black" points="1395,-218 1395,-270 1545,-270 1545,-218 1395,-218"/>
<text text-anchor="start" x="1403" y="-258" font-family="Helvetica,sans-Serif" font-size="10.00">/home/travis/build</text>
<text text-anchor="start" x="1403" y="-247" font-family="Helvetica,sans-Serif" font-size="10.00">/AliceO2Group/AliceO2</text>
<text text-anchor="start" x="1403" y="-236" font-family="Helvetica,sans-Serif" font-size="10.00">/Detectors/TPC/reconstruction</text>
<text text-anchor="middle" x="1470" y="-225" font-family="Helvetica,sans-Serif" font-size="10.00">/macro/convertTracks.C</text>
</a>
</g>
</g>
<!-- Node1&#45;&gt;Node19 -->
<g id="edge32" class="edge"><title>Node1&#45;&gt;Node19</title>
<path fill="none" stroke="midnightblue" d="M1552.15,-403.552C1532.31,-365.262 1500.75,-304.339 1483.08,-270.238"/>
<polygon fill="midnightblue" stroke="midnightblue" points="1549.22,-405.5 1556.93,-412.769 1555.43,-402.279 1549.22,-405.5"/>
</g>
<!-- Node23 -->
<g id="node23" class="node"><title>Node23</title>
<g id="a_node23"><a xlink:href="../../d1/d27/runCATracking_8C.html" target="_top" xlink:title="/home/travis/build\l/AliceO2Group/AliceO2\l/Detectors/TPC/reconstruction\l/macro/runCATracking.C">
<polygon fill="none" stroke="black" points="1563,-218 1563,-270 1713,-270 1713,-218 1563,-218"/>
<text text-anchor="start" x="1571" y="-258" font-family="Helvetica,sans-Serif" font-size="10.00">/home/travis/build</text>
<text text-anchor="start" x="1571" y="-247" font-family="Helvetica,sans-Serif" font-size="10.00">/AliceO2Group/AliceO2</text>
<text text-anchor="start" x="1571" y="-236" font-family="Helvetica,sans-Serif" font-size="10.00">/Detectors/TPC/reconstruction</text>
<text text-anchor="middle" x="1638" y="-225" font-family="Helvetica,sans-Serif" font-size="10.00">/macro/runCATracking.C</text>
</a>
</g>
</g>
<!-- Node1&#45;&gt;Node23 -->
<g id="edge33" class="edge"><title>Node1&#45;&gt;Node23</title>
<path fill="none" stroke="midnightblue" d="M1582.31,-403.064C1595.81,-364.746 1617.14,-304.195 1629.11,-270.238"/>
<polygon fill="midnightblue" stroke="midnightblue" points="1578.91,-402.174 1578.89,-412.769 1585.51,-404.5 1578.91,-402.174"/>
</g>
<!-- Node25 -->
<g id="node25" class="node"><title>Node25</title>
<g id="a_node25"><a xlink:href="../../d1/df0/runCATrackingClusterNative_8C.html" target="_top" xlink:title="/home/travis/build\l/AliceO2Group/AliceO2\l/Detectors/TPC/reconstruction\l/macro/runCATrackingClusterNative.C">
<polygon fill="none" stroke="black" points="2234.5,-218 2234.5,-270 2419.5,-270 2419.5,-218 2234.5,-218"/>
<text text-anchor="start" x="2242.5" y="-258" font-family="Helvetica,sans-Serif" font-size="10.00">/home/travis/build</text>
<text text-anchor="start" x="2242.5" y="-247" font-family="Helvetica,sans-Serif" font-size="10.00">/AliceO2Group/AliceO2</text>
<text text-anchor="start" x="2242.5" y="-236" font-family="Helvetica,sans-Serif" font-size="10.00">/Detectors/TPC/reconstruction</text>
<text text-anchor="middle" x="2327" y="-225" font-family="Helvetica,sans-Serif" font-size="10.00">/macro/runCATrackingClusterNative.C</text>
</a>
</g>
</g>
<!-- Node1&#45;&gt;Node25 -->
<g id="edge34" class="edge"><title>Node1&#45;&gt;Node25</title>
<path fill="none" stroke="midnightblue" d="M1641.42,-434.702C1773.63,-427.866 2051.21,-409.886 2141,-376 2204.74,-351.943 2267.03,-300.826 2300.89,-270.041"/>
<polygon fill="midnightblue" stroke="midnightblue" points="1641.2,-431.209 1631.39,-435.214 1641.56,-438.2 1641.2,-431.209"/>
</g>
<!-- Node26 -->
<g id="node26" class="node"><title>Node26</title>
<g id="a_node26"><a xlink:href="../../db/d60/testTracks_8C.html" target="_top" xlink:title="/home/travis/build\l/AliceO2Group/AliceO2\l/Detectors/TPC/reconstruction\l/macro/testTracks.C">
<polygon fill="none" stroke="black" points="2437,-218 2437,-270 2587,-270 2587,-218 2437,-218"/>
<text text-anchor="start" x="2445" y="-258" font-family="Helvetica,sans-Serif" font-size="10.00">/home/travis/build</text>
<text text-anchor="start" x="2445" y="-247" font-family="Helvetica,sans-Serif" font-size="10.00">/AliceO2Group/AliceO2</text>
<text text-anchor="start" x="2445" y="-236" font-family="Helvetica,sans-Serif" font-size="10.00">/Detectors/TPC/reconstruction</text>
<text text-anchor="middle" x="2512" y="-225" font-family="Helvetica,sans-Serif" font-size="10.00">/macro/testTracks.C</text>
</a>
</g>
</g>
<!-- Node1&#45;&gt;Node26 -->
<g id="edge35" class="edge"><title>Node1&#45;&gt;Node26</title>
<path fill="none" stroke="midnightblue" d="M1641.44,-438.206C1760.73,-436.973 2007.2,-427.675 2208,-376 2303.73,-351.365 2408.05,-300.698 2466.21,-270.1"/>
<polygon fill="midnightblue" stroke="midnightblue" points="1641.31,-434.707 1631.34,-438.294 1641.37,-441.706 1641.31,-434.707"/>
</g>
<!-- Node27 -->
<g id="node27" class="node"><title>Node27</title>
<g id="a_node27"><a xlink:href="../../d8/ded/TPCCATracking_8cxx.html" target="_top" xlink:title="/home/travis/build\l/AliceO2Group/AliceO2\l/Detectors/TPC/reconstruction\l/src/TPCCATracking.cxx">
<polygon fill="none" stroke="black" points="2605,-218 2605,-270 2755,-270 2755,-218 2605,-218"/>
<text text-anchor="start" x="2613" y="-258" font-family="Helvetica,sans-Serif" font-size="10.00">/home/travis/build</text>
<text text-anchor="start" x="2613" y="-247" font-family="Helvetica,sans-Serif" font-size="10.00">/AliceO2Group/AliceO2</text>
<text text-anchor="start" x="2613" y="-236" font-family="Helvetica,sans-Serif" font-size="10.00">/Detectors/TPC/reconstruction</text>
<text text-anchor="middle" x="2680" y="-225" font-family="Helvetica,sans-Serif" font-size="10.00">/src/TPCCATracking.cxx</text>
</a>
</g>
</g>
<!-- Node1&#45;&gt;Node27 -->
<g id="edge36" class="edge"><title>Node1&#45;&gt;Node27</title>
<path fill="none" stroke="midnightblue" d="M1641.35,-437.854C1773.81,-436.294 2066.05,-426.787 2306,-376 2421.94,-351.461 2551.18,-300.636 2623.33,-270.009"/>
<polygon fill="midnightblue" stroke="midnightblue" points="1641.29,-434.354 1631.33,-437.96 1641.37,-441.354 1641.29,-434.354"/>
</g>
<!-- Node29 -->
<g id="node29" class="node"><title>Node29</title>
<g id="a_node29"><a xlink:href="../../d9/d59/testHitsDigitsClusters_8C.html" target="_top" xlink:title="/home/travis/build\l/AliceO2Group/AliceO2\l/Detectors/TPC/simulation\l/macro/testHitsDigitsClusters.C">
<polygon fill="none" stroke="black" points="2773.5,-218 2773.5,-270 2930.5,-270 2930.5,-218 2773.5,-218"/>
<text text-anchor="start" x="2781.5" y="-258" font-family="Helvetica,sans-Serif" font-size="10.00">/home/travis/build</text>
<text text-anchor="start" x="2781.5" y="-247" font-family="Helvetica,sans-Serif" font-size="10.00">/AliceO2Group/AliceO2</text>
<text text-anchor="start" x="2781.5" y="-236" font-family="Helvetica,sans-Serif" font-size="10.00">/Detectors/TPC/simulation</text>
<text text-anchor="middle" x="2852" y="-225" font-family="Helvetica,sans-Serif" font-size="10.00">/macro/testHitsDigitsClusters.C</text>
</a>
</g>
</g>
<!-- Node1&#45;&gt;Node29 -->
<g id="edge37" class="edge"><title>Node1&#45;&gt;Node29</title>
<path fill="none" stroke="midnightblue" d="M1641.31,-437.933C1788.6,-436.677 2136.58,-427.914 2423,-376 2555.18,-352.042 2704.01,-300.892 2787.04,-270.072"/>
<polygon fill="midnightblue" stroke="midnightblue" points="1641.03,-434.435 1631.06,-438.011 1641.09,-441.435 1641.03,-434.435"/>
</g>
<!-- Node3&#45;&gt;Node4 -->
<g id="edge3" class="edge"><title>Node3&#45;&gt;Node4</title>
<path fill="none" stroke="midnightblue" d="M409.102,-337.792C366.023,-330.41 316.561,-313.598 289,-276 266.569,-245.4 271.313,-199.749 278.076,-169.68"/>
<polygon fill="midnightblue" stroke="midnightblue" points="408.618,-341.259 419.04,-339.351 409.703,-334.344 408.618,-341.259"/>
</g>
<!-- Node6 -->
<g id="node6" class="node"><title>Node6</title>
<g id="a_node6"><a xlink:href="../../d5/df0/CATrackingStation_8h.html" target="_top" xlink:title="/home/travis/build\l/AliceO2Group/AliceO2\l/Detectors/ITSMFT/ITS\l/reconstruction/include\l/ITSReconstruction/CATrackingStation.h">
<polygon fill="none" stroke="black" points="298.5,-212.5 298.5,-275.5 493.5,-275.5 493.5,-212.5 298.5,-212.5"/>
<text text-anchor="start" x="306.5" y="-263.5" font-family="Helvetica,sans-Serif" font-size="10.00">/home/travis/build</text>
<text text-anchor="start" x="306.5" y="-252.5" font-family="Helvetica,sans-Serif" font-size="10.00">/AliceO2Group/AliceO2</text>
<text text-anchor="start" x="306.5" y="-241.5" font-family="Helvetica,sans-Serif" font-size="10.00">/Detectors/ITSMFT/ITS</text>
<text text-anchor="start" x="306.5" y="-230.5" font-family="Helvetica,sans-Serif" font-size="10.00">/reconstruction/include</text>
<text text-anchor="middle" x="396" y="-219.5" font-family="Helvetica,sans-Serif" font-size="10.00">/ITSReconstruction/CATrackingStation.h</text>
</a>
</g>
</g>
<!-- Node3&#45;&gt;Node6 -->
<g id="edge5" class="edge"><title>Node3&#45;&gt;Node6</title>
<path fill="none" stroke="midnightblue" d="M454.138,-304.974C444.715,-295.253 434.704,-284.926 425.692,-275.63"/>
<polygon fill="midnightblue" stroke="midnightblue" points="451.729,-307.517 461.202,-312.261 456.755,-302.645 451.729,-307.517"/>
</g>
<!-- Node8 -->
<g id="node8" class="node"><title>Node8</title>
<g id="a_node8"><a xlink:href="../../db/d2e/CAaux_8cxx.html" target="_top" xlink:title="/home/travis/build\l/AliceO2Group/AliceO2\l/Detectors/ITSMFT/ITS\l/reconstruction/src/CAaux.cxx">
<polygon fill="none" stroke="black" points="511.5,-218 511.5,-270 660.5,-270 660.5,-218 511.5,-218"/>
<text text-anchor="start" x="519.5" y="-258" font-family="Helvetica,sans-Serif" font-size="10.00">/home/travis/build</text>
<text text-anchor="start" x="519.5" y="-247" font-family="Helvetica,sans-Serif" font-size="10.00">/AliceO2Group/AliceO2</text>
<text text-anchor="start" x="519.5" y="-236" font-family="Helvetica,sans-Serif" font-size="10.00">/Detectors/ITSMFT/ITS</text>
<text text-anchor="middle" x="586" y="-225" font-family="Helvetica,sans-Serif" font-size="10.00">/reconstruction/src/CAaux.cxx</text>
</a>
</g>
</g>
<!-- Node3&#45;&gt;Node8 -->
<g id="edge8" class="edge"><title>Node3&#45;&gt;Node8</title>
<path fill="none" stroke="midnightblue" d="M528.073,-304.756C539.369,-293.104 551.492,-280.598 561.713,-270.054"/>
<polygon fill="midnightblue" stroke="midnightblue" points="525.245,-302.645 520.798,-312.261 530.271,-307.517 525.245,-302.645"/>
</g>
<!-- Node4&#45;&gt;Node5 -->
<g id="edge4" class="edge"><title>Node4&#45;&gt;Node5</title>
<path fill="none" stroke="midnightblue" d="M266.469,-97.4596C259.625,-84.2778 252.191,-69.9609 246.072,-58.1755"/>
<polygon fill="midnightblue" stroke="midnightblue" points="263.376,-99.097 271.09,-106.359 269.588,-95.8712 263.376,-99.097"/>
</g>
<!-- Node6&#45;&gt;Node4 -->
<g id="edge6" class="edge"><title>Node6&#45;&gt;Node4</title>
<path fill="none" stroke="midnightblue" d="M356.444,-205.258C344.227,-193.602 330.924,-180.909 319.261,-169.781"/>
<polygon fill="midnightblue" stroke="midnightblue" points="354.235,-207.988 363.886,-212.359 359.067,-202.924 354.235,-207.988"/>
</g>
<!-- Node7 -->
<g id="node7" class="node"><title>Node7</title>
<g id="a_node7"><a xlink:href="../../d0/d81/CATrackingStation_8cxx.html" target="_top" xlink:title="/home/travis/build\l/AliceO2Group/AliceO2\l/Detectors/ITSMFT/ITS\l/reconstruction/src/CATracking\lStation.cxx">
<polygon fill="none" stroke="black" points="385,-106.5 385,-169.5 537,-169.5 537,-106.5 385,-106.5"/>
<text text-anchor="start" x="393" y="-157.5" font-family="Helvetica,sans-Serif" font-size="10.00">/home/travis/build</text>
<text text-anchor="start" x="393" y="-146.5" font-family="Helvetica,sans-Serif" font-size="10.00">/AliceO2Group/AliceO2</text>
<text text-anchor="start" x="393" y="-135.5" font-family="Helvetica,sans-Serif" font-size="10.00">/Detectors/ITSMFT/ITS</text>
<text text-anchor="start" x="393" y="-124.5" font-family="Helvetica,sans-Serif" font-size="10.00">/reconstruction/src/CATracking</text>
<text text-anchor="middle" x="461" y="-113.5" font-family="Helvetica,sans-Serif" font-size="10.00">Station.cxx</text>
</a>
</g>
</g>
<!-- Node6&#45;&gt;Node7 -->
<g id="edge7" class="edge"><title>Node6&#45;&gt;Node7</title>
<path fill="none" stroke="midnightblue" d="M420.624,-203.602C427.62,-192.408 435.135,-180.384 441.762,-169.781"/>
<polygon fill="midnightblue" stroke="midnightblue" points="417.483,-202.024 415.151,-212.359 423.419,-205.734 417.483,-202.024"/>
</g>
<!-- Node10 -->
<g id="node10" class="node"><title>Node10</title>
<g id="a_node10"><a xlink:href="../../dc/df8/CheckTracks_8C.html" target="_top" xlink:title="Simple macro to check ITSU tracks. ">
<polygon fill="none" stroke="black" points="1072.5,-218 1072.5,-270 1215.5,-270 1215.5,-218 1072.5,-218"/>
<text text-anchor="start" x="1080.5" y="-258" font-family="Helvetica,sans-Serif" font-size="10.00">/home/travis/build</text>
<text text-anchor="start" x="1080.5" y="-247" font-family="Helvetica,sans-Serif" font-size="10.00">/AliceO2Group/AliceO2</text>
<text text-anchor="start" x="1080.5" y="-236" font-family="Helvetica,sans-Serif" font-size="10.00">/Detectors/ITSMFT/ITS</text>
<text text-anchor="middle" x="1144" y="-225" font-family="Helvetica,sans-Serif" font-size="10.00">/macros/test/CheckTracks.C</text>
</a>
</g>
</g>
<!-- Node9&#45;&gt;Node10 -->
<g id="edge11" class="edge"><title>Node9&#45;&gt;Node10</title>
<path fill="none" stroke="midnightblue" d="M1144,-302.079C1144,-291.21 1144,-279.794 1144,-270.054"/>
<polygon fill="midnightblue" stroke="midnightblue" points="1140.5,-302.261 1144,-312.261 1147.5,-302.261 1140.5,-302.261"/>
</g>
<!-- Node11 -->
<g id="node11" class="node"><title>Node11</title>
<g id="a_node11"><a xlink:href="../../d5/df6/DisplayTrack_8C.html" target="_top" xlink:title="Simple macro to display ITSU tracks. ">
<polygon fill="none" stroke="black" points="1233.5,-218 1233.5,-270 1376.5,-270 1376.5,-218 1233.5,-218"/>
<text text-anchor="start" x="1241.5" y="-258" font-family="Helvetica,sans-Serif" font-size="10.00">/home/travis/build</text>
<text text-anchor="start" x="1241.5" y="-247" font-family="Helvetica,sans-Serif" font-size="10.00">/AliceO2Group/AliceO2</text>
<text text-anchor="start" x="1241.5" y="-236" font-family="Helvetica,sans-Serif" font-size="10.00">/Detectors/ITSMFT/ITS</text>
<text text-anchor="middle" x="1305" y="-225" font-family="Helvetica,sans-Serif" font-size="10.00">/macros/test/DisplayTrack.C</text>
</a>
</g>
</g>
<!-- Node9&#45;&gt;Node11 -->
<g id="edge12" class="edge"><title>Node9&#45;&gt;Node11</title>
<path fill="none" stroke="midnightblue" d="M1203.29,-306.91C1223.42,-294.66 1245.45,-281.251 1263.84,-270.054"/>
<polygon fill="midnightblue" stroke="midnightblue" points="1201.22,-304.072 1194.5,-312.261 1204.86,-310.051 1201.22,-304.072"/>
</g>
<!-- Node12 -->
<g id="node12" class="node"><title>Node12</title>
<g id="a_node12"><a xlink:href="../../d6/d0c/CookedTracker_8h.html" target="_top" xlink:title="Definition of the &quot;Cooked Matrix&quot; ITS tracker. ">
<polygon fill="none" stroke="black" points="678.5,-212.5 678.5,-275.5 857.5,-275.5 857.5,-212.5 678.5,-212.5"/>
<text text-anchor="start" x="686.5" y="-263.5" font-family="Helvetica,sans-Serif" font-size="10.00">/home/travis/build</text>
<text text-anchor="start" x="686.5" y="-252.5" font-family="Helvetica,sans-Serif" font-size="10.00">/AliceO2Group/AliceO2</text>
<text text-anchor="start" x="686.5" y="-241.5" font-family="Helvetica,sans-Serif" font-size="10.00">/Detectors/ITSMFT/ITS</text>
<text text-anchor="start" x="686.5" y="-230.5" font-family="Helvetica,sans-Serif" font-size="10.00">/reconstruction/include</text>
<text text-anchor="middle" x="768" y="-219.5" font-family="Helvetica,sans-Serif" font-size="10.00">/ITSReconstruction/CookedTracker.h</text>
</a>
</g>
</g>
<!-- Node9&#45;&gt;Node12 -->
<g id="edge13" class="edge"><title>Node9&#45;&gt;Node12</title>
<path fill="none" stroke="midnightblue" d="M1048.62,-321.571C995.024,-309.12 927.035,-292.64 867,-276 863.963,-275.158 860.878,-274.286 857.767,-273.393"/>
<polygon fill="midnightblue" stroke="midnightblue" points="1047.92,-325.002 1058.45,-323.848 1049.5,-318.183 1047.92,-325.002"/>
</g>
<!-- Node17 -->
<g id="node17" class="node"><title>Node17</title>
<g id="a_node17"><a xlink:href="../../d1/d6b/CookedTrack_8cxx.html" target="_top" xlink:title="Implementation of the ITS cooked track. ">
<polygon fill="none" stroke="black" points="876,-218 876,-270 1054,-270 1054,-218 876,-218"/>
<text text-anchor="start" x="884" y="-258" font-family="Helvetica,sans-Serif" font-size="10.00">/home/travis/build</text>
<text text-anchor="start" x="884" y="-247" font-family="Helvetica,sans-Serif" font-size="10.00">/AliceO2Group/AliceO2</text>
<text text-anchor="start" x="884" y="-236" font-family="Helvetica,sans-Serif" font-size="10.00">/Detectors/ITSMFT/ITS</text>
<text text-anchor="middle" x="965" y="-225" font-family="Helvetica,sans-Serif" font-size="10.00">/reconstruction/src/CookedTrack.cxx</text>
</a>
</g>
</g>
<!-- Node9&#45;&gt;Node17 -->
<g id="edge18" class="edge"><title>Node9&#45;&gt;Node17</title>
<path fill="none" stroke="midnightblue" d="M1078.98,-307.404C1056.36,-295.021 1031.49,-281.401 1010.76,-270.054"/>
<polygon fill="midnightblue" stroke="midnightblue" points="1077.4,-310.529 1087.85,-312.261 1080.76,-304.389 1077.4,-310.529"/>
</g>
<!-- Node13 -->
<g id="node13" class="node"><title>Node13</title>
<g id="a_node13"><a xlink:href="../../d3/d9f/CookedTrackerTask_8h.html" target="_top" xlink:title="Definition of the ITS &quot;Cooked Matrix&quot; tracker task. ">
<polygon fill="none" stroke="black" points="811.5,-101 811.5,-175 982.5,-175 982.5,-101 811.5,-101"/>
<text text-anchor="start" x="819.5" y="-163" font-family="Helvetica,sans-Serif" font-size="10.00">/home/travis/build</text>
<text text-anchor="start" x="819.5" y="-152" font-family="Helvetica,sans-Serif" font-size="10.00">/AliceO2Group/AliceO2</text>
<text text-anchor="start" x="819.5" y="-141" font-family="Helvetica,sans-Serif" font-size="10.00">/Detectors/ITSMFT/ITS</text>
<text text-anchor="start" x="819.5" y="-130" font-family="Helvetica,sans-Serif" font-size="10.00">/reconstruction/include</text>
<text text-anchor="start" x="819.5" y="-119" font-family="Helvetica,sans-Serif" font-size="10.00">/ITSReconstruction/CookedTracker</text>
<text text-anchor="middle" x="897" y="-108" font-family="Helvetica,sans-Serif" font-size="10.00">Task.h</text>
</a>
</g>
</g>
<!-- Node12&#45;&gt;Node13 -->
<g id="edge14" class="edge"><title>Node12&#45;&gt;Node13</title>
<path fill="none" stroke="midnightblue" d="M813.964,-205.943C826.324,-195.979 839.676,-185.214 851.984,-175.292"/>
<polygon fill="midnightblue" stroke="midnightblue" points="811.595,-203.358 806.007,-212.359 815.988,-208.807 811.595,-203.358"/>
</g>
<!-- Node16 -->
<g id="node16" class="node"><title>Node16</title>
<g id="a_node16"><a xlink:href="../../d7/dca/CookedTracker_8cxx.html" target="_top" xlink:title="Implementation of the &quot;Cooked Matrix&quot; ITS tracker. ">
<polygon fill="none" stroke="black" points="607,-112 607,-164 793,-164 793,-112 607,-112"/>
<text text-anchor="start" x="615" y="-152" font-family="Helvetica,sans-Serif" font-size="10.00">/home/travis/build</text>
<text text-anchor="start" x="615" y="-141" font-family="Helvetica,sans-Serif" font-size="10.00">/AliceO2Group/AliceO2</text>
<text text-anchor="start" x="615" y="-130" font-family="Helvetica,sans-Serif" font-size="10.00">/Detectors/ITSMFT/ITS</text>
<text text-anchor="middle" x="700" y="-119" font-family="Helvetica,sans-Serif" font-size="10.00">/reconstruction/src/CookedTracker.cxx</text>
</a>
</g>
</g>
<!-- Node12&#45;&gt;Node16 -->
<g id="edge17" class="edge"><title>Node12&#45;&gt;Node16</title>
<path fill="none" stroke="midnightblue" d="M742.395,-203.84C733.708,-190.553 724.241,-176.074 716.461,-164.175"/>
<polygon fill="midnightblue" stroke="midnightblue" points="739.564,-205.905 747.966,-212.359 745.422,-202.074 739.564,-205.905"/>
</g>
<!-- Node14 -->
<g id="node14" class="node"><title>Node14</title>
<g id="a_node14"><a xlink:href="../../d5/da2/CookedTrackerTask_8cxx.html" target="_top" xlink:title="Implementation of the ITS &quot;Cooked Matrix&quot; tracker task. ">
<polygon fill="none" stroke="black" points="893.5,-0.5 893.5,-63.5 1060.5,-63.5 1060.5,-0.5 893.5,-0.5"/>
<text text-anchor="start" x="901.5" y="-51.5" font-family="Helvetica,sans-Serif" font-size="10.00">/home/travis/build</text>
<text text-anchor="start" x="901.5" y="-40.5" font-family="Helvetica,sans-Serif" font-size="10.00">/AliceO2Group/AliceO2</text>
<text text-anchor="start" x="901.5" y="-29.5" font-family="Helvetica,sans-Serif" font-size="10.00">/Detectors/ITSMFT/ITS</text>
<text text-anchor="start" x="901.5" y="-18.5" font-family="Helvetica,sans-Serif" font-size="10.00">/reconstruction/src/CookedTracker</text>
<text text-anchor="middle" x="977" y="-7.5" font-family="Helvetica,sans-Serif" font-size="10.00">Task.cxx</text>
</a>
</g>
</g>
<!-- Node13&#45;&gt;Node14 -->
<g id="edge15" class="edge"><title>Node13&#45;&gt;Node14</title>
<path fill="none" stroke="midnightblue" d="M930.973,-92.8356C938.484,-83.0712 946.285,-72.9296 953.284,-63.8307"/>
<polygon fill="midnightblue" stroke="midnightblue" points="928.079,-90.8575 924.756,-100.918 933.627,-95.1255 928.079,-90.8575"/>
</g>
<!-- Node15 -->
<g id="node15" class="node"><title>Node15</title>
<g id="a_node15"><a xlink:href="../../dd/d4e/run__trac__its_8C.html" target="_top" xlink:title="/home/travis/build\l/AliceO2Group/AliceO2\l/macro/run_trac_its.C">
<polygon fill="none" stroke="black" points="757,-11.5 757,-52.5 875,-52.5 875,-11.5 757,-11.5"/>
<text text-anchor="start" x="765" y="-40.5" font-family="Helvetica,sans-Serif" font-size="10.00">/home/travis/build</text>
<text text-anchor="start" x="765" y="-29.5" font-family="Helvetica,sans-Serif" font-size="10.00">/AliceO2Group/AliceO2</text>
<text text-anchor="middle" x="816" y="-18.5" font-family="Helvetica,sans-Serif" font-size="10.00">/macro/run_trac_its.C</text>
</a>
</g>
</g>
<!-- Node13&#45;&gt;Node15 -->
<g id="edge16" class="edge"><title>Node13&#45;&gt;Node15</title>
<path fill="none" stroke="midnightblue" d="M862.572,-92.7957C851.668,-78.7961 840.164,-64.0252 831.317,-52.6667"/>
<polygon fill="midnightblue" stroke="midnightblue" points="859.991,-95.1789 868.897,-100.918 865.514,-90.8776 859.991,-95.1789"/>
</g>
<!-- Node18&#45;&gt;Node19 -->
<g id="edge21" class="edge"><title>Node18&#45;&gt;Node19</title>
<path fill="none" stroke="midnightblue" d="M1972.58,-337.433C1871.46,-329.52 1698.55,-311.81 1554,-276 1547.21,-274.318 1540.21,-272.269 1533.29,-270.035"/>
<polygon fill="midnightblue" stroke="midnightblue" points="1972.5,-340.937 1982.74,-338.214 1973.04,-333.958 1972.5,-340.937"/>
</g>
<!-- Node20 -->
<g id="node20" class="node"><title>Node20</title>
<g id="a_node20"><a xlink:href="../../d6/dee/dEdxRes_8C.html" target="_top" xlink:title="/home/travis/build\l/AliceO2Group/AliceO2\l/Detectors/TPC/reconstruction\l/macro/dEdxRes.C">
<polygon fill="none" stroke="black" points="1731,-218 1731,-270 1881,-270 1881,-218 1731,-218"/>
<text text-anchor="start" x="1739" y="-258" font-family="Helvetica,sans-Serif" font-size="10.00">/home/travis/build</text>
<text text-anchor="start" x="1739" y="-247" font-family="Helvetica,sans-Serif" font-size="10.00">/AliceO2Group/AliceO2</text>
<text text-anchor="start" x="1739" y="-236" font-family="Helvetica,sans-Serif" font-size="10.00">/Detectors/TPC/reconstruction</text>
<text text-anchor="middle" x="1806" y="-225" font-family="Helvetica,sans-Serif" font-size="10.00">/macro/dEdxRes.C</text>
</a>
</g>
</g>
<!-- Node18&#45;&gt;Node20 -->
<g id="edge22" class="edge"><title>Node18&#45;&gt;Node20</title>
<path fill="none" stroke="midnightblue" d="M1973.4,-310.1C1939.86,-297.058 1901.92,-282.303 1870.65,-270.142"/>
<polygon fill="midnightblue" stroke="midnightblue" points="1972.14,-313.367 1982.73,-313.73 1974.68,-306.843 1972.14,-313.367"/>
</g>
<!-- Node21 -->
<g id="node21" class="node"><title>Node21</title>
<g id="a_node21"><a xlink:href="../../d5/db8/RawClusterFinder_8C.html" target="_top" xlink:title="/home/travis/build\l/AliceO2Group/AliceO2\l/Detectors/TPC/reconstruction\l/macro/RawClusterFinder.C">
<polygon fill="none" stroke="black" points="1899,-218 1899,-270 2049,-270 2049,-218 1899,-218"/>
<text text-anchor="start" x="1907" y="-258" font-family="Helvetica,sans-Serif" font-size="10.00">/home/travis/build</text>
<text text-anchor="start" x="1907" y="-247" font-family="Helvetica,sans-Serif" font-size="10.00">/AliceO2Group/AliceO2</text>
<text text-anchor="start" x="1907" y="-236" font-family="Helvetica,sans-Serif" font-size="10.00">/Detectors/TPC/reconstruction</text>
<text text-anchor="middle" x="1974" y="-225" font-family="Helvetica,sans-Serif" font-size="10.00">/macro/RawClusterFinder.C</text>
</a>
</g>
</g>
<!-- Node18&#45;&gt;Node21 -->
<g id="edge23" class="edge"><title>Node18&#45;&gt;Node21</title>
<path fill="none" stroke="midnightblue" d="M2024.93,-304.423C2015.03,-292.866 2004.43,-280.497 1995.47,-270.054"/>
<polygon fill="midnightblue" stroke="midnightblue" points="2022.49,-306.946 2031.65,-312.261 2027.8,-302.391 2022.49,-306.946"/>
</g>
<!-- Node18&#45;&gt;Node23 -->
<g id="edge25" class="edge"><title>Node18&#45;&gt;Node23</title>
<path fill="none" stroke="midnightblue" d="M1972.92,-329.831C1904.47,-318.329 1806.16,-299.762 1722,-276 1715.72,-274.226 1709.23,-272.2 1702.79,-270.052"/>
<polygon fill="midnightblue" stroke="midnightblue" points="1972.36,-333.285 1982.8,-331.476 1973.51,-326.38 1972.36,-333.285"/>
</g>
<!-- Node18&#45;&gt;Node25 -->
<g id="edge27" class="edge"><title>Node18&#45;&gt;Node25</title>
<path fill="none" stroke="midnightblue" d="M2143.09,-312.002C2180.19,-298.483 2223.13,-282.842 2258.18,-270.073"/>
<polygon fill="midnightblue" stroke="midnightblue" points="2141.49,-308.86 2133.29,-315.571 2143.88,-315.437 2141.49,-308.86"/>
</g>
<!-- Node18&#45;&gt;Node26 -->
<g id="edge28" class="edge"><title>Node18&#45;&gt;Node26</title>
<path fill="none" stroke="midnightblue" d="M2143.22,-331.881C2218.82,-320.999 2331.86,-302.228 2428,-276 2434.45,-274.241 2441.1,-272.198 2447.71,-270.016"/>
<polygon fill="midnightblue" stroke="midnightblue" points="2142.67,-328.423 2133.27,-333.299 2143.66,-335.353 2142.67,-328.423"/>
</g>
<!-- Node18&#45;&gt;Node27 -->
<g id="edge29" class="edge"><title>Node18&#45;&gt;Node27</title>
<path fill="none" stroke="midnightblue" d="M2143.31,-338.308C2250.14,-331.078 2438.18,-313.865 2595,-276 2601.87,-274.341 2608.95,-272.307 2615.96,-270.082"/>
<polygon fill="midnightblue" stroke="midnightblue" points="2142.97,-334.822 2133.23,-338.976 2143.44,-341.807 2142.97,-334.822"/>
</g>
<!-- Node28 -->
<g id="node28" class="node"><title>Node28</title>
<g id="a_node28"><a xlink:href="../../d6/da8/TrackTPC_8cxx.html" target="_top" xlink:title="Implementation of the TPC track. ">
<polygon fill="none" stroke="black" points="2067,-218 2067,-270 2217,-270 2217,-218 2067,-218"/>
<text text-anchor="start" x="2075" y="-258" font-family="Helvetica,sans-Serif" font-size="10.00">/home/travis/build</text>
<text text-anchor="start" x="2075" y="-247" font-family="Helvetica,sans-Serif" font-size="10.00">/AliceO2Group/AliceO2</text>
<text text-anchor="start" x="2075" y="-236" font-family="Helvetica,sans-Serif" font-size="10.00">/Detectors/TPC/reconstruction</text>
<text text-anchor="middle" x="2142" y="-225" font-family="Helvetica,sans-Serif" font-size="10.00">/src/TrackTPC.cxx</text>
</a>
</g>
</g>
<!-- Node18&#45;&gt;Node28 -->
<g id="edge30" class="edge"><title>Node18&#45;&gt;Node28</title>
<path fill="none" stroke="midnightblue" d="M2091.07,-304.423C2100.97,-292.866 2111.57,-280.497 2120.53,-270.054"/>
<polygon fill="midnightblue" stroke="midnightblue" points="2088.2,-302.391 2084.35,-312.261 2093.51,-306.946 2088.2,-302.391"/>
</g>
<!-- Node18&#45;&gt;Node29 -->
<g id="edge31" class="edge"><title>Node18&#45;&gt;Node29</title>
<path fill="none" stroke="midnightblue" d="M2143.17,-341.485C2276.72,-337.642 2542.91,-324.053 2763,-276 2770.35,-274.395 2777.94,-272.365 2785.43,-270.116"/>
<polygon fill="midnightblue" stroke="midnightblue" points="2142.9,-337.991 2133,-341.766 2143.09,-344.988 2142.9,-337.991"/>
</g>
<!-- Node22 -->
<g id="node22" class="node"><title>Node22</title>
<g id="a_node22"><a xlink:href="../../df/da0/runRawClusterFinder_8C.html" target="_top" xlink:title="/home/travis/build\l/AliceO2Group/AliceO2\l/Detectors/TPC/reconstruction\l/macro/runRawClusterFinder.C">
<polygon fill="none" stroke="black" points="1898,-112 1898,-164 2050,-164 2050,-112 1898,-112"/>
<text text-anchor="start" x="1906" y="-152" font-family="Helvetica,sans-Serif" font-size="10.00">/home/travis/build</text>
<text text-anchor="start" x="1906" y="-141" font-family="Helvetica,sans-Serif" font-size="10.00">/AliceO2Group/AliceO2</text>
<text text-anchor="start" x="1906" y="-130" font-family="Helvetica,sans-Serif" font-size="10.00">/Detectors/TPC/reconstruction</text>
<text text-anchor="middle" x="1974" y="-119" font-family="Helvetica,sans-Serif" font-size="10.00">/macro/runRawClusterFinder.C</text>
</a>
</g>
</g>
<!-- Node21&#45;&gt;Node22 -->
<g id="edge24" class="edge"><title>Node21&#45;&gt;Node22</title>
<path fill="none" stroke="midnightblue" d="M1974,-207.42C1974,-193.246 1974,-177.258 1974,-164.304"/>
<polygon fill="midnightblue" stroke="midnightblue" points="1970.5,-207.824 1974,-217.825 1977.5,-207.825 1970.5,-207.824"/>
</g>
<!-- Node24 -->
<g id="node24" class="node"><title>Node24</title>
<g id="a_node24"><a xlink:href="../../d3/d56/runTPC_8cxx.html" target="_top" xlink:title="/home/travis/build\l/AliceO2Group/AliceO2\l/run/runTPC.cxx">
<polygon fill="none" stroke="black" points="1579,-117.5 1579,-158.5 1697,-158.5 1697,-117.5 1579,-117.5"/>
<text text-anchor="start" x="1587" y="-146.5" font-family="Helvetica,sans-Serif" font-size="10.00">/home/travis/build</text>
<text text-anchor="start" x="1587" y="-135.5" font-family="Helvetica,sans-Serif" font-size="10.00">/AliceO2Group/AliceO2</text>
<text text-anchor="middle" x="1638" y="-124.5" font-family="Helvetica,sans-Serif" font-size="10.00">/run/runTPC.cxx</text>
</a>
</g>
</g>
<!-- Node23&#45;&gt;Node24 -->
<g id="edge26" class="edge"><title>Node23&#45;&gt;Node24</title>
<path fill="none" stroke="midnightblue" d="M1638,-207.534C1638,-191.225 1638,-172.495 1638,-158.741"/>
<polygon fill="midnightblue" stroke="midnightblue" points="1634.5,-207.824 1638,-217.825 1641.5,-207.825 1634.5,-207.824"/>
</g>
</g>
</svg>
