<?xml version="1.0" encoding="UTF-8" standalone="no"?>
<!DOCTYPE svg PUBLIC "-//W3C//DTD SVG 1.1//EN"
 "http://www.w3.org/Graphics/SVG/1.1/DTD/svg11.dtd">
<!-- Generated by graphviz version 2.36.0 (20140111.2315)
 -->
<!-- Title: /home/travis/build/AliceO2Group/AliceO2/macro/run_clus_mft.C Pages: 1 -->
<svg width="2299pt" height="582pt"
 viewBox="0.00 0.00 2299.00 582.00" xmlns="http://www.w3.org/2000/svg" xmlns:xlink="http://www.w3.org/1999/xlink">
<g id="graph0" class="graph" transform="scale(1 1) rotate(0) translate(4 578)">
<title>/home/travis/build/AliceO2Group/AliceO2/macro/run_clus_mft.C</title>
<!-- Node1 -->
<g id="node1" class="node"><title>Node1</title>
<polygon fill="#bfbfbf" stroke="black" points="285,-532.5 285,-573.5 403,-573.5 403,-532.5 285,-532.5"/>
<text text-anchor="start" x="293" y="-561.5" font-family="Helvetica,sans-Serif" font-size="10.00">/home/travis/build</text>
<text text-anchor="start" x="293" y="-550.5" font-family="Helvetica,sans-Serif" font-size="10.00">/AliceO2Group/AliceO2</text>
<text text-anchor="middle" x="344" y="-539.5" font-family="Helvetica,sans-Serif" font-size="10.00">/macro/run_clus_mft.C</text>
</g>
<!-- Node2 -->
<g id="node2" class="node"><title>Node2</title>
<polygon fill="none" stroke="#bfbfbf" points="0,-470.5 0,-489.5 52,-489.5 52,-470.5 0,-470.5"/>
<text text-anchor="middle" x="26" y="-477.5" font-family="Helvetica,sans-Serif" font-size="10.00">sstream</text>
</g>
<!-- Node1&#45;&gt;Node2 -->
<g id="edge1" class="edge"><title>Node1&#45;&gt;Node2</title>
<path fill="none" stroke="midnightblue" d="M284.845,-543.99C226.964,-535.293 136.716,-519.432 61,-496 58.5133,-495.23 55.9636,-494.343 53.429,-493.391"/>
<polygon fill="midnightblue" stroke="midnightblue" points="54.4766,-490.039 43.8943,-489.523 51.8447,-496.526 54.4766,-490.039"/>
</g>
<!-- Node3 -->
<g id="node3" class="node"><title>Node3</title>
<polygon fill="none" stroke="#bfbfbf" points="70.5,-470.5 70.5,-489.5 147.5,-489.5 147.5,-470.5 70.5,-470.5"/>
<text text-anchor="middle" x="109" y="-477.5" font-family="Helvetica,sans-Serif" font-size="10.00">TStopwatch.h</text>
</g>
<!-- Node1&#45;&gt;Node3 -->
<g id="edge2" class="edge"><title>Node1&#45;&gt;Node3</title>
<path fill="none" stroke="midnightblue" d="M284.7,-534.084C241.573,-521.054 184.451,-503.796 147.225,-492.549"/>
<polygon fill="midnightblue" stroke="midnightblue" points="147.866,-489.086 137.281,-489.544 145.841,-495.787 147.866,-489.086"/>
</g>
<!-- Node4 -->
<g id="node4" class="node"><title>Node4</title>
<polygon fill="none" stroke="#bfbfbf" points="532.5,-142.5 532.5,-161.5 603.5,-161.5 603.5,-142.5 532.5,-142.5"/>
<text text-anchor="middle" x="568" y="-149.5" font-family="Helvetica,sans-Serif" font-size="10.00">FairLogger.h</text>
</g>
<!-- Node1&#45;&gt;Node4 -->
<g id="edge3" class="edge"><title>Node1&#45;&gt;Node4</title>
<path fill="none" stroke="midnightblue" d="M284.773,-541.55C234.47,-529.598 173.576,-506.021 195,-464 254.117,-348.052 333.474,-377.038 432,-292 479.508,-250.996 529.728,-196.253 553.673,-169.342"/>
<polygon fill="midnightblue" stroke="midnightblue" points="556.486,-171.445 560.488,-161.636 551.242,-166.809 556.486,-171.445"/>
</g>
<!-- Node5 -->
<g id="node5" class="node"><title>Node5</title>
<polygon fill="none" stroke="#bfbfbf" points="204.5,-470.5 204.5,-489.5 281.5,-489.5 281.5,-470.5 204.5,-470.5"/>
<text text-anchor="middle" x="243" y="-477.5" font-family="Helvetica,sans-Serif" font-size="10.00">FairRunAna.h</text>
</g>
<!-- Node1&#45;&gt;Node5 -->
<g id="edge4" class="edge"><title>Node1&#45;&gt;Node5</title>
<path fill="none" stroke="midnightblue" d="M316.134,-532.411C299.441,-520.676 278.588,-506.017 263.425,-495.358"/>
<polygon fill="midnightblue" stroke="midnightblue" points="265.423,-492.484 255.229,-489.597 261.397,-498.211 265.423,-492.484"/>
</g>
<!-- Node6 -->
<g id="node6" class="node"><title>Node6</title>
<polygon fill="none" stroke="#bfbfbf" points="300,-470.5 300,-489.5 388,-489.5 388,-470.5 300,-470.5"/>
<text text-anchor="middle" x="344" y="-477.5" font-family="Helvetica,sans-Serif" font-size="10.00">FairFileSource.h</text>
</g>
<!-- Node1&#45;&gt;Node6 -->
<g id="edge5" class="edge"><title>Node1&#45;&gt;Node6</title>
<path fill="none" stroke="midnightblue" d="M344,-532.223C344,-522.086 344,-509.807 344,-499.813"/>
<polygon fill="midnightblue" stroke="midnightblue" points="347.5,-499.735 344,-489.735 340.5,-499.735 347.5,-499.735"/>
</g>
<!-- Node7 -->
<g id="node7" class="node"><title>Node7</title>
<polygon fill="none" stroke="#bfbfbf" points="406.5,-470.5 406.5,-489.5 497.5,-489.5 497.5,-470.5 406.5,-470.5"/>
<text text-anchor="middle" x="452" y="-477.5" font-family="Helvetica,sans-Serif" font-size="10.00">FairRuntimeDb.h</text>
</g>
<!-- Node1&#45;&gt;Node7 -->
<g id="edge6" class="edge"><title>Node1&#45;&gt;Node7</title>
<path fill="none" stroke="midnightblue" d="M373.797,-532.411C391.647,-520.676 413.946,-506.017 430.16,-495.358"/>
<polygon fill="midnightblue" stroke="midnightblue" points="432.49,-498.015 438.923,-489.597 428.644,-492.166 432.49,-498.015"/>
</g>
<!-- Node8 -->
<g id="node8" class="node"><title>Node8</title>
<polygon fill="none" stroke="#bfbfbf" points="515.5,-470.5 515.5,-489.5 616.5,-489.5 616.5,-470.5 515.5,-470.5"/>
<text text-anchor="middle" x="566" y="-477.5" font-family="Helvetica,sans-Serif" font-size="10.00">FairParRootFileIo.h</text>
</g>
<!-- Node1&#45;&gt;Node8 -->
<g id="edge7" class="edge"><title>Node1&#45;&gt;Node8</title>
<path fill="none" stroke="midnightblue" d="M403.2,-533.067C443.416,-520.205 495.325,-503.603 529.588,-492.645"/>
<polygon fill="midnightblue" stroke="midnightblue" points="530.732,-495.954 539.191,-489.574 528.6,-489.287 530.732,-495.954"/>
</g>
<!-- Node9 -->
<g id="node9" class="node"><title>Node9</title>
<polygon fill="none" stroke="#bfbfbf" points="635,-470.5 635,-489.5 727,-489.5 727,-470.5 635,-470.5"/>
<text text-anchor="middle" x="681" y="-477.5" font-family="Helvetica,sans-Serif" font-size="10.00">FairSystemInfo.h</text>
</g>
<!-- Node1&#45;&gt;Node9 -->
<g id="edge8" class="edge"><title>Node1&#45;&gt;Node9</title>
<path fill="none" stroke="midnightblue" d="M403.174,-541.364C460.206,-530.841 548.823,-513.773 625,-496 630.077,-494.815 635.392,-493.496 640.641,-492.145"/>
<polygon fill="midnightblue" stroke="midnightblue" points="641.791,-495.462 650.573,-489.535 640.012,-488.692 641.791,-495.462"/>
</g>
<!-- Node10 -->
<g id="node10" class="node"><title>Node10</title>
<g id="a_node10"><a xlink:href="../../db/d12/ITSMFT_2MFT_2reconstruction_2include_2MFTReconstruction_2ClustererTask_8h.html" target="_top" xlink:title="MFTReconstruction/Clusterer\lTask.h">
<polygon fill="none" stroke="black" points="745,-465 745,-495 891,-495 891,-465 745,-465"/>
<text text-anchor="start" x="753" y="-483" font-family="Helvetica,sans-Serif" font-size="10.00">MFTReconstruction/Clusterer</text>
<text text-anchor="middle" x="818" y="-472" font-family="Helvetica,sans-Serif" font-size="10.00">Task.h</text>
</a>
</g>
</g>
<!-- Node1&#45;&gt;Node10 -->
<g id="edge9" class="edge"><title>Node1&#45;&gt;Node10</title>
<path fill="none" stroke="midnightblue" d="M403.215,-544.273C478.041,-534.346 611.03,-516.16 734.683,-496.181"/>
<polygon fill="midnightblue" stroke="midnightblue" points="735.397,-499.611 744.707,-494.554 734.275,-492.701 735.397,-499.611"/>
</g>
<!-- Node11 -->
<g id="node11" class="node"><title>Node11</title>
<polygon fill="none" stroke="#bfbfbf" points="465.5,-402.5 465.5,-421.5 528.5,-421.5 528.5,-402.5 465.5,-402.5"/>
<text text-anchor="middle" x="497" y="-409.5" font-family="Helvetica,sans-Serif" font-size="10.00">FairTask.h</text>
</g>
<!-- Node10&#45;&gt;Node11 -->
<g id="edge10" class="edge"><title>Node10&#45;&gt;Node11</title>
<path fill="none" stroke="midnightblue" d="M744.683,-465.584C741.751,-465.049 738.848,-464.519 736,-464 648.009,-447.953 624.314,-451.451 538,-428 534.782,-427.126 531.459,-426.109 528.162,-425.024"/>
<polygon fill="midnightblue" stroke="midnightblue" points="529.075,-421.636 518.481,-421.642 526.767,-428.244 529.075,-421.636"/>
</g>
<!-- Node12 -->
<g id="node12" class="node"><title>Node12</title>
<polygon fill="none" stroke="#bfbfbf" points="546.5,-402.5 546.5,-421.5 683.5,-421.5 683.5,-402.5 546.5,-402.5"/>
<text text-anchor="middle" x="615" y="-409.5" font-family="Helvetica,sans-Serif" font-size="10.00">MFTBase/GeometryTGeo.h</text>
</g>
<!-- Node10&#45;&gt;Node12 -->
<g id="edge11" class="edge"><title>Node10&#45;&gt;Node12</title>
<path fill="none" stroke="midnightblue" d="M774.451,-464.841C737.658,-452.879 685.585,-435.949 651.083,-424.731"/>
<polygon fill="midnightblue" stroke="midnightblue" points="652.003,-421.35 641.411,-421.587 649.839,-428.007 652.003,-421.35"/>
</g>
<!-- Node13 -->
<g id="node13" class="node"><title>Node13</title>
<g id="a_node13"><a xlink:href="../../df/d2e/PixelReader_8h.html" target="_top" xlink:title="Definition of the ITS pixel reader. ">
<polygon fill="none" stroke="black" points="304.5,-261 304.5,-291 423.5,-291 423.5,-261 304.5,-261"/>
<text text-anchor="start" x="312.5" y="-279" font-family="Helvetica,sans-Serif" font-size="10.00">ITSMFTReconstruction</text>
<text text-anchor="middle" x="364" y="-268" font-family="Helvetica,sans-Serif" font-size="10.00">/PixelReader.h</text>
</a>
</g>
</g>
<!-- Node10&#45;&gt;Node13 -->
<g id="edge12" class="edge"><title>Node10&#45;&gt;Node13</title>
<path fill="none" stroke="midnightblue" d="M744.715,-465.397C741.773,-464.913 738.86,-464.446 736,-464 612.464,-444.745 565.306,-490.464 457,-428 408.659,-400.12 382.151,-336.026 370.792,-300.973"/>
<polygon fill="midnightblue" stroke="midnightblue" points="374.039,-299.623 367.746,-291.099 367.35,-301.687 374.039,-299.623"/>
</g>
<!-- Node19 -->
<g id="node19" class="node"><title>Node19</title>
<g id="a_node19"><a xlink:href="../../d6/d04/ITSMFT_2common_2reconstruction_2include_2ITSMFTReconstruction_2Clusterer_8h.html" target="_top" xlink:title="ITSMFTReconstruction\l/Clusterer.h">
<polygon fill="none" stroke="black" points="701.5,-397 701.5,-427 820.5,-427 820.5,-397 701.5,-397"/>
<text text-anchor="start" x="709.5" y="-415" font-family="Helvetica,sans-Serif" font-size="10.00">ITSMFTReconstruction</text>
<text text-anchor="middle" x="761" y="-404" font-family="Helvetica,sans-Serif" font-size="10.00">/Clusterer.h</text>
</a>
</g>
</g>
<!-- Node10&#45;&gt;Node19 -->
<g id="edge21" class="edge"><title>Node10&#45;&gt;Node19</title>
<path fill="none" stroke="midnightblue" d="M805.632,-464.679C798.162,-456.03 788.489,-444.829 780.058,-435.067"/>
<polygon fill="midnightblue" stroke="midnightblue" points="782.529,-432.574 773.344,-427.293 777.231,-437.149 782.529,-432.574"/>
</g>
<!-- Node14 -->
<g id="node14" class="node"><title>Node14</title>
<polygon fill="none" stroke="#bfbfbf" points="476,-74.5 476,-93.5 532,-93.5 532,-74.5 476,-74.5"/>
<text text-anchor="middle" x="504" y="-81.5" font-family="Helvetica,sans-Serif" font-size="10.00">Rtypes.h</text>
</g>
<!-- Node13&#45;&gt;Node14 -->
<g id="edge13" class="edge"><title>Node13&#45;&gt;Node14</title>
<path fill="none" stroke="midnightblue" d="M374.523,-260.719C399.848,-226.349 464.112,-139.133 491.417,-102.077"/>
<polygon fill="midnightblue" stroke="midnightblue" points="494.402,-103.926 497.517,-93.7988 488.767,-99.7731 494.402,-103.926"/>
</g>
<!-- Node15 -->
<g id="node15" class="node"><title>Node15</title>
<g id="a_node15"><a xlink:href="../../d0/d06/ITSMFT_2common_2base_2include_2ITSMFTBase_2Digit_8h.html" target="_top" xlink:title="ITSMFTBase/Digit.h">
<polygon fill="none" stroke="black" points="225.5,-204.5 225.5,-223.5 332.5,-223.5 332.5,-204.5 225.5,-204.5"/>
<text text-anchor="middle" x="279" y="-211.5" font-family="Helvetica,sans-Serif" font-size="10.00">ITSMFTBase/Digit.h</text>
</a>
</g>
</g>
<!-- Node13&#45;&gt;Node15 -->
<g id="edge14" class="edge"><title>Node13&#45;&gt;Node15</title>
<path fill="none" stroke="midnightblue" d="M343.856,-260.781C330.405,-251.286 312.778,-238.843 299.296,-229.327"/>
<polygon fill="midnightblue" stroke="midnightblue" points="301.309,-226.463 291.121,-223.556 297.272,-232.182 301.309,-226.463"/>
</g>
<!-- Node17 -->
<g id="node17" class="node"><title>Node17</title>
<g id="a_node17"><a xlink:href="../../d7/dcd/MCCompLabel_8h.html" target="_top" xlink:title="SimulationDataFormat\l/MCCompLabel.h">
<polygon fill="none" stroke="black" points="307,-137 307,-167 421,-167 421,-137 307,-137"/>
<text text-anchor="start" x="315" y="-155" font-family="Helvetica,sans-Serif" font-size="10.00">SimulationDataFormat</text>
<text text-anchor="middle" x="364" y="-144" font-family="Helvetica,sans-Serif" font-size="10.00">/MCCompLabel.h</text>
</a>
</g>
</g>
<!-- Node13&#45;&gt;Node17 -->
<g id="edge20" class="edge"><title>Node13&#45;&gt;Node17</title>
<path fill="none" stroke="midnightblue" d="M364,-260.526C364,-239.963 364,-202.033 364,-177.163"/>
<polygon fill="midnightblue" stroke="midnightblue" points="367.5,-177.079 364,-167.079 360.5,-177.079 367.5,-177.079"/>
</g>
<!-- Node15&#45;&gt;Node14 -->
<g id="edge19" class="edge"><title>Node15&#45;&gt;Node14</title>
<path fill="none" stroke="midnightblue" d="M278.465,-204.475C277.969,-188.663 279.314,-154.701 298,-136 321.316,-112.666 412.8,-97.0229 465.682,-89.7278"/>
<polygon fill="midnightblue" stroke="midnightblue" points="466.268,-93.1807 475.713,-88.3803 465.336,-86.243 466.268,-93.1807"/>
</g>
<!-- Node16 -->
<g id="node16" class="node"><title>Node16</title>
<polygon fill="none" stroke="#bfbfbf" points="155.5,-137 155.5,-167 250.5,-167 250.5,-137 155.5,-137"/>
<text text-anchor="start" x="163.5" y="-155" font-family="Helvetica,sans-Serif" font-size="10.00">boost/serialization</text>
<text text-anchor="middle" x="203" y="-144" font-family="Helvetica,sans-Serif" font-size="10.00">/base_object.hpp</text>
</g>
<!-- Node15&#45;&gt;Node16 -->
<g id="edge15" class="edge"><title>Node15&#45;&gt;Node16</title>
<path fill="none" stroke="midnightblue" d="M268.111,-204.403C257.914,-196.353 242.283,-184.013 228.891,-173.441"/>
<polygon fill="midnightblue" stroke="midnightblue" points="230.929,-170.59 220.912,-167.141 226.592,-176.084 230.929,-170.59"/>
</g>
<!-- Node15&#45;&gt;Node17 -->
<g id="edge16" class="edge"><title>Node15&#45;&gt;Node17</title>
<path fill="none" stroke="midnightblue" d="M291.178,-204.403C302.69,-196.277 320.396,-183.779 335.466,-173.142"/>
<polygon fill="midnightblue" stroke="midnightblue" points="337.816,-175.767 343.967,-167.141 333.779,-170.048 337.816,-175.767"/>
</g>
<!-- Node18 -->
<g id="node18" class="node"><title>Node18</title>
<polygon fill="none" stroke="#bfbfbf" points="45,-142.5 45,-161.5 137,-161.5 137,-142.5 45,-142.5"/>
<text text-anchor="middle" x="91" y="-149.5" font-family="Helvetica,sans-Serif" font-size="10.00">FairTimeStamp.h</text>
</g>
<!-- Node15&#45;&gt;Node18 -->
<g id="edge18" class="edge"><title>Node15&#45;&gt;Node18</title>
<path fill="none" stroke="midnightblue" d="M252.064,-204.403C219.397,-193.978 164.181,-176.356 127.657,-164.699"/>
<polygon fill="midnightblue" stroke="midnightblue" points="128.477,-161.287 117.886,-161.581 126.348,-167.955 128.477,-161.287"/>
</g>
<!-- Node17&#45;&gt;Node14 -->
<g id="edge17" class="edge"><title>Node17&#45;&gt;Node14</title>
<path fill="none" stroke="midnightblue" d="M394.034,-136.841C418.467,-125.323 452.669,-109.199 476.417,-98.0036"/>
<polygon fill="midnightblue" stroke="midnightblue" points="478.031,-101.112 485.584,-93.6819 475.046,-94.7803 478.031,-101.112"/>
</g>
<!-- Node19&#45;&gt;Node13 -->
<g id="edge62" class="edge"><title>Node19&#45;&gt;Node13</title>
<path fill="none" stroke="midnightblue" d="M701.208,-397.755C698.098,-397.143 695.014,-396.554 692,-396 586.349,-376.58 549.726,-406.726 453,-360 423.536,-345.767 397.148,-318.377 380.898,-298.959"/>
<polygon fill="midnightblue" stroke="midnightblue" points="383.601,-296.735 374.575,-291.187 378.171,-301.153 383.601,-296.735"/>
</g>
<!-- Node19&#45;&gt;Node14 -->
<g id="edge65" class="edge"><title>Node19&#45;&gt;Node14</title>
<path fill="none" stroke="midnightblue" d="M719.546,-396.957C698.645,-388.488 673.813,-376.178 655,-360 576.675,-292.644 565.896,-262.426 524,-168 514.631,-146.884 509.257,-120.714 506.486,-103.472"/>
<polygon fill="midnightblue" stroke="midnightblue" points="509.948,-102.955 505.025,-93.5728 503.022,-103.977 509.948,-102.955"/>
</g>
<!-- Node20 -->
<g id="node20" class="node"><title>Node20</title>
<g id="a_node20"><a xlink:href="../../dc/de1/ITSMFT_2common_2reconstruction_2include_2ITSMFTReconstruction_2Cluster_8h.html" target="_top" xlink:title="ITSMFTReconstruction\l/Cluster.h">
<polygon fill="none" stroke="black" points="897.5,-329 897.5,-359 1016.5,-359 1016.5,-329 897.5,-329"/>
<text text-anchor="start" x="905.5" y="-347" font-family="Helvetica,sans-Serif" font-size="10.00">ITSMFTReconstruction</text>
<text text-anchor="middle" x="957" y="-336" font-family="Helvetica,sans-Serif" font-size="10.00">/Cluster.h</text>
</a>
</g>
</g>
<!-- Node19&#45;&gt;Node20 -->
<g id="edge22" class="edge"><title>Node19&#45;&gt;Node20</title>
<path fill="none" stroke="midnightblue" d="M803.047,-396.841C833.119,-386.715 873.761,-373.03 905.736,-362.262"/>
<polygon fill="midnightblue" stroke="midnightblue" points="906.999,-365.53 915.359,-359.022 904.765,-358.896 906.999,-365.53"/>
</g>
<!-- Node38 -->
<g id="node38" class="node"><title>Node38</title>
<polygon fill="none" stroke="#bfbfbf" points="622,-142.5 622,-161.5 666,-161.5 666,-142.5 622,-142.5"/>
<text text-anchor="middle" x="644" y="-149.5" font-family="Helvetica,sans-Serif" font-size="10.00">vector</text>
</g>
<!-- Node19&#45;&gt;Node38 -->
<g id="edge64" class="edge"><title>Node19&#45;&gt;Node38</title>
<path fill="none" stroke="midnightblue" d="M724.5,-396.952C707.416,-388.632 688.192,-376.455 676,-360 633.426,-302.541 637.378,-211.207 641.498,-171.95"/>
<polygon fill="midnightblue" stroke="midnightblue" points="645.031,-171.876 642.731,-161.534 638.08,-171.054 645.031,-171.876"/>
</g>
<!-- Node47 -->
<g id="node47" class="node"><title>Node47</title>
<g id="a_node47"><a xlink:href="../../d0/d2d/common_2base_2include_2ITSMFTBase_2GeometryTGeo_8h.html" target="_top" xlink:title="ITSMFTBase/GeometryTGeo.h">
<polygon fill="none" stroke="black" points="684.5,-334.5 684.5,-353.5 837.5,-353.5 837.5,-334.5 684.5,-334.5"/>
<text text-anchor="middle" x="761" y="-341.5" font-family="Helvetica,sans-Serif" font-size="10.00">ITSMFTBase/GeometryTGeo.h</text>
</a>
</g>
</g>
<!-- Node19&#45;&gt;Node47 -->
<g id="edge58" class="edge"><title>Node19&#45;&gt;Node47</title>
<path fill="none" stroke="midnightblue" d="M761,-396.679C761,-387.101 761,-374.394 761,-363.977"/>
<polygon fill="midnightblue" stroke="midnightblue" points="764.5,-363.828 761,-353.828 757.5,-363.828 764.5,-363.828"/>
</g>
<!-- Node50 -->
<g id="node50" class="node"><title>Node50</title>
<polygon fill="none" stroke="#bfbfbf" points="462,-334.5 462,-353.5 502,-353.5 502,-334.5 462,-334.5"/>
<text text-anchor="middle" x="482" y="-341.5" font-family="Helvetica,sans-Serif" font-size="10.00">utility</text>
</g>
<!-- Node19&#45;&gt;Node50 -->
<g id="edge63" class="edge"><title>Node19&#45;&gt;Node50</title>
<path fill="none" stroke="midnightblue" d="M701.171,-397.946C698.07,-397.285 694.999,-396.633 692,-396 613.878,-379.519 592.069,-384.252 516,-360 513.58,-359.228 511.1,-358.339 508.635,-357.387"/>
<polygon fill="midnightblue" stroke="midnightblue" points="509.946,-354.141 499.37,-353.517 507.248,-360.601 509.946,-354.141"/>
</g>
<!-- Node21 -->
<g id="node21" class="node"><title>Node21</title>
<g id="a_node21"><a xlink:href="../../d4/de2/BaseCluster_8h.html" target="_top" xlink:title="DetectorsBase/BaseCluster.h">
<polygon fill="none" stroke="black" points="888.5,-266.5 888.5,-285.5 1035.5,-285.5 1035.5,-266.5 888.5,-266.5"/>
<text text-anchor="middle" x="962" y="-273.5" font-family="Helvetica,sans-Serif" font-size="10.00">DetectorsBase/BaseCluster.h</text>
</a>
</g>
</g>
<!-- Node20&#45;&gt;Node21 -->
<g id="edge23" class="edge"><title>Node20&#45;&gt;Node21</title>
<path fill="none" stroke="midnightblue" d="M958.085,-328.679C958.811,-319.101 959.773,-306.394 960.562,-295.977"/>
<polygon fill="midnightblue" stroke="midnightblue" points="964.066,-296.064 961.331,-285.828 957.086,-295.535 964.066,-296.064"/>
</g>
<!-- Node22 -->
<g id="node22" class="node"><title>Node22</title>
<polygon fill="none" stroke="#bfbfbf" points="896.5,-204.5 896.5,-223.5 955.5,-223.5 955.5,-204.5 896.5,-204.5"/>
<text text-anchor="middle" x="926" y="-211.5" font-family="Helvetica,sans-Serif" font-size="10.00">TObject.h</text>
</g>
<!-- Node21&#45;&gt;Node22 -->
<g id="edge24" class="edge"><title>Node21&#45;&gt;Node22</title>
<path fill="none" stroke="midnightblue" d="M956.842,-266.403C951.549,-257.582 943.165,-243.608 936.473,-232.455"/>
<polygon fill="midnightblue" stroke="midnightblue" points="939.295,-230.355 931.148,-223.581 933.292,-233.956 939.295,-230.355"/>
</g>
<!-- Node23 -->
<g id="node23" class="node"><title>Node23</title>
<polygon fill="none" stroke="#bfbfbf" points="1026.5,-74.5 1026.5,-93.5 1067.5,-93.5 1067.5,-74.5 1026.5,-74.5"/>
<text text-anchor="middle" x="1047" y="-81.5" font-family="Helvetica,sans-Serif" font-size="10.00">bitset</text>
</g>
<!-- Node21&#45;&gt;Node23 -->
<g id="edge25" class="edge"><title>Node21&#45;&gt;Node23</title>
<path fill="none" stroke="midnightblue" d="M981.916,-266.476C998.589,-258.207 1021.45,-243.972 1033,-224 1055.08,-185.797 1052.85,-131.69 1049.71,-103.58"/>
<polygon fill="midnightblue" stroke="midnightblue" points="1053.17,-103.023 1048.42,-93.5506 1046.22,-103.915 1053.17,-103.023"/>
</g>
<!-- Node24 -->
<g id="node24" class="node"><title>Node24</title>
<polygon fill="none" stroke="#bfbfbf" points="974,-204.5 974,-223.5 1024,-223.5 1024,-204.5 974,-204.5"/>
<text text-anchor="middle" x="999" y="-211.5" font-family="Helvetica,sans-Serif" font-size="10.00">iomanip</text>
</g>
<!-- Node21&#45;&gt;Node24 -->
<g id="edge26" class="edge"><title>Node21&#45;&gt;Node24</title>
<path fill="none" stroke="midnightblue" d="M967.301,-266.403C972.796,-257.493 981.533,-243.325 988.444,-232.118"/>
<polygon fill="midnightblue" stroke="midnightblue" points="991.439,-233.929 993.709,-223.581 985.481,-230.255 991.439,-233.929"/>
</g>
<!-- Node25 -->
<g id="node25" class="node"><title>Node25</title>
<polygon fill="none" stroke="#bfbfbf" points="849.5,-204.5 849.5,-223.5 878.5,-223.5 878.5,-204.5 849.5,-204.5"/>
<text text-anchor="middle" x="864" y="-211.5" font-family="Helvetica,sans-Serif" font-size="10.00">ios</text>
</g>
<!-- Node21&#45;&gt;Node25 -->
<g id="edge27" class="edge"><title>Node21&#45;&gt;Node25</title>
<path fill="none" stroke="midnightblue" d="M947.959,-266.403C931.949,-256.601 905.55,-240.439 886.626,-228.853"/>
<polygon fill="midnightblue" stroke="midnightblue" points="888.371,-225.817 878.015,-223.581 884.716,-231.787 888.371,-225.817"/>
</g>
<!-- Node26 -->
<g id="node26" class="node"><title>Node26</title>
<polygon fill="none" stroke="#bfbfbf" points="2206,-74.5 2206,-93.5 2260,-93.5 2260,-74.5 2206,-74.5"/>
<text text-anchor="middle" x="2233" y="-81.5" font-family="Helvetica,sans-Serif" font-size="10.00">iostream</text>
</g>
<!-- Node21&#45;&gt;Node26 -->
<g id="edge28" class="edge"><title>Node21&#45;&gt;Node26</title>
<path fill="none" stroke="midnightblue" d="M1035.58,-270.843C1228.83,-258.586 1765.59,-215.891 2196,-100 2198.98,-99.1969 2202.05,-98.2189 2205.08,-97.1512"/>
<polygon fill="midnightblue" stroke="midnightblue" points="2206.4,-100.392 2214.48,-93.5394 2203.89,-93.857 2206.4,-100.392"/>
</g>
<!-- Node27 -->
<g id="node27" class="node"><title>Node27</title>
<g id="a_node27"><a xlink:href="../../dd/d76/Cartesian3D_8h.html" target="_top" xlink:title="MathUtils/Cartesian3D.h">
<polygon fill="none" stroke="black" points="1444.5,-142.5 1444.5,-161.5 1569.5,-161.5 1569.5,-142.5 1444.5,-142.5"/>
<text text-anchor="middle" x="1507" y="-149.5" font-family="Helvetica,sans-Serif" font-size="10.00">MathUtils/Cartesian3D.h</text>
</a>
</g>
</g>
<!-- Node21&#45;&gt;Node27 -->
<g id="edge29" class="edge"><title>Node21&#45;&gt;Node27</title>
<path fill="none" stroke="midnightblue" d="M1000.32,-266.421C1097.26,-244.721 1352.09,-187.676 1458.86,-163.776"/>
<polygon fill="midnightblue" stroke="midnightblue" points="1459.73,-167.169 1468.72,-161.569 1458.2,-160.338 1459.73,-167.169"/>
</g>
<!-- Node37 -->
<g id="node37" class="node"><title>Node37</title>
<g id="a_node37"><a xlink:href="../../d4/d20/DetMatrixCache_8h.html" target="_top" xlink:title="DetectorsBase/DetMatrixCache.h">
<polygon fill="none" stroke="black" points="667,-204.5 667,-223.5 831,-223.5 831,-204.5 667,-204.5"/>
<text text-anchor="middle" x="749" y="-211.5" font-family="Helvetica,sans-Serif" font-size="10.00">DetectorsBase/DetMatrixCache.h</text>
</a>
</g>
</g>
<!-- Node21&#45;&gt;Node37 -->
<g id="edge41" class="edge"><title>Node21&#45;&gt;Node37</title>
<path fill="none" stroke="midnightblue" d="M931.482,-266.403C894.075,-255.866 830.573,-237.978 789.213,-226.328"/>
<polygon fill="midnightblue" stroke="midnightblue" points="790.036,-222.923 779.461,-223.581 788.137,-229.661 790.036,-222.923"/>
</g>
<!-- Node27&#45;&gt;Node14 -->
<g id="edge33" class="edge"><title>Node27&#45;&gt;Node14</title>
<path fill="none" stroke="midnightblue" d="M1444.33,-148.508C1301.03,-142.55 938.4,-126.015 636,-100 604.252,-97.2687 568.325,-93.1166 541.977,-89.8727"/>
<polygon fill="midnightblue" stroke="midnightblue" points="542.379,-86.3958 532.023,-88.6344 541.515,-93.3422 542.379,-86.3958"/>
</g>
<!-- Node27&#45;&gt;Node26 -->
<g id="edge40" class="edge"><title>Node27&#45;&gt;Node26</title>
<path fill="none" stroke="midnightblue" d="M1569.75,-148.849C1716.35,-143.42 2077.89,-127.596 2196,-100 2199.07,-99.282 2202.22,-98.3449 2205.33,-97.2893"/>
<polygon fill="midnightblue" stroke="midnightblue" points="2206.82,-100.465 2214.92,-93.6372 2204.33,-93.9225 2206.82,-100.465"/>
</g>
<!-- Node28 -->
<g id="node28" class="node"><title>Node28</title>
<polygon fill="none" stroke="#bfbfbf" points="1085.5,-74.5 1085.5,-93.5 1234.5,-93.5 1234.5,-74.5 1085.5,-74.5"/>
<text text-anchor="middle" x="1160" y="-81.5" font-family="Helvetica,sans-Serif" font-size="10.00">Math/GenVector/Rotation3D.h</text>
</g>
<!-- Node27&#45;&gt;Node28 -->
<g id="edge30" class="edge"><title>Node27&#45;&gt;Node28</title>
<path fill="none" stroke="midnightblue" d="M1461.99,-142.439C1398.68,-130.396 1283.42,-108.475 1215.07,-95.4745"/>
<polygon fill="midnightblue" stroke="midnightblue" points="1215.41,-91.9758 1204.93,-93.5455 1214.1,-98.8525 1215.41,-91.9758"/>
</g>
<!-- Node29 -->
<g id="node29" class="node"><title>Node29</title>
<polygon fill="none" stroke="#bfbfbf" points="1253,-74.5 1253,-93.5 1409,-93.5 1409,-74.5 1253,-74.5"/>
<text text-anchor="middle" x="1331" y="-81.5" font-family="Helvetica,sans-Serif" font-size="10.00">Math/GenVector/Transform3D.h</text>
</g>
<!-- Node27&#45;&gt;Node29 -->
<g id="edge31" class="edge"><title>Node27&#45;&gt;Node29</title>
<path fill="none" stroke="midnightblue" d="M1483.99,-142.372C1453.21,-130.827 1398.45,-110.293 1363.47,-97.1772"/>
<polygon fill="midnightblue" stroke="midnightblue" points="1364.33,-93.76 1353.74,-93.5259 1361.87,-100.314 1364.33,-93.76"/>
</g>
<!-- Node30 -->
<g id="node30" class="node"><title>Node30</title>
<polygon fill="none" stroke="#bfbfbf" points="1427,-74.5 1427,-93.5 1587,-93.5 1587,-74.5 1427,-74.5"/>
<text text-anchor="middle" x="1507" y="-81.5" font-family="Helvetica,sans-Serif" font-size="10.00">Math/GenVector/Translation3D.h</text>
</g>
<!-- Node27&#45;&gt;Node30 -->
<g id="edge32" class="edge"><title>Node27&#45;&gt;Node30</title>
<path fill="none" stroke="midnightblue" d="M1507,-142.372C1507,-132.643 1507,-116.528 1507,-103.85"/>
<polygon fill="midnightblue" stroke="midnightblue" points="1510.5,-103.841 1507,-93.8411 1503.5,-103.841 1510.5,-103.841"/>
</g>
<!-- Node31 -->
<g id="node31" class="node"><title>Node31</title>
<polygon fill="none" stroke="#bfbfbf" points="1605,-74.5 1605,-93.5 1681,-93.5 1681,-74.5 1605,-74.5"/>
<text text-anchor="middle" x="1643" y="-81.5" font-family="Helvetica,sans-Serif" font-size="10.00">TGeoMatrix.h</text>
</g>
<!-- Node27&#45;&gt;Node31 -->
<g id="edge34" class="edge"><title>Node27&#45;&gt;Node31</title>
<path fill="none" stroke="midnightblue" d="M1524.78,-142.372C1547.99,-131.106 1588.85,-111.279 1615.92,-98.1403"/>
<polygon fill="midnightblue" stroke="midnightblue" points="1617.75,-101.145 1625.22,-93.6305 1614.69,-94.8477 1617.75,-101.145"/>
</g>
<!-- Node32 -->
<g id="node32" class="node"><title>Node32</title>
<polygon fill="none" stroke="#bfbfbf" points="1699.5,-69 1699.5,-99 1850.5,-99 1850.5,-69 1699.5,-69"/>
<text text-anchor="start" x="1707.5" y="-87" font-family="Helvetica,sans-Serif" font-size="10.00">Math/GenVector/Displacement</text>
<text text-anchor="middle" x="1775" y="-76" font-family="Helvetica,sans-Serif" font-size="10.00">Vector3D.h</text>
</g>
<!-- Node27&#45;&gt;Node32 -->
<g id="edge35" class="edge"><title>Node27&#45;&gt;Node32</title>
<path fill="none" stroke="midnightblue" d="M1541.76,-142.439C1583.74,-132.101 1655.28,-114.483 1708.09,-101.478"/>
<polygon fill="midnightblue" stroke="midnightblue" points="1709.18,-104.815 1718.05,-99.0247 1707.5,-98.0176 1709.18,-104.815"/>
</g>
<!-- Node33 -->
<g id="node33" class="node"><title>Node33</title>
<polygon fill="none" stroke="#bfbfbf" points="1869,-74.5 1869,-93.5 2045,-93.5 2045,-74.5 1869,-74.5"/>
<text text-anchor="middle" x="1957" y="-81.5" font-family="Helvetica,sans-Serif" font-size="10.00">Math/GenVector/PositionVector3D.h</text>
</g>
<!-- Node27&#45;&gt;Node33 -->
<g id="edge36" class="edge"><title>Node27&#45;&gt;Node33</title>
<path fill="none" stroke="midnightblue" d="M1566.81,-142.483C1636.86,-132.473 1756.39,-115.285 1859,-100 1869.62,-98.4175 1880.89,-96.7153 1891.85,-95.0457"/>
<polygon fill="midnightblue" stroke="midnightblue" points="1892.46,-98.4946 1901.81,-93.526 1891.4,-91.5747 1892.46,-98.4946"/>
</g>
<!-- Node34 -->
<g id="node34" class="node"><title>Node34</title>
<g id="a_node34"><a xlink:href="../../d2/dd0/Cartesian2D_8h.html" target="_top" xlink:title="MathUtils/Cartesian2D.h">
<polygon fill="none" stroke="black" points="2062.5,-74.5 2062.5,-93.5 2187.5,-93.5 2187.5,-74.5 2062.5,-74.5"/>
<text text-anchor="middle" x="2125" y="-81.5" font-family="Helvetica,sans-Serif" font-size="10.00">MathUtils/Cartesian2D.h</text>
</a>
</g>
</g>
<!-- Node27&#45;&gt;Node34 -->
<g id="edge37" class="edge"><title>Node27&#45;&gt;Node34</title>
<path fill="none" stroke="midnightblue" d="M1569.51,-147.451C1671.25,-141.162 1878.83,-126.192 2053,-100 2061.17,-98.7716 2069.81,-97.206 2078.16,-95.5522"/>
<polygon fill="midnightblue" stroke="midnightblue" points="2079.05,-98.9419 2088.14,-93.5079 2077.65,-92.084 2079.05,-98.9419"/>
</g>
<!-- Node35 -->
<g id="node35" class="node"><title>Node35</title>
<polygon fill="none" stroke="#bfbfbf" points="2140.5,-1 2140.5,-31 2291.5,-31 2291.5,-1 2140.5,-1"/>
<text text-anchor="start" x="2148.5" y="-19" font-family="Helvetica,sans-Serif" font-size="10.00">Math/GenVector/Displacement</text>
<text text-anchor="middle" x="2216" y="-8" font-family="Helvetica,sans-Serif" font-size="10.00">Vector2D.h</text>
</g>
<!-- Node34&#45;&gt;Node35 -->
<g id="edge38" class="edge"><title>Node34&#45;&gt;Node35</title>
<path fill="none" stroke="midnightblue" d="M2136.9,-74.3717C2149.78,-65.0286 2170.78,-49.7966 2187.91,-37.375"/>
<polygon fill="midnightblue" stroke="midnightblue" points="2190.41,-39.8859 2196.45,-31.1815 2186.3,-34.2194 2190.41,-39.8859"/>
</g>
<!-- Node36 -->
<g id="node36" class="node"><title>Node36</title>
<polygon fill="none" stroke="#bfbfbf" points="1946,-6.5 1946,-25.5 2122,-25.5 2122,-6.5 1946,-6.5"/>
<text text-anchor="middle" x="2034" y="-13.5" font-family="Helvetica,sans-Serif" font-size="10.00">Math/GenVector/PositionVector2D.h</text>
</g>
<!-- Node34&#45;&gt;Node36 -->
<g id="edge39" class="edge"><title>Node34&#45;&gt;Node36</title>
<path fill="none" stroke="midnightblue" d="M2113.1,-74.3717C2098.12,-63.5015 2072.14,-44.6602 2054.06,-31.5474"/>
<polygon fill="midnightblue" stroke="midnightblue" points="2056.05,-28.6684 2045.9,-25.6305 2051.94,-34.3349 2056.05,-28.6684"/>
</g>
<!-- Node37&#45;&gt;Node4 -->
<g id="edge57" class="edge"><title>Node37&#45;&gt;Node4</title>
<path fill="none" stroke="midnightblue" d="M723.175,-204.474C695.815,-195.436 651.354,-180.738 613,-168 609.874,-166.962 606.626,-165.882 603.371,-164.798"/>
<polygon fill="midnightblue" stroke="midnightblue" points="604.291,-161.416 593.697,-161.577 602.079,-168.057 604.291,-161.416"/>
</g>
<!-- Node37&#45;&gt;Node14 -->
<g id="edge56" class="edge"><title>Node37&#45;&gt;Node14</title>
<path fill="none" stroke="midnightblue" d="M743.026,-204.452C731.507,-188.6 704.639,-154.575 674,-136 632.751,-110.993 578.38,-97.4986 542.36,-90.7882"/>
<polygon fill="midnightblue" stroke="midnightblue" points="542.718,-87.2971 532.26,-88.9948 541.494,-94.1893 542.718,-87.2971"/>
</g>
<!-- Node37&#45;&gt;Node27 -->
<g id="edge44" class="edge"><title>Node37&#45;&gt;Node27</title>
<path fill="none" stroke="midnightblue" d="M831.251,-204.867C834.543,-204.569 837.802,-204.279 841,-204 1056.46,-185.213 1311.47,-166.731 1434.05,-158.081"/>
<polygon fill="midnightblue" stroke="midnightblue" points="1434.34,-161.569 1444.06,-157.375 1433.84,-154.587 1434.34,-161.569"/>
</g>
<!-- Node37&#45;&gt;Node38 -->
<g id="edge42" class="edge"><title>Node37&#45;&gt;Node38</title>
<path fill="none" stroke="midnightblue" d="M733.956,-204.403C716.725,-194.557 688.26,-178.291 667.966,-166.695"/>
<polygon fill="midnightblue" stroke="midnightblue" points="669.435,-163.503 659.016,-161.581 665.962,-169.581 669.435,-163.503"/>
</g>
<!-- Node39 -->
<g id="node39" class="node"><title>Node39</title>
<polygon fill="none" stroke="#bfbfbf" points="716,-6.5 716,-25.5 754,-25.5 754,-6.5 716,-6.5"/>
<text text-anchor="middle" x="735" y="-13.5" font-family="Helvetica,sans-Serif" font-size="10.00">array</text>
</g>
<!-- Node37&#45;&gt;Node39 -->
<g id="edge43" class="edge"><title>Node37&#45;&gt;Node39</title>
<path fill="none" stroke="midnightblue" d="M746.205,-204.303C740.842,-188.804 727.763,-156.148 707,-136 681.609,-111.362 654.516,-130.148 636,-100 628.557,-87.8809 628.596,-80.143 636,-68 651.081,-43.2672 682.42,-30.0155 705.821,-23.2779"/>
<polygon fill="midnightblue" stroke="midnightblue" points="706.832,-26.6311 715.61,-20.6986 705.048,-19.8622 706.832,-26.6311"/>
</g>
<!-- Node40 -->
<g id="node40" class="node"><title>Node40</title>
<g id="a_node40"><a xlink:href="../../d6/d31/DetID_8h.html" target="_top" xlink:title="DetectorsBase/DetID.h">
<polygon fill="none" stroke="black" points="760.5,-142.5 760.5,-161.5 879.5,-161.5 879.5,-142.5 760.5,-142.5"/>
<text text-anchor="middle" x="820" y="-149.5" font-family="Helvetica,sans-Serif" font-size="10.00">DetectorsBase/DetID.h</text>
</a>
</g>
</g>
<!-- Node37&#45;&gt;Node40 -->
<g id="edge45" class="edge"><title>Node37&#45;&gt;Node40</title>
<path fill="none" stroke="midnightblue" d="M759.173,-204.403C770.35,-194.958 788.517,-179.606 802.091,-168.134"/>
<polygon fill="midnightblue" stroke="midnightblue" points="804.467,-170.709 809.846,-161.581 799.949,-165.362 804.467,-170.709"/>
</g>
<!-- Node40&#45;&gt;Node14 -->
<g id="edge46" class="edge"><title>Node40&#45;&gt;Node14</title>
<path fill="none" stroke="midnightblue" d="M779.012,-142.439C717.446,-129.58 601.952,-105.458 542.114,-92.9605"/>
<polygon fill="midnightblue" stroke="midnightblue" points="542.813,-89.5311 532.309,-90.9126 541.382,-96.3833 542.813,-89.5311"/>
</g>
<!-- Node40&#45;&gt;Node23 -->
<g id="edge48" class="edge"><title>Node40&#45;&gt;Node23</title>
<path fill="none" stroke="midnightblue" d="M863.851,-142.42C904.319,-133.856 965.721,-119.213 1017,-100 1018.65,-99.382 1020.33,-98.7006 1022.01,-97.9794"/>
<polygon fill="midnightblue" stroke="midnightblue" points="1023.83,-100.991 1031.4,-93.5783 1020.86,-94.6525 1023.83,-100.991"/>
</g>
<!-- Node40&#45;&gt;Node39 -->
<g id="edge47" class="edge"><title>Node40&#45;&gt;Node39</title>
<path fill="none" stroke="midnightblue" d="M803.53,-142.352C788.585,-133.647 767.093,-118.827 755,-100 742.389,-80.3675 737.725,-53.4938 736.003,-35.7089"/>
<polygon fill="midnightblue" stroke="midnightblue" points="739.493,-35.4386 735.254,-25.7286 732.512,-35.9625 739.493,-35.4386"/>
</g>
<!-- Node41 -->
<g id="node41" class="node"><title>Node41</title>
<polygon fill="none" stroke="#bfbfbf" points="894.5,-74.5 894.5,-93.5 943.5,-93.5 943.5,-74.5 894.5,-74.5"/>
<text text-anchor="middle" x="919" y="-81.5" font-family="Helvetica,sans-Serif" font-size="10.00">cassert</text>
</g>
<!-- Node40&#45;&gt;Node41 -->
<g id="edge49" class="edge"><title>Node40&#45;&gt;Node41</title>
<path fill="none" stroke="midnightblue" d="M832.943,-142.372C849.396,-131.403 878.025,-112.317 897.713,-99.1912"/>
<polygon fill="midnightblue" stroke="midnightblue" points="899.675,-102.09 906.054,-93.6305 895.792,-96.2653 899.675,-102.09"/>
</g>
<!-- Node42 -->
<g id="node42" class="node"><title>Node42</title>
<polygon fill="none" stroke="#bfbfbf" points="962,-74.5 962,-93.5 1008,-93.5 1008,-74.5 962,-74.5"/>
<text text-anchor="middle" x="985" y="-81.5" font-family="Helvetica,sans-Serif" font-size="10.00">cstdint</text>
</g>
<!-- Node40&#45;&gt;Node42 -->
<g id="edge50" class="edge"><title>Node40&#45;&gt;Node42</title>
<path fill="none" stroke="midnightblue" d="M843.531,-142.378C870.06,-132.549 914.4,-115.794 952,-100 953.635,-99.313 955.311,-98.5955 956.998,-97.8624"/>
<polygon fill="midnightblue" stroke="midnightblue" points="958.868,-100.861 966.582,-93.5992 956.023,-94.4654 958.868,-100.861"/>
</g>
<!-- Node43 -->
<g id="node43" class="node"><title>Node43</title>
<polygon fill="none" stroke="#bfbfbf" points="645,-74.5 645,-93.5 707,-93.5 707,-74.5 645,-74.5"/>
<text text-anchor="middle" x="676" y="-81.5" font-family="Helvetica,sans-Serif" font-size="10.00">type_traits</text>
</g>
<!-- Node40&#45;&gt;Node43 -->
<g id="edge51" class="edge"><title>Node40&#45;&gt;Node43</title>
<path fill="none" stroke="midnightblue" d="M801.175,-142.372C776.488,-131.057 732.957,-111.105 704.293,-97.9678"/>
<polygon fill="midnightblue" stroke="midnightblue" points="705.379,-94.6153 694.83,-93.6305 702.462,-100.979 705.379,-94.6153"/>
</g>
<!-- Node44 -->
<g id="node44" class="node"><title>Node44</title>
<g id="a_node44"><a xlink:href="../../d9/ded/Utils_8h.html" target="_top" xlink:title="DetectorsBase/Utils.h">
<polygon fill="none" stroke="black" points="763.5,-74.5 763.5,-93.5 876.5,-93.5 876.5,-74.5 763.5,-74.5"/>
<text text-anchor="middle" x="820" y="-81.5" font-family="Helvetica,sans-Serif" font-size="10.00">DetectorsBase/Utils.h</text>
</a>
</g>
</g>
<!-- Node40&#45;&gt;Node44 -->
<g id="edge52" class="edge"><title>Node40&#45;&gt;Node44</title>
<path fill="none" stroke="midnightblue" d="M820,-142.372C820,-132.643 820,-116.528 820,-103.85"/>
<polygon fill="midnightblue" stroke="midnightblue" points="823.5,-103.841 820,-93.8411 816.5,-103.841 823.5,-103.841"/>
</g>
<!-- Node44&#45;&gt;Node39 -->
<g id="edge55" class="edge"><title>Node44&#45;&gt;Node39</title>
<path fill="none" stroke="midnightblue" d="M808.888,-74.3717C795.016,-63.6004 771.063,-45.0021 754.198,-31.9065"/>
<polygon fill="midnightblue" stroke="midnightblue" points="756.16,-28.999 746.115,-25.6305 751.867,-34.528 756.16,-28.999"/>
</g>
<!-- Node45 -->
<g id="node45" class="node"><title>Node45</title>
<g id="a_node45"><a xlink:href="../../d1/daa/Base_2include_2DetectorsBase_2Constants_8h.html" target="_top" xlink:title="DetectorsBase/Constants.h">
<polygon fill="none" stroke="black" points="847,-6.5 847,-25.5 985,-25.5 985,-6.5 847,-6.5"/>
<text text-anchor="middle" x="916" y="-13.5" font-family="Helvetica,sans-Serif" font-size="10.00">DetectorsBase/Constants.h</text>
</a>
</g>
</g>
<!-- Node44&#45;&gt;Node45 -->
<g id="edge53" class="edge"><title>Node44&#45;&gt;Node45</title>
<path fill="none" stroke="midnightblue" d="M832.55,-74.3717C848.433,-63.4521 876.016,-44.4888 895.1,-31.369"/>
<polygon fill="midnightblue" stroke="midnightblue" points="897.189,-34.1799 903.447,-25.6305 893.223,-28.4116 897.189,-34.1799"/>
</g>
<!-- Node46 -->
<g id="node46" class="node"><title>Node46</title>
<polygon fill="none" stroke="#bfbfbf" points="785,-6.5 785,-25.5 829,-25.5 829,-6.5 785,-6.5"/>
<text text-anchor="middle" x="807" y="-13.5" font-family="Helvetica,sans-Serif" font-size="10.00">cmath</text>
</g>
<!-- Node44&#45;&gt;Node46 -->
<g id="edge54" class="edge"><title>Node44&#45;&gt;Node46</title>
<path fill="none" stroke="midnightblue" d="M818.3,-74.3717C816.384,-64.6426 813.21,-48.528 810.713,-35.8504"/>
<polygon fill="midnightblue" stroke="midnightblue" points="814.108,-34.9762 808.741,-25.8411 807.24,-36.329 814.108,-34.9762"/>
</g>
<!-- Node47&#45;&gt;Node37 -->
<g id="edge59" class="edge"><title>Node47&#45;&gt;Node37</title>
<path fill="none" stroke="midnightblue" d="M771.923,-334.206C782.434,-324.976 797.642,-309.405 804,-292 808.88,-278.641 810.09,-272.852 804,-260 797.872,-247.068 786.006,-236.617 774.859,-229.053"/>
<polygon fill="midnightblue" stroke="midnightblue" points="776.528,-225.968 766.198,-223.614 772.805,-231.896 776.528,-225.968"/>
</g>
<!-- Node48 -->
<g id="node48" class="node"><title>Node48</title>
<polygon fill="none" stroke="#bfbfbf" points="726.5,-266.5 726.5,-285.5 795.5,-285.5 795.5,-266.5 726.5,-266.5"/>
<text text-anchor="middle" x="761" y="-273.5" font-family="Helvetica,sans-Serif" font-size="10.00">TObjArray.h</text>
</g>
<!-- Node47&#45;&gt;Node48 -->
<g id="edge60" class="edge"><title>Node47&#45;&gt;Node48</title>
<path fill="none" stroke="midnightblue" d="M761,-334.372C761,-324.643 761,-308.528 761,-295.85"/>
<polygon fill="midnightblue" stroke="midnightblue" points="764.5,-295.841 761,-285.841 757.5,-295.841 764.5,-295.841"/>
</g>
<!-- Node49 -->
<g id="node49" class="node"><title>Node49</title>
<polygon fill="none" stroke="#bfbfbf" points="667.5,-266.5 667.5,-285.5 708.5,-285.5 708.5,-266.5 667.5,-266.5"/>
<text text-anchor="middle" x="688" y="-273.5" font-family="Helvetica,sans-Serif" font-size="10.00">string</text>
</g>
<!-- Node47&#45;&gt;Node49 -->
<g id="edge61" class="edge"><title>Node47&#45;&gt;Node49</title>
<path fill="none" stroke="midnightblue" d="M751.457,-334.372C739.826,-323.856 719.945,-305.882 705.531,-292.85"/>
<polygon fill="midnightblue" stroke="midnightblue" points="707.544,-289.951 697.779,-285.841 702.849,-295.144 707.544,-289.951"/>
</g>
</g>
</svg>
