<?xml version="1.0" encoding="UTF-8" standalone="no"?>
<!DOCTYPE svg PUBLIC "-//W3C//DTD SVG 1.1//EN"
 "http://www.w3.org/Graphics/SVG/1.1/DTD/svg11.dtd">
<!-- Generated by graphviz version 2.36.0 (20140111.2315)
 -->
<!-- Title: ZeroBoundContiguousAlphabet&lt; T, _max, NameT &gt; Pages: 1 -->
<svg width="191pt" height="726pt"
 viewBox="0.00 0.00 191.00 726.00" xmlns="http://www.w3.org/2000/svg" xmlns:xlink="http://www.w3.org/1999/xlink">
<g id="graph0" class="graph" transform="scale(1 1) rotate(0) translate(4 722)">
<title>ZeroBoundContiguousAlphabet&lt; T, _max, NameT &gt;</title>
<!-- Node1 -->
<g id="node1" class="node"><title>Node1</title>
<polygon fill="#bfbfbf" stroke="black" points="0,-247 0,-315 152,-315 152,-247 0,-247"/>
<text text-anchor="start" x="8" y="-303" font-family="Helvetica,sans-Serif" font-size="10.00">ZeroBoundContiguousAlphabet</text>
<text text-anchor="middle" x="76" y="-292" font-family="Helvetica,sans-Serif" font-size="10.00">&lt; T, _max, NameT &gt;</text>
<polyline fill="none" stroke="black" points="0,-285 152,-285 "/>
<text text-anchor="middle" x="76" y="-273" font-family="Helvetica,sans-Serif" font-size="10.00"> </text>
<polyline fill="none" stroke="black" points="0,-266 152,-266 "/>
<text text-anchor="middle" x="76" y="-254" font-family="Helvetica,sans-Serif" font-size="10.00"> </text>
</g>
<!-- Node4 -->
<g id="node4" class="node"><title>Node4</title>
<g id="a_node4"><a xlink:href="../../da/d16/classZeroBoundContiguousAlphabet.html" target="_top" xlink:title="{ZeroBoundContiguousAlphabet\l\&lt; T, getmax\&lt; T, _nbits \&gt;\l::value, NameT \&gt;\n||}">
<polygon fill="none" stroke="black" points="0,-108.5 0,-187.5 152,-187.5 152,-108.5 0,-108.5"/>
<text text-anchor="start" x="8" y="-175.5" font-family="Helvetica,sans-Serif" font-size="10.00">ZeroBoundContiguousAlphabet</text>
<text text-anchor="start" x="8" y="-164.5" font-family="Helvetica,sans-Serif" font-size="10.00">&lt; T, getmax&lt; T, _nbits &gt;</text>
<text text-anchor="middle" x="76" y="-153.5" font-family="Helvetica,sans-Serif" font-size="10.00">::value, NameT &gt;</text>
<polyline fill="none" stroke="black" points="0,-146.5 152,-146.5 "/>
<text text-anchor="middle" x="76" y="-134.5" font-family="Helvetica,sans-Serif" font-size="10.00"> </text>
<polyline fill="none" stroke="black" points="0,-127.5 152,-127.5 "/>
<text text-anchor="middle" x="76" y="-115.5" font-family="Helvetica,sans-Serif" font-size="10.00"> </text>
</a>
</g>
</g>
<!-- Node1&#45;&gt;Node4 -->
<g id="edge3" class="edge"><title>Node1&#45;&gt;Node4</title>
<path fill="none" stroke="orange" d="M76,-236.84C76,-220.958 76,-203.086 76,-187.629"/>
<polygon fill="orange" stroke="orange" points="72.5001,-236.943 76,-246.943 79.5001,-236.943 72.5001,-236.943"/>
<text text-anchor="start" x="76" y="-220" font-family="Helvetica,sans-Serif" font-size="10.00"> &lt; T, getmax&lt; T, _nbits</text>
<text text-anchor="middle" x="128" y="-209" font-family="Helvetica,sans-Serif" font-size="10.00"> &gt;::value, NameT &gt;</text>
</g>
<!-- Node2 -->
<g id="node2" class="node"><title>Node2</title>
<g id="a_node2"><a xlink:href="../../d1/d8d/classContiguousAlphabet.html" target="_top" xlink:title="{ContiguousAlphabet\l\&lt; T, 0, _max, NameT \&gt;\n||+ ContiguousAlphabet()\l+ ~ContiguousAlphabet()\l+ getIndexRange()\l+ getName()\l+ begin()\l+ end()\l+ isValid()\l+ getIndex()\l+ getSymbol()\l}">
<polygon fill="none" stroke="black" points="13.5,-355 13.5,-511 138.5,-511 138.5,-355 13.5,-355"/>
<text text-anchor="start" x="21.5" y="-499" font-family="Helvetica,sans-Serif" font-size="10.00">ContiguousAlphabet</text>
<text text-anchor="middle" x="76" y="-488" font-family="Helvetica,sans-Serif" font-size="10.00">&lt; T, 0, _max, NameT &gt;</text>
<polyline fill="none" stroke="black" points="13.5,-481 138.5,-481 "/>
<text text-anchor="middle" x="76" y="-469" font-family="Helvetica,sans-Serif" font-size="10.00"> </text>
<polyline fill="none" stroke="black" points="13.5,-462 138.5,-462 "/>
<text text-anchor="start" x="21.5" y="-450" font-family="Helvetica,sans-Serif" font-size="10.00">+ ContiguousAlphabet()</text>
<text text-anchor="start" x="21.5" y="-439" font-family="Helvetica,sans-Serif" font-size="10.00">+ ~ContiguousAlphabet()</text>
<text text-anchor="start" x="21.5" y="-428" font-family="Helvetica,sans-Serif" font-size="10.00">+ getIndexRange()</text>
<text text-anchor="start" x="21.5" y="-417" font-family="Helvetica,sans-Serif" font-size="10.00">+ getName()</text>
<text text-anchor="start" x="21.5" y="-406" font-family="Helvetica,sans-Serif" font-size="10.00">+ begin()</text>
<text text-anchor="start" x="21.5" y="-395" font-family="Helvetica,sans-Serif" font-size="10.00">+ end()</text>
<text text-anchor="start" x="21.5" y="-384" font-family="Helvetica,sans-Serif" font-size="10.00">+ isValid()</text>
<text text-anchor="start" x="21.5" y="-373" font-family="Helvetica,sans-Serif" font-size="10.00">+ getIndex()</text>
<text text-anchor="start" x="21.5" y="-362" font-family="Helvetica,sans-Serif" font-size="10.00">+ getSymbol()</text>
</a>
</g>
</g>
<!-- Node2&#45;&gt;Node1 -->
<g id="edge1" class="edge"><title>Node2&#45;&gt;Node1</title>
<path fill="none" stroke="midnightblue" d="M76,-344.73C76,-334.299 76,-324.194 76,-315.251"/>
<polygon fill="none" stroke="midnightblue" points="72.5001,-344.803 76,-354.803 79.5001,-344.803 72.5001,-344.803"/>
</g>
<!-- Node3 -->
<g id="node3" class="node"><title>Node3</title>
<g id="a_node3"><a xlink:href="../../d1/d8d/classContiguousAlphabet.html" target="_top" xlink:title="{ContiguousAlphabet\l\&lt; T, _min, _max, NameT \&gt;\n||+ ContiguousAlphabet()\l+ ~ContiguousAlphabet()\l+ getIndexRange()\l+ getName()\l+ begin()\l+ end()\l+ isValid()\l+ getIndex()\l+ getSymbol()\l}">
<polygon fill="none" stroke="black" points="8,-561 8,-717 144,-717 144,-561 8,-561"/>
<text text-anchor="start" x="16" y="-705" font-family="Helvetica,sans-Serif" font-size="10.00">ContiguousAlphabet</text>
<text text-anchor="middle" x="76" y="-694" font-family="Helvetica,sans-Serif" font-size="10.00">&lt; T, _min, _max, NameT &gt;</text>
<polyline fill="none" stroke="black" points="8,-687 144,-687 "/>
<text text-anchor="middle" x="76" y="-675" font-family="Helvetica,sans-Serif" font-size="10.00"> </text>
<polyline fill="none" stroke="black" points="8,-668 144,-668 "/>
<text text-anchor="start" x="16" y="-656" font-family="Helvetica,sans-Serif" font-size="10.00">+ ContiguousAlphabet()</text>
<text text-anchor="start" x="16" y="-645" font-family="Helvetica,sans-Serif" font-size="10.00">+ ~ContiguousAlphabet()</text>
<text text-anchor="start" x="16" y="-634" font-family="Helvetica,sans-Serif" font-size="10.00">+ getIndexRange()</text>
<text text-anchor="start" x="16" y="-623" font-family="Helvetica,sans-Serif" font-size="10.00">+ getName()</text>
<text text-anchor="start" x="16" y="-612" font-family="Helvetica,sans-Serif" font-size="10.00">+ begin()</text>
<text text-anchor="start" x="16" y="-601" font-family="Helvetica,sans-Serif" font-size="10.00">+ end()</text>
<text text-anchor="start" x="16" y="-590" font-family="Helvetica,sans-Serif" font-size="10.00">+ isValid()</text>
<text text-anchor="start" x="16" y="-579" font-family="Helvetica,sans-Serif" font-size="10.00">+ getIndex()</text>
<text text-anchor="start" x="16" y="-568" font-family="Helvetica,sans-Serif" font-size="10.00">+ getSymbol()</text>
</a>
</g>
</g>
<!-- Node3&#45;&gt;Node2 -->
<g id="edge2" class="edge"><title>Node3&#45;&gt;Node2</title>
<path fill="none" stroke="orange" d="M76,-550.492C76,-537.436 76,-524.056 76,-511.233"/>
<polygon fill="orange" stroke="orange" points="72.5001,-550.876 76,-560.876 79.5001,-550.876 72.5001,-550.876"/>
<text text-anchor="middle" x="129.5" y="-533.5" font-family="Helvetica,sans-Serif" font-size="10.00"> &lt; T, 0, _max, NameT &gt;</text>
</g>
<!-- Node5 -->
<g id="node5" class="node"><title>Node5</title>
<g id="a_node5"><a xlink:href="../../df/df4/classBitRangeContiguousAlphabet.html" target="_top" xlink:title="{BitRangeContiguousAlphabet\l\&lt; T, _nbits, NameT \&gt;\n||}">
<polygon fill="none" stroke="black" points="3.5,-1 3.5,-69 148.5,-69 148.5,-1 3.5,-1"/>
<text text-anchor="start" x="11.5" y="-57" font-family="Helvetica,sans-Serif" font-size="10.00">BitRangeContiguousAlphabet</text>
<text text-anchor="middle" x="76" y="-46" font-family="Helvetica,sans-Serif" font-size="10.00">&lt; T, _nbits, NameT &gt;</text>
<polyline fill="none" stroke="black" points="3.5,-39 148.5,-39 "/>
<text text-anchor="middle" x="76" y="-27" font-family="Helvetica,sans-Serif" font-size="10.00"> </text>
<polyline fill="none" stroke="black" points="3.5,-20 148.5,-20 "/>
<text text-anchor="middle" x="76" y="-8" font-family="Helvetica,sans-Serif" font-size="10.00"> </text>
</a>
</g>
</g>
<!-- Node4&#45;&gt;Node5 -->
<g id="edge4" class="edge"><title>Node4&#45;&gt;Node5</title>
<path fill="none" stroke="midnightblue" d="M76,-98.3974C76,-88.5607 76,-78.4304 76,-69.2684"/>
<polygon fill="none" stroke="midnightblue" points="72.5001,-98.4891 76,-108.489 79.5001,-98.4891 72.5001,-98.4891"/>
</g>
</g>
</svg>
