<?xml version="1.0" encoding="UTF-8" standalone="no"?>
<!DOCTYPE svg PUBLIC "-//W3C//DTD SVG 1.1//EN"
 "http://www.w3.org/Graphics/SVG/1.1/DTD/svg11.dtd">
<!-- Generated by graphviz version 2.36.0 (20140111.2315)
 -->
<!-- Title: ZeroBoundContiguousAlphabet&lt; T, _max, NameT &gt; Pages: 1 -->
<!--zoomable 726 -->
<svg id="main" version="1.1" xmlns="http://www.w3.org/2000/svg" xmlns:xlink="http://www.w3.org/1999/xlink" xml:space="preserve" onload="init(evt)">
<style type="text/css"><![CDATA[
.edge:hover path { stroke: red; }
.edge:hover polygon { stroke: red; fill: red; }
]]></style>
<script type="text/javascript"><![CDATA[
var edges = document.getElementsByTagName('g');
if (edges && edges.length) {
  for (var i=0;i<edges.length;i++) {
    if (edges[i].id.substr(0,4)=='edge') {
      edges[i].setAttribute('class','edge');
    }
  }
}
]]></script>
        <defs>
                <circle id="rim" cx="0" cy="0" r="7"/>
                <circle id="rim2" cx="0" cy="0" r="3.5"/>
                <g id="zoomPlus">
                        <use xlink:href="#rim" fill="#404040">
                                <set attributeName="fill" to="#808080" begin="zoomplus.mouseover" end="zoomplus.mouseout"/>
                        </use>
                        <path d="M-4,0h8M0,-4v8" fill="none" stroke="white" stroke-width="1.5" pointer-events="none"/>
                </g>
                <g id="zoomMin">
                        <use xlink:href="#rim" fill="#404040">
                                <set attributeName="fill" to="#808080" begin="zoomminus.mouseover" end="zoomminus.mouseout"/>
                        </use>
                        <path d="M-4,0h8" fill="none" stroke="white" stroke-width="1.5" pointer-events="none"/>
                </g>
                <g id="dirArrow">
                        <path fill="none" stroke="white" stroke-width="1.5" d="M0,-3.0v7 M-2.5,-0.5L0,-3.0L2.5,-0.5"/>
                </g>
               <g id="resetDef">
                       <use xlink:href="#rim2" fill="#404040">
                               <set attributeName="fill" to="#808080" begin="reset.mouseover" end="reset.mouseout"/>
                       </use>
               </g>
        </defs>

<script type="text/javascript">
var viewWidth = 191;
var viewHeight = 726;
var sectionId = 'dynsection-0';
</script>
<script xlink:href="../../svgpan.js"/>
<svg id="graph" class="graph">
<g id="viewport">
<title>ZeroBoundContiguousAlphabet&lt; T, _max, NameT &gt;</title>
<!-- Node1 -->
<g id="node1" class="node"><title>Node1</title>
<polygon fill="#bfbfbf" stroke="black" points="0,-247 0,-315 152,-315 152,-247 0,-247"/>
<text text-anchor="start" x="8" y="-303" font-family="Helvetica,sans-Serif" font-size="10.00">ZeroBoundContiguousAlphabet</text>
<text text-anchor="middle" x="76" y="-292" font-family="Helvetica,sans-Serif" font-size="10.00">&lt; T, _max, NameT &gt;</text>
<polyline fill="none" stroke="black" points="0,-285 152,-285 "/>
<text text-anchor="middle" x="76" y="-273" font-family="Helvetica,sans-Serif" font-size="10.00"> </text>
<polyline fill="none" stroke="black" points="0,-266 152,-266 "/>
<text text-anchor="middle" x="76" y="-254" font-family="Helvetica,sans-Serif" font-size="10.00"> </text>
</g>
<!-- Node4 -->
<g id="node4" class="node"><title>Node4</title>
<g id="a_node4"><a xlink:href="../../da/d16/classZeroBoundContiguousAlphabet.html" target="_top" xlink:title="{ZeroBoundContiguousAlphabet\l\&lt; T, getmax\&lt; T, _nbits \&gt;\l::value, NameT \&gt;\n||}">
<polygon fill="none" stroke="black" points="0,-108.5 0,-187.5 152,-187.5 152,-108.5 0,-108.5"/>
<text text-anchor="start" x="8" y="-175.5" font-family="Helvetica,sans-Serif" font-size="10.00">ZeroBoundContiguousAlphabet</text>
<text text-anchor="start" x="8" y="-164.5" font-family="Helvetica,sans-Serif" font-size="10.00">&lt; T, getmax&lt; T, _nbits &gt;</text>
<text text-anchor="middle" x="76" y="-153.5" font-family="Helvetica,sans-Serif" font-size="10.00">::value, NameT &gt;</text>
<polyline fill="none" stroke="black" points="0,-146.5 152,-146.5 "/>
<text text-anchor="middle" x="76" y="-134.5" font-family="Helvetica,sans-Serif" font-size="10.00"> </text>
<polyline fill="none" stroke="black" points="0,-127.5 152,-127.5 "/>
<text text-anchor="middle" x="76" y="-115.5" font-family="Helvetica,sans-Serif" font-size="10.00"> </text>
</a>
</g>
</g>
<!-- Node1&#45;&gt;Node4 -->
<g id="edge3" class="edge"><title>Node1&#45;&gt;Node4</title>
<path fill="none" stroke="orange" d="M76,-236.84C76,-220.958 76,-203.086 76,-187.629"/>
<polygon fill="orange" stroke="orange" points="72.5001,-236.943 76,-246.943 79.5001,-236.943 72.5001,-236.943"/>
<text text-anchor="start" x="76" y="-220" font-family="Helvetica,sans-Serif" font-size="10.00"> &lt; T, getmax&lt; T, _nbits</text>
<text text-anchor="middle" x="128" y="-209" font-family="Helvetica,sans-Serif" font-size="10.00"> &gt;::value, NameT &gt;</text>
</g>
<!-- Node2 -->
<g id="node2" class="node"><title>Node2</title>
<g id="a_node2"><a xlink:href="../../d1/d8d/classContiguousAlphabet.html" target="_top" xlink:title="{ContiguousAlphabet\l\&lt; T, 0, _max, NameT \&gt;\n||+ ContiguousAlphabet()\l+ ~ContiguousAlphabet()\l+ getIndexRange()\l+ getName()\l+ begin()\l+ end()\l+ isValid()\l+ getIndex()\l+ getSymbol()\l}">
<polygon fill="none" stroke="black" points="13.5,-355 13.5,-511 138.5,-511 138.5,-355 13.5,-355"/>
<text text-anchor="start" x="21.5" y="-499" font-family="Helvetica,sans-Serif" font-size="10.00">ContiguousAlphabet</text>
<text text-anchor="middle" x="76" y="-488" font-family="Helvetica,sans-Serif" font-size="10.00">&lt; T, 0, _max, NameT &gt;</text>
<polyline fill="none" stroke="black" points="13.5,-481 138.5,-481 "/>
<text text-anchor="middle" x="76" y="-469" font-family="Helvetica,sans-Serif" font-size="10.00"> </text>
<polyline fill="none" stroke="black" points="13.5,-462 138.5,-462 "/>
<text text-anchor="start" x="21.5" y="-450" font-family="Helvetica,sans-Serif" font-size="10.00">+ ContiguousAlphabet()</text>
<text text-anchor="start" x="21.5" y="-439" font-family="Helvetica,sans-Serif" font-size="10.00">+ ~ContiguousAlphabet()</text>
<text text-anchor="start" x="21.5" y="-428" font-family="Helvetica,sans-Serif" font-size="10.00">+ getIndexRange()</text>
<text text-anchor="start" x="21.5" y="-417" font-family="Helvetica,sans-Serif" font-size="10.00">+ getName()</text>
<text text-anchor="start" x="21.5" y="-406" font-family="Helvetica,sans-Serif" font-size="10.00">+ begin()</text>
<text text-anchor="start" x="21.5" y="-395" font-family="Helvetica,sans-Serif" font-size="10.00">+ end()</text>
<text text-anchor="start" x="21.5" y="-384" font-family="Helvetica,sans-Serif" font-size="10.00">+ isValid()</text>
<text text-anchor="start" x="21.5" y="-373" font-family="Helvetica,sans-Serif" font-size="10.00">+ getIndex()</text>
<text text-anchor="start" x="21.5" y="-362" font-family="Helvetica,sans-Serif" font-size="10.00">+ getSymbol()</text>
</a>
</g>
</g>
<!-- Node2&#45;&gt;Node1 -->
<g id="edge1" class="edge"><title>Node2&#45;&gt;Node1</title>
<path fill="none" stroke="midnightblue" d="M76,-344.73C76,-334.299 76,-324.194 76,-315.251"/>
<polygon fill="none" stroke="midnightblue" points="72.5001,-344.803 76,-354.803 79.5001,-344.803 72.5001,-344.803"/>
</g>
<!-- Node3 -->
<g id="node3" class="node"><title>Node3</title>
<g id="a_node3"><a xlink:href="../../d1/d8d/classContiguousAlphabet.html" target="_top" xlink:title="{ContiguousAlphabet\l\&lt; T, _min, _max, NameT \&gt;\n||+ ContiguousAlphabet()\l+ ~ContiguousAlphabet()\l+ getIndexRange()\l+ getName()\l+ begin()\l+ end()\l+ isValid()\l+ getIndex()\l+ getSymbol()\l}">
<polygon fill="none" stroke="black" points="8,-561 8,-717 144,-717 144,-561 8,-561"/>
<text text-anchor="start" x="16" y="-705" font-family="Helvetica,sans-Serif" font-size="10.00">ContiguousAlphabet</text>
<text text-anchor="middle" x="76" y="-694" font-family="Helvetica,sans-Serif" font-size="10.00">&lt; T, _min, _max, NameT &gt;</text>
<polyline fill="none" stroke="black" points="8,-687 144,-687 "/>
<text text-anchor="middle" x="76" y="-675" font-family="Helvetica,sans-Serif" font-size="10.00"> </text>
<polyline fill="none" stroke="black" points="8,-668 144,-668 "/>
<text text-anchor="start" x="16" y="-656" font-family="Helvetica,sans-Serif" font-size="10.00">+ ContiguousAlphabet()</text>
<text text-anchor="start" x="16" y="-645" font-family="Helvetica,sans-Serif" font-size="10.00">+ ~ContiguousAlphabet()</text>
<text text-anchor="start" x="16" y="-634" font-family="Helvetica,sans-Serif" font-size="10.00">+ getIndexRange()</text>
<text text-anchor="start" x="16" y="-623" font-family="Helvetica,sans-Serif" font-size="10.00">+ getName()</text>
<text text-anchor="start" x="16" y="-612" font-family="Helvetica,sans-Serif" font-size="10.00">+ begin()</text>
<text text-anchor="start" x="16" y="-601" font-family="Helvetica,sans-Serif" font-size="10.00">+ end()</text>
<text text-anchor="start" x="16" y="-590" font-family="Helvetica,sans-Serif" font-size="10.00">+ isValid()</text>
<text text-anchor="start" x="16" y="-579" font-family="Helvetica,sans-Serif" font-size="10.00">+ getIndex()</text>
<text text-anchor="start" x="16" y="-568" font-family="Helvetica,sans-Serif" font-size="10.00">+ getSymbol()</text>
</a>
</g>
</g>
<!-- Node3&#45;&gt;Node2 -->
<g id="edge2" class="edge"><title>Node3&#45;&gt;Node2</title>
<path fill="none" stroke="orange" d="M76,-550.492C76,-537.436 76,-524.056 76,-511.233"/>
<polygon fill="orange" stroke="orange" points="72.5001,-550.876 76,-560.876 79.5001,-550.876 72.5001,-550.876"/>
<text text-anchor="middle" x="129.5" y="-533.5" font-family="Helvetica,sans-Serif" font-size="10.00"> &lt; T, 0, _max, NameT &gt;</text>
</g>
<!-- Node5 -->
<g id="node5" class="node"><title>Node5</title>
<g id="a_node5"><a xlink:href="../../df/df4/classBitRangeContiguousAlphabet.html" target="_top" xlink:title="{BitRangeContiguousAlphabet\l\&lt; T, _nbits, NameT \&gt;\n||}">
<polygon fill="none" stroke="black" points="3.5,-1 3.5,-69 148.5,-69 148.5,-1 3.5,-1"/>
<text text-anchor="start" x="11.5" y="-57" font-family="Helvetica,sans-Serif" font-size="10.00">BitRangeContiguousAlphabet</text>
<text text-anchor="middle" x="76" y="-46" font-family="Helvetica,sans-Serif" font-size="10.00">&lt; T, _nbits, NameT &gt;</text>
<polyline fill="none" stroke="black" points="3.5,-39 148.5,-39 "/>
<text text-anchor="middle" x="76" y="-27" font-family="Helvetica,sans-Serif" font-size="10.00"> </text>
<polyline fill="none" stroke="black" points="3.5,-20 148.5,-20 "/>
<text text-anchor="middle" x="76" y="-8" font-family="Helvetica,sans-Serif" font-size="10.00"> </text>
</a>
</g>
</g>
<!-- Node4&#45;&gt;Node5 -->
<g id="edge4" class="edge"><title>Node4&#45;&gt;Node5</title>
<path fill="none" stroke="midnightblue" d="M76,-98.3974C76,-88.5607 76,-78.4304 76,-69.2684"/>
<polygon fill="none" stroke="midnightblue" points="72.5001,-98.4891 76,-108.489 79.5001,-98.4891 72.5001,-98.4891"/>
</g>
</g>
</svg>
        <g id="navigator" transform="translate(0 0)" fill="#404254">
                <rect fill="#f2f5e9" fill-opacity="0.5" stroke="#606060" stroke-width=".5" x="0" y="0" width="60" height="60"/>
                <use id="zoomplus" xlink:href="#zoomPlus" x="17" y="9" onmousedown="handleZoom(evt,'in')"/>
                <use id="zoomminus" xlink:href="#zoomMin" x="42" y="9" onmousedown="handleZoom(evt,'out')"/>
                <use id="reset" xlink:href="#resetDef" x="30" y="36" onmousedown="handleReset()"/>
                <g id="arrowUp" xlink:href="#dirArrow" transform="translate(30 24)" onmousedown="handlePan(0,-1)">
                  <use xlink:href="#rim" fill="#404040">
                        <set attributeName="fill" to="#808080" begin="arrowUp.mouseover" end="arrowUp.mouseout"/>
                  </use>
                  <path fill="none" stroke="white" stroke-width="1.5" d="M0,-3.0v7 M-2.5,-0.5L0,-3.0L2.5,-0.5"/>
                </g>
                <g id="arrowRight" xlink:href="#dirArrow" transform="rotate(90) translate(36 -43)" onmousedown="handlePan(1,0)">
                  <use xlink:href="#rim" fill="#404040">
                        <set attributeName="fill" to="#808080" begin="arrowRight.mouseover" end="arrowRight.mouseout"/>
                  </use>
                  <path fill="none" stroke="white" stroke-width="1.5" d="M0,-3.0v7 M-2.5,-0.5L0,-3.0L2.5,-0.5"/>
                </g>
                <g id="arrowDown" xlink:href="#dirArrow" transform="rotate(180) translate(-30 -48)" onmousedown="handlePan(0,1)">
                  <use xlink:href="#rim" fill="#404040">
                        <set attributeName="fill" to="#808080" begin="arrowDown.mouseover" end="arrowDown.mouseout"/>
                  </use>
                  <path fill="none" stroke="white" stroke-width="1.5" d="M0,-3.0v7 M-2.5,-0.5L0,-3.0L2.5,-0.5"/>
                </g>
                <g id="arrowLeft" xlink:href="#dirArrow" transform="rotate(270) translate(-36 17)" onmousedown="handlePan(-1,0)">
                  <use xlink:href="#rim" fill="#404040">
                        <set attributeName="fill" to="#808080" begin="arrowLeft.mouseover" end="arrowLeft.mouseout"/>
                  </use>
                  <path fill="none" stroke="white" stroke-width="1.5" d="M0,-3.0v7 M-2.5,-0.5L0,-3.0L2.5,-0.5"/>
                </g>
        </g>
        <svg viewBox="0 0 15 15" width="100%" height="30px" preserveAspectRatio="xMaxYMin meet">
         <g id="arrow_out" transform="scale(0.3 0.3)">
          <a xlink:href="classZeroBoundContiguousAlphabet__inherit__graph_org.svg" target="_base">
           <rect id="button" ry="5" rx="5" y="6" x="6" height="38" width="38"
                fill="#f2f5e9" fill-opacity="0.5" stroke="#606060" stroke-width="1.0"/>
           <path id="arrow"
             d="M 11.500037,31.436501 C 11.940474,20.09759 22.043105,11.32322 32.158766,21.979434 L 37.068811,17.246167 C 37.068811,17.246167 37.088388,32 37.088388,32 L 22.160133,31.978069 C 22.160133,31.978069 26.997745,27.140456 26.997745,27.140456 C 18.528582,18.264221 13.291696,25.230495 11.500037,31.436501 z"
             style="fill:#404040;"/>
          </a>
         </g>
        </svg>
</svg>
