<?xml version="1.0" encoding="UTF-8" standalone="no"?>
<!DOCTYPE svg PUBLIC "-//W3C//DTD SVG 1.1//EN"
 "http://www.w3.org/Graphics/SVG/1.1/DTD/svg11.dtd">
<!-- Generated by graphviz version 2.36.0 (20140111.2315)
 -->
<!-- Title: o2::DataFormat::TPC::ClusterHardware Pages: 1 -->
<svg width="217pt" height="248pt"
 viewBox="0.00 0.00 217.00 248.00" xmlns="http://www.w3.org/2000/svg" xmlns:xlink="http://www.w3.org/1999/xlink">
<g id="graph0" class="graph" transform="scale(1 1) rotate(0) translate(4 244)">
<title>o2::DataFormat::TPC::ClusterHardware</title>
<!-- Node1 -->
<g id="node1" class="node"><title>Node1</title>
<polygon fill="#bfbfbf" stroke="black" points="30.5,-0.5 30.5,-101.5 141.5,-101.5 141.5,-0.5 30.5,-0.5"/>
<text text-anchor="start" x="38.5" y="-89.5" font-family="Helvetica,sans-Serif" font-size="10.00">o2::DataFormat::TPC</text>
<text text-anchor="middle" x="86" y="-78.5" font-family="Helvetica,sans-Serif" font-size="10.00">::ClusterHardware</text>
<polyline fill="none" stroke="black" points="30.5,-71.5 141.5,-71.5 "/>
<text text-anchor="middle" x="86" y="-59.5" font-family="Helvetica,sans-Serif" font-size="10.00"> </text>
<polyline fill="none" stroke="black" points="30.5,-52.5 141.5,-52.5 "/>
<text text-anchor="start" x="38.5" y="-40.5" font-family="Helvetica,sans-Serif" font-size="10.00">+ getPad()</text>
<text text-anchor="start" x="38.5" y="-29.5" font-family="Helvetica,sans-Serif" font-size="10.00">+ getTimeLocal()</text>
<text text-anchor="start" x="38.5" y="-18.5" font-family="Helvetica,sans-Serif" font-size="10.00">+ getSigmaPad2()</text>
<text text-anchor="start" x="38.5" y="-7.5" font-family="Helvetica,sans-Serif" font-size="10.00">+ getSigmaTime2()</text>
</g>
<!-- Node2 -->
<g id="node2" class="node"><title>Node2</title>
<polygon fill="none" stroke="#bfbfbf" points="-0.5,-182.5 -0.5,-239.5 50.5,-239.5 50.5,-182.5 -0.5,-182.5"/>
<text text-anchor="middle" x="25" y="-227.5" font-family="Helvetica,sans-Serif" font-size="10.00">uint16_t</text>
<polyline fill="none" stroke="#bfbfbf" points="-0.5,-220.5 50.5,-220.5 "/>
<text text-anchor="middle" x="25" y="-208.5" font-family="Helvetica,sans-Serif" font-size="10.00"> </text>
<polyline fill="none" stroke="#bfbfbf" points="-0.5,-201.5 50.5,-201.5 "/>
<text text-anchor="middle" x="25" y="-189.5" font-family="Helvetica,sans-Serif" font-size="10.00"> </text>
</g>
<!-- Node2&#45;&gt;Node1 -->
<g id="edge1" class="edge"><title>Node2&#45;&gt;Node1</title>
<path fill="none" stroke="#404040" d="M31.4998,-182.363C36.104,-164.316 42.8909,-140.404 51,-120 51.9762,-117.544 53.0121,-115.058 54.0927,-112.563"/>
<polygon fill="none" stroke="#404040" points="54.1013,-112.544 52.9441,-105.427 59.0691,-101.621 60.2264,-108.738 54.1013,-112.544"/>
<text text-anchor="middle" x="66.5" y="-145" font-family="Helvetica,sans-Serif" font-size="10.00"> +qTot</text>
<text text-anchor="middle" x="66.5" y="-134" font-family="Helvetica,sans-Serif" font-size="10.00">+qMax</text>
</g>
<!-- Node3 -->
<g id="node3" class="node"><title>Node3</title>
<g id="a_node3"><a xlink:href="../../d4/dc3/classfloat.html" target="_top" xlink:title="{float\n||}">
<polygon fill="none" stroke="black" points="68.5,-182.5 68.5,-239.5 103.5,-239.5 103.5,-182.5 68.5,-182.5"/>
<text text-anchor="middle" x="86" y="-227.5" font-family="Helvetica,sans-Serif" font-size="10.00">float</text>
<polyline fill="none" stroke="black" points="68.5,-220.5 103.5,-220.5 "/>
<text text-anchor="middle" x="86" y="-208.5" font-family="Helvetica,sans-Serif" font-size="10.00"> </text>
<polyline fill="none" stroke="black" points="68.5,-201.5 103.5,-201.5 "/>
<text text-anchor="middle" x="86" y="-189.5" font-family="Helvetica,sans-Serif" font-size="10.00"> </text>
</a>
</g>
</g>
<!-- Node3&#45;&gt;Node1 -->
<g id="edge2" class="edge"><title>Node3&#45;&gt;Node1</title>
<path fill="none" stroke="#404040" d="M86,-182.479C86,-163.505 86,-137.516 86,-113.724"/>
<polygon fill="none" stroke="#404040" points="86.0001,-113.532 82,-107.532 86,-101.532 90,-107.532 86.0001,-113.532"/>
<text text-anchor="middle" x="123.5" y="-156" font-family="Helvetica,sans-Serif" font-size="10.00"> +sigmaPad2Pre</text>
<text text-anchor="middle" x="123.5" y="-145" font-family="Helvetica,sans-Serif" font-size="10.00">+timePre</text>
<text text-anchor="middle" x="123.5" y="-134" font-family="Helvetica,sans-Serif" font-size="10.00">+sigmaTime2Pre</text>
<text text-anchor="middle" x="123.5" y="-123" font-family="Helvetica,sans-Serif" font-size="10.00">+padPre</text>
</g>
<!-- Node4 -->
<g id="node4" class="node"><title>Node4</title>
<polygon fill="none" stroke="#bfbfbf" points="161,-182.5 161,-239.5 207,-239.5 207,-182.5 161,-182.5"/>
<text text-anchor="middle" x="184" y="-227.5" font-family="Helvetica,sans-Serif" font-size="10.00">uint8_t</text>
<polyline fill="none" stroke="#bfbfbf" points="161,-220.5 207,-220.5 "/>
<text text-anchor="middle" x="184" y="-208.5" font-family="Helvetica,sans-Serif" font-size="10.00"> </text>
<polyline fill="none" stroke="#bfbfbf" points="161,-201.5 207,-201.5 "/>
<text text-anchor="middle" x="184" y="-189.5" font-family="Helvetica,sans-Serif" font-size="10.00"> </text>
</g>
<!-- Node4&#45;&gt;Node1 -->
<g id="edge3" class="edge"><title>Node4&#45;&gt;Node1</title>
<path fill="none" stroke="#404040" d="M181.565,-182.396C178.919,-163.701 173.419,-139.035 162,-120 158.585,-114.306 154.539,-108.822 150.121,-103.607"/>
<polygon fill="none" stroke="#404040" points="149.917,-103.384 142.917,-101.653 141.823,-94.5252 148.823,-96.2564 149.917,-103.384"/>
<text text-anchor="middle" x="193.5" y="-145" font-family="Helvetica,sans-Serif" font-size="10.00"> +flags</text>
<text text-anchor="middle" x="193.5" y="-134" font-family="Helvetica,sans-Serif" font-size="10.00">+row</text>
</g>
</g>
</svg>
