<?xml version="1.0" encoding="UTF-8" standalone="no"?>
<!DOCTYPE svg PUBLIC "-//W3C//DTD SVG 1.1//EN"
 "http://www.w3.org/Graphics/SVG/1.1/DTD/svg11.dtd">
<!-- Generated by graphviz version 2.36.0 (20140111.2315)
 -->
<!-- Title: /home/travis/build/AliceO2Group/AliceO2/Detectors/ITSMFT/ITS/reconstruction/include/ITSReconstruction/TrivialClustererTask.h Pages: 1 -->
<svg width="1883pt" height="456pt"
 viewBox="0.00 0.00 1883.00 456.00" xmlns="http://www.w3.org/2000/svg" xmlns:xlink="http://www.w3.org/1999/xlink">
<g id="graph0" class="graph" transform="scale(1 1) rotate(0) translate(4 452)">
<title>/home/travis/build/AliceO2Group/AliceO2/Detectors/ITSMFT/ITS/reconstruction/include/ITSReconstruction/TrivialClustererTask.h</title>
<!-- Node1 -->
<g id="node1" class="node"><title>Node1</title>
<polygon fill="#bfbfbf" stroke="black" points="919,-373 919,-447 1089,-447 1089,-373 919,-373"/>
<text text-anchor="start" x="927" y="-435" font-family="Helvetica,sans-Serif" font-size="10.00">/home/travis/build</text>
<text text-anchor="start" x="927" y="-424" font-family="Helvetica,sans-Serif" font-size="10.00">/AliceO2Group/AliceO2</text>
<text text-anchor="start" x="927" y="-413" font-family="Helvetica,sans-Serif" font-size="10.00">/Detectors/ITSMFT/ITS</text>
<text text-anchor="start" x="927" y="-402" font-family="Helvetica,sans-Serif" font-size="10.00">/reconstruction/include</text>
<text text-anchor="start" x="927" y="-391" font-family="Helvetica,sans-Serif" font-size="10.00">/ITSReconstruction/TrivialClusterer</text>
<text text-anchor="middle" x="1004" y="-380" font-family="Helvetica,sans-Serif" font-size="10.00">Task.h</text>
</g>
<!-- Node2 -->
<g id="node2" class="node"><title>Node2</title>
<polygon fill="none" stroke="#bfbfbf" points="856.5,-310.5 856.5,-329.5 919.5,-329.5 919.5,-310.5 856.5,-310.5"/>
<text text-anchor="middle" x="888" y="-317.5" font-family="Helvetica,sans-Serif" font-size="10.00">FairTask.h</text>
</g>
<!-- Node1&#45;&gt;Node2 -->
<g id="edge1" class="edge"><title>Node1&#45;&gt;Node2</title>
<path fill="none" stroke="midnightblue" d="M956.484,-372.953C939.238,-359.87 920.714,-345.817 907.285,-335.63"/>
<polygon fill="midnightblue" stroke="midnightblue" points="909.343,-332.798 899.261,-329.543 905.113,-338.375 909.343,-332.798"/>
</g>
<!-- Node3 -->
<g id="node3" class="node"><title>Node3</title>
<g id="a_node3"><a xlink:href="../../df/d9a/ITS_2base_2include_2ITSBase_2GeometryTGeo_8h.html" target="_top" xlink:title="ITSBase/GeometryTGeo.h">
<polygon fill="none" stroke="black" points="937.5,-310.5 937.5,-329.5 1070.5,-329.5 1070.5,-310.5 937.5,-310.5"/>
<text text-anchor="middle" x="1004" y="-317.5" font-family="Helvetica,sans-Serif" font-size="10.00">ITSBase/GeometryTGeo.h</text>
</a>
</g>
</g>
<!-- Node1&#45;&gt;Node3 -->
<g id="edge2" class="edge"><title>Node1&#45;&gt;Node3</title>
<path fill="none" stroke="midnightblue" d="M1004,-372.953C1004,-361.49 1004,-349.282 1004,-339.583"/>
<polygon fill="midnightblue" stroke="midnightblue" points="1007.5,-339.543 1004,-329.543 1000.5,-339.543 1007.5,-339.543"/>
</g>
<!-- Node38 -->
<g id="node38" class="node"><title>Node38</title>
<g id="a_node38"><a xlink:href="../../d1/d76/TrivialClusterer_8h.html" target="_top" xlink:title="Definition of the ITS cluster finder. ">
<polygon fill="none" stroke="black" points="1456,-305 1456,-335 1584,-335 1584,-305 1456,-305"/>
<text text-anchor="start" x="1464" y="-323" font-family="Helvetica,sans-Serif" font-size="10.00">ITSReconstruction/Trivial</text>
<text text-anchor="middle" x="1520" y="-312" font-family="Helvetica,sans-Serif" font-size="10.00">Clusterer.h</text>
</a>
</g>
</g>
<!-- Node1&#45;&gt;Node38 -->
<g id="edge52" class="edge"><title>Node1&#45;&gt;Node38</title>
<path fill="none" stroke="midnightblue" d="M1089.21,-394.469C1188.63,-377.512 1351.42,-349.75 1445.84,-333.647"/>
<polygon fill="midnightblue" stroke="midnightblue" points="1446.62,-337.066 1455.89,-331.934 1445.44,-330.165 1446.62,-337.066"/>
</g>
<!-- Node4 -->
<g id="node4" class="node"><title>Node4</title>
<polygon fill="none" stroke="#bfbfbf" points="1311,-136.5 1311,-155.5 1355,-155.5 1355,-136.5 1311,-136.5"/>
<text text-anchor="middle" x="1333" y="-143.5" font-family="Helvetica,sans-Serif" font-size="10.00">vector</text>
</g>
<!-- Node3&#45;&gt;Node4 -->
<g id="edge3" class="edge"><title>Node3&#45;&gt;Node4</title>
<path fill="none" stroke="midnightblue" d="M1070.69,-313.621C1140.8,-304.417 1249.68,-279.487 1314,-212 1325.78,-199.644 1330.31,-180.396 1332.02,-166.048"/>
<polygon fill="midnightblue" stroke="midnightblue" points="1335.53,-166.074 1332.88,-155.817 1328.56,-165.49 1335.53,-166.074"/>
</g>
<!-- Node5 -->
<g id="node5" class="node"><title>Node5</title>
<polygon fill="none" stroke="#bfbfbf" points="461,-6.5 461,-25.5 499,-25.5 499,-6.5 461,-6.5"/>
<text text-anchor="middle" x="480" y="-13.5" font-family="Helvetica,sans-Serif" font-size="10.00">array</text>
</g>
<!-- Node3&#45;&gt;Node5 -->
<g id="edge4" class="edge"><title>Node3&#45;&gt;Node5</title>
<path fill="none" stroke="midnightblue" d="M1006.38,-310.146C1013.73,-280.582 1032.77,-184.405 984,-136 927.878,-80.2977 702.607,-131.316 630,-100 610.036,-91.3894 611.322,-79.7051 593,-68 566.02,-50.7632 532.242,-36.3386 508.675,-27.2777"/>
<polygon fill="midnightblue" stroke="midnightblue" points="509.842,-23.9771 499.25,-23.7302 507.376,-30.5285 509.842,-23.9771"/>
</g>
<!-- Node6 -->
<g id="node6" class="node"><title>Node6</title>
<polygon fill="none" stroke="#bfbfbf" points="1417.5,-192.5 1417.5,-211.5 1458.5,-211.5 1458.5,-192.5 1417.5,-192.5"/>
<text text-anchor="middle" x="1438" y="-199.5" font-family="Helvetica,sans-Serif" font-size="10.00">string</text>
</g>
<!-- Node3&#45;&gt;Node6 -->
<g id="edge5" class="edge"><title>Node3&#45;&gt;Node6</title>
<path fill="none" stroke="midnightblue" d="M1070.62,-316.523C1166.68,-311.905 1338.33,-299.421 1391,-268 1409.07,-257.218 1422.19,-236.514 1429.9,-221.36"/>
<polygon fill="midnightblue" stroke="midnightblue" points="1433.24,-222.48 1434.37,-211.945 1426.92,-219.478 1433.24,-222.48"/>
</g>
<!-- Node7 -->
<g id="node7" class="node"><title>Node7</title>
<polygon fill="none" stroke="#bfbfbf" points="508,-74.5 508,-93.5 584,-93.5 584,-74.5 508,-74.5"/>
<text text-anchor="middle" x="546" y="-81.5" font-family="Helvetica,sans-Serif" font-size="10.00">TGeoMatrix.h</text>
</g>
<!-- Node3&#45;&gt;Node7 -->
<g id="edge6" class="edge"><title>Node3&#45;&gt;Node7</title>
<path fill="none" stroke="midnightblue" d="M963.054,-310.497C951.722,-308.259 939.404,-305.932 928,-304 815.585,-284.954 786.137,-288.623 674,-268 452.585,-227.281 320.492,-331.91 180,-156 174.453,-149.054 174.078,-142.628 180,-136 227.532,-82.8025 429.238,-114.917 499,-100 503.455,-99.0474 508.087,-97.8432 512.632,-96.533"/>
<polygon fill="midnightblue" stroke="midnightblue" points="513.804,-99.8344 522.335,-93.552 511.748,-93.1431 513.804,-99.8344"/>
</g>
<!-- Node8 -->
<g id="node8" class="node"><title>Node8</title>
<polygon fill="none" stroke="#bfbfbf" points="189.5,-136.5 189.5,-155.5 248.5,-155.5 248.5,-136.5 189.5,-136.5"/>
<text text-anchor="middle" x="219" y="-143.5" font-family="Helvetica,sans-Serif" font-size="10.00">TObject.h</text>
</g>
<!-- Node3&#45;&gt;Node8 -->
<g id="edge7" class="edge"><title>Node3&#45;&gt;Node8</title>
<path fill="none" stroke="midnightblue" d="M963.934,-310.418C853.456,-286.717 534.947,-218.139 258.614,-156.119"/>
<polygon fill="midnightblue" stroke="midnightblue" points="259.326,-152.691 248.802,-153.915 257.792,-159.521 259.326,-152.691"/>
</g>
<!-- Node9 -->
<g id="node9" class="node"><title>Node9</title>
<g id="a_node9"><a xlink:href="../../d6/d31/DetID_8h.html" target="_top" xlink:title="DetectorsBase/DetID.h">
<polygon fill="none" stroke="black" points="767.5,-136.5 767.5,-155.5 886.5,-155.5 886.5,-136.5 767.5,-136.5"/>
<text text-anchor="middle" x="827" y="-143.5" font-family="Helvetica,sans-Serif" font-size="10.00">DetectorsBase/DetID.h</text>
</a>
</g>
</g>
<!-- Node3&#45;&gt;Node9 -->
<g id="edge8" class="edge"><title>Node3&#45;&gt;Node9</title>
<path fill="none" stroke="midnightblue" d="M994.979,-310.234C966.686,-282.74 879.419,-197.939 843.109,-162.654"/>
<polygon fill="midnightblue" stroke="midnightblue" points="845.403,-160.003 835.793,-155.544 840.525,-165.023 845.403,-160.003"/>
</g>
<!-- Node10 -->
<g id="node10" class="node"><title>Node10</title>
<polygon fill="none" stroke="#bfbfbf" points="1776,-74.5 1776,-93.5 1832,-93.5 1832,-74.5 1776,-74.5"/>
<text text-anchor="middle" x="1804" y="-81.5" font-family="Helvetica,sans-Serif" font-size="10.00">Rtypes.h</text>
</g>
<!-- Node3&#45;&gt;Node10 -->
<g id="edge51" class="edge"><title>Node3&#45;&gt;Node10</title>
<path fill="none" stroke="midnightblue" d="M1070.58,-311.459C1124.18,-304.097 1200.89,-290.627 1265,-268 1333.24,-243.915 1341.49,-218.073 1409,-192 1562.25,-132.811 1610.97,-151.42 1767,-100 1769.57,-99.1546 1772.21,-98.2189 1774.84,-97.2402"/>
<polygon fill="midnightblue" stroke="midnightblue" points="1776.16,-100.482 1784.21,-93.5906 1773.62,-93.9592 1776.16,-100.482"/>
</g>
<!-- Node15 -->
<g id="node15" class="node"><title>Node15</title>
<g id="a_node15"><a xlink:href="../../d9/ded/Utils_8h.html" target="_top" xlink:title="DetectorsBase/Utils.h">
<polygon fill="none" stroke="black" points="66.5,-74.5 66.5,-93.5 179.5,-93.5 179.5,-74.5 66.5,-74.5"/>
<text text-anchor="middle" x="123" y="-81.5" font-family="Helvetica,sans-Serif" font-size="10.00">DetectorsBase/Utils.h</text>
</a>
</g>
</g>
<!-- Node3&#45;&gt;Node15 -->
<g id="edge19" class="edge"><title>Node3&#45;&gt;Node15</title>
<path fill="none" stroke="midnightblue" d="M966.283,-310.491C954.12,-308.033 940.542,-305.589 928,-304 789.104,-286.403 432.465,-310.295 299,-268 254.09,-253.768 242.95,-244.663 209,-212 174.272,-178.589 145.666,-128.947 131.881,-102.72"/>
<polygon fill="midnightblue" stroke="midnightblue" points="134.881,-100.9 127.196,-93.6067 128.655,-104.101 134.881,-100.9"/>
</g>
<!-- Node18 -->
<g id="node18" class="node"><title>Node18</title>
<g id="a_node18"><a xlink:href="../../db/dcc/Detectors_2Base_2include_2DetectorsBase_2GeometryManager_8h.html" target="_top" xlink:title="DetectorsBase/GeometryManager.h">
<polygon fill="none" stroke="black" points="569.5,-192.5 569.5,-211.5 742.5,-211.5 742.5,-192.5 569.5,-192.5"/>
<text text-anchor="middle" x="656" y="-199.5" font-family="Helvetica,sans-Serif" font-size="10.00">DetectorsBase/GeometryManager.h</text>
</a>
</g>
</g>
<!-- Node3&#45;&gt;Node18 -->
<g id="edge20" class="edge"><title>Node3&#45;&gt;Node18</title>
<path fill="none" stroke="midnightblue" d="M978.411,-310.47C917.072,-290.024 761.548,-238.183 691.344,-214.781"/>
<polygon fill="midnightblue" stroke="midnightblue" points="692.22,-211.384 681.627,-211.542 690.007,-218.025 692.22,-211.384"/>
</g>
<!-- Node35 -->
<g id="node35" class="node"><title>Node35</title>
<g id="a_node35"><a xlink:href="../../d0/d2d/common_2base_2include_2ITSMFTBase_2GeometryTGeo_8h.html" target="_top" xlink:title="ITSMFTBase/GeometryTGeo.h">
<polygon fill="none" stroke="black" points="1443.5,-248.5 1443.5,-267.5 1596.5,-267.5 1596.5,-248.5 1443.5,-248.5"/>
<text text-anchor="middle" x="1520" y="-255.5" font-family="Helvetica,sans-Serif" font-size="10.00">ITSMFTBase/GeometryTGeo.h</text>
</a>
</g>
</g>
<!-- Node3&#45;&gt;Node35 -->
<g id="edge41" class="edge"><title>Node3&#45;&gt;Node35</title>
<path fill="none" stroke="midnightblue" d="M1070.67,-311.248C1164.4,-300.349 1335.05,-280.506 1436.92,-268.66"/>
<polygon fill="midnightblue" stroke="midnightblue" points="1437.34,-272.136 1446.87,-267.504 1436.53,-265.182 1437.34,-272.136"/>
</g>
<!-- Node9&#45;&gt;Node5 -->
<g id="edge10" class="edge"><title>Node9&#45;&gt;Node5</title>
<path fill="none" stroke="midnightblue" d="M767.178,-137.056C764.075,-136.688 761.002,-136.334 758,-136 714.639,-131.178 396.402,-132.233 367,-100 336.779,-66.8684 408.577,-38.4377 451.21,-25.1007"/>
<polygon fill="midnightblue" stroke="midnightblue" points="452.275,-28.4351 460.833,-22.1894 450.248,-21.735 452.275,-28.4351"/>
</g>
<!-- Node9&#45;&gt;Node10 -->
<g id="edge9" class="edge"><title>Node9&#45;&gt;Node10</title>
<path fill="none" stroke="midnightblue" d="M886.671,-136.792C889.484,-136.503 892.271,-136.236 895,-136 1088.22,-119.259 1577.45,-141.038 1767,-100 1770.25,-99.296 1773.58,-98.3287 1776.85,-97.2215"/>
<polygon fill="midnightblue" stroke="midnightblue" points="1778.23,-100.441 1786.33,-93.6039 1775.74,-93.9015 1778.23,-100.441"/>
</g>
<!-- Node11 -->
<g id="node11" class="node"><title>Node11</title>
<polygon fill="none" stroke="#bfbfbf" points="278.5,-74.5 278.5,-93.5 319.5,-93.5 319.5,-74.5 278.5,-74.5"/>
<text text-anchor="middle" x="299" y="-81.5" font-family="Helvetica,sans-Serif" font-size="10.00">bitset</text>
</g>
<!-- Node9&#45;&gt;Node11 -->
<g id="edge11" class="edge"><title>Node9&#45;&gt;Node11</title>
<path fill="none" stroke="midnightblue" d="M767.18,-137.03C764.077,-136.669 761.003,-136.323 758,-136 569.963,-115.764 517.484,-145.836 334,-100 331.174,-99.294 328.284,-98.3867 325.435,-97.3682"/>
<polygon fill="midnightblue" stroke="midnightblue" points="326.65,-94.0843 316.066,-93.6087 324.043,-100.581 326.65,-94.0843"/>
</g>
<!-- Node12 -->
<g id="node12" class="node"><title>Node12</title>
<polygon fill="none" stroke="#bfbfbf" points="376.5,-74.5 376.5,-93.5 425.5,-93.5 425.5,-74.5 376.5,-74.5"/>
<text text-anchor="middle" x="401" y="-81.5" font-family="Helvetica,sans-Serif" font-size="10.00">cassert</text>
</g>
<!-- Node9&#45;&gt;Node12 -->
<g id="edge12" class="edge"><title>Node9&#45;&gt;Node12</title>
<path fill="none" stroke="midnightblue" d="M767.169,-137.126C764.069,-136.74 760.998,-136.363 758,-136 614.6,-118.658 574.468,-137.587 435,-100 432.347,-99.2849 429.635,-98.3926 426.958,-97.4017"/>
<polygon fill="midnightblue" stroke="midnightblue" points="428.158,-94.1105 417.579,-93.5221 425.482,-100.579 428.158,-94.1105"/>
</g>
<!-- Node13 -->
<g id="node13" class="node"><title>Node13</title>
<polygon fill="none" stroke="#bfbfbf" points="444,-74.5 444,-93.5 490,-93.5 490,-74.5 444,-74.5"/>
<text text-anchor="middle" x="467" y="-81.5" font-family="Helvetica,sans-Serif" font-size="10.00">cstdint</text>
</g>
<!-- Node9&#45;&gt;Node13 -->
<g id="edge13" class="edge"><title>Node9&#45;&gt;Node13</title>
<path fill="none" stroke="midnightblue" d="M767.153,-137.021C674.283,-124.606 505.382,-101.886 499,-100 496.716,-99.3251 494.389,-98.5101 492.085,-97.6129"/>
<polygon fill="midnightblue" stroke="midnightblue" points="493.473,-94.3997 482.907,-93.611 490.675,-100.816 493.473,-94.3997"/>
</g>
<!-- Node14 -->
<g id="node14" class="node"><title>Node14</title>
<polygon fill="none" stroke="#bfbfbf" points="198,-74.5 198,-93.5 260,-93.5 260,-74.5 198,-74.5"/>
<text text-anchor="middle" x="229" y="-81.5" font-family="Helvetica,sans-Serif" font-size="10.00">type_traits</text>
</g>
<!-- Node9&#45;&gt;Node14 -->
<g id="edge14" class="edge"><title>Node9&#45;&gt;Node14</title>
<path fill="none" stroke="midnightblue" d="M767.185,-136.989C764.08,-136.639 761.005,-136.306 758,-136 541.202,-113.898 481.852,-146.733 269,-100 265.489,-99.2291 261.873,-98.2124 258.319,-97.0707"/>
<polygon fill="midnightblue" stroke="midnightblue" points="259.195,-93.6679 248.601,-93.6219 256.854,-100.265 259.195,-93.6679"/>
</g>
<!-- Node9&#45;&gt;Node15 -->
<g id="edge15" class="edge"><title>Node9&#45;&gt;Node15</title>
<path fill="none" stroke="midnightblue" d="M767.189,-136.951C764.083,-136.611 761.006,-136.291 758,-136 505.783,-111.6 439.796,-136.195 189,-100 181.399,-98.903 173.377,-97.3884 165.644,-95.7409"/>
<polygon fill="midnightblue" stroke="midnightblue" points="166.228,-92.2852 155.706,-93.5226 164.703,-99.117 166.228,-92.2852"/>
</g>
<!-- Node15&#45;&gt;Node5 -->
<g id="edge18" class="edge"><title>Node15&#45;&gt;Node5</title>
<path fill="none" stroke="midnightblue" d="M158.897,-74.4991C168.643,-72.2848 179.208,-69.9695 189,-68 284.497,-48.7923 398.457,-30.0153 450.928,-21.601"/>
<polygon fill="midnightblue" stroke="midnightblue" points="451.549,-25.0464 460.872,-20.0128 450.445,-18.134 451.549,-25.0464"/>
</g>
<!-- Node16 -->
<g id="node16" class="node"><title>Node16</title>
<g id="a_node16"><a xlink:href="../../d1/daa/Base_2include_2DetectorsBase_2Constants_8h.html" target="_top" xlink:title="DetectorsBase/Constants.h">
<polygon fill="none" stroke="black" points="0,-6.5 0,-25.5 138,-25.5 138,-6.5 0,-6.5"/>
<text text-anchor="middle" x="69" y="-13.5" font-family="Helvetica,sans-Serif" font-size="10.00">DetectorsBase/Constants.h</text>
</a>
</g>
</g>
<!-- Node15&#45;&gt;Node16 -->
<g id="edge16" class="edge"><title>Node15&#45;&gt;Node16</title>
<path fill="none" stroke="midnightblue" d="M115.94,-74.3717C107.498,-64.053 93.1783,-46.5513 82.5699,-33.5854"/>
<polygon fill="midnightblue" stroke="midnightblue" points="85.2749,-31.3644 76.2336,-25.8411 79.8572,-35.7971 85.2749,-31.3644"/>
</g>
<!-- Node17 -->
<g id="node17" class="node"><title>Node17</title>
<polygon fill="none" stroke="#bfbfbf" points="156,-6.5 156,-25.5 200,-25.5 200,-6.5 156,-6.5"/>
<text text-anchor="middle" x="178" y="-13.5" font-family="Helvetica,sans-Serif" font-size="10.00">cmath</text>
</g>
<!-- Node15&#45;&gt;Node17 -->
<g id="edge17" class="edge"><title>Node15&#45;&gt;Node17</title>
<path fill="none" stroke="midnightblue" d="M130.19,-74.3717C138.789,-64.053 153.374,-46.5513 164.179,-33.5854"/>
<polygon fill="midnightblue" stroke="midnightblue" points="166.919,-35.764 170.632,-25.8411 161.542,-31.2827 166.919,-35.764"/>
</g>
<!-- Node18&#45;&gt;Node8 -->
<g id="edge26" class="edge"><title>Node18&#45;&gt;Node8</title>
<path fill="none" stroke="midnightblue" d="M569.421,-194.082C490.818,-187.143 371.564,-174.975 258.6,-155.916"/>
<polygon fill="midnightblue" stroke="midnightblue" points="259.186,-152.465 248.74,-154.231 258.008,-159.365 259.186,-152.465"/>
</g>
<!-- Node18&#45;&gt;Node9 -->
<g id="edge27" class="edge"><title>Node18&#45;&gt;Node9</title>
<path fill="none" stroke="midnightblue" d="M683.095,-192.444C711.988,-183.32 757.925,-168.813 790.105,-158.651"/>
<polygon fill="midnightblue" stroke="midnightblue" points="791.549,-161.865 800.031,-155.516 789.441,-155.19 791.549,-161.865"/>
</g>
<!-- Node19 -->
<g id="node19" class="node"><title>Node19</title>
<polygon fill="none" stroke="#bfbfbf" points="562,-136.5 562,-155.5 648,-155.5 648,-136.5 562,-136.5"/>
<text text-anchor="middle" x="605" y="-143.5" font-family="Helvetica,sans-Serif" font-size="10.00">TGeoManager.h</text>
</g>
<!-- Node18&#45;&gt;Node19 -->
<g id="edge21" class="edge"><title>Node18&#45;&gt;Node19</title>
<path fill="none" stroke="midnightblue" d="M647.578,-192.083C640.152,-184.22 629.148,-172.569 620.188,-163.081"/>
<polygon fill="midnightblue" stroke="midnightblue" points="622.676,-160.618 613.265,-155.751 617.587,-165.424 622.676,-160.618"/>
</g>
<!-- Node20 -->
<g id="node20" class="node"><title>Node20</title>
<polygon fill="none" stroke="#bfbfbf" points="666.5,-136.5 666.5,-155.5 749.5,-155.5 749.5,-136.5 666.5,-136.5"/>
<text text-anchor="middle" x="708" y="-143.5" font-family="Helvetica,sans-Serif" font-size="10.00">TGeoMaterial.h</text>
</g>
<!-- Node18&#45;&gt;Node20 -->
<g id="edge22" class="edge"><title>Node18&#45;&gt;Node20</title>
<path fill="none" stroke="midnightblue" d="M664.587,-192.083C672.159,-184.22 683.378,-172.569 692.514,-163.081"/>
<polygon fill="midnightblue" stroke="midnightblue" points="695.158,-165.382 699.573,-155.751 690.115,-160.527 695.158,-165.382"/>
</g>
<!-- Node21 -->
<g id="node21" class="node"><title>Node21</title>
<polygon fill="none" stroke="#bfbfbf" points="267,-136.5 267,-155.5 377,-155.5 377,-136.5 267,-136.5"/>
<text text-anchor="middle" x="322" y="-143.5" font-family="Helvetica,sans-Serif" font-size="10.00">TGeoPhysicalNode.h</text>
</g>
<!-- Node18&#45;&gt;Node21 -->
<g id="edge23" class="edge"><title>Node18&#45;&gt;Node21</title>
<path fill="none" stroke="midnightblue" d="M603.077,-192.444C543.834,-182.865 447.903,-167.356 384.883,-157.167"/>
<polygon fill="midnightblue" stroke="midnightblue" points="385.106,-153.657 374.676,-155.516 383.989,-160.568 385.106,-153.657"/>
</g>
<!-- Node22 -->
<g id="node22" class="node"><title>Node22</title>
<polygon fill="none" stroke="#bfbfbf" points="395.5,-136.5 395.5,-155.5 472.5,-155.5 472.5,-136.5 395.5,-136.5"/>
<text text-anchor="middle" x="434" y="-143.5" font-family="Helvetica,sans-Serif" font-size="10.00">TGeoShape.h</text>
</g>
<!-- Node18&#45;&gt;Node22 -->
<g id="edge24" class="edge"><title>Node18&#45;&gt;Node22</title>
<path fill="none" stroke="midnightblue" d="M620.823,-192.444C582.421,-183.102 520.824,-168.119 478.945,-157.933"/>
<polygon fill="midnightblue" stroke="midnightblue" points="479.556,-154.479 469.012,-155.516 477.901,-161.281 479.556,-154.479"/>
</g>
<!-- Node23 -->
<g id="node23" class="node"><title>Node23</title>
<polygon fill="none" stroke="#bfbfbf" points="490.5,-136.5 490.5,-155.5 543.5,-155.5 543.5,-136.5 490.5,-136.5"/>
<text text-anchor="middle" x="517" y="-143.5" font-family="Helvetica,sans-Serif" font-size="10.00">TMath.h</text>
</g>
<!-- Node18&#45;&gt;Node23 -->
<g id="edge25" class="edge"><title>Node18&#45;&gt;Node23</title>
<path fill="none" stroke="midnightblue" d="M633.975,-192.444C610.896,-183.478 574.438,-169.314 548.359,-159.183"/>
<polygon fill="midnightblue" stroke="midnightblue" points="549.511,-155.875 538.922,-155.516 546.976,-162.4 549.511,-155.875"/>
</g>
<!-- Node24 -->
<g id="node24" class="node"><title>Node24</title>
<polygon fill="none" stroke="#bfbfbf" points="904.5,-136.5 904.5,-155.5 975.5,-155.5 975.5,-136.5 904.5,-136.5"/>
<text text-anchor="middle" x="940" y="-143.5" font-family="Helvetica,sans-Serif" font-size="10.00">FairLogger.h</text>
</g>
<!-- Node18&#45;&gt;Node24 -->
<g id="edge28" class="edge"><title>Node18&#45;&gt;Node24</title>
<path fill="none" stroke="midnightblue" d="M702.294,-192.444C748.298,-183.905 821.149,-170.287 893.886,-156.199"/>
<polygon fill="midnightblue" stroke="midnightblue" points="894.996,-159.549 904.146,-154.209 893.662,-152.677 894.996,-159.549"/>
</g>
<!-- Node25 -->
<g id="node25" class="node"><title>Node25</title>
<g id="a_node25"><a xlink:href="../../dd/d76/Cartesian3D_8h.html" target="_top" xlink:title="MathUtils/Cartesian3D.h">
<polygon fill="none" stroke="black" points="1091.5,-136.5 1091.5,-155.5 1216.5,-155.5 1216.5,-136.5 1091.5,-136.5"/>
<text text-anchor="middle" x="1154" y="-143.5" font-family="Helvetica,sans-Serif" font-size="10.00">MathUtils/Cartesian3D.h</text>
</a>
</g>
</g>
<!-- Node18&#45;&gt;Node25 -->
<g id="edge29" class="edge"><title>Node18&#45;&gt;Node25</title>
<path fill="none" stroke="midnightblue" d="M734.635,-192.473C829.741,-182.161 988.553,-164.94 1081.04,-154.912"/>
<polygon fill="midnightblue" stroke="midnightblue" points="1081.59,-158.372 1091.15,-153.815 1080.83,-151.413 1081.59,-158.372"/>
</g>
<!-- Node25&#45;&gt;Node7 -->
<g id="edge34" class="edge"><title>Node25&#45;&gt;Node7</title>
<path fill="none" stroke="midnightblue" d="M1091.29,-141.466C992.778,-135.498 795.882,-121.888 630,-100 618.414,-98.4712 605.991,-96.4602 594.348,-94.4093"/>
<polygon fill="midnightblue" stroke="midnightblue" points="594.82,-90.938 584.358,-92.6079 593.578,-97.8269 594.82,-90.938"/>
</g>
<!-- Node25&#45;&gt;Node10 -->
<g id="edge33" class="edge"><title>Node25&#45;&gt;Node10</title>
<path fill="none" stroke="midnightblue" d="M1216.66,-140.028C1233.65,-138.699 1252.03,-137.278 1269,-136 1490.28,-119.343 1550.87,-150.301 1767,-100 1770.07,-99.2846 1773.22,-98.3492 1776.33,-97.2947"/>
<polygon fill="midnightblue" stroke="midnightblue" points="1777.82,-100.47 1785.93,-93.6437 1775.33,-93.9278 1777.82,-100.47"/>
</g>
<!-- Node26 -->
<g id="node26" class="node"><title>Node26</title>
<polygon fill="none" stroke="#bfbfbf" points="639.5,-74.5 639.5,-93.5 788.5,-93.5 788.5,-74.5 639.5,-74.5"/>
<text text-anchor="middle" x="714" y="-81.5" font-family="Helvetica,sans-Serif" font-size="10.00">Math/GenVector/Rotation3D.h</text>
</g>
<!-- Node25&#45;&gt;Node26 -->
<g id="edge30" class="edge"><title>Node25&#45;&gt;Node26</title>
<path fill="none" stroke="midnightblue" d="M1091.49,-138.075C1020.29,-129.961 900.541,-115.626 798,-100 788.652,-98.5756 778.744,-96.9289 769.136,-95.2595"/>
<polygon fill="midnightblue" stroke="midnightblue" points="769.724,-91.8092 759.268,-93.5199 768.509,-98.7029 769.724,-91.8092"/>
</g>
<!-- Node27 -->
<g id="node27" class="node"><title>Node27</title>
<polygon fill="none" stroke="#bfbfbf" points="807,-74.5 807,-93.5 963,-93.5 963,-74.5 807,-74.5"/>
<text text-anchor="middle" x="885" y="-81.5" font-family="Helvetica,sans-Serif" font-size="10.00">Math/GenVector/Transform3D.h</text>
</g>
<!-- Node25&#45;&gt;Node27 -->
<g id="edge31" class="edge"><title>Node25&#45;&gt;Node27</title>
<path fill="none" stroke="midnightblue" d="M1115.74,-136.467C1067.74,-125.76 985.392,-107.392 933.151,-95.74"/>
<polygon fill="midnightblue" stroke="midnightblue" points="933.646,-92.2644 923.124,-93.5034 932.122,-99.0965 933.646,-92.2644"/>
</g>
<!-- Node28 -->
<g id="node28" class="node"><title>Node28</title>
<polygon fill="none" stroke="#bfbfbf" points="981,-74.5 981,-93.5 1141,-93.5 1141,-74.5 981,-74.5"/>
<text text-anchor="middle" x="1061" y="-81.5" font-family="Helvetica,sans-Serif" font-size="10.00">Math/GenVector/Translation3D.h</text>
</g>
<!-- Node25&#45;&gt;Node28 -->
<g id="edge32" class="edge"><title>Node25&#45;&gt;Node28</title>
<path fill="none" stroke="midnightblue" d="M1140.68,-136.403C1125.62,-126.691 1100.88,-110.732 1082.96,-99.1697"/>
<polygon fill="midnightblue" stroke="midnightblue" points="1084.6,-96.0609 1074.3,-93.5806 1080.81,-101.943 1084.6,-96.0609"/>
</g>
<!-- Node29 -->
<g id="node29" class="node"><title>Node29</title>
<polygon fill="none" stroke="#bfbfbf" points="1159.5,-69 1159.5,-99 1310.5,-99 1310.5,-69 1159.5,-69"/>
<text text-anchor="start" x="1167.5" y="-87" font-family="Helvetica,sans-Serif" font-size="10.00">Math/GenVector/Displacement</text>
<text text-anchor="middle" x="1235" y="-76" font-family="Helvetica,sans-Serif" font-size="10.00">Vector3D.h</text>
</g>
<!-- Node25&#45;&gt;Node29 -->
<g id="edge35" class="edge"><title>Node25&#45;&gt;Node29</title>
<path fill="none" stroke="midnightblue" d="M1165.61,-136.403C1176.58,-128.277 1193.45,-115.779 1207.81,-105.142"/>
<polygon fill="midnightblue" stroke="midnightblue" points="1209.96,-107.906 1215.91,-99.1408 1205.79,-102.281 1209.96,-107.906"/>
</g>
<!-- Node30 -->
<g id="node30" class="node"><title>Node30</title>
<polygon fill="none" stroke="#bfbfbf" points="1329,-74.5 1329,-93.5 1505,-93.5 1505,-74.5 1329,-74.5"/>
<text text-anchor="middle" x="1417" y="-81.5" font-family="Helvetica,sans-Serif" font-size="10.00">Math/GenVector/PositionVector3D.h</text>
</g>
<!-- Node25&#45;&gt;Node30 -->
<g id="edge36" class="edge"><title>Node25&#45;&gt;Node30</title>
<path fill="none" stroke="midnightblue" d="M1191.4,-136.467C1238.33,-125.76 1318.85,-107.392 1369.92,-95.74"/>
<polygon fill="midnightblue" stroke="midnightblue" points="1370.76,-99.14 1379.73,-93.5034 1369.2,-92.3154 1370.76,-99.14"/>
</g>
<!-- Node31 -->
<g id="node31" class="node"><title>Node31</title>
<g id="a_node31"><a xlink:href="../../d2/dd0/Cartesian2D_8h.html" target="_top" xlink:title="MathUtils/Cartesian2D.h">
<polygon fill="none" stroke="black" points="1633.5,-74.5 1633.5,-93.5 1758.5,-93.5 1758.5,-74.5 1633.5,-74.5"/>
<text text-anchor="middle" x="1696" y="-81.5" font-family="Helvetica,sans-Serif" font-size="10.00">MathUtils/Cartesian2D.h</text>
</a>
</g>
</g>
<!-- Node25&#45;&gt;Node31 -->
<g id="edge37" class="edge"><title>Node25&#45;&gt;Node31</title>
<path fill="none" stroke="midnightblue" d="M1216.67,-139.101C1300.78,-131.041 1454.8,-115.775 1586,-100 1598.96,-98.4416 1612.77,-96.6577 1626.06,-94.8768"/>
<polygon fill="midnightblue" stroke="midnightblue" points="1626.66,-98.3274 1636.1,-93.5193 1625.72,-91.3905 1626.66,-98.3274"/>
</g>
<!-- Node34 -->
<g id="node34" class="node"><title>Node34</title>
<polygon fill="none" stroke="#bfbfbf" points="1523,-74.5 1523,-93.5 1577,-93.5 1577,-74.5 1523,-74.5"/>
<text text-anchor="middle" x="1550" y="-81.5" font-family="Helvetica,sans-Serif" font-size="10.00">iostream</text>
</g>
<!-- Node25&#45;&gt;Node34 -->
<g id="edge40" class="edge"><title>Node25&#45;&gt;Node34</title>
<path fill="none" stroke="midnightblue" d="M1216.68,-137.572C1315.76,-125.769 1498.87,-103.683 1513,-100 1515.99,-99.2211 1519.06,-98.2588 1522.09,-97.2006"/>
<polygon fill="midnightblue" stroke="midnightblue" points="1523.41,-100.443 1531.5,-93.6007 1520.91,-93.9054 1523.41,-100.443"/>
</g>
<!-- Node32 -->
<g id="node32" class="node"><title>Node32</title>
<polygon fill="none" stroke="#bfbfbf" points="1529.5,-1 1529.5,-31 1680.5,-31 1680.5,-1 1529.5,-1"/>
<text text-anchor="start" x="1537.5" y="-19" font-family="Helvetica,sans-Serif" font-size="10.00">Math/GenVector/Displacement</text>
<text text-anchor="middle" x="1605" y="-8" font-family="Helvetica,sans-Serif" font-size="10.00">Vector2D.h</text>
</g>
<!-- Node31&#45;&gt;Node32 -->
<g id="edge38" class="edge"><title>Node31&#45;&gt;Node32</title>
<path fill="none" stroke="midnightblue" d="M1684.1,-74.3717C1671.22,-65.0286 1650.22,-49.7966 1633.09,-37.375"/>
<polygon fill="midnightblue" stroke="midnightblue" points="1634.7,-34.2194 1624.55,-31.1815 1630.59,-39.8859 1634.7,-34.2194"/>
</g>
<!-- Node33 -->
<g id="node33" class="node"><title>Node33</title>
<polygon fill="none" stroke="#bfbfbf" points="1699,-6.5 1699,-25.5 1875,-25.5 1875,-6.5 1699,-6.5"/>
<text text-anchor="middle" x="1787" y="-13.5" font-family="Helvetica,sans-Serif" font-size="10.00">Math/GenVector/PositionVector2D.h</text>
</g>
<!-- Node31&#45;&gt;Node33 -->
<g id="edge39" class="edge"><title>Node31&#45;&gt;Node33</title>
<path fill="none" stroke="midnightblue" d="M1707.9,-74.3717C1722.88,-63.5015 1748.86,-44.6602 1766.94,-31.5474"/>
<polygon fill="midnightblue" stroke="midnightblue" points="1769.06,-34.3349 1775.1,-25.6305 1764.95,-28.6684 1769.06,-34.3349"/>
</g>
<!-- Node35&#45;&gt;Node6 -->
<g id="edge50" class="edge"><title>Node35&#45;&gt;Node6</title>
<path fill="none" stroke="midnightblue" d="M1506.83,-248.324C1494.15,-239.979 1474.77,-227.212 1459.79,-217.352"/>
<polygon fill="midnightblue" stroke="midnightblue" points="1461.42,-214.231 1451.14,-211.655 1457.57,-220.078 1461.42,-214.231"/>
</g>
<!-- Node36 -->
<g id="node36" class="node"><title>Node36</title>
<g id="a_node36"><a xlink:href="../../d4/d20/DetMatrixCache_8h.html" target="_top" xlink:title="DetectorsBase/DetMatrixCache.h">
<polygon fill="none" stroke="black" points="1141,-192.5 1141,-211.5 1305,-211.5 1305,-192.5 1141,-192.5"/>
<text text-anchor="middle" x="1223" y="-199.5" font-family="Helvetica,sans-Serif" font-size="10.00">DetectorsBase/DetMatrixCache.h</text>
</a>
</g>
</g>
<!-- Node35&#45;&gt;Node36 -->
<g id="edge42" class="edge"><title>Node35&#45;&gt;Node36</title>
<path fill="none" stroke="midnightblue" d="M1472.94,-248.444C1420.59,-238.925 1336.01,-223.547 1279.96,-213.356"/>
<polygon fill="midnightblue" stroke="midnightblue" points="1280.31,-209.862 1269.84,-211.516 1279.05,-216.749 1280.31,-209.862"/>
</g>
<!-- Node37 -->
<g id="node37" class="node"><title>Node37</title>
<polygon fill="none" stroke="#bfbfbf" points="1485.5,-192.5 1485.5,-211.5 1554.5,-211.5 1554.5,-192.5 1485.5,-192.5"/>
<text text-anchor="middle" x="1520" y="-199.5" font-family="Helvetica,sans-Serif" font-size="10.00">TObjArray.h</text>
</g>
<!-- Node35&#45;&gt;Node37 -->
<g id="edge49" class="edge"><title>Node35&#45;&gt;Node37</title>
<path fill="none" stroke="midnightblue" d="M1520,-248.083C1520,-241.006 1520,-230.861 1520,-221.986"/>
<polygon fill="midnightblue" stroke="midnightblue" points="1523.5,-221.751 1520,-211.751 1516.5,-221.751 1523.5,-221.751"/>
</g>
<!-- Node36&#45;&gt;Node4 -->
<g id="edge43" class="edge"><title>Node36&#45;&gt;Node4</title>
<path fill="none" stroke="midnightblue" d="M1240.67,-192.324C1258.39,-183.625 1285.9,-170.12 1306.29,-160.113"/>
<polygon fill="midnightblue" stroke="midnightblue" points="1307.94,-163.203 1315.37,-155.655 1304.85,-156.919 1307.94,-163.203"/>
</g>
<!-- Node36&#45;&gt;Node5 -->
<g id="edge44" class="edge"><title>Node36&#45;&gt;Node5</title>
<path fill="none" stroke="midnightblue" d="M1225.64,-192.497C1230.6,-178.13 1242.74,-149.317 1264,-136 1387.95,-58.342 1687.02,-173.782 1586,-68 1547.74,-27.937 681.326,-18.6703 509.473,-17.224"/>
<polygon fill="midnightblue" stroke="midnightblue" points="509.417,-13.7235 499.389,-17.1415 509.36,-20.7233 509.417,-13.7235"/>
</g>
<!-- Node36&#45;&gt;Node9 -->
<g id="edge46" class="edge"><title>Node36&#45;&gt;Node9</title>
<path fill="none" stroke="midnightblue" d="M1160.25,-192.444C1088.5,-182.659 971.342,-166.683 896.771,-156.514"/>
<polygon fill="midnightblue" stroke="midnightblue" points="896.922,-153.002 886.54,-155.119 895.976,-159.938 896.922,-153.002"/>
</g>
<!-- Node36&#45;&gt;Node10 -->
<g id="edge47" class="edge"><title>Node36&#45;&gt;Node10</title>
<path fill="none" stroke="midnightblue" d="M1230.2,-192.318C1242.94,-177.682 1271.03,-148.474 1302,-136 1494.28,-58.561 1565.23,-147.501 1767,-100 1770.07,-99.2768 1773.22,-98.3363 1776.32,-97.2788"/>
<polygon fill="midnightblue" stroke="midnightblue" points="1777.82,-100.454 1785.92,-93.6243 1775.33,-93.9121 1777.82,-100.454"/>
</g>
<!-- Node36&#45;&gt;Node24 -->
<g id="edge48" class="edge"><title>Node36&#45;&gt;Node24</title>
<path fill="none" stroke="midnightblue" d="M1178.16,-192.444C1125.56,-182.407 1038.82,-165.856 985.805,-155.74"/>
<polygon fill="midnightblue" stroke="midnightblue" points="986.151,-152.243 975.672,-153.807 984.839,-159.119 986.151,-152.243"/>
</g>
<!-- Node36&#45;&gt;Node25 -->
<g id="edge45" class="edge"><title>Node36&#45;&gt;Node25</title>
<path fill="none" stroke="midnightblue" d="M1211.91,-192.324C1201.51,-184.185 1185.74,-171.839 1173.28,-162.087"/>
<polygon fill="midnightblue" stroke="midnightblue" points="1175.32,-159.241 1165.29,-155.834 1171.01,-164.753 1175.32,-159.241"/>
</g>
<!-- Node38&#45;&gt;Node10 -->
<g id="edge53" class="edge"><title>Node38&#45;&gt;Node10</title>
<path fill="none" stroke="midnightblue" d="M1546.55,-304.913C1563.77,-295.333 1586.39,-281.911 1605,-268 1678.81,-212.814 1756.47,-134.622 1788.65,-101.184"/>
<polygon fill="midnightblue" stroke="midnightblue" points="1791.44,-103.333 1795.82,-93.688 1786.38,-98.4945 1791.44,-103.333"/>
</g>
<!-- Node38&#45;&gt;Node35 -->
<g id="edge54" class="edge"><title>Node38&#45;&gt;Node35</title>
<path fill="none" stroke="midnightblue" d="M1520,-304.781C1520,-296.781 1520,-286.689 1520,-278.017"/>
<polygon fill="midnightblue" stroke="midnightblue" points="1523.5,-277.73 1520,-267.731 1516.5,-277.731 1523.5,-277.73"/>
</g>
</g>
</svg>
