<?xml version="1.0" encoding="UTF-8" standalone="no"?>
<!DOCTYPE svg PUBLIC "-//W3C//DTD SVG 1.1//EN"
 "http://www.w3.org/Graphics/SVG/1.1/DTD/svg11.dtd">
<!-- Generated by graphviz version 2.36.0 (20140111.2315)
 -->
<!-- Title: /home/travis/build/AliceO2Group/AliceO2/Detectors/ITSMFT/MFT/reconstruction/src/devices/Merger.cxx Pages: 1 -->
<svg width="1007pt" height="208pt"
 viewBox="0.00 0.00 1007.00 208.00" xmlns="http://www.w3.org/2000/svg" xmlns:xlink="http://www.w3.org/1999/xlink">
<g id="graph0" class="graph" transform="scale(1 1) rotate(0) translate(4 204)">
<title>/home/travis/build/AliceO2Group/AliceO2/Detectors/ITSMFT/MFT/reconstruction/src/devices/Merger.cxx</title>
<!-- Node1 -->
<g id="node1" class="node"><title>Node1</title>
<polygon fill="#bfbfbf" stroke="black" points="229,-136.5 229,-199.5 363,-199.5 363,-136.5 229,-136.5"/>
<text text-anchor="start" x="237" y="-187.5" font-family="Helvetica,sans-Serif" font-size="10.00">/home/travis/build</text>
<text text-anchor="start" x="237" y="-176.5" font-family="Helvetica,sans-Serif" font-size="10.00">/AliceO2Group/AliceO2</text>
<text text-anchor="start" x="237" y="-165.5" font-family="Helvetica,sans-Serif" font-size="10.00">/Detectors/ITSMFT/MFT</text>
<text text-anchor="start" x="237" y="-154.5" font-family="Helvetica,sans-Serif" font-size="10.00">/reconstruction/src/devices</text>
<text text-anchor="middle" x="296" y="-143.5" font-family="Helvetica,sans-Serif" font-size="10.00">/Merger.cxx</text>
</g>
<!-- Node2 -->
<g id="node2" class="node"><title>Node2</title>
<polygon fill="none" stroke="#bfbfbf" points="-0.5,-74.5 -0.5,-93.5 88.5,-93.5 88.5,-74.5 -0.5,-74.5"/>
<text text-anchor="middle" x="44" y="-81.5" font-family="Helvetica,sans-Serif" font-size="10.00">boost/thread.hpp</text>
</g>
<!-- Node1&#45;&gt;Node2 -->
<g id="edge1" class="edge"><title>Node1&#45;&gt;Node2</title>
<path fill="none" stroke="midnightblue" d="M228.8,-145.133C181.018,-129.585 118.693,-109.305 80.0181,-96.7202"/>
<polygon fill="midnightblue" stroke="midnightblue" points="80.836,-93.3057 70.2437,-93.5396 78.6699,-99.9622 80.836,-93.3057"/>
</g>
<!-- Node3 -->
<g id="node3" class="node"><title>Node3</title>
<polygon fill="none" stroke="#bfbfbf" points="107,-74.5 107,-93.5 187,-93.5 187,-74.5 107,-74.5"/>
<text text-anchor="middle" x="147" y="-81.5" font-family="Helvetica,sans-Serif" font-size="10.00">boost/bind.hpp</text>
</g>
<!-- Node1&#45;&gt;Node3 -->
<g id="edge2" class="edge"><title>Node1&#45;&gt;Node3</title>
<path fill="none" stroke="midnightblue" d="M240.518,-136.466C216.735,-123.378 190.182,-108.764 171.464,-98.4634"/>
<polygon fill="midnightblue" stroke="midnightblue" points="173.148,-95.3949 162.699,-93.6398 169.772,-101.528 173.148,-95.3949"/>
</g>
<!-- Node4 -->
<g id="node4" class="node"><title>Node4</title>
<polygon fill="none" stroke="#bfbfbf" points="205,-74.5 205,-93.5 291,-93.5 291,-74.5 205,-74.5"/>
<text text-anchor="middle" x="248" y="-81.5" font-family="Helvetica,sans-Serif" font-size="10.00">FairMQLogger.h</text>
</g>
<!-- Node1&#45;&gt;Node4 -->
<g id="edge3" class="edge"><title>Node1&#45;&gt;Node4</title>
<path fill="none" stroke="midnightblue" d="M278.127,-136.466C271.41,-124.991 264.007,-112.345 258.22,-102.459"/>
<polygon fill="midnightblue" stroke="midnightblue" points="261.13,-100.502 253.057,-93.6398 255.089,-104.038 261.13,-100.502"/>
</g>
<!-- Node5 -->
<g id="node5" class="node"><title>Node5</title>
<polygon fill="none" stroke="#bfbfbf" points="309.5,-74.5 309.5,-93.5 380.5,-93.5 380.5,-74.5 309.5,-74.5"/>
<text text-anchor="middle" x="345" y="-81.5" font-family="Helvetica,sans-Serif" font-size="10.00">TMessage.h</text>
</g>
<!-- Node1&#45;&gt;Node5 -->
<g id="edge4" class="edge"><title>Node1&#45;&gt;Node5</title>
<path fill="none" stroke="midnightblue" d="M314.246,-136.466C321.103,-124.991 328.66,-112.345 334.567,-102.459"/>
<polygon fill="midnightblue" stroke="midnightblue" points="337.712,-104.019 339.837,-93.6398 331.703,-100.429 337.712,-104.019"/>
</g>
<!-- Node6 -->
<g id="node6" class="node"><title>Node6</title>
<g id="a_node6"><a xlink:href="../../d5/d61/EventHeader_8h.html" target="_top" xlink:title="MFTSimulation/EventHeader.h">
<polygon fill="none" stroke="black" points="398.5,-74.5 398.5,-93.5 549.5,-93.5 549.5,-74.5 398.5,-74.5"/>
<text text-anchor="middle" x="474" y="-81.5" font-family="Helvetica,sans-Serif" font-size="10.00">MFTSimulation/EventHeader.h</text>
</a>
</g>
</g>
<!-- Node1&#45;&gt;Node6 -->
<g id="edge5" class="edge"><title>Node1&#45;&gt;Node6</title>
<path fill="none" stroke="midnightblue" d="M362.281,-136.466C391.211,-123.139 423.574,-108.23 445.99,-97.9033"/>
<polygon fill="midnightblue" stroke="midnightblue" points="447.627,-101.003 455.245,-93.6398 444.698,-94.645 447.627,-101.003"/>
</g>
<!-- Node10 -->
<g id="node10" class="node"><title>Node10</title>
<g id="a_node10"><a xlink:href="../../d4/d53/Detectors_2ITSMFT_2MFT_2reconstruction_2include_2MFTReconstruction_2devices_2Merger_8h.html" target="_top" xlink:title="MFTReconstruction/devices\l/Merger.h">
<polygon fill="none" stroke="black" points="655,-69 655,-99 795,-99 795,-69 655,-69"/>
<text text-anchor="start" x="663" y="-87" font-family="Helvetica,sans-Serif" font-size="10.00">MFTReconstruction/devices</text>
<text text-anchor="middle" x="725" y="-76" font-family="Helvetica,sans-Serif" font-size="10.00">/Merger.h</text>
</a>
</g>
</g>
<!-- Node1&#45;&gt;Node10 -->
<g id="edge9" class="edge"><title>Node1&#45;&gt;Node10</title>
<path fill="none" stroke="midnightblue" d="M363.031,-154.188C439.19,-139.63 563.421,-115.885 644.694,-100.35"/>
<polygon fill="midnightblue" stroke="midnightblue" points="645.714,-103.718 654.88,-98.403 644.4,-96.8427 645.714,-103.718"/>
</g>
<!-- Node7 -->
<g id="node7" class="node"><title>Node7</title>
<polygon fill="none" stroke="#bfbfbf" points="482,-6.5 482,-25.5 580,-25.5 580,-6.5 482,-6.5"/>
<text text-anchor="middle" x="531" y="-13.5" font-family="Helvetica,sans-Serif" font-size="10.00">FairEventHeader.h</text>
</g>
<!-- Node6&#45;&gt;Node7 -->
<g id="edge6" class="edge"><title>Node6&#45;&gt;Node7</title>
<path fill="none" stroke="midnightblue" d="M481.452,-74.3717C490.363,-64.053 505.478,-46.5513 516.676,-33.5854"/>
<polygon fill="midnightblue" stroke="midnightblue" points="519.477,-35.6971 523.364,-25.8411 514.179,-31.1217 519.477,-35.6971"/>
</g>
<!-- Node8 -->
<g id="node8" class="node"><title>Node8</title>
<polygon fill="none" stroke="#bfbfbf" points="255.5,-1 255.5,-31 350.5,-31 350.5,-1 255.5,-1"/>
<text text-anchor="start" x="263.5" y="-19" font-family="Helvetica,sans-Serif" font-size="10.00">boost/serialization</text>
<text text-anchor="middle" x="303" y="-8" font-family="Helvetica,sans-Serif" font-size="10.00">/access.hpp</text>
</g>
<!-- Node6&#45;&gt;Node8 -->
<g id="edge7" class="edge"><title>Node6&#45;&gt;Node8</title>
<path fill="none" stroke="midnightblue" d="M451.645,-74.3717C425.69,-64.3539 382.194,-47.5661 348.94,-34.7312"/>
<polygon fill="midnightblue" stroke="midnightblue" points="350.008,-31.3918 339.418,-31.0562 347.487,-37.9223 350.008,-31.3918"/>
</g>
<!-- Node9 -->
<g id="node9" class="node"><title>Node9</title>
<polygon fill="none" stroke="#bfbfbf" points="368.5,-1 368.5,-31 463.5,-31 463.5,-1 368.5,-1"/>
<text text-anchor="start" x="376.5" y="-19" font-family="Helvetica,sans-Serif" font-size="10.00">boost/serialization</text>
<text text-anchor="middle" x="416" y="-8" font-family="Helvetica,sans-Serif" font-size="10.00">/base_object.hpp</text>
</g>
<!-- Node6&#45;&gt;Node9 -->
<g id="edge8" class="edge"><title>Node6&#45;&gt;Node9</title>
<path fill="none" stroke="midnightblue" d="M466.418,-74.3717C458.508,-65.3715 445.797,-50.9067 435.117,-38.7534"/>
<polygon fill="midnightblue" stroke="midnightblue" points="437.693,-36.3827 428.462,-31.1815 432.435,-41.0035 437.693,-36.3827"/>
</g>
<!-- Node10&#45;&gt;Node7 -->
<g id="edge14" class="edge"><title>Node10&#45;&gt;Node7</title>
<path fill="none" stroke="midnightblue" d="M683.382,-68.8413C648.371,-56.9302 598.883,-40.0942 565.909,-28.8762"/>
<polygon fill="midnightblue" stroke="midnightblue" points="566.834,-25.4942 556.24,-25.5868 564.58,-32.1212 566.834,-25.4942"/>
</g>
<!-- Node11 -->
<g id="node11" class="node"><title>Node11</title>
<polygon fill="none" stroke="#bfbfbf" points="598.5,-6.5 598.5,-25.5 683.5,-25.5 683.5,-6.5 598.5,-6.5"/>
<text text-anchor="middle" x="641" y="-13.5" font-family="Helvetica,sans-Serif" font-size="10.00">TClonesArray.h</text>
</g>
<!-- Node10&#45;&gt;Node11 -->
<g id="edge10" class="edge"><title>Node10&#45;&gt;Node11</title>
<path fill="none" stroke="midnightblue" d="M706.773,-68.679C693.027,-57.8787 674.216,-43.0983 660.231,-32.1103"/>
<polygon fill="midnightblue" stroke="midnightblue" points="662.262,-29.2544 652.236,-25.8283 657.937,-34.7587 662.262,-29.2544"/>
</g>
<!-- Node12 -->
<g id="node12" class="node"><title>Node12</title>
<polygon fill="none" stroke="#bfbfbf" points="701.5,-6.5 701.5,-25.5 748.5,-25.5 748.5,-6.5 701.5,-6.5"/>
<text text-anchor="middle" x="725" y="-13.5" font-family="Helvetica,sans-Serif" font-size="10.00">TFile.h</text>
</g>
<!-- Node10&#45;&gt;Node12 -->
<g id="edge11" class="edge"><title>Node10&#45;&gt;Node12</title>
<path fill="none" stroke="midnightblue" d="M725,-68.679C725,-59.1014 725,-46.3938 725,-35.9766"/>
<polygon fill="midnightblue" stroke="midnightblue" points="728.5,-35.8283 725,-25.8283 721.5,-35.8283 728.5,-35.8283"/>
</g>
<!-- Node13 -->
<g id="node13" class="node"><title>Node13</title>
<polygon fill="none" stroke="#bfbfbf" points="767,-6.5 767,-25.5 825,-25.5 825,-6.5 767,-6.5"/>
<text text-anchor="middle" x="796" y="-13.5" font-family="Helvetica,sans-Serif" font-size="10.00">TFolder.h</text>
</g>
<!-- Node10&#45;&gt;Node13 -->
<g id="edge12" class="edge"><title>Node10&#45;&gt;Node13</title>
<path fill="none" stroke="midnightblue" d="M740.406,-68.679C751.805,-58.0825 767.326,-43.6546 779.072,-32.7362"/>
<polygon fill="midnightblue" stroke="midnightblue" points="781.562,-35.2003 786.503,-25.8283 776.796,-30.0733 781.562,-35.2003"/>
</g>
<!-- Node14 -->
<g id="node14" class="node"><title>Node14</title>
<polygon fill="none" stroke="#bfbfbf" points="843,-6.5 843,-25.5 893,-25.5 893,-6.5 843,-6.5"/>
<text text-anchor="middle" x="868" y="-13.5" font-family="Helvetica,sans-Serif" font-size="10.00">TTree.h</text>
</g>
<!-- Node10&#45;&gt;Node14 -->
<g id="edge13" class="edge"><title>Node10&#45;&gt;Node14</title>
<path fill="none" stroke="midnightblue" d="M755.677,-68.8413C780.634,-57.3229 815.569,-41.1989 839.825,-30.0036"/>
<polygon fill="midnightblue" stroke="midnightblue" points="841.576,-33.0504 849.189,-25.6819 838.643,-26.6947 841.576,-33.0504"/>
</g>
<!-- Node15 -->
<g id="node15" class="node"><title>Node15</title>
<polygon fill="none" stroke="#bfbfbf" points="911,-6.5 911,-25.5 999,-25.5 999,-6.5 911,-6.5"/>
<text text-anchor="middle" x="955" y="-13.5" font-family="Helvetica,sans-Serif" font-size="10.00">FairMQDevice.h</text>
</g>
<!-- Node10&#45;&gt;Node15 -->
<g id="edge15" class="edge"><title>Node10&#45;&gt;Node15</title>
<path fill="none" stroke="midnightblue" d="M774.059,-68.9223C816.294,-56.8026 876.452,-39.5398 915.608,-28.3037"/>
<polygon fill="midnightblue" stroke="midnightblue" points="916.684,-31.6363 925.331,-25.5138 914.753,-24.9079 916.684,-31.6363"/>
</g>
</g>
</svg>
