<?xml version="1.0" encoding="UTF-8" standalone="no"?>
<!DOCTYPE svg PUBLIC "-//W3C//DTD SVG 1.1//EN"
 "http://www.w3.org/Graphics/SVG/1.1/DTD/svg11.dtd">
<!-- Generated by graphviz version 2.36.0 (20140111.2315)
 -->
<!-- Title: o2::eventgen::GeneratorFromFile Pages: 1 -->
<svg width="168pt" height="194pt"
 viewBox="0.00 0.00 168.00 194.00" xmlns="http://www.w3.org/2000/svg" xmlns:xlink="http://www.w3.org/1999/xlink">
<g id="graph0" class="graph" transform="scale(1 1) rotate(0) translate(4 190)">
<title>o2::eventgen::GeneratorFromFile</title>
<!-- Node1 -->
<g id="node1" class="node"><title>Node1</title>
<polygon fill="#bfbfbf" stroke="black" points="0,-1 0,-91 160,-91 160,-1 0,-1"/>
<text text-anchor="middle" x="80" y="-79" font-family="Helvetica,sans-Serif" font-size="10.00">o2::eventgen::GeneratorFromFile</text>
<polyline fill="none" stroke="black" points="0,-72 160,-72 "/>
<text text-anchor="middle" x="80" y="-60" font-family="Helvetica,sans-Serif" font-size="10.00"> </text>
<polyline fill="none" stroke="black" points="0,-53 160,-53 "/>
<text text-anchor="start" x="8" y="-41" font-family="Helvetica,sans-Serif" font-size="10.00">+ GeneratorFromFile()</text>
<text text-anchor="start" x="8" y="-30" font-family="Helvetica,sans-Serif" font-size="10.00">+ GeneratorFromFile()</text>
<text text-anchor="start" x="8" y="-19" font-family="Helvetica,sans-Serif" font-size="10.00">+ ReadEvent()</text>
<text text-anchor="start" x="8" y="-8" font-family="Helvetica,sans-Serif" font-size="10.00">+ SetStartEvent()</text>
</g>
<!-- Node2 -->
<g id="node2" class="node"><title>Node2</title>
<g id="a_node2"><a xlink:href="../../df/d40/classFairGenerator.html" target="_top" xlink:title="{FairGenerator\n||}">
<polygon fill="none" stroke="black" points="42,-128.5 42,-185.5 118,-185.5 118,-128.5 42,-128.5"/>
<text text-anchor="middle" x="80" y="-173.5" font-family="Helvetica,sans-Serif" font-size="10.00">FairGenerator</text>
<polyline fill="none" stroke="black" points="42,-166.5 118,-166.5 "/>
<text text-anchor="middle" x="80" y="-154.5" font-family="Helvetica,sans-Serif" font-size="10.00"> </text>
<polyline fill="none" stroke="black" points="42,-147.5 118,-147.5 "/>
<text text-anchor="middle" x="80" y="-135.5" font-family="Helvetica,sans-Serif" font-size="10.00"> </text>
</a>
</g>
</g>
<!-- Node2&#45;&gt;Node1 -->
<g id="edge1" class="edge"><title>Node2&#45;&gt;Node1</title>
<path fill="none" stroke="midnightblue" d="M80,-118.484C80,-109.643 80,-100.139 80,-91.0399"/>
<polygon fill="none" stroke="midnightblue" points="76.5001,-118.495 80,-128.495 83.5001,-118.495 76.5001,-118.495"/>
</g>
</g>
</svg>
