<?xml version="1.0" encoding="UTF-8" standalone="no"?>
<!DOCTYPE svg PUBLIC "-//W3C//DTD SVG 1.1//EN"
 "http://www.w3.org/Graphics/SVG/1.1/DTD/svg11.dtd">
<!-- Generated by graphviz version 2.36.0 (20140111.2315)
 -->
<!-- Title: /home/travis/build/AliceO2Group/AliceO2/Detectors/ITSMFT/ITS/reconstruction/src/TrivialClusterer.cxx Pages: 1 -->
<!--zoomable 446 -->
<svg id="main" version="1.1" xmlns="http://www.w3.org/2000/svg" xmlns:xlink="http://www.w3.org/1999/xlink" xml:space="preserve" onload="init(evt)">
<style type="text/css"><![CDATA[
.edge:hover path { stroke: red; }
.edge:hover polygon { stroke: red; fill: red; }
]]></style>
<script type="text/javascript"><![CDATA[
var edges = document.getElementsByTagName('g');
if (edges && edges.length) {
  for (var i=0;i<edges.length;i++) {
    if (edges[i].id.substr(0,4)=='edge') {
      edges[i].setAttribute('class','edge');
    }
  }
}
]]></script>
        <defs>
                <circle id="rim" cx="0" cy="0" r="7"/>
                <circle id="rim2" cx="0" cy="0" r="3.5"/>
                <g id="zoomPlus">
                        <use xlink:href="#rim" fill="#404040">
                                <set attributeName="fill" to="#808080" begin="zoomplus.mouseover" end="zoomplus.mouseout"/>
                        </use>
                        <path d="M-4,0h8M0,-4v8" fill="none" stroke="white" stroke-width="1.5" pointer-events="none"/>
                </g>
                <g id="zoomMin">
                        <use xlink:href="#rim" fill="#404040">
                                <set attributeName="fill" to="#808080" begin="zoomminus.mouseover" end="zoomminus.mouseout"/>
                        </use>
                        <path d="M-4,0h8" fill="none" stroke="white" stroke-width="1.5" pointer-events="none"/>
                </g>
                <g id="dirArrow">
                        <path fill="none" stroke="white" stroke-width="1.5" d="M0,-3.0v7 M-2.5,-0.5L0,-3.0L2.5,-0.5"/>
                </g>
               <g id="resetDef">
                       <use xlink:href="#rim2" fill="#404040">
                               <set attributeName="fill" to="#808080" begin="reset.mouseover" end="reset.mouseout"/>
                       </use>
               </g>
        </defs>

<script type="text/javascript">
var viewWidth = 1863;
var viewHeight = 446;
var sectionId = 'dynsection-0';
</script>
<script xlink:href="../../svgpan.js"/>
<svg id="graph" class="graph">
<g id="viewport">
<title>/home/travis/build/AliceO2Group/AliceO2/Detectors/ITSMFT/ITS/reconstruction/src/TrivialClusterer.cxx</title>
<!-- Node1 -->
<g id="node1" class="node"><title>Node1</title>
<polygon fill="#bfbfbf" stroke="black" points="983.5,-385 983.5,-437 1168.5,-437 1168.5,-385 983.5,-385"/>
<text text-anchor="start" x="991.5" y="-425" font-family="Helvetica,sans-Serif" font-size="10.00">/home/travis/build</text>
<text text-anchor="start" x="991.5" y="-414" font-family="Helvetica,sans-Serif" font-size="10.00">/AliceO2Group/AliceO2</text>
<text text-anchor="start" x="991.5" y="-403" font-family="Helvetica,sans-Serif" font-size="10.00">/Detectors/ITSMFT/ITS</text>
<text text-anchor="middle" x="1076" y="-392" font-family="Helvetica,sans-Serif" font-size="10.00">/reconstruction/src/TrivialClusterer.cxx</text>
</g>
<!-- Node2 -->
<g id="node2" class="node"><title>Node2</title>
<g id="a_node2"><a xlink:href="../../dd/d76/Cartesian3D_8h.html" target="_top" xlink:title="MathUtils/Cartesian3D.h">
<polygon fill="none" stroke="black" points="544.5,-136.5 544.5,-155.5 669.5,-155.5 669.5,-136.5 544.5,-136.5"/>
<text text-anchor="middle" x="607" y="-143.5" font-family="Helvetica,sans-Serif" font-size="10.00">MathUtils/Cartesian3D.h</text>
</a>
</g>
</g>
<!-- Node1&#45;&gt;Node2 -->
<g id="edge1" class="edge"><title>Node1&#45;&gt;Node2</title>
<path fill="none" stroke="midnightblue" d="M983.498,-405.124C879.766,-398.075 719.553,-381.96 670,-348 615.051,-310.342 618.247,-277.659 607,-212 604.377,-196.687 604.575,-179.046 605.319,-166.009"/>
<polygon fill="midnightblue" stroke="midnightblue" points="608.818,-166.14 606.056,-155.912 601.837,-165.63 608.818,-166.14"/>
</g>
<!-- Node14 -->
<g id="node14" class="node"><title>Node14</title>
<g id="a_node14"><a xlink:href="../../d0/d06/ITSMFT_2common_2base_2include_2ITSMFTBase_2Digit_8h.html" target="_top" xlink:title="ITSMFTBase/Digit.h">
<polygon fill="none" stroke="black" points="840.5,-322.5 840.5,-341.5 947.5,-341.5 947.5,-322.5 840.5,-322.5"/>
<text text-anchor="middle" x="894" y="-329.5" font-family="Helvetica,sans-Serif" font-size="10.00">ITSMFTBase/Digit.h</text>
</a>
</g>
</g>
<!-- Node1&#45;&gt;Node14 -->
<g id="edge13" class="edge"><title>Node1&#45;&gt;Node14</title>
<path fill="none" stroke="midnightblue" d="M1016.66,-384.894C985.522,-371.721 948.737,-356.158 923.628,-345.535"/>
<polygon fill="midnightblue" stroke="midnightblue" points="924.86,-342.256 914.286,-341.583 922.132,-348.702 924.86,-342.256"/>
</g>
<!-- Node16 -->
<g id="node16" class="node"><title>Node16</title>
<g id="a_node16"><a xlink:href="../../d7/dcd/MCCompLabel_8h.html" target="_top" xlink:title="SimulationDataFormat\l/MCCompLabel.h">
<polygon fill="none" stroke="black" points="1150,-249 1150,-279 1264,-279 1264,-249 1150,-249"/>
<text text-anchor="start" x="1158" y="-267" font-family="Helvetica,sans-Serif" font-size="10.00">SimulationDataFormat</text>
<text text-anchor="middle" x="1207" y="-256" font-family="Helvetica,sans-Serif" font-size="10.00">/MCCompLabel.h</text>
</a>
</g>
</g>
<!-- Node1&#45;&gt;Node16 -->
<g id="edge52" class="edge"><title>Node1&#45;&gt;Node16</title>
<path fill="none" stroke="midnightblue" d="M1100.88,-384.996C1111.81,-373.826 1124.71,-360.408 1136,-348 1154.54,-327.631 1174.89,-303.66 1189.04,-286.729"/>
<polygon fill="midnightblue" stroke="midnightblue" points="1191.74,-288.955 1195.45,-279.03 1186.36,-284.476 1191.74,-288.955"/>
</g>
<!-- Node18 -->
<g id="node18" class="node"><title>Node18</title>
<g id="a_node18"><a xlink:href="../../d3/dba/SegmentationAlpide_8h.html" target="_top" xlink:title="Definition of the SegmentationAlpide class. ">
<polygon fill="none" stroke="black" points="1012.5,-136.5 1012.5,-155.5 1185.5,-155.5 1185.5,-136.5 1012.5,-136.5"/>
<text text-anchor="middle" x="1099" y="-143.5" font-family="Helvetica,sans-Serif" font-size="10.00">ITSMFTBase/SegmentationAlpide.h</text>
</a>
</g>
</g>
<!-- Node1&#45;&gt;Node18 -->
<g id="edge19" class="edge"><title>Node1&#45;&gt;Node18</title>
<path fill="none" stroke="midnightblue" d="M1089.76,-384.841C1095.01,-373.868 1100.37,-360.643 1103,-348 1116.74,-282.018 1107.48,-201.213 1102.09,-165.49"/>
<polygon fill="midnightblue" stroke="midnightblue" points="1105.54,-164.879 1100.52,-155.551 1098.63,-165.976 1105.54,-164.879"/>
</g>
<!-- Node19 -->
<g id="node19" class="node"><title>Node19</title>
<g id="a_node19"><a xlink:href="../../d1/d76/TrivialClusterer_8h.html" target="_top" xlink:title="Definition of the ITS cluster finder. ">
<polygon fill="none" stroke="black" points="966,-317 966,-347 1094,-347 1094,-317 966,-317"/>
<text text-anchor="start" x="974" y="-335" font-family="Helvetica,sans-Serif" font-size="10.00">ITSReconstruction/Trivial</text>
<text text-anchor="middle" x="1030" y="-324" font-family="Helvetica,sans-Serif" font-size="10.00">Clusterer.h</text>
</a>
</g>
</g>
<!-- Node1&#45;&gt;Node19 -->
<g id="edge21" class="edge"><title>Node1&#45;&gt;Node19</title>
<path fill="none" stroke="midnightblue" d="M1060.94,-384.787C1055.41,-375.542 1049.2,-365.132 1043.79,-356.083"/>
<polygon fill="midnightblue" stroke="midnightblue" points="1046.65,-354.042 1038.51,-347.252 1040.64,-357.632 1046.65,-354.042"/>
</g>
<!-- Node32 -->
<g id="node32" class="node"><title>Node32</title>
<polygon fill="none" stroke="#bfbfbf" points="1525.5,-136.5 1525.5,-155.5 1596.5,-155.5 1596.5,-136.5 1525.5,-136.5"/>
<text text-anchor="middle" x="1561" y="-143.5" font-family="Helvetica,sans-Serif" font-size="10.00">FairLogger.h</text>
</g>
<!-- Node1&#45;&gt;Node32 -->
<g id="edge58" class="edge"><title>Node1&#45;&gt;Node32</title>
<path fill="none" stroke="midnightblue" d="M1168.81,-395.204C1256.98,-377.98 1390.63,-343.423 1491,-280 1525.83,-257.991 1536.93,-249.496 1554,-212 1560.55,-197.619 1562.04,-179.656 1562.05,-166.26"/>
<polygon fill="midnightblue" stroke="midnightblue" points="1565.53,-165.766 1561.75,-155.869 1558.54,-165.963 1565.53,-165.766"/>
</g>
<!-- Node35 -->
<g id="node35" class="node"><title>Node35</title>
<g id="a_node35"><a xlink:href="../../dc/de1/ITSMFT_2common_2reconstruction_2include_2ITSMFTReconstruction_2Cluster_8h.html" target="_top" xlink:title="ITSMFTReconstruction\l/Cluster.h">
<polygon fill="none" stroke="black" points="679.5,-317 679.5,-347 798.5,-347 798.5,-317 679.5,-317"/>
<text text-anchor="start" x="687.5" y="-335" font-family="Helvetica,sans-Serif" font-size="10.00">ITSMFTReconstruction</text>
<text text-anchor="middle" x="739" y="-324" font-family="Helvetica,sans-Serif" font-size="10.00">/Cluster.h</text>
</a>
</g>
</g>
<!-- Node1&#45;&gt;Node35 -->
<g id="edge43" class="edge"><title>Node1&#45;&gt;Node35</title>
<path fill="none" stroke="midnightblue" d="M983.468,-388.858C928.208,-376.232 859.162,-360.455 808.556,-348.893"/>
<polygon fill="midnightblue" stroke="midnightblue" points="809.218,-345.454 798.69,-346.638 807.659,-352.278 809.218,-345.454"/>
</g>
<!-- Node40 -->
<g id="node40" class="node"><title>Node40</title>
<g id="a_node40"><a xlink:href="../../db/d14/MCTruthContainer_8h.html" target="_top" xlink:title="Definition of a container to keep Monte Carlo truth external to simulation objects. ">
<polygon fill="none" stroke="black" points="1648,-317 1648,-347 1762,-347 1762,-317 1648,-317"/>
<text text-anchor="start" x="1656" y="-335" font-family="Helvetica,sans-Serif" font-size="10.00">SimulationDataFormat</text>
<text text-anchor="middle" x="1705" y="-324" font-family="Helvetica,sans-Serif" font-size="10.00">/MCTruthContainer.h</text>
</a>
</g>
</g>
<!-- Node1&#45;&gt;Node40 -->
<g id="edge53" class="edge"><title>Node1&#45;&gt;Node40</title>
<path fill="none" stroke="midnightblue" d="M1168.52,-398.994C1271.08,-386.748 1441.4,-366.274 1588,-348 1604.16,-345.986 1621.56,-343.777 1637.88,-341.687"/>
<polygon fill="midnightblue" stroke="midnightblue" points="1638.41,-345.148 1647.88,-340.404 1637.52,-338.205 1638.41,-345.148"/>
</g>
<!-- Node3 -->
<g id="node3" class="node"><title>Node3</title>
<polygon fill="none" stroke="#bfbfbf" points="1025.5,-74.5 1025.5,-93.5 1174.5,-93.5 1174.5,-74.5 1025.5,-74.5"/>
<text text-anchor="middle" x="1100" y="-81.5" font-family="Helvetica,sans-Serif" font-size="10.00">Math/GenVector/Rotation3D.h</text>
</g>
<!-- Node2&#45;&gt;Node3 -->
<g id="edge2" class="edge"><title>Node2&#45;&gt;Node3</title>
<path fill="none" stroke="midnightblue" d="M669.628,-138.63C767.126,-128.625 950.775,-109.401 1016,-100 1025.47,-98.6354 1035.5,-97.0049 1045.22,-95.3295"/>
<polygon fill="midnightblue" stroke="midnightblue" points="1045.95,-98.7553 1055.19,-93.5765 1044.73,-91.8611 1045.95,-98.7553"/>
</g>
<!-- Node4 -->
<g id="node4" class="node"><title>Node4</title>
<polygon fill="none" stroke="#bfbfbf" points="72,-74.5 72,-93.5 228,-93.5 228,-74.5 72,-74.5"/>
<text text-anchor="middle" x="150" y="-81.5" font-family="Helvetica,sans-Serif" font-size="10.00">Math/GenVector/Transform3D.h</text>
</g>
<!-- Node2&#45;&gt;Node4 -->
<g id="edge3" class="edge"><title>Node2&#45;&gt;Node4</title>
<path fill="none" stroke="midnightblue" d="M544.353,-138.341C470.666,-130.287 344.717,-115.826 237,-100 227.219,-98.5629 216.844,-96.8978 206.795,-95.2108"/>
<polygon fill="midnightblue" stroke="midnightblue" points="207.335,-91.7524 196.889,-93.5241 206.16,-98.653 207.335,-91.7524"/>
</g>
<!-- Node5 -->
<g id="node5" class="node"><title>Node5</title>
<polygon fill="none" stroke="#bfbfbf" points="246,-74.5 246,-93.5 406,-93.5 406,-74.5 246,-74.5"/>
<text text-anchor="middle" x="326" y="-81.5" font-family="Helvetica,sans-Serif" font-size="10.00">Math/GenVector/Translation3D.h</text>
</g>
<!-- Node2&#45;&gt;Node5 -->
<g id="edge4" class="edge"><title>Node2&#45;&gt;Node5</title>
<path fill="none" stroke="midnightblue" d="M567.038,-136.467C516.685,-125.716 430.153,-107.239 375.619,-95.5947"/>
<polygon fill="midnightblue" stroke="midnightblue" points="376.335,-92.1688 365.824,-93.5034 374.873,-99.0145 376.335,-92.1688"/>
</g>
<!-- Node6 -->
<g id="node6" class="node"><title>Node6</title>
<polygon fill="none" stroke="#bfbfbf" points="1192,-74.5 1192,-93.5 1248,-93.5 1248,-74.5 1192,-74.5"/>
<text text-anchor="middle" x="1220" y="-81.5" font-family="Helvetica,sans-Serif" font-size="10.00">Rtypes.h</text>
</g>
<!-- Node2&#45;&gt;Node6 -->
<g id="edge5" class="edge"><title>Node2&#45;&gt;Node6</title>
<path fill="none" stroke="midnightblue" d="M669.64,-138.601C679.138,-137.69 688.826,-136.794 698,-136 913.343,-117.362 972.525,-149.198 1183,-100 1186.07,-99.2817 1189.22,-98.3444 1192.33,-97.2887"/>
<polygon fill="midnightblue" stroke="midnightblue" points="1193.82,-100.464 1201.92,-93.6364 1191.33,-93.9218 1193.82,-100.464"/>
</g>
<!-- Node7 -->
<g id="node7" class="node"><title>Node7</title>
<polygon fill="none" stroke="#bfbfbf" points="568,-74.5 568,-93.5 644,-93.5 644,-74.5 568,-74.5"/>
<text text-anchor="middle" x="606" y="-81.5" font-family="Helvetica,sans-Serif" font-size="10.00">TGeoMatrix.h</text>
</g>
<!-- Node2&#45;&gt;Node7 -->
<g id="edge6" class="edge"><title>Node2&#45;&gt;Node7</title>
<path fill="none" stroke="midnightblue" d="M606.857,-136.403C606.716,-127.938 606.495,-114.728 606.314,-103.82"/>
<polygon fill="midnightblue" stroke="midnightblue" points="609.809,-103.521 606.143,-93.5806 602.81,-103.638 609.809,-103.521"/>
</g>
<!-- Node8 -->
<g id="node8" class="node"><title>Node8</title>
<polygon fill="none" stroke="#bfbfbf" points="662.5,-69 662.5,-99 813.5,-99 813.5,-69 662.5,-69"/>
<text text-anchor="start" x="670.5" y="-87" font-family="Helvetica,sans-Serif" font-size="10.00">Math/GenVector/Displacement</text>
<text text-anchor="middle" x="738" y="-76" font-family="Helvetica,sans-Serif" font-size="10.00">Vector3D.h</text>
</g>
<!-- Node2&#45;&gt;Node8 -->
<g id="edge7" class="edge"><title>Node2&#45;&gt;Node8</title>
<path fill="none" stroke="midnightblue" d="M625.769,-136.403C644.569,-127.793 674.085,-114.274 698.13,-103.261"/>
<polygon fill="midnightblue" stroke="midnightblue" points="699.744,-106.372 707.378,-99.0253 696.829,-100.007 699.744,-106.372"/>
</g>
<!-- Node9 -->
<g id="node9" class="node"><title>Node9</title>
<polygon fill="none" stroke="#bfbfbf" points="832,-74.5 832,-93.5 1008,-93.5 1008,-74.5 832,-74.5"/>
<text text-anchor="middle" x="920" y="-81.5" font-family="Helvetica,sans-Serif" font-size="10.00">Math/GenVector/PositionVector3D.h</text>
</g>
<!-- Node2&#45;&gt;Node9 -->
<g id="edge8" class="edge"><title>Node2&#45;&gt;Node9</title>
<path fill="none" stroke="midnightblue" d="M651.513,-136.467C707.833,-125.671 804.787,-107.086 865.485,-95.4501"/>
<polygon fill="midnightblue" stroke="midnightblue" points="866.478,-98.8235 875.641,-93.5034 865.161,-91.9487 866.478,-98.8235"/>
</g>
<!-- Node10 -->
<g id="node10" class="node"><title>Node10</title>
<g id="a_node10"><a xlink:href="../../d2/dd0/Cartesian2D_8h.html" target="_top" xlink:title="MathUtils/Cartesian2D.h">
<polygon fill="none" stroke="black" points="424.5,-74.5 424.5,-93.5 549.5,-93.5 549.5,-74.5 424.5,-74.5"/>
<text text-anchor="middle" x="487" y="-81.5" font-family="Helvetica,sans-Serif" font-size="10.00">MathUtils/Cartesian2D.h</text>
</a>
</g>
</g>
<!-- Node2&#45;&gt;Node10 -->
<g id="edge9" class="edge"><title>Node2&#45;&gt;Node10</title>
<path fill="none" stroke="midnightblue" d="M589.807,-136.403C569.757,-126.379 536.401,-109.701 513.14,-98.0699"/>
<polygon fill="midnightblue" stroke="midnightblue" points="514.671,-94.9223 504.161,-93.5806 511.54,-101.183 514.671,-94.9223"/>
</g>
<!-- Node13 -->
<g id="node13" class="node"><title>Node13</title>
<polygon fill="none" stroke="#bfbfbf" points="0,-74.5 0,-93.5 54,-93.5 54,-74.5 0,-74.5"/>
<text text-anchor="middle" x="27" y="-81.5" font-family="Helvetica,sans-Serif" font-size="10.00">iostream</text>
</g>
<!-- Node2&#45;&gt;Node13 -->
<g id="edge12" class="edge"><title>Node2&#45;&gt;Node13</title>
<path fill="none" stroke="midnightblue" d="M544.35,-142.273C421.422,-136.519 152.779,-121.843 63,-100 60.0045,-99.2712 56.9358,-98.3272 53.9146,-97.2675"/>
<polygon fill="midnightblue" stroke="midnightblue" points="55.1616,-93.997 44.5738,-93.6104 52.6096,-100.515 55.1616,-93.997"/>
</g>
<!-- Node11 -->
<g id="node11" class="node"><title>Node11</title>
<polygon fill="none" stroke="#bfbfbf" points="502.5,-1 502.5,-31 653.5,-31 653.5,-1 502.5,-1"/>
<text text-anchor="start" x="510.5" y="-19" font-family="Helvetica,sans-Serif" font-size="10.00">Math/GenVector/Displacement</text>
<text text-anchor="middle" x="578" y="-8" font-family="Helvetica,sans-Serif" font-size="10.00">Vector2D.h</text>
</g>
<!-- Node10&#45;&gt;Node11 -->
<g id="edge10" class="edge"><title>Node10&#45;&gt;Node11</title>
<path fill="none" stroke="midnightblue" d="M498.897,-74.3717C511.779,-65.0286 532.78,-49.7966 549.907,-37.375"/>
<polygon fill="midnightblue" stroke="midnightblue" points="552.407,-39.8859 558.447,-31.1815 548.297,-34.2194 552.407,-39.8859"/>
</g>
<!-- Node12 -->
<g id="node12" class="node"><title>Node12</title>
<polygon fill="none" stroke="#bfbfbf" points="308,-6.5 308,-25.5 484,-25.5 484,-6.5 308,-6.5"/>
<text text-anchor="middle" x="396" y="-13.5" font-family="Helvetica,sans-Serif" font-size="10.00">Math/GenVector/PositionVector2D.h</text>
</g>
<!-- Node10&#45;&gt;Node12 -->
<g id="edge11" class="edge"><title>Node10&#45;&gt;Node12</title>
<path fill="none" stroke="midnightblue" d="M475.103,-74.3717C460.116,-63.5015 434.138,-44.6602 416.058,-31.5474"/>
<polygon fill="midnightblue" stroke="midnightblue" points="418.05,-28.6684 407.9,-25.6305 413.94,-34.3349 418.05,-28.6684"/>
</g>
<!-- Node14&#45;&gt;Node6 -->
<g id="edge18" class="edge"><title>Node14&#45;&gt;Node6</title>
<path fill="none" stroke="midnightblue" d="M879.096,-322.49C865.516,-313.787 846.344,-298.884 838,-280 832.252,-266.991 831.586,-260.694 838,-248 847.461,-229.276 970.758,-144.357 990,-136 1070.04,-101.241 1099.26,-124.515 1183,-100 1185.81,-99.1785 1188.69,-98.2203 1191.56,-97.1929"/>
<polygon fill="midnightblue" stroke="midnightblue" points="1192.98,-100.394 1201.06,-93.5309 1190.47,-93.8621 1192.98,-100.394"/>
</g>
<!-- Node15 -->
<g id="node15" class="node"><title>Node15</title>
<polygon fill="none" stroke="#bfbfbf" points="957.5,-249 957.5,-279 1052.5,-279 1052.5,-249 957.5,-249"/>
<text text-anchor="start" x="965.5" y="-267" font-family="Helvetica,sans-Serif" font-size="10.00">boost/serialization</text>
<text text-anchor="middle" x="1005" y="-256" font-family="Helvetica,sans-Serif" font-size="10.00">/base_object.hpp</text>
</g>
<!-- Node14&#45;&gt;Node15 -->
<g id="edge14" class="edge"><title>Node14&#45;&gt;Node15</title>
<path fill="none" stroke="midnightblue" d="M908.511,-322.372C924.657,-312.771 951.26,-296.954 972.447,-284.356"/>
<polygon fill="midnightblue" stroke="midnightblue" points="974.343,-287.301 981.149,-279.181 970.765,-281.284 974.343,-287.301"/>
</g>
<!-- Node14&#45;&gt;Node16 -->
<g id="edge15" class="edge"><title>Node14&#45;&gt;Node16</title>
<path fill="none" stroke="midnightblue" d="M928.943,-322.467C938.062,-320.298 947.888,-318.014 957,-316 1018.71,-302.363 1089.28,-288.086 1139.68,-278.118"/>
<polygon fill="midnightblue" stroke="midnightblue" points="1140.66,-281.491 1149.8,-276.12 1139.31,-274.623 1140.66,-281.491"/>
</g>
<!-- Node17 -->
<g id="node17" class="node"><title>Node17</title>
<polygon fill="none" stroke="#bfbfbf" points="847,-254.5 847,-273.5 939,-273.5 939,-254.5 847,-254.5"/>
<text text-anchor="middle" x="893" y="-261.5" font-family="Helvetica,sans-Serif" font-size="10.00">FairTimeStamp.h</text>
</g>
<!-- Node14&#45;&gt;Node17 -->
<g id="edge17" class="edge"><title>Node14&#45;&gt;Node17</title>
<path fill="none" stroke="midnightblue" d="M893.869,-322.372C893.722,-312.643 893.478,-296.528 893.286,-283.85"/>
<polygon fill="midnightblue" stroke="midnightblue" points="896.785,-283.787 893.134,-273.841 889.786,-283.893 896.785,-283.787"/>
</g>
<!-- Node16&#45;&gt;Node6 -->
<g id="edge16" class="edge"><title>Node16&#45;&gt;Node6</title>
<path fill="none" stroke="midnightblue" d="M1208.04,-248.734C1210.38,-216.725 1216.04,-139.198 1218.65,-103.525"/>
<polygon fill="midnightblue" stroke="midnightblue" points="1222.14,-103.753 1219.38,-93.5244 1215.16,-103.243 1222.14,-103.753"/>
</g>
<!-- Node18&#45;&gt;Node6 -->
<g id="edge20" class="edge"><title>Node18&#45;&gt;Node6</title>
<path fill="none" stroke="midnightblue" d="M1116.34,-136.403C1136.55,-126.379 1170.19,-109.701 1193.64,-98.0699"/>
<polygon fill="midnightblue" stroke="midnightblue" points="1195.29,-101.159 1202.7,-93.5806 1192.18,-94.8875 1195.29,-101.159"/>
</g>
<!-- Node19&#45;&gt;Node6 -->
<g id="edge22" class="edge"><title>Node19&#45;&gt;Node6</title>
<path fill="none" stroke="midnightblue" d="M1041.54,-316.832C1048.69,-307.115 1057.2,-293.57 1061,-280 1064.84,-266.305 1064.95,-261.663 1061,-248 1045.44,-194.146 967.461,-179.351 1003,-136 1054.72,-72.9074 1104.85,-123.429 1183,-100 1185.65,-99.2063 1188.37,-98.2959 1191.07,-97.3244"/>
<polygon fill="midnightblue" stroke="midnightblue" points="1192.58,-100.495 1200.66,-93.638 1190.07,-93.9611 1192.58,-100.495"/>
</g>
<!-- Node20 -->
<g id="node20" class="node"><title>Node20</title>
<g id="a_node20"><a xlink:href="../../d0/d2d/common_2base_2include_2ITSMFTBase_2GeometryTGeo_8h.html" target="_top" xlink:title="ITSMFTBase/GeometryTGeo.h">
<polygon fill="none" stroke="black" points="1329.5,-254.5 1329.5,-273.5 1482.5,-273.5 1482.5,-254.5 1329.5,-254.5"/>
<text text-anchor="middle" x="1406" y="-261.5" font-family="Helvetica,sans-Serif" font-size="10.00">ITSMFTBase/GeometryTGeo.h</text>
</a>
</g>
</g>
<!-- Node19&#45;&gt;Node20 -->
<g id="edge23" class="edge"><title>Node19&#45;&gt;Node20</title>
<path fill="none" stroke="midnightblue" d="M1094.21,-319.729C1165.13,-307.28 1278.37,-287.403 1347.1,-275.34"/>
<polygon fill="midnightblue" stroke="midnightblue" points="1348.07,-278.722 1357.32,-273.546 1346.86,-271.827 1348.07,-278.722"/>
</g>
<!-- Node21 -->
<g id="node21" class="node"><title>Node21</title>
<g id="a_node21"><a xlink:href="../../d4/d20/DetMatrixCache_8h.html" target="_top" xlink:title="DetectorsBase/DetMatrixCache.h">
<polygon fill="none" stroke="black" points="1235,-192.5 1235,-211.5 1399,-211.5 1399,-192.5 1235,-192.5"/>
<text text-anchor="middle" x="1317" y="-199.5" font-family="Helvetica,sans-Serif" font-size="10.00">DetectorsBase/DetMatrixCache.h</text>
</a>
</g>
</g>
<!-- Node20&#45;&gt;Node21 -->
<g id="edge24" class="edge"><title>Node20&#45;&gt;Node21</title>
<path fill="none" stroke="midnightblue" d="M1393.25,-254.403C1378.97,-244.78 1355.6,-229.024 1338.49,-217.489"/>
<polygon fill="midnightblue" stroke="midnightblue" points="1339.98,-214.268 1329.73,-211.581 1336.06,-220.073 1339.98,-214.268"/>
</g>
<!-- Node33 -->
<g id="node33" class="node"><title>Node33</title>
<polygon fill="none" stroke="#bfbfbf" points="1417.5,-192.5 1417.5,-211.5 1486.5,-211.5 1486.5,-192.5 1417.5,-192.5"/>
<text text-anchor="middle" x="1452" y="-199.5" font-family="Helvetica,sans-Serif" font-size="10.00">TObjArray.h</text>
</g>
<!-- Node20&#45;&gt;Node33 -->
<g id="edge41" class="edge"><title>Node20&#45;&gt;Node33</title>
<path fill="none" stroke="midnightblue" d="M1412.59,-254.403C1419.49,-245.403 1430.5,-231.041 1439.13,-219.782"/>
<polygon fill="midnightblue" stroke="midnightblue" points="1442.11,-221.646 1445.42,-211.581 1436.56,-217.387 1442.11,-221.646"/>
</g>
<!-- Node34 -->
<g id="node34" class="node"><title>Node34</title>
<polygon fill="none" stroke="#bfbfbf" points="1504.5,-192.5 1504.5,-211.5 1545.5,-211.5 1545.5,-192.5 1504.5,-192.5"/>
<text text-anchor="middle" x="1525" y="-199.5" font-family="Helvetica,sans-Serif" font-size="10.00">string</text>
</g>
<!-- Node20&#45;&gt;Node34 -->
<g id="edge42" class="edge"><title>Node20&#45;&gt;Node34</title>
<path fill="none" stroke="midnightblue" d="M1423.05,-254.403C1442.84,-244.423 1475.72,-227.849 1498.77,-216.225"/>
<polygon fill="midnightblue" stroke="midnightblue" points="1500.63,-219.208 1507.98,-211.581 1497.48,-212.958 1500.63,-219.208"/>
</g>
<!-- Node21&#45;&gt;Node2 -->
<g id="edge27" class="edge"><title>Node21&#45;&gt;Node2</title>
<path fill="none" stroke="midnightblue" d="M1234.86,-194.753C1095.05,-184.119 813.045,-162.671 679.839,-152.54"/>
<polygon fill="midnightblue" stroke="midnightblue" points="679.973,-149.04 669.736,-151.772 679.442,-156.02 679.973,-149.04"/>
</g>
<!-- Node21&#45;&gt;Node6 -->
<g id="edge39" class="edge"><title>Node21&#45;&gt;Node6</title>
<path fill="none" stroke="midnightblue" d="M1307.36,-192.482C1297.7,-183.748 1282.65,-169.56 1271,-156 1256.07,-138.623 1241.02,-117.055 1231.18,-102.279"/>
<polygon fill="midnightblue" stroke="midnightblue" points="1233.93,-100.098 1225.52,-93.6625 1228.08,-103.942 1233.93,-100.098"/>
</g>
<!-- Node22 -->
<g id="node22" class="node"><title>Node22</title>
<polygon fill="none" stroke="#bfbfbf" points="1280,-136.5 1280,-155.5 1324,-155.5 1324,-136.5 1280,-136.5"/>
<text text-anchor="middle" x="1302" y="-143.5" font-family="Helvetica,sans-Serif" font-size="10.00">vector</text>
</g>
<!-- Node21&#45;&gt;Node22 -->
<g id="edge25" class="edge"><title>Node21&#45;&gt;Node22</title>
<path fill="none" stroke="midnightblue" d="M1314.52,-192.083C1312.51,-184.849 1309.61,-174.409 1307.11,-165.397"/>
<polygon fill="midnightblue" stroke="midnightblue" points="1310.48,-164.449 1304.43,-155.751 1303.74,-166.323 1310.48,-164.449"/>
</g>
<!-- Node23 -->
<g id="node23" class="node"><title>Node23</title>
<polygon fill="none" stroke="#bfbfbf" points="1371,-6.5 1371,-25.5 1409,-25.5 1409,-6.5 1371,-6.5"/>
<text text-anchor="middle" x="1390" y="-13.5" font-family="Helvetica,sans-Serif" font-size="10.00">array</text>
</g>
<!-- Node21&#45;&gt;Node23 -->
<g id="edge26" class="edge"><title>Node21&#45;&gt;Node23</title>
<path fill="none" stroke="midnightblue" d="M1320.52,-192.125C1331.82,-163.647 1367.32,-74.1662 1382.74,-35.3099"/>
<polygon fill="midnightblue" stroke="midnightblue" points="1386.08,-36.3716 1386.51,-25.7857 1379.57,-33.7901 1386.08,-36.3716"/>
</g>
<!-- Node24 -->
<g id="node24" class="node"><title>Node24</title>
<g id="a_node24"><a xlink:href="../../d6/d31/DetID_8h.html" target="_top" xlink:title="DetectorsBase/DetID.h">
<polygon fill="none" stroke="black" points="1381.5,-136.5 1381.5,-155.5 1500.5,-155.5 1500.5,-136.5 1381.5,-136.5"/>
<text text-anchor="middle" x="1441" y="-143.5" font-family="Helvetica,sans-Serif" font-size="10.00">DetectorsBase/DetID.h</text>
</a>
</g>
</g>
<!-- Node21&#45;&gt;Node24 -->
<g id="edge28" class="edge"><title>Node21&#45;&gt;Node24</title>
<path fill="none" stroke="midnightblue" d="M1336.65,-192.444C1356.96,-183.596 1388.9,-169.687 1412.1,-159.586"/>
<polygon fill="midnightblue" stroke="midnightblue" points="1413.67,-162.718 1421.44,-155.516 1410.88,-156.3 1413.67,-162.718"/>
</g>
<!-- Node21&#45;&gt;Node32 -->
<g id="edge40" class="edge"><title>Node21&#45;&gt;Node32</title>
<path fill="none" stroke="midnightblue" d="M1355.66,-192.444C1399.01,-182.85 1469.25,-167.304 1515.29,-157.116"/>
<polygon fill="midnightblue" stroke="midnightblue" points="1516.29,-160.48 1525.3,-154.902 1514.78,-153.645 1516.29,-160.48"/>
</g>
<!-- Node24&#45;&gt;Node6 -->
<g id="edge29" class="edge"><title>Node24&#45;&gt;Node6</title>
<path fill="none" stroke="midnightblue" d="M1406.62,-136.449C1371.82,-127.689 1316.51,-113.481 1269,-100 1265.12,-98.8977 1261.07,-97.7147 1257.04,-96.5143"/>
<polygon fill="midnightblue" stroke="midnightblue" points="1257.74,-93.0706 1247.16,-93.5306 1255.72,-99.7718 1257.74,-93.0706"/>
</g>
<!-- Node24&#45;&gt;Node23 -->
<g id="edge30" class="edge"><title>Node24&#45;&gt;Node23</title>
<path fill="none" stroke="midnightblue" d="M1433.25,-136.341C1425.93,-127.723 1415.2,-113.82 1409,-100 1399.57,-78.9776 1394.58,-52.7876 1392.12,-35.5148"/>
<polygon fill="midnightblue" stroke="midnightblue" points="1395.59,-35.0684 1390.85,-25.5956 1388.65,-35.96 1395.59,-35.0684"/>
</g>
<!-- Node25 -->
<g id="node25" class="node"><title>Node25</title>
<polygon fill="none" stroke="#bfbfbf" points="1277.5,-74.5 1277.5,-93.5 1318.5,-93.5 1318.5,-74.5 1277.5,-74.5"/>
<text text-anchor="middle" x="1298" y="-81.5" font-family="Helvetica,sans-Serif" font-size="10.00">bitset</text>
</g>
<!-- Node24&#45;&gt;Node25 -->
<g id="edge31" class="edge"><title>Node24&#45;&gt;Node25</title>
<path fill="none" stroke="midnightblue" d="M1420.51,-136.403C1396.19,-126.2 1355.45,-109.105 1327.68,-97.4544"/>
<polygon fill="midnightblue" stroke="midnightblue" points="1329.03,-94.2223 1318.45,-93.5806 1326.32,-100.677 1329.03,-94.2223"/>
</g>
<!-- Node26 -->
<g id="node26" class="node"><title>Node26</title>
<polygon fill="none" stroke="#bfbfbf" points="1693.5,-74.5 1693.5,-93.5 1742.5,-93.5 1742.5,-74.5 1693.5,-74.5"/>
<text text-anchor="middle" x="1718" y="-81.5" font-family="Helvetica,sans-Serif" font-size="10.00">cassert</text>
</g>
<!-- Node24&#45;&gt;Node26 -->
<g id="edge32" class="edge"><title>Node24&#45;&gt;Node26</title>
<path fill="none" stroke="midnightblue" d="M1500.6,-137.901C1550.37,-131.042 1622.81,-118.881 1684,-100 1686.43,-99.251 1688.91,-98.3775 1691.38,-97.4356"/>
<polygon fill="midnightblue" stroke="midnightblue" points="1692.76,-100.652 1700.65,-93.5821 1690.07,-94.1884 1692.76,-100.652"/>
</g>
<!-- Node27 -->
<g id="node27" class="node"><title>Node27</title>
<polygon fill="none" stroke="#bfbfbf" points="1418,-74.5 1418,-93.5 1464,-93.5 1464,-74.5 1418,-74.5"/>
<text text-anchor="middle" x="1441" y="-81.5" font-family="Helvetica,sans-Serif" font-size="10.00">cstdint</text>
</g>
<!-- Node24&#45;&gt;Node27 -->
<g id="edge33" class="edge"><title>Node24&#45;&gt;Node27</title>
<path fill="none" stroke="midnightblue" d="M1441,-136.403C1441,-127.938 1441,-114.728 1441,-103.82"/>
<polygon fill="midnightblue" stroke="midnightblue" points="1444.5,-103.581 1441,-93.5806 1437.5,-103.581 1444.5,-103.581"/>
</g>
<!-- Node28 -->
<g id="node28" class="node"><title>Node28</title>
<polygon fill="none" stroke="#bfbfbf" points="1482,-74.5 1482,-93.5 1544,-93.5 1544,-74.5 1482,-74.5"/>
<text text-anchor="middle" x="1513" y="-81.5" font-family="Helvetica,sans-Serif" font-size="10.00">type_traits</text>
</g>
<!-- Node24&#45;&gt;Node28 -->
<g id="edge34" class="edge"><title>Node24&#45;&gt;Node28</title>
<path fill="none" stroke="midnightblue" d="M1451.32,-136.403C1462.65,-126.958 1481.07,-111.606 1494.84,-100.134"/>
<polygon fill="midnightblue" stroke="midnightblue" points="1497.26,-102.671 1502.7,-93.5806 1492.78,-97.2937 1497.26,-102.671"/>
</g>
<!-- Node29 -->
<g id="node29" class="node"><title>Node29</title>
<g id="a_node29"><a xlink:href="../../d9/ded/Utils_8h.html" target="_top" xlink:title="DetectorsBase/Utils.h">
<polygon fill="none" stroke="black" points="1562.5,-74.5 1562.5,-93.5 1675.5,-93.5 1675.5,-74.5 1562.5,-74.5"/>
<text text-anchor="middle" x="1619" y="-81.5" font-family="Helvetica,sans-Serif" font-size="10.00">DetectorsBase/Utils.h</text>
</a>
</g>
</g>
<!-- Node24&#45;&gt;Node29 -->
<g id="edge35" class="edge"><title>Node24&#45;&gt;Node29</title>
<path fill="none" stroke="midnightblue" d="M1466.5,-136.403C1497.3,-126.022 1549.27,-108.506 1583.85,-96.849"/>
<polygon fill="midnightblue" stroke="midnightblue" points="1585.19,-100.092 1593.54,-93.5806 1582.95,-93.4582 1585.19,-100.092"/>
</g>
<!-- Node29&#45;&gt;Node23 -->
<g id="edge38" class="edge"><title>Node29&#45;&gt;Node23</title>
<path fill="none" stroke="midnightblue" d="M1589.06,-74.3717C1544.84,-61.6264 1462.6,-37.9227 1418.95,-25.3432"/>
<polygon fill="midnightblue" stroke="midnightblue" points="1419.81,-21.95 1409.23,-22.5437 1417.87,-28.6762 1419.81,-21.95"/>
</g>
<!-- Node30 -->
<g id="node30" class="node"><title>Node30</title>
<g id="a_node30"><a xlink:href="../../d1/daa/Base_2include_2DetectorsBase_2Constants_8h.html" target="_top" xlink:title="DetectorsBase/Constants.h">
<polygon fill="none" stroke="black" points="1604,-6.5 1604,-25.5 1742,-25.5 1742,-6.5 1604,-6.5"/>
<text text-anchor="middle" x="1673" y="-13.5" font-family="Helvetica,sans-Serif" font-size="10.00">DetectorsBase/Constants.h</text>
</a>
</g>
</g>
<!-- Node29&#45;&gt;Node30 -->
<g id="edge36" class="edge"><title>Node29&#45;&gt;Node30</title>
<path fill="none" stroke="midnightblue" d="M1626.06,-74.3717C1634.5,-64.053 1648.82,-46.5513 1659.43,-33.5854"/>
<polygon fill="midnightblue" stroke="midnightblue" points="1662.14,-35.7971 1665.77,-25.8411 1656.73,-31.3644 1662.14,-35.7971"/>
</g>
<!-- Node31 -->
<g id="node31" class="node"><title>Node31</title>
<polygon fill="none" stroke="#bfbfbf" points="1542,-6.5 1542,-25.5 1586,-25.5 1586,-6.5 1542,-6.5"/>
<text text-anchor="middle" x="1564" y="-13.5" font-family="Helvetica,sans-Serif" font-size="10.00">cmath</text>
</g>
<!-- Node29&#45;&gt;Node31 -->
<g id="edge37" class="edge"><title>Node29&#45;&gt;Node31</title>
<path fill="none" stroke="midnightblue" d="M1611.81,-74.3717C1603.21,-64.053 1588.63,-46.5513 1577.82,-33.5854"/>
<polygon fill="midnightblue" stroke="midnightblue" points="1580.46,-31.2827 1571.37,-25.8411 1575.08,-35.764 1580.46,-31.2827"/>
</g>
<!-- Node36 -->
<g id="node36" class="node"><title>Node36</title>
<g id="a_node36"><a xlink:href="../../d4/de2/BaseCluster_8h.html" target="_top" xlink:title="DetectorsBase/BaseCluster.h">
<polygon fill="none" stroke="black" points="640.5,-254.5 640.5,-273.5 787.5,-273.5 787.5,-254.5 640.5,-254.5"/>
<text text-anchor="middle" x="714" y="-261.5" font-family="Helvetica,sans-Serif" font-size="10.00">DetectorsBase/BaseCluster.h</text>
</a>
</g>
</g>
<!-- Node35&#45;&gt;Node36 -->
<g id="edge44" class="edge"><title>Node35&#45;&gt;Node36</title>
<path fill="none" stroke="midnightblue" d="M733.575,-316.679C729.87,-306.898 724.929,-293.852 720.937,-283.315"/>
<polygon fill="midnightblue" stroke="midnightblue" points="724.159,-281.94 717.344,-273.828 717.613,-284.42 724.159,-281.94"/>
</g>
<!-- Node36&#45;&gt;Node2 -->
<g id="edge50" class="edge"><title>Node36&#45;&gt;Node2</title>
<path fill="none" stroke="midnightblue" d="M707.257,-254.445C696.435,-240.85 674.336,-213.638 654,-192 644.426,-181.813 633.126,-170.959 624.005,-162.464"/>
<polygon fill="midnightblue" stroke="midnightblue" points="626.373,-159.887 616.649,-155.682 621.628,-165.034 626.373,-159.887"/>
</g>
<!-- Node36&#45;&gt;Node13 -->
<g id="edge49" class="edge"><title>Node36&#45;&gt;Node13</title>
<path fill="none" stroke="midnightblue" d="M670.322,-254.424C564.623,-233.161 287.227,-174.323 63,-100 60.5819,-99.1985 58.0969,-98.3085 55.6169,-97.3735"/>
<polygon fill="midnightblue" stroke="midnightblue" points="56.8147,-94.0832 46.2293,-93.6352 54.2249,-100.587 56.8147,-94.0832"/>
</g>
<!-- Node36&#45;&gt;Node21 -->
<g id="edge51" class="edge"><title>Node36&#45;&gt;Node21</title>
<path fill="none" stroke="midnightblue" d="M781.536,-254.498C799.847,-252.284 819.673,-249.969 838,-248 972.351,-233.566 1128.18,-219.404 1224.7,-210.935"/>
<polygon fill="midnightblue" stroke="midnightblue" points="1225.06,-214.416 1234.72,-210.057 1224.45,-207.443 1225.06,-214.416"/>
</g>
<!-- Node36&#45;&gt;Node25 -->
<g id="edge46" class="edge"><title>Node36&#45;&gt;Node25</title>
<path fill="none" stroke="midnightblue" d="M713.338,-254.142C712.739,-239.098 713.883,-208.578 731,-192 901.162,-27.1929 1026.02,-156.811 1256,-100 1259.86,-99.0454 1263.87,-97.8694 1267.8,-96.5993"/>
<polygon fill="midnightblue" stroke="midnightblue" points="1269,-99.8881 1277.32,-93.3211 1266.72,-93.27 1269,-99.8881"/>
</g>
<!-- Node37 -->
<g id="node37" class="node"><title>Node37</title>
<polygon fill="none" stroke="#bfbfbf" points="740.5,-192.5 740.5,-211.5 799.5,-211.5 799.5,-192.5 740.5,-192.5"/>
<text text-anchor="middle" x="770" y="-199.5" font-family="Helvetica,sans-Serif" font-size="10.00">TObject.h</text>
</g>
<!-- Node36&#45;&gt;Node37 -->
<g id="edge45" class="edge"><title>Node36&#45;&gt;Node37</title>
<path fill="none" stroke="midnightblue" d="M722.023,-254.403C730.59,-245.225 744.361,-230.47 754.957,-219.117"/>
<polygon fill="midnightblue" stroke="midnightblue" points="757.727,-221.279 761.991,-211.581 752.61,-216.503 757.727,-221.279"/>
</g>
<!-- Node38 -->
<g id="node38" class="node"><title>Node38</title>
<polygon fill="none" stroke="#bfbfbf" points="818,-192.5 818,-211.5 868,-211.5 868,-192.5 818,-192.5"/>
<text text-anchor="middle" x="843" y="-199.5" font-family="Helvetica,sans-Serif" font-size="10.00">iomanip</text>
</g>
<!-- Node36&#45;&gt;Node38 -->
<g id="edge47" class="edge"><title>Node36&#45;&gt;Node38</title>
<path fill="none" stroke="midnightblue" d="M732.483,-254.403C754.132,-244.334 790.213,-227.552 815.232,-215.915"/>
<polygon fill="midnightblue" stroke="midnightblue" points="816.961,-218.971 824.552,-211.581 814.008,-212.624 816.961,-218.971"/>
</g>
<!-- Node39 -->
<g id="node39" class="node"><title>Node39</title>
<polygon fill="none" stroke="#bfbfbf" points="616.5,-192.5 616.5,-211.5 645.5,-211.5 645.5,-192.5 616.5,-192.5"/>
<text text-anchor="middle" x="631" y="-199.5" font-family="Helvetica,sans-Serif" font-size="10.00">ios</text>
</g>
<!-- Node36&#45;&gt;Node39 -->
<g id="edge48" class="edge"><title>Node36&#45;&gt;Node39</title>
<path fill="none" stroke="midnightblue" d="M702.108,-254.403C688.795,-244.78 667,-229.024 651.043,-217.489"/>
<polygon fill="midnightblue" stroke="midnightblue" points="653.025,-214.603 642.87,-211.581 648.924,-220.276 653.025,-214.603"/>
</g>
<!-- Node40&#45;&gt;Node26 -->
<g id="edge55" class="edge"><title>Node40&#45;&gt;Node26</title>
<path fill="none" stroke="midnightblue" d="M1705.76,-316.711C1707.98,-274.649 1714.5,-151.266 1717,-103.856"/>
<polygon fill="midnightblue" stroke="midnightblue" points="1720.5,-103.937 1717.54,-93.7666 1713.51,-103.568 1720.5,-103.937"/>
</g>
<!-- Node41 -->
<g id="node41" class="node"><title>Node41</title>
<polygon fill="none" stroke="#bfbfbf" points="1615,-254.5 1615,-273.5 1677,-273.5 1677,-254.5 1615,-254.5"/>
<text text-anchor="middle" x="1646" y="-261.5" font-family="Helvetica,sans-Serif" font-size="10.00">TNamed.h</text>
</g>
<!-- Node40&#45;&gt;Node41 -->
<g id="edge54" class="edge"><title>Node40&#45;&gt;Node41</title>
<path fill="none" stroke="midnightblue" d="M1692.2,-316.679C1682.91,-306.286 1670.32,-292.208 1660.63,-281.37"/>
<polygon fill="midnightblue" stroke="midnightblue" points="1663.17,-278.951 1653.89,-273.828 1657.95,-283.616 1663.17,-278.951"/>
</g>
<!-- Node42 -->
<g id="node42" class="node"><title>Node42</title>
<polygon fill="none" stroke="#bfbfbf" points="1733.5,-254.5 1733.5,-273.5 1792.5,-273.5 1792.5,-254.5 1733.5,-254.5"/>
<text text-anchor="middle" x="1763" y="-261.5" font-family="Helvetica,sans-Serif" font-size="10.00">stdexcept</text>
</g>
<!-- Node40&#45;&gt;Node42 -->
<g id="edge56" class="edge"><title>Node40&#45;&gt;Node42</title>
<path fill="none" stroke="midnightblue" d="M1717.59,-316.679C1726.72,-306.286 1739.09,-292.208 1748.61,-281.37"/>
<polygon fill="midnightblue" stroke="midnightblue" points="1751.27,-283.65 1755.24,-273.828 1746.01,-279.03 1751.27,-283.65"/>
</g>
<!-- Node43 -->
<g id="node43" class="node"><title>Node43</title>
<polygon fill="none" stroke="#bfbfbf" points="1810.5,-254.5 1810.5,-273.5 1855.5,-273.5 1855.5,-254.5 1810.5,-254.5"/>
<text text-anchor="middle" x="1833" y="-261.5" font-family="Helvetica,sans-Serif" font-size="10.00">gsl/gsl</text>
</g>
<!-- Node40&#45;&gt;Node43 -->
<g id="edge57" class="edge"><title>Node40&#45;&gt;Node43</title>
<path fill="none" stroke="midnightblue" d="M1732.46,-316.841C1754.6,-305.425 1785.51,-289.485 1807.2,-278.303"/>
<polygon fill="midnightblue" stroke="midnightblue" points="1808.88,-281.376 1816.16,-273.682 1805.67,-275.154 1808.88,-281.376"/>
</g>
</g>
</svg>
        <g id="navigator" transform="translate(0 0)" fill="#404254">
                <rect fill="#f2f5e9" fill-opacity="0.5" stroke="#606060" stroke-width=".5" x="0" y="0" width="60" height="60"/>
                <use id="zoomplus" xlink:href="#zoomPlus" x="17" y="9" onmousedown="handleZoom(evt,'in')"/>
                <use id="zoomminus" xlink:href="#zoomMin" x="42" y="9" onmousedown="handleZoom(evt,'out')"/>
                <use id="reset" xlink:href="#resetDef" x="30" y="36" onmousedown="handleReset()"/>
                <g id="arrowUp" xlink:href="#dirArrow" transform="translate(30 24)" onmousedown="handlePan(0,-1)">
                  <use xlink:href="#rim" fill="#404040">
                        <set attributeName="fill" to="#808080" begin="arrowUp.mouseover" end="arrowUp.mouseout"/>
                  </use>
                  <path fill="none" stroke="white" stroke-width="1.5" d="M0,-3.0v7 M-2.5,-0.5L0,-3.0L2.5,-0.5"/>
                </g>
                <g id="arrowRight" xlink:href="#dirArrow" transform="rotate(90) translate(36 -43)" onmousedown="handlePan(1,0)">
                  <use xlink:href="#rim" fill="#404040">
                        <set attributeName="fill" to="#808080" begin="arrowRight.mouseover" end="arrowRight.mouseout"/>
                  </use>
                  <path fill="none" stroke="white" stroke-width="1.5" d="M0,-3.0v7 M-2.5,-0.5L0,-3.0L2.5,-0.5"/>
                </g>
                <g id="arrowDown" xlink:href="#dirArrow" transform="rotate(180) translate(-30 -48)" onmousedown="handlePan(0,1)">
                  <use xlink:href="#rim" fill="#404040">
                        <set attributeName="fill" to="#808080" begin="arrowDown.mouseover" end="arrowDown.mouseout"/>
                  </use>
                  <path fill="none" stroke="white" stroke-width="1.5" d="M0,-3.0v7 M-2.5,-0.5L0,-3.0L2.5,-0.5"/>
                </g>
                <g id="arrowLeft" xlink:href="#dirArrow" transform="rotate(270) translate(-36 17)" onmousedown="handlePan(-1,0)">
                  <use xlink:href="#rim" fill="#404040">
                        <set attributeName="fill" to="#808080" begin="arrowLeft.mouseover" end="arrowLeft.mouseout"/>
                  </use>
                  <path fill="none" stroke="white" stroke-width="1.5" d="M0,-3.0v7 M-2.5,-0.5L0,-3.0L2.5,-0.5"/>
                </g>
        </g>
        <svg viewBox="0 0 15 15" width="100%" height="30px" preserveAspectRatio="xMaxYMin meet">
         <g id="arrow_out" transform="scale(0.3 0.3)">
          <a xlink:href="TrivialClusterer_8cxx__incl_org.svg" target="_base">
           <rect id="button" ry="5" rx="5" y="6" x="6" height="38" width="38"
                fill="#f2f5e9" fill-opacity="0.5" stroke="#606060" stroke-width="1.0"/>
           <path id="arrow"
             d="M 11.500037,31.436501 C 11.940474,20.09759 22.043105,11.32322 32.158766,21.979434 L 37.068811,17.246167 C 37.068811,17.246167 37.088388,32 37.088388,32 L 22.160133,31.978069 C 22.160133,31.978069 26.997745,27.140456 26.997745,27.140456 C 18.528582,18.264221 13.291696,25.230495 11.500037,31.436501 z"
             style="fill:#404040;"/>
          </a>
         </g>
        </svg>
</svg>
