<?xml version="1.0" encoding="UTF-8" standalone="no"?>
<!DOCTYPE svg PUBLIC "-//W3C//DTD SVG 1.1//EN"
 "http://www.w3.org/Graphics/SVG/1.1/DTD/svg11.dtd">
<!-- Generated by graphviz version 2.36.0 (20140111.2315)
 -->
<!-- Title: o2::header::ReverseParser&lt; HeaderT, TrailerT &gt;::FrameEntry Pages: 1 -->
<svg width="377pt" height="194pt"
 viewBox="0.00 0.00 377.00 194.00" xmlns="http://www.w3.org/2000/svg" xmlns:xlink="http://www.w3.org/1999/xlink">
<g id="graph0" class="graph" transform="scale(1 1) rotate(0) translate(4 190)">
<title>o2::header::ReverseParser&lt; HeaderT, TrailerT &gt;::FrameEntry</title>
<!-- Node1 -->
<g id="node1" class="node"><title>Node1</title>
<polygon fill="#bfbfbf" stroke="black" points="121,-0.5 121,-79.5 255,-79.5 255,-0.5 121,-0.5"/>
<text text-anchor="start" x="129" y="-67.5" font-family="Helvetica,sans-Serif" font-size="10.00">o2::header::ReverseParser</text>
<text text-anchor="start" x="129" y="-56.5" font-family="Helvetica,sans-Serif" font-size="10.00">&lt; HeaderT, TrailerT &gt;::</text>
<text text-anchor="middle" x="188" y="-45.5" font-family="Helvetica,sans-Serif" font-size="10.00">FrameEntry</text>
<polyline fill="none" stroke="black" points="121,-38.5 255,-38.5 "/>
<text text-anchor="middle" x="188" y="-26.5" font-family="Helvetica,sans-Serif" font-size="10.00"> </text>
<polyline fill="none" stroke="black" points="121,-19.5 255,-19.5 "/>
<text text-anchor="middle" x="188" y="-7.5" font-family="Helvetica,sans-Serif" font-size="10.00"> </text>
</g>
<!-- Node2 -->
<g id="node2" class="node"><title>Node2</title>
<polygon fill="none" stroke="#bfbfbf" points="-0.5,-128.5 -0.5,-185.5 98.5,-185.5 98.5,-128.5 -0.5,-128.5"/>
<text text-anchor="middle" x="49" y="-173.5" font-family="Helvetica,sans-Serif" font-size="10.00">const TrailerType *</text>
<polyline fill="none" stroke="#bfbfbf" points="-0.5,-166.5 98.5,-166.5 "/>
<text text-anchor="middle" x="49" y="-154.5" font-family="Helvetica,sans-Serif" font-size="10.00"> </text>
<polyline fill="none" stroke="#bfbfbf" points="-0.5,-147.5 98.5,-147.5 "/>
<text text-anchor="middle" x="49" y="-135.5" font-family="Helvetica,sans-Serif" font-size="10.00"> </text>
</g>
<!-- Node2&#45;&gt;Node1 -->
<g id="edge1" class="edge"><title>Node2&#45;&gt;Node1</title>
<path fill="none" stroke="#404040" d="M82.294,-128.455C97.0646,-116.234 114.862,-101.51 131.607,-87.6562"/>
<polygon fill="none" stroke="#404040" points="132.067,-87.2752 134.14,-80.3685 141.313,-79.6258 139.24,-86.5325 132.067,-87.2752"/>
<text text-anchor="middle" x="136" y="-101.5" font-family="Helvetica,sans-Serif" font-size="10.00"> +trailer</text>
</g>
<!-- Node3 -->
<g id="node3" class="node"><title>Node3</title>
<polygon fill="none" stroke="#bfbfbf" points="116.5,-128.5 116.5,-185.5 185.5,-185.5 185.5,-128.5 116.5,-128.5"/>
<text text-anchor="middle" x="151" y="-173.5" font-family="Helvetica,sans-Serif" font-size="10.00">const byte *</text>
<polyline fill="none" stroke="#bfbfbf" points="116.5,-166.5 185.5,-166.5 "/>
<text text-anchor="middle" x="151" y="-154.5" font-family="Helvetica,sans-Serif" font-size="10.00"> </text>
<polyline fill="none" stroke="#bfbfbf" points="116.5,-147.5 185.5,-147.5 "/>
<text text-anchor="middle" x="151" y="-135.5" font-family="Helvetica,sans-Serif" font-size="10.00"> </text>
</g>
<!-- Node3&#45;&gt;Node1 -->
<g id="edge2" class="edge"><title>Node3&#45;&gt;Node1</title>
<path fill="none" stroke="#404040" d="M153.541,-128.463C154.894,-118.695 156.937,-107.719 160,-98 160.751,-95.6176 161.588,-93.2104 162.49,-90.8015"/>
<polygon fill="none" stroke="#404040" points="162.534,-90.6961 161.124,-83.6242 167.11,-79.6028 168.52,-86.6748 162.534,-90.6961"/>
<text text-anchor="middle" x="181.5" y="-101.5" font-family="Helvetica,sans-Serif" font-size="10.00"> +payload</text>
</g>
<!-- Node4 -->
<g id="node4" class="node"><title>Node4</title>
<polygon fill="none" stroke="#bfbfbf" points="203.5,-128.5 203.5,-185.5 246.5,-185.5 246.5,-128.5 203.5,-128.5"/>
<text text-anchor="middle" x="225" y="-173.5" font-family="Helvetica,sans-Serif" font-size="10.00">size_t</text>
<polyline fill="none" stroke="#bfbfbf" points="203.5,-166.5 246.5,-166.5 "/>
<text text-anchor="middle" x="225" y="-154.5" font-family="Helvetica,sans-Serif" font-size="10.00"> </text>
<polyline fill="none" stroke="#bfbfbf" points="203.5,-147.5 246.5,-147.5 "/>
<text text-anchor="middle" x="225" y="-135.5" font-family="Helvetica,sans-Serif" font-size="10.00"> </text>
</g>
<!-- Node4&#45;&gt;Node1 -->
<g id="edge3" class="edge"><title>Node4&#45;&gt;Node1</title>
<path fill="none" stroke="#404040" d="M216.138,-128.455C212.537,-117.262 208.26,-103.969 204.141,-91.1684"/>
<polygon fill="none" stroke="#404040" points="204.103,-91.0491 198.457,-86.5625 200.427,-79.6258 206.073,-84.1123 204.103,-91.0491"/>
<text text-anchor="middle" x="228" y="-101.5" font-family="Helvetica,sans-Serif" font-size="10.00"> +length</text>
</g>
<!-- Node5 -->
<g id="node5" class="node"><title>Node5</title>
<polygon fill="none" stroke="#bfbfbf" points="265,-128.5 265,-185.5 369,-185.5 369,-128.5 265,-128.5"/>
<text text-anchor="middle" x="317" y="-173.5" font-family="Helvetica,sans-Serif" font-size="10.00">const HeaderType *</text>
<polyline fill="none" stroke="#bfbfbf" points="265,-166.5 369,-166.5 "/>
<text text-anchor="middle" x="317" y="-154.5" font-family="Helvetica,sans-Serif" font-size="10.00"> </text>
<polyline fill="none" stroke="#bfbfbf" points="265,-147.5 369,-147.5 "/>
<text text-anchor="middle" x="317" y="-135.5" font-family="Helvetica,sans-Serif" font-size="10.00"> </text>
</g>
<!-- Node5&#45;&gt;Node1 -->
<g id="edge4" class="edge"><title>Node5&#45;&gt;Node1</title>
<path fill="none" stroke="#404040" d="M286.101,-128.455C272.393,-116.234 255.876,-101.51 240.336,-87.6562"/>
<polygon fill="none" stroke="#404040" points="240.285,-87.6111 233.145,-86.6042 231.328,-79.6258 238.469,-80.6326 240.285,-87.6111"/>
<text text-anchor="middle" x="284.5" y="-101.5" font-family="Helvetica,sans-Serif" font-size="10.00"> +header</text>
</g>
</g>
</svg>
