<?xml version="1.0" encoding="UTF-8" standalone="no"?>
<!DOCTYPE svg PUBLIC "-//W3C//DTD SVG 1.1//EN"
 "http://www.w3.org/Graphics/SVG/1.1/DTD/svg11.dtd">
<!-- Generated by graphviz version 2.36.0 (20140111.2315)
 -->
<!-- Title: /home/travis/build/AliceO2Group/AliceO2/Detectors/EMCAL/base/src/Geometry.cxx Pages: 1 -->
<!--zoomable 322 -->
<svg id="main" version="1.1" xmlns="http://www.w3.org/2000/svg" xmlns:xlink="http://www.w3.org/1999/xlink" xml:space="preserve" onload="init(evt)">
<style type="text/css"><![CDATA[
.edge:hover path { stroke: red; }
.edge:hover polygon { stroke: red; fill: red; }
]]></style>
<script type="text/javascript"><![CDATA[
var edges = document.getElementsByTagName('g');
if (edges && edges.length) {
  for (var i=0;i<edges.length;i++) {
    if (edges[i].id.substr(0,4)=='edge') {
      edges[i].setAttribute('class','edge');
    }
  }
}
]]></script>
        <defs>
                <circle id="rim" cx="0" cy="0" r="7"/>
                <circle id="rim2" cx="0" cy="0" r="3.5"/>
                <g id="zoomPlus">
                        <use xlink:href="#rim" fill="#404040">
                                <set attributeName="fill" to="#808080" begin="zoomplus.mouseover" end="zoomplus.mouseout"/>
                        </use>
                        <path d="M-4,0h8M0,-4v8" fill="none" stroke="white" stroke-width="1.5" pointer-events="none"/>
                </g>
                <g id="zoomMin">
                        <use xlink:href="#rim" fill="#404040">
                                <set attributeName="fill" to="#808080" begin="zoomminus.mouseover" end="zoomminus.mouseout"/>
                        </use>
                        <path d="M-4,0h8" fill="none" stroke="white" stroke-width="1.5" pointer-events="none"/>
                </g>
                <g id="dirArrow">
                        <path fill="none" stroke="white" stroke-width="1.5" d="M0,-3.0v7 M-2.5,-0.5L0,-3.0L2.5,-0.5"/>
                </g>
               <g id="resetDef">
                       <use xlink:href="#rim2" fill="#404040">
                               <set attributeName="fill" to="#808080" begin="reset.mouseover" end="reset.mouseout"/>
                       </use>
               </g>
        </defs>

<script type="text/javascript">
var viewWidth = 1835;
var viewHeight = 322;
var sectionId = 'dynsection-0';
</script>
<script xlink:href="../../svgpan.js"/>
<svg id="graph" class="graph">
<g id="viewport">
<title>/home/travis/build/AliceO2Group/AliceO2/Detectors/EMCAL/base/src/Geometry.cxx</title>
<!-- Node1 -->
<g id="node1" class="node"><title>Node1</title>
<polygon fill="#bfbfbf" stroke="black" points="1365,-261 1365,-313 1489,-313 1489,-261 1365,-261"/>
<text text-anchor="start" x="1373" y="-301" font-family="Helvetica,sans-Serif" font-size="10.00">/home/travis/build</text>
<text text-anchor="start" x="1373" y="-290" font-family="Helvetica,sans-Serif" font-size="10.00">/AliceO2Group/AliceO2</text>
<text text-anchor="start" x="1373" y="-279" font-family="Helvetica,sans-Serif" font-size="10.00">/Detectors/EMCAL/base</text>
<text text-anchor="middle" x="1427" y="-268" font-family="Helvetica,sans-Serif" font-size="10.00">/src/Geometry.cxx</text>
</g>
<!-- Node2 -->
<g id="node2" class="node"><title>Node2</title>
<polygon fill="none" stroke="#bfbfbf" points="1077,-136.5 1077,-155.5 1127,-155.5 1127,-136.5 1077,-136.5"/>
<text text-anchor="middle" x="1102" y="-143.5" font-family="Helvetica,sans-Serif" font-size="10.00">iomanip</text>
</g>
<!-- Node1&#45;&gt;Node2 -->
<g id="edge1" class="edge"><title>Node1&#45;&gt;Node2</title>
<path fill="none" stroke="midnightblue" d="M1364.76,-279.638C1312.67,-272.213 1237.8,-256.516 1180,-224 1152.88,-208.746 1128.59,-181.568 1114.57,-163.919"/>
<polygon fill="midnightblue" stroke="midnightblue" points="1117.09,-161.458 1108.22,-155.673 1111.55,-165.73 1117.09,-161.458"/>
</g>
<!-- Node3 -->
<g id="node3" class="node"><title>Node3</title>
<polygon fill="none" stroke="#bfbfbf" points="1455.5,-198.5 1455.5,-217.5 1528.5,-217.5 1528.5,-198.5 1455.5,-198.5"/>
<text text-anchor="middle" x="1492" y="-205.5" font-family="Helvetica,sans-Serif" font-size="10.00">TGeoBBox.h</text>
</g>
<!-- Node1&#45;&gt;Node3 -->
<g id="edge2" class="edge"><title>Node1&#45;&gt;Node3</title>
<path fill="none" stroke="midnightblue" d="M1448.28,-260.787C1458.12,-249.137 1469.51,-235.636 1478.21,-225.341"/>
<polygon fill="midnightblue" stroke="midnightblue" points="1481,-227.457 1484.78,-217.558 1475.65,-222.941 1481,-227.457"/>
</g>
<!-- Node4 -->
<g id="node4" class="node"><title>Node4</title>
<polygon fill="none" stroke="#bfbfbf" points="1547,-198.5 1547,-217.5 1633,-217.5 1633,-198.5 1547,-198.5"/>
<text text-anchor="middle" x="1590" y="-205.5" font-family="Helvetica,sans-Serif" font-size="10.00">TGeoManager.h</text>
</g>
<!-- Node1&#45;&gt;Node4 -->
<g id="edge3" class="edge"><title>Node1&#45;&gt;Node4</title>
<path fill="none" stroke="midnightblue" d="M1480.37,-260.787C1507.87,-247.797 1540.24,-232.507 1562.64,-221.924"/>
<polygon fill="midnightblue" stroke="midnightblue" points="1564.34,-224.994 1571.88,-217.558 1561.35,-218.664 1564.34,-224.994"/>
</g>
<!-- Node5 -->
<g id="node5" class="node"><title>Node5</title>
<polygon fill="none" stroke="#bfbfbf" points="1320,-74.5 1320,-93.5 1396,-93.5 1396,-74.5 1320,-74.5"/>
<text text-anchor="middle" x="1358" y="-81.5" font-family="Helvetica,sans-Serif" font-size="10.00">TGeoMatrix.h</text>
</g>
<!-- Node1&#45;&gt;Node5 -->
<g id="edge4" class="edge"><title>Node1&#45;&gt;Node5</title>
<path fill="none" stroke="midnightblue" d="M1432.61,-260.855C1441.26,-220.957 1456.22,-146.556 1450,-136 1438.98,-117.289 1418.35,-104.957 1399.41,-97.1146"/>
<polygon fill="midnightblue" stroke="midnightblue" points="1400.6,-93.8233 1390.01,-93.5152 1398.1,-100.36 1400.6,-93.8233"/>
</g>
<!-- Node6 -->
<g id="node6" class="node"><title>Node6</title>
<polygon fill="none" stroke="#bfbfbf" points="1651.5,-198.5 1651.5,-217.5 1698.5,-217.5 1698.5,-198.5 1651.5,-198.5"/>
<text text-anchor="middle" x="1675" y="-205.5" font-family="Helvetica,sans-Serif" font-size="10.00">TList.h</text>
</g>
<!-- Node1&#45;&gt;Node6 -->
<g id="edge5" class="edge"><title>Node1&#45;&gt;Node6</title>
<path fill="none" stroke="midnightblue" d="M1489.4,-270.584C1532.74,-259.254 1591.53,-242.636 1642,-224 1643.9,-223.297 1645.85,-222.533 1647.8,-221.735"/>
<polygon fill="midnightblue" stroke="midnightblue" points="1649.6,-224.768 1657.39,-217.579 1646.82,-218.346 1649.6,-224.768"/>
</g>
<!-- Node7 -->
<g id="node7" class="node"><title>Node7</title>
<polygon fill="none" stroke="#bfbfbf" points="1145.5,-136.5 1145.5,-155.5 1216.5,-155.5 1216.5,-136.5 1145.5,-136.5"/>
<text text-anchor="middle" x="1181" y="-143.5" font-family="Helvetica,sans-Serif" font-size="10.00">FairLogger.h</text>
</g>
<!-- Node1&#45;&gt;Node7 -->
<g id="edge6" class="edge"><title>Node1&#45;&gt;Node7</title>
<path fill="none" stroke="midnightblue" d="M1364.84,-285.745C1313.37,-282.093 1241.94,-268.504 1199,-224 1184.07,-208.52 1180.67,-183.146 1180.28,-165.787"/>
<polygon fill="midnightblue" stroke="midnightblue" points="1183.78,-165.752 1180.37,-155.722 1176.78,-165.69 1183.78,-165.752"/>
</g>
<!-- Node8 -->
<g id="node8" class="node"><title>Node8</title>
<g id="a_node8"><a xlink:href="../../dd/da8/EMCAL_2base_2include_2EMCALBase_2Geometry_8h.html" target="_top" xlink:title="EMCALBase/Geometry.h">
<polygon fill="none" stroke="black" points="474,-198.5 474,-217.5 602,-217.5 602,-198.5 474,-198.5"/>
<text text-anchor="middle" x="538" y="-205.5" font-family="Helvetica,sans-Serif" font-size="10.00">EMCALBase/Geometry.h</text>
</a>
</g>
</g>
<!-- Node1&#45;&gt;Node8 -->
<g id="edge7" class="edge"><title>Node1&#45;&gt;Node8</title>
<path fill="none" stroke="midnightblue" d="M1364.84,-280.616C1205.66,-266.829 783.828,-230.292 612.203,-215.427"/>
<polygon fill="midnightblue" stroke="midnightblue" points="612.267,-211.92 602.003,-214.544 611.663,-218.893 612.267,-211.92"/>
</g>
<!-- Node31 -->
<g id="node31" class="node"><title>Node31</title>
<g id="a_node31"><a xlink:href="../../d8/d00/ShishKebabTrd1Module_8h.html" target="_top" xlink:title="EMCALBase/ShishKebabTrd1\lModule.h">
<polygon fill="none" stroke="black" points="1208.5,-193 1208.5,-223 1357.5,-223 1357.5,-193 1208.5,-193"/>
<text text-anchor="start" x="1216.5" y="-211" font-family="Helvetica,sans-Serif" font-size="10.00">EMCALBase/ShishKebabTrd1</text>
<text text-anchor="middle" x="1283" y="-200" font-family="Helvetica,sans-Serif" font-size="10.00">Module.h</text>
</a>
</g>
</g>
<!-- Node1&#45;&gt;Node31 -->
<g id="edge33" class="edge"><title>Node1&#45;&gt;Node31</title>
<path fill="none" stroke="midnightblue" d="M1379.85,-260.787C1359.78,-250.056 1336.78,-237.755 1318.23,-227.836"/>
<polygon fill="midnightblue" stroke="midnightblue" points="1319.71,-224.66 1309.24,-223.031 1316.41,-230.833 1319.71,-224.66"/>
</g>
<!-- Node35 -->
<g id="node35" class="node"><title>Node35</title>
<polygon fill="none" stroke="#bfbfbf" points="1717,-193 1717,-223 1827,-223 1827,-193 1717,-193"/>
<text text-anchor="start" x="1725" y="-211" font-family="Helvetica,sans-Serif" font-size="10.00">boost/algorithm/string</text>
<text text-anchor="middle" x="1772" y="-200" font-family="Helvetica,sans-Serif" font-size="10.00">/predicate.hpp</text>
</g>
<!-- Node1&#45;&gt;Node35 -->
<g id="edge40" class="edge"><title>Node1&#45;&gt;Node35</title>
<path fill="none" stroke="midnightblue" d="M1489.04,-272.429C1543.58,-260.459 1625.4,-242.413 1706.77,-224.041"/>
<polygon fill="midnightblue" stroke="midnightblue" points="1707.71,-227.418 1716.69,-221.799 1706.16,-220.59 1707.71,-227.418"/>
</g>
<!-- Node8&#45;&gt;Node5 -->
<g id="edge13" class="edge"><title>Node8&#45;&gt;Node5</title>
<path fill="none" stroke="midnightblue" d="M602.313,-203.293C670.434,-197.959 780.435,-185.301 871,-156 889.534,-150.004 891.289,-141.417 910,-136 1081.46,-86.362 1134.93,-134.818 1310,-100 1314.55,-99.0942 1319.29,-97.9173 1323.93,-96.621"/>
<polygon fill="midnightblue" stroke="midnightblue" points="1325.27,-99.8745 1333.84,-93.6516 1323.26,-93.169 1325.27,-99.8745"/>
</g>
<!-- Node9 -->
<g id="node9" class="node"><title>Node9</title>
<polygon fill="none" stroke="#bfbfbf" points="919.5,-136.5 919.5,-155.5 978.5,-155.5 978.5,-136.5 919.5,-136.5"/>
<text text-anchor="middle" x="949" y="-143.5" font-family="Helvetica,sans-Serif" font-size="10.00">exception</text>
</g>
<!-- Node8&#45;&gt;Node9 -->
<g id="edge8" class="edge"><title>Node8&#45;&gt;Node9</title>
<path fill="none" stroke="midnightblue" d="M602.168,-199.34C675.574,-190.286 799.279,-174.139 905,-156 906.441,-155.753 907.907,-155.493 909.386,-155.225"/>
<polygon fill="midnightblue" stroke="midnightblue" points="910.055,-158.661 919.226,-153.357 908.749,-151.784 910.055,-158.661"/>
</g>
<!-- Node10 -->
<g id="node10" class="node"><title>Node10</title>
<polygon fill="none" stroke="#bfbfbf" points="-0.5,-74.5 -0.5,-93.5 40.5,-93.5 40.5,-74.5 -0.5,-74.5"/>
<text text-anchor="middle" x="20" y="-81.5" font-family="Helvetica,sans-Serif" font-size="10.00">string</text>
</g>
<!-- Node8&#45;&gt;Node10 -->
<g id="edge9" class="edge"><title>Node8&#45;&gt;Node10</title>
<path fill="none" stroke="midnightblue" d="M473.518,-204.905C343.896,-200.072 61.3973,-186.17 30,-156 16.2895,-142.825 15.3803,-120.095 16.8771,-103.903"/>
<polygon fill="midnightblue" stroke="midnightblue" points="20.3545,-104.302 18.17,-93.9351 13.4127,-103.402 20.3545,-104.302"/>
</g>
<!-- Node11 -->
<g id="node11" class="node"><title>Node11</title>
<polygon fill="none" stroke="#bfbfbf" points="207,-136.5 207,-155.5 245,-155.5 245,-136.5 207,-136.5"/>
<text text-anchor="middle" x="226" y="-143.5" font-family="Helvetica,sans-Serif" font-size="10.00">tuple</text>
</g>
<!-- Node8&#45;&gt;Node11 -->
<g id="edge10" class="edge"><title>Node8&#45;&gt;Node11</title>
<path fill="none" stroke="midnightblue" d="M477.116,-198.471C421.528,-190.141 336.99,-176.115 255.148,-156.019"/>
<polygon fill="midnightblue" stroke="midnightblue" points="255.732,-152.557 245.183,-153.538 254.041,-159.35 255.732,-152.557"/>
</g>
<!-- Node12 -->
<g id="node12" class="node"><title>Node12</title>
<polygon fill="none" stroke="#bfbfbf" points="263,-136.5 263,-155.5 307,-155.5 307,-136.5 263,-136.5"/>
<text text-anchor="middle" x="285" y="-143.5" font-family="Helvetica,sans-Serif" font-size="10.00">vector</text>
</g>
<!-- Node8&#45;&gt;Node12 -->
<g id="edge11" class="edge"><title>Node8&#45;&gt;Node12</title>
<path fill="none" stroke="midnightblue" d="M497.728,-198.468C455.126,-189.283 385.74,-173.871 317.001,-156.155"/>
<polygon fill="midnightblue" stroke="midnightblue" points="317.868,-152.764 307.309,-153.641 316.11,-159.54 317.868,-152.764"/>
</g>
<!-- Node13 -->
<g id="node13" class="node"><title>Node13</title>
<polygon fill="none" stroke="#bfbfbf" points="325,-136.5 325,-155.5 405,-155.5 405,-136.5 325,-136.5"/>
<text text-anchor="middle" x="365" y="-143.5" font-family="Helvetica,sans-Serif" font-size="10.00">RStringView.h</text>
</g>
<!-- Node8&#45;&gt;Node13 -->
<g id="edge12" class="edge"><title>Node8&#45;&gt;Node13</title>
<path fill="none" stroke="midnightblue" d="M513.213,-198.403C483.409,-188.067 433.209,-170.656 399.598,-158.999"/>
<polygon fill="midnightblue" stroke="midnightblue" points="400.335,-155.551 389.741,-155.581 398.042,-162.164 400.335,-155.551"/>
</g>
<!-- Node14 -->
<g id="node14" class="node"><title>Node14</title>
<polygon fill="none" stroke="#bfbfbf" points="997,-136.5 997,-155.5 1059,-155.5 1059,-136.5 997,-136.5"/>
<text text-anchor="middle" x="1028" y="-143.5" font-family="Helvetica,sans-Serif" font-size="10.00">TNamed.h</text>
</g>
<!-- Node8&#45;&gt;Node14 -->
<g id="edge14" class="edge"><title>Node8&#45;&gt;Node14</title>
<path fill="none" stroke="midnightblue" d="M602.233,-201.8C687.597,-194.422 843.276,-179.352 986.44,-155.915"/>
<polygon fill="midnightblue" stroke="midnightblue" points="987.431,-159.299 996.725,-154.213 986.288,-152.392 987.431,-159.299"/>
</g>
<!-- Node15 -->
<g id="node15" class="node"><title>Node15</title>
<polygon fill="none" stroke="#bfbfbf" points="423,-136.5 423,-155.5 487,-155.5 487,-136.5 423,-136.5"/>
<text text-anchor="middle" x="455" y="-143.5" font-family="Helvetica,sans-Serif" font-size="10.00">TParticle.h</text>
</g>
<!-- Node8&#45;&gt;Node15 -->
<g id="edge15" class="edge"><title>Node8&#45;&gt;Node15</title>
<path fill="none" stroke="midnightblue" d="M526.108,-198.403C512.795,-188.78 491,-173.024 475.043,-161.489"/>
<polygon fill="midnightblue" stroke="midnightblue" points="477.025,-158.603 466.87,-155.581 472.924,-164.276 477.025,-158.603"/>
</g>
<!-- Node16 -->
<g id="node16" class="node"><title>Node16</title>
<polygon fill="none" stroke="#bfbfbf" points="505.5,-136.5 505.5,-155.5 570.5,-155.5 570.5,-136.5 505.5,-136.5"/>
<text text-anchor="middle" x="538" y="-143.5" font-family="Helvetica,sans-Serif" font-size="10.00">TVector3.h</text>
</g>
<!-- Node8&#45;&gt;Node16 -->
<g id="edge16" class="edge"><title>Node8&#45;&gt;Node16</title>
<path fill="none" stroke="midnightblue" d="M538,-198.403C538,-189.938 538,-176.728 538,-165.82"/>
<polygon fill="midnightblue" stroke="midnightblue" points="541.5,-165.581 538,-155.581 534.5,-165.581 541.5,-165.581"/>
</g>
<!-- Node17 -->
<g id="node17" class="node"><title>Node17</title>
<g id="a_node17"><a xlink:href="../../d7/dd4/EMCAL_2base_2include_2EMCALBase_2Constants_8h.html" target="_top" xlink:title="EMCALBase/Constants.h">
<polygon fill="none" stroke="black" points="589,-136.5 589,-155.5 719,-155.5 719,-136.5 589,-136.5"/>
<text text-anchor="middle" x="654" y="-143.5" font-family="Helvetica,sans-Serif" font-size="10.00">EMCALBase/Constants.h</text>
</a>
</g>
</g>
<!-- Node8&#45;&gt;Node17 -->
<g id="edge17" class="edge"><title>Node8&#45;&gt;Node17</title>
<path fill="none" stroke="midnightblue" d="M554.62,-198.403C573.915,-188.423 605.959,-171.849 628.431,-160.225"/>
<polygon fill="midnightblue" stroke="midnightblue" points="630.137,-163.284 637.411,-155.581 626.921,-157.066 630.137,-163.284"/>
</g>
<!-- Node18 -->
<g id="node18" class="node"><title>Node18</title>
<g id="a_node18"><a xlink:href="../../d5/d5e/GeometryBase_8h.html" target="_top" xlink:title="EMCALBase/GeometryBase.h">
<polygon fill="none" stroke="black" points="39,-136.5 39,-155.5 189,-155.5 189,-136.5 39,-136.5"/>
<text text-anchor="middle" x="114" y="-143.5" font-family="Helvetica,sans-Serif" font-size="10.00">EMCALBase/GeometryBase.h</text>
</a>
</g>
</g>
<!-- Node8&#45;&gt;Node18 -->
<g id="edge18" class="edge"><title>Node8&#45;&gt;Node18</title>
<path fill="none" stroke="midnightblue" d="M477.701,-198.467C400.226,-187.504 265.988,-168.508 184.061,-156.914"/>
<polygon fill="midnightblue" stroke="midnightblue" points="184.482,-153.439 174.091,-155.503 183.502,-160.37 184.482,-153.439"/>
</g>
<!-- Node20 -->
<g id="node20" class="node"><title>Node20</title>
<g id="a_node20"><a xlink:href="../../dd/d76/Cartesian3D_8h.html" target="_top" xlink:title="MathUtils/Cartesian3D.h">
<polygon fill="none" stroke="black" points="737.5,-136.5 737.5,-155.5 862.5,-155.5 862.5,-136.5 737.5,-136.5"/>
<text text-anchor="middle" x="800" y="-143.5" font-family="Helvetica,sans-Serif" font-size="10.00">MathUtils/Cartesian3D.h</text>
</a>
</g>
</g>
<!-- Node8&#45;&gt;Node20 -->
<g id="edge21" class="edge"><title>Node8&#45;&gt;Node20</title>
<path fill="none" stroke="midnightblue" d="M575.26,-198.467C622.014,-187.76 702.221,-169.392 753.102,-157.74"/>
<polygon fill="midnightblue" stroke="midnightblue" points="753.902,-161.147 762.869,-155.503 752.34,-154.324 753.902,-161.147"/>
</g>
<!-- Node18&#45;&gt;Node10 -->
<g id="edge20" class="edge"><title>Node18&#45;&gt;Node10</title>
<path fill="none" stroke="midnightblue" d="M100.532,-136.403C85.3152,-126.691 60.3133,-110.732 42.1992,-99.1697"/>
<polygon fill="midnightblue" stroke="midnightblue" points="43.7553,-96.0108 33.4429,-93.5806 39.989,-101.911 43.7553,-96.0108"/>
</g>
<!-- Node19 -->
<g id="node19" class="node"><title>Node19</title>
<polygon fill="none" stroke="#bfbfbf" points="78,-74.5 78,-93.5 130,-93.5 130,-74.5 78,-74.5"/>
<text text-anchor="middle" x="104" y="-81.5" font-family="Helvetica,sans-Serif" font-size="10.00">sstream</text>
</g>
<!-- Node18&#45;&gt;Node19 -->
<g id="edge19" class="edge"><title>Node18&#45;&gt;Node19</title>
<path fill="none" stroke="midnightblue" d="M112.567,-136.403C111.141,-127.849 108.908,-114.45 107.079,-103.476"/>
<polygon fill="midnightblue" stroke="midnightblue" points="110.527,-102.869 105.43,-93.5806 103.622,-104.02 110.527,-102.869"/>
</g>
<!-- Node20&#45;&gt;Node5 -->
<g id="edge26" class="edge"><title>Node20&#45;&gt;Node5</title>
<path fill="none" stroke="midnightblue" d="M862.596,-137.506C867.468,-136.977 872.313,-136.469 877,-136 1069.15,-116.788 1120.47,-137.023 1310,-100 1314.78,-99.0658 1319.76,-97.8259 1324.62,-96.4581"/>
<polygon fill="midnightblue" stroke="midnightblue" points="1325.78,-99.7663 1334.34,-93.5277 1323.75,-93.0645 1325.78,-99.7663"/>
</g>
<!-- Node21 -->
<g id="node21" class="node"><title>Node21</title>
<polygon fill="none" stroke="#bfbfbf" points="1152.5,-74.5 1152.5,-93.5 1301.5,-93.5 1301.5,-74.5 1152.5,-74.5"/>
<text text-anchor="middle" x="1227" y="-81.5" font-family="Helvetica,sans-Serif" font-size="10.00">Math/GenVector/Rotation3D.h</text>
</g>
<!-- Node20&#45;&gt;Node21 -->
<g id="edge22" class="edge"><title>Node20&#45;&gt;Node21</title>
<path fill="none" stroke="midnightblue" d="M862.656,-137.176C946.638,-126.624 1091.26,-108.211 1144,-100 1153.03,-98.594 1162.59,-96.9818 1171.89,-95.3476"/>
<polygon fill="midnightblue" stroke="midnightblue" points="1172.61,-98.7753 1181.84,-93.5744 1171.38,-91.8839 1172.61,-98.7753"/>
</g>
<!-- Node22 -->
<g id="node22" class="node"><title>Node22</title>
<polygon fill="none" stroke="#bfbfbf" points="148,-74.5 148,-93.5 304,-93.5 304,-74.5 148,-74.5"/>
<text text-anchor="middle" x="226" y="-81.5" font-family="Helvetica,sans-Serif" font-size="10.00">Math/GenVector/Transform3D.h</text>
</g>
<!-- Node20&#45;&gt;Node22 -->
<g id="edge23" class="edge"><title>Node20&#45;&gt;Node22</title>
<path fill="none" stroke="midnightblue" d="M737.188,-137.006C734.082,-136.656 731.007,-136.318 728,-136 543.891,-116.515 496.608,-123.749 313,-100 302.633,-98.659 291.615,-96.9679 281.028,-95.2084"/>
<polygon fill="midnightblue" stroke="midnightblue" points="281.491,-91.7369 271.045,-93.5096 280.317,-98.6377 281.491,-91.7369"/>
</g>
<!-- Node23 -->
<g id="node23" class="node"><title>Node23</title>
<polygon fill="none" stroke="#bfbfbf" points="322,-74.5 322,-93.5 482,-93.5 482,-74.5 322,-74.5"/>
<text text-anchor="middle" x="402" y="-81.5" font-family="Helvetica,sans-Serif" font-size="10.00">Math/GenVector/Translation3D.h</text>
</g>
<!-- Node20&#45;&gt;Node23 -->
<g id="edge24" class="edge"><title>Node20&#45;&gt;Node23</title>
<path fill="none" stroke="midnightblue" d="M738.672,-136.481C676.28,-127.717 576.822,-113.48 491,-100 481.464,-98.5023 471.364,-96.8568 461.524,-95.2214"/>
<polygon fill="midnightblue" stroke="midnightblue" points="461.838,-91.7254 451.398,-93.5274 460.683,-98.6295 461.838,-91.7254"/>
</g>
<!-- Node24 -->
<g id="node24" class="node"><title>Node24</title>
<polygon fill="none" stroke="#bfbfbf" points="500,-74.5 500,-93.5 556,-93.5 556,-74.5 500,-74.5"/>
<text text-anchor="middle" x="528" y="-81.5" font-family="Helvetica,sans-Serif" font-size="10.00">Rtypes.h</text>
</g>
<!-- Node20&#45;&gt;Node24 -->
<g id="edge25" class="edge"><title>Node20&#45;&gt;Node24</title>
<path fill="none" stroke="midnightblue" d="M737.358,-136.426C689.552,-129.064 622.368,-116.943 565,-100 562.196,-99.1717 559.311,-98.2091 556.448,-97.1789"/>
<polygon fill="midnightblue" stroke="midnightblue" points="557.539,-93.8484 546.949,-93.5128 555.018,-100.379 557.539,-93.8484"/>
</g>
<!-- Node25 -->
<g id="node25" class="node"><title>Node25</title>
<polygon fill="none" stroke="#bfbfbf" points="574.5,-69 574.5,-99 725.5,-99 725.5,-69 574.5,-69"/>
<text text-anchor="start" x="582.5" y="-87" font-family="Helvetica,sans-Serif" font-size="10.00">Math/GenVector/Displacement</text>
<text text-anchor="middle" x="650" y="-76" font-family="Helvetica,sans-Serif" font-size="10.00">Vector3D.h</text>
</g>
<!-- Node20&#45;&gt;Node25 -->
<g id="edge27" class="edge"><title>Node20&#45;&gt;Node25</title>
<path fill="none" stroke="midnightblue" d="M778.509,-136.403C756.697,-127.679 722.286,-113.914 694.56,-102.824"/>
<polygon fill="midnightblue" stroke="midnightblue" points="695.648,-99.4896 685.063,-99.0253 693.048,-105.989 695.648,-99.4896"/>
</g>
<!-- Node26 -->
<g id="node26" class="node"><title>Node26</title>
<polygon fill="none" stroke="#bfbfbf" points="744,-74.5 744,-93.5 920,-93.5 920,-74.5 744,-74.5"/>
<text text-anchor="middle" x="832" y="-81.5" font-family="Helvetica,sans-Serif" font-size="10.00">Math/GenVector/PositionVector3D.h</text>
</g>
<!-- Node20&#45;&gt;Node26 -->
<g id="edge28" class="edge"><title>Node20&#45;&gt;Node26</title>
<path fill="none" stroke="midnightblue" d="M804.585,-136.403C809.29,-127.582 816.743,-113.608 822.691,-102.455"/>
<polygon fill="midnightblue" stroke="midnightblue" points="825.806,-104.051 827.424,-93.5806 819.63,-100.757 825.806,-104.051"/>
</g>
<!-- Node27 -->
<g id="node27" class="node"><title>Node27</title>
<g id="a_node27"><a xlink:href="../../d2/dd0/Cartesian2D_8h.html" target="_top" xlink:title="MathUtils/Cartesian2D.h">
<polygon fill="none" stroke="black" points="937.5,-74.5 937.5,-93.5 1062.5,-93.5 1062.5,-74.5 937.5,-74.5"/>
<text text-anchor="middle" x="1000" y="-81.5" font-family="Helvetica,sans-Serif" font-size="10.00">MathUtils/Cartesian2D.h</text>
</a>
</g>
</g>
<!-- Node20&#45;&gt;Node27 -->
<g id="edge29" class="edge"><title>Node20&#45;&gt;Node27</title>
<path fill="none" stroke="midnightblue" d="M828.655,-136.403C863.556,-125.933 922.65,-108.205 961.5,-96.5501"/>
<polygon fill="midnightblue" stroke="midnightblue" points="962.826,-99.8065 971.398,-93.5806 960.814,-93.1017 962.826,-99.8065"/>
</g>
<!-- Node30 -->
<g id="node30" class="node"><title>Node30</title>
<polygon fill="none" stroke="#bfbfbf" points="1081,-74.5 1081,-93.5 1135,-93.5 1135,-74.5 1081,-74.5"/>
<text text-anchor="middle" x="1108" y="-81.5" font-family="Helvetica,sans-Serif" font-size="10.00">iostream</text>
</g>
<!-- Node20&#45;&gt;Node30 -->
<g id="edge32" class="edge"><title>Node20&#45;&gt;Node30</title>
<path fill="none" stroke="midnightblue" d="M860.986,-136.471C928.404,-126.76 1032.56,-110.841 1071,-100 1073.81,-99.2064 1076.71,-98.2669 1079.57,-97.2513"/>
<polygon fill="midnightblue" stroke="midnightblue" points="1080.99,-100.455 1089.08,-93.606 1078.49,-93.9192 1080.99,-100.455"/>
</g>
<!-- Node28 -->
<g id="node28" class="node"><title>Node28</title>
<polygon fill="none" stroke="#bfbfbf" points="833.5,-1 833.5,-31 984.5,-31 984.5,-1 833.5,-1"/>
<text text-anchor="start" x="841.5" y="-19" font-family="Helvetica,sans-Serif" font-size="10.00">Math/GenVector/Displacement</text>
<text text-anchor="middle" x="909" y="-8" font-family="Helvetica,sans-Serif" font-size="10.00">Vector2D.h</text>
</g>
<!-- Node27&#45;&gt;Node28 -->
<g id="edge30" class="edge"><title>Node27&#45;&gt;Node28</title>
<path fill="none" stroke="midnightblue" d="M988.103,-74.3717C975.221,-65.0286 954.22,-49.7966 937.093,-37.375"/>
<polygon fill="midnightblue" stroke="midnightblue" points="938.703,-34.2194 928.553,-31.1815 934.593,-39.8859 938.703,-34.2194"/>
</g>
<!-- Node29 -->
<g id="node29" class="node"><title>Node29</title>
<polygon fill="none" stroke="#bfbfbf" points="1003,-6.5 1003,-25.5 1179,-25.5 1179,-6.5 1003,-6.5"/>
<text text-anchor="middle" x="1091" y="-13.5" font-family="Helvetica,sans-Serif" font-size="10.00">Math/GenVector/PositionVector2D.h</text>
</g>
<!-- Node27&#45;&gt;Node29 -->
<g id="edge31" class="edge"><title>Node27&#45;&gt;Node29</title>
<path fill="none" stroke="midnightblue" d="M1011.9,-74.3717C1026.88,-63.5015 1052.86,-44.6602 1070.94,-31.5474"/>
<polygon fill="midnightblue" stroke="midnightblue" points="1073.06,-34.3349 1079.1,-25.6305 1068.95,-28.6684 1073.06,-34.3349"/>
</g>
<!-- Node31&#45;&gt;Node2 -->
<g id="edge34" class="edge"><title>Node31&#45;&gt;Node2</title>
<path fill="none" stroke="midnightblue" d="M1240.56,-192.933C1208.93,-182.445 1166.25,-168.299 1136.66,-158.488"/>
<polygon fill="midnightblue" stroke="midnightblue" points="1137.75,-155.163 1127.16,-155.339 1135.55,-161.808 1137.75,-155.163"/>
</g>
<!-- Node31&#45;&gt;Node7 -->
<g id="edge39" class="edge"><title>Node31&#45;&gt;Node7</title>
<path fill="none" stroke="midnightblue" d="M1259.09,-192.933C1242.65,-183.262 1220.91,-170.479 1204.55,-160.855"/>
<polygon fill="midnightblue" stroke="midnightblue" points="1206.01,-157.654 1195.62,-155.6 1202.46,-163.687 1206.01,-157.654"/>
</g>
<!-- Node31&#45;&gt;Node14 -->
<g id="edge37" class="edge"><title>Node31&#45;&gt;Node14</title>
<path fill="none" stroke="midnightblue" d="M1223.21,-192.933C1175.75,-181.765 1110.65,-166.448 1068.95,-156.636"/>
<polygon fill="midnightblue" stroke="midnightblue" points="1069.67,-153.21 1059.14,-154.326 1068.07,-160.024 1069.67,-153.21"/>
</g>
<!-- Node32 -->
<g id="node32" class="node"><title>Node32</title>
<polygon fill="none" stroke="#bfbfbf" points="1318,-136.5 1318,-155.5 1370,-155.5 1370,-136.5 1318,-136.5"/>
<text text-anchor="middle" x="1344" y="-143.5" font-family="Helvetica,sans-Serif" font-size="10.00">memory</text>
</g>
<!-- Node31&#45;&gt;Node32 -->
<g id="edge35" class="edge"><title>Node31&#45;&gt;Node32</title>
<path fill="none" stroke="midnightblue" d="M1297.46,-192.781C1306.59,-183.792 1318.42,-172.162 1327.86,-162.873"/>
<polygon fill="midnightblue" stroke="midnightblue" points="1330.45,-165.238 1335.12,-155.731 1325.54,-160.248 1330.45,-165.238"/>
</g>
<!-- Node33 -->
<g id="node33" class="node"><title>Node33</title>
<polygon fill="none" stroke="#bfbfbf" points="1388.5,-136.5 1388.5,-155.5 1441.5,-155.5 1441.5,-136.5 1388.5,-136.5"/>
<text text-anchor="middle" x="1415" y="-143.5" font-family="Helvetica,sans-Serif" font-size="10.00">TMath.h</text>
</g>
<!-- Node31&#45;&gt;Node33 -->
<g id="edge36" class="edge"><title>Node31&#45;&gt;Node33</title>
<path fill="none" stroke="midnightblue" d="M1313.95,-192.933C1336.02,-182.9 1365.46,-169.519 1386.86,-159.789"/>
<polygon fill="midnightblue" stroke="midnightblue" points="1388.42,-162.924 1396.08,-155.6 1385.53,-156.552 1388.42,-162.924"/>
</g>
<!-- Node34 -->
<g id="node34" class="node"><title>Node34</title>
<polygon fill="none" stroke="#bfbfbf" points="1234.5,-136.5 1234.5,-155.5 1299.5,-155.5 1299.5,-136.5 1234.5,-136.5"/>
<text text-anchor="middle" x="1267" y="-143.5" font-family="Helvetica,sans-Serif" font-size="10.00">TVector2.h</text>
</g>
<!-- Node31&#45;&gt;Node34 -->
<g id="edge38" class="edge"><title>Node31&#45;&gt;Node34</title>
<path fill="none" stroke="midnightblue" d="M1279.21,-192.781C1277.03,-184.601 1274.26,-174.234 1271.92,-165.434"/>
<polygon fill="midnightblue" stroke="midnightblue" points="1275.29,-164.491 1269.33,-155.731 1268.52,-166.295 1275.29,-164.491"/>
</g>
</g>
</svg>
        <g id="navigator" transform="translate(0 0)" fill="#404254">
                <rect fill="#f2f5e9" fill-opacity="0.5" stroke="#606060" stroke-width=".5" x="0" y="0" width="60" height="60"/>
                <use id="zoomplus" xlink:href="#zoomPlus" x="17" y="9" onmousedown="handleZoom(evt,'in')"/>
                <use id="zoomminus" xlink:href="#zoomMin" x="42" y="9" onmousedown="handleZoom(evt,'out')"/>
                <use id="reset" xlink:href="#resetDef" x="30" y="36" onmousedown="handleReset()"/>
                <g id="arrowUp" xlink:href="#dirArrow" transform="translate(30 24)" onmousedown="handlePan(0,-1)">
                  <use xlink:href="#rim" fill="#404040">
                        <set attributeName="fill" to="#808080" begin="arrowUp.mouseover" end="arrowUp.mouseout"/>
                  </use>
                  <path fill="none" stroke="white" stroke-width="1.5" d="M0,-3.0v7 M-2.5,-0.5L0,-3.0L2.5,-0.5"/>
                </g>
                <g id="arrowRight" xlink:href="#dirArrow" transform="rotate(90) translate(36 -43)" onmousedown="handlePan(1,0)">
                  <use xlink:href="#rim" fill="#404040">
                        <set attributeName="fill" to="#808080" begin="arrowRight.mouseover" end="arrowRight.mouseout"/>
                  </use>
                  <path fill="none" stroke="white" stroke-width="1.5" d="M0,-3.0v7 M-2.5,-0.5L0,-3.0L2.5,-0.5"/>
                </g>
                <g id="arrowDown" xlink:href="#dirArrow" transform="rotate(180) translate(-30 -48)" onmousedown="handlePan(0,1)">
                  <use xlink:href="#rim" fill="#404040">
                        <set attributeName="fill" to="#808080" begin="arrowDown.mouseover" end="arrowDown.mouseout"/>
                  </use>
                  <path fill="none" stroke="white" stroke-width="1.5" d="M0,-3.0v7 M-2.5,-0.5L0,-3.0L2.5,-0.5"/>
                </g>
                <g id="arrowLeft" xlink:href="#dirArrow" transform="rotate(270) translate(-36 17)" onmousedown="handlePan(-1,0)">
                  <use xlink:href="#rim" fill="#404040">
                        <set attributeName="fill" to="#808080" begin="arrowLeft.mouseover" end="arrowLeft.mouseout"/>
                  </use>
                  <path fill="none" stroke="white" stroke-width="1.5" d="M0,-3.0v7 M-2.5,-0.5L0,-3.0L2.5,-0.5"/>
                </g>
        </g>
        <svg viewBox="0 0 15 15" width="100%" height="30px" preserveAspectRatio="xMaxYMin meet">
         <g id="arrow_out" transform="scale(0.3 0.3)">
          <a xlink:href="EMCAL_2base_2src_2Geometry_8cxx__incl_org.svg" target="_base">
           <rect id="button" ry="5" rx="5" y="6" x="6" height="38" width="38"
                fill="#f2f5e9" fill-opacity="0.5" stroke="#606060" stroke-width="1.0"/>
           <path id="arrow"
             d="M 11.500037,31.436501 C 11.940474,20.09759 22.043105,11.32322 32.158766,21.979434 L 37.068811,17.246167 C 37.068811,17.246167 37.088388,32 37.088388,32 L 22.160133,31.978069 C 22.160133,31.978069 26.997745,27.140456 26.997745,27.140456 C 18.528582,18.264221 13.291696,25.230495 11.500037,31.436501 z"
             style="fill:#404040;"/>
          </a>
         </g>
        </svg>
</svg>
