<?xml version="1.0" encoding="UTF-8" standalone="no"?>
<!DOCTYPE svg PUBLIC "-//W3C//DTD SVG 1.1//EN"
 "http://www.w3.org/Graphics/SVG/1.1/DTD/svg11.dtd">
<!-- Generated by graphviz version 2.36.0 (20140111.2315)
 -->
<!-- Title: /home/travis/build/AliceO2Group/AliceO2/Utilities/DataFlow/src/TimeframeReaderDevice.cxx Pages: 1 -->
<!--zoomable 298 -->
<svg id="main" version="1.1" xmlns="http://www.w3.org/2000/svg" xmlns:xlink="http://www.w3.org/1999/xlink" xml:space="preserve" onload="init(evt)">
<style type="text/css"><![CDATA[
.edge:hover path { stroke: red; }
.edge:hover polygon { stroke: red; fill: red; }
]]></style>
<script type="text/javascript"><![CDATA[
var edges = document.getElementsByTagName('g');
if (edges && edges.length) {
  for (var i=0;i<edges.length;i++) {
    if (edges[i].id.substr(0,4)=='edge') {
      edges[i].setAttribute('class','edge');
    }
  }
}
]]></script>
        <defs>
                <circle id="rim" cx="0" cy="0" r="7"/>
                <circle id="rim2" cx="0" cy="0" r="3.5"/>
                <g id="zoomPlus">
                        <use xlink:href="#rim" fill="#404040">
                                <set attributeName="fill" to="#808080" begin="zoomplus.mouseover" end="zoomplus.mouseout"/>
                        </use>
                        <path d="M-4,0h8M0,-4v8" fill="none" stroke="white" stroke-width="1.5" pointer-events="none"/>
                </g>
                <g id="zoomMin">
                        <use xlink:href="#rim" fill="#404040">
                                <set attributeName="fill" to="#808080" begin="zoomminus.mouseover" end="zoomminus.mouseout"/>
                        </use>
                        <path d="M-4,0h8" fill="none" stroke="white" stroke-width="1.5" pointer-events="none"/>
                </g>
                <g id="dirArrow">
                        <path fill="none" stroke="white" stroke-width="1.5" d="M0,-3.0v7 M-2.5,-0.5L0,-3.0L2.5,-0.5"/>
                </g>
               <g id="resetDef">
                       <use xlink:href="#rim2" fill="#404040">
                               <set attributeName="fill" to="#808080" begin="reset.mouseover" end="reset.mouseout"/>
                       </use>
               </g>
        </defs>

<script type="text/javascript">
var viewWidth = 764;
var viewHeight = 298;
var sectionId = 'dynsection-0';
</script>
<script xlink:href="../../svgpan.js"/>
<svg id="graph" class="graph">
<g id="viewport">
<title>/home/travis/build/AliceO2Group/AliceO2/Utilities/DataFlow/src/TimeframeReaderDevice.cxx</title>
<!-- Node1 -->
<g id="node1" class="node"><title>Node1</title>
<polygon fill="#bfbfbf" stroke="black" points="229.849,-237 229.849,-289 376.849,-289 376.849,-237 229.849,-237"/>
<text text-anchor="start" x="237.849" y="-277" font-family="Helvetica,sans-Serif" font-size="10.00">/home/travis/build</text>
<text text-anchor="start" x="237.849" y="-266" font-family="Helvetica,sans-Serif" font-size="10.00">/AliceO2Group/AliceO2</text>
<text text-anchor="start" x="237.849" y="-255" font-family="Helvetica,sans-Serif" font-size="10.00">/Utilities/DataFlow/src</text>
<text text-anchor="middle" x="303.349" y="-244" font-family="Helvetica,sans-Serif" font-size="10.00">/TimeframeReaderDevice.cxx</text>
</g>
<!-- Node2 -->
<g id="node2" class="node"><title>Node2</title>
<polygon fill="none" stroke="#bfbfbf" points="29.3491,-0.5 29.3491,-19.5 75.3491,-19.5 75.3491,-0.5 29.3491,-0.5"/>
<text text-anchor="middle" x="52.3491" y="-7.5" font-family="Helvetica,sans-Serif" font-size="10.00">cstring</text>
</g>
<!-- Node1&#45;&gt;Node2 -->
<g id="edge1" class="edge"><title>Node1&#45;&gt;Node2</title>
<path fill="none" stroke="midnightblue" d="M229.773,-255.485C182.23,-248.194 121.11,-232.743 76.3491,-200 24.5499,-162.109 17.9724,-138.248 2.34914,-76 0.185279,-67.3785 -1.26721,-64.12 2.34914,-56 7.91702,-43.4981 18.8647,-33.0124 29.1002,-25.3167"/>
<polygon fill="midnightblue" stroke="midnightblue" points="31.2,-28.1193 37.3967,-19.5256 27.1934,-22.3794 31.2,-28.1193"/>
</g>
<!-- Node3 -->
<g id="node3" class="node"><title>Node3</title>
<g id="a_node3"><a xlink:href="../../da/d74/TimeframeReaderDevice_8h.html" target="_top" xlink:title="DataFlow/TimeframeReader\lDevice.h">
<polygon fill="none" stroke="black" points="85.3491,-169 85.3491,-199 225.349,-199 225.349,-169 85.3491,-169"/>
<text text-anchor="start" x="93.3491" y="-187" font-family="Helvetica,sans-Serif" font-size="10.00">DataFlow/TimeframeReader</text>
<text text-anchor="middle" x="155.349" y="-176" font-family="Helvetica,sans-Serif" font-size="10.00">Device.h</text>
</a>
</g>
</g>
<!-- Node1&#45;&gt;Node3 -->
<g id="edge2" class="edge"><title>Node1&#45;&gt;Node3</title>
<path fill="none" stroke="midnightblue" d="M254.888,-236.787C234.168,-226.007 210.403,-213.643 191.292,-203.7"/>
<polygon fill="midnightblue" stroke="midnightblue" points="192.804,-200.541 182.317,-199.031 189.573,-206.751 192.804,-200.541"/>
</g>
<!-- Node6 -->
<g id="node6" class="node"><title>Node6</title>
<g id="a_node6"><a xlink:href="../../dc/dcd/DataHeader_8h.html" target="_top" xlink:title="Headers/DataHeader.h">
<polygon fill="none" stroke="black" points="194.849,-56.5 194.849,-75.5 311.849,-75.5 311.849,-56.5 194.849,-56.5"/>
<text text-anchor="middle" x="253.349" y="-63.5" font-family="Helvetica,sans-Serif" font-size="10.00">Headers/DataHeader.h</text>
</a>
</g>
</g>
<!-- Node1&#45;&gt;Node6 -->
<g id="edge18" class="edge"><title>Node1&#45;&gt;Node6</title>
<path fill="none" stroke="midnightblue" d="M288.453,-236.834C282.575,-225.86 276.296,-212.636 272.349,-200 259.99,-160.437 255.634,-111.714 254.126,-85.6107"/>
<polygon fill="midnightblue" stroke="midnightblue" points="257.621,-85.4245 253.626,-75.6115 250.63,-85.7737 257.621,-85.4245"/>
</g>
<!-- Node13 -->
<g id="node13" class="node"><title>Node13</title>
<g id="a_node13"><a xlink:href="../../dd/ddb/TimeframeParser_8h.html" target="_top" xlink:title="DataFlow/TimeframeParser.h">
<polygon fill="none" stroke="black" points="281.849,-174.5 281.849,-193.5 426.849,-193.5 426.849,-174.5 281.849,-174.5"/>
<text text-anchor="middle" x="354.349" y="-181.5" font-family="Helvetica,sans-Serif" font-size="10.00">DataFlow/TimeframeParser.h</text>
</a>
</g>
</g>
<!-- Node1&#45;&gt;Node13 -->
<g id="edge13" class="edge"><title>Node1&#45;&gt;Node13</title>
<path fill="none" stroke="midnightblue" d="M320.048,-236.787C327.611,-225.37 336.35,-212.176 343.114,-201.962"/>
<polygon fill="midnightblue" stroke="midnightblue" points="346.077,-203.828 348.681,-193.558 340.241,-199.962 346.077,-203.828"/>
</g>
<!-- Node16 -->
<g id="node16" class="node"><title>Node16</title>
<g id="a_node16"><a xlink:href="../../d2/d1b/SubframeMetadata_8h.html" target="_top" xlink:title="Headers/SubframeMetadata.h">
<polygon fill="none" stroke="black" points="444.849,-174.5 444.849,-193.5 591.849,-193.5 591.849,-174.5 444.849,-174.5"/>
<text text-anchor="middle" x="518.349" y="-181.5" font-family="Helvetica,sans-Serif" font-size="10.00">Headers/SubframeMetadata.h</text>
</a>
</g>
</g>
<!-- Node1&#45;&gt;Node16 -->
<g id="edge16" class="edge"><title>Node1&#45;&gt;Node16</title>
<path fill="none" stroke="midnightblue" d="M373.451,-236.894C410.883,-223.488 455.227,-207.607 484.911,-196.975"/>
<polygon fill="midnightblue" stroke="midnightblue" points="486.15,-200.249 494.385,-193.583 483.79,-193.659 486.15,-200.249"/>
</g>
<!-- Node18 -->
<g id="node18" class="node"><title>Node18</title>
<polygon fill="none" stroke="#bfbfbf" points="610.349,-174.5 610.349,-193.5 756.349,-193.5 756.349,-174.5 610.349,-174.5"/>
<text text-anchor="middle" x="683.349" y="-181.5" font-family="Helvetica,sans-Serif" font-size="10.00">options/FairMQProgOptions.h</text>
</g>
<!-- Node1&#45;&gt;Node18 -->
<g id="edge19" class="edge"><title>Node1&#45;&gt;Node18</title>
<path fill="none" stroke="midnightblue" d="M377.068,-247.062C451.743,-231.931 565.358,-208.909 631.183,-195.57"/>
<polygon fill="midnightblue" stroke="midnightblue" points="632.219,-198.932 641.324,-193.516 630.828,-192.071 632.219,-198.932"/>
</g>
<!-- Node4 -->
<g id="node4" class="node"><title>Node4</title>
<g id="a_node4"><a xlink:href="../../d2/dee/O2Device_8h.html" target="_top" xlink:title="O2Device/O2Device.h">
<polygon fill="none" stroke="black" points="41.8491,-112.5 41.8491,-131.5 156.849,-131.5 156.849,-112.5 41.8491,-112.5"/>
<text text-anchor="middle" x="99.3491" y="-119.5" font-family="Helvetica,sans-Serif" font-size="10.00">O2Device/O2Device.h</text>
</a>
</g>
</g>
<!-- Node3&#45;&gt;Node4 -->
<g id="edge3" class="edge"><title>Node3&#45;&gt;Node4</title>
<path fill="none" stroke="midnightblue" d="M142.078,-168.781C133.773,-159.882 123.051,-148.394 114.425,-139.152"/>
<polygon fill="midnightblue" stroke="midnightblue" points="116.88,-136.653 107.498,-131.731 111.762,-141.429 116.88,-136.653"/>
</g>
<!-- Node12 -->
<g id="node12" class="node"><title>Node12</title>
<polygon fill="none" stroke="#bfbfbf" points="175.349,-112.5 175.349,-131.5 225.349,-131.5 225.349,-112.5 175.349,-112.5"/>
<text text-anchor="middle" x="200.349" y="-119.5" font-family="Helvetica,sans-Serif" font-size="10.00">fstream</text>
</g>
<!-- Node3&#45;&gt;Node12 -->
<g id="edge12" class="edge"><title>Node3&#45;&gt;Node12</title>
<path fill="none" stroke="midnightblue" d="M166.014,-168.781C172.485,-160.152 180.783,-149.088 187.6,-139.999"/>
<polygon fill="midnightblue" stroke="midnightblue" points="190.601,-141.831 193.801,-131.731 185.001,-137.631 190.601,-141.831"/>
</g>
<!-- Node5 -->
<g id="node5" class="node"><title>Node5</title>
<polygon fill="none" stroke="#bfbfbf" points="11.3491,-56.5 11.3491,-75.5 99.3491,-75.5 99.3491,-56.5 11.3491,-56.5"/>
<text text-anchor="middle" x="55.3491" y="-63.5" font-family="Helvetica,sans-Serif" font-size="10.00">FairMQDevice.h</text>
</g>
<!-- Node4&#45;&gt;Node5 -->
<g id="edge4" class="edge"><title>Node4&#45;&gt;Node5</title>
<path fill="none" stroke="midnightblue" d="M92.0834,-112.083C85.8043,-104.377 76.5615,-93.0333 68.9183,-83.6531"/>
<polygon fill="midnightblue" stroke="midnightblue" points="71.5097,-81.2926 62.4796,-75.7511 66.0831,-85.7143 71.5097,-81.2926"/>
</g>
<!-- Node4&#45;&gt;Node6 -->
<g id="edge5" class="edge"><title>Node4&#45;&gt;Node6</title>
<path fill="none" stroke="midnightblue" d="M123.751,-112.444C149.546,-103.399 190.426,-89.064 219.367,-78.9158"/>
<polygon fill="midnightblue" stroke="midnightblue" points="220.783,-82.1283 229.062,-75.5164 218.467,-75.5226 220.783,-82.1283"/>
</g>
<!-- Node11 -->
<g id="node11" class="node"><title>Node11</title>
<polygon fill="none" stroke="#bfbfbf" points="117.849,-56.5 117.849,-75.5 176.849,-75.5 176.849,-56.5 117.849,-56.5"/>
<text text-anchor="middle" x="147.349" y="-63.5" font-family="Helvetica,sans-Serif" font-size="10.00">stdexcept</text>
</g>
<!-- Node4&#45;&gt;Node11 -->
<g id="edge11" class="edge"><title>Node4&#45;&gt;Node11</title>
<path fill="none" stroke="midnightblue" d="M107.275,-112.083C114.195,-104.298 124.415,-92.8015 132.801,-83.3665"/>
<polygon fill="midnightblue" stroke="midnightblue" points="135.543,-85.5505 139.57,-75.7511 130.311,-80.8999 135.543,-85.5505"/>
</g>
<!-- Node6&#45;&gt;Node2 -->
<g id="edge9" class="edge"><title>Node6&#45;&gt;Node2</title>
<path fill="none" stroke="midnightblue" d="M221.5,-56.4435C184.366,-46.4672 123.278,-30.0556 85.567,-19.9242"/>
<polygon fill="midnightblue" stroke="midnightblue" points="86.1554,-16.4582 75.5897,-17.2437 84.3391,-23.2185 86.1554,-16.4582"/>
</g>
<!-- Node7 -->
<g id="node7" class="node"><title>Node7</title>
<polygon fill="none" stroke="#bfbfbf" points="128.349,-0.5 128.349,-19.5 174.349,-19.5 174.349,-0.5 128.349,-0.5"/>
<text text-anchor="middle" x="151.349" y="-7.5" font-family="Helvetica,sans-Serif" font-size="10.00">cstdint</text>
</g>
<!-- Node6&#45;&gt;Node7 -->
<g id="edge6" class="edge"><title>Node6&#45;&gt;Node7</title>
<path fill="none" stroke="midnightblue" d="M236.961,-56.324C220.678,-47.7034 195.482,-34.3643 176.633,-24.3855"/>
<polygon fill="midnightblue" stroke="midnightblue" points="178.172,-21.2402 167.697,-19.6545 174.897,-27.4267 178.172,-21.2402"/>
</g>
<!-- Node8 -->
<g id="node8" class="node"><title>Node8</title>
<polygon fill="none" stroke="#bfbfbf" points="192.349,-0.5 192.349,-19.5 244.349,-19.5 244.349,-0.5 192.349,-0.5"/>
<text text-anchor="middle" x="218.349" y="-7.5" font-family="Helvetica,sans-Serif" font-size="10.00">memory</text>
</g>
<!-- Node6&#45;&gt;Node8 -->
<g id="edge7" class="edge"><title>Node6&#45;&gt;Node8</title>
<path fill="none" stroke="midnightblue" d="M247.57,-56.083C242.677,-48.5341 235.522,-37.4948 229.517,-28.2298"/>
<polygon fill="midnightblue" stroke="midnightblue" points="232.397,-26.239 224.021,-19.7511 226.523,-30.0463 232.397,-26.239"/>
</g>
<!-- Node9 -->
<g id="node9" class="node"><title>Node9</title>
<polygon fill="none" stroke="#bfbfbf" points="262.849,-0.5 262.849,-19.5 311.849,-19.5 311.849,-0.5 262.849,-0.5"/>
<text text-anchor="middle" x="287.349" y="-7.5" font-family="Helvetica,sans-Serif" font-size="10.00">cassert</text>
</g>
<!-- Node6&#45;&gt;Node9 -->
<g id="edge8" class="edge"><title>Node6&#45;&gt;Node9</title>
<path fill="none" stroke="midnightblue" d="M258.964,-56.083C263.717,-48.5341 270.667,-37.4948 276.501,-28.2298"/>
<polygon fill="midnightblue" stroke="midnightblue" points="279.473,-30.0783 281.839,-19.7511 273.549,-26.3486 279.473,-30.0783"/>
</g>
<!-- Node10 -->
<g id="node10" class="node"><title>Node10</title>
<polygon fill="none" stroke="#bfbfbf" points="330.349,-0.5 330.349,-19.5 386.349,-19.5 386.349,-0.5 330.349,-0.5"/>
<text text-anchor="middle" x="358.349" y="-7.5" font-family="Helvetica,sans-Serif" font-size="10.00">algorithm</text>
</g>
<!-- Node6&#45;&gt;Node10 -->
<g id="edge10" class="edge"><title>Node6&#45;&gt;Node10</title>
<path fill="none" stroke="midnightblue" d="M270.219,-56.324C287.058,-47.6641 313.156,-34.2424 332.587,-24.249"/>
<polygon fill="midnightblue" stroke="midnightblue" points="334.229,-27.3405 341.521,-19.6545 331.027,-21.1155 334.229,-27.3405"/>
</g>
<!-- Node14 -->
<g id="node14" class="node"><title>Node14</title>
<polygon fill="none" stroke="#bfbfbf" points="306.849,-112.5 306.849,-131.5 351.849,-131.5 351.849,-112.5 306.849,-112.5"/>
<text text-anchor="middle" x="329.349" y="-119.5" font-family="Helvetica,sans-Serif" font-size="10.00">iosfwd</text>
</g>
<!-- Node13&#45;&gt;Node14 -->
<g id="edge14" class="edge"><title>Node13&#45;&gt;Node14</title>
<path fill="none" stroke="midnightblue" d="M350.767,-174.403C347.166,-165.76 341.503,-152.17 336.905,-141.134"/>
<polygon fill="midnightblue" stroke="midnightblue" points="340.001,-139.465 332.924,-131.581 333.54,-142.158 340.001,-139.465"/>
</g>
<!-- Node15 -->
<g id="node15" class="node"><title>Node15</title>
<polygon fill="none" stroke="#bfbfbf" points="369.849,-112.5 369.849,-131.5 428.849,-131.5 428.849,-112.5 369.849,-112.5"/>
<text text-anchor="middle" x="399.349" y="-119.5" font-family="Helvetica,sans-Serif" font-size="10.00">functional</text>
</g>
<!-- Node13&#45;&gt;Node15 -->
<g id="edge15" class="edge"><title>Node13&#45;&gt;Node15</title>
<path fill="none" stroke="midnightblue" d="M360.797,-174.403C367.547,-165.403 378.319,-151.041 386.762,-139.782"/>
<polygon fill="midnightblue" stroke="midnightblue" points="389.714,-141.681 392.914,-131.581 384.114,-137.481 389.714,-141.681"/>
</g>
<!-- Node17 -->
<g id="node17" class="node"><title>Node17</title>
<polygon fill="none" stroke="#bfbfbf" points="496.349,-112.5 496.349,-131.5 540.349,-131.5 540.349,-112.5 496.349,-112.5"/>
<text text-anchor="middle" x="518.349" y="-119.5" font-family="Helvetica,sans-Serif" font-size="10.00">vector</text>
</g>
<!-- Node16&#45;&gt;Node17 -->
<g id="edge17" class="edge"><title>Node16&#45;&gt;Node17</title>
<path fill="none" stroke="midnightblue" d="M518.349,-174.403C518.349,-165.938 518.349,-152.728 518.349,-141.82"/>
<polygon fill="midnightblue" stroke="midnightblue" points="521.849,-141.581 518.349,-131.581 514.849,-141.581 521.849,-141.581"/>
</g>
</g>
</svg>
        <g id="navigator" transform="translate(0 0)" fill="#404254">
                <rect fill="#f2f5e9" fill-opacity="0.5" stroke="#606060" stroke-width=".5" x="0" y="0" width="60" height="60"/>
                <use id="zoomplus" xlink:href="#zoomPlus" x="17" y="9" onmousedown="handleZoom(evt,'in')"/>
                <use id="zoomminus" xlink:href="#zoomMin" x="42" y="9" onmousedown="handleZoom(evt,'out')"/>
                <use id="reset" xlink:href="#resetDef" x="30" y="36" onmousedown="handleReset()"/>
                <g id="arrowUp" xlink:href="#dirArrow" transform="translate(30 24)" onmousedown="handlePan(0,-1)">
                  <use xlink:href="#rim" fill="#404040">
                        <set attributeName="fill" to="#808080" begin="arrowUp.mouseover" end="arrowUp.mouseout"/>
                  </use>
                  <path fill="none" stroke="white" stroke-width="1.5" d="M0,-3.0v7 M-2.5,-0.5L0,-3.0L2.5,-0.5"/>
                </g>
                <g id="arrowRight" xlink:href="#dirArrow" transform="rotate(90) translate(36 -43)" onmousedown="handlePan(1,0)">
                  <use xlink:href="#rim" fill="#404040">
                        <set attributeName="fill" to="#808080" begin="arrowRight.mouseover" end="arrowRight.mouseout"/>
                  </use>
                  <path fill="none" stroke="white" stroke-width="1.5" d="M0,-3.0v7 M-2.5,-0.5L0,-3.0L2.5,-0.5"/>
                </g>
                <g id="arrowDown" xlink:href="#dirArrow" transform="rotate(180) translate(-30 -48)" onmousedown="handlePan(0,1)">
                  <use xlink:href="#rim" fill="#404040">
                        <set attributeName="fill" to="#808080" begin="arrowDown.mouseover" end="arrowDown.mouseout"/>
                  </use>
                  <path fill="none" stroke="white" stroke-width="1.5" d="M0,-3.0v7 M-2.5,-0.5L0,-3.0L2.5,-0.5"/>
                </g>
                <g id="arrowLeft" xlink:href="#dirArrow" transform="rotate(270) translate(-36 17)" onmousedown="handlePan(-1,0)">
                  <use xlink:href="#rim" fill="#404040">
                        <set attributeName="fill" to="#808080" begin="arrowLeft.mouseover" end="arrowLeft.mouseout"/>
                  </use>
                  <path fill="none" stroke="white" stroke-width="1.5" d="M0,-3.0v7 M-2.5,-0.5L0,-3.0L2.5,-0.5"/>
                </g>
        </g>
        <svg viewBox="0 0 15 15" width="100%" height="30px" preserveAspectRatio="xMaxYMin meet">
         <g id="arrow_out" transform="scale(0.3 0.3)">
          <a xlink:href="TimeframeReaderDevice_8cxx__incl_org.svg" target="_base">
           <rect id="button" ry="5" rx="5" y="6" x="6" height="38" width="38"
                fill="#f2f5e9" fill-opacity="0.5" stroke="#606060" stroke-width="1.0"/>
           <path id="arrow"
             d="M 11.500037,31.436501 C 11.940474,20.09759 22.043105,11.32322 32.158766,21.979434 L 37.068811,17.246167 C 37.068811,17.246167 37.088388,32 37.088388,32 L 22.160133,31.978069 C 22.160133,31.978069 26.997745,27.140456 26.997745,27.140456 C 18.528582,18.264221 13.291696,25.230495 11.500037,31.436501 z"
             style="fill:#404040;"/>
          </a>
         </g>
        </svg>
</svg>
