<?xml version="1.0" encoding="UTF-8" standalone="no"?>
<!DOCTYPE svg PUBLIC "-//W3C//DTD SVG 1.1//EN"
 "http://www.w3.org/Graphics/SVG/1.1/DTD/svg11.dtd">
<!-- Generated by graphviz version 2.36.0 (20140111.2315)
 -->
<!-- Title: o2::header::HeartbeatFrameSequence&lt; SlotDataT &gt;::FrameIndex Pages: 1 -->
<svg width="388pt" height="356pt"
 viewBox="0.00 0.00 388.00 356.00" xmlns="http://www.w3.org/2000/svg" xmlns:xlink="http://www.w3.org/1999/xlink">
<g id="graph0" class="graph" transform="scale(1 1) rotate(0) translate(4 352)">
<title>o2::header::HeartbeatFrameSequence&lt; SlotDataT &gt;::FrameIndex</title>
<!-- Node1 -->
<g id="node1" class="node"><title>Node1</title>
<polygon fill="#bfbfbf" stroke="black" points="184.5,-0.5 184.5,-79.5 323.5,-79.5 323.5,-0.5 184.5,-0.5"/>
<text text-anchor="start" x="192.5" y="-67.5" font-family="Helvetica,sans-Serif" font-size="10.00">o2::header::HeartbeatFrame</text>
<text text-anchor="start" x="192.5" y="-56.5" font-family="Helvetica,sans-Serif" font-size="10.00">Sequence&lt; SlotDataT &gt;::</text>
<text text-anchor="middle" x="254" y="-45.5" font-family="Helvetica,sans-Serif" font-size="10.00">FrameIndex</text>
<polyline fill="none" stroke="black" points="184.5,-38.5 323.5,-38.5 "/>
<text text-anchor="middle" x="254" y="-26.5" font-family="Helvetica,sans-Serif" font-size="10.00"> </text>
<polyline fill="none" stroke="black" points="184.5,-19.5 323.5,-19.5 "/>
<text text-anchor="start" x="192.5" y="-7.5" font-family="Helvetica,sans-Serif" font-size="10.00">+ operator&lt;()</text>
</g>
<!-- Node2 -->
<g id="node2" class="node"><title>Node2</title>
<g id="a_node2"><a xlink:href="../../dd/da3/structo2_1_1header_1_1HeartbeatHeader.html" target="_top" xlink:title="{o2::header::HeartbeatHeader\n||+ operator bool()\l+ operator\&lt;()\l+ operator uint64_t()\l}">
<polygon fill="none" stroke="black" points="108.5,-128.5 108.5,-207.5 251.5,-207.5 251.5,-128.5 108.5,-128.5"/>
<text text-anchor="middle" x="180" y="-195.5" font-family="Helvetica,sans-Serif" font-size="10.00">o2::header::HeartbeatHeader</text>
<polyline fill="none" stroke="black" points="108.5,-188.5 251.5,-188.5 "/>
<text text-anchor="middle" x="180" y="-176.5" font-family="Helvetica,sans-Serif" font-size="10.00"> </text>
<polyline fill="none" stroke="black" points="108.5,-169.5 251.5,-169.5 "/>
<text text-anchor="start" x="116.5" y="-157.5" font-family="Helvetica,sans-Serif" font-size="10.00">+ operator bool()</text>
<text text-anchor="start" x="116.5" y="-146.5" font-family="Helvetica,sans-Serif" font-size="10.00">+ operator&lt;()</text>
<text text-anchor="start" x="116.5" y="-135.5" font-family="Helvetica,sans-Serif" font-size="10.00">+ operator uint64_t()</text>
</a>
</g>
</g>
<!-- Node2&#45;&gt;Node1 -->
<g id="edge1" class="edge"><title>Node2&#45;&gt;Node1</title>
<path fill="none" stroke="#404040" d="M191.94,-128.335C195.783,-118.148 200.498,-107.388 206,-98 207.66,-95.1678 209.462,-92.337 211.363,-89.5352"/>
<polygon fill="none" stroke="#404040" points="211.548,-89.2798 211.833,-82.0743 218.593,-79.5658 218.309,-86.7713 211.548,-89.2798"/>
<text text-anchor="middle" x="238.5" y="-101.5" font-family="Helvetica,sans-Serif" font-size="10.00"> +columnIndex</text>
</g>
<!-- Node3 -->
<g id="node3" class="node"><title>Node3</title>
<polygon fill="none" stroke="#bfbfbf" points="-0.5,-289.5 -0.5,-346.5 50.5,-346.5 50.5,-289.5 -0.5,-289.5"/>
<text text-anchor="middle" x="25" y="-334.5" font-family="Helvetica,sans-Serif" font-size="10.00">uint64_t</text>
<polyline fill="none" stroke="#bfbfbf" points="-0.5,-327.5 50.5,-327.5 "/>
<text text-anchor="middle" x="25" y="-315.5" font-family="Helvetica,sans-Serif" font-size="10.00"> </text>
<polyline fill="none" stroke="#bfbfbf" points="-0.5,-308.5 50.5,-308.5 "/>
<text text-anchor="middle" x="25" y="-296.5" font-family="Helvetica,sans-Serif" font-size="10.00"> </text>
</g>
<!-- Node3&#45;&gt;Node2 -->
<g id="edge2" class="edge"><title>Node3&#45;&gt;Node2</title>
<path fill="none" stroke="#404040" d="M26.4057,-289.406C28.757,-269.674 34.7848,-243.6 50,-226 62.4935,-211.548 79.341,-200.622 96.7599,-192.411"/>
<polygon fill="none" stroke="#404040" points="97.2505,-192.197 101.15,-186.132 108.249,-187.398 104.35,-193.464 97.2505,-192.197"/>
<text text-anchor="middle" x="81" y="-245.5" font-family="Helvetica,sans-Serif" font-size="10.00"> +headerWord</text>
</g>
<!-- Node4 -->
<g id="node4" class="node"><title>Node4</title>
<polygon fill="none" stroke="#bfbfbf" points="84.5,-289.5 84.5,-346.5 135.5,-346.5 135.5,-289.5 84.5,-289.5"/>
<text text-anchor="middle" x="110" y="-334.5" font-family="Helvetica,sans-Serif" font-size="10.00">uint16_t</text>
<polyline fill="none" stroke="#bfbfbf" points="84.5,-327.5 135.5,-327.5 "/>
<text text-anchor="middle" x="110" y="-315.5" font-family="Helvetica,sans-Serif" font-size="10.00"> </text>
<polyline fill="none" stroke="#bfbfbf" points="84.5,-308.5 135.5,-308.5 "/>
<text text-anchor="middle" x="110" y="-296.5" font-family="Helvetica,sans-Serif" font-size="10.00"> </text>
</g>
<!-- Node4&#45;&gt;Node2 -->
<g id="edge3" class="edge"><title>Node4&#45;&gt;Node2</title>
<path fill="none" stroke="#404040" d="M111.987,-289.492C114.219,-270.769 118.956,-245.879 129,-226 130.465,-223.1 132.116,-220.234 133.904,-217.421"/>
<polygon fill="none" stroke="#404040" points="133.978,-217.316 134.165,-210.108 140.891,-207.507 140.704,-214.716 133.978,-217.316"/>
<text text-anchor="middle" x="152.5" y="-251" font-family="Helvetica,sans-Serif" font-size="10.00"> +reserved</text>
<text text-anchor="middle" x="152.5" y="-240" font-family="Helvetica,sans-Serif" font-size="10.00">+bcid</text>
</g>
<!-- Node5 -->
<g id="node5" class="node"><title>Node5</title>
<polygon fill="none" stroke="#bfbfbf" points="164.5,-289 164.5,-347 193.5,-347 193.5,-289 164.5,-289"/>
<polyline fill="none" stroke="#bfbfbf" points="164.5,-327 193.5,-327 "/>
<text text-anchor="middle" x="179" y="-315" font-family="Helvetica,sans-Serif" font-size="10.00"> </text>
<polyline fill="none" stroke="#bfbfbf" points="164.5,-308 193.5,-308 "/>
<text text-anchor="middle" x="179" y="-296" font-family="Helvetica,sans-Serif" font-size="10.00"> </text>
</g>
<!-- Node5&#45;&gt;Node2 -->
<g id="edge4" class="edge"><title>Node5&#45;&gt;Node2</title>
<path fill="none" stroke="#404040" d="M179.19,-288.814C179.322,-269.335 179.501,-242.873 179.657,-219.772"/>
<polygon fill="none" stroke="#404040" points="179.657,-219.702 175.698,-213.675 179.738,-207.703 183.698,-213.729 179.657,-219.702"/>
<text text-anchor="middle" x="195.5" y="-245.5" font-family="Helvetica,sans-Serif" font-size="10.00"> +@11</text>
</g>
<!-- Node6 -->
<g id="node6" class="node"><title>Node6</title>
<polygon fill="none" stroke="#bfbfbf" points="212,-289.5 212,-346.5 258,-346.5 258,-289.5 212,-289.5"/>
<text text-anchor="middle" x="235" y="-334.5" font-family="Helvetica,sans-Serif" font-size="10.00">uint8_t</text>
<polyline fill="none" stroke="#bfbfbf" points="212,-327.5 258,-327.5 "/>
<text text-anchor="middle" x="235" y="-315.5" font-family="Helvetica,sans-Serif" font-size="10.00"> </text>
<polyline fill="none" stroke="#bfbfbf" points="212,-308.5 258,-308.5 "/>
<text text-anchor="middle" x="235" y="-296.5" font-family="Helvetica,sans-Serif" font-size="10.00"> </text>
</g>
<!-- Node6&#45;&gt;Node2 -->
<g id="edge5" class="edge"><title>Node6&#45;&gt;Node2</title>
<path fill="none" stroke="#404040" d="M230.448,-289.286C226.915,-270.92 221.22,-246.52 213,-226 212.015,-223.542 210.939,-221.062 209.795,-218.585"/>
<polygon fill="none" stroke="#404040" points="209.779,-218.553 203.523,-214.967 204.427,-207.813 210.683,-211.399 209.779,-218.553"/>
<text text-anchor="middle" x="275" y="-262" font-family="Helvetica,sans-Serif" font-size="10.00"> +triggerType</text>
<text text-anchor="middle" x="275" y="-251" font-family="Helvetica,sans-Serif" font-size="10.00">+headerLength</text>
<text text-anchor="middle" x="275" y="-240" font-family="Helvetica,sans-Serif" font-size="10.00">+blockType</text>
<text text-anchor="middle" x="275" y="-229" font-family="Helvetica,sans-Serif" font-size="10.00">+reservedTriggerType</text>
</g>
<!-- Node7 -->
<g id="node7" class="node"><title>Node7</title>
<polygon fill="none" stroke="#bfbfbf" points="328.5,-289.5 328.5,-346.5 379.5,-346.5 379.5,-289.5 328.5,-289.5"/>
<text text-anchor="middle" x="354" y="-334.5" font-family="Helvetica,sans-Serif" font-size="10.00">uint32_t</text>
<polyline fill="none" stroke="#bfbfbf" points="328.5,-327.5 379.5,-327.5 "/>
<text text-anchor="middle" x="354" y="-315.5" font-family="Helvetica,sans-Serif" font-size="10.00"> </text>
<polyline fill="none" stroke="#bfbfbf" points="328.5,-308.5 379.5,-308.5 "/>
<text text-anchor="middle" x="354" y="-296.5" font-family="Helvetica,sans-Serif" font-size="10.00"> </text>
</g>
<!-- Node7&#45;&gt;Node2 -->
<g id="edge6" class="edge"><title>Node7&#45;&gt;Node2</title>
<path fill="none" stroke="#404040" d="M352.71,-289.093C350.298,-268.941 343.847,-242.478 327,-226 307.641,-207.066 293.006,-216.019 263.339,-208.114"/>
<polygon fill="none" stroke="#404040" points="263.113,-208.041 256.174,-210.006 251.692,-204.356 258.631,-202.392 263.113,-208.041"/>
<text text-anchor="middle" x="363" y="-245.5" font-family="Helvetica,sans-Serif" font-size="10.00"> +orbit</text>
</g>
<!-- Node8 -->
<g id="node8" class="node"><title>Node8</title>
<polygon fill="none" stroke="#bfbfbf" points="270,-139.5 270,-196.5 326,-196.5 326,-139.5 270,-139.5"/>
<text text-anchor="middle" x="298" y="-184.5" font-family="Helvetica,sans-Serif" font-size="10.00">unsigned</text>
<polyline fill="none" stroke="#bfbfbf" points="270,-177.5 326,-177.5 "/>
<text text-anchor="middle" x="298" y="-165.5" font-family="Helvetica,sans-Serif" font-size="10.00"> </text>
<polyline fill="none" stroke="#bfbfbf" points="270,-158.5 326,-158.5 "/>
<text text-anchor="middle" x="298" y="-146.5" font-family="Helvetica,sans-Serif" font-size="10.00"> </text>
</g>
<!-- Node8&#45;&gt;Node1 -->
<g id="edge7" class="edge"><title>Node8&#45;&gt;Node1</title>
<path fill="none" stroke="#404040" d="M288.344,-139.349C283.418,-125.242 277.271,-107.639 271.544,-91.2397"/>
<polygon fill="none" stroke="#404040" points="271.428,-90.9077 265.674,-86.5619 267.472,-79.5786 273.226,-83.9244 271.428,-90.9077"/>
<text text-anchor="middle" x="290.5" y="-101.5" font-family="Helvetica,sans-Serif" font-size="10.00"> +slot</text>
</g>
</g>
</svg>
