<?xml version="1.0" encoding="UTF-8" standalone="no"?>
<!DOCTYPE svg PUBLIC "-//W3C//DTD SVG 1.1//EN"
 "http://www.w3.org/Graphics/SVG/1.1/DTD/svg11.dtd">
<!-- Generated by graphviz version 2.36.0 (20140111.2315)
 -->
<!-- Title: /home/travis/build/AliceO2Group/AliceO2/DataFormats/Parameters/src/GRPObject.cxx Pages: 1 -->
<svg width="982pt" height="298pt"
 viewBox="0.00 0.00 982.00 298.00" xmlns="http://www.w3.org/2000/svg" xmlns:xlink="http://www.w3.org/1999/xlink">
<g id="graph0" class="graph" transform="scale(1 1) rotate(0) translate(4 294)">
<title>/home/travis/build/AliceO2Group/AliceO2/DataFormats/Parameters/src/GRPObject.cxx</title>
<!-- Node1 -->
<g id="node1" class="node"><title>Node1</title>
<polygon fill="#bfbfbf" stroke="black" points="652,-237 652,-289 782,-289 782,-237 652,-237"/>
<text text-anchor="start" x="660" y="-277" font-family="Helvetica,sans-Serif" font-size="10.00">/home/travis/build</text>
<text text-anchor="start" x="660" y="-266" font-family="Helvetica,sans-Serif" font-size="10.00">/AliceO2Group/AliceO2</text>
<text text-anchor="start" x="660" y="-255" font-family="Helvetica,sans-Serif" font-size="10.00">/DataFormats/Parameters</text>
<text text-anchor="middle" x="717" y="-244" font-family="Helvetica,sans-Serif" font-size="10.00">/src/GRPObject.cxx</text>
</g>
<!-- Node2 -->
<g id="node2" class="node"><title>Node2</title>
<g id="a_node2"><a xlink:href="../../de/d28/GRPObject_8h.html" target="_top" xlink:title="Header of the General Run Parameters object. ">
<polygon fill="none" stroke="black" points="295,-169 295,-199 419,-199 419,-169 295,-169"/>
<text text-anchor="start" x="303" y="-187" font-family="Helvetica,sans-Serif" font-size="10.00">DataFormatsParameters</text>
<text text-anchor="middle" x="357" y="-176" font-family="Helvetica,sans-Serif" font-size="10.00">/GRPObject.h</text>
</a>
</g>
</g>
<!-- Node1&#45;&gt;Node2 -->
<g id="edge1" class="edge"><title>Node1&#45;&gt;Node2</title>
<path fill="none" stroke="midnightblue" d="M651.807,-248.056C589.01,-234.624 494.219,-214.35 429.175,-200.437"/>
<polygon fill="midnightblue" stroke="midnightblue" points="429.512,-196.93 419.001,-198.261 428.047,-203.775 429.512,-196.93"/>
</g>
<!-- Node15 -->
<g id="node15" class="node"><title>Node15</title>
<polygon fill="none" stroke="#bfbfbf" points="627,-0.5 627,-19.5 671,-19.5 671,-0.5 627,-0.5"/>
<text text-anchor="middle" x="649" y="-7.5" font-family="Helvetica,sans-Serif" font-size="10.00">cmath</text>
</g>
<!-- Node1&#45;&gt;Node15 -->
<g id="edge18" class="edge"><title>Node1&#45;&gt;Node15</title>
<path fill="none" stroke="midnightblue" d="M713.952,-236.959C708.648,-197.545 696.023,-119.034 673,-56 669.545,-46.5397 664.422,-36.6019 659.795,-28.4788"/>
<polygon fill="midnightblue" stroke="midnightblue" points="662.655,-26.4399 654.543,-19.6245 656.634,-30.0109 662.655,-26.4399"/>
</g>
<!-- Node16 -->
<g id="node16" class="node"><title>Node16</title>
<polygon fill="none" stroke="#bfbfbf" points="721.5,-174.5 721.5,-193.5 762.5,-193.5 762.5,-174.5 721.5,-174.5"/>
<text text-anchor="middle" x="742" y="-181.5" font-family="Helvetica,sans-Serif" font-size="10.00">ctime</text>
</g>
<!-- Node1&#45;&gt;Node16 -->
<g id="edge19" class="edge"><title>Node1&#45;&gt;Node16</title>
<path fill="none" stroke="midnightblue" d="M725.186,-236.787C728.742,-225.836 732.828,-213.25 736.082,-203.228"/>
<polygon fill="midnightblue" stroke="midnightblue" points="739.462,-204.15 739.222,-193.558 732.804,-201.988 739.462,-204.15"/>
</g>
<!-- Node17 -->
<g id="node17" class="node"><title>Node17</title>
<g id="a_node17"><a xlink:href="../../d3/d9d/PhysicsConstants_8h.html" target="_top" xlink:title="Header to collect physics constants. ">
<polygon fill="none" stroke="black" points="780.5,-174.5 780.5,-193.5 973.5,-193.5 973.5,-174.5 780.5,-174.5"/>
<text text-anchor="middle" x="877" y="-181.5" font-family="Helvetica,sans-Serif" font-size="10.00">CommonConstants/PhysicsConstants.h</text>
</a>
</g>
</g>
<!-- Node1&#45;&gt;Node17 -->
<g id="edge20" class="edge"><title>Node1&#45;&gt;Node17</title>
<path fill="none" stroke="midnightblue" d="M769.39,-236.787C796.383,-223.797 828.155,-208.507 850.145,-197.924"/>
<polygon fill="midnightblue" stroke="midnightblue" points="851.725,-201.048 859.218,-193.558 848.689,-194.74 851.725,-201.048"/>
</g>
<!-- Node3 -->
<g id="node3" class="node"><title>Node3</title>
<polygon fill="none" stroke="#bfbfbf" points="609,-56.5 609,-75.5 665,-75.5 665,-56.5 609,-56.5"/>
<text text-anchor="middle" x="637" y="-63.5" font-family="Helvetica,sans-Serif" font-size="10.00">Rtypes.h</text>
</g>
<!-- Node2&#45;&gt;Node3 -->
<g id="edge2" class="edge"><title>Node2&#45;&gt;Node3</title>
<path fill="none" stroke="midnightblue" d="M419.342,-175.273C461.428,-168.228 517.246,-155.24 562,-132 585.998,-119.538 608.759,-97.9274 622.781,-83.0684"/>
<polygon fill="midnightblue" stroke="midnightblue" points="625.443,-85.3441 629.624,-75.6091 620.284,-80.612 625.443,-85.3441"/>
</g>
<!-- Node4 -->
<g id="node4" class="node"><title>Node4</title>
<polygon fill="none" stroke="#bfbfbf" points="0,-112.5 0,-131.5 46,-131.5 46,-112.5 0,-112.5"/>
<text text-anchor="middle" x="23" y="-119.5" font-family="Helvetica,sans-Serif" font-size="10.00">chrono</text>
</g>
<!-- Node2&#45;&gt;Node4 -->
<g id="edge3" class="edge"><title>Node2&#45;&gt;Node4</title>
<path fill="none" stroke="midnightblue" d="M294.763,-173.585C234.508,-164.171 140.685,-148.72 60,-132 58.7256,-131.736 57.4283,-131.459 56.1193,-131.173"/>
<polygon fill="midnightblue" stroke="midnightblue" points="56.5667,-127.685 46.0374,-128.862 55.0025,-134.508 56.5667,-127.685"/>
</g>
<!-- Node5 -->
<g id="node5" class="node"><title>Node5</title>
<polygon fill="none" stroke="#bfbfbf" points="119,-56.5 119,-75.5 165,-75.5 165,-56.5 119,-56.5"/>
<text text-anchor="middle" x="142" y="-63.5" font-family="Helvetica,sans-Serif" font-size="10.00">cstdint</text>
</g>
<!-- Node2&#45;&gt;Node5 -->
<g id="edge4" class="edge"><title>Node2&#45;&gt;Node5</title>
<path fill="none" stroke="midnightblue" d="M294.952,-179.874C225.118,-174.904 118.108,-162.422 93,-132 78.9588,-114.987 100.258,-94.5549 119.021,-81.1986"/>
<polygon fill="midnightblue" stroke="midnightblue" points="120.993,-84.0903 127.327,-75.5975 117.079,-78.2865 120.993,-84.0903"/>
</g>
<!-- Node6 -->
<g id="node6" class="node"><title>Node6</title>
<g id="a_node6"><a xlink:href="../../d4/dc6/LHCConstants_8h.html" target="_top" xlink:title="Header to collect LHC related constants. ">
<polygon fill="none" stroke="black" points="102,-112.5 102,-131.5 280,-131.5 280,-112.5 102,-112.5"/>
<text text-anchor="middle" x="191" y="-119.5" font-family="Helvetica,sans-Serif" font-size="10.00">CommonConstants/LHCConstants.h</text>
</a>
</g>
</g>
<!-- Node2&#45;&gt;Node6 -->
<g id="edge5" class="edge"><title>Node2&#45;&gt;Node6</title>
<path fill="none" stroke="midnightblue" d="M318.08,-168.933C289.574,-158.629 251.295,-144.794 224.222,-135.008"/>
<polygon fill="midnightblue" stroke="midnightblue" points="225.388,-131.708 214.793,-131.6 223.008,-138.291 225.388,-131.708"/>
</g>
<!-- Node7 -->
<g id="node7" class="node"><title>Node7</title>
<g id="a_node7"><a xlink:href="../../da/d58/Units_8h.html" target="_top" xlink:title="Header to collect definitions for different units. ">
<polygon fill="none" stroke="black" points="298,-112.5 298,-131.5 416,-131.5 416,-112.5 298,-112.5"/>
<text text-anchor="middle" x="357" y="-119.5" font-family="Helvetica,sans-Serif" font-size="10.00">CommonTypes/Units.h</text>
</a>
</g>
</g>
<!-- Node2&#45;&gt;Node7 -->
<g id="edge6" class="edge"><title>Node2&#45;&gt;Node7</title>
<path fill="none" stroke="midnightblue" d="M357,-168.781C357,-160.781 357,-150.689 357,-142.017"/>
<polygon fill="midnightblue" stroke="midnightblue" points="360.5,-141.73 357,-131.731 353.5,-141.731 360.5,-141.73"/>
</g>
<!-- Node8 -->
<g id="node8" class="node"><title>Node8</title>
<g id="a_node8"><a xlink:href="../../d6/d31/DetID_8h.html" target="_top" xlink:title="DetectorsBase/DetID.h">
<polygon fill="none" stroke="black" points="434.5,-112.5 434.5,-131.5 553.5,-131.5 553.5,-112.5 434.5,-112.5"/>
<text text-anchor="middle" x="494" y="-119.5" font-family="Helvetica,sans-Serif" font-size="10.00">DetectorsBase/DetID.h</text>
</a>
</g>
</g>
<!-- Node2&#45;&gt;Node8 -->
<g id="edge7" class="edge"><title>Node2&#45;&gt;Node8</title>
<path fill="none" stroke="midnightblue" d="M389.12,-168.933C412.131,-158.855 442.856,-145.399 465.099,-135.657"/>
<polygon fill="midnightblue" stroke="midnightblue" points="466.607,-138.818 474.363,-131.6 463.799,-132.406 466.607,-138.818"/>
</g>
<!-- Node8&#45;&gt;Node3 -->
<g id="edge8" class="edge"><title>Node8&#45;&gt;Node3</title>
<path fill="none" stroke="midnightblue" d="M516.659,-112.444C540.402,-103.478 577.909,-89.314 604.738,-79.1827"/>
<polygon fill="midnightblue" stroke="midnightblue" points="606.329,-82.3235 614.447,-75.5164 603.856,-75.7749 606.329,-82.3235"/>
</g>
<!-- Node8&#45;&gt;Node5 -->
<g id="edge12" class="edge"><title>Node8&#45;&gt;Node5</title>
<path fill="none" stroke="midnightblue" d="M438.225,-112.444C364.16,-101.081 235.684,-81.3719 175.243,-72.0997"/>
<polygon fill="midnightblue" stroke="midnightblue" points="175.533,-68.6034 165.118,-70.5465 174.472,-75.5225 175.533,-68.6034"/>
</g>
<!-- Node9 -->
<g id="node9" class="node"><title>Node9</title>
<polygon fill="none" stroke="#bfbfbf" points="371,-0.5 371,-19.5 409,-19.5 409,-0.5 371,-0.5"/>
<text text-anchor="middle" x="390" y="-7.5" font-family="Helvetica,sans-Serif" font-size="10.00">array</text>
</g>
<!-- Node8&#45;&gt;Node9 -->
<g id="edge9" class="edge"><title>Node8&#45;&gt;Node9</title>
<path fill="none" stroke="midnightblue" d="M465.347,-112.361C446.784,-105.369 423.457,-93.7276 409,-76 398.212,-62.7717 393.549,-43.6409 391.534,-29.5576"/>
<polygon fill="midnightblue" stroke="midnightblue" points="395.005,-29.105 390.419,-19.5543 388.048,-29.8805 395.005,-29.105"/>
</g>
<!-- Node10 -->
<g id="node10" class="node"><title>Node10</title>
<polygon fill="none" stroke="#bfbfbf" points="549.5,-56.5 549.5,-75.5 590.5,-75.5 590.5,-56.5 549.5,-56.5"/>
<text text-anchor="middle" x="570" y="-63.5" font-family="Helvetica,sans-Serif" font-size="10.00">bitset</text>
</g>
<!-- Node8&#45;&gt;Node10 -->
<g id="edge10" class="edge"><title>Node8&#45;&gt;Node10</title>
<path fill="none" stroke="midnightblue" d="M506.211,-112.324C517.776,-104.107 535.375,-91.6017 549.161,-81.8069"/>
<polygon fill="midnightblue" stroke="midnightblue" points="551.443,-84.4791 557.567,-75.8339 547.388,-78.7729 551.443,-84.4791"/>
</g>
<!-- Node11 -->
<g id="node11" class="node"><title>Node11</title>
<polygon fill="none" stroke="#bfbfbf" points="232.5,-56.5 232.5,-75.5 281.5,-75.5 281.5,-56.5 232.5,-56.5"/>
<text text-anchor="middle" x="257" y="-63.5" font-family="Helvetica,sans-Serif" font-size="10.00">cassert</text>
</g>
<!-- Node8&#45;&gt;Node11 -->
<g id="edge11" class="edge"><title>Node8&#45;&gt;Node11</title>
<path fill="none" stroke="midnightblue" d="M453.061,-112.435C414.068,-104.164 353.491,-91.0203 291.766,-76.1108"/>
<polygon fill="midnightblue" stroke="midnightblue" points="292.396,-72.6622 281.853,-73.7033 290.744,-79.4645 292.396,-72.6622"/>
</g>
<!-- Node12 -->
<g id="node12" class="node"><title>Node12</title>
<polygon fill="none" stroke="#bfbfbf" points="300,-56.5 300,-75.5 362,-75.5 362,-56.5 300,-56.5"/>
<text text-anchor="middle" x="331" y="-63.5" font-family="Helvetica,sans-Serif" font-size="10.00">type_traits</text>
</g>
<!-- Node8&#45;&gt;Node12 -->
<g id="edge13" class="edge"><title>Node8&#45;&gt;Node12</title>
<path fill="none" stroke="midnightblue" d="M468.172,-112.444C440.751,-103.359 397.223,-88.9388 366.568,-78.7831"/>
<polygon fill="midnightblue" stroke="midnightblue" points="367.3,-75.3389 356.707,-75.5164 365.099,-81.9837 367.3,-75.3389"/>
</g>
<!-- Node13 -->
<g id="node13" class="node"><title>Node13</title>
<g id="a_node13"><a xlink:href="../../d9/ded/Utils_8h.html" target="_top" xlink:title="DetectorsBase/Utils.h">
<polygon fill="none" stroke="black" points="418.5,-56.5 418.5,-75.5 531.5,-75.5 531.5,-56.5 418.5,-56.5"/>
<text text-anchor="middle" x="475" y="-63.5" font-family="Helvetica,sans-Serif" font-size="10.00">DetectorsBase/Utils.h</text>
</a>
</g>
</g>
<!-- Node8&#45;&gt;Node13 -->
<g id="edge14" class="edge"><title>Node8&#45;&gt;Node13</title>
<path fill="none" stroke="midnightblue" d="M490.863,-112.083C488.317,-104.849 484.644,-94.4087 481.473,-85.3968"/>
<polygon fill="midnightblue" stroke="midnightblue" points="484.7,-84.0225 478.079,-75.7511 478.097,-86.3459 484.7,-84.0225"/>
</g>
<!-- Node13&#45;&gt;Node9 -->
<g id="edge17" class="edge"><title>Node13&#45;&gt;Node9</title>
<path fill="none" stroke="midnightblue" d="M461.343,-56.324C448.084,-47.9002 427.732,-34.9709 412.154,-25.0741"/>
<polygon fill="midnightblue" stroke="midnightblue" points="413.94,-22.0626 403.623,-19.6545 410.187,-27.9711 413.94,-22.0626"/>
</g>
<!-- Node14 -->
<g id="node14" class="node"><title>Node14</title>
<g id="a_node14"><a xlink:href="../../d1/daa/Base_2include_2DetectorsBase_2Constants_8h.html" target="_top" xlink:title="DetectorsBase/Constants.h">
<polygon fill="none" stroke="black" points="427,-0.5 427,-19.5 565,-19.5 565,-0.5 427,-0.5"/>
<text text-anchor="middle" x="496" y="-7.5" font-family="Helvetica,sans-Serif" font-size="10.00">DetectorsBase/Constants.h</text>
</a>
</g>
</g>
<!-- Node13&#45;&gt;Node14 -->
<g id="edge15" class="edge"><title>Node13&#45;&gt;Node14</title>
<path fill="none" stroke="midnightblue" d="M478.468,-56.083C481.312,-48.77 485.429,-38.1814 488.96,-29.1034"/>
<polygon fill="midnightblue" stroke="midnightblue" points="492.234,-30.3397 492.597,-19.7511 485.71,-27.8025 492.234,-30.3397"/>
</g>
<!-- Node13&#45;&gt;Node15 -->
<g id="edge16" class="edge"><title>Node13&#45;&gt;Node15</title>
<path fill="none" stroke="midnightblue" d="M502.571,-56.4435C533.747,-46.768 584.428,-31.0397 617.236,-20.8577"/>
<polygon fill="midnightblue" stroke="midnightblue" points="618.29,-24.1954 626.803,-17.8886 616.215,-17.51 618.29,-24.1954"/>
</g>
</g>
</svg>
