<?xml version="1.0" encoding="UTF-8" standalone="no"?>
<!DOCTYPE svg PUBLIC "-//W3C//DTD SVG 1.1//EN"
 "http://www.w3.org/Graphics/SVG/1.1/DTD/svg11.dtd">
<!-- Generated by graphviz version 2.36.0 (20140111.2315)
 -->
<!-- Title: /home/travis/build/AliceO2Group/AliceO2/Framework/Core/include/Framework/DeviceExecution.h Pages: 1 -->
<svg width="1220pt" height="242pt"
 viewBox="0.00 0.00 1220.00 242.00" xmlns="http://www.w3.org/2000/svg" xmlns:xlink="http://www.w3.org/1999/xlink">
<g id="graph0" class="graph" transform="scale(1 1) rotate(0) translate(4 238)">
<title>/home/travis/build/AliceO2Group/AliceO2/Framework/Core/include/Framework/DeviceExecution.h</title>
<!-- Node1 -->
<g id="node1" class="node"><title>Node1</title>
<polygon fill="#bfbfbf" stroke="black" points="392,-181 392,-233 546,-233 546,-181 392,-181"/>
<text text-anchor="start" x="400" y="-221" font-family="Helvetica,sans-Serif" font-size="10.00">/home/travis/build</text>
<text text-anchor="start" x="400" y="-210" font-family="Helvetica,sans-Serif" font-size="10.00">/AliceO2Group/AliceO2</text>
<text text-anchor="start" x="400" y="-199" font-family="Helvetica,sans-Serif" font-size="10.00">/Framework/Core/include</text>
<text text-anchor="middle" x="469" y="-188" font-family="Helvetica,sans-Serif" font-size="10.00">/Framework/DeviceExecution.h</text>
</g>
<!-- Node2 -->
<g id="node2" class="node"><title>Node2</title>
<g id="a_node2"><a xlink:href="../../d3/dc0/DDSConfigHelpers_8h.html" target="_top" xlink:title="/home/travis/build\l/AliceO2Group/AliceO2\l/Framework/Core/src/DDSConfig\lHelpers.h">
<polygon fill="none" stroke="black" points="230,-91 230,-143 392,-143 392,-91 230,-91"/>
<text text-anchor="start" x="238" y="-131" font-family="Helvetica,sans-Serif" font-size="10.00">/home/travis/build</text>
<text text-anchor="start" x="238" y="-120" font-family="Helvetica,sans-Serif" font-size="10.00">/AliceO2Group/AliceO2</text>
<text text-anchor="start" x="238" y="-109" font-family="Helvetica,sans-Serif" font-size="10.00">/Framework/Core/src/DDSConfig</text>
<text text-anchor="middle" x="311" y="-98" font-family="Helvetica,sans-Serif" font-size="10.00">Helpers.h</text>
</a>
</g>
</g>
<!-- Node1&#45;&gt;Node2 -->
<g id="edge1" class="edge"><title>Node1&#45;&gt;Node2</title>
<path fill="none" stroke="midnightblue" d="M414.805,-175.815C395.647,-165.145 374.323,-153.268 356.01,-143.069"/>
<polygon fill="midnightblue" stroke="midnightblue" points="413.284,-178.975 423.724,-180.783 416.69,-172.859 413.284,-178.975"/>
</g>
<!-- Node4 -->
<g id="node4" class="node"><title>Node4</title>
<g id="a_node4"><a xlink:href="../../d7/d54/runDataProcessing_8cxx.html" target="_top" xlink:title="/home/travis/build\l/AliceO2Group/AliceO2\l/Framework/Core/src/runDataProcessing.cxx">
<polygon fill="none" stroke="black" points="362,-6.5 362,-47.5 576,-47.5 576,-6.5 362,-6.5"/>
<text text-anchor="start" x="370" y="-35.5" font-family="Helvetica,sans-Serif" font-size="10.00">/home/travis/build</text>
<text text-anchor="start" x="370" y="-24.5" font-family="Helvetica,sans-Serif" font-size="10.00">/AliceO2Group/AliceO2</text>
<text text-anchor="middle" x="469" y="-13.5" font-family="Helvetica,sans-Serif" font-size="10.00">/Framework/Core/src/runDataProcessing.cxx</text>
</a>
</g>
</g>
<!-- Node1&#45;&gt;Node4 -->
<g id="edge12" class="edge"><title>Node1&#45;&gt;Node4</title>
<path fill="none" stroke="midnightblue" d="M469,-170.552C469,-133.608 469,-77.0659 469,-47.5196"/>
<polygon fill="midnightblue" stroke="midnightblue" points="465.5,-170.874 469,-180.874 472.5,-170.875 465.5,-170.874"/>
</g>
<!-- Node6 -->
<g id="node6" class="node"><title>Node6</title>
<g id="a_node6"><a xlink:href="../../df/dda/DeviceSpecHelpers_8h.html" target="_top" xlink:title="/home/travis/build\l/AliceO2Group/AliceO2\l/Framework/Core/src/DeviceSpec\lHelpers.h">
<polygon fill="none" stroke="black" points="577.5,-91 577.5,-143 742.5,-143 742.5,-91 577.5,-91"/>
<text text-anchor="start" x="585.5" y="-131" font-family="Helvetica,sans-Serif" font-size="10.00">/home/travis/build</text>
<text text-anchor="start" x="585.5" y="-120" font-family="Helvetica,sans-Serif" font-size="10.00">/AliceO2Group/AliceO2</text>
<text text-anchor="start" x="585.5" y="-109" font-family="Helvetica,sans-Serif" font-size="10.00">/Framework/Core/src/DeviceSpec</text>
<text text-anchor="middle" x="660" y="-98" font-family="Helvetica,sans-Serif" font-size="10.00">Helpers.h</text>
</a>
</g>
</g>
<!-- Node1&#45;&gt;Node6 -->
<g id="edge5" class="edge"><title>Node1&#45;&gt;Node6</title>
<path fill="none" stroke="midnightblue" d="M532.695,-176.654C556.269,-165.792 582.762,-153.586 605.45,-143.133"/>
<polygon fill="midnightblue" stroke="midnightblue" points="531.095,-173.537 523.477,-180.901 534.024,-179.895 531.095,-173.537"/>
</g>
<!-- Node3 -->
<g id="node3" class="node"><title>Node3</title>
<g id="a_node3"><a xlink:href="../../d3/d15/DDSConfigHelpers_8cxx.html" target="_top" xlink:title="/home/travis/build\l/AliceO2Group/AliceO2\l/Framework/Core/src/DDSConfig\lHelpers.cxx">
<polygon fill="none" stroke="black" points="0,-1 0,-53 162,-53 162,-1 0,-1"/>
<text text-anchor="start" x="8" y="-41" font-family="Helvetica,sans-Serif" font-size="10.00">/home/travis/build</text>
<text text-anchor="start" x="8" y="-30" font-family="Helvetica,sans-Serif" font-size="10.00">/AliceO2Group/AliceO2</text>
<text text-anchor="start" x="8" y="-19" font-family="Helvetica,sans-Serif" font-size="10.00">/Framework/Core/src/DDSConfig</text>
<text text-anchor="middle" x="81" y="-8" font-family="Helvetica,sans-Serif" font-size="10.00">Helpers.cxx</text>
</a>
</g>
</g>
<!-- Node2&#45;&gt;Node3 -->
<g id="edge2" class="edge"><title>Node2&#45;&gt;Node3</title>
<path fill="none" stroke="midnightblue" d="M235.803,-87.229C207.042,-76.2249 174.493,-63.7712 146.688,-53.1328"/>
<polygon fill="midnightblue" stroke="midnightblue" points="234.809,-90.5959 245.399,-90.9005 237.31,-84.0581 234.809,-90.5959"/>
</g>
<!-- Node2&#45;&gt;Node4 -->
<g id="edge3" class="edge"><title>Node2&#45;&gt;Node4</title>
<path fill="none" stroke="midnightblue" d="M365.134,-85.8495C387.831,-73.2081 413.577,-58.8683 433.758,-47.6283"/>
<polygon fill="midnightblue" stroke="midnightblue" points="363.31,-82.8591 356.276,-90.7827 366.716,-88.9746 363.31,-82.8591"/>
</g>
<!-- Node5 -->
<g id="node5" class="node"><title>Node5</title>
<g id="a_node5"><a xlink:href="../../d6/d53/test__FrameworkDataFlowToDDS_8cxx.html" target="_top" xlink:title="/home/travis/build\l/AliceO2Group/AliceO2\l/Framework/Core/test/test\l_FrameworkDataFlowToDDS.cxx">
<polygon fill="none" stroke="black" points="180,-1 180,-53 344,-53 344,-1 180,-1"/>
<text text-anchor="start" x="188" y="-41" font-family="Helvetica,sans-Serif" font-size="10.00">/home/travis/build</text>
<text text-anchor="start" x="188" y="-30" font-family="Helvetica,sans-Serif" font-size="10.00">/AliceO2Group/AliceO2</text>
<text text-anchor="start" x="188" y="-19" font-family="Helvetica,sans-Serif" font-size="10.00">/Framework/Core/test/test</text>
<text text-anchor="middle" x="262" y="-8" font-family="Helvetica,sans-Serif" font-size="10.00">_FrameworkDataFlowToDDS.cxx</text>
</a>
</g>
</g>
<!-- Node2&#45;&gt;Node5 -->
<g id="edge4" class="edge"><title>Node2&#45;&gt;Node5</title>
<path fill="none" stroke="midnightblue" d="M291.885,-81.6708C286.581,-72.1448 280.922,-61.9826 275.972,-53.0921"/>
<polygon fill="midnightblue" stroke="midnightblue" points="288.904,-83.5126 296.827,-90.5468 295.02,-80.1071 288.904,-83.5126"/>
</g>
<!-- Node6&#45;&gt;Node4 -->
<g id="edge7" class="edge"><title>Node6&#45;&gt;Node4</title>
<path fill="none" stroke="midnightblue" d="M596.23,-86.6189C568.319,-73.7593 536.328,-59.0201 511.407,-47.5384"/>
<polygon fill="midnightblue" stroke="midnightblue" points="594.976,-89.8947 605.523,-90.9005 597.905,-83.5371 594.976,-89.8947"/>
</g>
<!-- Node6&#45;&gt;Node5 -->
<g id="edge9" class="edge"><title>Node6&#45;&gt;Node5</title>
<path fill="none" stroke="midnightblue" d="M567.182,-99.2337C506.065,-87.708 424.44,-71.3908 353,-54 350.126,-53.3005 347.207,-52.5708 344.262,-51.8186"/>
<polygon fill="midnightblue" stroke="midnightblue" points="566.719,-102.708 577.193,-101.113 568.011,-95.828 566.719,-102.708"/>
</g>
<!-- Node7 -->
<g id="node7" class="node"><title>Node7</title>
<g id="a_node7"><a xlink:href="../../d1/dd9/DeviceSpecHelpers_8cxx.html" target="_top" xlink:title="/home/travis/build\l/AliceO2Group/AliceO2\l/Framework/Core/src/DeviceSpec\lHelpers.cxx">
<polygon fill="none" stroke="black" points="1047.5,-1 1047.5,-53 1212.5,-53 1212.5,-1 1047.5,-1"/>
<text text-anchor="start" x="1055.5" y="-41" font-family="Helvetica,sans-Serif" font-size="10.00">/home/travis/build</text>
<text text-anchor="start" x="1055.5" y="-30" font-family="Helvetica,sans-Serif" font-size="10.00">/AliceO2Group/AliceO2</text>
<text text-anchor="start" x="1055.5" y="-19" font-family="Helvetica,sans-Serif" font-size="10.00">/Framework/Core/src/DeviceSpec</text>
<text text-anchor="middle" x="1130" y="-8" font-family="Helvetica,sans-Serif" font-size="10.00">Helpers.cxx</text>
</a>
</g>
</g>
<!-- Node6&#45;&gt;Node7 -->
<g id="edge6" class="edge"><title>Node6&#45;&gt;Node7</title>
<path fill="none" stroke="midnightblue" d="M752.867,-103.751C829.729,-92.8998 941.552,-75.4664 1038,-54 1041.08,-53.3149 1044.21,-52.5882 1047.36,-51.83"/>
<polygon fill="midnightblue" stroke="midnightblue" points="752.147,-100.317 742.73,-105.172 753.119,-107.249 752.147,-100.317"/>
</g>
<!-- Node8 -->
<g id="node8" class="node"><title>Node8</title>
<g id="a_node8"><a xlink:href="../../d9/d51/test__DeviceSpec_8cxx.html" target="_top" xlink:title="/home/travis/build\l/AliceO2Group/AliceO2\l/Framework/Core/test/test\l_DeviceSpec.cxx">
<polygon fill="none" stroke="black" points="594.5,-1 594.5,-53 725.5,-53 725.5,-1 594.5,-1"/>
<text text-anchor="start" x="602.5" y="-41" font-family="Helvetica,sans-Serif" font-size="10.00">/home/travis/build</text>
<text text-anchor="start" x="602.5" y="-30" font-family="Helvetica,sans-Serif" font-size="10.00">/AliceO2Group/AliceO2</text>
<text text-anchor="start" x="602.5" y="-19" font-family="Helvetica,sans-Serif" font-size="10.00">/Framework/Core/test/test</text>
<text text-anchor="middle" x="660" y="-8" font-family="Helvetica,sans-Serif" font-size="10.00">_DeviceSpec.cxx</text>
</a>
</g>
</g>
<!-- Node6&#45;&gt;Node8 -->
<g id="edge8" class="edge"><title>Node6&#45;&gt;Node8</title>
<path fill="none" stroke="midnightblue" d="M660,-80.4892C660,-71.3088 660,-61.616 660,-53.0921"/>
<polygon fill="midnightblue" stroke="midnightblue" points="656.5,-80.5467 660,-90.5468 663.5,-80.5468 656.5,-80.5467"/>
</g>
<!-- Node9 -->
<g id="node9" class="node"><title>Node9</title>
<g id="a_node9"><a xlink:href="../../d4/dc4/test__Graphviz_8cxx.html" target="_top" xlink:title="/home/travis/build\l/AliceO2Group/AliceO2\l/Framework/Core/test/test\l_Graphviz.cxx">
<polygon fill="none" stroke="black" points="743.5,-1 743.5,-53 874.5,-53 874.5,-1 743.5,-1"/>
<text text-anchor="start" x="751.5" y="-41" font-family="Helvetica,sans-Serif" font-size="10.00">/home/travis/build</text>
<text text-anchor="start" x="751.5" y="-30" font-family="Helvetica,sans-Serif" font-size="10.00">/AliceO2Group/AliceO2</text>
<text text-anchor="start" x="751.5" y="-19" font-family="Helvetica,sans-Serif" font-size="10.00">/Framework/Core/test/test</text>
<text text-anchor="middle" x="809" y="-8" font-family="Helvetica,sans-Serif" font-size="10.00">_Graphviz.cxx</text>
</a>
</g>
</g>
<!-- Node6&#45;&gt;Node9 -->
<g id="edge10" class="edge"><title>Node6&#45;&gt;Node9</title>
<path fill="none" stroke="midnightblue" d="M711.353,-85.6704C729.357,-75.0376 749.362,-63.2222 766.554,-53.0687"/>
<polygon fill="midnightblue" stroke="midnightblue" points="709.528,-82.6837 702.697,-90.7827 713.088,-88.711 709.528,-82.6837"/>
</g>
<!-- Node10 -->
<g id="node10" class="node"><title>Node10</title>
<g id="a_node10"><a xlink:href="../../dd/d8a/test__TimeParallelPipelining_8cxx.html" target="_top" xlink:title="/home/travis/build\l/AliceO2Group/AliceO2\l/Framework/Core/test/test\l_TimeParallelPipelining.cxx">
<polygon fill="none" stroke="black" points="892.5,-1 892.5,-53 1029.5,-53 1029.5,-1 892.5,-1"/>
<text text-anchor="start" x="900.5" y="-41" font-family="Helvetica,sans-Serif" font-size="10.00">/home/travis/build</text>
<text text-anchor="start" x="900.5" y="-30" font-family="Helvetica,sans-Serif" font-size="10.00">/AliceO2Group/AliceO2</text>
<text text-anchor="start" x="900.5" y="-19" font-family="Helvetica,sans-Serif" font-size="10.00">/Framework/Core/test/test</text>
<text text-anchor="middle" x="961" y="-8" font-family="Helvetica,sans-Serif" font-size="10.00">_TimeParallelPipelining.cxx</text>
</a>
</g>
</g>
<!-- Node6&#45;&gt;Node10 -->
<g id="edge11" class="edge"><title>Node6&#45;&gt;Node10</title>
<path fill="none" stroke="midnightblue" d="M752.428,-91.4286C792.674,-80.4393 840.307,-67.0412 883,-54 886.003,-53.0826 889.066,-52.1308 892.157,-51.1574"/>
<polygon fill="midnightblue" stroke="midnightblue" points="751.359,-88.092 742.63,-94.0963 753.198,-94.8462 751.359,-88.092"/>
</g>
</g>
</svg>
