<?xml version="1.0" encoding="UTF-8" standalone="no"?>
<!DOCTYPE svg PUBLIC "-//W3C//DTD SVG 1.1//EN"
 "http://www.w3.org/Graphics/SVG/1.1/DTD/svg11.dtd">
<!-- Generated by graphviz version 2.36.0 (20140111.2315)
 -->
<!-- Title: AliHLTEventTriggerData Pages: 1 -->
<svg width="422pt" height="300pt"
 viewBox="0.00 0.00 422.14 300.00" xmlns="http://www.w3.org/2000/svg" xmlns:xlink="http://www.w3.org/1999/xlink">
<g id="graph0" class="graph" transform="scale(1 1) rotate(0) translate(4 296)">
<title>AliHLTEventTriggerData</title>
<!-- Node1 -->
<g id="node1" class="node"><title>Node1</title>
<polygon fill="#bfbfbf" stroke="black" points="184.635,-0.5 184.635,-57.5 307.635,-57.5 307.635,-0.5 184.635,-0.5"/>
<text text-anchor="middle" x="246.135" y="-45.5" font-family="Helvetica,sans-Serif" font-size="10.00">AliHLTEventTriggerData</text>
<polyline fill="none" stroke="black" points="184.635,-38.5 307.635,-38.5 "/>
<text text-anchor="middle" x="246.135" y="-26.5" font-family="Helvetica,sans-Serif" font-size="10.00"> </text>
<polyline fill="none" stroke="black" points="184.635,-19.5 307.635,-19.5 "/>
<text text-anchor="middle" x="246.135" y="-7.5" font-family="Helvetica,sans-Serif" font-size="10.00"> </text>
</g>
<!-- Node2 -->
<g id="node2" class="node"><title>Node2</title>
<g id="a_node2"><a xlink:href="../../d2/d7b/structAliHLTEventDDLV0.html" target="_top" xlink:title="{AliHLTEventDDLV0\n||}">
<polygon fill="none" stroke="black" points="140.135,-117.5 140.135,-174.5 244.135,-174.5 244.135,-117.5 140.135,-117.5"/>
<text text-anchor="middle" x="192.135" y="-162.5" font-family="Helvetica,sans-Serif" font-size="10.00">AliHLTEventDDLV0</text>
<polyline fill="none" stroke="black" points="140.135,-155.5 244.135,-155.5 "/>
<text text-anchor="middle" x="192.135" y="-143.5" font-family="Helvetica,sans-Serif" font-size="10.00"> </text>
<polyline fill="none" stroke="black" points="140.135,-136.5 244.135,-136.5 "/>
<text text-anchor="middle" x="192.135" y="-124.5" font-family="Helvetica,sans-Serif" font-size="10.00"> </text>
</a>
</g>
</g>
<!-- Node2&#45;&gt;Node1 -->
<g id="edge1" class="edge"><title>Node2&#45;&gt;Node1</title>
<path fill="none" stroke="#404040" d="M191.217,-117.298C191.794,-104.206 193.993,-88.7023 200.135,-76 201.584,-73.0053 203.307,-70.0908 205.224,-67.2777"/>
<polygon fill="none" stroke="#404040" points="205.441,-67.002 206.009,-59.8133 212.863,-57.5725 212.295,-64.7612 205.441,-67.002"/>
<text text-anchor="middle" x="238.635" y="-84.5" font-family="Helvetica,sans-Serif" font-size="10.00"> +fReadoutListV0</text>
</g>
<!-- Node3 -->
<g id="node3" class="node"><title>Node3</title>
<polygon fill="none" stroke="#bfbfbf" points="164.135,-234.5 164.135,-291.5 220.135,-291.5 220.135,-234.5 164.135,-234.5"/>
<text text-anchor="middle" x="192.135" y="-279.5" font-family="Helvetica,sans-Serif" font-size="10.00">unsigned</text>
<polyline fill="none" stroke="#bfbfbf" points="164.135,-272.5 220.135,-272.5 "/>
<text text-anchor="middle" x="192.135" y="-260.5" font-family="Helvetica,sans-Serif" font-size="10.00"> </text>
<polyline fill="none" stroke="#bfbfbf" points="164.135,-253.5 220.135,-253.5 "/>
<text text-anchor="middle" x="192.135" y="-241.5" font-family="Helvetica,sans-Serif" font-size="10.00"> </text>
</g>
<!-- Node3&#45;&gt;Node1 -->
<g id="edge6" class="edge"><title>Node3&#45;&gt;Node1</title>
<path fill="none" stroke="#404040" d="M163.987,-258.014C122.175,-250.411 44.9631,-229.525 11.1354,-176 -3.1112,-153.458 -4.1408,-137.857 11.1354,-116 47.2882,-64.272 118.078,-43.5581 172.556,-35.3168"/>
<polygon fill="none" stroke="#404040" points="172.728,-35.2933 178.124,-30.5106 184.615,-33.6529 179.218,-38.4355 172.728,-35.2933"/>
<text text-anchor="middle" x="71.1354" y="-160" font-family="Helvetica,sans-Serif" font-size="10.00"> +fCommonHeader</text>
<text text-anchor="middle" x="71.1354" y="-149" font-family="Helvetica,sans-Serif" font-size="10.00">+fCommonHeaderWordCnt</text>
<text text-anchor="middle" x="71.1354" y="-138" font-family="Helvetica,sans-Serif" font-size="10.00">+fHLTStatus</text>
<text text-anchor="middle" x="71.1354" y="-127" font-family="Helvetica,sans-Serif" font-size="10.00">+fAttributes</text>
</g>
<!-- Node3&#45;&gt;Node2 -->
<g id="edge2" class="edge"><title>Node3&#45;&gt;Node2</title>
<path fill="none" stroke="#404040" d="M192.135,-234.455C192.135,-220.193 192.135,-202.521 192.135,-186.803"/>
<polygon fill="none" stroke="#404040" points="192.136,-186.719 188.135,-180.719 192.135,-174.719 196.135,-180.719 192.136,-186.719"/>
<text text-anchor="middle" x="210.135" y="-208" font-family="Helvetica,sans-Serif" font-size="10.00"> +fList</text>
<text text-anchor="middle" x="210.135" y="-197" font-family="Helvetica,sans-Serif" font-size="10.00">+fCount</text>
</g>
<!-- Node4 -->
<g id="node4" class="node"><title>Node4</title>
<g id="a_node4"><a xlink:href="../../de/dd6/structAliHLTEventDDLV1.html" target="_top" xlink:title="{AliHLTEventDDLV1\n||}">
<polygon fill="none" stroke="black" points="262.135,-117.5 262.135,-174.5 366.135,-174.5 366.135,-117.5 262.135,-117.5"/>
<text text-anchor="middle" x="314.135" y="-162.5" font-family="Helvetica,sans-Serif" font-size="10.00">AliHLTEventDDLV1</text>
<polyline fill="none" stroke="black" points="262.135,-155.5 366.135,-155.5 "/>
<text text-anchor="middle" x="314.135" y="-143.5" font-family="Helvetica,sans-Serif" font-size="10.00"> </text>
<polyline fill="none" stroke="black" points="262.135,-136.5 366.135,-136.5 "/>
<text text-anchor="middle" x="314.135" y="-124.5" font-family="Helvetica,sans-Serif" font-size="10.00"> </text>
</a>
</g>
</g>
<!-- Node3&#45;&gt;Node4 -->
<g id="edge4" class="edge"><title>Node3&#45;&gt;Node4</title>
<path fill="none" stroke="#404040" d="M220.431,-235.328C236.855,-219.846 257.77,-200.131 275.672,-183.256"/>
<polygon fill="none" stroke="#404040" points="275.987,-182.959 277.61,-175.933 284.719,-174.728 283.097,-181.755 275.987,-182.959"/>
<text text-anchor="middle" x="282.135" y="-208" font-family="Helvetica,sans-Serif" font-size="10.00"> +fList</text>
<text text-anchor="middle" x="282.135" y="-197" font-family="Helvetica,sans-Serif" font-size="10.00">+fCount</text>
</g>
<!-- Node4&#45;&gt;Node1 -->
<g id="edge3" class="edge"><title>Node4&#45;&gt;Node1</title>
<path fill="none" stroke="#404040" d="M300.173,-117.445C293.493,-104.67 285.207,-89.3864 277.135,-76 275.569,-73.4022 273.919,-70.7472 272.229,-68.0884"/>
<polygon fill="none" stroke="#404040" points="272.16,-67.9826 265.533,-65.1389 265.609,-57.9282 272.236,-60.7718 272.16,-67.9826"/>
<text text-anchor="middle" x="326.135" y="-90" font-family="Helvetica,sans-Serif" font-size="10.00"> +fReadoutList</text>
<text text-anchor="middle" x="326.135" y="-79" font-family="Helvetica,sans-Serif" font-size="10.00">+fReadoutListV1</text>
</g>
<!-- Node5 -->
<g id="node5" class="node"><title>Node5</title>
<polygon fill="none" stroke="#bfbfbf" points="384.635,-117 384.635,-175 413.635,-175 413.635,-117 384.635,-117"/>
<polyline fill="none" stroke="#bfbfbf" points="384.635,-155 413.635,-155 "/>
<text text-anchor="middle" x="399.135" y="-143" font-family="Helvetica,sans-Serif" font-size="10.00"> </text>
<polyline fill="none" stroke="#bfbfbf" points="384.635,-136 413.635,-136 "/>
<text text-anchor="middle" x="399.135" y="-124" font-family="Helvetica,sans-Serif" font-size="10.00"> </text>
</g>
<!-- Node5&#45;&gt;Node1 -->
<g id="edge5" class="edge"><title>Node5&#45;&gt;Node1</title>
<path fill="none" stroke="#404040" d="M391.578,-116.758C386.615,-102.901 378.827,-86.8901 367.135,-76 353.645,-63.4347 336.377,-54.1989 319.136,-47.449"/>
<polygon fill="none" stroke="#404040" points="319.133,-47.4482 312.13,-49.1663 307.85,-43.3624 314.854,-41.6443 319.133,-47.4482"/>
<text text-anchor="middle" x="398.635" y="-84.5" font-family="Helvetica,sans-Serif" font-size="10.00"> +@78</text>
</g>
</g>
</svg>
