<?xml version="1.0" encoding="UTF-8" standalone="no"?>
<!DOCTYPE svg PUBLIC "-//W3C//DTD SVG 1.1//EN"
 "http://www.w3.org/Graphics/SVG/1.1/DTD/svg11.dtd">
<!-- Generated by graphviz version 2.36.0 (20140111.2315)
 -->
<!-- Title: /home/travis/build/AliceO2Group/AliceO2/Utilities/DataFlow/src/FakeTimeframeGeneratorDevice.cxx Pages: 1 -->
<svg width="981pt" height="298pt"
 viewBox="0.00 0.00 980.78 298.00" xmlns="http://www.w3.org/2000/svg" xmlns:xlink="http://www.w3.org/1999/xlink">
<g id="graph0" class="graph" transform="scale(1 1) rotate(0) translate(4 294)">
<title>/home/travis/build/AliceO2Group/AliceO2/Utilities/DataFlow/src/FakeTimeframeGeneratorDevice.cxx</title>
<!-- Node1 -->
<g id="node1" class="node"><title>Node1</title>
<polygon fill="#bfbfbf" stroke="black" points="323.785,-237 323.785,-289 503.785,-289 503.785,-237 323.785,-237"/>
<text text-anchor="start" x="331.785" y="-277" font-family="Helvetica,sans-Serif" font-size="10.00">/home/travis/build</text>
<text text-anchor="start" x="331.785" y="-266" font-family="Helvetica,sans-Serif" font-size="10.00">/AliceO2Group/AliceO2</text>
<text text-anchor="start" x="331.785" y="-255" font-family="Helvetica,sans-Serif" font-size="10.00">/Utilities/DataFlow/src</text>
<text text-anchor="middle" x="413.785" y="-244" font-family="Helvetica,sans-Serif" font-size="10.00">/FakeTimeframeGeneratorDevice.cxx</text>
</g>
<!-- Node2 -->
<g id="node2" class="node"><title>Node2</title>
<polygon fill="none" stroke="#bfbfbf" points="16.7847,-0.5 16.7847,-19.5 62.7847,-19.5 62.7847,-0.5 16.7847,-0.5"/>
<text text-anchor="middle" x="39.7847" y="-7.5" font-family="Helvetica,sans-Serif" font-size="10.00">cstring</text>
</g>
<!-- Node1&#45;&gt;Node2 -->
<g id="edge1" class="edge"><title>Node1&#45;&gt;Node2</title>
<path fill="none" stroke="midnightblue" d="M323.414,-259.011C224.412,-253.765 74.3794,-239.373 34.7847,-200 -11.0769,-154.395 -2.96491,-118.47 13.7847,-56 16.4383,-46.1031 21.854,-36.1315 27.0591,-28.099"/>
<polygon fill="midnightblue" stroke="midnightblue" points="30.0738,-29.8935 32.8945,-19.6811 24.3209,-25.9055 30.0738,-29.8935"/>
</g>
<!-- Node3 -->
<g id="node3" class="node"><title>Node3</title>
<g id="a_node3"><a xlink:href="../../d4/d98/FakeTimeframeGeneratorDevice_8h.html" target="_top" xlink:title="DataFlow/FakeTimeframeGenerator\lDevice.h">
<polygon fill="none" stroke="black" points="44.2847,-169 44.2847,-199 217.285,-199 217.285,-169 44.2847,-169"/>
<text text-anchor="start" x="52.2847" y="-187" font-family="Helvetica,sans-Serif" font-size="10.00">DataFlow/FakeTimeframeGenerator</text>
<text text-anchor="middle" x="130.785" y="-176" font-family="Helvetica,sans-Serif" font-size="10.00">Device.h</text>
</a>
</g>
</g>
<!-- Node1&#45;&gt;Node3 -->
<g id="edge2" class="edge"><title>Node1&#45;&gt;Node3</title>
<path fill="none" stroke="midnightblue" d="M323.464,-237.425C280.698,-225.789 230.724,-212.192 192.388,-201.761"/>
<polygon fill="midnightblue" stroke="midnightblue" points="192.971,-198.293 182.403,-199.045 191.134,-205.047 192.971,-198.293"/>
</g>
<!-- Node6 -->
<g id="node6" class="node"><title>Node6</title>
<g id="a_node6"><a xlink:href="../../dc/dcd/DataHeader_8h.html" target="_top" xlink:title="Headers/DataHeader.h">
<polygon fill="none" stroke="black" points="207.285,-56.5 207.285,-75.5 324.285,-75.5 324.285,-56.5 207.285,-56.5"/>
<text text-anchor="middle" x="265.785" y="-63.5" font-family="Helvetica,sans-Serif" font-size="10.00">Headers/DataHeader.h</text>
</a>
</g>
</g>
<!-- Node1&#45;&gt;Node6 -->
<g id="edge22" class="edge"><title>Node1&#45;&gt;Node6</title>
<path fill="none" stroke="midnightblue" d="M323.565,-243.599C300.597,-234.404 278.544,-220.628 264.785,-200 241.586,-165.22 251.702,-113.11 259.613,-85.5798"/>
<polygon fill="midnightblue" stroke="midnightblue" points="263.054,-86.2978 262.665,-75.7101 256.367,-84.23 263.054,-86.2978"/>
</g>
<!-- Node12 -->
<g id="node12" class="node"><title>Node12</title>
<g id="a_node12"><a xlink:href="../../dd/d1a/FakeTimeframeBuilder_8h.html" target="_top" xlink:title="DataFlow/FakeTimeframeBuilder.h">
<polygon fill="none" stroke="black" points="273.785,-174.5 273.785,-193.5 441.785,-193.5 441.785,-174.5 273.785,-174.5"/>
<text text-anchor="middle" x="357.785" y="-181.5" font-family="Helvetica,sans-Serif" font-size="10.00">DataFlow/FakeTimeframeBuilder.h</text>
</a>
</g>
</g>
<!-- Node1&#45;&gt;Node12 -->
<g id="edge12" class="edge"><title>Node1&#45;&gt;Node12</title>
<path fill="none" stroke="midnightblue" d="M395.448,-236.787C387.06,-225.253 377.353,-211.906 369.894,-201.651"/>
<polygon fill="midnightblue" stroke="midnightblue" points="372.721,-199.586 364.009,-193.558 367.06,-203.704 372.721,-199.586"/>
</g>
<!-- Node13 -->
<g id="node13" class="node"><title>Node13</title>
<polygon fill="none" stroke="#bfbfbf" points="447.785,-112.5 447.785,-131.5 491.785,-131.5 491.785,-112.5 447.785,-112.5"/>
<text text-anchor="middle" x="469.785" y="-119.5" font-family="Helvetica,sans-Serif" font-size="10.00">vector</text>
</g>
<!-- Node1&#45;&gt;Node13 -->
<g id="edge24" class="edge"><title>Node1&#45;&gt;Node13</title>
<path fill="none" stroke="midnightblue" d="M430.476,-236.86C437.199,-225.891 444.578,-212.663 449.785,-200 457.646,-180.881 463.151,-157.798 466.369,-141.921"/>
<polygon fill="midnightblue" stroke="midnightblue" points="469.865,-142.273 468.308,-131.794 462.989,-140.957 469.865,-142.273"/>
</g>
<!-- Node15 -->
<g id="node15" class="node"><title>Node15</title>
<g id="a_node15"><a xlink:href="../../dd/ddb/TimeframeParser_8h.html" target="_top" xlink:title="DataFlow/TimeframeParser.h">
<polygon fill="none" stroke="black" points="663.285,-174.5 663.285,-193.5 808.285,-193.5 808.285,-174.5 663.285,-174.5"/>
<text text-anchor="middle" x="735.785" y="-181.5" font-family="Helvetica,sans-Serif" font-size="10.00">DataFlow/TimeframeParser.h</text>
</a>
</g>
</g>
<!-- Node1&#45;&gt;Node15 -->
<g id="edge17" class="edge"><title>Node1&#45;&gt;Node15</title>
<path fill="none" stroke="midnightblue" d="M503.908,-240.449C564.528,-225.953 641.898,-207.451 690.15,-195.913"/>
<polygon fill="midnightblue" stroke="midnightblue" points="691.076,-199.29 699.988,-193.56 689.448,-192.482 691.076,-199.29"/>
</g>
<!-- Node17 -->
<g id="node17" class="node"><title>Node17</title>
<g id="a_node17"><a xlink:href="../../d2/d1b/SubframeMetadata_8h.html" target="_top" xlink:title="Headers/SubframeMetadata.h">
<polygon fill="none" stroke="black" points="498.285,-174.5 498.285,-193.5 645.285,-193.5 645.285,-174.5 498.285,-174.5"/>
<text text-anchor="middle" x="571.785" y="-181.5" font-family="Helvetica,sans-Serif" font-size="10.00">Headers/SubframeMetadata.h</text>
</a>
</g>
</g>
<!-- Node1&#45;&gt;Node17 -->
<g id="edge20" class="edge"><title>Node1&#45;&gt;Node17</title>
<path fill="none" stroke="midnightblue" d="M465.52,-236.787C492.055,-223.855 523.269,-208.644 544.973,-198.067"/>
<polygon fill="midnightblue" stroke="midnightblue" points="546.769,-201.085 554.225,-193.558 543.702,-194.792 546.769,-201.085"/>
</g>
<!-- Node18 -->
<g id="node18" class="node"><title>Node18</title>
<polygon fill="none" stroke="#bfbfbf" points="826.785,-174.5 826.785,-193.5 972.785,-193.5 972.785,-174.5 826.785,-174.5"/>
<text text-anchor="middle" x="899.785" y="-181.5" font-family="Helvetica,sans-Serif" font-size="10.00">options/FairMQProgOptions.h</text>
</g>
<!-- Node1&#45;&gt;Node18 -->
<g id="edge23" class="edge"><title>Node1&#45;&gt;Node18</title>
<path fill="none" stroke="midnightblue" d="M503.926,-248.821C585.67,-236.706 709.439,-217.954 816.785,-200 825.494,-198.543 834.706,-196.941 843.701,-195.341"/>
<polygon fill="midnightblue" stroke="midnightblue" points="844.499,-198.754 853.725,-193.545 843.264,-191.864 844.499,-198.754"/>
</g>
<!-- Node4 -->
<g id="node4" class="node"><title>Node4</title>
<g id="a_node4"><a xlink:href="../../d2/dee/O2Device_8h.html" target="_top" xlink:title="O2Device/O2Device.h">
<polygon fill="none" stroke="black" points="78.2847,-112.5 78.2847,-131.5 193.285,-131.5 193.285,-112.5 78.2847,-112.5"/>
<text text-anchor="middle" x="135.785" y="-119.5" font-family="Helvetica,sans-Serif" font-size="10.00">O2Device/O2Device.h</text>
</a>
</g>
</g>
<!-- Node3&#45;&gt;Node4 -->
<g id="edge3" class="edge"><title>Node3&#45;&gt;Node4</title>
<path fill="none" stroke="midnightblue" d="M131.97,-168.781C132.644,-160.691 133.496,-150.462 134.224,-141.725"/>
<polygon fill="midnightblue" stroke="midnightblue" points="137.715,-141.987 135.057,-131.731 130.739,-141.405 137.715,-141.987"/>
</g>
<!-- Node5 -->
<g id="node5" class="node"><title>Node5</title>
<polygon fill="none" stroke="#bfbfbf" points="100.785,-56.5 100.785,-75.5 188.785,-75.5 188.785,-56.5 100.785,-56.5"/>
<text text-anchor="middle" x="144.785" y="-63.5" font-family="Helvetica,sans-Serif" font-size="10.00">FairMQDevice.h</text>
</g>
<!-- Node4&#45;&gt;Node5 -->
<g id="edge4" class="edge"><title>Node4&#45;&gt;Node5</title>
<path fill="none" stroke="midnightblue" d="M137.271,-112.083C138.464,-104.927 140.179,-94.6353 141.67,-85.6911"/>
<polygon fill="midnightblue" stroke="midnightblue" points="145.135,-86.1904 143.326,-75.7511 138.23,-85.0396 145.135,-86.1904"/>
</g>
<!-- Node4&#45;&gt;Node6 -->
<g id="edge5" class="edge"><title>Node4&#45;&gt;Node6</title>
<path fill="none" stroke="midnightblue" d="M156.384,-112.444C177.778,-103.557 211.466,-89.5632 235.809,-79.4514"/>
<polygon fill="midnightblue" stroke="midnightblue" points="237.39,-82.5848 245.282,-75.5164 234.705,-76.1203 237.39,-82.5848"/>
</g>
<!-- Node11 -->
<g id="node11" class="node"><title>Node11</title>
<polygon fill="none" stroke="#bfbfbf" points="23.2847,-56.5 23.2847,-75.5 82.2847,-75.5 82.2847,-56.5 23.2847,-56.5"/>
<text text-anchor="middle" x="52.7847" y="-63.5" font-family="Helvetica,sans-Serif" font-size="10.00">stdexcept</text>
</g>
<!-- Node4&#45;&gt;Node11 -->
<g id="edge11" class="edge"><title>Node4&#45;&gt;Node11</title>
<path fill="none" stroke="midnightblue" d="M122.449,-112.324C109.623,-103.979 89.9998,-91.2122 74.8449,-81.3524"/>
<polygon fill="midnightblue" stroke="midnightblue" points="76.3779,-78.1742 66.087,-75.6545 72.5605,-84.0417 76.3779,-78.1742"/>
</g>
<!-- Node6&#45;&gt;Node2 -->
<g id="edge9" class="edge"><title>Node6&#45;&gt;Node2</title>
<path fill="none" stroke="midnightblue" d="M229.974,-56.4435C186.832,-46.1351 114.935,-28.9561 72.9901,-18.934"/>
<polygon fill="midnightblue" stroke="midnightblue" points="73.547,-15.4686 63.0074,-16.5488 71.9202,-22.277 73.547,-15.4686"/>
</g>
<!-- Node7 -->
<g id="node7" class="node"><title>Node7</title>
<polygon fill="none" stroke="#bfbfbf" points="125.785,-0.5 125.785,-19.5 171.785,-19.5 171.785,-0.5 125.785,-0.5"/>
<text text-anchor="middle" x="148.785" y="-7.5" font-family="Helvetica,sans-Serif" font-size="10.00">cstdint</text>
</g>
<!-- Node6&#45;&gt;Node7 -->
<g id="edge6" class="edge"><title>Node6&#45;&gt;Node7</title>
<path fill="none" stroke="midnightblue" d="M247.246,-56.4435C228.162,-47.6356 198.21,-33.8116 176.349,-23.722"/>
<polygon fill="midnightblue" stroke="midnightblue" points="177.783,-20.5292 167.237,-19.5164 174.85,-26.8849 177.783,-20.5292"/>
</g>
<!-- Node8 -->
<g id="node8" class="node"><title>Node8</title>
<polygon fill="none" stroke="#bfbfbf" points="331.785,-0.5 331.785,-19.5 383.785,-19.5 383.785,-0.5 331.785,-0.5"/>
<text text-anchor="middle" x="357.785" y="-7.5" font-family="Helvetica,sans-Serif" font-size="10.00">memory</text>
</g>
<!-- Node6&#45;&gt;Node8 -->
<g id="edge7" class="edge"><title>Node6&#45;&gt;Node8</title>
<path fill="none" stroke="midnightblue" d="M280.566,-56.324C295.052,-47.8215 317.358,-34.7288 334.278,-24.7975"/>
<polygon fill="midnightblue" stroke="midnightblue" points="336.188,-27.735 343.04,-19.6545 332.644,-21.6981 336.188,-27.735"/>
</g>
<!-- Node9 -->
<g id="node9" class="node"><title>Node9</title>
<polygon fill="none" stroke="#bfbfbf" points="190.285,-0.5 190.285,-19.5 239.285,-19.5 239.285,-0.5 190.285,-0.5"/>
<text text-anchor="middle" x="214.785" y="-7.5" font-family="Helvetica,sans-Serif" font-size="10.00">cassert</text>
</g>
<!-- Node6&#45;&gt;Node9 -->
<g id="edge8" class="edge"><title>Node6&#45;&gt;Node9</title>
<path fill="none" stroke="midnightblue" d="M257.363,-56.083C249.937,-48.2195 238.933,-36.5688 229.973,-27.0813"/>
<polygon fill="midnightblue" stroke="midnightblue" points="232.46,-24.618 223.05,-19.7511 227.371,-29.4244 232.46,-24.618"/>
</g>
<!-- Node10 -->
<g id="node10" class="node"><title>Node10</title>
<polygon fill="none" stroke="#bfbfbf" points="257.785,-0.5 257.785,-19.5 313.785,-19.5 313.785,-0.5 257.785,-0.5"/>
<text text-anchor="middle" x="285.785" y="-7.5" font-family="Helvetica,sans-Serif" font-size="10.00">algorithm</text>
</g>
<!-- Node6&#45;&gt;Node10 -->
<g id="edge10" class="edge"><title>Node6&#45;&gt;Node10</title>
<path fill="none" stroke="midnightblue" d="M269.087,-56.083C271.767,-48.8486 275.633,-38.4087 278.971,-29.3968"/>
<polygon fill="midnightblue" stroke="midnightblue" points="282.353,-30.3442 282.544,-19.7511 275.788,-27.9129 282.353,-30.3442"/>
</g>
<!-- Node12&#45;&gt;Node6 -->
<g id="edge13" class="edge"><title>Node12&#45;&gt;Node6</title>
<path fill="none" stroke="midnightblue" d="M350.87,-174.281C335.61,-155.041 298.839,-108.677 279.001,-83.6641"/>
<polygon fill="midnightblue" stroke="midnightblue" points="281.486,-81.1649 272.53,-75.5048 276.002,-85.5147 281.486,-81.1649"/>
</g>
<!-- Node12&#45;&gt;Node8 -->
<g id="edge15" class="edge"><title>Node12&#45;&gt;Node8</title>
<path fill="none" stroke="midnightblue" d="M357.785,-174.234C357.785,-147.548 357.785,-66.8773 357.785,-29.8931"/>
<polygon fill="midnightblue" stroke="midnightblue" points="361.285,-29.5442 357.785,-19.5442 354.285,-29.5442 361.285,-29.5442"/>
</g>
<!-- Node12&#45;&gt;Node13 -->
<g id="edge14" class="edge"><title>Node12&#45;&gt;Node13</title>
<path fill="none" stroke="midnightblue" d="M373.832,-174.403C392.378,-164.468 423.124,-147.997 444.806,-136.381"/>
<polygon fill="midnightblue" stroke="midnightblue" points="446.606,-139.388 453.768,-131.581 443.3,-133.218 446.606,-139.388"/>
</g>
<!-- Node14 -->
<g id="node14" class="node"><title>Node14</title>
<polygon fill="none" stroke="#bfbfbf" points="573.285,-112.5 573.285,-131.5 632.285,-131.5 632.285,-112.5 573.285,-112.5"/>
<text text-anchor="middle" x="602.785" y="-119.5" font-family="Helvetica,sans-Serif" font-size="10.00">functional</text>
</g>
<!-- Node12&#45;&gt;Node14 -->
<g id="edge16" class="edge"><title>Node12&#45;&gt;Node14</title>
<path fill="none" stroke="midnightblue" d="M392.627,-174.467C437.674,-163.435 515.931,-144.27 563.184,-132.698"/>
<polygon fill="midnightblue" stroke="midnightblue" points="564.179,-136.058 573.059,-130.28 562.514,-129.259 564.179,-136.058"/>
</g>
<!-- Node15&#45;&gt;Node14 -->
<g id="edge19" class="edge"><title>Node15&#45;&gt;Node14</title>
<path fill="none" stroke="midnightblue" d="M716.729,-174.403C694.31,-164.29 656.879,-147.404 631.072,-135.761"/>
<polygon fill="midnightblue" stroke="midnightblue" points="632.36,-132.502 621.805,-131.581 629.481,-138.883 632.36,-132.502"/>
</g>
<!-- Node16 -->
<g id="node16" class="node"><title>Node16</title>
<polygon fill="none" stroke="#bfbfbf" points="713.285,-112.5 713.285,-131.5 758.285,-131.5 758.285,-112.5 713.285,-112.5"/>
<text text-anchor="middle" x="735.785" y="-119.5" font-family="Helvetica,sans-Serif" font-size="10.00">iosfwd</text>
</g>
<!-- Node15&#45;&gt;Node16 -->
<g id="edge18" class="edge"><title>Node15&#45;&gt;Node16</title>
<path fill="none" stroke="midnightblue" d="M735.785,-174.403C735.785,-165.938 735.785,-152.728 735.785,-141.82"/>
<polygon fill="midnightblue" stroke="midnightblue" points="739.285,-141.581 735.785,-131.581 732.285,-141.581 739.285,-141.581"/>
</g>
<!-- Node17&#45;&gt;Node13 -->
<g id="edge21" class="edge"><title>Node17&#45;&gt;Node13</title>
<path fill="none" stroke="midnightblue" d="M557.171,-174.403C540.431,-164.557 512.78,-148.291 493.066,-136.695"/>
<polygon fill="midnightblue" stroke="midnightblue" points="494.766,-133.634 484.372,-131.581 491.217,-139.668 494.766,-133.634"/>
</g>
</g>
</svg>
