<?xml version="1.0" encoding="UTF-8" standalone="no"?>
<!DOCTYPE svg PUBLIC "-//W3C//DTD SVG 1.1//EN"
 "http://www.w3.org/Graphics/SVG/1.1/DTD/svg11.dtd">
<!-- Generated by graphviz version 2.36.0 (20140111.2315)
 -->
<!-- Title: /home/travis/build/AliceO2Group/AliceO2/Detectors/TOF/simulation/include/TOFSimulation/Detector.h Pages: 1 -->
<svg width="796pt" height="242pt"
 viewBox="0.00 0.00 796.00 242.00" xmlns="http://www.w3.org/2000/svg" xmlns:xlink="http://www.w3.org/1999/xlink">
<g id="graph0" class="graph" transform="scale(1 1) rotate(0) translate(4 238)">
<title>/home/travis/build/AliceO2Group/AliceO2/Detectors/TOF/simulation/include/TOFSimulation/Detector.h</title>
<!-- Node1 -->
<g id="node1" class="node"><title>Node1</title>
<polygon fill="#bfbfbf" stroke="black" points="335.5,-181 335.5,-233 502.5,-233 502.5,-181 335.5,-181"/>
<text text-anchor="start" x="343.5" y="-221" font-family="Helvetica,sans-Serif" font-size="10.00">/home/travis/build</text>
<text text-anchor="start" x="343.5" y="-210" font-family="Helvetica,sans-Serif" font-size="10.00">/AliceO2Group/AliceO2</text>
<text text-anchor="start" x="343.5" y="-199" font-family="Helvetica,sans-Serif" font-size="10.00">/Detectors/TOF/simulation</text>
<text text-anchor="middle" x="419" y="-188" font-family="Helvetica,sans-Serif" font-size="10.00">/include/TOFSimulation/Detector.h</text>
</g>
<!-- Node2 -->
<g id="node2" class="node"><title>Node2</title>
<g id="a_node2"><a xlink:href="../../d3/ddc/drawEMCALgeometry_8C.html" target="_top" xlink:title="/home/travis/build\l/AliceO2Group/AliceO2\l/Detectors/EMCAL/testsimulation\l/drawEMCALgeometry.C">
<polygon fill="none" stroke="black" points="0,-91 0,-143 164,-143 164,-91 0,-91"/>
<text text-anchor="start" x="8" y="-131" font-family="Helvetica,sans-Serif" font-size="10.00">/home/travis/build</text>
<text text-anchor="start" x="8" y="-120" font-family="Helvetica,sans-Serif" font-size="10.00">/AliceO2Group/AliceO2</text>
<text text-anchor="start" x="8" y="-109" font-family="Helvetica,sans-Serif" font-size="10.00">/Detectors/EMCAL/testsimulation</text>
<text text-anchor="middle" x="82" y="-98" font-family="Helvetica,sans-Serif" font-size="10.00">/drawEMCALgeometry.C</text>
</a>
</g>
</g>
<!-- Node1&#45;&gt;Node2 -->
<g id="edge1" class="edge"><title>Node1&#45;&gt;Node2</title>
<path fill="none" stroke="midnightblue" d="M325.469,-183.161C279.459,-171.739 223.227,-157.501 173,-144 170.144,-143.232 167.239,-142.444 164.308,-141.642"/>
<polygon fill="midnightblue" stroke="midnightblue" points="324.877,-186.62 335.426,-185.628 326.561,-179.825 324.877,-186.62"/>
</g>
<!-- Node3 -->
<g id="node3" class="node"><title>Node3</title>
<g id="a_node3"><a xlink:href="../../de/d69/drawTOFgeometry_8C.html" target="_top" xlink:title="/home/travis/build\l/AliceO2Group/AliceO2\l/Detectors/TOF/prototyping\l/drawTOFgeometry.C">
<polygon fill="none" stroke="black" points="182,-91 182,-143 318,-143 318,-91 182,-91"/>
<text text-anchor="start" x="190" y="-131" font-family="Helvetica,sans-Serif" font-size="10.00">/home/travis/build</text>
<text text-anchor="start" x="190" y="-120" font-family="Helvetica,sans-Serif" font-size="10.00">/AliceO2Group/AliceO2</text>
<text text-anchor="start" x="190" y="-109" font-family="Helvetica,sans-Serif" font-size="10.00">/Detectors/TOF/prototyping</text>
<text text-anchor="middle" x="250" y="-98" font-family="Helvetica,sans-Serif" font-size="10.00">/drawTOFgeometry.C</text>
</a>
</g>
</g>
<!-- Node1&#45;&gt;Node3 -->
<g id="edge2" class="edge"><title>Node1&#45;&gt;Node3</title>
<path fill="none" stroke="midnightblue" d="M361.588,-176.105C340.953,-165.36 317.909,-153.361 298.143,-143.069"/>
<polygon fill="midnightblue" stroke="midnightblue" points="360.085,-179.269 370.571,-180.783 363.318,-173.06 360.085,-179.269"/>
</g>
<!-- Node4 -->
<g id="node4" class="node"><title>Node4</title>
<g id="a_node4"><a xlink:href="../../d0/d85/TOF_2simulation_2include_2TOFSimulation_2Digitizer_8h.html" target="_top" xlink:title="/home/travis/build\l/AliceO2Group/AliceO2\l/Detectors/TOF/simulation\l/include/TOFSimulation/Digitizer.h">
<polygon fill="none" stroke="black" points="336,-91 336,-143 502,-143 502,-91 336,-91"/>
<text text-anchor="start" x="344" y="-131" font-family="Helvetica,sans-Serif" font-size="10.00">/home/travis/build</text>
<text text-anchor="start" x="344" y="-120" font-family="Helvetica,sans-Serif" font-size="10.00">/AliceO2Group/AliceO2</text>
<text text-anchor="start" x="344" y="-109" font-family="Helvetica,sans-Serif" font-size="10.00">/Detectors/TOF/simulation</text>
<text text-anchor="middle" x="419" y="-98" font-family="Helvetica,sans-Serif" font-size="10.00">/include/TOFSimulation/Digitizer.h</text>
</a>
</g>
</g>
<!-- Node1&#45;&gt;Node4 -->
<g id="edge3" class="edge"><title>Node1&#45;&gt;Node4</title>
<path fill="none" stroke="midnightblue" d="M419,-170.489C419,-161.309 419,-151.616 419,-143.092"/>
<polygon fill="midnightblue" stroke="midnightblue" points="415.5,-170.547 419,-180.547 422.5,-170.547 415.5,-170.547"/>
</g>
<!-- Node6 -->
<g id="node6" class="node"><title>Node6</title>
<g id="a_node6"><a xlink:href="../../d4/d59/TOF_2simulation_2src_2Detector_8cxx.html" target="_top" xlink:title="/home/travis/build\l/AliceO2Group/AliceO2\l/Detectors/TOF/simulation\l/src/Detector.cxx">
<polygon fill="none" stroke="black" points="520,-91 520,-143 652,-143 652,-91 520,-91"/>
<text text-anchor="start" x="528" y="-131" font-family="Helvetica,sans-Serif" font-size="10.00">/home/travis/build</text>
<text text-anchor="start" x="528" y="-120" font-family="Helvetica,sans-Serif" font-size="10.00">/AliceO2Group/AliceO2</text>
<text text-anchor="start" x="528" y="-109" font-family="Helvetica,sans-Serif" font-size="10.00">/Detectors/TOF/simulation</text>
<text text-anchor="middle" x="586" y="-98" font-family="Helvetica,sans-Serif" font-size="10.00">/src/Detector.cxx</text>
</a>
</g>
</g>
<!-- Node1&#45;&gt;Node6 -->
<g id="edge5" class="edge"><title>Node1&#45;&gt;Node6</title>
<path fill="none" stroke="midnightblue" d="M475.733,-176.105C496.123,-165.36 518.895,-153.361 538.426,-143.069"/>
<polygon fill="midnightblue" stroke="midnightblue" points="474.071,-173.024 466.855,-180.783 477.334,-179.217 474.071,-173.024"/>
</g>
<!-- Node7 -->
<g id="node7" class="node"><title>Node7</title>
<g id="a_node7"><a xlink:href="../../dc/d6a/run__sim__tof_8C.html" target="_top" xlink:title="/home/travis/build\l/AliceO2Group/AliceO2\l/macro/run_sim_tof.C">
<polygon fill="none" stroke="black" points="670,-96.5 670,-137.5 788,-137.5 788,-96.5 670,-96.5"/>
<text text-anchor="start" x="678" y="-125.5" font-family="Helvetica,sans-Serif" font-size="10.00">/home/travis/build</text>
<text text-anchor="start" x="678" y="-114.5" font-family="Helvetica,sans-Serif" font-size="10.00">/AliceO2Group/AliceO2</text>
<text text-anchor="middle" x="729" y="-103.5" font-family="Helvetica,sans-Serif" font-size="10.00">/macro/run_sim_tof.C</text>
</a>
</g>
</g>
<!-- Node1&#45;&gt;Node7 -->
<g id="edge6" class="edge"><title>Node1&#45;&gt;Node7</title>
<path fill="none" stroke="midnightblue" d="M512.344,-184.728C557.578,-173.75 612.484,-159.434 661,-144 667.143,-142.046 673.537,-139.838 679.838,-137.556"/>
<polygon fill="midnightblue" stroke="midnightblue" points="511.45,-181.343 502.549,-187.09 513.091,-188.148 511.45,-181.343"/>
</g>
<!-- Node5 -->
<g id="node5" class="node"><title>Node5</title>
<g id="a_node5"><a xlink:href="../../d4/df3/TOF_2simulation_2src_2Digitizer_8cxx.html" target="_top" xlink:title="/home/travis/build\l/AliceO2Group/AliceO2\l/Detectors/TOF/simulation\l/src/Digitizer.cxx">
<polygon fill="none" stroke="black" points="353,-1 353,-53 485,-53 485,-1 353,-1"/>
<text text-anchor="start" x="361" y="-41" font-family="Helvetica,sans-Serif" font-size="10.00">/home/travis/build</text>
<text text-anchor="start" x="361" y="-30" font-family="Helvetica,sans-Serif" font-size="10.00">/AliceO2Group/AliceO2</text>
<text text-anchor="start" x="361" y="-19" font-family="Helvetica,sans-Serif" font-size="10.00">/Detectors/TOF/simulation</text>
<text text-anchor="middle" x="419" y="-8" font-family="Helvetica,sans-Serif" font-size="10.00">/src/Digitizer.cxx</text>
</a>
</g>
</g>
<!-- Node4&#45;&gt;Node5 -->
<g id="edge4" class="edge"><title>Node4&#45;&gt;Node5</title>
<path fill="none" stroke="midnightblue" d="M419,-80.4892C419,-71.3088 419,-61.616 419,-53.0921"/>
<polygon fill="midnightblue" stroke="midnightblue" points="415.5,-80.5467 419,-90.5468 422.5,-80.5468 415.5,-80.5467"/>
</g>
</g>
</svg>
