<?xml version="1.0" encoding="UTF-8" standalone="no"?>
<!DOCTYPE svg PUBLIC "-//W3C//DTD SVG 1.1//EN"
 "http://www.w3.org/Graphics/SVG/1.1/DTD/svg11.dtd">
<!-- Generated by graphviz version 2.36.0 (20140111.2315)
 -->
<!-- Title: o2::MFT::Constants Pages: 1 -->
<svg width="366pt" height="514pt"
 viewBox="0.00 0.00 366.00 514.00" xmlns="http://www.w3.org/2000/svg" xmlns:xlink="http://www.w3.org/1999/xlink">
<g id="graph0" class="graph" transform="scale(1 1) rotate(0) translate(4 510)">
<title>o2::MFT::Constants</title>
<!-- Node1 -->
<g id="node1" class="node"><title>Node1</title>
<polygon fill="#bfbfbf" stroke="black" points="0,-1 0,-289 194,-289 194,-1 0,-1"/>
<text text-anchor="middle" x="97" y="-277" font-family="Helvetica,sans-Serif" font-size="10.00">o2::MFT::Constants</text>
<polyline fill="none" stroke="black" points="0,-270 194,-270 "/>
<text text-anchor="start" x="8" y="-258" font-family="Helvetica,sans-Serif" font-size="10.00">+ sNMaxDigitsPerCluster</text>
<text text-anchor="start" x="8" y="-247" font-family="Helvetica,sans-Serif" font-size="10.00">+ sCutForAvailableDigits</text>
<text text-anchor="start" x="8" y="-236" font-family="Helvetica,sans-Serif" font-size="10.00">+ sNMaxMCTracksPerDigit</text>
<text text-anchor="start" x="8" y="-225" font-family="Helvetica,sans-Serif" font-size="10.00">+ sElossPerElectron</text>
<text text-anchor="start" x="8" y="-214" font-family="Helvetica,sans-Serif" font-size="10.00">+ sSupportExtMargin</text>
<text text-anchor="start" x="8" y="-203" font-family="Helvetica,sans-Serif" font-size="10.00">+ sRadLengthSi</text>
<text text-anchor="start" x="8" y="-192" font-family="Helvetica,sans-Serif" font-size="10.00">+ sPrecisionPointOfClosest</text>
<text text-anchor="start" x="8" y="-181" font-family="Helvetica,sans-Serif" font-size="10.00">Approach</text>
<text text-anchor="start" x="8" y="-170" font-family="Helvetica,sans-Serif" font-size="10.00">+ sZEvalKinem</text>
<text text-anchor="start" x="8" y="-159" font-family="Helvetica,sans-Serif" font-size="10.00">+ sXVertexTolerance</text>
<text text-anchor="start" x="8" y="-148" font-family="Helvetica,sans-Serif" font-size="10.00">+ sYVertexTolerance</text>
<text text-anchor="start" x="8" y="-137" font-family="Helvetica,sans-Serif" font-size="10.00">+ sMisalignmentMagnitude</text>
<text text-anchor="start" x="8" y="-126" font-family="Helvetica,sans-Serif" font-size="10.00">+ sMinDistanceLadderFromSupportRMin</text>
<text text-anchor="start" x="8" y="-115" font-family="Helvetica,sans-Serif" font-size="10.00">+ sChipInterspace</text>
<text text-anchor="start" x="8" y="-104" font-family="Helvetica,sans-Serif" font-size="10.00">+ sChipSideOffset</text>
<text text-anchor="start" x="8" y="-93" font-family="Helvetica,sans-Serif" font-size="10.00">+ sChipTopOffset</text>
<text text-anchor="start" x="8" y="-82" font-family="Helvetica,sans-Serif" font-size="10.00"># sDiskThicknessInX0</text>
<text text-anchor="start" x="8" y="-71" font-family="Helvetica,sans-Serif" font-size="10.00"># sPlaneZPos</text>
<polyline fill="none" stroke="black" points="0,-64 194,-64 "/>
<text text-anchor="start" x="8" y="-52" font-family="Helvetica,sans-Serif" font-size="10.00">+ diskThicknessInX0()</text>
<text text-anchor="start" x="8" y="-41" font-family="Helvetica,sans-Serif" font-size="10.00">+ defaultPlaneZ()</text>
<text text-anchor="start" x="8" y="-30" font-family="Helvetica,sans-Serif" font-size="10.00"># Constants()</text>
<text text-anchor="start" x="8" y="-19" font-family="Helvetica,sans-Serif" font-size="10.00"># ~Constants()</text>
<text text-anchor="start" x="8" y="-8" font-family="Helvetica,sans-Serif" font-size="10.00"># ClassDefOverride()</text>
</g>
<!-- Node2 -->
<g id="node2" class="node"><title>Node2</title>
<polygon fill="none" stroke="#bfbfbf" points="-0.5,-448.5 -0.5,-505.5 50.5,-505.5 50.5,-448.5 -0.5,-448.5"/>
<text text-anchor="middle" x="25" y="-493.5" font-family="Helvetica,sans-Serif" font-size="10.00">TObject</text>
<polyline fill="none" stroke="#bfbfbf" points="-0.5,-486.5 50.5,-486.5 "/>
<text text-anchor="middle" x="25" y="-474.5" font-family="Helvetica,sans-Serif" font-size="10.00"> </text>
<polyline fill="none" stroke="#bfbfbf" points="-0.5,-467.5 50.5,-467.5 "/>
<text text-anchor="middle" x="25" y="-455.5" font-family="Helvetica,sans-Serif" font-size="10.00"> </text>
</g>
<!-- Node2&#45;&gt;Node1 -->
<g id="edge1" class="edge"><title>Node2&#45;&gt;Node1</title>
<path fill="none" stroke="midnightblue" d="M33.2374,-438.245C41.2166,-401.674 53.8238,-343.891 65.729,-289.326"/>
<polygon fill="none" stroke="midnightblue" points="29.727,-437.916 31.0148,-448.432 36.5661,-439.408 29.727,-437.916"/>
</g>
<!-- Node3 -->
<g id="node3" class="node"><title>Node3</title>
<polygon fill="none" stroke="#bfbfbf" points="69,-448.5 69,-505.5 125,-505.5 125,-448.5 69,-448.5"/>
<text text-anchor="middle" x="97" y="-493.5" font-family="Helvetica,sans-Serif" font-size="10.00">Double_t</text>
<polyline fill="none" stroke="#bfbfbf" points="69,-486.5 125,-486.5 "/>
<text text-anchor="middle" x="97" y="-474.5" font-family="Helvetica,sans-Serif" font-size="10.00"> </text>
<polyline fill="none" stroke="#bfbfbf" points="69,-467.5 125,-467.5 "/>
<text text-anchor="middle" x="97" y="-455.5" font-family="Helvetica,sans-Serif" font-size="10.00"> </text>
</g>
<!-- Node3&#45;&gt;Node1 -->
<g id="edge2" class="edge"><title>Node3&#45;&gt;Node1</title>
<path fill="none" stroke="#404040" d="M97,-448.432C97,-415.528 97,-357.871 97,-301.664"/>
<polygon fill="none" stroke="#404040" points="97.0001,-301.326 93,-295.326 97,-289.326 101,-295.326 97.0001,-301.326"/>
<text text-anchor="middle" x="151.5" y="-421.5" font-family="Helvetica,sans-Serif" font-size="10.00"> +sActiveSuperposition</text>
<text text-anchor="middle" x="151.5" y="-410.5" font-family="Helvetica,sans-Serif" font-size="10.00">+sPrimaryVertexResX</text>
<text text-anchor="middle" x="151.5" y="-399.5" font-family="Helvetica,sans-Serif" font-size="10.00">+sHeightActive</text>
<text text-anchor="middle" x="151.5" y="-388.5" font-family="Helvetica,sans-Serif" font-size="10.00">+sChipThickness</text>
<text text-anchor="middle" x="151.5" y="-377.5" font-family="Helvetica,sans-Serif" font-size="10.00">+sPrimaryVertexResY</text>
<text text-anchor="middle" x="151.5" y="-366.5" font-family="Helvetica,sans-Serif" font-size="10.00">+sCutForAttachingDigits</text>
<text text-anchor="middle" x="151.5" y="-355.5" font-family="Helvetica,sans-Serif" font-size="10.00">+sPrimaryVertexResZ</text>
<text text-anchor="middle" x="151.5" y="-344.5" font-family="Helvetica,sans-Serif" font-size="10.00">+sWidthChip</text>
<text text-anchor="middle" x="151.5" y="-333.5" font-family="Helvetica,sans-Serif" font-size="10.00">+sHeightReadout</text>
<text text-anchor="middle" x="151.5" y="-322.5" font-family="Helvetica,sans-Serif" font-size="10.00">+sChipWidth</text>
<text text-anchor="middle" x="151.5" y="-311.5" font-family="Helvetica,sans-Serif" font-size="10.00">...</text>
</g>
<!-- Node4 -->
<g id="node4" class="node"><title>Node4</title>
<polygon fill="none" stroke="#bfbfbf" points="211,-448.5 211,-505.5 247,-505.5 247,-448.5 211,-448.5"/>
<text text-anchor="middle" x="229" y="-493.5" font-family="Helvetica,sans-Serif" font-size="10.00">Int_t</text>
<polyline fill="none" stroke="#bfbfbf" points="211,-486.5 247,-486.5 "/>
<text text-anchor="middle" x="229" y="-474.5" font-family="Helvetica,sans-Serif" font-size="10.00"> </text>
<polyline fill="none" stroke="#bfbfbf" points="211,-467.5 247,-467.5 "/>
<text text-anchor="middle" x="229" y="-455.5" font-family="Helvetica,sans-Serif" font-size="10.00"> </text>
</g>
<!-- Node4&#45;&gt;Node1 -->
<g id="edge3" class="edge"><title>Node4&#45;&gt;Node1</title>
<path fill="none" stroke="#404040" d="M229.247,-448.286C228.688,-414.181 224.878,-355.017 207,-308 204.754,-302.094 202.255,-296.192 199.551,-290.324"/>
<polygon fill="none" stroke="#404040" points="199.34,-289.89 193.125,-286.233 194.11,-279.09 200.325,-282.746 199.34,-289.89"/>
<text text-anchor="middle" x="293" y="-421.5" font-family="Helvetica,sans-Serif" font-size="10.00"> +sNMaxMuonsForPCA</text>
<text text-anchor="middle" x="293" y="-410.5" font-family="Helvetica,sans-Serif" font-size="10.00">+sLabelOffsetMC</text>
<text text-anchor="middle" x="293" y="-399.5" font-family="Helvetica,sans-Serif" font-size="10.00">+sNMaxPlanes</text>
<text text-anchor="middle" x="293" y="-388.5" font-family="Helvetica,sans-Serif" font-size="10.00">+sNMaxChipsPerLadder</text>
<text text-anchor="middle" x="293" y="-377.5" font-family="Helvetica,sans-Serif" font-size="10.00">+sNMFTHalves</text>
<text text-anchor="middle" x="293" y="-366.5" font-family="Helvetica,sans-Serif" font-size="10.00">+sNMaxLaddersPerPlane</text>
<text text-anchor="middle" x="293" y="-355.5" font-family="Helvetica,sans-Serif" font-size="10.00">+sNMaxPileUpEvents</text>
<text text-anchor="middle" x="293" y="-344.5" font-family="Helvetica,sans-Serif" font-size="10.00">+sNMaxDetElemPerPlane</text>
<text text-anchor="middle" x="293" y="-333.5" font-family="Helvetica,sans-Serif" font-size="10.00">+sNMaxMCTracksPerCluster</text>
<text text-anchor="middle" x="293" y="-322.5" font-family="Helvetica,sans-Serif" font-size="10.00">+sNDisks</text>
<text text-anchor="middle" x="293" y="-311.5" font-family="Helvetica,sans-Serif" font-size="10.00">...</text>
</g>
</g>
</svg>
