<?xml version="1.0" encoding="UTF-8" standalone="no"?>
<!DOCTYPE svg PUBLIC "-//W3C//DTD SVG 1.1//EN"
 "http://www.w3.org/Graphics/SVG/1.1/DTD/svg11.dtd">
<!-- Generated by graphviz version 2.36.0 (20140111.2315)
 -->
<!-- Title: /home/travis/build/AliceO2Group/AliceO2/Detectors/ITSMFT/common/simulation/src/Chip.cxx Pages: 1 -->
<!--zoomable 390 -->
<svg id="main" version="1.1" xmlns="http://www.w3.org/2000/svg" xmlns:xlink="http://www.w3.org/1999/xlink" xml:space="preserve" onload="init(evt)">
<style type="text/css"><![CDATA[
.edge:hover path { stroke: red; }
.edge:hover polygon { stroke: red; fill: red; }
]]></style>
<script type="text/javascript"><![CDATA[
var edges = document.getElementsByTagName('g');
if (edges && edges.length) {
  for (var i=0;i<edges.length;i++) {
    if (edges[i].id.substr(0,4)=='edge') {
      edges[i].setAttribute('class','edge');
    }
  }
}
]]></script>
        <defs>
                <circle id="rim" cx="0" cy="0" r="7"/>
                <circle id="rim2" cx="0" cy="0" r="3.5"/>
                <g id="zoomPlus">
                        <use xlink:href="#rim" fill="#404040">
                                <set attributeName="fill" to="#808080" begin="zoomplus.mouseover" end="zoomplus.mouseout"/>
                        </use>
                        <path d="M-4,0h8M0,-4v8" fill="none" stroke="white" stroke-width="1.5" pointer-events="none"/>
                </g>
                <g id="zoomMin">
                        <use xlink:href="#rim" fill="#404040">
                                <set attributeName="fill" to="#808080" begin="zoomminus.mouseover" end="zoomminus.mouseout"/>
                        </use>
                        <path d="M-4,0h8" fill="none" stroke="white" stroke-width="1.5" pointer-events="none"/>
                </g>
                <g id="dirArrow">
                        <path fill="none" stroke="white" stroke-width="1.5" d="M0,-3.0v7 M-2.5,-0.5L0,-3.0L2.5,-0.5"/>
                </g>
               <g id="resetDef">
                       <use xlink:href="#rim2" fill="#404040">
                               <set attributeName="fill" to="#808080" begin="reset.mouseover" end="reset.mouseout"/>
                       </use>
               </g>
        </defs>

<script type="text/javascript">
var viewWidth = 1472;
var viewHeight = 390;
var sectionId = 'dynsection-0';
</script>
<script xlink:href="../../svgpan.js"/>
<svg id="graph" class="graph">
<g id="viewport">
<title>/home/travis/build/AliceO2Group/AliceO2/Detectors/ITSMFT/common/simulation/src/Chip.cxx</title>
<!-- Node1 -->
<g id="node1" class="node"><title>Node1</title>
<polygon fill="#bfbfbf" stroke="black" points="540,-329 540,-381 682,-381 682,-329 540,-329"/>
<text text-anchor="start" x="548" y="-369" font-family="Helvetica,sans-Serif" font-size="10.00">/home/travis/build</text>
<text text-anchor="start" x="548" y="-358" font-family="Helvetica,sans-Serif" font-size="10.00">/AliceO2Group/AliceO2</text>
<text text-anchor="start" x="548" y="-347" font-family="Helvetica,sans-Serif" font-size="10.00">/Detectors/ITSMFT/common</text>
<text text-anchor="middle" x="611" y="-336" font-family="Helvetica,sans-Serif" font-size="10.00">/simulation/src/Chip.cxx</text>
</g>
<!-- Node2 -->
<g id="node2" class="node"><title>Node2</title>
<polygon fill="none" stroke="#bfbfbf" points="385,-272.5 385,-291.5 431,-291.5 431,-272.5 385,-272.5"/>
<text text-anchor="middle" x="408" y="-279.5" font-family="Helvetica,sans-Serif" font-size="10.00">cstring</text>
</g>
<!-- Node1&#45;&gt;Node2 -->
<g id="edge1" class="edge"><title>Node1&#45;&gt;Node2</title>
<path fill="none" stroke="midnightblue" d="M539.715,-329.068C506.083,-317.305 467.581,-303.839 440.928,-294.517"/>
<polygon fill="midnightblue" stroke="midnightblue" points="441.923,-291.157 431.328,-291.159 439.612,-297.764 441.923,-291.157"/>
</g>
<!-- Node3 -->
<g id="node3" class="node"><title>Node3</title>
<polygon fill="none" stroke="#bfbfbf" points="449,-272.5 449,-291.5 487,-291.5 487,-272.5 449,-272.5"/>
<text text-anchor="middle" x="468" y="-279.5" font-family="Helvetica,sans-Serif" font-size="10.00">tuple</text>
</g>
<!-- Node1&#45;&gt;Node3 -->
<g id="edge2" class="edge"><title>Node1&#45;&gt;Node3</title>
<path fill="none" stroke="midnightblue" d="M560.584,-328.968C538.261,-317.885 512.927,-305.306 494.409,-296.112"/>
<polygon fill="midnightblue" stroke="midnightblue" points="495.913,-292.951 485.399,-291.639 492.8,-299.221 495.913,-292.951"/>
</g>
<!-- Node4 -->
<g id="node4" class="node"><title>Node4</title>
<polygon fill="none" stroke="#bfbfbf" points="505.5,-272.5 505.5,-291.5 558.5,-291.5 558.5,-272.5 505.5,-272.5"/>
<text text-anchor="middle" x="532" y="-279.5" font-family="Helvetica,sans-Serif" font-size="10.00">TMath.h</text>
</g>
<!-- Node1&#45;&gt;Node4 -->
<g id="edge3" class="edge"><title>Node1&#45;&gt;Node4</title>
<path fill="none" stroke="midnightblue" d="M582.925,-328.768C571.699,-318.679 559.126,-307.379 549.282,-298.532"/>
<polygon fill="midnightblue" stroke="midnightblue" points="551.521,-295.838 541.744,-291.757 546.842,-301.045 551.521,-295.838"/>
</g>
<!-- Node5 -->
<g id="node5" class="node"><title>Node5</title>
<polygon fill="none" stroke="#bfbfbf" points="576.5,-272.5 576.5,-291.5 645.5,-291.5 645.5,-272.5 576.5,-272.5"/>
<text text-anchor="middle" x="611" y="-279.5" font-family="Helvetica,sans-Serif" font-size="10.00">TObjArray.h</text>
</g>
<!-- Node1&#45;&gt;Node5 -->
<g id="edge4" class="edge"><title>Node1&#45;&gt;Node5</title>
<path fill="none" stroke="midnightblue" d="M611,-328.768C611,-319.89 611,-310.074 611,-301.816"/>
<polygon fill="midnightblue" stroke="midnightblue" points="614.5,-301.757 611,-291.757 607.5,-301.757 614.5,-301.757"/>
</g>
<!-- Node6 -->
<g id="node6" class="node"><title>Node6</title>
<g id="a_node6"><a xlink:href="../../d9/d55/Chip_8h.html" target="_top" xlink:title="ITSMFTSimulation/Chip.h">
<polygon fill="none" stroke="black" points="664,-272.5 664,-291.5 794,-291.5 794,-272.5 664,-272.5"/>
<text text-anchor="middle" x="729" y="-279.5" font-family="Helvetica,sans-Serif" font-size="10.00">ITSMFTSimulation/Chip.h</text>
</a>
</g>
</g>
<!-- Node1&#45;&gt;Node6 -->
<g id="edge5" class="edge"><title>Node1&#45;&gt;Node6</title>
<path fill="none" stroke="midnightblue" d="M652.602,-328.968C670.516,-318.19 690.779,-305.997 705.933,-296.879"/>
<polygon fill="midnightblue" stroke="midnightblue" points="707.878,-299.794 714.642,-291.639 704.269,-293.796 707.878,-299.794"/>
</g>
<!-- Node28 -->
<g id="node28" class="node"><title>Node28</title>
<g id="a_node28"><a xlink:href="../../d0/dae/ITSMFT_2common_2simulation_2include_2ITSMFTSimulation_2Hit_8h.html" target="_top" xlink:title="ITSMFTSimulation/Hit.h">
<polygon fill="none" stroke="black" points="1073,-272.5 1073,-291.5 1195,-291.5 1195,-272.5 1073,-272.5"/>
<text text-anchor="middle" x="1134" y="-279.5" font-family="Helvetica,sans-Serif" font-size="10.00">ITSMFTSimulation/Hit.h</text>
</a>
</g>
</g>
<!-- Node1&#45;&gt;Node28 -->
<g id="edge30" class="edge"><title>Node1&#45;&gt;Node28</title>
<path fill="none" stroke="midnightblue" d="M682.078,-344.351C781.986,-330.788 962.886,-306.23 1062.84,-292.661"/>
<polygon fill="midnightblue" stroke="midnightblue" points="1063.4,-296.116 1072.84,-291.302 1062.46,-289.179 1063.4,-296.116"/>
</g>
<!-- Node31 -->
<g id="node31" class="node"><title>Node31</title>
<g id="a_node31"><a xlink:href="../../df/d29/DigiParams_8h.html" target="_top" xlink:title="Simulation parameters for the ALIPIDE chip. ">
<polygon fill="none" stroke="black" points="1303.5,-142.5 1303.5,-161.5 1464.5,-161.5 1464.5,-142.5 1303.5,-142.5"/>
<text text-anchor="middle" x="1384" y="-149.5" font-family="Helvetica,sans-Serif" font-size="10.00">ITSMFTSimulation/DigiParams.h</text>
</a>
</g>
</g>
<!-- Node1&#45;&gt;Node31 -->
<g id="edge37" class="edge"><title>Node1&#45;&gt;Node31</title>
<path fill="none" stroke="midnightblue" d="M682.097,-351.419C818.303,-345.684 1110.79,-329.325 1204,-292 1274.69,-263.693 1341.03,-199.143 1369.46,-169.027"/>
<polygon fill="midnightblue" stroke="midnightblue" points="1372.2,-171.214 1376.44,-161.504 1367.07,-166.452 1372.2,-171.214"/>
</g>
<!-- Node7 -->
<g id="node7" class="node"><title>Node7</title>
<polygon fill="none" stroke="#bfbfbf" points="430.5,-210.5 430.5,-229.5 489.5,-229.5 489.5,-210.5 430.5,-210.5"/>
<text text-anchor="middle" x="460" y="-217.5" font-family="Helvetica,sans-Serif" font-size="10.00">exception</text>
</g>
<!-- Node6&#45;&gt;Node7 -->
<g id="edge6" class="edge"><title>Node6&#45;&gt;Node7</title>
<path fill="none" stroke="midnightblue" d="M676.265,-272.469C630.378,-264.568 562.277,-251.689 504,-236 500.357,-235.019 496.577,-233.896 492.831,-232.716"/>
<polygon fill="midnightblue" stroke="midnightblue" points="493.709,-229.32 483.116,-229.516 491.519,-235.969 493.709,-229.32"/>
</g>
<!-- Node8 -->
<g id="node8" class="node"><title>Node8</title>
<polygon fill="none" stroke="#bfbfbf" points="546,-210.5 546,-229.5 598,-229.5 598,-210.5 546,-210.5"/>
<text text-anchor="middle" x="572" y="-217.5" font-family="Helvetica,sans-Serif" font-size="10.00">sstream</text>
</g>
<!-- Node6&#45;&gt;Node8 -->
<g id="edge7" class="edge"><title>Node6&#45;&gt;Node8</title>
<path fill="none" stroke="midnightblue" d="M704.555,-272.402C679.823,-263.605 640.556,-249.369 607,-236 605.112,-235.248 603.172,-234.46 601.22,-233.655"/>
<polygon fill="midnightblue" stroke="midnightblue" points="602.123,-230.238 591.548,-229.588 599.41,-236.691 602.123,-230.238"/>
</g>
<!-- Node9 -->
<g id="node9" class="node"><title>Node9</title>
<polygon fill="none" stroke="#bfbfbf" points="616,-210.5 616,-229.5 660,-229.5 660,-210.5 616,-210.5"/>
<text text-anchor="middle" x="638" y="-217.5" font-family="Helvetica,sans-Serif" font-size="10.00">vector</text>
</g>
<!-- Node6&#45;&gt;Node9 -->
<g id="edge8" class="edge"><title>Node6&#45;&gt;Node9</title>
<path fill="none" stroke="midnightblue" d="M715.962,-272.403C701.231,-262.691 677.027,-246.732 659.491,-235.17"/>
<polygon fill="midnightblue" stroke="midnightblue" points="661.289,-232.163 651.014,-229.581 657.436,-238.007 661.289,-232.163"/>
</g>
<!-- Node10 -->
<g id="node10" class="node"><title>Node10</title>
<polygon fill="none" stroke="#bfbfbf" points="678.5,-210.5 678.5,-229.5 713.5,-229.5 713.5,-210.5 678.5,-210.5"/>
<text text-anchor="middle" x="696" y="-217.5" font-family="Helvetica,sans-Serif" font-size="10.00">map</text>
</g>
<!-- Node6&#45;&gt;Node10 -->
<g id="edge9" class="edge"><title>Node6&#45;&gt;Node10</title>
<path fill="none" stroke="midnightblue" d="M724.272,-272.403C719.42,-263.582 711.734,-249.608 705.6,-238.455"/>
<polygon fill="midnightblue" stroke="midnightblue" points="708.605,-236.656 700.719,-229.581 702.472,-240.029 708.605,-236.656"/>
</g>
<!-- Node11 -->
<g id="node11" class="node"><title>Node11</title>
<polygon fill="none" stroke="#bfbfbf" points="731.5,-210.5 731.5,-229.5 790.5,-229.5 790.5,-210.5 731.5,-210.5"/>
<text text-anchor="middle" x="761" y="-217.5" font-family="Helvetica,sans-Serif" font-size="10.00">TObject.h</text>
</g>
<!-- Node6&#45;&gt;Node11 -->
<g id="edge10" class="edge"><title>Node6&#45;&gt;Node11</title>
<path fill="none" stroke="midnightblue" d="M733.585,-272.403C738.29,-263.582 745.743,-249.608 751.691,-238.455"/>
<polygon fill="midnightblue" stroke="midnightblue" points="754.806,-240.051 756.424,-229.581 748.63,-236.757 754.806,-240.051"/>
</g>
<!-- Node12 -->
<g id="node12" class="node"><title>Node12</title>
<g id="a_node12"><a xlink:href="../../d0/d06/ITSMFT_2common_2base_2include_2ITSMFTBase_2Digit_8h.html" target="_top" xlink:title="ITSMFTBase/Digit.h">
<polygon fill="none" stroke="black" points="941.5,-210.5 941.5,-229.5 1048.5,-229.5 1048.5,-210.5 941.5,-210.5"/>
<text text-anchor="middle" x="995" y="-217.5" font-family="Helvetica,sans-Serif" font-size="10.00">ITSMFTBase/Digit.h</text>
</a>
</g>
</g>
<!-- Node6&#45;&gt;Node12 -->
<g id="edge11" class="edge"><title>Node6&#45;&gt;Node12</title>
<path fill="none" stroke="midnightblue" d="M768.336,-272.47C809.262,-263.552 875.183,-249.061 932,-236 937.756,-234.677 943.803,-233.265 949.778,-231.857"/>
<polygon fill="midnightblue" stroke="midnightblue" points="950.779,-235.217 959.703,-229.506 949.166,-228.405 950.779,-235.217"/>
</g>
<!-- Node14 -->
<g id="node14" class="node"><title>Node14</title>
<g id="a_node14"><a xlink:href="../../d7/dcd/MCCompLabel_8h.html" target="_top" xlink:title="SimulationDataFormat\l/MCCompLabel.h">
<polygon fill="none" stroke="black" points="1022,-137 1022,-167 1136,-167 1136,-137 1022,-137"/>
<text text-anchor="start" x="1030" y="-155" font-family="Helvetica,sans-Serif" font-size="10.00">SimulationDataFormat</text>
<text text-anchor="middle" x="1079" y="-144" font-family="Helvetica,sans-Serif" font-size="10.00">/MCCompLabel.h</text>
</a>
</g>
</g>
<!-- Node6&#45;&gt;Node14 -->
<g id="edge17" class="edge"><title>Node6&#45;&gt;Node14</title>
<path fill="none" stroke="midnightblue" d="M794.333,-280.37C878.686,-278.185 1019.16,-269.457 1057,-236 1073.43,-221.472 1078.24,-196.229 1079.36,-177.385"/>
<polygon fill="midnightblue" stroke="midnightblue" points="1082.87,-177.255 1079.66,-167.159 1075.87,-177.054 1082.87,-177.255"/>
</g>
<!-- Node17 -->
<g id="node17" class="node"><title>Node17</title>
<g id="a_node17"><a xlink:href="../../dd/d76/Cartesian3D_8h.html" target="_top" xlink:title="MathUtils/Cartesian3D.h">
<polygon fill="none" stroke="black" points="617.5,-142.5 617.5,-161.5 742.5,-161.5 742.5,-142.5 617.5,-142.5"/>
<text text-anchor="middle" x="680" y="-149.5" font-family="Helvetica,sans-Serif" font-size="10.00">MathUtils/Cartesian3D.h</text>
</a>
</g>
</g>
<!-- Node6&#45;&gt;Node17 -->
<g id="edge18" class="edge"><title>Node6&#45;&gt;Node17</title>
<path fill="none" stroke="midnightblue" d="M678.253,-272.44C624.408,-262.844 545.853,-247.168 537,-236 508.27,-199.758 572.344,-176.258 623.788,-163.818"/>
<polygon fill="midnightblue" stroke="midnightblue" points="624.601,-167.222 633.549,-161.55 623.017,-160.404 624.601,-167.222"/>
</g>
<!-- Node13 -->
<g id="node13" class="node"><title>Node13</title>
<polygon fill="none" stroke="#bfbfbf" points="760.5,-137 760.5,-167 855.5,-167 855.5,-137 760.5,-137"/>
<text text-anchor="start" x="768.5" y="-155" font-family="Helvetica,sans-Serif" font-size="10.00">boost/serialization</text>
<text text-anchor="middle" x="808" y="-144" font-family="Helvetica,sans-Serif" font-size="10.00">/base_object.hpp</text>
</g>
<!-- Node12&#45;&gt;Node13 -->
<g id="edge12" class="edge"><title>Node12&#45;&gt;Node13</title>
<path fill="none" stroke="midnightblue" d="M970.553,-210.372C941.926,-200.268 893.786,-183.277 857.305,-170.402"/>
<polygon fill="midnightblue" stroke="midnightblue" points="858.421,-167.084 847.826,-167.056 856.091,-173.685 858.421,-167.084"/>
</g>
<!-- Node12&#45;&gt;Node14 -->
<g id="edge13" class="edge"><title>Node12&#45;&gt;Node14</title>
<path fill="none" stroke="midnightblue" d="M1005.98,-210.372C1017.87,-201.029 1037.26,-185.797 1053.07,-173.375"/>
<polygon fill="midnightblue" stroke="midnightblue" points="1055.25,-176.112 1060.95,-167.181 1050.93,-170.608 1055.25,-176.112"/>
</g>
<!-- Node15 -->
<g id="node15" class="node"><title>Node15</title>
<polygon fill="none" stroke="#bfbfbf" points="1192,-74.5 1192,-93.5 1248,-93.5 1248,-74.5 1192,-74.5"/>
<text text-anchor="middle" x="1220" y="-81.5" font-family="Helvetica,sans-Serif" font-size="10.00">Rtypes.h</text>
</g>
<!-- Node12&#45;&gt;Node15 -->
<g id="edge16" class="edge"><title>Node12&#45;&gt;Node15</title>
<path fill="none" stroke="midnightblue" d="M994.088,-210.304C992.842,-193.439 992.724,-156.177 1013,-136 1067.74,-81.5227 1109.15,-122.596 1183,-100 1185.64,-99.1913 1188.36,-98.2707 1191.06,-97.2925"/>
<polygon fill="midnightblue" stroke="midnightblue" points="1192.58,-100.461 1200.65,-93.5955 1190.06,-93.93 1192.58,-100.461"/>
</g>
<!-- Node16 -->
<g id="node16" class="node"><title>Node16</title>
<polygon fill="none" stroke="#bfbfbf" points="874,-142.5 874,-161.5 966,-161.5 966,-142.5 874,-142.5"/>
<text text-anchor="middle" x="920" y="-149.5" font-family="Helvetica,sans-Serif" font-size="10.00">FairTimeStamp.h</text>
</g>
<!-- Node12&#45;&gt;Node16 -->
<g id="edge15" class="edge"><title>Node12&#45;&gt;Node16</title>
<path fill="none" stroke="midnightblue" d="M985.195,-210.372C973.134,-199.758 952.438,-181.545 937.597,-168.485"/>
<polygon fill="midnightblue" stroke="midnightblue" points="939.866,-165.82 930.047,-161.841 935.242,-171.075 939.866,-165.82"/>
</g>
<!-- Node14&#45;&gt;Node15 -->
<g id="edge14" class="edge"><title>Node14&#45;&gt;Node15</title>
<path fill="none" stroke="midnightblue" d="M1109.25,-136.841C1133.86,-125.323 1168.3,-109.199 1192.22,-98.0036"/>
<polygon fill="midnightblue" stroke="midnightblue" points="1193.88,-101.091 1201.45,-93.6819 1190.91,-94.7514 1193.88,-101.091"/>
</g>
<!-- Node17&#45;&gt;Node15 -->
<g id="edge22" class="edge"><title>Node17&#45;&gt;Node15</title>
<path fill="none" stroke="midnightblue" d="M715.962,-142.491C727.137,-140.093 739.532,-137.682 751,-136 941.625,-108.033 995.592,-144.701 1183,-100 1186.07,-99.2678 1189.22,-98.3215 1192.32,-97.2605"/>
<polygon fill="midnightblue" stroke="midnightblue" points="1193.82,-100.435 1201.92,-93.6019 1191.33,-93.894 1193.82,-100.435"/>
</g>
<!-- Node18 -->
<g id="node18" class="node"><title>Node18</title>
<polygon fill="none" stroke="#bfbfbf" points="778.5,-74.5 778.5,-93.5 927.5,-93.5 927.5,-74.5 778.5,-74.5"/>
<text text-anchor="middle" x="853" y="-81.5" font-family="Helvetica,sans-Serif" font-size="10.00">Math/GenVector/Rotation3D.h</text>
</g>
<!-- Node17&#45;&gt;Node18 -->
<g id="edge19" class="edge"><title>Node17&#45;&gt;Node18</title>
<path fill="none" stroke="midnightblue" d="M702.617,-142.372C732.877,-130.827 786.703,-110.293 821.081,-97.1772"/>
<polygon fill="midnightblue" stroke="midnightblue" points="822.556,-100.36 830.652,-93.5259 820.061,-93.8203 822.556,-100.36"/>
</g>
<!-- Node19 -->
<g id="node19" class="node"><title>Node19</title>
<polygon fill="none" stroke="#bfbfbf" points="946,-74.5 946,-93.5 1102,-93.5 1102,-74.5 946,-74.5"/>
<text text-anchor="middle" x="1024" y="-81.5" font-family="Helvetica,sans-Serif" font-size="10.00">Math/GenVector/Transform3D.h</text>
</g>
<!-- Node17&#45;&gt;Node19 -->
<g id="edge20" class="edge"><title>Node17&#45;&gt;Node19</title>
<path fill="none" stroke="midnightblue" d="M719.771,-142.426C729.942,-140.28 740.868,-138.016 751,-136 825.344,-121.205 911.336,-105.347 966.631,-95.3121"/>
<polygon fill="midnightblue" stroke="midnightblue" points="967.373,-98.7347 976.589,-93.5077 966.125,-91.8469 967.373,-98.7347"/>
</g>
<!-- Node20 -->
<g id="node20" class="node"><title>Node20</title>
<polygon fill="none" stroke="#bfbfbf" points="0,-74.5 0,-93.5 160,-93.5 160,-74.5 0,-74.5"/>
<text text-anchor="middle" x="80" y="-81.5" font-family="Helvetica,sans-Serif" font-size="10.00">Math/GenVector/Translation3D.h</text>
</g>
<!-- Node17&#45;&gt;Node20 -->
<g id="edge21" class="edge"><title>Node17&#45;&gt;Node20</title>
<path fill="none" stroke="midnightblue" d="M617.304,-146.114C520.777,-138.283 330.047,-121.583 169,-100 158.643,-98.612 147.643,-96.9293 137.037,-95.1995"/>
<polygon fill="midnightblue" stroke="midnightblue" points="137.462,-91.7222 127.023,-93.5348 136.314,-98.6274 137.462,-91.7222"/>
</g>
<!-- Node21 -->
<g id="node21" class="node"><title>Node21</title>
<polygon fill="none" stroke="#bfbfbf" points="178,-74.5 178,-93.5 254,-93.5 254,-74.5 178,-74.5"/>
<text text-anchor="middle" x="216" y="-81.5" font-family="Helvetica,sans-Serif" font-size="10.00">TGeoMatrix.h</text>
</g>
<!-- Node17&#45;&gt;Node21 -->
<g id="edge23" class="edge"><title>Node17&#45;&gt;Node21</title>
<path fill="none" stroke="midnightblue" d="M617.216,-147C535.066,-140.931 386.977,-127.114 263,-100 258.55,-99.0267 253.92,-97.8103 249.377,-96.4939"/>
<polygon fill="midnightblue" stroke="midnightblue" points="250.262,-93.1043 239.675,-93.5078 248.203,-99.7946 250.262,-93.1043"/>
</g>
<!-- Node22 -->
<g id="node22" class="node"><title>Node22</title>
<polygon fill="none" stroke="#bfbfbf" points="272.5,-69 272.5,-99 423.5,-99 423.5,-69 272.5,-69"/>
<text text-anchor="start" x="280.5" y="-87" font-family="Helvetica,sans-Serif" font-size="10.00">Math/GenVector/Displacement</text>
<text text-anchor="middle" x="348" y="-76" font-family="Helvetica,sans-Serif" font-size="10.00">Vector3D.h</text>
</g>
<!-- Node17&#45;&gt;Node22 -->
<g id="edge24" class="edge"><title>Node17&#45;&gt;Node22</title>
<path fill="none" stroke="midnightblue" d="M636.937,-142.439C584.285,-131.972 494.093,-114.043 428.455,-100.994"/>
<polygon fill="midnightblue" stroke="midnightblue" points="429.039,-97.5418 418.549,-99.0247 427.674,-104.407 429.039,-97.5418"/>
</g>
<!-- Node23 -->
<g id="node23" class="node"><title>Node23</title>
<polygon fill="none" stroke="#bfbfbf" points="442,-74.5 442,-93.5 618,-93.5 618,-74.5 442,-74.5"/>
<text text-anchor="middle" x="530" y="-81.5" font-family="Helvetica,sans-Serif" font-size="10.00">Math/GenVector/PositionVector3D.h</text>
</g>
<!-- Node17&#45;&gt;Node23 -->
<g id="edge25" class="edge"><title>Node17&#45;&gt;Node23</title>
<path fill="none" stroke="midnightblue" d="M660.39,-142.372C634.562,-131.007 588.934,-110.931 559.082,-97.7961"/>
<polygon fill="midnightblue" stroke="midnightblue" points="560.177,-94.4543 549.615,-93.6305 557.358,-100.862 560.177,-94.4543"/>
</g>
<!-- Node24 -->
<g id="node24" class="node"><title>Node24</title>
<g id="a_node24"><a xlink:href="../../d2/dd0/Cartesian2D_8h.html" target="_top" xlink:title="MathUtils/Cartesian2D.h">
<polygon fill="none" stroke="black" points="635.5,-74.5 635.5,-93.5 760.5,-93.5 760.5,-74.5 635.5,-74.5"/>
<text text-anchor="middle" x="698" y="-81.5" font-family="Helvetica,sans-Serif" font-size="10.00">MathUtils/Cartesian2D.h</text>
</a>
</g>
</g>
<!-- Node17&#45;&gt;Node24 -->
<g id="edge26" class="edge"><title>Node17&#45;&gt;Node24</title>
<path fill="none" stroke="midnightblue" d="M682.353,-142.372C685.007,-132.643 689.401,-116.528 692.859,-103.85"/>
<polygon fill="midnightblue" stroke="midnightblue" points="696.334,-104.41 695.589,-93.8411 689.581,-102.568 696.334,-104.41"/>
</g>
<!-- Node27 -->
<g id="node27" class="node"><title>Node27</title>
<polygon fill="none" stroke="#bfbfbf" points="1120,-74.5 1120,-93.5 1174,-93.5 1174,-74.5 1120,-74.5"/>
<text text-anchor="middle" x="1147" y="-81.5" font-family="Helvetica,sans-Serif" font-size="10.00">iostream</text>
</g>
<!-- Node17&#45;&gt;Node27 -->
<g id="edge29" class="edge"><title>Node17&#45;&gt;Node27</title>
<path fill="none" stroke="midnightblue" d="M716.711,-142.451C727.694,-140.109 739.795,-137.739 751,-136 909.897,-111.345 955.091,-139.35 1111,-100 1113.99,-99.2456 1117.05,-98.285 1120.07,-97.2155"/>
<polygon fill="midnightblue" stroke="midnightblue" points="1121.38,-100.461 1129.41,-93.5468 1118.82,-93.946 1121.38,-100.461"/>
</g>
<!-- Node25 -->
<g id="node25" class="node"><title>Node25</title>
<polygon fill="none" stroke="#bfbfbf" points="531.5,-1 531.5,-31 682.5,-31 682.5,-1 531.5,-1"/>
<text text-anchor="start" x="539.5" y="-19" font-family="Helvetica,sans-Serif" font-size="10.00">Math/GenVector/Displacement</text>
<text text-anchor="middle" x="607" y="-8" font-family="Helvetica,sans-Serif" font-size="10.00">Vector2D.h</text>
</g>
<!-- Node24&#45;&gt;Node25 -->
<g id="edge27" class="edge"><title>Node24&#45;&gt;Node25</title>
<path fill="none" stroke="midnightblue" d="M686.103,-74.3717C673.221,-65.0286 652.22,-49.7966 635.093,-37.375"/>
<polygon fill="midnightblue" stroke="midnightblue" points="636.703,-34.2194 626.553,-31.1815 632.593,-39.8859 636.703,-34.2194"/>
</g>
<!-- Node26 -->
<g id="node26" class="node"><title>Node26</title>
<polygon fill="none" stroke="#bfbfbf" points="701,-6.5 701,-25.5 877,-25.5 877,-6.5 701,-6.5"/>
<text text-anchor="middle" x="789" y="-13.5" font-family="Helvetica,sans-Serif" font-size="10.00">Math/GenVector/PositionVector2D.h</text>
</g>
<!-- Node24&#45;&gt;Node26 -->
<g id="edge28" class="edge"><title>Node24&#45;&gt;Node26</title>
<path fill="none" stroke="midnightblue" d="M709.897,-74.3717C724.884,-63.5015 750.862,-44.6602 768.942,-31.5474"/>
<polygon fill="midnightblue" stroke="midnightblue" points="771.06,-34.3349 777.1,-25.6305 766.95,-28.6684 771.06,-34.3349"/>
</g>
<!-- Node28&#45;&gt;Node14 -->
<g id="edge33" class="edge"><title>Node28&#45;&gt;Node14</title>
<path fill="none" stroke="midnightblue" d="M1130.22,-272.202C1121.84,-252.699 1101.47,-205.288 1089.09,-176.48"/>
<polygon fill="midnightblue" stroke="midnightblue" points="1092.24,-174.949 1085.08,-167.143 1085.81,-177.713 1092.24,-174.949"/>
</g>
<!-- Node28&#45;&gt;Node15 -->
<g id="edge34" class="edge"><title>Node28&#45;&gt;Node15</title>
<path fill="none" stroke="midnightblue" d="M1195.03,-273.113C1217.71,-266.888 1241.25,-255.784 1255,-236 1283.96,-194.327 1251.26,-132.106 1232.03,-102.227"/>
<polygon fill="midnightblue" stroke="midnightblue" points="1234.82,-100.102 1226.35,-93.7302 1229,-103.99 1234.82,-100.102"/>
</g>
<!-- Node28&#45;&gt;Node27 -->
<g id="edge36" class="edge"><title>Node28&#45;&gt;Node27</title>
<path fill="none" stroke="midnightblue" d="M1135.07,-272.226C1137.35,-253.249 1142.64,-206.956 1145,-168 1146.33,-146.023 1146.79,-120.722 1146.94,-103.889"/>
<polygon fill="midnightblue" stroke="midnightblue" points="1150.44,-103.753 1147,-93.7322 1143.44,-103.711 1150.44,-103.753"/>
</g>
<!-- Node29 -->
<g id="node29" class="node"><title>Node29</title>
<g id="a_node29"><a xlink:href="../../d4/d25/BaseHits_8h.html" target="_top" xlink:title="SimulationDataFormat\l/BaseHits.h">
<polygon fill="none" stroke="black" points="809,-205 809,-235 923,-235 923,-205 809,-205"/>
<text text-anchor="start" x="817" y="-223" font-family="Helvetica,sans-Serif" font-size="10.00">SimulationDataFormat</text>
<text text-anchor="middle" x="866" y="-212" font-family="Helvetica,sans-Serif" font-size="10.00">/BaseHits.h</text>
</a>
</g>
</g>
<!-- Node28&#45;&gt;Node29 -->
<g id="edge31" class="edge"><title>Node28&#45;&gt;Node29</title>
<path fill="none" stroke="midnightblue" d="M1095.89,-272.467C1053.62,-263.004 984.615,-247.556 933.221,-236.049"/>
<polygon fill="midnightblue" stroke="midnightblue" points="933.713,-232.573 923.19,-233.804 932.183,-239.404 933.713,-232.573"/>
</g>
<!-- Node30 -->
<g id="node30" class="node"><title>Node30</title>
<polygon fill="none" stroke="#bfbfbf" points="1181.5,-210.5 1181.5,-229.5 1246.5,-229.5 1246.5,-210.5 1181.5,-210.5"/>
<text text-anchor="middle" x="1214" y="-217.5" font-family="Helvetica,sans-Serif" font-size="10.00">TVector3.h</text>
</g>
<!-- Node28&#45;&gt;Node30 -->
<g id="edge35" class="edge"><title>Node28&#45;&gt;Node30</title>
<path fill="none" stroke="midnightblue" d="M1145.46,-272.403C1158.17,-262.869 1178.91,-247.315 1194.25,-235.811"/>
<polygon fill="midnightblue" stroke="midnightblue" points="1196.66,-238.381 1202.56,-229.581 1192.46,-232.781 1196.66,-238.381"/>
</g>
<!-- Node29&#45;&gt;Node17 -->
<g id="edge32" class="edge"><title>Node29&#45;&gt;Node17</title>
<path fill="none" stroke="midnightblue" d="M826.098,-204.841C792.675,-192.982 745.492,-176.239 713.879,-165.022"/>
<polygon fill="midnightblue" stroke="midnightblue" points="714.794,-161.632 704.199,-161.587 712.453,-168.229 714.794,-161.632"/>
</g>
<!-- Node31&#45;&gt;Node15 -->
<g id="edge38" class="edge"><title>Node31&#45;&gt;Node15</title>
<path fill="none" stroke="midnightblue" d="M1362.56,-142.372C1334,-130.877 1283.29,-110.469 1250.68,-97.3465"/>
<polygon fill="midnightblue" stroke="midnightblue" points="1251.77,-94.0124 1241.19,-93.5259 1249.16,-100.506 1251.77,-94.0124"/>
</g>
</g>
</svg>
        <g id="navigator" transform="translate(0 0)" fill="#404254">
                <rect fill="#f2f5e9" fill-opacity="0.5" stroke="#606060" stroke-width=".5" x="0" y="0" width="60" height="60"/>
                <use id="zoomplus" xlink:href="#zoomPlus" x="17" y="9" onmousedown="handleZoom(evt,'in')"/>
                <use id="zoomminus" xlink:href="#zoomMin" x="42" y="9" onmousedown="handleZoom(evt,'out')"/>
                <use id="reset" xlink:href="#resetDef" x="30" y="36" onmousedown="handleReset()"/>
                <g id="arrowUp" xlink:href="#dirArrow" transform="translate(30 24)" onmousedown="handlePan(0,-1)">
                  <use xlink:href="#rim" fill="#404040">
                        <set attributeName="fill" to="#808080" begin="arrowUp.mouseover" end="arrowUp.mouseout"/>
                  </use>
                  <path fill="none" stroke="white" stroke-width="1.5" d="M0,-3.0v7 M-2.5,-0.5L0,-3.0L2.5,-0.5"/>
                </g>
                <g id="arrowRight" xlink:href="#dirArrow" transform="rotate(90) translate(36 -43)" onmousedown="handlePan(1,0)">
                  <use xlink:href="#rim" fill="#404040">
                        <set attributeName="fill" to="#808080" begin="arrowRight.mouseover" end="arrowRight.mouseout"/>
                  </use>
                  <path fill="none" stroke="white" stroke-width="1.5" d="M0,-3.0v7 M-2.5,-0.5L0,-3.0L2.5,-0.5"/>
                </g>
                <g id="arrowDown" xlink:href="#dirArrow" transform="rotate(180) translate(-30 -48)" onmousedown="handlePan(0,1)">
                  <use xlink:href="#rim" fill="#404040">
                        <set attributeName="fill" to="#808080" begin="arrowDown.mouseover" end="arrowDown.mouseout"/>
                  </use>
                  <path fill="none" stroke="white" stroke-width="1.5" d="M0,-3.0v7 M-2.5,-0.5L0,-3.0L2.5,-0.5"/>
                </g>
                <g id="arrowLeft" xlink:href="#dirArrow" transform="rotate(270) translate(-36 17)" onmousedown="handlePan(-1,0)">
                  <use xlink:href="#rim" fill="#404040">
                        <set attributeName="fill" to="#808080" begin="arrowLeft.mouseover" end="arrowLeft.mouseout"/>
                  </use>
                  <path fill="none" stroke="white" stroke-width="1.5" d="M0,-3.0v7 M-2.5,-0.5L0,-3.0L2.5,-0.5"/>
                </g>
        </g>
        <svg viewBox="0 0 15 15" width="100%" height="30px" preserveAspectRatio="xMaxYMin meet">
         <g id="arrow_out" transform="scale(0.3 0.3)">
          <a xlink:href="Chip_8cxx__incl_org.svg" target="_base">
           <rect id="button" ry="5" rx="5" y="6" x="6" height="38" width="38"
                fill="#f2f5e9" fill-opacity="0.5" stroke="#606060" stroke-width="1.0"/>
           <path id="arrow"
             d="M 11.500037,31.436501 C 11.940474,20.09759 22.043105,11.32322 32.158766,21.979434 L 37.068811,17.246167 C 37.068811,17.246167 37.088388,32 37.088388,32 L 22.160133,31.978069 C 22.160133,31.978069 26.997745,27.140456 26.997745,27.140456 C 18.528582,18.264221 13.291696,25.230495 11.500037,31.436501 z"
             style="fill:#404040;"/>
          </a>
         </g>
        </svg>
</svg>
