<?xml version="1.0" encoding="UTF-8" standalone="no"?>
<!DOCTYPE svg PUBLIC "-//W3C//DTD SVG 1.1//EN"
 "http://www.w3.org/Graphics/SVG/1.1/DTD/svg11.dtd">
<!-- Generated by graphviz version 2.36.0 (20140111.2315)
 -->
<!-- Title: /home/travis/build/AliceO2Group/AliceO2/Detectors/ITSMFT/ITS/base/include/ITSBase/GeometryTGeo.h Pages: 1 -->
<svg width="2736pt" height="396pt"
 viewBox="0.00 0.00 2736.00 396.00" xmlns="http://www.w3.org/2000/svg" xmlns:xlink="http://www.w3.org/1999/xlink">
<g id="graph0" class="graph" transform="scale(1 1) rotate(0) translate(4 392)">
<title>/home/travis/build/AliceO2Group/AliceO2/Detectors/ITSMFT/ITS/base/include/ITSBase/GeometryTGeo.h</title>
<!-- Node1 -->
<g id="node1" class="node"><title>Node1</title>
<polygon fill="#bfbfbf" stroke="black" points="1274.5,-324.5 1274.5,-387.5 1435.5,-387.5 1435.5,-324.5 1274.5,-324.5"/>
<text text-anchor="start" x="1282.5" y="-375.5" font-family="Helvetica,sans-Serif" font-size="10.00">/home/travis/build</text>
<text text-anchor="start" x="1282.5" y="-364.5" font-family="Helvetica,sans-Serif" font-size="10.00">/AliceO2Group/AliceO2</text>
<text text-anchor="start" x="1282.5" y="-353.5" font-family="Helvetica,sans-Serif" font-size="10.00">/Detectors/ITSMFT/ITS</text>
<text text-anchor="start" x="1282.5" y="-342.5" font-family="Helvetica,sans-Serif" font-size="10.00">/base/include/ITSBase/Geometry</text>
<text text-anchor="middle" x="1355" y="-331.5" font-family="Helvetica,sans-Serif" font-size="10.00">TGeo.h</text>
</g>
<!-- Node2 -->
<g id="node2" class="node"><title>Node2</title>
<g id="a_node2"><a xlink:href="../../db/df2/ITS_2base_2src_2GeometryTGeo_8cxx.html" target="_top" xlink:title="/home/travis/build\l/AliceO2Group/AliceO2\l/Detectors/ITSMFT/ITS\l/base/src/GeometryTGeo.cxx">
<polygon fill="none" stroke="black" points="0,-224 0,-276 146,-276 146,-224 0,-224"/>
<text text-anchor="start" x="8" y="-264" font-family="Helvetica,sans-Serif" font-size="10.00">/home/travis/build</text>
<text text-anchor="start" x="8" y="-253" font-family="Helvetica,sans-Serif" font-size="10.00">/AliceO2Group/AliceO2</text>
<text text-anchor="start" x="8" y="-242" font-family="Helvetica,sans-Serif" font-size="10.00">/Detectors/ITSMFT/ITS</text>
<text text-anchor="middle" x="73" y="-231" font-family="Helvetica,sans-Serif" font-size="10.00">/base/src/GeometryTGeo.cxx</text>
</a>
</g>
</g>
<!-- Node1&#45;&gt;Node2 -->
<g id="edge1" class="edge"><title>Node1&#45;&gt;Node2</title>
<path fill="none" stroke="midnightblue" d="M1263.95,-354.225C1021.62,-351.475 365.057,-339.365 155,-288 143.622,-285.218 131.872,-280.89 120.946,-276.161"/>
<polygon fill="midnightblue" stroke="midnightblue" points="1264.1,-357.726 1274.14,-354.337 1264.18,-350.727 1264.1,-357.726"/>
</g>
<!-- Node3 -->
<g id="node3" class="node"><title>Node3</title>
<g id="a_node3"><a xlink:href="../../de/d32/ITS_2macros_2test_2CheckClusters_8C.html" target="_top" xlink:title="/home/travis/build\l/AliceO2Group/AliceO2\l/Detectors/ITSMFT/ITS\l/macros/test/CheckClusters.C">
<polygon fill="none" stroke="black" points="164,-224 164,-276 314,-276 314,-224 164,-224"/>
<text text-anchor="start" x="172" y="-264" font-family="Helvetica,sans-Serif" font-size="10.00">/home/travis/build</text>
<text text-anchor="start" x="172" y="-253" font-family="Helvetica,sans-Serif" font-size="10.00">/AliceO2Group/AliceO2</text>
<text text-anchor="start" x="172" y="-242" font-family="Helvetica,sans-Serif" font-size="10.00">/Detectors/ITSMFT/ITS</text>
<text text-anchor="middle" x="239" y="-231" font-family="Helvetica,sans-Serif" font-size="10.00">/macros/test/CheckClusters.C</text>
</a>
</g>
</g>
<!-- Node1&#45;&gt;Node3 -->
<g id="edge2" class="edge"><title>Node1&#45;&gt;Node3</title>
<path fill="none" stroke="midnightblue" d="M1264.36,-353.108C1047.02,-347.928 501.179,-330.932 324,-288 312.269,-285.157 300.116,-280.805 288.795,-276.071"/>
<polygon fill="midnightblue" stroke="midnightblue" points="1264.38,-356.609 1274.45,-353.346 1264.54,-349.611 1264.38,-356.609"/>
</g>
<!-- Node4 -->
<g id="node4" class="node"><title>Node4</title>
<g id="a_node4"><a xlink:href="../../de/d5b/CheckClusterShape_8C.html" target="_top" xlink:title="/home/travis/build\l/AliceO2Group/AliceO2\l/Detectors/ITSMFT/ITS\l/macros/test/CheckClusterShape.C">
<polygon fill="none" stroke="black" points="332.5,-224 332.5,-276 505.5,-276 505.5,-224 332.5,-224"/>
<text text-anchor="start" x="340.5" y="-264" font-family="Helvetica,sans-Serif" font-size="10.00">/home/travis/build</text>
<text text-anchor="start" x="340.5" y="-253" font-family="Helvetica,sans-Serif" font-size="10.00">/AliceO2Group/AliceO2</text>
<text text-anchor="start" x="340.5" y="-242" font-family="Helvetica,sans-Serif" font-size="10.00">/Detectors/ITSMFT/ITS</text>
<text text-anchor="middle" x="419" y="-231" font-family="Helvetica,sans-Serif" font-size="10.00">/macros/test/CheckClusterShape.C</text>
</a>
</g>
</g>
<!-- Node1&#45;&gt;Node4 -->
<g id="edge3" class="edge"><title>Node1&#45;&gt;Node4</title>
<path fill="none" stroke="midnightblue" d="M1264.11,-351.059C1077.2,-342.413 655.511,-319.972 515,-288 502.112,-285.067 488.653,-280.739 476.031,-276.066"/>
<polygon fill="midnightblue" stroke="midnightblue" points="1264.03,-354.559 1274.18,-351.522 1264.35,-347.566 1264.03,-354.559"/>
</g>
<!-- Node5 -->
<g id="node5" class="node"><title>Node5</title>
<g id="a_node5"><a xlink:href="../../da/da8/ITS_2macros_2test_2CheckDigits_8C.html" target="_top" xlink:title="/home/travis/build\l/AliceO2Group/AliceO2\l/Detectors/ITSMFT/ITS\l/macros/test/CheckDigits.C">
<polygon fill="none" stroke="black" points="523.5,-224 523.5,-276 662.5,-276 662.5,-224 523.5,-224"/>
<text text-anchor="start" x="531.5" y="-264" font-family="Helvetica,sans-Serif" font-size="10.00">/home/travis/build</text>
<text text-anchor="start" x="531.5" y="-253" font-family="Helvetica,sans-Serif" font-size="10.00">/AliceO2Group/AliceO2</text>
<text text-anchor="start" x="531.5" y="-242" font-family="Helvetica,sans-Serif" font-size="10.00">/Detectors/ITSMFT/ITS</text>
<text text-anchor="middle" x="593" y="-231" font-family="Helvetica,sans-Serif" font-size="10.00">/macros/test/CheckDigits.C</text>
</a>
</g>
</g>
<!-- Node1&#45;&gt;Node5 -->
<g id="edge4" class="edge"><title>Node1&#45;&gt;Node5</title>
<path fill="none" stroke="midnightblue" d="M1264.16,-355.796C1131.6,-354.796 878.46,-344.673 672,-288 661.192,-285.033 650.032,-280.69 639.626,-276.014"/>
<polygon fill="midnightblue" stroke="midnightblue" points="1264.25,-359.297 1274.27,-355.856 1264.29,-352.297 1264.25,-359.297"/>
</g>
<!-- Node6 -->
<g id="node6" class="node"><title>Node6</title>
<g id="a_node6"><a xlink:href="../../d5/df6/DisplayTrack_8C.html" target="_top" xlink:title="Simple macro to display ITSU tracks. ">
<polygon fill="none" stroke="black" points="680.5,-224 680.5,-276 823.5,-276 823.5,-224 680.5,-224"/>
<text text-anchor="start" x="688.5" y="-264" font-family="Helvetica,sans-Serif" font-size="10.00">/home/travis/build</text>
<text text-anchor="start" x="688.5" y="-253" font-family="Helvetica,sans-Serif" font-size="10.00">/AliceO2Group/AliceO2</text>
<text text-anchor="start" x="688.5" y="-242" font-family="Helvetica,sans-Serif" font-size="10.00">/Detectors/ITSMFT/ITS</text>
<text text-anchor="middle" x="752" y="-231" font-family="Helvetica,sans-Serif" font-size="10.00">/macros/test/DisplayTrack.C</text>
</a>
</g>
</g>
<!-- Node1&#45;&gt;Node6 -->
<g id="edge5" class="edge"><title>Node1&#45;&gt;Node6</title>
<path fill="none" stroke="midnightblue" d="M1264.06,-351.594C1158.57,-345.76 980.31,-330.052 833,-288 822.296,-284.944 811.206,-280.681 800.794,-276.131"/>
<polygon fill="midnightblue" stroke="midnightblue" points="1264.18,-355.105 1274.35,-352.145 1264.55,-348.115 1264.18,-355.105"/>
</g>
<!-- Node7 -->
<g id="node7" class="node"><title>Node7</title>
<g id="a_node7"><a xlink:href="../../d6/d67/ITSMFT_2ITS_2reconstruction_2include_2ITSReconstruction_2ClustererTask_8h.html" target="_top" xlink:title="/home/travis/build\l/AliceO2Group/AliceO2\l/Detectors/ITSMFT/ITS\l/reconstruction/include\l/ITSReconstruction/ClustererTask.h">
<polygon fill="none" stroke="black" points="842,-218.5 842,-281.5 1016,-281.5 1016,-218.5 842,-218.5"/>
<text text-anchor="start" x="850" y="-269.5" font-family="Helvetica,sans-Serif" font-size="10.00">/home/travis/build</text>
<text text-anchor="start" x="850" y="-258.5" font-family="Helvetica,sans-Serif" font-size="10.00">/AliceO2Group/AliceO2</text>
<text text-anchor="start" x="850" y="-247.5" font-family="Helvetica,sans-Serif" font-size="10.00">/Detectors/ITSMFT/ITS</text>
<text text-anchor="start" x="850" y="-236.5" font-family="Helvetica,sans-Serif" font-size="10.00">/reconstruction/include</text>
<text text-anchor="middle" x="929" y="-225.5" font-family="Helvetica,sans-Serif" font-size="10.00">/ITSReconstruction/ClustererTask.h</text>
</a>
</g>
</g>
<!-- Node1&#45;&gt;Node7 -->
<g id="edge6" class="edge"><title>Node1&#45;&gt;Node7</title>
<path fill="none" stroke="midnightblue" d="M1264.48,-340.048C1198.8,-328.302 1108.13,-310.234 1030,-288 1023.17,-286.058 1016.15,-283.877 1009.14,-281.571"/>
<polygon fill="midnightblue" stroke="midnightblue" points="1263.94,-343.506 1274.4,-341.807 1265.16,-336.614 1263.94,-343.506"/>
</g>
<!-- Node10 -->
<g id="node10" class="node"><title>Node10</title>
<g id="a_node10"><a xlink:href="../../d6/d0c/CookedTracker_8h.html" target="_top" xlink:title="Definition of the &quot;Cooked Matrix&quot; ITS tracker. ">
<polygon fill="none" stroke="black" points="1072.5,-218.5 1072.5,-281.5 1251.5,-281.5 1251.5,-218.5 1072.5,-218.5"/>
<text text-anchor="start" x="1080.5" y="-269.5" font-family="Helvetica,sans-Serif" font-size="10.00">/home/travis/build</text>
<text text-anchor="start" x="1080.5" y="-258.5" font-family="Helvetica,sans-Serif" font-size="10.00">/AliceO2Group/AliceO2</text>
<text text-anchor="start" x="1080.5" y="-247.5" font-family="Helvetica,sans-Serif" font-size="10.00">/Detectors/ITSMFT/ITS</text>
<text text-anchor="start" x="1080.5" y="-236.5" font-family="Helvetica,sans-Serif" font-size="10.00">/reconstruction/include</text>
<text text-anchor="middle" x="1162" y="-225.5" font-family="Helvetica,sans-Serif" font-size="10.00">/ITSReconstruction/CookedTracker.h</text>
</a>
</g>
</g>
<!-- Node1&#45;&gt;Node10 -->
<g id="edge9" class="edge"><title>Node1&#45;&gt;Node10</title>
<path fill="none" stroke="midnightblue" d="M1289.39,-319.647C1266.4,-307.258 1240.79,-293.458 1218.6,-281.5"/>
<polygon fill="midnightblue" stroke="midnightblue" points="1287.93,-322.837 1298.4,-324.499 1291.25,-316.674 1287.93,-322.837"/>
</g>
<!-- Node11 -->
<g id="node11" class="node"><title>Node11</title>
<g id="a_node11"><a xlink:href="../../d3/d9f/CookedTrackerTask_8h.html" target="_top" xlink:title="Definition of the ITS &quot;Cooked Matrix&quot; tracker task. ">
<polygon fill="none" stroke="black" points="982.5,-101 982.5,-175 1153.5,-175 1153.5,-101 982.5,-101"/>
<text text-anchor="start" x="990.5" y="-163" font-family="Helvetica,sans-Serif" font-size="10.00">/home/travis/build</text>
<text text-anchor="start" x="990.5" y="-152" font-family="Helvetica,sans-Serif" font-size="10.00">/AliceO2Group/AliceO2</text>
<text text-anchor="start" x="990.5" y="-141" font-family="Helvetica,sans-Serif" font-size="10.00">/Detectors/ITSMFT/ITS</text>
<text text-anchor="start" x="990.5" y="-130" font-family="Helvetica,sans-Serif" font-size="10.00">/reconstruction/include</text>
<text text-anchor="start" x="990.5" y="-119" font-family="Helvetica,sans-Serif" font-size="10.00">/ITSReconstruction/CookedTracker</text>
<text text-anchor="middle" x="1068" y="-108" font-family="Helvetica,sans-Serif" font-size="10.00">Task.h</text>
</a>
</g>
</g>
<!-- Node1&#45;&gt;Node11 -->
<g id="edge14" class="edge"><title>Node1&#45;&gt;Node11</title>
<path fill="none" stroke="midnightblue" d="M1264.12,-346.326C1188.29,-336.987 1088.76,-319.104 1064,-288 1038.94,-256.516 1045.8,-208.305 1055.05,-175.304"/>
<polygon fill="midnightblue" stroke="midnightblue" points="1263.84,-349.817 1274.18,-347.533 1264.67,-342.867 1263.84,-349.817"/>
</g>
<!-- Node15 -->
<g id="node15" class="node"><title>Node15</title>
<g id="a_node15"><a xlink:href="../../d6/d49/TrivialClustererTask_8h.html" target="_top" xlink:title="Definition of the ITS cluster finder task. ">
<polygon fill="none" stroke="black" points="1270,-213 1270,-287 1440,-287 1440,-213 1270,-213"/>
<text text-anchor="start" x="1278" y="-275" font-family="Helvetica,sans-Serif" font-size="10.00">/home/travis/build</text>
<text text-anchor="start" x="1278" y="-264" font-family="Helvetica,sans-Serif" font-size="10.00">/AliceO2Group/AliceO2</text>
<text text-anchor="start" x="1278" y="-253" font-family="Helvetica,sans-Serif" font-size="10.00">/Detectors/ITSMFT/ITS</text>
<text text-anchor="start" x="1278" y="-242" font-family="Helvetica,sans-Serif" font-size="10.00">/reconstruction/include</text>
<text text-anchor="start" x="1278" y="-231" font-family="Helvetica,sans-Serif" font-size="10.00">/ITSReconstruction/TrivialClusterer</text>
<text text-anchor="middle" x="1355" y="-220" font-family="Helvetica,sans-Serif" font-size="10.00">Task.h</text>
</a>
</g>
</g>
<!-- Node1&#45;&gt;Node15 -->
<g id="edge15" class="edge"><title>Node1&#45;&gt;Node15</title>
<path fill="none" stroke="midnightblue" d="M1355,-314.209C1355,-305.326 1355,-295.986 1355,-287.292"/>
<polygon fill="midnightblue" stroke="midnightblue" points="1351.5,-314.359 1355,-324.359 1358.5,-314.359 1351.5,-314.359"/>
</g>
<!-- Node17 -->
<g id="node17" class="node"><title>Node17</title>
<g id="a_node17"><a xlink:href="../../d0/d81/CATrackingStation_8cxx.html" target="_top" xlink:title="/home/travis/build\l/AliceO2Group/AliceO2\l/Detectors/ITSMFT/ITS\l/reconstruction/src/CATracking\lStation.cxx">
<polygon fill="none" stroke="black" points="1458,-218.5 1458,-281.5 1610,-281.5 1610,-218.5 1458,-218.5"/>
<text text-anchor="start" x="1466" y="-269.5" font-family="Helvetica,sans-Serif" font-size="10.00">/home/travis/build</text>
<text text-anchor="start" x="1466" y="-258.5" font-family="Helvetica,sans-Serif" font-size="10.00">/AliceO2Group/AliceO2</text>
<text text-anchor="start" x="1466" y="-247.5" font-family="Helvetica,sans-Serif" font-size="10.00">/Detectors/ITSMFT/ITS</text>
<text text-anchor="start" x="1466" y="-236.5" font-family="Helvetica,sans-Serif" font-size="10.00">/reconstruction/src/CATracking</text>
<text text-anchor="middle" x="1534" y="-225.5" font-family="Helvetica,sans-Serif" font-size="10.00">Station.cxx</text>
</a>
</g>
</g>
<!-- Node1&#45;&gt;Node17 -->
<g id="edge17" class="edge"><title>Node1&#45;&gt;Node17</title>
<path fill="none" stroke="midnightblue" d="M1416.61,-319.204C1437.68,-306.964 1461.03,-293.394 1481.33,-281.601"/>
<polygon fill="midnightblue" stroke="midnightblue" points="1414.63,-316.309 1407.74,-324.359 1418.14,-322.362 1414.63,-316.309"/>
</g>
<!-- Node18 -->
<g id="node18" class="node"><title>Node18</title>
<g id="a_node18"><a xlink:href="../../d9/d0d/ITSMFT_2ITS_2simulation_2src_2Detector_8cxx.html" target="_top" xlink:title="/home/travis/build\l/AliceO2Group/AliceO2\l/Detectors/ITSMFT/ITS\l/simulation/src/Detector.cxx">
<polygon fill="none" stroke="black" points="1628,-224 1628,-276 1768,-276 1768,-224 1628,-224"/>
<text text-anchor="start" x="1636" y="-264" font-family="Helvetica,sans-Serif" font-size="10.00">/home/travis/build</text>
<text text-anchor="start" x="1636" y="-253" font-family="Helvetica,sans-Serif" font-size="10.00">/AliceO2Group/AliceO2</text>
<text text-anchor="start" x="1636" y="-242" font-family="Helvetica,sans-Serif" font-size="10.00">/Detectors/ITSMFT/ITS</text>
<text text-anchor="middle" x="1698" y="-231" font-family="Helvetica,sans-Serif" font-size="10.00">/simulation/src/Detector.cxx</text>
</a>
</g>
</g>
<!-- Node1&#45;&gt;Node18 -->
<g id="edge18" class="edge"><title>Node1&#45;&gt;Node18</title>
<path fill="none" stroke="midnightblue" d="M1445.39,-336.521C1496.97,-324.876 1562.42,-308.222 1619,-288 1628.56,-284.585 1638.52,-280.423 1648.03,-276.139"/>
<polygon fill="midnightblue" stroke="midnightblue" points="1444.6,-333.113 1435.6,-338.71 1446.12,-339.945 1444.6,-333.113"/>
</g>
<!-- Node19 -->
<g id="node19" class="node"><title>Node19</title>
<g id="a_node19"><a xlink:href="../../da/d29/ITSMFT_2ITS_2simulation_2src_2DigitizerTask_8cxx.html" target="_top" xlink:title="/home/travis/build\l/AliceO2Group/AliceO2\l/Detectors/ITSMFT/ITS\l/simulation/src/DigitizerTask.cxx">
<polygon fill="none" stroke="black" points="1786,-224 1786,-276 1946,-276 1946,-224 1786,-224"/>
<text text-anchor="start" x="1794" y="-264" font-family="Helvetica,sans-Serif" font-size="10.00">/home/travis/build</text>
<text text-anchor="start" x="1794" y="-253" font-family="Helvetica,sans-Serif" font-size="10.00">/AliceO2Group/AliceO2</text>
<text text-anchor="start" x="1794" y="-242" font-family="Helvetica,sans-Serif" font-size="10.00">/Detectors/ITSMFT/ITS</text>
<text text-anchor="middle" x="1866" y="-231" font-family="Helvetica,sans-Serif" font-size="10.00">/simulation/src/DigitizerTask.cxx</text>
</a>
</g>
</g>
<!-- Node1&#45;&gt;Node19 -->
<g id="edge19" class="edge"><title>Node1&#45;&gt;Node19</title>
<path fill="none" stroke="midnightblue" d="M1445.58,-346.879C1531.96,-337.675 1665.08,-319.665 1777,-288 1788.27,-284.811 1800.03,-280.6 1811.17,-276.163"/>
<polygon fill="midnightblue" stroke="midnightblue" points="1445.13,-343.407 1435.55,-347.931 1445.86,-350.369 1445.13,-343.407"/>
</g>
<!-- Node20 -->
<g id="node20" class="node"><title>Node20</title>
<g id="a_node20"><a xlink:href="../../d5/dda/V1Layer_8cxx.html" target="_top" xlink:title="Implementation of the V1Layer class. ">
<polygon fill="none" stroke="black" points="1964,-224 1964,-276 2102,-276 2102,-224 1964,-224"/>
<text text-anchor="start" x="1972" y="-264" font-family="Helvetica,sans-Serif" font-size="10.00">/home/travis/build</text>
<text text-anchor="start" x="1972" y="-253" font-family="Helvetica,sans-Serif" font-size="10.00">/AliceO2Group/AliceO2</text>
<text text-anchor="start" x="1972" y="-242" font-family="Helvetica,sans-Serif" font-size="10.00">/Detectors/ITSMFT/ITS</text>
<text text-anchor="middle" x="2033" y="-231" font-family="Helvetica,sans-Serif" font-size="10.00">/simulation/src/V1Layer.cxx</text>
</a>
</g>
</g>
<!-- Node1&#45;&gt;Node20 -->
<g id="edge20" class="edge"><title>Node1&#45;&gt;Node20</title>
<path fill="none" stroke="midnightblue" d="M1445.89,-354.146C1565.01,-350.937 1779.4,-337.936 1955,-288 1965.52,-285.007 1976.39,-280.713 1986.54,-276.102"/>
<polygon fill="midnightblue" stroke="midnightblue" points="1445.63,-350.651 1435.72,-354.402 1445.81,-357.649 1445.63,-350.651"/>
</g>
<!-- Node21 -->
<g id="node21" class="node"><title>Node21</title>
<g id="a_node21"><a xlink:href="../../d9/d7c/V3Layer_8cxx.html" target="_top" xlink:title="Implementation of the V3Layer class. ">
<polygon fill="none" stroke="black" points="2120,-224 2120,-276 2258,-276 2258,-224 2120,-224"/>
<text text-anchor="start" x="2128" y="-264" font-family="Helvetica,sans-Serif" font-size="10.00">/home/travis/build</text>
<text text-anchor="start" x="2128" y="-253" font-family="Helvetica,sans-Serif" font-size="10.00">/AliceO2Group/AliceO2</text>
<text text-anchor="start" x="2128" y="-242" font-family="Helvetica,sans-Serif" font-size="10.00">/Detectors/ITSMFT/ITS</text>
<text text-anchor="middle" x="2189" y="-231" font-family="Helvetica,sans-Serif" font-size="10.00">/simulation/src/V3Layer.cxx</text>
</a>
</g>
</g>
<!-- Node1&#45;&gt;Node21 -->
<g id="edge21" class="edge"><title>Node1&#45;&gt;Node21</title>
<path fill="none" stroke="midnightblue" d="M1445.8,-350.973C1618.47,-342.653 1987.9,-321.495 2111,-288 2121.7,-285.088 2132.73,-280.768 2143.01,-276.097"/>
<polygon fill="midnightblue" stroke="midnightblue" points="1445.54,-347.481 1435.72,-351.455 1445.88,-354.473 1445.54,-347.481"/>
</g>
<!-- Node22 -->
<g id="node22" class="node"><title>Node22</title>
<g id="a_node22"><a xlink:href="../../d7/d4c/HitAnalysis_8cxx.html" target="_top" xlink:title="/home/travis/build\l/AliceO2Group/AliceO2\l/Detectors/ITSMFT/test\l/HitAnalysis/src/HitAnalysis.cxx">
<polygon fill="none" stroke="black" points="2276,-224 2276,-276 2434,-276 2434,-224 2276,-224"/>
<text text-anchor="start" x="2284" y="-264" font-family="Helvetica,sans-Serif" font-size="10.00">/home/travis/build</text>
<text text-anchor="start" x="2284" y="-253" font-family="Helvetica,sans-Serif" font-size="10.00">/AliceO2Group/AliceO2</text>
<text text-anchor="start" x="2284" y="-242" font-family="Helvetica,sans-Serif" font-size="10.00">/Detectors/ITSMFT/test</text>
<text text-anchor="middle" x="2355" y="-231" font-family="Helvetica,sans-Serif" font-size="10.00">/HitAnalysis/src/HitAnalysis.cxx</text>
</a>
</g>
</g>
<!-- Node1&#45;&gt;Node22 -->
<g id="edge22" class="edge"><title>Node1&#45;&gt;Node22</title>
<path fill="none" stroke="midnightblue" d="M1445.7,-352.07C1644.45,-345.042 2112.9,-325.006 2267,-288 2278.93,-285.136 2291.31,-280.837 2302.89,-276.17"/>
<polygon fill="midnightblue" stroke="midnightblue" points="1445.45,-348.576 1435.58,-352.424 1445.7,-355.572 1445.45,-348.576"/>
</g>
<!-- Node23 -->
<g id="node23" class="node"><title>Node23</title>
<g id="a_node23"><a xlink:href="../../d9/d71/run__sim_8C.html" target="_top" xlink:title="/home/travis/build\l/AliceO2Group/AliceO2\l/macro/run_sim.C">
<polygon fill="none" stroke="black" points="2452,-229.5 2452,-270.5 2570,-270.5 2570,-229.5 2452,-229.5"/>
<text text-anchor="start" x="2460" y="-258.5" font-family="Helvetica,sans-Serif" font-size="10.00">/home/travis/build</text>
<text text-anchor="start" x="2460" y="-247.5" font-family="Helvetica,sans-Serif" font-size="10.00">/AliceO2Group/AliceO2</text>
<text text-anchor="middle" x="2511" y="-236.5" font-family="Helvetica,sans-Serif" font-size="10.00">/macro/run_sim.C</text>
</a>
</g>
</g>
<!-- Node1&#45;&gt;Node23 -->
<g id="edge23" class="edge"><title>Node1&#45;&gt;Node23</title>
<path fill="none" stroke="midnightblue" d="M1445.94,-354.381C1672.23,-352.043 2255.83,-340.907 2442,-288 2455.6,-284.136 2469.54,-277.305 2481.29,-270.555"/>
<polygon fill="midnightblue" stroke="midnightblue" points="1445.72,-350.883 1435.76,-354.482 1445.79,-357.882 1445.72,-350.883"/>
</g>
<!-- Node24 -->
<g id="node24" class="node"><title>Node24</title>
<g id="a_node24"><a xlink:href="../../d5/dd2/run__sim__its__ALP3_8C.html" target="_top" xlink:title="/home/travis/build\l/AliceO2Group/AliceO2\l/macro/run_sim_its_ALP3.C">
<polygon fill="none" stroke="black" points="2588,-229.5 2588,-270.5 2728,-270.5 2728,-229.5 2588,-229.5"/>
<text text-anchor="start" x="2596" y="-258.5" font-family="Helvetica,sans-Serif" font-size="10.00">/home/travis/build</text>
<text text-anchor="start" x="2596" y="-247.5" font-family="Helvetica,sans-Serif" font-size="10.00">/AliceO2Group/AliceO2</text>
<text text-anchor="middle" x="2658" y="-236.5" font-family="Helvetica,sans-Serif" font-size="10.00">/macro/run_sim_its_ALP3.C</text>
</a>
</g>
</g>
<!-- Node1&#45;&gt;Node24 -->
<g id="edge24" class="edge"><title>Node1&#45;&gt;Node24</title>
<path fill="none" stroke="midnightblue" d="M1446.15,-354.503C1691.99,-352.447 2364.59,-341.914 2579,-288 2594.28,-284.159 2610.18,-277.332 2623.68,-270.58"/>
<polygon fill="midnightblue" stroke="midnightblue" points="1445.79,-351.005 1435.82,-354.586 1445.85,-358.005 1445.79,-351.005"/>
</g>
<!-- Node8 -->
<g id="node8" class="node"><title>Node8</title>
<g id="a_node8"><a xlink:href="../../d8/d95/ITSMFT_2ITS_2reconstruction_2src_2ClustererTask_8cxx.html" target="_top" xlink:title="/home/travis/build\l/AliceO2Group/AliceO2\l/Detectors/ITSMFT/ITS\l/reconstruction/src/ClustererTask.cxx">
<polygon fill="none" stroke="black" points="646.5,-112 646.5,-164 827.5,-164 827.5,-112 646.5,-112"/>
<text text-anchor="start" x="654.5" y="-152" font-family="Helvetica,sans-Serif" font-size="10.00">/home/travis/build</text>
<text text-anchor="start" x="654.5" y="-141" font-family="Helvetica,sans-Serif" font-size="10.00">/AliceO2Group/AliceO2</text>
<text text-anchor="start" x="654.5" y="-130" font-family="Helvetica,sans-Serif" font-size="10.00">/Detectors/ITSMFT/ITS</text>
<text text-anchor="middle" x="737" y="-119" font-family="Helvetica,sans-Serif" font-size="10.00">/reconstruction/src/ClustererTask.cxx</text>
</a>
</g>
</g>
<!-- Node7&#45;&gt;Node8 -->
<g id="edge7" class="edge"><title>Node7&#45;&gt;Node8</title>
<path fill="none" stroke="midnightblue" d="M866.591,-213.245C838.579,-197.196 806.202,-178.647 780.817,-164.104"/>
<polygon fill="midnightblue" stroke="midnightblue" points="865.101,-216.425 875.517,-218.359 868.58,-210.351 865.101,-216.425"/>
</g>
<!-- Node9 -->
<g id="node9" class="node"><title>Node9</title>
<g id="a_node9"><a xlink:href="../../d6/da1/run__clus__its_8C.html" target="_top" xlink:title="/home/travis/build\l/AliceO2Group/AliceO2\l/macro/run_clus_its.C">
<polygon fill="none" stroke="black" points="846,-117.5 846,-158.5 964,-158.5 964,-117.5 846,-117.5"/>
<text text-anchor="start" x="854" y="-146.5" font-family="Helvetica,sans-Serif" font-size="10.00">/home/travis/build</text>
<text text-anchor="start" x="854" y="-135.5" font-family="Helvetica,sans-Serif" font-size="10.00">/AliceO2Group/AliceO2</text>
<text text-anchor="middle" x="905" y="-124.5" font-family="Helvetica,sans-Serif" font-size="10.00">/macro/run_clus_its.C</text>
</a>
</g>
</g>
<!-- Node7&#45;&gt;Node9 -->
<g id="edge8" class="edge"><title>Node7&#45;&gt;Node9</title>
<path fill="none" stroke="midnightblue" d="M920.088,-208.154C916.404,-191.267 912.303,-172.47 909.307,-158.741"/>
<polygon fill="midnightblue" stroke="midnightblue" points="916.763,-209.335 922.315,-218.359 923.602,-207.843 916.763,-209.335"/>
</g>
<!-- Node10&#45;&gt;Node11 -->
<g id="edge10" class="edge"><title>Node10&#45;&gt;Node11</title>
<path fill="none" stroke="midnightblue" d="M1129.21,-210.624C1119.42,-199.167 1108.72,-186.647 1099.04,-175.325"/>
<polygon fill="midnightblue" stroke="midnightblue" points="1126.66,-213.03 1135.82,-218.359 1131.98,-208.483 1126.66,-213.03"/>
</g>
<!-- Node14 -->
<g id="node14" class="node"><title>Node14</title>
<g id="a_node14"><a xlink:href="../../d7/dca/CookedTracker_8cxx.html" target="_top" xlink:title="Implementation of the &quot;Cooked Matrix&quot; ITS tracker. ">
<polygon fill="none" stroke="black" points="1172,-112 1172,-164 1358,-164 1358,-112 1172,-112"/>
<text text-anchor="start" x="1180" y="-152" font-family="Helvetica,sans-Serif" font-size="10.00">/home/travis/build</text>
<text text-anchor="start" x="1180" y="-141" font-family="Helvetica,sans-Serif" font-size="10.00">/AliceO2Group/AliceO2</text>
<text text-anchor="start" x="1180" y="-130" font-family="Helvetica,sans-Serif" font-size="10.00">/Detectors/ITSMFT/ITS</text>
<text text-anchor="middle" x="1265" y="-119" font-family="Helvetica,sans-Serif" font-size="10.00">/reconstruction/src/CookedTracker.cxx</text>
</a>
</g>
</g>
<!-- Node10&#45;&gt;Node14 -->
<g id="edge13" class="edge"><title>Node10&#45;&gt;Node14</title>
<path fill="none" stroke="midnightblue" d="M1197.62,-210.964C1212.07,-195.527 1228.37,-178.114 1241.33,-164.284"/>
<polygon fill="midnightblue" stroke="midnightblue" points="1194.97,-208.667 1190.69,-218.359 1200.08,-213.452 1194.97,-208.667"/>
</g>
<!-- Node12 -->
<g id="node12" class="node"><title>Node12</title>
<g id="a_node12"><a xlink:href="../../d5/da2/CookedTrackerTask_8cxx.html" target="_top" xlink:title="Implementation of the ITS &quot;Cooked Matrix&quot; tracker task. ">
<polygon fill="none" stroke="black" points="903.5,-0.5 903.5,-63.5 1070.5,-63.5 1070.5,-0.5 903.5,-0.5"/>
<text text-anchor="start" x="911.5" y="-51.5" font-family="Helvetica,sans-Serif" font-size="10.00">/home/travis/build</text>
<text text-anchor="start" x="911.5" y="-40.5" font-family="Helvetica,sans-Serif" font-size="10.00">/AliceO2Group/AliceO2</text>
<text text-anchor="start" x="911.5" y="-29.5" font-family="Helvetica,sans-Serif" font-size="10.00">/Detectors/ITSMFT/ITS</text>
<text text-anchor="start" x="911.5" y="-18.5" font-family="Helvetica,sans-Serif" font-size="10.00">/reconstruction/src/CookedTracker</text>
<text text-anchor="middle" x="987" y="-7.5" font-family="Helvetica,sans-Serif" font-size="10.00">Task.cxx</text>
</a>
</g>
</g>
<!-- Node11&#45;&gt;Node12 -->
<g id="edge11" class="edge"><title>Node11&#45;&gt;Node12</title>
<path fill="none" stroke="midnightblue" d="M1033.6,-92.8356C1026,-83.0712 1018.1,-72.9296 1011.01,-63.8307"/>
<polygon fill="midnightblue" stroke="midnightblue" points="1030.99,-95.1789 1039.9,-100.918 1036.51,-90.8776 1030.99,-95.1789"/>
</g>
<!-- Node13 -->
<g id="node13" class="node"><title>Node13</title>
<g id="a_node13"><a xlink:href="../../dd/d4e/run__trac__its_8C.html" target="_top" xlink:title="/home/travis/build\l/AliceO2Group/AliceO2\l/macro/run_trac_its.C">
<polygon fill="none" stroke="black" points="1089,-11.5 1089,-52.5 1207,-52.5 1207,-11.5 1089,-11.5"/>
<text text-anchor="start" x="1097" y="-40.5" font-family="Helvetica,sans-Serif" font-size="10.00">/home/travis/build</text>
<text text-anchor="start" x="1097" y="-29.5" font-family="Helvetica,sans-Serif" font-size="10.00">/AliceO2Group/AliceO2</text>
<text text-anchor="middle" x="1148" y="-18.5" font-family="Helvetica,sans-Serif" font-size="10.00">/macro/run_trac_its.C</text>
</a>
</g>
</g>
<!-- Node11&#45;&gt;Node13 -->
<g id="edge12" class="edge"><title>Node11&#45;&gt;Node13</title>
<path fill="none" stroke="midnightblue" d="M1102,-92.7957C1112.77,-78.7961 1124.13,-64.0252 1132.87,-52.6667"/>
<polygon fill="midnightblue" stroke="midnightblue" points="1099.08,-90.8575 1095.76,-100.918 1104.63,-95.1255 1099.08,-90.8575"/>
</g>
<!-- Node16 -->
<g id="node16" class="node"><title>Node16</title>
<g id="a_node16"><a xlink:href="../../dd/d81/TrivialClustererTask_8cxx.html" target="_top" xlink:title="Implementation of the ITS cluster finder task. ">
<polygon fill="none" stroke="black" points="1375.5,-106.5 1375.5,-169.5 1542.5,-169.5 1542.5,-106.5 1375.5,-106.5"/>
<text text-anchor="start" x="1383.5" y="-157.5" font-family="Helvetica,sans-Serif" font-size="10.00">/home/travis/build</text>
<text text-anchor="start" x="1383.5" y="-146.5" font-family="Helvetica,sans-Serif" font-size="10.00">/AliceO2Group/AliceO2</text>
<text text-anchor="start" x="1383.5" y="-135.5" font-family="Helvetica,sans-Serif" font-size="10.00">/Detectors/ITSMFT/ITS</text>
<text text-anchor="start" x="1383.5" y="-124.5" font-family="Helvetica,sans-Serif" font-size="10.00">/reconstruction/src/TrivialClusterer</text>
<text text-anchor="middle" x="1459" y="-113.5" font-family="Helvetica,sans-Serif" font-size="10.00">Task.cxx</text>
</a>
</g>
</g>
<!-- Node15&#45;&gt;Node16 -->
<g id="edge16" class="edge"><title>Node15&#45;&gt;Node16</title>
<path fill="none" stroke="midnightblue" d="M1396.03,-205.6C1407.43,-193.548 1419.56,-180.718 1430.1,-169.568"/>
<polygon fill="midnightblue" stroke="midnightblue" points="1393.38,-203.311 1389.05,-212.982 1398.47,-208.12 1393.38,-203.311"/>
</g>
</g>
</svg>
