<?xml version="1.0" encoding="UTF-8" standalone="no"?>
<!DOCTYPE svg PUBLIC "-//W3C//DTD SVG 1.1//EN"
 "http://www.w3.org/Graphics/SVG/1.1/DTD/svg11.dtd">
<!-- Generated by graphviz version 2.36.0 (20140111.2315)
 -->
<!-- Title: o2::Passive::GeoCave Pages: 1 -->
<svg width="140pt" height="238pt"
 viewBox="0.00 0.00 140.00 238.00" xmlns="http://www.w3.org/2000/svg" xmlns:xlink="http://www.w3.org/1999/xlink">
<g id="graph0" class="graph" transform="scale(1 1) rotate(0) translate(4 234)">
<title>o2::Passive::GeoCave</title>
<!-- Node1 -->
<g id="node1" class="node"><title>Node1</title>
<polygon fill="#bfbfbf" stroke="black" points="12,-0.5 12,-123.5 128,-123.5 128,-0.5 12,-0.5"/>
<text text-anchor="middle" x="70" y="-111.5" font-family="Helvetica,sans-Serif" font-size="10.00">o2::Passive::GeoCave</text>
<polyline fill="none" stroke="black" points="12,-104.5 128,-104.5 "/>
<text text-anchor="middle" x="70" y="-92.5" font-family="Helvetica,sans-Serif" font-size="10.00"> </text>
<polyline fill="none" stroke="black" points="12,-85.5 128,-85.5 "/>
<text text-anchor="start" x="20" y="-73.5" font-family="Helvetica,sans-Serif" font-size="10.00">+ GeoCave()</text>
<text text-anchor="start" x="20" y="-62.5" font-family="Helvetica,sans-Serif" font-size="10.00">+ ~GeoCave()</text>
<text text-anchor="start" x="20" y="-51.5" font-family="Helvetica,sans-Serif" font-size="10.00">+ getModuleName()</text>
<text text-anchor="start" x="20" y="-40.5" font-family="Helvetica,sans-Serif" font-size="10.00">+ read()</text>
<text text-anchor="start" x="20" y="-29.5" font-family="Helvetica,sans-Serif" font-size="10.00">+ addRefNodes()</text>
<text text-anchor="start" x="20" y="-18.5" font-family="Helvetica,sans-Serif" font-size="10.00">+ write()</text>
<text text-anchor="start" x="20" y="-7.5" font-family="Helvetica,sans-Serif" font-size="10.00">+ print()</text>
</g>
<!-- Node2 -->
<g id="node2" class="node"><title>Node2</title>
<g id="a_node2"><a xlink:href="../../d0/d7b/classFairGeoSet.html" target="_top" xlink:title="{FairGeoSet\n||}">
<polygon fill="none" stroke="black" points="0,-172.5 0,-229.5 66,-229.5 66,-172.5 0,-172.5"/>
<text text-anchor="middle" x="33" y="-217.5" font-family="Helvetica,sans-Serif" font-size="10.00">FairGeoSet</text>
<polyline fill="none" stroke="black" points="0,-210.5 66,-210.5 "/>
<text text-anchor="middle" x="33" y="-198.5" font-family="Helvetica,sans-Serif" font-size="10.00"> </text>
<polyline fill="none" stroke="black" points="0,-191.5 66,-191.5 "/>
<text text-anchor="middle" x="33" y="-179.5" font-family="Helvetica,sans-Serif" font-size="10.00"> </text>
</a>
</g>
</g>
<!-- Node2&#45;&gt;Node1 -->
<g id="edge1" class="edge"><title>Node2&#45;&gt;Node1</title>
<path fill="none" stroke="midnightblue" d="M43.1097,-162.567C46.3693,-150.497 50.0698,-136.796 53.6602,-123.501"/>
<polygon fill="none" stroke="midnightblue" points="39.716,-161.709 40.4875,-172.276 46.4738,-163.534 39.716,-161.709"/>
</g>
<!-- Node3 -->
<g id="node3" class="node"><title>Node3</title>
<polygon fill="none" stroke="#bfbfbf" points="84,-172.5 84,-229.5 132,-229.5 132,-172.5 84,-172.5"/>
<text text-anchor="middle" x="108" y="-217.5" font-family="Helvetica,sans-Serif" font-size="10.00">TString</text>
<polyline fill="none" stroke="#bfbfbf" points="84,-210.5 132,-210.5 "/>
<text text-anchor="middle" x="108" y="-198.5" font-family="Helvetica,sans-Serif" font-size="10.00"> </text>
<polyline fill="none" stroke="#bfbfbf" points="84,-191.5 132,-191.5 "/>
<text text-anchor="middle" x="108" y="-179.5" font-family="Helvetica,sans-Serif" font-size="10.00"> </text>
</g>
<!-- Node3&#45;&gt;Node1 -->
<g id="edge2" class="edge"><title>Node3&#45;&gt;Node1</title>
<path fill="none" stroke="#404040" d="M100.31,-172.276C97.2909,-161.391 93.6726,-148.346 90.0042,-135.121"/>
<polygon fill="none" stroke="#404040" points="89.9889,-135.065 84.5307,-130.352 86.7814,-123.501 92.2396,-128.214 89.9889,-135.065"/>
<text text-anchor="middle" x="110.5" y="-145.5" font-family="Helvetica,sans-Serif" font-size="10.00"> #name</text>
</g>
</g>
</svg>
