<?xml version="1.0" encoding="UTF-8" standalone="no"?>
<!DOCTYPE svg PUBLIC "-//W3C//DTD SVG 1.1//EN"
 "http://www.w3.org/Graphics/SVG/1.1/DTD/svg11.dtd">
<!-- Generated by graphviz version 2.36.0 (20140111.2315)
 -->
<!-- Title: /home/travis/build/AliceO2Group/AliceO2/DataFormats/TPC/include/DataFormatsTPC/Helpers.h Pages: 1 -->
<svg width="833pt" height="152pt"
 viewBox="0.00 0.00 833.00 152.00" xmlns="http://www.w3.org/2000/svg" xmlns:xlink="http://www.w3.org/1999/xlink">
<g id="graph0" class="graph" transform="scale(1 1) rotate(0) translate(4 148)">
<title>/home/travis/build/AliceO2Group/AliceO2/DataFormats/TPC/include/DataFormatsTPC/Helpers.h</title>
<!-- Node1 -->
<g id="node1" class="node"><title>Node1</title>
<polygon fill="#bfbfbf" stroke="black" points="331,-91 331,-143 473,-143 473,-91 331,-91"/>
<text text-anchor="start" x="339" y="-131" font-family="Helvetica,sans-Serif" font-size="10.00">/home/travis/build</text>
<text text-anchor="start" x="339" y="-120" font-family="Helvetica,sans-Serif" font-size="10.00">/AliceO2Group/AliceO2</text>
<text text-anchor="start" x="339" y="-109" font-family="Helvetica,sans-Serif" font-size="10.00">/DataFormats/TPC/include</text>
<text text-anchor="middle" x="402" y="-98" font-family="Helvetica,sans-Serif" font-size="10.00">/DataFormatsTPC/Helpers.h</text>
</g>
<!-- Node2 -->
<g id="node2" class="node"><title>Node2</title>
<g id="a_node2"><a xlink:href="../../dc/def/Helpers_8cxx.html" target="_top" xlink:title="/home/travis/build\l/AliceO2Group/AliceO2\l/DataFormats/TPC/src/Helpers.cxx">
<polygon fill="none" stroke="black" points="0,-6.5 0,-47.5 172,-47.5 172,-6.5 0,-6.5"/>
<text text-anchor="start" x="8" y="-35.5" font-family="Helvetica,sans-Serif" font-size="10.00">/home/travis/build</text>
<text text-anchor="start" x="8" y="-24.5" font-family="Helvetica,sans-Serif" font-size="10.00">/AliceO2Group/AliceO2</text>
<text text-anchor="middle" x="86" y="-13.5" font-family="Helvetica,sans-Serif" font-size="10.00">/DataFormats/TPC/src/Helpers.cxx</text>
</a>
</g>
</g>
<!-- Node1&#45;&gt;Node2 -->
<g id="edge1" class="edge"><title>Node1&#45;&gt;Node2</title>
<path fill="none" stroke="midnightblue" d="M321.024,-93.4497C270.079,-79.2626 204.991,-61.1368 156.234,-47.559"/>
<polygon fill="midnightblue" stroke="midnightblue" points="320.117,-96.8303 330.689,-96.1414 321.995,-90.0869 320.117,-96.8303"/>
</g>
<!-- Node3 -->
<g id="node3" class="node"><title>Node3</title>
<g id="a_node3"><a xlink:href="../../d7/d3d/convertClusterToClusterHardware_8C.html" target="_top" xlink:title="/home/travis/build\l/AliceO2Group/AliceO2\l/Detectors/TPC/reconstruction\l/macro/convertClusterToClusterHardware.C">
<polygon fill="none" stroke="black" points="190.5,-1 190.5,-53 399.5,-53 399.5,-1 190.5,-1"/>
<text text-anchor="start" x="198.5" y="-41" font-family="Helvetica,sans-Serif" font-size="10.00">/home/travis/build</text>
<text text-anchor="start" x="198.5" y="-30" font-family="Helvetica,sans-Serif" font-size="10.00">/AliceO2Group/AliceO2</text>
<text text-anchor="start" x="198.5" y="-19" font-family="Helvetica,sans-Serif" font-size="10.00">/Detectors/TPC/reconstruction</text>
<text text-anchor="middle" x="295" y="-8" font-family="Helvetica,sans-Serif" font-size="10.00">/macro/convertClusterToClusterHardware.C</text>
</a>
</g>
</g>
<!-- Node1&#45;&gt;Node3 -->
<g id="edge2" class="edge"><title>Node1&#45;&gt;Node3</title>
<path fill="none" stroke="midnightblue" d="M363.386,-84.2423C350.982,-74.0416 337.419,-62.8871 325.666,-53.221"/>
<polygon fill="midnightblue" stroke="midnightblue" points="361.391,-87.1339 371.338,-90.7827 365.838,-81.7275 361.391,-87.1339"/>
</g>
<!-- Node4 -->
<g id="node4" class="node"><title>Node4</title>
<g id="a_node4"><a xlink:href="../../d1/df0/runCATrackingClusterNative_8C.html" target="_top" xlink:title="/home/travis/build\l/AliceO2Group/AliceO2\l/Detectors/TPC/reconstruction\l/macro/runCATrackingClusterNative.C">
<polygon fill="none" stroke="black" points="417.5,-1 417.5,-53 602.5,-53 602.5,-1 417.5,-1"/>
<text text-anchor="start" x="425.5" y="-41" font-family="Helvetica,sans-Serif" font-size="10.00">/home/travis/build</text>
<text text-anchor="start" x="425.5" y="-30" font-family="Helvetica,sans-Serif" font-size="10.00">/AliceO2Group/AliceO2</text>
<text text-anchor="start" x="425.5" y="-19" font-family="Helvetica,sans-Serif" font-size="10.00">/Detectors/TPC/reconstruction</text>
<text text-anchor="middle" x="510" y="-8" font-family="Helvetica,sans-Serif" font-size="10.00">/macro/runCATrackingClusterNative.C</text>
</a>
</g>
</g>
<!-- Node1&#45;&gt;Node4 -->
<g id="edge3" class="edge"><title>Node1&#45;&gt;Node4</title>
<path fill="none" stroke="midnightblue" d="M440.975,-84.2423C453.494,-74.0416 467.184,-62.8871 479.047,-53.221"/>
<polygon fill="midnightblue" stroke="midnightblue" points="438.49,-81.7526 432.948,-90.7827 442.912,-87.1793 438.49,-81.7526"/>
</g>
<!-- Node5 -->
<g id="node5" class="node"><title>Node5</title>
<g id="a_node5"><a xlink:href="../../dc/daf/runHardwareClusterDecoderRoot_8C.html" target="_top" xlink:title="/home/travis/build\l/AliceO2Group/AliceO2\l/Detectors/TPC/reconstruction\l/macro/runHardwareClusterDecoderRoot.C">
<polygon fill="none" stroke="black" points="620.5,-1 620.5,-53 825.5,-53 825.5,-1 620.5,-1"/>
<text text-anchor="start" x="628.5" y="-41" font-family="Helvetica,sans-Serif" font-size="10.00">/home/travis/build</text>
<text text-anchor="start" x="628.5" y="-30" font-family="Helvetica,sans-Serif" font-size="10.00">/AliceO2Group/AliceO2</text>
<text text-anchor="start" x="628.5" y="-19" font-family="Helvetica,sans-Serif" font-size="10.00">/Detectors/TPC/reconstruction</text>
<text text-anchor="middle" x="723" y="-8" font-family="Helvetica,sans-Serif" font-size="10.00">/macro/runHardwareClusterDecoderRoot.C</text>
</a>
</g>
</g>
<!-- Node1&#45;&gt;Node5 -->
<g id="edge4" class="edge"><title>Node1&#45;&gt;Node5</title>
<path fill="none" stroke="midnightblue" d="M483.023,-93.7881C528.331,-81.3672 584.942,-65.8478 631.799,-53.0021"/>
<polygon fill="midnightblue" stroke="midnightblue" points="481.959,-90.4505 473.24,-96.4699 483.81,-97.2015 481.959,-90.4505"/>
</g>
</g>
</svg>
