<?xml version="1.0" encoding="UTF-8" standalone="no"?>
<!DOCTYPE svg PUBLIC "-//W3C//DTD SVG 1.1//EN"
 "http://www.w3.org/Graphics/SVG/1.1/DTD/svg11.dtd">
<!-- Generated by graphviz version 2.36.0 (20140111.2315)
 -->
<!-- Title: /home/travis/build/AliceO2Group/AliceO2/Detectors/PHOS/base/include/PHOSBase/Geometry.h Pages: 1 -->
<svg width="301pt" height="152pt"
 viewBox="0.00 0.00 301.00 152.00" xmlns="http://www.w3.org/2000/svg" xmlns:xlink="http://www.w3.org/1999/xlink">
<g id="graph0" class="graph" transform="scale(1 1) rotate(0) translate(4 148)">
<title>/home/travis/build/AliceO2Group/AliceO2/Detectors/PHOS/base/include/PHOSBase/Geometry.h</title>
<!-- Node1 -->
<g id="node1" class="node"><title>Node1</title>
<polygon fill="#bfbfbf" stroke="black" points="69,-91 69,-143 221,-143 221,-91 69,-91"/>
<text text-anchor="start" x="77" y="-131" font-family="Helvetica,sans-Serif" font-size="10.00">/home/travis/build</text>
<text text-anchor="start" x="77" y="-120" font-family="Helvetica,sans-Serif" font-size="10.00">/AliceO2Group/AliceO2</text>
<text text-anchor="start" x="77" y="-109" font-family="Helvetica,sans-Serif" font-size="10.00">/Detectors/PHOS/base/include</text>
<text text-anchor="middle" x="145" y="-98" font-family="Helvetica,sans-Serif" font-size="10.00">/PHOSBase/Geometry.h</text>
</g>
<!-- Node2 -->
<g id="node2" class="node"><title>Node2</title>
<g id="a_node2"><a xlink:href="../../d0/dab/PHOS_2base_2src_2Geometry_8cxx.html" target="_top" xlink:title="/home/travis/build\l/AliceO2Group/AliceO2\l/Detectors/PHOS/base/src\l/Geometry.cxx">
<polygon fill="none" stroke="black" points="0,-1 0,-53 134,-53 134,-1 0,-1"/>
<text text-anchor="start" x="8" y="-41" font-family="Helvetica,sans-Serif" font-size="10.00">/home/travis/build</text>
<text text-anchor="start" x="8" y="-30" font-family="Helvetica,sans-Serif" font-size="10.00">/AliceO2Group/AliceO2</text>
<text text-anchor="start" x="8" y="-19" font-family="Helvetica,sans-Serif" font-size="10.00">/Detectors/PHOS/base/src</text>
<text text-anchor="middle" x="67" y="-8" font-family="Helvetica,sans-Serif" font-size="10.00">/Geometry.cxx</text>
</a>
</g>
</g>
<!-- Node1&#45;&gt;Node2 -->
<g id="edge1" class="edge"><title>Node1&#45;&gt;Node2</title>
<path fill="none" stroke="midnightblue" d="M115.613,-82.8459C106.873,-72.9851 97.4459,-62.3492 89.2408,-53.0921"/>
<polygon fill="midnightblue" stroke="midnightblue" points="113.187,-85.3848 122.439,-90.5468 118.425,-80.7417 113.187,-85.3848"/>
</g>
<!-- Node3 -->
<g id="node3" class="node"><title>Node3</title>
<g id="a_node3"><a xlink:href="../../df/d4d/PHOS_2simulation_2src_2Detector_8cxx.html" target="_top" xlink:title="/home/travis/build\l/AliceO2Group/AliceO2\l/Detectors/PHOS/simulation\l/src/Detector.cxx">
<polygon fill="none" stroke="black" points="152.5,-1 152.5,-53 293.5,-53 293.5,-1 152.5,-1"/>
<text text-anchor="start" x="160.5" y="-41" font-family="Helvetica,sans-Serif" font-size="10.00">/home/travis/build</text>
<text text-anchor="start" x="160.5" y="-30" font-family="Helvetica,sans-Serif" font-size="10.00">/AliceO2Group/AliceO2</text>
<text text-anchor="start" x="160.5" y="-19" font-family="Helvetica,sans-Serif" font-size="10.00">/Detectors/PHOS/simulation</text>
<text text-anchor="middle" x="223" y="-8" font-family="Helvetica,sans-Serif" font-size="10.00">/src/Detector.cxx</text>
</a>
</g>
</g>
<!-- Node1&#45;&gt;Node3 -->
<g id="edge2" class="edge"><title>Node1&#45;&gt;Node3</title>
<path fill="none" stroke="midnightblue" d="M174.387,-82.8459C183.127,-72.9851 192.554,-62.3492 200.759,-53.0921"/>
<polygon fill="midnightblue" stroke="midnightblue" points="171.575,-80.7417 167.561,-90.5468 176.813,-85.3848 171.575,-80.7417"/>
</g>
</g>
</svg>
