<?xml version="1.0" encoding="UTF-8" standalone="no"?>
<!DOCTYPE svg PUBLIC "-//W3C//DTD SVG 1.1//EN"
 "http://www.w3.org/Graphics/SVG/1.1/DTD/svg11.dtd">
<!-- Generated by graphviz version 2.36.0 (20140111.2315)
 -->
<!-- Title: /home/travis/build/AliceO2Group/AliceO2/Framework/Core/include/Framework/ForwardRoute.h Pages: 1 -->
<svg width="2555pt" height="332pt"
 viewBox="0.00 0.00 2555.00 332.00" xmlns="http://www.w3.org/2000/svg" xmlns:xlink="http://www.w3.org/1999/xlink">
<g id="graph0" class="graph" transform="scale(1 1) rotate(0) translate(4 328)">
<title>/home/travis/build/AliceO2Group/AliceO2/Framework/Core/include/Framework/ForwardRoute.h</title>
<!-- Node1 -->
<g id="node1" class="node"><title>Node1</title>
<polygon fill="#bfbfbf" stroke="black" points="879.5,-271 879.5,-323 1020.5,-323 1020.5,-271 879.5,-271"/>
<text text-anchor="start" x="887.5" y="-311" font-family="Helvetica,sans-Serif" font-size="10.00">/home/travis/build</text>
<text text-anchor="start" x="887.5" y="-300" font-family="Helvetica,sans-Serif" font-size="10.00">/AliceO2Group/AliceO2</text>
<text text-anchor="start" x="887.5" y="-289" font-family="Helvetica,sans-Serif" font-size="10.00">/Framework/Core/include</text>
<text text-anchor="middle" x="950" y="-278" font-family="Helvetica,sans-Serif" font-size="10.00">/Framework/ForwardRoute.h</text>
</g>
<!-- Node2 -->
<g id="node2" class="node"><title>Node2</title>
<g id="a_node2"><a xlink:href="../../d3/d4b/DataProcessingDevice_8h.html" target="_top" xlink:title="/home/travis/build\l/AliceO2Group/AliceO2\l/Framework/Core/include\l/Framework/DataProcessingDevice.h">
<polygon fill="none" stroke="black" points="1,-91 1,-143 181,-143 181,-91 1,-91"/>
<text text-anchor="start" x="9" y="-131" font-family="Helvetica,sans-Serif" font-size="10.00">/home/travis/build</text>
<text text-anchor="start" x="9" y="-120" font-family="Helvetica,sans-Serif" font-size="10.00">/AliceO2Group/AliceO2</text>
<text text-anchor="start" x="9" y="-109" font-family="Helvetica,sans-Serif" font-size="10.00">/Framework/Core/include</text>
<text text-anchor="middle" x="91" y="-98" font-family="Helvetica,sans-Serif" font-size="10.00">/Framework/DataProcessingDevice.h</text>
</a>
</g>
</g>
<!-- Node1&#45;&gt;Node2 -->
<g id="edge1" class="edge"><title>Node1&#45;&gt;Node2</title>
<path fill="none" stroke="midnightblue" d="M869.224,-292.29C720.16,-284.777 407.598,-265.727 304,-234 236.964,-213.47 167.027,-170.576 126.319,-143.093"/>
<polygon fill="midnightblue" stroke="midnightblue" points="869.074,-295.787 879.236,-292.79 869.423,-288.796 869.074,-295.787"/>
</g>
<!-- Node5 -->
<g id="node5" class="node"><title>Node5</title>
<g id="a_node5"><a xlink:href="../../df/d59/DataRelayer_8h.html" target="_top" xlink:title="/home/travis/build\l/AliceO2Group/AliceO2\l/Framework/Core/include\l/Framework/DataRelayer.h">
<polygon fill="none" stroke="black" points="313,-181 313,-233 447,-233 447,-181 313,-181"/>
<text text-anchor="start" x="321" y="-221" font-family="Helvetica,sans-Serif" font-size="10.00">/home/travis/build</text>
<text text-anchor="start" x="321" y="-210" font-family="Helvetica,sans-Serif" font-size="10.00">/AliceO2Group/AliceO2</text>
<text text-anchor="start" x="321" y="-199" font-family="Helvetica,sans-Serif" font-size="10.00">/Framework/Core/include</text>
<text text-anchor="middle" x="380" y="-188" font-family="Helvetica,sans-Serif" font-size="10.00">/Framework/DataRelayer.h</text>
</a>
</g>
</g>
<!-- Node1&#45;&gt;Node5 -->
<g id="edge4" class="edge"><title>Node1&#45;&gt;Node5</title>
<path fill="none" stroke="midnightblue" d="M869.256,-283.534C756.104,-266.065 552.439,-234.622 447.13,-218.364"/>
<polygon fill="midnightblue" stroke="midnightblue" points="868.832,-287.01 879.249,-285.077 869.9,-280.092 868.832,-287.01"/>
</g>
<!-- Node8 -->
<g id="node8" class="node"><title>Node8</title>
<g id="a_node8"><a xlink:href="../../df/de8/DeviceSpec_8h.html" target="_top" xlink:title="/home/travis/build\l/AliceO2Group/AliceO2\l/Framework/Core/include\l/Framework/DeviceSpec.h">
<polygon fill="none" stroke="black" points="1365.5,-181 1365.5,-233 1498.5,-233 1498.5,-181 1365.5,-181"/>
<text text-anchor="start" x="1373.5" y="-221" font-family="Helvetica,sans-Serif" font-size="10.00">/home/travis/build</text>
<text text-anchor="start" x="1373.5" y="-210" font-family="Helvetica,sans-Serif" font-size="10.00">/AliceO2Group/AliceO2</text>
<text text-anchor="start" x="1373.5" y="-199" font-family="Helvetica,sans-Serif" font-size="10.00">/Framework/Core/include</text>
<text text-anchor="middle" x="1432" y="-188" font-family="Helvetica,sans-Serif" font-size="10.00">/Framework/DeviceSpec.h</text>
</a>
</g>
</g>
<!-- Node1&#45;&gt;Node8 -->
<g id="edge8" class="edge"><title>Node1&#45;&gt;Node8</title>
<path fill="none" stroke="midnightblue" d="M1030.63,-281.279C1124.57,-264.128 1278.04,-236.109 1365.48,-220.145"/>
<polygon fill="midnightblue" stroke="midnightblue" points="1029.81,-277.871 1020.6,-283.11 1031.07,-284.757 1029.81,-277.871"/>
</g>
<!-- Node28 -->
<g id="node28" class="node"><title>Node28</title>
<g id="a_node28"><a xlink:href="../../d9/da0/WorkflowHelpers_8h.html" target="_top" xlink:title="/home/travis/build\l/AliceO2Group/AliceO2\l/Framework/Core/src/Workflow\lHelpers.h">
<polygon fill="none" stroke="black" points="2168.5,-181 2168.5,-233 2321.5,-233 2321.5,-181 2168.5,-181"/>
<text text-anchor="start" x="2176.5" y="-221" font-family="Helvetica,sans-Serif" font-size="10.00">/home/travis/build</text>
<text text-anchor="start" x="2176.5" y="-210" font-family="Helvetica,sans-Serif" font-size="10.00">/AliceO2Group/AliceO2</text>
<text text-anchor="start" x="2176.5" y="-199" font-family="Helvetica,sans-Serif" font-size="10.00">/Framework/Core/src/Workflow</text>
<text text-anchor="middle" x="2245" y="-188" font-family="Helvetica,sans-Serif" font-size="10.00">Helpers.h</text>
</a>
</g>
</g>
<!-- Node1&#45;&gt;Node28 -->
<g id="edge45" class="edge"><title>Node1&#45;&gt;Node28</title>
<path fill="none" stroke="midnightblue" d="M1030.67,-290.518C1264.38,-274.637 1939.77,-228.741 2168.34,-213.209"/>
<polygon fill="midnightblue" stroke="midnightblue" points="1030.28,-287.036 1020.54,-291.206 1030.76,-294.02 1030.28,-287.036"/>
</g>
<!-- Node3 -->
<g id="node3" class="node"><title>Node3</title>
<g id="a_node3"><a xlink:href="../../db/dac/DataProcessingDevice_8cxx.html" target="_top" xlink:title="/home/travis/build\l/AliceO2Group/AliceO2\l/Framework/Core/src/DataProcessing\lDevice.cxx">
<polygon fill="none" stroke="black" points="0,-1 0,-53 182,-53 182,-1 0,-1"/>
<text text-anchor="start" x="8" y="-41" font-family="Helvetica,sans-Serif" font-size="10.00">/home/travis/build</text>
<text text-anchor="start" x="8" y="-30" font-family="Helvetica,sans-Serif" font-size="10.00">/AliceO2Group/AliceO2</text>
<text text-anchor="start" x="8" y="-19" font-family="Helvetica,sans-Serif" font-size="10.00">/Framework/Core/src/DataProcessing</text>
<text text-anchor="middle" x="91" y="-8" font-family="Helvetica,sans-Serif" font-size="10.00">Device.cxx</text>
</a>
</g>
</g>
<!-- Node2&#45;&gt;Node3 -->
<g id="edge2" class="edge"><title>Node2&#45;&gt;Node3</title>
<path fill="none" stroke="midnightblue" d="M91,-80.4892C91,-71.3088 91,-61.616 91,-53.0921"/>
<polygon fill="midnightblue" stroke="midnightblue" points="87.5001,-80.5467 91,-90.5468 94.5001,-80.5468 87.5001,-80.5467"/>
</g>
<!-- Node4 -->
<g id="node4" class="node"><title>Node4</title>
<g id="a_node4"><a xlink:href="../../d7/d54/runDataProcessing_8cxx.html" target="_top" xlink:title="/home/travis/build\l/AliceO2Group/AliceO2\l/Framework/Core/src/runDataProcessing.cxx">
<polygon fill="none" stroke="black" points="530,-6.5 530,-47.5 744,-47.5 744,-6.5 530,-6.5"/>
<text text-anchor="start" x="538" y="-35.5" font-family="Helvetica,sans-Serif" font-size="10.00">/home/travis/build</text>
<text text-anchor="start" x="538" y="-24.5" font-family="Helvetica,sans-Serif" font-size="10.00">/AliceO2Group/AliceO2</text>
<text text-anchor="middle" x="637" y="-13.5" font-family="Helvetica,sans-Serif" font-size="10.00">/Framework/Core/src/runDataProcessing.cxx</text>
</a>
</g>
</g>
<!-- Node2&#45;&gt;Node4 -->
<g id="edge3" class="edge"><title>Node2&#45;&gt;Node4</title>
<path fill="none" stroke="midnightblue" d="M191.472,-89.8476C337.347,-63.7898 378.296,-77.6764 521,-54 532.096,-52.159 543.725,-49.9235 555.158,-47.5448"/>
<polygon fill="midnightblue" stroke="midnightblue" points="190.46,-86.4742 181.248,-91.708 191.713,-93.3611 190.46,-86.4742"/>
</g>
<!-- Node5&#45;&gt;Node2 -->
<g id="edge5" class="edge"><title>Node5&#45;&gt;Node2</title>
<path fill="none" stroke="midnightblue" d="M303.242,-182.627C263.13,-170.413 214.015,-155.458 173.139,-143.011"/>
<polygon fill="midnightblue" stroke="midnightblue" points="302.385,-186.025 312.971,-185.59 304.424,-179.329 302.385,-186.025"/>
</g>
<!-- Node6 -->
<g id="node6" class="node"><title>Node6</title>
<g id="a_node6"><a xlink:href="../../d1/d57/DataRelayer_8cxx.html" target="_top" xlink:title="/home/travis/build\l/AliceO2Group/AliceO2\l/Framework/Core/src/DataRelayer.cxx">
<polygon fill="none" stroke="black" points="199.5,-96.5 199.5,-137.5 384.5,-137.5 384.5,-96.5 199.5,-96.5"/>
<text text-anchor="start" x="207.5" y="-125.5" font-family="Helvetica,sans-Serif" font-size="10.00">/home/travis/build</text>
<text text-anchor="start" x="207.5" y="-114.5" font-family="Helvetica,sans-Serif" font-size="10.00">/AliceO2Group/AliceO2</text>
<text text-anchor="middle" x="292" y="-103.5" font-family="Helvetica,sans-Serif" font-size="10.00">/Framework/Core/src/DataRelayer.cxx</text>
</a>
</g>
</g>
<!-- Node5&#45;&gt;Node6 -->
<g id="edge6" class="edge"><title>Node5&#45;&gt;Node6</title>
<path fill="none" stroke="midnightblue" d="M347.254,-173.254C335.237,-161.237 322.019,-148.019 311.525,-137.525"/>
<polygon fill="midnightblue" stroke="midnightblue" points="345.001,-175.951 354.547,-180.547 349.951,-171.001 345.001,-175.951"/>
</g>
<!-- Node7 -->
<g id="node7" class="node"><title>Node7</title>
<g id="a_node7"><a xlink:href="../../dc/d6d/test__DataRelayer_8cxx.html" target="_top" xlink:title="/home/travis/build\l/AliceO2Group/AliceO2\l/Framework/Core/test/test\l_DataRelayer.cxx">
<polygon fill="none" stroke="black" points="402.5,-91 402.5,-143 533.5,-143 533.5,-91 402.5,-91"/>
<text text-anchor="start" x="410.5" y="-131" font-family="Helvetica,sans-Serif" font-size="10.00">/home/travis/build</text>
<text text-anchor="start" x="410.5" y="-120" font-family="Helvetica,sans-Serif" font-size="10.00">/AliceO2Group/AliceO2</text>
<text text-anchor="start" x="410.5" y="-109" font-family="Helvetica,sans-Serif" font-size="10.00">/Framework/Core/test/test</text>
<text text-anchor="middle" x="468" y="-98" font-family="Helvetica,sans-Serif" font-size="10.00">_DataRelayer.cxx</text>
</a>
</g>
</g>
<!-- Node5&#45;&gt;Node7 -->
<g id="edge7" class="edge"><title>Node5&#45;&gt;Node7</title>
<path fill="none" stroke="midnightblue" d="M412.569,-173.431C422.593,-163.407 433.467,-152.533 442.908,-143.092"/>
<polygon fill="midnightblue" stroke="midnightblue" points="410.049,-171.001 405.453,-180.547 414.999,-175.951 410.049,-171.001"/>
</g>
<!-- Node8&#45;&gt;Node2 -->
<g id="edge9" class="edge"><title>Node8&#45;&gt;Node2</title>
<path fill="none" stroke="midnightblue" d="M1355.32,-204.251C1120.96,-198.576 416.396,-178.993 190,-144 187.102,-143.552 184.167,-143.054 181.211,-142.514"/>
<polygon fill="midnightblue" stroke="midnightblue" points="1355.37,-207.753 1365.45,-204.495 1355.54,-200.755 1355.37,-207.753"/>
</g>
<!-- Node8&#45;&gt;Node4 -->
<g id="edge39" class="edge"><title>Node8&#45;&gt;Node4</title>
<path fill="none" stroke="midnightblue" d="M1355.04,-206.847C1200.82,-207.273 860.215,-201.449 761,-144 735.604,-129.294 743.632,-110.87 723,-90 706.954,-73.7694 686.275,-58.7158 669.216,-47.507"/>
<polygon fill="midnightblue" stroke="midnightblue" points="1355.39,-210.346 1365.37,-206.808 1355.36,-203.346 1355.39,-210.346"/>
</g>
<!-- Node9 -->
<g id="node9" class="node"><title>Node9</title>
<g id="a_node9"><a xlink:href="../../dd/d96/DataSourceDevice_8h.html" target="_top" xlink:title="/home/travis/build\l/AliceO2Group/AliceO2\l/Framework/Core/include\l/Framework/DataSourceDevice.h">
<polygon fill="none" stroke="black" points="552,-91 552,-143 714,-143 714,-91 552,-91"/>
<text text-anchor="start" x="560" y="-131" font-family="Helvetica,sans-Serif" font-size="10.00">/home/travis/build</text>
<text text-anchor="start" x="560" y="-120" font-family="Helvetica,sans-Serif" font-size="10.00">/AliceO2Group/AliceO2</text>
<text text-anchor="start" x="560" y="-109" font-family="Helvetica,sans-Serif" font-size="10.00">/Framework/Core/include</text>
<text text-anchor="middle" x="633" y="-98" font-family="Helvetica,sans-Serif" font-size="10.00">/Framework/DataSourceDevice.h</text>
</a>
</g>
</g>
<!-- Node8&#45;&gt;Node9 -->
<g id="edge10" class="edge"><title>Node8&#45;&gt;Node9</title>
<path fill="none" stroke="midnightblue" d="M1355.23,-203.74C1225.2,-198.91 953.76,-184.497 728,-144 723.456,-143.185 718.813,-142.252 714.144,-141.237"/>
<polygon fill="midnightblue" stroke="midnightblue" points="1355.36,-207.247 1365.48,-204.111 1355.61,-200.251 1355.36,-207.247"/>
</g>
<!-- Node11 -->
<g id="node11" class="node"><title>Node11</title>
<g id="a_node11"><a xlink:href="../../dd/d9a/FrameworkGUIDebugger_8h.html" target="_top" xlink:title="/home/travis/build\l/AliceO2Group/AliceO2\l/Framework/Core/include\l/Framework/FrameworkGUIDebugger.h">
<polygon fill="none" stroke="black" points="770,-91 770,-143 958,-143 958,-91 770,-91"/>
<text text-anchor="start" x="778" y="-131" font-family="Helvetica,sans-Serif" font-size="10.00">/home/travis/build</text>
<text text-anchor="start" x="778" y="-120" font-family="Helvetica,sans-Serif" font-size="10.00">/AliceO2Group/AliceO2</text>
<text text-anchor="start" x="778" y="-109" font-family="Helvetica,sans-Serif" font-size="10.00">/Framework/Core/include</text>
<text text-anchor="middle" x="864" y="-98" font-family="Helvetica,sans-Serif" font-size="10.00">/Framework/FrameworkGUIDebugger.h</text>
</a>
</g>
</g>
<!-- Node8&#45;&gt;Node11 -->
<g id="edge13" class="edge"><title>Node8&#45;&gt;Node11</title>
<path fill="none" stroke="midnightblue" d="M1355.27,-198.497C1262.73,-188.821 1102.68,-170.08 967,-144 964.102,-143.443 961.164,-142.854 958.203,-142.239"/>
<polygon fill="midnightblue" stroke="midnightblue" points="1355.08,-201.996 1365.39,-199.547 1355.8,-195.034 1355.08,-201.996"/>
</g>
<!-- Node14 -->
<g id="node14" class="node"><title>Node14</title>
<g id="a_node14"><a xlink:href="../../dd/d49/FrameworkGUIDevicesGraph_8h.html" target="_top" xlink:title="/home/travis/build\l/AliceO2Group/AliceO2\l/Framework/Core/include\l/Framework/FrameworkGUIDevicesGraph.h">
<polygon fill="none" stroke="black" points="976.5,-91 976.5,-143 1185.5,-143 1185.5,-91 976.5,-91"/>
<text text-anchor="start" x="984.5" y="-131" font-family="Helvetica,sans-Serif" font-size="10.00">/home/travis/build</text>
<text text-anchor="start" x="984.5" y="-120" font-family="Helvetica,sans-Serif" font-size="10.00">/AliceO2Group/AliceO2</text>
<text text-anchor="start" x="984.5" y="-109" font-family="Helvetica,sans-Serif" font-size="10.00">/Framework/Core/include</text>
<text text-anchor="middle" x="1081" y="-98" font-family="Helvetica,sans-Serif" font-size="10.00">/Framework/FrameworkGUIDevicesGraph.h</text>
</a>
</g>
</g>
<!-- Node8&#45;&gt;Node14 -->
<g id="edge17" class="edge"><title>Node8&#45;&gt;Node14</title>
<path fill="none" stroke="midnightblue" d="M1355.14,-186.731C1303.95,-173.896 1236.16,-156.902 1180.81,-143.023"/>
<polygon fill="midnightblue" stroke="midnightblue" points="1354.6,-190.204 1365.15,-189.241 1356.3,-183.414 1354.6,-190.204"/>
</g>
<!-- Node15 -->
<g id="node15" class="node"><title>Node15</title>
<g id="a_node15"><a xlink:href="../../d7/d5a/FrameworkGUIDevicesGraph_8cxx.html" target="_top" xlink:title="/home/travis/build\l/AliceO2Group/AliceO2\l/Framework/Core/src/Framework\lGUIDevicesGraph.cxx">
<polygon fill="none" stroke="black" points="1120.5,-1 1120.5,-53 1281.5,-53 1281.5,-1 1120.5,-1"/>
<text text-anchor="start" x="1128.5" y="-41" font-family="Helvetica,sans-Serif" font-size="10.00">/home/travis/build</text>
<text text-anchor="start" x="1128.5" y="-30" font-family="Helvetica,sans-Serif" font-size="10.00">/AliceO2Group/AliceO2</text>
<text text-anchor="start" x="1128.5" y="-19" font-family="Helvetica,sans-Serif" font-size="10.00">/Framework/Core/src/Framework</text>
<text text-anchor="middle" x="1201" y="-8" font-family="Helvetica,sans-Serif" font-size="10.00">GUIDevicesGraph.cxx</text>
</a>
</g>
</g>
<!-- Node8&#45;&gt;Node15 -->
<g id="edge33" class="edge"><title>Node8&#45;&gt;Node15</title>
<path fill="none" stroke="midnightblue" d="M1355.25,-199.72C1313.85,-192.436 1264.85,-176.913 1233,-144 1209.32,-119.529 1202.82,-79.1926 1201.23,-53.1152"/>
<polygon fill="midnightblue" stroke="midnightblue" points="1354.89,-203.207 1365.32,-201.359 1356.02,-196.298 1354.89,-203.207"/>
</g>
<!-- Node16 -->
<g id="node16" class="node"><title>Node16</title>
<g id="a_node16"><a xlink:href="../../d3/dc0/DDSConfigHelpers_8h.html" target="_top" xlink:title="/home/travis/build\l/AliceO2Group/AliceO2\l/Framework/Core/src/DDSConfig\lHelpers.h">
<polygon fill="none" stroke="black" points="1242,-91 1242,-143 1404,-143 1404,-91 1242,-91"/>
<text text-anchor="start" x="1250" y="-131" font-family="Helvetica,sans-Serif" font-size="10.00">/home/travis/build</text>
<text text-anchor="start" x="1250" y="-120" font-family="Helvetica,sans-Serif" font-size="10.00">/AliceO2Group/AliceO2</text>
<text text-anchor="start" x="1250" y="-109" font-family="Helvetica,sans-Serif" font-size="10.00">/Framework/Core/src/DDSConfig</text>
<text text-anchor="middle" x="1323" y="-98" font-family="Helvetica,sans-Serif" font-size="10.00">Helpers.h</text>
</a>
</g>
</g>
<!-- Node8&#45;&gt;Node16 -->
<g id="edge20" class="edge"><title>Node8&#45;&gt;Node16</title>
<path fill="none" stroke="midnightblue" d="M1392.66,-174.242C1380.03,-164.042 1366.21,-152.887 1354.24,-143.221"/>
<polygon fill="midnightblue" stroke="midnightblue" points="1390.79,-177.224 1400.76,-180.783 1395.18,-171.778 1390.79,-177.224"/>
</g>
<!-- Node18 -->
<g id="node18" class="node"><title>Node18</title>
<g id="a_node18"><a xlink:href="../../d6/d53/test__FrameworkDataFlowToDDS_8cxx.html" target="_top" xlink:title="/home/travis/build\l/AliceO2Group/AliceO2\l/Framework/Core/test/test\l_FrameworkDataFlowToDDS.cxx">
<polygon fill="none" stroke="black" points="1480,-1 1480,-53 1644,-53 1644,-1 1480,-1"/>
<text text-anchor="start" x="1488" y="-41" font-family="Helvetica,sans-Serif" font-size="10.00">/home/travis/build</text>
<text text-anchor="start" x="1488" y="-30" font-family="Helvetica,sans-Serif" font-size="10.00">/AliceO2Group/AliceO2</text>
<text text-anchor="start" x="1488" y="-19" font-family="Helvetica,sans-Serif" font-size="10.00">/Framework/Core/test/test</text>
<text text-anchor="middle" x="1562" y="-8" font-family="Helvetica,sans-Serif" font-size="10.00">_FrameworkDataFlowToDDS.cxx</text>
</a>
</g>
</g>
<!-- Node8&#45;&gt;Node18 -->
<g id="edge42" class="edge"><title>Node8&#45;&gt;Node18</title>
<path fill="none" stroke="midnightblue" d="M1431.97,-170.537C1433.6,-145.886 1439.21,-113.386 1456,-90 1467.07,-74.5879 1483.25,-62.3984 1499.66,-53.0536"/>
<polygon fill="midnightblue" stroke="midnightblue" points="1428.47,-170.418 1431.5,-180.572 1435.47,-170.75 1428.47,-170.418"/>
</g>
<!-- Node19 -->
<g id="node19" class="node"><title>Node19</title>
<g id="a_node19"><a xlink:href="../../d8/d84/DeviceSpec_8cxx.html" target="_top" xlink:title="/home/travis/build\l/AliceO2Group/AliceO2\l/Framework/Core/src/DeviceSpec.cxx">
<polygon fill="none" stroke="black" points="1498,-96.5 1498,-137.5 1682,-137.5 1682,-96.5 1498,-96.5"/>
<text text-anchor="start" x="1506" y="-125.5" font-family="Helvetica,sans-Serif" font-size="10.00">/home/travis/build</text>
<text text-anchor="start" x="1506" y="-114.5" font-family="Helvetica,sans-Serif" font-size="10.00">/AliceO2Group/AliceO2</text>
<text text-anchor="middle" x="1590" y="-103.5" font-family="Helvetica,sans-Serif" font-size="10.00">/Framework/Core/src/DeviceSpec.cxx</text>
</a>
</g>
</g>
<!-- Node8&#45;&gt;Node19 -->
<g id="edge24" class="edge"><title>Node8&#45;&gt;Node19</title>
<path fill="none" stroke="midnightblue" d="M1486.13,-175.85C1508.83,-163.208 1534.58,-148.868 1554.76,-137.628"/>
<polygon fill="midnightblue" stroke="midnightblue" points="1484.31,-172.859 1477.28,-180.783 1487.72,-178.975 1484.31,-172.859"/>
</g>
<!-- Node20 -->
<g id="node20" class="node"><title>Node20</title>
<g id="a_node20"><a xlink:href="../../df/dda/DeviceSpecHelpers_8h.html" target="_top" xlink:title="/home/travis/build\l/AliceO2Group/AliceO2\l/Framework/Core/src/DeviceSpec\lHelpers.h">
<polygon fill="none" stroke="black" points="1700.5,-91 1700.5,-143 1865.5,-143 1865.5,-91 1700.5,-91"/>
<text text-anchor="start" x="1708.5" y="-131" font-family="Helvetica,sans-Serif" font-size="10.00">/home/travis/build</text>
<text text-anchor="start" x="1708.5" y="-120" font-family="Helvetica,sans-Serif" font-size="10.00">/AliceO2Group/AliceO2</text>
<text text-anchor="start" x="1708.5" y="-109" font-family="Helvetica,sans-Serif" font-size="10.00">/Framework/Core/src/DeviceSpec</text>
<text text-anchor="middle" x="1783" y="-98" font-family="Helvetica,sans-Serif" font-size="10.00">Helpers.h</text>
</a>
</g>
</g>
<!-- Node8&#45;&gt;Node20 -->
<g id="edge25" class="edge"><title>Node8&#45;&gt;Node20</title>
<path fill="none" stroke="midnightblue" d="M1508.48,-188.548C1560.16,-176.547 1629.85,-159.954 1691,-144 1694.05,-143.204 1697.16,-142.383 1700.29,-141.545"/>
<polygon fill="midnightblue" stroke="midnightblue" points="1507.68,-185.142 1498.72,-190.81 1509.26,-191.962 1507.68,-185.142"/>
</g>
<!-- Node21 -->
<g id="node21" class="node"><title>Node21</title>
<g id="a_node21"><a xlink:href="../../d1/dd9/DeviceSpecHelpers_8cxx.html" target="_top" xlink:title="/home/travis/build\l/AliceO2Group/AliceO2\l/Framework/Core/src/DeviceSpec\lHelpers.cxx">
<polygon fill="none" stroke="black" points="1662.5,-1 1662.5,-53 1827.5,-53 1827.5,-1 1662.5,-1"/>
<text text-anchor="start" x="1670.5" y="-41" font-family="Helvetica,sans-Serif" font-size="10.00">/home/travis/build</text>
<text text-anchor="start" x="1670.5" y="-30" font-family="Helvetica,sans-Serif" font-size="10.00">/AliceO2Group/AliceO2</text>
<text text-anchor="start" x="1670.5" y="-19" font-family="Helvetica,sans-Serif" font-size="10.00">/Framework/Core/src/DeviceSpec</text>
<text text-anchor="middle" x="1745" y="-8" font-family="Helvetica,sans-Serif" font-size="10.00">Helpers.cxx</text>
</a>
</g>
</g>
<!-- Node8&#45;&gt;Node21 -->
<g id="edge32" class="edge"><title>Node8&#45;&gt;Node21</title>
<path fill="none" stroke="midnightblue" d="M1445.07,-171.471C1457.15,-141.333 1475.26,-100.777 1489,-90 1547.72,-43.9479 1580.62,-72.1553 1653,-54 1656.06,-53.2328 1659.17,-52.4362 1662.31,-51.6189"/>
<polygon fill="midnightblue" stroke="midnightblue" points="1441.79,-170.253 1441.38,-180.839 1448.3,-172.823 1441.79,-170.253"/>
</g>
<!-- Node22 -->
<g id="node22" class="node"><title>Node22</title>
<g id="a_node22"><a xlink:href="../../d9/d51/test__DeviceSpec_8cxx.html" target="_top" xlink:title="/home/travis/build\l/AliceO2Group/AliceO2\l/Framework/Core/test/test\l_DeviceSpec.cxx">
<polygon fill="none" stroke="black" points="2318.5,-1 2318.5,-53 2449.5,-53 2449.5,-1 2318.5,-1"/>
<text text-anchor="start" x="2326.5" y="-41" font-family="Helvetica,sans-Serif" font-size="10.00">/home/travis/build</text>
<text text-anchor="start" x="2326.5" y="-30" font-family="Helvetica,sans-Serif" font-size="10.00">/AliceO2Group/AliceO2</text>
<text text-anchor="start" x="2326.5" y="-19" font-family="Helvetica,sans-Serif" font-size="10.00">/Framework/Core/test/test</text>
<text text-anchor="middle" x="2384" y="-8" font-family="Helvetica,sans-Serif" font-size="10.00">_DeviceSpec.cxx</text>
</a>
</g>
</g>
<!-- Node8&#45;&gt;Node22 -->
<g id="edge41" class="edge"><title>Node8&#45;&gt;Node22</title>
<path fill="none" stroke="midnightblue" d="M1508.84,-205.148C1661.65,-202.443 1997.92,-191.147 2102,-144 2133.79,-129.601 2128.32,-106.637 2159,-90 2219.27,-57.3137 2243.2,-73.2513 2309,-54 2312.04,-53.11 2315.14,-52.17 2318.27,-51.1963"/>
<polygon fill="midnightblue" stroke="midnightblue" points="1508.54,-201.653 1498.6,-205.321 1508.66,-208.652 1508.54,-201.653"/>
</g>
<!-- Node23 -->
<g id="node23" class="node"><title>Node23</title>
<g id="a_node23"><a xlink:href="../../d4/dc4/test__Graphviz_8cxx.html" target="_top" xlink:title="/home/travis/build\l/AliceO2Group/AliceO2\l/Framework/Core/test/test\l_Graphviz.cxx">
<polygon fill="none" stroke="black" points="1845.5,-1 1845.5,-53 1976.5,-53 1976.5,-1 1845.5,-1"/>
<text text-anchor="start" x="1853.5" y="-41" font-family="Helvetica,sans-Serif" font-size="10.00">/home/travis/build</text>
<text text-anchor="start" x="1853.5" y="-30" font-family="Helvetica,sans-Serif" font-size="10.00">/AliceO2Group/AliceO2</text>
<text text-anchor="start" x="1853.5" y="-19" font-family="Helvetica,sans-Serif" font-size="10.00">/Framework/Core/test/test</text>
<text text-anchor="middle" x="1911" y="-8" font-family="Helvetica,sans-Serif" font-size="10.00">_Graphviz.cxx</text>
</a>
</g>
</g>
<!-- Node8&#45;&gt;Node23 -->
<g id="edge43" class="edge"><title>Node8&#45;&gt;Node23</title>
<path fill="none" stroke="midnightblue" d="M1508.71,-204.827C1620.36,-201.564 1820.22,-189.359 1874,-144 1900.66,-121.512 1908.32,-79.8237 1910.4,-53.0274"/>
<polygon fill="midnightblue" stroke="midnightblue" points="1508.41,-201.334 1498.51,-205.108 1508.61,-208.331 1508.41,-201.334"/>
</g>
<!-- Node24 -->
<g id="node24" class="node"><title>Node24</title>
<g id="a_node24"><a xlink:href="../../dd/d8a/test__TimeParallelPipelining_8cxx.html" target="_top" xlink:title="/home/travis/build\l/AliceO2Group/AliceO2\l/Framework/Core/test/test\l_TimeParallelPipelining.cxx">
<polygon fill="none" stroke="black" points="1994.5,-1 1994.5,-53 2131.5,-53 2131.5,-1 1994.5,-1"/>
<text text-anchor="start" x="2002.5" y="-41" font-family="Helvetica,sans-Serif" font-size="10.00">/home/travis/build</text>
<text text-anchor="start" x="2002.5" y="-30" font-family="Helvetica,sans-Serif" font-size="10.00">/AliceO2Group/AliceO2</text>
<text text-anchor="start" x="2002.5" y="-19" font-family="Helvetica,sans-Serif" font-size="10.00">/Framework/Core/test/test</text>
<text text-anchor="middle" x="2063" y="-8" font-family="Helvetica,sans-Serif" font-size="10.00">_TimeParallelPipelining.cxx</text>
</a>
</g>
</g>
<!-- Node8&#45;&gt;Node24 -->
<g id="edge44" class="edge"><title>Node8&#45;&gt;Node24</title>
<path fill="none" stroke="midnightblue" d="M1508.78,-204.351C1672.49,-200.041 2044.07,-185.72 2082,-144 2104.38,-119.388 2090.56,-79.0899 2077.56,-53.0593"/>
<polygon fill="midnightblue" stroke="midnightblue" points="1508.68,-200.852 1498.78,-204.609 1508.86,-207.85 1508.68,-200.852"/>
</g>
<!-- Node25 -->
<g id="node25" class="node"><title>Node25</title>
<g id="a_node25"><a xlink:href="../../da/d8f/GraphvizHelpers_8h.html" target="_top" xlink:title="/home/travis/build\l/AliceO2Group/AliceO2\l/Framework/Core/src/Graphviz\lHelpers.h">
<polygon fill="none" stroke="black" points="1922.5,-91 1922.5,-143 2073.5,-143 2073.5,-91 1922.5,-91"/>
<text text-anchor="start" x="1930.5" y="-131" font-family="Helvetica,sans-Serif" font-size="10.00">/home/travis/build</text>
<text text-anchor="start" x="1930.5" y="-120" font-family="Helvetica,sans-Serif" font-size="10.00">/AliceO2Group/AliceO2</text>
<text text-anchor="start" x="1930.5" y="-109" font-family="Helvetica,sans-Serif" font-size="10.00">/Framework/Core/src/Graphviz</text>
<text text-anchor="middle" x="1998" y="-98" font-family="Helvetica,sans-Serif" font-size="10.00">Helpers.h</text>
</a>
</g>
</g>
<!-- Node8&#45;&gt;Node25 -->
<g id="edge34" class="edge"><title>Node8&#45;&gt;Node25</title>
<path fill="none" stroke="midnightblue" d="M1508.81,-199.611C1603.4,-190.916 1768.67,-173.024 1908,-144 1912.62,-143.038 1917.34,-141.961 1922.09,-140.806"/>
<polygon fill="midnightblue" stroke="midnightblue" points="1508.4,-196.134 1498.76,-200.525 1509.03,-203.106 1508.4,-196.134"/>
</g>
<!-- Node27 -->
<g id="node27" class="node"><title>Node27</title>
<g id="a_node27"><a xlink:href="../../dc/da7/WorkflowHelpers_8cxx.html" target="_top" xlink:title="/home/travis/build\l/AliceO2Group/AliceO2\l/Framework/Core/src/Workflow\lHelpers.cxx">
<polygon fill="none" stroke="black" points="2168.5,-91 2168.5,-143 2321.5,-143 2321.5,-91 2168.5,-91"/>
<text text-anchor="start" x="2176.5" y="-131" font-family="Helvetica,sans-Serif" font-size="10.00">/home/travis/build</text>
<text text-anchor="start" x="2176.5" y="-120" font-family="Helvetica,sans-Serif" font-size="10.00">/AliceO2Group/AliceO2</text>
<text text-anchor="start" x="2176.5" y="-109" font-family="Helvetica,sans-Serif" font-size="10.00">/Framework/Core/src/Workflow</text>
<text text-anchor="middle" x="2245" y="-98" font-family="Helvetica,sans-Serif" font-size="10.00">Helpers.cxx</text>
</a>
</g>
</g>
<!-- Node8&#45;&gt;Node27 -->
<g id="edge40" class="edge"><title>Node8&#45;&gt;Node27</title>
<path fill="none" stroke="midnightblue" d="M1508.83,-204.252C1641.47,-200.157 1921.56,-186.772 2154,-144 2158.69,-143.138 2163.48,-142.137 2168.29,-141.041"/>
<polygon fill="midnightblue" stroke="midnightblue" points="1508.66,-200.755 1498.77,-204.553 1508.87,-207.752 1508.66,-200.755"/>
</g>
<!-- Node9&#45;&gt;Node4 -->
<g id="edge12" class="edge"><title>Node9&#45;&gt;Node4</title>
<path fill="none" stroke="midnightblue" d="M634.613,-80.5147C635.125,-69.2575 635.671,-57.227 636.113,-47.5249"/>
<polygon fill="midnightblue" stroke="midnightblue" points="631.115,-80.3981 634.157,-90.5468 638.108,-80.716 631.115,-80.3981"/>
</g>
<!-- Node10 -->
<g id="node10" class="node"><title>Node10</title>
<g id="a_node10"><a xlink:href="../../d0/d9f/DataSourceDevice_8cxx.html" target="_top" xlink:title="/home/travis/build\l/AliceO2Group/AliceO2\l/Framework/Core/src/DataSource\lDevice.cxx">
<polygon fill="none" stroke="black" points="348,-1 348,-53 512,-53 512,-1 348,-1"/>
<text text-anchor="start" x="356" y="-41" font-family="Helvetica,sans-Serif" font-size="10.00">/home/travis/build</text>
<text text-anchor="start" x="356" y="-30" font-family="Helvetica,sans-Serif" font-size="10.00">/AliceO2Group/AliceO2</text>
<text text-anchor="start" x="356" y="-19" font-family="Helvetica,sans-Serif" font-size="10.00">/Framework/Core/src/DataSource</text>
<text text-anchor="middle" x="430" y="-8" font-family="Helvetica,sans-Serif" font-size="10.00">Device.cxx</text>
</a>
</g>
</g>
<!-- Node9&#45;&gt;Node10 -->
<g id="edge11" class="edge"><title>Node9&#45;&gt;Node10</title>
<path fill="none" stroke="midnightblue" d="M565.635,-86.7977C540.497,-75.9004 512.198,-63.6325 487.977,-53.1328"/>
<polygon fill="midnightblue" stroke="midnightblue" points="564.533,-90.1344 575.1,-90.9005 567.317,-83.7118 564.533,-90.1344"/>
</g>
<!-- Node11&#45;&gt;Node4 -->
<g id="edge16" class="edge"><title>Node11&#45;&gt;Node4</title>
<path fill="none" stroke="midnightblue" d="M789.506,-87.1211C756.031,-74.1444 717.404,-59.1699 687.4,-47.5384"/>
<polygon fill="midnightblue" stroke="midnightblue" points="788.666,-90.5493 799.255,-90.9005 791.196,-84.0225 788.666,-90.5493"/>
</g>
<!-- Node12 -->
<g id="node12" class="node"><title>Node12</title>
<g id="a_node12"><a xlink:href="../../de/ddc/FrameworkDummyDebugger_8cxx.html" target="_top" xlink:title="/home/travis/build\l/AliceO2Group/AliceO2\l/Framework/Core/src/Framework\lDummyDebugger.cxx">
<polygon fill="none" stroke="black" points="762.5,-1 762.5,-53 923.5,-53 923.5,-1 762.5,-1"/>
<text text-anchor="start" x="770.5" y="-41" font-family="Helvetica,sans-Serif" font-size="10.00">/home/travis/build</text>
<text text-anchor="start" x="770.5" y="-30" font-family="Helvetica,sans-Serif" font-size="10.00">/AliceO2Group/AliceO2</text>
<text text-anchor="start" x="770.5" y="-19" font-family="Helvetica,sans-Serif" font-size="10.00">/Framework/Core/src/Framework</text>
<text text-anchor="middle" x="843" y="-8" font-family="Helvetica,sans-Serif" font-size="10.00">DummyDebugger.cxx</text>
</a>
</g>
</g>
<!-- Node11&#45;&gt;Node12 -->
<g id="edge14" class="edge"><title>Node11&#45;&gt;Node12</title>
<path fill="none" stroke="midnightblue" d="M855.596,-80.7852C853.385,-71.5174 851.044,-61.7076 848.988,-53.0921"/>
<polygon fill="midnightblue" stroke="midnightblue" points="852.2,-81.6323 857.926,-90.5468 859.009,-80.0074 852.2,-81.6323"/>
</g>
<!-- Node13 -->
<g id="node13" class="node"><title>Node13</title>
<g id="a_node13"><a xlink:href="../../d3/d29/FrameworkGUIDebugger_8cxx.html" target="_top" xlink:title="/home/travis/build\l/AliceO2Group/AliceO2\l/Framework/Core/src/Framework\lGUIDebugger.cxx">
<polygon fill="none" stroke="black" points="941.5,-1 941.5,-53 1102.5,-53 1102.5,-1 941.5,-1"/>
<text text-anchor="start" x="949.5" y="-41" font-family="Helvetica,sans-Serif" font-size="10.00">/home/travis/build</text>
<text text-anchor="start" x="949.5" y="-30" font-family="Helvetica,sans-Serif" font-size="10.00">/AliceO2Group/AliceO2</text>
<text text-anchor="start" x="949.5" y="-19" font-family="Helvetica,sans-Serif" font-size="10.00">/Framework/Core/src/Framework</text>
<text text-anchor="middle" x="1022" y="-8" font-family="Helvetica,sans-Serif" font-size="10.00">GUIDebugger.cxx</text>
</a>
</g>
</g>
<!-- Node11&#45;&gt;Node13 -->
<g id="edge15" class="edge"><title>Node11&#45;&gt;Node13</title>
<path fill="none" stroke="midnightblue" d="M918.195,-85.8154C937.353,-75.1451 958.677,-63.2684 976.99,-53.0687"/>
<polygon fill="midnightblue" stroke="midnightblue" points="916.31,-82.8591 909.276,-90.7827 919.716,-88.9746 916.31,-82.8591"/>
</g>
<!-- Node14&#45;&gt;Node13 -->
<g id="edge18" class="edge"><title>Node14&#45;&gt;Node13</title>
<path fill="none" stroke="midnightblue" d="M1058.18,-81.9652C1051.74,-72.3545 1044.85,-62.0742 1038.82,-53.0921"/>
<polygon fill="midnightblue" stroke="midnightblue" points="1055.46,-84.1899 1063.93,-90.5468 1061.27,-80.2917 1055.46,-84.1899"/>
</g>
<!-- Node14&#45;&gt;Node15 -->
<g id="edge19" class="edge"><title>Node14&#45;&gt;Node15</title>
<path fill="none" stroke="midnightblue" d="M1123.51,-84.8242C1137.64,-74.4671 1153.18,-63.0712 1166.61,-53.221"/>
<polygon fill="midnightblue" stroke="midnightblue" points="1121.38,-82.0466 1115.39,-90.7827 1125.52,-87.6915 1121.38,-82.0466"/>
</g>
<!-- Node16&#45;&gt;Node4 -->
<g id="edge22" class="edge"><title>Node16&#45;&gt;Node4</title>
<path fill="none" stroke="midnightblue" d="M1231.65,-96.2085C1219.04,-93.881 1206.23,-91.7252 1194,-90 999.277,-62.5257 947.415,-83.5765 753,-54 741.472,-52.2462 729.382,-50.0001 717.54,-47.5644"/>
<polygon fill="midnightblue" stroke="midnightblue" points="1231.23,-99.6904 1241.7,-98.1071 1232.53,-92.812 1231.23,-99.6904"/>
</g>
<!-- Node17 -->
<g id="node17" class="node"><title>Node17</title>
<g id="a_node17"><a xlink:href="../../d3/d15/DDSConfigHelpers_8cxx.html" target="_top" xlink:title="/home/travis/build\l/AliceO2Group/AliceO2\l/Framework/Core/src/DDSConfig\lHelpers.cxx">
<polygon fill="none" stroke="black" points="1300,-1 1300,-53 1462,-53 1462,-1 1300,-1"/>
<text text-anchor="start" x="1308" y="-41" font-family="Helvetica,sans-Serif" font-size="10.00">/home/travis/build</text>
<text text-anchor="start" x="1308" y="-30" font-family="Helvetica,sans-Serif" font-size="10.00">/AliceO2Group/AliceO2</text>
<text text-anchor="start" x="1308" y="-19" font-family="Helvetica,sans-Serif" font-size="10.00">/Framework/Core/src/DDSConfig</text>
<text text-anchor="middle" x="1381" y="-8" font-family="Helvetica,sans-Serif" font-size="10.00">Helpers.cxx</text>
</a>
</g>
</g>
<!-- Node16&#45;&gt;Node17 -->
<g id="edge21" class="edge"><title>Node16&#45;&gt;Node17</title>
<path fill="none" stroke="midnightblue" d="M1345.43,-81.9652C1351.77,-72.3545 1358.54,-62.0742 1364.46,-53.0921"/>
<polygon fill="midnightblue" stroke="midnightblue" points="1342.36,-80.271 1339.78,-90.5468 1348.2,-84.1233 1342.36,-80.271"/>
</g>
<!-- Node16&#45;&gt;Node18 -->
<g id="edge23" class="edge"><title>Node16&#45;&gt;Node18</title>
<path fill="none" stroke="midnightblue" d="M1400.75,-87.3724C1430.73,-76.3332 1464.72,-63.8175 1493.74,-53.1328"/>
<polygon fill="midnightblue" stroke="midnightblue" points="1399.34,-84.1608 1391.17,-90.9005 1401.76,-90.7296 1399.34,-84.1608"/>
</g>
<!-- Node20&#45;&gt;Node4 -->
<g id="edge27" class="edge"><title>Node20&#45;&gt;Node4</title>
<path fill="none" stroke="midnightblue" d="M1690.33,-90.0883C1277.1,-26.142 1163.37,-107.412 753,-54 740.618,-52.3884 727.61,-50.0865 714.963,-47.5104"/>
<polygon fill="midnightblue" stroke="midnightblue" points="1690.03,-93.5851 1700.45,-91.6754 1691.12,-86.6694 1690.03,-93.5851"/>
</g>
<!-- Node20&#45;&gt;Node18 -->
<g id="edge29" class="edge"><title>Node20&#45;&gt;Node18</title>
<path fill="none" stroke="midnightblue" d="M1710.38,-87.0854C1682.84,-76.1167 1651.72,-63.725 1625.12,-53.1328"/>
<polygon fill="midnightblue" stroke="midnightblue" points="1709.38,-90.4527 1719.97,-90.9005 1711.97,-83.9493 1709.38,-90.4527"/>
</g>
<!-- Node20&#45;&gt;Node21 -->
<g id="edge26" class="edge"><title>Node20&#45;&gt;Node21</title>
<path fill="none" stroke="midnightblue" d="M1767.92,-81.0808C1763.88,-71.7263 1759.6,-61.7993 1755.84,-53.0921"/>
<polygon fill="midnightblue" stroke="midnightblue" points="1764.83,-82.7537 1772.01,-90.5468 1771.26,-79.9786 1764.83,-82.7537"/>
</g>
<!-- Node20&#45;&gt;Node22 -->
<g id="edge28" class="edge"><title>Node20&#45;&gt;Node22</title>
<path fill="none" stroke="midnightblue" d="M1875.63,-96.2186C1888.16,-93.9123 1900.87,-91.7595 1913,-90 2087.9,-64.6345 2136.24,-91.2171 2309,-54 2312.1,-53.3325 2315.25,-52.5751 2318.41,-51.7493"/>
<polygon fill="midnightblue" stroke="midnightblue" points="1874.83,-92.8092 1865.64,-98.0966 1876.12,-99.6886 1874.83,-92.8092"/>
</g>
<!-- Node20&#45;&gt;Node23 -->
<g id="edge30" class="edge"><title>Node20&#45;&gt;Node23</title>
<path fill="none" stroke="midnightblue" d="M1827.92,-85.1143C1843.1,-74.6802 1859.85,-63.1632 1874.31,-53.221"/>
<polygon fill="midnightblue" stroke="midnightblue" points="1825.94,-82.2332 1819.68,-90.7827 1829.9,-88.0016 1825.94,-82.2332"/>
</g>
<!-- Node20&#45;&gt;Node24 -->
<g id="edge31" class="edge"><title>Node20&#45;&gt;Node24</title>
<path fill="none" stroke="midnightblue" d="M1875.28,-88.1838C1909.77,-77.6557 1949.23,-65.4486 1985,-54 1987.99,-53.0427 1991.04,-52.0579 1994.13,-51.0574"/>
<polygon fill="midnightblue" stroke="midnightblue" points="1874.24,-84.8425 1865.7,-91.1067 1876.28,-91.5383 1874.24,-84.8425"/>
</g>
<!-- Node25&#45;&gt;Node4 -->
<g id="edge36" class="edge"><title>Node25&#45;&gt;Node4</title>
<path fill="none" stroke="midnightblue" d="M1912.15,-95.9765C1899.41,-93.5968 1886.41,-91.4884 1874,-90 1379.07,-30.6263 1247.51,-116.79 753,-54 740.511,-52.4142 727.387,-50.1079 714.641,-47.5145"/>
<polygon fill="midnightblue" stroke="midnightblue" points="1911.8,-99.4737 1922.28,-97.9365 1913.12,-92.601 1911.8,-99.4737"/>
</g>
<!-- Node25&#45;&gt;Node22 -->
<g id="edge37" class="edge"><title>Node25&#45;&gt;Node22</title>
<path fill="none" stroke="midnightblue" d="M2083.94,-98.4671C2097.99,-95.6222 2112.4,-92.7187 2126,-90 2207.28,-73.7497 2228.98,-75.6279 2309,-54 2312.06,-53.173 2315.18,-52.2847 2318.31,-51.3529"/>
<polygon fill="midnightblue" stroke="midnightblue" points="2082.9,-95.1081 2073.79,-100.525 2084.29,-101.969 2082.9,-95.1081"/>
</g>
<!-- Node25&#45;&gt;Node23 -->
<g id="edge38" class="edge"><title>Node25&#45;&gt;Node23</title>
<path fill="none" stroke="midnightblue" d="M1965.8,-83.4308C1955.89,-73.4069 1945.14,-62.5325 1935.81,-53.0921"/>
<polygon fill="midnightblue" stroke="midnightblue" points="1963.32,-85.8961 1972.84,-90.5468 1968.29,-80.9747 1963.32,-85.8961"/>
</g>
<!-- Node26 -->
<g id="node26" class="node"><title>Node26</title>
<g id="a_node26"><a xlink:href="../../dc/d0c/GraphvizHelpers_8cxx.html" target="_top" xlink:title="/home/travis/build\l/AliceO2Group/AliceO2\l/Framework/Core/src/Graphviz\lHelpers.cxx">
<polygon fill="none" stroke="black" points="2149.5,-1 2149.5,-53 2300.5,-53 2300.5,-1 2149.5,-1"/>
<text text-anchor="start" x="2157.5" y="-41" font-family="Helvetica,sans-Serif" font-size="10.00">/home/travis/build</text>
<text text-anchor="start" x="2157.5" y="-30" font-family="Helvetica,sans-Serif" font-size="10.00">/AliceO2Group/AliceO2</text>
<text text-anchor="start" x="2157.5" y="-19" font-family="Helvetica,sans-Serif" font-size="10.00">/Framework/Core/src/Graphviz</text>
<text text-anchor="middle" x="2225" y="-8" font-family="Helvetica,sans-Serif" font-size="10.00">Helpers.cxx</text>
</a>
</g>
</g>
<!-- Node25&#45;&gt;Node26 -->
<g id="edge35" class="edge"><title>Node25&#45;&gt;Node26</title>
<path fill="none" stroke="midnightblue" d="M2072.22,-87.229C2100.6,-76.2249 2132.73,-63.7712 2160.17,-53.1328"/>
<polygon fill="midnightblue" stroke="midnightblue" points="2070.8,-84.0225 2062.75,-90.9005 2073.33,-90.5493 2070.8,-84.0225"/>
</g>
<!-- Node28&#45;&gt;Node19 -->
<g id="edge46" class="edge"><title>Node28&#45;&gt;Node19</title>
<path fill="none" stroke="midnightblue" d="M2158.33,-200.089C2048.81,-191.754 1854.84,-174.103 1691,-144 1681.12,-142.184 1670.77,-139.934 1660.63,-137.522"/>
<polygon fill="midnightblue" stroke="midnightblue" points="2158.1,-203.582 2168.33,-200.843 2158.62,-196.602 2158.1,-203.582"/>
</g>
<!-- Node28&#45;&gt;Node20 -->
<g id="edge48" class="edge"><title>Node28&#45;&gt;Node20</title>
<path fill="none" stroke="midnightblue" d="M2158.37,-190.135C2091.34,-177.785 1996.23,-160.094 1913,-144 1897.75,-141.05 1881.5,-137.849 1865.84,-134.733"/>
<polygon fill="midnightblue" stroke="midnightblue" points="2158,-193.625 2168.47,-191.994 2159.26,-186.741 2158,-193.625"/>
</g>
<!-- Node28&#45;&gt;Node21 -->
<g id="edge47" class="edge"><title>Node28&#45;&gt;Node21</title>
<path fill="none" stroke="midnightblue" d="M2303.81,-174.579C2314.37,-166.122 2323.93,-155.937 2330,-144 2340.88,-122.606 2346.34,-107.576 2330,-90 2292.53,-49.6954 1890.19,-63.6103 1836,-54 1833.25,-53.5122 1830.46,-52.9746 1827.66,-52.3959"/>
<polygon fill="midnightblue" stroke="midnightblue" points="2301.51,-171.928 2295.58,-180.71 2305.69,-177.541 2301.51,-171.928"/>
</g>
<!-- Node28&#45;&gt;Node22 -->
<g id="edge50" class="edge"><title>Node28&#45;&gt;Node22</title>
<path fill="none" stroke="midnightblue" d="M2327.46,-175.92C2341.45,-167.516 2354.5,-157.01 2364,-144 2383.4,-117.426 2386.31,-78.3965 2385.8,-53.0887"/>
<polygon fill="midnightblue" stroke="midnightblue" points="2325.65,-172.926 2318.66,-180.885 2329.09,-179.024 2325.65,-172.926"/>
</g>
<!-- Node28&#45;&gt;Node27 -->
<g id="edge49" class="edge"><title>Node28&#45;&gt;Node27</title>
<path fill="none" stroke="midnightblue" d="M2245,-170.489C2245,-161.309 2245,-151.616 2245,-143.092"/>
<polygon fill="midnightblue" stroke="midnightblue" points="2241.5,-170.547 2245,-180.547 2248.5,-170.547 2241.5,-170.547"/>
</g>
<!-- Node29 -->
<g id="node29" class="node"><title>Node29</title>
<g id="a_node29"><a xlink:href="../../de/dc3/test__WorkflowHelpers_8cxx.html" target="_top" xlink:title="/home/travis/build\l/AliceO2Group/AliceO2\l/Framework/Core/test/test\l_WorkflowHelpers.cxx">
<polygon fill="none" stroke="black" points="2416.5,-91 2416.5,-143 2547.5,-143 2547.5,-91 2416.5,-91"/>
<text text-anchor="start" x="2424.5" y="-131" font-family="Helvetica,sans-Serif" font-size="10.00">/home/travis/build</text>
<text text-anchor="start" x="2424.5" y="-120" font-family="Helvetica,sans-Serif" font-size="10.00">/AliceO2Group/AliceO2</text>
<text text-anchor="start" x="2424.5" y="-109" font-family="Helvetica,sans-Serif" font-size="10.00">/Framework/Core/test/test</text>
<text text-anchor="middle" x="2482" y="-98" font-family="Helvetica,sans-Serif" font-size="10.00">_WorkflowHelpers.cxx</text>
</a>
</g>
</g>
<!-- Node28&#45;&gt;Node29 -->
<g id="edge51" class="edge"><title>Node28&#45;&gt;Node29</title>
<path fill="none" stroke="midnightblue" d="M2322.31,-177.295C2352.69,-166.012 2387.21,-153.197 2416.36,-142.374"/>
<polygon fill="midnightblue" stroke="midnightblue" points="2320.75,-174.138 2312.6,-180.901 2323.19,-180.701 2320.75,-174.138"/>
</g>
</g>
</svg>
