<?xml version="1.0" encoding="UTF-8" standalone="no"?>
<!DOCTYPE svg PUBLIC "-//W3C//DTD SVG 1.1//EN"
 "http://www.w3.org/Graphics/SVG/1.1/DTD/svg11.dtd">
<!-- Generated by graphviz version 2.36.0 (20140111.2315)
 -->
<!-- Title: /home/travis/build/AliceO2Group/AliceO2/Detectors/ITSMFT/ITS/simulation/src/DigitWriteoutBuffer.cxx Pages: 1 -->
<!--zoomable 310 -->
<svg id="main" version="1.1" xmlns="http://www.w3.org/2000/svg" xmlns:xlink="http://www.w3.org/1999/xlink" xml:space="preserve" onload="init(evt)">
<style type="text/css"><![CDATA[
.edge:hover path { stroke: red; }
.edge:hover polygon { stroke: red; fill: red; }
]]></style>
<script type="text/javascript"><![CDATA[
var edges = document.getElementsByTagName('g');
if (edges && edges.length) {
  for (var i=0;i<edges.length;i++) {
    if (edges[i].id.substr(0,4)=='edge') {
      edges[i].setAttribute('class','edge');
    }
  }
}
]]></script>
        <defs>
                <circle id="rim" cx="0" cy="0" r="7"/>
                <circle id="rim2" cx="0" cy="0" r="3.5"/>
                <g id="zoomPlus">
                        <use xlink:href="#rim" fill="#404040">
                                <set attributeName="fill" to="#808080" begin="zoomplus.mouseover" end="zoomplus.mouseout"/>
                        </use>
                        <path d="M-4,0h8M0,-4v8" fill="none" stroke="white" stroke-width="1.5" pointer-events="none"/>
                </g>
                <g id="zoomMin">
                        <use xlink:href="#rim" fill="#404040">
                                <set attributeName="fill" to="#808080" begin="zoomminus.mouseover" end="zoomminus.mouseout"/>
                        </use>
                        <path d="M-4,0h8" fill="none" stroke="white" stroke-width="1.5" pointer-events="none"/>
                </g>
                <g id="dirArrow">
                        <path fill="none" stroke="white" stroke-width="1.5" d="M0,-3.0v7 M-2.5,-0.5L0,-3.0L2.5,-0.5"/>
                </g>
               <g id="resetDef">
                       <use xlink:href="#rim2" fill="#404040">
                               <set attributeName="fill" to="#808080" begin="reset.mouseover" end="reset.mouseout"/>
                       </use>
               </g>
        </defs>

<script type="text/javascript">
var viewWidth = 672;
var viewHeight = 310;
var sectionId = 'dynsection-0';
</script>
<script xlink:href="../../svgpan.js"/>
<svg id="graph" class="graph">
<g id="viewport">
<title>/home/travis/build/AliceO2Group/AliceO2/Detectors/ITSMFT/ITS/simulation/src/DigitWriteoutBuffer.cxx</title>
<!-- Node1 -->
<g id="node1" class="node"><title>Node1</title>
<polygon fill="#bfbfbf" stroke="black" points="141.5,-249 141.5,-301 326.5,-301 326.5,-249 141.5,-249"/>
<text text-anchor="start" x="149.5" y="-289" font-family="Helvetica,sans-Serif" font-size="10.00">/home/travis/build</text>
<text text-anchor="start" x="149.5" y="-278" font-family="Helvetica,sans-Serif" font-size="10.00">/AliceO2Group/AliceO2</text>
<text text-anchor="start" x="149.5" y="-267" font-family="Helvetica,sans-Serif" font-size="10.00">/Detectors/ITSMFT/ITS</text>
<text text-anchor="middle" x="234" y="-256" font-family="Helvetica,sans-Serif" font-size="10.00">/simulation/src/DigitWriteoutBuffer.cxx</text>
</g>
<!-- Node2 -->
<g id="node2" class="node"><title>Node2</title>
<g id="a_node2"><a xlink:href="../../d9/dea/DigitWriteoutBuffer_8h.html" target="_top" xlink:title="ITSSimulation/DigitWriteout\lBuffer.h">
<polygon fill="none" stroke="black" points="97,-181 97,-211 235,-211 235,-181 97,-181"/>
<text text-anchor="start" x="105" y="-199" font-family="Helvetica,sans-Serif" font-size="10.00">ITSSimulation/DigitWriteout</text>
<text text-anchor="middle" x="166" y="-188" font-family="Helvetica,sans-Serif" font-size="10.00">Buffer.h</text>
</a>
</g>
</g>
<!-- Node1&#45;&gt;Node2 -->
<g id="edge1" class="edge"><title>Node1&#45;&gt;Node2</title>
<path fill="none" stroke="midnightblue" d="M211.734,-248.787C203.226,-239.153 193.601,-228.254 185.383,-218.948"/>
<polygon fill="midnightblue" stroke="midnightblue" points="187.829,-216.431 178.586,-211.252 182.582,-221.064 187.829,-216.431"/>
</g>
<!-- Node4 -->
<g id="node4" class="node"><title>Node4</title>
<polygon fill="none" stroke="#bfbfbf" points="0,-124.5 0,-143.5 56,-143.5 56,-124.5 0,-124.5"/>
<text text-anchor="middle" x="28" y="-131.5" font-family="Helvetica,sans-Serif" font-size="10.00">TString.h</text>
</g>
<!-- Node1&#45;&gt;Node4 -->
<g id="edge14" class="edge"><title>Node1&#45;&gt;Node4</title>
<path fill="none" stroke="midnightblue" d="M154.993,-248.963C132.062,-239.518 107.87,-227.27 88,-212 66.5447,-195.512 48.513,-169.639 37.9802,-152.501"/>
<polygon fill="midnightblue" stroke="midnightblue" points="40.7874,-150.373 32.6761,-143.557 34.7665,-153.943 40.7874,-150.373"/>
</g>
<!-- Node11 -->
<g id="node11" class="node"><title>Node11</title>
<polygon fill="none" stroke="#bfbfbf" points="253,-186.5 253,-205.5 353,-205.5 353,-186.5 253,-186.5"/>
<text text-anchor="middle" x="303" y="-193.5" font-family="Helvetica,sans-Serif" font-size="10.00">FairRootManager.h</text>
</g>
<!-- Node1&#45;&gt;Node11 -->
<g id="edge12" class="edge"><title>Node1&#45;&gt;Node11</title>
<path fill="none" stroke="midnightblue" d="M256.593,-248.787C267.138,-237.02 279.373,-223.366 288.633,-213.033"/>
<polygon fill="midnightblue" stroke="midnightblue" points="291.264,-215.341 295.331,-205.558 286.051,-210.669 291.264,-215.341"/>
</g>
<!-- Node12 -->
<g id="node12" class="node"><title>Node12</title>
<polygon fill="none" stroke="#bfbfbf" points="371.5,-186.5 371.5,-205.5 456.5,-205.5 456.5,-186.5 371.5,-186.5"/>
<text text-anchor="middle" x="414" y="-193.5" font-family="Helvetica,sans-Serif" font-size="10.00">TClonesArray.h</text>
</g>
<!-- Node1&#45;&gt;Node12 -->
<g id="edge13" class="edge"><title>Node1&#45;&gt;Node12</title>
<path fill="none" stroke="midnightblue" d="M292.939,-248.787C323.714,-235.622 360.012,-220.095 384.781,-209.499"/>
<polygon fill="midnightblue" stroke="midnightblue" points="386.177,-212.709 393.995,-205.558 383.424,-206.273 386.177,-212.709"/>
</g>
<!-- Node3 -->
<g id="node3" class="node"><title>Node3</title>
<polygon fill="none" stroke="#bfbfbf" points="74.5,-124.5 74.5,-143.5 109.5,-143.5 109.5,-124.5 74.5,-124.5"/>
<text text-anchor="middle" x="92" y="-131.5" font-family="Helvetica,sans-Serif" font-size="10.00">map</text>
</g>
<!-- Node2&#45;&gt;Node3 -->
<g id="edge2" class="edge"><title>Node2&#45;&gt;Node3</title>
<path fill="none" stroke="midnightblue" d="M148.463,-180.781C137.045,-171.523 122.17,-159.462 110.554,-150.044"/>
<polygon fill="midnightblue" stroke="midnightblue" points="112.74,-147.31 102.768,-143.731 108.331,-152.747 112.74,-147.31"/>
</g>
<!-- Node2&#45;&gt;Node4 -->
<g id="edge3" class="edge"><title>Node2&#45;&gt;Node4</title>
<path fill="none" stroke="midnightblue" d="M133.645,-180.933C110.467,-170.855 79.5169,-157.399 57.1122,-147.657"/>
<polygon fill="midnightblue" stroke="midnightblue" points="58.3463,-144.378 47.7801,-143.6 55.5552,-150.797 58.3463,-144.378"/>
</g>
<!-- Node5 -->
<g id="node5" class="node"><title>Node5</title>
<polygon fill="none" stroke="#bfbfbf" points="128,-124.5 128,-143.5 232,-143.5 232,-124.5 128,-124.5"/>
<text text-anchor="middle" x="180" y="-131.5" font-family="Helvetica,sans-Serif" font-size="10.00">FairWriteoutBuffer.h</text>
</g>
<!-- Node2&#45;&gt;Node5 -->
<g id="edge4" class="edge"><title>Node2&#45;&gt;Node5</title>
<path fill="none" stroke="midnightblue" d="M169.318,-180.781C171.205,-172.691 173.592,-162.462 175.631,-153.725"/>
<polygon fill="midnightblue" stroke="midnightblue" points="179.099,-154.264 177.963,-143.731 172.282,-152.674 179.099,-154.264"/>
</g>
<!-- Node6 -->
<g id="node6" class="node"><title>Node6</title>
<polygon fill="none" stroke="#bfbfbf" points="270,-0.5 270,-19.5 326,-19.5 326,-0.5 270,-0.5"/>
<text text-anchor="middle" x="298" y="-7.5" font-family="Helvetica,sans-Serif" font-size="10.00">Rtypes.h</text>
</g>
<!-- Node2&#45;&gt;Node6 -->
<g id="edge5" class="edge"><title>Node2&#45;&gt;Node6</title>
<path fill="none" stroke="midnightblue" d="M194.252,-180.957C209.725,-172.105 228.282,-159.432 241,-144 269.926,-108.899 286.448,-56.9223 293.642,-29.4974"/>
<polygon fill="midnightblue" stroke="midnightblue" points="297.069,-30.2181 296.093,-19.6684 290.277,-28.5246 297.069,-30.2181"/>
</g>
<!-- Node7 -->
<g id="node7" class="node"><title>Node7</title>
<g id="a_node7"><a xlink:href="../../d0/d06/ITSMFT_2common_2base_2include_2ITSMFTBase_2Digit_8h.html" target="_top" xlink:title="ITSMFTBase/Digit.h">
<polygon fill="none" stroke="black" points="320.5,-124.5 320.5,-143.5 427.5,-143.5 427.5,-124.5 320.5,-124.5"/>
<text text-anchor="middle" x="374" y="-131.5" font-family="Helvetica,sans-Serif" font-size="10.00">ITSMFTBase/Digit.h</text>
</a>
</g>
</g>
<!-- Node2&#45;&gt;Node7 -->
<g id="edge6" class="edge"><title>Node2&#45;&gt;Node7</title>
<path fill="none" stroke="midnightblue" d="M214.767,-180.933C251.221,-170.417 300.43,-156.222 334.45,-146.409"/>
<polygon fill="midnightblue" stroke="midnightblue" points="335.851,-149.647 344.489,-143.513 333.911,-142.921 335.851,-149.647"/>
</g>
<!-- Node7&#45;&gt;Node6 -->
<g id="edge11" class="edge"><title>Node7&#45;&gt;Node6</title>
<path fill="none" stroke="midnightblue" d="M358.043,-124.421C345.05,-116.616 327.241,-103.899 317,-88 305.611,-70.3182 301.049,-46.3231 299.221,-29.8439"/>
<polygon fill="midnightblue" stroke="midnightblue" points="302.701,-29.4626 298.343,-19.806 295.728,-30.0731 302.701,-29.4626"/>
</g>
<!-- Node8 -->
<g id="node8" class="node"><title>Node8</title>
<polygon fill="none" stroke="#bfbfbf" points="326.5,-57 326.5,-87 421.5,-87 421.5,-57 326.5,-57"/>
<text text-anchor="start" x="334.5" y="-75" font-family="Helvetica,sans-Serif" font-size="10.00">boost/serialization</text>
<text text-anchor="middle" x="374" y="-64" font-family="Helvetica,sans-Serif" font-size="10.00">/base_object.hpp</text>
</g>
<!-- Node7&#45;&gt;Node8 -->
<g id="edge7" class="edge"><title>Node7&#45;&gt;Node8</title>
<path fill="none" stroke="midnightblue" d="M374,-124.403C374,-117.341 374,-106.975 374,-97.399"/>
<polygon fill="midnightblue" stroke="midnightblue" points="377.5,-97.1408 374,-87.1408 370.5,-97.1408 377.5,-97.1408"/>
</g>
<!-- Node9 -->
<g id="node9" class="node"><title>Node9</title>
<g id="a_node9"><a xlink:href="../../d7/dcd/MCCompLabel_8h.html" target="_top" xlink:title="SimulationDataFormat\l/MCCompLabel.h">
<polygon fill="none" stroke="black" points="440,-57 440,-87 554,-87 554,-57 440,-57"/>
<text text-anchor="start" x="448" y="-75" font-family="Helvetica,sans-Serif" font-size="10.00">SimulationDataFormat</text>
<text text-anchor="middle" x="497" y="-64" font-family="Helvetica,sans-Serif" font-size="10.00">/MCCompLabel.h</text>
</a>
</g>
</g>
<!-- Node7&#45;&gt;Node9 -->
<g id="edge8" class="edge"><title>Node7&#45;&gt;Node9</title>
<path fill="none" stroke="midnightblue" d="M391.623,-124.403C409.06,-115.898 436.316,-102.602 458.74,-91.6635"/>
<polygon fill="midnightblue" stroke="midnightblue" points="460.558,-94.6708 468.011,-87.1408 457.489,-88.3794 460.558,-94.6708"/>
</g>
<!-- Node10 -->
<g id="node10" class="node"><title>Node10</title>
<polygon fill="none" stroke="#bfbfbf" points="572,-62.5 572,-81.5 664,-81.5 664,-62.5 572,-62.5"/>
<text text-anchor="middle" x="618" y="-69.5" font-family="Helvetica,sans-Serif" font-size="10.00">FairTimeStamp.h</text>
</g>
<!-- Node7&#45;&gt;Node10 -->
<g id="edge10" class="edge"><title>Node7&#45;&gt;Node10</title>
<path fill="none" stroke="midnightblue" d="M411.383,-124.477C449.575,-115.681 510.547,-101.393 563,-88 567.726,-86.7933 572.671,-85.4953 577.574,-84.1859"/>
<polygon fill="midnightblue" stroke="midnightblue" points="578.757,-87.492 587.5,-81.5077 576.934,-80.7337 578.757,-87.492"/>
</g>
<!-- Node9&#45;&gt;Node6 -->
<g id="edge9" class="edge"><title>Node9&#45;&gt;Node6</title>
<path fill="none" stroke="midnightblue" d="M450.343,-56.9327C415.467,-46.4171 368.387,-32.2222 335.839,-22.4087"/>
<polygon fill="midnightblue" stroke="midnightblue" points="336.818,-19.0485 326.234,-19.5127 334.798,-25.7505 336.818,-19.0485"/>
</g>
</g>
</svg>
        <g id="navigator" transform="translate(0 0)" fill="#404254">
                <rect fill="#f2f5e9" fill-opacity="0.5" stroke="#606060" stroke-width=".5" x="0" y="0" width="60" height="60"/>
                <use id="zoomplus" xlink:href="#zoomPlus" x="17" y="9" onmousedown="handleZoom(evt,'in')"/>
                <use id="zoomminus" xlink:href="#zoomMin" x="42" y="9" onmousedown="handleZoom(evt,'out')"/>
                <use id="reset" xlink:href="#resetDef" x="30" y="36" onmousedown="handleReset()"/>
                <g id="arrowUp" xlink:href="#dirArrow" transform="translate(30 24)" onmousedown="handlePan(0,-1)">
                  <use xlink:href="#rim" fill="#404040">
                        <set attributeName="fill" to="#808080" begin="arrowUp.mouseover" end="arrowUp.mouseout"/>
                  </use>
                  <path fill="none" stroke="white" stroke-width="1.5" d="M0,-3.0v7 M-2.5,-0.5L0,-3.0L2.5,-0.5"/>
                </g>
                <g id="arrowRight" xlink:href="#dirArrow" transform="rotate(90) translate(36 -43)" onmousedown="handlePan(1,0)">
                  <use xlink:href="#rim" fill="#404040">
                        <set attributeName="fill" to="#808080" begin="arrowRight.mouseover" end="arrowRight.mouseout"/>
                  </use>
                  <path fill="none" stroke="white" stroke-width="1.5" d="M0,-3.0v7 M-2.5,-0.5L0,-3.0L2.5,-0.5"/>
                </g>
                <g id="arrowDown" xlink:href="#dirArrow" transform="rotate(180) translate(-30 -48)" onmousedown="handlePan(0,1)">
                  <use xlink:href="#rim" fill="#404040">
                        <set attributeName="fill" to="#808080" begin="arrowDown.mouseover" end="arrowDown.mouseout"/>
                  </use>
                  <path fill="none" stroke="white" stroke-width="1.5" d="M0,-3.0v7 M-2.5,-0.5L0,-3.0L2.5,-0.5"/>
                </g>
                <g id="arrowLeft" xlink:href="#dirArrow" transform="rotate(270) translate(-36 17)" onmousedown="handlePan(-1,0)">
                  <use xlink:href="#rim" fill="#404040">
                        <set attributeName="fill" to="#808080" begin="arrowLeft.mouseover" end="arrowLeft.mouseout"/>
                  </use>
                  <path fill="none" stroke="white" stroke-width="1.5" d="M0,-3.0v7 M-2.5,-0.5L0,-3.0L2.5,-0.5"/>
                </g>
        </g>
        <svg viewBox="0 0 15 15" width="100%" height="30px" preserveAspectRatio="xMaxYMin meet">
         <g id="arrow_out" transform="scale(0.3 0.3)">
          <a xlink:href="DigitWriteoutBuffer_8cxx__incl_org.svg" target="_base">
           <rect id="button" ry="5" rx="5" y="6" x="6" height="38" width="38"
                fill="#f2f5e9" fill-opacity="0.5" stroke="#606060" stroke-width="1.0"/>
           <path id="arrow"
             d="M 11.500037,31.436501 C 11.940474,20.09759 22.043105,11.32322 32.158766,21.979434 L 37.068811,17.246167 C 37.068811,17.246167 37.088388,32 37.088388,32 L 22.160133,31.978069 C 22.160133,31.978069 26.997745,27.140456 26.997745,27.140456 C 18.528582,18.264221 13.291696,25.230495 11.500037,31.436501 z"
             style="fill:#404040;"/>
          </a>
         </g>
        </svg>
</svg>
