<?xml version="1.0" encoding="UTF-8" standalone="no"?>
<!DOCTYPE svg PUBLIC "-//W3C//DTD SVG 1.1//EN"
 "http://www.w3.org/Graphics/SVG/1.1/DTD/svg11.dtd">
<!-- Generated by graphviz version 2.36.0 (20140111.2315)
 -->
<!-- Title: /home/travis/build/AliceO2Group/AliceO2/Detectors/TPC/reconstruction/src/ClusterContainer.cxx Pages: 1 -->
<svg width="451pt" height="198pt"
 viewBox="0.00 0.00 451.00 198.00" xmlns="http://www.w3.org/2000/svg" xmlns:xlink="http://www.w3.org/1999/xlink">
<g id="graph0" class="graph" transform="scale(1 1) rotate(0) translate(4 194)">
<title>/home/travis/build/AliceO2Group/AliceO2/Detectors/TPC/reconstruction/src/ClusterContainer.cxx</title>
<!-- Node1 -->
<g id="node1" class="node"><title>Node1</title>
<polygon fill="#bfbfbf" stroke="black" points="155,-137 155,-189 305,-189 305,-137 155,-137"/>
<text text-anchor="start" x="163" y="-177" font-family="Helvetica,sans-Serif" font-size="10.00">/home/travis/build</text>
<text text-anchor="start" x="163" y="-166" font-family="Helvetica,sans-Serif" font-size="10.00">/AliceO2Group/AliceO2</text>
<text text-anchor="start" x="163" y="-155" font-family="Helvetica,sans-Serif" font-size="10.00">/Detectors/TPC/reconstruction</text>
<text text-anchor="middle" x="230" y="-144" font-family="Helvetica,sans-Serif" font-size="10.00">/src/ClusterContainer.cxx</text>
</g>
<!-- Node2 -->
<g id="node2" class="node"><title>Node2</title>
<g id="a_node2"><a xlink:href="../../db/d6b/ClusterContainer_8h.html" target="_top" xlink:title="Container class for TPC clusters. ">
<polygon fill="none" stroke="black" points="14.5,-69 14.5,-99 151.5,-99 151.5,-69 14.5,-69"/>
<text text-anchor="start" x="22.5" y="-87" font-family="Helvetica,sans-Serif" font-size="10.00">TPCReconstruction/Cluster</text>
<text text-anchor="middle" x="83" y="-76" font-family="Helvetica,sans-Serif" font-size="10.00">Container.h</text>
</a>
</g>
</g>
<!-- Node1&#45;&gt;Node2 -->
<g id="edge1" class="edge"><title>Node1&#45;&gt;Node2</title>
<path fill="none" stroke="midnightblue" d="M181.867,-136.787C161.287,-126.007 137.682,-113.643 118.7,-103.7"/>
<polygon fill="midnightblue" stroke="midnightblue" points="120.268,-100.57 109.786,-99.0307 117.02,-106.771 120.268,-100.57"/>
</g>
<!-- Node4 -->
<g id="node4" class="node"><title>Node4</title>
<polygon fill="none" stroke="#bfbfbf" points="149.5,-6.5 149.5,-25.5 198.5,-25.5 198.5,-6.5 149.5,-6.5"/>
<text text-anchor="middle" x="174" y="-13.5" font-family="Helvetica,sans-Serif" font-size="10.00">cassert</text>
</g>
<!-- Node1&#45;&gt;Node4 -->
<g id="edge9" class="edge"><title>Node1&#45;&gt;Node4</title>
<path fill="none" stroke="midnightblue" d="M216.176,-136.809C210.414,-125.72 203.931,-112.415 199,-100 190.432,-78.4306 183.115,-52.7276 178.65,-35.6989"/>
<polygon fill="midnightblue" stroke="midnightblue" points="182.011,-34.7138 176.144,-25.8918 175.229,-36.4471 182.011,-34.7138"/>
</g>
<!-- Node6 -->
<g id="node6" class="node"><title>Node6</title>
<g id="a_node6"><a xlink:href="../../d6/d6f/TPC_2reconstruction_2include_2TPCReconstruction_2Cluster_8h.html" target="_top" xlink:title="TPCReconstruction/Cluster.h">
<polygon fill="none" stroke="black" points="208,-74.5 208,-93.5 354,-93.5 354,-74.5 208,-74.5"/>
<text text-anchor="middle" x="281" y="-81.5" font-family="Helvetica,sans-Serif" font-size="10.00">TPCReconstruction/Cluster.h</text>
</a>
</g>
</g>
<!-- Node1&#45;&gt;Node6 -->
<g id="edge5" class="edge"><title>Node1&#45;&gt;Node6</title>
<path fill="none" stroke="midnightblue" d="M246.699,-136.787C254.261,-125.37 263.001,-112.176 269.765,-101.962"/>
<polygon fill="midnightblue" stroke="midnightblue" points="272.728,-103.828 275.332,-93.5577 266.892,-99.9621 272.728,-103.828"/>
</g>
<!-- Node9 -->
<g id="node9" class="node"><title>Node9</title>
<polygon fill="none" stroke="#bfbfbf" points="372.5,-74.5 372.5,-93.5 443.5,-93.5 443.5,-74.5 372.5,-74.5"/>
<text text-anchor="middle" x="408" y="-81.5" font-family="Helvetica,sans-Serif" font-size="10.00">FairLogger.h</text>
</g>
<!-- Node1&#45;&gt;Node9 -->
<g id="edge8" class="edge"><title>Node1&#45;&gt;Node9</title>
<path fill="none" stroke="midnightblue" d="M288.284,-136.787C318.582,-123.681 354.294,-108.232 378.78,-97.6403"/>
<polygon fill="midnightblue" stroke="midnightblue" points="380.429,-100.74 388.217,-93.5577 377.65,-94.3157 380.429,-100.74"/>
</g>
<!-- Node3 -->
<g id="node3" class="node"><title>Node3</title>
<polygon fill="none" stroke="#bfbfbf" points="0,-6.5 0,-25.5 44,-25.5 44,-6.5 0,-6.5"/>
<text text-anchor="middle" x="22" y="-13.5" font-family="Helvetica,sans-Serif" font-size="10.00">vector</text>
</g>
<!-- Node2&#45;&gt;Node3 -->
<g id="edge2" class="edge"><title>Node2&#45;&gt;Node3</title>
<path fill="none" stroke="midnightblue" d="M69.7639,-68.679C60.1585,-58.2863 47.1469,-44.2081 37.1298,-33.37"/>
<polygon fill="midnightblue" stroke="midnightblue" points="39.5173,-30.7965 30.1595,-25.8283 34.3766,-35.5477 39.5173,-30.7965"/>
</g>
<!-- Node2&#45;&gt;Node4 -->
<g id="edge3" class="edge"><title>Node2&#45;&gt;Node4</title>
<path fill="none" stroke="midnightblue" d="M102.746,-68.679C117.865,-57.7134 138.641,-42.645 153.858,-31.6085"/>
<polygon fill="midnightblue" stroke="midnightblue" points="156.05,-34.3423 162.09,-25.6379 151.94,-28.6758 156.05,-34.3423"/>
</g>
<!-- Node5 -->
<g id="node5" class="node"><title>Node5</title>
<polygon fill="none" stroke="#bfbfbf" points="62,-6.5 62,-25.5 118,-25.5 118,-6.5 62,-6.5"/>
<text text-anchor="middle" x="90" y="-13.5" font-family="Helvetica,sans-Serif" font-size="10.00">Rtypes.h</text>
</g>
<!-- Node2&#45;&gt;Node5 -->
<g id="edge4" class="edge"><title>Node2&#45;&gt;Node5</title>
<path fill="none" stroke="midnightblue" d="M84.5189,-68.679C85.5347,-59.1014 86.8825,-46.3938 87.9873,-35.9766"/>
<polygon fill="midnightblue" stroke="midnightblue" points="91.4894,-36.1417 89.0637,-25.8283 84.5284,-35.4034 91.4894,-36.1417"/>
</g>
<!-- Node7 -->
<g id="node7" class="node"><title>Node7</title>
<polygon fill="none" stroke="#bfbfbf" points="225.5,-1 225.5,-31 320.5,-31 320.5,-1 225.5,-1"/>
<text text-anchor="start" x="233.5" y="-19" font-family="Helvetica,sans-Serif" font-size="10.00">boost/serialization</text>
<text text-anchor="middle" x="273" y="-8" font-family="Helvetica,sans-Serif" font-size="10.00">/base_object.hpp</text>
</g>
<!-- Node6&#45;&gt;Node7 -->
<g id="edge6" class="edge"><title>Node6&#45;&gt;Node7</title>
<path fill="none" stroke="midnightblue" d="M279.954,-74.3717C278.936,-65.9715 277.341,-52.811 275.935,-41.2126"/>
<polygon fill="midnightblue" stroke="midnightblue" points="279.397,-40.6876 274.719,-31.1815 272.448,-41.53 279.397,-40.6876"/>
</g>
<!-- Node8 -->
<g id="node8" class="node"><title>Node8</title>
<polygon fill="none" stroke="#bfbfbf" points="339,-6.5 339,-25.5 431,-25.5 431,-6.5 339,-6.5"/>
<text text-anchor="middle" x="385" y="-13.5" font-family="Helvetica,sans-Serif" font-size="10.00">FairTimeStamp.h</text>
</g>
<!-- Node6&#45;&gt;Node8 -->
<g id="edge7" class="edge"><title>Node6&#45;&gt;Node8</title>
<path fill="none" stroke="midnightblue" d="M294.596,-74.3717C311.958,-63.3533 342.226,-44.1449 362.917,-31.0142"/>
<polygon fill="midnightblue" stroke="midnightblue" points="364.833,-33.9439 371.4,-25.6305 361.082,-28.0336 364.833,-33.9439"/>
</g>
</g>
</svg>
