<?xml version="1.0" encoding="UTF-8" standalone="no"?>
<!DOCTYPE svg PUBLIC "-//W3C//DTD SVG 1.1//EN"
 "http://www.w3.org/Graphics/SVG/1.1/DTD/svg11.dtd">
<!-- Generated by graphviz version 2.36.0 (20140111.2315)
 -->
<!-- Title: /home/travis/build/AliceO2Group/AliceO2/DataFormats/simulation/test/testBasicHits.cxx Pages: 1 -->
<!--zoomable 322 -->
<svg id="main" version="1.1" xmlns="http://www.w3.org/2000/svg" xmlns:xlink="http://www.w3.org/1999/xlink" xml:space="preserve" onload="init(evt)">
<style type="text/css"><![CDATA[
.edge:hover path { stroke: red; }
.edge:hover polygon { stroke: red; fill: red; }
]]></style>
<script type="text/javascript"><![CDATA[
var edges = document.getElementsByTagName('g');
if (edges && edges.length) {
  for (var i=0;i<edges.length;i++) {
    if (edges[i].id.substr(0,4)=='edge') {
      edges[i].setAttribute('class','edge');
    }
  }
}
]]></script>
        <defs>
                <circle id="rim" cx="0" cy="0" r="7"/>
                <circle id="rim2" cx="0" cy="0" r="3.5"/>
                <g id="zoomPlus">
                        <use xlink:href="#rim" fill="#404040">
                                <set attributeName="fill" to="#808080" begin="zoomplus.mouseover" end="zoomplus.mouseout"/>
                        </use>
                        <path d="M-4,0h8M0,-4v8" fill="none" stroke="white" stroke-width="1.5" pointer-events="none"/>
                </g>
                <g id="zoomMin">
                        <use xlink:href="#rim" fill="#404040">
                                <set attributeName="fill" to="#808080" begin="zoomminus.mouseover" end="zoomminus.mouseout"/>
                        </use>
                        <path d="M-4,0h8" fill="none" stroke="white" stroke-width="1.5" pointer-events="none"/>
                </g>
                <g id="dirArrow">
                        <path fill="none" stroke="white" stroke-width="1.5" d="M0,-3.0v7 M-2.5,-0.5L0,-3.0L2.5,-0.5"/>
                </g>
               <g id="resetDef">
                       <use xlink:href="#rim2" fill="#404040">
                               <set attributeName="fill" to="#808080" begin="reset.mouseover" end="reset.mouseout"/>
                       </use>
               </g>
        </defs>

<script type="text/javascript">
var viewWidth = 1301;
var viewHeight = 322;
var sectionId = 'dynsection-0';
</script>
<script xlink:href="../../svgpan.js"/>
<svg id="graph" class="graph">
<g id="viewport">
<title>/home/travis/build/AliceO2Group/AliceO2/DataFormats/simulation/test/testBasicHits.cxx</title>
<!-- Node1 -->
<g id="node1" class="node"><title>Node1</title>
<polygon fill="#bfbfbf" stroke="black" points="290,-261 290,-313 414,-313 414,-261 290,-261"/>
<text text-anchor="start" x="298" y="-301" font-family="Helvetica,sans-Serif" font-size="10.00">/home/travis/build</text>
<text text-anchor="start" x="298" y="-290" font-family="Helvetica,sans-Serif" font-size="10.00">/AliceO2Group/AliceO2</text>
<text text-anchor="start" x="298" y="-279" font-family="Helvetica,sans-Serif" font-size="10.00">/DataFormats/simulation</text>
<text text-anchor="middle" x="352" y="-268" font-family="Helvetica,sans-Serif" font-size="10.00">/test/testBasicHits.cxx</text>
</g>
<!-- Node2 -->
<g id="node2" class="node"><title>Node2</title>
<polygon fill="none" stroke="#bfbfbf" points="162.5,-198.5 162.5,-217.5 281.5,-217.5 281.5,-198.5 162.5,-198.5"/>
<text text-anchor="middle" x="222" y="-205.5" font-family="Helvetica,sans-Serif" font-size="10.00">boost/test/unit_test.hpp</text>
</g>
<!-- Node1&#45;&gt;Node2 -->
<g id="edge1" class="edge"><title>Node1&#45;&gt;Node2</title>
<path fill="none" stroke="midnightblue" d="M309.433,-260.787C288.19,-248.205 263.303,-233.464 245.525,-222.934"/>
<polygon fill="midnightblue" stroke="midnightblue" points="246.836,-219.643 236.448,-217.558 243.268,-225.665 246.836,-219.643"/>
</g>
<!-- Node3 -->
<g id="node3" class="node"><title>Node3</title>
<g id="a_node3"><a xlink:href="../../d4/d25/BaseHits_8h.html" target="_top" xlink:title="SimulationDataFormat\l/BaseHits.h">
<polygon fill="none" stroke="black" points="338,-193 338,-223 452,-223 452,-193 338,-193"/>
<text text-anchor="start" x="346" y="-211" font-family="Helvetica,sans-Serif" font-size="10.00">SimulationDataFormat</text>
<text text-anchor="middle" x="395" y="-200" font-family="Helvetica,sans-Serif" font-size="10.00">/BaseHits.h</text>
</a>
</g>
</g>
<!-- Node1&#45;&gt;Node3 -->
<g id="edge2" class="edge"><title>Node1&#45;&gt;Node3</title>
<path fill="none" stroke="midnightblue" d="M366.08,-260.787C371.243,-251.542 377.056,-241.132 382.109,-232.083"/>
<polygon fill="midnightblue" stroke="midnightblue" points="385.221,-233.689 387.041,-223.252 379.11,-230.276 385.221,-233.689"/>
</g>
<!-- Node6 -->
<g id="node6" class="node"><title>Node6</title>
<polygon fill="none" stroke="#bfbfbf" points="0,-74.5 0,-93.5 156,-93.5 156,-74.5 0,-74.5"/>
<text text-anchor="middle" x="78" y="-81.5" font-family="Helvetica,sans-Serif" font-size="10.00">Math/GenVector/Transform3D.h</text>
</g>
<!-- Node1&#45;&gt;Node6 -->
<g id="edge15" class="edge"><title>Node1&#45;&gt;Node6</title>
<path fill="none" stroke="midnightblue" d="M339.961,-260.616C329.188,-240.037 311.753,-211.372 290,-192 237.189,-144.969 159.973,-112.926 114.765,-96.9001"/>
<polygon fill="midnightblue" stroke="midnightblue" points="115.676,-93.5116 105.081,-93.5392 113.381,-100.125 115.676,-93.5116"/>
</g>
<!-- Node16 -->
<g id="node16" class="node"><title>Node16</title>
<polygon fill="none" stroke="#bfbfbf" points="470.5,-198.5 470.5,-217.5 517.5,-217.5 517.5,-198.5 470.5,-198.5"/>
<text text-anchor="middle" x="494" y="-205.5" font-family="Helvetica,sans-Serif" font-size="10.00">TFile.h</text>
</g>
<!-- Node1&#45;&gt;Node16 -->
<g id="edge16" class="edge"><title>Node1&#45;&gt;Node16</title>
<path fill="none" stroke="midnightblue" d="M398.496,-260.787C422.13,-247.972 449.892,-232.918 469.374,-222.354"/>
<polygon fill="midnightblue" stroke="midnightblue" points="471.096,-225.401 478.218,-217.558 467.759,-219.248 471.096,-225.401"/>
</g>
<!-- Node4 -->
<g id="node4" class="node"><title>Node4</title>
<g id="a_node4"><a xlink:href="../../dd/d76/Cartesian3D_8h.html" target="_top" xlink:title="MathUtils/Cartesian3D.h">
<polygon fill="none" stroke="black" points="527.5,-136.5 527.5,-155.5 652.5,-155.5 652.5,-136.5 527.5,-136.5"/>
<text text-anchor="middle" x="590" y="-143.5" font-family="Helvetica,sans-Serif" font-size="10.00">MathUtils/Cartesian3D.h</text>
</a>
</g>
</g>
<!-- Node3&#45;&gt;Node4 -->
<g id="edge3" class="edge"><title>Node3&#45;&gt;Node4</title>
<path fill="none" stroke="midnightblue" d="M440.719,-192.933C474.747,-182.462 520.63,-168.345 552.509,-158.536"/>
<polygon fill="midnightblue" stroke="midnightblue" points="553.805,-161.799 562.334,-155.513 551.747,-155.108 553.805,-161.799"/>
</g>
<!-- Node5 -->
<g id="node5" class="node"><title>Node5</title>
<polygon fill="none" stroke="#bfbfbf" points="174.5,-74.5 174.5,-93.5 323.5,-93.5 323.5,-74.5 174.5,-74.5"/>
<text text-anchor="middle" x="249" y="-81.5" font-family="Helvetica,sans-Serif" font-size="10.00">Math/GenVector/Rotation3D.h</text>
</g>
<!-- Node4&#45;&gt;Node5 -->
<g id="edge4" class="edge"><title>Node4&#45;&gt;Node5</title>
<path fill="none" stroke="midnightblue" d="M540.723,-136.422C488.982,-127.404 405.26,-112.778 333,-100 324.415,-98.4819 315.338,-96.869 306.448,-95.2852"/>
<polygon fill="midnightblue" stroke="midnightblue" points="306.987,-91.8262 296.528,-93.516 305.758,-98.7174 306.987,-91.8262"/>
</g>
<!-- Node4&#45;&gt;Node6 -->
<g id="edge5" class="edge"><title>Node4&#45;&gt;Node6</title>
<path fill="none" stroke="midnightblue" d="M527.348,-139.596C444.478,-132.164 293.957,-117.678 166,-100 155.983,-98.6161 145.355,-96.9631 135.079,-95.2682"/>
<polygon fill="midnightblue" stroke="midnightblue" points="135.397,-91.7727 124.955,-93.5678 134.237,-98.676 135.397,-91.7727"/>
</g>
<!-- Node7 -->
<g id="node7" class="node"><title>Node7</title>
<polygon fill="none" stroke="#bfbfbf" points="342,-74.5 342,-93.5 502,-93.5 502,-74.5 342,-74.5"/>
<text text-anchor="middle" x="422" y="-81.5" font-family="Helvetica,sans-Serif" font-size="10.00">Math/GenVector/Translation3D.h</text>
</g>
<!-- Node4&#45;&gt;Node7 -->
<g id="edge6" class="edge"><title>Node4&#45;&gt;Node7</title>
<path fill="none" stroke="midnightblue" d="M565.93,-136.403C536.987,-126.067 488.238,-108.656 455.598,-96.9994"/>
<polygon fill="midnightblue" stroke="midnightblue" points="456.62,-93.6479 446.026,-93.5806 454.266,-100.24 456.62,-93.6479"/>
</g>
<!-- Node8 -->
<g id="node8" class="node"><title>Node8</title>
<polygon fill="none" stroke="#bfbfbf" points="520,-74.5 520,-93.5 576,-93.5 576,-74.5 520,-74.5"/>
<text text-anchor="middle" x="548" y="-81.5" font-family="Helvetica,sans-Serif" font-size="10.00">Rtypes.h</text>
</g>
<!-- Node4&#45;&gt;Node8 -->
<g id="edge7" class="edge"><title>Node4&#45;&gt;Node8</title>
<path fill="none" stroke="midnightblue" d="M583.982,-136.403C577.682,-127.403 567.629,-113.041 559.748,-101.782"/>
<polygon fill="midnightblue" stroke="midnightblue" points="562.608,-99.7658 554.006,-93.5806 556.874,-103.78 562.608,-99.7658"/>
</g>
<!-- Node9 -->
<g id="node9" class="node"><title>Node9</title>
<polygon fill="none" stroke="#bfbfbf" points="594,-74.5 594,-93.5 670,-93.5 670,-74.5 594,-74.5"/>
<text text-anchor="middle" x="632" y="-81.5" font-family="Helvetica,sans-Serif" font-size="10.00">TGeoMatrix.h</text>
</g>
<!-- Node4&#45;&gt;Node9 -->
<g id="edge8" class="edge"><title>Node4&#45;&gt;Node9</title>
<path fill="none" stroke="midnightblue" d="M596.018,-136.403C602.318,-127.403 612.371,-113.041 620.252,-101.782"/>
<polygon fill="midnightblue" stroke="midnightblue" points="623.126,-103.78 625.994,-93.5806 617.392,-99.7658 623.126,-103.78"/>
</g>
<!-- Node10 -->
<g id="node10" class="node"><title>Node10</title>
<polygon fill="none" stroke="#bfbfbf" points="688.5,-69 688.5,-99 839.5,-99 839.5,-69 688.5,-69"/>
<text text-anchor="start" x="696.5" y="-87" font-family="Helvetica,sans-Serif" font-size="10.00">Math/GenVector/Displacement</text>
<text text-anchor="middle" x="764" y="-76" font-family="Helvetica,sans-Serif" font-size="10.00">Vector3D.h</text>
</g>
<!-- Node4&#45;&gt;Node10 -->
<g id="edge9" class="edge"><title>Node4&#45;&gt;Node10</title>
<path fill="none" stroke="midnightblue" d="M614.93,-136.403C640.563,-127.564 681.196,-113.553 713.57,-102.39"/>
<polygon fill="midnightblue" stroke="midnightblue" points="715.014,-105.594 723.327,-99.0253 712.732,-98.9765 715.014,-105.594"/>
</g>
<!-- Node11 -->
<g id="node11" class="node"><title>Node11</title>
<polygon fill="none" stroke="#bfbfbf" points="858,-74.5 858,-93.5 1034,-93.5 1034,-74.5 858,-74.5"/>
<text text-anchor="middle" x="946" y="-81.5" font-family="Helvetica,sans-Serif" font-size="10.00">Math/GenVector/PositionVector3D.h</text>
</g>
<!-- Node4&#45;&gt;Node11 -->
<g id="edge10" class="edge"><title>Node4&#45;&gt;Node11</title>
<path fill="none" stroke="midnightblue" d="M640.628,-136.467C705.082,-125.604 816.328,-106.855 885.275,-95.2346"/>
<polygon fill="midnightblue" stroke="midnightblue" points="886.267,-98.6167 895.547,-93.5034 885.104,-91.7141 886.267,-98.6167"/>
</g>
<!-- Node12 -->
<g id="node12" class="node"><title>Node12</title>
<g id="a_node12"><a xlink:href="../../d2/dd0/Cartesian2D_8h.html" target="_top" xlink:title="MathUtils/Cartesian2D.h">
<polygon fill="none" stroke="black" points="1051.5,-74.5 1051.5,-93.5 1176.5,-93.5 1176.5,-74.5 1051.5,-74.5"/>
<text text-anchor="middle" x="1114" y="-81.5" font-family="Helvetica,sans-Serif" font-size="10.00">MathUtils/Cartesian2D.h</text>
</a>
</g>
</g>
<!-- Node4&#45;&gt;Node12 -->
<g id="edge11" class="edge"><title>Node4&#45;&gt;Node12</title>
<path fill="none" stroke="midnightblue" d="M652.779,-140.866C740.312,-134.621 903.839,-121.208 1042,-100 1050.08,-98.7604 1058.61,-97.2035 1066.87,-95.5652"/>
<polygon fill="midnightblue" stroke="midnightblue" points="1067.67,-98.9747 1076.77,-93.5424 1066.27,-92.1166 1067.67,-98.9747"/>
</g>
<!-- Node15 -->
<g id="node15" class="node"><title>Node15</title>
<polygon fill="none" stroke="#bfbfbf" points="1195,-74.5 1195,-93.5 1249,-93.5 1249,-74.5 1195,-74.5"/>
<text text-anchor="middle" x="1222" y="-81.5" font-family="Helvetica,sans-Serif" font-size="10.00">iostream</text>
</g>
<!-- Node4&#45;&gt;Node15 -->
<g id="edge14" class="edge"><title>Node4&#45;&gt;Node15</title>
<path fill="none" stroke="midnightblue" d="M652.659,-142.713C784.204,-137.51 1085.21,-123.398 1185,-100 1188.07,-99.2795 1191.22,-98.3408 1194.33,-97.2843"/>
<polygon fill="midnightblue" stroke="midnightblue" points="1195.82,-100.46 1203.92,-93.6311 1193.33,-93.9175 1195.82,-100.46"/>
</g>
<!-- Node13 -->
<g id="node13" class="node"><title>Node13</title>
<polygon fill="none" stroke="#bfbfbf" points="947.5,-1 947.5,-31 1098.5,-31 1098.5,-1 947.5,-1"/>
<text text-anchor="start" x="955.5" y="-19" font-family="Helvetica,sans-Serif" font-size="10.00">Math/GenVector/Displacement</text>
<text text-anchor="middle" x="1023" y="-8" font-family="Helvetica,sans-Serif" font-size="10.00">Vector2D.h</text>
</g>
<!-- Node12&#45;&gt;Node13 -->
<g id="edge12" class="edge"><title>Node12&#45;&gt;Node13</title>
<path fill="none" stroke="midnightblue" d="M1102.1,-74.3717C1089.22,-65.0286 1068.22,-49.7966 1051.09,-37.375"/>
<polygon fill="midnightblue" stroke="midnightblue" points="1052.7,-34.2194 1042.55,-31.1815 1048.59,-39.8859 1052.7,-34.2194"/>
</g>
<!-- Node14 -->
<g id="node14" class="node"><title>Node14</title>
<polygon fill="none" stroke="#bfbfbf" points="1117,-6.5 1117,-25.5 1293,-25.5 1293,-6.5 1117,-6.5"/>
<text text-anchor="middle" x="1205" y="-13.5" font-family="Helvetica,sans-Serif" font-size="10.00">Math/GenVector/PositionVector2D.h</text>
</g>
<!-- Node12&#45;&gt;Node14 -->
<g id="edge13" class="edge"><title>Node12&#45;&gt;Node14</title>
<path fill="none" stroke="midnightblue" d="M1125.9,-74.3717C1140.88,-63.5015 1166.86,-44.6602 1184.94,-31.5474"/>
<polygon fill="midnightblue" stroke="midnightblue" points="1187.06,-34.3349 1193.1,-25.6305 1182.95,-28.6684 1187.06,-34.3349"/>
</g>
</g>
</svg>
        <g id="navigator" transform="translate(0 0)" fill="#404254">
                <rect fill="#f2f5e9" fill-opacity="0.5" stroke="#606060" stroke-width=".5" x="0" y="0" width="60" height="60"/>
                <use id="zoomplus" xlink:href="#zoomPlus" x="17" y="9" onmousedown="handleZoom(evt,'in')"/>
                <use id="zoomminus" xlink:href="#zoomMin" x="42" y="9" onmousedown="handleZoom(evt,'out')"/>
                <use id="reset" xlink:href="#resetDef" x="30" y="36" onmousedown="handleReset()"/>
                <g id="arrowUp" xlink:href="#dirArrow" transform="translate(30 24)" onmousedown="handlePan(0,-1)">
                  <use xlink:href="#rim" fill="#404040">
                        <set attributeName="fill" to="#808080" begin="arrowUp.mouseover" end="arrowUp.mouseout"/>
                  </use>
                  <path fill="none" stroke="white" stroke-width="1.5" d="M0,-3.0v7 M-2.5,-0.5L0,-3.0L2.5,-0.5"/>
                </g>
                <g id="arrowRight" xlink:href="#dirArrow" transform="rotate(90) translate(36 -43)" onmousedown="handlePan(1,0)">
                  <use xlink:href="#rim" fill="#404040">
                        <set attributeName="fill" to="#808080" begin="arrowRight.mouseover" end="arrowRight.mouseout"/>
                  </use>
                  <path fill="none" stroke="white" stroke-width="1.5" d="M0,-3.0v7 M-2.5,-0.5L0,-3.0L2.5,-0.5"/>
                </g>
                <g id="arrowDown" xlink:href="#dirArrow" transform="rotate(180) translate(-30 -48)" onmousedown="handlePan(0,1)">
                  <use xlink:href="#rim" fill="#404040">
                        <set attributeName="fill" to="#808080" begin="arrowDown.mouseover" end="arrowDown.mouseout"/>
                  </use>
                  <path fill="none" stroke="white" stroke-width="1.5" d="M0,-3.0v7 M-2.5,-0.5L0,-3.0L2.5,-0.5"/>
                </g>
                <g id="arrowLeft" xlink:href="#dirArrow" transform="rotate(270) translate(-36 17)" onmousedown="handlePan(-1,0)">
                  <use xlink:href="#rim" fill="#404040">
                        <set attributeName="fill" to="#808080" begin="arrowLeft.mouseover" end="arrowLeft.mouseout"/>
                  </use>
                  <path fill="none" stroke="white" stroke-width="1.5" d="M0,-3.0v7 M-2.5,-0.5L0,-3.0L2.5,-0.5"/>
                </g>
        </g>
        <svg viewBox="0 0 15 15" width="100%" height="30px" preserveAspectRatio="xMaxYMin meet">
         <g id="arrow_out" transform="scale(0.3 0.3)">
          <a xlink:href="testBasicHits_8cxx__incl_org.svg" target="_base">
           <rect id="button" ry="5" rx="5" y="6" x="6" height="38" width="38"
                fill="#f2f5e9" fill-opacity="0.5" stroke="#606060" stroke-width="1.0"/>
           <path id="arrow"
             d="M 11.500037,31.436501 C 11.940474,20.09759 22.043105,11.32322 32.158766,21.979434 L 37.068811,17.246167 C 37.068811,17.246167 37.088388,32 37.088388,32 L 22.160133,31.978069 C 22.160133,31.978069 26.997745,27.140456 26.997745,27.140456 C 18.528582,18.264221 13.291696,25.230495 11.500037,31.436501 z"
             style="fill:#404040;"/>
          </a>
         </g>
        </svg>
</svg>
