<?xml version="1.0" encoding="UTF-8" standalone="no"?>
<!DOCTYPE svg PUBLIC "-//W3C//DTD SVG 1.1//EN"
 "http://www.w3.org/Graphics/SVG/1.1/DTD/svg11.dtd">
<!-- Generated by graphviz version 2.36.0 (20140111.2315)
 -->
<!-- Title: /home/travis/build/AliceO2Group/AliceO2/EventVisualisation/Base/src/EventManager.cxx Pages: 1 -->
<svg width="1703pt" height="310pt"
 viewBox="0.00 0.00 1703.00 310.00" xmlns="http://www.w3.org/2000/svg" xmlns:xlink="http://www.w3.org/1999/xlink">
<g id="graph0" class="graph" transform="scale(1 1) rotate(0) translate(4 306)">
<title>/home/travis/build/AliceO2Group/AliceO2/EventVisualisation/Base/src/EventManager.cxx</title>
<!-- Node1 -->
<g id="node1" class="node"><title>Node1</title>
<polygon fill="#bfbfbf" stroke="black" points="1012,-249 1012,-301 1138,-301 1138,-249 1012,-249"/>
<text text-anchor="start" x="1020" y="-289" font-family="Helvetica,sans-Serif" font-size="10.00">/home/travis/build</text>
<text text-anchor="start" x="1020" y="-278" font-family="Helvetica,sans-Serif" font-size="10.00">/AliceO2Group/AliceO2</text>
<text text-anchor="start" x="1020" y="-267" font-family="Helvetica,sans-Serif" font-size="10.00">/EventVisualisation/Base</text>
<text text-anchor="middle" x="1075" y="-256" font-family="Helvetica,sans-Serif" font-size="10.00">/src/EventManager.cxx</text>
</g>
<!-- Node2 -->
<g id="node2" class="node"><title>Node2</title>
<g id="a_node2"><a xlink:href="../../d8/d25/EventManager_8h.html" target="_top" xlink:title="EventVisualisationBase\l/EventManager.h">
<polygon fill="none" stroke="black" points="381,-181 381,-211 501,-211 501,-181 381,-181"/>
<text text-anchor="start" x="389" y="-199" font-family="Helvetica,sans-Serif" font-size="10.00">EventVisualisationBase</text>
<text text-anchor="middle" x="441" y="-188" font-family="Helvetica,sans-Serif" font-size="10.00">/EventManager.h</text>
</a>
</g>
</g>
<!-- Node1&#45;&gt;Node2 -->
<g id="edge1" class="edge"><title>Node1&#45;&gt;Node2</title>
<path fill="none" stroke="midnightblue" d="M1011.89,-266.335C892.776,-251.869 635.634,-220.639 511.235,-205.53"/>
<polygon fill="midnightblue" stroke="midnightblue" points="511.414,-202.026 501.065,-204.295 510.57,-208.975 511.414,-202.026"/>
</g>
<!-- Node17 -->
<g id="node17" class="node"><title>Node17</title>
<polygon fill="none" stroke="#bfbfbf" points="117,-118.5 117,-137.5 201,-137.5 201,-118.5 117,-118.5"/>
<text text-anchor="middle" x="159" y="-125.5" font-family="Helvetica,sans-Serif" font-size="10.00">TEveElement.h</text>
</g>
<!-- Node1&#45;&gt;Node17 -->
<g id="edge39" class="edge"><title>Node1&#45;&gt;Node17</title>
<path fill="none" stroke="midnightblue" d="M1012,-274.378C887.826,-273.827 603.447,-266.135 372,-212 302.174,-195.668 224.806,-161.043 185.328,-142.083"/>
<polygon fill="midnightblue" stroke="midnightblue" points="186.659,-138.839 176.135,-137.621 183.603,-145.137 186.659,-138.839"/>
</g>
<!-- Node21 -->
<g id="node21" class="node"><title>Node21</title>
<g id="a_node21"><a xlink:href="../../d9/dac/MinimalisticEvent_8h.html" target="_top" xlink:title="EventVisualisationDataConverter\l/MinimalisticEvent.h">
<polygon fill="none" stroke="black" points="612.5,-181 612.5,-211 773.5,-211 773.5,-181 612.5,-181"/>
<text text-anchor="start" x="620.5" y="-199" font-family="Helvetica,sans-Serif" font-size="10.00">EventVisualisationDataConverter</text>
<text text-anchor="middle" x="693" y="-188" font-family="Helvetica,sans-Serif" font-size="10.00">/MinimalisticEvent.h</text>
</a>
</g>
</g>
<!-- Node1&#45;&gt;Node21 -->
<g id="edge21" class="edge"><title>Node1&#45;&gt;Node21</title>
<path fill="none" stroke="midnightblue" d="M1011.92,-261.285C946.345,-248.067 843.54,-227.344 772.46,-213.017"/>
<polygon fill="midnightblue" stroke="midnightblue" points="773.143,-209.584 762.648,-211.039 771.759,-216.446 773.143,-209.584"/>
</g>
<!-- Node27 -->
<g id="node27" class="node"><title>Node27</title>
<g id="a_node27"><a xlink:href="../../d3/d31/EventVisualisation_2Base_2include_2EventVisualisationBase_2Track_8h.html" target="_top" xlink:title="EventVisualisationBase\l/Track.h">
<polygon fill="none" stroke="black" points="792,-181 792,-211 912,-211 912,-181 792,-181"/>
<text text-anchor="start" x="800" y="-199" font-family="Helvetica,sans-Serif" font-size="10.00">EventVisualisationBase</text>
<text text-anchor="middle" x="852" y="-188" font-family="Helvetica,sans-Serif" font-size="10.00">/Track.h</text>
</a>
</g>
</g>
<!-- Node1&#45;&gt;Node27 -->
<g id="edge31" class="edge"><title>Node1&#45;&gt;Node27</title>
<path fill="none" stroke="midnightblue" d="M1011.99,-252.244C977.325,-240.274 934.892,-225.622 902.438,-214.416"/>
<polygon fill="midnightblue" stroke="midnightblue" points="903.301,-211.011 892.707,-211.056 901.017,-217.628 903.301,-211.011"/>
</g>
<!-- Node28 -->
<g id="node28" class="node"><title>Node28</title>
<polygon fill="none" stroke="#bfbfbf" points="896.5,-118.5 896.5,-137.5 969.5,-137.5 969.5,-118.5 896.5,-118.5"/>
<text text-anchor="middle" x="933" y="-125.5" font-family="Helvetica,sans-Serif" font-size="10.00">TEveTrack.h</text>
</g>
<!-- Node1&#45;&gt;Node28 -->
<g id="edge42" class="edge"><title>Node1&#45;&gt;Node28</title>
<path fill="none" stroke="midnightblue" d="M1011.79,-251.251C992.586,-241.687 972.911,-228.794 959,-212 943.685,-193.51 937.364,-165.97 934.773,-147.755"/>
<polygon fill="midnightblue" stroke="midnightblue" points="938.244,-147.302 933.595,-137.782 931.293,-148.124 938.244,-147.302"/>
</g>
<!-- Node29 -->
<g id="node29" class="node"><title>Node29</title>
<g id="a_node29"><a xlink:href="../../db/d9e/ConfigurationManager_8h.html" target="_top" xlink:title="EventVisualisationBase\l/ConfigurationManager.h">
<polygon fill="none" stroke="black" points="968.5,-181 968.5,-211 1091.5,-211 1091.5,-181 968.5,-181"/>
<text text-anchor="start" x="976.5" y="-199" font-family="Helvetica,sans-Serif" font-size="10.00">EventVisualisationBase</text>
<text text-anchor="middle" x="1030" y="-188" font-family="Helvetica,sans-Serif" font-size="10.00">/ConfigurationManager.h</text>
</a>
</g>
</g>
<!-- Node1&#45;&gt;Node29 -->
<g id="edge33" class="edge"><title>Node1&#45;&gt;Node29</title>
<path fill="none" stroke="midnightblue" d="M1060.27,-248.787C1054.86,-239.542 1048.78,-229.132 1043.49,-220.083"/>
<polygon fill="midnightblue" stroke="midnightblue" points="1046.4,-218.12 1038.33,-211.252 1040.35,-221.652 1046.4,-218.12"/>
</g>
<!-- Node30 -->
<g id="node30" class="node"><title>Node30</title>
<polygon fill="none" stroke="#bfbfbf" points="1051,-118.5 1051,-137.5 1099,-137.5 1099,-118.5 1051,-118.5"/>
<text text-anchor="middle" x="1075" y="-125.5" font-family="Helvetica,sans-Serif" font-size="10.00">TEnv.h</text>
</g>
<!-- Node1&#45;&gt;Node30 -->
<g id="edge38" class="edge"><title>Node1&#45;&gt;Node30</title>
<path fill="none" stroke="midnightblue" d="M1088.5,-248.974C1097.02,-230.098 1105.46,-203.524 1100,-180 1097.26,-168.165 1091.36,-155.91 1085.99,-146.379"/>
<polygon fill="midnightblue" stroke="midnightblue" points="1088.86,-144.358 1080.73,-137.566 1082.85,-147.946 1088.86,-144.358"/>
</g>
<!-- Node31 -->
<g id="node31" class="node"><title>Node31</title>
<polygon fill="none" stroke="#bfbfbf" points="1148,-186.5 1148,-205.5 1234,-205.5 1234,-186.5 1148,-186.5"/>
<text text-anchor="middle" x="1191" y="-193.5" font-family="Helvetica,sans-Serif" font-size="10.00">TEveManager.h</text>
</g>
<!-- Node1&#45;&gt;Node31 -->
<g id="edge35" class="edge"><title>Node1&#45;&gt;Node31</title>
<path fill="none" stroke="midnightblue" d="M1112.98,-248.787C1131.76,-236.321 1153.73,-221.737 1169.57,-211.228"/>
<polygon fill="midnightblue" stroke="midnightblue" points="1171.71,-214.004 1178.11,-205.558 1167.84,-208.172 1171.71,-214.004"/>
</g>
<!-- Node32 -->
<g id="node32" class="node"><title>Node32</title>
<polygon fill="none" stroke="#bfbfbf" points="1252.5,-186.5 1252.5,-205.5 1381.5,-205.5 1381.5,-186.5 1252.5,-186.5"/>
<text text-anchor="middle" x="1317" y="-193.5" font-family="Helvetica,sans-Serif" font-size="10.00">TEveProjectionManager.h</text>
</g>
<!-- Node1&#45;&gt;Node32 -->
<g id="edge36" class="edge"><title>Node1&#45;&gt;Node32</title>
<path fill="none" stroke="midnightblue" d="M1138.27,-253.87C1183.52,-239.471 1242.84,-220.596 1280.45,-208.629"/>
<polygon fill="midnightblue" stroke="midnightblue" points="1281.52,-211.962 1289.99,-205.595 1279.4,-205.292 1281.52,-211.962"/>
</g>
<!-- Node33 -->
<g id="node33" class="node"><title>Node33</title>
<polygon fill="none" stroke="#bfbfbf" points="1399.5,-186.5 1399.5,-205.5 1464.5,-205.5 1464.5,-186.5 1399.5,-186.5"/>
<text text-anchor="middle" x="1432" y="-193.5" font-family="Helvetica,sans-Serif" font-size="10.00">TSystem.h</text>
</g>
<!-- Node1&#45;&gt;Node33 -->
<g id="edge37" class="edge"><title>Node1&#45;&gt;Node33</title>
<path fill="none" stroke="midnightblue" d="M1138.1,-264.419C1202.15,-254.031 1303.89,-235.711 1390,-212 1393.39,-211.067 1396.89,-209.994 1400.37,-208.859"/>
<polygon fill="midnightblue" stroke="midnightblue" points="1401.64,-212.123 1409.96,-205.564 1399.37,-205.502 1401.64,-212.123"/>
</g>
<!-- Node34 -->
<g id="node34" class="node"><title>Node34</title>
<polygon fill="none" stroke="#bfbfbf" points="1483,-186.5 1483,-205.5 1603,-205.5 1603,-186.5 1483,-186.5"/>
<text text-anchor="middle" x="1543" y="-193.5" font-family="Helvetica,sans-Serif" font-size="10.00">TEveTrackPropagator.h</text>
</g>
<!-- Node1&#45;&gt;Node34 -->
<g id="edge40" class="edge"><title>Node1&#45;&gt;Node34</title>
<path fill="none" stroke="midnightblue" d="M1138.26,-265.272C1216.93,-254.159 1355.24,-233.771 1473,-212 1480.14,-210.68 1487.67,-209.18 1495.04,-207.653"/>
<polygon fill="midnightblue" stroke="midnightblue" points="1495.87,-211.055 1504.93,-205.566 1494.42,-204.205 1495.87,-211.055"/>
</g>
<!-- Node35 -->
<g id="node35" class="node"><title>Node35</title>
<polygon fill="none" stroke="#bfbfbf" points="1621,-186.5 1621,-205.5 1695,-205.5 1695,-186.5 1621,-186.5"/>
<text text-anchor="middle" x="1658" y="-193.5" font-family="Helvetica,sans-Serif" font-size="10.00">TGListTree.h</text>
</g>
<!-- Node1&#45;&gt;Node35 -->
<g id="edge41" class="edge"><title>Node1&#45;&gt;Node35</title>
<path fill="none" stroke="midnightblue" d="M1138.36,-270.654C1239.32,-264.434 1442.5,-248.276 1611,-212 1615.45,-211.041 1620.09,-209.833 1624.63,-208.521"/>
<polygon fill="midnightblue" stroke="midnightblue" points="1625.8,-211.823 1634.33,-205.539 1623.74,-205.132 1625.8,-211.823"/>
</g>
<!-- Node3 -->
<g id="node3" class="node"><title>Node3</title>
<g id="a_node3"><a xlink:href="../../d1/da0/Manager_8h.html" target="_top" xlink:title="CCDB/Manager.h">
<polygon fill="none" stroke="black" points="219.5,-118.5 219.5,-137.5 314.5,-137.5 314.5,-118.5 219.5,-118.5"/>
<text text-anchor="middle" x="267" y="-125.5" font-family="Helvetica,sans-Serif" font-size="10.00">CCDB/Manager.h</text>
</a>
</g>
</g>
<!-- Node2&#45;&gt;Node3 -->
<g id="edge2" class="edge"><title>Node2&#45;&gt;Node3</title>
<path fill="none" stroke="midnightblue" d="M403.673,-180.841C372.541,-169.033 328.649,-152.384 299.078,-141.168"/>
<polygon fill="midnightblue" stroke="midnightblue" points="300.229,-137.861 289.638,-137.587 297.747,-144.406 300.229,-137.861"/>
</g>
<!-- Node2&#45;&gt;Node17 -->
<g id="edge17" class="edge"><title>Node2&#45;&gt;Node17</title>
<path fill="none" stroke="midnightblue" d="M380.904,-182.914C334.124,-173.222 267.675,-158.83 210,-144 205.608,-142.871 201.022,-141.622 196.48,-140.342"/>
<polygon fill="midnightblue" stroke="midnightblue" points="197.275,-136.928 186.696,-137.522 195.336,-143.655 197.275,-136.928"/>
</g>
<!-- Node18 -->
<g id="node18" class="node"><title>Node18</title>
<polygon fill="none" stroke="#bfbfbf" points="332.5,-118.5 332.5,-137.5 443.5,-137.5 443.5,-118.5 332.5,-118.5"/>
<text text-anchor="middle" x="388" y="-125.5" font-family="Helvetica,sans-Serif" font-size="10.00">TEveEventManager.h</text>
</g>
<!-- Node2&#45;&gt;Node18 -->
<g id="edge18" class="edge"><title>Node2&#45;&gt;Node18</title>
<path fill="none" stroke="midnightblue" d="M429.5,-180.679C421.236,-170.388 410.07,-156.484 401.402,-145.69"/>
<polygon fill="midnightblue" stroke="midnightblue" points="404.08,-143.434 395.089,-137.828 398.622,-147.817 404.08,-143.434"/>
</g>
<!-- Node19 -->
<g id="node19" class="node"><title>Node19</title>
<polygon fill="none" stroke="#bfbfbf" points="461.5,-118.5 461.5,-137.5 528.5,-137.5 528.5,-118.5 461.5,-118.5"/>
<text text-anchor="middle" x="495" y="-125.5" font-family="Helvetica,sans-Serif" font-size="10.00">TQObject.h</text>
</g>
<!-- Node2&#45;&gt;Node19 -->
<g id="edge19" class="edge"><title>Node2&#45;&gt;Node19</title>
<path fill="none" stroke="midnightblue" d="M452.717,-180.679C461.137,-170.388 472.513,-156.484 481.345,-145.69"/>
<polygon fill="midnightblue" stroke="midnightblue" points="484.153,-147.784 487.777,-137.828 478.736,-143.352 484.153,-147.784"/>
</g>
<!-- Node20 -->
<g id="node20" class="node"><title>Node20</title>
<polygon fill="none" stroke="#bfbfbf" points="640.5,-0.5 640.5,-19.5 681.5,-19.5 681.5,-0.5 640.5,-0.5"/>
<text text-anchor="middle" x="661" y="-7.5" font-family="Helvetica,sans-Serif" font-size="10.00">string</text>
</g>
<!-- Node2&#45;&gt;Node20 -->
<g id="edge20" class="edge"><title>Node2&#45;&gt;Node20</title>
<path fill="none" stroke="midnightblue" d="M473.728,-180.95C493.082,-171.851 517.534,-158.933 537,-144 583.358,-108.438 627.498,-54.7802 648.396,-27.7792"/>
<polygon fill="midnightblue" stroke="midnightblue" points="651.272,-29.78 654.562,-19.7089 645.71,-25.5302 651.272,-29.78"/>
</g>
<!-- Node4 -->
<g id="node4" class="node"><title>Node4</title>
<polygon fill="none" stroke="#bfbfbf" points="-0.5,-56.5 -0.5,-75.5 46.5,-75.5 46.5,-56.5 -0.5,-56.5"/>
<text text-anchor="middle" x="23" y="-63.5" font-family="Helvetica,sans-Serif" font-size="10.00">TList.h</text>
</g>
<!-- Node3&#45;&gt;Node4 -->
<g id="edge3" class="edge"><title>Node3&#45;&gt;Node4</title>
<path fill="none" stroke="midnightblue" d="M234.516,-118.465C226.206,-116.318 217.28,-114.045 209,-112 144.227,-96.0058 125.38,-93.4077 56.7857,-76.1277"/>
<polygon fill="midnightblue" stroke="midnightblue" points="57.3201,-72.6525 46.7667,-73.589 55.6006,-79.4381 57.3201,-72.6525"/>
</g>
<!-- Node5 -->
<g id="node5" class="node"><title>Node5</title>
<polygon fill="none" stroke="#bfbfbf" points="65,-56.5 65,-75.5 115,-75.5 115,-56.5 65,-56.5"/>
<text text-anchor="middle" x="90" y="-63.5" font-family="Helvetica,sans-Serif" font-size="10.00">TMap.h</text>
</g>
<!-- Node3&#45;&gt;Node5 -->
<g id="edge4" class="edge"><title>Node3&#45;&gt;Node5</title>
<path fill="none" stroke="midnightblue" d="M241.64,-118.403C210.929,-107.993 159.049,-90.4066 124.662,-78.7498"/>
<polygon fill="midnightblue" stroke="midnightblue" points="125.621,-75.3794 115.027,-75.4837 123.374,-82.0088 125.621,-75.3794"/>
</g>
<!-- Node6 -->
<g id="node6" class="node"><title>Node6</title>
<polygon fill="none" stroke="#bfbfbf" points="120.5,-0.5 120.5,-19.5 179.5,-19.5 179.5,-0.5 120.5,-0.5"/>
<text text-anchor="middle" x="150" y="-7.5" font-family="Helvetica,sans-Serif" font-size="10.00">TObject.h</text>
</g>
<!-- Node3&#45;&gt;Node6 -->
<g id="edge5" class="edge"><title>Node3&#45;&gt;Node6</title>
<path fill="none" stroke="midnightblue" d="M230.674,-118.425C207.494,-111.05 178.754,-98.0117 162,-76 152.009,-62.8739 149.455,-43.9939 149.136,-29.9608"/>
<polygon fill="midnightblue" stroke="midnightblue" points="152.641,-29.5929 149.279,-19.5456 145.641,-29.4964 152.641,-29.5929"/>
</g>
<!-- Node7 -->
<g id="node7" class="node"><title>Node7</title>
<polygon fill="none" stroke="#bfbfbf" points="171.5,-56.5 171.5,-75.5 220.5,-75.5 220.5,-56.5 171.5,-56.5"/>
<text text-anchor="middle" x="196" y="-63.5" font-family="Helvetica,sans-Serif" font-size="10.00">cstddef</text>
</g>
<!-- Node3&#45;&gt;Node7 -->
<g id="edge6" class="edge"><title>Node3&#45;&gt;Node7</title>
<path fill="none" stroke="midnightblue" d="M256.827,-118.403C245.65,-108.958 227.483,-93.6056 213.909,-82.1342"/>
<polygon fill="midnightblue" stroke="midnightblue" points="216.051,-79.3619 206.154,-75.5806 211.533,-84.7085 216.051,-79.3619"/>
</g>
<!-- Node8 -->
<g id="node8" class="node"><title>Node8</title>
<polygon fill="none" stroke="#bfbfbf" points="239,-56.5 239,-75.5 295,-75.5 295,-56.5 239,-56.5"/>
<text text-anchor="middle" x="267" y="-63.5" font-family="Helvetica,sans-Serif" font-size="10.00">Rtypes.h</text>
</g>
<!-- Node3&#45;&gt;Node8 -->
<g id="edge7" class="edge"><title>Node3&#45;&gt;Node8</title>
<path fill="none" stroke="midnightblue" d="M267,-118.403C267,-109.938 267,-96.7283 267,-85.8199"/>
<polygon fill="midnightblue" stroke="midnightblue" points="270.5,-85.5806 267,-75.5806 263.5,-85.5806 270.5,-85.5806"/>
</g>
<!-- Node9 -->
<g id="node9" class="node"><title>Node9</title>
<polygon fill="none" stroke="#bfbfbf" points="313,-56.5 313,-75.5 369,-75.5 369,-56.5 313,-56.5"/>
<text text-anchor="middle" x="341" y="-63.5" font-family="Helvetica,sans-Serif" font-size="10.00">TString.h</text>
</g>
<!-- Node3&#45;&gt;Node9 -->
<g id="edge8" class="edge"><title>Node3&#45;&gt;Node9</title>
<path fill="none" stroke="midnightblue" d="M277.602,-118.403C289.252,-108.958 308.186,-93.6056 322.335,-82.1342"/>
<polygon fill="midnightblue" stroke="midnightblue" points="324.854,-84.5973 330.417,-75.5806 320.445,-79.16 324.854,-84.5973"/>
</g>
<!-- Node10 -->
<g id="node10" class="node"><title>Node10</title>
<g id="a_node10"><a xlink:href="../../d7/d44/TObjectWrapper_8h.html" target="_top" xlink:title="CCDB/TObjectWrapper.h">
<polygon fill="none" stroke="black" points="387,-56.5 387,-75.5 515,-75.5 515,-56.5 387,-56.5"/>
<text text-anchor="middle" x="451" y="-63.5" font-family="Helvetica,sans-Serif" font-size="10.00">CCDB/TObjectWrapper.h</text>
</a>
</g>
</g>
<!-- Node3&#45;&gt;Node10 -->
<g id="edge9" class="edge"><title>Node3&#45;&gt;Node10</title>
<path fill="none" stroke="midnightblue" d="M293.363,-118.403C325.335,-107.978 379.376,-90.3557 415.122,-78.6992"/>
<polygon fill="midnightblue" stroke="midnightblue" points="416.264,-82.0084 424.686,-75.5806 414.094,-75.3533 416.264,-82.0084"/>
</g>
<!-- Node10&#45;&gt;Node6 -->
<g id="edge11" class="edge"><title>Node10&#45;&gt;Node6</title>
<path fill="none" stroke="midnightblue" d="M401.111,-56.4775C349.67,-47.6238 267.156,-33.2383 196,-20 193.937,-19.6163 191.824,-19.2186 189.69,-18.8136"/>
<polygon fill="midnightblue" stroke="midnightblue" points="190.159,-15.3397 179.678,-16.8905 188.839,-22.2141 190.159,-15.3397"/>
</g>
<!-- Node11 -->
<g id="node11" class="node"><title>Node11</title>
<polygon fill="none" stroke="#bfbfbf" points="205,-0.5 205,-19.5 261,-19.5 261,-0.5 205,-0.5"/>
<text text-anchor="middle" x="233" y="-7.5" font-family="Helvetica,sans-Serif" font-size="10.00">TClass.h</text>
</g>
<!-- Node10&#45;&gt;Node11 -->
<g id="edge10" class="edge"><title>Node10&#45;&gt;Node11</title>
<path fill="none" stroke="midnightblue" d="M416.457,-56.4435C376.834,-46.6286 312.066,-30.5852 271.033,-20.421"/>
<polygon fill="midnightblue" stroke="midnightblue" points="271.69,-16.9781 261.142,-17.971 270.007,-23.7728 271.69,-16.9781"/>
</g>
<!-- Node12 -->
<g id="node12" class="node"><title>Node12</title>
<polygon fill="none" stroke="#bfbfbf" points="279.5,-0.5 279.5,-19.5 332.5,-19.5 332.5,-0.5 279.5,-0.5"/>
<text text-anchor="middle" x="306" y="-7.5" font-family="Helvetica,sans-Serif" font-size="10.00">cxxabi.h</text>
</g>
<!-- Node10&#45;&gt;Node12 -->
<g id="edge12" class="edge"><title>Node10&#45;&gt;Node12</title>
<path fill="none" stroke="midnightblue" d="M428.024,-56.4435C403.843,-47.4381 365.582,-33.1891 338.354,-23.049"/>
<polygon fill="midnightblue" stroke="midnightblue" points="339.461,-19.7265 328.868,-19.5164 337.018,-26.2864 339.461,-19.7265"/>
</g>
<!-- Node13 -->
<g id="node13" class="node"><title>Node13</title>
<polygon fill="none" stroke="#bfbfbf" points="568,-0.5 568,-19.5 622,-19.5 622,-0.5 568,-0.5"/>
<text text-anchor="middle" x="595" y="-7.5" font-family="Helvetica,sans-Serif" font-size="10.00">iostream</text>
</g>
<!-- Node10&#45;&gt;Node13 -->
<g id="edge13" class="edge"><title>Node10&#45;&gt;Node13</title>
<path fill="none" stroke="midnightblue" d="M473.817,-56.4435C497.832,-47.4381 535.829,-33.1891 562.869,-23.049"/>
<polygon fill="midnightblue" stroke="midnightblue" points="564.155,-26.3049 572.29,-19.5164 561.697,-19.7506 564.155,-26.3049"/>
</g>
<!-- Node14 -->
<g id="node14" class="node"><title>Node14</title>
<polygon fill="none" stroke="#bfbfbf" points="351,-0.5 351,-19.5 403,-19.5 403,-0.5 351,-0.5"/>
<text text-anchor="middle" x="377" y="-7.5" font-family="Helvetica,sans-Serif" font-size="10.00">memory</text>
</g>
<!-- Node10&#45;&gt;Node14 -->
<g id="edge14" class="edge"><title>Node10&#45;&gt;Node14</title>
<path fill="none" stroke="midnightblue" d="M439.111,-56.324C427.85,-48.1066 410.713,-35.6017 397.291,-25.8069"/>
<polygon fill="midnightblue" stroke="midnightblue" points="399.247,-22.9014 389.106,-19.8339 395.12,-28.5559 399.247,-22.9014"/>
</g>
<!-- Node15 -->
<g id="node15" class="node"><title>Node15</title>
<polygon fill="none" stroke="#bfbfbf" points="421.5,-0.5 421.5,-19.5 480.5,-19.5 480.5,-0.5 421.5,-0.5"/>
<text text-anchor="middle" x="451" y="-7.5" font-family="Helvetica,sans-Serif" font-size="10.00">stdexcept</text>
</g>
<!-- Node10&#45;&gt;Node15 -->
<g id="edge15" class="edge"><title>Node10&#45;&gt;Node15</title>
<path fill="none" stroke="midnightblue" d="M451,-56.083C451,-49.0059 451,-38.8611 451,-29.9865"/>
<polygon fill="midnightblue" stroke="midnightblue" points="454.5,-29.751 451,-19.7511 447.5,-29.7511 454.5,-29.751"/>
</g>
<!-- Node16 -->
<g id="node16" class="node"><title>Node16</title>
<polygon fill="none" stroke="#bfbfbf" points="498.5,-0.5 498.5,-19.5 549.5,-19.5 549.5,-0.5 498.5,-0.5"/>
<text text-anchor="middle" x="524" y="-7.5" font-family="Helvetica,sans-Serif" font-size="10.00">typeinfo</text>
</g>
<!-- Node10&#45;&gt;Node16 -->
<g id="edge16" class="edge"><title>Node10&#45;&gt;Node16</title>
<path fill="none" stroke="midnightblue" d="M462.729,-56.324C473.837,-48.1066 490.742,-35.6017 503.983,-25.8069"/>
<polygon fill="midnightblue" stroke="midnightblue" points="506.1,-28.5948 512.058,-19.8339 501.937,-22.9671 506.1,-28.5948"/>
</g>
<!-- Node22 -->
<g id="node22" class="node"><title>Node22</title>
<g id="a_node22"><a xlink:href="../../d9/d72/MinimalisticTrack_8h.html" target="_top" xlink:title="EventVisualisationDataConverter\l/MinimalisticTrack.h">
<polygon fill="none" stroke="black" points="612.5,-113 612.5,-143 773.5,-143 773.5,-113 612.5,-113"/>
<text text-anchor="start" x="620.5" y="-131" font-family="Helvetica,sans-Serif" font-size="10.00">EventVisualisationDataConverter</text>
<text text-anchor="middle" x="693" y="-120" font-family="Helvetica,sans-Serif" font-size="10.00">/MinimalisticTrack.h</text>
</a>
</g>
</g>
<!-- Node21&#45;&gt;Node22 -->
<g id="edge22" class="edge"><title>Node21&#45;&gt;Node22</title>
<path fill="none" stroke="midnightblue" d="M693,-180.679C693,-172.722 693,-162.605 693,-153.436"/>
<polygon fill="midnightblue" stroke="midnightblue" points="696.5,-153.293 693,-143.293 689.5,-153.293 696.5,-153.293"/>
</g>
<!-- Node24 -->
<g id="node24" class="node"><title>Node24</title>
<polygon fill="none" stroke="#bfbfbf" points="861,-56.5 861,-75.5 905,-75.5 905,-56.5 861,-56.5"/>
<text text-anchor="middle" x="883" y="-63.5" font-family="Helvetica,sans-Serif" font-size="10.00">vector</text>
</g>
<!-- Node21&#45;&gt;Node24 -->
<g id="edge29" class="edge"><title>Node21&#45;&gt;Node24</title>
<path fill="none" stroke="midnightblue" d="M720.191,-180.951C738.19,-171.284 762.062,-157.75 782,-144 800.458,-131.271 803.253,-125.702 821,-112 834.554,-101.535 850.157,-90.2142 862.319,-81.5453"/>
<polygon fill="midnightblue" stroke="midnightblue" points="864.356,-84.3915 870.489,-75.7518 860.307,-78.6815 864.356,-84.3915"/>
</g>
<!-- Node26 -->
<g id="node26" class="node"><title>Node26</title>
<polygon fill="none" stroke="#bfbfbf" points="830.5,-118.5 830.5,-137.5 871.5,-137.5 871.5,-118.5 830.5,-118.5"/>
<text text-anchor="middle" x="851" y="-125.5" font-family="Helvetica,sans-Serif" font-size="10.00">ctime</text>
</g>
<!-- Node21&#45;&gt;Node26 -->
<g id="edge30" class="edge"><title>Node21&#45;&gt;Node26</title>
<path fill="none" stroke="midnightblue" d="M727.243,-180.929C751.945,-170.747 786.072,-156.617 816,-144 817.828,-143.23 819.707,-142.434 821.602,-141.629"/>
<polygon fill="midnightblue" stroke="midnightblue" points="823.203,-144.751 831.028,-137.608 820.457,-138.313 823.203,-144.751"/>
</g>
<!-- Node22&#45;&gt;Node13 -->
<g id="edge25" class="edge"><title>Node22&#45;&gt;Node13</title>
<path fill="none" stroke="midnightblue" d="M679.523,-112.984C669.956,-102.888 656.923,-88.839 646,-76 632.407,-60.0225 617.7,-41.0864 607.588,-27.7867"/>
<polygon fill="midnightblue" stroke="midnightblue" points="610.213,-25.4545 601.392,-19.5854 604.628,-29.6742 610.213,-25.4545"/>
</g>
<!-- Node22&#45;&gt;Node20 -->
<g id="edge26" class="edge"><title>Node22&#45;&gt;Node20</title>
<path fill="none" stroke="midnightblue" d="M676.966,-112.651C667.726,-103.262 656.981,-90.1447 652,-76 646.679,-60.8889 649.92,-42.7657 653.921,-29.4993"/>
<polygon fill="midnightblue" stroke="midnightblue" points="657.359,-30.2653 657.291,-19.6707 650.737,-27.9953 657.359,-30.2653"/>
</g>
<!-- Node23 -->
<g id="node23" class="node"><title>Node23</title>
<g id="a_node23"><a xlink:href="../../de/ddf/ConversionConstants_8h.html" target="_top" xlink:title="ConversionConstants.h">
<polygon fill="none" stroke="black" points="661.5,-56.5 661.5,-75.5 780.5,-75.5 780.5,-56.5 661.5,-56.5"/>
<text text-anchor="middle" x="721" y="-63.5" font-family="Helvetica,sans-Serif" font-size="10.00">ConversionConstants.h</text>
</a>
</g>
</g>
<!-- Node22&#45;&gt;Node23 -->
<g id="edge23" class="edge"><title>Node22&#45;&gt;Node23</title>
<path fill="none" stroke="midnightblue" d="M699.636,-112.781C703.537,-104.422 708.504,-93.7773 712.667,-84.8565"/>
<polygon fill="midnightblue" stroke="midnightblue" points="715.868,-86.2725 716.926,-75.7305 709.525,-83.3123 715.868,-86.2725"/>
</g>
<!-- Node22&#45;&gt;Node24 -->
<g id="edge27" class="edge"><title>Node22&#45;&gt;Node24</title>
<path fill="none" stroke="midnightblue" d="M737.547,-112.933C772.333,-101.948 819.833,-86.9474 850.95,-77.1212"/>
<polygon fill="midnightblue" stroke="midnightblue" points="852.35,-80.3493 860.832,-74.0004 850.242,-73.6743 852.35,-80.3493"/>
</g>
<!-- Node25 -->
<g id="node25" class="node"><title>Node25</title>
<polygon fill="none" stroke="#bfbfbf" points="799,-56.5 799,-75.5 843,-75.5 843,-56.5 799,-56.5"/>
<text text-anchor="middle" x="821" y="-63.5" font-family="Helvetica,sans-Serif" font-size="10.00">cmath</text>
</g>
<!-- Node22&#45;&gt;Node25 -->
<g id="edge28" class="edge"><title>Node22&#45;&gt;Node25</title>
<path fill="none" stroke="midnightblue" d="M723.01,-112.933C744.316,-102.946 772.702,-89.6397 793.436,-79.9205"/>
<polygon fill="midnightblue" stroke="midnightblue" points="795.084,-83.0135 802.653,-75.6 792.113,-76.6753 795.084,-83.0135"/>
</g>
<!-- Node23&#45;&gt;Node20 -->
<g id="edge24" class="edge"><title>Node23&#45;&gt;Node20</title>
<path fill="none" stroke="midnightblue" d="M711.36,-56.324C702.49,-48.3414 689.125,-36.3128 678.392,-26.6529"/>
<polygon fill="midnightblue" stroke="midnightblue" points="680.59,-23.922 670.815,-19.8339 675.907,-29.1251 680.59,-23.922"/>
</g>
<!-- Node27&#45;&gt;Node28 -->
<g id="edge32" class="edge"><title>Node27&#45;&gt;Node28</title>
<path fill="none" stroke="midnightblue" d="M869.576,-180.679C882.706,-169.981 900.628,-155.377 914.073,-144.422"/>
<polygon fill="midnightblue" stroke="midnightblue" points="916.624,-146.858 922.165,-137.828 912.202,-141.432 916.624,-146.858"/>
</g>
<!-- Node29&#45;&gt;Node30 -->
<g id="edge34" class="edge"><title>Node29&#45;&gt;Node30</title>
<path fill="none" stroke="midnightblue" d="M1039.76,-180.679C1046.64,-170.592 1055.89,-157.033 1063.18,-146.335"/>
<polygon fill="midnightblue" stroke="midnightblue" points="1066.24,-148.062 1068.98,-137.828 1060.46,-144.119 1066.24,-148.062"/>
</g>
</g>
</svg>
