<?xml version="1.0" encoding="UTF-8" standalone="no"?>
<!DOCTYPE svg PUBLIC "-//W3C//DTD SVG 1.1//EN"
 "http://www.w3.org/Graphics/SVG/1.1/DTD/svg11.dtd">
<!-- Generated by graphviz version 2.36.0 (20140111.2315)
 -->
<!-- Title: /home/travis/build/AliceO2Group/AliceO2/Utilities/QC/QCMerger/test/MergerDeviceTestSuite.cxx Pages: 1 -->
<svg width="899pt" height="242pt"
 viewBox="0.00 0.00 899.00 242.00" xmlns="http://www.w3.org/2000/svg" xmlns:xlink="http://www.w3.org/1999/xlink">
<g id="graph0" class="graph" transform="scale(1 1) rotate(0) translate(4 238)">
<title>/home/travis/build/AliceO2Group/AliceO2/Utilities/QC/QCMerger/test/MergerDeviceTestSuite.cxx</title>
<!-- Node1 -->
<g id="node1" class="node"><title>Node1</title>
<polygon fill="#bfbfbf" stroke="black" points="92.5,-181 92.5,-233 253.5,-233 253.5,-181 92.5,-181"/>
<text text-anchor="start" x="100.5" y="-221" font-family="Helvetica,sans-Serif" font-size="10.00">/home/travis/build</text>
<text text-anchor="start" x="100.5" y="-210" font-family="Helvetica,sans-Serif" font-size="10.00">/AliceO2Group/AliceO2</text>
<text text-anchor="start" x="100.5" y="-199" font-family="Helvetica,sans-Serif" font-size="10.00">/Utilities/QC/QCMerger</text>
<text text-anchor="middle" x="173" y="-188" font-family="Helvetica,sans-Serif" font-size="10.00">/test/MergerDeviceTestSuite.cxx</text>
</g>
<!-- Node2 -->
<g id="node2" class="node"><title>Node2</title>
<polygon fill="none" stroke="#bfbfbf" points="0,-62.5 0,-81.5 52,-81.5 52,-62.5 0,-62.5"/>
<text text-anchor="middle" x="26" y="-69.5" font-family="Helvetica,sans-Serif" font-size="10.00">memory</text>
</g>
<!-- Node1&#45;&gt;Node2 -->
<g id="edge1" class="edge"><title>Node1&#45;&gt;Node2</title>
<path fill="none" stroke="midnightblue" d="M144.763,-180.702C132.257,-169.478 117.378,-156.099 104,-144 82.9511,-124.964 58.8001,-102.954 43.0179,-88.5483"/>
<polygon fill="midnightblue" stroke="midnightblue" points="45.333,-85.9227 35.5884,-81.7643 40.6129,-91.0919 45.333,-85.9227"/>
</g>
<!-- Node3 -->
<g id="node3" class="node"><title>Node3</title>
<polygon fill="none" stroke="#bfbfbf" points="113.5,-124.5 113.5,-143.5 232.5,-143.5 232.5,-124.5 113.5,-124.5"/>
<text text-anchor="middle" x="173" y="-131.5" font-family="Helvetica,sans-Serif" font-size="10.00">boost/test/unit_test.hpp</text>
</g>
<!-- Node1&#45;&gt;Node3 -->
<g id="edge2" class="edge"><title>Node1&#45;&gt;Node3</title>
<path fill="none" stroke="midnightblue" d="M173,-180.768C173,-171.89 173,-162.074 173,-153.816"/>
<polygon fill="midnightblue" stroke="midnightblue" points="176.5,-153.757 173,-143.757 169.5,-153.757 176.5,-153.757"/>
</g>
<!-- Node4 -->
<g id="node4" class="node"><title>Node4</title>
<g id="a_node4"><a xlink:href="../../d7/d2a/MergerDevice_8h.html" target="_top" xlink:title="QCMerger/MergerDevice.h">
<polygon fill="none" stroke="black" points="261,-124.5 261,-143.5 395,-143.5 395,-124.5 261,-124.5"/>
<text text-anchor="middle" x="328" y="-131.5" font-family="Helvetica,sans-Serif" font-size="10.00">QCMerger/MergerDevice.h</text>
</a>
</g>
</g>
<!-- Node1&#45;&gt;Node4 -->
<g id="edge3" class="edge"><title>Node1&#45;&gt;Node4</title>
<path fill="none" stroke="midnightblue" d="M227.647,-180.968C252.065,-169.783 279.807,-157.075 299.925,-147.86"/>
<polygon fill="midnightblue" stroke="midnightblue" points="301.506,-150.986 309.14,-143.639 298.591,-144.621 301.506,-150.986"/>
</g>
<!-- Node4&#45;&gt;Node2 -->
<g id="edge7" class="edge"><title>Node4&#45;&gt;Node2</title>
<path fill="none" stroke="midnightblue" d="M260.75,-125.006C207.371,-117.813 131.151,-105.641 66,-88 62.7785,-87.1277 59.4536,-86.0986 56.1612,-84.9947"/>
<polygon fill="midnightblue" stroke="midnightblue" points="57.1119,-81.6176 46.5173,-81.5411 54.7518,-88.2077 57.1119,-81.6176"/>
</g>
<!-- Node5 -->
<g id="node5" class="node"><title>Node5</title>
<polygon fill="none" stroke="#bfbfbf" points="368,-0.5 368,-19.5 414,-19.5 414,-0.5 368,-0.5"/>
<text text-anchor="middle" x="391" y="-7.5" font-family="Helvetica,sans-Serif" font-size="10.00">chrono</text>
</g>
<!-- Node4&#45;&gt;Node5 -->
<g id="edge4" class="edge"><title>Node4&#45;&gt;Node5</title>
<path fill="none" stroke="midnightblue" d="M262.856,-124.463C198.909,-115.417 109.457,-100.712 99,-88 89.9648,-77.0165 89.7409,-66.7954 99,-56 131.966,-17.565 287.767,-11.6487 357.325,-10.9532"/>
<polygon fill="midnightblue" stroke="midnightblue" points="357.74,-14.4506 367.716,-10.8823 357.692,-7.45075 357.74,-14.4506"/>
</g>
<!-- Node6 -->
<g id="node6" class="node"><title>Node6</title>
<polygon fill="none" stroke="#bfbfbf" points="108.5,-62.5 108.5,-81.5 149.5,-81.5 149.5,-62.5 108.5,-62.5"/>
<text text-anchor="middle" x="129" y="-69.5" font-family="Helvetica,sans-Serif" font-size="10.00">ctime</text>
</g>
<!-- Node4&#45;&gt;Node6 -->
<g id="edge5" class="edge"><title>Node4&#45;&gt;Node6</title>
<path fill="none" stroke="midnightblue" d="M285.623,-124.489C250.73,-116.842 200.301,-104.313 158,-88 156.4,-87.3831 154.773,-86.7025 153.149,-85.9819"/>
<polygon fill="midnightblue" stroke="midnightblue" points="154.588,-82.7903 144.063,-81.5824 151.538,-89.0906 154.588,-82.7903"/>
</g>
<!-- Node7 -->
<g id="node7" class="node"><title>Node7</title>
<polygon fill="none" stroke="#bfbfbf" points="167.5,-62.5 167.5,-81.5 210.5,-81.5 210.5,-62.5 167.5,-62.5"/>
<text text-anchor="middle" x="189" y="-69.5" font-family="Helvetica,sans-Serif" font-size="10.00">deque</text>
</g>
<!-- Node4&#45;&gt;Node7 -->
<g id="edge6" class="edge"><title>Node4&#45;&gt;Node7</title>
<path fill="none" stroke="midnightblue" d="M306.087,-124.492C283.934,-115.766 248.807,-101.583 219,-88 217.642,-87.3812 216.256,-86.736 214.86,-86.0759"/>
<polygon fill="midnightblue" stroke="midnightblue" points="216.239,-82.8548 205.716,-81.6247 213.175,-89.1487 216.239,-82.8548"/>
</g>
<!-- Node8 -->
<g id="node8" class="node"><title>Node8</title>
<polygon fill="none" stroke="#bfbfbf" points="228.5,-62.5 228.5,-81.5 269.5,-81.5 269.5,-62.5 228.5,-62.5"/>
<text text-anchor="middle" x="249" y="-69.5" font-family="Helvetica,sans-Serif" font-size="10.00">string</text>
</g>
<!-- Node4&#45;&gt;Node8 -->
<g id="edge8" class="edge"><title>Node4&#45;&gt;Node8</title>
<path fill="none" stroke="midnightblue" d="M316.681,-124.403C304.127,-114.869 283.649,-99.3154 268.501,-87.8106"/>
<polygon fill="midnightblue" stroke="midnightblue" points="270.378,-84.8417 260.298,-81.5806 266.144,-90.4162 270.378,-84.8417"/>
</g>
<!-- Node9 -->
<g id="node9" class="node"><title>Node9</title>
<polygon fill="none" stroke="#bfbfbf" points="287.5,-57 287.5,-87 388.5,-87 388.5,-57 287.5,-57"/>
<text text-anchor="start" x="295.5" y="-75" font-family="Helvetica,sans-Serif" font-size="10.00">boost/property_tree</text>
<text text-anchor="middle" x="338" y="-64" font-family="Helvetica,sans-Serif" font-size="10.00">/ptree.hpp</text>
</g>
<!-- Node4&#45;&gt;Node9 -->
<g id="edge9" class="edge"><title>Node4&#45;&gt;Node9</title>
<path fill="none" stroke="midnightblue" d="M329.433,-124.403C330.623,-117.265 332.375,-106.752 333.985,-97.0903"/>
<polygon fill="midnightblue" stroke="midnightblue" points="337.452,-97.5802 335.643,-87.1408 330.547,-96.4293 337.452,-97.5802"/>
</g>
<!-- Node10 -->
<g id="node10" class="node"><title>Node10</title>
<polygon fill="none" stroke="#bfbfbf" points="407,-62.5 407,-81.5 495,-81.5 495,-62.5 407,-62.5"/>
<text text-anchor="middle" x="451" y="-69.5" font-family="Helvetica,sans-Serif" font-size="10.00">FairMQDevice.h</text>
</g>
<!-- Node4&#45;&gt;Node10 -->
<g id="edge10" class="edge"><title>Node4&#45;&gt;Node10</title>
<path fill="none" stroke="midnightblue" d="M345.623,-124.403C366.174,-114.379 400.364,-97.7006 424.207,-86.0699"/>
<polygon fill="midnightblue" stroke="midnightblue" points="425.957,-89.1106 433.41,-81.5806 422.888,-82.8192 425.957,-89.1106"/>
</g>
<!-- Node11 -->
<g id="node11" class="node"><title>Node11</title>
<polygon fill="none" stroke="#bfbfbf" points="512.5,-62.5 512.5,-81.5 591.5,-81.5 591.5,-62.5 512.5,-62.5"/>
<text text-anchor="middle" x="552" y="-69.5" font-family="Helvetica,sans-Serif" font-size="10.00">TApplication.h</text>
</g>
<!-- Node4&#45;&gt;Node11 -->
<g id="edge11" class="edge"><title>Node4&#45;&gt;Node11</title>
<path fill="none" stroke="midnightblue" d="M362.988,-124.499C398.404,-115.778 454.685,-101.6 503,-88 506.887,-86.9059 510.936,-85.7281 514.968,-84.5309"/>
<polygon fill="midnightblue" stroke="midnightblue" points="516.287,-87.7889 524.851,-81.5511 514.266,-81.087 516.287,-87.7889"/>
</g>
<!-- Node12 -->
<g id="node12" class="node"><title>Node12</title>
<polygon fill="none" stroke="#bfbfbf" points="609.5,-62.5 609.5,-81.5 680.5,-81.5 680.5,-62.5 609.5,-62.5"/>
<text text-anchor="middle" x="645" y="-69.5" font-family="Helvetica,sans-Serif" font-size="10.00">TMessage.h</text>
</g>
<!-- Node4&#45;&gt;Node12 -->
<g id="edge12" class="edge"><title>Node4&#45;&gt;Node12</title>
<path fill="none" stroke="midnightblue" d="M395.11,-124.901C450.532,-117.497 531.008,-105.092 600,-88 603.847,-87.047 607.838,-85.9222 611.782,-84.7238"/>
<polygon fill="midnightblue" stroke="midnightblue" points="612.928,-88.0321 621.385,-81.6497 610.794,-81.3655 612.928,-88.0321"/>
</g>
<!-- Node13 -->
<g id="node13" class="node"><title>Node13</title>
<polygon fill="none" stroke="#bfbfbf" points="698.5,-62.5 698.5,-81.5 781.5,-81.5 781.5,-62.5 698.5,-62.5"/>
<text text-anchor="middle" x="740" y="-69.5" font-family="Helvetica,sans-Serif" font-size="10.00">dds_intercom.h</text>
</g>
<!-- Node4&#45;&gt;Node13 -->
<g id="edge13" class="edge"><title>Node4&#45;&gt;Node13</title>
<path fill="none" stroke="midnightblue" d="M395.068,-127.913C467.957,-121.626 587.589,-109.089 689,-88 694.011,-86.958 699.244,-85.6636 704.367,-84.275"/>
<polygon fill="midnightblue" stroke="midnightblue" points="705.341,-87.637 713.999,-81.5303 703.423,-80.905 705.341,-87.637"/>
</g>
<!-- Node14 -->
<g id="node14" class="node"><title>Node14</title>
<g id="a_node14"><a xlink:href="../../db/dad/Utilities_2QC_2QCMerger_2include_2QCMerger_2Merger_8h.html" target="_top" xlink:title="Merger.h">
<polygon fill="none" stroke="black" points="799.5,-62.5 799.5,-81.5 854.5,-81.5 854.5,-62.5 799.5,-62.5"/>
<text text-anchor="middle" x="827" y="-69.5" font-family="Helvetica,sans-Serif" font-size="10.00">Merger.h</text>
</a>
</g>
</g>
<!-- Node4&#45;&gt;Node14 -->
<g id="edge14" class="edge"><title>Node4&#45;&gt;Node14</title>
<path fill="none" stroke="midnightblue" d="M395.19,-132.477C486.024,-130.414 652.464,-121.822 790,-88 793.065,-87.2464 796.21,-86.2863 799.309,-85.2171"/>
<polygon fill="midnightblue" stroke="midnightblue" points="800.813,-88.3895 808.903,-81.5488 798.313,-81.8511 800.813,-88.3895"/>
</g>
<!-- Node14&#45;&gt;Node5 -->
<g id="edge15" class="edge"><title>Node14&#45;&gt;Node5</title>
<path fill="none" stroke="midnightblue" d="M808.511,-62.3521C802.698,-59.9486 796.181,-57.5698 790,-56 657.564,-22.3623 494.016,-13.8541 424.641,-11.7137"/>
<polygon fill="midnightblue" stroke="midnightblue" points="424.43,-8.20638 414.335,-11.422 424.232,-15.2036 424.43,-8.20638"/>
</g>
<!-- Node15 -->
<g id="node15" class="node"><title>Node15</title>
<polygon fill="none" stroke="#bfbfbf" points="743.5,-0.5 743.5,-19.5 826.5,-19.5 826.5,-0.5 743.5,-0.5"/>
<text text-anchor="middle" x="785" y="-7.5" font-family="Helvetica,sans-Serif" font-size="10.00">unordered_map</text>
</g>
<!-- Node14&#45;&gt;Node15 -->
<g id="edge16" class="edge"><title>Node14&#45;&gt;Node15</title>
<path fill="none" stroke="midnightblue" d="M820.982,-62.4035C814.682,-53.4034 804.629,-39.0408 796.748,-27.7824"/>
<polygon fill="midnightblue" stroke="midnightblue" points="799.608,-25.7658 791.006,-19.5806 793.874,-29.7801 799.608,-25.7658"/>
</g>
<!-- Node16 -->
<g id="node16" class="node"><title>Node16</title>
<polygon fill="none" stroke="#bfbfbf" points="844.5,-0.5 844.5,-19.5 891.5,-19.5 891.5,-0.5 844.5,-0.5"/>
<text text-anchor="middle" x="868" y="-7.5" font-family="Helvetica,sans-Serif" font-size="10.00">TList.h</text>
</g>
<!-- Node14&#45;&gt;Node16 -->
<g id="edge17" class="edge"><title>Node14&#45;&gt;Node16</title>
<path fill="none" stroke="midnightblue" d="M832.874,-62.4035C838.963,-53.4925 848.645,-39.3247 856.303,-28.1177"/>
<polygon fill="midnightblue" stroke="midnightblue" points="859.384,-29.8117 862.137,-19.5806 853.605,-25.8624 859.384,-29.8117"/>
</g>
</g>
</svg>
