<?xml version="1.0" encoding="UTF-8" standalone="no"?>
<!DOCTYPE svg PUBLIC "-//W3C//DTD SVG 1.1//EN"
 "http://www.w3.org/Graphics/SVG/1.1/DTD/svg11.dtd">
<!-- Generated by graphviz version 2.36.0 (20140111.2315)
 -->
<!-- Title: /home/travis/build/AliceO2Group/AliceO2/Utilities/QC/QCMerger/src/Merger.cxx Pages: 1 -->
<svg width="602pt" height="174pt"
 viewBox="0.00 0.00 602.00 174.00" xmlns="http://www.w3.org/2000/svg" xmlns:xlink="http://www.w3.org/1999/xlink">
<g id="graph0" class="graph" transform="scale(1 1) rotate(0) translate(4 170)">
<title>/home/travis/build/AliceO2Group/AliceO2/Utilities/QC/QCMerger/src/Merger.cxx</title>
<!-- Node1 -->
<g id="node1" class="node"><title>Node1</title>
<polygon fill="#bfbfbf" stroke="black" points="221.5,-113 221.5,-165 340.5,-165 340.5,-113 221.5,-113"/>
<text text-anchor="start" x="229.5" y="-153" font-family="Helvetica,sans-Serif" font-size="10.00">/home/travis/build</text>
<text text-anchor="start" x="229.5" y="-142" font-family="Helvetica,sans-Serif" font-size="10.00">/AliceO2Group/AliceO2</text>
<text text-anchor="start" x="229.5" y="-131" font-family="Helvetica,sans-Serif" font-size="10.00">/Utilities/QC/QCMerger</text>
<text text-anchor="middle" x="281" y="-120" font-family="Helvetica,sans-Serif" font-size="10.00">/src/Merger.cxx</text>
</g>
<!-- Node2 -->
<g id="node2" class="node"><title>Node2</title>
<polygon fill="none" stroke="#bfbfbf" points="0,-56.5 0,-75.5 86,-75.5 86,-56.5 0,-56.5"/>
<text text-anchor="middle" x="43" y="-63.5" font-family="Helvetica,sans-Serif" font-size="10.00">FairMQLogger.h</text>
</g>
<!-- Node1&#45;&gt;Node2 -->
<g id="edge1" class="edge"><title>Node1&#45;&gt;Node2</title>
<path fill="none" stroke="midnightblue" d="M221.25,-120.175C177.389,-107.091 119.11,-89.7052 81.3303,-78.4347"/>
<polygon fill="midnightblue" stroke="midnightblue" points="82.3013,-75.072 71.7181,-75.5672 80.3002,-81.7799 82.3013,-75.072"/>
</g>
<!-- Node3 -->
<g id="node3" class="node"><title>Node3</title>
<polygon fill="none" stroke="#bfbfbf" points="104,-56.5 104,-75.5 148,-75.5 148,-56.5 104,-56.5"/>
<text text-anchor="middle" x="126" y="-63.5" font-family="Helvetica,sans-Serif" font-size="10.00">TH1.h</text>
</g>
<!-- Node1&#45;&gt;Node3 -->
<g id="edge2" class="edge"><title>Node1&#45;&gt;Node3</title>
<path fill="none" stroke="midnightblue" d="M226.353,-112.968C201.935,-101.783 174.193,-89.0753 154.075,-79.8601"/>
<polygon fill="midnightblue" stroke="midnightblue" points="155.409,-76.6214 144.86,-75.6389 152.494,-82.9855 155.409,-76.6214"/>
</g>
<!-- Node4 -->
<g id="node4" class="node"><title>Node4</title>
<polygon fill="none" stroke="#bfbfbf" points="166,-56.5 166,-75.5 210,-75.5 210,-56.5 166,-56.5"/>
<text text-anchor="middle" x="188" y="-63.5" font-family="Helvetica,sans-Serif" font-size="10.00">TH2.h</text>
</g>
<!-- Node1&#45;&gt;Node4 -->
<g id="edge3" class="edge"><title>Node1&#45;&gt;Node4</title>
<path fill="none" stroke="midnightblue" d="M248.212,-112.968C234.71,-102.66 219.514,-91.0589 207.766,-82.09"/>
<polygon fill="midnightblue" stroke="midnightblue" points="209.612,-79.0958 199.539,-75.8095 205.364,-84.6597 209.612,-79.0958"/>
</g>
<!-- Node5 -->
<g id="node5" class="node"><title>Node5</title>
<polygon fill="none" stroke="#bfbfbf" points="228,-56.5 228,-75.5 272,-75.5 272,-56.5 228,-56.5"/>
<text text-anchor="middle" x="250" y="-63.5" font-family="Helvetica,sans-Serif" font-size="10.00">TH3.h</text>
</g>
<!-- Node1&#45;&gt;Node5 -->
<g id="edge4" class="edge"><title>Node1&#45;&gt;Node5</title>
<path fill="none" stroke="midnightblue" d="M269.983,-112.768C265.975,-103.587 261.528,-93.4034 257.849,-84.9775"/>
<polygon fill="midnightblue" stroke="midnightblue" points="261.033,-83.5212 253.824,-75.7572 254.617,-86.3222 261.033,-83.5212"/>
</g>
<!-- Node6 -->
<g id="node6" class="node"><title>Node6</title>
<polygon fill="none" stroke="#bfbfbf" points="290,-56.5 290,-75.5 334,-75.5 334,-56.5 290,-56.5"/>
<text text-anchor="middle" x="312" y="-63.5" font-family="Helvetica,sans-Serif" font-size="10.00">THn.h</text>
</g>
<!-- Node1&#45;&gt;Node6 -->
<g id="edge5" class="edge"><title>Node1&#45;&gt;Node6</title>
<path fill="none" stroke="midnightblue" d="M292.017,-112.768C296.025,-103.587 300.472,-93.4034 304.151,-84.9775"/>
<polygon fill="midnightblue" stroke="midnightblue" points="307.383,-86.3222 308.176,-75.7572 300.967,-83.5212 307.383,-86.3222"/>
</g>
<!-- Node7 -->
<g id="node7" class="node"><title>Node7</title>
<polygon fill="none" stroke="#bfbfbf" points="352,-56.5 352,-75.5 402,-75.5 402,-56.5 352,-56.5"/>
<text text-anchor="middle" x="377" y="-63.5" font-family="Helvetica,sans-Serif" font-size="10.00">TTree.h</text>
</g>
<!-- Node1&#45;&gt;Node7 -->
<g id="edge6" class="edge"><title>Node1&#45;&gt;Node7</title>
<path fill="none" stroke="midnightblue" d="M314.846,-112.968C328.92,-102.559 344.777,-90.8313 356.952,-81.827"/>
<polygon fill="midnightblue" stroke="midnightblue" points="359.13,-84.5699 365.089,-75.8095 354.967,-78.9418 359.13,-84.5699"/>
</g>
<!-- Node8 -->
<g id="node8" class="node"><title>Node8</title>
<g id="a_node8"><a xlink:href="../../db/dad/Utilities_2QC_2QCMerger_2include_2QCMerger_2Merger_8h.html" target="_top" xlink:title="QCMerger/Merger.h">
<polygon fill="none" stroke="black" points="420.5,-56.5 420.5,-75.5 523.5,-75.5 523.5,-56.5 420.5,-56.5"/>
<text text-anchor="middle" x="472" y="-63.5" font-family="Helvetica,sans-Serif" font-size="10.00">QCMerger/Merger.h</text>
</a>
</g>
</g>
<!-- Node1&#45;&gt;Node8 -->
<g id="edge7" class="edge"><title>Node1&#45;&gt;Node8</title>
<path fill="none" stroke="midnightblue" d="M340.648,-115.827C373.208,-103.724 412.272,-89.2026 439.292,-79.1586"/>
<polygon fill="midnightblue" stroke="midnightblue" points="440.513,-82.4386 448.667,-75.6735 438.074,-75.8772 440.513,-82.4386"/>
</g>
<!-- Node12 -->
<g id="node12" class="node"><title>Node12</title>
<polygon fill="none" stroke="#bfbfbf" points="542,-56.5 542,-75.5 594,-75.5 594,-56.5 542,-56.5"/>
<text text-anchor="middle" x="568" y="-63.5" font-family="Helvetica,sans-Serif" font-size="10.00">sstream</text>
</g>
<!-- Node1&#45;&gt;Node12 -->
<g id="edge11" class="edge"><title>Node1&#45;&gt;Node12</title>
<path fill="none" stroke="midnightblue" d="M340.601,-123.328C389.18,-111.358 459.852,-93.9175 531.537,-76.1097"/>
<polygon fill="midnightblue" stroke="midnightblue" points="532.795,-79.4035 541.656,-73.5951 531.107,-72.6101 532.795,-79.4035"/>
</g>
<!-- Node9 -->
<g id="node9" class="node"><title>Node9</title>
<polygon fill="none" stroke="#bfbfbf" points="366,-0.5 366,-19.5 412,-19.5 412,-0.5 366,-0.5"/>
<text text-anchor="middle" x="389" y="-7.5" font-family="Helvetica,sans-Serif" font-size="10.00">chrono</text>
</g>
<!-- Node8&#45;&gt;Node9 -->
<g id="edge8" class="edge"><title>Node8&#45;&gt;Node9</title>
<path fill="none" stroke="midnightblue" d="M458.665,-56.324C445.838,-47.979 426.215,-35.2122 411.06,-25.3524"/>
<polygon fill="midnightblue" stroke="midnightblue" points="412.593,-22.1742 402.302,-19.6545 408.776,-28.0417 412.593,-22.1742"/>
</g>
<!-- Node10 -->
<g id="node10" class="node"><title>Node10</title>
<polygon fill="none" stroke="#bfbfbf" points="430.5,-0.5 430.5,-19.5 513.5,-19.5 513.5,-0.5 430.5,-0.5"/>
<text text-anchor="middle" x="472" y="-7.5" font-family="Helvetica,sans-Serif" font-size="10.00">unordered_map</text>
</g>
<!-- Node8&#45;&gt;Node10 -->
<g id="edge9" class="edge"><title>Node8&#45;&gt;Node10</title>
<path fill="none" stroke="midnightblue" d="M472,-56.083C472,-49.0059 472,-38.8611 472,-29.9865"/>
<polygon fill="midnightblue" stroke="midnightblue" points="475.5,-29.751 472,-19.7511 468.5,-29.7511 475.5,-29.751"/>
</g>
<!-- Node11 -->
<g id="node11" class="node"><title>Node11</title>
<polygon fill="none" stroke="#bfbfbf" points="531.5,-0.5 531.5,-19.5 578.5,-19.5 578.5,-0.5 531.5,-0.5"/>
<text text-anchor="middle" x="555" y="-7.5" font-family="Helvetica,sans-Serif" font-size="10.00">TList.h</text>
</g>
<!-- Node8&#45;&gt;Node11 -->
<g id="edge10" class="edge"><title>Node8&#45;&gt;Node11</title>
<path fill="none" stroke="midnightblue" d="M485.335,-56.324C498.162,-47.979 517.785,-35.2122 532.94,-25.3524"/>
<polygon fill="midnightblue" stroke="midnightblue" points="535.224,-28.0417 541.698,-19.6545 531.407,-22.1742 535.224,-28.0417"/>
</g>
</g>
</svg>
