<?xml version="1.0" encoding="UTF-8" standalone="no"?>
<!DOCTYPE svg PUBLIC "-//W3C//DTD SVG 1.1//EN"
 "http://www.w3.org/Graphics/SVG/1.1/DTD/svg11.dtd">
<!-- Generated by graphviz version 2.36.0 (20140111.2315)
 -->
<!-- Title: ImGuiTextFilter Pages: 1 -->
<svg width="439pt" height="988pt"
 viewBox="0.00 0.00 439.39 988.00" xmlns="http://www.w3.org/2000/svg" xmlns:xlink="http://www.w3.org/1999/xlink">
<g id="graph0" class="graph" transform="scale(1 1) rotate(0) translate(4 984)">
<title>ImGuiTextFilter</title>
<!-- Node1 -->
<g id="node1" class="node"><title>Node1</title>
<polygon fill="#bfbfbf" stroke="black" points="139.889,-0.5 139.889,-123.5 244.889,-123.5 244.889,-0.5 139.889,-0.5"/>
<text text-anchor="middle" x="192.389" y="-111.5" font-family="Helvetica,sans-Serif" font-size="10.00">ImGuiTextFilter</text>
<polyline fill="none" stroke="black" points="139.889,-104.5 244.889,-104.5 "/>
<text text-anchor="middle" x="192.389" y="-92.5" font-family="Helvetica,sans-Serif" font-size="10.00"> </text>
<polyline fill="none" stroke="black" points="139.889,-85.5 244.889,-85.5 "/>
<text text-anchor="start" x="147.889" y="-73.5" font-family="Helvetica,sans-Serif" font-size="10.00">+ ImGuiTextFilter()</text>
<text text-anchor="start" x="147.889" y="-62.5" font-family="Helvetica,sans-Serif" font-size="10.00">+ ~ImGuiTextFilter()</text>
<text text-anchor="start" x="147.889" y="-51.5" font-family="Helvetica,sans-Serif" font-size="10.00">+ Clear()</text>
<text text-anchor="start" x="147.889" y="-40.5" font-family="Helvetica,sans-Serif" font-size="10.00">+ Draw()</text>
<text text-anchor="start" x="147.889" y="-29.5" font-family="Helvetica,sans-Serif" font-size="10.00">+ PassFilter()</text>
<text text-anchor="start" x="147.889" y="-18.5" font-family="Helvetica,sans-Serif" font-size="10.00">+ IsActive()</text>
<text text-anchor="start" x="147.889" y="-7.5" font-family="Helvetica,sans-Serif" font-size="10.00">+ Build()</text>
</g>
<!-- Node2 -->
<g id="node2" class="node"><title>Node2</title>
<polygon fill="none" stroke="#bfbfbf" points="28.8892,-922.5 28.8892,-979.5 63.8892,-979.5 63.8892,-922.5 28.8892,-922.5"/>
<text text-anchor="middle" x="46.3892" y="-967.5" font-family="Helvetica,sans-Serif" font-size="10.00">char</text>
<polyline fill="none" stroke="#bfbfbf" points="28.8892,-960.5 63.8892,-960.5 "/>
<text text-anchor="middle" x="46.3892" y="-948.5" font-family="Helvetica,sans-Serif" font-size="10.00"> </text>
<polyline fill="none" stroke="#bfbfbf" points="28.8892,-941.5 63.8892,-941.5 "/>
<text text-anchor="middle" x="46.3892" y="-929.5" font-family="Helvetica,sans-Serif" font-size="10.00"> </text>
</g>
<!-- Node2&#45;&gt;Node1 -->
<g id="edge1" class="edge"><title>Node2&#45;&gt;Node1</title>
<path fill="none" stroke="#404040" d="M34.4888,-922.313C28.018,-905.738 20.68,-884.058 17.3892,-864 -5.06115,-727.163 -6.32159,-688.624 17.3892,-552 44.1317,-397.907 114.971,-228.143 157.876,-134.681"/>
<polygon fill="none" stroke="#404040" points="157.932,-134.561 156.817,-127.436 162.965,-123.667 164.08,-130.792 157.932,-134.561"/>
<text text-anchor="middle" x="48.3892" y="-520.5" font-family="Helvetica,sans-Serif" font-size="10.00"> +InputBuf</text>
</g>
<!-- Node5 -->
<g id="node5" class="node"><title>Node5</title>
<g id="a_node5"><a xlink:href="../../d3/dd1/structImGuiTextFilter_1_1TextRange.html" target="_top" xlink:title="{ImGuiTextFilter::TextRange\n||+ TextRange()\l+ TextRange()\l+ begin()\l+ end()\l+ empty()\l+ front()\l+ trim_blanks()\l+ split()\l+ is_blank()\l}">
<polygon fill="none" stroke="black" points="26.3892,-635.5 26.3892,-780.5 164.389,-780.5 164.389,-635.5 26.3892,-635.5"/>
<text text-anchor="middle" x="95.3892" y="-768.5" font-family="Helvetica,sans-Serif" font-size="10.00">ImGuiTextFilter::TextRange</text>
<polyline fill="none" stroke="black" points="26.3892,-761.5 164.389,-761.5 "/>
<text text-anchor="middle" x="95.3892" y="-749.5" font-family="Helvetica,sans-Serif" font-size="10.00"> </text>
<polyline fill="none" stroke="black" points="26.3892,-742.5 164.389,-742.5 "/>
<text text-anchor="start" x="34.3892" y="-730.5" font-family="Helvetica,sans-Serif" font-size="10.00">+ TextRange()</text>
<text text-anchor="start" x="34.3892" y="-719.5" font-family="Helvetica,sans-Serif" font-size="10.00">+ TextRange()</text>
<text text-anchor="start" x="34.3892" y="-708.5" font-family="Helvetica,sans-Serif" font-size="10.00">+ begin()</text>
<text text-anchor="start" x="34.3892" y="-697.5" font-family="Helvetica,sans-Serif" font-size="10.00">+ end()</text>
<text text-anchor="start" x="34.3892" y="-686.5" font-family="Helvetica,sans-Serif" font-size="10.00">+ empty()</text>
<text text-anchor="start" x="34.3892" y="-675.5" font-family="Helvetica,sans-Serif" font-size="10.00">+ front()</text>
<text text-anchor="start" x="34.3892" y="-664.5" font-family="Helvetica,sans-Serif" font-size="10.00">+ trim_blanks()</text>
<text text-anchor="start" x="34.3892" y="-653.5" font-family="Helvetica,sans-Serif" font-size="10.00">+ split()</text>
<text text-anchor="start" x="34.3892" y="-642.5" font-family="Helvetica,sans-Serif" font-size="10.00">+ is_blank()</text>
</a>
</g>
</g>
<!-- Node2&#45;&gt;Node5 -->
<g id="edge5" class="edge"><title>Node2&#45;&gt;Node5</title>
<path fill="none" stroke="#404040" d="M52.0101,-922.354C58.4137,-890.859 69.1833,-837.89 78.3893,-792.612"/>
<polygon fill="none" stroke="#404040" points="78.4246,-792.438 75.7003,-785.761 80.8156,-780.678 83.5399,-787.355 78.4246,-792.438"/>
<text text-anchor="middle" x="67.8892" y="-896" font-family="Helvetica,sans-Serif" font-size="10.00"> +b</text>
<text text-anchor="middle" x="67.8892" y="-885" font-family="Helvetica,sans-Serif" font-size="10.00">+e</text>
</g>
<!-- Node3 -->
<g id="node3" class="node"><title>Node3</title>
<g id="a_node3"><a xlink:href="../../d3/d32/classImVector.html" target="_top" xlink:title="{ImVector\&lt; ImGuiTextFilter\l::TextRange \&gt;\n||+ ImVector()\l+ ~ImVector()\l+ empty()\l+ size()\l+ capacity()\l+ operator[]()\l+ operator[]()\l+ clear()\l+ begin()\l+ begin()\l+ end()\l+ end()\l+ front()\l+ front()\l+ back()\l+ back()\l+ swap()\l+ _grow_capacity()\l+ resize()\l+ reserve()\l+ push_back()\l+ pop_back()\l+ erase()\l+ insert()\l}">
<polygon fill="none" stroke="black" points="220.889,-172.5 220.889,-493.5 353.889,-493.5 353.889,-172.5 220.889,-172.5"/>
<text text-anchor="start" x="228.889" y="-481.5" font-family="Helvetica,sans-Serif" font-size="10.00">ImVector&lt; ImGuiTextFilter</text>
<text text-anchor="middle" x="287.389" y="-470.5" font-family="Helvetica,sans-Serif" font-size="10.00">::TextRange &gt;</text>
<polyline fill="none" stroke="black" points="220.889,-463.5 353.889,-463.5 "/>
<text text-anchor="middle" x="287.389" y="-451.5" font-family="Helvetica,sans-Serif" font-size="10.00"> </text>
<polyline fill="none" stroke="black" points="220.889,-444.5 353.889,-444.5 "/>
<text text-anchor="start" x="228.889" y="-432.5" font-family="Helvetica,sans-Serif" font-size="10.00">+ ImVector()</text>
<text text-anchor="start" x="228.889" y="-421.5" font-family="Helvetica,sans-Serif" font-size="10.00">+ ~ImVector()</text>
<text text-anchor="start" x="228.889" y="-410.5" font-family="Helvetica,sans-Serif" font-size="10.00">+ empty()</text>
<text text-anchor="start" x="228.889" y="-399.5" font-family="Helvetica,sans-Serif" font-size="10.00">+ size()</text>
<text text-anchor="start" x="228.889" y="-388.5" font-family="Helvetica,sans-Serif" font-size="10.00">+ capacity()</text>
<text text-anchor="start" x="228.889" y="-377.5" font-family="Helvetica,sans-Serif" font-size="10.00">+ operator[]()</text>
<text text-anchor="start" x="228.889" y="-366.5" font-family="Helvetica,sans-Serif" font-size="10.00">+ operator[]()</text>
<text text-anchor="start" x="228.889" y="-355.5" font-family="Helvetica,sans-Serif" font-size="10.00">+ clear()</text>
<text text-anchor="start" x="228.889" y="-344.5" font-family="Helvetica,sans-Serif" font-size="10.00">+ begin()</text>
<text text-anchor="start" x="228.889" y="-333.5" font-family="Helvetica,sans-Serif" font-size="10.00">+ begin()</text>
<text text-anchor="start" x="228.889" y="-322.5" font-family="Helvetica,sans-Serif" font-size="10.00">+ end()</text>
<text text-anchor="start" x="228.889" y="-311.5" font-family="Helvetica,sans-Serif" font-size="10.00">+ end()</text>
<text text-anchor="start" x="228.889" y="-300.5" font-family="Helvetica,sans-Serif" font-size="10.00">+ front()</text>
<text text-anchor="start" x="228.889" y="-289.5" font-family="Helvetica,sans-Serif" font-size="10.00">+ front()</text>
<text text-anchor="start" x="228.889" y="-278.5" font-family="Helvetica,sans-Serif" font-size="10.00">+ back()</text>
<text text-anchor="start" x="228.889" y="-267.5" font-family="Helvetica,sans-Serif" font-size="10.00">+ back()</text>
<text text-anchor="start" x="228.889" y="-256.5" font-family="Helvetica,sans-Serif" font-size="10.00">+ swap()</text>
<text text-anchor="start" x="228.889" y="-245.5" font-family="Helvetica,sans-Serif" font-size="10.00">+ _grow_capacity()</text>
<text text-anchor="start" x="228.889" y="-234.5" font-family="Helvetica,sans-Serif" font-size="10.00">+ resize()</text>
<text text-anchor="start" x="228.889" y="-223.5" font-family="Helvetica,sans-Serif" font-size="10.00">+ reserve()</text>
<text text-anchor="start" x="228.889" y="-212.5" font-family="Helvetica,sans-Serif" font-size="10.00">+ push_back()</text>
<text text-anchor="start" x="228.889" y="-201.5" font-family="Helvetica,sans-Serif" font-size="10.00">+ pop_back()</text>
<text text-anchor="start" x="228.889" y="-190.5" font-family="Helvetica,sans-Serif" font-size="10.00">+ erase()</text>
<text text-anchor="start" x="228.889" y="-179.5" font-family="Helvetica,sans-Serif" font-size="10.00">+ insert()</text>
</a>
</g>
</g>
<!-- Node3&#45;&gt;Node1 -->
<g id="edge2" class="edge"><title>Node3&#45;&gt;Node1</title>
<path fill="none" stroke="#404040" d="M231.029,-172.413C226.475,-159.515 222.032,-146.937 217.879,-135.175"/>
<polygon fill="none" stroke="#404040" points="217.824,-135.019 212.054,-130.694 213.828,-123.704 219.597,-128.03 217.824,-135.019"/>
<text text-anchor="middle" x="241.889" y="-145.5" font-family="Helvetica,sans-Serif" font-size="10.00"> +Filters</text>
</g>
<!-- Node4 -->
<g id="node4" class="node"><title>Node4</title>
<polygon fill="none" stroke="#bfbfbf" points="249.889,-922.5 249.889,-979.5 278.889,-979.5 278.889,-922.5 249.889,-922.5"/>
<text text-anchor="middle" x="264.389" y="-967.5" font-family="Helvetica,sans-Serif" font-size="10.00">int</text>
<polyline fill="none" stroke="#bfbfbf" points="249.889,-960.5 278.889,-960.5 "/>
<text text-anchor="middle" x="264.389" y="-948.5" font-family="Helvetica,sans-Serif" font-size="10.00"> </text>
<polyline fill="none" stroke="#bfbfbf" points="249.889,-941.5 278.889,-941.5 "/>
<text text-anchor="middle" x="264.389" y="-929.5" font-family="Helvetica,sans-Serif" font-size="10.00"> </text>
</g>
<!-- Node4&#45;&gt;Node1 -->
<g id="edge9" class="edge"><title>Node4&#45;&gt;Node1</title>
<path fill="none" stroke="#404040" d="M260.296,-922.322C250.588,-855.652 226.041,-680.801 213.389,-534 201.265,-393.323 195.945,-228.368 193.765,-135.732"/>
<polygon fill="none" stroke="#404040" points="193.764,-135.698 189.628,-129.791 193.489,-123.701 197.626,-129.608 193.764,-135.698"/>
<text text-anchor="middle" x="241.889" y="-520.5" font-family="Helvetica,sans-Serif" font-size="10.00"> +CountGrep</text>
</g>
<!-- Node4&#45;&gt;Node3 -->
<g id="edge3" class="edge"><title>Node4&#45;&gt;Node3</title>
<path fill="none" stroke="#404040" d="M264.618,-922.483C265.242,-857.819 267.351,-691.136 273.389,-552 274.035,-537.126 274.811,-521.688 275.664,-506.208"/>
<polygon fill="none" stroke="#404040" points="275.688,-505.775 272.032,-499.56 276.363,-493.794 280.019,-500.01 275.688,-505.775"/>
<text text-anchor="middle" x="297.889" y="-711" font-family="Helvetica,sans-Serif" font-size="10.00"> +Capacity</text>
<text text-anchor="middle" x="297.889" y="-700" font-family="Helvetica,sans-Serif" font-size="10.00">+Size</text>
</g>
<!-- Node6 -->
<g id="node6" class="node"><title>Node6</title>
<g id="a_node6"><a xlink:href="../../d3/d32/classImVector.html" target="_top" xlink:title="{ImVector\&lt; T \&gt;\n||+ ImVector()\l+ ~ImVector()\l+ empty()\l+ size()\l+ capacity()\l+ operator[]()\l+ operator[]()\l+ clear()\l+ begin()\l+ begin()\l+ end()\l+ end()\l+ front()\l+ front()\l+ back()\l+ back()\l+ swap()\l+ _grow_capacity()\l+ resize()\l+ reserve()\l+ push_back()\l+ pop_back()\l+ erase()\l+ insert()\l}">
<polygon fill="none" stroke="black" points="331.389,-553 331.389,-863 431.389,-863 431.389,-553 331.389,-553"/>
<text text-anchor="middle" x="381.389" y="-851" font-family="Helvetica,sans-Serif" font-size="10.00">ImVector&lt; T &gt;</text>
<polyline fill="none" stroke="black" points="331.389,-844 431.389,-844 "/>
<text text-anchor="middle" x="381.389" y="-832" font-family="Helvetica,sans-Serif" font-size="10.00"> </text>
<polyline fill="none" stroke="black" points="331.389,-825 431.389,-825 "/>
<text text-anchor="start" x="339.389" y="-813" font-family="Helvetica,sans-Serif" font-size="10.00">+ ImVector()</text>
<text text-anchor="start" x="339.389" y="-802" font-family="Helvetica,sans-Serif" font-size="10.00">+ ~ImVector()</text>
<text text-anchor="start" x="339.389" y="-791" font-family="Helvetica,sans-Serif" font-size="10.00">+ empty()</text>
<text text-anchor="start" x="339.389" y="-780" font-family="Helvetica,sans-Serif" font-size="10.00">+ size()</text>
<text text-anchor="start" x="339.389" y="-769" font-family="Helvetica,sans-Serif" font-size="10.00">+ capacity()</text>
<text text-anchor="start" x="339.389" y="-758" font-family="Helvetica,sans-Serif" font-size="10.00">+ operator[]()</text>
<text text-anchor="start" x="339.389" y="-747" font-family="Helvetica,sans-Serif" font-size="10.00">+ operator[]()</text>
<text text-anchor="start" x="339.389" y="-736" font-family="Helvetica,sans-Serif" font-size="10.00">+ clear()</text>
<text text-anchor="start" x="339.389" y="-725" font-family="Helvetica,sans-Serif" font-size="10.00">+ begin()</text>
<text text-anchor="start" x="339.389" y="-714" font-family="Helvetica,sans-Serif" font-size="10.00">+ begin()</text>
<text text-anchor="start" x="339.389" y="-703" font-family="Helvetica,sans-Serif" font-size="10.00">+ end()</text>
<text text-anchor="start" x="339.389" y="-692" font-family="Helvetica,sans-Serif" font-size="10.00">+ end()</text>
<text text-anchor="start" x="339.389" y="-681" font-family="Helvetica,sans-Serif" font-size="10.00">+ front()</text>
<text text-anchor="start" x="339.389" y="-670" font-family="Helvetica,sans-Serif" font-size="10.00">+ front()</text>
<text text-anchor="start" x="339.389" y="-659" font-family="Helvetica,sans-Serif" font-size="10.00">+ back()</text>
<text text-anchor="start" x="339.389" y="-648" font-family="Helvetica,sans-Serif" font-size="10.00">+ back()</text>
<text text-anchor="start" x="339.389" y="-637" font-family="Helvetica,sans-Serif" font-size="10.00">+ swap()</text>
<text text-anchor="start" x="339.389" y="-626" font-family="Helvetica,sans-Serif" font-size="10.00">+ _grow_capacity()</text>
<text text-anchor="start" x="339.389" y="-615" font-family="Helvetica,sans-Serif" font-size="10.00">+ resize()</text>
<text text-anchor="start" x="339.389" y="-604" font-family="Helvetica,sans-Serif" font-size="10.00">+ reserve()</text>
<text text-anchor="start" x="339.389" y="-593" font-family="Helvetica,sans-Serif" font-size="10.00">+ push_back()</text>
<text text-anchor="start" x="339.389" y="-582" font-family="Helvetica,sans-Serif" font-size="10.00">+ pop_back()</text>
<text text-anchor="start" x="339.389" y="-571" font-family="Helvetica,sans-Serif" font-size="10.00">+ erase()</text>
<text text-anchor="start" x="339.389" y="-560" font-family="Helvetica,sans-Serif" font-size="10.00">+ insert()</text>
</a>
</g>
</g>
<!-- Node4&#45;&gt;Node6 -->
<g id="edge7" class="edge"><title>Node4&#45;&gt;Node6</title>
<path fill="none" stroke="#404040" d="M279.12,-928.291C290.36,-911.232 305.828,-886.65 317.389,-864 320.367,-858.166 323.316,-852.159 326.218,-846.057"/>
<polygon fill="none" stroke="#404040" points="326.311,-845.857 325.224,-838.729 331.387,-834.984 332.473,-842.113 326.311,-845.857"/>
<text text-anchor="middle" x="331.889" y="-896" font-family="Helvetica,sans-Serif" font-size="10.00"> +Capacity</text>
<text text-anchor="middle" x="331.889" y="-885" font-family="Helvetica,sans-Serif" font-size="10.00">+Size</text>
</g>
<!-- Node5&#45;&gt;Node3 -->
<g id="edge4" class="edge"><title>Node5&#45;&gt;Node3</title>
<path fill="none" stroke="#404040" d="M103.325,-635.26C109.54,-597.182 120.447,-550.448 139.389,-512 157.9,-474.428 185.868,-437.946 212.525,-407.895"/>
<polygon fill="none" stroke="#404040" points="212.708,-407.693 213.755,-400.558 220.744,-398.781 219.696,-405.916 212.708,-407.693"/>
<text text-anchor="middle" x="154.889" y="-520.5" font-family="Helvetica,sans-Serif" font-size="10.00"> +Data</text>
</g>
<!-- Node6&#45;&gt;Node3 -->
<g id="edge6" class="edge"><title>Node6&#45;&gt;Node3</title>
<path fill="none" stroke="orange" d="M339.995,-542.743C335.884,-526.432 331.716,-509.892 327.618,-493.63"/>
<polygon fill="orange" stroke="orange" points="336.708,-544.022 342.545,-552.864 343.495,-542.312 336.708,-544.022"/>
<text text-anchor="start" x="337.389" y="-526" font-family="Helvetica,sans-Serif" font-size="10.00"> &lt; ImGuiTextFilter::</text>
<text text-anchor="middle" x="380.389" y="-515" font-family="Helvetica,sans-Serif" font-size="10.00">TextRange &gt;</text>
</g>
<!-- Node7 -->
<g id="node7" class="node"><title>Node7</title>
<polygon fill="none" stroke="#bfbfbf" points="366.889,-922.5 366.889,-979.5 395.889,-979.5 395.889,-922.5 366.889,-922.5"/>
<text text-anchor="middle" x="381.389" y="-967.5" font-family="Helvetica,sans-Serif" font-size="10.00">T</text>
<polyline fill="none" stroke="#bfbfbf" points="366.889,-960.5 395.889,-960.5 "/>
<text text-anchor="middle" x="381.389" y="-948.5" font-family="Helvetica,sans-Serif" font-size="10.00"> </text>
<polyline fill="none" stroke="#bfbfbf" points="366.889,-941.5 395.889,-941.5 "/>
<text text-anchor="middle" x="381.389" y="-929.5" font-family="Helvetica,sans-Serif" font-size="10.00"> </text>
</g>
<!-- Node7&#45;&gt;Node6 -->
<g id="edge8" class="edge"><title>Node7&#45;&gt;Node6</title>
<path fill="none" stroke="#404040" d="M381.389,-922.354C381.389,-909.524 381.389,-893.131 381.389,-875.146"/>
<polygon fill="none" stroke="#404040" points="381.389,-875.119 377.389,-869.119 381.389,-863.119 385.389,-869.118 381.389,-875.119"/>
<text text-anchor="middle" x="396.889" y="-890.5" font-family="Helvetica,sans-Serif" font-size="10.00"> +Data</text>
</g>
</g>
</svg>
