<?xml version="1.0" encoding="UTF-8" standalone="no"?>
<!DOCTYPE svg PUBLIC "-//W3C//DTD SVG 1.1//EN"
 "http://www.w3.org/Graphics/SVG/1.1/DTD/svg11.dtd">
<!-- Generated by graphviz version 2.36.0 (20140111.2315)
 -->
<!-- Title: /home/travis/build/AliceO2Group/AliceO2/Detectors/TPC/reconstruction/include/TPCReconstruction/TPCCATracking.h Pages: 1 -->
<svg width="447pt" height="196pt"
 viewBox="0.00 0.00 447.00 196.00" xmlns="http://www.w3.org/2000/svg" xmlns:xlink="http://www.w3.org/1999/xlink">
<g id="graph0" class="graph" transform="scale(1 1) rotate(0) translate(4 192)">
<title>/home/travis/build/AliceO2Group/AliceO2/Detectors/TPC/reconstruction/include/TPCReconstruction/TPCCATracking.h</title>
<!-- Node1 -->
<g id="node1" class="node"><title>Node1</title>
<polygon fill="#bfbfbf" stroke="black" points="120,-124.5 120,-187.5 270,-187.5 270,-124.5 120,-124.5"/>
<text text-anchor="start" x="128" y="-175.5" font-family="Helvetica,sans-Serif" font-size="10.00">/home/travis/build</text>
<text text-anchor="start" x="128" y="-164.5" font-family="Helvetica,sans-Serif" font-size="10.00">/AliceO2Group/AliceO2</text>
<text text-anchor="start" x="128" y="-153.5" font-family="Helvetica,sans-Serif" font-size="10.00">/Detectors/TPC/reconstruction</text>
<text text-anchor="start" x="128" y="-142.5" font-family="Helvetica,sans-Serif" font-size="10.00">/include/TPCReconstruction</text>
<text text-anchor="middle" x="195" y="-131.5" font-family="Helvetica,sans-Serif" font-size="10.00">/TPCCATracking.h</text>
</g>
<!-- Node2 -->
<g id="node2" class="node"><title>Node2</title>
<polygon fill="none" stroke="#bfbfbf" points="2,-68.5 2,-87.5 54,-87.5 54,-68.5 2,-68.5"/>
<text text-anchor="middle" x="28" y="-75.5" font-family="Helvetica,sans-Serif" font-size="10.00">memory</text>
</g>
<!-- Node1&#45;&gt;Node2 -->
<g id="edge1" class="edge"><title>Node1&#45;&gt;Node2</title>
<path fill="none" stroke="midnightblue" d="M127.556,-124.307C102.62,-112.959 75.6987,-100.707 56.1462,-91.809"/>
<polygon fill="midnightblue" stroke="midnightblue" points="57.4637,-88.5633 46.9121,-87.6067 54.5641,-94.9345 57.4637,-88.5633"/>
</g>
<!-- Node3 -->
<g id="node3" class="node"><title>Node3</title>
<polygon fill="none" stroke="#bfbfbf" points="230,-6.5 230,-25.5 274,-25.5 274,-6.5 230,-6.5"/>
<text text-anchor="middle" x="252" y="-13.5" font-family="Helvetica,sans-Serif" font-size="10.00">vector</text>
</g>
<!-- Node1&#45;&gt;Node3 -->
<g id="edge2" class="edge"><title>Node1&#45;&gt;Node3</title>
<path fill="none" stroke="midnightblue" d="M210.516,-124.29C215.995,-112.998 222.025,-100.032 227,-88 234.242,-70.4851 241.302,-50.0279 246.062,-35.5835"/>
<polygon fill="midnightblue" stroke="midnightblue" points="249.461,-36.4504 249.219,-25.8583 242.803,-34.2892 249.461,-36.4504"/>
</g>
<!-- Node4 -->
<g id="node4" class="node"><title>Node4</title>
<g id="a_node4"><a xlink:href="../../d6/d6f/TPC_2reconstruction_2include_2TPCReconstruction_2Cluster_8h.html" target="_top" xlink:title="TPCReconstruction/Cluster.h">
<polygon fill="none" stroke="black" points="72,-68.5 72,-87.5 218,-87.5 218,-68.5 72,-68.5"/>
<text text-anchor="middle" x="145" y="-75.5" font-family="Helvetica,sans-Serif" font-size="10.00">TPCReconstruction/Cluster.h</text>
</a>
</g>
</g>
<!-- Node1&#45;&gt;Node4 -->
<g id="edge3" class="edge"><title>Node1&#45;&gt;Node4</title>
<path fill="none" stroke="midnightblue" d="M174.663,-124.088C168.377,-114.533 161.683,-104.359 156.248,-96.0973"/>
<polygon fill="midnightblue" stroke="midnightblue" points="159.156,-94.1487 150.736,-87.7182 153.308,-97.996 159.156,-94.1487"/>
</g>
<!-- Node7 -->
<g id="node7" class="node"><title>Node7</title>
<g id="a_node7"><a xlink:href="../../de/dcd/ClusterNative_8h.html" target="_top" xlink:title="Class of a TPC cluster in TPC&#45;native coordinates (row, time) ">
<polygon fill="none" stroke="black" points="274.5,-68.5 274.5,-87.5 439.5,-87.5 439.5,-68.5 274.5,-68.5"/>
<text text-anchor="middle" x="357" y="-75.5" font-family="Helvetica,sans-Serif" font-size="10.00">DataFormatsTPC/ClusterNative.h</text>
</a>
</g>
</g>
<!-- Node1&#45;&gt;Node7 -->
<g id="edge6" class="edge"><title>Node1&#45;&gt;Node7</title>
<path fill="none" stroke="midnightblue" d="M260.425,-124.307C284.504,-113.011 310.491,-100.819 329.436,-91.9311"/>
<polygon fill="midnightblue" stroke="midnightblue" points="331.087,-95.0226 338.654,-87.6067 328.114,-88.6853 331.087,-95.0226"/>
</g>
<!-- Node5 -->
<g id="node5" class="node"><title>Node5</title>
<polygon fill="none" stroke="#bfbfbf" points="-0.5,-1 -0.5,-31 94.5,-31 94.5,-1 -0.5,-1"/>
<text text-anchor="start" x="7.5" y="-19" font-family="Helvetica,sans-Serif" font-size="10.00">boost/serialization</text>
<text text-anchor="middle" x="47" y="-8" font-family="Helvetica,sans-Serif" font-size="10.00">/base_object.hpp</text>
</g>
<!-- Node4&#45;&gt;Node5 -->
<g id="edge4" class="edge"><title>Node4&#45;&gt;Node5</title>
<path fill="none" stroke="midnightblue" d="M130.959,-68.4035C117.438,-60.1254 96.5074,-47.3106 78.9274,-36.5474"/>
<polygon fill="midnightblue" stroke="midnightblue" points="80.4527,-33.3774 70.0967,-31.1408 76.7976,-39.3474 80.4527,-33.3774"/>
</g>
<!-- Node6 -->
<g id="node6" class="node"><title>Node6</title>
<polygon fill="none" stroke="#bfbfbf" points="113,-6.5 113,-25.5 205,-25.5 205,-6.5 113,-6.5"/>
<text text-anchor="middle" x="159" y="-13.5" font-family="Helvetica,sans-Serif" font-size="10.00">FairTimeStamp.h</text>
</g>
<!-- Node4&#45;&gt;Node6 -->
<g id="edge5" class="edge"><title>Node4&#45;&gt;Node6</title>
<path fill="none" stroke="midnightblue" d="M147.006,-68.4035C149.002,-59.849 152.128,-46.4497 154.689,-35.4762"/>
<polygon fill="midnightblue" stroke="midnightblue" points="158.134,-36.1143 156.998,-25.5806 151.317,-34.5237 158.134,-36.1143"/>
</g>
<!-- Node7&#45;&gt;Node3 -->
<g id="edge7" class="edge"><title>Node7&#45;&gt;Node3</title>
<path fill="none" stroke="midnightblue" d="M341.956,-68.4035C324.725,-58.5569 296.26,-42.2915 275.966,-30.6949"/>
<polygon fill="midnightblue" stroke="midnightblue" points="277.435,-27.5032 267.016,-25.5806 273.962,-33.5809 277.435,-27.5032"/>
</g>
<!-- Node8 -->
<g id="node8" class="node"><title>Node8</title>
<g id="a_node8"><a xlink:href="../../d6/d51/TPC_2base_2include_2TPCBase_2Constants_8h.html" target="_top" xlink:title="TPCBase/Constants.h">
<polygon fill="none" stroke="black" points="299,-6.5 299,-25.5 415,-25.5 415,-6.5 299,-6.5"/>
<text text-anchor="middle" x="357" y="-13.5" font-family="Helvetica,sans-Serif" font-size="10.00">TPCBase/Constants.h</text>
</a>
</g>
</g>
<!-- Node7&#45;&gt;Node8 -->
<g id="edge8" class="edge"><title>Node7&#45;&gt;Node8</title>
<path fill="none" stroke="midnightblue" d="M357,-68.4035C357,-59.9381 357,-46.7283 357,-35.8199"/>
<polygon fill="midnightblue" stroke="midnightblue" points="360.5,-35.5806 357,-25.5806 353.5,-35.5806 360.5,-35.5806"/>
</g>
</g>
</svg>
