<?xml version="1.0" encoding="UTF-8" standalone="no"?>
<!DOCTYPE svg PUBLIC "-//W3C//DTD SVG 1.1//EN"
 "http://www.w3.org/Graphics/SVG/1.1/DTD/svg11.dtd">
<!-- Generated by graphviz version 2.36.0 (20140111.2315)
 -->
<!-- Title: /home/travis/build/AliceO2Group/AliceO2/DataFormats/simulation/include/SimulationDataFormat/MCInteractionRecord.h Pages: 1 -->
<svg width="158pt" height="128pt"
 viewBox="0.00 0.00 158.00 128.00" xmlns="http://www.w3.org/2000/svg" xmlns:xlink="http://www.w3.org/1999/xlink">
<g id="graph0" class="graph" transform="scale(1 1) rotate(0) translate(4 124)">
<title>/home/travis/build/AliceO2Group/AliceO2/DataFormats/simulation/include/SimulationDataFormat/MCInteractionRecord.h</title>
<!-- Node1 -->
<g id="node1" class="node"><title>Node1</title>
<polygon fill="#bfbfbf" stroke="black" points="-0.5,-56.5 -0.5,-119.5 150.5,-119.5 150.5,-56.5 -0.5,-56.5"/>
<text text-anchor="start" x="7.5" y="-107.5" font-family="Helvetica,sans-Serif" font-size="10.00">/home/travis/build</text>
<text text-anchor="start" x="7.5" y="-96.5" font-family="Helvetica,sans-Serif" font-size="10.00">/AliceO2Group/AliceO2</text>
<text text-anchor="start" x="7.5" y="-85.5" font-family="Helvetica,sans-Serif" font-size="10.00">/DataFormats/simulation</text>
<text text-anchor="start" x="7.5" y="-74.5" font-family="Helvetica,sans-Serif" font-size="10.00">/include/SimulationDataFormat</text>
<text text-anchor="middle" x="75" y="-63.5" font-family="Helvetica,sans-Serif" font-size="10.00">/MCInteractionRecord.h</text>
</g>
<!-- Node2 -->
<g id="node2" class="node"><title>Node2</title>
<polygon fill="none" stroke="#bfbfbf" points="11,-0.5 11,-19.5 67,-19.5 67,-0.5 11,-0.5"/>
<text text-anchor="middle" x="39" y="-7.5" font-family="Helvetica,sans-Serif" font-size="10.00">Rtypes.h</text>
</g>
<!-- Node1&#45;&gt;Node2 -->
<g id="edge1" class="edge"><title>Node1&#45;&gt;Node2</title>
<path fill="none" stroke="midnightblue" d="M60.3574,-56.0879C55.9775,-46.8414 51.3226,-37.0143 47.4802,-28.9027"/>
<polygon fill="midnightblue" stroke="midnightblue" points="50.5737,-27.2572 43.1297,-19.7182 44.2475,-30.2539 50.5737,-27.2572"/>
</g>
<!-- Node3 -->
<g id="node3" class="node"><title>Node3</title>
<polygon fill="none" stroke="#bfbfbf" points="85,-0.5 85,-19.5 139,-19.5 139,-0.5 85,-0.5"/>
<text text-anchor="middle" x="112" y="-7.5" font-family="Helvetica,sans-Serif" font-size="10.00">iostream</text>
</g>
<!-- Node1&#45;&gt;Node3 -->
<g id="edge2" class="edge"><title>Node1&#45;&gt;Node3</title>
<path fill="none" stroke="midnightblue" d="M90.0493,-56.0879C94.5509,-46.8414 99.3351,-37.0143 103.284,-28.9027"/>
<polygon fill="midnightblue" stroke="midnightblue" points="106.525,-30.2413 107.756,-19.7182 100.231,-27.1772 106.525,-30.2413"/>
</g>
</g>
</svg>
