<?xml version="1.0" encoding="UTF-8" standalone="no"?>
<!DOCTYPE svg PUBLIC "-//W3C//DTD SVG 1.1//EN"
 "http://www.w3.org/Graphics/SVG/1.1/DTD/svg11.dtd">
<!-- Generated by graphviz version 2.36.0 (20140111.2315)
 -->
<!-- Title: /home/travis/build/AliceO2Group/AliceO2/EventVisualisation/DataConverter/include/EventVisualisationDataConverter/MinimalisticTrack.h Pages: 1 -->
<svg width="361pt" height="184pt"
 viewBox="0.00 0.00 361.00 184.00" xmlns="http://www.w3.org/2000/svg" xmlns:xlink="http://www.w3.org/1999/xlink">
<g id="graph0" class="graph" transform="scale(1 1) rotate(0) translate(4 180)">
<title>/home/travis/build/AliceO2Group/AliceO2/EventVisualisation/DataConverter/include/EventVisualisationDataConverter/MinimalisticTrack.h</title>
<!-- Node1 -->
<g id="node1" class="node"><title>Node1</title>
<polygon fill="#bfbfbf" stroke="black" points="103,-112.5 103,-175.5 301,-175.5 301,-112.5 103,-112.5"/>
<text text-anchor="start" x="111" y="-163.5" font-family="Helvetica,sans-Serif" font-size="10.00">/home/travis/build</text>
<text text-anchor="start" x="111" y="-152.5" font-family="Helvetica,sans-Serif" font-size="10.00">/AliceO2Group/AliceO2</text>
<text text-anchor="start" x="111" y="-141.5" font-family="Helvetica,sans-Serif" font-size="10.00">/EventVisualisation/DataConverter</text>
<text text-anchor="start" x="111" y="-130.5" font-family="Helvetica,sans-Serif" font-size="10.00">/include/EventVisualisationDataConverter</text>
<text text-anchor="middle" x="202" y="-119.5" font-family="Helvetica,sans-Serif" font-size="10.00">/MinimalisticTrack.h</text>
</g>
<!-- Node2 -->
<g id="node2" class="node"><title>Node2</title>
<g id="a_node2"><a xlink:href="../../de/ddf/ConversionConstants_8h.html" target="_top" xlink:title="ConversionConstants.h">
<polygon fill="none" stroke="black" points="-0.5,-56.5 -0.5,-75.5 118.5,-75.5 118.5,-56.5 -0.5,-56.5"/>
<text text-anchor="middle" x="59" y="-63.5" font-family="Helvetica,sans-Serif" font-size="10.00">ConversionConstants.h</text>
</a>
</g>
</g>
<!-- Node1&#45;&gt;Node2 -->
<g id="edge1" class="edge"><title>Node1&#45;&gt;Node2</title>
<path fill="none" stroke="midnightblue" d="M144.249,-112.307C123.384,-101.218 100.896,-89.2662 84.2577,-80.4237"/>
<polygon fill="midnightblue" stroke="midnightblue" points="85.6671,-77.2092 75.1942,-75.6067 82.382,-83.3904 85.6671,-77.2092"/>
</g>
<!-- Node3 -->
<g id="node3" class="node"><title>Node3</title>
<polygon fill="none" stroke="#bfbfbf" points="82.5,-0.5 82.5,-19.5 123.5,-19.5 123.5,-0.5 82.5,-0.5"/>
<text text-anchor="middle" x="103" y="-7.5" font-family="Helvetica,sans-Serif" font-size="10.00">string</text>
</g>
<!-- Node1&#45;&gt;Node3 -->
<g id="edge4" class="edge"><title>Node1&#45;&gt;Node3</title>
<path fill="none" stroke="midnightblue" d="M179.039,-112.385C159.246,-85.9952 131.417,-48.89 115.495,-27.6594"/>
<polygon fill="midnightblue" stroke="midnightblue" points="118.258,-25.51 109.457,-19.61 112.658,-29.71 118.258,-25.51"/>
</g>
<!-- Node4 -->
<g id="node4" class="node"><title>Node4</title>
<polygon fill="none" stroke="#bfbfbf" points="175,-56.5 175,-75.5 229,-75.5 229,-56.5 175,-56.5"/>
<text text-anchor="middle" x="202" y="-63.5" font-family="Helvetica,sans-Serif" font-size="10.00">iostream</text>
</g>
<!-- Node1&#45;&gt;Node4 -->
<g id="edge3" class="edge"><title>Node1&#45;&gt;Node4</title>
<path fill="none" stroke="midnightblue" d="M202,-112.088C202,-103.15 202,-93.6688 202,-85.7195"/>
<polygon fill="midnightblue" stroke="midnightblue" points="205.5,-85.7181 202,-75.7182 198.5,-85.7182 205.5,-85.7181"/>
</g>
<!-- Node5 -->
<g id="node5" class="node"><title>Node5</title>
<polygon fill="none" stroke="#bfbfbf" points="247,-56.5 247,-75.5 291,-75.5 291,-56.5 247,-56.5"/>
<text text-anchor="middle" x="269" y="-63.5" font-family="Helvetica,sans-Serif" font-size="10.00">vector</text>
</g>
<!-- Node1&#45;&gt;Node5 -->
<g id="edge5" class="edge"><title>Node1&#45;&gt;Node5</title>
<path fill="none" stroke="midnightblue" d="M229.251,-112.088C237.946,-102.225 247.224,-91.7015 254.627,-83.3039"/>
<polygon fill="midnightblue" stroke="midnightblue" points="257.327,-85.534 261.314,-75.7182 252.076,-80.9049 257.327,-85.534"/>
</g>
<!-- Node6 -->
<g id="node6" class="node"><title>Node6</title>
<polygon fill="none" stroke="#bfbfbf" points="309,-56.5 309,-75.5 353,-75.5 353,-56.5 309,-56.5"/>
<text text-anchor="middle" x="331" y="-63.5" font-family="Helvetica,sans-Serif" font-size="10.00">cmath</text>
</g>
<!-- Node1&#45;&gt;Node6 -->
<g id="edge6" class="edge"><title>Node1&#45;&gt;Node6</title>
<path fill="none" stroke="midnightblue" d="M254.097,-112.307C272.568,-101.425 292.448,-89.7127 307.368,-80.9228"/>
<polygon fill="midnightblue" stroke="midnightblue" points="309.552,-83.6984 316.391,-75.6067 305.999,-77.6672 309.552,-83.6984"/>
</g>
<!-- Node2&#45;&gt;Node3 -->
<g id="edge2" class="edge"><title>Node2&#45;&gt;Node3</title>
<path fill="none" stroke="midnightblue" d="M66.2657,-56.083C72.5448,-48.3768 81.7876,-37.0333 89.4308,-27.6531"/>
<polygon fill="midnightblue" stroke="midnightblue" points="92.2661,-29.7143 95.8695,-19.7511 86.8394,-25.2926 92.2661,-29.7143"/>
</g>
</g>
</svg>
