<?xml version="1.0" encoding="UTF-8" standalone="no"?>
<!DOCTYPE svg PUBLIC "-//W3C//DTD SVG 1.1//EN"
 "http://www.w3.org/Graphics/SVG/1.1/DTD/svg11.dtd">
<!-- Generated by graphviz version 2.36.0 (20140111.2315)
 -->
<!-- Title: /home/travis/build/AliceO2Group/AliceO2/Common/Field/include/Field/MagneticWrapperChebyshev.h Pages: 1 -->
<!--zoomable 320 -->
<svg id="main" version="1.1" xmlns="http://www.w3.org/2000/svg" xmlns:xlink="http://www.w3.org/1999/xlink" xml:space="preserve" onload="init(evt)">
<style type="text/css"><![CDATA[
.edge:hover path { stroke: red; }
.edge:hover polygon { stroke: red; fill: red; }
]]></style>
<script type="text/javascript"><![CDATA[
var edges = document.getElementsByTagName('g');
if (edges && edges.length) {
  for (var i=0;i<edges.length;i++) {
    if (edges[i].id.substr(0,4)=='edge') {
      edges[i].setAttribute('class','edge');
    }
  }
}
]]></script>
        <defs>
                <circle id="rim" cx="0" cy="0" r="7"/>
                <circle id="rim2" cx="0" cy="0" r="3.5"/>
                <g id="zoomPlus">
                        <use xlink:href="#rim" fill="#404040">
                                <set attributeName="fill" to="#808080" begin="zoomplus.mouseover" end="zoomplus.mouseout"/>
                        </use>
                        <path d="M-4,0h8M0,-4v8" fill="none" stroke="white" stroke-width="1.5" pointer-events="none"/>
                </g>
                <g id="zoomMin">
                        <use xlink:href="#rim" fill="#404040">
                                <set attributeName="fill" to="#808080" begin="zoomminus.mouseover" end="zoomminus.mouseout"/>
                        </use>
                        <path d="M-4,0h8" fill="none" stroke="white" stroke-width="1.5" pointer-events="none"/>
                </g>
                <g id="dirArrow">
                        <path fill="none" stroke="white" stroke-width="1.5" d="M0,-3.0v7 M-2.5,-0.5L0,-3.0L2.5,-0.5"/>
                </g>
               <g id="resetDef">
                       <use xlink:href="#rim2" fill="#404040">
                               <set attributeName="fill" to="#808080" begin="reset.mouseover" end="reset.mouseout"/>
                       </use>
               </g>
        </defs>

<script type="text/javascript">
var viewWidth = 3693;
var viewHeight = 320;
var sectionId = 'dynsection-1';
</script>
<script xlink:href="../../svgpan.js"/>
<svg id="graph" class="graph">
<g id="viewport">
<title>/home/travis/build/AliceO2Group/AliceO2/Common/Field/include/Field/MagneticWrapperChebyshev.h</title>
<!-- Node1 -->
<g id="node1" class="node"><title>Node1</title>
<polygon fill="#bfbfbf" stroke="black" points="1923,-259 1923,-311 2101,-311 2101,-259 1923,-259"/>
<text text-anchor="start" x="1931" y="-299" font-family="Helvetica,sans-Serif" font-size="10.00">/home/travis/build</text>
<text text-anchor="start" x="1931" y="-288" font-family="Helvetica,sans-Serif" font-size="10.00">/AliceO2Group/AliceO2</text>
<text text-anchor="start" x="1931" y="-277" font-family="Helvetica,sans-Serif" font-size="10.00">/Common/Field/include</text>
<text text-anchor="middle" x="2012" y="-266" font-family="Helvetica,sans-Serif" font-size="10.00">/Field/MagneticWrapperChebyshev.h</text>
</g>
<!-- Node2 -->
<g id="node2" class="node"><title>Node2</title>
<g id="a_node2"><a xlink:href="../../db/d4b/MagneticField_8h.html" target="_top" xlink:title="Definition of the MagF class. ">
<polygon fill="none" stroke="black" points="1870,-169 1870,-221 1988,-221 1988,-169 1870,-169"/>
<text text-anchor="start" x="1878" y="-209" font-family="Helvetica,sans-Serif" font-size="10.00">/home/travis/build</text>
<text text-anchor="start" x="1878" y="-198" font-family="Helvetica,sans-Serif" font-size="10.00">/AliceO2Group/AliceO2</text>
<text text-anchor="start" x="1878" y="-187" font-family="Helvetica,sans-Serif" font-size="10.00">/Common/Field/include</text>
<text text-anchor="middle" x="1929" y="-176" font-family="Helvetica,sans-Serif" font-size="10.00">/Field/MagneticField.h</text>
</a>
</g>
</g>
<!-- Node1&#45;&gt;Node2 -->
<g id="edge1" class="edge"><title>Node1&#45;&gt;Node2</title>
<path fill="none" stroke="midnightblue" d="M1981.01,-251.139C1971.63,-241.196 1961.48,-230.441 1952.67,-221.092"/>
<polygon fill="midnightblue" stroke="midnightblue" points="1978.59,-253.674 1987.99,-258.547 1983.68,-248.871 1978.59,-253.674"/>
</g>
<!-- Node28 -->
<g id="node28" class="node"><title>Node28</title>
<g id="a_node28"><a xlink:href="../../de/d97/MagneticWrapperChebyshev_8cxx.html" target="_top" xlink:title="/home/travis/build\l/AliceO2Group/AliceO2\l/Common/Field/src/MagneticWrapper\lChebyshev.cxx">
<polygon fill="none" stroke="black" points="2006.5,-169 2006.5,-221 2185.5,-221 2185.5,-169 2006.5,-169"/>
<text text-anchor="start" x="2014.5" y="-209" font-family="Helvetica,sans-Serif" font-size="10.00">/home/travis/build</text>
<text text-anchor="start" x="2014.5" y="-198" font-family="Helvetica,sans-Serif" font-size="10.00">/AliceO2Group/AliceO2</text>
<text text-anchor="start" x="2014.5" y="-187" font-family="Helvetica,sans-Serif" font-size="10.00">/Common/Field/src/MagneticWrapper</text>
<text text-anchor="middle" x="2096" y="-176" font-family="Helvetica,sans-Serif" font-size="10.00">Chebyshev.cxx</text>
</a>
</g>
</g>
<!-- Node1&#45;&gt;Node28 -->
<g id="edge29" class="edge"><title>Node1&#45;&gt;Node28</title>
<path fill="none" stroke="midnightblue" d="M2043.37,-251.139C2052.86,-241.196 2063.12,-230.441 2072.05,-221.092"/>
<polygon fill="midnightblue" stroke="midnightblue" points="2040.67,-248.896 2036.3,-258.547 2045.73,-253.73 2040.67,-248.896"/>
</g>
<!-- Node3 -->
<g id="node3" class="node"><title>Node3</title>
<g id="a_node3"><a xlink:href="../../da/d34/MagFieldFact_8h.html" target="_top" xlink:title="Definition of the MagFieldFact: factory for ALIDE mag. field from MagFieldParam. ">
<polygon fill="none" stroke="black" points="0,-79 0,-131 118,-131 118,-79 0,-79"/>
<text text-anchor="start" x="8" y="-119" font-family="Helvetica,sans-Serif" font-size="10.00">/home/travis/build</text>
<text text-anchor="start" x="8" y="-108" font-family="Helvetica,sans-Serif" font-size="10.00">/AliceO2Group/AliceO2</text>
<text text-anchor="start" x="8" y="-97" font-family="Helvetica,sans-Serif" font-size="10.00">/Common/Field/include</text>
<text text-anchor="middle" x="59" y="-86" font-family="Helvetica,sans-Serif" font-size="10.00">/Field/MagFieldFact.h</text>
</a>
</g>
</g>
<!-- Node2&#45;&gt;Node3 -->
<g id="edge2" class="edge"><title>Node2&#45;&gt;Node3</title>
<path fill="none" stroke="midnightblue" d="M1859.4,-194.447C1571.4,-195.858 472.008,-196.799 132,-132 127.507,-131.144 122.919,-130.056 118.342,-128.814"/>
<polygon fill="midnightblue" stroke="midnightblue" points="1859.73,-197.945 1869.71,-194.395 1859.69,-190.946 1859.73,-197.945"/>
</g>
<!-- Node4 -->
<g id="node4" class="node"><title>Node4</title>
<g id="a_node4"><a xlink:href="../../d0/dec/MagFieldFact_8cxx.html" target="_top" xlink:title="/home/travis/build\l/AliceO2Group/AliceO2\l/Common/Field/src/MagFieldFact.cxx">
<polygon fill="none" stroke="black" points="11.5,-0.5 11.5,-41.5 192.5,-41.5 192.5,-0.5 11.5,-0.5"/>
<text text-anchor="start" x="19.5" y="-29.5" font-family="Helvetica,sans-Serif" font-size="10.00">/home/travis/build</text>
<text text-anchor="start" x="19.5" y="-18.5" font-family="Helvetica,sans-Serif" font-size="10.00">/AliceO2Group/AliceO2</text>
<text text-anchor="middle" x="102" y="-7.5" font-family="Helvetica,sans-Serif" font-size="10.00">/Common/Field/src/MagFieldFact.cxx</text>
</a>
</g>
</g>
<!-- Node2&#45;&gt;Node4 -->
<g id="edge4" class="edge"><title>Node2&#45;&gt;Node4</title>
<path fill="none" stroke="midnightblue" d="M1859.11,-193.436C1540.58,-190.623 238.654,-176.441 165,-132 147.853,-121.654 123.245,-70.421 110.451,-41.6666"/>
<polygon fill="midnightblue" stroke="midnightblue" points="1859.55,-196.939 1869.58,-193.527 1859.61,-189.94 1859.55,-196.939"/>
</g>
<!-- Node5 -->
<g id="node5" class="node"><title>Node5</title>
<g id="a_node5"><a xlink:href="../../df/d54/MagFieldParam_8cxx.html" target="_top" xlink:title="Implementation of the MagFieldParam class. ">
<polygon fill="none" stroke="black" points="174,-84.5 174,-125.5 364,-125.5 364,-84.5 174,-84.5"/>
<text text-anchor="start" x="182" y="-113.5" font-family="Helvetica,sans-Serif" font-size="10.00">/home/travis/build</text>
<text text-anchor="start" x="182" y="-102.5" font-family="Helvetica,sans-Serif" font-size="10.00">/AliceO2Group/AliceO2</text>
<text text-anchor="middle" x="269" y="-91.5" font-family="Helvetica,sans-Serif" font-size="10.00">/Common/Field/src/MagFieldParam.cxx</text>
</a>
</g>
</g>
<!-- Node2&#45;&gt;Node5 -->
<g id="edge5" class="edge"><title>Node2&#45;&gt;Node5</title>
<path fill="none" stroke="midnightblue" d="M1859.51,-193.125C1597.05,-189.528 666.138,-174.028 373,-132 361.854,-130.402 350.168,-128.107 338.819,-125.534"/>
<polygon fill="midnightblue" stroke="midnightblue" points="1859.62,-196.627 1869.67,-193.263 1859.72,-189.628 1859.62,-196.627"/>
</g>
<!-- Node6 -->
<g id="node6" class="node"><title>Node6</title>
<g id="a_node6"><a xlink:href="../../d2/d78/MagneticField_8cxx.html" target="_top" xlink:title="/home/travis/build\l/AliceO2Group/AliceO2\l/Common/Field/src/MagneticField.cxx">
<polygon fill="none" stroke="black" points="382,-84.5 382,-125.5 564,-125.5 564,-84.5 382,-84.5"/>
<text text-anchor="start" x="390" y="-113.5" font-family="Helvetica,sans-Serif" font-size="10.00">/home/travis/build</text>
<text text-anchor="start" x="390" y="-102.5" font-family="Helvetica,sans-Serif" font-size="10.00">/AliceO2Group/AliceO2</text>
<text text-anchor="middle" x="473" y="-91.5" font-family="Helvetica,sans-Serif" font-size="10.00">/Common/Field/src/MagneticField.cxx</text>
</a>
</g>
</g>
<!-- Node2&#45;&gt;Node6 -->
<g id="edge6" class="edge"><title>Node2&#45;&gt;Node6</title>
<path fill="none" stroke="midnightblue" d="M1859.41,-192.737C1619.09,-188.074 824.988,-170.092 573,-132 562.358,-130.391 551.211,-128.108 540.381,-125.556"/>
<polygon fill="midnightblue" stroke="midnightblue" points="1859.69,-196.243 1869.76,-192.936 1859.83,-189.244 1859.69,-196.243"/>
</g>
<!-- Node7 -->
<g id="node7" class="node"><title>Node7</title>
<g id="a_node7"><a xlink:href="../../d6/dda/testMagneticField_8cxx.html" target="_top" xlink:title="/home/travis/build\l/AliceO2Group/AliceO2\l/Common/Field/test/testMagnetic\lField.cxx">
<polygon fill="none" stroke="black" points="582,-79 582,-131 744,-131 744,-79 582,-79"/>
<text text-anchor="start" x="590" y="-119" font-family="Helvetica,sans-Serif" font-size="10.00">/home/travis/build</text>
<text text-anchor="start" x="590" y="-108" font-family="Helvetica,sans-Serif" font-size="10.00">/AliceO2Group/AliceO2</text>
<text text-anchor="start" x="590" y="-97" font-family="Helvetica,sans-Serif" font-size="10.00">/Common/Field/test/testMagnetic</text>
<text text-anchor="middle" x="663" y="-86" font-family="Helvetica,sans-Serif" font-size="10.00">Field.cxx</text>
</a>
</g>
</g>
<!-- Node2&#45;&gt;Node7 -->
<g id="edge7" class="edge"><title>Node2&#45;&gt;Node7</title>
<path fill="none" stroke="midnightblue" d="M1859.9,-192.43C1641.54,-187.141 968.078,-168.245 753,-132 750.113,-131.514 747.187,-130.967 744.242,-130.371"/>
<polygon fill="midnightblue" stroke="midnightblue" points="1859.87,-195.93 1869.95,-192.671 1860.04,-188.932 1859.87,-195.93"/>
</g>
<!-- Node8 -->
<g id="node8" class="node"><title>Node8</title>
<g id="a_node8"><a xlink:href="../../d3/dee/Base_2src_2Detector_8cxx.html" target="_top" xlink:title="/home/travis/build\l/AliceO2Group/AliceO2\l/Detectors/Base/src/Detector.cxx">
<polygon fill="none" stroke="black" points="762,-84.5 762,-125.5 926,-125.5 926,-84.5 762,-84.5"/>
<text text-anchor="start" x="770" y="-113.5" font-family="Helvetica,sans-Serif" font-size="10.00">/home/travis/build</text>
<text text-anchor="start" x="770" y="-102.5" font-family="Helvetica,sans-Serif" font-size="10.00">/AliceO2Group/AliceO2</text>
<text text-anchor="middle" x="844" y="-91.5" font-family="Helvetica,sans-Serif" font-size="10.00">/Detectors/Base/src/Detector.cxx</text>
</a>
</g>
</g>
<!-- Node2&#45;&gt;Node8 -->
<g id="edge8" class="edge"><title>Node2&#45;&gt;Node8</title>
<path fill="none" stroke="midnightblue" d="M1859.6,-194.795C1696.82,-195.55 1278.28,-191.031 935,-132 925.446,-130.357 915.462,-128.09 905.754,-125.575"/>
<polygon fill="midnightblue" stroke="midnightblue" points="1859.97,-198.293 1869.95,-194.738 1859.93,-191.294 1859.97,-198.293"/>
</g>
<!-- Node9 -->
<g id="node9" class="node"><title>Node9</title>
<g id="a_node9"><a xlink:href="../../d3/d85/Detectors_2EMCAL_2testsimulation_2run__sim__emcal_8C.html" target="_top" xlink:title="/home/travis/build\l/AliceO2Group/AliceO2\l/Detectors/EMCAL/testsimulation\l/run_sim_emcal.C">
<polygon fill="none" stroke="black" points="944,-79 944,-131 1108,-131 1108,-79 944,-79"/>
<text text-anchor="start" x="952" y="-119" font-family="Helvetica,sans-Serif" font-size="10.00">/home/travis/build</text>
<text text-anchor="start" x="952" y="-108" font-family="Helvetica,sans-Serif" font-size="10.00">/AliceO2Group/AliceO2</text>
<text text-anchor="start" x="952" y="-97" font-family="Helvetica,sans-Serif" font-size="10.00">/Detectors/EMCAL/testsimulation</text>
<text text-anchor="middle" x="1026" y="-86" font-family="Helvetica,sans-Serif" font-size="10.00">/run_sim_emcal.C</text>
</a>
</g>
</g>
<!-- Node2&#45;&gt;Node9 -->
<g id="edge9" class="edge"><title>Node2&#45;&gt;Node9</title>
<path fill="none" stroke="midnightblue" d="M1859.67,-193.41C1718.68,-191.179 1388.88,-180.703 1117,-132 1114.09,-131.479 1111.14,-130.902 1108.16,-130.28"/>
<polygon fill="midnightblue" stroke="midnightblue" points="1859.84,-196.913 1869.89,-193.562 1859.95,-189.913 1859.84,-196.913"/>
</g>
<!-- Node10 -->
<g id="node10" class="node"><title>Node10</title>
<g id="a_node10"><a xlink:href="../../d7/dca/CookedTracker_8cxx.html" target="_top" xlink:title="Implementation of the &quot;Cooked Matrix&quot; ITS tracker. ">
<polygon fill="none" stroke="black" points="1126,-79 1126,-131 1312,-131 1312,-79 1126,-79"/>
<text text-anchor="start" x="1134" y="-119" font-family="Helvetica,sans-Serif" font-size="10.00">/home/travis/build</text>
<text text-anchor="start" x="1134" y="-108" font-family="Helvetica,sans-Serif" font-size="10.00">/AliceO2Group/AliceO2</text>
<text text-anchor="start" x="1134" y="-97" font-family="Helvetica,sans-Serif" font-size="10.00">/Detectors/ITSMFT/ITS</text>
<text text-anchor="middle" x="1219" y="-86" font-family="Helvetica,sans-Serif" font-size="10.00">/reconstruction/src/CookedTracker.cxx</text>
</a>
</g>
</g>
<!-- Node2&#45;&gt;Node10 -->
<g id="edge10" class="edge"><title>Node2&#45;&gt;Node10</title>
<path fill="none" stroke="midnightblue" d="M1859.52,-190.338C1745.94,-183.589 1513.78,-166.602 1320,-132 1317.42,-131.538 1314.8,-131.046 1312.16,-130.527"/>
<polygon fill="midnightblue" stroke="midnightblue" points="1859.61,-193.849 1869.8,-190.94 1860.02,-186.861 1859.61,-193.849"/>
</g>
<!-- Node11 -->
<g id="node11" class="node"><title>Node11</title>
<g id="a_node11"><a xlink:href="../../dd/d56/run__simu_8C.html" target="_top" xlink:title="/home/travis/build\l/AliceO2Group/AliceO2\l/Detectors/ITSMFT/MFT\l/macros/run_simu.C">
<polygon fill="none" stroke="black" points="1329.5,-79 1329.5,-131 1454.5,-131 1454.5,-79 1329.5,-79"/>
<text text-anchor="start" x="1337.5" y="-119" font-family="Helvetica,sans-Serif" font-size="10.00">/home/travis/build</text>
<text text-anchor="start" x="1337.5" y="-108" font-family="Helvetica,sans-Serif" font-size="10.00">/AliceO2Group/AliceO2</text>
<text text-anchor="start" x="1337.5" y="-97" font-family="Helvetica,sans-Serif" font-size="10.00">/Detectors/ITSMFT/MFT</text>
<text text-anchor="middle" x="1392" y="-86" font-family="Helvetica,sans-Serif" font-size="10.00">/macros/run_simu.C</text>
</a>
</g>
</g>
<!-- Node2&#45;&gt;Node11 -->
<g id="edge11" class="edge"><title>Node2&#45;&gt;Node11</title>
<path fill="none" stroke="midnightblue" d="M1859.92,-189.427C1768.34,-182.315 1602.22,-165.758 1464,-132 1460.9,-131.243 1457.75,-130.4 1454.59,-129.493"/>
<polygon fill="midnightblue" stroke="midnightblue" points="1859.66,-192.917 1869.89,-190.187 1860.19,-185.937 1859.66,-192.917"/>
</g>
<!-- Node12 -->
<g id="node12" class="node"><title>Node12</title>
<g id="a_node12"><a xlink:href="../../d0/d6b/ITSMFT_2MFT_2simulation_2src_2Detector_8cxx.html" target="_top" xlink:title="/home/travis/build\l/AliceO2Group/AliceO2\l/Detectors/ITSMFT/MFT\l/simulation/src/Detector.cxx">
<polygon fill="none" stroke="black" points="1473,-79 1473,-131 1613,-131 1613,-79 1473,-79"/>
<text text-anchor="start" x="1481" y="-119" font-family="Helvetica,sans-Serif" font-size="10.00">/home/travis/build</text>
<text text-anchor="start" x="1481" y="-108" font-family="Helvetica,sans-Serif" font-size="10.00">/AliceO2Group/AliceO2</text>
<text text-anchor="start" x="1481" y="-97" font-family="Helvetica,sans-Serif" font-size="10.00">/Detectors/ITSMFT/MFT</text>
<text text-anchor="middle" x="1543" y="-86" font-family="Helvetica,sans-Serif" font-size="10.00">/simulation/src/Detector.cxx</text>
</a>
</g>
</g>
<!-- Node2&#45;&gt;Node12 -->
<g id="edge12" class="edge"><title>Node2&#45;&gt;Node12</title>
<path fill="none" stroke="midnightblue" d="M1859.81,-182.449C1797.23,-171.429 1702.79,-153.372 1622,-132 1619.07,-131.225 1616.09,-130.401 1613.08,-129.544"/>
<polygon fill="midnightblue" stroke="midnightblue" points="1859.5,-185.948 1869.95,-184.223 1860.71,-179.053 1859.5,-185.948"/>
</g>
<!-- Node13 -->
<g id="node13" class="node"><title>Node13</title>
<g id="a_node13"><a xlink:href="../../de/da5/FrameStructure_8cxx.html" target="_top" xlink:title="/home/travis/build\l/AliceO2Group/AliceO2\l/Detectors/Passive/src\l/FrameStructure.cxx">
<polygon fill="none" stroke="black" points="1631,-79 1631,-131 1749,-131 1749,-79 1631,-79"/>
<text text-anchor="start" x="1639" y="-119" font-family="Helvetica,sans-Serif" font-size="10.00">/home/travis/build</text>
<text text-anchor="start" x="1639" y="-108" font-family="Helvetica,sans-Serif" font-size="10.00">/AliceO2Group/AliceO2</text>
<text text-anchor="start" x="1639" y="-97" font-family="Helvetica,sans-Serif" font-size="10.00">/Detectors/Passive/src</text>
<text text-anchor="middle" x="1690" y="-86" font-family="Helvetica,sans-Serif" font-size="10.00">/FrameStructure.cxx</text>
</a>
</g>
</g>
<!-- Node2&#45;&gt;Node13 -->
<g id="edge13" class="edge"><title>Node2&#45;&gt;Node13</title>
<path fill="none" stroke="midnightblue" d="M1860.45,-169.453C1829.16,-158.17 1791.66,-144.535 1758,-132 1755.16,-130.941 1752.25,-129.853 1749.32,-128.749"/>
<polygon fill="midnightblue" stroke="midnightblue" points="1859.35,-172.778 1869.95,-172.875 1861.73,-166.193 1859.35,-172.778"/>
</g>
<!-- Node14 -->
<g id="node14" class="node"><title>Node14</title>
<g id="a_node14"><a xlink:href="../../d5/d3a/run__sim__phos_8C.html" target="_top" xlink:title="/home/travis/build\l/AliceO2Group/AliceO2\l/Detectors/PHOS/testsimulation\l/run_sim_phos.C">
<polygon fill="none" stroke="black" points="1767,-79 1767,-131 1925,-131 1925,-79 1767,-79"/>
<text text-anchor="start" x="1775" y="-119" font-family="Helvetica,sans-Serif" font-size="10.00">/home/travis/build</text>
<text text-anchor="start" x="1775" y="-108" font-family="Helvetica,sans-Serif" font-size="10.00">/AliceO2Group/AliceO2</text>
<text text-anchor="start" x="1775" y="-97" font-family="Helvetica,sans-Serif" font-size="10.00">/Detectors/PHOS/testsimulation</text>
<text text-anchor="middle" x="1846" y="-86" font-family="Helvetica,sans-Serif" font-size="10.00">/run_sim_phos.C</text>
</a>
</g>
</g>
<!-- Node2&#45;&gt;Node14 -->
<g id="edge14" class="edge"><title>Node2&#45;&gt;Node14</title>
<path fill="none" stroke="midnightblue" d="M1898.01,-161.139C1888.63,-151.196 1878.48,-140.441 1869.67,-131.092"/>
<polygon fill="midnightblue" stroke="midnightblue" points="1895.59,-163.674 1904.99,-168.547 1900.68,-158.871 1895.59,-163.674"/>
</g>
<!-- Node15 -->
<g id="node15" class="node"><title>Node15</title>
<g id="a_node15"><a xlink:href="../../dd/d2b/o2__sim__its__ALP3_8cxx.html" target="_top" xlink:title="/home/travis/build\l/AliceO2Group/AliceO2\l/Framework/TestWorkflows\l/src/o2_sim_its_ALP3.cxx">
<polygon fill="none" stroke="black" points="1943.5,-79 1943.5,-131 2080.5,-131 2080.5,-79 1943.5,-79"/>
<text text-anchor="start" x="1951.5" y="-119" font-family="Helvetica,sans-Serif" font-size="10.00">/home/travis/build</text>
<text text-anchor="start" x="1951.5" y="-108" font-family="Helvetica,sans-Serif" font-size="10.00">/AliceO2Group/AliceO2</text>
<text text-anchor="start" x="1951.5" y="-97" font-family="Helvetica,sans-Serif" font-size="10.00">/Framework/TestWorkflows</text>
<text text-anchor="middle" x="2012" y="-86" font-family="Helvetica,sans-Serif" font-size="10.00">/src/o2_sim_its_ALP3.cxx</text>
</a>
</g>
</g>
<!-- Node2&#45;&gt;Node15 -->
<g id="edge15" class="edge"><title>Node2&#45;&gt;Node15</title>
<path fill="none" stroke="midnightblue" d="M1959.99,-161.139C1969.37,-151.196 1979.52,-140.441 1988.33,-131.092"/>
<polygon fill="midnightblue" stroke="midnightblue" points="1957.32,-158.871 1953.01,-168.547 1962.41,-163.674 1957.32,-158.871"/>
</g>
<!-- Node16 -->
<g id="node16" class="node"><title>Node16</title>
<g id="a_node16"><a xlink:href="../../d7/d11/o2__sim__tpc_8cxx.html" target="_top" xlink:title="/home/travis/build\l/AliceO2Group/AliceO2\l/Framework/TestWorkflows\l/src/o2_sim_tpc.cxx">
<polygon fill="none" stroke="black" points="2098.5,-79 2098.5,-131 2235.5,-131 2235.5,-79 2098.5,-79"/>
<text text-anchor="start" x="2106.5" y="-119" font-family="Helvetica,sans-Serif" font-size="10.00">/home/travis/build</text>
<text text-anchor="start" x="2106.5" y="-108" font-family="Helvetica,sans-Serif" font-size="10.00">/AliceO2Group/AliceO2</text>
<text text-anchor="start" x="2106.5" y="-97" font-family="Helvetica,sans-Serif" font-size="10.00">/Framework/TestWorkflows</text>
<text text-anchor="middle" x="2167" y="-86" font-family="Helvetica,sans-Serif" font-size="10.00">/src/o2_sim_tpc.cxx</text>
</a>
</g>
</g>
<!-- Node2&#45;&gt;Node16 -->
<g id="edge16" class="edge"><title>Node2&#45;&gt;Node16</title>
<path fill="none" stroke="midnightblue" d="M1998.06,-167.622C2036,-153.478 2069.7,-141.165 2098.26,-130.797"/>
<polygon fill="midnightblue" stroke="midnightblue" points="1996.46,-164.481 1988.32,-171.258 1998.91,-171.039 1996.46,-164.481"/>
</g>
<!-- Node17 -->
<g id="node17" class="node"><title>Node17</title>
<g id="a_node17"><a xlink:href="../../d0/d17/initSimGeomAndField_8C.html" target="_top" xlink:title="/home/travis/build\l/AliceO2Group/AliceO2\l/macro/initSimGeomAndField.C">
<polygon fill="none" stroke="black" points="2253.5,-84.5 2253.5,-125.5 2408.5,-125.5 2408.5,-84.5 2253.5,-84.5"/>
<text text-anchor="start" x="2261.5" y="-113.5" font-family="Helvetica,sans-Serif" font-size="10.00">/home/travis/build</text>
<text text-anchor="start" x="2261.5" y="-102.5" font-family="Helvetica,sans-Serif" font-size="10.00">/AliceO2Group/AliceO2</text>
<text text-anchor="middle" x="2331" y="-91.5" font-family="Helvetica,sans-Serif" font-size="10.00">/macro/initSimGeomAndField.C</text>
</a>
</g>
</g>
<!-- Node2&#45;&gt;Node17 -->
<g id="edge17" class="edge"><title>Node2&#45;&gt;Node17</title>
<path fill="none" stroke="midnightblue" d="M1998.09,-167.964C2106.25,-140.919 2138.85,-155.245 2244,-132 2252.31,-130.163 2260.99,-127.943 2269.51,-125.585"/>
<polygon fill="midnightblue" stroke="midnightblue" points="1996.9,-164.655 1988.09,-170.528 1998.64,-171.435 1996.9,-164.655"/>
</g>
<!-- Node18 -->
<g id="node18" class="node"><title>Node18</title>
<g id="a_node18"><a xlink:href="../../d3/db7/run__digi__tpc_8C.html" target="_top" xlink:title="/home/travis/build\l/AliceO2Group/AliceO2\l/macro/run_digi_tpc.C">
<polygon fill="none" stroke="black" points="2427,-84.5 2427,-125.5 2545,-125.5 2545,-84.5 2427,-84.5"/>
<text text-anchor="start" x="2435" y="-113.5" font-family="Helvetica,sans-Serif" font-size="10.00">/home/travis/build</text>
<text text-anchor="start" x="2435" y="-102.5" font-family="Helvetica,sans-Serif" font-size="10.00">/AliceO2Group/AliceO2</text>
<text text-anchor="middle" x="2486" y="-91.5" font-family="Helvetica,sans-Serif" font-size="10.00">/macro/run_digi_tpc.C</text>
</a>
</g>
</g>
<!-- Node2&#45;&gt;Node18 -->
<g id="edge18" class="edge"><title>Node2&#45;&gt;Node18</title>
<path fill="none" stroke="midnightblue" d="M1998.01,-168.067C2181.58,-127.771 2237.5,-172.693 2417,-132 2424.37,-130.33 2432,-128.049 2439.39,-125.527"/>
<polygon fill="midnightblue" stroke="midnightblue" points="1997.02,-164.702 1988.03,-170.313 1998.56,-171.531 1997.02,-164.702"/>
</g>
<!-- Node20 -->
<g id="node20" class="node"><title>Node20</title>
<g id="a_node20"><a xlink:href="../../d9/d71/run__sim_8C.html" target="_top" xlink:title="/home/travis/build\l/AliceO2Group/AliceO2\l/macro/run_sim.C">
<polygon fill="none" stroke="black" points="2563,-84.5 2563,-125.5 2681,-125.5 2681,-84.5 2563,-84.5"/>
<text text-anchor="start" x="2571" y="-113.5" font-family="Helvetica,sans-Serif" font-size="10.00">/home/travis/build</text>
<text text-anchor="start" x="2571" y="-102.5" font-family="Helvetica,sans-Serif" font-size="10.00">/AliceO2Group/AliceO2</text>
<text text-anchor="middle" x="2622" y="-91.5" font-family="Helvetica,sans-Serif" font-size="10.00">/macro/run_sim.C</text>
</a>
</g>
</g>
<!-- Node2&#45;&gt;Node20 -->
<g id="edge20" class="edge"><title>Node2&#45;&gt;Node20</title>
<path fill="none" stroke="midnightblue" d="M1997.87,-168.12C2241.3,-116.924 2314.83,-184.197 2554,-132 2561.41,-130.383 2569.08,-128.096 2576.48,-125.541"/>
<polygon fill="midnightblue" stroke="midnightblue" points="1997.06,-164.714 1988.02,-170.236 1998.53,-171.558 1997.06,-164.714"/>
</g>
<!-- Node21 -->
<g id="node21" class="node"><title>Node21</title>
<g id="a_node21"><a xlink:href="../../db/df3/macro_2run__sim__emcal_8C.html" target="_top" xlink:title="/home/travis/build\l/AliceO2Group/AliceO2\l/macro/run_sim_emcal.C">
<polygon fill="none" stroke="black" points="2699,-84.5 2699,-125.5 2825,-125.5 2825,-84.5 2699,-84.5"/>
<text text-anchor="start" x="2707" y="-113.5" font-family="Helvetica,sans-Serif" font-size="10.00">/home/travis/build</text>
<text text-anchor="start" x="2707" y="-102.5" font-family="Helvetica,sans-Serif" font-size="10.00">/AliceO2Group/AliceO2</text>
<text text-anchor="middle" x="2762" y="-91.5" font-family="Helvetica,sans-Serif" font-size="10.00">/macro/run_sim_emcal.C</text>
</a>
</g>
</g>
<!-- Node2&#45;&gt;Node21 -->
<g id="edge21" class="edge"><title>Node2&#45;&gt;Node21</title>
<path fill="none" stroke="midnightblue" d="M1997.94,-168.115C2300.67,-106.037 2390.93,-192.381 2690,-132 2697.82,-130.422 2705.92,-128.155 2713.76,-125.61"/>
<polygon fill="midnightblue" stroke="midnightblue" points="1997.08,-164.72 1988.01,-170.19 1998.51,-171.572 1997.08,-164.72"/>
</g>
<!-- Node22 -->
<g id="node22" class="node"><title>Node22</title>
<g id="a_node22"><a xlink:href="../../d5/dd2/run__sim__its__ALP3_8C.html" target="_top" xlink:title="/home/travis/build\l/AliceO2Group/AliceO2\l/macro/run_sim_its_ALP3.C">
<polygon fill="none" stroke="black" points="2843,-84.5 2843,-125.5 2983,-125.5 2983,-84.5 2843,-84.5"/>
<text text-anchor="start" x="2851" y="-113.5" font-family="Helvetica,sans-Serif" font-size="10.00">/home/travis/build</text>
<text text-anchor="start" x="2851" y="-102.5" font-family="Helvetica,sans-Serif" font-size="10.00">/AliceO2Group/AliceO2</text>
<text text-anchor="middle" x="2913" y="-91.5" font-family="Helvetica,sans-Serif" font-size="10.00">/macro/run_sim_its_ALP3.C</text>
</a>
</g>
</g>
<!-- Node2&#45;&gt;Node22 -->
<g id="edge22" class="edge"><title>Node2&#45;&gt;Node22</title>
<path fill="none" stroke="midnightblue" d="M1998.06,-168.099C2363.55,-94.44 2471.01,-198.228 2834,-132 2842.66,-130.419 2851.69,-128.115 2860.4,-125.523"/>
<polygon fill="midnightblue" stroke="midnightblue" points="1997.1,-164.723 1988,-170.157 1998.5,-171.581 1997.1,-164.723"/>
</g>
<!-- Node23 -->
<g id="node23" class="node"><title>Node23</title>
<g id="a_node23"><a xlink:href="../../d4/d5f/run__sim__mft_8C.html" target="_top" xlink:title="/home/travis/build\l/AliceO2Group/AliceO2\l/macro/run_sim_mft.C">
<polygon fill="none" stroke="black" points="3001,-84.5 3001,-125.5 3119,-125.5 3119,-84.5 3001,-84.5"/>
<text text-anchor="start" x="3009" y="-113.5" font-family="Helvetica,sans-Serif" font-size="10.00">/home/travis/build</text>
<text text-anchor="start" x="3009" y="-102.5" font-family="Helvetica,sans-Serif" font-size="10.00">/AliceO2Group/AliceO2</text>
<text text-anchor="middle" x="3060" y="-91.5" font-family="Helvetica,sans-Serif" font-size="10.00">/macro/run_sim_mft.C</text>
</a>
</g>
</g>
<!-- Node2&#45;&gt;Node23 -->
<g id="edge23" class="edge"><title>Node2&#45;&gt;Node23</title>
<path fill="none" stroke="midnightblue" d="M1998.36,-168.022C2432.58,-81.9026 2561.65,-219.542 2992,-132 2999.56,-130.463 3007.37,-128.182 3014.89,-125.6"/>
<polygon fill="midnightblue" stroke="midnightblue" points="1997.49,-164.628 1988.37,-170.032 1998.87,-171.491 1997.49,-164.628"/>
</g>
<!-- Node24 -->
<g id="node24" class="node"><title>Node24</title>
<g id="a_node24"><a xlink:href="../../d3/dcc/run__sim__pythia8hi_8C.html" target="_top" xlink:title="/home/travis/build\l/AliceO2Group/AliceO2\l/macro/run_sim_pythia8hi.C">
<polygon fill="none" stroke="black" points="3137.5,-84.5 3137.5,-125.5 3276.5,-125.5 3276.5,-84.5 3137.5,-84.5"/>
<text text-anchor="start" x="3145.5" y="-113.5" font-family="Helvetica,sans-Serif" font-size="10.00">/home/travis/build</text>
<text text-anchor="start" x="3145.5" y="-102.5" font-family="Helvetica,sans-Serif" font-size="10.00">/AliceO2Group/AliceO2</text>
<text text-anchor="middle" x="3207" y="-91.5" font-family="Helvetica,sans-Serif" font-size="10.00">/macro/run_sim_pythia8hi.C</text>
</a>
</g>
</g>
<!-- Node2&#45;&gt;Node24 -->
<g id="edge24" class="edge"><title>Node2&#45;&gt;Node24</title>
<path fill="none" stroke="midnightblue" d="M1998.24,-168.048C2491.94,-70.7955 2636.01,-218.928 3128,-132 3136.67,-130.468 3145.7,-128.189 3154.42,-125.607"/>
<polygon fill="midnightblue" stroke="midnightblue" points="1997.49,-164.629 1988.37,-170.017 1998.86,-171.494 1997.49,-164.629"/>
</g>
<!-- Node25 -->
<g id="node25" class="node"><title>Node25</title>
<g id="a_node25"><a xlink:href="../../dc/d6a/run__sim__tof_8C.html" target="_top" xlink:title="/home/travis/build\l/AliceO2Group/AliceO2\l/macro/run_sim_tof.C">
<polygon fill="none" stroke="black" points="3295,-84.5 3295,-125.5 3413,-125.5 3413,-84.5 3295,-84.5"/>
<text text-anchor="start" x="3303" y="-113.5" font-family="Helvetica,sans-Serif" font-size="10.00">/home/travis/build</text>
<text text-anchor="start" x="3303" y="-102.5" font-family="Helvetica,sans-Serif" font-size="10.00">/AliceO2Group/AliceO2</text>
<text text-anchor="middle" x="3354" y="-91.5" font-family="Helvetica,sans-Serif" font-size="10.00">/macro/run_sim_tof.C</text>
</a>
</g>
</g>
<!-- Node2&#45;&gt;Node25 -->
<g id="edge25" class="edge"><title>Node2&#45;&gt;Node25</title>
<path fill="none" stroke="midnightblue" d="M1998.28,-168.101C2294.08,-113.748 3007.2,-186.623 3285,-132 3292.79,-130.469 3300.85,-128.154 3308.6,-125.525"/>
<polygon fill="midnightblue" stroke="midnightblue" points="1997.53,-164.682 1988.37,-170.003 1998.85,-171.557 1997.53,-164.682"/>
</g>
<!-- Node26 -->
<g id="node26" class="node"><title>Node26</title>
<g id="a_node26"><a xlink:href="../../d7/d08/run__sim__tpc_8C.html" target="_top" xlink:title="/home/travis/build\l/AliceO2Group/AliceO2\l/macro/run_sim_tpc.C">
<polygon fill="none" stroke="black" points="3431,-84.5 3431,-125.5 3549,-125.5 3549,-84.5 3431,-84.5"/>
<text text-anchor="start" x="3439" y="-113.5" font-family="Helvetica,sans-Serif" font-size="10.00">/home/travis/build</text>
<text text-anchor="start" x="3439" y="-102.5" font-family="Helvetica,sans-Serif" font-size="10.00">/AliceO2Group/AliceO2</text>
<text text-anchor="middle" x="3490" y="-91.5" font-family="Helvetica,sans-Serif" font-size="10.00">/macro/run_sim_tpc.C</text>
</a>
</g>
</g>
<!-- Node2&#45;&gt;Node26 -->
<g id="edge26" class="edge"><title>Node2&#45;&gt;Node26</title>
<path fill="none" stroke="midnightblue" d="M1998.34,-168.089C2324.18,-108.316 3114.44,-192.82 3422,-132 3429.69,-130.48 3437.64,-128.171 3445.28,-125.545"/>
<polygon fill="midnightblue" stroke="midnightblue" points="1997.53,-164.68 1988.36,-169.993 1998.84,-171.556 1997.53,-164.68"/>
</g>
<!-- Node27 -->
<g id="node27" class="node"><title>Node27</title>
<g id="a_node27"><a xlink:href="../../dd/d4e/run__trac__its_8C.html" target="_top" xlink:title="/home/travis/build\l/AliceO2Group/AliceO2\l/macro/run_trac_its.C">
<polygon fill="none" stroke="black" points="3567,-84.5 3567,-125.5 3685,-125.5 3685,-84.5 3567,-84.5"/>
<text text-anchor="start" x="3575" y="-113.5" font-family="Helvetica,sans-Serif" font-size="10.00">/home/travis/build</text>
<text text-anchor="start" x="3575" y="-102.5" font-family="Helvetica,sans-Serif" font-size="10.00">/AliceO2Group/AliceO2</text>
<text text-anchor="middle" x="3626" y="-91.5" font-family="Helvetica,sans-Serif" font-size="10.00">/macro/run_trac_its.C</text>
</a>
</g>
</g>
<!-- Node2&#45;&gt;Node27 -->
<g id="edge28" class="edge"><title>Node2&#45;&gt;Node27</title>
<path fill="none" stroke="midnightblue" d="M1998.22,-168.11C2353.75,-102.865 3220.7,-198.316 3558,-132 3565.69,-130.488 3573.64,-128.184 3581.28,-125.559"/>
<polygon fill="midnightblue" stroke="midnightblue" points="1997.53,-164.677 1988.36,-169.986 1998.84,-171.554 1997.53,-164.677"/>
</g>
<!-- Node3&#45;&gt;Node4 -->
<g id="edge3" class="edge"><title>Node3&#45;&gt;Node4</title>
<path fill="none" stroke="midnightblue" d="M76.8533,-69.9541C81.9023,-60.3259 87.2276,-50.1706 91.6714,-41.6965"/>
<polygon fill="midnightblue" stroke="midnightblue" points="73.6795,-68.4701 72.1351,-78.9517 79.8789,-71.721 73.6795,-68.4701"/>
</g>
<!-- Node19 -->
<g id="node19" class="node"><title>Node19</title>
<g id="a_node19"><a xlink:href="../../d3/d56/runTPC_8cxx.html" target="_top" xlink:title="/home/travis/build\l/AliceO2Group/AliceO2\l/run/runTPC.cxx">
<polygon fill="none" stroke="black" points="2929,-0.5 2929,-41.5 3047,-41.5 3047,-0.5 2929,-0.5"/>
<text text-anchor="start" x="2937" y="-29.5" font-family="Helvetica,sans-Serif" font-size="10.00">/home/travis/build</text>
<text text-anchor="start" x="2937" y="-18.5" font-family="Helvetica,sans-Serif" font-size="10.00">/AliceO2Group/AliceO2</text>
<text text-anchor="middle" x="2988" y="-7.5" font-family="Helvetica,sans-Serif" font-size="10.00">/run/runTPC.cxx</text>
</a>
</g>
</g>
<!-- Node18&#45;&gt;Node19 -->
<g id="edge19" class="edge"><title>Node18&#45;&gt;Node19</title>
<path fill="none" stroke="midnightblue" d="M2542.38,-81.2894C2546.28,-80.0759 2550.18,-78.9624 2554,-78 2685.5,-44.8752 2844.62,-30.7179 2928.91,-25.182"/>
<polygon fill="midnightblue" stroke="midnightblue" points="2541.12,-78.0202 2532.72,-84.483 2543.32,-84.6662 2541.12,-78.0202"/>
</g>
<!-- Node26&#45;&gt;Node19 -->
<g id="edge27" class="edge"><title>Node26&#45;&gt;Node19</title>
<path fill="none" stroke="midnightblue" d="M3433.62,-81.2894C3429.72,-80.0759 3425.82,-78.9624 3422,-78 3290.5,-44.8752 3131.38,-30.7179 3047.09,-25.182"/>
<polygon fill="midnightblue" stroke="midnightblue" points="3432.68,-84.6662 3443.28,-84.483 3434.88,-78.0202 3432.68,-84.6662"/>
</g>
</g>
</svg>
        <g id="navigator" transform="translate(0 0)" fill="#404254">
                <rect fill="#f2f5e9" fill-opacity="0.5" stroke="#606060" stroke-width=".5" x="0" y="0" width="60" height="60"/>
                <use id="zoomplus" xlink:href="#zoomPlus" x="17" y="9" onmousedown="handleZoom(evt,'in')"/>
                <use id="zoomminus" xlink:href="#zoomMin" x="42" y="9" onmousedown="handleZoom(evt,'out')"/>
                <use id="reset" xlink:href="#resetDef" x="30" y="36" onmousedown="handleReset()"/>
                <g id="arrowUp" xlink:href="#dirArrow" transform="translate(30 24)" onmousedown="handlePan(0,-1)">
                  <use xlink:href="#rim" fill="#404040">
                        <set attributeName="fill" to="#808080" begin="arrowUp.mouseover" end="arrowUp.mouseout"/>
                  </use>
                  <path fill="none" stroke="white" stroke-width="1.5" d="M0,-3.0v7 M-2.5,-0.5L0,-3.0L2.5,-0.5"/>
                </g>
                <g id="arrowRight" xlink:href="#dirArrow" transform="rotate(90) translate(36 -43)" onmousedown="handlePan(1,0)">
                  <use xlink:href="#rim" fill="#404040">
                        <set attributeName="fill" to="#808080" begin="arrowRight.mouseover" end="arrowRight.mouseout"/>
                  </use>
                  <path fill="none" stroke="white" stroke-width="1.5" d="M0,-3.0v7 M-2.5,-0.5L0,-3.0L2.5,-0.5"/>
                </g>
                <g id="arrowDown" xlink:href="#dirArrow" transform="rotate(180) translate(-30 -48)" onmousedown="handlePan(0,1)">
                  <use xlink:href="#rim" fill="#404040">
                        <set attributeName="fill" to="#808080" begin="arrowDown.mouseover" end="arrowDown.mouseout"/>
                  </use>
                  <path fill="none" stroke="white" stroke-width="1.5" d="M0,-3.0v7 M-2.5,-0.5L0,-3.0L2.5,-0.5"/>
                </g>
                <g id="arrowLeft" xlink:href="#dirArrow" transform="rotate(270) translate(-36 17)" onmousedown="handlePan(-1,0)">
                  <use xlink:href="#rim" fill="#404040">
                        <set attributeName="fill" to="#808080" begin="arrowLeft.mouseover" end="arrowLeft.mouseout"/>
                  </use>
                  <path fill="none" stroke="white" stroke-width="1.5" d="M0,-3.0v7 M-2.5,-0.5L0,-3.0L2.5,-0.5"/>
                </g>
        </g>
        <svg viewBox="0 0 15 15" width="100%" height="30px" preserveAspectRatio="xMaxYMin meet">
         <g id="arrow_out" transform="scale(0.3 0.3)">
          <a xlink:href="MagneticWrapperChebyshev_8h__dep__incl_org.svg" target="_base">
           <rect id="button" ry="5" rx="5" y="6" x="6" height="38" width="38"
                fill="#f2f5e9" fill-opacity="0.5" stroke="#606060" stroke-width="1.0"/>
           <path id="arrow"
             d="M 11.500037,31.436501 C 11.940474,20.09759 22.043105,11.32322 32.158766,21.979434 L 37.068811,17.246167 C 37.068811,17.246167 37.088388,32 37.088388,32 L 22.160133,31.978069 C 22.160133,31.978069 26.997745,27.140456 26.997745,27.140456 C 18.528582,18.264221 13.291696,25.230495 11.500037,31.436501 z"
             style="fill:#404040;"/>
          </a>
         </g>
        </svg>
</svg>
