<?xml version="1.0" encoding="UTF-8" standalone="no"?>
<!DOCTYPE svg PUBLIC "-//W3C//DTD SVG 1.1//EN"
 "http://www.w3.org/Graphics/SVG/1.1/DTD/svg11.dtd">
<!-- Generated by graphviz version 2.36.0 (20140111.2315)
 -->
<!-- Title: /home/travis/build/AliceO2Group/AliceO2/Detectors/TPC/base/include/TPCBase/PadInfo.h Pages: 1 -->
<!--zoomable 310 -->
<svg id="main" version="1.1" xmlns="http://www.w3.org/2000/svg" xmlns:xlink="http://www.w3.org/1999/xlink" xml:space="preserve" onload="init(evt)">
<style type="text/css"><![CDATA[
.edge:hover path { stroke: red; }
.edge:hover polygon { stroke: red; fill: red; }
]]></style>
<script type="text/javascript"><![CDATA[
var edges = document.getElementsByTagName('g');
if (edges && edges.length) {
  for (var i=0;i<edges.length;i++) {
    if (edges[i].id.substr(0,4)=='edge') {
      edges[i].setAttribute('class','edge');
    }
  }
}
]]></script>
        <defs>
                <circle id="rim" cx="0" cy="0" r="7"/>
                <circle id="rim2" cx="0" cy="0" r="3.5"/>
                <g id="zoomPlus">
                        <use xlink:href="#rim" fill="#404040">
                                <set attributeName="fill" to="#808080" begin="zoomplus.mouseover" end="zoomplus.mouseout"/>
                        </use>
                        <path d="M-4,0h8M0,-4v8" fill="none" stroke="white" stroke-width="1.5" pointer-events="none"/>
                </g>
                <g id="zoomMin">
                        <use xlink:href="#rim" fill="#404040">
                                <set attributeName="fill" to="#808080" begin="zoomminus.mouseover" end="zoomminus.mouseout"/>
                        </use>
                        <path d="M-4,0h8" fill="none" stroke="white" stroke-width="1.5" pointer-events="none"/>
                </g>
                <g id="dirArrow">
                        <path fill="none" stroke="white" stroke-width="1.5" d="M0,-3.0v7 M-2.5,-0.5L0,-3.0L2.5,-0.5"/>
                </g>
               <g id="resetDef">
                       <use xlink:href="#rim2" fill="#404040">
                               <set attributeName="fill" to="#808080" begin="reset.mouseover" end="reset.mouseout"/>
                       </use>
               </g>
        </defs>

<script type="text/javascript">
var viewWidth = 1360;
var viewHeight = 310;
var sectionId = 'dynsection-0';
</script>
<script xlink:href="../../svgpan.js"/>
<svg id="graph" class="graph">
<g id="viewport">
<title>/home/travis/build/AliceO2Group/AliceO2/Detectors/TPC/base/include/TPCBase/PadInfo.h</title>
<!-- Node1 -->
<g id="node1" class="node"><title>Node1</title>
<polygon fill="#bfbfbf" stroke="black" points="800.5,-249 800.5,-301 943.5,-301 943.5,-249 800.5,-249"/>
<text text-anchor="start" x="808.5" y="-289" font-family="Helvetica,sans-Serif" font-size="10.00">/home/travis/build</text>
<text text-anchor="start" x="808.5" y="-278" font-family="Helvetica,sans-Serif" font-size="10.00">/AliceO2Group/AliceO2</text>
<text text-anchor="start" x="808.5" y="-267" font-family="Helvetica,sans-Serif" font-size="10.00">/Detectors/TPC/base/include</text>
<text text-anchor="middle" x="872" y="-256" font-family="Helvetica,sans-Serif" font-size="10.00">/TPCBase/PadInfo.h</text>
</g>
<!-- Node2 -->
<g id="node2" class="node"><title>Node2</title>
<g id="a_node2"><a xlink:href="../../d1/d73/Defs_8h.html" target="_top" xlink:title="Common definitions for 2D coordinates. ">
<polygon fill="none" stroke="black" points="702,-192.5 702,-211.5 794,-211.5 794,-192.5 702,-192.5"/>
<text text-anchor="middle" x="748" y="-199.5" font-family="Helvetica,sans-Serif" font-size="10.00">TPCBase/Defs.h</text>
</a>
</g>
</g>
<!-- Node1&#45;&gt;Node2 -->
<g id="edge1" class="edge"><title>Node1&#45;&gt;Node2</title>
<path fill="none" stroke="midnightblue" d="M828.282,-248.968C809.28,-238.088 787.763,-225.767 771.79,-216.622"/>
<polygon fill="midnightblue" stroke="midnightblue" points="773.505,-213.571 763.088,-211.639 770.027,-219.645 773.505,-213.571"/>
</g>
<!-- Node16 -->
<g id="node16" class="node"><title>Node16</title>
<g id="a_node16"><a xlink:href="../../de/d41/PadPos_8h.html" target="_top" xlink:title="TPCBase/PadPos.h">
<polygon fill="none" stroke="black" points="819.5,-192.5 819.5,-211.5 924.5,-211.5 924.5,-192.5 819.5,-192.5"/>
<text text-anchor="middle" x="872" y="-199.5" font-family="Helvetica,sans-Serif" font-size="10.00">TPCBase/PadPos.h</text>
</a>
</g>
</g>
<!-- Node1&#45;&gt;Node16 -->
<g id="edge16" class="edge"><title>Node1&#45;&gt;Node16</title>
<path fill="none" stroke="midnightblue" d="M872,-248.768C872,-239.89 872,-230.074 872,-221.816"/>
<polygon fill="midnightblue" stroke="midnightblue" points="875.5,-221.757 872,-211.757 868.5,-221.757 875.5,-221.757"/>
</g>
<!-- Node17 -->
<g id="node17" class="node"><title>Node17</title>
<g id="a_node17"><a xlink:href="../../d1/d1f/FECInfo_8h.html" target="_top" xlink:title="TPCBase/FECInfo.h">
<polygon fill="none" stroke="black" points="1072.5,-136.5 1072.5,-155.5 1179.5,-155.5 1179.5,-136.5 1072.5,-136.5"/>
<text text-anchor="middle" x="1126" y="-143.5" font-family="Helvetica,sans-Serif" font-size="10.00">TPCBase/FECInfo.h</text>
</a>
</g>
</g>
<!-- Node1&#45;&gt;Node17 -->
<g id="edge17" class="edge"><title>Node1&#45;&gt;Node17</title>
<path fill="none" stroke="midnightblue" d="M922.182,-248.909C975.566,-222.217 1057.95,-181.023 1099.75,-160.125"/>
<polygon fill="midnightblue" stroke="midnightblue" points="1101.37,-163.231 1108.74,-155.628 1098.23,-156.97 1101.37,-163.231"/>
</g>
<!-- Node3 -->
<g id="node3" class="node"><title>Node3</title>
<polygon fill="none" stroke="#bfbfbf" points="631,-136.5 631,-155.5 675,-155.5 675,-136.5 631,-136.5"/>
<text text-anchor="middle" x="653" y="-143.5" font-family="Helvetica,sans-Serif" font-size="10.00">cmath</text>
</g>
<!-- Node2&#45;&gt;Node3 -->
<g id="edge2" class="edge"><title>Node2&#45;&gt;Node3</title>
<path fill="none" stroke="midnightblue" d="M732.737,-192.324C717.779,-183.822 694.745,-170.729 677.273,-160.797"/>
<polygon fill="midnightblue" stroke="midnightblue" points="678.649,-157.553 668.226,-155.655 675.19,-163.639 678.649,-157.553"/>
</g>
<!-- Node4 -->
<g id="node4" class="node"><title>Node4</title>
<g id="a_node4"><a xlink:href="../../d2/dd0/Cartesian2D_8h.html" target="_top" xlink:title="MathUtils/Cartesian2D.h">
<polygon fill="none" stroke="black" points="103.5,-74.5 103.5,-93.5 228.5,-93.5 228.5,-74.5 103.5,-74.5"/>
<text text-anchor="middle" x="166" y="-81.5" font-family="Helvetica,sans-Serif" font-size="10.00">MathUtils/Cartesian2D.h</text>
</a>
</g>
</g>
<!-- Node2&#45;&gt;Node4 -->
<g id="edge3" class="edge"><title>Node2&#45;&gt;Node4</title>
<path fill="none" stroke="midnightblue" d="M742.443,-192.342C732.523,-177.742 710.234,-148.588 683,-136 592.742,-94.2808 335.399,-114.306 237,-100 228.846,-98.8145 220.223,-97.2556 211.904,-95.5915"/>
<polygon fill="midnightblue" stroke="midnightblue" points="212.462,-92.1328 201.96,-93.5275 211.04,-98.9867 212.462,-92.1328"/>
</g>
<!-- Node7 -->
<g id="node7" class="node"><title>Node7</title>
<g id="a_node7"><a xlink:href="../../dd/d76/Cartesian3D_8h.html" target="_top" xlink:title="MathUtils/Cartesian3D.h">
<polygon fill="none" stroke="black" points="731.5,-136.5 731.5,-155.5 856.5,-155.5 856.5,-136.5 731.5,-136.5"/>
<text text-anchor="middle" x="794" y="-143.5" font-family="Helvetica,sans-Serif" font-size="10.00">MathUtils/Cartesian3D.h</text>
</a>
</g>
</g>
<!-- Node2&#45;&gt;Node7 -->
<g id="edge6" class="edge"><title>Node2&#45;&gt;Node7</title>
<path fill="none" stroke="midnightblue" d="M755.596,-192.083C762.227,-184.298 772.021,-172.801 780.058,-163.367"/>
<polygon fill="midnightblue" stroke="midnightblue" points="782.725,-165.633 786.545,-155.751 777.396,-161.094 782.725,-165.633"/>
</g>
<!-- Node5 -->
<g id="node5" class="node"><title>Node5</title>
<polygon fill="none" stroke="#bfbfbf" points="-0.5,-1 -0.5,-31 150.5,-31 150.5,-1 -0.5,-1"/>
<text text-anchor="start" x="7.5" y="-19" font-family="Helvetica,sans-Serif" font-size="10.00">Math/GenVector/Displacement</text>
<text text-anchor="middle" x="75" y="-8" font-family="Helvetica,sans-Serif" font-size="10.00">Vector2D.h</text>
</g>
<!-- Node4&#45;&gt;Node5 -->
<g id="edge4" class="edge"><title>Node4&#45;&gt;Node5</title>
<path fill="none" stroke="midnightblue" d="M154.103,-74.3717C141.221,-65.0286 120.22,-49.7966 103.093,-37.375"/>
<polygon fill="midnightblue" stroke="midnightblue" points="104.703,-34.2194 94.5532,-31.1815 100.593,-39.8859 104.703,-34.2194"/>
</g>
<!-- Node6 -->
<g id="node6" class="node"><title>Node6</title>
<polygon fill="none" stroke="#bfbfbf" points="169,-6.5 169,-25.5 345,-25.5 345,-6.5 169,-6.5"/>
<text text-anchor="middle" x="257" y="-13.5" font-family="Helvetica,sans-Serif" font-size="10.00">Math/GenVector/PositionVector2D.h</text>
</g>
<!-- Node4&#45;&gt;Node6 -->
<g id="edge5" class="edge"><title>Node4&#45;&gt;Node6</title>
<path fill="none" stroke="midnightblue" d="M177.897,-74.3717C192.884,-63.5015 218.862,-44.6602 236.942,-31.5474"/>
<polygon fill="midnightblue" stroke="midnightblue" points="239.06,-34.3349 245.1,-25.6305 234.95,-28.6684 239.06,-34.3349"/>
</g>
<!-- Node7&#45;&gt;Node4 -->
<g id="edge14" class="edge"><title>Node7&#45;&gt;Node4</title>
<path fill="none" stroke="midnightblue" d="M731.408,-137.464C726.535,-136.945 721.689,-136.45 717,-136 504.045,-115.578 448.793,-130.177 237,-100 228.842,-98.8376 220.218,-97.2901 211.899,-95.63"/>
<polygon fill="midnightblue" stroke="midnightblue" points="212.456,-92.1712 201.954,-93.5676 211.035,-99.0254 212.456,-92.1712"/>
</g>
<!-- Node8 -->
<g id="node8" class="node"><title>Node8</title>
<polygon fill="none" stroke="#bfbfbf" points="246.5,-74.5 246.5,-93.5 395.5,-93.5 395.5,-74.5 246.5,-74.5"/>
<text text-anchor="middle" x="321" y="-81.5" font-family="Helvetica,sans-Serif" font-size="10.00">Math/GenVector/Rotation3D.h</text>
</g>
<!-- Node7&#45;&gt;Node8 -->
<g id="edge7" class="edge"><title>Node7&#45;&gt;Node8</title>
<path fill="none" stroke="midnightblue" d="M731.386,-137.674C726.518,-137.106 721.679,-136.543 717,-136 578.345,-119.897 543.106,-120.279 405,-100 395.536,-98.6104 385.502,-96.9674 375.788,-95.2874"/>
<polygon fill="midnightblue" stroke="midnightblue" points="376.273,-91.8191 365.818,-93.5323 375.06,-98.7131 376.273,-91.8191"/>
</g>
<!-- Node9 -->
<g id="node9" class="node"><title>Node9</title>
<polygon fill="none" stroke="#bfbfbf" points="414,-74.5 414,-93.5 570,-93.5 570,-74.5 414,-74.5"/>
<text text-anchor="middle" x="492" y="-81.5" font-family="Helvetica,sans-Serif" font-size="10.00">Math/GenVector/Transform3D.h</text>
</g>
<!-- Node7&#45;&gt;Node9 -->
<g id="edge8" class="edge"><title>Node7&#45;&gt;Node9</title>
<path fill="none" stroke="midnightblue" d="M751.051,-136.467C696.823,-125.693 603.55,-107.162 544.962,-95.5223"/>
<polygon fill="midnightblue" stroke="midnightblue" points="545.291,-92.0192 534.8,-93.5034 543.927,-98.885 545.291,-92.0192"/>
</g>
<!-- Node10 -->
<g id="node10" class="node"><title>Node10</title>
<polygon fill="none" stroke="#bfbfbf" points="588,-74.5 588,-93.5 748,-93.5 748,-74.5 588,-74.5"/>
<text text-anchor="middle" x="668" y="-81.5" font-family="Helvetica,sans-Serif" font-size="10.00">Math/GenVector/Translation3D.h</text>
</g>
<!-- Node7&#45;&gt;Node10 -->
<g id="edge9" class="edge"><title>Node7&#45;&gt;Node10</title>
<path fill="none" stroke="midnightblue" d="M775.947,-136.403C754.802,-126.334 719.56,-109.552 695.122,-97.9151"/>
<polygon fill="midnightblue" stroke="midnightblue" points="696.553,-94.72 686.019,-93.5806 693.543,-101.04 696.553,-94.72"/>
</g>
<!-- Node11 -->
<g id="node11" class="node"><title>Node11</title>
<polygon fill="none" stroke="#bfbfbf" points="766,-74.5 766,-93.5 822,-93.5 822,-74.5 766,-74.5"/>
<text text-anchor="middle" x="794" y="-81.5" font-family="Helvetica,sans-Serif" font-size="10.00">Rtypes.h</text>
</g>
<!-- Node7&#45;&gt;Node11 -->
<g id="edge10" class="edge"><title>Node7&#45;&gt;Node11</title>
<path fill="none" stroke="midnightblue" d="M794,-136.403C794,-127.938 794,-114.728 794,-103.82"/>
<polygon fill="midnightblue" stroke="midnightblue" points="797.5,-103.581 794,-93.5806 790.5,-103.581 797.5,-103.581"/>
</g>
<!-- Node12 -->
<g id="node12" class="node"><title>Node12</title>
<polygon fill="none" stroke="#bfbfbf" points="840,-74.5 840,-93.5 916,-93.5 916,-74.5 840,-74.5"/>
<text text-anchor="middle" x="878" y="-81.5" font-family="Helvetica,sans-Serif" font-size="10.00">TGeoMatrix.h</text>
</g>
<!-- Node7&#45;&gt;Node12 -->
<g id="edge11" class="edge"><title>Node7&#45;&gt;Node12</title>
<path fill="none" stroke="midnightblue" d="M806.035,-136.403C819.508,-126.78 841.566,-111.024 857.715,-99.4891"/>
<polygon fill="midnightblue" stroke="midnightblue" points="859.884,-102.241 865.987,-93.5806 855.815,-96.5449 859.884,-102.241"/>
</g>
<!-- Node13 -->
<g id="node13" class="node"><title>Node13</title>
<polygon fill="none" stroke="#bfbfbf" points="934.5,-69 934.5,-99 1085.5,-99 1085.5,-69 934.5,-69"/>
<text text-anchor="start" x="942.5" y="-87" font-family="Helvetica,sans-Serif" font-size="10.00">Math/GenVector/Displacement</text>
<text text-anchor="middle" x="1010" y="-76" font-family="Helvetica,sans-Serif" font-size="10.00">Vector3D.h</text>
</g>
<!-- Node7&#45;&gt;Node13 -->
<g id="edge12" class="edge"><title>Node7&#45;&gt;Node13</title>
<path fill="none" stroke="midnightblue" d="M824.948,-136.403C857.385,-127.393 909.173,-113.007 949.724,-101.743"/>
<polygon fill="midnightblue" stroke="midnightblue" points="950.81,-105.074 959.509,-99.0253 948.937,-98.3295 950.81,-105.074"/>
</g>
<!-- Node14 -->
<g id="node14" class="node"><title>Node14</title>
<polygon fill="none" stroke="#bfbfbf" points="1104,-74.5 1104,-93.5 1280,-93.5 1280,-74.5 1104,-74.5"/>
<text text-anchor="middle" x="1192" y="-81.5" font-family="Helvetica,sans-Serif" font-size="10.00">Math/GenVector/PositionVector3D.h</text>
</g>
<!-- Node7&#45;&gt;Node14 -->
<g id="edge13" class="edge"><title>Node7&#45;&gt;Node14</title>
<path fill="none" stroke="midnightblue" d="M851.24,-136.466C911.614,-127.453 1009.51,-112.802 1094,-100 1104.55,-98.4008 1115.75,-96.6961 1126.65,-95.031"/>
<polygon fill="midnightblue" stroke="midnightblue" points="1127.19,-98.4882 1136.55,-93.517 1126.13,-91.5686 1127.19,-98.4882"/>
</g>
<!-- Node15 -->
<g id="node15" class="node"><title>Node15</title>
<polygon fill="none" stroke="#bfbfbf" points="1298,-74.5 1298,-93.5 1352,-93.5 1352,-74.5 1298,-74.5"/>
<text text-anchor="middle" x="1325" y="-81.5" font-family="Helvetica,sans-Serif" font-size="10.00">iostream</text>
</g>
<!-- Node7&#45;&gt;Node15 -->
<g id="edge15" class="edge"><title>Node7&#45;&gt;Node15</title>
<path fill="none" stroke="midnightblue" d="M856.567,-145.148C951.276,-144.068 1136.1,-136.851 1288,-100 1291.07,-99.256 1294.21,-98.3021 1297.31,-97.2366"/>
<polygon fill="midnightblue" stroke="midnightblue" points="1298.82,-100.41 1306.91,-93.5726 1296.32,-93.8703 1298.82,-100.41"/>
</g>
<!-- Node17&#45;&gt;Node15 -->
<g id="edge18" class="edge"><title>Node17&#45;&gt;Node15</title>
<path fill="none" stroke="midnightblue" d="M1161.11,-136.481C1194.17,-128.173 1244.89,-114.672 1288,-100 1290.56,-99.1297 1293.19,-98.1768 1295.82,-97.1866"/>
<polygon fill="midnightblue" stroke="midnightblue" points="1297.15,-100.425 1305.19,-93.518 1294.6,-93.9077 1297.15,-100.425"/>
</g>
</g>
</svg>
        <g id="navigator" transform="translate(0 0)" fill="#404254">
                <rect fill="#f2f5e9" fill-opacity="0.5" stroke="#606060" stroke-width=".5" x="0" y="0" width="60" height="60"/>
                <use id="zoomplus" xlink:href="#zoomPlus" x="17" y="9" onmousedown="handleZoom(evt,'in')"/>
                <use id="zoomminus" xlink:href="#zoomMin" x="42" y="9" onmousedown="handleZoom(evt,'out')"/>
                <use id="reset" xlink:href="#resetDef" x="30" y="36" onmousedown="handleReset()"/>
                <g id="arrowUp" xlink:href="#dirArrow" transform="translate(30 24)" onmousedown="handlePan(0,-1)">
                  <use xlink:href="#rim" fill="#404040">
                        <set attributeName="fill" to="#808080" begin="arrowUp.mouseover" end="arrowUp.mouseout"/>
                  </use>
                  <path fill="none" stroke="white" stroke-width="1.5" d="M0,-3.0v7 M-2.5,-0.5L0,-3.0L2.5,-0.5"/>
                </g>
                <g id="arrowRight" xlink:href="#dirArrow" transform="rotate(90) translate(36 -43)" onmousedown="handlePan(1,0)">
                  <use xlink:href="#rim" fill="#404040">
                        <set attributeName="fill" to="#808080" begin="arrowRight.mouseover" end="arrowRight.mouseout"/>
                  </use>
                  <path fill="none" stroke="white" stroke-width="1.5" d="M0,-3.0v7 M-2.5,-0.5L0,-3.0L2.5,-0.5"/>
                </g>
                <g id="arrowDown" xlink:href="#dirArrow" transform="rotate(180) translate(-30 -48)" onmousedown="handlePan(0,1)">
                  <use xlink:href="#rim" fill="#404040">
                        <set attributeName="fill" to="#808080" begin="arrowDown.mouseover" end="arrowDown.mouseout"/>
                  </use>
                  <path fill="none" stroke="white" stroke-width="1.5" d="M0,-3.0v7 M-2.5,-0.5L0,-3.0L2.5,-0.5"/>
                </g>
                <g id="arrowLeft" xlink:href="#dirArrow" transform="rotate(270) translate(-36 17)" onmousedown="handlePan(-1,0)">
                  <use xlink:href="#rim" fill="#404040">
                        <set attributeName="fill" to="#808080" begin="arrowLeft.mouseover" end="arrowLeft.mouseout"/>
                  </use>
                  <path fill="none" stroke="white" stroke-width="1.5" d="M0,-3.0v7 M-2.5,-0.5L0,-3.0L2.5,-0.5"/>
                </g>
        </g>
        <svg viewBox="0 0 15 15" width="100%" height="30px" preserveAspectRatio="xMaxYMin meet">
         <g id="arrow_out" transform="scale(0.3 0.3)">
          <a xlink:href="PadInfo_8h__incl_org.svg" target="_base">
           <rect id="button" ry="5" rx="5" y="6" x="6" height="38" width="38"
                fill="#f2f5e9" fill-opacity="0.5" stroke="#606060" stroke-width="1.0"/>
           <path id="arrow"
             d="M 11.500037,31.436501 C 11.940474,20.09759 22.043105,11.32322 32.158766,21.979434 L 37.068811,17.246167 C 37.068811,17.246167 37.088388,32 37.088388,32 L 22.160133,31.978069 C 22.160133,31.978069 26.997745,27.140456 26.997745,27.140456 C 18.528582,18.264221 13.291696,25.230495 11.500037,31.436501 z"
             style="fill:#404040;"/>
          </a>
         </g>
        </svg>
</svg>
