<?xml version="1.0" encoding="UTF-8" standalone="no"?>
<!DOCTYPE svg PUBLIC "-//W3C//DTD SVG 1.1//EN"
 "http://www.w3.org/Graphics/SVG/1.1/DTD/svg11.dtd">
<!-- Generated by graphviz version 2.36.0 (20140111.2315)
 -->
<!-- Title: /home/travis/build/AliceO2Group/AliceO2/Detectors/Passive/src/Cave.cxx Pages: 1 -->
<svg width="762pt" height="186pt"
 viewBox="0.00 0.00 762.00 186.00" xmlns="http://www.w3.org/2000/svg" xmlns:xlink="http://www.w3.org/1999/xlink">
<g id="graph0" class="graph" transform="scale(1 1) rotate(0) translate(4 182)">
<title>/home/travis/build/AliceO2Group/AliceO2/Detectors/Passive/src/Cave.cxx</title>
<!-- Node1 -->
<g id="node1" class="node"><title>Node1</title>
<polygon fill="#bfbfbf" stroke="black" points="437,-125 437,-177 555,-177 555,-125 437,-125"/>
<text text-anchor="start" x="445" y="-165" font-family="Helvetica,sans-Serif" font-size="10.00">/home/travis/build</text>
<text text-anchor="start" x="445" y="-154" font-family="Helvetica,sans-Serif" font-size="10.00">/AliceO2Group/AliceO2</text>
<text text-anchor="start" x="445" y="-143" font-family="Helvetica,sans-Serif" font-size="10.00">/Detectors/Passive/src</text>
<text text-anchor="middle" x="496" y="-132" font-family="Helvetica,sans-Serif" font-size="10.00">/Cave.cxx</text>
</g>
<!-- Node2 -->
<g id="node2" class="node"><title>Node2</title>
<g id="a_node2"><a xlink:href="../../d9/d6d/Cave_8h.html" target="_top" xlink:title="DetectorsPassive/Cave.h">
<polygon fill="none" stroke="black" points="61.5,-62.5 61.5,-81.5 190.5,-81.5 190.5,-62.5 61.5,-62.5"/>
<text text-anchor="middle" x="126" y="-69.5" font-family="Helvetica,sans-Serif" font-size="10.00">DetectorsPassive/Cave.h</text>
</a>
</g>
</g>
<!-- Node1&#45;&gt;Node2 -->
<g id="edge1" class="edge"><title>Node1&#45;&gt;Node2</title>
<path fill="none" stroke="midnightblue" d="M436.963,-137.714C365.16,-122.771 245.144,-97.7949 177.121,-83.6387"/>
<polygon fill="midnightblue" stroke="midnightblue" points="177.573,-80.1579 167.07,-81.547 176.147,-87.0111 177.573,-80.1579"/>
</g>
<!-- Node7 -->
<g id="node7" class="node"><title>Node7</title>
<polygon fill="none" stroke="#bfbfbf" points="209,-62.5 209,-81.5 307,-81.5 307,-62.5 209,-62.5"/>
<text text-anchor="middle" x="258" y="-69.5" font-family="Helvetica,sans-Serif" font-size="10.00">FairGeoInterface.h</text>
</g>
<!-- Node1&#45;&gt;Node7 -->
<g id="edge6" class="edge"><title>Node1&#45;&gt;Node7</title>
<path fill="none" stroke="midnightblue" d="M436.863,-130.867C391.999,-116.353 331.786,-96.872 293.938,-84.627"/>
<polygon fill="midnightblue" stroke="midnightblue" points="294.946,-81.2745 284.354,-81.5263 292.791,-87.9346 294.946,-81.2745"/>
</g>
<!-- Node8 -->
<g id="node8" class="node"><title>Node8</title>
<polygon fill="none" stroke="#bfbfbf" points="324.5,-62.5 324.5,-81.5 413.5,-81.5 413.5,-62.5 324.5,-62.5"/>
<text text-anchor="middle" x="369" y="-69.5" font-family="Helvetica,sans-Serif" font-size="10.00">FairGeoLoader.h</text>
</g>
<!-- Node1&#45;&gt;Node8 -->
<g id="edge7" class="edge"><title>Node1&#45;&gt;Node8</title>
<path fill="none" stroke="midnightblue" d="M454.415,-124.787C433.663,-112.205 409.35,-97.4644 391.982,-86.9342"/>
<polygon fill="midnightblue" stroke="midnightblue" points="393.48,-83.7494 383.115,-81.5577 389.851,-89.7351 393.48,-83.7494"/>
</g>
<!-- Node9 -->
<g id="node9" class="node"><title>Node9</title>
<g id="a_node9"><a xlink:href="../../d2/d7b/GeoCave_8h.html" target="_top" xlink:title="include/DetectorsPassive\l/GeoCave.h">
<polygon fill="none" stroke="black" points="432,-57 432,-87 560,-87 560,-57 432,-57"/>
<text text-anchor="start" x="440" y="-75" font-family="Helvetica,sans-Serif" font-size="10.00">include/DetectorsPassive</text>
<text text-anchor="middle" x="496" y="-64" font-family="Helvetica,sans-Serif" font-size="10.00">/GeoCave.h</text>
</a>
</g>
</g>
<!-- Node1&#45;&gt;Node9 -->
<g id="edge8" class="edge"><title>Node1&#45;&gt;Node9</title>
<path fill="none" stroke="midnightblue" d="M496,-124.787C496,-116.029 496,-106.225 496,-97.5232"/>
<polygon fill="midnightblue" stroke="midnightblue" points="499.5,-97.252 496,-87.252 492.5,-97.2521 499.5,-97.252"/>
</g>
<!-- Node11 -->
<g id="node11" class="node"><title>Node11</title>
<polygon fill="none" stroke="#bfbfbf" points="554,-0.5 554,-19.5 610,-19.5 610,-0.5 554,-0.5"/>
<text text-anchor="middle" x="582" y="-7.5" font-family="Helvetica,sans-Serif" font-size="10.00">TString.h</text>
</g>
<!-- Node1&#45;&gt;Node11 -->
<g id="edge13" class="edge"><title>Node1&#45;&gt;Node11</title>
<path fill="none" stroke="midnightblue" d="M535.512,-124.792C548.103,-114.825 560.864,-102.31 569,-88 579.137,-70.1707 581.833,-46.5242 582.342,-30.1619"/>
<polygon fill="midnightblue" stroke="midnightblue" points="585.845,-29.7423 582.402,-19.7224 578.845,-29.7023 585.845,-29.7423"/>
</g>
<!-- Node13 -->
<g id="node13" class="node"><title>Node13</title>
<polygon fill="none" stroke="#bfbfbf" points="616.5,-62.5 616.5,-81.5 687.5,-81.5 687.5,-62.5 616.5,-62.5"/>
<text text-anchor="middle" x="652" y="-69.5" font-family="Helvetica,sans-Serif" font-size="10.00">FairLogger.h</text>
</g>
<!-- Node1&#45;&gt;Node13 -->
<g id="edge14" class="edge"><title>Node1&#45;&gt;Node13</title>
<path fill="none" stroke="midnightblue" d="M547.08,-124.787C573.28,-111.855 604.098,-96.6438 625.527,-86.0666"/>
<polygon fill="midnightblue" stroke="midnightblue" points="627.244,-89.1224 634.662,-81.5577 624.146,-82.8453 627.244,-89.1224"/>
</g>
<!-- Node14 -->
<g id="node14" class="node"><title>Node14</title>
<polygon fill="none" stroke="#bfbfbf" points="705.5,-62.5 705.5,-81.5 754.5,-81.5 754.5,-62.5 705.5,-62.5"/>
<text text-anchor="middle" x="730" y="-69.5" font-family="Helvetica,sans-Serif" font-size="10.00">cstddef</text>
</g>
<!-- Node1&#45;&gt;Node14 -->
<g id="edge15" class="edge"><title>Node1&#45;&gt;Node14</title>
<path fill="none" stroke="midnightblue" d="M555.234,-133.578C595.357,-121.982 649.356,-105.453 696,-88 697.903,-87.2878 699.853,-86.5237 701.809,-85.7314"/>
<polygon fill="midnightblue" stroke="midnightblue" points="703.613,-88.7684 711.453,-81.6428 700.881,-82.3236 703.613,-88.7684"/>
</g>
<!-- Node3 -->
<g id="node3" class="node"><title>Node3</title>
<polygon fill="none" stroke="#bfbfbf" points="-0.5,-0.5 -0.5,-19.5 78.5,-19.5 78.5,-0.5 -0.5,-0.5"/>
<text text-anchor="middle" x="39" y="-7.5" font-family="Helvetica,sans-Serif" font-size="10.00">FairDetector.h</text>
</g>
<!-- Node2&#45;&gt;Node3 -->
<g id="edge2" class="edge"><title>Node2&#45;&gt;Node3</title>
<path fill="none" stroke="midnightblue" d="M113.535,-62.4035C99.5805,-52.7797 76.7351,-37.0242 60.0091,-25.4891"/>
<polygon fill="midnightblue" stroke="midnightblue" points="61.6611,-22.3767 51.4419,-19.5806 57.6869,-28.1392 61.6611,-22.3767"/>
</g>
<!-- Node4 -->
<g id="node4" class="node"><title>Node4</title>
<polygon fill="none" stroke="#bfbfbf" points="270,-0.5 270,-19.5 326,-19.5 326,-0.5 270,-0.5"/>
<text text-anchor="middle" x="298" y="-7.5" font-family="Helvetica,sans-Serif" font-size="10.00">Rtypes.h</text>
</g>
<!-- Node2&#45;&gt;Node4 -->
<g id="edge3" class="edge"><title>Node2&#45;&gt;Node4</title>
<path fill="none" stroke="midnightblue" d="M150.643,-62.4035C180.275,-52.0668 230.185,-34.6564 263.602,-22.9994"/>
<polygon fill="midnightblue" stroke="midnightblue" points="265.113,-26.1791 273.402,-19.5806 262.807,-19.5697 265.113,-26.1791"/>
</g>
<!-- Node5 -->
<g id="node5" class="node"><title>Node5</title>
<polygon fill="none" stroke="#bfbfbf" points="96.5,-0.5 96.5,-19.5 155.5,-19.5 155.5,-0.5 96.5,-0.5"/>
<text text-anchor="middle" x="126" y="-7.5" font-family="Helvetica,sans-Serif" font-size="10.00">functional</text>
</g>
<!-- Node2&#45;&gt;Node5 -->
<g id="edge4" class="edge"><title>Node2&#45;&gt;Node5</title>
<path fill="none" stroke="midnightblue" d="M126,-62.4035C126,-53.9381 126,-40.7283 126,-29.8199"/>
<polygon fill="midnightblue" stroke="midnightblue" points="129.5,-29.5806 126,-19.5806 122.5,-29.5806 129.5,-29.5806"/>
</g>
<!-- Node6 -->
<g id="node6" class="node"><title>Node6</title>
<polygon fill="none" stroke="#bfbfbf" points="174,-0.5 174,-19.5 218,-19.5 218,-0.5 174,-0.5"/>
<text text-anchor="middle" x="196" y="-7.5" font-family="Helvetica,sans-Serif" font-size="10.00">vector</text>
</g>
<!-- Node2&#45;&gt;Node6 -->
<g id="edge5" class="edge"><title>Node2&#45;&gt;Node6</title>
<path fill="none" stroke="midnightblue" d="M136.029,-62.4035C147.049,-52.9579 164.96,-37.6056 178.343,-26.1342"/>
<polygon fill="midnightblue" stroke="midnightblue" points="180.675,-28.7459 185.989,-19.5806 176.119,-23.4311 180.675,-28.7459"/>
</g>
<!-- Node9&#45;&gt;Node4 -->
<g id="edge10" class="edge"><title>Node9&#45;&gt;Node4</title>
<path fill="none" stroke="midnightblue" d="M449.578,-56.9327C415.026,-46.4624 368.437,-32.3445 336.068,-22.5358"/>
<polygon fill="midnightblue" stroke="midnightblue" points="336.677,-19.0632 326.092,-19.5127 334.647,-25.7624 336.677,-19.0632"/>
</g>
<!-- Node10 -->
<g id="node10" class="node"><title>Node10</title>
<polygon fill="none" stroke="#bfbfbf" points="384,-0.5 384,-19.5 458,-19.5 458,-0.5 384,-0.5"/>
<text text-anchor="middle" x="421" y="-7.5" font-family="Helvetica,sans-Serif" font-size="10.00">FairGeoSet.h</text>
</g>
<!-- Node9&#45;&gt;Node10 -->
<g id="edge9" class="edge"><title>Node9&#45;&gt;Node10</title>
<path fill="none" stroke="midnightblue" d="M478.226,-56.7808C466.654,-47.5228 451.577,-35.4618 439.804,-26.0435"/>
<polygon fill="midnightblue" stroke="midnightblue" points="441.908,-23.2445 431.913,-19.7305 437.535,-28.7106 441.908,-23.2445"/>
</g>
<!-- Node9&#45;&gt;Node11 -->
<g id="edge11" class="edge"><title>Node9&#45;&gt;Node11</title>
<path fill="none" stroke="midnightblue" d="M516.381,-56.7808C529.99,-47.2862 547.824,-34.8434 561.465,-25.3267"/>
<polygon fill="midnightblue" stroke="midnightblue" points="563.538,-28.148 569.737,-19.5557 559.533,-22.4071 563.538,-28.148"/>
</g>
<!-- Node12 -->
<g id="node12" class="node"><title>Node12</title>
<polygon fill="none" stroke="#bfbfbf" points="476,-0.5 476,-19.5 526,-19.5 526,-0.5 476,-0.5"/>
<text text-anchor="middle" x="501" y="-7.5" font-family="Helvetica,sans-Serif" font-size="10.00">fstream</text>
</g>
<!-- Node9&#45;&gt;Node12 -->
<g id="edge12" class="edge"><title>Node9&#45;&gt;Node12</title>
<path fill="none" stroke="midnightblue" d="M497.185,-56.7808C497.859,-48.6913 498.712,-38.4617 499.44,-29.725"/>
<polygon fill="midnightblue" stroke="midnightblue" points="502.93,-29.9867 500.272,-19.7305 495.954,-29.4053 502.93,-29.9867"/>
</g>
</g>
</svg>
