<?xml version="1.0" encoding="UTF-8" standalone="no"?>
<!DOCTYPE svg PUBLIC "-//W3C//DTD SVG 1.1//EN"
 "http://www.w3.org/Graphics/SVG/1.1/DTD/svg11.dtd">
<!-- Generated by graphviz version 2.36.0 (20140111.2315)
 -->
<!-- Title: BitRangeContiguousAlphabet&lt; T, _nbits, NameT &gt; Pages: 1 -->
<svg width="244pt" height="726pt"
 viewBox="0.00 0.00 244.00 726.00" xmlns="http://www.w3.org/2000/svg" xmlns:xlink="http://www.w3.org/1999/xlink">
<g id="graph0" class="graph" transform="scale(1 1) rotate(0) translate(4 722)">
<title>BitRangeContiguousAlphabet&lt; T, _nbits, NameT &gt;</title>
<!-- Node1 -->
<g id="node1" class="node"><title>Node1</title>
<polygon fill="#bfbfbf" stroke="black" points="17.5,-1 17.5,-69 162.5,-69 162.5,-1 17.5,-1"/>
<text text-anchor="start" x="25.5" y="-57" font-family="Helvetica,sans-Serif" font-size="10.00">BitRangeContiguousAlphabet</text>
<text text-anchor="middle" x="90" y="-46" font-family="Helvetica,sans-Serif" font-size="10.00">&lt; T, _nbits, NameT &gt;</text>
<polyline fill="none" stroke="black" points="17.5,-39 162.5,-39 "/>
<text text-anchor="middle" x="90" y="-27" font-family="Helvetica,sans-Serif" font-size="10.00"> </text>
<polyline fill="none" stroke="black" points="17.5,-20 162.5,-20 "/>
<text text-anchor="middle" x="90" y="-8" font-family="Helvetica,sans-Serif" font-size="10.00"> </text>
</g>
<!-- Node2 -->
<g id="node2" class="node"><title>Node2</title>
<g id="a_node2"><a xlink:href="../../da/d16/classZeroBoundContiguousAlphabet.html" target="_top" xlink:title="{ZeroBoundContiguousAlphabet\l\&lt; T, getmax\&lt; T, _nbits \&gt;\l::value, NameT \&gt;\n||}">
<polygon fill="none" stroke="black" points="14,-108.5 14,-187.5 166,-187.5 166,-108.5 14,-108.5"/>
<text text-anchor="start" x="22" y="-175.5" font-family="Helvetica,sans-Serif" font-size="10.00">ZeroBoundContiguousAlphabet</text>
<text text-anchor="start" x="22" y="-164.5" font-family="Helvetica,sans-Serif" font-size="10.00">&lt; T, getmax&lt; T, _nbits &gt;</text>
<text text-anchor="middle" x="90" y="-153.5" font-family="Helvetica,sans-Serif" font-size="10.00">::value, NameT &gt;</text>
<polyline fill="none" stroke="black" points="14,-146.5 166,-146.5 "/>
<text text-anchor="middle" x="90" y="-134.5" font-family="Helvetica,sans-Serif" font-size="10.00"> </text>
<polyline fill="none" stroke="black" points="14,-127.5 166,-127.5 "/>
<text text-anchor="middle" x="90" y="-115.5" font-family="Helvetica,sans-Serif" font-size="10.00"> </text>
</a>
</g>
</g>
<!-- Node2&#45;&gt;Node1 -->
<g id="edge1" class="edge"><title>Node2&#45;&gt;Node1</title>
<path fill="none" stroke="midnightblue" d="M90,-98.3974C90,-88.5607 90,-78.4304 90,-69.2684"/>
<polygon fill="none" stroke="midnightblue" points="86.5001,-98.4891 90,-108.489 93.5001,-98.4891 86.5001,-98.4891"/>
</g>
<!-- Node3 -->
<g id="node3" class="node"><title>Node3</title>
<g id="a_node3"><a xlink:href="../../d1/d8d/classContiguousAlphabet.html" target="_top" xlink:title="{ContiguousAlphabet\l\&lt; T, 0, _max, NameT \&gt;\n||+ ContiguousAlphabet()\l+ ~ContiguousAlphabet()\l+ getIndexRange()\l+ getName()\l+ begin()\l+ end()\l+ isValid()\l+ getIndex()\l+ getSymbol()\l}">
<polygon fill="none" stroke="black" points="5.5,-355 5.5,-511 130.5,-511 130.5,-355 5.5,-355"/>
<text text-anchor="start" x="13.5" y="-499" font-family="Helvetica,sans-Serif" font-size="10.00">ContiguousAlphabet</text>
<text text-anchor="middle" x="68" y="-488" font-family="Helvetica,sans-Serif" font-size="10.00">&lt; T, 0, _max, NameT &gt;</text>
<polyline fill="none" stroke="black" points="5.5,-481 130.5,-481 "/>
<text text-anchor="middle" x="68" y="-469" font-family="Helvetica,sans-Serif" font-size="10.00"> </text>
<polyline fill="none" stroke="black" points="5.5,-462 130.5,-462 "/>
<text text-anchor="start" x="13.5" y="-450" font-family="Helvetica,sans-Serif" font-size="10.00">+ ContiguousAlphabet()</text>
<text text-anchor="start" x="13.5" y="-439" font-family="Helvetica,sans-Serif" font-size="10.00">+ ~ContiguousAlphabet()</text>
<text text-anchor="start" x="13.5" y="-428" font-family="Helvetica,sans-Serif" font-size="10.00">+ getIndexRange()</text>
<text text-anchor="start" x="13.5" y="-417" font-family="Helvetica,sans-Serif" font-size="10.00">+ getName()</text>
<text text-anchor="start" x="13.5" y="-406" font-family="Helvetica,sans-Serif" font-size="10.00">+ begin()</text>
<text text-anchor="start" x="13.5" y="-395" font-family="Helvetica,sans-Serif" font-size="10.00">+ end()</text>
<text text-anchor="start" x="13.5" y="-384" font-family="Helvetica,sans-Serif" font-size="10.00">+ isValid()</text>
<text text-anchor="start" x="13.5" y="-373" font-family="Helvetica,sans-Serif" font-size="10.00">+ getIndex()</text>
<text text-anchor="start" x="13.5" y="-362" font-family="Helvetica,sans-Serif" font-size="10.00">+ getSymbol()</text>
</a>
</g>
</g>
<!-- Node3&#45;&gt;Node2 -->
<g id="edge2" class="edge"><title>Node3&#45;&gt;Node2</title>
<path fill="none" stroke="midnightblue" d="M69.2048,-344.55C70.1852,-313.391 71.9264,-278.079 75,-246 76.8528,-226.662 80.03,-205.312 82.9846,-187.576"/>
<polygon fill="none" stroke="midnightblue" points="65.6946,-344.848 68.9006,-354.946 72.6916,-345.053 65.6946,-344.848"/>
</g>
<!-- Node5 -->
<g id="node5" class="node"><title>Node5</title>
<g id="a_node5"><a xlink:href="../../da/d16/classZeroBoundContiguousAlphabet.html" target="_top" xlink:title="{ZeroBoundContiguousAlphabet\l\&lt; T, _max, NameT \&gt;\n||}">
<polygon fill="none" stroke="black" points="84,-247 84,-315 236,-315 236,-247 84,-247"/>
<text text-anchor="start" x="92" y="-303" font-family="Helvetica,sans-Serif" font-size="10.00">ZeroBoundContiguousAlphabet</text>
<text text-anchor="middle" x="160" y="-292" font-family="Helvetica,sans-Serif" font-size="10.00">&lt; T, _max, NameT &gt;</text>
<polyline fill="none" stroke="black" points="84,-285 236,-285 "/>
<text text-anchor="middle" x="160" y="-273" font-family="Helvetica,sans-Serif" font-size="10.00"> </text>
<polyline fill="none" stroke="black" points="84,-266 236,-266 "/>
<text text-anchor="middle" x="160" y="-254" font-family="Helvetica,sans-Serif" font-size="10.00"> </text>
</a>
</g>
</g>
<!-- Node3&#45;&gt;Node5 -->
<g id="edge5" class="edge"><title>Node3&#45;&gt;Node5</title>
<path fill="none" stroke="midnightblue" d="M120.733,-346.022C127.411,-335.134 133.895,-324.562 139.606,-315.251"/>
<polygon fill="none" stroke="midnightblue" points="117.592,-344.449 115.347,-354.803 123.559,-348.109 117.592,-344.449"/>
</g>
<!-- Node4 -->
<g id="node4" class="node"><title>Node4</title>
<g id="a_node4"><a xlink:href="../../d1/d8d/classContiguousAlphabet.html" target="_top" xlink:title="{ContiguousAlphabet\l\&lt; T, _min, _max, NameT \&gt;\n||+ ContiguousAlphabet()\l+ ~ContiguousAlphabet()\l+ getIndexRange()\l+ getName()\l+ begin()\l+ end()\l+ isValid()\l+ getIndex()\l+ getSymbol()\l}">
<polygon fill="none" stroke="black" points="0,-561 0,-717 136,-717 136,-561 0,-561"/>
<text text-anchor="start" x="8" y="-705" font-family="Helvetica,sans-Serif" font-size="10.00">ContiguousAlphabet</text>
<text text-anchor="middle" x="68" y="-694" font-family="Helvetica,sans-Serif" font-size="10.00">&lt; T, _min, _max, NameT &gt;</text>
<polyline fill="none" stroke="black" points="0,-687 136,-687 "/>
<text text-anchor="middle" x="68" y="-675" font-family="Helvetica,sans-Serif" font-size="10.00"> </text>
<polyline fill="none" stroke="black" points="0,-668 136,-668 "/>
<text text-anchor="start" x="8" y="-656" font-family="Helvetica,sans-Serif" font-size="10.00">+ ContiguousAlphabet()</text>
<text text-anchor="start" x="8" y="-645" font-family="Helvetica,sans-Serif" font-size="10.00">+ ~ContiguousAlphabet()</text>
<text text-anchor="start" x="8" y="-634" font-family="Helvetica,sans-Serif" font-size="10.00">+ getIndexRange()</text>
<text text-anchor="start" x="8" y="-623" font-family="Helvetica,sans-Serif" font-size="10.00">+ getName()</text>
<text text-anchor="start" x="8" y="-612" font-family="Helvetica,sans-Serif" font-size="10.00">+ begin()</text>
<text text-anchor="start" x="8" y="-601" font-family="Helvetica,sans-Serif" font-size="10.00">+ end()</text>
<text text-anchor="start" x="8" y="-590" font-family="Helvetica,sans-Serif" font-size="10.00">+ isValid()</text>
<text text-anchor="start" x="8" y="-579" font-family="Helvetica,sans-Serif" font-size="10.00">+ getIndex()</text>
<text text-anchor="start" x="8" y="-568" font-family="Helvetica,sans-Serif" font-size="10.00">+ getSymbol()</text>
</a>
</g>
</g>
<!-- Node4&#45;&gt;Node3 -->
<g id="edge3" class="edge"><title>Node4&#45;&gt;Node3</title>
<path fill="none" stroke="orange" d="M68,-550.492C68,-537.436 68,-524.056 68,-511.233"/>
<polygon fill="orange" stroke="orange" points="64.5001,-550.876 68,-560.876 71.5001,-550.876 64.5001,-550.876"/>
<text text-anchor="middle" x="121.5" y="-533.5" font-family="Helvetica,sans-Serif" font-size="10.00"> &lt; T, 0, _max, NameT &gt;</text>
</g>
<!-- Node5&#45;&gt;Node2 -->
<g id="edge4" class="edge"><title>Node5&#45;&gt;Node2</title>
<path fill="none" stroke="orange" d="M137.421,-237.745C128.815,-221.64 119.058,-203.38 110.641,-187.629"/>
<polygon fill="orange" stroke="orange" points="134.536,-239.773 142.336,-246.943 140.71,-236.474 134.536,-239.773"/>
<text text-anchor="start" x="131" y="-220" font-family="Helvetica,sans-Serif" font-size="10.00"> &lt; T, getmax&lt; T, _nbits</text>
<text text-anchor="middle" x="183" y="-209" font-family="Helvetica,sans-Serif" font-size="10.00"> &gt;::value, NameT &gt;</text>
</g>
</g>
</svg>
