<?xml version="1.0" encoding="UTF-8" standalone="no"?>
<!DOCTYPE svg PUBLIC "-//W3C//DTD SVG 1.1//EN"
 "http://www.w3.org/Graphics/SVG/1.1/DTD/svg11.dtd">
<!-- Generated by graphviz version 2.36.0 (20140111.2315)
 -->
<!-- Title: /home/travis/build/AliceO2Group/AliceO2/Detectors/TRD/simulation/src/Detector.cxx Pages: 1 -->
<svg width="2438pt" height="390pt"
 viewBox="0.00 0.00 2438.00 390.00" xmlns="http://www.w3.org/2000/svg" xmlns:xlink="http://www.w3.org/1999/xlink">
<g id="graph0" class="graph" transform="scale(1 1) rotate(0) translate(4 386)">
<title>/home/travis/build/AliceO2Group/AliceO2/Detectors/TRD/simulation/src/Detector.cxx</title>
<!-- Node1 -->
<g id="node1" class="node"><title>Node1</title>
<polygon fill="#bfbfbf" stroke="black" points="947,-329 947,-381 1081,-381 1081,-329 947,-329"/>
<text text-anchor="start" x="955" y="-369" font-family="Helvetica,sans-Serif" font-size="10.00">/home/travis/build</text>
<text text-anchor="start" x="955" y="-358" font-family="Helvetica,sans-Serif" font-size="10.00">/AliceO2Group/AliceO2</text>
<text text-anchor="start" x="955" y="-347" font-family="Helvetica,sans-Serif" font-size="10.00">/Detectors/TRD/simulation</text>
<text text-anchor="middle" x="1014" y="-336" font-family="Helvetica,sans-Serif" font-size="10.00">/src/Detector.cxx</text>
</g>
<!-- Node2 -->
<g id="node2" class="node"><title>Node2</title>
<g id="a_node2"><a xlink:href="../../df/df0/TRD_2simulation_2include_2TRDSimulation_2Detector_8h.html" target="_top" xlink:title="TRDSimulation/Detector.h">
<polygon fill="none" stroke="black" points="1115,-266.5 1115,-285.5 1247,-285.5 1247,-266.5 1115,-266.5"/>
<text text-anchor="middle" x="1181" y="-273.5" font-family="Helvetica,sans-Serif" font-size="10.00">TRDSimulation/Detector.h</text>
</a>
</g>
</g>
<!-- Node1&#45;&gt;Node2 -->
<g id="edge1" class="edge"><title>Node1&#45;&gt;Node2</title>
<path fill="none" stroke="midnightblue" d="M1068.68,-328.787C1096.98,-315.739 1130.32,-300.369 1153.28,-289.782"/>
<polygon fill="midnightblue" stroke="midnightblue" points="1154.82,-292.923 1162.44,-285.558 1151.89,-286.566 1154.82,-292.923"/>
</g>
<!-- Node3 -->
<g id="node3" class="node"><title>Node3</title>
<polygon fill="none" stroke="#bfbfbf" points="829,-136.5 829,-155.5 873,-155.5 873,-136.5 829,-136.5"/>
<text text-anchor="middle" x="851" y="-143.5" font-family="Helvetica,sans-Serif" font-size="10.00">vector</text>
</g>
<!-- Node1&#45;&gt;Node3 -->
<g id="edge29" class="edge"><title>Node1&#45;&gt;Node3</title>
<path fill="none" stroke="midnightblue" d="M946.972,-352.064C902.58,-346.86 847.315,-332.02 818,-292 789.49,-253.079 820.188,-193.715 838.845,-164.493"/>
<polygon fill="midnightblue" stroke="midnightblue" points="841.993,-166.08 844.608,-155.812 836.161,-162.208 841.993,-166.08"/>
</g>
<!-- Node8 -->
<g id="node8" class="node"><title>Node8</title>
<polygon fill="none" stroke="#bfbfbf" points="711,-136.5 711,-155.5 811,-155.5 811,-136.5 711,-136.5"/>
<text text-anchor="middle" x="761" y="-143.5" font-family="Helvetica,sans-Serif" font-size="10.00">FairRootManager.h</text>
</g>
<!-- Node1&#45;&gt;Node8 -->
<g id="edge30" class="edge"><title>Node1&#45;&gt;Node8</title>
<path fill="none" stroke="midnightblue" d="M946.529,-350.673C900.292,-344.862 840.724,-329.87 803,-292 768.558,-257.425 761.999,-196.43 760.983,-165.744"/>
<polygon fill="midnightblue" stroke="midnightblue" points="764.48,-165.528 760.819,-155.586 757.481,-165.641 764.48,-165.528"/>
</g>
<!-- Node26 -->
<g id="node26" class="node"><title>Node26</title>
<polygon fill="none" stroke="#bfbfbf" points="827,-266.5 827,-285.5 913,-285.5 913,-266.5 827,-266.5"/>
<text text-anchor="middle" x="870" y="-273.5" font-family="Helvetica,sans-Serif" font-size="10.00">TGeoManager.h</text>
</g>
<!-- Node1&#45;&gt;Node26 -->
<g id="edge27" class="edge"><title>Node1&#45;&gt;Node26</title>
<path fill="none" stroke="midnightblue" d="M966.849,-328.787C942.883,-315.972 914.729,-300.918 894.973,-290.354"/>
<polygon fill="midnightblue" stroke="midnightblue" points="896.473,-287.187 886.004,-285.558 893.172,-293.36 896.473,-287.187"/>
</g>
<!-- Node27 -->
<g id="node27" class="node"><title>Node27</title>
<polygon fill="none" stroke="#bfbfbf" points="931,-266.5 931,-285.5 1005,-285.5 1005,-266.5 931,-266.5"/>
<text text-anchor="middle" x="968" y="-273.5" font-family="Helvetica,sans-Serif" font-size="10.00">TVirtualMC.h</text>
</g>
<!-- Node1&#45;&gt;Node27 -->
<g id="edge28" class="edge"><title>Node1&#45;&gt;Node27</title>
<path fill="none" stroke="midnightblue" d="M998.938,-328.787C992.187,-317.486 984.396,-304.445 978.321,-294.276"/>
<polygon fill="midnightblue" stroke="midnightblue" points="981.246,-292.347 973.112,-285.558 975.236,-295.937 981.246,-292.347"/>
</g>
<!-- Node28 -->
<g id="node28" class="node"><title>Node28</title>
<polygon fill="none" stroke="#bfbfbf" points="1023,-266.5 1023,-285.5 1097,-285.5 1097,-266.5 1023,-266.5"/>
<text text-anchor="middle" x="1060" y="-273.5" font-family="Helvetica,sans-Serif" font-size="10.00">FairVolume.h</text>
</g>
<!-- Node1&#45;&gt;Node28 -->
<g id="edge31" class="edge"><title>Node1&#45;&gt;Node28</title>
<path fill="none" stroke="midnightblue" d="M1029.06,-328.787C1035.81,-317.486 1043.6,-304.445 1049.68,-294.276"/>
<polygon fill="midnightblue" stroke="midnightblue" points="1052.76,-295.937 1054.89,-285.558 1046.75,-292.347 1052.76,-295.937"/>
</g>
<!-- Node29 -->
<g id="node29" class="node"><title>Node29</title>
<g id="a_node29"><a xlink:href="../../da/d32/TRDCommonParam_8h.html" target="_top" xlink:title="TRDBase/TRDCommonParam.h">
<polygon fill="none" stroke="black" points="511.5,-266.5 511.5,-285.5 672.5,-285.5 672.5,-266.5 511.5,-266.5"/>
<text text-anchor="middle" x="592" y="-273.5" font-family="Helvetica,sans-Serif" font-size="10.00">TRDBase/TRDCommonParam.h</text>
</a>
</g>
</g>
<!-- Node1&#45;&gt;Node29 -->
<g id="edge32" class="edge"><title>Node1&#45;&gt;Node29</title>
<path fill="none" stroke="midnightblue" d="M946.666,-341.714C864.267,-326.679 726.2,-301.487 648.879,-287.378"/>
<polygon fill="midnightblue" stroke="midnightblue" points="649.308,-283.899 638.842,-285.547 648.051,-290.785 649.308,-283.899"/>
</g>
<!-- Node31 -->
<g id="node31" class="node"><title>Node31</title>
<g id="a_node31"><a xlink:href="../../dd/d07/TRDGeometry_8h.html" target="_top" xlink:title="TRDBase/TRDGeometry.h">
<polygon fill="none" stroke="black" points="879.5,-198.5 879.5,-217.5 1014.5,-217.5 1014.5,-198.5 879.5,-198.5"/>
<text text-anchor="middle" x="947" y="-205.5" font-family="Helvetica,sans-Serif" font-size="10.00">TRDBase/TRDGeometry.h</text>
</a>
</g>
</g>
<!-- Node1&#45;&gt;Node31 -->
<g id="edge35" class="edge"><title>Node1&#45;&gt;Node31</title>
<path fill="none" stroke="midnightblue" d="M1081.05,-350.269C1169.47,-342.905 1308.12,-321.433 1256,-260 1252.09,-255.39 1104.4,-232.56 1014.65,-219.058"/>
<polygon fill="midnightblue" stroke="midnightblue" points="1014.95,-215.564 1004.54,-217.54 1013.91,-222.487 1014.95,-215.564"/>
</g>
<!-- Node32 -->
<g id="node32" class="node"><title>Node32</title>
<g id="a_node32"><a xlink:href="../../dc/db6/Stack_8h.html" target="_top" xlink:title="Definition of the Stack class. ">
<polygon fill="none" stroke="black" points="1391,-261 1391,-291 1505,-291 1505,-261 1391,-261"/>
<text text-anchor="start" x="1399" y="-279" font-family="Helvetica,sans-Serif" font-size="10.00">SimulationDataFormat</text>
<text text-anchor="middle" x="1448" y="-268" font-family="Helvetica,sans-Serif" font-size="10.00">/Stack.h</text>
</a>
</g>
</g>
<!-- Node1&#45;&gt;Node32 -->
<g id="edge38" class="edge"><title>Node1&#45;&gt;Node32</title>
<path fill="none" stroke="midnightblue" d="M1081.34,-342.053C1162.85,-327.591 1299.29,-303.384 1380.76,-288.929"/>
<polygon fill="midnightblue" stroke="midnightblue" points="1381.67,-292.323 1390.9,-287.13 1380.45,-285.431 1381.67,-292.323"/>
</g>
<!-- Node52 -->
<g id="node52" class="node"><title>Node52</title>
<polygon fill="none" stroke="#bfbfbf" points="1523.5,-266.5 1523.5,-285.5 1582.5,-285.5 1582.5,-266.5 1523.5,-266.5"/>
<text text-anchor="middle" x="1553" y="-273.5" font-family="Helvetica,sans-Serif" font-size="10.00">stdexcept</text>
</g>
<!-- Node1&#45;&gt;Node52 -->
<g id="edge67" class="edge"><title>Node1&#45;&gt;Node52</title>
<path fill="none" stroke="midnightblue" d="M1081.27,-350.866C1178.18,-345.183 1362.11,-330.019 1514,-292 1517.24,-291.19 1520.57,-290.186 1523.86,-289.085"/>
<polygon fill="midnightblue" stroke="midnightblue" points="1525.26,-292.299 1533.46,-285.585 1522.87,-285.722 1525.26,-292.299"/>
</g>
<!-- Node2&#45;&gt;Node3 -->
<g id="edge2" class="edge"><title>Node2&#45;&gt;Node3</title>
<path fill="none" stroke="midnightblue" d="M1140.19,-266.484C1129.12,-264.27 1117.12,-261.958 1106,-260 1053.75,-250.795 909.172,-259.777 870,-224 853.987,-209.375 850.486,-183.6 850.162,-165.931"/>
<polygon fill="midnightblue" stroke="midnightblue" points="853.665,-165.738 850.309,-155.688 846.666,-165.637 853.665,-165.738"/>
</g>
<!-- Node4 -->
<g id="node4" class="node"><title>Node4</title>
<g id="a_node4"><a xlink:href="../../d1/d3a/Base_2include_2DetectorsBase_2Detector_8h.html" target="_top" xlink:title="DetectorsBase/Detector.h">
<polygon fill="none" stroke="black" points="1061.5,-198.5 1061.5,-217.5 1192.5,-217.5 1192.5,-198.5 1061.5,-198.5"/>
<text text-anchor="middle" x="1127" y="-205.5" font-family="Helvetica,sans-Serif" font-size="10.00">DetectorsBase/Detector.h</text>
</a>
</g>
</g>
<!-- Node2&#45;&gt;Node4 -->
<g id="edge3" class="edge"><title>Node2&#45;&gt;Node4</title>
<path fill="none" stroke="midnightblue" d="M1173.94,-266.372C1165.5,-256.053 1151.18,-238.551 1140.57,-225.585"/>
<polygon fill="midnightblue" stroke="midnightblue" points="1143.27,-223.364 1134.23,-217.841 1137.86,-227.797 1143.27,-223.364"/>
</g>
<!-- Node14 -->
<g id="node14" class="node"><title>Node14</title>
<g id="a_node14"><a xlink:href="../../d4/d25/BaseHits_8h.html" target="_top" xlink:title="SimulationDataFormat\l/BaseHits.h">
<polygon fill="none" stroke="black" points="619,-193 619,-223 733,-223 733,-193 619,-193"/>
<text text-anchor="start" x="627" y="-211" font-family="Helvetica,sans-Serif" font-size="10.00">SimulationDataFormat</text>
<text text-anchor="middle" x="676" y="-200" font-family="Helvetica,sans-Serif" font-size="10.00">/BaseHits.h</text>
</a>
</g>
</g>
<!-- Node2&#45;&gt;Node14 -->
<g id="edge14" class="edge"><title>Node2&#45;&gt;Node14</title>
<path fill="none" stroke="midnightblue" d="M1141.4,-266.47C1130.01,-264.181 1117.54,-261.835 1106,-260 978.296,-239.689 828.076,-223.648 743.249,-215.308"/>
<polygon fill="midnightblue" stroke="midnightblue" points="743.528,-211.819 733.235,-214.33 742.847,-218.786 743.528,-211.819"/>
</g>
<!-- Node4&#45;&gt;Node3 -->
<g id="edge5" class="edge"><title>Node4&#45;&gt;Node3</title>
<path fill="none" stroke="midnightblue" d="M1080.7,-198.469C1033.38,-189.504 957.585,-174.464 883.29,-156.179"/>
<polygon fill="midnightblue" stroke="midnightblue" points="883.844,-152.71 873.295,-153.696 882.157,-159.503 883.844,-152.71"/>
</g>
<!-- Node5 -->
<g id="node5" class="node"><title>Node5</title>
<polygon fill="none" stroke="#bfbfbf" points="1265.5,-136.5 1265.5,-155.5 1300.5,-155.5 1300.5,-136.5 1265.5,-136.5"/>
<text text-anchor="middle" x="1283" y="-143.5" font-family="Helvetica,sans-Serif" font-size="10.00">map</text>
</g>
<!-- Node4&#45;&gt;Node5 -->
<g id="edge4" class="edge"><title>Node4&#45;&gt;Node5</title>
<path fill="none" stroke="midnightblue" d="M1149.35,-198.403C1177.36,-187.632 1225.34,-169.179 1255.55,-157.559"/>
<polygon fill="midnightblue" stroke="midnightblue" points="1256.98,-160.759 1265.05,-153.902 1254.46,-154.225 1256.98,-160.759"/>
</g>
<!-- Node6 -->
<g id="node6" class="node"><title>Node6</title>
<polygon fill="none" stroke="#bfbfbf" points="1319,-136.5 1319,-155.5 1371,-155.5 1371,-136.5 1319,-136.5"/>
<text text-anchor="middle" x="1345" y="-143.5" font-family="Helvetica,sans-Serif" font-size="10.00">memory</text>
</g>
<!-- Node4&#45;&gt;Node6 -->
<g id="edge6" class="edge"><title>Node4&#45;&gt;Node6</title>
<path fill="none" stroke="midnightblue" d="M1158.23,-198.403C1198.15,-187.417 1267.1,-168.44 1309.13,-156.873"/>
<polygon fill="midnightblue" stroke="midnightblue" points="1310.23,-160.2 1318.94,-154.172 1308.37,-153.451 1310.23,-160.2"/>
</g>
<!-- Node7 -->
<g id="node7" class="node"><title>Node7</title>
<polygon fill="none" stroke="#bfbfbf" points="1019.5,-136.5 1019.5,-155.5 1098.5,-155.5 1098.5,-136.5 1019.5,-136.5"/>
<text text-anchor="middle" x="1059" y="-143.5" font-family="Helvetica,sans-Serif" font-size="10.00">FairDetector.h</text>
</g>
<!-- Node4&#45;&gt;Node7 -->
<g id="edge7" class="edge"><title>Node4&#45;&gt;Node7</title>
<path fill="none" stroke="midnightblue" d="M1117.26,-198.403C1106.65,-189.047 1089.48,-173.895 1076.52,-162.46"/>
<polygon fill="midnightblue" stroke="midnightblue" points="1078.54,-159.572 1068.72,-155.581 1073.91,-164.821 1078.54,-159.572"/>
</g>
<!-- Node4&#45;&gt;Node8 -->
<g id="edge8" class="edge"><title>Node4&#45;&gt;Node8</title>
<path fill="none" stroke="midnightblue" d="M1074.95,-198.467C1007.98,-187.489 891.892,-168.458 821.198,-156.869"/>
<polygon fill="midnightblue" stroke="midnightblue" points="821.543,-153.378 811.108,-155.214 820.41,-160.286 821.543,-153.378"/>
</g>
<!-- Node9 -->
<g id="node9" class="node"><title>Node9</title>
<polygon fill="none" stroke="#bfbfbf" points="1251,-74.5 1251,-93.5 1307,-93.5 1307,-74.5 1251,-74.5"/>
<text text-anchor="middle" x="1279" y="-81.5" font-family="Helvetica,sans-Serif" font-size="10.00">Rtypes.h</text>
</g>
<!-- Node4&#45;&gt;Node9 -->
<g id="edge9" class="edge"><title>Node4&#45;&gt;Node9</title>
<path fill="none" stroke="midnightblue" d="M1126.91,-198.406C1127.23,-183.761 1129.95,-153.827 1146,-136 1170.42,-108.875 1210.9,-96.0752 1240.79,-90.0985"/>
<polygon fill="midnightblue" stroke="midnightblue" points="1241.67,-93.4956 1250.88,-88.2567 1240.42,-86.6094 1241.67,-93.4956"/>
</g>
<!-- Node10 -->
<g id="node10" class="node"><title>Node10</title>
<polygon fill="none" stroke="#bfbfbf" points="1155.5,-136.5 1155.5,-155.5 1208.5,-155.5 1208.5,-136.5 1155.5,-136.5"/>
<text text-anchor="middle" x="1182" y="-143.5" font-family="Helvetica,sans-Serif" font-size="10.00">cxxabi.h</text>
</g>
<!-- Node4&#45;&gt;Node10 -->
<g id="edge10" class="edge"><title>Node4&#45;&gt;Node10</title>
<path fill="none" stroke="midnightblue" d="M1134.88,-198.403C1143.29,-189.225 1156.82,-174.47 1167.23,-163.117"/>
<polygon fill="midnightblue" stroke="midnightblue" points="1169.96,-165.317 1174.13,-155.581 1164.8,-160.587 1169.96,-165.317"/>
</g>
<!-- Node11 -->
<g id="node11" class="node"><title>Node11</title>
<polygon fill="none" stroke="#bfbfbf" points="950.5,-136.5 950.5,-155.5 1001.5,-155.5 1001.5,-136.5 950.5,-136.5"/>
<text text-anchor="middle" x="976" y="-143.5" font-family="Helvetica,sans-Serif" font-size="10.00">typeinfo</text>
</g>
<!-- Node4&#45;&gt;Node11 -->
<g id="edge11" class="edge"><title>Node4&#45;&gt;Node11</title>
<path fill="none" stroke="midnightblue" d="M1105.37,-198.403C1079.58,-188.156 1036.29,-170.956 1006.96,-159.302"/>
<polygon fill="midnightblue" stroke="midnightblue" points="1008.18,-156.021 997.594,-155.581 1005.6,-162.526 1008.18,-156.021"/>
</g>
<!-- Node12 -->
<g id="node12" class="node"><title>Node12</title>
<polygon fill="none" stroke="#bfbfbf" points="1686,-74.5 1686,-93.5 1748,-93.5 1748,-74.5 1686,-74.5"/>
<text text-anchor="middle" x="1717" y="-81.5" font-family="Helvetica,sans-Serif" font-size="10.00">type_traits</text>
</g>
<!-- Node4&#45;&gt;Node12 -->
<g id="edge12" class="edge"><title>Node4&#45;&gt;Node12</title>
<path fill="none" stroke="midnightblue" d="M1142.44,-198.293C1175.35,-179.758 1249.94,-137.92 1256,-136 1405.29,-88.7268 1593.8,-83.8456 1675.79,-84.2299"/>
<polygon fill="midnightblue" stroke="midnightblue" points="1675.92,-87.7309 1685.94,-84.3076 1675.97,-80.7311 1675.92,-87.7309"/>
</g>
<!-- Node13 -->
<g id="node13" class="node"><title>Node13</title>
<polygon fill="none" stroke="#bfbfbf" points="891.5,-136.5 891.5,-155.5 932.5,-155.5 932.5,-136.5 891.5,-136.5"/>
<text text-anchor="middle" x="912" y="-143.5" font-family="Helvetica,sans-Serif" font-size="10.00">string</text>
</g>
<!-- Node4&#45;&gt;Node13 -->
<g id="edge13" class="edge"><title>Node4&#45;&gt;Node13</title>
<path fill="none" stroke="midnightblue" d="M1094.65,-198.48C1059.43,-189.128 1001.23,-173.448 942.397,-156.345"/>
<polygon fill="midnightblue" stroke="midnightblue" points="943.15,-152.919 932.57,-153.476 941.188,-159.638 943.15,-152.919"/>
</g>
<!-- Node15 -->
<g id="node15" class="node"><title>Node15</title>
<g id="a_node15"><a xlink:href="../../dd/d76/Cartesian3D_8h.html" target="_top" xlink:title="MathUtils/Cartesian3D.h">
<polygon fill="none" stroke="black" points="529.5,-136.5 529.5,-155.5 654.5,-155.5 654.5,-136.5 529.5,-136.5"/>
<text text-anchor="middle" x="592" y="-143.5" font-family="Helvetica,sans-Serif" font-size="10.00">MathUtils/Cartesian3D.h</text>
</a>
</g>
</g>
<!-- Node14&#45;&gt;Node15 -->
<g id="edge15" class="edge"><title>Node14&#45;&gt;Node15</title>
<path fill="none" stroke="midnightblue" d="M656.093,-192.781C643.006,-183.433 625.918,-171.227 612.678,-161.77"/>
<polygon fill="midnightblue" stroke="midnightblue" points="614.394,-158.695 604.223,-155.731 610.326,-164.391 614.394,-158.695"/>
</g>
<!-- Node15&#45;&gt;Node9 -->
<g id="edge19" class="edge"><title>Node15&#45;&gt;Node9</title>
<path fill="none" stroke="midnightblue" d="M654.589,-137.439C659.463,-136.925 664.31,-136.438 669,-136 896.569,-114.727 954.865,-125.487 1182,-100 1201.39,-97.8239 1222.85,-94.5928 1240.64,-91.6862"/>
<polygon fill="midnightblue" stroke="midnightblue" points="1241.36,-95.1151 1250.65,-90.0228 1240.21,-88.2099 1241.36,-95.1151"/>
</g>
<!-- Node16 -->
<g id="node16" class="node"><title>Node16</title>
<polygon fill="none" stroke="#bfbfbf" points="577.5,-74.5 577.5,-93.5 726.5,-93.5 726.5,-74.5 577.5,-74.5"/>
<text text-anchor="middle" x="652" y="-81.5" font-family="Helvetica,sans-Serif" font-size="10.00">Math/GenVector/Rotation3D.h</text>
</g>
<!-- Node15&#45;&gt;Node16 -->
<g id="edge16" class="edge"><title>Node15&#45;&gt;Node16</title>
<path fill="none" stroke="midnightblue" d="M600.597,-136.403C609.864,-127.136 624.817,-112.183 636.212,-100.788"/>
<polygon fill="midnightblue" stroke="midnightblue" points="638.823,-103.127 643.419,-93.5806 633.873,-98.1768 638.823,-103.127"/>
</g>
<!-- Node17 -->
<g id="node17" class="node"><title>Node17</title>
<polygon fill="none" stroke="#bfbfbf" points="745,-74.5 745,-93.5 901,-93.5 901,-74.5 745,-74.5"/>
<text text-anchor="middle" x="823" y="-81.5" font-family="Helvetica,sans-Serif" font-size="10.00">Math/GenVector/Transform3D.h</text>
</g>
<!-- Node15&#45;&gt;Node17 -->
<g id="edge17" class="edge"><title>Node15&#45;&gt;Node17</title>
<path fill="none" stroke="midnightblue" d="M625.097,-136.403C665.922,-125.799 735.408,-107.751 780.239,-96.1067"/>
<polygon fill="midnightblue" stroke="midnightblue" points="781.166,-99.4822 789.965,-93.5806 779.406,-92.7071 781.166,-99.4822"/>
</g>
<!-- Node18 -->
<g id="node18" class="node"><title>Node18</title>
<polygon fill="none" stroke="#bfbfbf" points="919,-74.5 919,-93.5 1079,-93.5 1079,-74.5 919,-74.5"/>
<text text-anchor="middle" x="999" y="-81.5" font-family="Helvetica,sans-Serif" font-size="10.00">Math/GenVector/Translation3D.h</text>
</g>
<!-- Node15&#45;&gt;Node18 -->
<g id="edge18" class="edge"><title>Node15&#45;&gt;Node18</title>
<path fill="none" stroke="midnightblue" d="M654.524,-136.648C718.703,-127.959 821.426,-113.729 910,-100 919.539,-98.5215 929.64,-96.8861 939.481,-95.2547"/>
<polygon fill="midnightblue" stroke="midnightblue" points="940.321,-98.663 949.608,-93.563 939.168,-91.7587 940.321,-98.663"/>
</g>
<!-- Node19 -->
<g id="node19" class="node"><title>Node19</title>
<polygon fill="none" stroke="#bfbfbf" points="1097,-74.5 1097,-93.5 1173,-93.5 1173,-74.5 1097,-74.5"/>
<text text-anchor="middle" x="1135" y="-81.5" font-family="Helvetica,sans-Serif" font-size="10.00">TGeoMatrix.h</text>
</g>
<!-- Node15&#45;&gt;Node19 -->
<g id="edge20" class="edge"><title>Node15&#45;&gt;Node19</title>
<path fill="none" stroke="midnightblue" d="M654.597,-137.521C659.469,-136.989 664.313,-136.475 669,-136 854.955,-117.148 904.719,-136.642 1088,-100 1092.56,-99.0875 1097.31,-97.8865 1101.95,-96.5605"/>
<polygon fill="midnightblue" stroke="midnightblue" points="1103.31,-99.8044 1111.84,-93.5218 1101.25,-93.1131 1103.31,-99.8044"/>
</g>
<!-- Node20 -->
<g id="node20" class="node"><title>Node20</title>
<polygon fill="none" stroke="#bfbfbf" points="-0.5,-69 -0.5,-99 150.5,-99 150.5,-69 -0.5,-69"/>
<text text-anchor="start" x="7.5" y="-87" font-family="Helvetica,sans-Serif" font-size="10.00">Math/GenVector/Displacement</text>
<text text-anchor="middle" x="75" y="-76" font-family="Helvetica,sans-Serif" font-size="10.00">Vector3D.h</text>
</g>
<!-- Node15&#45;&gt;Node20 -->
<g id="edge21" class="edge"><title>Node15&#45;&gt;Node20</title>
<path fill="none" stroke="midnightblue" d="M529.232,-139.867C447.068,-132.835 298.355,-119.035 161.229,-100.11"/>
<polygon fill="midnightblue" stroke="midnightblue" points="161.345,-96.592 150.958,-98.6792 160.379,-103.525 161.345,-96.592"/>
</g>
<!-- Node21 -->
<g id="node21" class="node"><title>Node21</title>
<polygon fill="none" stroke="#bfbfbf" points="169,-74.5 169,-93.5 345,-93.5 345,-74.5 169,-74.5"/>
<text text-anchor="middle" x="257" y="-81.5" font-family="Helvetica,sans-Serif" font-size="10.00">Math/GenVector/PositionVector3D.h</text>
</g>
<!-- Node15&#45;&gt;Node21 -->
<g id="edge22" class="edge"><title>Node15&#45;&gt;Node21</title>
<path fill="none" stroke="midnightblue" d="M544.358,-136.467C483.831,-125.626 379.453,-106.932 314.543,-95.3062"/>
<polygon fill="midnightblue" stroke="midnightblue" points="314.938,-91.8213 304.477,-93.5034 313.704,-98.7116 314.938,-91.8213"/>
</g>
<!-- Node22 -->
<g id="node22" class="node"><title>Node22</title>
<g id="a_node22"><a xlink:href="../../d2/dd0/Cartesian2D_8h.html" target="_top" xlink:title="MathUtils/Cartesian2D.h">
<polygon fill="none" stroke="black" points="362.5,-74.5 362.5,-93.5 487.5,-93.5 487.5,-74.5 362.5,-74.5"/>
<text text-anchor="middle" x="425" y="-81.5" font-family="Helvetica,sans-Serif" font-size="10.00">MathUtils/Cartesian2D.h</text>
</a>
</g>
</g>
<!-- Node15&#45;&gt;Node22 -->
<g id="edge23" class="edge"><title>Node15&#45;&gt;Node22</title>
<path fill="none" stroke="midnightblue" d="M568.073,-136.403C539.303,-126.067 490.844,-108.656 458.398,-96.9994"/>
<polygon fill="midnightblue" stroke="midnightblue" points="459.477,-93.668 448.883,-93.5806 457.11,-100.256 459.477,-93.668"/>
</g>
<!-- Node25 -->
<g id="node25" class="node"><title>Node25</title>
<polygon fill="none" stroke="#bfbfbf" points="506,-74.5 506,-93.5 560,-93.5 560,-74.5 506,-74.5"/>
<text text-anchor="middle" x="533" y="-81.5" font-family="Helvetica,sans-Serif" font-size="10.00">iostream</text>
</g>
<!-- Node15&#45;&gt;Node25 -->
<g id="edge26" class="edge"><title>Node15&#45;&gt;Node25</title>
<path fill="none" stroke="midnightblue" d="M583.547,-136.403C574.434,-127.136 559.73,-112.183 548.524,-100.788"/>
<polygon fill="midnightblue" stroke="midnightblue" points="550.945,-98.2569 541.438,-93.5806 545.953,-103.165 550.945,-98.2569"/>
</g>
<!-- Node23 -->
<g id="node23" class="node"><title>Node23</title>
<polygon fill="none" stroke="#bfbfbf" points="258.5,-1 258.5,-31 409.5,-31 409.5,-1 258.5,-1"/>
<text text-anchor="start" x="266.5" y="-19" font-family="Helvetica,sans-Serif" font-size="10.00">Math/GenVector/Displacement</text>
<text text-anchor="middle" x="334" y="-8" font-family="Helvetica,sans-Serif" font-size="10.00">Vector2D.h</text>
</g>
<!-- Node22&#45;&gt;Node23 -->
<g id="edge24" class="edge"><title>Node22&#45;&gt;Node23</title>
<path fill="none" stroke="midnightblue" d="M413.103,-74.3717C400.221,-65.0286 379.22,-49.7966 362.093,-37.375"/>
<polygon fill="midnightblue" stroke="midnightblue" points="363.703,-34.2194 353.553,-31.1815 359.593,-39.8859 363.703,-34.2194"/>
</g>
<!-- Node24 -->
<g id="node24" class="node"><title>Node24</title>
<polygon fill="none" stroke="#bfbfbf" points="428,-6.5 428,-25.5 604,-25.5 604,-6.5 428,-6.5"/>
<text text-anchor="middle" x="516" y="-13.5" font-family="Helvetica,sans-Serif" font-size="10.00">Math/GenVector/PositionVector2D.h</text>
</g>
<!-- Node22&#45;&gt;Node24 -->
<g id="edge25" class="edge"><title>Node22&#45;&gt;Node24</title>
<path fill="none" stroke="midnightblue" d="M436.897,-74.3717C451.884,-63.5015 477.862,-44.6602 495.942,-31.5474"/>
<polygon fill="midnightblue" stroke="midnightblue" points="498.06,-34.3349 504.1,-25.6305 493.95,-28.6684 498.06,-34.3349"/>
</g>
<!-- Node30 -->
<g id="node30" class="node"><title>Node30</title>
<g id="a_node30"><a xlink:href="../../d9/df4/TRDSimParam_8h.html" target="_top" xlink:title="TRDBase/TRDSimParam.h">
<polygon fill="none" stroke="black" points="463,-198.5 463,-217.5 601,-217.5 601,-198.5 463,-198.5"/>
<text text-anchor="middle" x="532" y="-205.5" font-family="Helvetica,sans-Serif" font-size="10.00">TRDBase/TRDSimParam.h</text>
</a>
</g>
</g>
<!-- Node29&#45;&gt;Node30 -->
<g id="edge33" class="edge"><title>Node29&#45;&gt;Node30</title>
<path fill="none" stroke="midnightblue" d="M584.156,-266.372C574.775,-256.053 558.865,-238.551 547.078,-225.585"/>
<polygon fill="midnightblue" stroke="midnightblue" points="549.354,-222.886 540.037,-217.841 544.174,-227.595 549.354,-222.886"/>
</g>
<!-- Node30&#45;&gt;Node9 -->
<g id="edge34" class="edge"><title>Node30&#45;&gt;Node9</title>
<path fill="none" stroke="midnightblue" d="M556.452,-198.334C583,-188.728 626.495,-172.414 663,-156 680.766,-148.012 683.249,-141.278 702,-136 907.931,-78.04 969.46,-124.366 1182,-100 1201.39,-97.7773 1222.84,-94.5414 1240.63,-91.6436"/>
<polygon fill="midnightblue" stroke="midnightblue" points="1241.35,-95.073 1250.64,-89.9867 1240.2,-88.167 1241.35,-95.073"/>
</g>
<!-- Node31&#45;&gt;Node3 -->
<g id="edge37" class="edge"><title>Node31&#45;&gt;Node3</title>
<path fill="none" stroke="midnightblue" d="M933.246,-198.403C917.634,-188.646 891.937,-172.585 873.417,-161.011"/>
<polygon fill="midnightblue" stroke="midnightblue" points="875.064,-157.913 864.729,-155.581 871.354,-163.849 875.064,-157.913"/>
</g>
<!-- Node31&#45;&gt;Node13 -->
<g id="edge36" class="edge"><title>Node31&#45;&gt;Node13</title>
<path fill="none" stroke="midnightblue" d="M941.985,-198.403C936.839,-189.582 928.688,-175.608 922.182,-164.455"/>
<polygon fill="midnightblue" stroke="midnightblue" points="925.067,-162.455 917.005,-155.581 919.021,-165.982 925.067,-162.455"/>
</g>
<!-- Node32&#45;&gt;Node5 -->
<g id="edge63" class="edge"><title>Node32&#45;&gt;Node5</title>
<path fill="none" stroke="midnightblue" d="M1419.84,-260.812C1402.23,-251.389 1379.47,-238.177 1361,-224 1336.83,-205.453 1312.39,-179.99 1297.46,-163.514"/>
<polygon fill="midnightblue" stroke="midnightblue" points="1299.85,-160.931 1290.58,-155.802 1294.63,-165.593 1299.85,-160.931"/>
</g>
<!-- Node32&#45;&gt;Node6 -->
<g id="edge66" class="edge"><title>Node32&#45;&gt;Node6</title>
<path fill="none" stroke="midnightblue" d="M1426.24,-260.822C1413.13,-251.498 1396.75,-238.389 1385,-224 1370.31,-206.004 1358.8,-181.747 1351.97,-165.302"/>
<polygon fill="midnightblue" stroke="midnightblue" points="1355.13,-163.764 1348.18,-155.769 1348.62,-166.354 1355.13,-163.764"/>
</g>
<!-- Node32&#45;&gt;Node9 -->
<g id="edge61" class="edge"><title>Node32&#45;&gt;Node9</title>
<path fill="none" stroke="midnightblue" d="M1439.11,-260.975C1432.87,-250.875 1424.51,-236.824 1418,-224 1398.72,-186.011 1409.21,-167.014 1380,-136 1362.79,-117.729 1337.6,-104.993 1316.69,-96.8168"/>
<polygon fill="midnightblue" stroke="midnightblue" points="1317.71,-93.4641 1307.12,-93.2717 1315.28,-100.028 1317.71,-93.4641"/>
</g>
<!-- Node33 -->
<g id="node33" class="node"><title>Node33</title>
<polygon fill="none" stroke="#bfbfbf" points="1759.5,-198.5 1759.5,-217.5 1860.5,-217.5 1860.5,-198.5 1759.5,-198.5"/>
<text text-anchor="middle" x="1810" y="-205.5" font-family="Helvetica,sans-Serif" font-size="10.00">FairGenericStack.h</text>
</g>
<!-- Node32&#45;&gt;Node33 -->
<g id="edge39" class="edge"><title>Node32&#45;&gt;Node33</title>
<path fill="none" stroke="midnightblue" d="M1505.18,-261.738C1508.16,-261.131 1511.11,-260.547 1514,-260 1618.24,-240.23 1645.97,-244.89 1750,-224 1755.87,-222.822 1762.02,-221.446 1768.07,-220.014"/>
<polygon fill="midnightblue" stroke="midnightblue" points="1769.17,-223.347 1778.05,-217.576 1767.51,-216.547 1769.17,-223.347"/>
</g>
<!-- Node34 -->
<g id="node34" class="node"><title>Node34</title>
<g id="a_node34"><a xlink:href="../../d2/de2/MCTrack_8h.html" target="_top" xlink:title="Definition of the MCTrack class. ">
<polygon fill="none" stroke="black" points="1627,-193 1627,-223 1741,-223 1741,-193 1627,-193"/>
<text text-anchor="start" x="1635" y="-211" font-family="Helvetica,sans-Serif" font-size="10.00">SimulationDataFormat</text>
<text text-anchor="middle" x="1684" y="-200" font-family="Helvetica,sans-Serif" font-size="10.00">/MCTrack.h</text>
</a>
</g>
</g>
<!-- Node32&#45;&gt;Node34 -->
<g id="edge40" class="edge"><title>Node32&#45;&gt;Node34</title>
<path fill="none" stroke="midnightblue" d="M1498.34,-260.922C1535,-250.67 1584.82,-236.738 1623.62,-225.887"/>
<polygon fill="midnightblue" stroke="midnightblue" points="1625.05,-229.12 1633.74,-223.056 1623.17,-222.379 1625.05,-229.12"/>
</g>
<!-- Node38 -->
<g id="node38" class="node"><title>Node38</title>
<g id="a_node38"><a xlink:href="../../d6/d31/DetID_8h.html" target="_top" xlink:title="DetectorsBase/DetID.h">
<polygon fill="none" stroke="black" points="2130.5,-136.5 2130.5,-155.5 2249.5,-155.5 2249.5,-136.5 2130.5,-136.5"/>
<text text-anchor="middle" x="2190" y="-143.5" font-family="Helvetica,sans-Serif" font-size="10.00">DetectorsBase/DetID.h</text>
</a>
</g>
</g>
<!-- Node32&#45;&gt;Node38 -->
<g id="edge60" class="edge"><title>Node32&#45;&gt;Node38</title>
<path fill="none" stroke="midnightblue" d="M1505.15,-261.561C1508.14,-261 1511.1,-260.475 1514,-260 1670.5,-234.379 1712.65,-250.556 1869,-224 1971.55,-206.582 2090.04,-175.157 2150.32,-158.343"/>
<polygon fill="midnightblue" stroke="midnightblue" points="2151.5,-161.647 2160.18,-155.576 2149.61,-154.907 2151.5,-161.647"/>
</g>
<!-- Node47 -->
<g id="node47" class="node"><title>Node47</title>
<polygon fill="none" stroke="#bfbfbf" points="1427,-136.5 1427,-155.5 1491,-155.5 1491,-136.5 1427,-136.5"/>
<text text-anchor="middle" x="1459" y="-143.5" font-family="Helvetica,sans-Serif" font-size="10.00">TParticle.h</text>
</g>
<!-- Node32&#45;&gt;Node47 -->
<g id="edge62" class="edge"><title>Node32&#45;&gt;Node47</title>
<path fill="none" stroke="midnightblue" d="M1491.3,-260.795C1508.37,-252.826 1526.21,-240.983 1536,-224 1543.1,-211.677 1543.08,-204.336 1536,-192 1527.38,-176.986 1511.61,-166.504 1496.57,-159.458"/>
<polygon fill="midnightblue" stroke="midnightblue" points="1497.94,-156.238 1487.37,-155.505 1495.18,-162.669 1497.94,-156.238"/>
</g>
<!-- Node50 -->
<g id="node50" class="node"><title>Node50</title>
<polygon fill="none" stroke="#bfbfbf" points="1427.5,-198.5 1427.5,-217.5 1468.5,-217.5 1468.5,-198.5 1427.5,-198.5"/>
<text text-anchor="middle" x="1448" y="-205.5" font-family="Helvetica,sans-Serif" font-size="10.00">stack</text>
</g>
<!-- Node32&#45;&gt;Node50 -->
<g id="edge64" class="edge"><title>Node32&#45;&gt;Node50</title>
<path fill="none" stroke="midnightblue" d="M1448,-260.679C1448,-251.101 1448,-238.394 1448,-227.977"/>
<polygon fill="midnightblue" stroke="midnightblue" points="1451.5,-227.828 1448,-217.828 1444.5,-227.828 1451.5,-227.828"/>
</g>
<!-- Node51 -->
<g id="node51" class="node"><title>Node51</title>
<polygon fill="none" stroke="#bfbfbf" points="1487,-198.5 1487,-217.5 1527,-217.5 1527,-198.5 1487,-198.5"/>
<text text-anchor="middle" x="1507" y="-205.5" font-family="Helvetica,sans-Serif" font-size="10.00">utility</text>
</g>
<!-- Node32&#45;&gt;Node51 -->
<g id="edge65" class="edge"><title>Node32&#45;&gt;Node51</title>
<path fill="none" stroke="midnightblue" d="M1460.8,-260.679C1470.09,-250.286 1482.68,-236.208 1492.37,-225.37"/>
<polygon fill="midnightblue" stroke="midnightblue" points="1495.05,-227.616 1499.11,-217.828 1489.83,-222.951 1495.05,-227.616"/>
</g>
<!-- Node34&#45;&gt;Node9 -->
<g id="edge41" class="edge"><title>Node34&#45;&gt;Node9</title>
<path fill="none" stroke="midnightblue" d="M1638.28,-192.963C1609.16,-183.551 1570.87,-170.297 1538,-156 1520.5,-148.388 1517.89,-142.645 1500,-136 1437.98,-112.962 1362.16,-98.1954 1317.38,-90.7669"/>
<polygon fill="midnightblue" stroke="midnightblue" points="1317.67,-87.2671 1307.23,-89.1213 1316.55,-94.1769 1317.67,-87.2671"/>
</g>
<!-- Node35 -->
<g id="node35" class="node"><title>Node35</title>
<polygon fill="none" stroke="#bfbfbf" points="1547,-136.5 1547,-155.5 1639,-155.5 1639,-136.5 1547,-136.5"/>
<text text-anchor="middle" x="1593" y="-143.5" font-family="Helvetica,sans-Serif" font-size="10.00">TLorentzVector.h</text>
</g>
<!-- Node34&#45;&gt;Node35 -->
<g id="edge42" class="edge"><title>Node34&#45;&gt;Node35</title>
<path fill="none" stroke="midnightblue" d="M1662.43,-192.781C1648.03,-183.286 1629.16,-170.843 1614.73,-161.327"/>
<polygon fill="midnightblue" stroke="midnightblue" points="1616.25,-158.138 1605.98,-155.556 1612.4,-163.982 1616.25,-158.138"/>
</g>
<!-- Node36 -->
<g id="node36" class="node"><title>Node36</title>
<polygon fill="none" stroke="#bfbfbf" points="1657.5,-136.5 1657.5,-155.5 1710.5,-155.5 1710.5,-136.5 1657.5,-136.5"/>
<text text-anchor="middle" x="1684" y="-143.5" font-family="Helvetica,sans-Serif" font-size="10.00">TMath.h</text>
</g>
<!-- Node34&#45;&gt;Node36 -->
<g id="edge43" class="edge"><title>Node34&#45;&gt;Node36</title>
<path fill="none" stroke="midnightblue" d="M1684,-192.781C1684,-184.781 1684,-174.689 1684,-166.017"/>
<polygon fill="midnightblue" stroke="midnightblue" points="1687.5,-165.73 1684,-155.731 1680.5,-165.731 1687.5,-165.73"/>
</g>
<!-- Node37 -->
<g id="node37" class="node"><title>Node37</title>
<polygon fill="none" stroke="#bfbfbf" points="1728.5,-136.5 1728.5,-155.5 1793.5,-155.5 1793.5,-136.5 1728.5,-136.5"/>
<text text-anchor="middle" x="1761" y="-143.5" font-family="Helvetica,sans-Serif" font-size="10.00">TVector3.h</text>
</g>
<!-- Node34&#45;&gt;Node37 -->
<g id="edge44" class="edge"><title>Node34&#45;&gt;Node37</title>
<path fill="none" stroke="midnightblue" d="M1702.25,-192.781C1714.13,-183.523 1729.61,-171.462 1741.69,-162.044"/>
<polygon fill="midnightblue" stroke="midnightblue" points="1744.06,-164.638 1749.8,-155.731 1739.76,-159.116 1744.06,-164.638"/>
</g>
<!-- Node34&#45;&gt;Node38 -->
<g id="edge45" class="edge"><title>Node34&#45;&gt;Node38</title>
<path fill="none" stroke="midnightblue" d="M1741.15,-193.545C1744.14,-192.988 1747.1,-192.468 1750,-192 1910.35,-166.106 1954.68,-174.373 2120.14,-156.053"/>
<polygon fill="midnightblue" stroke="midnightblue" points="2120.63,-159.52 2130.18,-154.926 2119.85,-152.564 2120.63,-159.52"/>
</g>
<!-- Node46 -->
<g id="node46" class="node"><title>Node46</title>
<polygon fill="none" stroke="#bfbfbf" points="1811.5,-136.5 1811.5,-155.5 1906.5,-155.5 1906.5,-136.5 1811.5,-136.5"/>
<text text-anchor="middle" x="1859" y="-143.5" font-family="Helvetica,sans-Serif" font-size="10.00">TDatabasePDG.h</text>
</g>
<!-- Node34&#45;&gt;Node46 -->
<g id="edge56" class="edge"><title>Node34&#45;&gt;Node46</title>
<path fill="none" stroke="midnightblue" d="M1725.03,-192.933C1755.3,-182.553 1796.03,-168.589 1824.61,-158.792"/>
<polygon fill="midnightblue" stroke="midnightblue" points="1825.85,-162.067 1834.17,-155.513 1823.58,-155.445 1825.85,-162.067"/>
</g>
<!-- Node34&#45;&gt;Node47 -->
<g id="edge57" class="edge"><title>Node34&#45;&gt;Node47</title>
<path fill="none" stroke="midnightblue" d="M1631.25,-192.933C1591.47,-182.326 1537.66,-167.977 1500.83,-158.156"/>
<polygon fill="midnightblue" stroke="midnightblue" points="1501.49,-154.708 1490.92,-155.513 1499.68,-161.471 1501.49,-154.708"/>
</g>
<!-- Node48 -->
<g id="node48" class="node"><title>Node48</title>
<polygon fill="none" stroke="#bfbfbf" points="1925,-136.5 1925,-155.5 2011,-155.5 2011,-136.5 1925,-136.5"/>
<text text-anchor="middle" x="1968" y="-143.5" font-family="Helvetica,sans-Serif" font-size="10.00">TParticlePDG.h</text>
</g>
<!-- Node34&#45;&gt;Node48 -->
<g id="edge58" class="edge"><title>Node34&#45;&gt;Node48</title>
<path fill="none" stroke="midnightblue" d="M1741.22,-193.922C1744.19,-193.266 1747.13,-192.622 1750,-192 1806.41,-179.769 1871.21,-166.491 1915.4,-157.552"/>
<polygon fill="midnightblue" stroke="midnightblue" points="1916.23,-160.955 1925.34,-155.545 1914.84,-154.094 1916.23,-160.955"/>
</g>
<!-- Node49 -->
<g id="node49" class="node"><title>Node49</title>
<polygon fill="none" stroke="#bfbfbf" points="2029.5,-136.5 2029.5,-155.5 2112.5,-155.5 2112.5,-136.5 2029.5,-136.5"/>
<text text-anchor="middle" x="2071" y="-143.5" font-family="Helvetica,sans-Serif" font-size="10.00">TMCProcess.h</text>
</g>
<!-- Node34&#45;&gt;Node49 -->
<g id="edge59" class="edge"><title>Node34&#45;&gt;Node49</title>
<path fill="none" stroke="midnightblue" d="M1741.17,-193.672C1744.15,-193.082 1747.11,-192.52 1750,-192 1866.01,-171.128 1898.66,-174.332 2019.28,-156.045"/>
<polygon fill="midnightblue" stroke="midnightblue" points="2019.92,-159.487 2029.28,-154.511 2018.86,-152.568 2019.92,-159.487"/>
</g>
<!-- Node38&#45;&gt;Node9 -->
<g id="edge46" class="edge"><title>Node38&#45;&gt;Node9</title>
<path fill="none" stroke="midnightblue" d="M2130.19,-136.941C2127.08,-136.603 2124.01,-136.287 2121,-136 1811.43,-106.471 1436.12,-90.8403 1317.1,-86.3675"/>
<polygon fill="midnightblue" stroke="midnightblue" points="1317.16,-82.8673 1307.04,-85.993 1316.9,-89.8625 1317.16,-82.8673"/>
</g>
<!-- Node38&#45;&gt;Node12 -->
<g id="edge51" class="edge"><title>Node38&#45;&gt;Node12</title>
<path fill="none" stroke="midnightblue" d="M2130.16,-137.18C2127.06,-136.78 2124,-136.384 2121,-136 1988.5,-118.996 1831.5,-99.3083 1758.35,-90.1627"/>
<polygon fill="midnightblue" stroke="midnightblue" points="1758.54,-86.6588 1748.18,-88.8914 1757.67,-93.6048 1758.54,-86.6588"/>
</g>
<!-- Node39 -->
<g id="node39" class="node"><title>Node39</title>
<polygon fill="none" stroke="#bfbfbf" points="2116,-6.5 2116,-25.5 2154,-25.5 2154,-6.5 2116,-6.5"/>
<text text-anchor="middle" x="2135" y="-13.5" font-family="Helvetica,sans-Serif" font-size="10.00">array</text>
</g>
<!-- Node38&#45;&gt;Node39 -->
<g id="edge47" class="edge"><title>Node38&#45;&gt;Node39</title>
<path fill="none" stroke="midnightblue" d="M2151.15,-136.364C2131.62,-129.847 2109.67,-118.704 2098,-100 2084.36,-78.1463 2103.17,-50.4046 2118.59,-33.1762"/>
<polygon fill="midnightblue" stroke="midnightblue" points="2121.39,-35.3037 2125.73,-25.635 2116.31,-30.4918 2121.39,-35.3037"/>
</g>
<!-- Node40 -->
<g id="node40" class="node"><title>Node40</title>
<polygon fill="none" stroke="#bfbfbf" points="2106.5,-74.5 2106.5,-93.5 2147.5,-93.5 2147.5,-74.5 2106.5,-74.5"/>
<text text-anchor="middle" x="2127" y="-81.5" font-family="Helvetica,sans-Serif" font-size="10.00">bitset</text>
</g>
<!-- Node38&#45;&gt;Node40 -->
<g id="edge48" class="edge"><title>Node38&#45;&gt;Node40</title>
<path fill="none" stroke="midnightblue" d="M2180.97,-136.403C2171.24,-127.136 2155.54,-112.183 2143.58,-100.788"/>
<polygon fill="midnightblue" stroke="midnightblue" points="2145.66,-97.9427 2136.01,-93.5806 2140.84,-103.012 2145.66,-97.9427"/>
</g>
<!-- Node41 -->
<g id="node41" class="node"><title>Node41</title>
<polygon fill="none" stroke="#bfbfbf" points="2165.5,-74.5 2165.5,-93.5 2214.5,-93.5 2214.5,-74.5 2165.5,-74.5"/>
<text text-anchor="middle" x="2190" y="-81.5" font-family="Helvetica,sans-Serif" font-size="10.00">cassert</text>
</g>
<!-- Node38&#45;&gt;Node41 -->
<g id="edge49" class="edge"><title>Node38&#45;&gt;Node41</title>
<path fill="none" stroke="midnightblue" d="M2190,-136.403C2190,-127.938 2190,-114.728 2190,-103.82"/>
<polygon fill="midnightblue" stroke="midnightblue" points="2193.5,-103.581 2190,-93.5806 2186.5,-103.581 2193.5,-103.581"/>
</g>
<!-- Node42 -->
<g id="node42" class="node"><title>Node42</title>
<polygon fill="none" stroke="#bfbfbf" points="2233,-74.5 2233,-93.5 2279,-93.5 2279,-74.5 2233,-74.5"/>
<text text-anchor="middle" x="2256" y="-81.5" font-family="Helvetica,sans-Serif" font-size="10.00">cstdint</text>
</g>
<!-- Node38&#45;&gt;Node42 -->
<g id="edge50" class="edge"><title>Node38&#45;&gt;Node42</title>
<path fill="none" stroke="midnightblue" d="M2199.46,-136.403C2209.75,-127.047 2226.42,-111.895 2238.99,-100.46"/>
<polygon fill="midnightblue" stroke="midnightblue" points="2241.52,-102.897 2246.56,-93.5806 2236.81,-97.7176 2241.52,-102.897"/>
</g>
<!-- Node43 -->
<g id="node43" class="node"><title>Node43</title>
<g id="a_node43"><a xlink:href="../../d9/ded/Utils_8h.html" target="_top" xlink:title="DetectorsBase/Utils.h">
<polygon fill="none" stroke="black" points="2297.5,-74.5 2297.5,-93.5 2410.5,-93.5 2410.5,-74.5 2297.5,-74.5"/>
<text text-anchor="middle" x="2354" y="-81.5" font-family="Helvetica,sans-Serif" font-size="10.00">DetectorsBase/Utils.h</text>
</a>
</g>
</g>
<!-- Node38&#45;&gt;Node43 -->
<g id="edge52" class="edge"><title>Node38&#45;&gt;Node43</title>
<path fill="none" stroke="midnightblue" d="M2213.5,-136.403C2241.63,-126.111 2288.93,-108.806 2320.79,-97.1504"/>
<polygon fill="midnightblue" stroke="midnightblue" points="2322.36,-100.303 2330.55,-93.5806 2319.95,-93.7295 2322.36,-100.303"/>
</g>
<!-- Node43&#45;&gt;Node39 -->
<g id="edge55" class="edge"><title>Node43&#45;&gt;Node39</title>
<path fill="none" stroke="midnightblue" d="M2325.37,-74.3717C2283.49,-61.7502 2205.95,-38.3819 2163.91,-25.7127"/>
<polygon fill="midnightblue" stroke="midnightblue" points="2164.86,-22.3436 2154.28,-22.8091 2162.84,-29.0458 2164.86,-22.3436"/>
</g>
<!-- Node44 -->
<g id="node44" class="node"><title>Node44</title>
<g id="a_node44"><a xlink:href="../../d1/daa/Base_2include_2DetectorsBase_2Constants_8h.html" target="_top" xlink:title="DetectorsBase/Constants.h">
<polygon fill="none" stroke="black" points="2230,-6.5 2230,-25.5 2368,-25.5 2368,-6.5 2230,-6.5"/>
<text text-anchor="middle" x="2299" y="-13.5" font-family="Helvetica,sans-Serif" font-size="10.00">DetectorsBase/Constants.h</text>
</a>
</g>
</g>
<!-- Node43&#45;&gt;Node44 -->
<g id="edge53" class="edge"><title>Node43&#45;&gt;Node44</title>
<path fill="none" stroke="midnightblue" d="M2346.81,-74.3717C2338.21,-64.053 2323.63,-46.5513 2312.82,-33.5854"/>
<polygon fill="midnightblue" stroke="midnightblue" points="2315.46,-31.2827 2306.37,-25.8411 2310.08,-35.764 2315.46,-31.2827"/>
</g>
<!-- Node45 -->
<g id="node45" class="node"><title>Node45</title>
<polygon fill="none" stroke="#bfbfbf" points="2386,-6.5 2386,-25.5 2430,-25.5 2430,-6.5 2386,-6.5"/>
<text text-anchor="middle" x="2408" y="-13.5" font-family="Helvetica,sans-Serif" font-size="10.00">cmath</text>
</g>
<!-- Node43&#45;&gt;Node45 -->
<g id="edge54" class="edge"><title>Node43&#45;&gt;Node45</title>
<path fill="none" stroke="midnightblue" d="M2361.06,-74.3717C2369.5,-64.053 2383.82,-46.5513 2394.43,-33.5854"/>
<polygon fill="midnightblue" stroke="midnightblue" points="2397.14,-35.7971 2400.77,-25.8411 2391.73,-31.3644 2397.14,-35.7971"/>
</g>
</g>
</svg>
