<?xml version="1.0" encoding="UTF-8" standalone="no"?>
<!DOCTYPE svg PUBLIC "-//W3C//DTD SVG 1.1//EN"
 "http://www.w3.org/Graphics/SVG/1.1/DTD/svg11.dtd">
<!-- Generated by graphviz version 2.36.0 (20140111.2315)
 -->
<!-- Title: /home/travis/build/AliceO2Group/AliceO2/Detectors/TPC/reconstruction/macro/convertClusterToClusterHardware.C Pages: 1 -->
<svg width="1388pt" height="514pt"
 viewBox="0.00 0.00 1388.00 514.00" xmlns="http://www.w3.org/2000/svg" xmlns:xlink="http://www.w3.org/1999/xlink">
<g id="graph0" class="graph" transform="scale(1 1) rotate(0) translate(4 510)">
<title>/home/travis/build/AliceO2Group/AliceO2/Detectors/TPC/reconstruction/macro/convertClusterToClusterHardware.C</title>
<!-- Node1 -->
<g id="node1" class="node"><title>Node1</title>
<polygon fill="#bfbfbf" stroke="black" points="344.5,-453 344.5,-505 553.5,-505 553.5,-453 344.5,-453"/>
<text text-anchor="start" x="352.5" y="-493" font-family="Helvetica,sans-Serif" font-size="10.00">/home/travis/build</text>
<text text-anchor="start" x="352.5" y="-482" font-family="Helvetica,sans-Serif" font-size="10.00">/AliceO2Group/AliceO2</text>
<text text-anchor="start" x="352.5" y="-471" font-family="Helvetica,sans-Serif" font-size="10.00">/Detectors/TPC/reconstruction</text>
<text text-anchor="middle" x="449" y="-460" font-family="Helvetica,sans-Serif" font-size="10.00">/macro/convertClusterToClusterHardware.C</text>
</g>
<!-- Node2 -->
<g id="node2" class="node"><title>Node2</title>
<polygon fill="none" stroke="#bfbfbf" points="672,-260.5 672,-279.5 716,-279.5 716,-260.5 672,-260.5"/>
<text text-anchor="middle" x="694" y="-267.5" font-family="Helvetica,sans-Serif" font-size="10.00">vector</text>
</g>
<!-- Node1&#45;&gt;Node2 -->
<g id="edge1" class="edge"><title>Node1&#45;&gt;Node2</title>
<path fill="none" stroke="midnightblue" d="M520.851,-452.993C542.474,-443.439 565.382,-431.122 584,-416 626.918,-381.143 624.28,-359.817 658,-316 665.336,-306.467 673.723,-295.962 680.554,-287.501"/>
<polygon fill="midnightblue" stroke="midnightblue" points="683.421,-289.522 687.001,-279.551 677.984,-285.113 683.421,-289.522"/>
</g>
<!-- Node3 -->
<g id="node3" class="node"><title>Node3</title>
<polygon fill="none" stroke="#bfbfbf" points="38,-390.5 38,-409.5 88,-409.5 88,-390.5 38,-390.5"/>
<text text-anchor="middle" x="63" y="-397.5" font-family="Helvetica,sans-Serif" font-size="10.00">fstream</text>
</g>
<!-- Node1&#45;&gt;Node3 -->
<g id="edge2" class="edge"><title>Node1&#45;&gt;Node3</title>
<path fill="none" stroke="midnightblue" d="M344.206,-464.585C274.749,-454.401 182.021,-438.318 102,-416 98.8555,-415.123 95.6115,-414.091 92.4,-412.985"/>
<polygon fill="midnightblue" stroke="midnightblue" points="93.5891,-409.693 82.9956,-409.529 91.1746,-416.264 93.5891,-409.693"/>
</g>
<!-- Node4 -->
<g id="node4" class="node"><title>Node4</title>
<polygon fill="none" stroke="#bfbfbf" points="0,-74.5 0,-93.5 54,-93.5 54,-74.5 0,-74.5"/>
<text text-anchor="middle" x="27" y="-81.5" font-family="Helvetica,sans-Serif" font-size="10.00">iostream</text>
</g>
<!-- Node1&#45;&gt;Node4 -->
<g id="edge3" class="edge"><title>Node1&#45;&gt;Node4</title>
<path fill="none" stroke="midnightblue" d="M344.445,-475.714C235.221,-471.102 73.6515,-457.278 29,-416 1.21177,-390.311 10,-370.843 10,-333 10,-333 10,-333 10,-207 10,-170.06 17.7397,-127.426 22.7745,-103.6"/>
<polygon fill="midnightblue" stroke="midnightblue" points="26.2613,-104.039 24.9831,-93.5219 19.4235,-102.541 26.2613,-104.039"/>
</g>
<!-- Node5 -->
<g id="node5" class="node"><title>Node5</title>
<polygon fill="none" stroke="#bfbfbf" points="144.5,-390.5 144.5,-409.5 209.5,-409.5 209.5,-390.5 144.5,-390.5"/>
<text text-anchor="middle" x="177" y="-397.5" font-family="Helvetica,sans-Serif" font-size="10.00">TSystem.h</text>
</g>
<!-- Node1&#45;&gt;Node5 -->
<g id="edge4" class="edge"><title>Node1&#45;&gt;Node5</title>
<path fill="none" stroke="midnightblue" d="M348.095,-452.988C307.444,-442.374 260.261,-429.373 218,-416 215.06,-415.07 212.019,-414.056 208.983,-413.009"/>
<polygon fill="midnightblue" stroke="midnightblue" points="210.028,-409.666 199.434,-409.614 207.683,-416.262 210.028,-409.666"/>
</g>
<!-- Node6 -->
<g id="node6" class="node"><title>Node6</title>
<polygon fill="none" stroke="#bfbfbf" points="227.5,-390.5 227.5,-409.5 286.5,-409.5 286.5,-390.5 227.5,-390.5"/>
<text text-anchor="middle" x="257" y="-397.5" font-family="Helvetica,sans-Serif" font-size="10.00">TROOT.h</text>
</g>
<!-- Node1&#45;&gt;Node6 -->
<g id="edge5" class="edge"><title>Node1&#45;&gt;Node6</title>
<path fill="none" stroke="midnightblue" d="M386.398,-452.894C353.406,-439.663 314.401,-424.02 287.905,-413.394"/>
<polygon fill="midnightblue" stroke="midnightblue" points="288.985,-410.056 278.401,-409.583 286.379,-416.553 288.985,-410.056"/>
</g>
<!-- Node7 -->
<g id="node7" class="node"><title>Node7</title>
<polygon fill="none" stroke="#bfbfbf" points="304.5,-390.5 304.5,-409.5 351.5,-409.5 351.5,-390.5 304.5,-390.5"/>
<text text-anchor="middle" x="328" y="-397.5" font-family="Helvetica,sans-Serif" font-size="10.00">TFile.h</text>
</g>
<!-- Node1&#45;&gt;Node7 -->
<g id="edge6" class="edge"><title>Node1&#45;&gt;Node7</title>
<path fill="none" stroke="midnightblue" d="M409.38,-452.787C389.608,-440.205 366.444,-425.464 349.897,-414.934"/>
<polygon fill="midnightblue" stroke="midnightblue" points="351.764,-411.974 341.448,-409.558 348.005,-417.879 351.764,-411.974"/>
</g>
<!-- Node8 -->
<g id="node8" class="node"><title>Node8</title>
<polygon fill="none" stroke="#bfbfbf" points="370,-390.5 370,-409.5 426,-409.5 426,-390.5 370,-390.5"/>
<text text-anchor="middle" x="398" y="-397.5" font-family="Helvetica,sans-Serif" font-size="10.00">TString.h</text>
</g>
<!-- Node1&#45;&gt;Node8 -->
<g id="edge7" class="edge"><title>Node1&#45;&gt;Node8</title>
<path fill="none" stroke="midnightblue" d="M432.301,-452.787C424.739,-441.37 415.999,-428.176 409.235,-417.962"/>
<polygon fill="midnightblue" stroke="midnightblue" points="412.108,-415.962 403.668,-409.558 406.272,-419.828 412.108,-415.962"/>
</g>
<!-- Node9 -->
<g id="node9" class="node"><title>Node9</title>
<g id="a_node9"><a xlink:href="../../db/d14/MCTruthContainer_8h.html" target="_top" xlink:title="Definition of a container to keep Monte Carlo truth external to simulation objects. ">
<polygon fill="none" stroke="black" points="444,-385 444,-415 558,-415 558,-385 444,-385"/>
<text text-anchor="start" x="452" y="-403" font-family="Helvetica,sans-Serif" font-size="10.00">SimulationDataFormat</text>
<text text-anchor="middle" x="501" y="-392" font-family="Helvetica,sans-Serif" font-size="10.00">/MCTruthContainer.h</text>
</a>
</g>
</g>
<!-- Node1&#45;&gt;Node9 -->
<g id="edge8" class="edge"><title>Node1&#45;&gt;Node9</title>
<path fill="none" stroke="midnightblue" d="M466.027,-452.787C472.336,-443.445 479.448,-432.913 485.604,-423.798"/>
<polygon fill="midnightblue" stroke="midnightblue" points="488.679,-425.498 491.375,-415.252 482.878,-421.58 488.679,-425.498"/>
</g>
<!-- Node14 -->
<g id="node14" class="node"><title>Node14</title>
<g id="a_node14"><a xlink:href="../../d7/dcd/MCCompLabel_8h.html" target="_top" xlink:title="SimulationDataFormat\l/MCCompLabel.h">
<polygon fill="none" stroke="black" points="59,-193 59,-223 173,-223 173,-193 59,-193"/>
<text text-anchor="start" x="67" y="-211" font-family="Helvetica,sans-Serif" font-size="10.00">SimulationDataFormat</text>
<text text-anchor="middle" x="116" y="-200" font-family="Helvetica,sans-Serif" font-size="10.00">/MCCompLabel.h</text>
</a>
</g>
</g>
<!-- Node1&#45;&gt;Node14 -->
<g id="edge13" class="edge"><title>Node1&#45;&gt;Node14</title>
<path fill="none" stroke="midnightblue" d="M344.414,-470.634C264.202,-462.651 162.674,-446.694 135,-416 88.9969,-364.975 100.905,-275.371 110.035,-232.78"/>
<polygon fill="midnightblue" stroke="midnightblue" points="113.45,-233.544 112.259,-223.017 106.625,-231.989 113.45,-233.544"/>
</g>
<!-- Node16 -->
<g id="node16" class="node"><title>Node16</title>
<g id="a_node16"><a xlink:href="../../d3/dc4/ClusterHardware_8h.html" target="_top" xlink:title="Class of a TPC cluster as produced by the hardware cluster finder (needs a postprocessing step to con...">
<polygon fill="none" stroke="black" points="431.5,-322.5 431.5,-341.5 610.5,-341.5 610.5,-322.5 431.5,-322.5"/>
<text text-anchor="middle" x="521" y="-329.5" font-family="Helvetica,sans-Serif" font-size="10.00">DataFormatsTPC/ClusterHardware.h</text>
</a>
</g>
</g>
<!-- Node1&#45;&gt;Node16 -->
<g id="edge15" class="edge"><title>Node1&#45;&gt;Node16</title>
<path fill="none" stroke="midnightblue" d="M526.056,-452.848C542.312,-443.842 557.426,-431.846 567,-416 580.964,-392.889 558.193,-365.35 540,-348.525"/>
<polygon fill="midnightblue" stroke="midnightblue" points="541.937,-345.568 532.112,-341.603 537.32,-350.83 541.937,-345.568"/>
</g>
<!-- Node18 -->
<g id="node18" class="node"><title>Node18</title>
<g id="a_node18"><a xlink:href="../../db/df1/Helpers_8h.html" target="_top" xlink:title="Helper class for memory management of TPC Data Formats, external from the actual data type classes to...">
<polygon fill="none" stroke="black" points="674.5,-390.5 674.5,-409.5 813.5,-409.5 813.5,-390.5 674.5,-390.5"/>
<text text-anchor="middle" x="744" y="-397.5" font-family="Helvetica,sans-Serif" font-size="10.00">DataFormatsTPC/Helpers.h</text>
</a>
</g>
</g>
<!-- Node1&#45;&gt;Node18 -->
<g id="edge17" class="edge"><title>Node1&#45;&gt;Node18</title>
<path fill="none" stroke="midnightblue" d="M545.186,-452.894C597.887,-439.138 660.572,-422.776 701.266,-412.154"/>
<polygon fill="midnightblue" stroke="midnightblue" points="702.327,-415.495 711.118,-409.583 700.559,-408.722 702.327,-415.495"/>
</g>
<!-- Node20 -->
<g id="node20" class="node"><title>Node20</title>
<g id="a_node20"><a xlink:href="../../d6/d51/TPC_2base_2include_2TPCBase_2Constants_8h.html" target="_top" xlink:title="TPCBase/Constants.h">
<polygon fill="none" stroke="black" points="873,-198.5 873,-217.5 989,-217.5 989,-198.5 873,-198.5"/>
<text text-anchor="middle" x="931" y="-205.5" font-family="Helvetica,sans-Serif" font-size="10.00">TPCBase/Constants.h</text>
</a>
</g>
</g>
<!-- Node1&#45;&gt;Node20 -->
<g id="edge26" class="edge"><title>Node1&#45;&gt;Node20</title>
<path fill="none" stroke="midnightblue" d="M553.669,-473.993C630.589,-467.908 736.206,-452.869 822,-416 868.061,-396.206 886.664,-391.261 912,-348 934.394,-309.762 934.554,-255.67 932.773,-227.571"/>
<polygon fill="midnightblue" stroke="midnightblue" points="936.257,-227.239 931.979,-217.546 929.279,-227.791 936.257,-227.239"/>
</g>
<!-- Node22 -->
<g id="node22" class="node"><title>Node22</title>
<g id="a_node22"><a xlink:href="../../d6/d6f/TPC_2reconstruction_2include_2TPCReconstruction_2Cluster_8h.html" target="_top" xlink:title="TPCReconstruction/Cluster.h">
<polygon fill="none" stroke="black" points="959,-390.5 959,-409.5 1105,-409.5 1105,-390.5 959,-390.5"/>
<text text-anchor="middle" x="1032" y="-397.5" font-family="Helvetica,sans-Serif" font-size="10.00">TPCReconstruction/Cluster.h</text>
</a>
</g>
</g>
<!-- Node1&#45;&gt;Node22 -->
<g id="edge23" class="edge"><title>Node1&#45;&gt;Node22</title>
<path fill="none" stroke="midnightblue" d="M553.697,-466.341C654.214,-454.811 810.234,-436.03 945,-416 954.564,-414.579 964.698,-412.947 974.539,-411.295"/>
<polygon fill="midnightblue" stroke="midnightblue" points="975.383,-414.702 984.654,-409.573 974.208,-407.801 975.383,-414.702"/>
</g>
<!-- Node25 -->
<g id="node25" class="node"><title>Node25</title>
<g id="a_node25"><a xlink:href="../../df/d26/CRU_8h.html" target="_top" xlink:title="TPCBase/CRU.h">
<polygon fill="none" stroke="black" points="1183.5,-390.5 1183.5,-409.5 1276.5,-409.5 1276.5,-390.5 1183.5,-390.5"/>
<text text-anchor="middle" x="1230" y="-397.5" font-family="Helvetica,sans-Serif" font-size="10.00">TPCBase/CRU.h</text>
</a>
</g>
</g>
<!-- Node1&#45;&gt;Node25 -->
<g id="edge27" class="edge"><title>Node1&#45;&gt;Node25</title>
<path fill="none" stroke="midnightblue" d="M553.642,-469.404C684.741,-458.368 916.217,-438.001 1114,-416 1133.42,-413.84 1154.62,-411.185 1173.53,-408.712"/>
<polygon fill="midnightblue" stroke="midnightblue" points="1174.02,-412.178 1183.48,-407.4 1173.11,-405.238 1174.02,-412.178"/>
</g>
<!-- Node10 -->
<g id="node10" class="node"><title>Node10</title>
<polygon fill="none" stroke="#bfbfbf" points="144,-322.5 144,-341.5 206,-341.5 206,-322.5 144,-322.5"/>
<text text-anchor="middle" x="175" y="-329.5" font-family="Helvetica,sans-Serif" font-size="10.00">TNamed.h</text>
</g>
<!-- Node9&#45;&gt;Node10 -->
<g id="edge9" class="edge"><title>Node9&#45;&gt;Node10</title>
<path fill="none" stroke="midnightblue" d="M443.663,-385.937C440.398,-385.263 437.159,-384.613 434,-384 337.165,-365.217 310.303,-373.439 215,-348 211.775,-347.139 208.448,-346.118 205.155,-345.018"/>
<polygon fill="midnightblue" stroke="midnightblue" points="206.104,-341.641 195.509,-341.57 203.748,-348.232 206.104,-341.641"/>
</g>
<!-- Node11 -->
<g id="node11" class="node"><title>Node11</title>
<polygon fill="none" stroke="#bfbfbf" points="224.5,-322.5 224.5,-341.5 273.5,-341.5 273.5,-322.5 224.5,-322.5"/>
<text text-anchor="middle" x="249" y="-329.5" font-family="Helvetica,sans-Serif" font-size="10.00">cassert</text>
</g>
<!-- Node9&#45;&gt;Node11 -->
<g id="edge10" class="edge"><title>Node9&#45;&gt;Node11</title>
<path fill="none" stroke="midnightblue" d="M443.909,-385.999C381.652,-371.778 289.762,-350.639 282,-348 279.87,-347.276 277.691,-346.461 275.519,-345.596"/>
<polygon fill="midnightblue" stroke="midnightblue" points="276.778,-342.328 266.208,-341.598 274.016,-348.76 276.778,-342.328"/>
</g>
<!-- Node12 -->
<g id="node12" class="node"><title>Node12</title>
<polygon fill="none" stroke="#bfbfbf" points="291.5,-322.5 291.5,-341.5 350.5,-341.5 350.5,-322.5 291.5,-322.5"/>
<text text-anchor="middle" x="321" y="-329.5" font-family="Helvetica,sans-Serif" font-size="10.00">stdexcept</text>
</g>
<!-- Node9&#45;&gt;Node12 -->
<g id="edge11" class="edge"><title>Node9&#45;&gt;Node12</title>
<path fill="none" stroke="midnightblue" d="M460.787,-384.933C432.287,-374.872 393.194,-360.886 359,-348 356.619,-347.103 354.159,-346.162 351.689,-345.209"/>
<polygon fill="midnightblue" stroke="midnightblue" points="352.847,-341.903 342.259,-341.527 350.301,-348.424 352.847,-341.903"/>
</g>
<!-- Node13 -->
<g id="node13" class="node"><title>Node13</title>
<polygon fill="none" stroke="#bfbfbf" points="368.5,-322.5 368.5,-341.5 413.5,-341.5 413.5,-322.5 368.5,-322.5"/>
<text text-anchor="middle" x="391" y="-329.5" font-family="Helvetica,sans-Serif" font-size="10.00">gsl/gsl</text>
</g>
<!-- Node9&#45;&gt;Node13 -->
<g id="edge12" class="edge"><title>Node9&#45;&gt;Node13</title>
<path fill="none" stroke="midnightblue" d="M477.402,-384.841C458.717,-373.63 432.759,-358.056 414.183,-346.91"/>
<polygon fill="midnightblue" stroke="midnightblue" points="415.845,-343.826 405.47,-341.682 412.244,-349.828 415.845,-343.826"/>
</g>
<!-- Node15 -->
<g id="node15" class="node"><title>Node15</title>
<polygon fill="none" stroke="#bfbfbf" points="88,-74.5 88,-93.5 144,-93.5 144,-74.5 88,-74.5"/>
<text text-anchor="middle" x="116" y="-81.5" font-family="Helvetica,sans-Serif" font-size="10.00">Rtypes.h</text>
</g>
<!-- Node14&#45;&gt;Node15 -->
<g id="edge14" class="edge"><title>Node14&#45;&gt;Node15</title>
<path fill="none" stroke="midnightblue" d="M116,-192.526C116,-170.403 116,-128.181 116,-103.744"/>
<polygon fill="midnightblue" stroke="midnightblue" points="119.5,-103.623 116,-93.6228 112.5,-103.623 119.5,-103.623"/>
</g>
<!-- Node17 -->
<g id="node17" class="node"><title>Node17</title>
<polygon fill="none" stroke="#bfbfbf" points="498,-260.5 498,-279.5 544,-279.5 544,-260.5 498,-260.5"/>
<text text-anchor="middle" x="521" y="-267.5" font-family="Helvetica,sans-Serif" font-size="10.00">cstdint</text>
</g>
<!-- Node16&#45;&gt;Node17 -->
<g id="edge16" class="edge"><title>Node16&#45;&gt;Node17</title>
<path fill="none" stroke="midnightblue" d="M521,-322.403C521,-313.938 521,-300.728 521,-289.82"/>
<polygon fill="midnightblue" stroke="midnightblue" points="524.5,-289.581 521,-279.581 517.5,-289.581 524.5,-289.581"/>
</g>
<!-- Node18&#45;&gt;Node16 -->
<g id="edge18" class="edge"><title>Node18&#45;&gt;Node16</title>
<path fill="none" stroke="midnightblue" d="M714.847,-390.372C675.088,-378.604 603.767,-357.496 559.605,-344.426"/>
<polygon fill="midnightblue" stroke="midnightblue" points="560.389,-341.008 549.807,-341.526 558.403,-347.72 560.389,-341.008"/>
</g>
<!-- Node19 -->
<g id="node19" class="node"><title>Node19</title>
<g id="a_node19"><a xlink:href="../../de/dcd/ClusterNative_8h.html" target="_top" xlink:title="Class of a TPC cluster in TPC&#45;native coordinates (row, time) ">
<polygon fill="none" stroke="black" points="667.5,-322.5 667.5,-341.5 832.5,-341.5 832.5,-322.5 667.5,-322.5"/>
<text text-anchor="middle" x="750" y="-329.5" font-family="Helvetica,sans-Serif" font-size="10.00">DataFormatsTPC/ClusterNative.h</text>
</a>
</g>
</g>
<!-- Node18&#45;&gt;Node19 -->
<g id="edge19" class="edge"><title>Node18&#45;&gt;Node19</title>
<path fill="none" stroke="midnightblue" d="M744.784,-390.372C745.669,-380.643 747.134,-364.528 748.286,-351.85"/>
<polygon fill="midnightblue" stroke="midnightblue" points="751.776,-352.117 749.196,-341.841 744.805,-351.483 751.776,-352.117"/>
</g>
<!-- Node21 -->
<g id="node21" class="node"><title>Node21</title>
<polygon fill="none" stroke="#bfbfbf" points="851,-322.5 851,-341.5 903,-341.5 903,-322.5 851,-322.5"/>
<text text-anchor="middle" x="877" y="-329.5" font-family="Helvetica,sans-Serif" font-size="10.00">memory</text>
</g>
<!-- Node18&#45;&gt;Node21 -->
<g id="edge22" class="edge"><title>Node18&#45;&gt;Node21</title>
<path fill="none" stroke="midnightblue" d="M761.387,-390.372C784.089,-379.106 824.043,-359.279 850.52,-346.14"/>
<polygon fill="midnightblue" stroke="midnightblue" points="852.206,-349.211 859.608,-341.63 849.095,-342.94 852.206,-349.211"/>
</g>
<!-- Node19&#45;&gt;Node2 -->
<g id="edge20" class="edge"><title>Node19&#45;&gt;Node2</title>
<path fill="none" stroke="midnightblue" d="M741.977,-322.403C733.41,-313.225 719.639,-298.47 709.043,-287.117"/>
<polygon fill="midnightblue" stroke="midnightblue" points="711.39,-284.503 702.009,-279.581 706.273,-289.279 711.39,-284.503"/>
</g>
<!-- Node19&#45;&gt;Node20 -->
<g id="edge21" class="edge"><title>Node19&#45;&gt;Node20</title>
<path fill="none" stroke="midnightblue" d="M762.728,-322.421C793.42,-301.734 871.769,-248.923 909.737,-223.332"/>
<polygon fill="midnightblue" stroke="midnightblue" points="911.708,-226.224 918.044,-217.733 907.796,-220.42 911.708,-226.224"/>
</g>
<!-- Node23 -->
<g id="node23" class="node"><title>Node23</title>
<polygon fill="none" stroke="#bfbfbf" points="959.5,-317 959.5,-347 1054.5,-347 1054.5,-317 959.5,-317"/>
<text text-anchor="start" x="967.5" y="-335" font-family="Helvetica,sans-Serif" font-size="10.00">boost/serialization</text>
<text text-anchor="middle" x="1007" y="-324" font-family="Helvetica,sans-Serif" font-size="10.00">/base_object.hpp</text>
</g>
<!-- Node22&#45;&gt;Node23 -->
<g id="edge24" class="edge"><title>Node22&#45;&gt;Node23</title>
<path fill="none" stroke="midnightblue" d="M1028.73,-390.372C1025.52,-381.886 1020.46,-368.542 1016.04,-356.858"/>
<polygon fill="midnightblue" stroke="midnightblue" points="1019.19,-355.293 1012.37,-347.181 1012.64,-357.773 1019.19,-355.293"/>
</g>
<!-- Node24 -->
<g id="node24" class="node"><title>Node24</title>
<polygon fill="none" stroke="#bfbfbf" points="1073,-322.5 1073,-341.5 1165,-341.5 1165,-322.5 1073,-322.5"/>
<text text-anchor="middle" x="1119" y="-329.5" font-family="Helvetica,sans-Serif" font-size="10.00">FairTimeStamp.h</text>
</g>
<!-- Node22&#45;&gt;Node24 -->
<g id="edge25" class="edge"><title>Node22&#45;&gt;Node24</title>
<path fill="none" stroke="midnightblue" d="M1043.37,-390.372C1057.57,-379.6 1082.09,-361.002 1099.35,-347.906"/>
<polygon fill="midnightblue" stroke="midnightblue" points="1101.77,-350.463 1107.62,-341.63 1097.54,-344.886 1101.77,-350.463"/>
</g>
<!-- Node26 -->
<g id="node26" class="node"><title>Node26</title>
<g id="a_node26"><a xlink:href="../../d1/d73/Defs_8h.html" target="_top" xlink:title="Common definitions for 2D coordinates. ">
<polygon fill="none" stroke="black" points="1151,-198.5 1151,-217.5 1243,-217.5 1243,-198.5 1151,-198.5"/>
<text text-anchor="middle" x="1197" y="-205.5" font-family="Helvetica,sans-Serif" font-size="10.00">TPCBase/Defs.h</text>
</a>
</g>
</g>
<!-- Node25&#45;&gt;Node26 -->
<g id="edge28" class="edge"><title>Node25&#45;&gt;Node26</title>
<path fill="none" stroke="midnightblue" d="M1262.81,-390.419C1284.04,-382.978 1310.05,-369.866 1323,-348 1330.25,-335.762 1328.38,-329.164 1323,-316 1304.69,-271.225 1255.86,-239.024 1224.65,-222.25"/>
<polygon fill="midnightblue" stroke="midnightblue" points="1226.07,-219.043 1215.58,-217.543 1222.84,-225.256 1226.07,-219.043"/>
</g>
<!-- Node38 -->
<g id="node38" class="node"><title>Node38</title>
<g id="a_node38"><a xlink:href="../../d3/dd6/Sector_8h.html" target="_top" xlink:title="TPCBase/Sector.h">
<polygon fill="none" stroke="black" points="1141.5,-260.5 1141.5,-279.5 1240.5,-279.5 1240.5,-260.5 1141.5,-260.5"/>
<text text-anchor="middle" x="1191" y="-267.5" font-family="Helvetica,sans-Serif" font-size="10.00">TPCBase/Sector.h</text>
</a>
</g>
</g>
<!-- Node25&#45;&gt;Node38 -->
<g id="edge43" class="edge"><title>Node25&#45;&gt;Node38</title>
<path fill="none" stroke="midnightblue" d="M1226.75,-390.402C1222.99,-380.315 1216.7,-363.057 1212,-348 1205.82,-328.204 1199.69,-305.236 1195.66,-289.571"/>
<polygon fill="midnightblue" stroke="midnightblue" points="1198.98,-288.436 1193.13,-279.605 1192.2,-290.159 1198.98,-288.436"/>
</g>
<!-- Node39 -->
<g id="node39" class="node"><title>Node39</title>
<g id="a_node39"><a xlink:href="../../dc/d14/ROC_8h.html" target="_top" xlink:title="TPCBase/ROC.h">
<polygon fill="none" stroke="black" points="1221.5,-322.5 1221.5,-341.5 1314.5,-341.5 1314.5,-322.5 1221.5,-322.5"/>
<text text-anchor="middle" x="1268" y="-329.5" font-family="Helvetica,sans-Serif" font-size="10.00">TPCBase/ROC.h</text>
</a>
</g>
</g>
<!-- Node25&#45;&gt;Node39 -->
<g id="edge46" class="edge"><title>Node25&#45;&gt;Node39</title>
<path fill="none" stroke="midnightblue" d="M1234.97,-390.372C1240.74,-380.348 1250.41,-363.546 1257.8,-350.708"/>
<polygon fill="midnightblue" stroke="midnightblue" points="1260.95,-352.254 1262.91,-341.841 1254.89,-348.761 1260.95,-352.254"/>
</g>
<!-- Node27 -->
<g id="node27" class="node"><title>Node27</title>
<polygon fill="none" stroke="#bfbfbf" points="1130,-136.5 1130,-155.5 1174,-155.5 1174,-136.5 1130,-136.5"/>
<text text-anchor="middle" x="1152" y="-143.5" font-family="Helvetica,sans-Serif" font-size="10.00">cmath</text>
</g>
<!-- Node26&#45;&gt;Node27 -->
<g id="edge29" class="edge"><title>Node26&#45;&gt;Node27</title>
<path fill="none" stroke="midnightblue" d="M1190.55,-198.403C1183.8,-189.403 1173.03,-175.041 1164.59,-163.782"/>
<polygon fill="midnightblue" stroke="midnightblue" points="1167.24,-161.481 1158.44,-155.581 1161.64,-165.681 1167.24,-161.481"/>
</g>
<!-- Node28 -->
<g id="node28" class="node"><title>Node28</title>
<g id="a_node28"><a xlink:href="../../d2/dd0/Cartesian2D_8h.html" target="_top" xlink:title="MathUtils/Cartesian2D.h">
<polygon fill="none" stroke="black" points="1139.5,-74.5 1139.5,-93.5 1264.5,-93.5 1264.5,-74.5 1139.5,-74.5"/>
<text text-anchor="middle" x="1202" y="-81.5" font-family="Helvetica,sans-Serif" font-size="10.00">MathUtils/Cartesian2D.h</text>
</a>
</g>
</g>
<!-- Node26&#45;&gt;Node28 -->
<g id="edge30" class="edge"><title>Node26&#45;&gt;Node28</title>
<path fill="none" stroke="midnightblue" d="M1197.36,-198.226C1198.17,-178.53 1200.14,-130.437 1201.23,-103.7"/>
<polygon fill="midnightblue" stroke="midnightblue" points="1204.73,-103.829 1201.64,-93.6944 1197.74,-103.543 1204.73,-103.829"/>
</g>
<!-- Node31 -->
<g id="node31" class="node"><title>Node31</title>
<g id="a_node31"><a xlink:href="../../dd/d76/Cartesian3D_8h.html" target="_top" xlink:title="MathUtils/Cartesian3D.h">
<polygon fill="none" stroke="black" points="538.5,-136.5 538.5,-155.5 663.5,-155.5 663.5,-136.5 538.5,-136.5"/>
<text text-anchor="middle" x="601" y="-143.5" font-family="Helvetica,sans-Serif" font-size="10.00">MathUtils/Cartesian3D.h</text>
</a>
</g>
</g>
<!-- Node26&#45;&gt;Node31 -->
<g id="edge33" class="edge"><title>Node26&#45;&gt;Node31</title>
<path fill="none" stroke="midnightblue" d="M1150.73,-202.342C1047.64,-191.964 798.429,-166.875 674.091,-154.358"/>
<polygon fill="midnightblue" stroke="midnightblue" points="674.207,-150.852 663.907,-153.333 673.506,-157.817 674.207,-150.852"/>
</g>
<!-- Node29 -->
<g id="node29" class="node"><title>Node29</title>
<polygon fill="none" stroke="#bfbfbf" points="1035.5,-1 1035.5,-31 1186.5,-31 1186.5,-1 1035.5,-1"/>
<text text-anchor="start" x="1043.5" y="-19" font-family="Helvetica,sans-Serif" font-size="10.00">Math/GenVector/Displacement</text>
<text text-anchor="middle" x="1111" y="-8" font-family="Helvetica,sans-Serif" font-size="10.00">Vector2D.h</text>
</g>
<!-- Node28&#45;&gt;Node29 -->
<g id="edge31" class="edge"><title>Node28&#45;&gt;Node29</title>
<path fill="none" stroke="midnightblue" d="M1190.1,-74.3717C1177.22,-65.0286 1156.22,-49.7966 1139.09,-37.375"/>
<polygon fill="midnightblue" stroke="midnightblue" points="1140.7,-34.2194 1130.55,-31.1815 1136.59,-39.8859 1140.7,-34.2194"/>
</g>
<!-- Node30 -->
<g id="node30" class="node"><title>Node30</title>
<polygon fill="none" stroke="#bfbfbf" points="1205,-6.5 1205,-25.5 1381,-25.5 1381,-6.5 1205,-6.5"/>
<text text-anchor="middle" x="1293" y="-13.5" font-family="Helvetica,sans-Serif" font-size="10.00">Math/GenVector/PositionVector2D.h</text>
</g>
<!-- Node28&#45;&gt;Node30 -->
<g id="edge32" class="edge"><title>Node28&#45;&gt;Node30</title>
<path fill="none" stroke="midnightblue" d="M1213.9,-74.3717C1228.88,-63.5015 1254.86,-44.6602 1272.94,-31.5474"/>
<polygon fill="midnightblue" stroke="midnightblue" points="1275.06,-34.3349 1281.1,-25.6305 1270.95,-28.6684 1275.06,-34.3349"/>
</g>
<!-- Node31&#45;&gt;Node4 -->
<g id="edge42" class="edge"><title>Node31&#45;&gt;Node4</title>
<path fill="none" stroke="midnightblue" d="M538.199,-143.529C439.621,-140.337 242.89,-130.402 79,-100 73.7645,-99.0288 68.2987,-97.7525 62.961,-96.3538"/>
<polygon fill="midnightblue" stroke="midnightblue" points="63.5216,-92.8766 52.9489,-93.5611 61.6409,-99.6192 63.5216,-92.8766"/>
</g>
<!-- Node31&#45;&gt;Node15 -->
<g id="edge37" class="edge"><title>Node31&#45;&gt;Node15</title>
<path fill="none" stroke="midnightblue" d="M538.453,-144.305C450.975,-142.078 287.686,-133.336 153,-100 149.936,-99.2417 146.792,-98.2787 143.693,-97.2077"/>
<polygon fill="midnightblue" stroke="midnightblue" points="144.69,-93.8418 134.1,-93.5374 142.189,-100.38 144.69,-93.8418"/>
</g>
<!-- Node31&#45;&gt;Node28 -->
<g id="edge41" class="edge"><title>Node31&#45;&gt;Node28</title>
<path fill="none" stroke="midnightblue" d="M663.578,-142.123C762.866,-137.009 962.414,-124.494 1130,-100 1138.17,-98.8054 1146.81,-97.2566 1155.16,-95.6089"/>
<polygon fill="midnightblue" stroke="midnightblue" points="1156.06,-98.9988 1165.15,-93.5672 1154.66,-92.1406 1156.06,-98.9988"/>
</g>
<!-- Node32 -->
<g id="node32" class="node"><title>Node32</title>
<polygon fill="none" stroke="#bfbfbf" points="797.5,-74.5 797.5,-93.5 946.5,-93.5 946.5,-74.5 797.5,-74.5"/>
<text text-anchor="middle" x="872" y="-81.5" font-family="Helvetica,sans-Serif" font-size="10.00">Math/GenVector/Rotation3D.h</text>
</g>
<!-- Node31&#45;&gt;Node32 -->
<g id="edge34" class="edge"><title>Node31&#45;&gt;Node32</title>
<path fill="none" stroke="midnightblue" d="M639.54,-136.467C688,-125.738 771.208,-107.316 823.819,-95.6673"/>
<polygon fill="midnightblue" stroke="midnightblue" points="824.586,-99.0824 833.593,-93.5034 823.073,-92.2479 824.586,-99.0824"/>
</g>
<!-- Node33 -->
<g id="node33" class="node"><title>Node33</title>
<polygon fill="none" stroke="#bfbfbf" points="965,-74.5 965,-93.5 1121,-93.5 1121,-74.5 965,-74.5"/>
<text text-anchor="middle" x="1043" y="-81.5" font-family="Helvetica,sans-Serif" font-size="10.00">Math/GenVector/Transform3D.h</text>
</g>
<!-- Node31&#45;&gt;Node33 -->
<g id="edge35" class="edge"><title>Node31&#45;&gt;Node33</title>
<path fill="none" stroke="midnightblue" d="M663.778,-137.834C734.629,-129.558 853.277,-115.128 955,-100 964.773,-98.5466 975.135,-96.8869 985.188,-95.2138"/>
<polygon fill="midnightblue" stroke="midnightblue" points="985.824,-98.656 995.104,-93.5433 984.661,-91.7532 985.824,-98.656"/>
</g>
<!-- Node34 -->
<g id="node34" class="node"><title>Node34</title>
<polygon fill="none" stroke="#bfbfbf" points="162,-74.5 162,-93.5 322,-93.5 322,-74.5 162,-74.5"/>
<text text-anchor="middle" x="242" y="-81.5" font-family="Helvetica,sans-Serif" font-size="10.00">Math/GenVector/Translation3D.h</text>
</g>
<!-- Node31&#45;&gt;Node34 -->
<g id="edge36" class="edge"><title>Node31&#45;&gt;Node34</title>
<path fill="none" stroke="midnightblue" d="M549.737,-136.485C495.423,-127.456 407.16,-112.765 331,-100 321.71,-98.4429 311.875,-96.7899 302.263,-95.172"/>
<polygon fill="midnightblue" stroke="midnightblue" points="302.802,-91.7136 292.36,-93.5041 301.64,-98.6164 302.802,-91.7136"/>
</g>
<!-- Node35 -->
<g id="node35" class="node"><title>Node35</title>
<polygon fill="none" stroke="#bfbfbf" points="340,-74.5 340,-93.5 416,-93.5 416,-74.5 340,-74.5"/>
<text text-anchor="middle" x="378" y="-81.5" font-family="Helvetica,sans-Serif" font-size="10.00">TGeoMatrix.h</text>
</g>
<!-- Node31&#45;&gt;Node35 -->
<g id="edge38" class="edge"><title>Node31&#45;&gt;Node35</title>
<path fill="none" stroke="midnightblue" d="M565.103,-136.475C529.419,-127.847 473.198,-113.84 425,-100 421.218,-98.9141 417.28,-97.7348 413.364,-96.5308"/>
<polygon fill="midnightblue" stroke="midnightblue" points="414.364,-93.1764 403.775,-93.5257 412.271,-99.8561 414.364,-93.1764"/>
</g>
<!-- Node36 -->
<g id="node36" class="node"><title>Node36</title>
<polygon fill="none" stroke="#bfbfbf" points="434.5,-69 434.5,-99 585.5,-99 585.5,-69 434.5,-69"/>
<text text-anchor="start" x="442.5" y="-87" font-family="Helvetica,sans-Serif" font-size="10.00">Math/GenVector/Displacement</text>
<text text-anchor="middle" x="510" y="-76" font-family="Helvetica,sans-Serif" font-size="10.00">Vector3D.h</text>
</g>
<!-- Node31&#45;&gt;Node36 -->
<g id="edge39" class="edge"><title>Node31&#45;&gt;Node36</title>
<path fill="none" stroke="midnightblue" d="M587.962,-136.403C575.522,-128.201 556.327,-115.545 540.097,-104.844"/>
<polygon fill="midnightblue" stroke="midnightblue" points="541.722,-101.723 531.447,-99.1408 537.869,-107.567 541.722,-101.723"/>
</g>
<!-- Node37 -->
<g id="node37" class="node"><title>Node37</title>
<polygon fill="none" stroke="#bfbfbf" points="604,-74.5 604,-93.5 780,-93.5 780,-74.5 604,-74.5"/>
<text text-anchor="middle" x="692" y="-81.5" font-family="Helvetica,sans-Serif" font-size="10.00">Math/GenVector/PositionVector3D.h</text>
</g>
<!-- Node31&#45;&gt;Node37 -->
<g id="edge40" class="edge"><title>Node31&#45;&gt;Node37</title>
<path fill="none" stroke="midnightblue" d="M614.038,-136.403C628.769,-126.691 652.973,-110.732 670.509,-99.1697"/>
<polygon fill="midnightblue" stroke="midnightblue" points="672.564,-102.007 678.986,-93.5806 668.711,-96.1632 672.564,-102.007"/>
</g>
<!-- Node38&#45;&gt;Node20 -->
<g id="edge44" class="edge"><title>Node38&#45;&gt;Node20</title>
<path fill="none" stroke="midnightblue" d="M1154.02,-260.467C1107.72,-249.783 1028.36,-231.469 977.856,-219.813"/>
<polygon fill="midnightblue" stroke="midnightblue" points="978.379,-216.342 967.848,-217.503 976.805,-223.162 978.379,-216.342"/>
</g>
<!-- Node38&#45;&gt;Node26 -->
<g id="edge45" class="edge"><title>Node38&#45;&gt;Node26</title>
<path fill="none" stroke="midnightblue" d="M1191.86,-260.403C1192.71,-251.938 1194.03,-238.728 1195.12,-227.82"/>
<polygon fill="midnightblue" stroke="midnightblue" points="1198.63,-227.879 1196.14,-217.581 1191.66,-227.183 1198.63,-227.879"/>
</g>
<!-- Node39&#45;&gt;Node26 -->
<g id="edge47" class="edge"><title>Node39&#45;&gt;Node26</title>
<path fill="none" stroke="midnightblue" d="M1267.15,-322.122C1265.47,-308.085 1260.83,-280.278 1249,-260 1240.87,-246.076 1227.94,-233.371 1217.01,-224.124"/>
<polygon fill="midnightblue" stroke="midnightblue" points="1219.13,-221.335 1209.15,-217.765 1214.72,-226.776 1219.13,-221.335"/>
</g>
<!-- Node39&#45;&gt;Node38 -->
<g id="edge48" class="edge"><title>Node39&#45;&gt;Node38</title>
<path fill="none" stroke="midnightblue" d="M1256.97,-322.403C1244.73,-312.869 1224.77,-297.315 1210.01,-285.811"/>
<polygon fill="midnightblue" stroke="midnightblue" points="1212.05,-282.966 1202.01,-279.581 1207.75,-288.488 1212.05,-282.966"/>
</g>
</g>
</svg>
