<?xml version="1.0" encoding="UTF-8" standalone="no"?>
<!DOCTYPE svg PUBLIC "-//W3C//DTD SVG 1.1//EN"
 "http://www.w3.org/Graphics/SVG/1.1/DTD/svg11.dtd">
<!-- Generated by graphviz version 2.36.0 (20140111.2315)
 -->
<!-- Title: /home/travis/build/AliceO2Group/AliceO2/Detectors/TPC/simulation/test/testTPCElectronTransport.cxx Pages: 1 -->
<svg width="1532pt" height="646pt"
 viewBox="0.00 0.00 1532.00 646.00" xmlns="http://www.w3.org/2000/svg" xmlns:xlink="http://www.w3.org/1999/xlink">
<g id="graph0" class="graph" transform="scale(1 1) rotate(0) translate(4 642)">
<title>/home/travis/build/AliceO2Group/AliceO2/Detectors/TPC/simulation/test/testTPCElectronTransport.cxx</title>
<!-- Node1 -->
<g id="node1" class="node"><title>Node1</title>
<polygon fill="#bfbfbf" stroke="black" points="472,-585 472,-637 644,-637 644,-585 472,-585"/>
<text text-anchor="start" x="480" y="-625" font-family="Helvetica,sans-Serif" font-size="10.00">/home/travis/build</text>
<text text-anchor="start" x="480" y="-614" font-family="Helvetica,sans-Serif" font-size="10.00">/AliceO2Group/AliceO2</text>
<text text-anchor="start" x="480" y="-603" font-family="Helvetica,sans-Serif" font-size="10.00">/Detectors/TPC/simulation</text>
<text text-anchor="middle" x="558" y="-592" font-family="Helvetica,sans-Serif" font-size="10.00">/test/testTPCElectronTransport.cxx</text>
</g>
<!-- Node2 -->
<g id="node2" class="node"><title>Node2</title>
<polygon fill="none" stroke="#bfbfbf" points="315.5,-528.5 315.5,-547.5 434.5,-547.5 434.5,-528.5 315.5,-528.5"/>
<text text-anchor="middle" x="375" y="-535.5" font-family="Helvetica,sans-Serif" font-size="10.00">boost/test/unit_test.hpp</text>
</g>
<!-- Node1&#45;&gt;Node2 -->
<g id="edge1" class="edge"><title>Node1&#45;&gt;Node2</title>
<path fill="none" stroke="midnightblue" d="M493.481,-584.968C464.128,-573.58 430.706,-560.613 406.86,-551.361"/>
<polygon fill="midnightblue" stroke="midnightblue" points="407.855,-547.993 397.266,-547.639 405.323,-554.519 407.855,-547.993"/>
</g>
<!-- Node3 -->
<g id="node3" class="node"><title>Node3</title>
<g id="a_node3"><a xlink:href="../../d2/da8/ElectronTransport_8h.html" target="_top" xlink:title="Definition of the electron transport. ">
<polygon fill="none" stroke="black" points="529.5,-528.5 529.5,-547.5 700.5,-547.5 700.5,-528.5 529.5,-528.5"/>
<text text-anchor="middle" x="615" y="-535.5" font-family="Helvetica,sans-Serif" font-size="10.00">TPCSimulation/ElectronTransport.h</text>
</a>
</g>
</g>
<!-- Node1&#45;&gt;Node3 -->
<g id="edge2" class="edge"><title>Node1&#45;&gt;Node3</title>
<path fill="none" stroke="midnightblue" d="M578.257,-584.768C586.032,-575.083 594.704,-564.281 601.669,-555.605"/>
<polygon fill="midnightblue" stroke="midnightblue" points="604.439,-557.746 607.97,-547.757 598.98,-553.364 604.439,-557.746"/>
</g>
<!-- Node4 -->
<g id="node4" class="node"><title>Node4</title>
<g id="a_node4"><a xlink:href="../../db/d5b/ParameterGas_8h.html" target="_top" xlink:title="Definition of the parameter class for the detector gas. ">
<polygon fill="none" stroke="black" points="411,-472.5 411,-491.5 545,-491.5 545,-472.5 411,-472.5"/>
<text text-anchor="middle" x="478" y="-479.5" font-family="Helvetica,sans-Serif" font-size="10.00">TPCBase/ParameterGas.h</text>
</a>
</g>
</g>
<!-- Node1&#45;&gt;Node4 -->
<g id="edge60" class="edge"><title>Node1&#45;&gt;Node4</title>
<path fill="none" stroke="midnightblue" d="M542.195,-584.909C526.407,-559.847 502.566,-521.999 488.817,-500.172"/>
<polygon fill="midnightblue" stroke="midnightblue" points="491.726,-498.224 483.435,-491.628 485.803,-501.955 491.726,-498.224"/>
</g>
<!-- Node10 -->
<g id="node10" class="node"><title>Node10</title>
<polygon fill="none" stroke="#bfbfbf" points="1482,-416.5 1482,-435.5 1524,-435.5 1524,-416.5 1482,-416.5"/>
<text text-anchor="middle" x="1503" y="-423.5" font-family="Helvetica,sans-Serif" font-size="10.00">TF1.h</text>
</g>
<!-- Node1&#45;&gt;Node10 -->
<g id="edge64" class="edge"><title>Node1&#45;&gt;Node10</title>
<path fill="none" stroke="midnightblue" d="M644.083,-602.959C788.428,-589.811 1087.59,-556.799 1333,-492 1384.5,-478.403 1441.88,-454.531 1475.07,-439.81"/>
<polygon fill="midnightblue" stroke="midnightblue" points="1476.87,-442.84 1484.57,-435.557 1474.01,-436.452 1476.87,-442.84"/>
</g>
<!-- Node40 -->
<g id="node40" class="node"><title>Node40</title>
<g id="a_node40"><a xlink:href="../../db/dad/ParameterDetector_8h.html" target="_top" xlink:title="Definition of the parameter class for the detector. ">
<polygon fill="none" stroke="black" points="200.5,-472.5 200.5,-491.5 353.5,-491.5 353.5,-472.5 200.5,-472.5"/>
<text text-anchor="middle" x="277" y="-479.5" font-family="Helvetica,sans-Serif" font-size="10.00">TPCBase/ParameterDetector.h</text>
</a>
</g>
</g>
<!-- Node1&#45;&gt;Node40 -->
<g id="edge61" class="edge"><title>Node1&#45;&gt;Node40</title>
<path fill="none" stroke="midnightblue" d="M529.087,-584.943C506.863,-566.83 474.694,-543.001 443,-528 409.124,-511.966 368.562,-500.837 336.014,-493.658"/>
<polygon fill="midnightblue" stroke="midnightblue" points="336.697,-490.225 326.186,-491.556 335.233,-497.07 336.697,-490.225"/>
</g>
<!-- Node41 -->
<g id="node41" class="node"><title>Node41</title>
<polygon fill="none" stroke="#bfbfbf" points="1380.5,-528.5 1380.5,-547.5 1431.5,-547.5 1431.5,-528.5 1380.5,-528.5"/>
<text text-anchor="middle" x="1406" y="-535.5" font-family="Helvetica,sans-Serif" font-size="10.00">TH1D.h</text>
</g>
<!-- Node1&#45;&gt;Node41 -->
<g id="edge63" class="edge"><title>Node1&#45;&gt;Node41</title>
<path fill="none" stroke="midnightblue" d="M644.264,-607.477C792.531,-602.229 1104.95,-587.173 1366,-548 1367.45,-547.782 1368.93,-547.541 1370.42,-547.282"/>
<polygon fill="midnightblue" stroke="midnightblue" points="1371.14,-550.708 1380.28,-545.362 1369.8,-543.837 1371.14,-550.708"/>
</g>
<!-- Node3&#45;&gt;Node4 -->
<g id="edge3" class="edge"><title>Node3&#45;&gt;Node4</title>
<path fill="none" stroke="midnightblue" d="M593.292,-528.444C570.645,-519.517 534.928,-505.439 509.248,-495.317"/>
<polygon fill="midnightblue" stroke="midnightblue" points="510.193,-491.927 499.606,-491.516 507.626,-498.44 510.193,-491.927"/>
</g>
<!-- Node6 -->
<g id="node6" class="node"><title>Node6</title>
<g id="a_node6"><a xlink:href="../../db/dac/RandomRing_8h.html" target="_top" xlink:title="TPCBase/RandomRing.h">
<polygon fill="none" stroke="black" points="1196,-472.5 1196,-491.5 1324,-491.5 1324,-472.5 1196,-472.5"/>
<text text-anchor="middle" x="1260" y="-479.5" font-family="Helvetica,sans-Serif" font-size="10.00">TPCBase/RandomRing.h</text>
</a>
</g>
</g>
<!-- Node3&#45;&gt;Node6 -->
<g id="edge5" class="edge"><title>Node3&#45;&gt;Node6</title>
<path fill="none" stroke="midnightblue" d="M700.651,-529.829C828.014,-519.166 1065.22,-499.307 1185.68,-489.222"/>
<polygon fill="midnightblue" stroke="midnightblue" points="1186.23,-492.688 1195.91,-488.366 1185.65,-485.713 1186.23,-492.688"/>
</g>
<!-- Node12 -->
<g id="node12" class="node"><title>Node12</title>
<g id="a_node12"><a xlink:href="../../d7/d2c/Mapper_8h.html" target="_top" xlink:title="TPCBase/Mapper.h">
<polygon fill="none" stroke="black" points="563.5,-472.5 563.5,-491.5 666.5,-491.5 666.5,-472.5 563.5,-472.5"/>
<text text-anchor="middle" x="615" y="-479.5" font-family="Helvetica,sans-Serif" font-size="10.00">TPCBase/Mapper.h</text>
</a>
</g>
</g>
<!-- Node3&#45;&gt;Node12 -->
<g id="edge11" class="edge"><title>Node3&#45;&gt;Node12</title>
<path fill="none" stroke="midnightblue" d="M615,-528.083C615,-521.006 615,-510.861 615,-501.986"/>
<polygon fill="midnightblue" stroke="midnightblue" points="618.5,-501.751 615,-491.751 611.5,-501.751 618.5,-501.751"/>
</g>
<!-- Node5 -->
<g id="node5" class="node"><title>Node5</title>
<polygon fill="none" stroke="#bfbfbf" points="230,-416.5 230,-435.5 268,-435.5 268,-416.5 230,-416.5"/>
<text text-anchor="middle" x="249" y="-423.5" font-family="Helvetica,sans-Serif" font-size="10.00">array</text>
</g>
<!-- Node4&#45;&gt;Node5 -->
<g id="edge4" class="edge"><title>Node4&#45;&gt;Node5</title>
<path fill="none" stroke="midnightblue" d="M438.841,-472.5C399.197,-463.779 336.18,-449.602 282,-436 280.736,-435.683 279.447,-435.354 278.146,-435.018"/>
<polygon fill="midnightblue" stroke="midnightblue" points="278.724,-431.55 268.16,-432.367 276.928,-438.315 278.724,-431.55"/>
</g>
<!-- Node7 -->
<g id="node7" class="node"><title>Node7</title>
<polygon fill="none" stroke="#bfbfbf" points="1312,-416.5 1312,-435.5 1402,-435.5 1402,-416.5 1312,-416.5"/>
<text text-anchor="middle" x="1357" y="-423.5" font-family="Helvetica,sans-Serif" font-size="10.00">boost/format.hpp</text>
</g>
<!-- Node6&#45;&gt;Node7 -->
<g id="edge6" class="edge"><title>Node6&#45;&gt;Node7</title>
<path fill="none" stroke="midnightblue" d="M1275.58,-472.324C1291,-463.743 1314.81,-450.486 1332.71,-440.522"/>
<polygon fill="midnightblue" stroke="midnightblue" points="1334.42,-443.577 1341.45,-435.655 1331.01,-437.461 1334.42,-443.577"/>
</g>
<!-- Node8 -->
<g id="node8" class="node"><title>Node8</title>
<polygon fill="none" stroke="#bfbfbf" points="1420,-416.5 1420,-435.5 1464,-435.5 1464,-416.5 1420,-416.5"/>
<text text-anchor="middle" x="1442" y="-423.5" font-family="Helvetica,sans-Serif" font-size="10.00">Vc/Vc</text>
</g>
<!-- Node6&#45;&gt;Node8 -->
<g id="edge7" class="edge"><title>Node6&#45;&gt;Node8</title>
<path fill="none" stroke="midnightblue" d="M1288.84,-472.444C1321.81,-462.66 1375.64,-446.688 1409.92,-436.519"/>
<polygon fill="midnightblue" stroke="midnightblue" points="1411.29,-439.763 1419.88,-433.563 1409.3,-433.052 1411.29,-439.763"/>
</g>
<!-- Node9 -->
<g id="node9" class="node"><title>Node9</title>
<polygon fill="none" stroke="#bfbfbf" points="1138,-360.5 1138,-379.5 1182,-379.5 1182,-360.5 1138,-360.5"/>
<text text-anchor="middle" x="1160" y="-367.5" font-family="Helvetica,sans-Serif" font-size="10.00">vector</text>
</g>
<!-- Node6&#45;&gt;Node9 -->
<g id="edge8" class="edge"><title>Node6&#45;&gt;Node9</title>
<path fill="none" stroke="midnightblue" d="M1251.65,-472.477C1242.9,-463.502 1228.82,-448.912 1217,-436 1202.04,-419.654 1185.37,-400.54 1173.95,-387.289"/>
<polygon fill="midnightblue" stroke="midnightblue" points="1176.44,-384.818 1167.26,-379.516 1171.13,-389.381 1176.44,-384.818"/>
</g>
<!-- Node6&#45;&gt;Node10 -->
<g id="edge9" class="edge"><title>Node6&#45;&gt;Node10</title>
<path fill="none" stroke="midnightblue" d="M1304.89,-472.466C1347.95,-464.045 1414.7,-450.377 1472,-436 1472.1,-435.975 1472.2,-435.95 1472.3,-435.926"/>
<polygon fill="midnightblue" stroke="midnightblue" points="1472.96,-439.372 1481.71,-433.404 1471.15,-432.61 1472.96,-439.372"/>
</g>
<!-- Node11 -->
<g id="node11" class="node"><title>Node11</title>
<polygon fill="none" stroke="#bfbfbf" points="1226,-416.5 1226,-435.5 1294,-435.5 1294,-416.5 1226,-416.5"/>
<text text-anchor="middle" x="1260" y="-423.5" font-family="Helvetica,sans-Serif" font-size="10.00">TRandom.h</text>
</g>
<!-- Node6&#45;&gt;Node11 -->
<g id="edge10" class="edge"><title>Node6&#45;&gt;Node11</title>
<path fill="none" stroke="midnightblue" d="M1260,-472.083C1260,-465.006 1260,-454.861 1260,-445.986"/>
<polygon fill="midnightblue" stroke="midnightblue" points="1263.5,-445.751 1260,-435.751 1256.5,-445.751 1263.5,-445.751"/>
</g>
<!-- Node12&#45;&gt;Node5 -->
<g id="edge14" class="edge"><title>Node12&#45;&gt;Node5</title>
<path fill="none" stroke="midnightblue" d="M563.423,-473.335C560.235,-472.878 557.074,-472.43 554,-472 433.234,-455.1 401.538,-460.097 282,-436 280.723,-435.743 279.422,-435.463 278.112,-435.167"/>
<polygon fill="midnightblue" stroke="midnightblue" points="278.64,-431.692 268.091,-432.675 276.95,-438.485 278.64,-431.692"/>
</g>
<!-- Node12&#45;&gt;Node9 -->
<g id="edge13" class="edge"><title>Node12&#45;&gt;Node9</title>
<path fill="none" stroke="midnightblue" d="M666.69,-479.81C791.869,-476.477 1103.69,-465.296 1140,-436 1153.62,-425.011 1158.17,-404.958 1159.59,-390.02"/>
<polygon fill="midnightblue" stroke="midnightblue" points="1163.1,-390.01 1160.17,-379.829 1156.11,-389.617 1163.1,-390.01"/>
</g>
<!-- Node13 -->
<g id="node13" class="node"><title>Node13</title>
<polygon fill="none" stroke="#bfbfbf" points="324.5,-416.5 324.5,-435.5 359.5,-435.5 359.5,-416.5 324.5,-416.5"/>
<text text-anchor="middle" x="342" y="-423.5" font-family="Helvetica,sans-Serif" font-size="10.00">map</text>
</g>
<!-- Node12&#45;&gt;Node13 -->
<g id="edge12" class="edge"><title>Node12&#45;&gt;Node13</title>
<path fill="none" stroke="midnightblue" d="M563.313,-472.541C506.325,-463.058 417.285,-447.742 369.365,-435.994"/>
<polygon fill="midnightblue" stroke="midnightblue" points="370.066,-432.56 359.51,-433.469 368.329,-439.341 370.066,-432.56"/>
</g>
<!-- Node14 -->
<g id="node14" class="node"><title>Node14</title>
<polygon fill="none" stroke="#bfbfbf" points="377.5,-416.5 377.5,-435.5 418.5,-435.5 418.5,-416.5 377.5,-416.5"/>
<text text-anchor="middle" x="398" y="-423.5" font-family="Helvetica,sans-Serif" font-size="10.00">string</text>
</g>
<!-- Node12&#45;&gt;Node14 -->
<g id="edge15" class="edge"><title>Node12&#45;&gt;Node14</title>
<path fill="none" stroke="midnightblue" d="M580.085,-472.469C543.429,-463.489 484.128,-448.894 433,-436 431.555,-435.636 430.077,-435.261 428.585,-434.882"/>
<polygon fill="midnightblue" stroke="midnightblue" points="429.275,-431.446 418.72,-432.362 427.542,-438.228 429.275,-431.446"/>
</g>
<!-- Node15 -->
<g id="node15" class="node"><title>Node15</title>
<polygon fill="none" stroke="#bfbfbf" points="390,-136.5 390,-155.5 434,-155.5 434,-136.5 390,-136.5"/>
<text text-anchor="middle" x="412" y="-143.5" font-family="Helvetica,sans-Serif" font-size="10.00">cmath</text>
</g>
<!-- Node12&#45;&gt;Node15 -->
<g id="edge16" class="edge"><title>Node12&#45;&gt;Node15</title>
<path fill="none" stroke="midnightblue" d="M563.209,-473.32C477.531,-460.603 315.584,-436.509 315,-436 292.326,-416.207 296,-401.098 296,-371 296,-371 296,-371 296,-257 296,-209.814 347.163,-176.786 381.532,-159.923"/>
<polygon fill="midnightblue" stroke="midnightblue" points="383.166,-163.022 390.724,-155.597 380.185,-156.688 383.166,-163.022"/>
</g>
<!-- Node16 -->
<g id="node16" class="node"><title>Node16</title>
<g id="a_node16"><a xlink:href="../../d1/d73/Defs_8h.html" target="_top" xlink:title="Common definitions for 2D coordinates. ">
<polygon fill="none" stroke="black" points="623,-192.5 623,-211.5 715,-211.5 715,-192.5 623,-192.5"/>
<text text-anchor="middle" x="669" y="-199.5" font-family="Helvetica,sans-Serif" font-size="10.00">TPCBase/Defs.h</text>
</a>
</g>
</g>
<!-- Node12&#45;&gt;Node16 -->
<g id="edge17" class="edge"><title>Node12&#45;&gt;Node16</title>
<path fill="none" stroke="midnightblue" d="M640.654,-472.441C710.478,-449.087 899.006,-385.633 903,-380 960.625,-298.725 793.599,-238.321 711.565,-214.339"/>
<polygon fill="midnightblue" stroke="midnightblue" points="712.344,-210.921 701.766,-211.53 710.414,-217.65 712.344,-210.921"/>
</g>
<!-- Node29 -->
<g id="node29" class="node"><title>Node29</title>
<g id="a_node29"><a xlink:href="../../de/d41/PadPos_8h.html" target="_top" xlink:title="TPCBase/PadPos.h">
<polygon fill="none" stroke="black" points="457.5,-304.5 457.5,-323.5 562.5,-323.5 562.5,-304.5 457.5,-304.5"/>
<text text-anchor="middle" x="510" y="-311.5" font-family="Helvetica,sans-Serif" font-size="10.00">TPCBase/PadPos.h</text>
</a>
</g>
</g>
<!-- Node12&#45;&gt;Node29 -->
<g id="edge32" class="edge"><title>Node12&#45;&gt;Node29</title>
<path fill="none" stroke="midnightblue" d="M597.47,-472.392C583.371,-464.649 563.997,-452.036 552,-436 528.55,-404.656 517.491,-359.203 512.87,-333.866"/>
<polygon fill="midnightblue" stroke="midnightblue" points="516.281,-333.049 511.178,-323.764 509.378,-334.205 516.281,-333.049"/>
</g>
<!-- Node30 -->
<g id="node30" class="node"><title>Node30</title>
<g id="a_node30"><a xlink:href="../../dd/d0b/PadSecPos_8h.html" target="_top" xlink:title="TPCBase/PadSecPos.h">
<polygon fill="none" stroke="black" points="362,-360.5 362,-379.5 484,-379.5 484,-360.5 362,-360.5"/>
<text text-anchor="middle" x="423" y="-367.5" font-family="Helvetica,sans-Serif" font-size="10.00">TPCBase/PadSecPos.h</text>
</a>
</g>
</g>
<!-- Node12&#45;&gt;Node30 -->
<g id="edge33" class="edge"><title>Node12&#45;&gt;Node30</title>
<path fill="none" stroke="midnightblue" d="M590.189,-472.445C568.17,-464.397 535.479,-451.314 509,-436 483.753,-421.399 457.375,-400.488 440.599,-386.36"/>
<polygon fill="midnightblue" stroke="midnightblue" points="442.635,-383.495 432.758,-379.659 438.087,-388.817 442.635,-383.495"/>
</g>
<!-- Node31 -->
<g id="node31" class="node"><title>Node31</title>
<g id="a_node31"><a xlink:href="../../d3/dd6/Sector_8h.html" target="_top" xlink:title="TPCBase/Sector.h">
<polygon fill="none" stroke="black" points="498.5,-248.5 498.5,-267.5 597.5,-267.5 597.5,-248.5 498.5,-248.5"/>
<text text-anchor="middle" x="548" y="-255.5" font-family="Helvetica,sans-Serif" font-size="10.00">TPCBase/Sector.h</text>
</a>
</g>
</g>
<!-- Node12&#45;&gt;Node31 -->
<g id="edge59" class="edge"><title>Node12&#45;&gt;Node31</title>
<path fill="none" stroke="midnightblue" d="M585.372,-472.479C556.994,-464.068 513.126,-450.407 476,-436 469,-433.284 357.063,-386.314 353,-380 315.036,-321.001 421.561,-285.917 491.764,-269.763"/>
<polygon fill="midnightblue" stroke="midnightblue" points="492.838,-273.11 501.836,-267.517 491.314,-266.278 492.838,-273.11"/>
</g>
<!-- Node33 -->
<g id="node33" class="node"><title>Node33</title>
<g id="a_node33"><a xlink:href="../../da/d61/PadROCPos_8h.html" target="_top" xlink:title="TPCBase/PadROCPos.h">
<polygon fill="none" stroke="black" points="766,-360.5 766,-379.5 894,-379.5 894,-360.5 766,-360.5"/>
<text text-anchor="middle" x="830" y="-367.5" font-family="Helvetica,sans-Serif" font-size="10.00">TPCBase/PadROCPos.h</text>
</a>
</g>
</g>
<!-- Node12&#45;&gt;Node33 -->
<g id="edge38" class="edge"><title>Node12&#45;&gt;Node33</title>
<path fill="none" stroke="midnightblue" d="M631.871,-472.368C669.314,-453.211 759.567,-407.036 804.166,-384.217"/>
<polygon fill="midnightblue" stroke="midnightblue" points="805.899,-387.262 813.208,-379.591 802.711,-381.03 805.899,-387.262"/>
</g>
<!-- Node35 -->
<g id="node35" class="node"><title>Node35</title>
<g id="a_node35"><a xlink:href="../../d3/d54/DigitPos_8h.html" target="_top" xlink:title="TPCBase/DigitPos.h">
<polygon fill="none" stroke="black" points="561,-416.5 561,-435.5 669,-435.5 669,-416.5 561,-416.5"/>
<text text-anchor="middle" x="615" y="-423.5" font-family="Helvetica,sans-Serif" font-size="10.00">TPCBase/DigitPos.h</text>
</a>
</g>
</g>
<!-- Node12&#45;&gt;Node35 -->
<g id="edge44" class="edge"><title>Node12&#45;&gt;Node35</title>
<path fill="none" stroke="midnightblue" d="M615,-472.083C615,-465.006 615,-454.861 615,-445.986"/>
<polygon fill="midnightblue" stroke="midnightblue" points="618.5,-445.751 615,-435.751 611.5,-445.751 618.5,-445.751"/>
</g>
<!-- Node37 -->
<g id="node37" class="node"><title>Node37</title>
<g id="a_node37"><a xlink:href="../../d1/d1f/FECInfo_8h.html" target="_top" xlink:title="TPCBase/FECInfo.h">
<polygon fill="none" stroke="black" points="1130.5,-248.5 1130.5,-267.5 1237.5,-267.5 1237.5,-248.5 1130.5,-248.5"/>
<text text-anchor="middle" x="1184" y="-255.5" font-family="Helvetica,sans-Serif" font-size="10.00">TPCBase/FECInfo.h</text>
</a>
</g>
</g>
<!-- Node12&#45;&gt;Node37 -->
<g id="edge52" class="edge"><title>Node12&#45;&gt;Node37</title>
<path fill="none" stroke="midnightblue" d="M666.669,-477.644C749.572,-471.696 908.242,-457.835 960,-436 1006.98,-416.182 1123.13,-313.896 1166.92,-274.497"/>
<polygon fill="midnightblue" stroke="midnightblue" points="1169.37,-277 1174.45,-267.701 1164.68,-271.804 1169.37,-277"/>
</g>
<!-- Node38 -->
<g id="node38" class="node"><title>Node38</title>
<g id="a_node38"><a xlink:href="../../da/d9d/PadRegionInfo_8h.html" target="_top" xlink:title="TPCBase/PadRegionInfo.h">
<polygon fill="none" stroke="black" points="816.5,-416.5 816.5,-435.5 951.5,-435.5 951.5,-416.5 816.5,-416.5"/>
<text text-anchor="middle" x="884" y="-423.5" font-family="Helvetica,sans-Serif" font-size="10.00">TPCBase/PadRegionInfo.h</text>
</a>
</g>
</g>
<!-- Node12&#45;&gt;Node38 -->
<g id="edge54" class="edge"><title>Node12&#45;&gt;Node38</title>
<path fill="none" stroke="midnightblue" d="M657.624,-472.444C704.747,-462.984 780.692,-447.738 831.459,-437.547"/>
<polygon fill="midnightblue" stroke="midnightblue" points="832.46,-440.916 841.576,-435.516 831.082,-434.053 832.46,-440.916"/>
</g>
<!-- Node39 -->
<g id="node39" class="node"><title>Node39</title>
<g id="a_node39"><a xlink:href="../../d6/d42/PartitionInfo_8h.html" target="_top" xlink:title="TPCBase/PartitionInfo.h">
<polygon fill="none" stroke="black" points="1008.5,-416.5 1008.5,-435.5 1131.5,-435.5 1131.5,-416.5 1008.5,-416.5"/>
<text text-anchor="middle" x="1070" y="-423.5" font-family="Helvetica,sans-Serif" font-size="10.00">TPCBase/PartitionInfo.h</text>
</a>
</g>
</g>
<!-- Node12&#45;&gt;Node39 -->
<g id="edge58" class="edge"><title>Node12&#45;&gt;Node39</title>
<path fill="none" stroke="midnightblue" d="M666.751,-474.858C748.022,-465.213 905.8,-446.487 998.065,-435.537"/>
<polygon fill="midnightblue" stroke="midnightblue" points="998.64,-438.994 1008.16,-434.34 997.815,-432.043 998.64,-438.994"/>
</g>
<!-- Node16&#45;&gt;Node15 -->
<g id="edge18" class="edge"><title>Node16&#45;&gt;Node15</title>
<path fill="none" stroke="midnightblue" d="M628.278,-192.444C577.222,-181.716 490.755,-163.548 444.115,-153.748"/>
<polygon fill="midnightblue" stroke="midnightblue" points="444.755,-150.306 434.249,-151.675 443.316,-157.156 444.755,-150.306"/>
</g>
<!-- Node17 -->
<g id="node17" class="node"><title>Node17</title>
<g id="a_node17"><a xlink:href="../../d2/dd0/Cartesian2D_8h.html" target="_top" xlink:title="MathUtils/Cartesian2D.h">
<polygon fill="none" stroke="black" points="103.5,-74.5 103.5,-93.5 228.5,-93.5 228.5,-74.5 103.5,-74.5"/>
<text text-anchor="middle" x="166" y="-81.5" font-family="Helvetica,sans-Serif" font-size="10.00">MathUtils/Cartesian2D.h</text>
</a>
</g>
</g>
<!-- Node16&#45;&gt;Node17 -->
<g id="edge19" class="edge"><title>Node16&#45;&gt;Node17</title>
<path fill="none" stroke="midnightblue" d="M642.673,-192.492C600.611,-179.119 515.497,-152.959 442,-136 352.29,-115.3 328.41,-117.391 238,-100 230.845,-98.6237 223.303,-97.1157 215.901,-95.6031"/>
<polygon fill="midnightblue" stroke="midnightblue" points="216.445,-92.1418 205.944,-93.5495 215.031,-98.9975 216.445,-92.1418"/>
</g>
<!-- Node20 -->
<g id="node20" class="node"><title>Node20</title>
<g id="a_node20"><a xlink:href="../../dd/d76/Cartesian3D_8h.html" target="_top" xlink:title="MathUtils/Cartesian3D.h">
<polygon fill="none" stroke="black" points="606.5,-136.5 606.5,-155.5 731.5,-155.5 731.5,-136.5 606.5,-136.5"/>
<text text-anchor="middle" x="669" y="-143.5" font-family="Helvetica,sans-Serif" font-size="10.00">MathUtils/Cartesian3D.h</text>
</a>
</g>
</g>
<!-- Node16&#45;&gt;Node20 -->
<g id="edge22" class="edge"><title>Node16&#45;&gt;Node20</title>
<path fill="none" stroke="midnightblue" d="M669,-192.083C669,-185.006 669,-174.861 669,-165.986"/>
<polygon fill="midnightblue" stroke="midnightblue" points="672.5,-165.751 669,-155.751 665.5,-165.751 672.5,-165.751"/>
</g>
<!-- Node18 -->
<g id="node18" class="node"><title>Node18</title>
<polygon fill="none" stroke="#bfbfbf" points="-0.5,-1 -0.5,-31 150.5,-31 150.5,-1 -0.5,-1"/>
<text text-anchor="start" x="7.5" y="-19" font-family="Helvetica,sans-Serif" font-size="10.00">Math/GenVector/Displacement</text>
<text text-anchor="middle" x="75" y="-8" font-family="Helvetica,sans-Serif" font-size="10.00">Vector2D.h</text>
</g>
<!-- Node17&#45;&gt;Node18 -->
<g id="edge20" class="edge"><title>Node17&#45;&gt;Node18</title>
<path fill="none" stroke="midnightblue" d="M154.103,-74.3717C141.221,-65.0286 120.22,-49.7966 103.093,-37.375"/>
<polygon fill="midnightblue" stroke="midnightblue" points="104.703,-34.2194 94.5532,-31.1815 100.593,-39.8859 104.703,-34.2194"/>
</g>
<!-- Node19 -->
<g id="node19" class="node"><title>Node19</title>
<polygon fill="none" stroke="#bfbfbf" points="169,-6.5 169,-25.5 345,-25.5 345,-6.5 169,-6.5"/>
<text text-anchor="middle" x="257" y="-13.5" font-family="Helvetica,sans-Serif" font-size="10.00">Math/GenVector/PositionVector2D.h</text>
</g>
<!-- Node17&#45;&gt;Node19 -->
<g id="edge21" class="edge"><title>Node17&#45;&gt;Node19</title>
<path fill="none" stroke="midnightblue" d="M177.897,-74.3717C192.884,-63.5015 218.862,-44.6602 236.942,-31.5474"/>
<polygon fill="midnightblue" stroke="midnightblue" points="239.06,-34.3349 245.1,-25.6305 234.95,-28.6684 239.06,-34.3349"/>
</g>
<!-- Node20&#45;&gt;Node17 -->
<g id="edge30" class="edge"><title>Node20&#45;&gt;Node17</title>
<path fill="none" stroke="midnightblue" d="M606.289,-140.457C522.165,-133.906 368.271,-120.317 238,-100 229.928,-98.7411 221.393,-97.1744 213.131,-95.5325"/>
<polygon fill="midnightblue" stroke="midnightblue" points="213.737,-92.0839 203.238,-93.508 212.333,-98.9418 213.737,-92.0839"/>
</g>
<!-- Node21 -->
<g id="node21" class="node"><title>Node21</title>
<polygon fill="none" stroke="#bfbfbf" points="956.5,-74.5 956.5,-93.5 1105.5,-93.5 1105.5,-74.5 956.5,-74.5"/>
<text text-anchor="middle" x="1031" y="-81.5" font-family="Helvetica,sans-Serif" font-size="10.00">Math/GenVector/Rotation3D.h</text>
</g>
<!-- Node20&#45;&gt;Node21 -->
<g id="edge23" class="edge"><title>Node20&#45;&gt;Node21</title>
<path fill="none" stroke="midnightblue" d="M723.378,-136.465C779.451,-127.602 869.4,-113.208 947,-100 955.701,-98.519 964.901,-96.915 973.898,-95.3253"/>
<polygon fill="midnightblue" stroke="midnightblue" points="974.697,-98.7383 983.931,-93.544 973.473,-91.8461 974.697,-98.7383"/>
</g>
<!-- Node22 -->
<g id="node22" class="node"><title>Node22</title>
<polygon fill="none" stroke="#bfbfbf" points="1124,-74.5 1124,-93.5 1280,-93.5 1280,-74.5 1124,-74.5"/>
<text text-anchor="middle" x="1202" y="-81.5" font-family="Helvetica,sans-Serif" font-size="10.00">Math/GenVector/Transform3D.h</text>
</g>
<!-- Node20&#45;&gt;Node22 -->
<g id="edge24" class="edge"><title>Node20&#45;&gt;Node22</title>
<path fill="none" stroke="midnightblue" d="M731.8,-140.005C818.12,-132.831 978.19,-118.42 1114,-100 1124.24,-98.6109 1135.12,-96.9277 1145.61,-95.1978"/>
<polygon fill="midnightblue" stroke="midnightblue" points="1146.23,-98.6427 1155.51,-93.533 1145.07,-91.7396 1146.23,-98.6427"/>
</g>
<!-- Node23 -->
<g id="node23" class="node"><title>Node23</title>
<polygon fill="none" stroke="#bfbfbf" points="247,-74.5 247,-93.5 407,-93.5 407,-74.5 247,-74.5"/>
<text text-anchor="middle" x="327" y="-81.5" font-family="Helvetica,sans-Serif" font-size="10.00">Math/GenVector/Translation3D.h</text>
</g>
<!-- Node20&#45;&gt;Node23 -->
<g id="edge25" class="edge"><title>Node20&#45;&gt;Node23</title>
<path fill="none" stroke="midnightblue" d="M620.363,-136.467C558.443,-125.604 451.573,-106.855 385.337,-95.2346"/>
<polygon fill="midnightblue" stroke="midnightblue" points="385.924,-91.7841 375.469,-93.5034 384.714,-98.6788 385.924,-91.7841"/>
</g>
<!-- Node24 -->
<g id="node24" class="node"><title>Node24</title>
<polygon fill="none" stroke="#bfbfbf" points="425,-74.5 425,-93.5 481,-93.5 481,-74.5 425,-74.5"/>
<text text-anchor="middle" x="453" y="-81.5" font-family="Helvetica,sans-Serif" font-size="10.00">Rtypes.h</text>
</g>
<!-- Node20&#45;&gt;Node24 -->
<g id="edge26" class="edge"><title>Node20&#45;&gt;Node24</title>
<path fill="none" stroke="midnightblue" d="M628.378,-136.48C591.797,-128.409 536.755,-115.273 490,-100 487.432,-99.1613 484.789,-98.2304 482.153,-97.2547"/>
<polygon fill="midnightblue" stroke="midnightblue" points="483.371,-93.9732 472.782,-93.6103 480.834,-100.497 483.371,-93.9732"/>
</g>
<!-- Node25 -->
<g id="node25" class="node"><title>Node25</title>
<polygon fill="none" stroke="#bfbfbf" points="499,-74.5 499,-93.5 575,-93.5 575,-74.5 499,-74.5"/>
<text text-anchor="middle" x="537" y="-81.5" font-family="Helvetica,sans-Serif" font-size="10.00">TGeoMatrix.h</text>
</g>
<!-- Node20&#45;&gt;Node25 -->
<g id="edge27" class="edge"><title>Node20&#45;&gt;Node25</title>
<path fill="none" stroke="midnightblue" d="M650.088,-136.403C627.837,-126.29 590.688,-109.404 565.074,-97.761"/>
<polygon fill="midnightblue" stroke="midnightblue" points="566.429,-94.5324 555.877,-93.5806 563.533,-100.905 566.429,-94.5324"/>
</g>
<!-- Node26 -->
<g id="node26" class="node"><title>Node26</title>
<polygon fill="none" stroke="#bfbfbf" points="593.5,-69 593.5,-99 744.5,-99 744.5,-69 593.5,-69"/>
<text text-anchor="start" x="601.5" y="-87" font-family="Helvetica,sans-Serif" font-size="10.00">Math/GenVector/Displacement</text>
<text text-anchor="middle" x="669" y="-76" font-family="Helvetica,sans-Serif" font-size="10.00">Vector3D.h</text>
</g>
<!-- Node20&#45;&gt;Node26 -->
<g id="edge28" class="edge"><title>Node20&#45;&gt;Node26</title>
<path fill="none" stroke="midnightblue" d="M669,-136.403C669,-129.341 669,-118.975 669,-109.399"/>
<polygon fill="midnightblue" stroke="midnightblue" points="672.5,-109.141 669,-99.1408 665.5,-109.141 672.5,-109.141"/>
</g>
<!-- Node27 -->
<g id="node27" class="node"><title>Node27</title>
<polygon fill="none" stroke="#bfbfbf" points="763,-74.5 763,-93.5 939,-93.5 939,-74.5 763,-74.5"/>
<text text-anchor="middle" x="851" y="-81.5" font-family="Helvetica,sans-Serif" font-size="10.00">Math/GenVector/PositionVector3D.h</text>
</g>
<!-- Node20&#45;&gt;Node27 -->
<g id="edge29" class="edge"><title>Node20&#45;&gt;Node27</title>
<path fill="none" stroke="midnightblue" d="M695.076,-136.403C726.566,-126.022 779.698,-108.506 815.058,-96.849"/>
<polygon fill="midnightblue" stroke="midnightblue" points="816.571,-100.036 824.972,-93.5806 814.379,-93.3876 816.571,-100.036"/>
</g>
<!-- Node28 -->
<g id="node28" class="node"><title>Node28</title>
<polygon fill="none" stroke="#bfbfbf" points="1298,-74.5 1298,-93.5 1352,-93.5 1352,-74.5 1298,-74.5"/>
<text text-anchor="middle" x="1325" y="-81.5" font-family="Helvetica,sans-Serif" font-size="10.00">iostream</text>
</g>
<!-- Node20&#45;&gt;Node28 -->
<g id="edge31" class="edge"><title>Node20&#45;&gt;Node28</title>
<path fill="none" stroke="midnightblue" d="M731.731,-143.007C867.439,-138.279 1184.47,-124.875 1289,-100 1292,-99.2863 1295.07,-98.352 1298.09,-97.2981"/>
<polygon fill="midnightblue" stroke="midnightblue" points="1299.39,-100.547 1307.44,-93.6479 1296.85,-94.0272 1299.39,-100.547"/>
</g>
<!-- Node30&#45;&gt;Node29 -->
<g id="edge37" class="edge"><title>Node30&#45;&gt;Node29</title>
<path fill="none" stroke="midnightblue" d="M436.978,-360.324C450.55,-351.9 471.38,-338.971 487.325,-329.074"/>
<polygon fill="midnightblue" stroke="midnightblue" points="489.406,-331.902 496.057,-323.655 485.714,-325.954 489.406,-331.902"/>
</g>
<!-- Node30&#45;&gt;Node31 -->
<g id="edge34" class="edge"><title>Node30&#45;&gt;Node31</title>
<path fill="none" stroke="midnightblue" d="M424.193,-360.303C426.486,-346.671 432.713,-320.163 448,-304 462.705,-288.453 483.776,-277.883 502.788,-270.917"/>
<polygon fill="midnightblue" stroke="midnightblue" points="504.169,-274.143 512.497,-267.595 501.903,-267.52 504.169,-274.143"/>
</g>
<!-- Node31&#45;&gt;Node16 -->
<g id="edge36" class="edge"><title>Node31&#45;&gt;Node16</title>
<path fill="none" stroke="midnightblue" d="M567.173,-248.444C586.909,-239.636 617.885,-225.812 640.493,-215.722"/>
<polygon fill="midnightblue" stroke="midnightblue" points="642.211,-218.788 649.917,-211.516 639.359,-212.396 642.211,-218.788"/>
</g>
<!-- Node32 -->
<g id="node32" class="node"><title>Node32</title>
<g id="a_node32"><a xlink:href="../../d6/d51/TPC_2base_2include_2TPCBase_2Constants_8h.html" target="_top" xlink:title="TPCBase/Constants.h">
<polygon fill="none" stroke="black" points="489,-192.5 489,-211.5 605,-211.5 605,-192.5 489,-192.5"/>
<text text-anchor="middle" x="547" y="-199.5" font-family="Helvetica,sans-Serif" font-size="10.00">TPCBase/Constants.h</text>
</a>
</g>
</g>
<!-- Node31&#45;&gt;Node32 -->
<g id="edge35" class="edge"><title>Node31&#45;&gt;Node32</title>
<path fill="none" stroke="midnightblue" d="M547.835,-248.083C547.704,-241.006 547.516,-230.861 547.352,-221.986"/>
<polygon fill="midnightblue" stroke="midnightblue" points="550.847,-221.685 547.162,-211.751 543.848,-221.814 550.847,-221.685"/>
</g>
<!-- Node33&#45;&gt;Node16 -->
<g id="edge39" class="edge"><title>Node33&#45;&gt;Node16</title>
<path fill="none" stroke="midnightblue" d="M827.142,-360.301C822.516,-347.127 812.43,-321.771 798,-304 767.555,-266.505 720.743,-234.314 692.671,-216.888"/>
<polygon fill="midnightblue" stroke="midnightblue" points="694.281,-213.77 683.92,-211.558 690.639,-219.749 694.281,-213.77"/>
</g>
<!-- Node33&#45;&gt;Node29 -->
<g id="edge43" class="edge"><title>Node33&#45;&gt;Node29</title>
<path fill="none" stroke="midnightblue" d="M779.295,-360.444C722.653,-350.885 631.004,-335.419 570.621,-325.23"/>
<polygon fill="midnightblue" stroke="midnightblue" points="570.911,-321.729 560.468,-323.516 569.746,-328.632 570.911,-321.729"/>
</g>
<!-- Node34 -->
<g id="node34" class="node"><title>Node34</title>
<g id="a_node34"><a xlink:href="../../dc/d14/ROC_8h.html" target="_top" xlink:title="TPCBase/ROC.h">
<polygon fill="none" stroke="black" points="696.5,-304.5 696.5,-323.5 789.5,-323.5 789.5,-304.5 696.5,-304.5"/>
<text text-anchor="middle" x="743" y="-311.5" font-family="Helvetica,sans-Serif" font-size="10.00">TPCBase/ROC.h</text>
</a>
</g>
</g>
<!-- Node33&#45;&gt;Node34 -->
<g id="edge40" class="edge"><title>Node33&#45;&gt;Node34</title>
<path fill="none" stroke="midnightblue" d="M816.022,-360.324C802.45,-351.9 781.62,-338.971 765.675,-329.074"/>
<polygon fill="midnightblue" stroke="midnightblue" points="767.286,-325.954 756.943,-323.655 763.594,-331.902 767.286,-325.954"/>
</g>
<!-- Node34&#45;&gt;Node16 -->
<g id="edge41" class="edge"><title>Node34&#45;&gt;Node16</title>
<path fill="none" stroke="midnightblue" d="M737.193,-304.368C724.981,-286.215 696.448,-243.802 680.43,-219.99"/>
<polygon fill="midnightblue" stroke="midnightblue" points="683.266,-217.935 674.78,-211.591 677.457,-221.842 683.266,-217.935"/>
</g>
<!-- Node34&#45;&gt;Node31 -->
<g id="edge42" class="edge"><title>Node34&#45;&gt;Node31</title>
<path fill="none" stroke="midnightblue" d="M712.102,-304.444C678.726,-295.201 625.406,-280.436 588.651,-270.257"/>
<polygon fill="midnightblue" stroke="midnightblue" points="589.325,-266.812 578.754,-267.516 587.457,-273.558 589.325,-266.812"/>
</g>
<!-- Node35&#45;&gt;Node16 -->
<g id="edge45" class="edge"><title>Node35&#45;&gt;Node16</title>
<path fill="none" stroke="midnightblue" d="M617.117,-416.297C625.079,-383.563 653.341,-267.375 664.46,-221.666"/>
<polygon fill="midnightblue" stroke="midnightblue" points="667.876,-222.428 666.839,-211.884 661.075,-220.773 667.876,-222.428"/>
</g>
<!-- Node35&#45;&gt;Node29 -->
<g id="edge50" class="edge"><title>Node35&#45;&gt;Node29</title>
<path fill="none" stroke="midnightblue" d="M606.761,-416.368C589.203,-397.974 547.868,-354.671 525.322,-331.052"/>
<polygon fill="midnightblue" stroke="midnightblue" points="527.637,-328.408 518.201,-323.591 522.574,-333.242 527.637,-328.408"/>
</g>
<!-- Node35&#45;&gt;Node30 -->
<g id="edge51" class="edge"><title>Node35&#45;&gt;Node30</title>
<path fill="none" stroke="midnightblue" d="M584.577,-416.444C551.715,-407.201 499.215,-392.436 463.026,-382.257"/>
<polygon fill="midnightblue" stroke="midnightblue" points="463.855,-378.855 453.281,-379.516 461.96,-385.593 463.855,-378.855"/>
</g>
<!-- Node36 -->
<g id="node36" class="node"><title>Node36</title>
<g id="a_node36"><a xlink:href="../../df/d26/CRU_8h.html" target="_top" xlink:title="TPCBase/CRU.h">
<polygon fill="none" stroke="black" points="654.5,-360.5 654.5,-379.5 747.5,-379.5 747.5,-360.5 654.5,-360.5"/>
<text text-anchor="middle" x="701" y="-367.5" font-family="Helvetica,sans-Serif" font-size="10.00">TPCBase/CRU.h</text>
</a>
</g>
</g>
<!-- Node35&#45;&gt;Node36 -->
<g id="edge46" class="edge"><title>Node35&#45;&gt;Node36</title>
<path fill="none" stroke="midnightblue" d="M628.817,-416.324C642.233,-407.9 662.824,-394.971 678.586,-385.074"/>
<polygon fill="midnightblue" stroke="midnightblue" points="680.609,-387.936 687.217,-379.655 676.887,-382.008 680.609,-387.936"/>
</g>
<!-- Node36&#45;&gt;Node16 -->
<g id="edge47" class="edge"><title>Node36&#45;&gt;Node16</title>
<path fill="none" stroke="midnightblue" d="M698.184,-360.456C695.303,-351.465 690.856,-336.861 688,-324 680.038,-288.142 674.171,-245.585 671.196,-221.695"/>
<polygon fill="midnightblue" stroke="midnightblue" points="674.647,-221.085 669.971,-211.578 667.698,-221.926 674.647,-221.085"/>
</g>
<!-- Node36&#45;&gt;Node31 -->
<g id="edge48" class="edge"><title>Node36&#45;&gt;Node31</title>
<path fill="none" stroke="midnightblue" d="M688.994,-360.368C662.851,-341.573 600.532,-296.768 568.215,-273.533"/>
<polygon fill="midnightblue" stroke="midnightblue" points="570.112,-270.587 559.95,-267.591 566.026,-276.271 570.112,-270.587"/>
</g>
<!-- Node36&#45;&gt;Node34 -->
<g id="edge49" class="edge"><title>Node36&#45;&gt;Node34</title>
<path fill="none" stroke="midnightblue" d="M707.935,-360.083C713.929,-352.377 722.752,-341.033 730.048,-331.653"/>
<polygon fill="midnightblue" stroke="midnightblue" points="732.817,-333.793 736.194,-323.751 727.291,-329.496 732.817,-333.793"/>
</g>
<!-- Node37&#45;&gt;Node28 -->
<g id="edge53" class="edge"><title>Node37&#45;&gt;Node28</title>
<path fill="none" stroke="midnightblue" d="M1191.19,-248.234C1213.54,-220.971 1282.08,-137.36 1311.43,-101.554"/>
<polygon fill="midnightblue" stroke="midnightblue" points="1314.36,-103.497 1318,-93.5442 1308.95,-99.0589 1314.36,-103.497"/>
</g>
<!-- Node38&#45;&gt;Node9 -->
<g id="edge55" class="edge"><title>Node38&#45;&gt;Node9</title>
<path fill="none" stroke="midnightblue" d="M927.733,-416.444C983.503,-405.532 1078.62,-386.923 1128.05,-377.251"/>
<polygon fill="midnightblue" stroke="midnightblue" points="1128.73,-380.684 1137.87,-375.329 1127.39,-373.815 1128.73,-380.684"/>
</g>
<!-- Node38&#45;&gt;Node16 -->
<g id="edge56" class="edge"><title>Node38&#45;&gt;Node16</title>
<path fill="none" stroke="midnightblue" d="M899.783,-416.467C912.203,-408.769 928.605,-396.179 936,-380 960.388,-326.643 973.88,-292.798 936,-248 909.566,-216.738 795.496,-207.185 725.283,-204.272"/>
<polygon fill="midnightblue" stroke="midnightblue" points="725.384,-200.773 715.258,-203.888 725.117,-207.768 725.384,-200.773"/>
</g>
<!-- Node38&#45;&gt;Node29 -->
<g id="edge57" class="edge"><title>Node38&#45;&gt;Node29</title>
<path fill="none" stroke="midnightblue" d="M816.407,-416.973C768.12,-410.099 702.051,-398.348 646,-380 604.8,-366.513 559.973,-343.263 533.465,-328.533"/>
<polygon fill="midnightblue" stroke="midnightblue" points="535,-325.38 524.568,-323.525 531.566,-331.48 535,-325.38"/>
</g>
<!-- Node40&#45;&gt;Node5 -->
<g id="edge62" class="edge"><title>Node40&#45;&gt;Node5</title>
<path fill="none" stroke="midnightblue" d="M272.376,-472.083C268.544,-464.691 262.976,-453.953 258.235,-444.811"/>
<polygon fill="midnightblue" stroke="midnightblue" points="261.248,-443.018 253.538,-435.751 255.034,-446.24 261.248,-443.018"/>
</g>
</g>
</svg>
