<?xml version="1.0" encoding="UTF-8" standalone="no"?>
<!DOCTYPE svg PUBLIC "-//W3C//DTD SVG 1.1//EN"
 "http://www.w3.org/Graphics/SVG/1.1/DTD/svg11.dtd">
<!-- Generated by graphviz version 2.36.0 (20140111.2315)
 -->
<!-- Title: /home/travis/build/AliceO2Group/AliceO2/Utilities/O2MessageMonitor/src/O2MessageMonitor.cxx Pages: 1 -->
<svg width="738pt" height="298pt"
 viewBox="0.00 0.00 738.00 298.00" xmlns="http://www.w3.org/2000/svg" xmlns:xlink="http://www.w3.org/1999/xlink">
<g id="graph0" class="graph" transform="scale(1 1) rotate(0) translate(4 294)">
<title>/home/travis/build/AliceO2Group/AliceO2/Utilities/O2MessageMonitor/src/O2MessageMonitor.cxx</title>
<!-- Node1 -->
<g id="node1" class="node"><title>Node1</title>
<polygon fill="#bfbfbf" stroke="black" points="242,-237 242,-289 382,-289 382,-237 242,-237"/>
<text text-anchor="start" x="250" y="-277" font-family="Helvetica,sans-Serif" font-size="10.00">/home/travis/build</text>
<text text-anchor="start" x="250" y="-266" font-family="Helvetica,sans-Serif" font-size="10.00">/AliceO2Group/AliceO2</text>
<text text-anchor="start" x="250" y="-255" font-family="Helvetica,sans-Serif" font-size="10.00">/Utilities/O2MessageMonitor</text>
<text text-anchor="middle" x="312" y="-244" font-family="Helvetica,sans-Serif" font-size="10.00">/src/O2MessageMonitor.cxx</text>
</g>
<!-- Node2 -->
<g id="node2" class="node"><title>Node2</title>
<polygon fill="none" stroke="#bfbfbf" points="0,-174.5 0,-193.5 44,-193.5 44,-174.5 0,-174.5"/>
<text text-anchor="middle" x="22" y="-181.5" font-family="Helvetica,sans-Serif" font-size="10.00">thread</text>
</g>
<!-- Node1&#45;&gt;Node2 -->
<g id="edge1" class="edge"><title>Node1&#45;&gt;Node2</title>
<path fill="none" stroke="midnightblue" d="M241.834,-249.47C189.045,-239.024 115.379,-222.263 53,-200 51.1418,-199.337 49.2475,-198.595 47.3573,-197.807"/>
<polygon fill="midnightblue" stroke="midnightblue" points="48.6794,-194.563 38.1269,-193.616 45.7856,-200.937 48.6794,-194.563"/>
</g>
<!-- Node3 -->
<g id="node3" class="node"><title>Node3</title>
<polygon fill="none" stroke="#bfbfbf" points="62,-174.5 62,-193.5 108,-193.5 108,-174.5 62,-174.5"/>
<text text-anchor="middle" x="85" y="-181.5" font-family="Helvetica,sans-Serif" font-size="10.00">chrono</text>
</g>
<!-- Node1&#45;&gt;Node3 -->
<g id="edge2" class="edge"><title>Node1&#45;&gt;Node3</title>
<path fill="none" stroke="midnightblue" d="M241.737,-242.081C204.294,-230.861 157.689,-215.926 117,-200 115.157,-199.279 113.271,-198.501 111.382,-197.693"/>
<polygon fill="midnightblue" stroke="midnightblue" points="112.648,-194.425 102.092,-193.515 109.776,-200.809 112.648,-194.425"/>
</g>
<!-- Node4 -->
<g id="node4" class="node"><title>Node4</title>
<g id="a_node4"><a xlink:href="../../de/d29/O2MessageMonitor_8h.html" target="_top" xlink:title="O2MessageMonitor/O2Message\lMonitor.h">
<polygon fill="none" stroke="black" points="126.5,-169 126.5,-199 283.5,-199 283.5,-169 126.5,-169"/>
<text text-anchor="start" x="134.5" y="-187" font-family="Helvetica,sans-Serif" font-size="10.00">O2MessageMonitor/O2Message</text>
<text text-anchor="middle" x="205" y="-176" font-family="Helvetica,sans-Serif" font-size="10.00">Monitor.h</text>
</a>
</g>
</g>
<!-- Node1&#45;&gt;Node4 -->
<g id="edge3" class="edge"><title>Node1&#45;&gt;Node4</title>
<path fill="none" stroke="midnightblue" d="M276.964,-236.787C262.665,-226.497 246.36,-214.764 232.89,-205.07"/>
<polygon fill="midnightblue" stroke="midnightblue" points="234.658,-202.031 224.497,-199.031 230.57,-207.713 234.658,-202.031"/>
</g>
<!-- Node7 -->
<g id="node7" class="node"><title>Node7</title>
<g id="a_node7"><a xlink:href="../../dc/dcd/DataHeader_8h.html" target="_top" xlink:title="Headers/DataHeader.h">
<polygon fill="none" stroke="black" points="249.5,-56.5 249.5,-75.5 366.5,-75.5 366.5,-56.5 249.5,-56.5"/>
<text text-anchor="middle" x="308" y="-63.5" font-family="Helvetica,sans-Serif" font-size="10.00">Headers/DataHeader.h</text>
</a>
</g>
</g>
<!-- Node1&#45;&gt;Node7 -->
<g id="edge16" class="edge"><title>Node1&#45;&gt;Node7</title>
<path fill="none" stroke="midnightblue" d="M311.485,-236.906C310.674,-197.352 309.115,-121.374 308.39,-85.9948"/>
<polygon fill="midnightblue" stroke="midnightblue" points="311.882,-85.5903 308.178,-75.6642 304.884,-85.7339 311.882,-85.5903"/>
</g>
<!-- Node14 -->
<g id="node14" class="node"><title>Node14</title>
<polygon fill="none" stroke="#bfbfbf" points="340,-174.5 340,-193.5 486,-193.5 486,-174.5 340,-174.5"/>
<text text-anchor="middle" x="413" y="-181.5" font-family="Helvetica,sans-Serif" font-size="10.00">options/FairMQProgOptions.h</text>
</g>
<!-- Node1&#45;&gt;Node14 -->
<g id="edge14" class="edge"><title>Node1&#45;&gt;Node14</title>
<path fill="none" stroke="midnightblue" d="M345.071,-236.787C361.117,-224.554 379.838,-210.282 393.559,-199.821"/>
<polygon fill="midnightblue" stroke="midnightblue" points="395.944,-202.404 401.775,-193.558 391.7,-196.837 395.944,-202.404"/>
</g>
<!-- Node15 -->
<g id="node15" class="node"><title>Node15</title>
<polygon fill="none" stroke="#bfbfbf" points="504,-174.5 504,-193.5 590,-193.5 590,-174.5 504,-174.5"/>
<text text-anchor="middle" x="547" y="-181.5" font-family="Helvetica,sans-Serif" font-size="10.00">FairMQLogger.h</text>
</g>
<!-- Node1&#45;&gt;Node15 -->
<g id="edge15" class="edge"><title>Node1&#45;&gt;Node15</title>
<path fill="none" stroke="midnightblue" d="M382.189,-239.002C424.781,-225.046 477.328,-207.829 511.472,-196.641"/>
<polygon fill="midnightblue" stroke="midnightblue" points="512.604,-199.953 521.017,-193.513 510.425,-193.301 512.604,-199.953"/>
</g>
<!-- Node16 -->
<g id="node16" class="node"><title>Node16</title>
<g id="a_node16"><a xlink:href="../../d6/d2e/NameHeader_8h.html" target="_top" xlink:title="Headers/NameHeader.h">
<polygon fill="none" stroke="black" points="608,-174.5 608,-193.5 730,-193.5 730,-174.5 608,-174.5"/>
<text text-anchor="middle" x="669" y="-181.5" font-family="Helvetica,sans-Serif" font-size="10.00">Headers/NameHeader.h</text>
</a>
</g>
</g>
<!-- Node1&#45;&gt;Node16 -->
<g id="edge17" class="edge"><title>Node1&#45;&gt;Node16</title>
<path fill="none" stroke="midnightblue" d="M382.106,-246.879C452.123,-231.777 557.949,-208.952 619.599,-195.655"/>
<polygon fill="midnightblue" stroke="midnightblue" points="620.434,-199.056 629.471,-193.526 618.958,-192.213 620.434,-199.056"/>
</g>
<!-- Node5 -->
<g id="node5" class="node"><title>Node5</title>
<g id="a_node5"><a xlink:href="../../d2/dee/O2Device_8h.html" target="_top" xlink:title="O2Device/O2Device.h">
<polygon fill="none" stroke="black" points="130.5,-112.5 130.5,-131.5 245.5,-131.5 245.5,-112.5 130.5,-112.5"/>
<text text-anchor="middle" x="188" y="-119.5" font-family="Helvetica,sans-Serif" font-size="10.00">O2Device/O2Device.h</text>
</a>
</g>
</g>
<!-- Node4&#45;&gt;Node5 -->
<g id="edge4" class="edge"><title>Node4&#45;&gt;Node5</title>
<path fill="none" stroke="midnightblue" d="M200.971,-168.781C198.654,-160.601 195.716,-150.234 193.223,-141.434"/>
<polygon fill="midnightblue" stroke="midnightblue" points="196.567,-140.398 190.474,-131.731 189.832,-142.306 196.567,-140.398"/>
</g>
<!-- Node4&#45;&gt;Node7 -->
<g id="edge13" class="edge"><title>Node4&#45;&gt;Node7</title>
<path fill="none" stroke="midnightblue" d="M219.009,-168.971C228.965,-158.869 242.545,-144.817 254,-132 268.435,-115.848 284.183,-96.7041 294.927,-83.3933"/>
<polygon fill="midnightblue" stroke="midnightblue" points="297.67,-85.5677 301.201,-75.5786 292.211,-81.1855 297.67,-85.5677"/>
</g>
<!-- Node6 -->
<g id="node6" class="node"><title>Node6</title>
<polygon fill="none" stroke="#bfbfbf" points="57,-56.5 57,-75.5 145,-75.5 145,-56.5 57,-56.5"/>
<text text-anchor="middle" x="101" y="-63.5" font-family="Helvetica,sans-Serif" font-size="10.00">FairMQDevice.h</text>
</g>
<!-- Node5&#45;&gt;Node6 -->
<g id="edge5" class="edge"><title>Node5&#45;&gt;Node6</title>
<path fill="none" stroke="midnightblue" d="M174.022,-112.324C160.45,-103.9 139.62,-90.9709 123.675,-81.0741"/>
<polygon fill="midnightblue" stroke="midnightblue" points="125.286,-77.9544 114.943,-75.6545 121.594,-83.9019 125.286,-77.9544"/>
</g>
<!-- Node5&#45;&gt;Node7 -->
<g id="edge6" class="edge"><title>Node5&#45;&gt;Node7</title>
<path fill="none" stroke="midnightblue" d="M207.014,-112.444C226.588,-103.636 257.308,-89.8116 279.729,-79.722"/>
<polygon fill="midnightblue" stroke="midnightblue" points="281.392,-82.8119 289.075,-75.5164 278.519,-76.4284 281.392,-82.8119"/>
</g>
<!-- Node13 -->
<g id="node13" class="node"><title>Node13</title>
<polygon fill="none" stroke="#bfbfbf" points="163.5,-56.5 163.5,-75.5 222.5,-75.5 222.5,-56.5 163.5,-56.5"/>
<text text-anchor="middle" x="193" y="-63.5" font-family="Helvetica,sans-Serif" font-size="10.00">stdexcept</text>
</g>
<!-- Node5&#45;&gt;Node13 -->
<g id="edge12" class="edge"><title>Node5&#45;&gt;Node13</title>
<path fill="none" stroke="midnightblue" d="M188.826,-112.083C189.481,-105.006 190.42,-94.8611 191.242,-85.9865"/>
<polygon fill="midnightblue" stroke="midnightblue" points="194.753,-86.0312 192.19,-75.7511 187.783,-85.3858 194.753,-86.0312"/>
</g>
<!-- Node8 -->
<g id="node8" class="node"><title>Node8</title>
<polygon fill="none" stroke="#bfbfbf" points="149,-0.5 149,-19.5 195,-19.5 195,-0.5 149,-0.5"/>
<text text-anchor="middle" x="172" y="-7.5" font-family="Helvetica,sans-Serif" font-size="10.00">cstdint</text>
</g>
<!-- Node7&#45;&gt;Node8 -->
<g id="edge7" class="edge"><title>Node7&#45;&gt;Node8</title>
<path fill="none" stroke="midnightblue" d="M286.45,-56.4435C263.969,-47.5171 228.512,-33.4387 203.02,-23.3168"/>
<polygon fill="midnightblue" stroke="midnightblue" points="204.035,-19.9539 193.449,-19.5164 201.451,-26.4598 204.035,-19.9539"/>
</g>
<!-- Node9 -->
<g id="node9" class="node"><title>Node9</title>
<polygon fill="none" stroke="#bfbfbf" points="213,-0.5 213,-19.5 265,-19.5 265,-0.5 213,-0.5"/>
<text text-anchor="middle" x="239" y="-7.5" font-family="Helvetica,sans-Serif" font-size="10.00">memory</text>
</g>
<!-- Node7&#45;&gt;Node9 -->
<g id="edge8" class="edge"><title>Node7&#45;&gt;Node9</title>
<path fill="none" stroke="midnightblue" d="M296.914,-56.324C286.514,-48.1849 270.739,-35.8395 258.278,-26.0874"/>
<polygon fill="midnightblue" stroke="midnightblue" points="260.32,-23.2407 250.288,-19.8339 256.006,-28.7533 260.32,-23.2407"/>
</g>
<!-- Node10 -->
<g id="node10" class="node"><title>Node10</title>
<polygon fill="none" stroke="#bfbfbf" points="283.5,-0.5 283.5,-19.5 332.5,-19.5 332.5,-0.5 283.5,-0.5"/>
<text text-anchor="middle" x="308" y="-7.5" font-family="Helvetica,sans-Serif" font-size="10.00">cassert</text>
</g>
<!-- Node7&#45;&gt;Node10 -->
<g id="edge9" class="edge"><title>Node7&#45;&gt;Node10</title>
<path fill="none" stroke="midnightblue" d="M308,-56.083C308,-49.0059 308,-38.8611 308,-29.9865"/>
<polygon fill="midnightblue" stroke="midnightblue" points="311.5,-29.751 308,-19.7511 304.5,-29.7511 311.5,-29.751"/>
</g>
<!-- Node11 -->
<g id="node11" class="node"><title>Node11</title>
<polygon fill="none" stroke="#bfbfbf" points="351,-0.5 351,-19.5 397,-19.5 397,-0.5 351,-0.5"/>
<text text-anchor="middle" x="374" y="-7.5" font-family="Helvetica,sans-Serif" font-size="10.00">cstring</text>
</g>
<!-- Node7&#45;&gt;Node11 -->
<g id="edge10" class="edge"><title>Node7&#45;&gt;Node11</title>
<path fill="none" stroke="midnightblue" d="M318.604,-56.324C328.456,-48.2631 343.351,-36.0765 355.215,-26.3695"/>
<polygon fill="midnightblue" stroke="midnightblue" points="357.68,-28.8752 363.203,-19.8339 353.247,-23.4575 357.68,-28.8752"/>
</g>
<!-- Node12 -->
<g id="node12" class="node"><title>Node12</title>
<polygon fill="none" stroke="#bfbfbf" points="415,-0.5 415,-19.5 471,-19.5 471,-0.5 415,-0.5"/>
<text text-anchor="middle" x="443" y="-7.5" font-family="Helvetica,sans-Serif" font-size="10.00">algorithm</text>
</g>
<!-- Node7&#45;&gt;Node12 -->
<g id="edge11" class="edge"><title>Node7&#45;&gt;Node12</title>
<path fill="none" stroke="midnightblue" d="M329.391,-56.4435C351.707,-47.5171 386.903,-33.4387 412.208,-23.3168"/>
<polygon fill="midnightblue" stroke="midnightblue" points="413.724,-26.4801 421.709,-19.5164 411.124,-19.9807 413.724,-26.4801"/>
</g>
<!-- Node16&#45;&gt;Node7 -->
<g id="edge19" class="edge"><title>Node16&#45;&gt;Node7</title>
<path fill="none" stroke="midnightblue" d="M642.455,-174.47C578.694,-153.982 416.829,-101.97 344.218,-78.6379"/>
<polygon fill="midnightblue" stroke="midnightblue" points="345.175,-75.2694 334.584,-75.5423 343.034,-81.9338 345.175,-75.2694"/>
</g>
<!-- Node17 -->
<g id="node17" class="node"><title>Node17</title>
<polygon fill="none" stroke="#bfbfbf" points="648.5,-112.5 648.5,-131.5 689.5,-131.5 689.5,-112.5 648.5,-112.5"/>
<text text-anchor="middle" x="669" y="-119.5" font-family="Helvetica,sans-Serif" font-size="10.00">string</text>
</g>
<!-- Node16&#45;&gt;Node17 -->
<g id="edge18" class="edge"><title>Node16&#45;&gt;Node17</title>
<path fill="none" stroke="midnightblue" d="M669,-174.403C669,-165.938 669,-152.728 669,-141.82"/>
<polygon fill="midnightblue" stroke="midnightblue" points="672.5,-141.581 669,-131.581 665.5,-141.581 672.5,-141.581"/>
</g>
</g>
</svg>
