<?xml version="1.0" encoding="UTF-8" standalone="no"?>
<!DOCTYPE svg PUBLIC "-//W3C//DTD SVG 1.1//EN"
 "http://www.w3.org/Graphics/SVG/1.1/DTD/svg11.dtd">
<!-- Generated by graphviz version 2.36.0 (20140111.2315)
 -->
<!-- Title: /home/travis/build/AliceO2Group/AliceO2/Detectors/ITSMFT/common/base/src/Digit.cxx Pages: 1 -->
<svg width="383pt" height="242pt"
 viewBox="0.00 0.00 383.00 242.00" xmlns="http://www.w3.org/2000/svg" xmlns:xlink="http://www.w3.org/1999/xlink">
<g id="graph0" class="graph" transform="scale(1 1) rotate(0) translate(4 238)">
<title>/home/travis/build/AliceO2Group/AliceO2/Detectors/ITSMFT/common/base/src/Digit.cxx</title>
<!-- Node1 -->
<g id="node1" class="node"><title>Node1</title>
<polygon fill="#bfbfbf" stroke="black" points="141,-181 141,-233 283,-233 283,-181 141,-181"/>
<text text-anchor="start" x="149" y="-221" font-family="Helvetica,sans-Serif" font-size="10.00">/home/travis/build</text>
<text text-anchor="start" x="149" y="-210" font-family="Helvetica,sans-Serif" font-size="10.00">/AliceO2Group/AliceO2</text>
<text text-anchor="start" x="149" y="-199" font-family="Helvetica,sans-Serif" font-size="10.00">/Detectors/ITSMFT/common</text>
<text text-anchor="middle" x="212" y="-188" font-family="Helvetica,sans-Serif" font-size="10.00">/base/src/Digit.cxx</text>
</g>
<!-- Node2 -->
<g id="node2" class="node"><title>Node2</title>
<g id="a_node2"><a xlink:href="../../d0/d06/ITSMFT_2common_2base_2include_2ITSMFTBase_2Digit_8h.html" target="_top" xlink:title="ITSMFTBase/Digit.h">
<polygon fill="none" stroke="black" points="158.5,-124.5 158.5,-143.5 265.5,-143.5 265.5,-124.5 158.5,-124.5"/>
<text text-anchor="middle" x="212" y="-131.5" font-family="Helvetica,sans-Serif" font-size="10.00">ITSMFTBase/Digit.h</text>
</a>
</g>
</g>
<!-- Node1&#45;&gt;Node2 -->
<g id="edge1" class="edge"><title>Node1&#45;&gt;Node2</title>
<path fill="none" stroke="midnightblue" d="M212,-180.768C212,-171.89 212,-162.074 212,-153.816"/>
<polygon fill="midnightblue" stroke="midnightblue" points="215.5,-153.757 212,-143.757 208.5,-153.757 215.5,-153.757"/>
</g>
<!-- Node3 -->
<g id="node3" class="node"><title>Node3</title>
<polygon fill="none" stroke="#bfbfbf" points="-0.5,-57 -0.5,-87 94.5,-87 94.5,-57 -0.5,-57"/>
<text text-anchor="start" x="7.5" y="-75" font-family="Helvetica,sans-Serif" font-size="10.00">boost/serialization</text>
<text text-anchor="middle" x="47" y="-64" font-family="Helvetica,sans-Serif" font-size="10.00">/base_object.hpp</text>
</g>
<!-- Node2&#45;&gt;Node3 -->
<g id="edge2" class="edge"><title>Node2&#45;&gt;Node3</title>
<path fill="none" stroke="midnightblue" d="M188.36,-124.403C164.157,-115.603 125.853,-101.674 95.2186,-90.534"/>
<polygon fill="midnightblue" stroke="midnightblue" points="96.1637,-87.1535 85.5696,-87.0253 93.7714,-93.7321 96.1637,-87.1535"/>
</g>
<!-- Node4 -->
<g id="node4" class="node"><title>Node4</title>
<g id="a_node4"><a xlink:href="../../d7/dcd/MCCompLabel_8h.html" target="_top" xlink:title="SimulationDataFormat\l/MCCompLabel.h">
<polygon fill="none" stroke="black" points="113,-57 113,-87 227,-87 227,-57 113,-57"/>
<text text-anchor="start" x="121" y="-75" font-family="Helvetica,sans-Serif" font-size="10.00">SimulationDataFormat</text>
<text text-anchor="middle" x="170" y="-64" font-family="Helvetica,sans-Serif" font-size="10.00">/MCCompLabel.h</text>
</a>
</g>
</g>
<!-- Node2&#45;&gt;Node4 -->
<g id="edge3" class="edge"><title>Node2&#45;&gt;Node4</title>
<path fill="none" stroke="midnightblue" d="M205.982,-124.403C200.719,-116.885 192.837,-105.624 185.79,-95.5565"/>
<polygon fill="midnightblue" stroke="midnightblue" points="188.501,-93.326 179.899,-87.1408 182.766,-97.3403 188.501,-93.326"/>
</g>
<!-- Node5 -->
<g id="node5" class="node"><title>Node5</title>
<polygon fill="none" stroke="#bfbfbf" points="184,-0.5 184,-19.5 240,-19.5 240,-0.5 184,-0.5"/>
<text text-anchor="middle" x="212" y="-7.5" font-family="Helvetica,sans-Serif" font-size="10.00">Rtypes.h</text>
</g>
<!-- Node2&#45;&gt;Node5 -->
<g id="edge6" class="edge"><title>Node2&#45;&gt;Node5</title>
<path fill="none" stroke="midnightblue" d="M218.367,-124.232C224.26,-115.532 232.607,-101.572 236,-88 239.449,-74.2024 239.449,-69.7976 236,-56 233.561,-46.2452 228.563,-36.2896 223.757,-28.231"/>
<polygon fill="midnightblue" stroke="midnightblue" points="226.691,-26.3225 218.367,-19.768 220.787,-30.0828 226.691,-26.3225"/>
</g>
<!-- Node6 -->
<g id="node6" class="node"><title>Node6</title>
<polygon fill="none" stroke="#bfbfbf" points="283,-62.5 283,-81.5 375,-81.5 375,-62.5 283,-62.5"/>
<text text-anchor="middle" x="329" y="-69.5" font-family="Helvetica,sans-Serif" font-size="10.00">FairTimeStamp.h</text>
</g>
<!-- Node2&#45;&gt;Node6 -->
<g id="edge5" class="edge"><title>Node2&#45;&gt;Node6</title>
<path fill="none" stroke="midnightblue" d="M228.763,-124.403C248.225,-114.423 280.545,-97.8487 303.211,-86.2253"/>
<polygon fill="midnightblue" stroke="midnightblue" points="304.967,-89.2582 312.268,-81.5806 301.773,-83.0294 304.967,-89.2582"/>
</g>
<!-- Node4&#45;&gt;Node5 -->
<g id="edge4" class="edge"><title>Node4&#45;&gt;Node5</title>
<path fill="none" stroke="midnightblue" d="M179.953,-56.7808C185.994,-48.152 193.738,-37.0882 200.101,-27.9987"/>
<polygon fill="midnightblue" stroke="midnightblue" points="203.021,-29.93 205.889,-19.7305 197.287,-25.9157 203.021,-29.93"/>
</g>
</g>
</svg>
