<?xml version="1.0" encoding="UTF-8" standalone="no"?>
<!DOCTYPE svg PUBLIC "-//W3C//DTD SVG 1.1//EN"
 "http://www.w3.org/Graphics/SVG/1.1/DTD/svg11.dtd">
<!-- Generated by graphviz version 2.36.0 (20140111.2315)
 -->
<!-- Title: /home/travis/build/AliceO2Group/AliceO2/DataFormats/simulation/test/testMCCompLabel.cxx Pages: 1 -->
<svg width="447pt" height="186pt"
 viewBox="0.00 0.00 447.00 186.00" xmlns="http://www.w3.org/2000/svg" xmlns:xlink="http://www.w3.org/1999/xlink">
<g id="graph0" class="graph" transform="scale(1 1) rotate(0) translate(4 182)">
<title>/home/travis/build/AliceO2Group/AliceO2/DataFormats/simulation/test/testMCCompLabel.cxx</title>
<!-- Node1 -->
<g id="node1" class="node"><title>Node1</title>
<polygon fill="#bfbfbf" stroke="black" points="150,-125 150,-177 290,-177 290,-125 150,-125"/>
<text text-anchor="start" x="158" y="-165" font-family="Helvetica,sans-Serif" font-size="10.00">/home/travis/build</text>
<text text-anchor="start" x="158" y="-154" font-family="Helvetica,sans-Serif" font-size="10.00">/AliceO2Group/AliceO2</text>
<text text-anchor="start" x="158" y="-143" font-family="Helvetica,sans-Serif" font-size="10.00">/DataFormats/simulation</text>
<text text-anchor="middle" x="220" y="-132" font-family="Helvetica,sans-Serif" font-size="10.00">/test/testMCCompLabel.cxx</text>
</g>
<!-- Node2 -->
<g id="node2" class="node"><title>Node2</title>
<polygon fill="none" stroke="#bfbfbf" points="-0.5,-62.5 -0.5,-81.5 118.5,-81.5 118.5,-62.5 -0.5,-62.5"/>
<text text-anchor="middle" x="59" y="-69.5" font-family="Helvetica,sans-Serif" font-size="10.00">boost/test/unit_test.hpp</text>
</g>
<!-- Node1&#45;&gt;Node2 -->
<g id="edge1" class="edge"><title>Node1&#45;&gt;Node2</title>
<path fill="none" stroke="midnightblue" d="M167.283,-124.787C140.121,-111.797 108.15,-96.5067 86.0227,-85.9239"/>
<polygon fill="midnightblue" stroke="midnightblue" points="87.4249,-82.7148 76.8934,-81.5577 84.4046,-89.0298 87.4249,-82.7148"/>
</g>
<!-- Node3 -->
<g id="node3" class="node"><title>Node3</title>
<polygon fill="none" stroke="#bfbfbf" points="137,-62.5 137,-81.5 187,-81.5 187,-62.5 137,-62.5"/>
<text text-anchor="middle" x="162" y="-69.5" font-family="Helvetica,sans-Serif" font-size="10.00">iomanip</text>
</g>
<!-- Node1&#45;&gt;Node3 -->
<g id="edge2" class="edge"><title>Node1&#45;&gt;Node3</title>
<path fill="none" stroke="midnightblue" d="M201.009,-124.787C192.321,-113.253 182.267,-99.9061 174.542,-89.6508"/>
<polygon fill="midnightblue" stroke="midnightblue" points="177.258,-87.4394 168.446,-81.5577 171.667,-91.6511 177.258,-87.4394"/>
</g>
<!-- Node4 -->
<g id="node4" class="node"><title>Node4</title>
<polygon fill="none" stroke="#bfbfbf" points="205.5,-62.5 205.5,-81.5 234.5,-81.5 234.5,-62.5 205.5,-62.5"/>
<text text-anchor="middle" x="220" y="-69.5" font-family="Helvetica,sans-Serif" font-size="10.00">ios</text>
</g>
<!-- Node1&#45;&gt;Node4 -->
<g id="edge3" class="edge"><title>Node1&#45;&gt;Node4</title>
<path fill="none" stroke="midnightblue" d="M220,-124.787C220,-114.069 220,-101.785 220,-91.8708"/>
<polygon fill="midnightblue" stroke="midnightblue" points="223.5,-91.5577 220,-81.5577 216.5,-91.5577 223.5,-91.5577"/>
</g>
<!-- Node5 -->
<g id="node5" class="node"><title>Node5</title>
<polygon fill="none" stroke="#bfbfbf" points="253,-62.5 253,-81.5 307,-81.5 307,-62.5 253,-62.5"/>
<text text-anchor="middle" x="280" y="-69.5" font-family="Helvetica,sans-Serif" font-size="10.00">iostream</text>
</g>
<!-- Node1&#45;&gt;Node5 -->
<g id="edge4" class="edge"><title>Node1&#45;&gt;Node5</title>
<path fill="none" stroke="midnightblue" d="M239.646,-124.787C248.634,-113.253 259.034,-99.9061 267.025,-89.6508"/>
<polygon fill="midnightblue" stroke="midnightblue" points="269.946,-91.597 273.332,-81.5577 264.424,-87.2944 269.946,-91.597"/>
</g>
<!-- Node6 -->
<g id="node6" class="node"><title>Node6</title>
<g id="a_node6"><a xlink:href="../../d7/dcd/MCCompLabel_8h.html" target="_top" xlink:title="SimulationDataFormat\l/MCCompLabel.h">
<polygon fill="none" stroke="black" points="325,-57 325,-87 439,-87 439,-57 325,-57"/>
<text text-anchor="start" x="333" y="-75" font-family="Helvetica,sans-Serif" font-size="10.00">SimulationDataFormat</text>
<text text-anchor="middle" x="382" y="-64" font-family="Helvetica,sans-Serif" font-size="10.00">/MCCompLabel.h</text>
</a>
</g>
</g>
<!-- Node1&#45;&gt;Node6 -->
<g id="edge5" class="edge"><title>Node1&#45;&gt;Node6</title>
<path fill="none" stroke="midnightblue" d="M273.045,-124.787C295.931,-113.909 322.211,-101.418 343.227,-91.4293"/>
<polygon fill="midnightblue" stroke="midnightblue" points="344.952,-94.4847 352.481,-87.0307 341.947,-88.1625 344.952,-94.4847"/>
</g>
<!-- Node7 -->
<g id="node7" class="node"><title>Node7</title>
<polygon fill="none" stroke="#bfbfbf" points="354,-0.5 354,-19.5 410,-19.5 410,-0.5 354,-0.5"/>
<text text-anchor="middle" x="382" y="-7.5" font-family="Helvetica,sans-Serif" font-size="10.00">Rtypes.h</text>
</g>
<!-- Node6&#45;&gt;Node7 -->
<g id="edge6" class="edge"><title>Node6&#45;&gt;Node7</title>
<path fill="none" stroke="midnightblue" d="M382,-56.7808C382,-48.7812 382,-38.6887 382,-30.0168"/>
<polygon fill="midnightblue" stroke="midnightblue" points="385.5,-29.7305 382,-19.7305 378.5,-29.7306 385.5,-29.7305"/>
</g>
</g>
</svg>
