<?xml version="1.0" encoding="UTF-8" standalone="no"?>
<!DOCTYPE svg PUBLIC "-//W3C//DTD SVG 1.1//EN"
 "http://www.w3.org/Graphics/SVG/1.1/DTD/svg11.dtd">
<!-- Generated by graphviz version 2.36.0 (20140111.2315)
 -->
<!-- Title: /home/travis/build/AliceO2Group/AliceO2/Detectors/ITSMFT/ITS/simulation/include/ITSSimulation/Detector.h Pages: 1 -->
<!--zoomable 400 -->
<svg id="main" version="1.1" xmlns="http://www.w3.org/2000/svg" xmlns:xlink="http://www.w3.org/1999/xlink" xml:space="preserve" onload="init(evt)">
<style type="text/css"><![CDATA[
.edge:hover path { stroke: red; }
.edge:hover polygon { stroke: red; fill: red; }
]]></style>
<script type="text/javascript"><![CDATA[
var edges = document.getElementsByTagName('g');
if (edges && edges.length) {
  for (var i=0;i<edges.length;i++) {
    if (edges[i].id.substr(0,4)=='edge') {
      edges[i].setAttribute('class','edge');
    }
  }
}
]]></script>
        <defs>
                <circle id="rim" cx="0" cy="0" r="7"/>
                <circle id="rim2" cx="0" cy="0" r="3.5"/>
                <g id="zoomPlus">
                        <use xlink:href="#rim" fill="#404040">
                                <set attributeName="fill" to="#808080" begin="zoomplus.mouseover" end="zoomplus.mouseout"/>
                        </use>
                        <path d="M-4,0h8M0,-4v8" fill="none" stroke="white" stroke-width="1.5" pointer-events="none"/>
                </g>
                <g id="zoomMin">
                        <use xlink:href="#rim" fill="#404040">
                                <set attributeName="fill" to="#808080" begin="zoomminus.mouseover" end="zoomminus.mouseout"/>
                        </use>
                        <path d="M-4,0h8" fill="none" stroke="white" stroke-width="1.5" pointer-events="none"/>
                </g>
                <g id="dirArrow">
                        <path fill="none" stroke="white" stroke-width="1.5" d="M0,-3.0v7 M-2.5,-0.5L0,-3.0L2.5,-0.5"/>
                </g>
               <g id="resetDef">
                       <use xlink:href="#rim2" fill="#404040">
                               <set attributeName="fill" to="#808080" begin="reset.mouseover" end="reset.mouseout"/>
                       </use>
               </g>
        </defs>

<script type="text/javascript">
var viewWidth = 2092;
var viewHeight = 400;
var sectionId = 'dynsection-0';
</script>
<script xlink:href="../../svgpan.js"/>
<svg id="graph" class="graph">
<g id="viewport">
<title>/home/travis/build/AliceO2Group/AliceO2/Detectors/ITSMFT/ITS/simulation/include/ITSSimulation/Detector.h</title>
<!-- Node1 -->
<g id="node1" class="node"><title>Node1</title>
<polygon fill="#bfbfbf" stroke="black" points="1104,-328.5 1104,-391.5 1266,-391.5 1266,-328.5 1104,-328.5"/>
<text text-anchor="start" x="1112" y="-379.5" font-family="Helvetica,sans-Serif" font-size="10.00">/home/travis/build</text>
<text text-anchor="start" x="1112" y="-368.5" font-family="Helvetica,sans-Serif" font-size="10.00">/AliceO2Group/AliceO2</text>
<text text-anchor="start" x="1112" y="-357.5" font-family="Helvetica,sans-Serif" font-size="10.00">/Detectors/ITSMFT/ITS</text>
<text text-anchor="start" x="1112" y="-346.5" font-family="Helvetica,sans-Serif" font-size="10.00">/simulation/include/ITSSimulation</text>
<text text-anchor="middle" x="1185" y="-335.5" font-family="Helvetica,sans-Serif" font-size="10.00">/Detector.h</text>
</g>
<!-- Node2 -->
<g id="node2" class="node"><title>Node2</title>
<g id="a_node2"><a xlink:href="../../d1/d3a/Base_2include_2DetectorsBase_2Detector_8h.html" target="_top" xlink:title="DetectorsBase/Detector.h">
<polygon fill="none" stroke="black" points="331.5,-272.5 331.5,-291.5 462.5,-291.5 462.5,-272.5 331.5,-272.5"/>
<text text-anchor="middle" x="397" y="-279.5" font-family="Helvetica,sans-Serif" font-size="10.00">DetectorsBase/Detector.h</text>
</a>
</g>
</g>
<!-- Node1&#45;&gt;Node2 -->
<g id="edge1" class="edge"><title>Node1&#45;&gt;Node2</title>
<path fill="none" stroke="midnightblue" d="M1103.64,-351.153C950.456,-336.379 621.313,-304.634 472.637,-290.295"/>
<polygon fill="midnightblue" stroke="midnightblue" points="472.969,-286.811 462.679,-289.335 472.297,-293.778 472.969,-286.811"/>
</g>
<!-- Node4 -->
<g id="node4" class="node"><title>Node4</title>
<polygon fill="none" stroke="#bfbfbf" points="0,-210.5 0,-229.5 44,-229.5 44,-210.5 0,-210.5"/>
<text text-anchor="middle" x="22" y="-217.5" font-family="Helvetica,sans-Serif" font-size="10.00">vector</text>
</g>
<!-- Node1&#45;&gt;Node4 -->
<g id="edge47" class="edge"><title>Node1&#45;&gt;Node4</title>
<path fill="none" stroke="midnightblue" d="M1103.72,-356.154C950.265,-350.014 607.654,-332.652 322,-292 201.099,-274.794 168.61,-275.335 53,-236 51.0897,-235.35 49.1442,-234.611 47.2062,-233.817"/>
<polygon fill="midnightblue" stroke="midnightblue" points="48.3278,-230.483 37.7737,-229.555 45.4457,-236.862 48.3278,-230.483"/>
</g>
<!-- Node8 -->
<g id="node8" class="node"><title>Node8</title>
<polygon fill="none" stroke="#bfbfbf" points="787,-74.5 787,-93.5 843,-93.5 843,-74.5 787,-74.5"/>
<text text-anchor="middle" x="815" y="-81.5" font-family="Helvetica,sans-Serif" font-size="10.00">Rtypes.h</text>
</g>
<!-- Node1&#45;&gt;Node8 -->
<g id="edge42" class="edge"><title>Node1&#45;&gt;Node8</title>
<path fill="none" stroke="midnightblue" d="M1103.62,-353.82C1008.48,-346.153 858.683,-328.555 817,-292 764.356,-245.833 781.992,-204.8 795,-136 797.154,-124.608 801.792,-112.5 806.059,-102.943"/>
<polygon fill="midnightblue" stroke="midnightblue" points="809.306,-104.263 810.41,-93.7261 802.976,-101.275 809.306,-104.263"/>
</g>
<!-- Node13 -->
<g id="node13" class="node"><title>Node13</title>
<g id="a_node13"><a xlink:href="../../d6/d31/DetID_8h.html" target="_top" xlink:title="DetectorsBase/DetID.h">
<polygon fill="none" stroke="black" points="826.5,-272.5 826.5,-291.5 945.5,-291.5 945.5,-272.5 826.5,-272.5"/>
<text text-anchor="middle" x="886" y="-279.5" font-family="Helvetica,sans-Serif" font-size="10.00">DetectorsBase/DetID.h</text>
</a>
</g>
</g>
<!-- Node1&#45;&gt;Node13 -->
<g id="edge12" class="edge"><title>Node1&#45;&gt;Node13</title>
<path fill="none" stroke="midnightblue" d="M1103.69,-338.333C1047.58,-324.071 975.165,-305.664 929.641,-294.093"/>
<polygon fill="midnightblue" stroke="midnightblue" points="930.346,-290.661 919.792,-291.589 928.622,-297.445 930.346,-290.661"/>
</g>
<!-- Node21 -->
<g id="node21" class="node"><title>Node21</title>
<g id="a_node21"><a xlink:href="../../d0/dae/ITSMFT_2common_2simulation_2include_2ITSMFTSimulation_2Hit_8h.html" target="_top" xlink:title="ITSMFTSimulation/Hit.h">
<polygon fill="none" stroke="black" points="1124,-272.5 1124,-291.5 1246,-291.5 1246,-272.5 1124,-272.5"/>
<text text-anchor="middle" x="1185" y="-279.5" font-family="Helvetica,sans-Serif" font-size="10.00">ITSMFTSimulation/Hit.h</text>
</a>
</g>
</g>
<!-- Node1&#45;&gt;Node21 -->
<g id="edge23" class="edge"><title>Node1&#45;&gt;Node21</title>
<path fill="none" stroke="midnightblue" d="M1185,-328.088C1185,-319.15 1185,-309.669 1185,-301.719"/>
<polygon fill="midnightblue" stroke="midnightblue" points="1188.5,-301.718 1185,-291.718 1181.5,-301.718 1188.5,-301.718"/>
</g>
<!-- Node35 -->
<g id="node35" class="node"><title>Node35</title>
<polygon fill="none" stroke="#bfbfbf" points="1439.5,-210.5 1439.5,-229.5 1504.5,-229.5 1504.5,-210.5 1439.5,-210.5"/>
<text text-anchor="middle" x="1472" y="-217.5" font-family="Helvetica,sans-Serif" font-size="10.00">TVector3.h</text>
</g>
<!-- Node1&#45;&gt;Node35 -->
<g id="edge46" class="edge"><title>Node1&#45;&gt;Node35</title>
<path fill="none" stroke="midnightblue" d="M1215.58,-328.463C1235.96,-309.696 1264.2,-286.541 1293,-272 1349.2,-243.626 1369.86,-254.604 1430,-236 1433.11,-235.039 1436.32,-233.99 1439.53,-232.907"/>
<polygon fill="midnightblue" stroke="midnightblue" points="1440.72,-236.201 1449.01,-229.612 1438.42,-229.589 1440.72,-236.201"/>
</g>
<!-- Node36 -->
<g id="node36" class="node"><title>Node36</title>
<polygon fill="none" stroke="#bfbfbf" points="1302,-272.5 1302,-291.5 1364,-291.5 1364,-272.5 1302,-272.5"/>
<text text-anchor="middle" x="1333" y="-279.5" font-family="Helvetica,sans-Serif" font-size="10.00">TArrayD.h</text>
</g>
<!-- Node1&#45;&gt;Node36 -->
<g id="edge43" class="edge"><title>Node1&#45;&gt;Node36</title>
<path fill="none" stroke="midnightblue" d="M1244.77,-328.307C1266.57,-317.114 1290.07,-305.043 1307.34,-296.177"/>
<polygon fill="midnightblue" stroke="midnightblue" points="1308.94,-299.288 1316.24,-291.607 1305.75,-293.061 1308.94,-299.288"/>
</g>
<!-- Node37 -->
<g id="node37" class="node"><title>Node37</title>
<polygon fill="none" stroke="#bfbfbf" points="1382,-272.5 1382,-291.5 1468,-291.5 1468,-272.5 1382,-272.5"/>
<text text-anchor="middle" x="1425" y="-279.5" font-family="Helvetica,sans-Serif" font-size="10.00">TGeoManager.h</text>
</g>
<!-- Node1&#45;&gt;Node37 -->
<g id="edge44" class="edge"><title>Node1&#45;&gt;Node37</title>
<path fill="none" stroke="midnightblue" d="M1266.25,-333.27C1307.61,-320.175 1355.84,-304.902 1388.19,-294.658"/>
<polygon fill="midnightblue" stroke="midnightblue" points="1389.63,-297.873 1398.1,-291.518 1387.51,-291.2 1389.63,-297.873"/>
</g>
<!-- Node38 -->
<g id="node38" class="node"><title>Node38</title>
<polygon fill="none" stroke="#bfbfbf" points="1486,-272.5 1486,-291.5 1578,-291.5 1578,-272.5 1486,-272.5"/>
<text text-anchor="middle" x="1532" y="-279.5" font-family="Helvetica,sans-Serif" font-size="10.00">TLorentzVector.h</text>
</g>
<!-- Node1&#45;&gt;Node38 -->
<g id="edge45" class="edge"><title>Node1&#45;&gt;Node38</title>
<path fill="none" stroke="midnightblue" d="M1266.36,-341.181C1333.49,-326.478 1426.56,-306.095 1482.84,-293.767"/>
<polygon fill="midnightblue" stroke="midnightblue" points="1483.89,-297.121 1492.91,-291.562 1482.39,-290.283 1483.89,-297.121"/>
</g>
<!-- Node3 -->
<g id="node3" class="node"><title>Node3</title>
<polygon fill="none" stroke="#bfbfbf" points="379.5,-210.5 379.5,-229.5 414.5,-229.5 414.5,-210.5 379.5,-210.5"/>
<text text-anchor="middle" x="397" y="-217.5" font-family="Helvetica,sans-Serif" font-size="10.00">map</text>
</g>
<!-- Node2&#45;&gt;Node3 -->
<g id="edge2" class="edge"><title>Node2&#45;&gt;Node3</title>
<path fill="none" stroke="midnightblue" d="M397,-272.403C397,-263.938 397,-250.728 397,-239.82"/>
<polygon fill="midnightblue" stroke="midnightblue" points="400.5,-239.581 397,-229.581 393.5,-239.581 400.5,-239.581"/>
</g>
<!-- Node2&#45;&gt;Node4 -->
<g id="edge3" class="edge"><title>Node2&#45;&gt;Node4</title>
<path fill="none" stroke="midnightblue" d="M331.354,-278.645C261.156,-274.698 147.211,-264.152 53,-236 50.8589,-235.36 48.6823,-234.588 46.5261,-233.734"/>
<polygon fill="midnightblue" stroke="midnightblue" points="47.9353,-230.531 37.3778,-229.642 45.0767,-236.92 47.9353,-230.531"/>
</g>
<!-- Node5 -->
<g id="node5" class="node"><title>Node5</title>
<polygon fill="none" stroke="#bfbfbf" points="433,-210.5 433,-229.5 485,-229.5 485,-210.5 433,-210.5"/>
<text text-anchor="middle" x="459" y="-217.5" font-family="Helvetica,sans-Serif" font-size="10.00">memory</text>
</g>
<!-- Node2&#45;&gt;Node5 -->
<g id="edge4" class="edge"><title>Node2&#45;&gt;Node5</title>
<path fill="none" stroke="midnightblue" d="M405.883,-272.403C415.459,-263.136 430.911,-248.183 442.686,-236.788"/>
<polygon fill="midnightblue" stroke="midnightblue" points="445.381,-239.05 450.133,-229.581 440.513,-234.02 445.381,-239.05"/>
</g>
<!-- Node6 -->
<g id="node6" class="node"><title>Node6</title>
<polygon fill="none" stroke="#bfbfbf" points="503.5,-210.5 503.5,-229.5 582.5,-229.5 582.5,-210.5 503.5,-210.5"/>
<text text-anchor="middle" x="543" y="-217.5" font-family="Helvetica,sans-Serif" font-size="10.00">FairDetector.h</text>
</g>
<!-- Node2&#45;&gt;Node6 -->
<g id="edge5" class="edge"><title>Node2&#45;&gt;Node6</title>
<path fill="none" stroke="midnightblue" d="M417.918,-272.403C442.746,-262.2 484.343,-245.105 512.694,-233.454"/>
<polygon fill="midnightblue" stroke="midnightblue" points="514.202,-236.619 522.121,-229.581 511.541,-230.144 514.202,-236.619"/>
</g>
<!-- Node7 -->
<g id="node7" class="node"><title>Node7</title>
<polygon fill="none" stroke="#bfbfbf" points="62,-210.5 62,-229.5 162,-229.5 162,-210.5 62,-210.5"/>
<text text-anchor="middle" x="112" y="-217.5" font-family="Helvetica,sans-Serif" font-size="10.00">FairRootManager.h</text>
</g>
<!-- Node2&#45;&gt;Node7 -->
<g id="edge6" class="edge"><title>Node2&#45;&gt;Node7</title>
<path fill="none" stroke="midnightblue" d="M350.536,-272.486C304.741,-263.92 232.843,-250.008 171,-236 165.588,-234.774 159.915,-233.42 154.315,-232.042"/>
<polygon fill="midnightblue" stroke="midnightblue" points="154.936,-228.59 144.386,-229.559 153.238,-235.381 154.936,-228.59"/>
</g>
<!-- Node2&#45;&gt;Node8 -->
<g id="edge7" class="edge"><title>Node2&#45;&gt;Node8</title>
<path fill="none" stroke="midnightblue" d="M462.87,-273.383C501.658,-267.062 550.831,-255.778 591,-236 611.115,-226.096 612.579,-218.115 630,-204 667.59,-173.544 674.353,-162.236 715,-136 737.899,-121.219 765.623,-107.368 786.066,-97.8409"/>
<polygon fill="midnightblue" stroke="midnightblue" points="787.556,-101.008 795.182,-93.6535 784.634,-94.6469 787.556,-101.008"/>
</g>
<!-- Node9 -->
<g id="node9" class="node"><title>Node9</title>
<polygon fill="none" stroke="#bfbfbf" points="180.5,-210.5 180.5,-229.5 233.5,-229.5 233.5,-210.5 180.5,-210.5"/>
<text text-anchor="middle" x="207" y="-217.5" font-family="Helvetica,sans-Serif" font-size="10.00">cxxabi.h</text>
</g>
<!-- Node2&#45;&gt;Node9 -->
<g id="edge8" class="edge"><title>Node2&#45;&gt;Node9</title>
<path fill="none" stroke="midnightblue" d="M363.059,-272.428C331.399,-264.132 283.024,-250.684 242,-236 239.742,-235.192 237.421,-234.311 235.1,-233.395"/>
<polygon fill="midnightblue" stroke="midnightblue" points="236.302,-230.105 225.723,-229.524 233.63,-236.575 236.302,-230.105"/>
</g>
<!-- Node10 -->
<g id="node10" class="node"><title>Node10</title>
<polygon fill="none" stroke="#bfbfbf" points="251.5,-210.5 251.5,-229.5 302.5,-229.5 302.5,-210.5 251.5,-210.5"/>
<text text-anchor="middle" x="277" y="-217.5" font-family="Helvetica,sans-Serif" font-size="10.00">typeinfo</text>
</g>
<!-- Node2&#45;&gt;Node10 -->
<g id="edge9" class="edge"><title>Node2&#45;&gt;Node10</title>
<path fill="none" stroke="midnightblue" d="M379.807,-272.403C359.757,-262.379 326.401,-245.701 303.14,-234.07"/>
<polygon fill="midnightblue" stroke="midnightblue" points="304.671,-230.922 294.161,-229.581 301.54,-237.183 304.671,-230.922"/>
</g>
<!-- Node11 -->
<g id="node11" class="node"><title>Node11</title>
<polygon fill="none" stroke="#bfbfbf" points="639,-210.5 639,-229.5 701,-229.5 701,-210.5 639,-210.5"/>
<text text-anchor="middle" x="670" y="-217.5" font-family="Helvetica,sans-Serif" font-size="10.00">type_traits</text>
</g>
<!-- Node2&#45;&gt;Node11 -->
<g id="edge10" class="edge"><title>Node2&#45;&gt;Node11</title>
<path fill="none" stroke="midnightblue" d="M450.416,-272.432C496.901,-264.508 565.902,-251.614 625,-236 628.832,-234.988 632.813,-233.826 636.752,-232.606"/>
<polygon fill="midnightblue" stroke="midnightblue" points="637.907,-235.912 646.349,-229.509 635.757,-229.25 637.907,-235.912"/>
</g>
<!-- Node12 -->
<g id="node12" class="node"><title>Node12</title>
<polygon fill="none" stroke="#bfbfbf" points="320.5,-210.5 320.5,-229.5 361.5,-229.5 361.5,-210.5 320.5,-210.5"/>
<text text-anchor="middle" x="341" y="-217.5" font-family="Helvetica,sans-Serif" font-size="10.00">string</text>
</g>
<!-- Node2&#45;&gt;Node12 -->
<g id="edge11" class="edge"><title>Node2&#45;&gt;Node12</title>
<path fill="none" stroke="midnightblue" d="M388.977,-272.403C380.41,-263.225 366.639,-248.47 356.043,-237.117"/>
<polygon fill="midnightblue" stroke="midnightblue" points="358.39,-234.503 349.009,-229.581 353.273,-239.279 358.39,-234.503"/>
</g>
<!-- Node13&#45;&gt;Node8 -->
<g id="edge13" class="edge"><title>Node13&#45;&gt;Node8</title>
<path fill="none" stroke="midnightblue" d="M862.599,-272.412C846.495,-265.228 826.082,-253.338 815,-236 788.719,-194.884 800.657,-133.728 809.129,-103.412"/>
<polygon fill="midnightblue" stroke="midnightblue" points="812.512,-104.315 812.016,-93.732 805.804,-102.314 812.512,-104.315"/>
</g>
<!-- Node13&#45;&gt;Node11 -->
<g id="edge18" class="edge"><title>Node13&#45;&gt;Node11</title>
<path fill="none" stroke="midnightblue" d="M855.052,-272.403C817.119,-261.866 752.722,-243.978 710.78,-232.328"/>
<polygon fill="midnightblue" stroke="midnightblue" points="711.462,-228.885 700.89,-229.581 709.589,-235.629 711.462,-228.885"/>
</g>
<!-- Node14 -->
<g id="node14" class="node"><title>Node14</title>
<polygon fill="none" stroke="#bfbfbf" points="815,-142.5 815,-161.5 853,-161.5 853,-142.5 815,-142.5"/>
<text text-anchor="middle" x="834" y="-149.5" font-family="Helvetica,sans-Serif" font-size="10.00">array</text>
</g>
<!-- Node13&#45;&gt;Node14 -->
<g id="edge14" class="edge"><title>Node13&#45;&gt;Node14</title>
<path fill="none" stroke="midnightblue" d="M865.777,-272.495C851.229,-265.168 832.699,-253.063 824,-236 813.573,-215.548 819.848,-188.683 826.167,-171.138"/>
<polygon fill="midnightblue" stroke="midnightblue" points="829.533,-172.145 829.958,-161.559 823.024,-169.569 829.533,-172.145"/>
</g>
<!-- Node15 -->
<g id="node15" class="node"><title>Node15</title>
<polygon fill="none" stroke="#bfbfbf" points="833.5,-210.5 833.5,-229.5 874.5,-229.5 874.5,-210.5 833.5,-210.5"/>
<text text-anchor="middle" x="854" y="-217.5" font-family="Helvetica,sans-Serif" font-size="10.00">bitset</text>
</g>
<!-- Node13&#45;&gt;Node15 -->
<g id="edge15" class="edge"><title>Node13&#45;&gt;Node15</title>
<path fill="none" stroke="midnightblue" d="M881.415,-272.403C876.71,-263.582 869.257,-249.608 863.309,-238.455"/>
<polygon fill="midnightblue" stroke="midnightblue" points="866.37,-236.757 858.576,-229.581 860.194,-240.051 866.37,-236.757"/>
</g>
<!-- Node16 -->
<g id="node16" class="node"><title>Node16</title>
<polygon fill="none" stroke="#bfbfbf" points="892.5,-210.5 892.5,-229.5 941.5,-229.5 941.5,-210.5 892.5,-210.5"/>
<text text-anchor="middle" x="917" y="-217.5" font-family="Helvetica,sans-Serif" font-size="10.00">cassert</text>
</g>
<!-- Node13&#45;&gt;Node16 -->
<g id="edge16" class="edge"><title>Node13&#45;&gt;Node16</title>
<path fill="none" stroke="midnightblue" d="M890.442,-272.403C894.953,-263.671 902.074,-249.889 907.807,-238.794"/>
<polygon fill="midnightblue" stroke="midnightblue" points="911.086,-240.071 912.567,-229.581 904.867,-236.858 911.086,-240.071"/>
</g>
<!-- Node17 -->
<g id="node17" class="node"><title>Node17</title>
<polygon fill="none" stroke="#bfbfbf" points="960,-210.5 960,-229.5 1006,-229.5 1006,-210.5 960,-210.5"/>
<text text-anchor="middle" x="983" y="-217.5" font-family="Helvetica,sans-Serif" font-size="10.00">cstdint</text>
</g>
<!-- Node13&#45;&gt;Node17 -->
<g id="edge17" class="edge"><title>Node13&#45;&gt;Node17</title>
<path fill="none" stroke="midnightblue" d="M899.898,-272.403C915.744,-262.601 941.874,-246.439 960.605,-234.853"/>
<polygon fill="midnightblue" stroke="midnightblue" points="962.465,-237.818 969.128,-229.581 958.782,-231.865 962.465,-237.818"/>
</g>
<!-- Node18 -->
<g id="node18" class="node"><title>Node18</title>
<g id="a_node18"><a xlink:href="../../d9/ded/Utils_8h.html" target="_top" xlink:title="DetectorsBase/Utils.h">
<polygon fill="none" stroke="black" points="1024.5,-210.5 1024.5,-229.5 1137.5,-229.5 1137.5,-210.5 1024.5,-210.5"/>
<text text-anchor="middle" x="1081" y="-217.5" font-family="Helvetica,sans-Serif" font-size="10.00">DetectorsBase/Utils.h</text>
</a>
</g>
</g>
<!-- Node13&#45;&gt;Node18 -->
<g id="edge19" class="edge"><title>Node13&#45;&gt;Node18</title>
<path fill="none" stroke="midnightblue" d="M913.939,-272.403C947.967,-261.933 1005.58,-244.205 1043.46,-232.55"/>
<polygon fill="midnightblue" stroke="midnightblue" points="1044.58,-235.867 1053.11,-229.581 1042.53,-229.176 1044.58,-235.867"/>
</g>
<!-- Node18&#45;&gt;Node14 -->
<g id="edge22" class="edge"><title>Node18&#45;&gt;Node14</title>
<path fill="none" stroke="midnightblue" d="M1043.44,-210.485C992.348,-198.79 903.68,-178.066 872,-168 868.988,-167.043 865.873,-165.964 862.782,-164.836"/>
<polygon fill="midnightblue" stroke="midnightblue" points="863.738,-161.454 853.148,-161.148 861.235,-167.992 863.738,-161.454"/>
</g>
<!-- Node19 -->
<g id="node19" class="node"><title>Node19</title>
<g id="a_node19"><a xlink:href="../../d1/daa/Base_2include_2DetectorsBase_2Constants_8h.html" target="_top" xlink:title="DetectorsBase/Constants.h">
<polygon fill="none" stroke="black" points="881,-142.5 881,-161.5 1019,-161.5 1019,-142.5 881,-142.5"/>
<text text-anchor="middle" x="950" y="-149.5" font-family="Helvetica,sans-Serif" font-size="10.00">DetectorsBase/Constants.h</text>
</a>
</g>
</g>
<!-- Node18&#45;&gt;Node19 -->
<g id="edge20" class="edge"><title>Node18&#45;&gt;Node19</title>
<path fill="none" stroke="midnightblue" d="M1063.87,-210.372C1041.51,-199.106 1002.16,-179.279 976.082,-166.14"/>
<polygon fill="midnightblue" stroke="midnightblue" points="977.636,-163.004 967.13,-161.63 974.486,-169.256 977.636,-163.004"/>
</g>
<!-- Node20 -->
<g id="node20" class="node"><title>Node20</title>
<polygon fill="none" stroke="#bfbfbf" points="1037,-142.5 1037,-161.5 1081,-161.5 1081,-142.5 1037,-142.5"/>
<text text-anchor="middle" x="1059" y="-149.5" font-family="Helvetica,sans-Serif" font-size="10.00">cmath</text>
</g>
<!-- Node18&#45;&gt;Node20 -->
<g id="edge21" class="edge"><title>Node18&#45;&gt;Node20</title>
<path fill="none" stroke="midnightblue" d="M1078.12,-210.372C1074.85,-200.544 1069.4,-184.202 1065.16,-171.467"/>
<polygon fill="midnightblue" stroke="midnightblue" points="1068.43,-170.221 1061.95,-161.841 1061.79,-172.435 1068.43,-170.221"/>
</g>
<!-- Node21&#45;&gt;Node8 -->
<g id="edge39" class="edge"><title>Node21&#45;&gt;Node8</title>
<path fill="none" stroke="midnightblue" d="M1182.37,-272.483C1173.83,-246.536 1144.27,-168.279 1089,-136 1083.9,-133.021 927.091,-104.901 853.033,-91.737"/>
<polygon fill="midnightblue" stroke="midnightblue" points="853.615,-88.2856 843.157,-89.9828 852.39,-95.1777 853.615,-88.2856"/>
</g>
<!-- Node22 -->
<g id="node22" class="node"><title>Node22</title>
<g id="a_node22"><a xlink:href="../../d4/d25/BaseHits_8h.html" target="_top" xlink:title="SimulationDataFormat\l/BaseHits.h">
<polygon fill="none" stroke="black" points="1307,-205 1307,-235 1421,-235 1421,-205 1307,-205"/>
<text text-anchor="start" x="1315" y="-223" font-family="Helvetica,sans-Serif" font-size="10.00">SimulationDataFormat</text>
<text text-anchor="middle" x="1364" y="-212" font-family="Helvetica,sans-Serif" font-size="10.00">/BaseHits.h</text>
</a>
</g>
</g>
<!-- Node21&#45;&gt;Node22 -->
<g id="edge24" class="edge"><title>Node21&#45;&gt;Node22</title>
<path fill="none" stroke="midnightblue" d="M1210.65,-272.403C1237.13,-263.526 1279.18,-249.432 1312.55,-238.245"/>
<polygon fill="midnightblue" stroke="midnightblue" points="1313.79,-241.522 1322.16,-235.025 1311.56,-234.885 1313.79,-241.522"/>
</g>
<!-- Node33 -->
<g id="node33" class="node"><title>Node33</title>
<polygon fill="none" stroke="#bfbfbf" points="909,-74.5 909,-93.5 963,-93.5 963,-74.5 909,-74.5"/>
<text text-anchor="middle" x="936" y="-81.5" font-family="Helvetica,sans-Serif" font-size="10.00">iostream</text>
</g>
<!-- Node21&#45;&gt;Node33 -->
<g id="edge41" class="edge"><title>Node21&#45;&gt;Node33</title>
<path fill="none" stroke="midnightblue" d="M1196.04,-272.28C1225.12,-248.295 1299.01,-180.194 1260,-136 1217.32,-87.6472 1034.34,-116.555 972,-100 969.178,-99.2505 966.285,-98.3279 963.425,-97.3118"/>
<polygon fill="midnightblue" stroke="midnightblue" points="964.569,-94.0008 953.981,-93.6122 962.016,-100.519 964.569,-94.0008"/>
</g>
<!-- Node34 -->
<g id="node34" class="node"><title>Node34</title>
<g id="a_node34"><a xlink:href="../../d7/dcd/MCCompLabel_8h.html" target="_top" xlink:title="SimulationDataFormat\l/MCCompLabel.h">
<polygon fill="none" stroke="black" points="1137,-137 1137,-167 1251,-167 1251,-137 1137,-137"/>
<text text-anchor="start" x="1145" y="-155" font-family="Helvetica,sans-Serif" font-size="10.00">SimulationDataFormat</text>
<text text-anchor="middle" x="1194" y="-144" font-family="Helvetica,sans-Serif" font-size="10.00">/MCCompLabel.h</text>
</a>
</g>
</g>
<!-- Node21&#45;&gt;Node34 -->
<g id="edge37" class="edge"><title>Node21&#45;&gt;Node34</title>
<path fill="none" stroke="midnightblue" d="M1185.62,-272.202C1186.98,-252.87 1190.27,-206.114 1192.3,-177.239"/>
<polygon fill="midnightblue" stroke="midnightblue" points="1195.8,-177.364 1193.01,-167.143 1188.81,-176.873 1195.8,-177.364"/>
</g>
<!-- Node21&#45;&gt;Node35 -->
<g id="edge40" class="edge"><title>Node21&#45;&gt;Node35</title>
<path fill="none" stroke="midnightblue" d="M1246.02,-272.593C1295.96,-265.045 1368.19,-252.599 1430,-236 1433.39,-235.089 1436.9,-234.029 1440.38,-232.903"/>
<polygon fill="midnightblue" stroke="midnightblue" points="1441.65,-236.168 1449.98,-229.618 1439.38,-229.545 1441.65,-236.168"/>
</g>
<!-- Node23 -->
<g id="node23" class="node"><title>Node23</title>
<g id="a_node23"><a xlink:href="../../dd/d76/Cartesian3D_8h.html" target="_top" xlink:title="MathUtils/Cartesian3D.h">
<polygon fill="none" stroke="black" points="1307.5,-142.5 1307.5,-161.5 1432.5,-161.5 1432.5,-142.5 1307.5,-142.5"/>
<text text-anchor="middle" x="1370" y="-149.5" font-family="Helvetica,sans-Serif" font-size="10.00">MathUtils/Cartesian3D.h</text>
</a>
</g>
</g>
<!-- Node22&#45;&gt;Node23 -->
<g id="edge25" class="edge"><title>Node22&#45;&gt;Node23</title>
<path fill="none" stroke="midnightblue" d="M1365.3,-204.679C1366.17,-195.101 1367.33,-182.394 1368.27,-171.977"/>
<polygon fill="midnightblue" stroke="midnightblue" points="1371.78,-172.104 1369.2,-161.828 1364.81,-171.47 1371.78,-172.104"/>
</g>
<!-- Node23&#45;&gt;Node8 -->
<g id="edge29" class="edge"><title>Node23&#45;&gt;Node8</title>
<path fill="none" stroke="midnightblue" d="M1310.39,-142.475C1294.07,-140.249 1276.37,-137.933 1260,-136 1100.31,-117.134 1059.29,-121.988 900,-100 884.71,-97.8895 867.964,-95.0491 853.409,-92.4077"/>
<polygon fill="midnightblue" stroke="midnightblue" points="853.719,-88.9059 843.25,-90.5329 852.448,-95.7896 853.719,-88.9059"/>
</g>
<!-- Node24 -->
<g id="node24" class="node"><title>Node24</title>
<polygon fill="none" stroke="#bfbfbf" points="1124.5,-74.5 1124.5,-93.5 1273.5,-93.5 1273.5,-74.5 1124.5,-74.5"/>
<text text-anchor="middle" x="1199" y="-81.5" font-family="Helvetica,sans-Serif" font-size="10.00">Math/GenVector/Rotation3D.h</text>
</g>
<!-- Node23&#45;&gt;Node24 -->
<g id="edge26" class="edge"><title>Node23&#45;&gt;Node24</title>
<path fill="none" stroke="midnightblue" d="M1347.64,-142.372C1317.73,-130.827 1264.53,-110.293 1230.55,-97.1772"/>
<polygon fill="midnightblue" stroke="midnightblue" points="1231.68,-93.8615 1221.09,-93.5259 1229.16,-100.392 1231.68,-93.8615"/>
</g>
<!-- Node25 -->
<g id="node25" class="node"><title>Node25</title>
<polygon fill="none" stroke="#bfbfbf" points="1292,-74.5 1292,-93.5 1448,-93.5 1448,-74.5 1292,-74.5"/>
<text text-anchor="middle" x="1370" y="-81.5" font-family="Helvetica,sans-Serif" font-size="10.00">Math/GenVector/Transform3D.h</text>
</g>
<!-- Node23&#45;&gt;Node25 -->
<g id="edge27" class="edge"><title>Node23&#45;&gt;Node25</title>
<path fill="none" stroke="midnightblue" d="M1370,-142.372C1370,-132.643 1370,-116.528 1370,-103.85"/>
<polygon fill="midnightblue" stroke="midnightblue" points="1373.5,-103.841 1370,-93.8411 1366.5,-103.841 1373.5,-103.841"/>
</g>
<!-- Node26 -->
<g id="node26" class="node"><title>Node26</title>
<polygon fill="none" stroke="#bfbfbf" points="1466,-74.5 1466,-93.5 1626,-93.5 1626,-74.5 1466,-74.5"/>
<text text-anchor="middle" x="1546" y="-81.5" font-family="Helvetica,sans-Serif" font-size="10.00">Math/GenVector/Translation3D.h</text>
</g>
<!-- Node23&#45;&gt;Node26 -->
<g id="edge28" class="edge"><title>Node23&#45;&gt;Node26</title>
<path fill="none" stroke="midnightblue" d="M1393.01,-142.372C1423.79,-130.827 1478.55,-110.293 1513.53,-97.1772"/>
<polygon fill="midnightblue" stroke="midnightblue" points="1515.13,-100.314 1523.26,-93.5259 1512.67,-93.76 1515.13,-100.314"/>
</g>
<!-- Node27 -->
<g id="node27" class="node"><title>Node27</title>
<polygon fill="none" stroke="#bfbfbf" points="1644,-74.5 1644,-93.5 1720,-93.5 1720,-74.5 1644,-74.5"/>
<text text-anchor="middle" x="1682" y="-81.5" font-family="Helvetica,sans-Serif" font-size="10.00">TGeoMatrix.h</text>
</g>
<!-- Node23&#45;&gt;Node27 -->
<g id="edge30" class="edge"><title>Node23&#45;&gt;Node27</title>
<path fill="none" stroke="midnightblue" d="M1424.47,-142.464C1478.34,-133.566 1562.93,-118.367 1635,-100 1638.9,-99.0052 1642.96,-97.8697 1646.98,-96.6787"/>
<polygon fill="midnightblue" stroke="midnightblue" points="1648.27,-99.9441 1656.79,-93.6525 1646.2,-93.255 1648.27,-99.9441"/>
</g>
<!-- Node28 -->
<g id="node28" class="node"><title>Node28</title>
<polygon fill="none" stroke="#bfbfbf" points="1738.5,-69 1738.5,-99 1889.5,-99 1889.5,-69 1738.5,-69"/>
<text text-anchor="start" x="1746.5" y="-87" font-family="Helvetica,sans-Serif" font-size="10.00">Math/GenVector/Displacement</text>
<text text-anchor="middle" x="1814" y="-76" font-family="Helvetica,sans-Serif" font-size="10.00">Vector3D.h</text>
</g>
<!-- Node23&#45;&gt;Node28 -->
<g id="edge31" class="edge"><title>Node23&#45;&gt;Node28</title>
<path fill="none" stroke="midnightblue" d="M1432.68,-142.744C1502.3,-133.428 1618.29,-117.475 1728.52,-100.045"/>
<polygon fill="midnightblue" stroke="midnightblue" points="1729.15,-103.488 1738.48,-98.4629 1728.05,-96.5745 1729.15,-103.488"/>
</g>
<!-- Node29 -->
<g id="node29" class="node"><title>Node29</title>
<polygon fill="none" stroke="#bfbfbf" points="1908,-74.5 1908,-93.5 2084,-93.5 2084,-74.5 1908,-74.5"/>
<text text-anchor="middle" x="1996" y="-81.5" font-family="Helvetica,sans-Serif" font-size="10.00">Math/GenVector/PositionVector3D.h</text>
</g>
<!-- Node23&#45;&gt;Node29 -->
<g id="edge32" class="edge"><title>Node23&#45;&gt;Node29</title>
<path fill="none" stroke="midnightblue" d="M1432.71,-146.078C1531.73,-138.051 1730.31,-120.916 1898,-100 1909.68,-98.5437 1922.1,-96.7956 1934.05,-95.0154"/>
<polygon fill="midnightblue" stroke="midnightblue" points="1934.58,-98.475 1943.94,-93.5181 1933.53,-91.5538 1934.58,-98.475"/>
</g>
<!-- Node30 -->
<g id="node30" class="node"><title>Node30</title>
<g id="a_node30"><a xlink:href="../../d2/dd0/Cartesian2D_8h.html" target="_top" xlink:title="MathUtils/Cartesian2D.h">
<polygon fill="none" stroke="black" points="981.5,-74.5 981.5,-93.5 1106.5,-93.5 1106.5,-74.5 981.5,-74.5"/>
<text text-anchor="middle" x="1044" y="-81.5" font-family="Helvetica,sans-Serif" font-size="10.00">MathUtils/Cartesian2D.h</text>
</a>
</g>
</g>
<!-- Node23&#45;&gt;Node30 -->
<g id="edge33" class="edge"><title>Node23&#45;&gt;Node30</title>
<path fill="none" stroke="midnightblue" d="M1326.66,-142.48C1275.9,-132.467 1189.29,-115.277 1115,-100 1108.28,-98.619 1101.22,-97.1473 1094.25,-95.6859"/>
<polygon fill="midnightblue" stroke="midnightblue" points="1094.67,-92.1979 1084.16,-93.5638 1093.23,-99.0479 1094.67,-92.1979"/>
</g>
<!-- Node23&#45;&gt;Node33 -->
<g id="edge36" class="edge"><title>Node23&#45;&gt;Node33</title>
<path fill="none" stroke="midnightblue" d="M1329.35,-142.444C1317.65,-140.155 1304.85,-137.815 1293,-136 1151.1,-114.257 1110.98,-135.968 972,-100 969.015,-99.2276 965.954,-98.2555 962.937,-97.1791"/>
<polygon fill="midnightblue" stroke="midnightblue" points="964.188,-93.9102 953.601,-93.5023 961.623,-100.423 964.188,-93.9102"/>
</g>
<!-- Node31 -->
<g id="node31" class="node"><title>Node31</title>
<polygon fill="none" stroke="#bfbfbf" points="877.5,-1 877.5,-31 1028.5,-31 1028.5,-1 877.5,-1"/>
<text text-anchor="start" x="885.5" y="-19" font-family="Helvetica,sans-Serif" font-size="10.00">Math/GenVector/Displacement</text>
<text text-anchor="middle" x="953" y="-8" font-family="Helvetica,sans-Serif" font-size="10.00">Vector2D.h</text>
</g>
<!-- Node30&#45;&gt;Node31 -->
<g id="edge34" class="edge"><title>Node30&#45;&gt;Node31</title>
<path fill="none" stroke="midnightblue" d="M1032.1,-74.3717C1019.22,-65.0286 998.22,-49.7966 981.093,-37.375"/>
<polygon fill="midnightblue" stroke="midnightblue" points="982.703,-34.2194 972.553,-31.1815 978.593,-39.8859 982.703,-34.2194"/>
</g>
<!-- Node32 -->
<g id="node32" class="node"><title>Node32</title>
<polygon fill="none" stroke="#bfbfbf" points="1047,-6.5 1047,-25.5 1223,-25.5 1223,-6.5 1047,-6.5"/>
<text text-anchor="middle" x="1135" y="-13.5" font-family="Helvetica,sans-Serif" font-size="10.00">Math/GenVector/PositionVector2D.h</text>
</g>
<!-- Node30&#45;&gt;Node32 -->
<g id="edge35" class="edge"><title>Node30&#45;&gt;Node32</title>
<path fill="none" stroke="midnightblue" d="M1055.9,-74.3717C1070.88,-63.5015 1096.86,-44.6602 1114.94,-31.5474"/>
<polygon fill="midnightblue" stroke="midnightblue" points="1117.06,-34.3349 1123.1,-25.6305 1112.95,-28.6684 1117.06,-34.3349"/>
</g>
<!-- Node34&#45;&gt;Node8 -->
<g id="edge38" class="edge"><title>Node34&#45;&gt;Node8</title>
<path fill="none" stroke="midnightblue" d="M1136.7,-138.646C1132.07,-137.724 1127.46,-136.83 1123,-136 1024.3,-117.619 998.992,-116.724 900,-100 884.781,-97.4289 868.049,-94.4985 853.485,-91.9142"/>
<polygon fill="midnightblue" stroke="midnightblue" points="853.774,-88.4107 843.315,-90.1036 852.547,-95.3024 853.774,-88.4107"/>
</g>
</g>
</svg>
        <g id="navigator" transform="translate(0 0)" fill="#404254">
                <rect fill="#f2f5e9" fill-opacity="0.5" stroke="#606060" stroke-width=".5" x="0" y="0" width="60" height="60"/>
                <use id="zoomplus" xlink:href="#zoomPlus" x="17" y="9" onmousedown="handleZoom(evt,'in')"/>
                <use id="zoomminus" xlink:href="#zoomMin" x="42" y="9" onmousedown="handleZoom(evt,'out')"/>
                <use id="reset" xlink:href="#resetDef" x="30" y="36" onmousedown="handleReset()"/>
                <g id="arrowUp" xlink:href="#dirArrow" transform="translate(30 24)" onmousedown="handlePan(0,-1)">
                  <use xlink:href="#rim" fill="#404040">
                        <set attributeName="fill" to="#808080" begin="arrowUp.mouseover" end="arrowUp.mouseout"/>
                  </use>
                  <path fill="none" stroke="white" stroke-width="1.5" d="M0,-3.0v7 M-2.5,-0.5L0,-3.0L2.5,-0.5"/>
                </g>
                <g id="arrowRight" xlink:href="#dirArrow" transform="rotate(90) translate(36 -43)" onmousedown="handlePan(1,0)">
                  <use xlink:href="#rim" fill="#404040">
                        <set attributeName="fill" to="#808080" begin="arrowRight.mouseover" end="arrowRight.mouseout"/>
                  </use>
                  <path fill="none" stroke="white" stroke-width="1.5" d="M0,-3.0v7 M-2.5,-0.5L0,-3.0L2.5,-0.5"/>
                </g>
                <g id="arrowDown" xlink:href="#dirArrow" transform="rotate(180) translate(-30 -48)" onmousedown="handlePan(0,1)">
                  <use xlink:href="#rim" fill="#404040">
                        <set attributeName="fill" to="#808080" begin="arrowDown.mouseover" end="arrowDown.mouseout"/>
                  </use>
                  <path fill="none" stroke="white" stroke-width="1.5" d="M0,-3.0v7 M-2.5,-0.5L0,-3.0L2.5,-0.5"/>
                </g>
                <g id="arrowLeft" xlink:href="#dirArrow" transform="rotate(270) translate(-36 17)" onmousedown="handlePan(-1,0)">
                  <use xlink:href="#rim" fill="#404040">
                        <set attributeName="fill" to="#808080" begin="arrowLeft.mouseover" end="arrowLeft.mouseout"/>
                  </use>
                  <path fill="none" stroke="white" stroke-width="1.5" d="M0,-3.0v7 M-2.5,-0.5L0,-3.0L2.5,-0.5"/>
                </g>
        </g>
        <svg viewBox="0 0 15 15" width="100%" height="30px" preserveAspectRatio="xMaxYMin meet">
         <g id="arrow_out" transform="scale(0.3 0.3)">
          <a xlink:href="ITSMFT_2ITS_2simulation_2include_2ITSSimulation_2Detector_8h__incl_org.svg" target="_base">
           <rect id="button" ry="5" rx="5" y="6" x="6" height="38" width="38"
                fill="#f2f5e9" fill-opacity="0.5" stroke="#606060" stroke-width="1.0"/>
           <path id="arrow"
             d="M 11.500037,31.436501 C 11.940474,20.09759 22.043105,11.32322 32.158766,21.979434 L 37.068811,17.246167 C 37.068811,17.246167 37.088388,32 37.088388,32 L 22.160133,31.978069 C 22.160133,31.978069 26.997745,27.140456 26.997745,27.140456 C 18.528582,18.264221 13.291696,25.230495 11.500037,31.436501 z"
             style="fill:#404040;"/>
          </a>
         </g>
        </svg>
</svg>
