<?xml version="1.0" encoding="UTF-8" standalone="no"?>
<!DOCTYPE svg PUBLIC "-//W3C//DTD SVG 1.1//EN"
 "http://www.w3.org/Graphics/SVG/1.1/DTD/svg11.dtd">
<!-- Generated by graphviz version 2.36.0 (20140111.2315)
 -->
<!-- Title: /home/travis/build/AliceO2Group/AliceO2/Detectors/TRD/simulation/include/TRDSimulation/Detector.h Pages: 1 -->
<svg width="1626pt" height="322pt"
 viewBox="0.00 0.00 1626.00 322.00" xmlns="http://www.w3.org/2000/svg" xmlns:xlink="http://www.w3.org/1999/xlink">
<g id="graph0" class="graph" transform="scale(1 1) rotate(0) translate(4 318)">
<title>/home/travis/build/AliceO2Group/AliceO2/Detectors/TRD/simulation/include/TRDSimulation/Detector.h</title>
<!-- Node1 -->
<g id="node1" class="node"><title>Node1</title>
<polygon fill="#bfbfbf" stroke="black" points="288.5,-261 288.5,-313 457.5,-313 457.5,-261 288.5,-261"/>
<text text-anchor="start" x="296.5" y="-301" font-family="Helvetica,sans-Serif" font-size="10.00">/home/travis/build</text>
<text text-anchor="start" x="296.5" y="-290" font-family="Helvetica,sans-Serif" font-size="10.00">/AliceO2Group/AliceO2</text>
<text text-anchor="start" x="296.5" y="-279" font-family="Helvetica,sans-Serif" font-size="10.00">/Detectors/TRD/simulation</text>
<text text-anchor="middle" x="373" y="-268" font-family="Helvetica,sans-Serif" font-size="10.00">/include/TRDSimulation/Detector.h</text>
</g>
<!-- Node2 -->
<g id="node2" class="node"><title>Node2</title>
<polygon fill="none" stroke="#bfbfbf" points="0,-136.5 0,-155.5 44,-155.5 44,-136.5 0,-136.5"/>
<text text-anchor="middle" x="22" y="-143.5" font-family="Helvetica,sans-Serif" font-size="10.00">vector</text>
</g>
<!-- Node1&#45;&gt;Node2 -->
<g id="edge1" class="edge"><title>Node1&#45;&gt;Node2</title>
<path fill="none" stroke="midnightblue" d="M309.843,-260.989C234.248,-231.053 110.679,-182.118 53.2116,-159.36"/>
<polygon fill="midnightblue" stroke="midnightblue" points="54.1862,-155.982 43.6,-155.554 51.6088,-162.49 54.1862,-155.982"/>
</g>
<!-- Node3 -->
<g id="node3" class="node"><title>Node3</title>
<g id="a_node3"><a xlink:href="../../d1/d3a/Base_2include_2DetectorsBase_2Detector_8h.html" target="_top" xlink:title="DetectorsBase/Detector.h">
<polygon fill="none" stroke="black" points="307.5,-198.5 307.5,-217.5 438.5,-217.5 438.5,-198.5 307.5,-198.5"/>
<text text-anchor="middle" x="373" y="-205.5" font-family="Helvetica,sans-Serif" font-size="10.00">DetectorsBase/Detector.h</text>
</a>
</g>
</g>
<!-- Node1&#45;&gt;Node3 -->
<g id="edge2" class="edge"><title>Node1&#45;&gt;Node3</title>
<path fill="none" stroke="midnightblue" d="M373,-260.787C373,-250.069 373,-237.785 373,-227.871"/>
<polygon fill="midnightblue" stroke="midnightblue" points="376.5,-227.558 373,-217.558 369.5,-227.558 376.5,-227.558"/>
</g>
<!-- Node13 -->
<g id="node13" class="node"><title>Node13</title>
<g id="a_node13"><a xlink:href="../../d4/d25/BaseHits_8h.html" target="_top" xlink:title="SimulationDataFormat\l/BaseHits.h">
<polygon fill="none" stroke="black" points="611,-193 611,-223 725,-223 725,-193 611,-193"/>
<text text-anchor="start" x="619" y="-211" font-family="Helvetica,sans-Serif" font-size="10.00">SimulationDataFormat</text>
<text text-anchor="middle" x="668" y="-200" font-family="Helvetica,sans-Serif" font-size="10.00">/BaseHits.h</text>
</a>
</g>
</g>
<!-- Node1&#45;&gt;Node13 -->
<g id="edge13" class="edge"><title>Node1&#45;&gt;Node13</title>
<path fill="none" stroke="midnightblue" d="M457.535,-263.935C504.29,-251.731 561.435,-236.815 604.375,-225.607"/>
<polygon fill="midnightblue" stroke="midnightblue" points="605.347,-228.971 614.139,-223.059 603.579,-222.198 605.347,-228.971"/>
</g>
<!-- Node3&#45;&gt;Node2 -->
<g id="edge4" class="edge"><title>Node3&#45;&gt;Node2</title>
<path fill="none" stroke="midnightblue" d="M307.277,-198.961C244.489,-190.73 147.087,-176.528 54.117,-156.024"/>
<polygon fill="midnightblue" stroke="midnightblue" points="54.7876,-152.588 44.2651,-153.824 53.2616,-159.42 54.7876,-152.588"/>
</g>
<!-- Node4 -->
<g id="node4" class="node"><title>Node4</title>
<polygon fill="none" stroke="#bfbfbf" points="62.5,-136.5 62.5,-155.5 97.5,-155.5 97.5,-136.5 62.5,-136.5"/>
<text text-anchor="middle" x="80" y="-143.5" font-family="Helvetica,sans-Serif" font-size="10.00">map</text>
</g>
<!-- Node3&#45;&gt;Node4 -->
<g id="edge3" class="edge"><title>Node3&#45;&gt;Node4</title>
<path fill="none" stroke="midnightblue" d="M316.988,-198.475C265.046,-190.072 185.507,-175.942 107.603,-155.855"/>
<polygon fill="midnightblue" stroke="midnightblue" points="108.178,-152.388 97.6183,-153.245 106.408,-159.16 108.178,-152.388"/>
</g>
<!-- Node5 -->
<g id="node5" class="node"><title>Node5</title>
<polygon fill="none" stroke="#bfbfbf" points="116,-136.5 116,-155.5 168,-155.5 168,-136.5 116,-136.5"/>
<text text-anchor="middle" x="142" y="-143.5" font-family="Helvetica,sans-Serif" font-size="10.00">memory</text>
</g>
<!-- Node3&#45;&gt;Node5 -->
<g id="edge5" class="edge"><title>Node3&#45;&gt;Node5</title>
<path fill="none" stroke="midnightblue" d="M339.903,-198.403C296.965,-187.251 222.321,-167.863 178.005,-156.352"/>
<polygon fill="midnightblue" stroke="midnightblue" points="178.789,-152.939 168.23,-153.813 177.029,-159.715 178.789,-152.939"/>
</g>
<!-- Node6 -->
<g id="node6" class="node"><title>Node6</title>
<polygon fill="none" stroke="#bfbfbf" points="186.5,-136.5 186.5,-155.5 265.5,-155.5 265.5,-136.5 186.5,-136.5"/>
<text text-anchor="middle" x="226" y="-143.5" font-family="Helvetica,sans-Serif" font-size="10.00">FairDetector.h</text>
</g>
<!-- Node3&#45;&gt;Node6 -->
<g id="edge6" class="edge"><title>Node3&#45;&gt;Node6</title>
<path fill="none" stroke="midnightblue" d="M351.938,-198.403C326.941,-188.2 285.058,-171.105 256.513,-159.454"/>
<polygon fill="midnightblue" stroke="midnightblue" points="257.604,-156.119 247.022,-155.581 254.958,-162.6 257.604,-156.119"/>
</g>
<!-- Node7 -->
<g id="node7" class="node"><title>Node7</title>
<polygon fill="none" stroke="#bfbfbf" points="284,-136.5 284,-155.5 384,-155.5 384,-136.5 284,-136.5"/>
<text text-anchor="middle" x="334" y="-143.5" font-family="Helvetica,sans-Serif" font-size="10.00">FairRootManager.h</text>
</g>
<!-- Node3&#45;&gt;Node7 -->
<g id="edge7" class="edge"><title>Node3&#45;&gt;Node7</title>
<path fill="none" stroke="midnightblue" d="M367.412,-198.403C361.62,-189.493 352.411,-175.325 345.126,-164.118"/>
<polygon fill="midnightblue" stroke="midnightblue" points="347.962,-162.058 339.577,-155.581 342.093,-165.873 347.962,-162.058"/>
</g>
<!-- Node8 -->
<g id="node8" class="node"><title>Node8</title>
<polygon fill="none" stroke="#bfbfbf" points="326,-74.5 326,-93.5 382,-93.5 382,-74.5 326,-74.5"/>
<text text-anchor="middle" x="354" y="-81.5" font-family="Helvetica,sans-Serif" font-size="10.00">Rtypes.h</text>
</g>
<!-- Node3&#45;&gt;Node8 -->
<g id="edge8" class="edge"><title>Node3&#45;&gt;Node8</title>
<path fill="none" stroke="midnightblue" d="M378.921,-198.166C387.212,-184.649 400.474,-158.076 393,-136 388.522,-122.771 379.085,-110.275 370.616,-100.963"/>
<polygon fill="midnightblue" stroke="midnightblue" points="373.033,-98.4277 363.571,-93.6608 367.995,-103.288 373.033,-98.4277"/>
</g>
<!-- Node9 -->
<g id="node9" class="node"><title>Node9</title>
<polygon fill="none" stroke="#bfbfbf" points="440.5,-136.5 440.5,-155.5 493.5,-155.5 493.5,-136.5 440.5,-136.5"/>
<text text-anchor="middle" x="467" y="-143.5" font-family="Helvetica,sans-Serif" font-size="10.00">cxxabi.h</text>
</g>
<!-- Node3&#45;&gt;Node9 -->
<g id="edge9" class="edge"><title>Node3&#45;&gt;Node9</title>
<path fill="none" stroke="midnightblue" d="M386.468,-198.403C401.685,-188.691 426.687,-172.732 444.801,-161.17"/>
<polygon fill="midnightblue" stroke="midnightblue" points="447.011,-163.911 453.557,-155.581 443.245,-158.011 447.011,-163.911"/>
</g>
<!-- Node10 -->
<g id="node10" class="node"><title>Node10</title>
<polygon fill="none" stroke="#bfbfbf" points="511.5,-136.5 511.5,-155.5 562.5,-155.5 562.5,-136.5 511.5,-136.5"/>
<text text-anchor="middle" x="537" y="-143.5" font-family="Helvetica,sans-Serif" font-size="10.00">typeinfo</text>
</g>
<!-- Node3&#45;&gt;Node10 -->
<g id="edge10" class="edge"><title>Node3&#45;&gt;Node10</title>
<path fill="none" stroke="midnightblue" d="M396.497,-198.403C424.629,-188.111 471.929,-170.806 503.789,-159.15"/>
<polygon fill="midnightblue" stroke="midnightblue" points="505.358,-162.303 513.546,-155.581 502.953,-155.73 505.358,-162.303"/>
</g>
<!-- Node11 -->
<g id="node11" class="node"><title>Node11</title>
<polygon fill="none" stroke="#bfbfbf" points="581,-136.5 581,-155.5 643,-155.5 643,-136.5 581,-136.5"/>
<text text-anchor="middle" x="612" y="-143.5" font-family="Helvetica,sans-Serif" font-size="10.00">type_traits</text>
</g>
<!-- Node3&#45;&gt;Node11 -->
<g id="edge11" class="edge"><title>Node3&#45;&gt;Node11</title>
<path fill="none" stroke="midnightblue" d="M406.989,-198.467C450.212,-187.616 524.779,-168.897 571.078,-157.273"/>
<polygon fill="midnightblue" stroke="midnightblue" points="571.943,-160.665 580.789,-154.835 570.238,-153.876 571.943,-160.665"/>
</g>
<!-- Node12 -->
<g id="node12" class="node"><title>Node12</title>
<polygon fill="none" stroke="#bfbfbf" points="661.5,-136.5 661.5,-155.5 702.5,-155.5 702.5,-136.5 661.5,-136.5"/>
<text text-anchor="middle" x="682" y="-143.5" font-family="Helvetica,sans-Serif" font-size="10.00">string</text>
</g>
<!-- Node3&#45;&gt;Node12 -->
<g id="edge12" class="edge"><title>Node3&#45;&gt;Node12</title>
<path fill="none" stroke="midnightblue" d="M428.726,-198.479C485.101,-189.46 574.592,-174.051 651,-156 651.211,-155.95 651.423,-155.9 651.636,-155.849"/>
<polygon fill="midnightblue" stroke="midnightblue" points="652.611,-159.212 661.4,-153.296 650.84,-152.439 652.611,-159.212"/>
</g>
<!-- Node14 -->
<g id="node14" class="node"><title>Node14</title>
<g id="a_node14"><a xlink:href="../../dd/d76/Cartesian3D_8h.html" target="_top" xlink:title="MathUtils/Cartesian3D.h">
<polygon fill="none" stroke="black" points="836.5,-136.5 836.5,-155.5 961.5,-155.5 961.5,-136.5 836.5,-136.5"/>
<text text-anchor="middle" x="899" y="-143.5" font-family="Helvetica,sans-Serif" font-size="10.00">MathUtils/Cartesian3D.h</text>
</a>
</g>
</g>
<!-- Node13&#45;&gt;Node14 -->
<g id="edge14" class="edge"><title>Node13&#45;&gt;Node14</title>
<path fill="none" stroke="midnightblue" d="M722.159,-192.933C763.168,-182.281 818.71,-167.855 856.534,-158.03"/>
<polygon fill="midnightblue" stroke="midnightblue" points="857.427,-161.414 866.226,-155.513 855.667,-154.639 857.427,-161.414"/>
</g>
<!-- Node14&#45;&gt;Node8 -->
<g id="edge18" class="edge"><title>Node14&#45;&gt;Node8</title>
<path fill="none" stroke="midnightblue" d="M836.343,-141.861C719.575,-135.614 473.016,-120.446 390,-100 387.007,-99.2628 383.939,-98.3133 380.919,-97.2503"/>
<polygon fill="midnightblue" stroke="midnightblue" points="382.167,-93.9802 371.579,-93.5895 379.612,-100.497 382.167,-93.9802"/>
</g>
<!-- Node15 -->
<g id="node15" class="node"><title>Node15</title>
<polygon fill="none" stroke="#bfbfbf" points="399.5,-74.5 399.5,-93.5 548.5,-93.5 548.5,-74.5 399.5,-74.5"/>
<text text-anchor="middle" x="474" y="-81.5" font-family="Helvetica,sans-Serif" font-size="10.00">Math/GenVector/Rotation3D.h</text>
</g>
<!-- Node14&#45;&gt;Node15 -->
<g id="edge15" class="edge"><title>Node14&#45;&gt;Node15</title>
<path fill="none" stroke="midnightblue" d="M836.341,-137.599C767.846,-129.306 654.921,-115.041 558,-100 548.862,-98.5819 539.186,-96.9636 529.778,-95.3269"/>
<polygon fill="midnightblue" stroke="midnightblue" points="530.168,-91.8418 519.712,-93.5524 528.953,-98.7355 530.168,-91.8418"/>
</g>
<!-- Node16 -->
<g id="node16" class="node"><title>Node16</title>
<polygon fill="none" stroke="#bfbfbf" points="567,-74.5 567,-93.5 723,-93.5 723,-74.5 567,-74.5"/>
<text text-anchor="middle" x="645" y="-81.5" font-family="Helvetica,sans-Serif" font-size="10.00">Math/GenVector/Transform3D.h</text>
</g>
<!-- Node14&#45;&gt;Node16 -->
<g id="edge16" class="edge"><title>Node14&#45;&gt;Node16</title>
<path fill="none" stroke="midnightblue" d="M862.878,-136.467C817.646,-125.783 740.118,-107.469 690.775,-95.8129"/>
<polygon fill="midnightblue" stroke="midnightblue" points="691.534,-92.3961 680.998,-93.5034 689.925,-99.2087 691.534,-92.3961"/>
</g>
<!-- Node17 -->
<g id="node17" class="node"><title>Node17</title>
<polygon fill="none" stroke="#bfbfbf" points="741,-74.5 741,-93.5 901,-93.5 901,-74.5 741,-74.5"/>
<text text-anchor="middle" x="821" y="-81.5" font-family="Helvetica,sans-Serif" font-size="10.00">Math/GenVector/Translation3D.h</text>
</g>
<!-- Node14&#45;&gt;Node17 -->
<g id="edge17" class="edge"><title>Node14&#45;&gt;Node17</title>
<path fill="none" stroke="midnightblue" d="M887.825,-136.403C875.429,-126.869 855.21,-111.315 840.254,-99.8106"/>
<polygon fill="midnightblue" stroke="midnightblue" points="842.215,-96.9035 832.155,-93.5806 837.947,-102.452 842.215,-96.9035"/>
</g>
<!-- Node18 -->
<g id="node18" class="node"><title>Node18</title>
<polygon fill="none" stroke="#bfbfbf" points="919,-74.5 919,-93.5 995,-93.5 995,-74.5 919,-74.5"/>
<text text-anchor="middle" x="957" y="-81.5" font-family="Helvetica,sans-Serif" font-size="10.00">TGeoMatrix.h</text>
</g>
<!-- Node14&#45;&gt;Node18 -->
<g id="edge19" class="edge"><title>Node14&#45;&gt;Node18</title>
<path fill="none" stroke="midnightblue" d="M907.31,-136.403C916.268,-127.136 930.723,-112.183 941.739,-100.788"/>
<polygon fill="midnightblue" stroke="midnightblue" points="944.272,-103.203 948.705,-93.5806 939.239,-98.3379 944.272,-103.203"/>
</g>
<!-- Node19 -->
<g id="node19" class="node"><title>Node19</title>
<polygon fill="none" stroke="#bfbfbf" points="1013.5,-69 1013.5,-99 1164.5,-99 1164.5,-69 1013.5,-69"/>
<text text-anchor="start" x="1021.5" y="-87" font-family="Helvetica,sans-Serif" font-size="10.00">Math/GenVector/Displacement</text>
<text text-anchor="middle" x="1089" y="-76" font-family="Helvetica,sans-Serif" font-size="10.00">Vector3D.h</text>
</g>
<!-- Node14&#45;&gt;Node19 -->
<g id="edge20" class="edge"><title>Node14&#45;&gt;Node19</title>
<path fill="none" stroke="midnightblue" d="M926.222,-136.403C954.454,-127.488 999.349,-113.311 1034.85,-102.101"/>
<polygon fill="midnightblue" stroke="midnightblue" points="1036.1,-105.374 1044.59,-99.0253 1034,-98.6992 1036.1,-105.374"/>
</g>
<!-- Node20 -->
<g id="node20" class="node"><title>Node20</title>
<polygon fill="none" stroke="#bfbfbf" points="1183,-74.5 1183,-93.5 1359,-93.5 1359,-74.5 1183,-74.5"/>
<text text-anchor="middle" x="1271" y="-81.5" font-family="Helvetica,sans-Serif" font-size="10.00">Math/GenVector/PositionVector3D.h</text>
</g>
<!-- Node14&#45;&gt;Node20 -->
<g id="edge21" class="edge"><title>Node14&#45;&gt;Node20</title>
<path fill="none" stroke="midnightblue" d="M951.903,-136.467C1019.39,-125.582 1135.98,-106.778 1207.99,-95.1631"/>
<polygon fill="midnightblue" stroke="midnightblue" points="1208.96,-98.5511 1218.28,-93.5034 1207.85,-91.6404 1208.96,-98.5511"/>
</g>
<!-- Node21 -->
<g id="node21" class="node"><title>Node21</title>
<g id="a_node21"><a xlink:href="../../d2/dd0/Cartesian2D_8h.html" target="_top" xlink:title="MathUtils/Cartesian2D.h">
<polygon fill="none" stroke="black" points="1376.5,-74.5 1376.5,-93.5 1501.5,-93.5 1501.5,-74.5 1376.5,-74.5"/>
<text text-anchor="middle" x="1439" y="-81.5" font-family="Helvetica,sans-Serif" font-size="10.00">MathUtils/Cartesian2D.h</text>
</a>
</g>
</g>
<!-- Node14&#45;&gt;Node21 -->
<g id="edge22" class="edge"><title>Node14&#45;&gt;Node21</title>
<path fill="none" stroke="midnightblue" d="M961.72,-141.161C1051.77,-135.153 1222.75,-121.894 1367,-100 1375.08,-98.7741 1383.61,-97.2239 1391.88,-95.5882"/>
<polygon fill="midnightblue" stroke="midnightblue" points="1392.67,-98.9978 1401.77,-93.5665 1391.27,-92.1395 1392.67,-98.9978"/>
</g>
<!-- Node24 -->
<g id="node24" class="node"><title>Node24</title>
<polygon fill="none" stroke="#bfbfbf" points="1520,-74.5 1520,-93.5 1574,-93.5 1574,-74.5 1520,-74.5"/>
<text text-anchor="middle" x="1547" y="-81.5" font-family="Helvetica,sans-Serif" font-size="10.00">iostream</text>
</g>
<!-- Node14&#45;&gt;Node24 -->
<g id="edge25" class="edge"><title>Node14&#45;&gt;Node24</title>
<path fill="none" stroke="midnightblue" d="M961.561,-142.86C1095.68,-137.871 1407.07,-124.029 1510,-100 1513.07,-99.2825 1516.22,-98.3458 1519.33,-97.2905"/>
<polygon fill="midnightblue" stroke="midnightblue" points="1520.82,-100.466 1528.92,-93.6386 1518.33,-93.9236 1520.82,-100.466"/>
</g>
<!-- Node22 -->
<g id="node22" class="node"><title>Node22</title>
<polygon fill="none" stroke="#bfbfbf" points="1272.5,-1 1272.5,-31 1423.5,-31 1423.5,-1 1272.5,-1"/>
<text text-anchor="start" x="1280.5" y="-19" font-family="Helvetica,sans-Serif" font-size="10.00">Math/GenVector/Displacement</text>
<text text-anchor="middle" x="1348" y="-8" font-family="Helvetica,sans-Serif" font-size="10.00">Vector2D.h</text>
</g>
<!-- Node21&#45;&gt;Node22 -->
<g id="edge23" class="edge"><title>Node21&#45;&gt;Node22</title>
<path fill="none" stroke="midnightblue" d="M1427.1,-74.3717C1414.22,-65.0286 1393.22,-49.7966 1376.09,-37.375"/>
<polygon fill="midnightblue" stroke="midnightblue" points="1377.7,-34.2194 1367.55,-31.1815 1373.59,-39.8859 1377.7,-34.2194"/>
</g>
<!-- Node23 -->
<g id="node23" class="node"><title>Node23</title>
<polygon fill="none" stroke="#bfbfbf" points="1442,-6.5 1442,-25.5 1618,-25.5 1618,-6.5 1442,-6.5"/>
<text text-anchor="middle" x="1530" y="-13.5" font-family="Helvetica,sans-Serif" font-size="10.00">Math/GenVector/PositionVector2D.h</text>
</g>
<!-- Node21&#45;&gt;Node23 -->
<g id="edge24" class="edge"><title>Node21&#45;&gt;Node23</title>
<path fill="none" stroke="midnightblue" d="M1450.9,-74.3717C1465.88,-63.5015 1491.86,-44.6602 1509.94,-31.5474"/>
<polygon fill="midnightblue" stroke="midnightblue" points="1512.06,-34.3349 1518.1,-25.6305 1507.95,-28.6684 1512.06,-34.3349"/>
</g>
</g>
</svg>
