<?xml version="1.0" encoding="UTF-8" standalone="no"?>
<!DOCTYPE svg PUBLIC "-//W3C//DTD SVG 1.1//EN"
 "http://www.w3.org/Graphics/SVG/1.1/DTD/svg11.dtd">
<!-- Generated by graphviz version 2.36.0 (20140111.2315)
 -->
<!-- Title: /home/travis/build/AliceO2Group/AliceO2/Detectors/Passive/src/Absorber.cxx Pages: 1 -->
<!--zoomable 174 -->
<svg id="main" version="1.1" xmlns="http://www.w3.org/2000/svg" xmlns:xlink="http://www.w3.org/1999/xlink" xml:space="preserve" onload="init(evt)">
<style type="text/css"><![CDATA[
.edge:hover path { stroke: red; }
.edge:hover polygon { stroke: red; fill: red; }
]]></style>
<script type="text/javascript"><![CDATA[
var edges = document.getElementsByTagName('g');
if (edges && edges.length) {
  for (var i=0;i<edges.length;i++) {
    if (edges[i].id.substr(0,4)=='edge') {
      edges[i].setAttribute('class','edge');
    }
  }
}
]]></script>
        <defs>
                <circle id="rim" cx="0" cy="0" r="7"/>
                <circle id="rim2" cx="0" cy="0" r="3.5"/>
                <g id="zoomPlus">
                        <use xlink:href="#rim" fill="#404040">
                                <set attributeName="fill" to="#808080" begin="zoomplus.mouseover" end="zoomplus.mouseout"/>
                        </use>
                        <path d="M-4,0h8M0,-4v8" fill="none" stroke="white" stroke-width="1.5" pointer-events="none"/>
                </g>
                <g id="zoomMin">
                        <use xlink:href="#rim" fill="#404040">
                                <set attributeName="fill" to="#808080" begin="zoomminus.mouseover" end="zoomminus.mouseout"/>
                        </use>
                        <path d="M-4,0h8" fill="none" stroke="white" stroke-width="1.5" pointer-events="none"/>
                </g>
                <g id="dirArrow">
                        <path fill="none" stroke="white" stroke-width="1.5" d="M0,-3.0v7 M-2.5,-0.5L0,-3.0L2.5,-0.5"/>
                </g>
               <g id="resetDef">
                       <use xlink:href="#rim2" fill="#404040">
                               <set attributeName="fill" to="#808080" begin="reset.mouseover" end="reset.mouseout"/>
                       </use>
               </g>
        </defs>

<script type="text/javascript">
var viewWidth = 1813;
var viewHeight = 174;
var sectionId = 'dynsection-0';
</script>
<script xlink:href="../../svgpan.js"/>
<svg id="graph" class="graph">
<g id="viewport">
<title>/home/travis/build/AliceO2Group/AliceO2/Detectors/Passive/src/Absorber.cxx</title>
<!-- Node1 -->
<g id="node1" class="node"><title>Node1</title>
<polygon fill="#bfbfbf" stroke="black" points="1181,-113 1181,-165 1299,-165 1299,-113 1181,-113"/>
<text text-anchor="start" x="1189" y="-153" font-family="Helvetica,sans-Serif" font-size="10.00">/home/travis/build</text>
<text text-anchor="start" x="1189" y="-142" font-family="Helvetica,sans-Serif" font-size="10.00">/AliceO2Group/AliceO2</text>
<text text-anchor="start" x="1189" y="-131" font-family="Helvetica,sans-Serif" font-size="10.00">/Detectors/Passive/src</text>
<text text-anchor="middle" x="1240" y="-120" font-family="Helvetica,sans-Serif" font-size="10.00">/Absorber.cxx</text>
</g>
<!-- Node2 -->
<g id="node2" class="node"><title>Node2</title>
<g id="a_node2"><a xlink:href="../../d1/d3a/Base_2include_2DetectorsBase_2Detector_8h.html" target="_top" xlink:title="DetectorsBase/Detector.h">
<polygon fill="none" stroke="black" points="363.5,-56.5 363.5,-75.5 494.5,-75.5 494.5,-56.5 363.5,-56.5"/>
<text text-anchor="middle" x="429" y="-63.5" font-family="Helvetica,sans-Serif" font-size="10.00">DetectorsBase/Detector.h</text>
</a>
</g>
</g>
<!-- Node1&#45;&gt;Node2 -->
<g id="edge1" class="edge"><title>Node1&#45;&gt;Node2</title>
<path fill="none" stroke="midnightblue" d="M1180.69,-132.808C1036.07,-120.147 665.403,-87.6962 504.938,-73.6481"/>
<polygon fill="midnightblue" stroke="midnightblue" points="504.944,-70.1353 494.677,-72.7497 504.333,-77.1086 504.944,-70.1353"/>
</g>
<!-- Node13 -->
<g id="node13" class="node"><title>Node13</title>
<g id="a_node13"><a xlink:href="../../d9/da3/Absorber_8h.html" target="_top" xlink:title="DetectorsPassive/Absorber.h">
<polygon fill="none" stroke="black" points="615.5,-56.5 615.5,-75.5 760.5,-75.5 760.5,-56.5 615.5,-56.5"/>
<text text-anchor="middle" x="688" y="-63.5" font-family="Helvetica,sans-Serif" font-size="10.00">DetectorsPassive/Absorber.h</text>
</a>
</g>
</g>
<!-- Node1&#45;&gt;Node13 -->
<g id="edge12" class="edge"><title>Node1&#45;&gt;Node13</title>
<path fill="none" stroke="midnightblue" d="M1180.93,-130.402C1080.33,-117.462 875.853,-91.1622 764.479,-76.837"/>
<polygon fill="midnightblue" stroke="midnightblue" points="764.692,-73.3356 754.327,-75.5312 763.799,-80.2784 764.692,-73.3356"/>
</g>
<!-- Node15 -->
<g id="node15" class="node"><title>Node15</title>
<polygon fill="none" stroke="#bfbfbf" points="778.5,-56.5 778.5,-75.5 847.5,-75.5 847.5,-56.5 778.5,-56.5"/>
<text text-anchor="middle" x="813" y="-63.5" font-family="Helvetica,sans-Serif" font-size="10.00">TGeoArb8.h</text>
</g>
<!-- Node1&#45;&gt;Node15 -->
<g id="edge14" class="edge"><title>Node1&#45;&gt;Node15</title>
<path fill="none" stroke="midnightblue" d="M1180.82,-129.195C1107.52,-118.116 978.586,-98.0652 857.733,-76.0691"/>
<polygon fill="midnightblue" stroke="midnightblue" points="858.027,-72.5651 847.561,-74.2096 856.769,-79.4509 858.027,-72.5651"/>
</g>
<!-- Node16 -->
<g id="node16" class="node"><title>Node16</title>
<polygon fill="none" stroke="#bfbfbf" points="866,-56.5 866,-75.5 990,-75.5 990,-56.5 866,-56.5"/>
<text text-anchor="middle" x="928" y="-63.5" font-family="Helvetica,sans-Serif" font-size="10.00">TGeoCompositeShape.h</text>
</g>
<!-- Node1&#45;&gt;Node16 -->
<g id="edge15" class="edge"><title>Node1&#45;&gt;Node16</title>
<path fill="none" stroke="midnightblue" d="M1180.95,-124.562C1121.41,-111.013 1030.65,-90.36 975.574,-77.8262"/>
<polygon fill="midnightblue" stroke="midnightblue" points="976.248,-74.3901 965.721,-75.5839 974.695,-81.2156 976.248,-74.3901"/>
</g>
<!-- Node17 -->
<g id="node17" class="node"><title>Node17</title>
<polygon fill="none" stroke="#bfbfbf" points="1008,-56.5 1008,-75.5 1080,-75.5 1080,-56.5 1008,-56.5"/>
<text text-anchor="middle" x="1044" y="-63.5" font-family="Helvetica,sans-Serif" font-size="10.00">TGeoCone.h</text>
</g>
<!-- Node1&#45;&gt;Node17 -->
<g id="edge16" class="edge"><title>Node1&#45;&gt;Node17</title>
<path fill="none" stroke="midnightblue" d="M1180.93,-116.601C1146.85,-104.256 1105.27,-89.194 1076.93,-78.929"/>
<polygon fill="midnightblue" stroke="midnightblue" points="1078.09,-75.6257 1067.49,-75.5105 1075.7,-82.2072 1078.09,-75.6257"/>
</g>
<!-- Node18 -->
<g id="node18" class="node"><title>Node18</title>
<polygon fill="none" stroke="#bfbfbf" points="1098,-56.5 1098,-75.5 1184,-75.5 1184,-56.5 1098,-56.5"/>
<text text-anchor="middle" x="1141" y="-63.5" font-family="Helvetica,sans-Serif" font-size="10.00">TGeoManager.h</text>
</g>
<!-- Node1&#45;&gt;Node18 -->
<g id="edge17" class="edge"><title>Node1&#45;&gt;Node18</title>
<path fill="none" stroke="midnightblue" d="M1205.1,-112.968C1190.58,-102.559 1174.23,-90.8313 1161.67,-81.827"/>
<polygon fill="midnightblue" stroke="midnightblue" points="1163.45,-78.7933 1153.28,-75.8095 1159.37,-84.4817 1163.45,-78.7933"/>
</g>
<!-- Node19 -->
<g id="node19" class="node"><title>Node19</title>
<polygon fill="none" stroke="#bfbfbf" points="1202,-56.5 1202,-75.5 1278,-75.5 1278,-56.5 1202,-56.5"/>
<text text-anchor="middle" x="1240" y="-63.5" font-family="Helvetica,sans-Serif" font-size="10.00">TGeoMatrix.h</text>
</g>
<!-- Node1&#45;&gt;Node19 -->
<g id="edge18" class="edge"><title>Node1&#45;&gt;Node19</title>
<path fill="none" stroke="midnightblue" d="M1240,-112.768C1240,-103.89 1240,-94.0737 1240,-85.8165"/>
<polygon fill="midnightblue" stroke="midnightblue" points="1243.5,-85.7571 1240,-75.7572 1236.5,-85.7572 1243.5,-85.7571"/>
</g>
<!-- Node20 -->
<g id="node20" class="node"><title>Node20</title>
<polygon fill="none" stroke="#bfbfbf" points="1296.5,-56.5 1296.5,-75.5 1367.5,-75.5 1367.5,-56.5 1296.5,-56.5"/>
<text text-anchor="middle" x="1332" y="-63.5" font-family="Helvetica,sans-Serif" font-size="10.00">TGeoPcon.h</text>
</g>
<!-- Node1&#45;&gt;Node20 -->
<g id="edge19" class="edge"><title>Node1&#45;&gt;Node20</title>
<path fill="none" stroke="midnightblue" d="M1272.44,-112.968C1285.79,-102.66 1300.83,-91.0589 1312.45,-82.09"/>
<polygon fill="midnightblue" stroke="midnightblue" points="1314.81,-84.69 1320.58,-75.8095 1310.53,-79.1483 1314.81,-84.69"/>
</g>
<!-- Node21 -->
<g id="node21" class="node"><title>Node21</title>
<polygon fill="none" stroke="#bfbfbf" points="1385.5,-56.5 1385.5,-75.5 1456.5,-75.5 1456.5,-56.5 1385.5,-56.5"/>
<text text-anchor="middle" x="1421" y="-63.5" font-family="Helvetica,sans-Serif" font-size="10.00">TGeoPgon.h</text>
</g>
<!-- Node1&#45;&gt;Node21 -->
<g id="edge20" class="edge"><title>Node1&#45;&gt;Node21</title>
<path fill="none" stroke="midnightblue" d="M1299.27,-114.752C1329.35,-102.951 1364.68,-89.0911 1389.51,-79.3521"/>
<polygon fill="midnightblue" stroke="midnightblue" points="1391.1,-82.4876 1399.13,-75.5775 1388.55,-75.971 1391.1,-82.4876"/>
</g>
<!-- Node22 -->
<g id="node22" class="node"><title>Node22</title>
<polygon fill="none" stroke="#bfbfbf" points="1474.5,-56.5 1474.5,-75.5 1545.5,-75.5 1545.5,-56.5 1474.5,-56.5"/>
<text text-anchor="middle" x="1510" y="-63.5" font-family="Helvetica,sans-Serif" font-size="10.00">TGeoTube.h</text>
</g>
<!-- Node1&#45;&gt;Node22 -->
<g id="edge21" class="edge"><title>Node1&#45;&gt;Node22</title>
<path fill="none" stroke="midnightblue" d="M1299.25,-122.419C1350.2,-109.022 1422.42,-90.0307 1467.71,-78.1205"/>
<polygon fill="midnightblue" stroke="midnightblue" points="1468.72,-81.4734 1477.5,-75.5452 1466.94,-74.7035 1468.72,-81.4734"/>
</g>
<!-- Node23 -->
<g id="node23" class="node"><title>Node23</title>
<polygon fill="none" stroke="#bfbfbf" points="1564,-56.5 1564,-75.5 1646,-75.5 1646,-56.5 1564,-56.5"/>
<text text-anchor="middle" x="1605" y="-63.5" font-family="Helvetica,sans-Serif" font-size="10.00">TGeoVolume.h</text>
</g>
<!-- Node1&#45;&gt;Node23 -->
<g id="edge22" class="edge"><title>Node1&#45;&gt;Node23</title>
<path fill="none" stroke="midnightblue" d="M1299.05,-126.514C1369.77,-112.757 1487.05,-89.9443 1553.99,-76.9218"/>
<polygon fill="midnightblue" stroke="midnightblue" points="1554.75,-80.3413 1563.89,-74.9962 1553.41,-73.4701 1554.75,-80.3413"/>
</g>
<!-- Node24 -->
<g id="node24" class="node"><title>Node24</title>
<polygon fill="none" stroke="#bfbfbf" points="1664,-56.5 1664,-75.5 1738,-75.5 1738,-56.5 1664,-56.5"/>
<text text-anchor="middle" x="1701" y="-63.5" font-family="Helvetica,sans-Serif" font-size="10.00">TVirtualMC.h</text>
</g>
<!-- Node1&#45;&gt;Node24 -->
<g id="edge23" class="edge"><title>Node1&#45;&gt;Node24</title>
<path fill="none" stroke="midnightblue" d="M1299.24,-130.003C1377.91,-119.192 1521.43,-98.8129 1653.94,-76.121"/>
<polygon fill="midnightblue" stroke="midnightblue" points="1654.61,-79.5581 1663.87,-74.4132 1653.42,-72.6595 1654.61,-79.5581"/>
</g>
<!-- Node25 -->
<g id="node25" class="node"><title>Node25</title>
<polygon fill="none" stroke="#bfbfbf" points="1756.5,-56.5 1756.5,-75.5 1805.5,-75.5 1805.5,-56.5 1756.5,-56.5"/>
<text text-anchor="middle" x="1781" y="-63.5" font-family="Helvetica,sans-Serif" font-size="10.00">cassert</text>
</g>
<!-- Node1&#45;&gt;Node25 -->
<g id="edge24" class="edge"><title>Node1&#45;&gt;Node25</title>
<path fill="none" stroke="midnightblue" d="M1299.35,-133.399C1392.58,-125.589 1579.09,-107.614 1746.24,-75.8947"/>
<polygon fill="midnightblue" stroke="midnightblue" points="1747.05,-79.3044 1756.21,-73.9827 1745.73,-72.4298 1747.05,-79.3044"/>
</g>
<!-- Node3 -->
<g id="node3" class="node"><title>Node3</title>
<polygon fill="none" stroke="#bfbfbf" points="-0.5,-0.5 -0.5,-19.5 34.5,-19.5 34.5,-0.5 -0.5,-0.5"/>
<text text-anchor="middle" x="17" y="-7.5" font-family="Helvetica,sans-Serif" font-size="10.00">map</text>
</g>
<!-- Node2&#45;&gt;Node3 -->
<g id="edge2" class="edge"><title>Node2&#45;&gt;Node3</title>
<path fill="none" stroke="midnightblue" d="M363.261,-61.4355C288.176,-56.4453 161.672,-45.2392 44.4364,-19.6284"/>
<polygon fill="midnightblue" stroke="midnightblue" points="45.0939,-16.1892 34.5724,-17.4341 43.5738,-23.0222 45.0939,-16.1892"/>
</g>
<!-- Node4 -->
<g id="node4" class="node"><title>Node4</title>
<polygon fill="none" stroke="#bfbfbf" points="53,-0.5 53,-19.5 97,-19.5 97,-0.5 53,-0.5"/>
<text text-anchor="middle" x="75" y="-7.5" font-family="Helvetica,sans-Serif" font-size="10.00">vector</text>
</g>
<!-- Node2&#45;&gt;Node4 -->
<g id="edge3" class="edge"><title>Node2&#45;&gt;Node4</title>
<path fill="none" stroke="midnightblue" d="M363.25,-58.6484C299.882,-51.8924 201.203,-39.7081 107.213,-19.9979"/>
<polygon fill="midnightblue" stroke="midnightblue" points="107.763,-16.5367 97.2534,-17.8769 106.305,-23.3831 107.763,-16.5367"/>
</g>
<!-- Node5 -->
<g id="node5" class="node"><title>Node5</title>
<polygon fill="none" stroke="#bfbfbf" points="115,-0.5 115,-19.5 167,-19.5 167,-0.5 115,-0.5"/>
<text text-anchor="middle" x="141" y="-7.5" font-family="Helvetica,sans-Serif" font-size="10.00">memory</text>
</g>
<!-- Node2&#45;&gt;Node5 -->
<g id="edge4" class="edge"><title>Node2&#45;&gt;Node5</title>
<path fill="none" stroke="midnightblue" d="M373.984,-56.4467C324.784,-48.5192 250.513,-35.8686 177.19,-20.134"/>
<polygon fill="midnightblue" stroke="midnightblue" points="177.837,-16.6929 167.322,-17.9962 176.355,-23.5342 177.837,-16.6929"/>
</g>
<!-- Node6 -->
<g id="node6" class="node"><title>Node6</title>
<polygon fill="none" stroke="#bfbfbf" points="185.5,-0.5 185.5,-19.5 264.5,-19.5 264.5,-0.5 185.5,-0.5"/>
<text text-anchor="middle" x="225" y="-7.5" font-family="Helvetica,sans-Serif" font-size="10.00">FairDetector.h</text>
</g>
<!-- Node2&#45;&gt;Node6 -->
<g id="edge5" class="edge"><title>Node2&#45;&gt;Node6</title>
<path fill="none" stroke="midnightblue" d="M396.676,-56.4435C361.611,-47.1616 305.502,-32.3093 267.035,-22.127"/>
<polygon fill="midnightblue" stroke="midnightblue" points="267.736,-18.692 257.173,-19.5164 265.945,-25.4589 267.736,-18.692"/>
</g>
<!-- Node7 -->
<g id="node7" class="node"><title>Node7</title>
<polygon fill="none" stroke="#bfbfbf" points="283,-0.5 283,-19.5 383,-19.5 383,-0.5 283,-0.5"/>
<text text-anchor="middle" x="333" y="-7.5" font-family="Helvetica,sans-Serif" font-size="10.00">FairRootManager.h</text>
</g>
<!-- Node2&#45;&gt;Node7 -->
<g id="edge6" class="edge"><title>Node2&#45;&gt;Node7</title>
<path fill="none" stroke="midnightblue" d="M413.576,-56.324C398.46,-47.8215 375.185,-34.7288 357.529,-24.7975"/>
<polygon fill="midnightblue" stroke="midnightblue" points="358.817,-21.5066 348.386,-19.6545 355.386,-27.6077 358.817,-21.5066"/>
</g>
<!-- Node8 -->
<g id="node8" class="node"><title>Node8</title>
<polygon fill="none" stroke="#bfbfbf" points="401,-0.5 401,-19.5 457,-19.5 457,-0.5 401,-0.5"/>
<text text-anchor="middle" x="429" y="-7.5" font-family="Helvetica,sans-Serif" font-size="10.00">Rtypes.h</text>
</g>
<!-- Node2&#45;&gt;Node8 -->
<g id="edge7" class="edge"><title>Node2&#45;&gt;Node8</title>
<path fill="none" stroke="midnightblue" d="M429,-56.083C429,-49.0059 429,-38.8611 429,-29.9865"/>
<polygon fill="midnightblue" stroke="midnightblue" points="432.5,-29.751 429,-19.7511 425.5,-29.7511 432.5,-29.751"/>
</g>
<!-- Node9 -->
<g id="node9" class="node"><title>Node9</title>
<polygon fill="none" stroke="#bfbfbf" points="475.5,-0.5 475.5,-19.5 528.5,-19.5 528.5,-0.5 475.5,-0.5"/>
<text text-anchor="middle" x="502" y="-7.5" font-family="Helvetica,sans-Serif" font-size="10.00">cxxabi.h</text>
</g>
<!-- Node2&#45;&gt;Node9 -->
<g id="edge8" class="edge"><title>Node2&#45;&gt;Node9</title>
<path fill="none" stroke="midnightblue" d="M440.729,-56.324C451.837,-48.1066 468.742,-35.6017 481.983,-25.8069"/>
<polygon fill="midnightblue" stroke="midnightblue" points="484.1,-28.5948 490.058,-19.8339 479.937,-22.9671 484.1,-28.5948"/>
</g>
<!-- Node10 -->
<g id="node10" class="node"><title>Node10</title>
<polygon fill="none" stroke="#bfbfbf" points="546.5,-0.5 546.5,-19.5 597.5,-19.5 597.5,-0.5 546.5,-0.5"/>
<text text-anchor="middle" x="572" y="-7.5" font-family="Helvetica,sans-Serif" font-size="10.00">typeinfo</text>
</g>
<!-- Node2&#45;&gt;Node10 -->
<g id="edge9" class="edge"><title>Node2&#45;&gt;Node10</title>
<path fill="none" stroke="midnightblue" d="M451.659,-56.4435C475.402,-47.4776 512.909,-33.314 539.738,-23.1827"/>
<polygon fill="midnightblue" stroke="midnightblue" points="541.329,-26.3235 549.447,-19.5164 538.856,-19.7749 541.329,-26.3235"/>
</g>
<!-- Node11 -->
<g id="node11" class="node"><title>Node11</title>
<polygon fill="none" stroke="#bfbfbf" points="616,-0.5 616,-19.5 678,-19.5 678,-0.5 616,-0.5"/>
<text text-anchor="middle" x="647" y="-7.5" font-family="Helvetica,sans-Serif" font-size="10.00">type_traits</text>
</g>
<!-- Node2&#45;&gt;Node11 -->
<g id="edge10" class="edge"><title>Node2&#45;&gt;Node11</title>
<path fill="none" stroke="midnightblue" d="M463.543,-56.4435C502.252,-46.8551 564.958,-31.3223 606.089,-21.1339"/>
<polygon fill="midnightblue" stroke="midnightblue" points="606.933,-24.5308 615.798,-18.729 605.249,-17.7362 606.933,-24.5308"/>
</g>
<!-- Node12 -->
<g id="node12" class="node"><title>Node12</title>
<polygon fill="none" stroke="#bfbfbf" points="696.5,-0.5 696.5,-19.5 737.5,-19.5 737.5,-0.5 696.5,-0.5"/>
<text text-anchor="middle" x="717" y="-7.5" font-family="Helvetica,sans-Serif" font-size="10.00">string</text>
</g>
<!-- Node2&#45;&gt;Node12 -->
<g id="edge11" class="edge"><title>Node2&#45;&gt;Node12</title>
<path fill="none" stroke="midnightblue" d="M488.317,-56.4966C540.646,-48.5485 618.819,-35.5845 686,-20 686.212,-19.9509 686.424,-19.9013 686.637,-19.8511"/>
<polygon fill="midnightblue" stroke="midnightblue" points="687.603,-23.2162 696.405,-17.3193 685.847,-16.4401 687.603,-23.2162"/>
</g>
<!-- Node14 -->
<g id="node14" class="node"><title>Node14</title>
<polygon fill="none" stroke="#bfbfbf" points="755.5,-0.5 755.5,-19.5 828.5,-19.5 828.5,-0.5 755.5,-0.5"/>
<text text-anchor="middle" x="792" y="-7.5" font-family="Helvetica,sans-Serif" font-size="10.00">FairModule.h</text>
</g>
<!-- Node13&#45;&gt;Node14 -->
<g id="edge13" class="edge"><title>Node13&#45;&gt;Node14</title>
<path fill="none" stroke="midnightblue" d="M704.709,-56.324C721.312,-47.7034 747.002,-34.3643 766.22,-24.3855"/>
<polygon fill="midnightblue" stroke="midnightblue" points="768.07,-27.3689 775.332,-19.6545 764.844,-21.1565 768.07,-27.3689"/>
</g>
</g>
</svg>
        <g id="navigator" transform="translate(0 0)" fill="#404254">
                <rect fill="#f2f5e9" fill-opacity="0.5" stroke="#606060" stroke-width=".5" x="0" y="0" width="60" height="60"/>
                <use id="zoomplus" xlink:href="#zoomPlus" x="17" y="9" onmousedown="handleZoom(evt,'in')"/>
                <use id="zoomminus" xlink:href="#zoomMin" x="42" y="9" onmousedown="handleZoom(evt,'out')"/>
                <use id="reset" xlink:href="#resetDef" x="30" y="36" onmousedown="handleReset()"/>
                <g id="arrowUp" xlink:href="#dirArrow" transform="translate(30 24)" onmousedown="handlePan(0,-1)">
                  <use xlink:href="#rim" fill="#404040">
                        <set attributeName="fill" to="#808080" begin="arrowUp.mouseover" end="arrowUp.mouseout"/>
                  </use>
                  <path fill="none" stroke="white" stroke-width="1.5" d="M0,-3.0v7 M-2.5,-0.5L0,-3.0L2.5,-0.5"/>
                </g>
                <g id="arrowRight" xlink:href="#dirArrow" transform="rotate(90) translate(36 -43)" onmousedown="handlePan(1,0)">
                  <use xlink:href="#rim" fill="#404040">
                        <set attributeName="fill" to="#808080" begin="arrowRight.mouseover" end="arrowRight.mouseout"/>
                  </use>
                  <path fill="none" stroke="white" stroke-width="1.5" d="M0,-3.0v7 M-2.5,-0.5L0,-3.0L2.5,-0.5"/>
                </g>
                <g id="arrowDown" xlink:href="#dirArrow" transform="rotate(180) translate(-30 -48)" onmousedown="handlePan(0,1)">
                  <use xlink:href="#rim" fill="#404040">
                        <set attributeName="fill" to="#808080" begin="arrowDown.mouseover" end="arrowDown.mouseout"/>
                  </use>
                  <path fill="none" stroke="white" stroke-width="1.5" d="M0,-3.0v7 M-2.5,-0.5L0,-3.0L2.5,-0.5"/>
                </g>
                <g id="arrowLeft" xlink:href="#dirArrow" transform="rotate(270) translate(-36 17)" onmousedown="handlePan(-1,0)">
                  <use xlink:href="#rim" fill="#404040">
                        <set attributeName="fill" to="#808080" begin="arrowLeft.mouseover" end="arrowLeft.mouseout"/>
                  </use>
                  <path fill="none" stroke="white" stroke-width="1.5" d="M0,-3.0v7 M-2.5,-0.5L0,-3.0L2.5,-0.5"/>
                </g>
        </g>
        <svg viewBox="0 0 15 15" width="100%" height="30px" preserveAspectRatio="xMaxYMin meet">
         <g id="arrow_out" transform="scale(0.3 0.3)">
          <a xlink:href="Absorber_8cxx__incl_org.svg" target="_base">
           <rect id="button" ry="5" rx="5" y="6" x="6" height="38" width="38"
                fill="#f2f5e9" fill-opacity="0.5" stroke="#606060" stroke-width="1.0"/>
           <path id="arrow"
             d="M 11.500037,31.436501 C 11.940474,20.09759 22.043105,11.32322 32.158766,21.979434 L 37.068811,17.246167 C 37.068811,17.246167 37.088388,32 37.088388,32 L 22.160133,31.978069 C 22.160133,31.978069 26.997745,27.140456 26.997745,27.140456 C 18.528582,18.264221 13.291696,25.230495 11.500037,31.436501 z"
             style="fill:#404040;"/>
          </a>
         </g>
        </svg>
</svg>
