<?xml version="1.0" encoding="UTF-8" standalone="no"?>
<!DOCTYPE svg PUBLIC "-//W3C//DTD SVG 1.1//EN"
 "http://www.w3.org/Graphics/SVG/1.1/DTD/svg11.dtd">
<!-- Generated by graphviz version 2.36.0 (20140111.2315)
 -->
<!-- Title: ImGuiIniData Pages: 1 -->
<svg width="270pt" height="310pt"
 viewBox="0.00 0.00 270.00 310.00" xmlns="http://www.w3.org/2000/svg" xmlns:xlink="http://www.w3.org/1999/xlink">
<g id="graph0" class="graph" transform="scale(1 1) rotate(0) translate(4 306)">
<title>ImGuiIniData</title>
<!-- Node1 -->
<g id="node1" class="node"><title>Node1</title>
<polygon fill="#bfbfbf" stroke="black" points="92,-0.5 92,-57.5 166,-57.5 166,-0.5 92,-0.5"/>
<text text-anchor="middle" x="129" y="-45.5" font-family="Helvetica,sans-Serif" font-size="10.00">ImGuiIniData</text>
<polyline fill="none" stroke="black" points="92,-38.5 166,-38.5 "/>
<text text-anchor="middle" x="129" y="-26.5" font-family="Helvetica,sans-Serif" font-size="10.00"> </text>
<polyline fill="none" stroke="black" points="92,-19.5 166,-19.5 "/>
<text text-anchor="middle" x="129" y="-7.5" font-family="Helvetica,sans-Serif" font-size="10.00"> </text>
</g>
<!-- Node2 -->
<g id="node2" class="node"><title>Node2</title>
<g id="a_node2"><a xlink:href="../../d3/dc2/structImVec2.html" target="_top" xlink:title="{ImVec2\n||+ ImVec2()\l+ ImVec2()\l}">
<polygon fill="none" stroke="black" points="-0.5,-117 -0.5,-185 64.5,-185 64.5,-117 -0.5,-117"/>
<text text-anchor="middle" x="32" y="-173" font-family="Helvetica,sans-Serif" font-size="10.00">ImVec2</text>
<polyline fill="none" stroke="black" points="-0.5,-166 64.5,-166 "/>
<text text-anchor="middle" x="32" y="-154" font-family="Helvetica,sans-Serif" font-size="10.00"> </text>
<polyline fill="none" stroke="black" points="-0.5,-147 64.5,-147 "/>
<text text-anchor="start" x="7.5" y="-135" font-family="Helvetica,sans-Serif" font-size="10.00">+ ImVec2()</text>
<text text-anchor="start" x="7.5" y="-124" font-family="Helvetica,sans-Serif" font-size="10.00">+ ImVec2()</text>
</a>
</g>
</g>
<!-- Node2&#45;&gt;Node1 -->
<g id="edge1" class="edge"><title>Node2&#45;&gt;Node1</title>
<path fill="none" stroke="#404040" d="M43.648,-116.668C49.3701,-103.168 57.1738,-87.9754 67,-76 71.5206,-70.4907 76.838,-65.2855 82.4262,-60.4958"/>
<polygon fill="none" stroke="#404040" points="82.6207,-60.3403 84.8093,-53.4693 91.9936,-52.8469 89.8049,-59.7179 82.6207,-60.3403"/>
<text text-anchor="middle" x="80.5" y="-90" font-family="Helvetica,sans-Serif" font-size="10.00"> +Pos</text>
<text text-anchor="middle" x="80.5" y="-79" font-family="Helvetica,sans-Serif" font-size="10.00">+Size</text>
</g>
<!-- Node3 -->
<g id="node3" class="node"><title>Node3</title>
<g id="a_node3"><a xlink:href="../../d4/dc3/classfloat.html" target="_top" xlink:title="{float\n||}">
<polygon fill="none" stroke="black" points="14.5,-244.5 14.5,-301.5 49.5,-301.5 49.5,-244.5 14.5,-244.5"/>
<text text-anchor="middle" x="32" y="-289.5" font-family="Helvetica,sans-Serif" font-size="10.00">float</text>
<polyline fill="none" stroke="black" points="14.5,-282.5 49.5,-282.5 "/>
<text text-anchor="middle" x="32" y="-270.5" font-family="Helvetica,sans-Serif" font-size="10.00"> </text>
<polyline fill="none" stroke="black" points="14.5,-263.5 49.5,-263.5 "/>
<text text-anchor="middle" x="32" y="-251.5" font-family="Helvetica,sans-Serif" font-size="10.00"> </text>
</a>
</g>
</g>
<!-- Node3&#45;&gt;Node2 -->
<g id="edge2" class="edge"><title>Node3&#45;&gt;Node2</title>
<path fill="none" stroke="#404040" d="M32,-244.47C32,-230.601 32,-213.421 32,-197.647"/>
<polygon fill="none" stroke="#404040" points="32.0001,-197.388 28,-191.388 32,-185.388 36,-191.388 32.0001,-197.388"/>
<text text-anchor="middle" x="39.5" y="-218" font-family="Helvetica,sans-Serif" font-size="10.00"> +x</text>
<text text-anchor="middle" x="39.5" y="-207" font-family="Helvetica,sans-Serif" font-size="10.00">+y</text>
</g>
<!-- Node4 -->
<g id="node4" class="node"><title>Node4</title>
<polygon fill="none" stroke="#bfbfbf" points="82.5,-122.5 82.5,-179.5 117.5,-179.5 117.5,-122.5 82.5,-122.5"/>
<text text-anchor="middle" x="100" y="-167.5" font-family="Helvetica,sans-Serif" font-size="10.00">char</text>
<polyline fill="none" stroke="#bfbfbf" points="82.5,-160.5 117.5,-160.5 "/>
<text text-anchor="middle" x="100" y="-148.5" font-family="Helvetica,sans-Serif" font-size="10.00"> </text>
<polyline fill="none" stroke="#bfbfbf" points="82.5,-141.5 117.5,-141.5 "/>
<text text-anchor="middle" x="100" y="-129.5" font-family="Helvetica,sans-Serif" font-size="10.00"> </text>
</g>
<!-- Node4&#45;&gt;Node1 -->
<g id="edge3" class="edge"><title>Node4&#45;&gt;Node1</title>
<path fill="none" stroke="#404040" d="M96.9547,-122.432C96.2429,-108.289 96.7014,-90.9405 101,-76 101.707,-73.5432 102.582,-71.0865 103.582,-68.6578"/>
<polygon fill="none" stroke="#404040" points="103.719,-68.3775 102.769,-61.2293 109.001,-57.6026 109.952,-64.7508 103.719,-68.3775"/>
<text text-anchor="middle" x="119" y="-84.5" font-family="Helvetica,sans-Serif" font-size="10.00"> +Name</text>
</g>
<!-- Node5 -->
<g id="node5" class="node"><title>Node5</title>
<polygon fill="none" stroke="#bfbfbf" points="141.5,-122.5 141.5,-179.5 176.5,-179.5 176.5,-122.5 141.5,-122.5"/>
<text text-anchor="middle" x="159" y="-167.5" font-family="Helvetica,sans-Serif" font-size="10.00">bool</text>
<polyline fill="none" stroke="#bfbfbf" points="141.5,-160.5 176.5,-160.5 "/>
<text text-anchor="middle" x="159" y="-148.5" font-family="Helvetica,sans-Serif" font-size="10.00"> </text>
<polyline fill="none" stroke="#bfbfbf" points="141.5,-141.5 176.5,-141.5 "/>
<text text-anchor="middle" x="159" y="-129.5" font-family="Helvetica,sans-Serif" font-size="10.00"> </text>
</g>
<!-- Node5&#45;&gt;Node1 -->
<g id="edge4" class="edge"><title>Node5&#45;&gt;Node1</title>
<path fill="none" stroke="#404040" d="M152.117,-122.47C148.201,-106.803 143.228,-86.9107 138.898,-69.5929"/>
<polygon fill="none" stroke="#404040" points="138.865,-69.4596 133.529,-64.6089 135.954,-57.8179 141.29,-62.6686 138.865,-69.4596"/>
<text text-anchor="middle" x="172.5" y="-84.5" font-family="Helvetica,sans-Serif" font-size="10.00"> +Collapsed</text>
</g>
<!-- Node6 -->
<g id="node6" class="node"><title>Node6</title>
<polygon fill="none" stroke="#bfbfbf" points="207,-122.5 207,-179.5 263,-179.5 263,-122.5 207,-122.5"/>
<text text-anchor="middle" x="235" y="-167.5" font-family="Helvetica,sans-Serif" font-size="10.00">unsigned</text>
<polyline fill="none" stroke="#bfbfbf" points="207,-160.5 263,-160.5 "/>
<text text-anchor="middle" x="235" y="-148.5" font-family="Helvetica,sans-Serif" font-size="10.00"> </text>
<polyline fill="none" stroke="#bfbfbf" points="207,-141.5 263,-141.5 "/>
<text text-anchor="middle" x="235" y="-129.5" font-family="Helvetica,sans-Serif" font-size="10.00"> </text>
</g>
<!-- Node6&#45;&gt;Node1 -->
<g id="edge5" class="edge"><title>Node6&#45;&gt;Node1</title>
<path fill="none" stroke="#404040" d="M227.533,-122.467C222.446,-107.494 214.514,-89.3586 203,-76 195.602,-67.4172 186.198,-59.9187 176.595,-53.6049"/>
<polygon fill="none" stroke="#404040" points="176.413,-53.4938 169.208,-53.769 166.182,-47.2234 173.388,-46.9481 176.413,-53.4938"/>
<text text-anchor="middle" x="226" y="-84.5" font-family="Helvetica,sans-Serif" font-size="10.00"> +Id</text>
</g>
</g>
</svg>
