<?xml version="1.0" encoding="UTF-8" standalone="no"?>
<!DOCTYPE svg PUBLIC "-//W3C//DTD SVG 1.1//EN"
 "http://www.w3.org/Graphics/SVG/1.1/DTD/svg11.dtd">
<!-- Generated by graphviz version 2.36.0 (20140111.2315)
 -->
<!-- Title: /home/travis/build/AliceO2Group/AliceO2/Detectors/ITSMFT/MFT/base/src/HalfDisk.cxx Pages: 1 -->
<!--zoomable 342 -->
<svg id="main" version="1.1" xmlns="http://www.w3.org/2000/svg" xmlns:xlink="http://www.w3.org/1999/xlink" xml:space="preserve" onload="init(evt)">
<style type="text/css"><![CDATA[
.edge:hover path { stroke: red; }
.edge:hover polygon { stroke: red; fill: red; }
]]></style>
<script type="text/javascript"><![CDATA[
var edges = document.getElementsByTagName('g');
if (edges && edges.length) {
  for (var i=0;i<edges.length;i++) {
    if (edges[i].id.substr(0,4)=='edge') {
      edges[i].setAttribute('class','edge');
    }
  }
}
]]></script>
        <defs>
                <circle id="rim" cx="0" cy="0" r="7"/>
                <circle id="rim2" cx="0" cy="0" r="3.5"/>
                <g id="zoomPlus">
                        <use xlink:href="#rim" fill="#404040">
                                <set attributeName="fill" to="#808080" begin="zoomplus.mouseover" end="zoomplus.mouseout"/>
                        </use>
                        <path d="M-4,0h8M0,-4v8" fill="none" stroke="white" stroke-width="1.5" pointer-events="none"/>
                </g>
                <g id="zoomMin">
                        <use xlink:href="#rim" fill="#404040">
                                <set attributeName="fill" to="#808080" begin="zoomminus.mouseover" end="zoomminus.mouseout"/>
                        </use>
                        <path d="M-4,0h8" fill="none" stroke="white" stroke-width="1.5" pointer-events="none"/>
                </g>
                <g id="dirArrow">
                        <path fill="none" stroke="white" stroke-width="1.5" d="M0,-3.0v7 M-2.5,-0.5L0,-3.0L2.5,-0.5"/>
                </g>
               <g id="resetDef">
                       <use xlink:href="#rim2" fill="#404040">
                               <set attributeName="fill" to="#808080" begin="reset.mouseover" end="reset.mouseout"/>
                       </use>
               </g>
        </defs>

<script type="text/javascript">
var viewWidth = 958;
var viewHeight = 342;
var sectionId = 'dynsection-0';
</script>
<script xlink:href="../../svgpan.js"/>
<svg id="graph" class="graph">
<g id="viewport">
<title>/home/travis/build/AliceO2Group/AliceO2/Detectors/ITSMFT/MFT/base/src/HalfDisk.cxx</title>
<!-- Node1 -->
<g id="node1" class="node"><title>Node1</title>
<polygon fill="#bfbfbf" stroke="black" points="493.5,-281 493.5,-333 618.5,-333 618.5,-281 493.5,-281"/>
<text text-anchor="start" x="501.5" y="-321" font-family="Helvetica,sans-Serif" font-size="10.00">/home/travis/build</text>
<text text-anchor="start" x="501.5" y="-310" font-family="Helvetica,sans-Serif" font-size="10.00">/AliceO2Group/AliceO2</text>
<text text-anchor="start" x="501.5" y="-299" font-family="Helvetica,sans-Serif" font-size="10.00">/Detectors/ITSMFT/MFT</text>
<text text-anchor="middle" x="556" y="-288" font-family="Helvetica,sans-Serif" font-size="10.00">/base/src/HalfDisk.cxx</text>
</g>
<!-- Node2 -->
<g id="node2" class="node"><title>Node2</title>
<polygon fill="none" stroke="#bfbfbf" points="94,-0.5 94,-19.5 170,-19.5 170,-0.5 94,-0.5"/>
<text text-anchor="middle" x="132" y="-7.5" font-family="Helvetica,sans-Serif" font-size="10.00">TGeoMatrix.h</text>
</g>
<!-- Node1&#45;&gt;Node2 -->
<g id="edge1" class="edge"><title>Node1&#45;&gt;Node2</title>
<path fill="none" stroke="midnightblue" d="M493.301,-304.814C347.892,-300.367 0,-279.252 0,-179 0,-179 0,-179 0,-121 0,-70.812 57.0117,-39.081 96.0993,-23.2238"/>
<polygon fill="midnightblue" stroke="midnightblue" points="97.5501,-26.4151 105.605,-19.5327 95.0163,-19.8898 97.5501,-26.4151"/>
</g>
<!-- Node3 -->
<g id="node3" class="node"><title>Node3</title>
<polygon fill="none" stroke="#bfbfbf" points="773,-224.5 773,-243.5 859,-243.5 859,-224.5 773,-224.5"/>
<text text-anchor="middle" x="816" y="-231.5" font-family="Helvetica,sans-Serif" font-size="10.00">TGeoManager.h</text>
</g>
<!-- Node1&#45;&gt;Node3 -->
<g id="edge2" class="edge"><title>Node1&#45;&gt;Node3</title>
<path fill="none" stroke="midnightblue" d="M618.607,-288.903C667.054,-275.674 732.76,-257.731 774.778,-246.257"/>
<polygon fill="midnightblue" stroke="midnightblue" points="775.94,-249.568 784.665,-243.557 774.096,-242.815 775.94,-249.568"/>
</g>
<!-- Node4 -->
<g id="node4" class="node"><title>Node4</title>
<polygon fill="none" stroke="#bfbfbf" points="877.5,-224.5 877.5,-243.5 950.5,-243.5 950.5,-224.5 877.5,-224.5"/>
<text text-anchor="middle" x="914" y="-231.5" font-family="Helvetica,sans-Serif" font-size="10.00">TGeoBBox.h</text>
</g>
<!-- Node1&#45;&gt;Node4 -->
<g id="edge3" class="edge"><title>Node1&#45;&gt;Node4</title>
<path fill="none" stroke="midnightblue" d="M618.769,-293.551C689.623,-279.499 803.284,-256.958 866.927,-244.336"/>
<polygon fill="midnightblue" stroke="midnightblue" points="867.947,-247.702 877.075,-242.323 866.585,-240.835 867.947,-247.702"/>
</g>
<!-- Node5 -->
<g id="node5" class="node"><title>Node5</title>
<polygon fill="none" stroke="#bfbfbf" points="705.5,-168.5 705.5,-187.5 776.5,-187.5 776.5,-168.5 705.5,-168.5"/>
<text text-anchor="middle" x="741" y="-175.5" font-family="Helvetica,sans-Serif" font-size="10.00">FairLogger.h</text>
</g>
<!-- Node1&#45;&gt;Node5 -->
<g id="edge4" class="edge"><title>Node1&#45;&gt;Node5</title>
<path fill="none" stroke="midnightblue" d="M618.516,-298.143C654.865,-290.345 698.742,-274.833 726,-244 737.137,-231.402 740.466,-212.187 741.262,-197.912"/>
<polygon fill="midnightblue" stroke="midnightblue" points="744.764,-197.81 741.457,-187.744 737.766,-197.675 744.764,-197.81"/>
</g>
<!-- Node6 -->
<g id="node6" class="node"><title>Node6</title>
<g id="a_node6"><a xlink:href="../../dc/d53/HalfDiskSegmentation_8h.html" target="_top" xlink:title="Class for the description of the structure of a half&#45;disk. ">
<polygon fill="none" stroke="black" points="211.5,-224.5 211.5,-243.5 380.5,-243.5 380.5,-224.5 211.5,-224.5"/>
<text text-anchor="middle" x="296" y="-231.5" font-family="Helvetica,sans-Serif" font-size="10.00">MFTBase/HalfDiskSegmentation.h</text>
</a>
</g>
</g>
<!-- Node1&#45;&gt;Node6 -->
<g id="edge5" class="edge"><title>Node1&#45;&gt;Node6</title>
<path fill="none" stroke="midnightblue" d="M493.393,-288.903C444.946,-275.674 379.24,-257.731 337.222,-246.257"/>
<polygon fill="midnightblue" stroke="midnightblue" points="337.904,-242.815 327.335,-243.557 336.06,-249.568 337.904,-242.815"/>
</g>
<!-- Node13 -->
<g id="node13" class="node"><title>Node13</title>
<g id="a_node13"><a xlink:href="../../d0/d12/Ladder_8h.html" target="_top" xlink:title="Class building the Ladder geometry. ">
<polygon fill="none" stroke="black" points="375,-56.5 375,-75.5 475,-75.5 475,-56.5 375,-56.5"/>
<text text-anchor="middle" x="425" y="-63.5" font-family="Helvetica,sans-Serif" font-size="10.00">MFTBase/Ladder.h</text>
</a>
</g>
</g>
<!-- Node1&#45;&gt;Node13 -->
<g id="edge15" class="edge"><title>Node1&#45;&gt;Node13</title>
<path fill="none" stroke="midnightblue" d="M523.139,-280.959C497.248,-259.309 462.528,-225.629 444,-188 427.62,-154.733 424.739,-110.642 424.567,-85.9104"/>
<polygon fill="midnightblue" stroke="midnightblue" points="428.069,-85.7633 424.647,-75.7363 421.069,-85.7087 428.069,-85.7633"/>
</g>
<!-- Node15 -->
<g id="node15" class="node"><title>Node15</title>
<g id="a_node15"><a xlink:href="../../d7/d73/HalfDisk_8h.html" target="_top" xlink:title="Class building geometry of one half of an MFT disk. ">
<polygon fill="none" stroke="black" points="531.5,-112.5 531.5,-131.5 640.5,-131.5 640.5,-112.5 531.5,-112.5"/>
<text text-anchor="middle" x="586" y="-119.5" font-family="Helvetica,sans-Serif" font-size="10.00">MFTBase/HalfDisk.h</text>
</a>
</g>
</g>
<!-- Node1&#45;&gt;Node15 -->
<g id="edge18" class="edge"><title>Node1&#45;&gt;Node15</title>
<path fill="none" stroke="midnightblue" d="M560.108,-280.938C566.195,-243.811 577.472,-175.02 582.91,-141.851"/>
<polygon fill="midnightblue" stroke="midnightblue" points="586.407,-142.149 584.571,-131.715 579.5,-141.017 586.407,-142.149"/>
</g>
<!-- Node16 -->
<g id="node16" class="node"><title>Node16</title>
<g id="a_node16"><a xlink:href="../../d6/d2e/ITSMFT_2MFT_2base_2include_2MFTBase_2Geometry_8h.html" target="_top" xlink:title="MFTBase/Geometry.h">
<polygon fill="none" stroke="black" points="453.5,-168.5 453.5,-187.5 566.5,-187.5 566.5,-168.5 453.5,-168.5"/>
<text text-anchor="middle" x="510" y="-175.5" font-family="Helvetica,sans-Serif" font-size="10.00">MFTBase/Geometry.h</text>
</a>
</g>
</g>
<!-- Node1&#45;&gt;Node16 -->
<g id="edge20" class="edge"><title>Node1&#45;&gt;Node16</title>
<path fill="none" stroke="midnightblue" d="M546.912,-280.909C537.956,-256.184 524.494,-219.015 516.542,-197.061"/>
<polygon fill="midnightblue" stroke="midnightblue" points="519.821,-195.838 513.125,-187.628 513.24,-198.222 519.821,-195.838"/>
</g>
<!-- Node17 -->
<g id="node17" class="node"><title>Node17</title>
<g id="a_node17"><a xlink:href="../../dd/dd3/HeatExchanger_8h.html" target="_top" xlink:title="MFT heat exchanger builder. ">
<polygon fill="none" stroke="black" points="63,-56.5 63,-75.5 201,-75.5 201,-56.5 63,-56.5"/>
<text text-anchor="middle" x="132" y="-63.5" font-family="Helvetica,sans-Serif" font-size="10.00">MFTBase/HeatExchanger.h</text>
</a>
</g>
</g>
<!-- Node1&#45;&gt;Node17 -->
<g id="edge22" class="edge"><title>Node1&#45;&gt;Node17</title>
<path fill="none" stroke="midnightblue" d="M493.272,-300.561C421.451,-293.072 300.957,-276.63 202,-244 149.146,-226.572 130.684,-225.975 90,-188 63.0802,-162.873 38.8566,-144.045 57,-112 65.3466,-97.2584 80.662,-86.8192 95.2871,-79.7321"/>
<polygon fill="midnightblue" stroke="midnightblue" points="96.9971,-82.8025 104.718,-75.5474 94.158,-76.4041 96.9971,-82.8025"/>
</g>
<!-- Node18 -->
<g id="node18" class="node"><title>Node18</title>
<g id="a_node18"><a xlink:href="../../d0/d97/Support_8h.html" target="_top" xlink:title="Class describing geometry of one MFT half&#45;disk support. ">
<polygon fill="none" stroke="black" points="613,-224.5 613,-243.5 717,-243.5 717,-224.5 613,-224.5"/>
<text text-anchor="middle" x="665" y="-231.5" font-family="Helvetica,sans-Serif" font-size="10.00">MFTBase/Support.h</text>
</a>
</g>
</g>
<!-- Node1&#45;&gt;Node18 -->
<g id="edge26" class="edge"><title>Node1&#45;&gt;Node18</title>
<path fill="none" stroke="midnightblue" d="M594.429,-280.968C610.82,-270.291 629.341,-258.227 643.295,-249.138"/>
<polygon fill="midnightblue" stroke="midnightblue" points="645.269,-252.03 651.737,-243.639 641.448,-246.164 645.269,-252.03"/>
</g>
<!-- Node7 -->
<g id="node7" class="node"><title>Node7</title>
<polygon fill="none" stroke="#bfbfbf" points="99.5,-168.5 99.5,-187.5 180.5,-187.5 180.5,-168.5 99.5,-168.5"/>
<text text-anchor="middle" x="140" y="-175.5" font-family="Helvetica,sans-Serif" font-size="10.00">TXMLEngine.h</text>
</g>
<!-- Node6&#45;&gt;Node7 -->
<g id="edge6" class="edge"><title>Node6&#45;&gt;Node7</title>
<path fill="none" stroke="midnightblue" d="M271.281,-224.444C245.152,-215.399 203.741,-201.064 174.424,-190.916"/>
<polygon fill="midnightblue" stroke="midnightblue" points="175.198,-187.48 164.603,-187.516 172.908,-194.095 175.198,-187.48"/>
</g>
<!-- Node8 -->
<g id="node8" class="node"><title>Node8</title>
<g id="a_node8"><a xlink:href="../../d9/de7/LadderSegmentation_8h.html" target="_top" xlink:title="Description of the virtual segmentation of a ladder. ">
<polygon fill="none" stroke="black" points="199,-168.5 199,-187.5 359,-187.5 359,-168.5 199,-168.5"/>
<text text-anchor="middle" x="279" y="-175.5" font-family="Helvetica,sans-Serif" font-size="10.00">MFTBase/LadderSegmentation.h</text>
</a>
</g>
</g>
<!-- Node6&#45;&gt;Node8 -->
<g id="edge7" class="edge"><title>Node6&#45;&gt;Node8</title>
<path fill="none" stroke="midnightblue" d="M293.193,-224.083C290.915,-216.849 287.629,-206.409 284.792,-197.397"/>
<polygon fill="midnightblue" stroke="midnightblue" points="288.096,-196.239 281.755,-187.751 281.419,-198.341 288.096,-196.239"/>
</g>
<!-- Node10 -->
<g id="node10" class="node"><title>Node10</title>
<g id="a_node10"><a xlink:href="../../d3/de7/VSegmentation_8h.html" target="_top" xlink:title="Abstract base class for MFT Segmentation description. ">
<polygon fill="none" stroke="black" points="219.5,-56.5 219.5,-75.5 356.5,-75.5 356.5,-56.5 219.5,-56.5"/>
<text text-anchor="middle" x="288" y="-63.5" font-family="Helvetica,sans-Serif" font-size="10.00">MFTBase/VSegmentation.h</text>
</a>
</g>
</g>
<!-- Node6&#45;&gt;Node10 -->
<g id="edge14" class="edge"><title>Node6&#45;&gt;Node10</title>
<path fill="none" stroke="midnightblue" d="M321.504,-224.472C337.987,-217.478 358.139,-205.792 368,-188 372.309,-180.225 369.721,-176.721 368,-168 362.79,-141.603 361.2,-133.483 345,-112 335.895,-99.9263 322.811,-89.2884 311.473,-81.3911"/>
<polygon fill="midnightblue" stroke="midnightblue" points="313.131,-78.2903 302.865,-75.6701 309.257,-84.1202 313.131,-78.2903"/>
</g>
<!-- Node9 -->
<g id="node9" class="node"><title>Node9</title>
<polygon fill="none" stroke="#bfbfbf" points="66.5,-112.5 66.5,-131.5 151.5,-131.5 151.5,-112.5 66.5,-112.5"/>
<text text-anchor="middle" x="109" y="-119.5" font-family="Helvetica,sans-Serif" font-size="10.00">TClonesArray.h</text>
</g>
<!-- Node8&#45;&gt;Node9 -->
<g id="edge8" class="edge"><title>Node8&#45;&gt;Node9</title>
<path fill="none" stroke="midnightblue" d="M252.063,-168.444C223.34,-159.32 177.671,-144.813 145.679,-134.651"/>
<polygon fill="midnightblue" stroke="midnightblue" points="146.401,-131.208 135.811,-131.516 144.282,-137.88 146.401,-131.208"/>
</g>
<!-- Node8&#45;&gt;Node10 -->
<g id="edge9" class="edge"><title>Node8&#45;&gt;Node10</title>
<path fill="none" stroke="midnightblue" d="M293.952,-168.474C305.932,-160.702 321.873,-148.002 329,-132 337.031,-113.967 322.083,-95.0653 308.035,-82.3236"/>
<polygon fill="midnightblue" stroke="midnightblue" points="309.949,-79.3591 300.048,-75.5864 305.435,-84.7096 309.949,-79.3591"/>
</g>
<!-- Node12 -->
<g id="node12" class="node"><title>Node12</title>
<g id="a_node12"><a xlink:href="../../d3/dbd/ChipSegmentation_8h.html" target="_top" xlink:title="Chip (sensor) segmentation description. ">
<polygon fill="none" stroke="black" points="169.5,-112.5 169.5,-131.5 320.5,-131.5 320.5,-112.5 169.5,-112.5"/>
<text text-anchor="middle" x="245" y="-119.5" font-family="Helvetica,sans-Serif" font-size="10.00">MFTBase/ChipSegmentation.h</text>
</a>
</g>
</g>
<!-- Node8&#45;&gt;Node12 -->
<g id="edge12" class="edge"><title>Node8&#45;&gt;Node12</title>
<path fill="none" stroke="midnightblue" d="M273.386,-168.083C268.633,-160.534 261.682,-149.495 255.848,-140.23"/>
<polygon fill="midnightblue" stroke="midnightblue" points="258.8,-138.349 250.51,-131.751 252.876,-142.078 258.8,-138.349"/>
</g>
<!-- Node10&#45;&gt;Node2 -->
<g id="edge11" class="edge"><title>Node10&#45;&gt;Node2</title>
<path fill="none" stroke="midnightblue" d="M263.281,-56.4435C237.152,-47.3986 195.741,-33.064 166.424,-22.9158"/>
<polygon fill="midnightblue" stroke="midnightblue" points="167.198,-19.4801 156.603,-19.5164 164.908,-26.0951 167.198,-19.4801"/>
</g>
<!-- Node11 -->
<g id="node11" class="node"><title>Node11</title>
<polygon fill="none" stroke="#bfbfbf" points="433,-0.5 433,-19.5 495,-19.5 495,-0.5 433,-0.5"/>
<text text-anchor="middle" x="464" y="-7.5" font-family="Helvetica,sans-Serif" font-size="10.00">TNamed.h</text>
</g>
<!-- Node10&#45;&gt;Node11 -->
<g id="edge10" class="edge"><title>Node10&#45;&gt;Node11</title>
<path fill="none" stroke="midnightblue" d="M315.888,-56.4435C345.754,-47.2801 393.315,-32.6876 426.456,-22.5192"/>
<polygon fill="midnightblue" stroke="midnightblue" points="427.709,-25.7958 436.243,-19.5164 425.656,-19.1037 427.709,-25.7958"/>
</g>
<!-- Node12&#45;&gt;Node10 -->
<g id="edge13" class="edge"><title>Node12&#45;&gt;Node10</title>
<path fill="none" stroke="midnightblue" d="M252.101,-112.083C258.237,-104.377 267.27,-93.0333 274.739,-83.6531"/>
<polygon fill="midnightblue" stroke="midnightblue" points="277.54,-85.7542 281.032,-75.7511 272.064,-81.3936 277.54,-85.7542"/>
</g>
<!-- Node13&#45;&gt;Node11 -->
<g id="edge16" class="edge"><title>Node13&#45;&gt;Node11</title>
<path fill="none" stroke="midnightblue" d="M431.44,-56.083C436.949,-48.4554 445.031,-37.2645 451.765,-27.9408"/>
<polygon fill="midnightblue" stroke="midnightblue" points="454.662,-29.9071 457.68,-19.7511 448.987,-25.8087 454.662,-29.9071"/>
</g>
<!-- Node14 -->
<g id="node14" class="node"><title>Node14</title>
<polygon fill="none" stroke="#bfbfbf" points="260,-0.5 260,-19.5 342,-19.5 342,-0.5 260,-0.5"/>
<text text-anchor="middle" x="301" y="-7.5" font-family="Helvetica,sans-Serif" font-size="10.00">TGeoVolume.h</text>
</g>
<!-- Node13&#45;&gt;Node14 -->
<g id="edge17" class="edge"><title>Node13&#45;&gt;Node14</title>
<path fill="none" stroke="midnightblue" d="M405.352,-56.4435C385.035,-47.5961 353.097,-33.6875 329.902,-23.5865"/>
<polygon fill="midnightblue" stroke="midnightblue" points="331.122,-20.3002 320.556,-19.5164 328.327,-26.7181 331.122,-20.3002"/>
</g>
<!-- Node15&#45;&gt;Node11 -->
<g id="edge19" class="edge"><title>Node15&#45;&gt;Node11</title>
<path fill="none" stroke="midnightblue" d="M577.205,-112.437C564.222,-99.8612 539.079,-75.7494 517,-56 505.754,-45.9409 492.854,-34.9763 482.597,-26.3887"/>
<polygon fill="midnightblue" stroke="midnightblue" points="484.62,-23.5186 474.697,-19.8063 480.139,-28.8965 484.62,-23.5186"/>
</g>
<!-- Node16&#45;&gt;Node11 -->
<g id="edge21" class="edge"><title>Node16&#45;&gt;Node11</title>
<path fill="none" stroke="midnightblue" d="M508.768,-168.331C505.777,-148.237 497.378,-97.0635 484,-56 481.021,-46.855 476.798,-37.0573 472.999,-28.9465"/>
<polygon fill="midnightblue" stroke="midnightblue" points="476.053,-27.2223 468.541,-19.7513 469.754,-30.2764 476.053,-27.2223"/>
</g>
<!-- Node17&#45;&gt;Node2 -->
<g id="edge25" class="edge"><title>Node17&#45;&gt;Node2</title>
<path fill="none" stroke="midnightblue" d="M132,-56.083C132,-49.0059 132,-38.8611 132,-29.9865"/>
<polygon fill="midnightblue" stroke="midnightblue" points="135.5,-29.751 132,-19.7511 128.5,-29.7511 135.5,-29.751"/>
</g>
<!-- Node17&#45;&gt;Node11 -->
<g id="edge23" class="edge"><title>Node17&#45;&gt;Node11</title>
<path fill="none" stroke="midnightblue" d="M184.606,-56.4435C250.632,-45.7044 362.504,-27.5084 422.708,-17.7162"/>
<polygon fill="midnightblue" stroke="midnightblue" points="423.311,-21.1642 432.619,-16.1041 422.187,-14.255 423.311,-21.1642"/>
</g>
<!-- Node17&#45;&gt;Node14 -->
<g id="edge24" class="edge"><title>Node17&#45;&gt;Node14</title>
<path fill="none" stroke="midnightblue" d="M158.779,-56.4435C187.333,-47.3196 232.733,-32.8133 264.537,-22.6509"/>
<polygon fill="midnightblue" stroke="midnightblue" points="265.886,-25.8941 274.347,-19.5164 263.756,-19.2262 265.886,-25.8941"/>
</g>
<!-- Node18&#45;&gt;Node5 -->
<g id="edge28" class="edge"><title>Node18&#45;&gt;Node5</title>
<path fill="none" stroke="midnightblue" d="M677.211,-224.324C688.776,-216.107 706.375,-203.602 720.161,-193.807"/>
<polygon fill="midnightblue" stroke="midnightblue" points="722.443,-196.479 728.567,-187.834 718.388,-190.773 722.443,-196.479"/>
</g>
<!-- Node18&#45;&gt;Node11 -->
<g id="edge27" class="edge"><title>Node18&#45;&gt;Node11</title>
<path fill="none" stroke="midnightblue" d="M666.315,-224.463C669.094,-203.317 673.453,-147.646 649,-112 614.912,-62.3098 548.13,-34.7551 504.82,-21.419"/>
<polygon fill="midnightblue" stroke="midnightblue" points="505.735,-18.0398 495.153,-18.5576 503.748,-24.752 505.735,-18.0398"/>
</g>
</g>
</svg>
        <g id="navigator" transform="translate(0 0)" fill="#404254">
                <rect fill="#f2f5e9" fill-opacity="0.5" stroke="#606060" stroke-width=".5" x="0" y="0" width="60" height="60"/>
                <use id="zoomplus" xlink:href="#zoomPlus" x="17" y="9" onmousedown="handleZoom(evt,'in')"/>
                <use id="zoomminus" xlink:href="#zoomMin" x="42" y="9" onmousedown="handleZoom(evt,'out')"/>
                <use id="reset" xlink:href="#resetDef" x="30" y="36" onmousedown="handleReset()"/>
                <g id="arrowUp" xlink:href="#dirArrow" transform="translate(30 24)" onmousedown="handlePan(0,-1)">
                  <use xlink:href="#rim" fill="#404040">
                        <set attributeName="fill" to="#808080" begin="arrowUp.mouseover" end="arrowUp.mouseout"/>
                  </use>
                  <path fill="none" stroke="white" stroke-width="1.5" d="M0,-3.0v7 M-2.5,-0.5L0,-3.0L2.5,-0.5"/>
                </g>
                <g id="arrowRight" xlink:href="#dirArrow" transform="rotate(90) translate(36 -43)" onmousedown="handlePan(1,0)">
                  <use xlink:href="#rim" fill="#404040">
                        <set attributeName="fill" to="#808080" begin="arrowRight.mouseover" end="arrowRight.mouseout"/>
                  </use>
                  <path fill="none" stroke="white" stroke-width="1.5" d="M0,-3.0v7 M-2.5,-0.5L0,-3.0L2.5,-0.5"/>
                </g>
                <g id="arrowDown" xlink:href="#dirArrow" transform="rotate(180) translate(-30 -48)" onmousedown="handlePan(0,1)">
                  <use xlink:href="#rim" fill="#404040">
                        <set attributeName="fill" to="#808080" begin="arrowDown.mouseover" end="arrowDown.mouseout"/>
                  </use>
                  <path fill="none" stroke="white" stroke-width="1.5" d="M0,-3.0v7 M-2.5,-0.5L0,-3.0L2.5,-0.5"/>
                </g>
                <g id="arrowLeft" xlink:href="#dirArrow" transform="rotate(270) translate(-36 17)" onmousedown="handlePan(-1,0)">
                  <use xlink:href="#rim" fill="#404040">
                        <set attributeName="fill" to="#808080" begin="arrowLeft.mouseover" end="arrowLeft.mouseout"/>
                  </use>
                  <path fill="none" stroke="white" stroke-width="1.5" d="M0,-3.0v7 M-2.5,-0.5L0,-3.0L2.5,-0.5"/>
                </g>
        </g>
        <svg viewBox="0 0 15 15" width="100%" height="30px" preserveAspectRatio="xMaxYMin meet">
         <g id="arrow_out" transform="scale(0.3 0.3)">
          <a xlink:href="HalfDisk_8cxx__incl_org.svg" target="_base">
           <rect id="button" ry="5" rx="5" y="6" x="6" height="38" width="38"
                fill="#f2f5e9" fill-opacity="0.5" stroke="#606060" stroke-width="1.0"/>
           <path id="arrow"
             d="M 11.500037,31.436501 C 11.940474,20.09759 22.043105,11.32322 32.158766,21.979434 L 37.068811,17.246167 C 37.068811,17.246167 37.088388,32 37.088388,32 L 22.160133,31.978069 C 22.160133,31.978069 26.997745,27.140456 26.997745,27.140456 C 18.528582,18.264221 13.291696,25.230495 11.500037,31.436501 z"
             style="fill:#404040;"/>
          </a>
         </g>
        </svg>
</svg>
