<?xml version="1.0" encoding="UTF-8" standalone="no"?>
<!DOCTYPE svg PUBLIC "-//W3C//DTD SVG 1.1//EN"
 "http://www.w3.org/Graphics/SVG/1.1/DTD/svg11.dtd">
<!-- Generated by graphviz version 2.36.0 (20140111.2315)
 -->
<!-- Title: o2::DataFormat::TPC::ClusterNativeContainer Pages: 1 -->
<svg width="223pt" height="206pt"
 viewBox="0.00 0.00 223.00 206.00" xmlns="http://www.w3.org/2000/svg" xmlns:xlink="http://www.w3.org/1999/xlink">
<g id="graph0" class="graph" transform="scale(1 1) rotate(0) translate(4 202)">
<title>o2::DataFormat::TPC::ClusterNativeContainer</title>
<!-- Node1 -->
<g id="node1" class="node"><title>Node1</title>
<polygon fill="#bfbfbf" stroke="black" points="48.5,-1 48.5,-69 173.5,-69 173.5,-1 48.5,-1"/>
<text text-anchor="start" x="56.5" y="-57" font-family="Helvetica,sans-Serif" font-size="10.00">o2::DataFormat::TPC</text>
<text text-anchor="middle" x="111" y="-46" font-family="Helvetica,sans-Serif" font-size="10.00">::ClusterNativeContainer</text>
<polyline fill="none" stroke="black" points="48.5,-39 173.5,-39 "/>
<text text-anchor="middle" x="111" y="-27" font-family="Helvetica,sans-Serif" font-size="10.00"> </text>
<polyline fill="none" stroke="black" points="48.5,-20 173.5,-20 "/>
<text text-anchor="start" x="56.5" y="-8" font-family="Helvetica,sans-Serif" font-size="10.00">+ sortComparison()</text>
</g>
<!-- Node2 -->
<g id="node2" class="node"><title>Node2</title>
<polygon fill="none" stroke="#bfbfbf" points="-0.5,-129 -0.5,-197 120.5,-197 120.5,-129 -0.5,-129"/>
<text text-anchor="start" x="7.5" y="-185" font-family="Helvetica,sans-Serif" font-size="10.00">vector&lt; o2::DataFormat</text>
<text text-anchor="middle" x="60" y="-174" font-family="Helvetica,sans-Serif" font-size="10.00">::TPC::ClusterNative &gt;</text>
<polyline fill="none" stroke="#bfbfbf" points="-0.5,-167 120.5,-167 "/>
<text text-anchor="middle" x="60" y="-155" font-family="Helvetica,sans-Serif" font-size="10.00"> </text>
<polyline fill="none" stroke="#bfbfbf" points="-0.5,-148 120.5,-148 "/>
<text text-anchor="middle" x="60" y="-136" font-family="Helvetica,sans-Serif" font-size="10.00"> </text>
</g>
<!-- Node2&#45;&gt;Node1 -->
<g id="edge1" class="edge"><title>Node2&#45;&gt;Node1</title>
<path fill="none" stroke="#404040" d="M73.3996,-128.895C79.3842,-114.11 86.5264,-96.4642 92.9704,-80.5437"/>
<polygon fill="none" stroke="#404040" points="93.0104,-80.4448 91.5538,-73.3823 97.5128,-69.3214 98.9694,-76.3839 93.0104,-80.4448"/>
<text text-anchor="middle" x="111" y="-96.5" font-family="Helvetica,sans-Serif" font-size="10.00"> +clusters</text>
</g>
<!-- Node3 -->
<g id="node3" class="node"><title>Node3</title>
<polygon fill="none" stroke="#bfbfbf" points="139,-134.5 139,-191.5 185,-191.5 185,-134.5 139,-134.5"/>
<text text-anchor="middle" x="162" y="-179.5" font-family="Helvetica,sans-Serif" font-size="10.00">uint8_t</text>
<polyline fill="none" stroke="#bfbfbf" points="139,-172.5 185,-172.5 "/>
<text text-anchor="middle" x="162" y="-160.5" font-family="Helvetica,sans-Serif" font-size="10.00"> </text>
<polyline fill="none" stroke="#bfbfbf" points="139,-153.5 185,-153.5 "/>
<text text-anchor="middle" x="162" y="-141.5" font-family="Helvetica,sans-Serif" font-size="10.00"> </text>
</g>
<!-- Node3&#45;&gt;Node1 -->
<g id="edge2" class="edge"><title>Node3&#45;&gt;Node1</title>
<path fill="none" stroke="#404040" d="M153.628,-134.254C149.142,-120.22 143.258,-103.021 137,-88 135.959,-85.5018 134.851,-82.9565 133.702,-80.4014"/>
<polygon fill="none" stroke="#404040" points="133.568,-80.1161 127.399,-76.3819 128.473,-69.2513 134.642,-72.9854 133.568,-80.1161"/>
<text text-anchor="middle" x="180" y="-102" font-family="Helvetica,sans-Serif" font-size="10.00"> +sector</text>
<text text-anchor="middle" x="180" y="-91" font-family="Helvetica,sans-Serif" font-size="10.00">+globalPadRow</text>
</g>
</g>
</svg>
