<?xml version="1.0" encoding="UTF-8" standalone="no"?>
<!DOCTYPE svg PUBLIC "-//W3C//DTD SVG 1.1//EN"
 "http://www.w3.org/Graphics/SVG/1.1/DTD/svg11.dtd">
<!-- Generated by graphviz version 2.36.0 (20140111.2315)
 -->
<!-- Title: /home/travis/build/AliceO2Group/AliceO2/Utilities/QC/QCViewer/src/ViewerDevice.cxx Pages: 1 -->
<svg width="1038pt" height="174pt"
 viewBox="0.00 0.00 1038.00 174.00" xmlns="http://www.w3.org/2000/svg" xmlns:xlink="http://www.w3.org/1999/xlink">
<g id="graph0" class="graph" transform="scale(1 1) rotate(0) translate(4 170)">
<title>/home/travis/build/AliceO2Group/AliceO2/Utilities/QC/QCViewer/src/ViewerDevice.cxx</title>
<!-- Node1 -->
<g id="node1" class="node"><title>Node1</title>
<polygon fill="#bfbfbf" stroke="black" points="167.5,-113 167.5,-165 286.5,-165 286.5,-113 167.5,-113"/>
<text text-anchor="start" x="175.5" y="-153" font-family="Helvetica,sans-Serif" font-size="10.00">/home/travis/build</text>
<text text-anchor="start" x="175.5" y="-142" font-family="Helvetica,sans-Serif" font-size="10.00">/AliceO2Group/AliceO2</text>
<text text-anchor="start" x="175.5" y="-131" font-family="Helvetica,sans-Serif" font-size="10.00">/Utilities/QC/QCViewer</text>
<text text-anchor="middle" x="227" y="-120" font-family="Helvetica,sans-Serif" font-size="10.00">/src/ViewerDevice.cxx</text>
</g>
<!-- Node2 -->
<g id="node2" class="node"><title>Node2</title>
<polygon fill="none" stroke="#bfbfbf" points="0,-56.5 0,-75.5 46,-75.5 46,-56.5 0,-56.5"/>
<text text-anchor="middle" x="23" y="-63.5" font-family="Helvetica,sans-Serif" font-size="10.00">chrono</text>
</g>
<!-- Node1&#45;&gt;Node2 -->
<g id="edge1" class="edge"><title>Node1&#45;&gt;Node2</title>
<path fill="none" stroke="midnightblue" d="M167.446,-117.273C130.994,-104.586 85.7377,-88.8352 55.6973,-78.3799"/>
<polygon fill="midnightblue" stroke="midnightblue" points="56.7225,-75.0309 46.1277,-75.0493 54.4216,-81.6419 56.7225,-75.0309"/>
</g>
<!-- Node3 -->
<g id="node3" class="node"><title>Node3</title>
<polygon fill="none" stroke="#bfbfbf" points="64,-56.5 64,-75.5 104,-75.5 104,-56.5 64,-56.5"/>
<text text-anchor="middle" x="84" y="-63.5" font-family="Helvetica,sans-Serif" font-size="10.00">limits</text>
</g>
<!-- Node1&#45;&gt;Node3 -->
<g id="edge2" class="edge"><title>Node1&#45;&gt;Node3</title>
<path fill="none" stroke="midnightblue" d="M176.584,-112.968C154.261,-101.885 128.927,-89.3062 110.409,-80.1123"/>
<polygon fill="midnightblue" stroke="midnightblue" points="111.913,-76.9511 101.399,-75.6389 108.8,-83.2209 111.913,-76.9511"/>
</g>
<!-- Node4 -->
<g id="node4" class="node"><title>Node4</title>
<polygon fill="none" stroke="#bfbfbf" points="122,-56.5 122,-75.5 166,-75.5 166,-56.5 122,-56.5"/>
<text text-anchor="middle" x="144" y="-63.5" font-family="Helvetica,sans-Serif" font-size="10.00">thread</text>
</g>
<!-- Node1&#45;&gt;Node4 -->
<g id="edge3" class="edge"><title>Node1&#45;&gt;Node4</title>
<path fill="none" stroke="midnightblue" d="M197.504,-112.768C185.591,-102.578 172.235,-91.1531 161.847,-82.2671"/>
<polygon fill="midnightblue" stroke="midnightblue" points="164.111,-79.5979 154.237,-75.7572 159.561,-84.9172 164.111,-79.5979"/>
</g>
<!-- Node5 -->
<g id="node5" class="node"><title>Node5</title>
<polygon fill="none" stroke="#bfbfbf" points="184,-56.5 184,-75.5 270,-75.5 270,-56.5 184,-56.5"/>
<text text-anchor="middle" x="227" y="-63.5" font-family="Helvetica,sans-Serif" font-size="10.00">FairMQLogger.h</text>
</g>
<!-- Node1&#45;&gt;Node5 -->
<g id="edge4" class="edge"><title>Node1&#45;&gt;Node5</title>
<path fill="none" stroke="midnightblue" d="M227,-112.768C227,-103.89 227,-94.0737 227,-85.8165"/>
<polygon fill="midnightblue" stroke="midnightblue" points="230.5,-85.7571 227,-75.7572 223.5,-85.7572 230.5,-85.7571"/>
</g>
<!-- Node6 -->
<g id="node6" class="node"><title>Node6</title>
<polygon fill="none" stroke="#bfbfbf" points="288.5,-56.5 288.5,-75.5 353.5,-75.5 353.5,-56.5 288.5,-56.5"/>
<text text-anchor="middle" x="321" y="-63.5" font-family="Helvetica,sans-Serif" font-size="10.00">TSystem.h</text>
</g>
<!-- Node1&#45;&gt;Node6 -->
<g id="edge5" class="edge"><title>Node1&#45;&gt;Node6</title>
<path fill="none" stroke="midnightblue" d="M260.141,-112.968C273.788,-102.66 289.147,-91.0589 301.022,-82.09"/>
<polygon fill="midnightblue" stroke="midnightblue" points="303.467,-84.6296 309.337,-75.8095 299.248,-79.0439 303.467,-84.6296"/>
</g>
<!-- Node7 -->
<g id="node7" class="node"><title>Node7</title>
<g id="a_node7"><a xlink:href="../../d5/dde/TMessageWrapper_8h.html" target="_top" xlink:title="QCCommon/TMessageWrapper.h">
<polygon fill="none" stroke="black" points="371.5,-56.5 371.5,-75.5 536.5,-75.5 536.5,-56.5 371.5,-56.5"/>
<text text-anchor="middle" x="454" y="-63.5" font-family="Helvetica,sans-Serif" font-size="10.00">QCCommon/TMessageWrapper.h</text>
</a>
</g>
</g>
<!-- Node1&#45;&gt;Node7 -->
<g id="edge6" class="edge"><title>Node1&#45;&gt;Node7</title>
<path fill="none" stroke="midnightblue" d="M286.642,-119.346C327.889,-106.444 381.491,-89.6791 416.779,-78.6418"/>
<polygon fill="midnightblue" stroke="midnightblue" points="418.165,-81.8755 426.664,-75.5499 416.075,-75.1947 418.165,-81.8755"/>
</g>
<!-- Node9 -->
<g id="node9" class="node"><title>Node9</title>
<g id="a_node9"><a xlink:href="../../d5/d8d/ViewerDevice_8h.html" target="_top" xlink:title="QCViewer/ViewerDevice.h">
<polygon fill="none" stroke="black" points="635,-56.5 635,-75.5 769,-75.5 769,-56.5 635,-56.5"/>
<text text-anchor="middle" x="702" y="-63.5" font-family="Helvetica,sans-Serif" font-size="10.00">QCViewer/ViewerDevice.h</text>
</a>
</g>
</g>
<!-- Node1&#45;&gt;Node9 -->
<g id="edge8" class="edge"><title>Node1&#45;&gt;Node9</title>
<path fill="none" stroke="midnightblue" d="M286.678,-129.08C375.42,-115.815 541.663,-90.9662 634.648,-77.0674"/>
<polygon fill="midnightblue" stroke="midnightblue" points="635.416,-80.4916 644.788,-75.5516 634.381,-73.5685 635.416,-80.4916"/>
</g>
<!-- Node8 -->
<g id="node8" class="node"><title>Node8</title>
<polygon fill="none" stroke="#bfbfbf" points="377.5,-0.5 377.5,-19.5 448.5,-19.5 448.5,-0.5 377.5,-0.5"/>
<text text-anchor="middle" x="413" y="-7.5" font-family="Helvetica,sans-Serif" font-size="10.00">TMessage.h</text>
</g>
<!-- Node7&#45;&gt;Node8 -->
<g id="edge7" class="edge"><title>Node7&#45;&gt;Node8</title>
<path fill="none" stroke="midnightblue" d="M447.23,-56.083C441.438,-48.4554 432.942,-37.2645 425.862,-27.9408"/>
<polygon fill="midnightblue" stroke="midnightblue" points="428.479,-25.5991 419.644,-19.7511 422.904,-29.8321 428.479,-25.5991"/>
</g>
<!-- Node10 -->
<g id="node10" class="node"><title>Node10</title>
<polygon fill="none" stroke="#bfbfbf" points="467,-0.5 467,-19.5 519,-19.5 519,-0.5 467,-0.5"/>
<text text-anchor="middle" x="493" y="-7.5" font-family="Helvetica,sans-Serif" font-size="10.00">memory</text>
</g>
<!-- Node9&#45;&gt;Node10 -->
<g id="edge9" class="edge"><title>Node9&#45;&gt;Node10</title>
<path fill="none" stroke="midnightblue" d="M668.883,-56.4435C630.659,-46.5674 568.026,-30.3846 528.729,-20.2314"/>
<polygon fill="midnightblue" stroke="midnightblue" points="529.586,-16.838 519.028,-17.7251 527.835,-23.6154 529.586,-16.838"/>
</g>
<!-- Node11 -->
<g id="node11" class="node"><title>Node11</title>
<polygon fill="none" stroke="#bfbfbf" points="537.5,-0.5 537.5,-19.5 578.5,-19.5 578.5,-0.5 537.5,-0.5"/>
<text text-anchor="middle" x="558" y="-7.5" font-family="Helvetica,sans-Serif" font-size="10.00">string</text>
</g>
<!-- Node9&#45;&gt;Node11 -->
<g id="edge10" class="edge"><title>Node9&#45;&gt;Node11</title>
<path fill="none" stroke="midnightblue" d="M679.183,-56.4435C654.603,-47.2262 615.375,-32.5157 588.241,-22.3402"/>
<polygon fill="midnightblue" stroke="midnightblue" points="589.433,-19.0492 578.84,-18.8151 586.975,-25.6036 589.433,-19.0492"/>
</g>
<!-- Node12 -->
<g id="node12" class="node"><title>Node12</title>
<polygon fill="none" stroke="#bfbfbf" points="596.5,-0.5 596.5,-19.5 679.5,-19.5 679.5,-0.5 596.5,-0.5"/>
<text text-anchor="middle" x="638" y="-7.5" font-family="Helvetica,sans-Serif" font-size="10.00">unordered_map</text>
</g>
<!-- Node9&#45;&gt;Node12 -->
<g id="edge11" class="edge"><title>Node9&#45;&gt;Node12</title>
<path fill="none" stroke="midnightblue" d="M691.717,-56.324C682.164,-48.2631 667.72,-36.0765 656.216,-26.3695"/>
<polygon fill="midnightblue" stroke="midnightblue" points="658.37,-23.6076 648.47,-19.8339 653.856,-28.9577 658.37,-23.6076"/>
</g>
<!-- Node13 -->
<g id="node13" class="node"><title>Node13</title>
<polygon fill="none" stroke="#bfbfbf" points="698,-0.5 698,-19.5 786,-19.5 786,-0.5 698,-0.5"/>
<text text-anchor="middle" x="742" y="-7.5" font-family="Helvetica,sans-Serif" font-size="10.00">FairMQDevice.h</text>
</g>
<!-- Node9&#45;&gt;Node13 -->
<g id="edge12" class="edge"><title>Node9&#45;&gt;Node13</title>
<path fill="none" stroke="midnightblue" d="M708.605,-56.083C714.255,-48.4554 722.545,-37.2645 729.451,-27.9408"/>
<polygon fill="midnightblue" stroke="midnightblue" points="732.378,-29.87 735.518,-19.7511 726.753,-25.7034 732.378,-29.87"/>
</g>
<!-- Node14 -->
<g id="node14" class="node"><title>Node14</title>
<polygon fill="none" stroke="#bfbfbf" points="803.5,-0.5 803.5,-19.5 882.5,-19.5 882.5,-0.5 803.5,-0.5"/>
<text text-anchor="middle" x="843" y="-7.5" font-family="Helvetica,sans-Serif" font-size="10.00">TApplication.h</text>
</g>
<!-- Node9&#45;&gt;Node14 -->
<g id="edge13" class="edge"><title>Node9&#45;&gt;Node14</title>
<path fill="none" stroke="midnightblue" d="M724.342,-56.4435C747.753,-47.4776 784.736,-33.314 811.19,-23.1827"/>
<polygon fill="midnightblue" stroke="midnightblue" points="812.676,-26.3615 820.763,-19.5164 810.172,-19.8245 812.676,-26.3615"/>
</g>
<!-- Node15 -->
<g id="node15" class="node"><title>Node15</title>
<polygon fill="none" stroke="#bfbfbf" points="900.5,-0.5 900.5,-19.5 965.5,-19.5 965.5,-0.5 900.5,-0.5"/>
<text text-anchor="middle" x="933" y="-7.5" font-family="Helvetica,sans-Serif" font-size="10.00">TCanvas.h</text>
</g>
<!-- Node9&#45;&gt;Node15 -->
<g id="edge14" class="edge"><title>Node9&#45;&gt;Node15</title>
<path fill="none" stroke="midnightblue" d="M738.603,-56.4435C779.824,-46.8073 846.729,-31.1672 890.3,-20.9819"/>
<polygon fill="midnightblue" stroke="midnightblue" points="891.363,-24.3278 900.304,-18.6433 889.769,-17.5116 891.363,-24.3278"/>
</g>
<!-- Node16 -->
<g id="node16" class="node"><title>Node16</title>
<polygon fill="none" stroke="#bfbfbf" points="983.5,-0.5 983.5,-19.5 1030.5,-19.5 1030.5,-0.5 983.5,-0.5"/>
<text text-anchor="middle" x="1007" y="-7.5" font-family="Helvetica,sans-Serif" font-size="10.00">TList.h</text>
</g>
<!-- Node9&#45;&gt;Node16 -->
<g id="edge15" class="edge"><title>Node9&#45;&gt;Node16</title>
<path fill="none" stroke="midnightblue" d="M764.734,-56.482C817.817,-48.8507 896.067,-36.6102 973.368,-19.9439"/>
<polygon fill="midnightblue" stroke="midnightblue" points="974.255,-23.3327 983.279,-17.7812 972.762,-16.4937 974.255,-23.3327"/>
</g>
</g>
</svg>
