<?xml version="1.0" encoding="UTF-8" standalone="no"?>
<!DOCTYPE svg PUBLIC "-//W3C//DTD SVG 1.1//EN"
 "http://www.w3.org/Graphics/SVG/1.1/DTD/svg11.dtd">
<!-- Generated by graphviz version 2.36.0 (20140111.2315)
 -->
<!-- Title: /home/travis/build/AliceO2Group/AliceO2/Detectors/ITSMFT/ITS/reconstruction/include/ITSReconstruction/CookedTracker.h Pages: 1 -->
<svg width="2739pt" height="500pt"
 viewBox="0.00 0.00 2739.00 500.00" xmlns="http://www.w3.org/2000/svg" xmlns:xlink="http://www.w3.org/1999/xlink">
<g id="graph0" class="graph" transform="scale(1 1) rotate(0) translate(4 496)">
<title>/home/travis/build/AliceO2Group/AliceO2/Detectors/ITSMFT/ITS/reconstruction/include/ITSReconstruction/CookedTracker.h</title>
<!-- Node1 -->
<g id="node1" class="node"><title>Node1</title>
<polygon fill="#bfbfbf" stroke="black" points="681.5,-428.5 681.5,-491.5 860.5,-491.5 860.5,-428.5 681.5,-428.5"/>
<text text-anchor="start" x="689.5" y="-479.5" font-family="Helvetica,sans-Serif" font-size="10.00">/home/travis/build</text>
<text text-anchor="start" x="689.5" y="-468.5" font-family="Helvetica,sans-Serif" font-size="10.00">/AliceO2Group/AliceO2</text>
<text text-anchor="start" x="689.5" y="-457.5" font-family="Helvetica,sans-Serif" font-size="10.00">/Detectors/ITSMFT/ITS</text>
<text text-anchor="start" x="689.5" y="-446.5" font-family="Helvetica,sans-Serif" font-size="10.00">/reconstruction/include</text>
<text text-anchor="middle" x="771" y="-435.5" font-family="Helvetica,sans-Serif" font-size="10.00">/ITSReconstruction/CookedTracker.h</text>
</g>
<!-- Node2 -->
<g id="node2" class="node"><title>Node2</title>
<polygon fill="none" stroke="#bfbfbf" points="35,-136.5 35,-155.5 79,-155.5 79,-136.5 35,-136.5"/>
<text text-anchor="middle" x="57" y="-143.5" font-family="Helvetica,sans-Serif" font-size="10.00">vector</text>
</g>
<!-- Node1&#45;&gt;Node2 -->
<g id="edge1" class="edge"><title>Node1&#45;&gt;Node2</title>
<path fill="none" stroke="midnightblue" d="M681.426,-451.56C478.259,-433.482 0,-383.638 0,-315 0,-315 0,-315 0,-257 0,-220.3 25.321,-183.657 42.2099,-163.297"/>
<polygon fill="midnightblue" stroke="midnightblue" points="44.9535,-165.475 48.8333,-155.616 39.6522,-160.904 44.9535,-165.475"/>
</g>
<!-- Node3 -->
<g id="node3" class="node"><title>Node3</title>
<g id="a_node3"><a xlink:href="../../df/d9a/ITS_2base_2include_2ITSBase_2GeometryTGeo_8h.html" target="_top" xlink:title="ITSBase/GeometryTGeo.h">
<polygon fill="none" stroke="black" points="752.5,-304.5 752.5,-323.5 885.5,-323.5 885.5,-304.5 752.5,-304.5"/>
<text text-anchor="middle" x="819" y="-311.5" font-family="Helvetica,sans-Serif" font-size="10.00">ITSBase/GeometryTGeo.h</text>
</a>
</g>
</g>
<!-- Node1&#45;&gt;Node3 -->
<g id="edge2" class="edge"><title>Node1&#45;&gt;Node3</title>
<path fill="none" stroke="midnightblue" d="M784.893,-428.328C789.718,-417.041 794.934,-404.066 799,-392 805.601,-372.41 811.319,-349.406 814.931,-333.677"/>
<polygon fill="midnightblue" stroke="midnightblue" points="818.404,-334.185 817.172,-323.662 811.573,-332.657 818.404,-334.185"/>
</g>
<!-- Node24 -->
<g id="node24" class="node"><title>Node24</title>
<g id="a_node24"><a xlink:href="../../dd/d76/Cartesian3D_8h.html" target="_top" xlink:title="MathUtils/Cartesian3D.h">
<polygon fill="none" stroke="black" points="1653.5,-136.5 1653.5,-155.5 1778.5,-155.5 1778.5,-136.5 1653.5,-136.5"/>
<text text-anchor="middle" x="1716" y="-143.5" font-family="Helvetica,sans-Serif" font-size="10.00">MathUtils/Cartesian3D.h</text>
</a>
</g>
</g>
<!-- Node1&#45;&gt;Node24 -->
<g id="edge52" class="edge"><title>Node1&#45;&gt;Node24</title>
<path fill="none" stroke="midnightblue" d="M860.59,-452.93C1145.96,-432.683 2019.7,-363.32 2100,-268 2187.12,-164.582 1923.27,-148.369 1789.15,-146.62"/>
<polygon fill="midnightblue" stroke="midnightblue" points="1788.98,-143.118 1778.94,-146.511 1788.91,-150.117 1788.98,-143.118"/>
</g>
<!-- Node37 -->
<g id="node37" class="node"><title>Node37</title>
<g id="a_node37"><a xlink:href="../../d8/ddd/CookedTrack_8h.html" target="_top" xlink:title="Definition of the ITS cooked track. ">
<polygon fill="none" stroke="black" points="655.5,-361 655.5,-391 790.5,-391 790.5,-361 655.5,-361"/>
<text text-anchor="start" x="663.5" y="-379" font-family="Helvetica,sans-Serif" font-size="10.00">ITSReconstruction/Cooked</text>
<text text-anchor="middle" x="723" y="-368" font-family="Helvetica,sans-Serif" font-size="10.00">Track.h</text>
</a>
</g>
</g>
<!-- Node1&#45;&gt;Node37 -->
<g id="edge53" class="edge"><title>Node1&#45;&gt;Node37</title>
<path fill="none" stroke="midnightblue" d="M753.127,-428.466C747.646,-419.103 741.708,-408.96 736.565,-400.173"/>
<polygon fill="midnightblue" stroke="midnightblue" points="739.427,-398.134 731.354,-391.272 733.385,-401.67 739.427,-398.134"/>
</g>
<!-- Node3&#45;&gt;Node2 -->
<g id="edge3" class="edge"><title>Node3&#45;&gt;Node2</title>
<path fill="none" stroke="midnightblue" d="M752.474,-311.084C594.434,-305.388 201.706,-284.161 95,-212 78.7934,-201.04 68.5481,-180.677 62.8333,-165.653"/>
<polygon fill="midnightblue" stroke="midnightblue" points="66.026,-164.176 59.4522,-155.867 59.4098,-166.462 66.026,-164.176"/>
</g>
<!-- Node4 -->
<g id="node4" class="node"><title>Node4</title>
<polygon fill="none" stroke="#bfbfbf" points="1073,-6.5 1073,-25.5 1111,-25.5 1111,-6.5 1073,-6.5"/>
<text text-anchor="middle" x="1092" y="-13.5" font-family="Helvetica,sans-Serif" font-size="10.00">array</text>
</g>
<!-- Node3&#45;&gt;Node4 -->
<g id="edge4" class="edge"><title>Node3&#45;&gt;Node4</title>
<path fill="none" stroke="midnightblue" d="M794.016,-304.467C756.766,-289.972 691,-256.767 691,-203 691,-203 691,-203 691,-145 691,-89.2581 738.971,-90.4322 790,-68 883.551,-26.875 1006.85,-18.7542 1062.5,-17.2609"/>
<polygon fill="midnightblue" stroke="midnightblue" points="1062.78,-20.7559 1072.7,-17.0429 1062.63,-13.7575 1062.78,-20.7559"/>
</g>
<!-- Node5 -->
<g id="node5" class="node"><title>Node5</title>
<polygon fill="none" stroke="#bfbfbf" points="796.5,-192.5 796.5,-211.5 837.5,-211.5 837.5,-192.5 796.5,-192.5"/>
<text text-anchor="middle" x="817" y="-199.5" font-family="Helvetica,sans-Serif" font-size="10.00">string</text>
</g>
<!-- Node3&#45;&gt;Node5 -->
<g id="edge5" class="edge"><title>Node3&#45;&gt;Node5</title>
<path fill="none" stroke="midnightblue" d="M809.98,-304.34C801.928,-295.932 790.702,-282.363 786,-268 780.32,-250.651 791.205,-231.946 801.606,-219.077"/>
<polygon fill="midnightblue" stroke="midnightblue" points="804.25,-221.37 808.192,-211.535 798.978,-216.765 804.25,-221.37"/>
</g>
<!-- Node6 -->
<g id="node6" class="node"><title>Node6</title>
<polygon fill="none" stroke="#bfbfbf" points="1402,-74.5 1402,-93.5 1478,-93.5 1478,-74.5 1402,-74.5"/>
<text text-anchor="middle" x="1440" y="-81.5" font-family="Helvetica,sans-Serif" font-size="10.00">TGeoMatrix.h</text>
</g>
<!-- Node3&#45;&gt;Node6 -->
<g id="edge6" class="edge"><title>Node3&#45;&gt;Node6</title>
<path fill="none" stroke="midnightblue" d="M885.626,-310.035C947.554,-305.653 1041.62,-294.81 1119,-268 1242,-225.386 1371.69,-135.347 1420.19,-99.8427"/>
<polygon fill="midnightblue" stroke="midnightblue" points="1422.56,-102.44 1428.53,-93.6848 1418.4,-96.8087 1422.56,-102.44"/>
</g>
<!-- Node7 -->
<g id="node7" class="node"><title>Node7</title>
<polygon fill="none" stroke="#bfbfbf" points="719.5,-192.5 719.5,-211.5 778.5,-211.5 778.5,-192.5 719.5,-192.5"/>
<text text-anchor="middle" x="749" y="-199.5" font-family="Helvetica,sans-Serif" font-size="10.00">TObject.h</text>
</g>
<!-- Node3&#45;&gt;Node7 -->
<g id="edge7" class="edge"><title>Node3&#45;&gt;Node7</title>
<path fill="none" stroke="midnightblue" d="M810.446,-304.209C802.247,-295.492 789.845,-281.52 781,-268 771.219,-253.051 762.441,-234.681 756.564,-221.289"/>
<polygon fill="midnightblue" stroke="midnightblue" points="759.65,-219.602 752.509,-211.775 753.211,-222.347 759.65,-219.602"/>
</g>
<!-- Node8 -->
<g id="node8" class="node"><title>Node8</title>
<g id="a_node8"><a xlink:href="../../d6/d31/DetID_8h.html" target="_top" xlink:title="DetectorsBase/DetID.h">
<polygon fill="none" stroke="black" points="902.5,-136.5 902.5,-155.5 1021.5,-155.5 1021.5,-136.5 902.5,-136.5"/>
<text text-anchor="middle" x="962" y="-143.5" font-family="Helvetica,sans-Serif" font-size="10.00">DetectorsBase/DetID.h</text>
</a>
</g>
</g>
<!-- Node3&#45;&gt;Node8 -->
<g id="edge8" class="edge"><title>Node3&#45;&gt;Node8</title>
<path fill="none" stroke="midnightblue" d="M885.765,-307.423C912.172,-301.612 940.183,-290.194 957,-268 968.822,-252.398 966.091,-195.473 963.724,-165.596"/>
<polygon fill="midnightblue" stroke="midnightblue" points="967.209,-165.275 962.865,-155.612 960.235,-165.875 967.209,-165.275"/>
</g>
<!-- Node9 -->
<g id="node9" class="node"><title>Node9</title>
<polygon fill="none" stroke="#bfbfbf" points="1120,-74.5 1120,-93.5 1176,-93.5 1176,-74.5 1120,-74.5"/>
<text text-anchor="middle" x="1148" y="-81.5" font-family="Helvetica,sans-Serif" font-size="10.00">Rtypes.h</text>
</g>
<!-- Node3&#45;&gt;Node9 -->
<g id="edge51" class="edge"><title>Node3&#45;&gt;Node9</title>
<path fill="none" stroke="midnightblue" d="M874.332,-304.451C960.595,-289.86 1120.72,-257.277 1154,-212 1177.55,-179.953 1164.98,-130.107 1155.47,-103.39"/>
<polygon fill="midnightblue" stroke="midnightblue" points="1158.63,-101.876 1151.81,-93.7716 1152.09,-104.363 1158.63,-101.876"/>
</g>
<!-- Node14 -->
<g id="node14" class="node"><title>Node14</title>
<g id="a_node14"><a xlink:href="../../d9/ded/Utils_8h.html" target="_top" xlink:title="DetectorsBase/Utils.h">
<polygon fill="none" stroke="black" points="1232.5,-74.5 1232.5,-93.5 1345.5,-93.5 1345.5,-74.5 1232.5,-74.5"/>
<text text-anchor="middle" x="1289" y="-81.5" font-family="Helvetica,sans-Serif" font-size="10.00">DetectorsBase/Utils.h</text>
</a>
</g>
</g>
<!-- Node3&#45;&gt;Node14 -->
<g id="edge19" class="edge"><title>Node3&#45;&gt;Node14</title>
<path fill="none" stroke="midnightblue" d="M885.696,-308.942C940.462,-303.912 1019.26,-292.731 1084,-268 1173.53,-233.797 1248.79,-140.579 1277.04,-102.033"/>
<polygon fill="midnightblue" stroke="midnightblue" points="1279.91,-104.036 1282.91,-93.8751 1274.23,-99.9472 1279.91,-104.036"/>
</g>
<!-- Node17 -->
<g id="node17" class="node"><title>Node17</title>
<g id="a_node17"><a xlink:href="../../db/dcc/Detectors_2Base_2include_2DetectorsBase_2GeometryManager_8h.html" target="_top" xlink:title="DetectorsBase/GeometryManager.h">
<polygon fill="none" stroke="black" points="481.5,-248.5 481.5,-267.5 654.5,-267.5 654.5,-248.5 481.5,-248.5"/>
<text text-anchor="middle" x="568" y="-255.5" font-family="Helvetica,sans-Serif" font-size="10.00">DetectorsBase/GeometryManager.h</text>
</a>
</g>
</g>
<!-- Node3&#45;&gt;Node17 -->
<g id="edge20" class="edge"><title>Node3&#45;&gt;Node17</title>
<path fill="none" stroke="midnightblue" d="M779.228,-304.444C735.442,-295.023 664.986,-279.866 617.62,-269.675"/>
<polygon fill="midnightblue" stroke="midnightblue" points="618.098,-266.198 607.586,-267.516 616.626,-273.041 618.098,-266.198"/>
</g>
<!-- Node34 -->
<g id="node34" class="node"><title>Node34</title>
<g id="a_node34"><a xlink:href="../../d0/d2d/common_2base_2include_2ITSMFTBase_2GeometryTGeo_8h.html" target="_top" xlink:title="ITSMFTBase/GeometryTGeo.h">
<polygon fill="none" stroke="black" points="795.5,-248.5 795.5,-267.5 948.5,-267.5 948.5,-248.5 795.5,-248.5"/>
<text text-anchor="middle" x="872" y="-255.5" font-family="Helvetica,sans-Serif" font-size="10.00">ITSMFTBase/GeometryTGeo.h</text>
</a>
</g>
</g>
<!-- Node3&#45;&gt;Node34 -->
<g id="edge41" class="edge"><title>Node3&#45;&gt;Node34</title>
<path fill="none" stroke="midnightblue" d="M827.752,-304.083C835.47,-296.22 846.905,-284.569 856.217,-275.081"/>
<polygon fill="midnightblue" stroke="midnightblue" points="858.904,-277.34 863.411,-267.751 853.908,-272.436 858.904,-277.34"/>
</g>
<!-- Node8&#45;&gt;Node4 -->
<g id="edge10" class="edge"><title>Node8&#45;&gt;Node4</title>
<path fill="none" stroke="midnightblue" d="M902.436,-137.478C844.044,-127.692 768.218,-107.027 801,-68 834.203,-28.4719 995.109,-19.5741 1062.36,-17.5763"/>
<polygon fill="midnightblue" stroke="midnightblue" points="1062.78,-21.0665 1072.69,-17.3027 1062.6,-14.0689 1062.78,-21.0665"/>
</g>
<!-- Node8&#45;&gt;Node9 -->
<g id="edge9" class="edge"><title>Node8&#45;&gt;Node9</title>
<path fill="none" stroke="midnightblue" d="M988.649,-136.403C1020.97,-125.978 1075.6,-108.356 1111.73,-96.6992"/>
<polygon fill="midnightblue" stroke="midnightblue" points="1112.96,-99.9817 1121.4,-93.5806 1110.81,-93.3197 1112.96,-99.9817"/>
</g>
<!-- Node10 -->
<g id="node10" class="node"><title>Node10</title>
<polygon fill="none" stroke="#bfbfbf" points="1022.5,-74.5 1022.5,-93.5 1063.5,-93.5 1063.5,-74.5 1022.5,-74.5"/>
<text text-anchor="middle" x="1043" y="-81.5" font-family="Helvetica,sans-Serif" font-size="10.00">bitset</text>
</g>
<!-- Node8&#45;&gt;Node10 -->
<g id="edge11" class="edge"><title>Node8&#45;&gt;Node10</title>
<path fill="none" stroke="midnightblue" d="M973.605,-136.403C986.477,-126.869 1007.47,-111.315 1023.01,-99.8106"/>
<polygon fill="midnightblue" stroke="midnightblue" points="1025.46,-102.345 1031.42,-93.5806 1021.3,-96.7204 1025.46,-102.345"/>
</g>
<!-- Node11 -->
<g id="node11" class="node"><title>Node11</title>
<polygon fill="none" stroke="#bfbfbf" points="810.5,-74.5 810.5,-93.5 859.5,-93.5 859.5,-74.5 810.5,-74.5"/>
<text text-anchor="middle" x="835" y="-81.5" font-family="Helvetica,sans-Serif" font-size="10.00">cassert</text>
</g>
<!-- Node8&#45;&gt;Node11 -->
<g id="edge12" class="edge"><title>Node8&#45;&gt;Node11</title>
<path fill="none" stroke="midnightblue" d="M943.804,-136.403C922.491,-126.334 886.969,-109.552 862.337,-97.9151"/>
<polygon fill="midnightblue" stroke="midnightblue" points="863.699,-94.6877 853.162,-93.5806 860.709,-101.017 863.699,-94.6877"/>
</g>
<!-- Node12 -->
<g id="node12" class="node"><title>Node12</title>
<polygon fill="none" stroke="#bfbfbf" points="878,-74.5 878,-93.5 924,-93.5 924,-74.5 878,-74.5"/>
<text text-anchor="middle" x="901" y="-81.5" font-family="Helvetica,sans-Serif" font-size="10.00">cstdint</text>
</g>
<!-- Node8&#45;&gt;Node12 -->
<g id="edge13" class="edge"><title>Node8&#45;&gt;Node12</title>
<path fill="none" stroke="midnightblue" d="M953.26,-136.403C943.838,-127.136 928.636,-112.183 917.051,-100.788"/>
<polygon fill="midnightblue" stroke="midnightblue" points="919.307,-98.0978 909.724,-93.5806 914.399,-103.088 919.307,-98.0978"/>
</g>
<!-- Node13 -->
<g id="node13" class="node"><title>Node13</title>
<polygon fill="none" stroke="#bfbfbf" points="942,-74.5 942,-93.5 1004,-93.5 1004,-74.5 942,-74.5"/>
<text text-anchor="middle" x="973" y="-81.5" font-family="Helvetica,sans-Serif" font-size="10.00">type_traits</text>
</g>
<!-- Node8&#45;&gt;Node13 -->
<g id="edge14" class="edge"><title>Node8&#45;&gt;Node13</title>
<path fill="none" stroke="midnightblue" d="M963.576,-136.403C965.144,-127.849 967.601,-114.45 969.613,-103.476"/>
<polygon fill="midnightblue" stroke="midnightblue" points="973.066,-104.048 971.427,-93.5806 966.181,-102.785 973.066,-104.048"/>
</g>
<!-- Node8&#45;&gt;Node14 -->
<g id="edge15" class="edge"><title>Node8&#45;&gt;Node14</title>
<path fill="none" stroke="midnightblue" d="M1008.5,-136.467C1067.46,-125.649 1169.05,-107.009 1232.44,-95.3781"/>
<polygon fill="midnightblue" stroke="midnightblue" points="1233.45,-98.7507 1242.66,-93.5034 1232.19,-91.8657 1233.45,-98.7507"/>
</g>
<!-- Node14&#45;&gt;Node4 -->
<g id="edge18" class="edge"><title>Node14&#45;&gt;Node4</title>
<path fill="none" stroke="midnightblue" d="M1263.25,-74.3717C1226.48,-62.0547 1159.17,-39.5035 1120.8,-26.6483"/>
<polygon fill="midnightblue" stroke="midnightblue" points="1121.84,-23.3066 1111.25,-23.4485 1119.62,-29.944 1121.84,-23.3066"/>
</g>
<!-- Node15 -->
<g id="node15" class="node"><title>Node15</title>
<g id="a_node15"><a xlink:href="../../d1/daa/Base_2include_2DetectorsBase_2Constants_8h.html" target="_top" xlink:title="DetectorsBase/Constants.h">
<polygon fill="none" stroke="black" points="1262,-6.5 1262,-25.5 1400,-25.5 1400,-6.5 1262,-6.5"/>
<text text-anchor="middle" x="1331" y="-13.5" font-family="Helvetica,sans-Serif" font-size="10.00">DetectorsBase/Constants.h</text>
</a>
</g>
</g>
<!-- Node14&#45;&gt;Node15 -->
<g id="edge16" class="edge"><title>Node14&#45;&gt;Node15</title>
<path fill="none" stroke="midnightblue" d="M1294.49,-74.3717C1300.93,-64.2495 1311.77,-47.2154 1319.97,-34.3312"/>
<polygon fill="midnightblue" stroke="midnightblue" points="1322.96,-36.1568 1325.37,-25.8411 1317.05,-32.3987 1322.96,-36.1568"/>
</g>
<!-- Node16 -->
<g id="node16" class="node"><title>Node16</title>
<polygon fill="none" stroke="#bfbfbf" points="1895,-6.5 1895,-25.5 1939,-25.5 1939,-6.5 1895,-6.5"/>
<text text-anchor="middle" x="1917" y="-13.5" font-family="Helvetica,sans-Serif" font-size="10.00">cmath</text>
</g>
<!-- Node14&#45;&gt;Node16 -->
<g id="edge17" class="edge"><title>Node14&#45;&gt;Node16</title>
<path fill="none" stroke="midnightblue" d="M1344.8,-74.4675C1360.38,-72.2168 1377.33,-69.8911 1393,-68 1578.85,-45.5657 1802.71,-26.3856 1884.81,-19.6115"/>
<polygon fill="midnightblue" stroke="midnightblue" points="1885.32,-23.0818 1895,-18.7749 1884.74,-16.1053 1885.32,-23.0818"/>
</g>
<!-- Node17&#45;&gt;Node7 -->
<g id="edge26" class="edge"><title>Node17&#45;&gt;Node7</title>
<path fill="none" stroke="midnightblue" d="M596.68,-248.444C627.527,-239.241 676.728,-224.562 710.829,-214.388"/>
<polygon fill="midnightblue" stroke="midnightblue" points="711.872,-217.729 720.454,-211.516 709.871,-211.021 711.872,-217.729"/>
</g>
<!-- Node17&#45;&gt;Node8 -->
<g id="edge27" class="edge"><title>Node17&#45;&gt;Node8</title>
<path fill="none" stroke="midnightblue" d="M583.249,-248.453C608.717,-234.542 661.867,-207.047 710,-192 770.246,-173.166 841.211,-161.379 892.456,-154.617"/>
<polygon fill="midnightblue" stroke="midnightblue" points="892.963,-158.08 902.434,-153.331 892.068,-151.138 892.963,-158.08"/>
</g>
<!-- Node18 -->
<g id="node18" class="node"><title>Node18</title>
<polygon fill="none" stroke="#bfbfbf" points="104,-192.5 104,-211.5 190,-211.5 190,-192.5 104,-192.5"/>
<text text-anchor="middle" x="147" y="-199.5" font-family="Helvetica,sans-Serif" font-size="10.00">TGeoManager.h</text>
</g>
<!-- Node17&#45;&gt;Node18 -->
<g id="edge21" class="edge"><title>Node17&#45;&gt;Node18</title>
<path fill="none" stroke="midnightblue" d="M488.667,-248.486C416.176,-240.441 305.764,-227.522 200.294,-212.128"/>
<polygon fill="midnightblue" stroke="midnightblue" points="200.506,-208.622 190.104,-210.631 199.488,-215.548 200.506,-208.622"/>
</g>
<!-- Node19 -->
<g id="node19" class="node"><title>Node19</title>
<polygon fill="none" stroke="#bfbfbf" points="208.5,-192.5 208.5,-211.5 291.5,-211.5 291.5,-192.5 208.5,-192.5"/>
<text text-anchor="middle" x="250" y="-199.5" font-family="Helvetica,sans-Serif" font-size="10.00">TGeoMaterial.h</text>
</g>
<!-- Node17&#45;&gt;Node19 -->
<g id="edge22" class="edge"><title>Node17&#45;&gt;Node19</title>
<path fill="none" stroke="midnightblue" d="M516.794,-248.49C465.131,-239.877 382.79,-226.076 301.633,-212.099"/>
<polygon fill="midnightblue" stroke="midnightblue" points="302.193,-208.644 291.744,-210.394 301.004,-215.542 302.193,-208.644"/>
</g>
<!-- Node20 -->
<g id="node20" class="node"><title>Node20</title>
<polygon fill="none" stroke="#bfbfbf" points="310,-192.5 310,-211.5 420,-211.5 420,-192.5 310,-192.5"/>
<text text-anchor="middle" x="365" y="-199.5" font-family="Helvetica,sans-Serif" font-size="10.00">TGeoPhysicalNode.h</text>
</g>
<!-- Node17&#45;&gt;Node20 -->
<g id="edge23" class="edge"><title>Node17&#45;&gt;Node20</title>
<path fill="none" stroke="midnightblue" d="M535.834,-248.444C500.941,-239.162 445.107,-224.309 406.829,-214.127"/>
<polygon fill="midnightblue" stroke="midnightblue" points="407.579,-210.705 397.015,-211.516 405.78,-217.47 407.579,-210.705"/>
</g>
<!-- Node21 -->
<g id="node21" class="node"><title>Node21</title>
<polygon fill="none" stroke="#bfbfbf" points="438.5,-192.5 438.5,-211.5 515.5,-211.5 515.5,-192.5 438.5,-192.5"/>
<text text-anchor="middle" x="477" y="-199.5" font-family="Helvetica,sans-Serif" font-size="10.00">TGeoShape.h</text>
</g>
<!-- Node17&#45;&gt;Node21 -->
<g id="edge24" class="edge"><title>Node17&#45;&gt;Node21</title>
<path fill="none" stroke="midnightblue" d="M553.379,-248.324C539.051,-239.822 516.987,-226.729 500.251,-216.797"/>
<polygon fill="midnightblue" stroke="midnightblue" points="501.97,-213.748 491.584,-211.655 498.398,-219.768 501.97,-213.748"/>
</g>
<!-- Node22 -->
<g id="node22" class="node"><title>Node22</title>
<polygon fill="none" stroke="#bfbfbf" points="533.5,-192.5 533.5,-211.5 586.5,-211.5 586.5,-192.5 533.5,-192.5"/>
<text text-anchor="middle" x="560" y="-199.5" font-family="Helvetica,sans-Serif" font-size="10.00">TMath.h</text>
</g>
<!-- Node17&#45;&gt;Node22 -->
<g id="edge25" class="edge"><title>Node17&#45;&gt;Node22</title>
<path fill="none" stroke="midnightblue" d="M566.679,-248.083C565.619,-240.927 564.094,-230.635 562.769,-221.691"/>
<polygon fill="midnightblue" stroke="midnightblue" points="566.224,-221.13 561.296,-211.751 559.3,-222.156 566.224,-221.13"/>
</g>
<!-- Node23 -->
<g id="node23" class="node"><title>Node23</title>
<polygon fill="none" stroke="#bfbfbf" points="585.5,-136.5 585.5,-155.5 656.5,-155.5 656.5,-136.5 585.5,-136.5"/>
<text text-anchor="middle" x="621" y="-143.5" font-family="Helvetica,sans-Serif" font-size="10.00">FairLogger.h</text>
</g>
<!-- Node17&#45;&gt;Node23 -->
<g id="edge28" class="edge"><title>Node17&#45;&gt;Node23</title>
<path fill="none" stroke="midnightblue" d="M573.81,-248.271C579.595,-239.372 588.522,-225.059 595,-212 602.595,-196.689 609.691,-178.585 614.545,-165.377"/>
<polygon fill="midnightblue" stroke="midnightblue" points="617.969,-166.197 618.056,-155.603 611.382,-163.831 617.969,-166.197"/>
</g>
<!-- Node17&#45;&gt;Node24 -->
<g id="edge29" class="edge"><title>Node17&#45;&gt;Node24</title>
<path fill="none" stroke="midnightblue" d="M654.964,-251.372C769.472,-243.721 977.02,-229.024 1154,-212 1329.93,-195.077 1536.21,-169.83 1643.25,-156.321"/>
<polygon fill="midnightblue" stroke="midnightblue" points="1643.81,-159.778 1653.29,-155.051 1642.93,-152.834 1643.81,-159.778"/>
</g>
<!-- Node24&#45;&gt;Node6 -->
<g id="edge34" class="edge"><title>Node24&#45;&gt;Node6</title>
<path fill="none" stroke="midnightblue" d="M1663.78,-136.499C1617.11,-128.487 1547.04,-115.426 1487,-100 1483.1,-98.9976 1479.04,-97.8572 1475.02,-96.6634"/>
<polygon fill="midnightblue" stroke="midnightblue" points="1475.8,-93.24 1465.21,-93.634 1473.74,-99.9284 1475.8,-93.24"/>
</g>
<!-- Node24&#45;&gt;Node9 -->
<g id="edge33" class="edge"><title>Node24&#45;&gt;Node9</title>
<path fill="none" stroke="midnightblue" d="M1653.49,-141.432C1559.65,-135.594 1376.95,-122.356 1223,-100 1210.91,-98.2436 1197.81,-95.8113 1186,-93.416"/>
<polygon fill="midnightblue" stroke="midnightblue" points="1186.52,-89.9479 1176.01,-91.3386 1185.09,-96.8013 1186.52,-89.9479"/>
</g>
<!-- Node25 -->
<g id="node25" class="node"><title>Node25</title>
<polygon fill="none" stroke="#bfbfbf" points="1859.5,-74.5 1859.5,-93.5 2008.5,-93.5 2008.5,-74.5 1859.5,-74.5"/>
<text text-anchor="middle" x="1934" y="-81.5" font-family="Helvetica,sans-Serif" font-size="10.00">Math/GenVector/Rotation3D.h</text>
</g>
<!-- Node24&#45;&gt;Node25 -->
<g id="edge30" class="edge"><title>Node24&#45;&gt;Node25</title>
<path fill="none" stroke="midnightblue" d="M1747.23,-136.403C1785.6,-125.844 1850.79,-107.903 1893.11,-96.2538"/>
<polygon fill="midnightblue" stroke="midnightblue" points="1894.11,-99.6088 1902.82,-93.5806 1892.25,-92.8598 1894.11,-99.6088"/>
</g>
<!-- Node26 -->
<g id="node26" class="node"><title>Node26</title>
<polygon fill="none" stroke="#bfbfbf" points="2027,-74.5 2027,-93.5 2183,-93.5 2183,-74.5 2027,-74.5"/>
<text text-anchor="middle" x="2105" y="-81.5" font-family="Helvetica,sans-Serif" font-size="10.00">Math/GenVector/Transform3D.h</text>
</g>
<!-- Node24&#45;&gt;Node26 -->
<g id="edge31" class="edge"><title>Node24&#45;&gt;Node26</title>
<path fill="none" stroke="midnightblue" d="M1775.45,-136.478C1836.21,-127.682 1933.26,-113.395 2017,-100 2026.43,-98.492 2036.41,-96.8412 2046.14,-95.2036"/>
<polygon fill="midnightblue" stroke="midnightblue" points="2046.88,-98.6288 2056.16,-93.5085 2045.71,-91.727 2046.88,-98.6288"/>
</g>
<!-- Node27 -->
<g id="node27" class="node"><title>Node27</title>
<polygon fill="none" stroke="#bfbfbf" points="2201,-74.5 2201,-93.5 2361,-93.5 2361,-74.5 2201,-74.5"/>
<text text-anchor="middle" x="2281" y="-81.5" font-family="Helvetica,sans-Serif" font-size="10.00">Math/GenVector/Translation3D.h</text>
</g>
<!-- Node24&#45;&gt;Node27 -->
<g id="edge32" class="edge"><title>Node24&#45;&gt;Node27</title>
<path fill="none" stroke="midnightblue" d="M1778.54,-140.545C1869.69,-133.722 2044.27,-119.406 2192,-100 2202.48,-98.6236 2213.61,-96.9312 2224.33,-95.185"/>
<polygon fill="midnightblue" stroke="midnightblue" points="2225.15,-98.5963 2234.44,-93.5028 2224,-91.6912 2225.15,-98.5963"/>
</g>
<!-- Node28 -->
<g id="node28" class="node"><title>Node28</title>
<polygon fill="none" stroke="#bfbfbf" points="1496.5,-69 1496.5,-99 1647.5,-99 1647.5,-69 1496.5,-69"/>
<text text-anchor="start" x="1504.5" y="-87" font-family="Helvetica,sans-Serif" font-size="10.00">Math/GenVector/Displacement</text>
<text text-anchor="middle" x="1572" y="-76" font-family="Helvetica,sans-Serif" font-size="10.00">Vector3D.h</text>
</g>
<!-- Node24&#45;&gt;Node28 -->
<g id="edge35" class="edge"><title>Node24&#45;&gt;Node28</title>
<path fill="none" stroke="midnightblue" d="M1695.37,-136.403C1674.52,-127.717 1641.68,-114.035 1615.13,-102.969"/>
<polygon fill="midnightblue" stroke="midnightblue" points="1616.24,-99.6408 1605.66,-99.0253 1613.55,-106.102 1616.24,-99.6408"/>
</g>
<!-- Node29 -->
<g id="node29" class="node"><title>Node29</title>
<polygon fill="none" stroke="#bfbfbf" points="1666,-74.5 1666,-93.5 1842,-93.5 1842,-74.5 1666,-74.5"/>
<text text-anchor="middle" x="1754" y="-81.5" font-family="Helvetica,sans-Serif" font-size="10.00">Math/GenVector/PositionVector3D.h</text>
</g>
<!-- Node24&#45;&gt;Node29 -->
<g id="edge36" class="edge"><title>Node24&#45;&gt;Node29</title>
<path fill="none" stroke="midnightblue" d="M1721.44,-136.403C1727.09,-127.493 1736.06,-113.325 1743.16,-102.118"/>
<polygon fill="midnightblue" stroke="midnightblue" points="1746.17,-103.901 1748.57,-93.5806 1740.26,-100.156 1746.17,-103.901"/>
</g>
<!-- Node30 -->
<g id="node30" class="node"><title>Node30</title>
<g id="a_node30"><a xlink:href="../../d2/dd0/Cartesian2D_8h.html" target="_top" xlink:title="MathUtils/Cartesian2D.h">
<polygon fill="none" stroke="black" points="2489.5,-74.5 2489.5,-93.5 2614.5,-93.5 2614.5,-74.5 2489.5,-74.5"/>
<text text-anchor="middle" x="2552" y="-81.5" font-family="Helvetica,sans-Serif" font-size="10.00">MathUtils/Cartesian2D.h</text>
</a>
</g>
</g>
<!-- Node24&#45;&gt;Node30 -->
<g id="edge37" class="edge"><title>Node24&#45;&gt;Node30</title>
<path fill="none" stroke="midnightblue" d="M1778.76,-142.667C1904.73,-137.641 2197.26,-124.239 2442,-100 2456.04,-98.609 2471.06,-96.7865 2485.33,-94.8931"/>
<polygon fill="midnightblue" stroke="midnightblue" points="2486.13,-98.3169 2495.57,-93.5071 2485.19,-91.3802 2486.13,-98.3169"/>
</g>
<!-- Node33 -->
<g id="node33" class="node"><title>Node33</title>
<polygon fill="none" stroke="#bfbfbf" points="2379,-74.5 2379,-93.5 2433,-93.5 2433,-74.5 2379,-74.5"/>
<text text-anchor="middle" x="2406" y="-81.5" font-family="Helvetica,sans-Serif" font-size="10.00">iostream</text>
</g>
<!-- Node24&#45;&gt;Node33 -->
<g id="edge40" class="edge"><title>Node24&#45;&gt;Node33</title>
<path fill="none" stroke="midnightblue" d="M1778.72,-141.849C1931.29,-134.017 2313.47,-113.339 2370,-100 2373.06,-99.2769 2376.2,-98.3216 2379.29,-97.2422"/>
<polygon fill="midnightblue" stroke="midnightblue" points="2380.78,-100.418 2388.8,-93.5044 2378.22,-93.9028 2380.78,-100.418"/>
</g>
<!-- Node31 -->
<g id="node31" class="node"><title>Node31</title>
<polygon fill="none" stroke="#bfbfbf" points="2385.5,-1 2385.5,-31 2536.5,-31 2536.5,-1 2385.5,-1"/>
<text text-anchor="start" x="2393.5" y="-19" font-family="Helvetica,sans-Serif" font-size="10.00">Math/GenVector/Displacement</text>
<text text-anchor="middle" x="2461" y="-8" font-family="Helvetica,sans-Serif" font-size="10.00">Vector2D.h</text>
</g>
<!-- Node30&#45;&gt;Node31 -->
<g id="edge38" class="edge"><title>Node30&#45;&gt;Node31</title>
<path fill="none" stroke="midnightblue" d="M2540.1,-74.3717C2527.22,-65.0286 2506.22,-49.7966 2489.09,-37.375"/>
<polygon fill="midnightblue" stroke="midnightblue" points="2490.7,-34.2194 2480.55,-31.1815 2486.59,-39.8859 2490.7,-34.2194"/>
</g>
<!-- Node32 -->
<g id="node32" class="node"><title>Node32</title>
<polygon fill="none" stroke="#bfbfbf" points="2555,-6.5 2555,-25.5 2731,-25.5 2731,-6.5 2555,-6.5"/>
<text text-anchor="middle" x="2643" y="-13.5" font-family="Helvetica,sans-Serif" font-size="10.00">Math/GenVector/PositionVector2D.h</text>
</g>
<!-- Node30&#45;&gt;Node32 -->
<g id="edge39" class="edge"><title>Node30&#45;&gt;Node32</title>
<path fill="none" stroke="midnightblue" d="M2563.9,-74.3717C2578.88,-63.5015 2604.86,-44.6602 2622.94,-31.5474"/>
<polygon fill="midnightblue" stroke="midnightblue" points="2625.06,-34.3349 2631.1,-25.6305 2620.95,-28.6684 2625.06,-34.3349"/>
</g>
<!-- Node34&#45;&gt;Node5 -->
<g id="edge50" class="edge"><title>Node34&#45;&gt;Node5</title>
<path fill="none" stroke="midnightblue" d="M862.918,-248.083C854.829,-240.141 842.805,-228.335 833.09,-218.797"/>
<polygon fill="midnightblue" stroke="midnightblue" points="835.501,-216.26 825.913,-211.751 830.597,-221.254 835.501,-216.26"/>
</g>
<!-- Node35 -->
<g id="node35" class="node"><title>Node35</title>
<g id="a_node35"><a xlink:href="../../d4/d20/DetMatrixCache_8h.html" target="_top" xlink:title="DetectorsBase/DetMatrixCache.h">
<polygon fill="none" stroke="black" points="981,-192.5 981,-211.5 1145,-211.5 1145,-192.5 981,-192.5"/>
<text text-anchor="middle" x="1063" y="-199.5" font-family="Helvetica,sans-Serif" font-size="10.00">DetectorsBase/DetMatrixCache.h</text>
</a>
</g>
</g>
<!-- Node34&#45;&gt;Node35 -->
<g id="edge42" class="edge"><title>Node34&#45;&gt;Node35</title>
<path fill="none" stroke="midnightblue" d="M902.265,-248.444C934.955,-239.201 987.182,-224.436 1023.18,-214.257"/>
<polygon fill="midnightblue" stroke="midnightblue" points="1024.21,-217.605 1032.88,-211.516 1022.3,-210.869 1024.21,-217.605"/>
</g>
<!-- Node36 -->
<g id="node36" class="node"><title>Node36</title>
<polygon fill="none" stroke="#bfbfbf" points="855.5,-192.5 855.5,-211.5 924.5,-211.5 924.5,-192.5 855.5,-192.5"/>
<text text-anchor="middle" x="890" y="-199.5" font-family="Helvetica,sans-Serif" font-size="10.00">TObjArray.h</text>
</g>
<!-- Node34&#45;&gt;Node36 -->
<g id="edge49" class="edge"><title>Node34&#45;&gt;Node36</title>
<path fill="none" stroke="midnightblue" d="M874.972,-248.083C877.384,-240.849 880.864,-230.409 883.868,-221.397"/>
<polygon fill="midnightblue" stroke="midnightblue" points="887.241,-222.345 887.083,-211.751 880.6,-220.131 887.241,-222.345"/>
</g>
<!-- Node35&#45;&gt;Node2 -->
<g id="edge43" class="edge"><title>Node35&#45;&gt;Node2</title>
<path fill="none" stroke="midnightblue" d="M980.837,-195.089C964.967,-194.011 948.469,-192.933 933,-192 603.511,-172.133 203.965,-153.648 89.2147,-148.448"/>
<polygon fill="midnightblue" stroke="midnightblue" points="89.1587,-144.942 79.0108,-147.986 88.8425,-151.934 89.1587,-144.942"/>
</g>
<!-- Node35&#45;&gt;Node4 -->
<g id="edge44" class="edge"><title>Node35&#45;&gt;Node4</title>
<path fill="none" stroke="midnightblue" d="M1064.4,-192.125C1068.87,-163.769 1082.87,-74.9299 1089.04,-35.8108"/>
<polygon fill="midnightblue" stroke="midnightblue" points="1092.52,-36.2087 1090.62,-25.7857 1085.6,-35.1188 1092.52,-36.2087"/>
</g>
<!-- Node35&#45;&gt;Node8 -->
<g id="edge46" class="edge"><title>Node35&#45;&gt;Node8</title>
<path fill="none" stroke="midnightblue" d="M1046.77,-192.324C1030.65,-183.703 1005.7,-170.364 987.036,-160.386"/>
<polygon fill="midnightblue" stroke="midnightblue" points="988.656,-157.283 978.187,-155.655 985.356,-163.456 988.656,-157.283"/>
</g>
<!-- Node35&#45;&gt;Node9 -->
<g id="edge47" class="edge"><title>Node35&#45;&gt;Node9</title>
<path fill="none" stroke="midnightblue" d="M1072.55,-192.248C1081.73,-183.56 1095.69,-169.608 1106,-156 1118.93,-138.935 1131.08,-117.588 1138.95,-102.779"/>
<polygon fill="midnightblue" stroke="midnightblue" points="1142.17,-104.192 1143.68,-93.7053 1135.96,-100.959 1142.17,-104.192"/>
</g>
<!-- Node35&#45;&gt;Node23 -->
<g id="edge48" class="edge"><title>Node35&#45;&gt;Node23</title>
<path fill="none" stroke="midnightblue" d="M992.964,-192.444C901.526,-181.272 744.044,-162.033 666.643,-152.576"/>
<polygon fill="midnightblue" stroke="midnightblue" points="667.066,-149.102 656.715,-151.363 666.217,-156.05 667.066,-149.102"/>
</g>
<!-- Node35&#45;&gt;Node24 -->
<g id="edge45" class="edge"><title>Node35&#45;&gt;Node24</title>
<path fill="none" stroke="midnightblue" d="M1145.04,-194.216C1273.65,-183.58 1520.66,-163.154 1643.27,-153.015"/>
<polygon fill="midnightblue" stroke="midnightblue" points="1643.63,-156.497 1653.31,-152.184 1643.05,-149.521 1643.63,-156.497"/>
</g>
<!-- Node37&#45;&gt;Node2 -->
<g id="edge54" class="edge"><title>Node37&#45;&gt;Node2</title>
<path fill="none" stroke="midnightblue" d="M655.231,-367.425C551.718,-354.55 348.971,-324.162 185,-268 132.349,-249.967 107.745,-255.475 73,-212 62.4659,-198.819 58.7341,-179.682 57.4771,-165.584"/>
<polygon fill="midnightblue" stroke="midnightblue" points="60.97,-165.358 56.9169,-155.569 53.9809,-165.748 60.97,-165.358"/>
</g>
<!-- Node38 -->
<g id="node38" class="node"><title>Node38</title>
<g id="a_node38"><a xlink:href="../../d7/d65/Detectors_2Base_2include_2DetectorsBase_2Track_8h.html" target="_top" xlink:title="DetectorsBase/Track.h">
<polygon fill="none" stroke="black" points="1648,-304.5 1648,-323.5 1766,-323.5 1766,-304.5 1648,-304.5"/>
<text text-anchor="middle" x="1707" y="-311.5" font-family="Helvetica,sans-Serif" font-size="10.00">DetectorsBase/Track.h</text>
</a>
</g>
</g>
<!-- Node37&#45;&gt;Node38 -->
<g id="edge55" class="edge"><title>Node37&#45;&gt;Node38</title>
<path fill="none" stroke="midnightblue" d="M790.634,-370.876C969.954,-359.942 1456.19,-330.293 1637.56,-319.234"/>
<polygon fill="midnightblue" stroke="midnightblue" points="1638,-322.714 1647.77,-318.612 1637.58,-315.727 1638,-322.714"/>
</g>
<!-- Node38&#45;&gt;Node4 -->
<g id="edge58" class="edge"><title>Node38&#45;&gt;Node4</title>
<path fill="none" stroke="midnightblue" d="M1647.78,-312.225C1589.69,-309.475 1499.8,-299.812 1429,-268 1321.24,-219.577 1314.44,-174.803 1223,-100 1205.65,-85.8036 1202.55,-80.598 1184,-68 1162.9,-53.6698 1137.44,-39.7969 1118.66,-30.1471"/>
<polygon fill="midnightblue" stroke="midnightblue" points="1120.01,-26.9058 1109.51,-25.5058 1116.84,-33.1493 1120.01,-26.9058"/>
</g>
<!-- Node38&#45;&gt;Node9 -->
<g id="edge56" class="edge"><title>Node38&#45;&gt;Node9</title>
<path fill="none" stroke="midnightblue" d="M1647.66,-312.915C1543.94,-311.783 1334.82,-304.84 1273,-268 1264.46,-262.908 1188.13,-146.597 1159.12,-102.1"/>
<polygon fill="midnightblue" stroke="midnightblue" points="1161.93,-100.007 1153.54,-93.5372 1156.07,-103.827 1161.93,-100.007"/>
</g>
<!-- Node38&#45;&gt;Node14 -->
<g id="edge74" class="edge"><title>Node38&#45;&gt;Node14</title>
<path fill="none" stroke="midnightblue" d="M1647.91,-312.436C1595.81,-309.637 1519.34,-299.769 1461,-268 1385.07,-226.655 1323.58,-139.573 1299.71,-102.408"/>
<polygon fill="midnightblue" stroke="midnightblue" points="1302.52,-100.303 1294.23,-93.7083 1296.6,-104.035 1302.52,-100.303"/>
</g>
<!-- Node38&#45;&gt;Node15 -->
<g id="edge73" class="edge"><title>Node38&#45;&gt;Node15</title>
<path fill="none" stroke="midnightblue" d="M1647.55,-312.48C1601.95,-309.402 1539.34,-299.12 1494,-268 1448.82,-236.989 1367.43,-86.6699 1340.17,-34.711"/>
<polygon fill="midnightblue" stroke="midnightblue" points="1343.2,-32.9432 1335.47,-25.6952 1336.99,-36.1803 1343.2,-32.9432"/>
</g>
<!-- Node38&#45;&gt;Node16 -->
<g id="edge60" class="edge"><title>Node38&#45;&gt;Node16</title>
<path fill="none" stroke="midnightblue" d="M1766.17,-310.582C1943.91,-302.538 2461,-273.113 2461,-203 2461,-203 2461,-203 2461,-145 2461,-109.751 2468.67,-91.0526 2442,-68 2404.67,-35.7237 2057.93,-21.6419 1949.35,-17.9992"/>
<polygon fill="midnightblue" stroke="midnightblue" points="1949.43,-14.4998 1939.32,-17.6697 1949.2,-21.4961 1949.43,-14.4998"/>
</g>
<!-- Node38&#45;&gt;Node24 -->
<g id="edge75" class="edge"><title>Node38&#45;&gt;Node24</title>
<path fill="none" stroke="midnightblue" d="M1704.77,-304.449C1702.54,-295.453 1699.27,-280.844 1698,-268 1694.39,-231.51 1703.83,-189.201 1710.37,-165.521"/>
<polygon fill="midnightblue" stroke="midnightblue" points="1713.77,-166.348 1713.19,-155.769 1707.05,-164.402 1713.77,-166.348"/>
</g>
<!-- Node38&#45;&gt;Node33 -->
<g id="edge62" class="edge"><title>Node38&#45;&gt;Node33</title>
<path fill="none" stroke="midnightblue" d="M1766.28,-313.91C1844.72,-313.4 1986.33,-306.49 2100,-268 2219,-227.705 2341.66,-136.271 2387.37,-100.118"/>
<polygon fill="midnightblue" stroke="midnightblue" points="2389.83,-102.631 2395.46,-93.656 2385.46,-97.161 2389.83,-102.631"/>
</g>
<!-- Node39 -->
<g id="node39" class="node"><title>Node39</title>
<polygon fill="none" stroke="#bfbfbf" points="1707,-248.5 1707,-267.5 1763,-267.5 1763,-248.5 1707,-248.5"/>
<text text-anchor="middle" x="1735" y="-255.5" font-family="Helvetica,sans-Serif" font-size="10.00">algorithm</text>
</g>
<!-- Node38&#45;&gt;Node39 -->
<g id="edge57" class="edge"><title>Node38&#45;&gt;Node39</title>
<path fill="none" stroke="midnightblue" d="M1711.62,-304.083C1715.46,-296.691 1721.02,-285.953 1725.76,-276.811"/>
<polygon fill="midnightblue" stroke="midnightblue" points="1728.97,-278.24 1730.46,-267.751 1722.75,-275.018 1728.97,-278.24"/>
</g>
<!-- Node40 -->
<g id="node40" class="node"><title>Node40</title>
<polygon fill="none" stroke="#bfbfbf" points="1781.5,-248.5 1781.5,-267.5 1822.5,-267.5 1822.5,-248.5 1781.5,-248.5"/>
<text text-anchor="middle" x="1802" y="-255.5" font-family="Helvetica,sans-Serif" font-size="10.00">cfloat</text>
</g>
<!-- Node38&#45;&gt;Node40 -->
<g id="edge59" class="edge"><title>Node38&#45;&gt;Node40</title>
<path fill="none" stroke="midnightblue" d="M1722.26,-304.324C1737.22,-295.822 1760.25,-282.729 1777.73,-272.797"/>
<polygon fill="midnightblue" stroke="midnightblue" points="1779.81,-275.639 1786.77,-267.655 1776.35,-269.553 1779.81,-275.639"/>
</g>
<!-- Node41 -->
<g id="node41" class="node"><title>Node41</title>
<polygon fill="none" stroke="#bfbfbf" points="1841,-248.5 1841,-267.5 1887,-267.5 1887,-248.5 1841,-248.5"/>
<text text-anchor="middle" x="1864" y="-255.5" font-family="Helvetica,sans-Serif" font-size="10.00">cstring</text>
</g>
<!-- Node38&#45;&gt;Node41 -->
<g id="edge61" class="edge"><title>Node38&#45;&gt;Node41</title>
<path fill="none" stroke="midnightblue" d="M1731.88,-304.444C1758.76,-295.199 1801.7,-280.428 1831.29,-270.25"/>
<polygon fill="midnightblue" stroke="midnightblue" points="1832.46,-273.551 1840.77,-266.988 1830.18,-266.931 1832.46,-273.551"/>
</g>
<!-- Node42 -->
<g id="node42" class="node"><title>Node42</title>
<polygon fill="none" stroke="#bfbfbf" points="1905.5,-248.5 1905.5,-267.5 1988.5,-267.5 1988.5,-248.5 1905.5,-248.5"/>
<text text-anchor="middle" x="1947" y="-255.5" font-family="Helvetica,sans-Serif" font-size="10.00">Math/SMatrix.h</text>
</g>
<!-- Node38&#45;&gt;Node42 -->
<g id="edge63" class="edge"><title>Node38&#45;&gt;Node42</title>
<path fill="none" stroke="midnightblue" d="M1745.03,-304.444C1786.81,-295.043 1853.98,-279.929 1899.27,-269.739"/>
<polygon fill="midnightblue" stroke="midnightblue" points="1900.16,-273.126 1909.15,-267.516 1898.62,-266.297 1900.16,-273.126"/>
</g>
<!-- Node43 -->
<g id="node43" class="node"><title>Node43</title>
<polygon fill="none" stroke="#bfbfbf" points="2006.5,-248.5 2006.5,-267.5 2091.5,-267.5 2091.5,-248.5 2006.5,-248.5"/>
<text text-anchor="middle" x="2049" y="-255.5" font-family="Helvetica,sans-Serif" font-size="10.00">Math/SVector.h</text>
</g>
<!-- Node38&#45;&gt;Node43 -->
<g id="edge64" class="edge"><title>Node38&#45;&gt;Node43</title>
<path fill="none" stroke="midnightblue" d="M1763.73,-304.497C1820.05,-295.986 1909.14,-282.343 1996.37,-268.079"/>
<polygon fill="midnightblue" stroke="midnightblue" points="1997.14,-271.5 2006.44,-266.428 1996.01,-264.592 1997.14,-271.5"/>
</g>
<!-- Node44 -->
<g id="node44" class="node"><title>Node44</title>
<g id="a_node44"><a xlink:href="../../d4/de2/BaseCluster_8h.html" target="_top" xlink:title="DetectorsBase/BaseCluster.h">
<polygon fill="none" stroke="black" points="1503.5,-248.5 1503.5,-267.5 1650.5,-267.5 1650.5,-248.5 1503.5,-248.5"/>
<text text-anchor="middle" x="1577" y="-255.5" font-family="Helvetica,sans-Serif" font-size="10.00">DetectorsBase/BaseCluster.h</text>
</a>
</g>
</g>
<!-- Node38&#45;&gt;Node44 -->
<g id="edge65" class="edge"><title>Node38&#45;&gt;Node44</title>
<path fill="none" stroke="midnightblue" d="M1686.4,-304.444C1665.01,-295.557 1631.32,-281.563 1606.98,-271.451"/>
<polygon fill="midnightblue" stroke="midnightblue" points="1608.08,-268.12 1597.5,-267.516 1605.39,-274.585 1608.08,-268.12"/>
</g>
<!-- Node44&#45;&gt;Node7 -->
<g id="edge66" class="edge"><title>Node44&#45;&gt;Node7</title>
<path fill="none" stroke="midnightblue" d="M1503.32,-257.106C1364.81,-256.366 1056.17,-250.266 788.673,-212.007"/>
<polygon fill="midnightblue" stroke="midnightblue" points="789.174,-208.543 778.775,-210.574 788.171,-215.471 789.174,-208.543"/>
</g>
<!-- Node44&#45;&gt;Node10 -->
<g id="edge67" class="edge"><title>Node44&#45;&gt;Node10</title>
<path fill="none" stroke="midnightblue" d="M1550.52,-248.47C1460.77,-219.563 1168.43,-125.4 1073.25,-94.7431"/>
<polygon fill="midnightblue" stroke="midnightblue" points="1074.24,-91.3856 1063.65,-91.6512 1072.09,-98.0485 1074.24,-91.3856"/>
</g>
<!-- Node44&#45;&gt;Node24 -->
<g id="edge71" class="edge"><title>Node44&#45;&gt;Node24</title>
<path fill="none" stroke="midnightblue" d="M1587.91,-248.368C1611.56,-229.653 1667.79,-185.151 1697.26,-161.832"/>
<polygon fill="midnightblue" stroke="midnightblue" points="1699.47,-164.542 1705.14,-155.591 1695.13,-159.052 1699.47,-164.542"/>
</g>
<!-- Node44&#45;&gt;Node33 -->
<g id="edge70" class="edge"><title>Node44&#45;&gt;Node33</title>
<path fill="none" stroke="midnightblue" d="M1613.68,-248.475C1703.71,-227.707 1942.88,-173.452 2144,-136 2243.99,-117.38 2272.15,-127.754 2370,-100 2372.66,-99.2465 2375.38,-98.3525 2378.08,-97.3817"/>
<polygon fill="midnightblue" stroke="midnightblue" points="2379.58,-100.553 2387.61,-93.6442 2377.03,-94.036 2379.58,-100.553"/>
</g>
<!-- Node44&#45;&gt;Node35 -->
<g id="edge72" class="edge"><title>Node44&#45;&gt;Node35</title>
<path fill="none" stroke="midnightblue" d="M1503.36,-249.263C1411.3,-239.592 1253.77,-223.042 1154.19,-212.58"/>
<polygon fill="midnightblue" stroke="midnightblue" points="1154.45,-209.088 1144.14,-211.524 1153.72,-216.05 1154.45,-209.088"/>
</g>
<!-- Node45 -->
<g id="node45" class="node"><title>Node45</title>
<polygon fill="none" stroke="#bfbfbf" points="1511,-192.5 1511,-211.5 1561,-211.5 1561,-192.5 1511,-192.5"/>
<text text-anchor="middle" x="1536" y="-199.5" font-family="Helvetica,sans-Serif" font-size="10.00">iomanip</text>
</g>
<!-- Node44&#45;&gt;Node45 -->
<g id="edge68" class="edge"><title>Node44&#45;&gt;Node45</title>
<path fill="none" stroke="midnightblue" d="M1570.23,-248.083C1564.44,-240.455 1555.94,-229.264 1548.86,-219.941"/>
<polygon fill="midnightblue" stroke="midnightblue" points="1551.48,-217.599 1542.64,-211.751 1545.9,-221.832 1551.48,-217.599"/>
</g>
<!-- Node46 -->
<g id="node46" class="node"><title>Node46</title>
<polygon fill="none" stroke="#bfbfbf" points="1579.5,-192.5 1579.5,-211.5 1608.5,-211.5 1608.5,-192.5 1579.5,-192.5"/>
<text text-anchor="middle" x="1594" y="-199.5" font-family="Helvetica,sans-Serif" font-size="10.00">ios</text>
</g>
<!-- Node44&#45;&gt;Node46 -->
<g id="edge69" class="edge"><title>Node44&#45;&gt;Node46</title>
<path fill="none" stroke="midnightblue" d="M1579.81,-248.083C1582.08,-240.849 1585.37,-230.409 1588.21,-221.397"/>
<polygon fill="midnightblue" stroke="midnightblue" points="1591.58,-222.341 1591.25,-211.751 1584.9,-220.239 1591.58,-222.341"/>
</g>
</g>
</svg>
