<?xml version="1.0" encoding="UTF-8" standalone="no"?>
<!DOCTYPE svg PUBLIC "-//W3C//DTD SVG 1.1//EN"
 "http://www.w3.org/Graphics/SVG/1.1/DTD/svg11.dtd">
<!-- Generated by graphviz version 2.36.0 (20140111.2315)
 -->
<!-- Title: /home/travis/build/AliceO2Group/AliceO2/Detectors/TOF/simulation/include/TOFSimulation/Detector.h Pages: 1 -->
<!--zoomable 322 -->
<svg id="main" version="1.1" xmlns="http://www.w3.org/2000/svg" xmlns:xlink="http://www.w3.org/1999/xlink" xml:space="preserve" onload="init(evt)">
<style type="text/css"><![CDATA[
.edge:hover path { stroke: red; }
.edge:hover polygon { stroke: red; fill: red; }
]]></style>
<script type="text/javascript"><![CDATA[
var edges = document.getElementsByTagName('g');
if (edges && edges.length) {
  for (var i=0;i<edges.length;i++) {
    if (edges[i].id.substr(0,4)=='edge') {
      edges[i].setAttribute('class','edge');
    }
  }
}
]]></script>
        <defs>
                <circle id="rim" cx="0" cy="0" r="7"/>
                <circle id="rim2" cx="0" cy="0" r="3.5"/>
                <g id="zoomPlus">
                        <use xlink:href="#rim" fill="#404040">
                                <set attributeName="fill" to="#808080" begin="zoomplus.mouseover" end="zoomplus.mouseout"/>
                        </use>
                        <path d="M-4,0h8M0,-4v8" fill="none" stroke="white" stroke-width="1.5" pointer-events="none"/>
                </g>
                <g id="zoomMin">
                        <use xlink:href="#rim" fill="#404040">
                                <set attributeName="fill" to="#808080" begin="zoomminus.mouseover" end="zoomminus.mouseout"/>
                        </use>
                        <path d="M-4,0h8" fill="none" stroke="white" stroke-width="1.5" pointer-events="none"/>
                </g>
                <g id="dirArrow">
                        <path fill="none" stroke="white" stroke-width="1.5" d="M0,-3.0v7 M-2.5,-0.5L0,-3.0L2.5,-0.5"/>
                </g>
               <g id="resetDef">
                       <use xlink:href="#rim2" fill="#404040">
                               <set attributeName="fill" to="#808080" begin="reset.mouseover" end="reset.mouseout"/>
                       </use>
               </g>
        </defs>

<script type="text/javascript">
var viewWidth = 1683;
var viewHeight = 322;
var sectionId = 'dynsection-0';
</script>
<script xlink:href="../../svgpan.js"/>
<svg id="graph" class="graph">
<g id="viewport">
<title>/home/travis/build/AliceO2Group/AliceO2/Detectors/TOF/simulation/include/TOFSimulation/Detector.h</title>
<!-- Node1 -->
<g id="node1" class="node"><title>Node1</title>
<polygon fill="#bfbfbf" stroke="black" points="646.5,-261 646.5,-313 813.5,-313 813.5,-261 646.5,-261"/>
<text text-anchor="start" x="654.5" y="-301" font-family="Helvetica,sans-Serif" font-size="10.00">/home/travis/build</text>
<text text-anchor="start" x="654.5" y="-290" font-family="Helvetica,sans-Serif" font-size="10.00">/AliceO2Group/AliceO2</text>
<text text-anchor="start" x="654.5" y="-279" font-family="Helvetica,sans-Serif" font-size="10.00">/Detectors/TOF/simulation</text>
<text text-anchor="middle" x="730" y="-268" font-family="Helvetica,sans-Serif" font-size="10.00">/include/TOFSimulation/Detector.h</text>
</g>
<!-- Node2 -->
<g id="node2" class="node"><title>Node2</title>
<g id="a_node2"><a xlink:href="../../d1/d3a/Base_2include_2DetectorsBase_2Detector_8h.html" target="_top" xlink:title="DetectorsBase/Detector.h">
<polygon fill="none" stroke="black" points="345.5,-198.5 345.5,-217.5 476.5,-217.5 476.5,-198.5 345.5,-198.5"/>
<text text-anchor="middle" x="411" y="-205.5" font-family="Helvetica,sans-Serif" font-size="10.00">DetectorsBase/Detector.h</text>
</a>
</g>
</g>
<!-- Node1&#45;&gt;Node2 -->
<g id="edge1" class="edge"><title>Node1&#45;&gt;Node2</title>
<path fill="none" stroke="midnightblue" d="M646.187,-265.769C585.396,-251.096 505.51,-231.813 456.242,-219.92"/>
<polygon fill="midnightblue" stroke="midnightblue" points="457.053,-216.516 446.511,-217.572 455.411,-223.32 457.053,-216.516"/>
</g>
<!-- Node13 -->
<g id="node13" class="node"><title>Node13</title>
<g id="a_node13"><a xlink:href="../../d4/d54/Geo_8h.html" target="_top" xlink:title="TOFBase/Geo.h">
<polygon fill="none" stroke="black" points="686,-198.5 686,-217.5 774,-217.5 774,-198.5 686,-198.5"/>
<text text-anchor="middle" x="730" y="-205.5" font-family="Helvetica,sans-Serif" font-size="10.00">TOFBase/Geo.h</text>
</a>
</g>
</g>
<!-- Node1&#45;&gt;Node13 -->
<g id="edge12" class="edge"><title>Node1&#45;&gt;Node13</title>
<path fill="none" stroke="midnightblue" d="M730,-260.787C730,-250.069 730,-237.785 730,-227.871"/>
<polygon fill="midnightblue" stroke="midnightblue" points="733.5,-227.558 730,-217.558 726.5,-227.558 733.5,-227.558"/>
</g>
<!-- Node14 -->
<g id="node14" class="node"><title>Node14</title>
<g id="a_node14"><a xlink:href="../../d4/d25/BaseHits_8h.html" target="_top" xlink:title="SimulationDataFormat\l/BaseHits.h">
<polygon fill="none" stroke="black" points="834,-193 834,-223 948,-223 948,-193 834,-193"/>
<text text-anchor="start" x="842" y="-211" font-family="Helvetica,sans-Serif" font-size="10.00">SimulationDataFormat</text>
<text text-anchor="middle" x="891" y="-200" font-family="Helvetica,sans-Serif" font-size="10.00">/BaseHits.h</text>
</a>
</g>
</g>
<!-- Node1&#45;&gt;Node14 -->
<g id="edge14" class="edge"><title>Node1&#45;&gt;Node14</title>
<path fill="none" stroke="midnightblue" d="M782.717,-260.787C805.462,-249.909 831.58,-237.418 852.466,-227.429"/>
<polygon fill="midnightblue" stroke="midnightblue" points="854.152,-230.503 861.663,-223.031 851.132,-224.188 854.152,-230.503"/>
</g>
<!-- Node3 -->
<g id="node3" class="node"><title>Node3</title>
<polygon fill="none" stroke="#bfbfbf" points="-0.5,-136.5 -0.5,-155.5 34.5,-155.5 34.5,-136.5 -0.5,-136.5"/>
<text text-anchor="middle" x="17" y="-143.5" font-family="Helvetica,sans-Serif" font-size="10.00">map</text>
</g>
<!-- Node2&#45;&gt;Node3 -->
<g id="edge2" class="edge"><title>Node2&#45;&gt;Node3</title>
<path fill="none" stroke="midnightblue" d="M345.366,-201.545C273.586,-194.76 155.164,-181.162 44.5755,-155.714"/>
<polygon fill="midnightblue" stroke="midnightblue" points="45.1197,-152.247 34.5853,-153.378 43.5254,-159.063 45.1197,-152.247"/>
</g>
<!-- Node4 -->
<g id="node4" class="node"><title>Node4</title>
<polygon fill="none" stroke="#bfbfbf" points="53,-136.5 53,-155.5 97,-155.5 97,-136.5 53,-136.5"/>
<text text-anchor="middle" x="75" y="-143.5" font-family="Helvetica,sans-Serif" font-size="10.00">vector</text>
</g>
<!-- Node2&#45;&gt;Node4 -->
<g id="edge3" class="edge"><title>Node2&#45;&gt;Node4</title>
<path fill="none" stroke="midnightblue" d="M346.606,-198.464C286.823,-190.034 195.223,-175.835 107.157,-156.051"/>
<polygon fill="midnightblue" stroke="midnightblue" points="107.797,-152.608 97.2697,-153.803 106.245,-159.433 107.797,-152.608"/>
</g>
<!-- Node5 -->
<g id="node5" class="node"><title>Node5</title>
<polygon fill="none" stroke="#bfbfbf" points="115,-136.5 115,-155.5 167,-155.5 167,-136.5 115,-136.5"/>
<text text-anchor="middle" x="141" y="-143.5" font-family="Helvetica,sans-Serif" font-size="10.00">memory</text>
</g>
<!-- Node2&#45;&gt;Node5 -->
<g id="edge4" class="edge"><title>Node2&#45;&gt;Node5</title>
<path fill="none" stroke="midnightblue" d="M369.291,-198.448C324.248,-189.101 250.147,-173.404 177.167,-156.213"/>
<polygon fill="midnightblue" stroke="midnightblue" points="177.884,-152.786 167.347,-153.889 176.272,-159.598 177.884,-152.786"/>
</g>
<!-- Node6 -->
<g id="node6" class="node"><title>Node6</title>
<polygon fill="none" stroke="#bfbfbf" points="185.5,-136.5 185.5,-155.5 264.5,-155.5 264.5,-136.5 185.5,-136.5"/>
<text text-anchor="middle" x="225" y="-143.5" font-family="Helvetica,sans-Serif" font-size="10.00">FairDetector.h</text>
</g>
<!-- Node2&#45;&gt;Node6 -->
<g id="edge5" class="edge"><title>Node2&#45;&gt;Node6</title>
<path fill="none" stroke="midnightblue" d="M384.351,-198.403C352.031,-187.978 297.403,-170.356 261.267,-158.699"/>
<polygon fill="midnightblue" stroke="midnightblue" points="262.191,-155.32 251.6,-155.581 260.042,-161.982 262.191,-155.32"/>
</g>
<!-- Node7 -->
<g id="node7" class="node"><title>Node7</title>
<polygon fill="none" stroke="#bfbfbf" points="283,-136.5 283,-155.5 383,-155.5 383,-136.5 283,-136.5"/>
<text text-anchor="middle" x="333" y="-143.5" font-family="Helvetica,sans-Serif" font-size="10.00">FairRootManager.h</text>
</g>
<!-- Node2&#45;&gt;Node7 -->
<g id="edge6" class="edge"><title>Node2&#45;&gt;Node7</title>
<path fill="none" stroke="midnightblue" d="M399.825,-198.403C387.429,-188.869 367.21,-173.315 352.254,-161.811"/>
<polygon fill="midnightblue" stroke="midnightblue" points="354.215,-158.904 344.155,-155.581 349.947,-164.452 354.215,-158.904"/>
</g>
<!-- Node8 -->
<g id="node8" class="node"><title>Node8</title>
<polygon fill="none" stroke="#bfbfbf" points="383,-74.5 383,-93.5 439,-93.5 439,-74.5 383,-74.5"/>
<text text-anchor="middle" x="411" y="-81.5" font-family="Helvetica,sans-Serif" font-size="10.00">Rtypes.h</text>
</g>
<!-- Node2&#45;&gt;Node8 -->
<g id="edge7" class="edge"><title>Node2&#45;&gt;Node8</title>
<path fill="none" stroke="midnightblue" d="M411,-198.226C411,-178.53 411,-130.437 411,-103.7"/>
<polygon fill="midnightblue" stroke="midnightblue" points="414.5,-103.694 411,-93.6944 407.5,-103.694 414.5,-103.694"/>
</g>
<!-- Node9 -->
<g id="node9" class="node"><title>Node9</title>
<polygon fill="none" stroke="#bfbfbf" points="439.5,-136.5 439.5,-155.5 492.5,-155.5 492.5,-136.5 439.5,-136.5"/>
<text text-anchor="middle" x="466" y="-143.5" font-family="Helvetica,sans-Serif" font-size="10.00">cxxabi.h</text>
</g>
<!-- Node2&#45;&gt;Node9 -->
<g id="edge8" class="edge"><title>Node2&#45;&gt;Node9</title>
<path fill="none" stroke="midnightblue" d="M418.88,-198.403C427.294,-189.225 440.819,-174.47 451.226,-163.117"/>
<polygon fill="midnightblue" stroke="midnightblue" points="453.957,-165.317 458.134,-155.581 448.797,-160.587 453.957,-165.317"/>
</g>
<!-- Node10 -->
<g id="node10" class="node"><title>Node10</title>
<polygon fill="none" stroke="#bfbfbf" points="510.5,-136.5 510.5,-155.5 561.5,-155.5 561.5,-136.5 510.5,-136.5"/>
<text text-anchor="middle" x="536" y="-143.5" font-family="Helvetica,sans-Serif" font-size="10.00">typeinfo</text>
</g>
<!-- Node2&#45;&gt;Node10 -->
<g id="edge9" class="edge"><title>Node2&#45;&gt;Node10</title>
<path fill="none" stroke="midnightblue" d="M428.909,-198.403C449.887,-188.334 484.85,-171.552 509.093,-159.915"/>
<polygon fill="midnightblue" stroke="midnightblue" points="510.623,-163.063 518.124,-155.581 507.594,-156.753 510.623,-163.063"/>
</g>
<!-- Node11 -->
<g id="node11" class="node"><title>Node11</title>
<polygon fill="none" stroke="#bfbfbf" points="580,-136.5 580,-155.5 642,-155.5 642,-136.5 580,-136.5"/>
<text text-anchor="middle" x="611" y="-143.5" font-family="Helvetica,sans-Serif" font-size="10.00">type_traits</text>
</g>
<!-- Node2&#45;&gt;Node11 -->
<g id="edge10" class="edge"><title>Node2&#45;&gt;Node11</title>
<path fill="none" stroke="midnightblue" d="M439.655,-198.403C474.556,-187.933 533.65,-170.205 572.5,-158.55"/>
<polygon fill="midnightblue" stroke="midnightblue" points="573.826,-161.807 582.398,-155.581 571.814,-155.102 573.826,-161.807"/>
</g>
<!-- Node12 -->
<g id="node12" class="node"><title>Node12</title>
<polygon fill="none" stroke="#bfbfbf" points="660.5,-136.5 660.5,-155.5 701.5,-155.5 701.5,-136.5 660.5,-136.5"/>
<text text-anchor="middle" x="681" y="-143.5" font-family="Helvetica,sans-Serif" font-size="10.00">string</text>
</g>
<!-- Node2&#45;&gt;Node12 -->
<g id="edge11" class="edge"><title>Node2&#45;&gt;Node12</title>
<path fill="none" stroke="midnightblue" d="M455.712,-198.463C503.896,-189.03 582.727,-172.92 650,-156 650.211,-155.947 650.422,-155.894 650.634,-155.84"/>
<polygon fill="midnightblue" stroke="midnightblue" points="651.636,-159.195 660.38,-153.212 649.813,-152.436 651.636,-159.195"/>
</g>
<!-- Node13&#45;&gt;Node8 -->
<g id="edge13" class="edge"><title>Node13&#45;&gt;Node8</title>
<path fill="none" stroke="midnightblue" d="M730.357,-198.461C730.481,-183.346 728.355,-151.973 710,-136 665.501,-97.2752 503.924,-115.473 447,-100 444.182,-99.2341 441.292,-98.3005 438.434,-97.2776"/>
<polygon fill="midnightblue" stroke="midnightblue" points="439.58,-93.9673 428.993,-93.5689 437.021,-100.483 439.58,-93.9673"/>
</g>
<!-- Node15 -->
<g id="node15" class="node"><title>Node15</title>
<g id="a_node15"><a xlink:href="../../dd/d76/Cartesian3D_8h.html" target="_top" xlink:title="MathUtils/Cartesian3D.h">
<polygon fill="none" stroke="black" points="910.5,-136.5 910.5,-155.5 1035.5,-155.5 1035.5,-136.5 910.5,-136.5"/>
<text text-anchor="middle" x="973" y="-143.5" font-family="Helvetica,sans-Serif" font-size="10.00">MathUtils/Cartesian3D.h</text>
</a>
</g>
</g>
<!-- Node14&#45;&gt;Node15 -->
<g id="edge15" class="edge"><title>Node14&#45;&gt;Node15</title>
<path fill="none" stroke="midnightblue" d="M910.433,-192.781C923.208,-183.433 939.889,-171.227 952.814,-161.77"/>
<polygon fill="midnightblue" stroke="midnightblue" points="955.065,-164.46 961.068,-155.731 950.931,-158.811 955.065,-164.46"/>
</g>
<!-- Node15&#45;&gt;Node8 -->
<g id="edge19" class="edge"><title>Node15&#45;&gt;Node8</title>
<path fill="none" stroke="midnightblue" d="M910.119,-142.056C790.235,-136.043 533.243,-121.111 447,-100 444.006,-99.267 440.938,-98.3202 437.917,-97.259"/>
<polygon fill="midnightblue" stroke="midnightblue" points="439.164,-93.9887 428.576,-93.6 436.611,-100.506 439.164,-93.9887"/>
</g>
<!-- Node16 -->
<g id="node16" class="node"><title>Node16</title>
<polygon fill="none" stroke="#bfbfbf" points="456.5,-74.5 456.5,-93.5 605.5,-93.5 605.5,-74.5 456.5,-74.5"/>
<text text-anchor="middle" x="531" y="-81.5" font-family="Helvetica,sans-Serif" font-size="10.00">Math/GenVector/Rotation3D.h</text>
</g>
<!-- Node15&#45;&gt;Node16 -->
<g id="edge16" class="edge"><title>Node15&#45;&gt;Node16</title>
<path fill="none" stroke="midnightblue" d="M910.456,-138.13C838.898,-130.04 718.269,-115.7 615,-100 605.652,-98.5788 595.743,-96.9338 586.135,-95.265"/>
<polygon fill="midnightblue" stroke="midnightblue" points="586.723,-91.8147 576.267,-93.5257 585.508,-98.7084 586.723,-91.8147"/>
</g>
<!-- Node17 -->
<g id="node17" class="node"><title>Node17</title>
<polygon fill="none" stroke="#bfbfbf" points="624,-74.5 624,-93.5 780,-93.5 780,-74.5 624,-74.5"/>
<text text-anchor="middle" x="702" y="-81.5" font-family="Helvetica,sans-Serif" font-size="10.00">Math/GenVector/Transform3D.h</text>
</g>
<!-- Node15&#45;&gt;Node17 -->
<g id="edge17" class="edge"><title>Node15&#45;&gt;Node17</title>
<path fill="none" stroke="midnightblue" d="M934.46,-136.467C886,-125.738 802.792,-107.316 750.181,-95.6673"/>
<polygon fill="midnightblue" stroke="midnightblue" points="750.927,-92.2479 740.407,-93.5034 749.414,-99.0824 750.927,-92.2479"/>
</g>
<!-- Node18 -->
<g id="node18" class="node"><title>Node18</title>
<polygon fill="none" stroke="#bfbfbf" points="798,-74.5 798,-93.5 958,-93.5 958,-74.5 798,-74.5"/>
<text text-anchor="middle" x="878" y="-81.5" font-family="Helvetica,sans-Serif" font-size="10.00">Math/GenVector/Translation3D.h</text>
</g>
<!-- Node15&#45;&gt;Node18 -->
<g id="edge18" class="edge"><title>Node15&#45;&gt;Node18</title>
<path fill="none" stroke="midnightblue" d="M959.389,-136.403C943.939,-126.646 918.51,-110.585 900.184,-99.0109"/>
<polygon fill="midnightblue" stroke="midnightblue" points="901.91,-95.9613 891.586,-93.5806 898.172,-101.88 901.91,-95.9613"/>
</g>
<!-- Node19 -->
<g id="node19" class="node"><title>Node19</title>
<polygon fill="none" stroke="#bfbfbf" points="976,-74.5 976,-93.5 1052,-93.5 1052,-74.5 976,-74.5"/>
<text text-anchor="middle" x="1014" y="-81.5" font-family="Helvetica,sans-Serif" font-size="10.00">TGeoMatrix.h</text>
</g>
<!-- Node15&#45;&gt;Node19 -->
<g id="edge20" class="edge"><title>Node15&#45;&gt;Node19</title>
<path fill="none" stroke="midnightblue" d="M978.874,-136.403C984.963,-127.493 994.645,-113.325 1002.3,-102.118"/>
<polygon fill="midnightblue" stroke="midnightblue" points="1005.38,-103.812 1008.14,-93.5806 999.605,-99.8624 1005.38,-103.812"/>
</g>
<!-- Node20 -->
<g id="node20" class="node"><title>Node20</title>
<polygon fill="none" stroke="#bfbfbf" points="1070.5,-69 1070.5,-99 1221.5,-99 1221.5,-69 1070.5,-69"/>
<text text-anchor="start" x="1078.5" y="-87" font-family="Helvetica,sans-Serif" font-size="10.00">Math/GenVector/Displacement</text>
<text text-anchor="middle" x="1146" y="-76" font-family="Helvetica,sans-Serif" font-size="10.00">Vector3D.h</text>
</g>
<!-- Node15&#45;&gt;Node20 -->
<g id="edge21" class="edge"><title>Node15&#45;&gt;Node20</title>
<path fill="none" stroke="midnightblue" d="M997.787,-136.403C1023.27,-127.564 1063.67,-113.553 1095.86,-102.39"/>
<polygon fill="midnightblue" stroke="midnightblue" points="1097.26,-105.609 1105.56,-99.0253 1094.97,-98.9953 1097.26,-105.609"/>
</g>
<!-- Node21 -->
<g id="node21" class="node"><title>Node21</title>
<polygon fill="none" stroke="#bfbfbf" points="1240,-74.5 1240,-93.5 1416,-93.5 1416,-74.5 1240,-74.5"/>
<text text-anchor="middle" x="1328" y="-81.5" font-family="Helvetica,sans-Serif" font-size="10.00">Math/GenVector/PositionVector3D.h</text>
</g>
<!-- Node15&#45;&gt;Node21 -->
<g id="edge22" class="edge"><title>Node15&#45;&gt;Node21</title>
<path fill="none" stroke="midnightblue" d="M1023.49,-136.467C1087.76,-125.604 1198.69,-106.855 1267.45,-95.2346"/>
<polygon fill="midnightblue" stroke="midnightblue" points="1268.41,-98.621 1277.69,-93.5034 1267.24,-91.7189 1268.41,-98.621"/>
</g>
<!-- Node22 -->
<g id="node22" class="node"><title>Node22</title>
<g id="a_node22"><a xlink:href="../../d2/dd0/Cartesian2D_8h.html" target="_top" xlink:title="MathUtils/Cartesian2D.h">
<polygon fill="none" stroke="black" points="1433.5,-74.5 1433.5,-93.5 1558.5,-93.5 1558.5,-74.5 1433.5,-74.5"/>
<text text-anchor="middle" x="1496" y="-81.5" font-family="Helvetica,sans-Serif" font-size="10.00">MathUtils/Cartesian2D.h</text>
</a>
</g>
</g>
<!-- Node15&#45;&gt;Node22 -->
<g id="edge23" class="edge"><title>Node15&#45;&gt;Node22</title>
<path fill="none" stroke="midnightblue" d="M1035.64,-140.857C1122.98,-134.601 1286.14,-121.177 1424,-100 1432.08,-98.7596 1440.61,-97.2021 1448.87,-95.5637"/>
<polygon fill="midnightblue" stroke="midnightblue" points="1449.67,-98.9732 1458.77,-93.5408 1448.27,-92.1151 1449.67,-98.9732"/>
</g>
<!-- Node25 -->
<g id="node25" class="node"><title>Node25</title>
<polygon fill="none" stroke="#bfbfbf" points="1577,-74.5 1577,-93.5 1631,-93.5 1631,-74.5 1577,-74.5"/>
<text text-anchor="middle" x="1604" y="-81.5" font-family="Helvetica,sans-Serif" font-size="10.00">iostream</text>
</g>
<!-- Node15&#45;&gt;Node25 -->
<g id="edge26" class="edge"><title>Node15&#45;&gt;Node25</title>
<path fill="none" stroke="midnightblue" d="M1035.8,-142.698C1167.26,-137.478 1467.44,-123.351 1567,-100 1570.07,-99.2793 1573.22,-98.3405 1576.33,-97.284"/>
<polygon fill="midnightblue" stroke="midnightblue" points="1577.82,-100.459 1585.92,-93.6306 1575.33,-93.9172 1577.82,-100.459"/>
</g>
<!-- Node23 -->
<g id="node23" class="node"><title>Node23</title>
<polygon fill="none" stroke="#bfbfbf" points="1329.5,-1 1329.5,-31 1480.5,-31 1480.5,-1 1329.5,-1"/>
<text text-anchor="start" x="1337.5" y="-19" font-family="Helvetica,sans-Serif" font-size="10.00">Math/GenVector/Displacement</text>
<text text-anchor="middle" x="1405" y="-8" font-family="Helvetica,sans-Serif" font-size="10.00">Vector2D.h</text>
</g>
<!-- Node22&#45;&gt;Node23 -->
<g id="edge24" class="edge"><title>Node22&#45;&gt;Node23</title>
<path fill="none" stroke="midnightblue" d="M1484.1,-74.3717C1471.22,-65.0286 1450.22,-49.7966 1433.09,-37.375"/>
<polygon fill="midnightblue" stroke="midnightblue" points="1434.7,-34.2194 1424.55,-31.1815 1430.59,-39.8859 1434.7,-34.2194"/>
</g>
<!-- Node24 -->
<g id="node24" class="node"><title>Node24</title>
<polygon fill="none" stroke="#bfbfbf" points="1499,-6.5 1499,-25.5 1675,-25.5 1675,-6.5 1499,-6.5"/>
<text text-anchor="middle" x="1587" y="-13.5" font-family="Helvetica,sans-Serif" font-size="10.00">Math/GenVector/PositionVector2D.h</text>
</g>
<!-- Node22&#45;&gt;Node24 -->
<g id="edge25" class="edge"><title>Node22&#45;&gt;Node24</title>
<path fill="none" stroke="midnightblue" d="M1507.9,-74.3717C1522.88,-63.5015 1548.86,-44.6602 1566.94,-31.5474"/>
<polygon fill="midnightblue" stroke="midnightblue" points="1569.06,-34.3349 1575.1,-25.6305 1564.95,-28.6684 1569.06,-34.3349"/>
</g>
</g>
</svg>
        <g id="navigator" transform="translate(0 0)" fill="#404254">
                <rect fill="#f2f5e9" fill-opacity="0.5" stroke="#606060" stroke-width=".5" x="0" y="0" width="60" height="60"/>
                <use id="zoomplus" xlink:href="#zoomPlus" x="17" y="9" onmousedown="handleZoom(evt,'in')"/>
                <use id="zoomminus" xlink:href="#zoomMin" x="42" y="9" onmousedown="handleZoom(evt,'out')"/>
                <use id="reset" xlink:href="#resetDef" x="30" y="36" onmousedown="handleReset()"/>
                <g id="arrowUp" xlink:href="#dirArrow" transform="translate(30 24)" onmousedown="handlePan(0,-1)">
                  <use xlink:href="#rim" fill="#404040">
                        <set attributeName="fill" to="#808080" begin="arrowUp.mouseover" end="arrowUp.mouseout"/>
                  </use>
                  <path fill="none" stroke="white" stroke-width="1.5" d="M0,-3.0v7 M-2.5,-0.5L0,-3.0L2.5,-0.5"/>
                </g>
                <g id="arrowRight" xlink:href="#dirArrow" transform="rotate(90) translate(36 -43)" onmousedown="handlePan(1,0)">
                  <use xlink:href="#rim" fill="#404040">
                        <set attributeName="fill" to="#808080" begin="arrowRight.mouseover" end="arrowRight.mouseout"/>
                  </use>
                  <path fill="none" stroke="white" stroke-width="1.5" d="M0,-3.0v7 M-2.5,-0.5L0,-3.0L2.5,-0.5"/>
                </g>
                <g id="arrowDown" xlink:href="#dirArrow" transform="rotate(180) translate(-30 -48)" onmousedown="handlePan(0,1)">
                  <use xlink:href="#rim" fill="#404040">
                        <set attributeName="fill" to="#808080" begin="arrowDown.mouseover" end="arrowDown.mouseout"/>
                  </use>
                  <path fill="none" stroke="white" stroke-width="1.5" d="M0,-3.0v7 M-2.5,-0.5L0,-3.0L2.5,-0.5"/>
                </g>
                <g id="arrowLeft" xlink:href="#dirArrow" transform="rotate(270) translate(-36 17)" onmousedown="handlePan(-1,0)">
                  <use xlink:href="#rim" fill="#404040">
                        <set attributeName="fill" to="#808080" begin="arrowLeft.mouseover" end="arrowLeft.mouseout"/>
                  </use>
                  <path fill="none" stroke="white" stroke-width="1.5" d="M0,-3.0v7 M-2.5,-0.5L0,-3.0L2.5,-0.5"/>
                </g>
        </g>
        <svg viewBox="0 0 15 15" width="100%" height="30px" preserveAspectRatio="xMaxYMin meet">
         <g id="arrow_out" transform="scale(0.3 0.3)">
          <a xlink:href="TOF_2simulation_2include_2TOFSimulation_2Detector_8h__incl_org.svg" target="_base">
           <rect id="button" ry="5" rx="5" y="6" x="6" height="38" width="38"
                fill="#f2f5e9" fill-opacity="0.5" stroke="#606060" stroke-width="1.0"/>
           <path id="arrow"
             d="M 11.500037,31.436501 C 11.940474,20.09759 22.043105,11.32322 32.158766,21.979434 L 37.068811,17.246167 C 37.068811,17.246167 37.088388,32 37.088388,32 L 22.160133,31.978069 C 22.160133,31.978069 26.997745,27.140456 26.997745,27.140456 C 18.528582,18.264221 13.291696,25.230495 11.500037,31.436501 z"
             style="fill:#404040;"/>
          </a>
         </g>
        </svg>
</svg>
