<?xml version="1.0" encoding="UTF-8" standalone="no"?>
<!DOCTYPE svg PUBLIC "-//W3C//DTD SVG 1.1//EN"
 "http://www.w3.org/Graphics/SVG/1.1/DTD/svg11.dtd">
<!-- Generated by graphviz version 2.36.0 (20140111.2315)
 -->
<!-- Title: /home/travis/build/AliceO2Group/AliceO2/Utilities/QC/QCProducer/include/QCProducer/TreeProducer.h Pages: 1 -->
<svg width="256pt" height="118pt"
 viewBox="0.00 0.00 256.00 118.00" xmlns="http://www.w3.org/2000/svg" xmlns:xlink="http://www.w3.org/1999/xlink">
<g id="graph0" class="graph" transform="scale(1 1) rotate(0) translate(4 114)">
<title>/home/travis/build/AliceO2Group/AliceO2/Utilities/QC/QCProducer/include/QCProducer/TreeProducer.h</title>
<!-- Node1 -->
<g id="node1" class="node"><title>Node1</title>
<polygon fill="#bfbfbf" stroke="black" points="40.5,-57 40.5,-109 217.5,-109 217.5,-57 40.5,-57"/>
<text text-anchor="start" x="48.5" y="-97" font-family="Helvetica,sans-Serif" font-size="10.00">/home/travis/build</text>
<text text-anchor="start" x="48.5" y="-86" font-family="Helvetica,sans-Serif" font-size="10.00">/AliceO2Group/AliceO2</text>
<text text-anchor="start" x="48.5" y="-75" font-family="Helvetica,sans-Serif" font-size="10.00">/Utilities/QC/QCProducer</text>
<text text-anchor="middle" x="129" y="-64" font-family="Helvetica,sans-Serif" font-size="10.00">/include/QCProducer/TreeProducer.h</text>
</g>
<!-- Node2 -->
<g id="node2" class="node"><title>Node2</title>
<polygon fill="none" stroke="#bfbfbf" points="0,-0.5 0,-19.5 50,-19.5 50,-0.5 0,-0.5"/>
<text text-anchor="middle" x="25" y="-7.5" font-family="Helvetica,sans-Serif" font-size="10.00">TTree.h</text>
</g>
<!-- Node1&#45;&gt;Node2 -->
<g id="edge1" class="edge"><title>Node1&#45;&gt;Node2</title>
<path fill="none" stroke="midnightblue" d="M92.3335,-56.9681C76.9384,-46.4579 59.5741,-34.6034 46.3354,-25.5655"/>
<polygon fill="midnightblue" stroke="midnightblue" points="48.1365,-22.5573 37.9041,-19.8095 44.1896,-28.3385 48.1365,-22.5573"/>
</g>
<!-- Node3 -->
<g id="node3" class="node"><title>Node3</title>
<g id="a_node3"><a xlink:href="../../da/d94/Producer_8h.html" target="_top" xlink:title="QCProducer/Producer.h">
<polygon fill="none" stroke="black" points="68.5,-0.5 68.5,-19.5 189.5,-19.5 189.5,-0.5 68.5,-0.5"/>
<text text-anchor="middle" x="129" y="-7.5" font-family="Helvetica,sans-Serif" font-size="10.00">QCProducer/Producer.h</text>
</a>
</g>
</g>
<!-- Node1&#45;&gt;Node3 -->
<g id="edge2" class="edge"><title>Node1&#45;&gt;Node3</title>
<path fill="none" stroke="midnightblue" d="M129,-56.7681C129,-47.8897 129,-38.0737 129,-29.8165"/>
<polygon fill="midnightblue" stroke="midnightblue" points="132.5,-29.7571 129,-19.7572 125.5,-29.7572 132.5,-29.7571"/>
</g>
<!-- Node4 -->
<g id="node4" class="node"><title>Node4</title>
<polygon fill="none" stroke="#bfbfbf" points="207.5,-0.5 207.5,-19.5 248.5,-19.5 248.5,-0.5 207.5,-0.5"/>
<text text-anchor="middle" x="228" y="-7.5" font-family="Helvetica,sans-Serif" font-size="10.00">string</text>
</g>
<!-- Node1&#45;&gt;Node4 -->
<g id="edge3" class="edge"><title>Node1&#45;&gt;Node4</title>
<path fill="none" stroke="midnightblue" d="M163.904,-56.9681C178.418,-46.559 194.77,-34.8313 207.326,-25.827"/>
<polygon fill="midnightblue" stroke="midnightblue" points="209.63,-28.4817 215.716,-19.8095 205.55,-22.7933 209.63,-28.4817"/>
</g>
</g>
</svg>
