<?xml version="1.0" encoding="UTF-8" standalone="no"?>
<!DOCTYPE svg PUBLIC "-//W3C//DTD SVG 1.1//EN"
 "http://www.w3.org/Graphics/SVG/1.1/DTD/svg11.dtd">
<!-- Generated by graphviz version 2.36.0 (20140111.2315)
 -->
<!-- Title: /home/travis/build/AliceO2Group/AliceO2/Utilities/QC/QCProducer/src/TH2Producer.cxx Pages: 1 -->
<svg width="312pt" height="174pt"
 viewBox="0.00 0.00 312.00 174.00" xmlns="http://www.w3.org/2000/svg" xmlns:xlink="http://www.w3.org/1999/xlink">
<g id="graph0" class="graph" transform="scale(1 1) rotate(0) translate(4 170)">
<title>/home/travis/build/AliceO2Group/AliceO2/Utilities/QC/QCProducer/src/TH2Producer.cxx</title>
<!-- Node1 -->
<g id="node1" class="node"><title>Node1</title>
<polygon fill="#bfbfbf" stroke="black" points="151,-113 151,-165 279,-165 279,-113 151,-113"/>
<text text-anchor="start" x="159" y="-153" font-family="Helvetica,sans-Serif" font-size="10.00">/home/travis/build</text>
<text text-anchor="start" x="159" y="-142" font-family="Helvetica,sans-Serif" font-size="10.00">/AliceO2Group/AliceO2</text>
<text text-anchor="start" x="159" y="-131" font-family="Helvetica,sans-Serif" font-size="10.00">/Utilities/QC/QCProducer</text>
<text text-anchor="middle" x="215" y="-120" font-family="Helvetica,sans-Serif" font-size="10.00">/src/TH2Producer.cxx</text>
</g>
<!-- Node2 -->
<g id="node2" class="node"><title>Node2</title>
<g id="a_node2"><a xlink:href="../../dc/d5c/TH2Producer_8h.html" target="_top" xlink:title="QCProducer/TH2Producer.h">
<polygon fill="none" stroke="black" points="36,-56.5 36,-75.5 176,-75.5 176,-56.5 36,-56.5"/>
<text text-anchor="middle" x="106" y="-63.5" font-family="Helvetica,sans-Serif" font-size="10.00">QCProducer/TH2Producer.h</text>
</a>
</g>
</g>
<!-- Node1&#45;&gt;Node2 -->
<g id="edge1" class="edge"><title>Node1&#45;&gt;Node2</title>
<path fill="none" stroke="midnightblue" d="M176.571,-112.968C160.18,-102.291 141.659,-90.2274 127.705,-81.1379"/>
<polygon fill="midnightblue" stroke="midnightblue" points="129.552,-78.1642 119.263,-75.6389 125.731,-84.0296 129.552,-78.1642"/>
</g>
<!-- Node6 -->
<g id="node6" class="node"><title>Node6</title>
<polygon fill="none" stroke="#bfbfbf" points="194,-56.5 194,-75.5 236,-75.5 236,-56.5 194,-56.5"/>
<text text-anchor="middle" x="215" y="-63.5" font-family="Helvetica,sans-Serif" font-size="10.00">TF2.h</text>
</g>
<!-- Node1&#45;&gt;Node6 -->
<g id="edge5" class="edge"><title>Node1&#45;&gt;Node6</title>
<path fill="none" stroke="midnightblue" d="M215,-112.768C215,-103.89 215,-94.0737 215,-85.8165"/>
<polygon fill="midnightblue" stroke="midnightblue" points="218.5,-85.7571 215,-75.7572 211.5,-85.7572 218.5,-85.7571"/>
</g>
<!-- Node7 -->
<g id="node7" class="node"><title>Node7</title>
<polygon fill="none" stroke="#bfbfbf" points="254,-56.5 254,-75.5 304,-75.5 304,-56.5 254,-56.5"/>
<text text-anchor="middle" x="279" y="-63.5" font-family="Helvetica,sans-Serif" font-size="10.00">TH2F.h</text>
</g>
<!-- Node1&#45;&gt;Node7 -->
<g id="edge6" class="edge"><title>Node1&#45;&gt;Node7</title>
<path fill="none" stroke="midnightblue" d="M237.744,-112.768C246.566,-102.982 256.414,-92.0561 264.276,-83.3346"/>
<polygon fill="midnightblue" stroke="midnightblue" points="267.01,-85.5283 271.106,-75.7572 261.811,-80.8415 267.01,-85.5283"/>
</g>
<!-- Node3 -->
<g id="node3" class="node"><title>Node3</title>
<polygon fill="none" stroke="#bfbfbf" points="0,-0.5 0,-19.5 56,-19.5 56,-0.5 0,-0.5"/>
<text text-anchor="middle" x="28" y="-7.5" font-family="Helvetica,sans-Serif" font-size="10.00">Rtypes.h</text>
</g>
<!-- Node2&#45;&gt;Node3 -->
<g id="edge2" class="edge"><title>Node2&#45;&gt;Node3</title>
<path fill="none" stroke="midnightblue" d="M93.468,-56.324C81.4141,-47.979 62.9732,-35.2122 48.7313,-25.3524"/>
<polygon fill="midnightblue" stroke="midnightblue" points="50.7151,-22.469 40.5009,-19.6545 46.7306,-28.2243 50.7151,-22.469"/>
</g>
<!-- Node4 -->
<g id="node4" class="node"><title>Node4</title>
<g id="a_node4"><a xlink:href="../../da/d94/Producer_8h.html" target="_top" xlink:title="Producer.h">
<polygon fill="none" stroke="black" points="74,-0.5 74,-19.5 138,-19.5 138,-0.5 74,-0.5"/>
<text text-anchor="middle" x="106" y="-7.5" font-family="Helvetica,sans-Serif" font-size="10.00">Producer.h</text>
</a>
</g>
</g>
<!-- Node2&#45;&gt;Node4 -->
<g id="edge3" class="edge"><title>Node2&#45;&gt;Node4</title>
<path fill="none" stroke="midnightblue" d="M106,-56.083C106,-49.0059 106,-38.8611 106,-29.9865"/>
<polygon fill="midnightblue" stroke="midnightblue" points="109.5,-29.751 106,-19.7511 102.5,-29.7511 109.5,-29.751"/>
</g>
<!-- Node5 -->
<g id="node5" class="node"><title>Node5</title>
<polygon fill="none" stroke="#bfbfbf" points="156.5,-0.5 156.5,-19.5 197.5,-19.5 197.5,-0.5 156.5,-0.5"/>
<text text-anchor="middle" x="177" y="-7.5" font-family="Helvetica,sans-Serif" font-size="10.00">string</text>
</g>
<!-- Node2&#45;&gt;Node5 -->
<g id="edge4" class="edge"><title>Node2&#45;&gt;Node5</title>
<path fill="none" stroke="midnightblue" d="M117.407,-56.324C128.109,-48.1849 144.341,-35.8395 157.163,-26.0874"/>
<polygon fill="midnightblue" stroke="midnightblue" points="159.544,-28.6734 165.385,-19.8339 155.307,-23.1018 159.544,-28.6734"/>
</g>
</g>
</svg>
