<?xml version="1.0" encoding="UTF-8" standalone="no"?>
<!DOCTYPE svg PUBLIC "-//W3C//DTD SVG 1.1//EN"
 "http://www.w3.org/Graphics/SVG/1.1/DTD/svg11.dtd">
<!-- Generated by graphviz version 2.36.0 (20140111.2315)
 -->
<!-- Title: ImGuiGroupData Pages: 1 -->
<svg width="387pt" height="310pt"
 viewBox="0.00 0.00 387.12 310.00" xmlns="http://www.w3.org/2000/svg" xmlns:xlink="http://www.w3.org/1999/xlink">
<g id="graph0" class="graph" transform="scale(1 1) rotate(0) translate(4 306)">
<title>ImGuiGroupData</title>
<!-- Node1 -->
<g id="node1" class="node"><title>Node1</title>
<polygon fill="#bfbfbf" stroke="black" points="106.115,-0.5 106.115,-57.5 196.115,-57.5 196.115,-0.5 106.115,-0.5"/>
<text text-anchor="middle" x="151.115" y="-45.5" font-family="Helvetica,sans-Serif" font-size="10.00">ImGuiGroupData</text>
<polyline fill="none" stroke="black" points="106.115,-38.5 196.115,-38.5 "/>
<text text-anchor="middle" x="151.115" y="-26.5" font-family="Helvetica,sans-Serif" font-size="10.00"> </text>
<polyline fill="none" stroke="black" points="106.115,-19.5 196.115,-19.5 "/>
<text text-anchor="middle" x="151.115" y="-7.5" font-family="Helvetica,sans-Serif" font-size="10.00"> </text>
</g>
<!-- Node2 -->
<g id="node2" class="node"><title>Node2</title>
<g id="a_node2"><a xlink:href="../../d3/dc2/structImVec2.html" target="_top" xlink:title="{ImVec2\n||+ ImVec2()\l+ ImVec2()\l}">
<polygon fill="none" stroke="black" points="150.615,-117 150.615,-185 215.615,-185 215.615,-117 150.615,-117"/>
<text text-anchor="middle" x="183.115" y="-173" font-family="Helvetica,sans-Serif" font-size="10.00">ImVec2</text>
<polyline fill="none" stroke="black" points="150.615,-166 215.615,-166 "/>
<text text-anchor="middle" x="183.115" y="-154" font-family="Helvetica,sans-Serif" font-size="10.00"> </text>
<polyline fill="none" stroke="black" points="150.615,-147 215.615,-147 "/>
<text text-anchor="start" x="158.615" y="-135" font-family="Helvetica,sans-Serif" font-size="10.00">+ ImVec2()</text>
<text text-anchor="start" x="158.615" y="-124" font-family="Helvetica,sans-Serif" font-size="10.00">+ ImVec2()</text>
</a>
</g>
</g>
<!-- Node2&#45;&gt;Node1 -->
<g id="edge1" class="edge"><title>Node2&#45;&gt;Node1</title>
<path fill="none" stroke="#404040" d="M159.902,-116.76C156.715,-110.755 153.921,-104.371 152.115,-98 149.564,-88.9958 148.496,-79.0483 148.239,-69.6049"/>
<polygon fill="none" stroke="#404040" points="148.239,-69.6025 144.274,-63.5789 148.31,-57.6027 152.274,-63.6263 148.239,-69.6025"/>
<text text-anchor="middle" x="206.115" y="-90" font-family="Helvetica,sans-Serif" font-size="10.00"> +BackupCursorMaxPos</text>
<text text-anchor="middle" x="206.115" y="-79" font-family="Helvetica,sans-Serif" font-size="10.00">+BackupCursorPos</text>
</g>
<!-- Node3 -->
<g id="node3" class="node"><title>Node3</title>
<g id="a_node3"><a xlink:href="../../d4/dc3/classfloat.html" target="_top" xlink:title="{float\n||}">
<polygon fill="none" stroke="black" points="36.6153,-244.5 36.6153,-301.5 71.6153,-301.5 71.6153,-244.5 36.6153,-244.5"/>
<text text-anchor="middle" x="54.1153" y="-289.5" font-family="Helvetica,sans-Serif" font-size="10.00">float</text>
<polyline fill="none" stroke="black" points="36.6153,-282.5 71.6153,-282.5 "/>
<text text-anchor="middle" x="54.1153" y="-270.5" font-family="Helvetica,sans-Serif" font-size="10.00"> </text>
<polyline fill="none" stroke="black" points="36.6153,-263.5 71.6153,-263.5 "/>
<text text-anchor="middle" x="54.1153" y="-251.5" font-family="Helvetica,sans-Serif" font-size="10.00"> </text>
</a>
</g>
</g>
<!-- Node3&#45;&gt;Node1 -->
<g id="edge3" class="edge"><title>Node3&#45;&gt;Node1</title>
<path fill="none" stroke="#404040" d="M36.5434,-248.481C15.1638,-216.748 -15.2384,-159.221 9.1153,-116 27.4497,-83.4613 63.6077,-61.8283 94.847,-48.3978"/>
<polygon fill="none" stroke="#404040" points="94.9787,-48.3442 99.0256,-42.3757 106.092,-43.8158 102.045,-49.7843 94.9787,-48.3442"/>
<text text-anchor="middle" x="75.1153" y="-176" font-family="Helvetica,sans-Serif" font-size="10.00"> +BackupGroupOffsetX</text>
<text text-anchor="start" x="9.1153" y="-165" font-family="Helvetica,sans-Serif" font-size="10.00">+BackupCurrentLineTextBase</text>
<text text-anchor="middle" x="75.1153" y="-154" font-family="Helvetica,sans-Serif" font-size="10.00">Offset</text>
<text text-anchor="middle" x="75.1153" y="-143" font-family="Helvetica,sans-Serif" font-size="10.00">+BackupLogLinePosY</text>
<text text-anchor="middle" x="75.1153" y="-132" font-family="Helvetica,sans-Serif" font-size="10.00">+BackupCurrentLineHeight</text>
<text text-anchor="middle" x="75.1153" y="-121" font-family="Helvetica,sans-Serif" font-size="10.00">+BackupIndentX</text>
</g>
<!-- Node3&#45;&gt;Node2 -->
<g id="edge2" class="edge"><title>Node3&#45;&gt;Node2</title>
<path fill="none" stroke="#404040" d="M71.7817,-255.566C89.7094,-238.889 118.11,-212.47 141.739,-190.489"/>
<polygon fill="none" stroke="#404040" points="141.744,-190.485 143.412,-183.47 150.53,-182.312 148.861,-189.327 141.744,-190.485"/>
<text text-anchor="middle" x="134.615" y="-218" font-family="Helvetica,sans-Serif" font-size="10.00"> +x</text>
<text text-anchor="middle" x="134.615" y="-207" font-family="Helvetica,sans-Serif" font-size="10.00">+y</text>
</g>
<!-- Node4 -->
<g id="node4" class="node"><title>Node4</title>
<polygon fill="none" stroke="#bfbfbf" points="264.615,-122.5 264.615,-179.5 299.615,-179.5 299.615,-122.5 264.615,-122.5"/>
<text text-anchor="middle" x="282.115" y="-167.5" font-family="Helvetica,sans-Serif" font-size="10.00">bool</text>
<polyline fill="none" stroke="#bfbfbf" points="264.615,-160.5 299.615,-160.5 "/>
<text text-anchor="middle" x="282.115" y="-148.5" font-family="Helvetica,sans-Serif" font-size="10.00"> </text>
<polyline fill="none" stroke="#bfbfbf" points="264.615,-141.5 299.615,-141.5 "/>
<text text-anchor="middle" x="282.115" y="-129.5" font-family="Helvetica,sans-Serif" font-size="10.00"> </text>
</g>
<!-- Node4&#45;&gt;Node1 -->
<g id="edge4" class="edge"><title>Node4&#45;&gt;Node1</title>
<path fill="none" stroke="#404040" d="M279.635,-122.227C276.972,-106.993 271.469,-88.6817 260.115,-76 246.387,-60.6662 226.706,-50.2886 207.835,-43.3367"/>
<polygon fill="none" stroke="#404040" points="207.624,-43.2656 200.661,-45.1424 196.251,-39.4371 203.214,-37.5604 207.624,-43.2656"/>
<text text-anchor="middle" x="326.115" y="-90" font-family="Helvetica,sans-Serif" font-size="10.00"> +AdvanceCursor</text>
<text text-anchor="middle" x="326.115" y="-79" font-family="Helvetica,sans-Serif" font-size="10.00">+BackupActiveIdIsAlive</text>
</g>
</g>
</svg>
