<?xml version="1.0" encoding="UTF-8" standalone="no"?>
<!DOCTYPE svg PUBLIC "-//W3C//DTD SVG 1.1//EN"
 "http://www.w3.org/Graphics/SVG/1.1/DTD/svg11.dtd">
<!-- Generated by graphviz version 2.36.0 (20140111.2315)
 -->
<!-- Title: /home/travis/build/AliceO2Group/AliceO2/Detectors/TPC/base/include/TPCBase/RandomRing.h Pages: 1 -->
<svg width="368pt" height="118pt"
 viewBox="0.00 0.00 368.00 118.00" xmlns="http://www.w3.org/2000/svg" xmlns:xlink="http://www.w3.org/1999/xlink">
<g id="graph0" class="graph" transform="scale(1 1) rotate(0) translate(4 114)">
<title>/home/travis/build/AliceO2Group/AliceO2/Detectors/TPC/base/include/TPCBase/RandomRing.h</title>
<!-- Node1 -->
<g id="node1" class="node"><title>Node1</title>
<polygon fill="#bfbfbf" stroke="black" points="120.5,-57 120.5,-109 263.5,-109 263.5,-57 120.5,-57"/>
<text text-anchor="start" x="128.5" y="-97" font-family="Helvetica,sans-Serif" font-size="10.00">/home/travis/build</text>
<text text-anchor="start" x="128.5" y="-86" font-family="Helvetica,sans-Serif" font-size="10.00">/AliceO2Group/AliceO2</text>
<text text-anchor="start" x="128.5" y="-75" font-family="Helvetica,sans-Serif" font-size="10.00">/Detectors/TPC/base/include</text>
<text text-anchor="middle" x="192" y="-64" font-family="Helvetica,sans-Serif" font-size="10.00">/TPCBase/RandomRing.h</text>
</g>
<!-- Node2 -->
<g id="node2" class="node"><title>Node2</title>
<polygon fill="none" stroke="#bfbfbf" points="0,-0.5 0,-19.5 90,-19.5 90,-0.5 0,-0.5"/>
<text text-anchor="middle" x="45" y="-7.5" font-family="Helvetica,sans-Serif" font-size="10.00">boost/format.hpp</text>
</g>
<!-- Node1&#45;&gt;Node2 -->
<g id="edge1" class="edge"><title>Node1&#45;&gt;Node2</title>
<path fill="none" stroke="midnightblue" d="M140.173,-56.9681C117.226,-45.8847 91.1833,-33.3062 72.1481,-24.1123"/>
<polygon fill="midnightblue" stroke="midnightblue" points="73.4131,-20.8365 62.8861,-19.6389 70.3686,-27.1398 73.4131,-20.8365"/>
</g>
<!-- Node3 -->
<g id="node3" class="node"><title>Node3</title>
<polygon fill="none" stroke="#bfbfbf" points="108,-0.5 108,-19.5 152,-19.5 152,-0.5 108,-0.5"/>
<text text-anchor="middle" x="130" y="-7.5" font-family="Helvetica,sans-Serif" font-size="10.00">Vc/Vc</text>
</g>
<!-- Node1&#45;&gt;Node3 -->
<g id="edge2" class="edge"><title>Node1&#45;&gt;Node3</title>
<path fill="none" stroke="midnightblue" d="M169.967,-56.7681C161.421,-46.9817 151.88,-36.0561 144.264,-27.3346"/>
<polygon fill="midnightblue" stroke="midnightblue" points="146.861,-24.9874 137.647,-19.7572 141.588,-29.5917 146.861,-24.9874"/>
</g>
<!-- Node4 -->
<g id="node4" class="node"><title>Node4</title>
<polygon fill="none" stroke="#bfbfbf" points="170,-0.5 170,-19.5 214,-19.5 214,-0.5 170,-0.5"/>
<text text-anchor="middle" x="192" y="-7.5" font-family="Helvetica,sans-Serif" font-size="10.00">vector</text>
</g>
<!-- Node1&#45;&gt;Node4 -->
<g id="edge3" class="edge"><title>Node1&#45;&gt;Node4</title>
<path fill="none" stroke="midnightblue" d="M192,-56.7681C192,-47.8897 192,-38.0737 192,-29.8165"/>
<polygon fill="midnightblue" stroke="midnightblue" points="195.5,-29.7571 192,-19.7572 188.5,-29.7572 195.5,-29.7571"/>
</g>
<!-- Node5 -->
<g id="node5" class="node"><title>Node5</title>
<polygon fill="none" stroke="#bfbfbf" points="232,-0.5 232,-19.5 274,-19.5 274,-0.5 232,-0.5"/>
<text text-anchor="middle" x="253" y="-7.5" font-family="Helvetica,sans-Serif" font-size="10.00">TF1.h</text>
</g>
<!-- Node1&#45;&gt;Node5 -->
<g id="edge4" class="edge"><title>Node1&#45;&gt;Node5</title>
<path fill="none" stroke="midnightblue" d="M213.678,-56.7681C221.999,-47.0826 231.279,-36.2813 238.734,-27.605"/>
<polygon fill="midnightblue" stroke="midnightblue" points="241.614,-29.6231 245.476,-19.7572 236.305,-25.0613 241.614,-29.6231"/>
</g>
<!-- Node6 -->
<g id="node6" class="node"><title>Node6</title>
<polygon fill="none" stroke="#bfbfbf" points="292,-0.5 292,-19.5 360,-19.5 360,-0.5 292,-0.5"/>
<text text-anchor="middle" x="326" y="-7.5" font-family="Helvetica,sans-Serif" font-size="10.00">TRandom.h</text>
</g>
<!-- Node1&#45;&gt;Node6 -->
<g id="edge5" class="edge"><title>Node1&#45;&gt;Node6</title>
<path fill="none" stroke="midnightblue" d="M239.243,-56.9681C259.969,-45.9863 283.466,-33.5369 300.774,-24.3662"/>
<polygon fill="midnightblue" stroke="midnightblue" points="302.498,-27.4135 309.696,-19.6389 299.221,-21.2281 302.498,-27.4135"/>
</g>
</g>
</svg>
