<?xml version="1.0" encoding="UTF-8" standalone="no"?>
<!DOCTYPE svg PUBLIC "-//W3C//DTD SVG 1.1//EN"
 "http://www.w3.org/Graphics/SVG/1.1/DTD/svg11.dtd">
<!-- Generated by graphviz version 2.36.0 (20140111.2315)
 -->
<!-- Title: /home/travis/build/AliceO2Group/AliceO2/Framework/Core/include/Framework/DataAllocator.h Pages: 1 -->
<!--zoomable 286 -->
<svg id="main" version="1.1" xmlns="http://www.w3.org/2000/svg" xmlns:xlink="http://www.w3.org/1999/xlink" xml:space="preserve" onload="init(evt)">
<style type="text/css"><![CDATA[
.edge:hover path { stroke: red; }
.edge:hover polygon { stroke: red; fill: red; }
]]></style>
<script type="text/javascript"><![CDATA[
var edges = document.getElementsByTagName('g');
if (edges && edges.length) {
  for (var i=0;i<edges.length;i++) {
    if (edges[i].id.substr(0,4)=='edge') {
      edges[i].setAttribute('class','edge');
    }
  }
}
]]></script>
        <defs>
                <circle id="rim" cx="0" cy="0" r="7"/>
                <circle id="rim2" cx="0" cy="0" r="3.5"/>
                <g id="zoomPlus">
                        <use xlink:href="#rim" fill="#404040">
                                <set attributeName="fill" to="#808080" begin="zoomplus.mouseover" end="zoomplus.mouseout"/>
                        </use>
                        <path d="M-4,0h8M0,-4v8" fill="none" stroke="white" stroke-width="1.5" pointer-events="none"/>
                </g>
                <g id="zoomMin">
                        <use xlink:href="#rim" fill="#404040">
                                <set attributeName="fill" to="#808080" begin="zoomminus.mouseover" end="zoomminus.mouseout"/>
                        </use>
                        <path d="M-4,0h8" fill="none" stroke="white" stroke-width="1.5" pointer-events="none"/>
                </g>
                <g id="dirArrow">
                        <path fill="none" stroke="white" stroke-width="1.5" d="M0,-3.0v7 M-2.5,-0.5L0,-3.0L2.5,-0.5"/>
                </g>
               <g id="resetDef">
                       <use xlink:href="#rim2" fill="#404040">
                               <set attributeName="fill" to="#808080" begin="reset.mouseover" end="reset.mouseout"/>
                       </use>
               </g>
        </defs>

<script type="text/javascript">
var viewWidth = 1607;
var viewHeight = 286;
var sectionId = 'dynsection-0';
</script>
<script xlink:href="../../svgpan.js"/>
<svg id="graph" class="graph">
<g id="viewport">
<title>/home/travis/build/AliceO2Group/AliceO2/Framework/Core/include/Framework/DataAllocator.h</title>
<!-- Node1 -->
<g id="node1" class="node"><title>Node1</title>
<polygon fill="#bfbfbf" stroke="black" points="793.5,-225 793.5,-277 932.5,-277 932.5,-225 793.5,-225"/>
<text text-anchor="start" x="801.5" y="-265" font-family="Helvetica,sans-Serif" font-size="10.00">/home/travis/build</text>
<text text-anchor="start" x="801.5" y="-254" font-family="Helvetica,sans-Serif" font-size="10.00">/AliceO2Group/AliceO2</text>
<text text-anchor="start" x="801.5" y="-243" font-family="Helvetica,sans-Serif" font-size="10.00">/Framework/Core/include</text>
<text text-anchor="middle" x="863" y="-232" font-family="Helvetica,sans-Serif" font-size="10.00">/Framework/DataAllocator.h</text>
</g>
<!-- Node2 -->
<g id="node2" class="node"><title>Node2</title>
<polygon fill="none" stroke="#bfbfbf" points="0,-168.5 0,-187.5 118,-187.5 118,-168.5 0,-168.5"/>
<text text-anchor="middle" x="59" y="-175.5" font-family="Helvetica,sans-Serif" font-size="10.00">fairmq/FairMQDevice.h</text>
</g>
<!-- Node1&#45;&gt;Node2 -->
<g id="edge1" class="edge"><title>Node1&#45;&gt;Node2</title>
<path fill="none" stroke="midnightblue" d="M793.371,-244.981C663.294,-235.409 374.596,-213.233 132,-188 130.889,-187.884 129.768,-187.766 128.64,-187.646"/>
<polygon fill="midnightblue" stroke="midnightblue" points="128.665,-184.127 118.341,-186.508 127.896,-191.085 128.665,-184.127"/>
</g>
<!-- Node3 -->
<g id="node3" class="node"><title>Node3</title>
<g id="a_node3"><a xlink:href="../../dc/dcd/DataHeader_8h.html" target="_top" xlink:title="Headers/DataHeader.h">
<polygon fill="none" stroke="black" points="317.5,-56.5 317.5,-75.5 434.5,-75.5 434.5,-56.5 317.5,-56.5"/>
<text text-anchor="middle" x="376" y="-63.5" font-family="Helvetica,sans-Serif" font-size="10.00">Headers/DataHeader.h</text>
</a>
</g>
</g>
<!-- Node1&#45;&gt;Node3 -->
<g id="edge2" class="edge"><title>Node1&#45;&gt;Node3</title>
<path fill="none" stroke="midnightblue" d="M793.402,-248.198C628.628,-243.302 224.993,-227.382 179,-188 152.911,-165.661 143.394,-138.699 165,-112 182.773,-90.0373 252.873,-78.3325 307.456,-72.4227"/>
<polygon fill="midnightblue" stroke="midnightblue" points="307.866,-75.8991 317.451,-71.3855 307.143,-68.9364 307.866,-75.8991"/>
</g>
<!-- Node9 -->
<g id="node9" class="node"><title>Node9</title>
<g id="a_node9"><a xlink:href="../../d6/df4/OutputRoute_8h.html" target="_top" xlink:title="Framework/OutputRoute.h">
<polygon fill="none" stroke="black" points="188,-168.5 188,-187.5 320,-187.5 320,-168.5 188,-168.5"/>
<text text-anchor="middle" x="254" y="-175.5" font-family="Helvetica,sans-Serif" font-size="10.00">Framework/OutputRoute.h</text>
</a>
</g>
</g>
<!-- Node1&#45;&gt;Node9 -->
<g id="edge8" class="edge"><title>Node1&#45;&gt;Node9</title>
<path fill="none" stroke="midnightblue" d="M793.437,-241.89C678.503,-228.491 449.828,-201.831 330.495,-187.918"/>
<polygon fill="midnightblue" stroke="midnightblue" points="330.683,-184.416 320.345,-186.735 329.872,-191.369 330.683,-184.416"/>
</g>
<!-- Node12 -->
<g id="node12" class="node"><title>Node12</title>
<polygon fill="none" stroke="#bfbfbf" points="388.5,-112.5 388.5,-131.5 429.5,-131.5 429.5,-112.5 388.5,-112.5"/>
<text text-anchor="middle" x="409" y="-119.5" font-family="Helvetica,sans-Serif" font-size="10.00">string</text>
</g>
<!-- Node1&#45;&gt;Node12 -->
<g id="edge40" class="edge"><title>Node1&#45;&gt;Node12</title>
<path fill="none" stroke="midnightblue" d="M793.46,-246.331C663.595,-238.764 394.765,-219.451 367,-188 353.219,-172.389 371.518,-151.857 388.105,-138.083"/>
<polygon fill="midnightblue" stroke="midnightblue" points="390.725,-140.477 396.444,-131.559 386.412,-134.964 390.725,-140.477"/>
</g>
<!-- Node13 -->
<g id="node13" class="node"><title>Node13</title>
<g id="a_node13"><a xlink:href="../../d7/d31/DataChunk_8h.html" target="_top" xlink:title="Framework/DataChunk.h">
<polygon fill="none" stroke="black" points="376,-168.5 376,-187.5 502,-187.5 502,-168.5 376,-168.5"/>
<text text-anchor="middle" x="439" y="-175.5" font-family="Helvetica,sans-Serif" font-size="10.00">Framework/DataChunk.h</text>
</a>
</g>
</g>
<!-- Node1&#45;&gt;Node13 -->
<g id="edge13" class="edge"><title>Node1&#45;&gt;Node13</title>
<path fill="none" stroke="midnightblue" d="M793.46,-238.355C711.842,-224.688 577.793,-202.241 500.04,-189.221"/>
<polygon fill="midnightblue" stroke="midnightblue" points="500.359,-185.726 489.918,-187.526 499.203,-192.63 500.359,-185.726"/>
</g>
<!-- Node14 -->
<g id="node14" class="node"><title>Node14</title>
<g id="a_node14"><a xlink:href="../../dc/dc4/MessageContext_8h.html" target="_top" xlink:title="Framework/MessageContext.h">
<polygon fill="none" stroke="black" points="520.5,-168.5 520.5,-187.5 671.5,-187.5 671.5,-168.5 520.5,-168.5"/>
<text text-anchor="middle" x="596" y="-175.5" font-family="Helvetica,sans-Serif" font-size="10.00">Framework/MessageContext.h</text>
</a>
</g>
</g>
<!-- Node1&#45;&gt;Node14 -->
<g id="edge14" class="edge"><title>Node1&#45;&gt;Node14</title>
<path fill="none" stroke="midnightblue" d="M793.198,-231.438C743.952,-218.343 679.601,-201.231 638.035,-190.178"/>
<polygon fill="midnightblue" stroke="midnightblue" points="638.803,-186.76 628.239,-187.573 637.004,-193.525 638.803,-186.76"/>
</g>
<!-- Node16 -->
<g id="node16" class="node"><title>Node16</title>
<polygon fill="none" stroke="#bfbfbf" points="614,-112.5 614,-131.5 658,-131.5 658,-112.5 614,-112.5"/>
<text text-anchor="middle" x="636" y="-119.5" font-family="Helvetica,sans-Serif" font-size="10.00">vector</text>
</g>
<!-- Node1&#45;&gt;Node16 -->
<g id="edge38" class="edge"><title>Node1&#45;&gt;Node16</title>
<path fill="none" stroke="midnightblue" d="M795.809,-224.931C771.288,-214.74 743.76,-202.044 720,-188 695.263,-173.378 669.515,-152.472 653.154,-138.35"/>
<polygon fill="midnightblue" stroke="midnightblue" points="655.338,-135.61 645.509,-131.653 650.725,-140.875 655.338,-135.61"/>
</g>
<!-- Node17 -->
<g id="node17" class="node"><title>Node17</title>
<g id="a_node17"><a xlink:href="../../d2/d80/RootObjectContext_8h.html" target="_top" xlink:title="Framework/RootObjectContext.h">
<polygon fill="none" stroke="black" points="728.5,-168.5 728.5,-187.5 889.5,-187.5 889.5,-168.5 728.5,-168.5"/>
<text text-anchor="middle" x="809" y="-175.5" font-family="Helvetica,sans-Serif" font-size="10.00">Framework/RootObjectContext.h</text>
</a>
</g>
</g>
<!-- Node1&#45;&gt;Node17 -->
<g id="edge19" class="edge"><title>Node1&#45;&gt;Node17</title>
<path fill="none" stroke="midnightblue" d="M843.81,-224.768C836.52,-215.183 828.399,-204.506 821.836,-195.877"/>
<polygon fill="midnightblue" stroke="midnightblue" points="824.5,-193.598 815.66,-187.757 818.928,-197.835 824.5,-193.598"/>
</g>
<!-- Node18 -->
<g id="node18" class="node"><title>Node18</title>
<polygon fill="none" stroke="#bfbfbf" points="792.5,-112.5 792.5,-131.5 919.5,-131.5 919.5,-112.5 792.5,-112.5"/>
<text text-anchor="middle" x="856" y="-119.5" font-family="Helvetica,sans-Serif" font-size="10.00">fairmq/FairMQMessage.h</text>
</g>
<!-- Node1&#45;&gt;Node18 -->
<g id="edge37" class="edge"><title>Node1&#45;&gt;Node18</title>
<path fill="none" stroke="midnightblue" d="M884.703,-224.665C895.807,-208.537 905.549,-187.153 898,-168 893.486,-156.548 884.531,-146.291 876.045,-138.472"/>
<polygon fill="midnightblue" stroke="midnightblue" points="878.085,-135.611 868.214,-131.764 873.531,-140.927 878.085,-135.611"/>
</g>
<!-- Node20 -->
<g id="node20" class="node"><title>Node20</title>
<g id="a_node20"><a xlink:href="../../d8/d3c/TMessageSerializer_8h.html" target="_top" xlink:title="Framework/TMessageSerializer.h">
<polygon fill="none" stroke="black" points="956.5,-168.5 956.5,-187.5 1119.5,-187.5 1119.5,-168.5 956.5,-168.5"/>
<text text-anchor="middle" x="1038" y="-175.5" font-family="Helvetica,sans-Serif" font-size="10.00">Framework/TMessageSerializer.h</text>
</a>
</g>
</g>
<!-- Node1&#45;&gt;Node20 -->
<g id="edge25" class="edge"><title>Node1&#45;&gt;Node20</title>
<path fill="none" stroke="midnightblue" d="M924.698,-224.968C952.643,-213.63 984.444,-200.728 1007.23,-191.485"/>
<polygon fill="midnightblue" stroke="midnightblue" points="1008.76,-194.642 1016.71,-187.639 1006.12,-188.155 1008.76,-194.642"/>
</g>
<!-- Node26 -->
<g id="node26" class="node"><title>Node26</title>
<polygon fill="none" stroke="#bfbfbf" points="1465.5,-112.5 1465.5,-131.5 1518.5,-131.5 1518.5,-112.5 1465.5,-112.5"/>
<text text-anchor="middle" x="1492" y="-119.5" font-family="Helvetica,sans-Serif" font-size="10.00">gsl/span</text>
</g>
<!-- Node1&#45;&gt;Node26 -->
<g id="edge43" class="edge"><title>Node1&#45;&gt;Node26</title>
<path fill="none" stroke="midnightblue" d="M932.637,-238.324C986.844,-228.139 1063.45,-211.323 1128,-188 1146.69,-181.245 1148.98,-173.78 1168,-168 1289.31,-131.126 1326.06,-153.614 1451,-132 1452.29,-131.776 1453.61,-131.54 1454.93,-131.293"/>
<polygon fill="midnightblue" stroke="midnightblue" points="1456.04,-134.641 1465.16,-129.252 1454.67,-127.776 1456.04,-134.641"/>
</g>
<!-- Node28 -->
<g id="node28" class="node"><title>Node28</title>
<g id="a_node28"><a xlink:href="../../d0/d95/TypeTraits_8h.html" target="_top" xlink:title="Framework/TypeTraits.h">
<polygon fill="none" stroke="black" points="1176.5,-168.5 1176.5,-187.5 1299.5,-187.5 1299.5,-168.5 1176.5,-168.5"/>
<text text-anchor="middle" x="1238" y="-175.5" font-family="Helvetica,sans-Serif" font-size="10.00">Framework/TypeTraits.h</text>
</a>
</g>
</g>
<!-- Node1&#45;&gt;Node28 -->
<g id="edge35" class="edge"><title>Node1&#45;&gt;Node28</title>
<path fill="none" stroke="midnightblue" d="M932.656,-236.812C1004.98,-223.118 1116.65,-201.975 1183.02,-189.41"/>
<polygon fill="midnightblue" stroke="midnightblue" points="1183.69,-192.844 1192.87,-187.545 1182.39,-185.967 1183.69,-192.844"/>
</g>
<!-- Node29 -->
<g id="node29" class="node"><title>Node29</title>
<polygon fill="none" stroke="#bfbfbf" points="1537,-112.5 1537,-131.5 1599,-131.5 1599,-112.5 1537,-112.5"/>
<text text-anchor="middle" x="1568" y="-119.5" font-family="Helvetica,sans-Serif" font-size="10.00">type_traits</text>
</g>
<!-- Node1&#45;&gt;Node29 -->
<g id="edge42" class="edge"><title>Node1&#45;&gt;Node29</title>
<path fill="none" stroke="midnightblue" d="M932.744,-247.271C1021.67,-242.219 1179.31,-227.956 1308,-188 1326.98,-182.106 1329.2,-174.461 1348,-168 1421.74,-142.653 1445.72,-148.198 1526.53,-132.02"/>
<polygon fill="midnightblue" stroke="midnightblue" points="1527.58,-135.377 1536.67,-129.936 1526.17,-128.52 1527.58,-135.377"/>
</g>
<!-- Node30 -->
<g id="node30" class="node"><title>Node30</title>
<polygon fill="none" stroke="#bfbfbf" points="1356.5,-168.5 1356.5,-187.5 1391.5,-187.5 1391.5,-168.5 1356.5,-168.5"/>
<text text-anchor="middle" x="1374" y="-175.5" font-family="Helvetica,sans-Serif" font-size="10.00">map</text>
</g>
<!-- Node1&#45;&gt;Node30 -->
<g id="edge39" class="edge"><title>Node1&#45;&gt;Node30</title>
<path fill="none" stroke="midnightblue" d="M932.532,-244.198C1026.2,-235.657 1197.81,-217.445 1342,-188 1343.45,-187.704 1344.93,-187.377 1346.42,-187.029"/>
<polygon fill="midnightblue" stroke="midnightblue" points="1347.37,-190.399 1356.17,-184.509 1345.61,-183.621 1347.37,-190.399"/>
</g>
<!-- Node31 -->
<g id="node31" class="node"><title>Node31</title>
<polygon fill="none" stroke="#bfbfbf" points="1410,-168.5 1410,-187.5 1450,-187.5 1450,-168.5 1410,-168.5"/>
<text text-anchor="middle" x="1430" y="-175.5" font-family="Helvetica,sans-Serif" font-size="10.00">utility</text>
</g>
<!-- Node1&#45;&gt;Node31 -->
<g id="edge41" class="edge"><title>Node1&#45;&gt;Node31</title>
<path fill="none" stroke="midnightblue" d="M932.709,-245.894C1035.73,-238.94 1234.32,-222.138 1400,-188 1400.1,-187.979 1400.2,-187.959 1400.3,-187.938"/>
<polygon fill="midnightblue" stroke="midnightblue" points="1400.92,-191.389 1409.79,-185.591 1399.24,-184.594 1400.92,-191.389"/>
</g>
<!-- Node32 -->
<g id="node32" class="node"><title>Node32</title>
<polygon fill="none" stroke="#bfbfbf" points="1468,-168.5 1468,-187.5 1524,-187.5 1524,-168.5 1468,-168.5"/>
<text text-anchor="middle" x="1496" y="-175.5" font-family="Helvetica,sans-Serif" font-size="10.00">TClass.h</text>
</g>
<!-- Node1&#45;&gt;Node32 -->
<g id="edge44" class="edge"><title>Node1&#45;&gt;Node32</title>
<path fill="none" stroke="midnightblue" d="M932.699,-245.812C1042.54,-238.537 1262.66,-221.229 1457.93,-187.973"/>
<polygon fill="midnightblue" stroke="midnightblue" points="1458.54,-191.42 1467.8,-186.275 1457.35,-184.521 1458.54,-191.42"/>
</g>
<!-- Node4 -->
<g id="node4" class="node"><title>Node4</title>
<polygon fill="none" stroke="#bfbfbf" points="289,-0.5 289,-19.5 335,-19.5 335,-0.5 289,-0.5"/>
<text text-anchor="middle" x="312" y="-7.5" font-family="Helvetica,sans-Serif" font-size="10.00">cstdint</text>
</g>
<!-- Node3&#45;&gt;Node4 -->
<g id="edge3" class="edge"><title>Node3&#45;&gt;Node4</title>
<path fill="none" stroke="midnightblue" d="M365.717,-56.324C356.164,-48.2631 341.72,-36.0765 330.216,-26.3695"/>
<polygon fill="midnightblue" stroke="midnightblue" points="332.37,-23.6076 322.47,-19.8339 327.856,-28.9577 332.37,-23.6076"/>
</g>
<!-- Node5 -->
<g id="node5" class="node"><title>Node5</title>
<polygon fill="none" stroke="#bfbfbf" points="1020,-0.5 1020,-19.5 1072,-19.5 1072,-0.5 1020,-0.5"/>
<text text-anchor="middle" x="1046" y="-7.5" font-family="Helvetica,sans-Serif" font-size="10.00">memory</text>
</g>
<!-- Node3&#45;&gt;Node5 -->
<g id="edge4" class="edge"><title>Node3&#45;&gt;Node5</title>
<path fill="none" stroke="midnightblue" d="M434.578,-60.2788C569.579,-49.3981 899.424,-22.8136 1009.54,-13.9388"/>
<polygon fill="midnightblue" stroke="midnightblue" points="1010.11,-17.4045 1019.79,-13.1123 1009.54,-10.4271 1010.11,-17.4045"/>
</g>
<!-- Node6 -->
<g id="node6" class="node"><title>Node6</title>
<polygon fill="none" stroke="#bfbfbf" points="561.5,-0.5 561.5,-19.5 610.5,-19.5 610.5,-0.5 561.5,-0.5"/>
<text text-anchor="middle" x="586" y="-7.5" font-family="Helvetica,sans-Serif" font-size="10.00">cassert</text>
</g>
<!-- Node3&#45;&gt;Node6 -->
<g id="edge5" class="edge"><title>Node3&#45;&gt;Node6</title>
<path fill="none" stroke="midnightblue" d="M409.275,-56.4435C448.132,-46.4518 512.091,-30.0051 551.476,-19.8775"/>
<polygon fill="midnightblue" stroke="midnightblue" points="552.597,-23.2032 561.411,-17.323 550.854,-16.4237 552.597,-23.2032"/>
</g>
<!-- Node7 -->
<g id="node7" class="node"><title>Node7</title>
<polygon fill="none" stroke="#bfbfbf" points="353,-0.5 353,-19.5 399,-19.5 399,-0.5 353,-0.5"/>
<text text-anchor="middle" x="376" y="-7.5" font-family="Helvetica,sans-Serif" font-size="10.00">cstring</text>
</g>
<!-- Node3&#45;&gt;Node7 -->
<g id="edge6" class="edge"><title>Node3&#45;&gt;Node7</title>
<path fill="none" stroke="midnightblue" d="M376,-56.083C376,-49.0059 376,-38.8611 376,-29.9865"/>
<polygon fill="midnightblue" stroke="midnightblue" points="379.5,-29.751 376,-19.7511 372.5,-29.7511 379.5,-29.751"/>
</g>
<!-- Node8 -->
<g id="node8" class="node"><title>Node8</title>
<polygon fill="none" stroke="#bfbfbf" points="417,-0.5 417,-19.5 473,-19.5 473,-0.5 417,-0.5"/>
<text text-anchor="middle" x="445" y="-7.5" font-family="Helvetica,sans-Serif" font-size="10.00">algorithm</text>
</g>
<!-- Node3&#45;&gt;Node8 -->
<g id="edge7" class="edge"><title>Node3&#45;&gt;Node8</title>
<path fill="none" stroke="midnightblue" d="M387.086,-56.324C397.486,-48.1849 413.261,-35.8395 425.722,-26.0874"/>
<polygon fill="midnightblue" stroke="midnightblue" points="427.994,-28.7533 433.712,-19.8339 423.68,-23.2407 427.994,-28.7533"/>
</g>
<!-- Node10 -->
<g id="node10" class="node"><title>Node10</title>
<g id="a_node10"><a xlink:href="../../db/d2d/OutputSpec_8h.html" target="_top" xlink:title="Framework/OutputSpec.h">
<polygon fill="none" stroke="black" points="242,-112.5 242,-131.5 370,-131.5 370,-112.5 242,-112.5"/>
<text text-anchor="middle" x="306" y="-119.5" font-family="Helvetica,sans-Serif" font-size="10.00">Framework/OutputSpec.h</text>
</a>
</g>
</g>
<!-- Node9&#45;&gt;Node10 -->
<g id="edge9" class="edge"><title>Node9&#45;&gt;Node10</title>
<path fill="none" stroke="midnightblue" d="M262.587,-168.083C270.159,-160.22 281.378,-148.569 290.514,-139.081"/>
<polygon fill="midnightblue" stroke="midnightblue" points="293.158,-141.382 297.573,-131.751 288.115,-136.527 293.158,-141.382"/>
</g>
<!-- Node11 -->
<g id="node11" class="node"><title>Node11</title>
<polygon fill="none" stroke="#bfbfbf" points="174.5,-112.5 174.5,-131.5 223.5,-131.5 223.5,-112.5 174.5,-112.5"/>
<text text-anchor="middle" x="199" y="-119.5" font-family="Helvetica,sans-Serif" font-size="10.00">cstddef</text>
</g>
<!-- Node9&#45;&gt;Node11 -->
<g id="edge11" class="edge"><title>Node9&#45;&gt;Node11</title>
<path fill="none" stroke="midnightblue" d="M244.918,-168.083C236.829,-160.141 224.805,-148.335 215.09,-138.797"/>
<polygon fill="midnightblue" stroke="midnightblue" points="217.501,-136.26 207.913,-131.751 212.597,-141.254 217.501,-136.26"/>
</g>
<!-- Node9&#45;&gt;Node12 -->
<g id="edge12" class="edge"><title>Node9&#45;&gt;Node12</title>
<path fill="none" stroke="midnightblue" d="M278.56,-168.444C305.592,-159.026 349.082,-143.875 378.332,-133.684"/>
<polygon fill="midnightblue" stroke="midnightblue" points="379.742,-136.899 388.034,-130.304 377.439,-130.289 379.742,-136.899"/>
</g>
<!-- Node10&#45;&gt;Node3 -->
<g id="edge10" class="edge"><title>Node10&#45;&gt;Node3</title>
<path fill="none" stroke="midnightblue" d="M317.247,-112.324C327.797,-104.185 343.801,-91.8395 356.442,-82.0874"/>
<polygon fill="midnightblue" stroke="midnightblue" points="358.769,-84.7132 364.549,-75.8339 354.493,-79.1707 358.769,-84.7132"/>
</g>
<!-- Node14&#45;&gt;Node6 -->
<g id="edge17" class="edge"><title>Node14&#45;&gt;Node6</title>
<path fill="none" stroke="midnightblue" d="M595.462,-168.075C593.888,-141.945 589.266,-65.2106 587.119,-29.577"/>
<polygon fill="midnightblue" stroke="midnightblue" points="590.611,-29.3395 586.516,-19.5681 583.624,-29.7605 590.611,-29.3395"/>
</g>
<!-- Node14&#45;&gt;Node12 -->
<g id="edge18" class="edge"><title>Node14&#45;&gt;Node12</title>
<path fill="none" stroke="midnightblue" d="M565.87,-168.483C536.155,-160.057 489.201,-146.674 439.323,-132.069"/>
<polygon fill="midnightblue" stroke="midnightblue" points="440.228,-128.686 429.647,-129.23 438.258,-135.403 440.228,-128.686"/>
</g>
<!-- Node15 -->
<g id="node15" class="node"><title>Node15</title>
<polygon fill="none" stroke="#bfbfbf" points="448,-112.5 448,-131.5 558,-131.5 558,-112.5 448,-112.5"/>
<text text-anchor="middle" x="503" y="-119.5" font-family="Helvetica,sans-Serif" font-size="10.00">fairmq/FairMQParts.h</text>
</g>
<!-- Node14&#45;&gt;Node15 -->
<g id="edge15" class="edge"><title>Node14&#45;&gt;Node15</title>
<path fill="none" stroke="midnightblue" d="M581.058,-168.324C566.415,-159.822 543.866,-146.729 526.762,-136.797"/>
<polygon fill="midnightblue" stroke="midnightblue" points="528.31,-133.649 517.905,-131.655 524.795,-139.703 528.31,-133.649"/>
</g>
<!-- Node14&#45;&gt;Node16 -->
<g id="edge16" class="edge"><title>Node14&#45;&gt;Node16</title>
<path fill="none" stroke="midnightblue" d="M602.605,-168.083C608.255,-160.455 616.545,-149.264 623.451,-139.941"/>
<polygon fill="midnightblue" stroke="midnightblue" points="626.378,-141.87 629.518,-131.751 620.753,-137.703 626.378,-141.87"/>
</g>
<!-- Node17&#45;&gt;Node6 -->
<g id="edge23" class="edge"><title>Node17&#45;&gt;Node6</title>
<path fill="none" stroke="midnightblue" d="M801.521,-168.408C789.941,-155.374 766.638,-130.198 744,-112 699.889,-76.5415 642.829,-42.6664 610.746,-24.5751"/>
<polygon fill="midnightblue" stroke="midnightblue" points="612.449,-21.517 602.012,-19.6926 609.033,-27.6271 612.449,-21.517"/>
</g>
<!-- Node17&#45;&gt;Node12 -->
<g id="edge24" class="edge"><title>Node17&#45;&gt;Node12</title>
<path fill="none" stroke="midnightblue" d="M728.239,-171.167C655.129,-164.975 544.439,-153.338 439.361,-131.718"/>
<polygon fill="midnightblue" stroke="midnightblue" points="440.043,-128.285 429.538,-129.664 438.61,-135.137 440.043,-128.285"/>
</g>
<!-- Node17&#45;&gt;Node16 -->
<g id="edge22" class="edge"><title>Node17&#45;&gt;Node16</title>
<path fill="none" stroke="midnightblue" d="M781.588,-168.444C750.724,-158.81 700.635,-143.175 668.004,-132.99"/>
<polygon fill="midnightblue" stroke="midnightblue" points="668.658,-129.527 658.069,-129.889 666.572,-136.209 668.658,-129.527"/>
</g>
<!-- Node17&#45;&gt;Node18 -->
<g id="edge20" class="edge"><title>Node17&#45;&gt;Node18</title>
<path fill="none" stroke="midnightblue" d="M816.761,-168.083C823.537,-160.298 833.543,-148.801 841.755,-139.367"/>
<polygon fill="midnightblue" stroke="midnightblue" points="844.458,-141.592 848.383,-131.751 839.178,-136.996 844.458,-141.592"/>
</g>
<!-- Node19 -->
<g id="node19" class="node"><title>Node19</title>
<polygon fill="none" stroke="#bfbfbf" points="676.5,-112.5 676.5,-131.5 735.5,-131.5 735.5,-112.5 676.5,-112.5"/>
<text text-anchor="middle" x="706" y="-119.5" font-family="Helvetica,sans-Serif" font-size="10.00">TObject.h</text>
</g>
<!-- Node17&#45;&gt;Node19 -->
<g id="edge21" class="edge"><title>Node17&#45;&gt;Node19</title>
<path fill="none" stroke="midnightblue" d="M792.451,-168.324C776.008,-159.703 750.565,-146.364 731.532,-136.386"/>
<polygon fill="midnightblue" stroke="midnightblue" points="732.989,-133.198 722.508,-131.655 729.739,-139.398 732.989,-133.198"/>
</g>
<!-- Node20&#45;&gt;Node5 -->
<g id="edge33" class="edge"><title>Node20&#45;&gt;Node5</title>
<path fill="none" stroke="midnightblue" d="M1114.98,-168.499C1225.04,-156.255 1414.5,-134.81 1417,-132 1512.78,-24.1724 1192.71,-12.0047 1082.18,-10.9648"/>
<polygon fill="midnightblue" stroke="midnightblue" points="1082.18,-7.4648 1072.16,-10.896 1082.13,-14.4646 1082.18,-7.4648"/>
</g>
<!-- Node20&#45;&gt;Node18 -->
<g id="edge26" class="edge"><title>Node20&#45;&gt;Node18</title>
<path fill="none" stroke="midnightblue" d="M1009.16,-168.444C978.144,-159.241 928.671,-144.562 894.382,-134.388"/>
<polygon fill="midnightblue" stroke="midnightblue" points="895.286,-131.006 884.704,-131.516 893.295,-137.716 895.286,-131.006"/>
</g>
<!-- Node21 -->
<g id="node21" class="node"><title>Node21</title>
<polygon fill="none" stroke="#bfbfbf" points="937.5,-112.5 937.5,-131.5 984.5,-131.5 984.5,-112.5 937.5,-112.5"/>
<text text-anchor="middle" x="961" y="-119.5" font-family="Helvetica,sans-Serif" font-size="10.00">TList.h</text>
</g>
<!-- Node20&#45;&gt;Node21 -->
<g id="edge27" class="edge"><title>Node20&#45;&gt;Node21</title>
<path fill="none" stroke="midnightblue" d="M1025.63,-168.324C1013.84,-160.058 995.868,-147.453 981.864,-137.632"/>
<polygon fill="midnightblue" stroke="midnightblue" points="983.538,-134.531 973.341,-131.655 979.518,-140.262 983.538,-134.531"/>
</g>
<!-- Node22 -->
<g id="node22" class="node"><title>Node22</title>
<polygon fill="none" stroke="#bfbfbf" points="1002.5,-112.5 1002.5,-131.5 1073.5,-131.5 1073.5,-112.5 1002.5,-112.5"/>
<text text-anchor="middle" x="1038" y="-119.5" font-family="Helvetica,sans-Serif" font-size="10.00">TMessage.h</text>
</g>
<!-- Node20&#45;&gt;Node22 -->
<g id="edge28" class="edge"><title>Node20&#45;&gt;Node22</title>
<path fill="none" stroke="midnightblue" d="M1038,-168.083C1038,-161.006 1038,-150.861 1038,-141.986"/>
<polygon fill="midnightblue" stroke="midnightblue" points="1041.5,-141.751 1038,-131.751 1034.5,-141.751 1041.5,-141.751"/>
</g>
<!-- Node23 -->
<g id="node23" class="node"><title>Node23</title>
<polygon fill="none" stroke="#bfbfbf" points="1091.5,-112.5 1091.5,-131.5 1160.5,-131.5 1160.5,-112.5 1091.5,-112.5"/>
<text text-anchor="middle" x="1126" y="-119.5" font-family="Helvetica,sans-Serif" font-size="10.00">TObjArray.h</text>
</g>
<!-- Node20&#45;&gt;Node23 -->
<g id="edge29" class="edge"><title>Node20&#45;&gt;Node23</title>
<path fill="none" stroke="midnightblue" d="M1052.14,-168.324C1065.87,-159.9 1086.94,-146.971 1103.06,-137.074"/>
<polygon fill="midnightblue" stroke="midnightblue" points="1105.2,-139.868 1111.9,-131.655 1101.54,-133.902 1105.2,-139.868"/>
</g>
<!-- Node24 -->
<g id="node24" class="node"><title>Node24</title>
<polygon fill="none" stroke="#bfbfbf" points="1178.5,-112.5 1178.5,-131.5 1265.5,-131.5 1265.5,-112.5 1178.5,-112.5"/>
<text text-anchor="middle" x="1222" y="-119.5" font-family="Helvetica,sans-Serif" font-size="10.00">TStreamerInfo.h</text>
</g>
<!-- Node20&#45;&gt;Node24 -->
<g id="edge30" class="edge"><title>Node20&#45;&gt;Node24</title>
<path fill="none" stroke="midnightblue" d="M1067.16,-168.444C1098.51,-159.241 1148.53,-144.562 1183.2,-134.388"/>
<polygon fill="midnightblue" stroke="midnightblue" points="1184.37,-137.691 1192.98,-131.516 1182.4,-130.974 1184.37,-137.691"/>
</g>
<!-- Node25 -->
<g id="node25" class="node"><title>Node25</title>
<polygon fill="none" stroke="#bfbfbf" points="1283.5,-112.5 1283.5,-131.5 1346.5,-131.5 1346.5,-112.5 1283.5,-112.5"/>
<text text-anchor="middle" x="1315" y="-119.5" font-family="Helvetica,sans-Serif" font-size="10.00">gsl/gsl_util</text>
</g>
<!-- Node20&#45;&gt;Node25 -->
<g id="edge31" class="edge"><title>Node20&#45;&gt;Node25</title>
<path fill="none" stroke="midnightblue" d="M1084.64,-168.499C1130.17,-160.116 1201.64,-146.719 1273.15,-132.13"/>
<polygon fill="midnightblue" stroke="midnightblue" points="1274.14,-135.499 1283.23,-130.064 1272.74,-128.642 1274.14,-135.499"/>
</g>
<!-- Node20&#45;&gt;Node26 -->
<g id="edge32" class="edge"><title>Node20&#45;&gt;Node26</title>
<path fill="none" stroke="midnightblue" d="M1119.79,-169.142C1221.5,-159.186 1389.25,-142.111 1451,-132 1452.29,-131.788 1453.61,-131.561 1454.94,-131.323"/>
<polygon fill="midnightblue" stroke="midnightblue" points="1456.03,-134.676 1465.17,-129.322 1454.69,-127.806 1456.03,-134.676"/>
</g>
<!-- Node27 -->
<g id="node27" class="node"><title>Node27</title>
<polygon fill="none" stroke="#bfbfbf" points="1365,-112.5 1365,-131.5 1409,-131.5 1409,-112.5 1365,-112.5"/>
<text text-anchor="middle" x="1387" y="-119.5" font-family="Helvetica,sans-Serif" font-size="10.00">mutex</text>
</g>
<!-- Node20&#45;&gt;Node27 -->
<g id="edge34" class="edge"><title>Node20&#45;&gt;Node27</title>
<path fill="none" stroke="midnightblue" d="M1119.3,-168.48C1181.26,-161.288 1268.8,-149.632 1354.78,-131.77"/>
<polygon fill="midnightblue" stroke="midnightblue" points="1355.65,-135.164 1364.71,-129.677 1354.21,-128.314 1355.65,-135.164"/>
</g>
<!-- Node28&#45;&gt;Node29 -->
<g id="edge36" class="edge"><title>Node28&#45;&gt;Node29</title>
<path fill="none" stroke="midnightblue" d="M1299.64,-168.525C1356.04,-160.515 1442.04,-147.665 1526.66,-131.958"/>
<polygon fill="midnightblue" stroke="midnightblue" points="1527.52,-135.358 1536.7,-130.078 1526.23,-128.477 1527.52,-135.358"/>
</g>
</g>
</svg>
        <g id="navigator" transform="translate(0 0)" fill="#404254">
                <rect fill="#f2f5e9" fill-opacity="0.5" stroke="#606060" stroke-width=".5" x="0" y="0" width="60" height="60"/>
                <use id="zoomplus" xlink:href="#zoomPlus" x="17" y="9" onmousedown="handleZoom(evt,'in')"/>
                <use id="zoomminus" xlink:href="#zoomMin" x="42" y="9" onmousedown="handleZoom(evt,'out')"/>
                <use id="reset" xlink:href="#resetDef" x="30" y="36" onmousedown="handleReset()"/>
                <g id="arrowUp" xlink:href="#dirArrow" transform="translate(30 24)" onmousedown="handlePan(0,-1)">
                  <use xlink:href="#rim" fill="#404040">
                        <set attributeName="fill" to="#808080" begin="arrowUp.mouseover" end="arrowUp.mouseout"/>
                  </use>
                  <path fill="none" stroke="white" stroke-width="1.5" d="M0,-3.0v7 M-2.5,-0.5L0,-3.0L2.5,-0.5"/>
                </g>
                <g id="arrowRight" xlink:href="#dirArrow" transform="rotate(90) translate(36 -43)" onmousedown="handlePan(1,0)">
                  <use xlink:href="#rim" fill="#404040">
                        <set attributeName="fill" to="#808080" begin="arrowRight.mouseover" end="arrowRight.mouseout"/>
                  </use>
                  <path fill="none" stroke="white" stroke-width="1.5" d="M0,-3.0v7 M-2.5,-0.5L0,-3.0L2.5,-0.5"/>
                </g>
                <g id="arrowDown" xlink:href="#dirArrow" transform="rotate(180) translate(-30 -48)" onmousedown="handlePan(0,1)">
                  <use xlink:href="#rim" fill="#404040">
                        <set attributeName="fill" to="#808080" begin="arrowDown.mouseover" end="arrowDown.mouseout"/>
                  </use>
                  <path fill="none" stroke="white" stroke-width="1.5" d="M0,-3.0v7 M-2.5,-0.5L0,-3.0L2.5,-0.5"/>
                </g>
                <g id="arrowLeft" xlink:href="#dirArrow" transform="rotate(270) translate(-36 17)" onmousedown="handlePan(-1,0)">
                  <use xlink:href="#rim" fill="#404040">
                        <set attributeName="fill" to="#808080" begin="arrowLeft.mouseover" end="arrowLeft.mouseout"/>
                  </use>
                  <path fill="none" stroke="white" stroke-width="1.5" d="M0,-3.0v7 M-2.5,-0.5L0,-3.0L2.5,-0.5"/>
                </g>
        </g>
        <svg viewBox="0 0 15 15" width="100%" height="30px" preserveAspectRatio="xMaxYMin meet">
         <g id="arrow_out" transform="scale(0.3 0.3)">
          <a xlink:href="DataAllocator_8h__incl_org.svg" target="_base">
           <rect id="button" ry="5" rx="5" y="6" x="6" height="38" width="38"
                fill="#f2f5e9" fill-opacity="0.5" stroke="#606060" stroke-width="1.0"/>
           <path id="arrow"
             d="M 11.500037,31.436501 C 11.940474,20.09759 22.043105,11.32322 32.158766,21.979434 L 37.068811,17.246167 C 37.068811,17.246167 37.088388,32 37.088388,32 L 22.160133,31.978069 C 22.160133,31.978069 26.997745,27.140456 26.997745,27.140456 C 18.528582,18.264221 13.291696,25.230495 11.500037,31.436501 z"
             style="fill:#404040;"/>
          </a>
         </g>
        </svg>
</svg>
