<?xml version="1.0" encoding="UTF-8" standalone="no"?>
<!DOCTYPE svg PUBLIC "-//W3C//DTD SVG 1.1//EN"
 "http://www.w3.org/Graphics/SVG/1.1/DTD/svg11.dtd">
<!-- Generated by graphviz version 2.36.0 (20140111.2315)
 -->
<!-- Title: /home/travis/build/AliceO2Group/AliceO2/DataFormats/simulation/include/SimulationDataFormat/MCTrack.h Pages: 1 -->
<svg width="806pt" height="240pt"
 viewBox="0.00 0.00 805.69 240.00" xmlns="http://www.w3.org/2000/svg" xmlns:xlink="http://www.w3.org/1999/xlink">
<g id="graph0" class="graph" transform="scale(1 1) rotate(0) translate(4 236)">
<title>/home/travis/build/AliceO2Group/AliceO2/DataFormats/simulation/include/SimulationDataFormat/MCTrack.h</title>
<!-- Node1 -->
<g id="node1" class="node"><title>Node1</title>
<polygon fill="#bfbfbf" stroke="black" points="262.187,-168.5 262.187,-231.5 413.187,-231.5 413.187,-168.5 262.187,-168.5"/>
<text text-anchor="start" x="270.187" y="-219.5" font-family="Helvetica,sans-Serif" font-size="10.00">/home/travis/build</text>
<text text-anchor="start" x="270.187" y="-208.5" font-family="Helvetica,sans-Serif" font-size="10.00">/AliceO2Group/AliceO2</text>
<text text-anchor="start" x="270.187" y="-197.5" font-family="Helvetica,sans-Serif" font-size="10.00">/DataFormats/simulation</text>
<text text-anchor="start" x="270.187" y="-186.5" font-family="Helvetica,sans-Serif" font-size="10.00">/include/SimulationDataFormat</text>
<text text-anchor="middle" x="337.687" y="-175.5" font-family="Helvetica,sans-Serif" font-size="10.00">/MCTrack.h</text>
</g>
<!-- Node2 -->
<g id="node2" class="node"><title>Node2</title>
<polygon fill="none" stroke="#bfbfbf" points="32.6868,-56.5 32.6868,-75.5 88.6868,-75.5 88.6868,-56.5 32.6868,-56.5"/>
<text text-anchor="middle" x="60.6868" y="-63.5" font-family="Helvetica,sans-Serif" font-size="10.00">Rtypes.h</text>
</g>
<!-- Node1&#45;&gt;Node2 -->
<g id="edge1" class="edge"><title>Node1&#45;&gt;Node2</title>
<path fill="none" stroke="midnightblue" d="M262.109,-194.618C174.075,-187.751 36.5835,-170.954 4.68679,-132 -10.0935,-113.95 14.1737,-93.6556 35.2412,-80.6198"/>
<polygon fill="midnightblue" stroke="midnightblue" points="37.1002,-83.5871 43.9511,-75.5052 33.5556,-77.5509 37.1002,-83.5871"/>
</g>
<!-- Node3 -->
<g id="node3" class="node"><title>Node3</title>
<polygon fill="none" stroke="#bfbfbf" points="13.6868,-112.5 13.6868,-131.5 105.687,-131.5 105.687,-112.5 13.6868,-112.5"/>
<text text-anchor="middle" x="59.6868" y="-119.5" font-family="Helvetica,sans-Serif" font-size="10.00">TLorentzVector.h</text>
</g>
<!-- Node1&#45;&gt;Node3 -->
<g id="edge2" class="edge"><title>Node1&#45;&gt;Node3</title>
<path fill="none" stroke="midnightblue" d="M262.089,-178.333C210.14,-164.131 143.155,-145.819 100.797,-134.239"/>
<polygon fill="midnightblue" stroke="midnightblue" points="101.674,-130.85 91.1055,-131.589 99.8285,-137.603 101.674,-130.85"/>
</g>
<!-- Node4 -->
<g id="node4" class="node"><title>Node4</title>
<polygon fill="none" stroke="#bfbfbf" points="124.187,-112.5 124.187,-131.5 177.187,-131.5 177.187,-112.5 124.187,-112.5"/>
<text text-anchor="middle" x="150.687" y="-119.5" font-family="Helvetica,sans-Serif" font-size="10.00">TMath.h</text>
</g>
<!-- Node1&#45;&gt;Node4 -->
<g id="edge3" class="edge"><title>Node1&#45;&gt;Node4</title>
<path fill="none" stroke="midnightblue" d="M262.435,-168.416C234.096,-156.899 203.43,-144.436 181.404,-135.484"/>
<polygon fill="midnightblue" stroke="midnightblue" points="182.513,-132.157 171.931,-131.634 179.877,-138.642 182.513,-132.157"/>
</g>
<!-- Node5 -->
<g id="node5" class="node"><title>Node5</title>
<polygon fill="none" stroke="#bfbfbf" points="195.187,-112.5 195.187,-131.5 260.187,-131.5 260.187,-112.5 195.187,-112.5"/>
<text text-anchor="middle" x="227.687" y="-119.5" font-family="Helvetica,sans-Serif" font-size="10.00">TVector3.h</text>
</g>
<!-- Node1&#45;&gt;Node5 -->
<g id="edge4" class="edge"><title>Node1&#45;&gt;Node5</title>
<path fill="none" stroke="midnightblue" d="M293.263,-168.307C277.909,-157.699 261.412,-146.301 248.806,-137.591"/>
<polygon fill="midnightblue" stroke="midnightblue" points="250.603,-134.579 240.386,-131.774 246.624,-140.338 250.603,-134.579"/>
</g>
<!-- Node6 -->
<g id="node6" class="node"><title>Node6</title>
<g id="a_node6"><a xlink:href="../../d6/d31/DetID_8h.html" target="_top" xlink:title="DetectorsBase/DetID.h">
<polygon fill="none" stroke="black" points="278.187,-112.5 278.187,-131.5 397.187,-131.5 397.187,-112.5 278.187,-112.5"/>
<text text-anchor="middle" x="337.687" y="-119.5" font-family="Helvetica,sans-Serif" font-size="10.00">DetectorsBase/DetID.h</text>
</a>
</g>
</g>
<!-- Node1&#45;&gt;Node6 -->
<g id="edge5" class="edge"><title>Node1&#45;&gt;Node6</title>
<path fill="none" stroke="midnightblue" d="M337.687,-168.088C337.687,-159.15 337.687,-149.669 337.687,-141.719"/>
<polygon fill="midnightblue" stroke="midnightblue" points="341.187,-141.718 337.687,-131.718 334.187,-141.718 341.187,-141.718"/>
</g>
<!-- Node15 -->
<g id="node15" class="node"><title>Node15</title>
<polygon fill="none" stroke="#bfbfbf" points="415.187,-112.5 415.187,-131.5 510.187,-131.5 510.187,-112.5 415.187,-112.5"/>
<text text-anchor="middle" x="462.687" y="-119.5" font-family="Helvetica,sans-Serif" font-size="10.00">TDatabasePDG.h</text>
</g>
<!-- Node1&#45;&gt;Node15 -->
<g id="edge16" class="edge"><title>Node1&#45;&gt;Node15</title>
<path fill="none" stroke="midnightblue" d="M388.169,-168.307C406.066,-157.425 425.33,-145.713 439.788,-136.923"/>
<polygon fill="midnightblue" stroke="midnightblue" points="441.805,-139.792 448.531,-131.607 438.168,-133.811 441.805,-139.792"/>
</g>
<!-- Node16 -->
<g id="node16" class="node"><title>Node16</title>
<polygon fill="none" stroke="#bfbfbf" points="528.687,-112.5 528.687,-131.5 592.687,-131.5 592.687,-112.5 528.687,-112.5"/>
<text text-anchor="middle" x="560.687" y="-119.5" font-family="Helvetica,sans-Serif" font-size="10.00">TParticle.h</text>
</g>
<!-- Node1&#45;&gt;Node16 -->
<g id="edge17" class="edge"><title>Node1&#45;&gt;Node16</title>
<path fill="none" stroke="midnightblue" d="M413.496,-173.164C451.612,-160.173 495.949,-145.063 525.922,-134.848"/>
<polygon fill="midnightblue" stroke="midnightblue" points="527.169,-138.121 535.506,-131.582 524.911,-131.495 527.169,-138.121"/>
</g>
<!-- Node17 -->
<g id="node17" class="node"><title>Node17</title>
<polygon fill="none" stroke="#bfbfbf" points="610.687,-112.5 610.687,-131.5 696.687,-131.5 696.687,-112.5 610.687,-112.5"/>
<text text-anchor="middle" x="653.687" y="-119.5" font-family="Helvetica,sans-Serif" font-size="10.00">TParticlePDG.h</text>
</g>
<!-- Node1&#45;&gt;Node17 -->
<g id="edge18" class="edge"><title>Node1&#45;&gt;Node17</title>
<path fill="none" stroke="midnightblue" d="M413.377,-180.796C474.145,-166.181 557.45,-146.146 608.317,-133.912"/>
<polygon fill="midnightblue" stroke="midnightblue" points="609.137,-137.314 618.041,-131.573 607.5,-130.509 609.137,-137.314"/>
</g>
<!-- Node18 -->
<g id="node18" class="node"><title>Node18</title>
<polygon fill="none" stroke="#bfbfbf" points="715.187,-112.5 715.187,-131.5 798.187,-131.5 798.187,-112.5 715.187,-112.5"/>
<text text-anchor="middle" x="756.687" y="-119.5" font-family="Helvetica,sans-Serif" font-size="10.00">TMCProcess.h</text>
</g>
<!-- Node1&#45;&gt;Node18 -->
<g id="edge19" class="edge"><title>Node1&#45;&gt;Node18</title>
<path fill="none" stroke="midnightblue" d="M413.565,-185.237C498.028,-169.917 632.223,-145.576 705.243,-132.331"/>
<polygon fill="midnightblue" stroke="midnightblue" points="705.914,-135.767 715.129,-130.538 704.665,-128.879 705.914,-135.767"/>
</g>
<!-- Node6&#45;&gt;Node2 -->
<g id="edge6" class="edge"><title>Node6&#45;&gt;Node2</title>
<path fill="none" stroke="midnightblue" d="M293.795,-112.444C239.99,-101.954 149.695,-84.3518 98.7161,-74.4137"/>
<polygon fill="midnightblue" stroke="midnightblue" points="99.2493,-70.9518 88.7644,-72.4736 97.9099,-77.8225 99.2493,-70.9518"/>
</g>
<!-- Node7 -->
<g id="node7" class="node"><title>Node7</title>
<polygon fill="none" stroke="#bfbfbf" points="270.687,-0.5 270.687,-19.5 308.687,-19.5 308.687,-0.5 270.687,-0.5"/>
<text text-anchor="middle" x="289.687" y="-7.5" font-family="Helvetica,sans-Serif" font-size="10.00">array</text>
</g>
<!-- Node6&#45;&gt;Node7 -->
<g id="edge7" class="edge"><title>Node6&#45;&gt;Node7</title>
<path fill="none" stroke="midnightblue" d="M299.487,-112.465C266.344,-104.194 222.09,-90.7625 211.687,-76 194.883,-52.1551 232.399,-31.9763 261.028,-20.6882"/>
<polygon fill="midnightblue" stroke="midnightblue" points="262.543,-23.8587 270.681,-17.0748 260.088,-17.303 262.543,-23.8587"/>
</g>
<!-- Node8 -->
<g id="node8" class="node"><title>Node8</title>
<polygon fill="none" stroke="#bfbfbf" points="221.187,-56.5 221.187,-75.5 262.187,-75.5 262.187,-56.5 221.187,-56.5"/>
<text text-anchor="middle" x="241.687" y="-63.5" font-family="Helvetica,sans-Serif" font-size="10.00">bitset</text>
</g>
<!-- Node6&#45;&gt;Node8 -->
<g id="edge8" class="edge"><title>Node6&#45;&gt;Node8</title>
<path fill="none" stroke="midnightblue" d="M322.263,-112.324C307.147,-103.822 283.871,-90.7288 266.216,-80.7975"/>
<polygon fill="midnightblue" stroke="midnightblue" points="267.504,-77.5066 257.073,-75.6545 264.072,-83.6077 267.504,-77.5066"/>
</g>
<!-- Node9 -->
<g id="node9" class="node"><title>Node9</title>
<polygon fill="none" stroke="#bfbfbf" points="280.187,-56.5 280.187,-75.5 329.187,-75.5 329.187,-56.5 280.187,-56.5"/>
<text text-anchor="middle" x="304.687" y="-63.5" font-family="Helvetica,sans-Serif" font-size="10.00">cassert</text>
</g>
<!-- Node6&#45;&gt;Node9 -->
<g id="edge9" class="edge"><title>Node6&#45;&gt;Node9</title>
<path fill="none" stroke="midnightblue" d="M332.238,-112.083C327.672,-104.613 321.018,-93.7244 315.393,-84.5199"/>
<polygon fill="midnightblue" stroke="midnightblue" points="318.236,-82.4588 310.035,-75.7511 312.263,-86.109 318.236,-82.4588"/>
</g>
<!-- Node10 -->
<g id="node10" class="node"><title>Node10</title>
<polygon fill="none" stroke="#bfbfbf" points="347.687,-56.5 347.687,-75.5 393.687,-75.5 393.687,-56.5 347.687,-56.5"/>
<text text-anchor="middle" x="370.687" y="-63.5" font-family="Helvetica,sans-Serif" font-size="10.00">cstdint</text>
</g>
<!-- Node6&#45;&gt;Node10 -->
<g id="edge10" class="edge"><title>Node6&#45;&gt;Node10</title>
<path fill="none" stroke="midnightblue" d="M343.136,-112.083C347.701,-104.613 354.355,-93.7244 359.98,-84.5199"/>
<polygon fill="midnightblue" stroke="midnightblue" points="363.111,-86.109 365.339,-75.7511 357.138,-82.4588 363.111,-86.109"/>
</g>
<!-- Node11 -->
<g id="node11" class="node"><title>Node11</title>
<polygon fill="none" stroke="#bfbfbf" points="411.687,-56.5 411.687,-75.5 473.687,-75.5 473.687,-56.5 411.687,-56.5"/>
<text text-anchor="middle" x="442.687" y="-63.5" font-family="Helvetica,sans-Serif" font-size="10.00">type_traits</text>
</g>
<!-- Node6&#45;&gt;Node11 -->
<g id="edge11" class="edge"><title>Node6&#45;&gt;Node11</title>
<path fill="none" stroke="midnightblue" d="M354.557,-112.324C371.396,-103.664 397.493,-90.2424 416.925,-80.249"/>
<polygon fill="midnightblue" stroke="midnightblue" points="418.566,-83.3405 425.859,-75.6545 415.365,-77.1155 418.566,-83.3405"/>
</g>
<!-- Node12 -->
<g id="node12" class="node"><title>Node12</title>
<g id="a_node12"><a xlink:href="../../d9/ded/Utils_8h.html" target="_top" xlink:title="DetectorsBase/Utils.h">
<polygon fill="none" stroke="black" points="492.187,-56.5 492.187,-75.5 605.187,-75.5 605.187,-56.5 492.187,-56.5"/>
<text text-anchor="middle" x="548.687" y="-63.5" font-family="Helvetica,sans-Serif" font-size="10.00">DetectorsBase/Utils.h</text>
</a>
</g>
</g>
<!-- Node6&#45;&gt;Node12 -->
<g id="edge12" class="edge"><title>Node6&#45;&gt;Node12</title>
<path fill="none" stroke="midnightblue" d="M371.12,-112.444C407.543,-103.122 465.917,-88.1828 505.716,-77.9972"/>
<polygon fill="midnightblue" stroke="midnightblue" points="506.59,-81.3866 515.41,-75.5164 504.854,-74.6051 506.59,-81.3866"/>
</g>
<!-- Node12&#45;&gt;Node7 -->
<g id="edge15" class="edge"><title>Node12&#45;&gt;Node7</title>
<path fill="none" stroke="midnightblue" d="M507.647,-56.4435C454.98,-45.4626 364.919,-26.6854 318.79,-17.0678"/>
<polygon fill="midnightblue" stroke="midnightblue" points="319.352,-13.6099 308.848,-14.9951 317.923,-20.4625 319.352,-13.6099"/>
</g>
<!-- Node13 -->
<g id="node13" class="node"><title>Node13</title>
<g id="a_node13"><a xlink:href="../../d1/daa/Base_2include_2DetectorsBase_2Constants_8h.html" target="_top" xlink:title="DetectorsBase/Constants.h">
<polygon fill="none" stroke="black" points="424.687,-0.5 424.687,-19.5 562.687,-19.5 562.687,-0.5 424.687,-0.5"/>
<text text-anchor="middle" x="493.687" y="-7.5" font-family="Helvetica,sans-Serif" font-size="10.00">DetectorsBase/Constants.h</text>
</a>
</g>
</g>
<!-- Node12&#45;&gt;Node13 -->
<g id="edge13" class="edge"><title>Node12&#45;&gt;Node13</title>
<path fill="none" stroke="midnightblue" d="M539.605,-56.083C531.515,-48.1409 519.491,-36.3354 509.777,-26.7973"/>
<polygon fill="midnightblue" stroke="midnightblue" points="512.188,-24.2595 502.6,-19.7511 507.284,-29.2545 512.188,-24.2595"/>
</g>
<!-- Node14 -->
<g id="node14" class="node"><title>Node14</title>
<polygon fill="none" stroke="#bfbfbf" points="580.687,-0.5 580.687,-19.5 624.687,-19.5 624.687,-0.5 580.687,-0.5"/>
<text text-anchor="middle" x="602.687" y="-7.5" font-family="Helvetica,sans-Serif" font-size="10.00">cmath</text>
</g>
<!-- Node12&#45;&gt;Node14 -->
<g id="edge14" class="edge"><title>Node12&#45;&gt;Node14</title>
<path fill="none" stroke="midnightblue" d="M557.604,-56.083C565.467,-48.2195 577.118,-36.5688 586.606,-27.0813"/>
<polygon fill="midnightblue" stroke="midnightblue" points="589.34,-29.2971 593.936,-19.7511 584.39,-24.3473 589.34,-29.2971"/>
</g>
</g>
</svg>
