<?xml version="1.0" encoding="UTF-8" standalone="no"?>
<!DOCTYPE svg PUBLIC "-//W3C//DTD SVG 1.1//EN"
 "http://www.w3.org/Graphics/SVG/1.1/DTD/svg11.dtd">
<!-- Generated by graphviz version 2.36.0 (20140111.2315)
 -->
<!-- Title: ImDrawVert Pages: 1 -->
<svg width="146pt" height="310pt"
 viewBox="0.00 0.00 146.00 310.00" xmlns="http://www.w3.org/2000/svg" xmlns:xlink="http://www.w3.org/1999/xlink">
<g id="graph0" class="graph" transform="scale(1 1) rotate(0) translate(4 306)">
<title>ImDrawVert</title>
<!-- Node1 -->
<g id="node1" class="node"><title>Node1</title>
<polygon fill="#bfbfbf" stroke="black" points="51.5,-0.5 51.5,-57.5 120.5,-57.5 120.5,-0.5 51.5,-0.5"/>
<text text-anchor="middle" x="86" y="-45.5" font-family="Helvetica,sans-Serif" font-size="10.00">ImDrawVert</text>
<polyline fill="none" stroke="black" points="51.5,-38.5 120.5,-38.5 "/>
<text text-anchor="middle" x="86" y="-26.5" font-family="Helvetica,sans-Serif" font-size="10.00"> </text>
<polyline fill="none" stroke="black" points="51.5,-19.5 120.5,-19.5 "/>
<text text-anchor="middle" x="86" y="-7.5" font-family="Helvetica,sans-Serif" font-size="10.00"> </text>
</g>
<!-- Node2 -->
<g id="node2" class="node"><title>Node2</title>
<g id="a_node2"><a xlink:href="../../d3/dc2/structImVec2.html" target="_top" xlink:title="{ImVec2\n||+ ImVec2()\l+ ImVec2()\l}">
<polygon fill="none" stroke="black" points="-0.5,-117 -0.5,-185 64.5,-185 64.5,-117 -0.5,-117"/>
<text text-anchor="middle" x="32" y="-173" font-family="Helvetica,sans-Serif" font-size="10.00">ImVec2</text>
<polyline fill="none" stroke="black" points="-0.5,-166 64.5,-166 "/>
<text text-anchor="middle" x="32" y="-154" font-family="Helvetica,sans-Serif" font-size="10.00"> </text>
<polyline fill="none" stroke="black" points="-0.5,-147 64.5,-147 "/>
<text text-anchor="start" x="7.5" y="-135" font-family="Helvetica,sans-Serif" font-size="10.00">+ ImVec2()</text>
<text text-anchor="start" x="7.5" y="-124" font-family="Helvetica,sans-Serif" font-size="10.00">+ ImVec2()</text>
</a>
</g>
</g>
<!-- Node2&#45;&gt;Node1 -->
<g id="edge1" class="edge"><title>Node2&#45;&gt;Node1</title>
<path fill="none" stroke="#404040" d="M46.8987,-116.892C53.5657,-102.076 61.4739,-84.5024 68.4279,-69.049"/>
<polygon fill="none" stroke="#404040" points="68.5989,-68.6689 67.4134,-61.5559 73.5234,-57.7259 74.7088,-64.8389 68.5989,-68.6689"/>
<text text-anchor="middle" x="76.5" y="-90" font-family="Helvetica,sans-Serif" font-size="10.00"> +pos</text>
<text text-anchor="middle" x="76.5" y="-79" font-family="Helvetica,sans-Serif" font-size="10.00">+uv</text>
</g>
<!-- Node3 -->
<g id="node3" class="node"><title>Node3</title>
<g id="a_node3"><a xlink:href="../../d4/dc3/classfloat.html" target="_top" xlink:title="{float\n||}">
<polygon fill="none" stroke="black" points="14.5,-244.5 14.5,-301.5 49.5,-301.5 49.5,-244.5 14.5,-244.5"/>
<text text-anchor="middle" x="32" y="-289.5" font-family="Helvetica,sans-Serif" font-size="10.00">float</text>
<polyline fill="none" stroke="black" points="14.5,-282.5 49.5,-282.5 "/>
<text text-anchor="middle" x="32" y="-270.5" font-family="Helvetica,sans-Serif" font-size="10.00"> </text>
<polyline fill="none" stroke="black" points="14.5,-263.5 49.5,-263.5 "/>
<text text-anchor="middle" x="32" y="-251.5" font-family="Helvetica,sans-Serif" font-size="10.00"> </text>
</a>
</g>
</g>
<!-- Node3&#45;&gt;Node2 -->
<g id="edge2" class="edge"><title>Node3&#45;&gt;Node2</title>
<path fill="none" stroke="#404040" d="M32,-244.47C32,-230.601 32,-213.421 32,-197.647"/>
<polygon fill="none" stroke="#404040" points="32.0001,-197.388 28,-191.388 32,-185.388 36,-191.388 32.0001,-197.388"/>
<text text-anchor="middle" x="39.5" y="-218" font-family="Helvetica,sans-Serif" font-size="10.00"> +x</text>
<text text-anchor="middle" x="39.5" y="-207" font-family="Helvetica,sans-Serif" font-size="10.00">+y</text>
</g>
<!-- Node4 -->
<g id="node4" class="node"><title>Node4</title>
<polygon fill="none" stroke="#bfbfbf" points="83,-122.5 83,-179.5 139,-179.5 139,-122.5 83,-122.5"/>
<text text-anchor="middle" x="111" y="-167.5" font-family="Helvetica,sans-Serif" font-size="10.00">unsigned</text>
<polyline fill="none" stroke="#bfbfbf" points="83,-160.5 139,-160.5 "/>
<text text-anchor="middle" x="111" y="-148.5" font-family="Helvetica,sans-Serif" font-size="10.00"> </text>
<polyline fill="none" stroke="#bfbfbf" points="83,-141.5 139,-141.5 "/>
<text text-anchor="middle" x="111" y="-129.5" font-family="Helvetica,sans-Serif" font-size="10.00"> </text>
</g>
<!-- Node4&#45;&gt;Node1 -->
<g id="edge3" class="edge"><title>Node4&#45;&gt;Node1</title>
<path fill="none" stroke="#404040" d="M105.264,-122.47C102.001,-106.803 97.8564,-86.9107 94.2485,-69.5929"/>
<polygon fill="none" stroke="#404040" points="94.2429,-69.5656 89.1032,-64.5076 91.7954,-57.8179 96.9351,-62.8759 94.2429,-69.5656"/>
<text text-anchor="middle" x="111" y="-84.5" font-family="Helvetica,sans-Serif" font-size="10.00"> +col</text>
</g>
</g>
</svg>
