<?xml version="1.0" encoding="UTF-8" standalone="no"?>
<!DOCTYPE svg PUBLIC "-//W3C//DTD SVG 1.1//EN"
 "http://www.w3.org/Graphics/SVG/1.1/DTD/svg11.dtd">
<!-- Generated by graphviz version 2.36.0 (20140111.2315)
 -->
<!-- Title: /home/travis/build/AliceO2Group/AliceO2/Utilities/DataFlow/src/runTimeframeReaderDevice.cxx Pages: 1 -->
<svg width="335pt" height="298pt"
 viewBox="0.00 0.00 335.00 298.00" xmlns="http://www.w3.org/2000/svg" xmlns:xlink="http://www.w3.org/1999/xlink">
<g id="graph0" class="graph" transform="scale(1 1) rotate(0) translate(4 294)">
<title>/home/travis/build/AliceO2Group/AliceO2/Utilities/DataFlow/src/runTimeframeReaderDevice.cxx</title>
<!-- Node1 -->
<g id="node1" class="node"><title>Node1</title>
<polygon fill="#bfbfbf" stroke="black" points="64.5,-237 64.5,-289 225.5,-289 225.5,-237 64.5,-237"/>
<text text-anchor="start" x="72.5" y="-277" font-family="Helvetica,sans-Serif" font-size="10.00">/home/travis/build</text>
<text text-anchor="start" x="72.5" y="-266" font-family="Helvetica,sans-Serif" font-size="10.00">/AliceO2Group/AliceO2</text>
<text text-anchor="start" x="72.5" y="-255" font-family="Helvetica,sans-Serif" font-size="10.00">/Utilities/DataFlow/src</text>
<text text-anchor="middle" x="145" y="-244" font-family="Helvetica,sans-Serif" font-size="10.00">/runTimeframeReaderDevice.cxx</text>
</g>
<!-- Node2 -->
<g id="node2" class="node"><title>Node2</title>
<polygon fill="none" stroke="#bfbfbf" points="25.5,-174.5 25.5,-193.5 126.5,-193.5 126.5,-174.5 25.5,-174.5"/>
<text text-anchor="middle" x="76" y="-181.5" font-family="Helvetica,sans-Serif" font-size="10.00">runFairMQDevice.h</text>
</g>
<!-- Node1&#45;&gt;Node2 -->
<g id="edge1" class="edge"><title>Node1&#45;&gt;Node2</title>
<path fill="none" stroke="midnightblue" d="M122.407,-236.787C111.862,-225.02 99.6268,-211.366 90.3673,-201.033"/>
<polygon fill="midnightblue" stroke="midnightblue" points="92.9488,-198.669 83.6686,-193.558 87.7356,-203.341 92.9488,-198.669"/>
</g>
<!-- Node3 -->
<g id="node3" class="node"><title>Node3</title>
<g id="a_node3"><a xlink:href="../../da/d74/TimeframeReaderDevice_8h.html" target="_top" xlink:title="DataFlow/TimeframeReader\lDevice.h">
<polygon fill="none" stroke="black" points="145,-169 145,-199 285,-199 285,-169 145,-169"/>
<text text-anchor="start" x="153" y="-187" font-family="Helvetica,sans-Serif" font-size="10.00">DataFlow/TimeframeReader</text>
<text text-anchor="middle" x="215" y="-176" font-family="Helvetica,sans-Serif" font-size="10.00">Device.h</text>
</a>
</g>
</g>
<!-- Node1&#45;&gt;Node3 -->
<g id="edge2" class="edge"><title>Node1&#45;&gt;Node3</title>
<path fill="none" stroke="midnightblue" d="M167.921,-236.787C176.767,-227.056 186.788,-216.033 195.303,-206.666"/>
<polygon fill="midnightblue" stroke="midnightblue" points="197.907,-209.006 202.044,-199.252 192.727,-204.297 197.907,-209.006"/>
</g>
<!-- Node4 -->
<g id="node4" class="node"><title>Node4</title>
<g id="a_node4"><a xlink:href="../../d2/dee/O2Device_8h.html" target="_top" xlink:title="O2Device/O2Device.h">
<polygon fill="none" stroke="black" points="106.5,-112.5 106.5,-131.5 221.5,-131.5 221.5,-112.5 106.5,-112.5"/>
<text text-anchor="middle" x="164" y="-119.5" font-family="Helvetica,sans-Serif" font-size="10.00">O2Device/O2Device.h</text>
</a>
</g>
</g>
<!-- Node3&#45;&gt;Node4 -->
<g id="edge3" class="edge"><title>Node3&#45;&gt;Node4</title>
<path fill="none" stroke="midnightblue" d="M202.914,-168.781C195.426,-159.972 185.782,-148.626 177.968,-139.433"/>
<polygon fill="midnightblue" stroke="midnightblue" points="180.564,-137.083 171.421,-131.731 175.231,-141.617 180.564,-137.083"/>
</g>
<!-- Node13 -->
<g id="node13" class="node"><title>Node13</title>
<polygon fill="none" stroke="#bfbfbf" points="240,-112.5 240,-131.5 290,-131.5 290,-112.5 240,-112.5"/>
<text text-anchor="middle" x="265" y="-119.5" font-family="Helvetica,sans-Serif" font-size="10.00">fstream</text>
</g>
<!-- Node3&#45;&gt;Node13 -->
<g id="edge12" class="edge"><title>Node3&#45;&gt;Node13</title>
<path fill="none" stroke="midnightblue" d="M226.849,-168.781C234.19,-159.972 243.645,-148.626 251.306,-139.433"/>
<polygon fill="midnightblue" stroke="midnightblue" points="254.011,-141.653 257.725,-131.731 248.634,-137.172 254.011,-141.653"/>
</g>
<!-- Node5 -->
<g id="node5" class="node"><title>Node5</title>
<polygon fill="none" stroke="#bfbfbf" points="-1,-56.5 -1,-75.5 87,-75.5 87,-56.5 -1,-56.5"/>
<text text-anchor="middle" x="43" y="-63.5" font-family="Helvetica,sans-Serif" font-size="10.00">FairMQDevice.h</text>
</g>
<!-- Node4&#45;&gt;Node5 -->
<g id="edge4" class="edge"><title>Node4&#45;&gt;Node5</title>
<path fill="none" stroke="midnightblue" d="M144.827,-112.444C125.091,-103.636 94.1148,-89.8116 71.5066,-79.722"/>
<polygon fill="midnightblue" stroke="midnightblue" points="72.6414,-76.3957 62.0831,-75.5164 69.7886,-82.788 72.6414,-76.3957"/>
</g>
<!-- Node6 -->
<g id="node6" class="node"><title>Node6</title>
<g id="a_node6"><a xlink:href="../../dc/dcd/DataHeader_8h.html" target="_top" xlink:title="Headers/DataHeader.h">
<polygon fill="none" stroke="black" points="105.5,-56.5 105.5,-75.5 222.5,-75.5 222.5,-56.5 105.5,-56.5"/>
<text text-anchor="middle" x="164" y="-63.5" font-family="Helvetica,sans-Serif" font-size="10.00">Headers/DataHeader.h</text>
</a>
</g>
</g>
<!-- Node4&#45;&gt;Node6 -->
<g id="edge5" class="edge"><title>Node4&#45;&gt;Node6</title>
<path fill="none" stroke="midnightblue" d="M164,-112.083C164,-105.006 164,-94.8611 164,-85.9865"/>
<polygon fill="midnightblue" stroke="midnightblue" points="167.5,-85.751 164,-75.7511 160.5,-85.7511 167.5,-85.751"/>
</g>
<!-- Node12 -->
<g id="node12" class="node"><title>Node12</title>
<polygon fill="none" stroke="#bfbfbf" points="240.5,-56.5 240.5,-75.5 299.5,-75.5 299.5,-56.5 240.5,-56.5"/>
<text text-anchor="middle" x="270" y="-63.5" font-family="Helvetica,sans-Serif" font-size="10.00">stdexcept</text>
</g>
<!-- Node4&#45;&gt;Node12 -->
<g id="edge11" class="edge"><title>Node4&#45;&gt;Node12</title>
<path fill="none" stroke="midnightblue" d="M181.031,-112.324C198.03,-103.664 224.376,-90.2424 243.993,-80.249"/>
<polygon fill="midnightblue" stroke="midnightblue" points="245.69,-83.3125 253.012,-75.6545 242.512,-77.0752 245.69,-83.3125"/>
</g>
<!-- Node7 -->
<g id="node7" class="node"><title>Node7</title>
<polygon fill="none" stroke="#bfbfbf" points="5,-0.5 5,-19.5 51,-19.5 51,-0.5 5,-0.5"/>
<text text-anchor="middle" x="28" y="-7.5" font-family="Helvetica,sans-Serif" font-size="10.00">cstdint</text>
</g>
<!-- Node6&#45;&gt;Node7 -->
<g id="edge6" class="edge"><title>Node6&#45;&gt;Node7</title>
<path fill="none" stroke="midnightblue" d="M142.45,-56.4435C119.969,-47.5171 84.5123,-33.4387 59.0201,-23.3168"/>
<polygon fill="midnightblue" stroke="midnightblue" points="60.0346,-19.9539 49.4488,-19.5164 57.4513,-26.4598 60.0346,-19.9539"/>
</g>
<!-- Node8 -->
<g id="node8" class="node"><title>Node8</title>
<polygon fill="none" stroke="#bfbfbf" points="69,-0.5 69,-19.5 121,-19.5 121,-0.5 69,-0.5"/>
<text text-anchor="middle" x="95" y="-7.5" font-family="Helvetica,sans-Serif" font-size="10.00">memory</text>
</g>
<!-- Node6&#45;&gt;Node8 -->
<g id="edge7" class="edge"><title>Node6&#45;&gt;Node8</title>
<path fill="none" stroke="midnightblue" d="M152.914,-56.324C142.514,-48.1849 126.739,-35.8395 114.278,-26.0874"/>
<polygon fill="midnightblue" stroke="midnightblue" points="116.32,-23.2407 106.288,-19.8339 112.006,-28.7533 116.32,-23.2407"/>
</g>
<!-- Node9 -->
<g id="node9" class="node"><title>Node9</title>
<polygon fill="none" stroke="#bfbfbf" points="139.5,-0.5 139.5,-19.5 188.5,-19.5 188.5,-0.5 139.5,-0.5"/>
<text text-anchor="middle" x="164" y="-7.5" font-family="Helvetica,sans-Serif" font-size="10.00">cassert</text>
</g>
<!-- Node6&#45;&gt;Node9 -->
<g id="edge8" class="edge"><title>Node6&#45;&gt;Node9</title>
<path fill="none" stroke="midnightblue" d="M164,-56.083C164,-49.0059 164,-38.8611 164,-29.9865"/>
<polygon fill="midnightblue" stroke="midnightblue" points="167.5,-29.751 164,-19.7511 160.5,-29.7511 167.5,-29.751"/>
</g>
<!-- Node10 -->
<g id="node10" class="node"><title>Node10</title>
<polygon fill="none" stroke="#bfbfbf" points="207,-0.5 207,-19.5 253,-19.5 253,-0.5 207,-0.5"/>
<text text-anchor="middle" x="230" y="-7.5" font-family="Helvetica,sans-Serif" font-size="10.00">cstring</text>
</g>
<!-- Node6&#45;&gt;Node10 -->
<g id="edge9" class="edge"><title>Node6&#45;&gt;Node10</title>
<path fill="none" stroke="midnightblue" d="M174.604,-56.324C184.456,-48.2631 199.351,-36.0765 211.215,-26.3695"/>
<polygon fill="midnightblue" stroke="midnightblue" points="213.68,-28.8752 219.203,-19.8339 209.247,-23.4575 213.68,-28.8752"/>
</g>
<!-- Node11 -->
<g id="node11" class="node"><title>Node11</title>
<polygon fill="none" stroke="#bfbfbf" points="271,-0.5 271,-19.5 327,-19.5 327,-0.5 271,-0.5"/>
<text text-anchor="middle" x="299" y="-7.5" font-family="Helvetica,sans-Serif" font-size="10.00">algorithm</text>
</g>
<!-- Node6&#45;&gt;Node11 -->
<g id="edge10" class="edge"><title>Node6&#45;&gt;Node11</title>
<path fill="none" stroke="midnightblue" d="M185.391,-56.4435C207.707,-47.5171 242.903,-33.4387 268.208,-23.3168"/>
<polygon fill="midnightblue" stroke="midnightblue" points="269.724,-26.4801 277.709,-19.5164 267.124,-19.9807 269.724,-26.4801"/>
</g>
</g>
</svg>
