<?xml version="1.0" encoding="UTF-8" standalone="no"?>
<!DOCTYPE svg PUBLIC "-//W3C//DTD SVG 1.1//EN"
 "http://www.w3.org/Graphics/SVG/1.1/DTD/svg11.dtd">
<!-- Generated by graphviz version 2.36.0 (20140111.2315)
 -->
<!-- Title: o2::DataFormat::TPC::ClusterHardwareContainer Pages: 1 -->
<svg width="383pt" height="366pt"
 viewBox="0.00 0.00 383.00 366.00" xmlns="http://www.w3.org/2000/svg" xmlns:xlink="http://www.w3.org/1999/xlink">
<g id="graph0" class="graph" transform="scale(1 1) rotate(0) translate(4 362)">
<title>o2::DataFormat::TPC::ClusterHardwareContainer</title>
<!-- Node1 -->
<g id="node1" class="node"><title>Node1</title>
<polygon fill="#bfbfbf" stroke="black" points="67,-1 67,-69 205,-69 205,-1 67,-1"/>
<text text-anchor="start" x="75" y="-57" font-family="Helvetica,sans-Serif" font-size="10.00">o2::DataFormat::TPC</text>
<text text-anchor="middle" x="136" y="-46" font-family="Helvetica,sans-Serif" font-size="10.00">::ClusterHardwareContainer</text>
<polyline fill="none" stroke="black" points="67,-39 205,-39 "/>
<text text-anchor="middle" x="136" y="-27" font-family="Helvetica,sans-Serif" font-size="10.00"> </text>
<polyline fill="none" stroke="black" points="67,-20 205,-20 "/>
<text text-anchor="middle" x="136" y="-8" font-family="Helvetica,sans-Serif" font-size="10.00"> </text>
</g>
<!-- Node2 -->
<g id="node2" class="node"><title>Node2</title>
<polygon fill="none" stroke="#bfbfbf" points="-0.5,-140.5 -0.5,-197.5 50.5,-197.5 50.5,-140.5 -0.5,-140.5"/>
<text text-anchor="middle" x="25" y="-185.5" font-family="Helvetica,sans-Serif" font-size="10.00">uint64_t</text>
<polyline fill="none" stroke="#bfbfbf" points="-0.5,-178.5 50.5,-178.5 "/>
<text text-anchor="middle" x="25" y="-166.5" font-family="Helvetica,sans-Serif" font-size="10.00"> </text>
<polyline fill="none" stroke="#bfbfbf" points="-0.5,-159.5 50.5,-159.5 "/>
<text text-anchor="middle" x="25" y="-147.5" font-family="Helvetica,sans-Serif" font-size="10.00"> </text>
</g>
<!-- Node2&#45;&gt;Node1 -->
<g id="edge1" class="edge"><title>Node2&#45;&gt;Node1</title>
<path fill="none" stroke="#404040" d="M24.4152,-140.484C25.3682,-123.872 29.0129,-103.074 40,-88 44.616,-81.6672 50.2449,-76.0236 56.4391,-71.0118"/>
<polygon fill="none" stroke="#404040" points="56.866,-70.7017 59.3687,-63.9388 66.574,-63.6479 64.0712,-70.4108 56.866,-70.7017"/>
<text text-anchor="middle" x="56.5" y="-91.5" font-family="Helvetica,sans-Serif" font-size="10.00"> +mDH</text>
</g>
<!-- Node3 -->
<g id="node3" class="node"><title>Node3</title>
<polygon fill="none" stroke="#bfbfbf" points="95.5,-300.5 95.5,-357.5 146.5,-357.5 146.5,-300.5 95.5,-300.5"/>
<text text-anchor="middle" x="121" y="-345.5" font-family="Helvetica,sans-Serif" font-size="10.00">uint16_t</text>
<polyline fill="none" stroke="#bfbfbf" points="95.5,-338.5 146.5,-338.5 "/>
<text text-anchor="middle" x="121" y="-326.5" font-family="Helvetica,sans-Serif" font-size="10.00"> </text>
<polyline fill="none" stroke="#bfbfbf" points="95.5,-319.5 146.5,-319.5 "/>
<text text-anchor="middle" x="121" y="-307.5" font-family="Helvetica,sans-Serif" font-size="10.00"> </text>
</g>
<!-- Node3&#45;&gt;Node1 -->
<g id="edge2" class="edge"><title>Node3&#45;&gt;Node1</title>
<path fill="none" stroke="#404040" d="M111.767,-300.49C99.5314,-260.055 81.1315,-182.394 96,-118 98.9706,-105.135 104.248,-91.9534 110.014,-80.026"/>
<polygon fill="none" stroke="#404040" points="110.175,-79.7122 109.342,-72.5493 115.634,-69.0259 116.466,-76.1889 110.175,-79.7122"/>
<text text-anchor="middle" x="140.5" y="-172" font-family="Helvetica,sans-Serif" font-size="10.00"> +numberOfClusters</text>
<text text-anchor="middle" x="140.5" y="-161" font-family="Helvetica,sans-Serif" font-size="10.00">+CRU</text>
</g>
<!-- Node5 -->
<g id="node5" class="node"><title>Node5</title>
<g id="a_node5"><a xlink:href="../../df/d9e/structo2_1_1DataFormat_1_1TPC_1_1ClusterHardware.html" target="_top" xlink:title="{o2::DataFormat::TPC\l::ClusterHardware\n||+ getPad()\l+ getTimeLocal()\l+ getSigmaPad2()\l+ getSigmaTime2()\l}">
<polygon fill="none" stroke="black" points="194.5,-118.5 194.5,-219.5 305.5,-219.5 305.5,-118.5 194.5,-118.5"/>
<text text-anchor="start" x="202.5" y="-207.5" font-family="Helvetica,sans-Serif" font-size="10.00">o2::DataFormat::TPC</text>
<text text-anchor="middle" x="250" y="-196.5" font-family="Helvetica,sans-Serif" font-size="10.00">::ClusterHardware</text>
<polyline fill="none" stroke="black" points="194.5,-189.5 305.5,-189.5 "/>
<text text-anchor="middle" x="250" y="-177.5" font-family="Helvetica,sans-Serif" font-size="10.00"> </text>
<polyline fill="none" stroke="black" points="194.5,-170.5 305.5,-170.5 "/>
<text text-anchor="start" x="202.5" y="-158.5" font-family="Helvetica,sans-Serif" font-size="10.00">+ getPad()</text>
<text text-anchor="start" x="202.5" y="-147.5" font-family="Helvetica,sans-Serif" font-size="10.00">+ getTimeLocal()</text>
<text text-anchor="start" x="202.5" y="-136.5" font-family="Helvetica,sans-Serif" font-size="10.00">+ getSigmaPad2()</text>
<text text-anchor="start" x="202.5" y="-125.5" font-family="Helvetica,sans-Serif" font-size="10.00">+ getSigmaTime2()</text>
</a>
</g>
</g>
<!-- Node3&#45;&gt;Node5 -->
<g id="edge5" class="edge"><title>Node3&#45;&gt;Node5</title>
<path fill="none" stroke="#404040" d="M135.665,-300.356C146.065,-281.872 160.977,-257.465 177,-238 179.807,-234.59 182.779,-231.185 185.856,-227.817"/>
<polygon fill="none" stroke="#404040" points="185.946,-227.722 187.17,-220.615 194.201,-219.013 192.977,-226.119 185.946,-227.722"/>
<text text-anchor="middle" x="192.5" y="-263" font-family="Helvetica,sans-Serif" font-size="10.00"> +qTot</text>
<text text-anchor="middle" x="192.5" y="-252" font-family="Helvetica,sans-Serif" font-size="10.00">+qMax</text>
</g>
<!-- Node4 -->
<g id="node4" class="node"><title>Node4</title>
<polygon fill="none" stroke="#bfbfbf" points="323.5,-140.5 323.5,-197.5 374.5,-197.5 374.5,-140.5 323.5,-140.5"/>
<text text-anchor="middle" x="349" y="-185.5" font-family="Helvetica,sans-Serif" font-size="10.00">uint32_t</text>
<polyline fill="none" stroke="#bfbfbf" points="323.5,-178.5 374.5,-178.5 "/>
<text text-anchor="middle" x="349" y="-166.5" font-family="Helvetica,sans-Serif" font-size="10.00"> </text>
<polyline fill="none" stroke="#bfbfbf" points="323.5,-159.5 374.5,-159.5 "/>
<text text-anchor="middle" x="349" y="-147.5" font-family="Helvetica,sans-Serif" font-size="10.00"> </text>
</g>
<!-- Node4&#45;&gt;Node1 -->
<g id="edge3" class="edge"><title>Node4&#45;&gt;Node1</title>
<path fill="none" stroke="#404040" d="M333.523,-140.425C328.106,-132.464 321.482,-124.249 314,-118 285.502,-94.1963 248.953,-75.7856 216.397,-62.4958"/>
<polygon fill="none" stroke="#404040" points="216.224,-62.4274 209.172,-63.9366 205.067,-58.0081 212.119,-56.4989 216.224,-62.4274"/>
<text text-anchor="middle" x="324" y="-91.5" font-family="Helvetica,sans-Serif" font-size="10.00"> +timeBinOffset</text>
</g>
<!-- Node5&#45;&gt;Node1 -->
<g id="edge4" class="edge"><title>Node5&#45;&gt;Node1</title>
<path fill="none" stroke="#404040" d="M207.226,-118.473C195.949,-105.414 183.877,-91.437 172.937,-78.7687"/>
<polygon fill="none" stroke="#404040" points="172.666,-78.455 165.717,-76.5286 164.822,-69.3731 171.771,-71.2996 172.666,-78.455"/>
<text text-anchor="middle" x="212" y="-91.5" font-family="Helvetica,sans-Serif" font-size="10.00"> +clusters</text>
</g>
<!-- Node6 -->
<g id="node6" class="node"><title>Node6</title>
<g id="a_node6"><a xlink:href="../../d4/dc3/classfloat.html" target="_top" xlink:title="{float\n||}">
<polygon fill="none" stroke="black" points="197.5,-300.5 197.5,-357.5 232.5,-357.5 232.5,-300.5 197.5,-300.5"/>
<text text-anchor="middle" x="215" y="-345.5" font-family="Helvetica,sans-Serif" font-size="10.00">float</text>
<polyline fill="none" stroke="black" points="197.5,-338.5 232.5,-338.5 "/>
<text text-anchor="middle" x="215" y="-326.5" font-family="Helvetica,sans-Serif" font-size="10.00"> </text>
<polyline fill="none" stroke="black" points="197.5,-319.5 232.5,-319.5 "/>
<text text-anchor="middle" x="215" y="-307.5" font-family="Helvetica,sans-Serif" font-size="10.00"> </text>
</a>
</g>
</g>
<!-- Node6&#45;&gt;Node5 -->
<g id="edge6" class="edge"><title>Node6&#45;&gt;Node5</title>
<path fill="none" stroke="#404040" d="M212.134,-300.429C211.033,-282.41 211.039,-258.503 216,-238 216.559,-235.691 217.207,-233.37 217.929,-231.051"/>
<polygon fill="none" stroke="#404040" points="218.014,-230.816 216.289,-223.815 222.088,-219.529 223.814,-226.531 218.014,-230.816"/>
<text text-anchor="middle" x="253.5" y="-274" font-family="Helvetica,sans-Serif" font-size="10.00"> +sigmaPad2Pre</text>
<text text-anchor="middle" x="253.5" y="-263" font-family="Helvetica,sans-Serif" font-size="10.00">+timePre</text>
<text text-anchor="middle" x="253.5" y="-252" font-family="Helvetica,sans-Serif" font-size="10.00">+sigmaTime2Pre</text>
<text text-anchor="middle" x="253.5" y="-241" font-family="Helvetica,sans-Serif" font-size="10.00">+padPre</text>
</g>
<!-- Node7 -->
<g id="node7" class="node"><title>Node7</title>
<polygon fill="none" stroke="#bfbfbf" points="290,-300.5 290,-357.5 336,-357.5 336,-300.5 290,-300.5"/>
<text text-anchor="middle" x="313" y="-345.5" font-family="Helvetica,sans-Serif" font-size="10.00">uint8_t</text>
<polyline fill="none" stroke="#bfbfbf" points="290,-338.5 336,-338.5 "/>
<text text-anchor="middle" x="313" y="-326.5" font-family="Helvetica,sans-Serif" font-size="10.00"> </text>
<polyline fill="none" stroke="#bfbfbf" points="290,-319.5 336,-319.5 "/>
<text text-anchor="middle" x="313" y="-307.5" font-family="Helvetica,sans-Serif" font-size="10.00"> </text>
</g>
<!-- Node7&#45;&gt;Node5 -->
<g id="edge7" class="edge"><title>Node7&#45;&gt;Node5</title>
<path fill="none" stroke="#404040" d="M308.45,-300.142C304.944,-282.005 299.279,-258.075 291,-238 289.975,-235.515 288.868,-233.014 287.698,-230.514"/>
<polygon fill="none" stroke="#404040" points="287.607,-230.332 281.339,-226.767 282.22,-219.61 288.488,-223.175 287.607,-230.332"/>
<text text-anchor="middle" x="320.5" y="-263" font-family="Helvetica,sans-Serif" font-size="10.00"> +flags</text>
<text text-anchor="middle" x="320.5" y="-252" font-family="Helvetica,sans-Serif" font-size="10.00">+row</text>
</g>
</g>
</svg>
