<?xml version="1.0" encoding="UTF-8" standalone="no"?>
<!DOCTYPE svg PUBLIC "-//W3C//DTD SVG 1.1//EN"
 "http://www.w3.org/Graphics/SVG/1.1/DTD/svg11.dtd">
<!-- Generated by graphviz version 2.36.0 (20140111.2315)
 -->
<!-- Title: /home/travis/build/AliceO2Group/AliceO2/Detectors/Base/src/Track.cxx Pages: 1 -->
<!--zoomable 410 -->
<svg id="main" version="1.1" xmlns="http://www.w3.org/2000/svg" xmlns:xlink="http://www.w3.org/1999/xlink" xml:space="preserve" onload="init(evt)">
<style type="text/css"><![CDATA[
.edge:hover path { stroke: red; }
.edge:hover polygon { stroke: red; fill: red; }
]]></style>
<script type="text/javascript"><![CDATA[
var edges = document.getElementsByTagName('g');
if (edges && edges.length) {
  for (var i=0;i<edges.length;i++) {
    if (edges[i].id.substr(0,4)=='edge') {
      edges[i].setAttribute('class','edge');
    }
  }
}
]]></script>
        <defs>
                <circle id="rim" cx="0" cy="0" r="7"/>
                <circle id="rim2" cx="0" cy="0" r="3.5"/>
                <g id="zoomPlus">
                        <use xlink:href="#rim" fill="#404040">
                                <set attributeName="fill" to="#808080" begin="zoomplus.mouseover" end="zoomplus.mouseout"/>
                        </use>
                        <path d="M-4,0h8M0,-4v8" fill="none" stroke="white" stroke-width="1.5" pointer-events="none"/>
                </g>
                <g id="zoomMin">
                        <use xlink:href="#rim" fill="#404040">
                                <set attributeName="fill" to="#808080" begin="zoomminus.mouseover" end="zoomminus.mouseout"/>
                        </use>
                        <path d="M-4,0h8" fill="none" stroke="white" stroke-width="1.5" pointer-events="none"/>
                </g>
                <g id="dirArrow">
                        <path fill="none" stroke="white" stroke-width="1.5" d="M0,-3.0v7 M-2.5,-0.5L0,-3.0L2.5,-0.5"/>
                </g>
               <g id="resetDef">
                       <use xlink:href="#rim2" fill="#404040">
                               <set attributeName="fill" to="#808080" begin="reset.mouseover" end="reset.mouseout"/>
                       </use>
               </g>
        </defs>

<script type="text/javascript">
var viewWidth = 1995;
var viewHeight = 410;
var sectionId = 'dynsection-0';
</script>
<script xlink:href="../../svgpan.js"/>
<svg id="graph" class="graph">
<g id="viewport">
<title>/home/travis/build/AliceO2Group/AliceO2/Detectors/Base/src/Track.cxx</title>
<!-- Node1 -->
<g id="node1" class="node"><title>Node1</title>
<polygon fill="#bfbfbf" stroke="black" points="1299.5,-360.5 1299.5,-401.5 1450.5,-401.5 1450.5,-360.5 1299.5,-360.5"/>
<text text-anchor="start" x="1307.5" y="-389.5" font-family="Helvetica,sans-Serif" font-size="10.00">/home/travis/build</text>
<text text-anchor="start" x="1307.5" y="-378.5" font-family="Helvetica,sans-Serif" font-size="10.00">/AliceO2Group/AliceO2</text>
<text text-anchor="middle" x="1375" y="-367.5" font-family="Helvetica,sans-Serif" font-size="10.00">/Detectors/Base/src/Track.cxx</text>
</g>
<!-- Node2 -->
<g id="node2" class="node"><title>Node2</title>
<g id="a_node2"><a xlink:href="../../d7/d65/Detectors_2Base_2include_2DetectorsBase_2Track_8h.html" target="_top" xlink:title="DetectorsBase/Track.h">
<polygon fill="none" stroke="black" points="696,-304.5 696,-323.5 814,-323.5 814,-304.5 696,-304.5"/>
<text text-anchor="middle" x="755" y="-311.5" font-family="Helvetica,sans-Serif" font-size="10.00">DetectorsBase/Track.h</text>
</a>
</g>
</g>
<!-- Node1&#45;&gt;Node2 -->
<g id="edge1" class="edge"><title>Node1&#45;&gt;Node2</title>
<path fill="none" stroke="midnightblue" d="M1299.29,-372.062C1177.93,-359.34 941.647,-334.568 824.414,-322.277"/>
<polygon fill="midnightblue" stroke="midnightblue" points="824.441,-318.761 814.131,-321.199 823.711,-325.723 824.441,-318.761"/>
</g>
<!-- Node35 -->
<g id="node35" class="node"><title>Node35</title>
<polygon fill="none" stroke="#bfbfbf" points="1571.5,-136.5 1571.5,-155.5 1642.5,-155.5 1642.5,-136.5 1571.5,-136.5"/>
<text text-anchor="middle" x="1607" y="-143.5" font-family="Helvetica,sans-Serif" font-size="10.00">FairLogger.h</text>
</g>
<!-- Node1&#45;&gt;Node35 -->
<g id="edge49" class="edge"><title>Node1&#45;&gt;Node35</title>
<path fill="none" stroke="midnightblue" d="M1394.78,-360.135C1439.98,-314.739 1550.1,-204.146 1591.19,-162.876"/>
<polygon fill="midnightblue" stroke="midnightblue" points="1593.87,-165.142 1598.45,-155.586 1588.91,-160.203 1593.87,-165.142"/>
</g>
<!-- Node3 -->
<g id="node3" class="node"><title>Node3</title>
<polygon fill="none" stroke="#bfbfbf" points="591,-74.5 591,-93.5 647,-93.5 647,-74.5 591,-74.5"/>
<text text-anchor="middle" x="619" y="-81.5" font-family="Helvetica,sans-Serif" font-size="10.00">Rtypes.h</text>
</g>
<!-- Node2&#45;&gt;Node3 -->
<g id="edge2" class="edge"><title>Node2&#45;&gt;Node3</title>
<path fill="none" stroke="midnightblue" d="M695.838,-308.057C642.215,-302.204 568.917,-290.3 551,-268 509.12,-215.875 572.171,-135.41 603.299,-101.24"/>
<polygon fill="midnightblue" stroke="midnightblue" points="606.171,-103.292 610.441,-93.5951 601.057,-98.5125 606.171,-103.292"/>
</g>
<!-- Node4 -->
<g id="node4" class="node"><title>Node4</title>
<polygon fill="none" stroke="#bfbfbf" points="0,-248.5 0,-267.5 56,-267.5 56,-248.5 0,-248.5"/>
<text text-anchor="middle" x="28" y="-255.5" font-family="Helvetica,sans-Serif" font-size="10.00">algorithm</text>
</g>
<!-- Node2&#45;&gt;Node4 -->
<g id="edge3" class="edge"><title>Node2&#45;&gt;Node4</title>
<path fill="none" stroke="midnightblue" d="M695.606,-312.002C576.433,-309.359 299.885,-300.008 70,-268 68.7536,-267.826 67.4891,-267.637 66.2141,-267.434"/>
<polygon fill="midnightblue" stroke="midnightblue" points="66.8285,-263.988 56.367,-265.664 65.59,-270.878 66.8285,-263.988"/>
</g>
<!-- Node5 -->
<g id="node5" class="node"><title>Node5</title>
<polygon fill="none" stroke="#bfbfbf" points="122,-6.5 122,-25.5 160,-25.5 160,-6.5 122,-6.5"/>
<text text-anchor="middle" x="141" y="-13.5" font-family="Helvetica,sans-Serif" font-size="10.00">array</text>
</g>
<!-- Node2&#45;&gt;Node5 -->
<g id="edge4" class="edge"><title>Node2&#45;&gt;Node5</title>
<path fill="none" stroke="midnightblue" d="M695.748,-309.494C531.769,-299.006 84,-264.717 84,-203 84,-203 84,-203 84,-145 84,-102.049 111.114,-57.4573 127.941,-33.9188"/>
<polygon fill="midnightblue" stroke="midnightblue" points="130.879,-35.8325 134.011,-25.7111 125.251,-31.6703 130.879,-35.8325"/>
</g>
<!-- Node6 -->
<g id="node6" class="node"><title>Node6</title>
<polygon fill="none" stroke="#bfbfbf" points="462.5,-248.5 462.5,-267.5 503.5,-267.5 503.5,-248.5 462.5,-248.5"/>
<text text-anchor="middle" x="483" y="-255.5" font-family="Helvetica,sans-Serif" font-size="10.00">cfloat</text>
</g>
<!-- Node2&#45;&gt;Node6 -->
<g id="edge5" class="edge"><title>Node2&#45;&gt;Node6</title>
<path fill="none" stroke="midnightblue" d="M704.874,-304.444C656.773,-296.007 582.173,-282.328 518,-268 516.546,-267.675 515.06,-267.333 513.561,-266.98"/>
<polygon fill="midnightblue" stroke="midnightblue" points="514.222,-263.538 503.675,-264.55 512.551,-270.336 514.222,-263.538"/>
</g>
<!-- Node7 -->
<g id="node7" class="node"><title>Node7</title>
<polygon fill="none" stroke="#bfbfbf" points="1787,-6.5 1787,-25.5 1831,-25.5 1831,-6.5 1787,-6.5"/>
<text text-anchor="middle" x="1809" y="-13.5" font-family="Helvetica,sans-Serif" font-size="10.00">cmath</text>
</g>
<!-- Node2&#45;&gt;Node7 -->
<g id="edge6" class="edge"><title>Node2&#45;&gt;Node7</title>
<path fill="none" stroke="midnightblue" d="M814.054,-313.419C1044.15,-314.284 1868,-309.915 1868,-203 1868,-203 1868,-203 1868,-145 1868,-109.751 1864.44,-99.6855 1849,-68 1842.75,-55.1696 1832.87,-42.533 1824.5,-33.0481"/>
<polygon fill="midnightblue" stroke="midnightblue" points="1826.99,-30.595 1817.65,-25.5985 1821.84,-35.3306 1826.99,-30.595"/>
</g>
<!-- Node8 -->
<g id="node8" class="node"><title>Node8</title>
<polygon fill="none" stroke="#bfbfbf" points="560,-248.5 560,-267.5 606,-267.5 606,-248.5 560,-248.5"/>
<text text-anchor="middle" x="583" y="-255.5" font-family="Helvetica,sans-Serif" font-size="10.00">cstring</text>
</g>
<!-- Node2&#45;&gt;Node8 -->
<g id="edge7" class="edge"><title>Node2&#45;&gt;Node8</title>
<path fill="none" stroke="midnightblue" d="M727.746,-304.444C697.488,-294.944 648.645,-279.609 616.184,-269.418"/>
<polygon fill="midnightblue" stroke="midnightblue" points="616.854,-265.96 606.265,-266.304 614.758,-272.639 616.854,-265.96"/>
</g>
<!-- Node9 -->
<g id="node9" class="node"><title>Node9</title>
<polygon fill="none" stroke="#bfbfbf" points="1786,-74.5 1786,-93.5 1840,-93.5 1840,-74.5 1786,-74.5"/>
<text text-anchor="middle" x="1813" y="-81.5" font-family="Helvetica,sans-Serif" font-size="10.00">iostream</text>
</g>
<!-- Node2&#45;&gt;Node9 -->
<g id="edge8" class="edge"><title>Node2&#45;&gt;Node9</title>
<path fill="none" stroke="midnightblue" d="M814.091,-307.753C959.258,-293.771 1343.91,-250.093 1651,-156 1701.07,-140.658 1756.33,-114.247 1787.63,-98.3243"/>
<polygon fill="midnightblue" stroke="midnightblue" points="1789.63,-101.235 1796.92,-93.5503 1786.43,-95.0093 1789.63,-101.235"/>
</g>
<!-- Node10 -->
<g id="node10" class="node"><title>Node10</title>
<polygon fill="none" stroke="#bfbfbf" points="662.5,-248.5 662.5,-267.5 745.5,-267.5 745.5,-248.5 662.5,-248.5"/>
<text text-anchor="middle" x="704" y="-255.5" font-family="Helvetica,sans-Serif" font-size="10.00">Math/SMatrix.h</text>
</g>
<!-- Node2&#45;&gt;Node10 -->
<g id="edge9" class="edge"><title>Node2&#45;&gt;Node10</title>
<path fill="none" stroke="midnightblue" d="M746.578,-304.083C739.152,-296.22 728.148,-284.569 719.188,-275.081"/>
<polygon fill="midnightblue" stroke="midnightblue" points="721.676,-272.618 712.265,-267.751 716.587,-277.424 721.676,-272.618"/>
</g>
<!-- Node11 -->
<g id="node11" class="node"><title>Node11</title>
<polygon fill="none" stroke="#bfbfbf" points="763.5,-248.5 763.5,-267.5 848.5,-267.5 848.5,-248.5 763.5,-248.5"/>
<text text-anchor="middle" x="806" y="-255.5" font-family="Helvetica,sans-Serif" font-size="10.00">Math/SVector.h</text>
</g>
<!-- Node2&#45;&gt;Node11 -->
<g id="edge10" class="edge"><title>Node2&#45;&gt;Node11</title>
<path fill="none" stroke="midnightblue" d="M763.422,-304.083C770.848,-296.22 781.852,-284.569 790.812,-275.081"/>
<polygon fill="midnightblue" stroke="midnightblue" points="793.413,-277.424 797.735,-267.751 788.324,-272.618 793.413,-277.424"/>
</g>
<!-- Node12 -->
<g id="node12" class="node"><title>Node12</title>
<g id="a_node12"><a xlink:href="../../d4/de2/BaseCluster_8h.html" target="_top" xlink:title="DetectorsBase/BaseCluster.h">
<polygon fill="none" stroke="black" points="866.5,-248.5 866.5,-267.5 1013.5,-267.5 1013.5,-248.5 866.5,-248.5"/>
<text text-anchor="middle" x="940" y="-255.5" font-family="Helvetica,sans-Serif" font-size="10.00">DetectorsBase/BaseCluster.h</text>
</a>
</g>
</g>
<!-- Node2&#45;&gt;Node12 -->
<g id="edge11" class="edge"><title>Node2&#45;&gt;Node12</title>
<path fill="none" stroke="midnightblue" d="M784.314,-304.444C815.842,-295.241 866.131,-280.562 900.986,-270.388"/>
<polygon fill="midnightblue" stroke="midnightblue" points="902.205,-273.678 910.823,-267.516 900.243,-266.959 902.205,-273.678"/>
</g>
<!-- Node17 -->
<g id="node17" class="node"><title>Node17</title>
<g id="a_node17"><a xlink:href="../../dd/d76/Cartesian3D_8h.html" target="_top" xlink:title="MathUtils/Cartesian3D.h">
<polygon fill="none" stroke="black" points="966.5,-136.5 966.5,-155.5 1091.5,-155.5 1091.5,-136.5 966.5,-136.5"/>
<text text-anchor="middle" x="1029" y="-143.5" font-family="Helvetica,sans-Serif" font-size="10.00">MathUtils/Cartesian3D.h</text>
</a>
</g>
</g>
<!-- Node2&#45;&gt;Node17 -->
<g id="edge48" class="edge"><title>Node2&#45;&gt;Node17</title>
<path fill="none" stroke="midnightblue" d="M814.272,-311.339C884.41,-308.011 995.095,-298.016 1022,-268 1047.19,-239.894 1040.52,-191.769 1034.27,-165.478"/>
<polygon fill="midnightblue" stroke="midnightblue" points="1037.62,-164.461 1031.71,-155.669 1030.84,-166.229 1037.62,-164.461"/>
</g>
<!-- Node33 -->
<g id="node33" class="node"><title>Node33</title>
<g id="a_node33"><a xlink:href="../../d9/ded/Utils_8h.html" target="_top" xlink:title="DetectorsBase/Utils.h">
<polygon fill="none" stroke="black" points="188.5,-74.5 188.5,-93.5 301.5,-93.5 301.5,-74.5 188.5,-74.5"/>
<text text-anchor="middle" x="245" y="-81.5" font-family="Helvetica,sans-Serif" font-size="10.00">DetectorsBase/Utils.h</text>
</a>
</g>
</g>
<!-- Node2&#45;&gt;Node33 -->
<g id="edge47" class="edge"><title>Node2&#45;&gt;Node33</title>
<path fill="none" stroke="midnightblue" d="M734.73,-304.357C714.231,-295.525 681.703,-281.263 654,-268 636.43,-259.589 632.588,-256.375 615,-248 490.175,-188.561 338.404,-124.097 275.041,-97.5247"/>
<polygon fill="midnightblue" stroke="midnightblue" points="276.225,-94.2258 265.649,-93.5921 273.521,-100.683 276.225,-94.2258"/>
</g>
<!-- Node34 -->
<g id="node34" class="node"><title>Node34</title>
<g id="a_node34"><a xlink:href="../../d1/daa/Base_2include_2DetectorsBase_2Constants_8h.html" target="_top" xlink:title="DetectorsBase/Constants.h">
<polygon fill="none" stroke="black" points="1849,-6.5 1849,-25.5 1987,-25.5 1987,-6.5 1849,-6.5"/>
<text text-anchor="middle" x="1918" y="-13.5" font-family="Helvetica,sans-Serif" font-size="10.00">DetectorsBase/Constants.h</text>
</a>
</g>
</g>
<!-- Node2&#45;&gt;Node34 -->
<g id="edge46" class="edge"><title>Node2&#45;&gt;Node34</title>
<path fill="none" stroke="midnightblue" d="M814.014,-311.808C1017.31,-307.508 1681.21,-291.778 1774,-268 1837.35,-251.767 1906,-268.394 1906,-203 1906,-203 1906,-203 1906,-145 1906,-106.078 1911.57,-60.7889 1915.12,-35.867"/>
<polygon fill="midnightblue" stroke="midnightblue" points="1918.63,-36.0687 1916.62,-25.665 1911.7,-35.0472 1918.63,-36.0687"/>
</g>
<!-- Node12&#45;&gt;Node9 -->
<g id="edge16" class="edge"><title>Node12&#45;&gt;Node9</title>
<path fill="none" stroke="midnightblue" d="M982.235,-248.428C1082.72,-228.113 1344.02,-175.765 1563,-136 1657.46,-118.846 1683.63,-126.191 1776,-100 1778.81,-99.2023 1781.7,-98.2602 1784.57,-97.2428"/>
<polygon fill="midnightblue" stroke="midnightblue" points="1785.99,-100.446 1794.07,-93.5951 1783.48,-93.9109 1785.99,-100.446"/>
</g>
<!-- Node13 -->
<g id="node13" class="node"><title>Node13</title>
<polygon fill="none" stroke="#bfbfbf" points="804.5,-192.5 804.5,-211.5 863.5,-211.5 863.5,-192.5 804.5,-192.5"/>
<text text-anchor="middle" x="834" y="-199.5" font-family="Helvetica,sans-Serif" font-size="10.00">TObject.h</text>
</g>
<!-- Node12&#45;&gt;Node13 -->
<g id="edge12" class="edge"><title>Node12&#45;&gt;Node13</title>
<path fill="none" stroke="midnightblue" d="M922.969,-248.324C905.97,-239.664 879.624,-226.242 860.007,-216.249"/>
<polygon fill="midnightblue" stroke="midnightblue" points="861.488,-213.075 850.988,-211.655 858.31,-219.312 861.488,-213.075"/>
</g>
<!-- Node14 -->
<g id="node14" class="node"><title>Node14</title>
<polygon fill="none" stroke="#bfbfbf" points="531.5,-74.5 531.5,-93.5 572.5,-93.5 572.5,-74.5 531.5,-74.5"/>
<text text-anchor="middle" x="552" y="-81.5" font-family="Helvetica,sans-Serif" font-size="10.00">bitset</text>
</g>
<!-- Node12&#45;&gt;Node14 -->
<g id="edge13" class="edge"><title>Node12&#45;&gt;Node14</title>
<path fill="none" stroke="midnightblue" d="M866.347,-248.646C773.071,-237.806 623.159,-219.405 613,-212 576.865,-185.66 561.232,-132.175 555.246,-103.746"/>
<polygon fill="midnightblue" stroke="midnightblue" points="558.614,-102.722 553.293,-93.5594 551.739,-104.04 558.614,-102.722"/>
</g>
<!-- Node15 -->
<g id="node15" class="node"><title>Node15</title>
<polygon fill="none" stroke="#bfbfbf" points="882,-192.5 882,-211.5 932,-211.5 932,-192.5 882,-192.5"/>
<text text-anchor="middle" x="907" y="-199.5" font-family="Helvetica,sans-Serif" font-size="10.00">iomanip</text>
</g>
<!-- Node12&#45;&gt;Node15 -->
<g id="edge14" class="edge"><title>Node12&#45;&gt;Node15</title>
<path fill="none" stroke="midnightblue" d="M934.551,-248.083C929.986,-240.613 923.332,-229.724 917.707,-220.52"/>
<polygon fill="midnightblue" stroke="midnightblue" points="920.549,-218.459 912.348,-211.751 914.576,-222.109 920.549,-218.459"/>
</g>
<!-- Node16 -->
<g id="node16" class="node"><title>Node16</title>
<polygon fill="none" stroke="#bfbfbf" points="950.5,-192.5 950.5,-211.5 979.5,-211.5 979.5,-192.5 950.5,-192.5"/>
<text text-anchor="middle" x="965" y="-199.5" font-family="Helvetica,sans-Serif" font-size="10.00">ios</text>
</g>
<!-- Node12&#45;&gt;Node16 -->
<g id="edge15" class="edge"><title>Node12&#45;&gt;Node16</title>
<path fill="none" stroke="midnightblue" d="M944.128,-248.083C947.514,-240.77 952.416,-230.181 956.619,-221.103"/>
<polygon fill="midnightblue" stroke="midnightblue" points="959.923,-222.296 960.949,-211.751 953.571,-219.355 959.923,-222.296"/>
</g>
<!-- Node12&#45;&gt;Node17 -->
<g id="edge17" class="edge"><title>Node12&#45;&gt;Node17</title>
<path fill="none" stroke="midnightblue" d="M950.665,-248.384C960.918,-239.797 976.509,-225.917 988,-212 1000.3,-197.098 1011.81,-178.251 1019.48,-164.693"/>
<polygon fill="midnightblue" stroke="midnightblue" points="1022.57,-166.334 1024.35,-155.888 1016.45,-162.948 1022.57,-166.334"/>
</g>
<!-- Node27 -->
<g id="node27" class="node"><title>Node27</title>
<g id="a_node27"><a xlink:href="../../d4/d20/DetMatrixCache_8h.html" target="_top" xlink:title="DetectorsBase/DetMatrixCache.h">
<polygon fill="none" stroke="black" points="622,-192.5 622,-211.5 786,-211.5 786,-192.5 622,-192.5"/>
<text text-anchor="middle" x="704" y="-199.5" font-family="Helvetica,sans-Serif" font-size="10.00">DetectorsBase/DetMatrixCache.h</text>
</a>
</g>
</g>
<!-- Node12&#45;&gt;Node27 -->
<g id="edge29" class="edge"><title>Node12&#45;&gt;Node27</title>
<path fill="none" stroke="midnightblue" d="M902.605,-248.444C861.608,-239.063 795.746,-223.993 751.216,-213.804"/>
<polygon fill="midnightblue" stroke="midnightblue" points="751.749,-210.335 741.22,-211.516 750.187,-217.159 751.749,-210.335"/>
</g>
<!-- Node17&#45;&gt;Node3 -->
<g id="edge21" class="edge"><title>Node17&#45;&gt;Node3</title>
<path fill="none" stroke="midnightblue" d="M966.356,-142.505C891.482,-138.369 762.892,-127.591 656,-100 653.009,-99.228 649.939,-98.2703 646.906,-97.2148"/>
<polygon fill="midnightblue" stroke="midnightblue" points="648.087,-93.9193 637.497,-93.6184 645.588,-100.458 648.087,-93.9193"/>
</g>
<!-- Node17&#45;&gt;Node9 -->
<g id="edge28" class="edge"><title>Node17&#45;&gt;Node9</title>
<path fill="none" stroke="midnightblue" d="M1091.51,-143.837C1246.7,-140.533 1646.35,-129.354 1776,-100 1779.24,-99.2653 1782.57,-98.2788 1785.84,-97.1607"/>
<polygon fill="midnightblue" stroke="midnightblue" points="1787.23,-100.378 1795.31,-93.5319 1784.72,-93.8413 1787.23,-100.378"/>
</g>
<!-- Node18 -->
<g id="node18" class="node"><title>Node18</title>
<polygon fill="none" stroke="#bfbfbf" points="1300.5,-74.5 1300.5,-93.5 1449.5,-93.5 1449.5,-74.5 1300.5,-74.5"/>
<text text-anchor="middle" x="1375" y="-81.5" font-family="Helvetica,sans-Serif" font-size="10.00">Math/GenVector/Rotation3D.h</text>
</g>
<!-- Node17&#45;&gt;Node18 -->
<g id="edge18" class="edge"><title>Node17&#45;&gt;Node18</title>
<path fill="none" stroke="midnightblue" d="M1079.24,-136.472C1132,-127.494 1217.35,-112.9 1291,-100 1299.59,-98.4958 1308.67,-96.8905 1317.56,-95.31"/>
<polygon fill="midnightblue" stroke="midnightblue" points="1318.25,-98.7424 1327.48,-93.5428 1317.02,-91.8508 1318.25,-98.7424"/>
</g>
<!-- Node19 -->
<g id="node19" class="node"><title>Node19</title>
<polygon fill="none" stroke="#bfbfbf" points="1468,-74.5 1468,-93.5 1624,-93.5 1624,-74.5 1468,-74.5"/>
<text text-anchor="middle" x="1546" y="-81.5" font-family="Helvetica,sans-Serif" font-size="10.00">Math/GenVector/Transform3D.h</text>
</g>
<!-- Node17&#45;&gt;Node19 -->
<g id="edge19" class="edge"><title>Node17&#45;&gt;Node19</title>
<path fill="none" stroke="midnightblue" d="M1091.67,-139.698C1175.37,-132.328 1328.17,-117.856 1458,-100 1468.24,-98.5918 1479.12,-96.8994 1489.6,-95.1664"/>
<polygon fill="midnightblue" stroke="midnightblue" points="1490.22,-98.6113 1499.5,-93.5004 1489.06,-91.7083 1490.22,-98.6113"/>
</g>
<!-- Node20 -->
<g id="node20" class="node"><title>Node20</title>
<polygon fill="none" stroke="#bfbfbf" points="665,-74.5 665,-93.5 825,-93.5 825,-74.5 665,-74.5"/>
<text text-anchor="middle" x="745" y="-81.5" font-family="Helvetica,sans-Serif" font-size="10.00">Math/GenVector/Translation3D.h</text>
</g>
<!-- Node17&#45;&gt;Node20 -->
<g id="edge20" class="edge"><title>Node17&#45;&gt;Node20</title>
<path fill="none" stroke="midnightblue" d="M988.611,-136.467C937.721,-125.716 850.265,-107.239 795.148,-95.5947"/>
<polygon fill="midnightblue" stroke="midnightblue" points="795.757,-92.1461 785.249,-93.5034 794.31,-98.9949 795.757,-92.1461"/>
</g>
<!-- Node21 -->
<g id="node21" class="node"><title>Node21</title>
<polygon fill="none" stroke="#bfbfbf" points="843,-74.5 843,-93.5 919,-93.5 919,-74.5 843,-74.5"/>
<text text-anchor="middle" x="881" y="-81.5" font-family="Helvetica,sans-Serif" font-size="10.00">TGeoMatrix.h</text>
</g>
<!-- Node17&#45;&gt;Node21 -->
<g id="edge22" class="edge"><title>Node17&#45;&gt;Node21</title>
<path fill="none" stroke="midnightblue" d="M1007.8,-136.403C982.628,-126.2 940.46,-109.105 911.721,-97.4544"/>
<polygon fill="midnightblue" stroke="midnightblue" points="912.748,-94.0941 902.165,-93.5806 910.118,-100.581 912.748,-94.0941"/>
</g>
<!-- Node22 -->
<g id="node22" class="node"><title>Node22</title>
<polygon fill="none" stroke="#bfbfbf" points="937.5,-69 937.5,-99 1088.5,-99 1088.5,-69 937.5,-69"/>
<text text-anchor="start" x="945.5" y="-87" font-family="Helvetica,sans-Serif" font-size="10.00">Math/GenVector/Displacement</text>
<text text-anchor="middle" x="1013" y="-76" font-family="Helvetica,sans-Serif" font-size="10.00">Vector3D.h</text>
</g>
<!-- Node17&#45;&gt;Node22 -->
<g id="edge23" class="edge"><title>Node17&#45;&gt;Node22</title>
<path fill="none" stroke="midnightblue" d="M1026.71,-136.403C1024.8,-129.265 1022,-118.752 1019.42,-109.09"/>
<polygon fill="midnightblue" stroke="midnightblue" points="1022.73,-107.901 1016.77,-99.1408 1015.97,-109.705 1022.73,-107.901"/>
</g>
<!-- Node23 -->
<g id="node23" class="node"><title>Node23</title>
<polygon fill="none" stroke="#bfbfbf" points="1107,-74.5 1107,-93.5 1283,-93.5 1283,-74.5 1107,-74.5"/>
<text text-anchor="middle" x="1195" y="-81.5" font-family="Helvetica,sans-Serif" font-size="10.00">Math/GenVector/PositionVector3D.h</text>
</g>
<!-- Node17&#45;&gt;Node23 -->
<g id="edge24" class="edge"><title>Node17&#45;&gt;Node23</title>
<path fill="none" stroke="midnightblue" d="M1052.78,-136.403C1081.38,-126.067 1129.55,-108.656 1161.8,-96.9994"/>
<polygon fill="midnightblue" stroke="midnightblue" points="1163.05,-100.271 1171.26,-93.5806 1160.67,-93.6883 1163.05,-100.271"/>
</g>
<!-- Node24 -->
<g id="node24" class="node"><title>Node24</title>
<g id="a_node24"><a xlink:href="../../d2/dd0/Cartesian2D_8h.html" target="_top" xlink:title="MathUtils/Cartesian2D.h">
<polygon fill="none" stroke="black" points="1642.5,-74.5 1642.5,-93.5 1767.5,-93.5 1767.5,-74.5 1642.5,-74.5"/>
<text text-anchor="middle" x="1705" y="-81.5" font-family="Helvetica,sans-Serif" font-size="10.00">MathUtils/Cartesian2D.h</text>
</a>
</g>
</g>
<!-- Node17&#45;&gt;Node24 -->
<g id="edge25" class="edge"><title>Node17&#45;&gt;Node24</title>
<path fill="none" stroke="midnightblue" d="M1091.89,-143.028C1202.02,-138.971 1436.72,-127.636 1633,-100 1641.36,-98.8228 1650.21,-97.253 1658.73,-95.5719"/>
<polygon fill="midnightblue" stroke="midnightblue" points="1659.44,-98.9988 1668.53,-93.5642 1658.04,-92.141 1659.44,-98.9988"/>
</g>
<!-- Node25 -->
<g id="node25" class="node"><title>Node25</title>
<polygon fill="none" stroke="#bfbfbf" points="1617.5,-1 1617.5,-31 1768.5,-31 1768.5,-1 1617.5,-1"/>
<text text-anchor="start" x="1625.5" y="-19" font-family="Helvetica,sans-Serif" font-size="10.00">Math/GenVector/Displacement</text>
<text text-anchor="middle" x="1693" y="-8" font-family="Helvetica,sans-Serif" font-size="10.00">Vector2D.h</text>
</g>
<!-- Node24&#45;&gt;Node25 -->
<g id="edge26" class="edge"><title>Node24&#45;&gt;Node25</title>
<path fill="none" stroke="midnightblue" d="M1703.43,-74.3717C1701.9,-65.9715 1699.51,-52.811 1697.4,-41.2126"/>
<polygon fill="midnightblue" stroke="midnightblue" points="1700.81,-40.394 1695.58,-31.1815 1693.92,-41.6463 1700.81,-40.394"/>
</g>
<!-- Node26 -->
<g id="node26" class="node"><title>Node26</title>
<polygon fill="none" stroke="#bfbfbf" points="1423,-6.5 1423,-25.5 1599,-25.5 1599,-6.5 1423,-6.5"/>
<text text-anchor="middle" x="1511" y="-13.5" font-family="Helvetica,sans-Serif" font-size="10.00">Math/GenVector/PositionVector2D.h</text>
</g>
<!-- Node24&#45;&gt;Node26 -->
<g id="edge27" class="edge"><title>Node24&#45;&gt;Node26</title>
<path fill="none" stroke="midnightblue" d="M1679.64,-74.3717C1645.41,-62.7283 1584.31,-41.9394 1545.81,-28.8411"/>
<polygon fill="midnightblue" stroke="midnightblue" points="1546.66,-25.4332 1536.06,-25.5259 1544.4,-32.0602 1546.66,-25.4332"/>
</g>
<!-- Node27&#45;&gt;Node3 -->
<g id="edge44" class="edge"><title>Node27&#45;&gt;Node3</title>
<path fill="none" stroke="midnightblue" d="M703.702,-192.258C702.868,-179.029 699.729,-153.601 688,-136 677.497,-120.239 660.406,-107.553 645.862,-98.7758"/>
<polygon fill="midnightblue" stroke="midnightblue" points="647.186,-95.5014 636.767,-93.5792 643.713,-101.579 647.186,-95.5014"/>
</g>
<!-- Node27&#45;&gt;Node5 -->
<g id="edge31" class="edge"><title>Node27&#45;&gt;Node5</title>
<path fill="none" stroke="midnightblue" d="M621.826,-197.693C483.775,-190.304 214.252,-167.415 152,-100 136.083,-82.7624 135.865,-54.2648 137.876,-35.5595"/>
<polygon fill="midnightblue" stroke="midnightblue" points="141.351,-35.9873 139.257,-25.6014 134.417,-35.0261 141.351,-35.9873"/>
</g>
<!-- Node27&#45;&gt;Node17 -->
<g id="edge32" class="edge"><title>Node27&#45;&gt;Node17</title>
<path fill="none" stroke="midnightblue" d="M755.497,-192.444C813.144,-182.865 906.49,-167.356 967.812,-157.167"/>
<polygon fill="midnightblue" stroke="midnightblue" points="968.453,-160.608 977.744,-155.516 967.305,-153.703 968.453,-160.608"/>
</g>
<!-- Node28 -->
<g id="node28" class="node"><title>Node28</title>
<polygon fill="none" stroke="#bfbfbf" points="636,-136.5 636,-155.5 680,-155.5 680,-136.5 636,-136.5"/>
<text text-anchor="middle" x="658" y="-143.5" font-family="Helvetica,sans-Serif" font-size="10.00">vector</text>
</g>
<!-- Node27&#45;&gt;Node28 -->
<g id="edge30" class="edge"><title>Node27&#45;&gt;Node28</title>
<path fill="none" stroke="midnightblue" d="M696.404,-192.083C689.773,-184.298 679.979,-172.801 671.942,-163.367"/>
<polygon fill="midnightblue" stroke="midnightblue" points="674.604,-161.094 665.455,-155.751 669.275,-165.633 674.604,-161.094"/>
</g>
<!-- Node29 -->
<g id="node29" class="node"><title>Node29</title>
<g id="a_node29"><a xlink:href="../../d6/d31/DetID_8h.html" target="_top" xlink:title="DetectorsBase/DetID.h">
<polygon fill="none" stroke="black" points="422.5,-136.5 422.5,-155.5 541.5,-155.5 541.5,-136.5 422.5,-136.5"/>
<text text-anchor="middle" x="482" y="-143.5" font-family="Helvetica,sans-Serif" font-size="10.00">DetectorsBase/DetID.h</text>
</a>
</g>
</g>
<!-- Node27&#45;&gt;Node29 -->
<g id="edge33" class="edge"><title>Node27&#45;&gt;Node29</title>
<path fill="none" stroke="midnightblue" d="M668.823,-192.444C630.421,-183.102 568.824,-168.119 526.945,-157.933"/>
<polygon fill="midnightblue" stroke="midnightblue" points="527.556,-154.479 517.012,-155.516 525.901,-161.281 527.556,-154.479"/>
</g>
<!-- Node27&#45;&gt;Node35 -->
<g id="edge45" class="edge"><title>Node27&#45;&gt;Node35</title>
<path fill="none" stroke="midnightblue" d="M786.244,-192.781C789.538,-192.507 792.8,-192.245 796,-192 1087,-169.703 1437.56,-154.046 1561.17,-148.866"/>
<polygon fill="midnightblue" stroke="midnightblue" points="1561.55,-152.354 1571.39,-148.44 1561.25,-145.36 1561.55,-152.354"/>
</g>
<!-- Node29&#45;&gt;Node3 -->
<g id="edge34" class="edge"><title>Node29&#45;&gt;Node3</title>
<path fill="none" stroke="midnightblue" d="M501.629,-136.403C524.824,-126.245 563.619,-109.255 590.213,-97.6074"/>
<polygon fill="midnightblue" stroke="midnightblue" points="591.652,-100.798 599.408,-93.5806 588.843,-94.3863 591.652,-100.798"/>
</g>
<!-- Node29&#45;&gt;Node5 -->
<g id="edge35" class="edge"><title>Node29&#45;&gt;Node5</title>
<path fill="none" stroke="midnightblue" d="M422.356,-142.783C345.231,-138.811 216.36,-128.075 179,-100 158.348,-84.4803 148.589,-55.0726 144.224,-35.7557"/>
<polygon fill="midnightblue" stroke="midnightblue" points="147.615,-34.8578 142.236,-25.7295 140.748,-36.2193 147.615,-34.8578"/>
</g>
<!-- Node29&#45;&gt;Node14 -->
<g id="edge36" class="edge"><title>Node29&#45;&gt;Node14</title>
<path fill="none" stroke="midnightblue" d="M492.029,-136.403C503.049,-126.958 520.96,-111.606 534.343,-100.134"/>
<polygon fill="midnightblue" stroke="midnightblue" points="536.675,-102.746 541.989,-93.5806 532.119,-97.4311 536.675,-102.746"/>
</g>
<!-- Node30 -->
<g id="node30" class="node"><title>Node30</title>
<polygon fill="none" stroke="#bfbfbf" points="319.5,-74.5 319.5,-93.5 368.5,-93.5 368.5,-74.5 319.5,-74.5"/>
<text text-anchor="middle" x="344" y="-81.5" font-family="Helvetica,sans-Serif" font-size="10.00">cassert</text>
</g>
<!-- Node29&#45;&gt;Node30 -->
<g id="edge37" class="edge"><title>Node29&#45;&gt;Node30</title>
<path fill="none" stroke="midnightblue" d="M462.044,-136.415C441.094,-127.391 407.205,-112.76 378,-100 376.226,-99.2251 374.402,-98.4258 372.562,-97.6184"/>
<polygon fill="midnightblue" stroke="midnightblue" points="373.971,-94.4145 363.408,-93.5908 371.151,-100.822 373.971,-94.4145"/>
</g>
<!-- Node31 -->
<g id="node31" class="node"><title>Node31</title>
<polygon fill="none" stroke="#bfbfbf" points="387,-74.5 387,-93.5 433,-93.5 433,-74.5 387,-74.5"/>
<text text-anchor="middle" x="410" y="-81.5" font-family="Helvetica,sans-Serif" font-size="10.00">cstdint</text>
</g>
<!-- Node29&#45;&gt;Node31 -->
<g id="edge38" class="edge"><title>Node29&#45;&gt;Node31</title>
<path fill="none" stroke="midnightblue" d="M471.684,-136.403C460.349,-126.958 441.927,-111.606 428.161,-100.134"/>
<polygon fill="midnightblue" stroke="midnightblue" points="430.22,-97.2937 420.297,-93.5806 425.738,-102.671 430.22,-97.2937"/>
</g>
<!-- Node32 -->
<g id="node32" class="node"><title>Node32</title>
<polygon fill="none" stroke="#bfbfbf" points="451,-74.5 451,-93.5 513,-93.5 513,-74.5 451,-74.5"/>
<text text-anchor="middle" x="482" y="-81.5" font-family="Helvetica,sans-Serif" font-size="10.00">type_traits</text>
</g>
<!-- Node29&#45;&gt;Node32 -->
<g id="edge39" class="edge"><title>Node29&#45;&gt;Node32</title>
<path fill="none" stroke="midnightblue" d="M482,-136.403C482,-127.938 482,-114.728 482,-103.82"/>
<polygon fill="midnightblue" stroke="midnightblue" points="485.5,-103.581 482,-93.5806 478.5,-103.581 485.5,-103.581"/>
</g>
<!-- Node29&#45;&gt;Node33 -->
<g id="edge40" class="edge"><title>Node29&#45;&gt;Node33</title>
<path fill="none" stroke="midnightblue" d="M448.295,-136.467C406.267,-125.827 334.355,-107.622 288.289,-95.9593"/>
<polygon fill="midnightblue" stroke="midnightblue" points="289.142,-92.5647 278.588,-93.5034 287.424,-99.3506 289.142,-92.5647"/>
</g>
<!-- Node33&#45;&gt;Node5 -->
<g id="edge43" class="edge"><title>Node33&#45;&gt;Node5</title>
<path fill="none" stroke="midnightblue" d="M231.404,-74.3717C214.042,-63.3533 183.774,-44.1449 163.083,-31.0142"/>
<polygon fill="midnightblue" stroke="midnightblue" points="164.918,-28.0336 154.6,-25.6305 161.167,-33.9439 164.918,-28.0336"/>
</g>
<!-- Node33&#45;&gt;Node7 -->
<g id="edge42" class="edge"><title>Node33&#45;&gt;Node7</title>
<path fill="none" stroke="midnightblue" d="M276.178,-74.4581C286.823,-71.9026 298.855,-69.408 310,-68 633.527,-27.128 1459.6,-106.799 1777,-32 1779.65,-31.375 1782.35,-30.5156 1784.99,-29.5217"/>
<polygon fill="midnightblue" stroke="midnightblue" points="1786.4,-32.7234 1794.17,-25.5123 1783.6,-26.3089 1786.4,-32.7234"/>
</g>
<!-- Node33&#45;&gt;Node34 -->
<g id="edge41" class="edge"><title>Node33&#45;&gt;Node34</title>
<path fill="none" stroke="midnightblue" d="M276.177,-74.4517C286.823,-71.8957 298.854,-69.4025 310,-68 984.426,16.8613 1163.04,-103.641 1839,-32 1849.1,-30.9296 1859.84,-29.2562 1870.04,-27.409"/>
<polygon fill="midnightblue" stroke="midnightblue" points="1870.84,-30.8194 1880.01,-25.5197 1869.54,-23.9416 1870.84,-30.8194"/>
</g>
</g>
</svg>
        <g id="navigator" transform="translate(0 0)" fill="#404254">
                <rect fill="#f2f5e9" fill-opacity="0.5" stroke="#606060" stroke-width=".5" x="0" y="0" width="60" height="60"/>
                <use id="zoomplus" xlink:href="#zoomPlus" x="17" y="9" onmousedown="handleZoom(evt,'in')"/>
                <use id="zoomminus" xlink:href="#zoomMin" x="42" y="9" onmousedown="handleZoom(evt,'out')"/>
                <use id="reset" xlink:href="#resetDef" x="30" y="36" onmousedown="handleReset()"/>
                <g id="arrowUp" xlink:href="#dirArrow" transform="translate(30 24)" onmousedown="handlePan(0,-1)">
                  <use xlink:href="#rim" fill="#404040">
                        <set attributeName="fill" to="#808080" begin="arrowUp.mouseover" end="arrowUp.mouseout"/>
                  </use>
                  <path fill="none" stroke="white" stroke-width="1.5" d="M0,-3.0v7 M-2.5,-0.5L0,-3.0L2.5,-0.5"/>
                </g>
                <g id="arrowRight" xlink:href="#dirArrow" transform="rotate(90) translate(36 -43)" onmousedown="handlePan(1,0)">
                  <use xlink:href="#rim" fill="#404040">
                        <set attributeName="fill" to="#808080" begin="arrowRight.mouseover" end="arrowRight.mouseout"/>
                  </use>
                  <path fill="none" stroke="white" stroke-width="1.5" d="M0,-3.0v7 M-2.5,-0.5L0,-3.0L2.5,-0.5"/>
                </g>
                <g id="arrowDown" xlink:href="#dirArrow" transform="rotate(180) translate(-30 -48)" onmousedown="handlePan(0,1)">
                  <use xlink:href="#rim" fill="#404040">
                        <set attributeName="fill" to="#808080" begin="arrowDown.mouseover" end="arrowDown.mouseout"/>
                  </use>
                  <path fill="none" stroke="white" stroke-width="1.5" d="M0,-3.0v7 M-2.5,-0.5L0,-3.0L2.5,-0.5"/>
                </g>
                <g id="arrowLeft" xlink:href="#dirArrow" transform="rotate(270) translate(-36 17)" onmousedown="handlePan(-1,0)">
                  <use xlink:href="#rim" fill="#404040">
                        <set attributeName="fill" to="#808080" begin="arrowLeft.mouseover" end="arrowLeft.mouseout"/>
                  </use>
                  <path fill="none" stroke="white" stroke-width="1.5" d="M0,-3.0v7 M-2.5,-0.5L0,-3.0L2.5,-0.5"/>
                </g>
        </g>
        <svg viewBox="0 0 15 15" width="100%" height="30px" preserveAspectRatio="xMaxYMin meet">
         <g id="arrow_out" transform="scale(0.3 0.3)">
          <a xlink:href="Detectors_2Base_2src_2Track_8cxx__incl_org.svg" target="_base">
           <rect id="button" ry="5" rx="5" y="6" x="6" height="38" width="38"
                fill="#f2f5e9" fill-opacity="0.5" stroke="#606060" stroke-width="1.0"/>
           <path id="arrow"
             d="M 11.500037,31.436501 C 11.940474,20.09759 22.043105,11.32322 32.158766,21.979434 L 37.068811,17.246167 C 37.068811,17.246167 37.088388,32 37.088388,32 L 22.160133,31.978069 C 22.160133,31.978069 26.997745,27.140456 26.997745,27.140456 C 18.528582,18.264221 13.291696,25.230495 11.500037,31.436501 z"
             style="fill:#404040;"/>
          </a>
         </g>
        </svg>
</svg>
