<?xml version="1.0" encoding="UTF-8" standalone="no"?>
<!DOCTYPE svg PUBLIC "-//W3C//DTD SVG 1.1//EN"
 "http://www.w3.org/Graphics/SVG/1.1/DTD/svg11.dtd">
<!-- Generated by graphviz version 2.36.0 (20140111.2315)
 -->
<!-- Title: o2::framework::DeviceMetricsInfo Pages: 1 -->
<!--zoomable 184 -->
<svg id="main" version="1.1" xmlns="http://www.w3.org/2000/svg" xmlns:xlink="http://www.w3.org/1999/xlink" xml:space="preserve" onload="init(evt)">
<style type="text/css"><![CDATA[
.edge:hover path { stroke: red; }
.edge:hover polygon { stroke: red; fill: red; }
]]></style>
<script type="text/javascript"><![CDATA[
var edges = document.getElementsByTagName('g');
if (edges && edges.length) {
  for (var i=0;i<edges.length;i++) {
    if (edges[i].id.substr(0,4)=='edge') {
      edges[i].setAttribute('class','edge');
    }
  }
}
]]></script>
        <defs>
                <circle id="rim" cx="0" cy="0" r="7"/>
                <circle id="rim2" cx="0" cy="0" r="3.5"/>
                <g id="zoomPlus">
                        <use xlink:href="#rim" fill="#404040">
                                <set attributeName="fill" to="#808080" begin="zoomplus.mouseover" end="zoomplus.mouseout"/>
                        </use>
                        <path d="M-4,0h8M0,-4v8" fill="none" stroke="white" stroke-width="1.5" pointer-events="none"/>
                </g>
                <g id="zoomMin">
                        <use xlink:href="#rim" fill="#404040">
                                <set attributeName="fill" to="#808080" begin="zoomminus.mouseover" end="zoomminus.mouseout"/>
                        </use>
                        <path d="M-4,0h8" fill="none" stroke="white" stroke-width="1.5" pointer-events="none"/>
                </g>
                <g id="dirArrow">
                        <path fill="none" stroke="white" stroke-width="1.5" d="M0,-3.0v7 M-2.5,-0.5L0,-3.0L2.5,-0.5"/>
                </g>
               <g id="resetDef">
                       <use xlink:href="#rim2" fill="#404040">
                               <set attributeName="fill" to="#808080" begin="reset.mouseover" end="reset.mouseout"/>
                       </use>
               </g>
        </defs>

<script type="text/javascript">
var viewWidth = 593;
var viewHeight = 184;
var sectionId = 'dynsection-0';
</script>
<script xlink:href="../../svgpan.js"/>
<svg id="graph" class="graph">
<g id="viewport">
<title>o2::framework::DeviceMetricsInfo</title>
<!-- Node1 -->
<g id="node1" class="node"><title>Node1</title>
<polygon fill="#bfbfbf" stroke="black" points="192,-0.5 192,-57.5 356,-57.5 356,-0.5 192,-0.5"/>
<text text-anchor="middle" x="274" y="-45.5" font-family="Helvetica,sans-Serif" font-size="10.00">o2::framework::DeviceMetricsInfo</text>
<polyline fill="none" stroke="black" points="192,-38.5 356,-38.5 "/>
<text text-anchor="middle" x="274" y="-26.5" font-family="Helvetica,sans-Serif" font-size="10.00"> </text>
<polyline fill="none" stroke="black" points="192,-19.5 356,-19.5 "/>
<text text-anchor="middle" x="274" y="-7.5" font-family="Helvetica,sans-Serif" font-size="10.00"> </text>
</g>
<!-- Node2 -->
<g id="node2" class="node"><title>Node2</title>
<polygon fill="none" stroke="#bfbfbf" points="-0.5,-107 -0.5,-175 96.5,-175 96.5,-107 -0.5,-107"/>
<text text-anchor="start" x="7.5" y="-163" font-family="Helvetica,sans-Serif" font-size="10.00">vector&lt; std::array</text>
<text text-anchor="middle" x="48" y="-152" font-family="Helvetica,sans-Serif" font-size="10.00">&lt; size_t, 1024 &gt; &gt;</text>
<polyline fill="none" stroke="#bfbfbf" points="-0.5,-145 96.5,-145 "/>
<text text-anchor="middle" x="48" y="-133" font-family="Helvetica,sans-Serif" font-size="10.00"> </text>
<polyline fill="none" stroke="#bfbfbf" points="-0.5,-126 96.5,-126 "/>
<text text-anchor="middle" x="48" y="-114" font-family="Helvetica,sans-Serif" font-size="10.00"> </text>
</g>
<!-- Node2&#45;&gt;Node1 -->
<g id="edge1" class="edge"><title>Node2&#45;&gt;Node1</title>
<path fill="none" stroke="#404040" d="M91.4736,-106.901C106.894,-96.1213 124.72,-84.7027 142,-76 154.154,-69.879 167.317,-64.2325 180.463,-59.1462"/>
<polygon fill="none" stroke="#404040" points="180.751,-59.0384 184.963,-53.1856 191.986,-54.8229 187.774,-60.6757 180.751,-59.0384"/>
<text text-anchor="middle" x="172.5" y="-79.5" font-family="Helvetica,sans-Serif" font-size="10.00"> +timestamps</text>
</g>
<!-- Node3 -->
<g id="node3" class="node"><title>Node3</title>
<polygon fill="none" stroke="#bfbfbf" points="115,-107 115,-175 209,-175 209,-107 115,-107"/>
<text text-anchor="start" x="123" y="-163" font-family="Helvetica,sans-Serif" font-size="10.00">vector&lt; std::array</text>
<text text-anchor="middle" x="162" y="-152" font-family="Helvetica,sans-Serif" font-size="10.00">&lt; int, 1024 &gt; &gt;</text>
<polyline fill="none" stroke="#bfbfbf" points="115,-145 209,-145 "/>
<text text-anchor="middle" x="162" y="-133" font-family="Helvetica,sans-Serif" font-size="10.00"> </text>
<polyline fill="none" stroke="#bfbfbf" points="115,-126 209,-126 "/>
<text text-anchor="middle" x="162" y="-114" font-family="Helvetica,sans-Serif" font-size="10.00"> </text>
</g>
<!-- Node3&#45;&gt;Node1 -->
<g id="edge2" class="edge"><title>Node3&#45;&gt;Node1</title>
<path fill="none" stroke="#404040" d="M189.207,-106.825C198.055,-96.616 208.141,-85.5566 218,-76 221.608,-72.5027 225.453,-68.9771 229.374,-65.517"/>
<polygon fill="none" stroke="#404040" points="229.48,-65.4262 231.425,-58.4823 238.582,-57.6069 236.637,-64.5508 229.48,-65.4262"/>
<text text-anchor="middle" x="244" y="-79.5" font-family="Helvetica,sans-Serif" font-size="10.00"> +intMetrics</text>
</g>
<!-- Node4 -->
<g id="node4" class="node"><title>Node4</title>
<polygon fill="none" stroke="#bfbfbf" points="227,-107 227,-175 321,-175 321,-107 227,-107"/>
<text text-anchor="start" x="235" y="-163" font-family="Helvetica,sans-Serif" font-size="10.00">vector&lt; std::array</text>
<text text-anchor="middle" x="274" y="-152" font-family="Helvetica,sans-Serif" font-size="10.00">&lt; float, 1024 &gt; &gt;</text>
<polyline fill="none" stroke="#bfbfbf" points="227,-145 321,-145 "/>
<text text-anchor="middle" x="274" y="-133" font-family="Helvetica,sans-Serif" font-size="10.00"> </text>
<polyline fill="none" stroke="#bfbfbf" points="227,-126 321,-126 "/>
<text text-anchor="middle" x="274" y="-114" font-family="Helvetica,sans-Serif" font-size="10.00"> </text>
</g>
<!-- Node4&#45;&gt;Node1 -->
<g id="edge3" class="edge"><title>Node4&#45;&gt;Node1</title>
<path fill="none" stroke="#404040" d="M274,-106.996C274,-95.3482 274,-82.1242 274,-69.9627"/>
<polygon fill="none" stroke="#404040" points="274,-69.7843 270,-63.7843 274,-57.7843 278,-63.7843 274,-69.7843"/>
<text text-anchor="middle" x="304.5" y="-79.5" font-family="Helvetica,sans-Serif" font-size="10.00"> +floatMetrics</text>
</g>
<!-- Node5 -->
<g id="node5" class="node"><title>Node5</title>
<polygon fill="none" stroke="#bfbfbf" points="339.5,-107 339.5,-175 454.5,-175 454.5,-107 339.5,-107"/>
<text text-anchor="start" x="347.5" y="-163" font-family="Helvetica,sans-Serif" font-size="10.00">vector&lt; o2::framework</text>
<text text-anchor="middle" x="397" y="-152" font-family="Helvetica,sans-Serif" font-size="10.00">::MetricInfo &gt;</text>
<polyline fill="none" stroke="#bfbfbf" points="339.5,-145 454.5,-145 "/>
<text text-anchor="middle" x="397" y="-133" font-family="Helvetica,sans-Serif" font-size="10.00"> </text>
<polyline fill="none" stroke="#bfbfbf" points="339.5,-126 454.5,-126 "/>
<text text-anchor="middle" x="397" y="-114" font-family="Helvetica,sans-Serif" font-size="10.00"> </text>
</g>
<!-- Node5&#45;&gt;Node1 -->
<g id="edge4" class="edge"><title>Node5&#45;&gt;Node1</title>
<path fill="none" stroke="#404040" d="M369.389,-106.782C360.17,-96.4616 349.548,-85.3493 339,-76 334.761,-72.2433 330.215,-68.5108 325.567,-64.8911"/>
<polygon fill="none" stroke="#404040" points="325.537,-64.8683 318.338,-64.453 315.952,-57.6479 323.151,-58.0632 325.537,-64.8683"/>
<text text-anchor="middle" x="373" y="-79.5" font-family="Helvetica,sans-Serif" font-size="10.00"> +metrics</text>
</g>
<!-- Node6 -->
<g id="node6" class="node"><title>Node6</title>
<polygon fill="none" stroke="#bfbfbf" points="472.5,-107 472.5,-175 585.5,-175 585.5,-107 472.5,-107"/>
<text text-anchor="start" x="480.5" y="-163" font-family="Helvetica,sans-Serif" font-size="10.00">vector&lt; std::pair&lt;</text>
<text text-anchor="middle" x="529" y="-152" font-family="Helvetica,sans-Serif" font-size="10.00"> std::string, size_t &gt; &gt;</text>
<polyline fill="none" stroke="#bfbfbf" points="472.5,-145 585.5,-145 "/>
<text text-anchor="middle" x="529" y="-133" font-family="Helvetica,sans-Serif" font-size="10.00"> </text>
<polyline fill="none" stroke="#bfbfbf" points="472.5,-126 585.5,-126 "/>
<text text-anchor="middle" x="529" y="-114" font-family="Helvetica,sans-Serif" font-size="10.00"> </text>
</g>
<!-- Node6&#45;&gt;Node1 -->
<g id="edge5" class="edge"><title>Node6&#45;&gt;Node1</title>
<path fill="none" stroke="#404040" d="M472.197,-110.54C469.092,-108.992 466.012,-107.47 463,-106 434.406,-92.0446 427.382,-88.2089 398,-76 386.591,-71.2594 374.501,-66.4796 362.519,-61.8864"/>
<polygon fill="none" stroke="#404040" points="362.309,-61.8067 355.28,-63.4165 351.091,-57.5472 358.12,-55.9374 362.309,-61.8067"/>
<text text-anchor="middle" x="465.5" y="-79.5" font-family="Helvetica,sans-Serif" font-size="10.00"> +metricLabelsIdx</text>
</g>
</g>
</svg>
        <g id="navigator" transform="translate(0 0)" fill="#404254">
                <rect fill="#f2f5e9" fill-opacity="0.5" stroke="#606060" stroke-width=".5" x="0" y="0" width="60" height="60"/>
                <use id="zoomplus" xlink:href="#zoomPlus" x="17" y="9" onmousedown="handleZoom(evt,'in')"/>
                <use id="zoomminus" xlink:href="#zoomMin" x="42" y="9" onmousedown="handleZoom(evt,'out')"/>
                <use id="reset" xlink:href="#resetDef" x="30" y="36" onmousedown="handleReset()"/>
                <g id="arrowUp" xlink:href="#dirArrow" transform="translate(30 24)" onmousedown="handlePan(0,-1)">
                  <use xlink:href="#rim" fill="#404040">
                        <set attributeName="fill" to="#808080" begin="arrowUp.mouseover" end="arrowUp.mouseout"/>
                  </use>
                  <path fill="none" stroke="white" stroke-width="1.5" d="M0,-3.0v7 M-2.5,-0.5L0,-3.0L2.5,-0.5"/>
                </g>
                <g id="arrowRight" xlink:href="#dirArrow" transform="rotate(90) translate(36 -43)" onmousedown="handlePan(1,0)">
                  <use xlink:href="#rim" fill="#404040">
                        <set attributeName="fill" to="#808080" begin="arrowRight.mouseover" end="arrowRight.mouseout"/>
                  </use>
                  <path fill="none" stroke="white" stroke-width="1.5" d="M0,-3.0v7 M-2.5,-0.5L0,-3.0L2.5,-0.5"/>
                </g>
                <g id="arrowDown" xlink:href="#dirArrow" transform="rotate(180) translate(-30 -48)" onmousedown="handlePan(0,1)">
                  <use xlink:href="#rim" fill="#404040">
                        <set attributeName="fill" to="#808080" begin="arrowDown.mouseover" end="arrowDown.mouseout"/>
                  </use>
                  <path fill="none" stroke="white" stroke-width="1.5" d="M0,-3.0v7 M-2.5,-0.5L0,-3.0L2.5,-0.5"/>
                </g>
                <g id="arrowLeft" xlink:href="#dirArrow" transform="rotate(270) translate(-36 17)" onmousedown="handlePan(-1,0)">
                  <use xlink:href="#rim" fill="#404040">
                        <set attributeName="fill" to="#808080" begin="arrowLeft.mouseover" end="arrowLeft.mouseout"/>
                  </use>
                  <path fill="none" stroke="white" stroke-width="1.5" d="M0,-3.0v7 M-2.5,-0.5L0,-3.0L2.5,-0.5"/>
                </g>
        </g>
        <svg viewBox="0 0 15 15" width="100%" height="30px" preserveAspectRatio="xMaxYMin meet">
         <g id="arrow_out" transform="scale(0.3 0.3)">
          <a xlink:href="structo2_1_1framework_1_1DeviceMetricsInfo__coll__graph_org.svg" target="_base">
           <rect id="button" ry="5" rx="5" y="6" x="6" height="38" width="38"
                fill="#f2f5e9" fill-opacity="0.5" stroke="#606060" stroke-width="1.0"/>
           <path id="arrow"
             d="M 11.500037,31.436501 C 11.940474,20.09759 22.043105,11.32322 32.158766,21.979434 L 37.068811,17.246167 C 37.068811,17.246167 37.088388,32 37.088388,32 L 22.160133,31.978069 C 22.160133,31.978069 26.997745,27.140456 26.997745,27.140456 C 18.528582,18.264221 13.291696,25.230495 11.500037,31.436501 z"
             style="fill:#404040;"/>
          </a>
         </g>
        </svg>
</svg>
