<?xml version="1.0" encoding="UTF-8" standalone="no"?>
<!DOCTYPE svg PUBLIC "-//W3C//DTD SVG 1.1//EN"
 "http://www.w3.org/Graphics/SVG/1.1/DTD/svg11.dtd">
<!-- Generated by graphviz version 2.36.0 (20140111.2315)
 -->
<!-- Title: /home/travis/build/AliceO2Group/AliceO2/Utilities/DataFlow/src/runHeartbeatSampler.cxx Pages: 1 -->
<svg width="501pt" height="286pt"
 viewBox="0.00 0.00 501.00 286.00" xmlns="http://www.w3.org/2000/svg" xmlns:xlink="http://www.w3.org/1999/xlink">
<g id="graph0" class="graph" transform="scale(1 1) rotate(0) translate(4 282)">
<title>/home/travis/build/AliceO2Group/AliceO2/Utilities/DataFlow/src/runHeartbeatSampler.cxx</title>
<!-- Node1 -->
<g id="node1" class="node"><title>Node1</title>
<polygon fill="#bfbfbf" stroke="black" points="156.5,-225 156.5,-277 287.5,-277 287.5,-225 156.5,-225"/>
<text text-anchor="start" x="164.5" y="-265" font-family="Helvetica,sans-Serif" font-size="10.00">/home/travis/build</text>
<text text-anchor="start" x="164.5" y="-254" font-family="Helvetica,sans-Serif" font-size="10.00">/AliceO2Group/AliceO2</text>
<text text-anchor="start" x="164.5" y="-243" font-family="Helvetica,sans-Serif" font-size="10.00">/Utilities/DataFlow/src</text>
<text text-anchor="middle" x="222" y="-232" font-family="Helvetica,sans-Serif" font-size="10.00">/runHeartbeatSampler.cxx</text>
</g>
<!-- Node2 -->
<g id="node2" class="node"><title>Node2</title>
<polygon fill="none" stroke="#bfbfbf" points="100.5,-168.5 100.5,-187.5 201.5,-187.5 201.5,-168.5 100.5,-168.5"/>
<text text-anchor="middle" x="151" y="-175.5" font-family="Helvetica,sans-Serif" font-size="10.00">runFairMQDevice.h</text>
</g>
<!-- Node1&#45;&gt;Node2 -->
<g id="edge1" class="edge"><title>Node1&#45;&gt;Node2</title>
<path fill="none" stroke="midnightblue" d="M196.768,-224.768C186.881,-214.881 175.831,-203.831 167.066,-195.066"/>
<polygon fill="midnightblue" stroke="midnightblue" points="169.303,-192.353 159.757,-187.757 164.353,-197.303 169.303,-192.353"/>
</g>
<!-- Node3 -->
<g id="node3" class="node"><title>Node3</title>
<g id="a_node3"><a xlink:href="../../d3/dfe/HeartbeatSampler_8h.html" target="_top" xlink:title="DataFlow/HeartbeatSampler.h">
<polygon fill="none" stroke="black" points="219.5,-168.5 219.5,-187.5 368.5,-187.5 368.5,-168.5 219.5,-168.5"/>
<text text-anchor="middle" x="294" y="-175.5" font-family="Helvetica,sans-Serif" font-size="10.00">DataFlow/HeartbeatSampler.h</text>
</a>
</g>
</g>
<!-- Node1&#45;&gt;Node3 -->
<g id="edge2" class="edge"><title>Node1&#45;&gt;Node3</title>
<path fill="none" stroke="midnightblue" d="M247.587,-224.768C257.716,-214.78 269.048,-203.605 277.98,-194.798"/>
<polygon fill="midnightblue" stroke="midnightblue" points="280.457,-197.271 285.12,-187.757 275.542,-192.287 280.457,-197.271"/>
</g>
<!-- Node4 -->
<g id="node4" class="node"><title>Node4</title>
<g id="a_node4"><a xlink:href="../../dc/dcd/DataHeader_8h.html" target="_top" xlink:title="Headers/DataHeader.h">
<polygon fill="none" stroke="black" points="192.5,-56.5 192.5,-75.5 309.5,-75.5 309.5,-56.5 192.5,-56.5"/>
<text text-anchor="middle" x="251" y="-63.5" font-family="Helvetica,sans-Serif" font-size="10.00">Headers/DataHeader.h</text>
</a>
</g>
</g>
<!-- Node3&#45;&gt;Node4 -->
<g id="edge3" class="edge"><title>Node3&#45;&gt;Node4</title>
<path fill="none" stroke="midnightblue" d="M288.95,-168.249C283.943,-159.334 276.279,-145.008 271,-132 264.757,-116.615 259.338,-98.5189 255.721,-85.3325"/>
<polygon fill="midnightblue" stroke="midnightblue" points="259.08,-84.3435 253.129,-75.578 252.315,-86.1415 259.08,-84.3435"/>
</g>
<!-- Node10 -->
<g id="node10" class="node"><title>Node10</title>
<g id="a_node10"><a xlink:href="../../d2/d09/HeartbeatFrame_8h.html" target="_top" xlink:title="Headers/HeartbeatFrame.h">
<polygon fill="none" stroke="black" points="77.5,-112.5 77.5,-131.5 212.5,-131.5 212.5,-112.5 77.5,-112.5"/>
<text text-anchor="middle" x="145" y="-119.5" font-family="Helvetica,sans-Serif" font-size="10.00">Headers/HeartbeatFrame.h</text>
</a>
</g>
</g>
<!-- Node3&#45;&gt;Node10 -->
<g id="edge9" class="edge"><title>Node3&#45;&gt;Node10</title>
<path fill="none" stroke="midnightblue" d="M270.391,-168.444C245.542,-159.438 206.226,-145.189 178.246,-135.049"/>
<polygon fill="midnightblue" stroke="midnightblue" points="179.093,-131.633 168.499,-131.516 176.708,-138.214 179.093,-131.633"/>
</g>
<!-- Node14 -->
<g id="node14" class="node"><title>Node14</title>
<g id="a_node14"><a xlink:href="../../d2/dee/O2Device_8h.html" target="_top" xlink:title="O2Device/O2Device.h">
<polygon fill="none" stroke="black" points="279.5,-112.5 279.5,-131.5 394.5,-131.5 394.5,-112.5 279.5,-112.5"/>
<text text-anchor="middle" x="337" y="-119.5" font-family="Helvetica,sans-Serif" font-size="10.00">O2Device/O2Device.h</text>
</a>
</g>
</g>
<!-- Node3&#45;&gt;Node14 -->
<g id="edge14" class="edge"><title>Node3&#45;&gt;Node14</title>
<path fill="none" stroke="midnightblue" d="M301.101,-168.083C307.237,-160.377 316.27,-149.033 323.739,-139.653"/>
<polygon fill="midnightblue" stroke="midnightblue" points="326.54,-141.754 330.032,-131.751 321.064,-137.394 326.54,-141.754"/>
</g>
<!-- Node17 -->
<g id="node17" class="node"><title>Node17</title>
<polygon fill="none" stroke="#bfbfbf" points="412.5,-112.5 412.5,-131.5 453.5,-131.5 453.5,-112.5 412.5,-112.5"/>
<text text-anchor="middle" x="433" y="-119.5" font-family="Helvetica,sans-Serif" font-size="10.00">string</text>
</g>
<!-- Node3&#45;&gt;Node17 -->
<g id="edge18" class="edge"><title>Node3&#45;&gt;Node17</title>
<path fill="none" stroke="midnightblue" d="M316.025,-168.444C339.511,-159.319 376.853,-144.813 403.012,-134.65"/>
<polygon fill="midnightblue" stroke="midnightblue" points="404.384,-137.872 412.437,-130.988 401.849,-131.347 404.384,-137.872"/>
</g>
<!-- Node5 -->
<g id="node5" class="node"><title>Node5</title>
<polygon fill="none" stroke="#bfbfbf" points="92,-0.5 92,-19.5 138,-19.5 138,-0.5 92,-0.5"/>
<text text-anchor="middle" x="115" y="-7.5" font-family="Helvetica,sans-Serif" font-size="10.00">cstdint</text>
</g>
<!-- Node4&#45;&gt;Node5 -->
<g id="edge4" class="edge"><title>Node4&#45;&gt;Node5</title>
<path fill="none" stroke="midnightblue" d="M229.45,-56.4435C206.969,-47.5171 171.512,-33.4387 146.02,-23.3168"/>
<polygon fill="midnightblue" stroke="midnightblue" points="147.035,-19.9539 136.449,-19.5164 144.451,-26.4598 147.035,-19.9539"/>
</g>
<!-- Node6 -->
<g id="node6" class="node"><title>Node6</title>
<polygon fill="none" stroke="#bfbfbf" points="156,-0.5 156,-19.5 208,-19.5 208,-0.5 156,-0.5"/>
<text text-anchor="middle" x="182" y="-7.5" font-family="Helvetica,sans-Serif" font-size="10.00">memory</text>
</g>
<!-- Node4&#45;&gt;Node6 -->
<g id="edge5" class="edge"><title>Node4&#45;&gt;Node6</title>
<path fill="none" stroke="midnightblue" d="M239.914,-56.324C229.514,-48.1849 213.739,-35.8395 201.278,-26.0874"/>
<polygon fill="midnightblue" stroke="midnightblue" points="203.32,-23.2407 193.288,-19.8339 199.006,-28.7533 203.32,-23.2407"/>
</g>
<!-- Node7 -->
<g id="node7" class="node"><title>Node7</title>
<polygon fill="none" stroke="#bfbfbf" points="226.5,-0.5 226.5,-19.5 275.5,-19.5 275.5,-0.5 226.5,-0.5"/>
<text text-anchor="middle" x="251" y="-7.5" font-family="Helvetica,sans-Serif" font-size="10.00">cassert</text>
</g>
<!-- Node4&#45;&gt;Node7 -->
<g id="edge6" class="edge"><title>Node4&#45;&gt;Node7</title>
<path fill="none" stroke="midnightblue" d="M251,-56.083C251,-49.0059 251,-38.8611 251,-29.9865"/>
<polygon fill="midnightblue" stroke="midnightblue" points="254.5,-29.751 251,-19.7511 247.5,-29.7511 254.5,-29.751"/>
</g>
<!-- Node8 -->
<g id="node8" class="node"><title>Node8</title>
<polygon fill="none" stroke="#bfbfbf" points="294,-0.5 294,-19.5 340,-19.5 340,-0.5 294,-0.5"/>
<text text-anchor="middle" x="317" y="-7.5" font-family="Helvetica,sans-Serif" font-size="10.00">cstring</text>
</g>
<!-- Node4&#45;&gt;Node8 -->
<g id="edge7" class="edge"><title>Node4&#45;&gt;Node8</title>
<path fill="none" stroke="midnightblue" d="M261.604,-56.324C271.456,-48.2631 286.351,-36.0765 298.215,-26.3695"/>
<polygon fill="midnightblue" stroke="midnightblue" points="300.68,-28.8752 306.203,-19.8339 296.247,-23.4575 300.68,-28.8752"/>
</g>
<!-- Node9 -->
<g id="node9" class="node"><title>Node9</title>
<polygon fill="none" stroke="#bfbfbf" points="358,-0.5 358,-19.5 414,-19.5 414,-0.5 358,-0.5"/>
<text text-anchor="middle" x="386" y="-7.5" font-family="Helvetica,sans-Serif" font-size="10.00">algorithm</text>
</g>
<!-- Node4&#45;&gt;Node9 -->
<g id="edge8" class="edge"><title>Node4&#45;&gt;Node9</title>
<path fill="none" stroke="midnightblue" d="M272.391,-56.4435C294.707,-47.5171 329.903,-33.4387 355.208,-23.3168"/>
<polygon fill="midnightblue" stroke="midnightblue" points="356.724,-26.4801 364.709,-19.5164 354.124,-19.9807 356.724,-26.4801"/>
</g>
<!-- Node10&#45;&gt;Node4 -->
<g id="edge10" class="edge"><title>Node10&#45;&gt;Node4</title>
<path fill="none" stroke="midnightblue" d="M162.031,-112.324C179.03,-103.664 205.376,-90.2424 224.993,-80.249"/>
<polygon fill="midnightblue" stroke="midnightblue" points="226.69,-83.3125 234.012,-75.6545 223.512,-77.0752 226.69,-83.3125"/>
</g>
<!-- Node11 -->
<g id="node11" class="node"><title>Node11</title>
<polygon fill="none" stroke="#bfbfbf" points="115.5,-56.5 115.5,-75.5 174.5,-75.5 174.5,-56.5 115.5,-56.5"/>
<text text-anchor="middle" x="145" y="-63.5" font-family="Helvetica,sans-Serif" font-size="10.00">functional</text>
</g>
<!-- Node10&#45;&gt;Node11 -->
<g id="edge11" class="edge"><title>Node10&#45;&gt;Node11</title>
<path fill="none" stroke="midnightblue" d="M145,-112.083C145,-105.006 145,-94.8611 145,-85.9865"/>
<polygon fill="midnightblue" stroke="midnightblue" points="148.5,-85.751 145,-75.7511 141.5,-85.7511 148.5,-85.751"/>
</g>
<!-- Node12 -->
<g id="node12" class="node"><title>Node12</title>
<polygon fill="none" stroke="#bfbfbf" points="-0.5,-56.5 -0.5,-75.5 34.5,-75.5 34.5,-56.5 -0.5,-56.5"/>
<text text-anchor="middle" x="17" y="-63.5" font-family="Helvetica,sans-Serif" font-size="10.00">map</text>
</g>
<!-- Node10&#45;&gt;Node12 -->
<g id="edge12" class="edge"><title>Node10&#45;&gt;Node12</title>
<path fill="none" stroke="midnightblue" d="M124.718,-112.444C102.909,-103.243 68.1267,-88.5691 44.0119,-78.3957"/>
<polygon fill="midnightblue" stroke="midnightblue" points="45.2879,-75.1353 34.7138,-74.473 42.567,-81.5849 45.2879,-75.1353"/>
</g>
<!-- Node13 -->
<g id="node13" class="node"><title>Node13</title>
<polygon fill="none" stroke="#bfbfbf" points="53,-56.5 53,-75.5 97,-75.5 97,-56.5 53,-56.5"/>
<text text-anchor="middle" x="75" y="-63.5" font-family="Helvetica,sans-Serif" font-size="10.00">vector</text>
</g>
<!-- Node10&#45;&gt;Node13 -->
<g id="edge13" class="edge"><title>Node10&#45;&gt;Node13</title>
<path fill="none" stroke="midnightblue" d="M133.753,-112.324C123.203,-104.185 107.199,-91.8395 94.5578,-82.0874"/>
<polygon fill="midnightblue" stroke="midnightblue" points="96.507,-79.1707 86.4513,-75.8339 92.2314,-84.7132 96.507,-79.1707"/>
</g>
<!-- Node14&#45;&gt;Node4 -->
<g id="edge16" class="edge"><title>Node14&#45;&gt;Node4</title>
<path fill="none" stroke="midnightblue" d="M323.183,-112.324C309.767,-103.9 289.176,-90.9709 273.414,-81.0741"/>
<polygon fill="midnightblue" stroke="midnightblue" points="275.113,-78.0081 264.783,-75.6545 271.391,-83.9364 275.113,-78.0081"/>
</g>
<!-- Node15 -->
<g id="node15" class="node"><title>Node15</title>
<polygon fill="none" stroke="#bfbfbf" points="328,-56.5 328,-75.5 416,-75.5 416,-56.5 328,-56.5"/>
<text text-anchor="middle" x="372" y="-63.5" font-family="Helvetica,sans-Serif" font-size="10.00">FairMQDevice.h</text>
</g>
<!-- Node14&#45;&gt;Node15 -->
<g id="edge15" class="edge"><title>Node14&#45;&gt;Node15</title>
<path fill="none" stroke="midnightblue" d="M342.78,-112.083C347.672,-104.534 354.827,-93.4948 360.833,-84.2298"/>
<polygon fill="midnightblue" stroke="midnightblue" points="363.826,-86.0463 366.328,-75.7511 357.952,-82.239 363.826,-86.0463"/>
</g>
<!-- Node16 -->
<g id="node16" class="node"><title>Node16</title>
<polygon fill="none" stroke="#bfbfbf" points="434.5,-56.5 434.5,-75.5 493.5,-75.5 493.5,-56.5 434.5,-56.5"/>
<text text-anchor="middle" x="464" y="-63.5" font-family="Helvetica,sans-Serif" font-size="10.00">stdexcept</text>
</g>
<!-- Node14&#45;&gt;Node16 -->
<g id="edge17" class="edge"><title>Node14&#45;&gt;Node16</title>
<path fill="none" stroke="midnightblue" d="M357.124,-112.444C378.024,-103.557 410.935,-89.5632 434.716,-79.4514"/>
<polygon fill="midnightblue" stroke="midnightblue" points="436.138,-82.6504 443.971,-75.5164 433.398,-76.2085 436.138,-82.6504"/>
</g>
</g>
</svg>
