<?xml version="1.0" encoding="UTF-8" standalone="no"?>
<!DOCTYPE svg PUBLIC "-//W3C//DTD SVG 1.1//EN"
 "http://www.w3.org/Graphics/SVG/1.1/DTD/svg11.dtd">
<!-- Generated by graphviz version 2.36.0 (20140111.2315)
 -->
<!-- Title: /home/travis/build/AliceO2Group/AliceO2/Detectors/TRD/base/src/TRDCommonParam.cxx Pages: 1 -->
<svg width="614pt" height="230pt"
 viewBox="0.00 0.00 614.00 230.00" xmlns="http://www.w3.org/2000/svg" xmlns:xlink="http://www.w3.org/1999/xlink">
<g id="graph0" class="graph" transform="scale(1 1) rotate(0) translate(4 226)">
<title>/home/travis/build/AliceO2Group/AliceO2/Detectors/TRD/base/src/TRDCommonParam.cxx</title>
<!-- Node1 -->
<g id="node1" class="node"><title>Node1</title>
<polygon fill="#bfbfbf" stroke="black" points="175,-169 175,-221 303,-221 303,-169 175,-169"/>
<text text-anchor="start" x="183" y="-209" font-family="Helvetica,sans-Serif" font-size="10.00">/home/travis/build</text>
<text text-anchor="start" x="183" y="-198" font-family="Helvetica,sans-Serif" font-size="10.00">/AliceO2Group/AliceO2</text>
<text text-anchor="start" x="183" y="-187" font-family="Helvetica,sans-Serif" font-size="10.00">/Detectors/TRD/base/src</text>
<text text-anchor="middle" x="239" y="-176" font-family="Helvetica,sans-Serif" font-size="10.00">/TRDCommonParam.cxx</text>
</g>
<!-- Node2 -->
<g id="node2" class="node"><title>Node2</title>
<polygon fill="none" stroke="#bfbfbf" points="-1,-112.5 -1,-131.5 115,-131.5 115,-112.5 -1,-112.5"/>
<text text-anchor="middle" x="57" y="-119.5" font-family="Helvetica,sans-Serif" font-size="10.00">TGeoGlobalMagField.h</text>
</g>
<!-- Node1&#45;&gt;Node2 -->
<g id="edge1" class="edge"><title>Node1&#45;&gt;Node2</title>
<path fill="none" stroke="midnightblue" d="M174.834,-168.968C145.641,-157.58 112.402,-144.613 88.6859,-135.361"/>
<polygon fill="midnightblue" stroke="midnightblue" points="89.733,-132.013 79.1448,-131.639 87.1889,-138.534 89.733,-132.013"/>
</g>
<!-- Node3 -->
<g id="node3" class="node"><title>Node3</title>
<polygon fill="none" stroke="#bfbfbf" points="132.5,-112.5 132.5,-131.5 185.5,-131.5 185.5,-112.5 132.5,-112.5"/>
<text text-anchor="middle" x="159" y="-119.5" font-family="Helvetica,sans-Serif" font-size="10.00">TMath.h</text>
</g>
<!-- Node1&#45;&gt;Node3 -->
<g id="edge2" class="edge"><title>Node1&#45;&gt;Node3</title>
<path fill="none" stroke="midnightblue" d="M210.57,-168.768C199.202,-158.679 186.47,-147.379 176.501,-138.532"/>
<polygon fill="midnightblue" stroke="midnightblue" points="178.67,-135.777 168.867,-131.757 174.023,-141.013 178.67,-135.777"/>
</g>
<!-- Node4 -->
<g id="node4" class="node"><title>Node4</title>
<polygon fill="none" stroke="#bfbfbf" points="203.5,-112.5 203.5,-131.5 274.5,-131.5 274.5,-112.5 203.5,-112.5"/>
<text text-anchor="middle" x="239" y="-119.5" font-family="Helvetica,sans-Serif" font-size="10.00">FairLogger.h</text>
</g>
<!-- Node1&#45;&gt;Node4 -->
<g id="edge3" class="edge"><title>Node1&#45;&gt;Node4</title>
<path fill="none" stroke="midnightblue" d="M239,-168.768C239,-159.89 239,-150.074 239,-141.816"/>
<polygon fill="midnightblue" stroke="midnightblue" points="242.5,-141.757 239,-131.757 235.5,-141.757 242.5,-141.757"/>
</g>
<!-- Node5 -->
<g id="node5" class="node"><title>Node5</title>
<g id="a_node5"><a xlink:href="../../da/d32/TRDCommonParam_8h.html" target="_top" xlink:title="TRDBase/TRDCommonParam.h">
<polygon fill="none" stroke="black" points="292.5,-112.5 292.5,-131.5 453.5,-131.5 453.5,-112.5 292.5,-112.5"/>
<text text-anchor="middle" x="373" y="-119.5" font-family="Helvetica,sans-Serif" font-size="10.00">TRDBase/TRDCommonParam.h</text>
</a>
</g>
</g>
<!-- Node1&#45;&gt;Node5 -->
<g id="edge4" class="edge"><title>Node1&#45;&gt;Node5</title>
<path fill="none" stroke="midnightblue" d="M286.243,-168.968C306.969,-157.986 330.466,-145.537 347.774,-136.366"/>
<polygon fill="midnightblue" stroke="midnightblue" points="349.498,-139.414 356.696,-131.639 346.221,-133.228 349.498,-139.414"/>
</g>
<!-- Node8 -->
<g id="node8" class="node"><title>Node8</title>
<g id="a_node8"><a xlink:href="../../dd/d07/TRDGeometry_8h.html" target="_top" xlink:title="TRDBase/TRDGeometry.h">
<polygon fill="none" stroke="black" points="471.5,-112.5 471.5,-131.5 606.5,-131.5 606.5,-112.5 471.5,-112.5"/>
<text text-anchor="middle" x="539" y="-119.5" font-family="Helvetica,sans-Serif" font-size="10.00">TRDBase/TRDGeometry.h</text>
</a>
</g>
</g>
<!-- Node1&#45;&gt;Node8 -->
<g id="edge7" class="edge"><title>Node1&#45;&gt;Node8</title>
<path fill="none" stroke="midnightblue" d="M303.358,-178.769C360.377,-165.274 442.225,-145.903 492.924,-133.905"/>
<polygon fill="midnightblue" stroke="midnightblue" points="494.016,-137.243 502.941,-131.534 492.404,-130.431 494.016,-137.243"/>
</g>
<!-- Node6 -->
<g id="node6" class="node"><title>Node6</title>
<g id="a_node6"><a xlink:href="../../d9/df4/TRDSimParam_8h.html" target="_top" xlink:title="TRDBase/TRDSimParam.h">
<polygon fill="none" stroke="black" points="304,-56.5 304,-75.5 442,-75.5 442,-56.5 304,-56.5"/>
<text text-anchor="middle" x="373" y="-63.5" font-family="Helvetica,sans-Serif" font-size="10.00">TRDBase/TRDSimParam.h</text>
</a>
</g>
</g>
<!-- Node5&#45;&gt;Node6 -->
<g id="edge5" class="edge"><title>Node5&#45;&gt;Node6</title>
<path fill="none" stroke="midnightblue" d="M373,-112.083C373,-105.006 373,-94.8611 373,-85.9865"/>
<polygon fill="midnightblue" stroke="midnightblue" points="376.5,-85.751 373,-75.7511 369.5,-85.7511 376.5,-85.751"/>
</g>
<!-- Node7 -->
<g id="node7" class="node"><title>Node7</title>
<polygon fill="none" stroke="#bfbfbf" points="345,-0.5 345,-19.5 401,-19.5 401,-0.5 345,-0.5"/>
<text text-anchor="middle" x="373" y="-7.5" font-family="Helvetica,sans-Serif" font-size="10.00">Rtypes.h</text>
</g>
<!-- Node6&#45;&gt;Node7 -->
<g id="edge6" class="edge"><title>Node6&#45;&gt;Node7</title>
<path fill="none" stroke="midnightblue" d="M373,-56.083C373,-49.0059 373,-38.8611 373,-29.9865"/>
<polygon fill="midnightblue" stroke="midnightblue" points="376.5,-29.751 373,-19.7511 369.5,-29.7511 376.5,-29.751"/>
</g>
<!-- Node9 -->
<g id="node9" class="node"><title>Node9</title>
<polygon fill="none" stroke="#bfbfbf" points="489.5,-56.5 489.5,-75.5 530.5,-75.5 530.5,-56.5 489.5,-56.5"/>
<text text-anchor="middle" x="510" y="-63.5" font-family="Helvetica,sans-Serif" font-size="10.00">string</text>
</g>
<!-- Node8&#45;&gt;Node9 -->
<g id="edge8" class="edge"><title>Node8&#45;&gt;Node9</title>
<path fill="none" stroke="midnightblue" d="M534.211,-112.083C530.242,-104.691 524.475,-93.9533 519.565,-84.8111"/>
<polygon fill="midnightblue" stroke="midnightblue" points="522.514,-82.9051 514.7,-75.7511 516.347,-86.217 522.514,-82.9051"/>
</g>
<!-- Node10 -->
<g id="node10" class="node"><title>Node10</title>
<polygon fill="none" stroke="#bfbfbf" points="549,-56.5 549,-75.5 593,-75.5 593,-56.5 549,-56.5"/>
<text text-anchor="middle" x="571" y="-63.5" font-family="Helvetica,sans-Serif" font-size="10.00">vector</text>
</g>
<!-- Node8&#45;&gt;Node10 -->
<g id="edge9" class="edge"><title>Node8&#45;&gt;Node10</title>
<path fill="none" stroke="midnightblue" d="M544.284,-112.083C548.711,-104.613 555.163,-93.7244 560.618,-84.5199"/>
<polygon fill="midnightblue" stroke="midnightblue" points="563.727,-86.1383 565.814,-75.7511 557.705,-82.5697 563.727,-86.1383"/>
</g>
</g>
</svg>
