<?xml version="1.0" encoding="UTF-8" standalone="no"?>
<!DOCTYPE svg PUBLIC "-//W3C//DTD SVG 1.1//EN"
 "http://www.w3.org/Graphics/SVG/1.1/DTD/svg11.dtd">
<!-- Generated by graphviz version 2.36.0 (20140111.2315)
 -->
<!-- Title: /home/travis/build/AliceO2Group/AliceO2/Detectors/TPC/simulation/include/TPCSimulation/CommonModeContainer.h Pages: 1 -->
<!--zoomable 600 -->
<svg id="main" version="1.1" xmlns="http://www.w3.org/2000/svg" xmlns:xlink="http://www.w3.org/1999/xlink" xml:space="preserve" onload="init(evt)">
<style type="text/css"><![CDATA[
.edge:hover path { stroke: red; }
.edge:hover polygon { stroke: red; fill: red; }
]]></style>
<script type="text/javascript"><![CDATA[
var edges = document.getElementsByTagName('g');
if (edges && edges.length) {
  for (var i=0;i<edges.length;i++) {
    if (edges[i].id.substr(0,4)=='edge') {
      edges[i].setAttribute('class','edge');
    }
  }
}
]]></script>
        <defs>
                <circle id="rim" cx="0" cy="0" r="7"/>
                <circle id="rim2" cx="0" cy="0" r="3.5"/>
                <g id="zoomPlus">
                        <use xlink:href="#rim" fill="#404040">
                                <set attributeName="fill" to="#808080" begin="zoomplus.mouseover" end="zoomplus.mouseout"/>
                        </use>
                        <path d="M-4,0h8M0,-4v8" fill="none" stroke="white" stroke-width="1.5" pointer-events="none"/>
                </g>
                <g id="zoomMin">
                        <use xlink:href="#rim" fill="#404040">
                                <set attributeName="fill" to="#808080" begin="zoomminus.mouseover" end="zoomminus.mouseout"/>
                        </use>
                        <path d="M-4,0h8" fill="none" stroke="white" stroke-width="1.5" pointer-events="none"/>
                </g>
                <g id="dirArrow">
                        <path fill="none" stroke="white" stroke-width="1.5" d="M0,-3.0v7 M-2.5,-0.5L0,-3.0L2.5,-0.5"/>
                </g>
               <g id="resetDef">
                       <use xlink:href="#rim2" fill="#404040">
                               <set attributeName="fill" to="#808080" begin="reset.mouseover" end="reset.mouseout"/>
                       </use>
               </g>
        </defs>

<script type="text/javascript">
var viewWidth = 1301;
var viewHeight = 600;
var sectionId = 'dynsection-0';
</script>
<script xlink:href="../../svgpan.js"/>
<svg id="graph" class="graph">
<g id="viewport">
<title>/home/travis/build/AliceO2Group/AliceO2/Detectors/TPC/simulation/include/TPCSimulation/CommonModeContainer.h</title>
<!-- Node1 -->
<g id="node1" class="node"><title>Node1</title>
<polygon fill="#bfbfbf" stroke="black" points="556,-528.5 556,-591.5 742,-591.5 742,-528.5 556,-528.5"/>
<text text-anchor="start" x="564" y="-579.5" font-family="Helvetica,sans-Serif" font-size="10.00">/home/travis/build</text>
<text text-anchor="start" x="564" y="-568.5" font-family="Helvetica,sans-Serif" font-size="10.00">/AliceO2Group/AliceO2</text>
<text text-anchor="start" x="564" y="-557.5" font-family="Helvetica,sans-Serif" font-size="10.00">/Detectors/TPC/simulation</text>
<text text-anchor="start" x="564" y="-546.5" font-family="Helvetica,sans-Serif" font-size="10.00">/include/TPCSimulation/CommonMode</text>
<text text-anchor="middle" x="649" y="-535.5" font-family="Helvetica,sans-Serif" font-size="10.00">Container.h</text>
</g>
<!-- Node2 -->
<g id="node2" class="node"><title>Node2</title>
<g id="a_node2"><a xlink:href="../../dc/d14/ROC_8h.html" target="_top" xlink:title="TPCBase/ROC.h">
<polygon fill="none" stroke="black" points="483.5,-304.5 483.5,-323.5 576.5,-323.5 576.5,-304.5 483.5,-304.5"/>
<text text-anchor="middle" x="530" y="-311.5" font-family="Helvetica,sans-Serif" font-size="10.00">TPCBase/ROC.h</text>
</a>
</g>
</g>
<!-- Node1&#45;&gt;Node2 -->
<g id="edge1" class="edge"><title>Node1&#45;&gt;Node2</title>
<path fill="none" stroke="midnightblue" d="M555.661,-549.493C483.426,-536.68 387.887,-506.603 340,-436 321.04,-408.046 319.048,-386.494 340,-360 356.426,-339.229 423.571,-327.05 473.409,-320.712"/>
<polygon fill="midnightblue" stroke="midnightblue" points="473.94,-324.174 483.441,-319.485 473.09,-317.225 473.94,-324.174"/>
</g>
<!-- Node19 -->
<g id="node19" class="node"><title>Node19</title>
<g id="a_node19"><a xlink:href="../../d7/d2c/Mapper_8h.html" target="_top" xlink:title="TPCBase/Mapper.h">
<polygon fill="none" stroke="black" points="597.5,-472.5 597.5,-491.5 700.5,-491.5 700.5,-472.5 597.5,-472.5"/>
<text text-anchor="middle" x="649" y="-479.5" font-family="Helvetica,sans-Serif" font-size="10.00">TPCBase/Mapper.h</text>
</a>
</g>
</g>
<!-- Node1&#45;&gt;Node19 -->
<g id="edge20" class="edge"><title>Node1&#45;&gt;Node19</title>
<path fill="none" stroke="midnightblue" d="M649,-528.088C649,-519.15 649,-509.669 649,-501.719"/>
<polygon fill="midnightblue" stroke="midnightblue" points="652.5,-501.718 649,-491.718 645.5,-501.718 652.5,-501.718"/>
</g>
<!-- Node32 -->
<g id="node32" class="node"><title>Node32</title>
<polygon fill="none" stroke="#bfbfbf" points="718.5,-472.5 718.5,-491.5 761.5,-491.5 761.5,-472.5 718.5,-472.5"/>
<text text-anchor="middle" x="740" y="-479.5" font-family="Helvetica,sans-Serif" font-size="10.00">deque</text>
</g>
<!-- Node1&#45;&gt;Node32 -->
<g id="edge51" class="edge"><title>Node1&#45;&gt;Node32</title>
<path fill="none" stroke="midnightblue" d="M685.751,-528.307C698.083,-518.008 711.306,-506.964 721.61,-498.359"/>
<polygon fill="midnightblue" stroke="midnightblue" points="724.063,-500.87 729.494,-491.774 719.576,-495.498 724.063,-500.87"/>
</g>
<!-- Node3 -->
<g id="node3" class="node"><title>Node3</title>
<g id="a_node3"><a xlink:href="../../d1/d73/Defs_8h.html" target="_top" xlink:title="Common definitions for 2D coordinates. ">
<polygon fill="none" stroke="black" points="665,-192.5 665,-211.5 757,-211.5 757,-192.5 665,-192.5"/>
<text text-anchor="middle" x="711" y="-199.5" font-family="Helvetica,sans-Serif" font-size="10.00">TPCBase/Defs.h</text>
</a>
</g>
</g>
<!-- Node2&#45;&gt;Node3 -->
<g id="edge2" class="edge"><title>Node2&#45;&gt;Node3</title>
<path fill="none" stroke="midnightblue" d="M536.139,-304.215C546.16,-290.463 567.306,-263.794 591,-248 613.841,-232.774 642.538,-221.772 666.141,-214.459"/>
<polygon fill="midnightblue" stroke="midnightblue" points="667.327,-217.758 675.913,-211.55 665.33,-211.049 667.327,-217.758"/>
</g>
<!-- Node17 -->
<g id="node17" class="node"><title>Node17</title>
<g id="a_node17"><a xlink:href="../../d3/dd6/Sector_8h.html" target="_top" xlink:title="TPCBase/Sector.h">
<polygon fill="none" stroke="black" points="405.5,-248.5 405.5,-267.5 504.5,-267.5 504.5,-248.5 405.5,-248.5"/>
<text text-anchor="middle" x="455" y="-255.5" font-family="Helvetica,sans-Serif" font-size="10.00">TPCBase/Sector.h</text>
</a>
</g>
</g>
<!-- Node2&#45;&gt;Node17 -->
<g id="edge17" class="edge"><title>Node2&#45;&gt;Node17</title>
<path fill="none" stroke="midnightblue" d="M517.95,-304.324C506.537,-296.107 489.169,-283.602 475.565,-273.807"/>
<polygon fill="midnightblue" stroke="midnightblue" points="477.43,-270.837 467.269,-267.834 473.34,-276.517 477.43,-270.837"/>
</g>
<!-- Node4 -->
<g id="node4" class="node"><title>Node4</title>
<polygon fill="none" stroke="#bfbfbf" points="922,-136.5 922,-155.5 966,-155.5 966,-136.5 922,-136.5"/>
<text text-anchor="middle" x="944" y="-143.5" font-family="Helvetica,sans-Serif" font-size="10.00">cmath</text>
</g>
<!-- Node3&#45;&gt;Node4 -->
<g id="edge3" class="edge"><title>Node3&#45;&gt;Node4</title>
<path fill="none" stroke="midnightblue" d="M747.92,-192.444C793.204,-181.948 869.217,-164.332 912.085,-154.397"/>
<polygon fill="midnightblue" stroke="midnightblue" points="913.025,-157.772 921.977,-152.104 911.445,-150.952 913.025,-157.772"/>
</g>
<!-- Node5 -->
<g id="node5" class="node"><title>Node5</title>
<g id="a_node5"><a xlink:href="../../d2/dd0/Cartesian2D_8h.html" target="_top" xlink:title="MathUtils/Cartesian2D.h">
<polygon fill="none" stroke="black" points="1051.5,-74.5 1051.5,-93.5 1176.5,-93.5 1176.5,-74.5 1051.5,-74.5"/>
<text text-anchor="middle" x="1114" y="-81.5" font-family="Helvetica,sans-Serif" font-size="10.00">MathUtils/Cartesian2D.h</text>
</a>
</g>
</g>
<!-- Node3&#45;&gt;Node5 -->
<g id="edge4" class="edge"><title>Node3&#45;&gt;Node5</title>
<path fill="none" stroke="midnightblue" d="M735.724,-192.49C773.648,-179.562 848.56,-154.523 913,-136 965.631,-120.871 1026.68,-105.716 1067.56,-95.9059"/>
<polygon fill="midnightblue" stroke="midnightblue" points="1068.59,-99.2586 1077.5,-93.5304 1066.96,-92.4503 1068.59,-99.2586"/>
</g>
<!-- Node8 -->
<g id="node8" class="node"><title>Node8</title>
<g id="a_node8"><a xlink:href="../../dd/d76/Cartesian3D_8h.html" target="_top" xlink:title="MathUtils/Cartesian3D.h">
<polygon fill="none" stroke="black" points="570.5,-136.5 570.5,-155.5 695.5,-155.5 695.5,-136.5 570.5,-136.5"/>
<text text-anchor="middle" x="633" y="-143.5" font-family="Helvetica,sans-Serif" font-size="10.00">MathUtils/Cartesian3D.h</text>
</a>
</g>
</g>
<!-- Node3&#45;&gt;Node8 -->
<g id="edge7" class="edge"><title>Node3&#45;&gt;Node8</title>
<path fill="none" stroke="midnightblue" d="M698.468,-192.324C686.414,-183.979 667.973,-171.212 653.731,-161.352"/>
<polygon fill="midnightblue" stroke="midnightblue" points="655.715,-158.469 645.501,-155.655 651.731,-164.224 655.715,-158.469"/>
</g>
<!-- Node6 -->
<g id="node6" class="node"><title>Node6</title>
<polygon fill="none" stroke="#bfbfbf" points="947.5,-1 947.5,-31 1098.5,-31 1098.5,-1 947.5,-1"/>
<text text-anchor="start" x="955.5" y="-19" font-family="Helvetica,sans-Serif" font-size="10.00">Math/GenVector/Displacement</text>
<text text-anchor="middle" x="1023" y="-8" font-family="Helvetica,sans-Serif" font-size="10.00">Vector2D.h</text>
</g>
<!-- Node5&#45;&gt;Node6 -->
<g id="edge5" class="edge"><title>Node5&#45;&gt;Node6</title>
<path fill="none" stroke="midnightblue" d="M1102.1,-74.3717C1089.22,-65.0286 1068.22,-49.7966 1051.09,-37.375"/>
<polygon fill="midnightblue" stroke="midnightblue" points="1052.7,-34.2194 1042.55,-31.1815 1048.59,-39.8859 1052.7,-34.2194"/>
</g>
<!-- Node7 -->
<g id="node7" class="node"><title>Node7</title>
<polygon fill="none" stroke="#bfbfbf" points="1117,-6.5 1117,-25.5 1293,-25.5 1293,-6.5 1117,-6.5"/>
<text text-anchor="middle" x="1205" y="-13.5" font-family="Helvetica,sans-Serif" font-size="10.00">Math/GenVector/PositionVector2D.h</text>
</g>
<!-- Node5&#45;&gt;Node7 -->
<g id="edge6" class="edge"><title>Node5&#45;&gt;Node7</title>
<path fill="none" stroke="midnightblue" d="M1125.9,-74.3717C1140.88,-63.5015 1166.86,-44.6602 1184.94,-31.5474"/>
<polygon fill="midnightblue" stroke="midnightblue" points="1187.06,-34.3349 1193.1,-25.6305 1182.95,-28.6684 1187.06,-34.3349"/>
</g>
<!-- Node8&#45;&gt;Node5 -->
<g id="edge15" class="edge"><title>Node8&#45;&gt;Node5</title>
<path fill="none" stroke="midnightblue" d="M695.611,-139.989C776.073,-133.119 919.946,-119.383 1042,-100 1049.89,-98.7468 1058.23,-97.21 1066.32,-95.6031"/>
<polygon fill="midnightblue" stroke="midnightblue" points="1067.29,-98.9774 1076.38,-93.5463 1065.89,-92.1191 1067.29,-98.9774"/>
</g>
<!-- Node9 -->
<g id="node9" class="node"><title>Node9</title>
<polygon fill="none" stroke="#bfbfbf" points="531.5,-74.5 531.5,-93.5 680.5,-93.5 680.5,-74.5 531.5,-74.5"/>
<text text-anchor="middle" x="606" y="-81.5" font-family="Helvetica,sans-Serif" font-size="10.00">Math/GenVector/Rotation3D.h</text>
</g>
<!-- Node8&#45;&gt;Node9 -->
<g id="edge8" class="edge"><title>Node8&#45;&gt;Node9</title>
<path fill="none" stroke="midnightblue" d="M629.132,-136.403C625.202,-127.671 619,-113.889 614.007,-102.794"/>
<polygon fill="midnightblue" stroke="midnightblue" points="617.157,-101.264 609.861,-93.5806 610.773,-104.136 617.157,-101.264"/>
</g>
<!-- Node10 -->
<g id="node10" class="node"><title>Node10</title>
<polygon fill="none" stroke="#bfbfbf" points="699,-74.5 699,-93.5 855,-93.5 855,-74.5 699,-74.5"/>
<text text-anchor="middle" x="777" y="-81.5" font-family="Helvetica,sans-Serif" font-size="10.00">Math/GenVector/Transform3D.h</text>
</g>
<!-- Node8&#45;&gt;Node10 -->
<g id="edge9" class="edge"><title>Node8&#45;&gt;Node10</title>
<path fill="none" stroke="midnightblue" d="M653.632,-136.403C678.119,-126.2 719.147,-109.105 747.109,-97.4544"/>
<polygon fill="midnightblue" stroke="midnightblue" points="748.522,-100.658 756.407,-93.5806 745.83,-94.196 748.522,-100.658"/>
</g>
<!-- Node11 -->
<g id="node11" class="node"><title>Node11</title>
<polygon fill="none" stroke="#bfbfbf" points="873,-74.5 873,-93.5 1033,-93.5 1033,-74.5 873,-74.5"/>
<text text-anchor="middle" x="953" y="-81.5" font-family="Helvetica,sans-Serif" font-size="10.00">Math/GenVector/Translation3D.h</text>
</g>
<!-- Node8&#45;&gt;Node11 -->
<g id="edge10" class="edge"><title>Node8&#45;&gt;Node11</title>
<path fill="none" stroke="midnightblue" d="M678.508,-136.467C736.207,-125.649 835.62,-107.009 897.65,-95.3781"/>
<polygon fill="midnightblue" stroke="midnightblue" points="898.465,-98.7864 907.649,-93.5034 897.175,-91.9063 898.465,-98.7864"/>
</g>
<!-- Node12 -->
<g id="node12" class="node"><title>Node12</title>
<polygon fill="none" stroke="#bfbfbf" points="0,-74.5 0,-93.5 56,-93.5 56,-74.5 0,-74.5"/>
<text text-anchor="middle" x="28" y="-81.5" font-family="Helvetica,sans-Serif" font-size="10.00">Rtypes.h</text>
</g>
<!-- Node8&#45;&gt;Node12 -->
<g id="edge11" class="edge"><title>Node8&#45;&gt;Node12</title>
<path fill="none" stroke="midnightblue" d="M570.056,-142.439C442.896,-136.868 159.462,-122.328 65,-100 61.9287,-99.274 58.7794,-98.3318 55.6772,-97.2732"/>
<polygon fill="midnightblue" stroke="midnightblue" points="56.6711,-93.9065 46.0802,-93.6174 54.1792,-100.448 56.6711,-93.9065"/>
</g>
<!-- Node13 -->
<g id="node13" class="node"><title>Node13</title>
<polygon fill="none" stroke="#bfbfbf" points="74,-74.5 74,-93.5 150,-93.5 150,-74.5 74,-74.5"/>
<text text-anchor="middle" x="112" y="-81.5" font-family="Helvetica,sans-Serif" font-size="10.00">TGeoMatrix.h</text>
</g>
<!-- Node8&#45;&gt;Node13 -->
<g id="edge12" class="edge"><title>Node8&#45;&gt;Node13</title>
<path fill="none" stroke="midnightblue" d="M570.258,-143.313C478.918,-139.897 304.367,-129.739 159,-100 154.537,-99.0869 149.899,-97.9058 145.353,-96.6074"/>
<polygon fill="midnightblue" stroke="midnightblue" points="146.234,-93.2169 135.648,-93.6361 144.185,-99.9103 146.234,-93.2169"/>
</g>
<!-- Node14 -->
<g id="node14" class="node"><title>Node14</title>
<polygon fill="none" stroke="#bfbfbf" points="168.5,-69 168.5,-99 319.5,-99 319.5,-69 168.5,-69"/>
<text text-anchor="start" x="176.5" y="-87" font-family="Helvetica,sans-Serif" font-size="10.00">Math/GenVector/Displacement</text>
<text text-anchor="middle" x="244" y="-76" font-family="Helvetica,sans-Serif" font-size="10.00">Vector3D.h</text>
</g>
<!-- Node8&#45;&gt;Node14 -->
<g id="edge13" class="edge"><title>Node8&#45;&gt;Node14</title>
<path fill="none" stroke="midnightblue" d="M572.073,-136.487C512.802,-128.091 419.943,-114.635 329.411,-100.04"/>
<polygon fill="midnightblue" stroke="midnightblue" points="329.956,-96.5825 319.525,-98.4399 328.838,-103.493 329.956,-96.5825"/>
</g>
<!-- Node15 -->
<g id="node15" class="node"><title>Node15</title>
<polygon fill="none" stroke="#bfbfbf" points="338,-74.5 338,-93.5 514,-93.5 514,-74.5 338,-74.5"/>
<text text-anchor="middle" x="426" y="-81.5" font-family="Helvetica,sans-Serif" font-size="10.00">Math/GenVector/PositionVector3D.h</text>
</g>
<!-- Node8&#45;&gt;Node15 -->
<g id="edge14" class="edge"><title>Node8&#45;&gt;Node15</title>
<path fill="none" stroke="midnightblue" d="M603.342,-136.403C567.066,-125.889 505.536,-108.054 465.336,-96.4016"/>
<polygon fill="midnightblue" stroke="midnightblue" points="466.182,-93.003 455.603,-93.5806 464.233,-99.7263 466.182,-93.003"/>
</g>
<!-- Node16 -->
<g id="node16" class="node"><title>Node16</title>
<polygon fill="none" stroke="#bfbfbf" points="1195,-74.5 1195,-93.5 1249,-93.5 1249,-74.5 1195,-74.5"/>
<text text-anchor="middle" x="1222" y="-81.5" font-family="Helvetica,sans-Serif" font-size="10.00">iostream</text>
</g>
<!-- Node8&#45;&gt;Node16 -->
<g id="edge16" class="edge"><title>Node8&#45;&gt;Node16</title>
<path fill="none" stroke="midnightblue" d="M695.596,-142.288C819.856,-136.512 1093.56,-121.724 1185,-100 1188.07,-99.2705 1191.22,-98.326 1194.32,-97.2661"/>
<polygon fill="midnightblue" stroke="midnightblue" points="1195.82,-100.441 1203.92,-93.6088 1193.33,-93.8995 1195.82,-100.441"/>
</g>
<!-- Node17&#45;&gt;Node3 -->
<g id="edge19" class="edge"><title>Node17&#45;&gt;Node3</title>
<path fill="none" stroke="midnightblue" d="M495.564,-248.444C540.316,-239.004 612.383,-223.802 660.695,-213.611"/>
<polygon fill="midnightblue" stroke="midnightblue" points="661.564,-217.005 670.626,-211.516 660.119,-210.156 661.564,-217.005"/>
</g>
<!-- Node18 -->
<g id="node18" class="node"><title>Node18</title>
<g id="a_node18"><a xlink:href="../../d6/d51/TPC_2base_2include_2TPCBase_2Constants_8h.html" target="_top" xlink:title="TPCBase/Constants.h">
<polygon fill="none" stroke="black" points="397,-192.5 397,-211.5 513,-211.5 513,-192.5 397,-192.5"/>
<text text-anchor="middle" x="455" y="-199.5" font-family="Helvetica,sans-Serif" font-size="10.00">TPCBase/Constants.h</text>
</a>
</g>
</g>
<!-- Node17&#45;&gt;Node18 -->
<g id="edge18" class="edge"><title>Node17&#45;&gt;Node18</title>
<path fill="none" stroke="midnightblue" d="M455,-248.083C455,-241.006 455,-230.861 455,-221.986"/>
<polygon fill="midnightblue" stroke="midnightblue" points="458.5,-221.751 455,-211.751 451.5,-221.751 458.5,-221.751"/>
</g>
<!-- Node19&#45;&gt;Node3 -->
<g id="edge26" class="edge"><title>Node19&#45;&gt;Node3</title>
<path fill="none" stroke="midnightblue" d="M700.687,-473.07C703.497,-472.694 706.282,-472.335 709,-472 791.649,-461.82 1017.47,-488.637 1082,-436 1105.42,-416.895 1102,-401.225 1102,-371 1102,-371 1102,-371 1102,-313 1102,-244.26 875.227,-216.422 767.086,-207.055"/>
<polygon fill="midnightblue" stroke="midnightblue" points="767.261,-203.557 757.002,-206.205 766.673,-210.533 767.261,-203.557"/>
</g>
<!-- Node19&#45;&gt;Node4 -->
<g id="edge25" class="edge"><title>Node19&#45;&gt;Node4</title>
<path fill="none" stroke="midnightblue" d="M700.685,-473.053C703.495,-472.681 706.281,-472.328 709,-472 796.509,-461.458 1030.17,-484.152 1104,-436 1131.66,-417.959 1140,-404.024 1140,-371 1140,-371 1140,-371 1140,-257 1140,-182.768 1031.76,-158.117 976.155,-150.351"/>
<polygon fill="midnightblue" stroke="midnightblue" points="976.469,-146.863 966.103,-149.052 975.571,-153.805 976.469,-146.863"/>
</g>
<!-- Node19&#45;&gt;Node17 -->
<g id="edge50" class="edge"><title>Node19&#45;&gt;Node17</title>
<path fill="none" stroke="midnightblue" d="M597.487,-481.279C518.378,-480.484 372.671,-473.774 340,-436 317.903,-410.452 326.071,-390.772 340,-360 358.213,-319.764 401.253,-289.2 429.204,-272.71"/>
<polygon fill="midnightblue" stroke="midnightblue" points="431.097,-275.659 438.047,-267.663 427.627,-269.58 431.097,-275.659"/>
</g>
<!-- Node20 -->
<g id="node20" class="node"><title>Node20</title>
<polygon fill="none" stroke="#bfbfbf" points="349.5,-416.5 349.5,-435.5 384.5,-435.5 384.5,-416.5 349.5,-416.5"/>
<text text-anchor="middle" x="367" y="-423.5" font-family="Helvetica,sans-Serif" font-size="10.00">map</text>
</g>
<!-- Node19&#45;&gt;Node20 -->
<g id="edge21" class="edge"><title>Node19&#45;&gt;Node20</title>
<path fill="none" stroke="midnightblue" d="M597.475,-473.21C546.722,-465.188 467.119,-451.672 399,-436 397.524,-435.66 396.014,-435.296 394.492,-434.915"/>
<polygon fill="midnightblue" stroke="midnightblue" points="395.091,-431.452 384.527,-432.257 393.287,-438.216 395.091,-431.452"/>
</g>
<!-- Node21 -->
<g id="node21" class="node"><title>Node21</title>
<polygon fill="none" stroke="#bfbfbf" points="878,-360.5 878,-379.5 922,-379.5 922,-360.5 878,-360.5"/>
<text text-anchor="middle" x="900" y="-367.5" font-family="Helvetica,sans-Serif" font-size="10.00">vector</text>
</g>
<!-- Node19&#45;&gt;Node21 -->
<g id="edge22" class="edge"><title>Node19&#45;&gt;Node21</title>
<path fill="none" stroke="midnightblue" d="M667.341,-472.391C703.715,-455.321 782.013,-418.6 788,-416 814.956,-404.293 845.991,-391.907 868.546,-383.1"/>
<polygon fill="midnightblue" stroke="midnightblue" points="869.909,-386.325 877.961,-379.439 867.372,-379.801 869.909,-386.325"/>
</g>
<!-- Node22 -->
<g id="node22" class="node"><title>Node22</title>
<polygon fill="none" stroke="#bfbfbf" points="441,-416.5 441,-435.5 479,-435.5 479,-416.5 441,-416.5"/>
<text text-anchor="middle" x="460" y="-423.5" font-family="Helvetica,sans-Serif" font-size="10.00">array</text>
</g>
<!-- Node19&#45;&gt;Node22 -->
<g id="edge23" class="edge"><title>Node19&#45;&gt;Node22</title>
<path fill="none" stroke="midnightblue" d="M617.126,-472.479C586.541,-464.218 538.833,-451.109 488.923,-436.199"/>
<polygon fill="midnightblue" stroke="midnightblue" points="489.833,-432.818 479.249,-433.295 487.82,-439.522 489.833,-432.818"/>
</g>
<!-- Node23 -->
<g id="node23" class="node"><title>Node23</title>
<polygon fill="none" stroke="#bfbfbf" points="497.5,-416.5 497.5,-435.5 538.5,-435.5 538.5,-416.5 497.5,-416.5"/>
<text text-anchor="middle" x="518" y="-423.5" font-family="Helvetica,sans-Serif" font-size="10.00">string</text>
</g>
<!-- Node19&#45;&gt;Node23 -->
<g id="edge24" class="edge"><title>Node19&#45;&gt;Node23</title>
<path fill="none" stroke="midnightblue" d="M628.243,-472.444C606.684,-463.557 572.737,-449.563 548.206,-439.451"/>
<polygon fill="midnightblue" stroke="midnightblue" points="549.239,-436.092 538.66,-435.516 546.572,-442.563 549.239,-436.092"/>
</g>
<!-- Node24 -->
<g id="node24" class="node"><title>Node24</title>
<g id="a_node24"><a xlink:href="../../de/d41/PadPos_8h.html" target="_top" xlink:title="TPCBase/PadPos.h">
<polygon fill="none" stroke="black" points="671.5,-304.5 671.5,-323.5 776.5,-323.5 776.5,-304.5 671.5,-304.5"/>
<text text-anchor="middle" x="724" y="-311.5" font-family="Helvetica,sans-Serif" font-size="10.00">TPCBase/PadPos.h</text>
</a>
</g>
</g>
<!-- Node19&#45;&gt;Node24 -->
<g id="edge27" class="edge"><title>Node19&#45;&gt;Node24</title>
<path fill="none" stroke="midnightblue" d="M665.448,-472.278C691.255,-457.444 739.877,-424.527 755,-380 760.871,-362.714 749.959,-344.001 739.5,-331.112"/>
<polygon fill="midnightblue" stroke="midnightblue" points="742.099,-328.767 732.873,-323.557 736.836,-333.383 742.099,-328.767"/>
</g>
<!-- Node25 -->
<g id="node25" class="node"><title>Node25</title>
<g id="a_node25"><a xlink:href="../../dd/d0b/PadSecPos_8h.html" target="_top" xlink:title="TPCBase/PadSecPos.h">
<polygon fill="none" stroke="black" points="349,-360.5 349,-379.5 471,-379.5 471,-360.5 349,-360.5"/>
<text text-anchor="middle" x="410" y="-367.5" font-family="Helvetica,sans-Serif" font-size="10.00">TPCBase/PadSecPos.h</text>
</a>
</g>
</g>
<!-- Node19&#45;&gt;Node25 -->
<g id="edge28" class="edge"><title>Node19&#45;&gt;Node25</title>
<path fill="none" stroke="midnightblue" d="M597.277,-476.185C541.073,-469.954 456.058,-457.291 432,-436 418.777,-424.297 413.491,-404.357 411.383,-389.64"/>
<polygon fill="midnightblue" stroke="midnightblue" points="414.856,-389.199 410.313,-379.628 407.896,-389.943 414.856,-389.199"/>
</g>
<!-- Node26 -->
<g id="node26" class="node"><title>Node26</title>
<g id="a_node26"><a xlink:href="../../da/d61/PadROCPos_8h.html" target="_top" xlink:title="TPCBase/PadROCPos.h">
<polygon fill="none" stroke="black" points="601,-360.5 601,-379.5 729,-379.5 729,-360.5 601,-360.5"/>
<text text-anchor="middle" x="665" y="-367.5" font-family="Helvetica,sans-Serif" font-size="10.00">TPCBase/PadROCPos.h</text>
</a>
</g>
</g>
<!-- Node19&#45;&gt;Node26 -->
<g id="edge31" class="edge"><title>Node19&#45;&gt;Node26</title>
<path fill="none" stroke="midnightblue" d="M629.119,-472.345C605.912,-460.926 572.338,-439.506 586,-416 594.736,-400.97 610.578,-390.543 625.795,-383.54"/>
<polygon fill="midnightblue" stroke="midnightblue" points="627.262,-386.72 635.119,-379.613 624.545,-380.269 627.262,-386.72"/>
</g>
<!-- Node27 -->
<g id="node27" class="node"><title>Node27</title>
<g id="a_node27"><a xlink:href="../../d3/d54/DigitPos_8h.html" target="_top" xlink:title="TPCBase/DigitPos.h">
<polygon fill="none" stroke="black" points="595,-416.5 595,-435.5 703,-435.5 703,-416.5 595,-416.5"/>
<text text-anchor="middle" x="649" y="-423.5" font-family="Helvetica,sans-Serif" font-size="10.00">TPCBase/DigitPos.h</text>
</a>
</g>
</g>
<!-- Node19&#45;&gt;Node27 -->
<g id="edge35" class="edge"><title>Node19&#45;&gt;Node27</title>
<path fill="none" stroke="midnightblue" d="M649,-472.083C649,-465.006 649,-454.861 649,-445.986"/>
<polygon fill="midnightblue" stroke="midnightblue" points="652.5,-445.751 649,-435.751 645.5,-445.751 652.5,-445.751"/>
</g>
<!-- Node29 -->
<g id="node29" class="node"><title>Node29</title>
<g id="a_node29"><a xlink:href="../../d1/d1f/FECInfo_8h.html" target="_top" xlink:title="TPCBase/FECInfo.h">
<polygon fill="none" stroke="black" points="1168.5,-248.5 1168.5,-267.5 1275.5,-267.5 1275.5,-248.5 1168.5,-248.5"/>
<text text-anchor="middle" x="1222" y="-255.5" font-family="Helvetica,sans-Serif" font-size="10.00">TPCBase/FECInfo.h</text>
</a>
</g>
</g>
<!-- Node19&#45;&gt;Node29 -->
<g id="edge43" class="edge"><title>Node19&#45;&gt;Node29</title>
<path fill="none" stroke="midnightblue" d="M700.681,-473.019C703.493,-472.657 706.279,-472.314 709,-472 758.279,-466.317 1114.28,-465.718 1154,-436 1205.36,-397.574 1217.93,-315.107 1221,-277.899"/>
<polygon fill="midnightblue" stroke="midnightblue" points="1224.5,-278.118 1221.69,-267.903 1217.51,-277.642 1224.5,-278.118"/>
</g>
<!-- Node30 -->
<g id="node30" class="node"><title>Node30</title>
<g id="a_node30"><a xlink:href="../../da/d9d/PadRegionInfo_8h.html" target="_top" xlink:title="TPCBase/PadRegionInfo.h">
<polygon fill="none" stroke="black" points="938.5,-416.5 938.5,-435.5 1073.5,-435.5 1073.5,-416.5 938.5,-416.5"/>
<text text-anchor="middle" x="1006" y="-423.5" font-family="Helvetica,sans-Serif" font-size="10.00">TPCBase/PadRegionInfo.h</text>
</a>
</g>
</g>
<!-- Node19&#45;&gt;Node30 -->
<g id="edge45" class="edge"><title>Node19&#45;&gt;Node30</title>
<path fill="none" stroke="midnightblue" d="M700.53,-473.206C763.656,-463.657 870.71,-447.464 939.857,-437.005"/>
<polygon fill="midnightblue" stroke="midnightblue" points="940.411,-440.461 949.775,-435.505 939.364,-433.54 940.411,-440.461"/>
</g>
<!-- Node31 -->
<g id="node31" class="node"><title>Node31</title>
<g id="a_node31"><a xlink:href="../../d6/d42/PartitionInfo_8h.html" target="_top" xlink:title="TPCBase/PartitionInfo.h">
<polygon fill="none" stroke="black" points="797.5,-416.5 797.5,-435.5 920.5,-435.5 920.5,-416.5 797.5,-416.5"/>
<text text-anchor="middle" x="859" y="-423.5" font-family="Helvetica,sans-Serif" font-size="10.00">TPCBase/PartitionInfo.h</text>
</a>
</g>
</g>
<!-- Node19&#45;&gt;Node31 -->
<g id="edge49" class="edge"><title>Node19&#45;&gt;Node31</title>
<path fill="none" stroke="midnightblue" d="M682.275,-472.444C718.448,-463.142 776.377,-448.246 815.981,-438.062"/>
<polygon fill="midnightblue" stroke="midnightblue" points="817.067,-441.397 825.881,-435.516 815.324,-434.617 817.067,-441.397"/>
</g>
<!-- Node25&#45;&gt;Node17 -->
<g id="edge29" class="edge"><title>Node25&#45;&gt;Node17</title>
<path fill="none" stroke="midnightblue" d="M413.531,-360.368C420.859,-342.456 437.85,-300.923 447.658,-276.948"/>
<polygon fill="midnightblue" stroke="midnightblue" points="450.938,-278.172 451.485,-267.591 444.46,-275.522 450.938,-278.172"/>
</g>
<!-- Node25&#45;&gt;Node24 -->
<g id="edge30" class="edge"><title>Node25&#45;&gt;Node24</title>
<path fill="none" stroke="midnightblue" d="M459.754,-360.444C515.335,-350.885 605.264,-335.419 664.516,-325.23"/>
<polygon fill="midnightblue" stroke="midnightblue" points="665.216,-328.661 674.479,-323.516 664.03,-321.762 665.216,-328.661"/>
</g>
<!-- Node26&#45;&gt;Node2 -->
<g id="edge33" class="edge"><title>Node26&#45;&gt;Node2</title>
<path fill="none" stroke="midnightblue" d="M643.609,-360.444C621.293,-351.517 586.097,-337.439 560.792,-327.317"/>
<polygon fill="midnightblue" stroke="midnightblue" points="561.876,-323.981 551.291,-323.516 559.276,-330.48 561.876,-323.981"/>
</g>
<!-- Node26&#45;&gt;Node3 -->
<g id="edge32" class="edge"><title>Node26&#45;&gt;Node3</title>
<path fill="none" stroke="midnightblue" d="M663.16,-360.455C660.78,-347.902 657.447,-323.818 662,-304 669.206,-272.639 687.499,-239.719 699.58,-220.296"/>
<polygon fill="midnightblue" stroke="midnightblue" points="702.651,-221.99 705.088,-211.679 696.753,-218.22 702.651,-221.99"/>
</g>
<!-- Node26&#45;&gt;Node24 -->
<g id="edge34" class="edge"><title>Node26&#45;&gt;Node24</title>
<path fill="none" stroke="midnightblue" d="M674.479,-360.324C683.201,-352.341 696.343,-340.313 706.898,-330.653"/>
<polygon fill="midnightblue" stroke="midnightblue" points="709.334,-333.167 714.348,-323.834 704.608,-328.004 709.334,-333.167"/>
</g>
<!-- Node27&#45;&gt;Node3 -->
<g id="edge36" class="edge"><title>Node27&#45;&gt;Node3</title>
<path fill="none" stroke="midnightblue" d="M684.8,-416.392C707.105,-409.551 735.221,-398.069 755,-380 775.847,-360.956 778.127,-351.386 785,-324 795.663,-281.514 755.775,-239.647 730.441,-218.054"/>
<polygon fill="midnightblue" stroke="midnightblue" points="732.452,-215.176 722.502,-211.537 728.011,-220.587 732.452,-215.176"/>
</g>
<!-- Node27&#45;&gt;Node24 -->
<g id="edge41" class="edge"><title>Node27&#45;&gt;Node24</title>
<path fill="none" stroke="midnightblue" d="M685.702,-416.349C704.834,-409.775 726.572,-398.583 738,-380 746.856,-365.599 740.997,-346.402 734.362,-332.61"/>
<polygon fill="midnightblue" stroke="midnightblue" points="737.386,-330.844 729.592,-323.668 731.21,-334.138 737.386,-330.844"/>
</g>
<!-- Node27&#45;&gt;Node25 -->
<g id="edge42" class="edge"><title>Node27&#45;&gt;Node25</title>
<path fill="none" stroke="midnightblue" d="M611.13,-416.444C569.524,-407.043 502.631,-391.929 457.531,-381.739"/>
<polygon fill="midnightblue" stroke="midnightblue" points="458.219,-378.306 447.693,-379.516 456.676,-385.134 458.219,-378.306"/>
</g>
<!-- Node28 -->
<g id="node28" class="node"><title>Node28</title>
<g id="a_node28"><a xlink:href="../../df/d26/CRU_8h.html" target="_top" xlink:title="TPCBase/CRU.h">
<polygon fill="none" stroke="black" points="489.5,-360.5 489.5,-379.5 582.5,-379.5 582.5,-360.5 489.5,-360.5"/>
<text text-anchor="middle" x="536" y="-367.5" font-family="Helvetica,sans-Serif" font-size="10.00">TPCBase/CRU.h</text>
</a>
</g>
</g>
<!-- Node27&#45;&gt;Node28 -->
<g id="edge37" class="edge"><title>Node27&#45;&gt;Node28</title>
<path fill="none" stroke="midnightblue" d="M631.095,-416.444C612.746,-407.675 583.995,-393.935 562.906,-383.858"/>
<polygon fill="midnightblue" stroke="midnightblue" points="564.353,-380.67 553.821,-379.516 561.335,-386.986 564.353,-380.67"/>
</g>
<!-- Node28&#45;&gt;Node2 -->
<g id="edge40" class="edge"><title>Node28&#45;&gt;Node2</title>
<path fill="none" stroke="midnightblue" d="M535.009,-360.083C534.214,-352.927 533.071,-342.635 532.077,-333.691"/>
<polygon fill="midnightblue" stroke="midnightblue" points="535.555,-333.303 530.972,-323.751 528.598,-334.076 535.555,-333.303"/>
</g>
<!-- Node28&#45;&gt;Node3 -->
<g id="edge38" class="edge"><title>Node28&#45;&gt;Node3</title>
<path fill="none" stroke="midnightblue" d="M545.451,-360.435C555.361,-351.427 571.361,-336.809 585,-324 624.923,-286.507 671.22,-241.699 695.033,-218.554"/>
<polygon fill="midnightblue" stroke="midnightblue" points="697.477,-221.059 702.205,-211.577 692.596,-216.041 697.477,-221.059"/>
</g>
<!-- Node28&#45;&gt;Node17 -->
<g id="edge39" class="edge"><title>Node28&#45;&gt;Node17</title>
<path fill="none" stroke="midnightblue" d="M518.542,-360.479C504.543,-352.788 485.412,-340.201 474,-324 464.373,-310.333 459.579,-291.796 457.219,-278.015"/>
<polygon fill="midnightblue" stroke="midnightblue" points="460.634,-277.174 455.756,-267.769 453.704,-278.163 460.634,-277.174"/>
</g>
<!-- Node29&#45;&gt;Node16 -->
<g id="edge44" class="edge"><title>Node29&#45;&gt;Node16</title>
<path fill="none" stroke="midnightblue" d="M1222,-248.234C1222,-221.548 1222,-140.877 1222,-103.893"/>
<polygon fill="midnightblue" stroke="midnightblue" points="1225.5,-103.544 1222,-93.5442 1218.5,-103.544 1225.5,-103.544"/>
</g>
<!-- Node30&#45;&gt;Node3 -->
<g id="edge47" class="edge"><title>Node30&#45;&gt;Node3</title>
<path fill="none" stroke="midnightblue" d="M1001.12,-416.198C993.431,-402.89 977.465,-377.36 959,-360 888.838,-294.037 787.117,-239.906 738.666,-216.084"/>
<polygon fill="midnightblue" stroke="midnightblue" points="739.962,-212.823 729.438,-211.598 736.901,-219.118 739.962,-212.823"/>
</g>
<!-- Node30&#45;&gt;Node21 -->
<g id="edge46" class="edge"><title>Node30&#45;&gt;Node21</title>
<path fill="none" stroke="midnightblue" d="M988.969,-416.324C971.97,-407.664 945.624,-394.242 926.007,-384.249"/>
<polygon fill="midnightblue" stroke="midnightblue" points="927.488,-381.075 916.988,-379.655 924.31,-387.312 927.488,-381.075"/>
</g>
<!-- Node30&#45;&gt;Node24 -->
<g id="edge48" class="edge"><title>Node30&#45;&gt;Node24</title>
<path fill="none" stroke="midnightblue" d="M998.547,-416.302C985.934,-402.174 958.918,-374.374 930,-360 885.029,-337.646 829.098,-326.327 786.868,-320.636"/>
<polygon fill="midnightblue" stroke="midnightblue" points="787.079,-317.135 776.716,-319.34 786.192,-324.079 787.079,-317.135"/>
</g>
</g>
</svg>
        <g id="navigator" transform="translate(0 0)" fill="#404254">
                <rect fill="#f2f5e9" fill-opacity="0.5" stroke="#606060" stroke-width=".5" x="0" y="0" width="60" height="60"/>
                <use id="zoomplus" xlink:href="#zoomPlus" x="17" y="9" onmousedown="handleZoom(evt,'in')"/>
                <use id="zoomminus" xlink:href="#zoomMin" x="42" y="9" onmousedown="handleZoom(evt,'out')"/>
                <use id="reset" xlink:href="#resetDef" x="30" y="36" onmousedown="handleReset()"/>
                <g id="arrowUp" xlink:href="#dirArrow" transform="translate(30 24)" onmousedown="handlePan(0,-1)">
                  <use xlink:href="#rim" fill="#404040">
                        <set attributeName="fill" to="#808080" begin="arrowUp.mouseover" end="arrowUp.mouseout"/>
                  </use>
                  <path fill="none" stroke="white" stroke-width="1.5" d="M0,-3.0v7 M-2.5,-0.5L0,-3.0L2.5,-0.5"/>
                </g>
                <g id="arrowRight" xlink:href="#dirArrow" transform="rotate(90) translate(36 -43)" onmousedown="handlePan(1,0)">
                  <use xlink:href="#rim" fill="#404040">
                        <set attributeName="fill" to="#808080" begin="arrowRight.mouseover" end="arrowRight.mouseout"/>
                  </use>
                  <path fill="none" stroke="white" stroke-width="1.5" d="M0,-3.0v7 M-2.5,-0.5L0,-3.0L2.5,-0.5"/>
                </g>
                <g id="arrowDown" xlink:href="#dirArrow" transform="rotate(180) translate(-30 -48)" onmousedown="handlePan(0,1)">
                  <use xlink:href="#rim" fill="#404040">
                        <set attributeName="fill" to="#808080" begin="arrowDown.mouseover" end="arrowDown.mouseout"/>
                  </use>
                  <path fill="none" stroke="white" stroke-width="1.5" d="M0,-3.0v7 M-2.5,-0.5L0,-3.0L2.5,-0.5"/>
                </g>
                <g id="arrowLeft" xlink:href="#dirArrow" transform="rotate(270) translate(-36 17)" onmousedown="handlePan(-1,0)">
                  <use xlink:href="#rim" fill="#404040">
                        <set attributeName="fill" to="#808080" begin="arrowLeft.mouseover" end="arrowLeft.mouseout"/>
                  </use>
                  <path fill="none" stroke="white" stroke-width="1.5" d="M0,-3.0v7 M-2.5,-0.5L0,-3.0L2.5,-0.5"/>
                </g>
        </g>
        <svg viewBox="0 0 15 15" width="100%" height="30px" preserveAspectRatio="xMaxYMin meet">
         <g id="arrow_out" transform="scale(0.3 0.3)">
          <a xlink:href="CommonModeContainer_8h__incl_org.svg" target="_base">
           <rect id="button" ry="5" rx="5" y="6" x="6" height="38" width="38"
                fill="#f2f5e9" fill-opacity="0.5" stroke="#606060" stroke-width="1.0"/>
           <path id="arrow"
             d="M 11.500037,31.436501 C 11.940474,20.09759 22.043105,11.32322 32.158766,21.979434 L 37.068811,17.246167 C 37.068811,17.246167 37.088388,32 37.088388,32 L 22.160133,31.978069 C 22.160133,31.978069 26.997745,27.140456 26.997745,27.140456 C 18.528582,18.264221 13.291696,25.230495 11.500037,31.436501 z"
             style="fill:#404040;"/>
          </a>
         </g>
        </svg>
</svg>
