<?xml version="1.0" encoding="UTF-8" standalone="no"?>
<!DOCTYPE svg PUBLIC "-//W3C//DTD SVG 1.1//EN"
 "http://www.w3.org/Graphics/SVG/1.1/DTD/svg11.dtd">
<!-- Generated by graphviz version 2.36.0 (20140111.2315)
 -->
<!-- Title: /home/travis/build/AliceO2Group/AliceO2/Detectors/TPC/reconstruction/macro/convertTracks.C Pages: 1 -->
<!--zoomable 490 -->
<svg id="main" version="1.1" xmlns="http://www.w3.org/2000/svg" xmlns:xlink="http://www.w3.org/1999/xlink" xml:space="preserve" onload="init(evt)">
<style type="text/css"><![CDATA[
.edge:hover path { stroke: red; }
.edge:hover polygon { stroke: red; fill: red; }
]]></style>
<script type="text/javascript"><![CDATA[
var edges = document.getElementsByTagName('g');
if (edges && edges.length) {
  for (var i=0;i<edges.length;i++) {
    if (edges[i].id.substr(0,4)=='edge') {
      edges[i].setAttribute('class','edge');
    }
  }
}
]]></script>
        <defs>
                <circle id="rim" cx="0" cy="0" r="7"/>
                <circle id="rim2" cx="0" cy="0" r="3.5"/>
                <g id="zoomPlus">
                        <use xlink:href="#rim" fill="#404040">
                                <set attributeName="fill" to="#808080" begin="zoomplus.mouseover" end="zoomplus.mouseout"/>
                        </use>
                        <path d="M-4,0h8M0,-4v8" fill="none" stroke="white" stroke-width="1.5" pointer-events="none"/>
                </g>
                <g id="zoomMin">
                        <use xlink:href="#rim" fill="#404040">
                                <set attributeName="fill" to="#808080" begin="zoomminus.mouseover" end="zoomminus.mouseout"/>
                        </use>
                        <path d="M-4,0h8" fill="none" stroke="white" stroke-width="1.5" pointer-events="none"/>
                </g>
                <g id="dirArrow">
                        <path fill="none" stroke="white" stroke-width="1.5" d="M0,-3.0v7 M-2.5,-0.5L0,-3.0L2.5,-0.5"/>
                </g>
               <g id="resetDef">
                       <use xlink:href="#rim2" fill="#404040">
                               <set attributeName="fill" to="#808080" begin="reset.mouseover" end="reset.mouseout"/>
                       </use>
               </g>
        </defs>

<script type="text/javascript">
var viewWidth = 1914;
var viewHeight = 490;
var sectionId = 'dynsection-0';
</script>
<script xlink:href="../../svgpan.js"/>
<svg id="graph" class="graph">
<g id="viewport">
<title>/home/travis/build/AliceO2Group/AliceO2/Detectors/TPC/reconstruction/macro/convertTracks.C</title>
<!-- Node1 -->
<g id="node1" class="node"><title>Node1</title>
<polygon fill="#bfbfbf" stroke="black" points="1418,-429 1418,-481 1568,-481 1568,-429 1418,-429"/>
<text text-anchor="start" x="1426" y="-469" font-family="Helvetica,sans-Serif" font-size="10.00">/home/travis/build</text>
<text text-anchor="start" x="1426" y="-458" font-family="Helvetica,sans-Serif" font-size="10.00">/AliceO2Group/AliceO2</text>
<text text-anchor="start" x="1426" y="-447" font-family="Helvetica,sans-Serif" font-size="10.00">/Detectors/TPC/reconstruction</text>
<text text-anchor="middle" x="1493" y="-436" font-family="Helvetica,sans-Serif" font-size="10.00">/macro/convertTracks.C</text>
</g>
<!-- Node2 -->
<g id="node2" class="node"><title>Node2</title>
<polygon fill="none" stroke="#bfbfbf" points="1138,-136.5 1138,-155.5 1182,-155.5 1182,-136.5 1138,-136.5"/>
<text text-anchor="middle" x="1160" y="-143.5" font-family="Helvetica,sans-Serif" font-size="10.00">vector</text>
</g>
<!-- Node1&#45;&gt;Node2 -->
<g id="edge1" class="edge"><title>Node1&#45;&gt;Node2</title>
<path fill="none" stroke="midnightblue" d="M1417.82,-449.564C1358.19,-443.308 1274.44,-428.246 1210,-392 1175.2,-372.429 1148,-366.923 1148,-327 1148,-327 1148,-327 1148,-263 1148,-228.533 1153.31,-188.61 1156.86,-165.729"/>
<polygon fill="midnightblue" stroke="midnightblue" points="1160.34,-166.129 1158.48,-155.699 1153.43,-165.014 1160.34,-166.129"/>
</g>
<!-- Node3 -->
<g id="node3" class="node"><title>Node3</title>
<polygon fill="none" stroke="#bfbfbf" points="1468,-372.5 1468,-391.5 1518,-391.5 1518,-372.5 1468,-372.5"/>
<text text-anchor="middle" x="1493" y="-379.5" font-family="Helvetica,sans-Serif" font-size="10.00">fstream</text>
</g>
<!-- Node1&#45;&gt;Node3 -->
<g id="edge2" class="edge"><title>Node1&#45;&gt;Node3</title>
<path fill="none" stroke="midnightblue" d="M1493,-428.768C1493,-419.89 1493,-410.074 1493,-401.816"/>
<polygon fill="midnightblue" stroke="midnightblue" points="1496.5,-401.757 1493,-391.757 1489.5,-401.757 1496.5,-401.757"/>
</g>
<!-- Node4 -->
<g id="node4" class="node"><title>Node4</title>
<polygon fill="none" stroke="#bfbfbf" points="620,-74.5 620,-93.5 674,-93.5 674,-74.5 620,-74.5"/>
<text text-anchor="middle" x="647" y="-81.5" font-family="Helvetica,sans-Serif" font-size="10.00">iostream</text>
</g>
<!-- Node1&#45;&gt;Node4 -->
<g id="edge3" class="edge"><title>Node1&#45;&gt;Node4</title>
<path fill="none" stroke="midnightblue" d="M1417.77,-443.549C1353.96,-433.232 1268.91,-415.586 1244,-392 1222.05,-371.217 1224,-357.225 1224,-327 1224,-327 1224,-327 1224,-263 1224,-204.568 1235.06,-173.197 1190,-136 1146.45,-100.049 737.951,-113.031 683,-100 680,-99.2887 676.929,-98.3559 673.906,-97.3029"/>
<polygon fill="midnightblue" stroke="midnightblue" points="675.151,-94.0318 664.563,-93.6537 672.605,-100.552 675.151,-94.0318"/>
</g>
<!-- Node5 -->
<g id="node5" class="node"><title>Node5</title>
<polygon fill="none" stroke="#bfbfbf" points="1536.5,-372.5 1536.5,-391.5 1595.5,-391.5 1595.5,-372.5 1536.5,-372.5"/>
<text text-anchor="middle" x="1566" y="-379.5" font-family="Helvetica,sans-Serif" font-size="10.00">TROOT.h</text>
</g>
<!-- Node1&#45;&gt;Node5 -->
<g id="edge4" class="edge"><title>Node1&#45;&gt;Node5</title>
<path fill="none" stroke="midnightblue" d="M1518.94,-428.768C1529.21,-418.78 1540.7,-407.605 1549.76,-398.798"/>
<polygon fill="midnightblue" stroke="midnightblue" points="1552.27,-401.238 1557,-391.757 1547.39,-396.22 1552.27,-401.238"/>
</g>
<!-- Node6 -->
<g id="node6" class="node"><title>Node6</title>
<polygon fill="none" stroke="#bfbfbf" points="1613.5,-372.5 1613.5,-391.5 1660.5,-391.5 1660.5,-372.5 1613.5,-372.5"/>
<text text-anchor="middle" x="1637" y="-379.5" font-family="Helvetica,sans-Serif" font-size="10.00">TFile.h</text>
</g>
<!-- Node1&#45;&gt;Node6 -->
<g id="edge5" class="edge"><title>Node1&#45;&gt;Node6</title>
<path fill="none" stroke="midnightblue" d="M1543.77,-428.968C1566.25,-417.885 1591.76,-405.306 1610.41,-396.112"/>
<polygon fill="midnightblue" stroke="midnightblue" points="1612.06,-399.2 1619.48,-391.639 1608.96,-392.922 1612.06,-399.2"/>
</g>
<!-- Node7 -->
<g id="node7" class="node"><title>Node7</title>
<polygon fill="none" stroke="#bfbfbf" points="1679,-372.5 1679,-391.5 1729,-391.5 1729,-372.5 1679,-372.5"/>
<text text-anchor="middle" x="1704" y="-379.5" font-family="Helvetica,sans-Serif" font-size="10.00">TTree.h</text>
</g>
<!-- Node1&#45;&gt;Node7 -->
<g id="edge6" class="edge"><title>Node1&#45;&gt;Node7</title>
<path fill="none" stroke="midnightblue" d="M1567.39,-428.968C1602.05,-417.305 1641.63,-403.987 1669.23,-394.699"/>
<polygon fill="midnightblue" stroke="midnightblue" points="1670.47,-397.976 1678.83,-391.47 1668.24,-391.342 1670.47,-397.976"/>
</g>
<!-- Node8 -->
<g id="node8" class="node"><title>Node8</title>
<polygon fill="none" stroke="#bfbfbf" points="1747,-372.5 1747,-391.5 1803,-391.5 1803,-372.5 1747,-372.5"/>
<text text-anchor="middle" x="1775" y="-379.5" font-family="Helvetica,sans-Serif" font-size="10.00">TChain.h</text>
</g>
<!-- Node1&#45;&gt;Node8 -->
<g id="edge7" class="edge"><title>Node1&#45;&gt;Node8</title>
<path fill="none" stroke="midnightblue" d="M1568.2,-435.067C1622.58,-421.376 1693.79,-403.447 1736.88,-392.599"/>
<polygon fill="midnightblue" stroke="midnightblue" points="1737.83,-395.967 1746.67,-390.132 1736.12,-389.179 1737.83,-395.967"/>
</g>
<!-- Node9 -->
<g id="node9" class="node"><title>Node9</title>
<polygon fill="none" stroke="#bfbfbf" points="1821.5,-372.5 1821.5,-391.5 1906.5,-391.5 1906.5,-372.5 1821.5,-372.5"/>
<text text-anchor="middle" x="1864" y="-379.5" font-family="Helvetica,sans-Serif" font-size="10.00">TClonesArray.h</text>
</g>
<!-- Node1&#45;&gt;Node9 -->
<g id="edge8" class="edge"><title>Node1&#45;&gt;Node9</title>
<path fill="none" stroke="midnightblue" d="M1568.08,-439.632C1640.28,-425.814 1747.58,-405.28 1811.19,-393.106"/>
<polygon fill="midnightblue" stroke="midnightblue" points="1812.23,-396.471 1821.4,-391.153 1810.92,-389.595 1812.23,-396.471"/>
</g>
<!-- Node10 -->
<g id="node10" class="node"><title>Node10</title>
<g id="a_node10"><a xlink:href="../../d5/dc9/TrackTPC_8h.html" target="_top" xlink:title="TPCReconstruction/TrackTPC.h">
<polygon fill="none" stroke="black" points="1253.5,-372.5 1253.5,-391.5 1412.5,-391.5 1412.5,-372.5 1253.5,-372.5"/>
<text text-anchor="middle" x="1333" y="-379.5" font-family="Helvetica,sans-Serif" font-size="10.00">TPCReconstruction/TrackTPC.h</text>
</a>
</g>
</g>
<!-- Node1&#45;&gt;Node10 -->
<g id="edge9" class="edge"><title>Node1&#45;&gt;Node10</title>
<path fill="none" stroke="midnightblue" d="M1436.59,-428.968C1411.27,-417.732 1382.49,-404.96 1361.7,-395.735"/>
<polygon fill="midnightblue" stroke="midnightblue" points="1363.03,-392.496 1352.47,-391.639 1360.19,-398.894 1363.03,-392.496"/>
</g>
<!-- Node11 -->
<g id="node11" class="node"><title>Node11</title>
<g id="a_node11"><a xlink:href="../../d7/d65/Detectors_2Base_2include_2DetectorsBase_2Track_8h.html" target="_top" xlink:title="DetectorsBase/Track.h">
<polygon fill="none" stroke="black" points="713,-316.5 713,-335.5 831,-335.5 831,-316.5 713,-316.5"/>
<text text-anchor="middle" x="772" y="-323.5" font-family="Helvetica,sans-Serif" font-size="10.00">DetectorsBase/Track.h</text>
</a>
</g>
</g>
<!-- Node1&#45;&gt;Node11 -->
<g id="edge68" class="edge"><title>Node1&#45;&gt;Node11</title>
<path fill="none" stroke="midnightblue" d="M1417.68,-441.142C1345.02,-428.703 1231.95,-409.252 1134,-392 1026.11,-372.998 900.249,-350.272 828.956,-337.348"/>
<polygon fill="midnightblue" stroke="midnightblue" points="829.307,-333.854 818.842,-335.514 828.057,-340.742 829.307,-333.854"/>
</g>
<!-- Node44 -->
<g id="node44" class="node"><title>Node44</title>
<g id="a_node44"><a xlink:href="../../d6/d6f/TPC_2reconstruction_2include_2TPCReconstruction_2Cluster_8h.html" target="_top" xlink:title="TPCReconstruction/Cluster.h">
<polygon fill="none" stroke="black" points="1533,-316.5 1533,-335.5 1679,-335.5 1679,-316.5 1533,-316.5"/>
<text text-anchor="middle" x="1606" y="-323.5" font-family="Helvetica,sans-Serif" font-size="10.00">TPCReconstruction/Cluster.h</text>
</a>
</g>
</g>
<!-- Node1&#45;&gt;Node44 -->
<g id="edge69" class="edge"><title>Node1&#45;&gt;Node44</title>
<path fill="none" stroke="midnightblue" d="M1469.93,-428.693C1457.22,-411.591 1446.35,-389.098 1459,-372 1469.84,-357.339 1511,-345.508 1547.01,-337.663"/>
<polygon fill="midnightblue" stroke="midnightblue" points="1547.94,-341.044 1557,-335.556 1546.5,-334.194 1547.94,-341.044"/>
</g>
<!-- Node10&#45;&gt;Node11 -->
<g id="edge10" class="edge"><title>Node10&#45;&gt;Node11</title>
<path fill="none" stroke="midnightblue" d="M1253.22,-373.32C1143,-362.711 945.94,-343.743 841.464,-333.686"/>
<polygon fill="midnightblue" stroke="midnightblue" points="841.631,-330.186 831.342,-332.712 840.96,-337.154 841.631,-330.186"/>
</g>
<!-- Node43 -->
<g id="node43" class="node"><title>Node43</title>
<g id="a_node43"><a xlink:href="../../d1/d73/Defs_8h.html" target="_top" xlink:title="Common definitions for 2D coordinates. ">
<polygon fill="none" stroke="black" points="1524,-192.5 1524,-211.5 1616,-211.5 1616,-192.5 1524,-192.5"/>
<text text-anchor="middle" x="1570" y="-199.5" font-family="Helvetica,sans-Serif" font-size="10.00">TPCBase/Defs.h</text>
</a>
</g>
</g>
<!-- Node10&#45;&gt;Node43 -->
<g id="edge58" class="edge"><title>Node10&#45;&gt;Node43</title>
<path fill="none" stroke="midnightblue" d="M1355.42,-372.356C1374.91,-364.339 1403.47,-351.353 1426,-336 1478.27,-300.376 1530.56,-246.364 1555.27,-219.449"/>
<polygon fill="midnightblue" stroke="midnightblue" points="1558.16,-221.476 1562.3,-211.721 1552.98,-216.769 1558.16,-221.476"/>
</g>
<!-- Node10&#45;&gt;Node44 -->
<g id="edge62" class="edge"><title>Node10&#45;&gt;Node44</title>
<path fill="none" stroke="midnightblue" d="M1376.26,-372.444C1424.18,-362.964 1501.48,-347.675 1553,-337.483"/>
<polygon fill="midnightblue" stroke="midnightblue" points="1553.81,-340.89 1562.94,-335.516 1552.46,-334.023 1553.81,-340.89"/>
</g>
<!-- Node47 -->
<g id="node47" class="node"><title>Node47</title>
<g id="a_node47"><a xlink:href="../../de/dcd/ClusterNative_8h.html" target="_top" xlink:title="Class of a TPC cluster in TPC&#45;native coordinates (row, time) ">
<polygon fill="none" stroke="black" points="1252.5,-316.5 1252.5,-335.5 1417.5,-335.5 1417.5,-316.5 1252.5,-316.5"/>
<text text-anchor="middle" x="1335" y="-323.5" font-family="Helvetica,sans-Serif" font-size="10.00">DataFormatsTPC/ClusterNative.h</text>
</a>
</g>
</g>
<!-- Node10&#45;&gt;Node47 -->
<g id="edge65" class="edge"><title>Node10&#45;&gt;Node47</title>
<path fill="none" stroke="midnightblue" d="M1333.33,-372.083C1333.59,-365.006 1333.97,-354.861 1334.3,-345.986"/>
<polygon fill="midnightblue" stroke="midnightblue" points="1337.8,-345.874 1334.68,-335.751 1330.81,-345.615 1337.8,-345.874"/>
</g>
<!-- Node11&#45;&gt;Node4 -->
<g id="edge17" class="edge"><title>Node11&#45;&gt;Node4</title>
<path fill="none" stroke="midnightblue" d="M831.084,-325.472C913.648,-324.725 1057.14,-317.836 1090,-280 1099.33,-269.262 1093.17,-261.865 1090,-248 1076.49,-188.864 1066.07,-163.501 1012,-136 880.891,-69.3117 825.453,-136.661 683,-100 680.014,-99.2316 676.952,-98.2621 673.935,-97.1873"/>
<polygon fill="midnightblue" stroke="midnightblue" points="675.185,-93.9182 664.598,-93.5123 672.622,-100.432 675.185,-93.9182"/>
</g>
<!-- Node12 -->
<g id="node12" class="node"><title>Node12</title>
<polygon fill="none" stroke="#bfbfbf" points="546,-74.5 546,-93.5 602,-93.5 602,-74.5 546,-74.5"/>
<text text-anchor="middle" x="574" y="-81.5" font-family="Helvetica,sans-Serif" font-size="10.00">Rtypes.h</text>
</g>
<!-- Node11&#45;&gt;Node12 -->
<g id="edge11" class="edge"><title>Node11&#45;&gt;Node12</title>
<path fill="none" stroke="midnightblue" d="M712.934,-322.777C647.096,-318.911 546.729,-308.402 523,-280 478.325,-226.527 534.005,-138.261 560.951,-101.68"/>
<polygon fill="midnightblue" stroke="midnightblue" points="563.863,-103.633 567.104,-93.5461 558.28,-99.4098 563.863,-103.633"/>
</g>
<!-- Node13 -->
<g id="node13" class="node"><title>Node13</title>
<polygon fill="none" stroke="#bfbfbf" points="532,-254.5 532,-273.5 588,-273.5 588,-254.5 532,-254.5"/>
<text text-anchor="middle" x="560" y="-261.5" font-family="Helvetica,sans-Serif" font-size="10.00">algorithm</text>
</g>
<!-- Node11&#45;&gt;Node13 -->
<g id="edge12" class="edge"><title>Node11&#45;&gt;Node13</title>
<path fill="none" stroke="midnightblue" d="M732.645,-316.464C696.891,-308.337 642.882,-295.125 597,-280 594.435,-279.154 591.793,-278.219 589.158,-277.24"/>
<polygon fill="midnightblue" stroke="midnightblue" points="590.377,-273.959 579.789,-273.59 587.836,-280.481 590.377,-273.959"/>
</g>
<!-- Node14 -->
<g id="node14" class="node"><title>Node14</title>
<polygon fill="none" stroke="#bfbfbf" points="68,-6.5 68,-25.5 106,-25.5 106,-6.5 68,-6.5"/>
<text text-anchor="middle" x="87" y="-13.5" font-family="Helvetica,sans-Serif" font-size="10.00">array</text>
</g>
<!-- Node11&#45;&gt;Node14 -->
<g id="edge13" class="edge"><title>Node11&#45;&gt;Node14</title>
<path fill="none" stroke="midnightblue" d="M712.704,-321.874C531.931,-311.56 0,-275.086 0,-203 0,-203 0,-203 0,-145 0,-97.2019 42.0093,-54.0254 67.6446,-32.1276"/>
<polygon fill="midnightblue" stroke="midnightblue" points="70.1409,-34.6055 75.6263,-25.5412 65.6856,-29.2064 70.1409,-34.6055"/>
</g>
<!-- Node15 -->
<g id="node15" class="node"><title>Node15</title>
<polygon fill="none" stroke="#bfbfbf" points="606.5,-254.5 606.5,-273.5 647.5,-273.5 647.5,-254.5 606.5,-254.5"/>
<text text-anchor="middle" x="627" y="-261.5" font-family="Helvetica,sans-Serif" font-size="10.00">cfloat</text>
</g>
<!-- Node11&#45;&gt;Node15 -->
<g id="edge14" class="edge"><title>Node11&#45;&gt;Node15</title>
<path fill="none" stroke="midnightblue" d="M748.397,-316.478C724.967,-307.853 688.149,-293.848 657,-280 655.603,-279.379 654.177,-278.728 652.743,-278.059"/>
<polygon fill="midnightblue" stroke="midnightblue" points="653.903,-274.731 643.377,-273.524 650.852,-281.032 653.903,-274.731"/>
</g>
<!-- Node16 -->
<g id="node16" class="node"><title>Node16</title>
<polygon fill="none" stroke="#bfbfbf" points="1826,-6.5 1826,-25.5 1870,-25.5 1870,-6.5 1826,-6.5"/>
<text text-anchor="middle" x="1848" y="-13.5" font-family="Helvetica,sans-Serif" font-size="10.00">cmath</text>
</g>
<!-- Node11&#45;&gt;Node16 -->
<g id="edge15" class="edge"><title>Node11&#45;&gt;Node16</title>
<path fill="none" stroke="midnightblue" d="M831.027,-319.351C908.362,-311.704 1048.12,-297.039 1167,-280 1249.6,-268.161 1269.51,-260.568 1352,-248 1472.99,-229.567 1507.41,-245.906 1625,-212 1724.01,-183.452 1769.72,-184.977 1828,-100 1841.27,-80.6564 1845.77,-53.5113 1847.28,-35.6017"/>
<polygon fill="midnightblue" stroke="midnightblue" points="1850.78,-35.7627 1847.89,-25.5683 1843.79,-35.337 1850.78,-35.7627"/>
</g>
<!-- Node17 -->
<g id="node17" class="node"><title>Node17</title>
<polygon fill="none" stroke="#bfbfbf" points="666,-254.5 666,-273.5 712,-273.5 712,-254.5 666,-254.5"/>
<text text-anchor="middle" x="689" y="-261.5" font-family="Helvetica,sans-Serif" font-size="10.00">cstring</text>
</g>
<!-- Node11&#45;&gt;Node17 -->
<g id="edge16" class="edge"><title>Node11&#45;&gt;Node17</title>
<path fill="none" stroke="midnightblue" d="M760.108,-316.403C746.795,-306.78 725,-291.024 709.043,-279.489"/>
<polygon fill="midnightblue" stroke="midnightblue" points="711.025,-276.603 700.87,-273.581 706.924,-282.276 711.025,-276.603"/>
</g>
<!-- Node18 -->
<g id="node18" class="node"><title>Node18</title>
<polygon fill="none" stroke="#bfbfbf" points="730.5,-254.5 730.5,-273.5 813.5,-273.5 813.5,-254.5 730.5,-254.5"/>
<text text-anchor="middle" x="772" y="-261.5" font-family="Helvetica,sans-Serif" font-size="10.00">Math/SMatrix.h</text>
</g>
<!-- Node11&#45;&gt;Node18 -->
<g id="edge18" class="edge"><title>Node11&#45;&gt;Node18</title>
<path fill="none" stroke="midnightblue" d="M772,-316.403C772,-307.938 772,-294.728 772,-283.82"/>
<polygon fill="midnightblue" stroke="midnightblue" points="775.5,-283.581 772,-273.581 768.5,-283.581 775.5,-283.581"/>
</g>
<!-- Node19 -->
<g id="node19" class="node"><title>Node19</title>
<polygon fill="none" stroke="#bfbfbf" points="831.5,-254.5 831.5,-273.5 916.5,-273.5 916.5,-254.5 831.5,-254.5"/>
<text text-anchor="middle" x="874" y="-261.5" font-family="Helvetica,sans-Serif" font-size="10.00">Math/SVector.h</text>
</g>
<!-- Node11&#45;&gt;Node19 -->
<g id="edge19" class="edge"><title>Node11&#45;&gt;Node19</title>
<path fill="none" stroke="midnightblue" d="M786.614,-316.403C803.353,-306.557 831.004,-290.291 850.719,-278.695"/>
<polygon fill="midnightblue" stroke="midnightblue" points="852.568,-281.668 859.413,-273.581 849.019,-275.634 852.568,-281.668"/>
</g>
<!-- Node20 -->
<g id="node20" class="node"><title>Node20</title>
<g id="a_node20"><a xlink:href="../../d4/de2/BaseCluster_8h.html" target="_top" xlink:title="DetectorsBase/BaseCluster.h">
<polygon fill="none" stroke="black" points="934.5,-254.5 934.5,-273.5 1081.5,-273.5 1081.5,-254.5 934.5,-254.5"/>
<text text-anchor="middle" x="1008" y="-261.5" font-family="Helvetica,sans-Serif" font-size="10.00">DetectorsBase/BaseCluster.h</text>
</a>
</g>
</g>
<!-- Node11&#45;&gt;Node20 -->
<g id="edge20" class="edge"><title>Node11&#45;&gt;Node20</title>
<path fill="none" stroke="midnightblue" d="M805.562,-316.467C847.325,-305.849 918.722,-287.698 964.605,-276.033"/>
<polygon fill="midnightblue" stroke="midnightblue" points="965.724,-279.36 974.553,-273.503 963.999,-272.575 965.724,-279.36"/>
</g>
<!-- Node25 -->
<g id="node25" class="node"><title>Node25</title>
<g id="a_node25"><a xlink:href="../../dd/d76/Cartesian3D_8h.html" target="_top" xlink:title="MathUtils/Cartesian3D.h">
<polygon fill="none" stroke="black" points="1238.5,-136.5 1238.5,-155.5 1363.5,-155.5 1363.5,-136.5 1238.5,-136.5"/>
<text text-anchor="middle" x="1301" y="-143.5" font-family="Helvetica,sans-Serif" font-size="10.00">MathUtils/Cartesian3D.h</text>
</a>
</g>
</g>
<!-- Node11&#45;&gt;Node25 -->
<g id="edge57" class="edge"><title>Node11&#45;&gt;Node25</title>
<path fill="none" stroke="midnightblue" d="M831.277,-321.104C917.342,-314.826 1072.27,-301.009 1124,-280 1192.03,-252.37 1257.1,-191.912 1285.73,-163.008"/>
<polygon fill="midnightblue" stroke="midnightblue" points="1288.34,-165.348 1292.82,-155.746 1283.33,-160.461 1288.34,-165.348"/>
</g>
<!-- Node40 -->
<g id="node40" class="node"><title>Node40</title>
<g id="a_node40"><a xlink:href="../../d9/ded/Utils_8h.html" target="_top" xlink:title="DetectorsBase/Utils.h">
<polygon fill="none" stroke="black" points="376.5,-74.5 376.5,-93.5 489.5,-93.5 489.5,-74.5 376.5,-74.5"/>
<text text-anchor="middle" x="433" y="-81.5" font-family="Helvetica,sans-Serif" font-size="10.00">DetectorsBase/Utils.h</text>
</a>
</g>
</g>
<!-- Node11&#45;&gt;Node40 -->
<g id="edge56" class="edge"><title>Node11&#45;&gt;Node40</title>
<path fill="none" stroke="midnightblue" d="M712.685,-325.085C630.147,-323.851 486.838,-316.354 452,-280 405.733,-231.72 419.322,-142.594 428.12,-103.829"/>
<polygon fill="midnightblue" stroke="midnightblue" points="431.57,-104.452 430.523,-93.9093 424.767,-102.804 431.57,-104.452"/>
</g>
<!-- Node41 -->
<g id="node41" class="node"><title>Node41</title>
<g id="a_node41"><a xlink:href="../../d1/daa/Base_2include_2DetectorsBase_2Constants_8h.html" target="_top" xlink:title="DetectorsBase/Constants.h">
<polygon fill="none" stroke="black" points="406,-6.5 406,-25.5 544,-25.5 544,-6.5 406,-6.5"/>
<text text-anchor="middle" x="475" y="-13.5" font-family="Helvetica,sans-Serif" font-size="10.00">DetectorsBase/Constants.h</text>
</a>
</g>
</g>
<!-- Node11&#45;&gt;Node41 -->
<g id="edge55" class="edge"><title>Node11&#45;&gt;Node41</title>
<path fill="none" stroke="midnightblue" d="M712.913,-323.461C642.666,-320.258 531.57,-310.391 505,-280 442.95,-209.026 519.34,-159.827 498,-68 495.291,-56.344 489.863,-44.0949 484.959,-34.5233"/>
<polygon fill="midnightblue" stroke="midnightblue" points="488.004,-32.7947 480.176,-25.6549 481.843,-36.1178 488.004,-32.7947"/>
</g>
<!-- Node20&#45;&gt;Node4 -->
<g id="edge25" class="edge"><title>Node20&#45;&gt;Node4</title>
<path fill="none" stroke="midnightblue" d="M1018.81,-254.356C1034.97,-240.401 1061.88,-212.412 1046,-192 943.787,-60.65 840.906,-152.592 683,-100 680.583,-99.195 678.099,-98.3026 675.619,-97.3659"/>
<polygon fill="midnightblue" stroke="midnightblue" points="676.818,-94.0759 666.233,-93.6247 674.226,-100.578 676.818,-94.0759"/>
</g>
<!-- Node21 -->
<g id="node21" class="node"><title>Node21</title>
<polygon fill="none" stroke="#bfbfbf" points="978.5,-192.5 978.5,-211.5 1037.5,-211.5 1037.5,-192.5 978.5,-192.5"/>
<text text-anchor="middle" x="1008" y="-199.5" font-family="Helvetica,sans-Serif" font-size="10.00">TObject.h</text>
</g>
<!-- Node20&#45;&gt;Node21 -->
<g id="edge21" class="edge"><title>Node20&#45;&gt;Node21</title>
<path fill="none" stroke="midnightblue" d="M1008,-254.403C1008,-245.938 1008,-232.728 1008,-221.82"/>
<polygon fill="midnightblue" stroke="midnightblue" points="1011.5,-221.581 1008,-211.581 1004.5,-221.581 1011.5,-221.581"/>
</g>
<!-- Node22 -->
<g id="node22" class="node"><title>Node22</title>
<polygon fill="none" stroke="#bfbfbf" points="66.5,-74.5 66.5,-93.5 107.5,-93.5 107.5,-74.5 66.5,-74.5"/>
<text text-anchor="middle" x="87" y="-81.5" font-family="Helvetica,sans-Serif" font-size="10.00">bitset</text>
</g>
<!-- Node20&#45;&gt;Node22 -->
<g id="edge22" class="edge"><title>Node20&#45;&gt;Node22</title>
<path fill="none" stroke="midnightblue" d="M963.718,-254.466C951.224,-252.203 937.601,-249.871 925,-248 634.654,-204.894 555.048,-229.997 271,-156 200.523,-137.64 183.903,-128.777 117,-100 115.596,-99.396 114.164,-98.7582 112.725,-98.0998"/>
<polygon fill="midnightblue" stroke="midnightblue" points="113.874,-94.7691 103.345,-93.5975 110.846,-101.08 113.874,-94.7691"/>
</g>
<!-- Node23 -->
<g id="node23" class="node"><title>Node23</title>
<polygon fill="none" stroke="#bfbfbf" points="863,-192.5 863,-211.5 913,-211.5 913,-192.5 863,-192.5"/>
<text text-anchor="middle" x="888" y="-199.5" font-family="Helvetica,sans-Serif" font-size="10.00">iomanip</text>
</g>
<!-- Node20&#45;&gt;Node23 -->
<g id="edge23" class="edge"><title>Node20&#45;&gt;Node23</title>
<path fill="none" stroke="midnightblue" d="M990.807,-254.403C970.757,-244.379 937.401,-227.701 914.14,-216.07"/>
<polygon fill="midnightblue" stroke="midnightblue" points="915.671,-212.922 905.161,-211.581 912.54,-219.183 915.671,-212.922"/>
</g>
<!-- Node24 -->
<g id="node24" class="node"><title>Node24</title>
<polygon fill="none" stroke="#bfbfbf" points="931.5,-192.5 931.5,-211.5 960.5,-211.5 960.5,-192.5 931.5,-192.5"/>
<text text-anchor="middle" x="946" y="-199.5" font-family="Helvetica,sans-Serif" font-size="10.00">ios</text>
</g>
<!-- Node20&#45;&gt;Node24 -->
<g id="edge24" class="edge"><title>Node20&#45;&gt;Node24</title>
<path fill="none" stroke="midnightblue" d="M999.117,-254.403C989.541,-245.136 974.089,-230.183 962.314,-218.788"/>
<polygon fill="midnightblue" stroke="midnightblue" points="964.487,-216.02 954.867,-211.581 959.619,-221.05 964.487,-216.02"/>
</g>
<!-- Node20&#45;&gt;Node25 -->
<g id="edge26" class="edge"><title>Node20&#45;&gt;Node25</title>
<path fill="none" stroke="midnightblue" d="M1029.54,-254.47C1080.77,-234.191 1209.99,-183.03 1269.77,-159.363"/>
<polygon fill="midnightblue" stroke="midnightblue" points="1271.41,-162.478 1279.42,-155.542 1268.84,-155.969 1271.41,-162.478"/>
</g>
<!-- Node35 -->
<g id="node35" class="node"><title>Node35</title>
<g id="a_node35"><a xlink:href="../../d4/d20/DetMatrixCache_8h.html" target="_top" xlink:title="DetectorsBase/DetMatrixCache.h">
<polygon fill="none" stroke="black" points="625,-192.5 625,-211.5 789,-211.5 789,-192.5 625,-192.5"/>
<text text-anchor="middle" x="707" y="-199.5" font-family="Helvetica,sans-Serif" font-size="10.00">DetectorsBase/DetMatrixCache.h</text>
</a>
</g>
</g>
<!-- Node20&#45;&gt;Node35 -->
<g id="edge38" class="edge"><title>Node20&#45;&gt;Node35</title>
<path fill="none" stroke="midnightblue" d="M965.194,-254.467C911.145,-243.693 818.181,-225.162 759.787,-213.522"/>
<polygon fill="midnightblue" stroke="midnightblue" points="760.15,-210.026 749.659,-211.503 758.781,-216.891 760.15,-210.026"/>
</g>
<!-- Node25&#45;&gt;Node4 -->
<g id="edge37" class="edge"><title>Node25&#45;&gt;Node4</title>
<path fill="none" stroke="midnightblue" d="M1238.41,-137.42C1233.54,-136.911 1228.69,-136.43 1224,-136 984.03,-114.005 917.596,-155.082 683,-100 679.935,-99.2803 676.796,-98.3272 673.71,-97.2492"/>
<polygon fill="midnightblue" stroke="midnightblue" points="674.781,-93.9097 664.194,-93.5128 672.223,-100.425 674.781,-93.9097"/>
</g>
<!-- Node25&#45;&gt;Node12 -->
<g id="edge30" class="edge"><title>Node25&#45;&gt;Node12</title>
<path fill="none" stroke="midnightblue" d="M1238.5,-139.725C1222.68,-138.447 1205.72,-137.126 1190,-136 932.829,-117.581 862.41,-157.178 611,-100 607.756,-99.2622 604.427,-98.2737 601.16,-97.1545"/>
<polygon fill="midnightblue" stroke="midnightblue" points="602.28,-93.8352 591.689,-93.5246 599.774,-100.372 602.28,-93.8352"/>
</g>
<!-- Node26 -->
<g id="node26" class="node"><title>Node26</title>
<polygon fill="none" stroke="#bfbfbf" points="1055.5,-74.5 1055.5,-93.5 1204.5,-93.5 1204.5,-74.5 1055.5,-74.5"/>
<text text-anchor="middle" x="1130" y="-81.5" font-family="Helvetica,sans-Serif" font-size="10.00">Math/GenVector/Rotation3D.h</text>
</g>
<!-- Node25&#45;&gt;Node26 -->
<g id="edge27" class="edge"><title>Node25&#45;&gt;Node26</title>
<path fill="none" stroke="midnightblue" d="M1276.5,-136.403C1247.04,-126.067 1197.42,-108.656 1164.2,-96.9994"/>
<polygon fill="midnightblue" stroke="midnightblue" points="1165.05,-93.5889 1154.45,-93.5806 1162.73,-100.194 1165.05,-93.5889"/>
</g>
<!-- Node27 -->
<g id="node27" class="node"><title>Node27</title>
<polygon fill="none" stroke="#bfbfbf" points="1223,-74.5 1223,-93.5 1379,-93.5 1379,-74.5 1223,-74.5"/>
<text text-anchor="middle" x="1301" y="-81.5" font-family="Helvetica,sans-Serif" font-size="10.00">Math/GenVector/Transform3D.h</text>
</g>
<!-- Node25&#45;&gt;Node27 -->
<g id="edge28" class="edge"><title>Node25&#45;&gt;Node27</title>
<path fill="none" stroke="midnightblue" d="M1301,-136.403C1301,-127.938 1301,-114.728 1301,-103.82"/>
<polygon fill="midnightblue" stroke="midnightblue" points="1304.5,-103.581 1301,-93.5806 1297.5,-103.581 1304.5,-103.581"/>
</g>
<!-- Node28 -->
<g id="node28" class="node"><title>Node28</title>
<polygon fill="none" stroke="#bfbfbf" points="1397,-74.5 1397,-93.5 1557,-93.5 1557,-74.5 1397,-74.5"/>
<text text-anchor="middle" x="1477" y="-81.5" font-family="Helvetica,sans-Serif" font-size="10.00">Math/GenVector/Translation3D.h</text>
</g>
<!-- Node25&#45;&gt;Node28 -->
<g id="edge29" class="edge"><title>Node25&#45;&gt;Node28</title>
<path fill="none" stroke="midnightblue" d="M1326.22,-136.403C1356.67,-126.022 1408.05,-108.506 1442.24,-96.849"/>
<polygon fill="midnightblue" stroke="midnightblue" points="1443.49,-100.12 1451.83,-93.5806 1441.24,-93.4946 1443.49,-100.12"/>
</g>
<!-- Node29 -->
<g id="node29" class="node"><title>Node29</title>
<polygon fill="none" stroke="#bfbfbf" points="1575,-74.5 1575,-93.5 1651,-93.5 1651,-74.5 1575,-74.5"/>
<text text-anchor="middle" x="1613" y="-81.5" font-family="Helvetica,sans-Serif" font-size="10.00">TGeoMatrix.h</text>
</g>
<!-- Node25&#45;&gt;Node29 -->
<g id="edge31" class="edge"><title>Node25&#45;&gt;Node29</title>
<path fill="none" stroke="midnightblue" d="M1363.62,-136.903C1417.64,-129.316 1497.53,-116.652 1566,-100 1570.12,-98.9981 1574.4,-97.8228 1578.63,-96.5787"/>
<polygon fill="midnightblue" stroke="midnightblue" points="1579.78,-99.8884 1588.31,-93.5999 1577.72,-93.1985 1579.78,-99.8884"/>
</g>
<!-- Node30 -->
<g id="node30" class="node"><title>Node30</title>
<polygon fill="none" stroke="#bfbfbf" points="692.5,-69 692.5,-99 843.5,-99 843.5,-69 692.5,-69"/>
<text text-anchor="start" x="700.5" y="-87" font-family="Helvetica,sans-Serif" font-size="10.00">Math/GenVector/Displacement</text>
<text text-anchor="middle" x="768" y="-76" font-family="Helvetica,sans-Serif" font-size="10.00">Vector3D.h</text>
</g>
<!-- Node25&#45;&gt;Node30 -->
<g id="edge32" class="edge"><title>Node25&#45;&gt;Node30</title>
<path fill="none" stroke="midnightblue" d="M1238.4,-137.579C1233.53,-137.033 1228.68,-136.501 1224,-136 1062.49,-118.727 1018.83,-122.263 853.953,-100.064"/>
<polygon fill="midnightblue" stroke="midnightblue" points="854.334,-96.5832 843.954,-98.7059 853.392,-103.52 854.334,-96.5832"/>
</g>
<!-- Node31 -->
<g id="node31" class="node"><title>Node31</title>
<polygon fill="none" stroke="#bfbfbf" points="862,-74.5 862,-93.5 1038,-93.5 1038,-74.5 862,-74.5"/>
<text text-anchor="middle" x="950" y="-81.5" font-family="Helvetica,sans-Serif" font-size="10.00">Math/GenVector/PositionVector3D.h</text>
</g>
<!-- Node25&#45;&gt;Node31 -->
<g id="edge33" class="edge"><title>Node25&#45;&gt;Node31</title>
<path fill="none" stroke="midnightblue" d="M1251.08,-136.467C1187.53,-125.604 1077.85,-106.855 1009.87,-95.2346"/>
<polygon fill="midnightblue" stroke="midnightblue" points="1010.19,-91.7385 999.745,-93.5034 1009.01,-98.6384 1010.19,-91.7385"/>
</g>
<!-- Node32 -->
<g id="node32" class="node"><title>Node32</title>
<g id="a_node32"><a xlink:href="../../d2/dd0/Cartesian2D_8h.html" target="_top" xlink:title="MathUtils/Cartesian2D.h">
<polygon fill="none" stroke="black" points="1669.5,-74.5 1669.5,-93.5 1794.5,-93.5 1794.5,-74.5 1669.5,-74.5"/>
<text text-anchor="middle" x="1732" y="-81.5" font-family="Helvetica,sans-Serif" font-size="10.00">MathUtils/Cartesian2D.h</text>
</a>
</g>
</g>
<!-- Node25&#45;&gt;Node32 -->
<g id="edge34" class="edge"><title>Node25&#45;&gt;Node32</title>
<path fill="none" stroke="midnightblue" d="M1363.81,-138.68C1435.64,-131.092 1556.68,-117.209 1660,-100 1667.79,-98.702 1676.03,-97.1551 1684.03,-95.5556"/>
<polygon fill="midnightblue" stroke="midnightblue" points="1684.9,-98.9501 1693.99,-93.5161 1683.5,-92.0923 1684.9,-98.9501"/>
</g>
<!-- Node33 -->
<g id="node33" class="node"><title>Node33</title>
<polygon fill="none" stroke="#bfbfbf" points="1656.5,-1 1656.5,-31 1807.5,-31 1807.5,-1 1656.5,-1"/>
<text text-anchor="start" x="1664.5" y="-19" font-family="Helvetica,sans-Serif" font-size="10.00">Math/GenVector/Displacement</text>
<text text-anchor="middle" x="1732" y="-8" font-family="Helvetica,sans-Serif" font-size="10.00">Vector2D.h</text>
</g>
<!-- Node32&#45;&gt;Node33 -->
<g id="edge35" class="edge"><title>Node32&#45;&gt;Node33</title>
<path fill="none" stroke="midnightblue" d="M1732,-74.3717C1732,-65.9715 1732,-52.811 1732,-41.2126"/>
<polygon fill="midnightblue" stroke="midnightblue" points="1735.5,-41.1814 1732,-31.1815 1728.5,-41.1815 1735.5,-41.1814"/>
</g>
<!-- Node34 -->
<g id="node34" class="node"><title>Node34</title>
<polygon fill="none" stroke="#bfbfbf" points="1462,-6.5 1462,-25.5 1638,-25.5 1638,-6.5 1462,-6.5"/>
<text text-anchor="middle" x="1550" y="-13.5" font-family="Helvetica,sans-Serif" font-size="10.00">Math/GenVector/PositionVector2D.h</text>
</g>
<!-- Node32&#45;&gt;Node34 -->
<g id="edge36" class="edge"><title>Node32&#45;&gt;Node34</title>
<path fill="none" stroke="midnightblue" d="M1708.21,-74.3717C1676.24,-62.7779 1619.26,-42.1162 1583.11,-29.0087"/>
<polygon fill="midnightblue" stroke="midnightblue" points="1584.1,-25.6447 1573.51,-25.5259 1581.72,-32.2254 1584.1,-25.6447"/>
</g>
<!-- Node35&#45;&gt;Node2 -->
<g id="edge39" class="edge"><title>Node35&#45;&gt;Node2</title>
<path fill="none" stroke="midnightblue" d="M778.779,-192.444C878.444,-180.563 1054.67,-159.556 1127.3,-150.898"/>
<polygon fill="midnightblue" stroke="midnightblue" points="1128.13,-154.324 1137.65,-149.665 1127.3,-147.373 1128.13,-154.324"/>
</g>
<!-- Node35&#45;&gt;Node12 -->
<g id="edge53" class="edge"><title>Node35&#45;&gt;Node12</title>
<path fill="none" stroke="midnightblue" d="M697.003,-192.281C674.557,-172.704 619.91,-125.041 591.62,-100.368"/>
<polygon fill="midnightblue" stroke="midnightblue" points="593.588,-97.4401 583.751,-93.5048 588.987,-102.716 593.588,-97.4401"/>
</g>
<!-- Node35&#45;&gt;Node14 -->
<g id="edge40" class="edge"><title>Node35&#45;&gt;Node14</title>
<path fill="none" stroke="midnightblue" d="M624.849,-201.538C465.691,-200.573 124.955,-188.025 57,-100 41.551,-79.988 58.4793,-51.2928 72.4664,-33.421"/>
<polygon fill="midnightblue" stroke="midnightblue" points="75.2588,-35.5366 78.9418,-25.6025 69.8677,-31.0716 75.2588,-35.5366"/>
</g>
<!-- Node35&#45;&gt;Node25 -->
<g id="edge41" class="edge"><title>Node35&#45;&gt;Node25</title>
<path fill="none" stroke="midnightblue" d="M789.281,-193.52C905.728,-182.934 1116.78,-163.747 1227.96,-153.64"/>
<polygon fill="midnightblue" stroke="midnightblue" points="1228.44,-157.111 1238.08,-152.72 1227.8,-150.14 1228.44,-157.111"/>
</g>
<!-- Node36 -->
<g id="node36" class="node"><title>Node36</title>
<g id="a_node36"><a xlink:href="../../d6/d31/DetID_8h.html" target="_top" xlink:title="DetectorsBase/DetID.h">
<polygon fill="none" stroke="black" points="280.5,-136.5 280.5,-155.5 399.5,-155.5 399.5,-136.5 280.5,-136.5"/>
<text text-anchor="middle" x="340" y="-143.5" font-family="Helvetica,sans-Serif" font-size="10.00">DetectorsBase/DetID.h</text>
</a>
</g>
</g>
<!-- Node35&#45;&gt;Node36 -->
<g id="edge42" class="edge"><title>Node35&#45;&gt;Node36</title>
<path fill="none" stroke="midnightblue" d="M648.848,-192.444C583.349,-182.806 477.037,-167.163 407.815,-156.978"/>
<polygon fill="midnightblue" stroke="midnightblue" points="408.283,-153.51 397.88,-155.516 407.264,-160.435 408.283,-153.51"/>
</g>
<!-- Node42 -->
<g id="node42" class="node"><title>Node42</title>
<polygon fill="none" stroke="#bfbfbf" points="671.5,-136.5 671.5,-155.5 742.5,-155.5 742.5,-136.5 671.5,-136.5"/>
<text text-anchor="middle" x="707" y="-143.5" font-family="Helvetica,sans-Serif" font-size="10.00">FairLogger.h</text>
</g>
<!-- Node35&#45;&gt;Node42 -->
<g id="edge54" class="edge"><title>Node35&#45;&gt;Node42</title>
<path fill="none" stroke="midnightblue" d="M707,-192.083C707,-185.006 707,-174.861 707,-165.986"/>
<polygon fill="midnightblue" stroke="midnightblue" points="710.5,-165.751 707,-155.751 703.5,-165.751 710.5,-165.751"/>
</g>
<!-- Node36&#45;&gt;Node12 -->
<g id="edge43" class="edge"><title>Node36&#45;&gt;Node12</title>
<path fill="none" stroke="midnightblue" d="M373.526,-136.403C416.527,-125.378 490.916,-106.304 535.98,-94.7486"/>
<polygon fill="midnightblue" stroke="midnightblue" points="536.859,-98.1368 545.676,-92.2626 535.12,-91.3561 536.859,-98.1368"/>
</g>
<!-- Node36&#45;&gt;Node14 -->
<g id="edge44" class="edge"><title>Node36&#45;&gt;Node14</title>
<path fill="none" stroke="midnightblue" d="M289.585,-136.46C242.807,-127.875 177.173,-113.948 155,-100 128.817,-83.5292 107.99,-53.5039 96.5876,-34.4385"/>
<polygon fill="midnightblue" stroke="midnightblue" points="99.5235,-32.5227 91.5054,-25.5973 93.4547,-36.0113 99.5235,-32.5227"/>
</g>
<!-- Node36&#45;&gt;Node22 -->
<g id="edge45" class="edge"><title>Node36&#45;&gt;Node22</title>
<path fill="none" stroke="midnightblue" d="M282.74,-136.423C238.3,-128.993 175.462,-116.786 122,-100 119.572,-99.2376 117.082,-98.3652 114.605,-97.4332"/>
<polygon fill="midnightblue" stroke="midnightblue" points="115.847,-94.1604 105.265,-93.6496 113.219,-100.648 115.847,-94.1604"/>
</g>
<!-- Node37 -->
<g id="node37" class="node"><title>Node37</title>
<polygon fill="none" stroke="#bfbfbf" points="164.5,-74.5 164.5,-93.5 213.5,-93.5 213.5,-74.5 164.5,-74.5"/>
<text text-anchor="middle" x="189" y="-81.5" font-family="Helvetica,sans-Serif" font-size="10.00">cassert</text>
</g>
<!-- Node36&#45;&gt;Node37 -->
<g id="edge46" class="edge"><title>Node36&#45;&gt;Node37</title>
<path fill="none" stroke="midnightblue" d="M316.56,-136.365C292.845,-127.539 255.189,-113.281 223,-100 221.166,-99.2433 219.282,-98.452 217.387,-97.6452"/>
<polygon fill="midnightblue" stroke="midnightblue" points="218.559,-94.3387 207.992,-93.5723 215.775,-100.761 218.559,-94.3387"/>
</g>
<!-- Node38 -->
<g id="node38" class="node"><title>Node38</title>
<polygon fill="none" stroke="#bfbfbf" points="232,-74.5 232,-93.5 278,-93.5 278,-74.5 232,-74.5"/>
<text text-anchor="middle" x="255" y="-81.5" font-family="Helvetica,sans-Serif" font-size="10.00">cstdint</text>
</g>
<!-- Node36&#45;&gt;Node38 -->
<g id="edge47" class="edge"><title>Node36&#45;&gt;Node38</title>
<path fill="none" stroke="midnightblue" d="M327.822,-136.403C314.188,-126.78 291.868,-111.024 275.526,-99.4891"/>
<polygon fill="midnightblue" stroke="midnightblue" points="277.344,-96.4881 267.156,-93.5806 273.307,-102.207 277.344,-96.4881"/>
</g>
<!-- Node39 -->
<g id="node39" class="node"><title>Node39</title>
<polygon fill="none" stroke="#bfbfbf" points="296,-74.5 296,-93.5 358,-93.5 358,-74.5 296,-74.5"/>
<text text-anchor="middle" x="327" y="-81.5" font-family="Helvetica,sans-Serif" font-size="10.00">type_traits</text>
</g>
<!-- Node36&#45;&gt;Node39 -->
<g id="edge48" class="edge"><title>Node36&#45;&gt;Node39</title>
<path fill="none" stroke="midnightblue" d="M338.137,-136.403C336.284,-127.849 333.381,-114.45 331.003,-103.476"/>
<polygon fill="midnightblue" stroke="midnightblue" points="334.397,-102.613 328.859,-93.5806 327.556,-104.095 334.397,-102.613"/>
</g>
<!-- Node36&#45;&gt;Node40 -->
<g id="edge49" class="edge"><title>Node36&#45;&gt;Node40</title>
<path fill="none" stroke="midnightblue" d="M353.325,-136.403C368.38,-126.691 393.116,-110.732 411.037,-99.1697"/>
<polygon fill="midnightblue" stroke="midnightblue" points="413.195,-101.943 419.7,-93.5806 409.4,-96.0609 413.195,-101.943"/>
</g>
<!-- Node40&#45;&gt;Node14 -->
<g id="edge52" class="edge"><title>Node40&#45;&gt;Node14</title>
<path fill="none" stroke="midnightblue" d="M396.195,-74.486C386.399,-72.2949 375.812,-69.9944 366,-68 275.226,-49.5497 167.203,-30.6759 116.299,-21.9641"/>
<polygon fill="midnightblue" stroke="midnightblue" points="116.777,-18.495 106.331,-20.2631 115.599,-25.3953 116.777,-18.495"/>
</g>
<!-- Node40&#45;&gt;Node16 -->
<g id="edge51" class="edge"><title>Node40&#45;&gt;Node16</title>
<path fill="none" stroke="midnightblue" d="M483.911,-74.4632C500.762,-71.9571 519.642,-69.491 537,-68 820.291,-43.6648 1539.36,-97.718 1816,-32 1818.65,-31.3703 1821.34,-30.5077 1823.99,-29.5119"/>
<polygon fill="midnightblue" stroke="midnightblue" points="1825.4,-32.7131 1833.16,-25.5003 1822.6,-26.2993 1825.4,-32.7131"/>
</g>
<!-- Node40&#45;&gt;Node41 -->
<g id="edge50" class="edge"><title>Node40&#45;&gt;Node41</title>
<path fill="none" stroke="midnightblue" d="M438.491,-74.3717C444.932,-64.2495 455.772,-47.2154 463.971,-34.3312"/>
<polygon fill="midnightblue" stroke="midnightblue" points="466.958,-36.1568 469.374,-25.8411 461.052,-32.3987 466.958,-36.1568"/>
</g>
<!-- Node43&#45;&gt;Node16 -->
<g id="edge59" class="edge"><title>Node43&#45;&gt;Node16</title>
<path fill="none" stroke="midnightblue" d="M1608.99,-192.499C1659.12,-179.852 1746.43,-151.812 1803,-100 1822.5,-82.139 1835.3,-53.8251 1842.09,-35.3275"/>
<polygon fill="midnightblue" stroke="midnightblue" points="1845.45,-36.3187 1845.4,-25.7239 1838.83,-34.0357 1845.45,-36.3187"/>
</g>
<!-- Node43&#45;&gt;Node25 -->
<g id="edge61" class="edge"><title>Node43&#45;&gt;Node25</title>
<path fill="none" stroke="midnightblue" d="M1527.38,-192.444C1480.25,-182.984 1404.31,-167.738 1353.54,-157.547"/>
<polygon fill="midnightblue" stroke="midnightblue" points="1353.92,-154.053 1343.42,-155.516 1352.54,-160.916 1353.92,-154.053"/>
</g>
<!-- Node43&#45;&gt;Node32 -->
<g id="edge60" class="edge"><title>Node43&#45;&gt;Node32</title>
<path fill="none" stroke="midnightblue" d="M1581.91,-192.47C1609.41,-172.778 1677.58,-123.964 1711.77,-99.484"/>
<polygon fill="midnightblue" stroke="midnightblue" points="1713.98,-102.21 1720.07,-93.5423 1709.9,-96.5185 1713.98,-102.21"/>
</g>
<!-- Node45 -->
<g id="node45" class="node"><title>Node45</title>
<polygon fill="none" stroke="#bfbfbf" points="1545.5,-249 1545.5,-279 1640.5,-279 1640.5,-249 1545.5,-249"/>
<text text-anchor="start" x="1553.5" y="-267" font-family="Helvetica,sans-Serif" font-size="10.00">boost/serialization</text>
<text text-anchor="middle" x="1593" y="-256" font-family="Helvetica,sans-Serif" font-size="10.00">/base_object.hpp</text>
</g>
<!-- Node44&#45;&gt;Node45 -->
<g id="edge63" class="edge"><title>Node44&#45;&gt;Node45</title>
<path fill="none" stroke="midnightblue" d="M1604.14,-316.403C1602.59,-309.265 1600.31,-298.752 1598.22,-289.09"/>
<polygon fill="midnightblue" stroke="midnightblue" points="1601.6,-288.173 1596.06,-279.141 1594.76,-289.655 1601.6,-288.173"/>
</g>
<!-- Node46 -->
<g id="node46" class="node"><title>Node46</title>
<polygon fill="none" stroke="#bfbfbf" points="1659,-254.5 1659,-273.5 1751,-273.5 1751,-254.5 1659,-254.5"/>
<text text-anchor="middle" x="1705" y="-261.5" font-family="Helvetica,sans-Serif" font-size="10.00">FairTimeStamp.h</text>
</g>
<!-- Node44&#45;&gt;Node46 -->
<g id="edge64" class="edge"><title>Node44&#45;&gt;Node46</title>
<path fill="none" stroke="midnightblue" d="M1620.18,-316.403C1636.36,-306.601 1663.03,-290.439 1682.14,-278.853"/>
<polygon fill="midnightblue" stroke="midnightblue" points="1684.1,-281.757 1690.84,-273.581 1680.48,-275.77 1684.1,-281.757"/>
</g>
<!-- Node47&#45;&gt;Node2 -->
<g id="edge66" class="edge"><title>Node47&#45;&gt;Node2</title>
<path fill="none" stroke="midnightblue" d="M1326.56,-316.415C1299.14,-288.524 1212.25,-200.145 1176.06,-163.337"/>
<polygon fill="midnightblue" stroke="midnightblue" points="1178.27,-160.596 1168.77,-155.918 1173.28,-165.503 1178.27,-160.596"/>
</g>
<!-- Node48 -->
<g id="node48" class="node"><title>Node48</title>
<g id="a_node48"><a xlink:href="../../d6/d51/TPC_2base_2include_2TPCBase_2Constants_8h.html" target="_top" xlink:title="TPCBase/Constants.h">
<polygon fill="none" stroke="black" points="1361,-254.5 1361,-273.5 1477,-273.5 1477,-254.5 1361,-254.5"/>
<text text-anchor="middle" x="1419" y="-261.5" font-family="Helvetica,sans-Serif" font-size="10.00">TPCBase/Constants.h</text>
</a>
</g>
</g>
<!-- Node47&#45;&gt;Node48 -->
<g id="edge67" class="edge"><title>Node47&#45;&gt;Node48</title>
<path fill="none" stroke="midnightblue" d="M1347.04,-316.403C1360.51,-306.78 1382.57,-291.024 1398.72,-279.489"/>
<polygon fill="midnightblue" stroke="midnightblue" points="1400.88,-282.241 1406.99,-273.581 1396.82,-276.545 1400.88,-282.241"/>
</g>
</g>
</svg>
        <g id="navigator" transform="translate(0 0)" fill="#404254">
                <rect fill="#f2f5e9" fill-opacity="0.5" stroke="#606060" stroke-width=".5" x="0" y="0" width="60" height="60"/>
                <use id="zoomplus" xlink:href="#zoomPlus" x="17" y="9" onmousedown="handleZoom(evt,'in')"/>
                <use id="zoomminus" xlink:href="#zoomMin" x="42" y="9" onmousedown="handleZoom(evt,'out')"/>
                <use id="reset" xlink:href="#resetDef" x="30" y="36" onmousedown="handleReset()"/>
                <g id="arrowUp" xlink:href="#dirArrow" transform="translate(30 24)" onmousedown="handlePan(0,-1)">
                  <use xlink:href="#rim" fill="#404040">
                        <set attributeName="fill" to="#808080" begin="arrowUp.mouseover" end="arrowUp.mouseout"/>
                  </use>
                  <path fill="none" stroke="white" stroke-width="1.5" d="M0,-3.0v7 M-2.5,-0.5L0,-3.0L2.5,-0.5"/>
                </g>
                <g id="arrowRight" xlink:href="#dirArrow" transform="rotate(90) translate(36 -43)" onmousedown="handlePan(1,0)">
                  <use xlink:href="#rim" fill="#404040">
                        <set attributeName="fill" to="#808080" begin="arrowRight.mouseover" end="arrowRight.mouseout"/>
                  </use>
                  <path fill="none" stroke="white" stroke-width="1.5" d="M0,-3.0v7 M-2.5,-0.5L0,-3.0L2.5,-0.5"/>
                </g>
                <g id="arrowDown" xlink:href="#dirArrow" transform="rotate(180) translate(-30 -48)" onmousedown="handlePan(0,1)">
                  <use xlink:href="#rim" fill="#404040">
                        <set attributeName="fill" to="#808080" begin="arrowDown.mouseover" end="arrowDown.mouseout"/>
                  </use>
                  <path fill="none" stroke="white" stroke-width="1.5" d="M0,-3.0v7 M-2.5,-0.5L0,-3.0L2.5,-0.5"/>
                </g>
                <g id="arrowLeft" xlink:href="#dirArrow" transform="rotate(270) translate(-36 17)" onmousedown="handlePan(-1,0)">
                  <use xlink:href="#rim" fill="#404040">
                        <set attributeName="fill" to="#808080" begin="arrowLeft.mouseover" end="arrowLeft.mouseout"/>
                  </use>
                  <path fill="none" stroke="white" stroke-width="1.5" d="M0,-3.0v7 M-2.5,-0.5L0,-3.0L2.5,-0.5"/>
                </g>
        </g>
        <svg viewBox="0 0 15 15" width="100%" height="30px" preserveAspectRatio="xMaxYMin meet">
         <g id="arrow_out" transform="scale(0.3 0.3)">
          <a xlink:href="convertTracks_8C__incl_org.svg" target="_base">
           <rect id="button" ry="5" rx="5" y="6" x="6" height="38" width="38"
                fill="#f2f5e9" fill-opacity="0.5" stroke="#606060" stroke-width="1.0"/>
           <path id="arrow"
             d="M 11.500037,31.436501 C 11.940474,20.09759 22.043105,11.32322 32.158766,21.979434 L 37.068811,17.246167 C 37.068811,17.246167 37.088388,32 37.088388,32 L 22.160133,31.978069 C 22.160133,31.978069 26.997745,27.140456 26.997745,27.140456 C 18.528582,18.264221 13.291696,25.230495 11.500037,31.436501 z"
             style="fill:#404040;"/>
          </a>
         </g>
        </svg>
</svg>
