<?xml version="1.0" encoding="UTF-8" standalone="no"?>
<!DOCTYPE svg PUBLIC "-//W3C//DTD SVG 1.1//EN"
 "http://www.w3.org/Graphics/SVG/1.1/DTD/svg11.dtd">
<!-- Generated by graphviz version 2.36.0 (20140111.2315)
 -->
<!-- Title: /home/travis/build/AliceO2Group/AliceO2/Detectors/TPC/simulation/src/PadResponse.cxx Pages: 1 -->
<!--zoomable 646 -->
<svg id="main" version="1.1" xmlns="http://www.w3.org/2000/svg" xmlns:xlink="http://www.w3.org/1999/xlink" xml:space="preserve" onload="init(evt)">
<style type="text/css"><![CDATA[
.edge:hover path { stroke: red; }
.edge:hover polygon { stroke: red; fill: red; }
]]></style>
<script type="text/javascript"><![CDATA[
var edges = document.getElementsByTagName('g');
if (edges && edges.length) {
  for (var i=0;i<edges.length;i++) {
    if (edges[i].id.substr(0,4)=='edge') {
      edges[i].setAttribute('class','edge');
    }
  }
}
]]></script>
        <defs>
                <circle id="rim" cx="0" cy="0" r="7"/>
                <circle id="rim2" cx="0" cy="0" r="3.5"/>
                <g id="zoomPlus">
                        <use xlink:href="#rim" fill="#404040">
                                <set attributeName="fill" to="#808080" begin="zoomplus.mouseover" end="zoomplus.mouseout"/>
                        </use>
                        <path d="M-4,0h8M0,-4v8" fill="none" stroke="white" stroke-width="1.5" pointer-events="none"/>
                </g>
                <g id="zoomMin">
                        <use xlink:href="#rim" fill="#404040">
                                <set attributeName="fill" to="#808080" begin="zoomminus.mouseover" end="zoomminus.mouseout"/>
                        </use>
                        <path d="M-4,0h8" fill="none" stroke="white" stroke-width="1.5" pointer-events="none"/>
                </g>
                <g id="dirArrow">
                        <path fill="none" stroke="white" stroke-width="1.5" d="M0,-3.0v7 M-2.5,-0.5L0,-3.0L2.5,-0.5"/>
                </g>
               <g id="resetDef">
                       <use xlink:href="#rim2" fill="#404040">
                               <set attributeName="fill" to="#808080" begin="reset.mouseover" end="reset.mouseout"/>
                       </use>
               </g>
        </defs>

<script type="text/javascript">
var viewWidth = 1493;
var viewHeight = 646;
var sectionId = 'dynsection-0';
</script>
<script xlink:href="../../svgpan.js"/>
<svg id="graph" class="graph">
<g id="viewport">
<title>/home/travis/build/AliceO2Group/AliceO2/Detectors/TPC/simulation/src/PadResponse.cxx</title>
<!-- Node1 -->
<g id="node1" class="node"><title>Node1</title>
<polygon fill="#bfbfbf" stroke="black" points="1160.5,-585 1160.5,-637 1293.5,-637 1293.5,-585 1160.5,-585"/>
<text text-anchor="start" x="1168.5" y="-625" font-family="Helvetica,sans-Serif" font-size="10.00">/home/travis/build</text>
<text text-anchor="start" x="1168.5" y="-614" font-family="Helvetica,sans-Serif" font-size="10.00">/AliceO2Group/AliceO2</text>
<text text-anchor="start" x="1168.5" y="-603" font-family="Helvetica,sans-Serif" font-size="10.00">/Detectors/TPC/simulation</text>
<text text-anchor="middle" x="1227" y="-592" font-family="Helvetica,sans-Serif" font-size="10.00">/src/PadResponse.cxx</text>
</g>
<!-- Node2 -->
<g id="node2" class="node"><title>Node2</title>
<g id="a_node2"><a xlink:href="../../d7/d0f/PadResponse_8h.html" target="_top" xlink:title="Definition of the Pad Response. ">
<polygon fill="none" stroke="black" points="862.5,-528.5 862.5,-547.5 1017.5,-547.5 1017.5,-528.5 862.5,-528.5"/>
<text text-anchor="middle" x="940" y="-535.5" font-family="Helvetica,sans-Serif" font-size="10.00">TPCSimulation/PadResponse.h</text>
</a>
</g>
</g>
<!-- Node1&#45;&gt;Node2 -->
<g id="edge1" class="edge"><title>Node1&#45;&gt;Node2</title>
<path fill="none" stroke="midnightblue" d="M1160.44,-593.533C1106.29,-580.137 1031.39,-561.608 984.33,-549.967"/>
<polygon fill="midnightblue" stroke="midnightblue" points="984.989,-546.524 974.441,-547.52 983.307,-553.319 984.989,-546.524"/>
</g>
<!-- Node4 -->
<g id="node4" class="node"><title>Node4</title>
<g id="a_node4"><a xlink:href="../../d7/d2c/Mapper_8h.html" target="_top" xlink:title="TPCBase/Mapper.h">
<polygon fill="none" stroke="black" points="888.5,-472.5 888.5,-491.5 991.5,-491.5 991.5,-472.5 888.5,-472.5"/>
<text text-anchor="middle" x="940" y="-479.5" font-family="Helvetica,sans-Serif" font-size="10.00">TPCBase/Mapper.h</text>
</a>
</g>
</g>
<!-- Node1&#45;&gt;Node4 -->
<g id="edge52" class="edge"><title>Node1&#45;&gt;Node4</title>
<path fill="none" stroke="midnightblue" d="M1170.3,-584.909C1109.6,-558.049 1015.71,-516.502 968.772,-495.732"/>
<polygon fill="midnightblue" stroke="midnightblue" points="970.059,-492.474 959.498,-491.628 967.226,-498.875 970.059,-492.474"/>
</g>
<!-- Node8 -->
<g id="node8" class="node"><title>Node8</title>
<polygon fill="none" stroke="#bfbfbf" points="1184.5,-416.5 1184.5,-435.5 1225.5,-435.5 1225.5,-416.5 1184.5,-416.5"/>
<text text-anchor="middle" x="1205" y="-423.5" font-family="Helvetica,sans-Serif" font-size="10.00">string</text>
</g>
<!-- Node1&#45;&gt;Node8 -->
<g id="edge55" class="edge"><title>Node1&#45;&gt;Node8</title>
<path fill="none" stroke="midnightblue" d="M1223.99,-584.938C1219.52,-547.811 1211.25,-479.02 1207.27,-445.851"/>
<polygon fill="midnightblue" stroke="midnightblue" points="1210.72,-445.226 1206.05,-435.715 1203.77,-446.061 1210.72,-445.226"/>
</g>
<!-- Node9 -->
<g id="node9" class="node"><title>Node9</title>
<polygon fill="none" stroke="#bfbfbf" points="337,-136.5 337,-155.5 381,-155.5 381,-136.5 337,-136.5"/>
<text text-anchor="middle" x="359" y="-143.5" font-family="Helvetica,sans-Serif" font-size="10.00">cmath</text>
</g>
<!-- Node1&#45;&gt;Node9 -->
<g id="edge57" class="edge"><title>Node1&#45;&gt;Node9</title>
<path fill="none" stroke="midnightblue" d="M1160.38,-607.671C951.15,-599.48 321,-567.775 321,-483 321,-483 321,-483 321,-257 321,-222.813 337.6,-185.764 348.857,-164.571"/>
<polygon fill="midnightblue" stroke="midnightblue" points="351.947,-166.215 353.716,-155.769 345.819,-162.832 351.947,-166.215"/>
</g>
<!-- Node22 -->
<g id="node22" class="node"><title>Node22</title>
<polygon fill="none" stroke="#bfbfbf" points="1195,-74.5 1195,-93.5 1249,-93.5 1249,-74.5 1195,-74.5"/>
<text text-anchor="middle" x="1222" y="-81.5" font-family="Helvetica,sans-Serif" font-size="10.00">iostream</text>
</g>
<!-- Node1&#45;&gt;Node22 -->
<g id="edge54" class="edge"><title>Node1&#45;&gt;Node22</title>
<path fill="none" stroke="midnightblue" d="M1231.7,-584.986C1239.44,-541.599 1254,-449.503 1254,-371 1254,-371 1254,-371 1254,-201 1254,-165.111 1239.59,-125.151 1230.11,-102.746"/>
<polygon fill="midnightblue" stroke="midnightblue" points="1233.28,-101.257 1226.05,-93.5084 1226.87,-104.072 1233.28,-101.257"/>
</g>
<!-- Node34 -->
<g id="node34" class="node"><title>Node34</title>
<polygon fill="none" stroke="#bfbfbf" points="1275,-528.5 1275,-547.5 1325,-547.5 1325,-528.5 1275,-528.5"/>
<text text-anchor="middle" x="1300" y="-535.5" font-family="Helvetica,sans-Serif" font-size="10.00">fstream</text>
</g>
<!-- Node1&#45;&gt;Node34 -->
<g id="edge53" class="edge"><title>Node1&#45;&gt;Node34</title>
<path fill="none" stroke="midnightblue" d="M1252.94,-584.768C1263.21,-574.78 1274.7,-563.605 1283.76,-554.798"/>
<polygon fill="midnightblue" stroke="midnightblue" points="1286.27,-557.238 1291,-547.757 1281.39,-552.22 1286.27,-557.238"/>
</g>
<!-- Node35 -->
<g id="node35" class="node"><title>Node35</title>
<polygon fill="none" stroke="#bfbfbf" points="1343,-528.5 1343,-547.5 1395,-547.5 1395,-528.5 1343,-528.5"/>
<text text-anchor="middle" x="1369" y="-535.5" font-family="Helvetica,sans-Serif" font-size="10.00">sstream</text>
</g>
<!-- Node1&#45;&gt;Node35 -->
<g id="edge56" class="edge"><title>Node1&#45;&gt;Node35</title>
<path fill="none" stroke="midnightblue" d="M1277.06,-584.968C1299.23,-573.885 1324.39,-561.306 1342.78,-552.112"/>
<polygon fill="midnightblue" stroke="midnightblue" points="1344.34,-555.242 1351.72,-547.639 1341.21,-548.981 1344.34,-555.242"/>
</g>
<!-- Node36 -->
<g id="node36" class="node"><title>Node36</title>
<polygon fill="none" stroke="#bfbfbf" points="1413.5,-528.5 1413.5,-547.5 1484.5,-547.5 1484.5,-528.5 1413.5,-528.5"/>
<text text-anchor="middle" x="1449" y="-535.5" font-family="Helvetica,sans-Serif" font-size="10.00">FairLogger.h</text>
</g>
<!-- Node1&#45;&gt;Node36 -->
<g id="edge58" class="edge"><title>Node1&#45;&gt;Node36</title>
<path fill="none" stroke="midnightblue" d="M1293.61,-588.698C1332.56,-576.24 1380.25,-560.989 1412.44,-550.693"/>
<polygon fill="midnightblue" stroke="midnightblue" points="1413.86,-553.914 1422.31,-547.534 1411.72,-547.247 1413.86,-553.914"/>
</g>
<!-- Node3 -->
<g id="node3" class="node"><title>Node3</title>
<polygon fill="none" stroke="#bfbfbf" points="800,-472.5 800,-491.5 870,-491.5 870,-472.5 800,-472.5"/>
<text text-anchor="middle" x="835" y="-479.5" font-family="Helvetica,sans-Serif" font-size="10.00">TGraph2D.h</text>
</g>
<!-- Node2&#45;&gt;Node3 -->
<g id="edge2" class="edge"><title>Node2&#45;&gt;Node3</title>
<path fill="none" stroke="midnightblue" d="M923.13,-528.324C906.291,-519.664 880.193,-506.242 860.762,-496.249"/>
<polygon fill="midnightblue" stroke="midnightblue" points="862.322,-493.116 851.828,-491.655 859.12,-499.341 862.322,-493.116"/>
</g>
<!-- Node2&#45;&gt;Node4 -->
<g id="edge3" class="edge"><title>Node2&#45;&gt;Node4</title>
<path fill="none" stroke="midnightblue" d="M940,-528.083C940,-521.006 940,-510.861 940,-501.986"/>
<polygon fill="midnightblue" stroke="midnightblue" points="943.5,-501.751 940,-491.751 936.5,-501.751 943.5,-501.751"/>
</g>
<!-- Node5 -->
<g id="node5" class="node"><title>Node5</title>
<polygon fill="none" stroke="#bfbfbf" points="978.5,-416.5 978.5,-435.5 1013.5,-435.5 1013.5,-416.5 978.5,-416.5"/>
<text text-anchor="middle" x="996" y="-423.5" font-family="Helvetica,sans-Serif" font-size="10.00">map</text>
</g>
<!-- Node4&#45;&gt;Node5 -->
<g id="edge4" class="edge"><title>Node4&#45;&gt;Node5</title>
<path fill="none" stroke="midnightblue" d="M948.997,-472.324C957.194,-464.42 969.506,-452.548 979.472,-442.938"/>
<polygon fill="midnightblue" stroke="midnightblue" points="982.07,-445.295 986.839,-435.834 977.211,-440.256 982.07,-445.295"/>
</g>
<!-- Node6 -->
<g id="node6" class="node"><title>Node6</title>
<polygon fill="none" stroke="#bfbfbf" points="439,-360.5 439,-379.5 483,-379.5 483,-360.5 439,-360.5"/>
<text text-anchor="middle" x="461" y="-367.5" font-family="Helvetica,sans-Serif" font-size="10.00">vector</text>
</g>
<!-- Node4&#45;&gt;Node6 -->
<g id="edge5" class="edge"><title>Node4&#45;&gt;Node6</title>
<path fill="none" stroke="midnightblue" d="M888.445,-473.164C885.252,-472.75 882.084,-472.358 879,-472 831.924,-466.539 486.065,-470.896 454,-436 442.63,-423.626 446.753,-403.822 452.252,-389.322"/>
<polygon fill="midnightblue" stroke="midnightblue" points="455.575,-390.454 456.297,-379.883 449.141,-387.696 455.575,-390.454"/>
</g>
<!-- Node7 -->
<g id="node7" class="node"><title>Node7</title>
<polygon fill="none" stroke="#bfbfbf" points="781,-416.5 781,-435.5 819,-435.5 819,-416.5 781,-416.5"/>
<text text-anchor="middle" x="800" y="-423.5" font-family="Helvetica,sans-Serif" font-size="10.00">array</text>
</g>
<!-- Node4&#45;&gt;Node7 -->
<g id="edge6" class="edge"><title>Node4&#45;&gt;Node7</title>
<path fill="none" stroke="midnightblue" d="M917.817,-472.444C893.751,-463.161 855.242,-448.308 828.844,-438.125"/>
<polygon fill="midnightblue" stroke="midnightblue" points="829.964,-434.806 819.374,-434.473 827.445,-441.337 829.964,-434.806"/>
</g>
<!-- Node4&#45;&gt;Node8 -->
<g id="edge7" class="edge"><title>Node4&#45;&gt;Node8</title>
<path fill="none" stroke="midnightblue" d="M988.188,-472.42C1034.84,-463.913 1107.5,-450.138 1170,-436 1171.45,-435.671 1172.94,-435.326 1174.44,-434.97"/>
<polygon fill="midnightblue" stroke="midnightblue" points="1175.45,-438.325 1184.32,-432.531 1173.77,-431.529 1175.45,-438.325"/>
</g>
<!-- Node4&#45;&gt;Node9 -->
<g id="edge8" class="edge"><title>Node4&#45;&gt;Node9</title>
<path fill="none" stroke="midnightblue" d="M888.448,-473.136C885.254,-472.729 882.085,-472.346 879,-472 775.342,-460.381 503.209,-484.759 411,-436 378.295,-418.706 359,-407.996 359,-371 359,-371 359,-371 359,-257 359,-224.948 359,-187.643 359,-165.749"/>
<polygon fill="midnightblue" stroke="midnightblue" points="362.5,-165.558 359,-155.558 355.5,-165.558 362.5,-165.558"/>
</g>
<!-- Node10 -->
<g id="node10" class="node"><title>Node10</title>
<g id="a_node10"><a xlink:href="../../d1/d73/Defs_8h.html" target="_top" xlink:title="Common definitions for 2D coordinates. ">
<polygon fill="none" stroke="black" points="703,-192.5 703,-211.5 795,-211.5 795,-192.5 703,-192.5"/>
<text text-anchor="middle" x="749" y="-199.5" font-family="Helvetica,sans-Serif" font-size="10.00">TPCBase/Defs.h</text>
</a>
</g>
</g>
<!-- Node4&#45;&gt;Node10 -->
<g id="edge9" class="edge"><title>Node4&#45;&gt;Node10</title>
<path fill="none" stroke="midnightblue" d="M888.446,-473.156C885.252,-472.744 882.084,-472.354 879,-472 782.417,-460.899 527.433,-484.192 443,-436 412.263,-418.456 397,-406.391 397,-371 397,-371 397,-371 397,-313 397,-251.781 593.42,-220.642 692.808,-208.805"/>
<polygon fill="midnightblue" stroke="midnightblue" points="693.454,-212.253 702.982,-207.62 692.644,-205.3 693.454,-212.253"/>
</g>
<!-- Node23 -->
<g id="node23" class="node"><title>Node23</title>
<g id="a_node23"><a xlink:href="../../de/d41/PadPos_8h.html" target="_top" xlink:title="TPCBase/PadPos.h">
<polygon fill="none" stroke="black" points="555.5,-304.5 555.5,-323.5 660.5,-323.5 660.5,-304.5 555.5,-304.5"/>
<text text-anchor="middle" x="608" y="-311.5" font-family="Helvetica,sans-Serif" font-size="10.00">TPCBase/PadPos.h</text>
</a>
</g>
</g>
<!-- Node4&#45;&gt;Node23 -->
<g id="edge24" class="edge"><title>Node4&#45;&gt;Node23</title>
<path fill="none" stroke="midnightblue" d="M888.362,-473.27C804.328,-460.667 647.148,-436.985 646,-436 615.881,-410.154 609.337,-360.718 608.101,-333.724"/>
<polygon fill="midnightblue" stroke="midnightblue" points="611.598,-333.571 607.843,-323.664 604.601,-333.75 611.598,-333.571"/>
</g>
<!-- Node24 -->
<g id="node24" class="node"><title>Node24</title>
<g id="a_node24"><a xlink:href="../../dd/d0b/PadSecPos_8h.html" target="_top" xlink:title="TPCBase/PadSecPos.h">
<polygon fill="none" stroke="black" points="710,-360.5 710,-379.5 832,-379.5 832,-360.5 710,-360.5"/>
<text text-anchor="middle" x="771" y="-367.5" font-family="Helvetica,sans-Serif" font-size="10.00">TPCBase/PadSecPos.h</text>
</a>
</g>
</g>
<!-- Node4&#45;&gt;Node24 -->
<g id="edge25" class="edge"><title>Node4&#45;&gt;Node24</title>
<path fill="none" stroke="midnightblue" d="M966.898,-472.436C997.886,-461.191 1042.11,-440.034 1022,-416 1016.08,-408.926 911.489,-391.991 839.208,-381.032"/>
<polygon fill="midnightblue" stroke="midnightblue" points="839.647,-377.558 829.237,-379.527 838.602,-384.48 839.647,-377.558"/>
</g>
<!-- Node25 -->
<g id="node25" class="node"><title>Node25</title>
<g id="a_node25"><a xlink:href="../../d3/dd6/Sector_8h.html" target="_top" xlink:title="TPCBase/Sector.h">
<polygon fill="none" stroke="black" points="913.5,-248.5 913.5,-267.5 1012.5,-267.5 1012.5,-248.5 913.5,-248.5"/>
<text text-anchor="middle" x="963" y="-255.5" font-family="Helvetica,sans-Serif" font-size="10.00">TPCBase/Sector.h</text>
</a>
</g>
</g>
<!-- Node4&#45;&gt;Node25 -->
<g id="edge51" class="edge"><title>Node4&#45;&gt;Node25</title>
<path fill="none" stroke="midnightblue" d="M991.79,-473.677C1018.75,-467.544 1050.65,-456.35 1073,-436 1093.15,-417.65 1092.32,-406.658 1098,-380 1109.53,-325.911 1041.63,-289.069 997.909,-271.279"/>
<polygon fill="midnightblue" stroke="midnightblue" points="999.036,-267.962 988.448,-267.571 996.481,-274.479 999.036,-267.962"/>
</g>
<!-- Node27 -->
<g id="node27" class="node"><title>Node27</title>
<g id="a_node27"><a xlink:href="../../da/d61/PadROCPos_8h.html" target="_top" xlink:title="TPCBase/PadROCPos.h">
<polygon fill="none" stroke="black" points="850,-360.5 850,-379.5 978,-379.5 978,-360.5 850,-360.5"/>
<text text-anchor="middle" x="914" y="-367.5" font-family="Helvetica,sans-Serif" font-size="10.00">TPCBase/PadROCPos.h</text>
</a>
</g>
</g>
<!-- Node4&#45;&gt;Node27 -->
<g id="edge30" class="edge"><title>Node4&#45;&gt;Node27</title>
<path fill="none" stroke="midnightblue" d="M988.232,-472.476C1028.93,-463.066 1077.41,-445.244 1056,-416 1045.5,-401.661 1005.35,-389.749 970.41,-381.79"/>
<polygon fill="midnightblue" stroke="midnightblue" points="970.767,-378.285 960.248,-379.55 969.26,-385.12 970.767,-378.285"/>
</g>
<!-- Node29 -->
<g id="node29" class="node"><title>Node29</title>
<g id="a_node29"><a xlink:href="../../d3/d54/DigitPos_8h.html" target="_top" xlink:title="TPCBase/DigitPos.h">
<polygon fill="none" stroke="black" points="655,-416.5 655,-435.5 763,-435.5 763,-416.5 655,-416.5"/>
<text text-anchor="middle" x="709" y="-423.5" font-family="Helvetica,sans-Serif" font-size="10.00">TPCBase/DigitPos.h</text>
</a>
</g>
</g>
<!-- Node4&#45;&gt;Node29 -->
<g id="edge36" class="edge"><title>Node4&#45;&gt;Node29</title>
<path fill="none" stroke="midnightblue" d="M903.397,-472.444C863.269,-463.063 798.802,-447.993 755.215,-437.804"/>
<polygon fill="midnightblue" stroke="midnightblue" points="755.966,-434.385 745.431,-435.516 754.372,-441.201 755.966,-434.385"/>
</g>
<!-- Node31 -->
<g id="node31" class="node"><title>Node31</title>
<g id="a_node31"><a xlink:href="../../d1/d1f/FECInfo_8h.html" target="_top" xlink:title="TPCBase/FECInfo.h">
<polygon fill="none" stroke="black" points="1110.5,-248.5 1110.5,-267.5 1217.5,-267.5 1217.5,-248.5 1110.5,-248.5"/>
<text text-anchor="middle" x="1164" y="-255.5" font-family="Helvetica,sans-Serif" font-size="10.00">TPCBase/FECInfo.h</text>
</a>
</g>
</g>
<!-- Node4&#45;&gt;Node31 -->
<g id="edge44" class="edge"><title>Node4&#45;&gt;Node31</title>
<path fill="none" stroke="midnightblue" d="M991.707,-477.56C1024.89,-472.812 1066.88,-461.719 1095,-436 1142,-393.017 1157.35,-314.17 1162.06,-278.02"/>
<polygon fill="midnightblue" stroke="midnightblue" points="1165.56,-278.221 1163.24,-267.883 1158.61,-277.411 1165.56,-278.221"/>
</g>
<!-- Node32 -->
<g id="node32" class="node"><title>Node32</title>
<g id="a_node32"><a xlink:href="../../da/d9d/PadRegionInfo_8h.html" target="_top" xlink:title="TPCBase/PadRegionInfo.h">
<polygon fill="none" stroke="black" points="463.5,-416.5 463.5,-435.5 598.5,-435.5 598.5,-416.5 463.5,-416.5"/>
<text text-anchor="middle" x="531" y="-423.5" font-family="Helvetica,sans-Serif" font-size="10.00">TPCBase/PadRegionInfo.h</text>
</a>
</g>
</g>
<!-- Node4&#45;&gt;Node32 -->
<g id="edge46" class="edge"><title>Node4&#45;&gt;Node32</title>
<path fill="none" stroke="midnightblue" d="M888.425,-473.324C885.236,-472.87 882.075,-472.426 879,-472 786.256,-459.163 679.442,-445.52 608.879,-436.666"/>
<polygon fill="midnightblue" stroke="midnightblue" points="609.095,-433.166 598.738,-435.395 608.225,-440.111 609.095,-433.166"/>
</g>
<!-- Node33 -->
<g id="node33" class="node"><title>Node33</title>
<g id="a_node33"><a xlink:href="../../d6/d42/PartitionInfo_8h.html" target="_top" xlink:title="TPCBase/PartitionInfo.h">
<polygon fill="none" stroke="black" points="837.5,-416.5 837.5,-435.5 960.5,-435.5 960.5,-416.5 837.5,-416.5"/>
<text text-anchor="middle" x="899" y="-423.5" font-family="Helvetica,sans-Serif" font-size="10.00">TPCBase/PartitionInfo.h</text>
</a>
</g>
</g>
<!-- Node4&#45;&gt;Node33 -->
<g id="edge50" class="edge"><title>Node4&#45;&gt;Node33</title>
<path fill="none" stroke="midnightblue" d="M933.23,-472.083C927.438,-464.455 918.942,-453.264 911.862,-443.941"/>
<polygon fill="midnightblue" stroke="midnightblue" points="914.479,-441.599 905.644,-435.751 908.904,-445.832 914.479,-441.599"/>
</g>
<!-- Node10&#45;&gt;Node9 -->
<g id="edge10" class="edge"><title>Node10&#45;&gt;Node9</title>
<path fill="none" stroke="midnightblue" d="M702.73,-194.593C622.864,-183.535 461.047,-161.13 391.725,-151.531"/>
<polygon fill="midnightblue" stroke="midnightblue" points="391.805,-148.009 381.42,-150.104 390.845,-154.943 391.805,-148.009"/>
</g>
<!-- Node11 -->
<g id="node11" class="node"><title>Node11</title>
<g id="a_node11"><a xlink:href="../../d2/dd0/Cartesian2D_8h.html" target="_top" xlink:title="MathUtils/Cartesian2D.h">
<polygon fill="none" stroke="black" points="1051.5,-74.5 1051.5,-93.5 1176.5,-93.5 1176.5,-74.5 1051.5,-74.5"/>
<text text-anchor="middle" x="1114" y="-81.5" font-family="Helvetica,sans-Serif" font-size="10.00">MathUtils/Cartesian2D.h</text>
</a>
</g>
</g>
<!-- Node10&#45;&gt;Node11 -->
<g id="edge11" class="edge"><title>Node10&#45;&gt;Node11</title>
<path fill="none" stroke="midnightblue" d="M775.839,-192.47C840.307,-171.982 1003.96,-119.97 1077.38,-96.6379"/>
<polygon fill="midnightblue" stroke="midnightblue" points="1078.65,-99.9067 1087.12,-93.5423 1076.53,-93.2355 1078.65,-99.9067"/>
</g>
<!-- Node14 -->
<g id="node14" class="node"><title>Node14</title>
<g id="a_node14"><a xlink:href="../../dd/d76/Cartesian3D_8h.html" target="_top" xlink:title="MathUtils/Cartesian3D.h">
<polygon fill="none" stroke="black" points="614.5,-136.5 614.5,-155.5 739.5,-155.5 739.5,-136.5 614.5,-136.5"/>
<text text-anchor="middle" x="677" y="-143.5" font-family="Helvetica,sans-Serif" font-size="10.00">MathUtils/Cartesian3D.h</text>
</a>
</g>
</g>
<!-- Node10&#45;&gt;Node14 -->
<g id="edge14" class="edge"><title>Node10&#45;&gt;Node14</title>
<path fill="none" stroke="midnightblue" d="M737.432,-192.324C726.58,-184.185 710.119,-171.839 697.117,-162.087"/>
<polygon fill="midnightblue" stroke="midnightblue" points="698.879,-159.034 688.779,-155.834 694.679,-164.634 698.879,-159.034"/>
</g>
<!-- Node12 -->
<g id="node12" class="node"><title>Node12</title>
<polygon fill="none" stroke="#bfbfbf" points="947.5,-1 947.5,-31 1098.5,-31 1098.5,-1 947.5,-1"/>
<text text-anchor="start" x="955.5" y="-19" font-family="Helvetica,sans-Serif" font-size="10.00">Math/GenVector/Displacement</text>
<text text-anchor="middle" x="1023" y="-8" font-family="Helvetica,sans-Serif" font-size="10.00">Vector2D.h</text>
</g>
<!-- Node11&#45;&gt;Node12 -->
<g id="edge12" class="edge"><title>Node11&#45;&gt;Node12</title>
<path fill="none" stroke="midnightblue" d="M1102.1,-74.3717C1089.22,-65.0286 1068.22,-49.7966 1051.09,-37.375"/>
<polygon fill="midnightblue" stroke="midnightblue" points="1052.7,-34.2194 1042.55,-31.1815 1048.59,-39.8859 1052.7,-34.2194"/>
</g>
<!-- Node13 -->
<g id="node13" class="node"><title>Node13</title>
<polygon fill="none" stroke="#bfbfbf" points="1117,-6.5 1117,-25.5 1293,-25.5 1293,-6.5 1117,-6.5"/>
<text text-anchor="middle" x="1205" y="-13.5" font-family="Helvetica,sans-Serif" font-size="10.00">Math/GenVector/PositionVector2D.h</text>
</g>
<!-- Node11&#45;&gt;Node13 -->
<g id="edge13" class="edge"><title>Node11&#45;&gt;Node13</title>
<path fill="none" stroke="midnightblue" d="M1125.9,-74.3717C1140.88,-63.5015 1166.86,-44.6602 1184.94,-31.5474"/>
<polygon fill="midnightblue" stroke="midnightblue" points="1187.06,-34.3349 1193.1,-25.6305 1182.95,-28.6684 1187.06,-34.3349"/>
</g>
<!-- Node14&#45;&gt;Node11 -->
<g id="edge22" class="edge"><title>Node14&#45;&gt;Node11</title>
<path fill="none" stroke="midnightblue" d="M739.549,-138.879C812.423,-131.381 936.333,-117.49 1042,-100 1049.79,-98.7099 1058.03,-97.1671 1066.03,-95.5692"/>
<polygon fill="midnightblue" stroke="midnightblue" points="1066.9,-98.9638 1076,-93.5306 1065.5,-92.1059 1066.9,-98.9638"/>
</g>
<!-- Node15 -->
<g id="node15" class="node"><title>Node15</title>
<polygon fill="none" stroke="#bfbfbf" points="531.5,-74.5 531.5,-93.5 680.5,-93.5 680.5,-74.5 531.5,-74.5"/>
<text text-anchor="middle" x="606" y="-81.5" font-family="Helvetica,sans-Serif" font-size="10.00">Math/GenVector/Rotation3D.h</text>
</g>
<!-- Node14&#45;&gt;Node15 -->
<g id="edge15" class="edge"><title>Node14&#45;&gt;Node15</title>
<path fill="none" stroke="midnightblue" d="M666.827,-136.403C655.65,-126.958 637.483,-111.606 623.909,-100.134"/>
<polygon fill="midnightblue" stroke="midnightblue" points="626.051,-97.3619 616.154,-93.5806 621.533,-102.709 626.051,-97.3619"/>
</g>
<!-- Node16 -->
<g id="node16" class="node"><title>Node16</title>
<polygon fill="none" stroke="#bfbfbf" points="699,-74.5 699,-93.5 855,-93.5 855,-74.5 699,-74.5"/>
<text text-anchor="middle" x="777" y="-81.5" font-family="Helvetica,sans-Serif" font-size="10.00">Math/GenVector/Transform3D.h</text>
</g>
<!-- Node14&#45;&gt;Node16 -->
<g id="edge16" class="edge"><title>Node14&#45;&gt;Node16</title>
<path fill="none" stroke="midnightblue" d="M691.328,-136.403C707.664,-126.601 734.602,-110.439 753.912,-98.8526"/>
<polygon fill="midnightblue" stroke="midnightblue" points="755.925,-101.727 762.699,-93.5806 752.323,-95.7244 755.925,-101.727"/>
</g>
<!-- Node17 -->
<g id="node17" class="node"><title>Node17</title>
<polygon fill="none" stroke="#bfbfbf" points="873,-74.5 873,-93.5 1033,-93.5 1033,-74.5 873,-74.5"/>
<text text-anchor="middle" x="953" y="-81.5" font-family="Helvetica,sans-Serif" font-size="10.00">Math/GenVector/Translation3D.h</text>
</g>
<!-- Node14&#45;&gt;Node17 -->
<g id="edge17" class="edge"><title>Node14&#45;&gt;Node17</title>
<path fill="none" stroke="midnightblue" d="M716.251,-136.467C765.606,-125.738 850.348,-107.316 903.93,-95.6673"/>
<polygon fill="midnightblue" stroke="midnightblue" points="904.856,-99.0479 913.884,-93.5034 903.369,-92.2076 904.856,-99.0479"/>
</g>
<!-- Node18 -->
<g id="node18" class="node"><title>Node18</title>
<polygon fill="none" stroke="#bfbfbf" points="0,-74.5 0,-93.5 56,-93.5 56,-74.5 0,-74.5"/>
<text text-anchor="middle" x="28" y="-81.5" font-family="Helvetica,sans-Serif" font-size="10.00">Rtypes.h</text>
</g>
<!-- Node14&#45;&gt;Node18 -->
<g id="edge18" class="edge"><title>Node14&#45;&gt;Node18</title>
<path fill="none" stroke="midnightblue" d="M614.337,-142.865C479.994,-137.886 168.1,-124.062 65,-100 61.9266,-99.2827 58.7761,-98.3461 55.673,-97.2909"/>
<polygon fill="midnightblue" stroke="midnightblue" points="56.6661,-93.924 46.0751,-93.639 54.1768,-100.466 56.6661,-93.924"/>
</g>
<!-- Node19 -->
<g id="node19" class="node"><title>Node19</title>
<polygon fill="none" stroke="#bfbfbf" points="74,-74.5 74,-93.5 150,-93.5 150,-74.5 74,-74.5"/>
<text text-anchor="middle" x="112" y="-81.5" font-family="Helvetica,sans-Serif" font-size="10.00">TGeoMatrix.h</text>
</g>
<!-- Node14&#45;&gt;Node19 -->
<g id="edge19" class="edge"><title>Node14&#45;&gt;Node19</title>
<path fill="none" stroke="midnightblue" d="M614.172,-144.028C516.073,-141.508 320.972,-132.461 159,-100 154.436,-99.0853 149.692,-97.8831 145.05,-96.5565"/>
<polygon fill="midnightblue" stroke="midnightblue" points="145.746,-93.1091 135.159,-93.5173 143.69,-99.8003 145.746,-93.1091"/>
</g>
<!-- Node20 -->
<g id="node20" class="node"><title>Node20</title>
<polygon fill="none" stroke="#bfbfbf" points="168.5,-69 168.5,-99 319.5,-99 319.5,-69 168.5,-69"/>
<text text-anchor="start" x="176.5" y="-87" font-family="Helvetica,sans-Serif" font-size="10.00">Math/GenVector/Displacement</text>
<text text-anchor="middle" x="244" y="-76" font-family="Helvetica,sans-Serif" font-size="10.00">Vector3D.h</text>
</g>
<!-- Node14&#45;&gt;Node20 -->
<g id="edge20" class="edge"><title>Node14&#45;&gt;Node20</title>
<path fill="none" stroke="midnightblue" d="M614.327,-137.777C546.671,-129.781 435.498,-116.068 329.431,-100.022"/>
<polygon fill="midnightblue" stroke="midnightblue" points="329.927,-96.5568 319.514,-98.5121 328.873,-103.477 329.927,-96.5568"/>
</g>
<!-- Node21 -->
<g id="node21" class="node"><title>Node21</title>
<polygon fill="none" stroke="#bfbfbf" points="338,-74.5 338,-93.5 514,-93.5 514,-74.5 338,-74.5"/>
<text text-anchor="middle" x="426" y="-81.5" font-family="Helvetica,sans-Serif" font-size="10.00">Math/GenVector/PositionVector3D.h</text>
</g>
<!-- Node14&#45;&gt;Node21 -->
<g id="edge21" class="edge"><title>Node14&#45;&gt;Node21</title>
<path fill="none" stroke="midnightblue" d="M641.304,-136.467C596.7,-125.805 520.314,-107.545 471.54,-95.886"/>
<polygon fill="midnightblue" stroke="midnightblue" points="472.112,-92.4243 461.572,-93.5034 470.485,-99.2325 472.112,-92.4243"/>
</g>
<!-- Node14&#45;&gt;Node22 -->
<g id="edge23" class="edge"><title>Node14&#45;&gt;Node22</title>
<path fill="none" stroke="midnightblue" d="M739.736,-145.374C836.631,-144.632 1027.92,-137.9 1185,-100 1188.07,-99.2598 1191.21,-98.3084 1194.32,-97.2443"/>
<polygon fill="midnightblue" stroke="midnightblue" points="1195.82,-100.418 1203.91,-93.5821 1193.32,-93.8779 1195.82,-100.418"/>
</g>
<!-- Node24&#45;&gt;Node23 -->
<g id="edge29" class="edge"><title>Node24&#45;&gt;Node23</title>
<path fill="none" stroke="midnightblue" d="M745.172,-360.444C717.751,-351.359 674.223,-336.939 643.568,-326.783"/>
<polygon fill="midnightblue" stroke="midnightblue" points="644.3,-323.339 633.707,-323.516 642.099,-329.984 644.3,-323.339"/>
</g>
<!-- Node24&#45;&gt;Node25 -->
<g id="edge26" class="edge"><title>Node24&#45;&gt;Node25</title>
<path fill="none" stroke="midnightblue" d="M784.213,-360.497C804.099,-347.791 843.016,-323.281 877,-304 896.603,-292.878 919.197,-281.094 936.306,-272.376"/>
<polygon fill="midnightblue" stroke="midnightblue" points="938.344,-275.267 945.682,-267.625 935.18,-269.023 938.344,-275.267"/>
</g>
<!-- Node25&#45;&gt;Node10 -->
<g id="edge28" class="edge"><title>Node25&#45;&gt;Node10</title>
<path fill="none" stroke="midnightblue" d="M929.091,-248.444C892.151,-239.122 832.946,-224.183 792.582,-213.997"/>
<polygon fill="midnightblue" stroke="midnightblue" points="793.303,-210.57 782.75,-211.516 791.59,-217.357 793.303,-210.57"/>
</g>
<!-- Node26 -->
<g id="node26" class="node"><title>Node26</title>
<g id="a_node26"><a xlink:href="../../d6/d51/TPC_2base_2include_2TPCBase_2Constants_8h.html" target="_top" xlink:title="TPCBase/Constants.h">
<polygon fill="none" stroke="black" points="905,-192.5 905,-211.5 1021,-211.5 1021,-192.5 905,-192.5"/>
<text text-anchor="middle" x="963" y="-199.5" font-family="Helvetica,sans-Serif" font-size="10.00">TPCBase/Constants.h</text>
</a>
</g>
</g>
<!-- Node25&#45;&gt;Node26 -->
<g id="edge27" class="edge"><title>Node25&#45;&gt;Node26</title>
<path fill="none" stroke="midnightblue" d="M963,-248.083C963,-241.006 963,-230.861 963,-221.986"/>
<polygon fill="midnightblue" stroke="midnightblue" points="966.5,-221.751 963,-211.751 959.5,-221.751 966.5,-221.751"/>
</g>
<!-- Node27&#45;&gt;Node10 -->
<g id="edge31" class="edge"><title>Node27&#45;&gt;Node10</title>
<path fill="none" stroke="midnightblue" d="M892.692,-360.416C875.297,-352.689 850.773,-340.083 833,-324 799.003,-293.235 771.423,-246.21 757.948,-220.793"/>
<polygon fill="midnightblue" stroke="midnightblue" points="760.905,-218.891 753.201,-211.616 754.687,-222.107 760.905,-218.891"/>
</g>
<!-- Node27&#45;&gt;Node23 -->
<g id="edge35" class="edge"><title>Node27&#45;&gt;Node23</title>
<path fill="none" stroke="midnightblue" d="M865.513,-360.444C811.461,-350.905 724.072,-335.483 666.327,-325.293"/>
<polygon fill="midnightblue" stroke="midnightblue" points="666.716,-321.808 656.26,-323.516 665.499,-328.701 666.716,-321.808"/>
</g>
<!-- Node28 -->
<g id="node28" class="node"><title>Node28</title>
<g id="a_node28"><a xlink:href="../../dc/d14/ROC_8h.html" target="_top" xlink:title="TPCBase/ROC.h">
<polygon fill="none" stroke="black" points="886.5,-304.5 886.5,-323.5 979.5,-323.5 979.5,-304.5 886.5,-304.5"/>
<text text-anchor="middle" x="933" y="-311.5" font-family="Helvetica,sans-Serif" font-size="10.00">TPCBase/ROC.h</text>
</a>
</g>
</g>
<!-- Node27&#45;&gt;Node28 -->
<g id="edge32" class="edge"><title>Node27&#45;&gt;Node28</title>
<path fill="none" stroke="midnightblue" d="M917.137,-360.083C919.683,-352.849 923.356,-342.409 926.527,-333.397"/>
<polygon fill="midnightblue" stroke="midnightblue" points="929.903,-334.346 929.921,-323.751 923.3,-332.023 929.903,-334.346"/>
</g>
<!-- Node28&#45;&gt;Node10 -->
<g id="edge33" class="edge"><title>Node28&#45;&gt;Node10</title>
<path fill="none" stroke="midnightblue" d="M925.355,-304.362C912.979,-290.811 887.283,-264.412 861,-248 838.24,-233.788 810.226,-222.534 787.91,-214.836"/>
<polygon fill="midnightblue" stroke="midnightblue" points="789.006,-211.512 778.412,-211.653 786.782,-218.149 789.006,-211.512"/>
</g>
<!-- Node28&#45;&gt;Node25 -->
<g id="edge34" class="edge"><title>Node28&#45;&gt;Node25</title>
<path fill="none" stroke="midnightblue" d="M937.954,-304.083C942.104,-296.613 948.153,-285.724 953.267,-276.52"/>
<polygon fill="midnightblue" stroke="midnightblue" points="956.341,-278.192 958.138,-267.751 950.222,-274.793 956.341,-278.192"/>
</g>
<!-- Node29&#45;&gt;Node10 -->
<g id="edge37" class="edge"><title>Node29&#45;&gt;Node10</title>
<path fill="none" stroke="midnightblue" d="M706.391,-416.149C703.045,-403.622 698.009,-380.016 701,-360 708.733,-308.258 730.053,-250.003 741.501,-221.174"/>
<polygon fill="midnightblue" stroke="midnightblue" points="744.852,-222.223 745.356,-211.64 738.362,-219.599 744.852,-222.223"/>
</g>
<!-- Node29&#45;&gt;Node23 -->
<g id="edge42" class="edge"><title>Node29&#45;&gt;Node23</title>
<path fill="none" stroke="midnightblue" d="M701.075,-416.368C684.186,-397.974 644.425,-354.671 622.739,-331.052"/>
<polygon fill="midnightblue" stroke="midnightblue" points="625.23,-328.59 615.888,-323.591 620.074,-333.325 625.23,-328.59"/>
</g>
<!-- Node29&#45;&gt;Node24 -->
<g id="edge43" class="edge"><title>Node29&#45;&gt;Node24</title>
<path fill="none" stroke="midnightblue" d="M718.961,-416.324C728.127,-408.341 741.937,-396.313 753.028,-386.653"/>
<polygon fill="midnightblue" stroke="midnightblue" points="755.615,-389.041 760.857,-379.834 751.018,-383.762 755.615,-389.041"/>
</g>
<!-- Node30 -->
<g id="node30" class="node"><title>Node30</title>
<g id="a_node30"><a xlink:href="../../df/d26/CRU_8h.html" target="_top" xlink:title="TPCBase/CRU.h">
<polygon fill="none" stroke="black" points="996.5,-360.5 996.5,-379.5 1089.5,-379.5 1089.5,-360.5 996.5,-360.5"/>
<text text-anchor="middle" x="1043" y="-367.5" font-family="Helvetica,sans-Serif" font-size="10.00">TPCBase/CRU.h</text>
</a>
</g>
</g>
<!-- Node29&#45;&gt;Node30 -->
<g id="edge38" class="edge"><title>Node29&#45;&gt;Node30</title>
<path fill="none" stroke="midnightblue" d="M761.923,-416.444C823.083,-406.556 923.343,-390.346 986.128,-380.195"/>
<polygon fill="midnightblue" stroke="midnightblue" points="986.939,-383.609 996.252,-378.558 985.822,-376.699 986.939,-383.609"/>
</g>
<!-- Node30&#45;&gt;Node10 -->
<g id="edge39" class="edge"><title>Node30&#45;&gt;Node10</title>
<path fill="none" stroke="midnightblue" d="M1002.75,-360.466C960.856,-351.167 898.422,-336.011 877,-324 863.968,-316.693 796.233,-250.021 764.914,-218.885"/>
<polygon fill="midnightblue" stroke="midnightblue" points="767.347,-216.368 757.791,-211.792 762.407,-221.329 767.347,-216.368"/>
</g>
<!-- Node30&#45;&gt;Node25 -->
<g id="edge40" class="edge"><title>Node30&#45;&gt;Node25</title>
<path fill="none" stroke="midnightblue" d="M1036.72,-360.368C1023.52,-342.215 992.674,-299.802 975.356,-275.99"/>
<polygon fill="midnightblue" stroke="midnightblue" points="977.961,-273.62 969.248,-267.591 972.299,-277.737 977.961,-273.62"/>
</g>
<!-- Node30&#45;&gt;Node28 -->
<g id="edge41" class="edge"><title>Node30&#45;&gt;Node28</title>
<path fill="none" stroke="midnightblue" d="M1025.33,-360.324C1007.61,-351.625 980.097,-338.12 959.712,-328.113"/>
<polygon fill="midnightblue" stroke="midnightblue" points="961.149,-324.919 950.63,-323.655 958.064,-331.203 961.149,-324.919"/>
</g>
<!-- Node31&#45;&gt;Node22 -->
<g id="edge45" class="edge"><title>Node31&#45;&gt;Node22</title>
<path fill="none" stroke="midnightblue" d="M1166.96,-248.234C1175.99,-221.433 1203.39,-140.178 1215.79,-103.415"/>
<polygon fill="midnightblue" stroke="midnightblue" points="1219.24,-104.138 1219.12,-93.5442 1212.61,-101.902 1219.24,-104.138"/>
</g>
<!-- Node32&#45;&gt;Node6 -->
<g id="edge47" class="edge"><title>Node32&#45;&gt;Node6</title>
<path fill="none" stroke="midnightblue" d="M519.753,-416.324C509.203,-408.185 493.199,-395.839 480.558,-386.087"/>
<polygon fill="midnightblue" stroke="midnightblue" points="482.507,-383.171 472.451,-379.834 478.231,-388.713 482.507,-383.171"/>
</g>
<!-- Node32&#45;&gt;Node10 -->
<g id="edge48" class="edge"><title>Node32&#45;&gt;Node10</title>
<path fill="none" stroke="midnightblue" d="M529.516,-416.413C526.336,-395.152 521.042,-339.239 546,-304 581.577,-253.766 649.436,-227.216 696.864,-214.159"/>
<polygon fill="midnightblue" stroke="midnightblue" points="697.88,-217.511 706.655,-211.574 696.093,-210.743 697.88,-217.511"/>
</g>
<!-- Node32&#45;&gt;Node23 -->
<g id="edge49" class="edge"><title>Node32&#45;&gt;Node23</title>
<path fill="none" stroke="midnightblue" d="M537.042,-416.368C549.749,-398.215 579.439,-355.802 596.107,-331.99"/>
<polygon fill="midnightblue" stroke="midnightblue" points="599.119,-333.791 601.986,-323.591 593.384,-329.777 599.119,-333.791"/>
</g>
</g>
</svg>
        <g id="navigator" transform="translate(0 0)" fill="#404254">
                <rect fill="#f2f5e9" fill-opacity="0.5" stroke="#606060" stroke-width=".5" x="0" y="0" width="60" height="60"/>
                <use id="zoomplus" xlink:href="#zoomPlus" x="17" y="9" onmousedown="handleZoom(evt,'in')"/>
                <use id="zoomminus" xlink:href="#zoomMin" x="42" y="9" onmousedown="handleZoom(evt,'out')"/>
                <use id="reset" xlink:href="#resetDef" x="30" y="36" onmousedown="handleReset()"/>
                <g id="arrowUp" xlink:href="#dirArrow" transform="translate(30 24)" onmousedown="handlePan(0,-1)">
                  <use xlink:href="#rim" fill="#404040">
                        <set attributeName="fill" to="#808080" begin="arrowUp.mouseover" end="arrowUp.mouseout"/>
                  </use>
                  <path fill="none" stroke="white" stroke-width="1.5" d="M0,-3.0v7 M-2.5,-0.5L0,-3.0L2.5,-0.5"/>
                </g>
                <g id="arrowRight" xlink:href="#dirArrow" transform="rotate(90) translate(36 -43)" onmousedown="handlePan(1,0)">
                  <use xlink:href="#rim" fill="#404040">
                        <set attributeName="fill" to="#808080" begin="arrowRight.mouseover" end="arrowRight.mouseout"/>
                  </use>
                  <path fill="none" stroke="white" stroke-width="1.5" d="M0,-3.0v7 M-2.5,-0.5L0,-3.0L2.5,-0.5"/>
                </g>
                <g id="arrowDown" xlink:href="#dirArrow" transform="rotate(180) translate(-30 -48)" onmousedown="handlePan(0,1)">
                  <use xlink:href="#rim" fill="#404040">
                        <set attributeName="fill" to="#808080" begin="arrowDown.mouseover" end="arrowDown.mouseout"/>
                  </use>
                  <path fill="none" stroke="white" stroke-width="1.5" d="M0,-3.0v7 M-2.5,-0.5L0,-3.0L2.5,-0.5"/>
                </g>
                <g id="arrowLeft" xlink:href="#dirArrow" transform="rotate(270) translate(-36 17)" onmousedown="handlePan(-1,0)">
                  <use xlink:href="#rim" fill="#404040">
                        <set attributeName="fill" to="#808080" begin="arrowLeft.mouseover" end="arrowLeft.mouseout"/>
                  </use>
                  <path fill="none" stroke="white" stroke-width="1.5" d="M0,-3.0v7 M-2.5,-0.5L0,-3.0L2.5,-0.5"/>
                </g>
        </g>
        <svg viewBox="0 0 15 15" width="100%" height="30px" preserveAspectRatio="xMaxYMin meet">
         <g id="arrow_out" transform="scale(0.3 0.3)">
          <a xlink:href="PadResponse_8cxx__incl_org.svg" target="_base">
           <rect id="button" ry="5" rx="5" y="6" x="6" height="38" width="38"
                fill="#f2f5e9" fill-opacity="0.5" stroke="#606060" stroke-width="1.0"/>
           <path id="arrow"
             d="M 11.500037,31.436501 C 11.940474,20.09759 22.043105,11.32322 32.158766,21.979434 L 37.068811,17.246167 C 37.068811,17.246167 37.088388,32 37.088388,32 L 22.160133,31.978069 C 22.160133,31.978069 26.997745,27.140456 26.997745,27.140456 C 18.528582,18.264221 13.291696,25.230495 11.500037,31.436501 z"
             style="fill:#404040;"/>
          </a>
         </g>
        </svg>
</svg>
