<?xml version="1.0" encoding="UTF-8" standalone="no"?>
<!DOCTYPE svg PUBLIC "-//W3C//DTD SVG 1.1//EN"
 "http://www.w3.org/Graphics/SVG/1.1/DTD/svg11.dtd">
<!-- Generated by graphviz version 2.36.0 (20140111.2315)
 -->
<!-- Title: o2::AliceHLT::RawClusterData Pages: 1 -->
<svg width="260pt" height="430pt"
 viewBox="0.00 0.00 260.00 430.00" xmlns="http://www.w3.org/2000/svg" xmlns:xlink="http://www.w3.org/1999/xlink">
<g id="graph0" class="graph" transform="scale(1 1) rotate(0) translate(4 426)">
<title>o2::AliceHLT::RawClusterData</title>
<!-- Node1 -->
<g id="node1" class="node"><title>Node1</title>
<polygon fill="#bfbfbf" stroke="black" points="100,-0.5 100,-57.5 252,-57.5 252,-0.5 100,-0.5"/>
<text text-anchor="middle" x="176" y="-45.5" font-family="Helvetica,sans-Serif" font-size="10.00">o2::AliceHLT::RawClusterData</text>
<polyline fill="none" stroke="black" points="100,-38.5 252,-38.5 "/>
<text text-anchor="middle" x="176" y="-26.5" font-family="Helvetica,sans-Serif" font-size="10.00"> </text>
<polyline fill="none" stroke="black" points="100,-19.5 252,-19.5 "/>
<text text-anchor="middle" x="176" y="-7.5" font-family="Helvetica,sans-Serif" font-size="10.00"> </text>
</g>
<!-- Node2 -->
<g id="node2" class="node"><title>Node2</title>
<g id="a_node2"><a xlink:href="../../d7/d0a/structo2_1_1AliceHLT_1_1RawCluster.html" target="_top" xlink:title="{o2::AliceHLT::RawCluster\n||+ GetPadRow()\l+ GetPad()\l+ GetTime()\l+ GetSigmaPad2()\l+ GetSigmaTime2()\l+ GetCharge()\l+ GetQMax()\l+ GetFlagSplitPad()\l+ GetFlagSplitTime()\l+ GetFlagSplitAny()\l+ GetFlags()\l}">
<polygon fill="none" stroke="black" points="38.5,-116.5 38.5,-283.5 169.5,-283.5 169.5,-116.5 38.5,-116.5"/>
<text text-anchor="middle" x="104" y="-271.5" font-family="Helvetica,sans-Serif" font-size="10.00">o2::AliceHLT::RawCluster</text>
<polyline fill="none" stroke="black" points="38.5,-264.5 169.5,-264.5 "/>
<text text-anchor="middle" x="104" y="-252.5" font-family="Helvetica,sans-Serif" font-size="10.00"> </text>
<polyline fill="none" stroke="black" points="38.5,-245.5 169.5,-245.5 "/>
<text text-anchor="start" x="46.5" y="-233.5" font-family="Helvetica,sans-Serif" font-size="10.00">+ GetPadRow()</text>
<text text-anchor="start" x="46.5" y="-222.5" font-family="Helvetica,sans-Serif" font-size="10.00">+ GetPad()</text>
<text text-anchor="start" x="46.5" y="-211.5" font-family="Helvetica,sans-Serif" font-size="10.00">+ GetTime()</text>
<text text-anchor="start" x="46.5" y="-200.5" font-family="Helvetica,sans-Serif" font-size="10.00">+ GetSigmaPad2()</text>
<text text-anchor="start" x="46.5" y="-189.5" font-family="Helvetica,sans-Serif" font-size="10.00">+ GetSigmaTime2()</text>
<text text-anchor="start" x="46.5" y="-178.5" font-family="Helvetica,sans-Serif" font-size="10.00">+ GetCharge()</text>
<text text-anchor="start" x="46.5" y="-167.5" font-family="Helvetica,sans-Serif" font-size="10.00">+ GetQMax()</text>
<text text-anchor="start" x="46.5" y="-156.5" font-family="Helvetica,sans-Serif" font-size="10.00">+ GetFlagSplitPad()</text>
<text text-anchor="start" x="46.5" y="-145.5" font-family="Helvetica,sans-Serif" font-size="10.00">+ GetFlagSplitTime()</text>
<text text-anchor="start" x="46.5" y="-134.5" font-family="Helvetica,sans-Serif" font-size="10.00">+ GetFlagSplitAny()</text>
<text text-anchor="start" x="46.5" y="-123.5" font-family="Helvetica,sans-Serif" font-size="10.00">+ GetFlags()</text>
</a>
</g>
</g>
<!-- Node2&#45;&gt;Node1 -->
<g id="edge1" class="edge"><title>Node2&#45;&gt;Node1</title>
<path fill="none" stroke="#404040" d="M118.054,-116.493C122.121,-102.527 127.333,-88.5117 134,-76 135.544,-73.1026 137.312,-70.2454 139.23,-67.4598"/>
<polygon fill="none" stroke="#404040" points="139.386,-67.2572 139.869,-60.0623 146.696,-57.7409 146.213,-64.9358 139.386,-67.2572"/>
<text text-anchor="middle" x="158.5" y="-84.5" font-family="Helvetica,sans-Serif" font-size="10.00"> +fClusters</text>
</g>
<!-- Node3 -->
<g id="node3" class="node"><title>Node3</title>
<g id="a_node3"><a xlink:href="../../d4/dc3/classfloat.html" target="_top" xlink:title="{float\n||}">
<polygon fill="none" stroke="black" points="-0.5,-364.5 -0.5,-421.5 34.5,-421.5 34.5,-364.5 -0.5,-364.5"/>
<text text-anchor="middle" x="17" y="-409.5" font-family="Helvetica,sans-Serif" font-size="10.00">float</text>
<polyline fill="none" stroke="black" points="-0.5,-402.5 34.5,-402.5 "/>
<text text-anchor="middle" x="17" y="-390.5" font-family="Helvetica,sans-Serif" font-size="10.00"> </text>
<polyline fill="none" stroke="black" points="-0.5,-383.5 34.5,-383.5 "/>
<text text-anchor="middle" x="17" y="-371.5" font-family="Helvetica,sans-Serif" font-size="10.00"> </text>
</a>
</g>
</g>
<!-- Node3&#45;&gt;Node2 -->
<g id="edge2" class="edge"><title>Node3&#45;&gt;Node2</title>
<path fill="none" stroke="#404040" d="M20.0314,-364.398C22.703,-346.152 27.5363,-322.001 36,-302 37.0542,-299.509 38.1729,-297.014 39.347,-294.523"/>
<polygon fill="none" stroke="#404040" points="39.4287,-294.361 38.5521,-287.203 44.8221,-283.641 45.6986,-290.799 39.4287,-294.361"/>
<text text-anchor="middle" x="68" y="-338" font-family="Helvetica,sans-Serif" font-size="10.00"> +fTime</text>
<text text-anchor="middle" x="68" y="-327" font-family="Helvetica,sans-Serif" font-size="10.00">+fPad</text>
<text text-anchor="middle" x="68" y="-316" font-family="Helvetica,sans-Serif" font-size="10.00">+fSigmaTime2</text>
<text text-anchor="middle" x="68" y="-305" font-family="Helvetica,sans-Serif" font-size="10.00">+fSigmaPad2</text>
</g>
<!-- Node4 -->
<g id="node4" class="node"><title>Node4</title>
<polygon fill="none" stroke="#bfbfbf" points="78.5,-364.5 78.5,-421.5 129.5,-421.5 129.5,-364.5 78.5,-364.5"/>
<text text-anchor="middle" x="104" y="-409.5" font-family="Helvetica,sans-Serif" font-size="10.00">uint16_t</text>
<polyline fill="none" stroke="#bfbfbf" points="78.5,-402.5 129.5,-402.5 "/>
<text text-anchor="middle" x="104" y="-390.5" font-family="Helvetica,sans-Serif" font-size="10.00"> </text>
<polyline fill="none" stroke="#bfbfbf" points="78.5,-383.5 129.5,-383.5 "/>
<text text-anchor="middle" x="104" y="-371.5" font-family="Helvetica,sans-Serif" font-size="10.00"> </text>
</g>
<!-- Node4&#45;&gt;Node2 -->
<g id="edge3" class="edge"><title>Node4&#45;&gt;Node2</title>
<path fill="none" stroke="#404040" d="M104,-364.227C104,-346 104,-320.991 104,-296.025"/>
<polygon fill="none" stroke="#404040" points="104,-295.802 100,-289.802 104,-283.802 108,-289.802 104,-295.802"/>
<text text-anchor="middle" x="124.5" y="-332.5" font-family="Helvetica,sans-Serif" font-size="10.00"> +fQMax</text>
<text text-anchor="middle" x="124.5" y="-321.5" font-family="Helvetica,sans-Serif" font-size="10.00">+fCharge</text>
<text text-anchor="middle" x="124.5" y="-310.5" font-family="Helvetica,sans-Serif" font-size="10.00">+fFlags</text>
</g>
<!-- Node5 -->
<g id="node5" class="node"><title>Node5</title>
<polygon fill="none" stroke="#bfbfbf" points="148,-364.5 148,-421.5 194,-421.5 194,-364.5 148,-364.5"/>
<text text-anchor="middle" x="171" y="-409.5" font-family="Helvetica,sans-Serif" font-size="10.00">int16_t</text>
<polyline fill="none" stroke="#bfbfbf" points="148,-402.5 194,-402.5 "/>
<text text-anchor="middle" x="171" y="-390.5" font-family="Helvetica,sans-Serif" font-size="10.00"> </text>
<polyline fill="none" stroke="#bfbfbf" points="148,-383.5 194,-383.5 "/>
<text text-anchor="middle" x="171" y="-371.5" font-family="Helvetica,sans-Serif" font-size="10.00"> </text>
</g>
<!-- Node5&#45;&gt;Node2 -->
<g id="edge4" class="edge"><title>Node5&#45;&gt;Node2</title>
<path fill="none" stroke="#404040" d="M165.61,-364.459C161.759,-346.452 156.025,-322.547 149,-302 148.231,-299.752 147.432,-297.486 146.607,-295.208"/>
<polygon fill="none" stroke="#404040" points="146.521,-294.98 140.66,-290.778 142.284,-283.753 148.145,-287.954 146.521,-294.98"/>
<text text-anchor="middle" x="187" y="-321.5" font-family="Helvetica,sans-Serif" font-size="10.00"> +fPadRow</text>
</g>
<!-- Node6 -->
<g id="node6" class="node"><title>Node6</title>
<polygon fill="none" stroke="#bfbfbf" points="187.5,-171.5 187.5,-228.5 238.5,-228.5 238.5,-171.5 187.5,-171.5"/>
<text text-anchor="middle" x="213" y="-216.5" font-family="Helvetica,sans-Serif" font-size="10.00">uint32_t</text>
<polyline fill="none" stroke="#bfbfbf" points="187.5,-209.5 238.5,-209.5 "/>
<text text-anchor="middle" x="213" y="-197.5" font-family="Helvetica,sans-Serif" font-size="10.00"> </text>
<polyline fill="none" stroke="#bfbfbf" points="187.5,-190.5 238.5,-190.5 "/>
<text text-anchor="middle" x="213" y="-178.5" font-family="Helvetica,sans-Serif" font-size="10.00"> </text>
</g>
<!-- Node6&#45;&gt;Node1 -->
<g id="edge5" class="edge"><title>Node6&#45;&gt;Node1</title>
<path fill="none" stroke="#404040" d="M206.973,-171.471C200.899,-143.727 191.467,-100.646 184.607,-69.3114"/>
<polygon fill="none" stroke="#404040" points="184.591,-69.2395 179.4,-64.2338 182.024,-57.5171 187.215,-62.5228 184.591,-69.2395"/>
<text text-anchor="middle" x="212.5" y="-90" font-family="Helvetica,sans-Serif" font-size="10.00"> +fCount</text>
<text text-anchor="middle" x="212.5" y="-79" font-family="Helvetica,sans-Serif" font-size="10.00">+fVersion</text>
</g>
</g>
</svg>
