<?xml version="1.0" encoding="UTF-8" standalone="no"?>
<!DOCTYPE svg PUBLIC "-//W3C//DTD SVG 1.1//EN"
 "http://www.w3.org/Graphics/SVG/1.1/DTD/svg11.dtd">
<!-- Generated by graphviz version 2.36.0 (20140111.2315)
 -->
<!-- Title: ImGuiTextEditState Pages: 1 -->
<svg width="1054pt" height="1182pt"
 viewBox="0.00 0.00 1054.00 1182.00" xmlns="http://www.w3.org/2000/svg" xmlns:xlink="http://www.w3.org/1999/xlink">
<g id="graph0" class="graph" transform="scale(1 1) rotate(0) translate(4 1178)">
<title>ImGuiTextEditState</title>
<!-- Node1 -->
<g id="node1" class="node"><title>Node1</title>
<polygon fill="#bfbfbf" stroke="black" points="503,-0.5 503,-123.5 621,-123.5 621,-0.5 503,-0.5"/>
<text text-anchor="middle" x="562" y="-111.5" font-family="Helvetica,sans-Serif" font-size="10.00">ImGuiTextEditState</text>
<polyline fill="none" stroke="black" points="503,-104.5 621,-104.5 "/>
<text text-anchor="middle" x="562" y="-92.5" font-family="Helvetica,sans-Serif" font-size="10.00"> </text>
<polyline fill="none" stroke="black" points="503,-85.5 621,-85.5 "/>
<text text-anchor="start" x="511" y="-73.5" font-family="Helvetica,sans-Serif" font-size="10.00">+ ImGuiTextEditState()</text>
<text text-anchor="start" x="511" y="-62.5" font-family="Helvetica,sans-Serif" font-size="10.00">+ CursorAnimReset()</text>
<text text-anchor="start" x="511" y="-51.5" font-family="Helvetica,sans-Serif" font-size="10.00">+ CursorClamp()</text>
<text text-anchor="start" x="511" y="-40.5" font-family="Helvetica,sans-Serif" font-size="10.00">+ HasSelection()</text>
<text text-anchor="start" x="511" y="-29.5" font-family="Helvetica,sans-Serif" font-size="10.00">+ ClearSelection()</text>
<text text-anchor="start" x="511" y="-18.5" font-family="Helvetica,sans-Serif" font-size="10.00">+ SelectAll()</text>
<text text-anchor="start" x="511" y="-7.5" font-family="Helvetica,sans-Serif" font-size="10.00">+ OnKeyPressed()</text>
</g>
<!-- Node2 -->
<g id="node2" class="node"><title>Node2</title>
<g id="a_node2"><a xlink:href="../../d5/d5b/structImGuiStb_1_1STB__TexteditState.html" target="_top" xlink:title="{ImGuiStb::STB_TexteditState\n||}">
<polygon fill="none" stroke="black" points="289.5,-309.5 289.5,-366.5 436.5,-366.5 436.5,-309.5 289.5,-309.5"/>
<text text-anchor="middle" x="363" y="-354.5" font-family="Helvetica,sans-Serif" font-size="10.00">ImGuiStb::STB_TexteditState</text>
<polyline fill="none" stroke="black" points="289.5,-347.5 436.5,-347.5 "/>
<text text-anchor="middle" x="363" y="-335.5" font-family="Helvetica,sans-Serif" font-size="10.00"> </text>
<polyline fill="none" stroke="black" points="289.5,-328.5 436.5,-328.5 "/>
<text text-anchor="middle" x="363" y="-316.5" font-family="Helvetica,sans-Serif" font-size="10.00"> </text>
</a>
</g>
</g>
<!-- Node2&#45;&gt;Node1 -->
<g id="edge1" class="edge"><title>Node2&#45;&gt;Node1</title>
<path fill="none" stroke="#404040" d="M371.009,-309.382C383.659,-269.251 411.302,-193.952 454,-142 465.086,-128.512 478.971,-116.134 493.056,-105.378"/>
<polygon fill="none" stroke="#404040" points="493.145,-105.312 495.604,-98.5336 502.807,-98.1965 500.348,-104.975 493.145,-105.312"/>
<text text-anchor="middle" x="478" y="-150.5" font-family="Helvetica,sans-Serif" font-size="10.00"> +StbState</text>
</g>
<!-- Node3 -->
<g id="node3" class="node"><title>Node3</title>
<g id="a_node3"><a xlink:href="../../d4/dc3/classfloat.html" target="_top" xlink:title="{float\n||}">
<polygon fill="none" stroke="black" points="149.5,-745.5 149.5,-802.5 184.5,-802.5 184.5,-745.5 149.5,-745.5"/>
<text text-anchor="middle" x="167" y="-790.5" font-family="Helvetica,sans-Serif" font-size="10.00">float</text>
<polyline fill="none" stroke="black" points="149.5,-783.5 184.5,-783.5 "/>
<text text-anchor="middle" x="167" y="-771.5" font-family="Helvetica,sans-Serif" font-size="10.00"> </text>
<polyline fill="none" stroke="black" points="149.5,-764.5 184.5,-764.5 "/>
<text text-anchor="middle" x="167" y="-752.5" font-family="Helvetica,sans-Serif" font-size="10.00"> </text>
</a>
</g>
</g>
<!-- Node3&#45;&gt;Node1 -->
<g id="edge11" class="edge"><title>Node3&#45;&gt;Node1</title>
<path fill="none" stroke="#404040" d="M160.101,-745.407C138.933,-653.723 84.338,-355.264 222,-182 286.901,-100.314 411.601,-74.5562 490.6,-66.5233"/>
<polygon fill="none" stroke="#404040" points="490.923,-66.4934 496.526,-61.9541 502.871,-65.3804 497.268,-69.9196 490.923,-66.4934"/>
<text text-anchor="middle" x="251" y="-341" font-family="Helvetica,sans-Serif" font-size="10.00"> +ScrollX</text>
<text text-anchor="middle" x="251" y="-330" font-family="Helvetica,sans-Serif" font-size="10.00">+CursorAnim</text>
</g>
<!-- Node3&#45;&gt;Node2 -->
<g id="edge2" class="edge"><title>Node3&#45;&gt;Node2</title>
<path fill="none" stroke="#404040" d="M167.718,-745.138C170.014,-695.624 179.554,-590.166 219,-512 233.813,-482.647 291.37,-417.135 329.078,-375.682"/>
<polygon fill="none" stroke="#404040" points="329.174,-375.577 330.266,-368.449 337.266,-366.716 336.173,-373.844 329.174,-375.577"/>
<text text-anchor="middle" x="248" y="-553.5" font-family="Helvetica,sans-Serif" font-size="10.00"> +preferred_x</text>
</g>
<!-- Node4 -->
<g id="node4" class="node"><title>Node4</title>
<g id="a_node4"><a xlink:href="../../db/d54/structImGuiStb_1_1StbUndoState.html" target="_top" xlink:title="{ImGuiStb::StbUndoState\n||}">
<polygon fill="none" stroke="black" points="202.5,-745.5 202.5,-802.5 327.5,-802.5 327.5,-745.5 202.5,-745.5"/>
<text text-anchor="middle" x="265" y="-790.5" font-family="Helvetica,sans-Serif" font-size="10.00">ImGuiStb::StbUndoState</text>
<polyline fill="none" stroke="black" points="202.5,-783.5 327.5,-783.5 "/>
<text text-anchor="middle" x="265" y="-771.5" font-family="Helvetica,sans-Serif" font-size="10.00"> </text>
<polyline fill="none" stroke="black" points="202.5,-764.5 327.5,-764.5 "/>
<text text-anchor="middle" x="265" y="-752.5" font-family="Helvetica,sans-Serif" font-size="10.00"> </text>
</a>
</g>
</g>
<!-- Node4&#45;&gt;Node2 -->
<g id="edge3" class="edge"><title>Node4&#45;&gt;Node2</title>
<path fill="none" stroke="#404040" d="M266.199,-745.169C268.761,-697.012 276.33,-595.299 297,-512 308.79,-464.487 329.908,-412.283 345.084,-377.783"/>
<polygon fill="none" stroke="#404040" points="345.097,-377.754 343.885,-370.646 349.981,-366.793 351.193,-373.902 345.097,-377.754"/>
<text text-anchor="middle" x="323" y="-553.5" font-family="Helvetica,sans-Serif" font-size="10.00"> +undostate</text>
</g>
<!-- Node5 -->
<g id="node5" class="node"><title>Node5</title>
<polygon fill="none" stroke="#bfbfbf" points="-0.5,-988.5 -0.5,-1045.5 150.5,-1045.5 150.5,-988.5 -0.5,-988.5"/>
<text text-anchor="middle" x="75" y="-1033.5" font-family="Helvetica,sans-Serif" font-size="10.00">STB_TEXTEDIT_CHARTYPE</text>
<polyline fill="none" stroke="#bfbfbf" points="-0.5,-1026.5 150.5,-1026.5 "/>
<text text-anchor="middle" x="75" y="-1014.5" font-family="Helvetica,sans-Serif" font-size="10.00"> </text>
<polyline fill="none" stroke="#bfbfbf" points="-0.5,-1007.5 150.5,-1007.5 "/>
<text text-anchor="middle" x="75" y="-995.5" font-family="Helvetica,sans-Serif" font-size="10.00"> </text>
</g>
<!-- Node5&#45;&gt;Node4 -->
<g id="edge4" class="edge"><title>Node5&#45;&gt;Node4</title>
<path fill="none" stroke="#404040" d="M123.756,-988.496C147.002,-973.527 173.846,-953.305 193,-930 221.524,-895.293 241.493,-847.422 253.049,-814.099"/>
<polygon fill="none" stroke="#404040" points="253.112,-813.909 251.227,-806.949 256.926,-802.531 258.812,-809.491 253.112,-813.909"/>
<text text-anchor="middle" x="201.5" y="-956.5" font-family="Helvetica,sans-Serif" font-size="10.00"> +undo_char</text>
</g>
<!-- Node6 -->
<g id="node6" class="node"><title>Node6</title>
<g id="a_node6"><a xlink:href="../../dc/d10/classshort.html" target="_top" xlink:title="{short\n||}">
<polygon fill="none" stroke="black" points="311,-1116.5 311,-1173.5 349,-1173.5 349,-1116.5 311,-1116.5"/>
<text text-anchor="middle" x="330" y="-1161.5" font-family="Helvetica,sans-Serif" font-size="10.00">short</text>
<polyline fill="none" stroke="black" points="311,-1154.5 349,-1154.5 "/>
<text text-anchor="middle" x="330" y="-1142.5" font-family="Helvetica,sans-Serif" font-size="10.00"> </text>
<polyline fill="none" stroke="black" points="311,-1135.5 349,-1135.5 "/>
<text text-anchor="middle" x="330" y="-1123.5" font-family="Helvetica,sans-Serif" font-size="10.00"> </text>
</a>
</g>
</g>
<!-- Node6&#45;&gt;Node4 -->
<g id="edge5" class="edge"><title>Node6&#45;&gt;Node4</title>
<path fill="none" stroke="#404040" d="M328.993,-1116.17C328.251,-1100.76 327.012,-1081.28 325,-1064 314.476,-973.617 289.684,-869.574 275.481,-814.306"/>
<polygon fill="none" stroke="#404040" points="275.465,-814.246 270.086,-809.443 272.451,-802.63 277.83,-807.433 275.465,-814.246"/>
<text text-anchor="middle" x="362" y="-1031" font-family="Helvetica,sans-Serif" font-size="10.00"> +redo_point</text>
<text text-anchor="middle" x="362" y="-1020" font-family="Helvetica,sans-Serif" font-size="10.00">+redo_char_point</text>
<text text-anchor="middle" x="362" y="-1009" font-family="Helvetica,sans-Serif" font-size="10.00">+undo_char_point</text>
<text text-anchor="middle" x="362" y="-998" font-family="Helvetica,sans-Serif" font-size="10.00">+undo_point</text>
</g>
<!-- Node7 -->
<g id="node7" class="node"><title>Node7</title>
<g id="a_node7"><a xlink:href="../../df/daa/structImGuiStb_1_1StbUndoRecord.html" target="_top" xlink:title="{ImGuiStb::StbUndoRecord\n||}">
<polygon fill="none" stroke="black" points="169,-988.5 169,-1045.5 303,-1045.5 303,-988.5 169,-988.5"/>
<text text-anchor="middle" x="236" y="-1033.5" font-family="Helvetica,sans-Serif" font-size="10.00">ImGuiStb::StbUndoRecord</text>
<polyline fill="none" stroke="black" points="169,-1026.5 303,-1026.5 "/>
<text text-anchor="middle" x="236" y="-1014.5" font-family="Helvetica,sans-Serif" font-size="10.00"> </text>
<polyline fill="none" stroke="black" points="169,-1007.5 303,-1007.5 "/>
<text text-anchor="middle" x="236" y="-995.5" font-family="Helvetica,sans-Serif" font-size="10.00"> </text>
</a>
</g>
</g>
<!-- Node6&#45;&gt;Node7 -->
<g id="edge7" class="edge"><title>Node6&#45;&gt;Node7</title>
<path fill="none" stroke="#404040" d="M310.648,-1127.96C305.381,-1123.87 299.585,-1119.61 294,-1116 279.642,-1106.72 270.853,-1111.21 260,-1098 250.603,-1086.56 244.884,-1071.52 241.404,-1057.57"/>
<polygon fill="none" stroke="#404040" points="241.379,-1057.45 236.22,-1052.42 238.886,-1045.72 244.045,-1050.75 241.379,-1057.45"/>
<text text-anchor="middle" x="292.5" y="-1089.5" font-family="Helvetica,sans-Serif" font-size="10.00"> +insert_length</text>
<text text-anchor="middle" x="292.5" y="-1078.5" font-family="Helvetica,sans-Serif" font-size="10.00">+char_storage</text>
<text text-anchor="middle" x="292.5" y="-1067.5" font-family="Helvetica,sans-Serif" font-size="10.00">+delete_length</text>
</g>
<!-- Node7&#45;&gt;Node4 -->
<g id="edge6" class="edge"><title>Node7&#45;&gt;Node4</title>
<path fill="none" stroke="#404040" d="M239.327,-988.354C244.459,-945.703 254.33,-863.67 260.224,-814.686"/>
<polygon fill="none" stroke="#404040" points="260.234,-814.608 256.979,-808.173 261.668,-802.694 264.922,-809.128 260.234,-814.608"/>
<text text-anchor="middle" x="268.5" y="-956.5" font-family="Helvetica,sans-Serif" font-size="10.00"> +undo_rec</text>
</g>
<!-- Node8 -->
<g id="node8" class="node"><title>Node8</title>
<polygon fill="none" stroke="#bfbfbf" points="115,-1116.5 115,-1173.5 285,-1173.5 285,-1116.5 115,-1116.5"/>
<text text-anchor="middle" x="200" y="-1161.5" font-family="Helvetica,sans-Serif" font-size="10.00">STB_TEXTEDIT_POSITIONTYPE</text>
<polyline fill="none" stroke="#bfbfbf" points="115,-1154.5 285,-1154.5 "/>
<text text-anchor="middle" x="200" y="-1142.5" font-family="Helvetica,sans-Serif" font-size="10.00"> </text>
<polyline fill="none" stroke="#bfbfbf" points="115,-1135.5 285,-1135.5 "/>
<text text-anchor="middle" x="200" y="-1123.5" font-family="Helvetica,sans-Serif" font-size="10.00"> </text>
</g>
<!-- Node8&#45;&gt;Node7 -->
<g id="edge8" class="edge"><title>Node8&#45;&gt;Node7</title>
<path fill="none" stroke="#404040" d="M196.133,-1116.24C194.968,-1100.5 195.259,-1080.68 201,-1064 201.937,-1061.28 203.103,-1058.59 204.436,-1055.96"/>
<polygon fill="none" stroke="#404040" points="204.51,-1055.83 204.171,-1048.63 210.689,-1045.55 211.029,-1052.75 204.51,-1055.83"/>
<text text-anchor="middle" x="219" y="-1078.5" font-family="Helvetica,sans-Serif" font-size="10.00"> +where</text>
</g>
<!-- Node9 -->
<g id="node9" class="node"><title>Node9</title>
<polygon fill="none" stroke="#bfbfbf" points="610.5,-988.5 610.5,-1045.5 639.5,-1045.5 639.5,-988.5 610.5,-988.5"/>
<text text-anchor="middle" x="625" y="-1033.5" font-family="Helvetica,sans-Serif" font-size="10.00">int</text>
<polyline fill="none" stroke="#bfbfbf" points="610.5,-1026.5 639.5,-1026.5 "/>
<text text-anchor="middle" x="625" y="-1014.5" font-family="Helvetica,sans-Serif" font-size="10.00"> </text>
<polyline fill="none" stroke="#bfbfbf" points="610.5,-1007.5 639.5,-1007.5 "/>
<text text-anchor="middle" x="625" y="-995.5" font-family="Helvetica,sans-Serif" font-size="10.00"> </text>
</g>
<!-- Node9&#45;&gt;Node1 -->
<g id="edge12" class="edge"><title>Node9&#45;&gt;Node1</title>
<path fill="none" stroke="#404040" d="M620.489,-988.309C619.591,-982.283 618.708,-975.936 618,-970 581.182,-661.136 567.859,-290.039 563.68,-135.768"/>
<polygon fill="none" stroke="#404040" points="563.679,-135.713 559.521,-129.821 563.36,-123.717 567.518,-129.609 563.679,-135.713"/>
<text text-anchor="middle" x="609" y="-564.5" font-family="Helvetica,sans-Serif" font-size="10.00"> +CurLenA</text>
<text text-anchor="middle" x="609" y="-553.5" font-family="Helvetica,sans-Serif" font-size="10.00">+BufSizeA</text>
<text text-anchor="middle" x="609" y="-542.5" font-family="Helvetica,sans-Serif" font-size="10.00">+CurLenW</text>
</g>
<!-- Node9&#45;&gt;Node2 -->
<g id="edge9" class="edge"><title>Node9&#45;&gt;Node2</title>
<path fill="none" stroke="#404040" d="M610.324,-1015.74C568.042,-1014.1 445.575,-1003 392,-930 359.567,-885.807 361.057,-504.457 362.449,-378.897"/>
<polygon fill="none" stroke="#404040" points="362.453,-378.554 358.524,-372.507 362.595,-366.554 366.524,-372.601 362.453,-378.554"/>
<text text-anchor="middle" x="421" y="-782.5" font-family="Helvetica,sans-Serif" font-size="10.00"> +cursor</text>
<text text-anchor="middle" x="421" y="-771.5" font-family="Helvetica,sans-Serif" font-size="10.00">+select_start</text>
<text text-anchor="middle" x="421" y="-760.5" font-family="Helvetica,sans-Serif" font-size="10.00">+select_end</text>
</g>
<!-- Node12 -->
<g id="node12" class="node"><title>Node12</title>
<g id="a_node12"><a xlink:href="../../d3/d32/classImVector.html" target="_top" xlink:title="{ImVector\&lt; char \&gt;\n||+ ImVector()\l+ ~ImVector()\l+ empty()\l+ size()\l+ capacity()\l+ operator[]()\l+ operator[]()\l+ clear()\l+ begin()\l+ begin()\l+ end()\l+ end()\l+ front()\l+ front()\l+ back()\l+ back()\l+ swap()\l+ _grow_capacity()\l+ resize()\l+ reserve()\l+ push_back()\l+ pop_back()\l+ erase()\l+ insert()\l}">
<polygon fill="none" stroke="black" points="667,-183 667,-493 767,-493 767,-183 667,-183"/>
<text text-anchor="middle" x="717" y="-481" font-family="Helvetica,sans-Serif" font-size="10.00">ImVector&lt; char &gt;</text>
<polyline fill="none" stroke="black" points="667,-474 767,-474 "/>
<text text-anchor="middle" x="717" y="-462" font-family="Helvetica,sans-Serif" font-size="10.00"> </text>
<polyline fill="none" stroke="black" points="667,-455 767,-455 "/>
<text text-anchor="start" x="675" y="-443" font-family="Helvetica,sans-Serif" font-size="10.00">+ ImVector()</text>
<text text-anchor="start" x="675" y="-432" font-family="Helvetica,sans-Serif" font-size="10.00">+ ~ImVector()</text>
<text text-anchor="start" x="675" y="-421" font-family="Helvetica,sans-Serif" font-size="10.00">+ empty()</text>
<text text-anchor="start" x="675" y="-410" font-family="Helvetica,sans-Serif" font-size="10.00">+ size()</text>
<text text-anchor="start" x="675" y="-399" font-family="Helvetica,sans-Serif" font-size="10.00">+ capacity()</text>
<text text-anchor="start" x="675" y="-388" font-family="Helvetica,sans-Serif" font-size="10.00">+ operator[]()</text>
<text text-anchor="start" x="675" y="-377" font-family="Helvetica,sans-Serif" font-size="10.00">+ operator[]()</text>
<text text-anchor="start" x="675" y="-366" font-family="Helvetica,sans-Serif" font-size="10.00">+ clear()</text>
<text text-anchor="start" x="675" y="-355" font-family="Helvetica,sans-Serif" font-size="10.00">+ begin()</text>
<text text-anchor="start" x="675" y="-344" font-family="Helvetica,sans-Serif" font-size="10.00">+ begin()</text>
<text text-anchor="start" x="675" y="-333" font-family="Helvetica,sans-Serif" font-size="10.00">+ end()</text>
<text text-anchor="start" x="675" y="-322" font-family="Helvetica,sans-Serif" font-size="10.00">+ end()</text>
<text text-anchor="start" x="675" y="-311" font-family="Helvetica,sans-Serif" font-size="10.00">+ front()</text>
<text text-anchor="start" x="675" y="-300" font-family="Helvetica,sans-Serif" font-size="10.00">+ front()</text>
<text text-anchor="start" x="675" y="-289" font-family="Helvetica,sans-Serif" font-size="10.00">+ back()</text>
<text text-anchor="start" x="675" y="-278" font-family="Helvetica,sans-Serif" font-size="10.00">+ back()</text>
<text text-anchor="start" x="675" y="-267" font-family="Helvetica,sans-Serif" font-size="10.00">+ swap()</text>
<text text-anchor="start" x="675" y="-256" font-family="Helvetica,sans-Serif" font-size="10.00">+ _grow_capacity()</text>
<text text-anchor="start" x="675" y="-245" font-family="Helvetica,sans-Serif" font-size="10.00">+ resize()</text>
<text text-anchor="start" x="675" y="-234" font-family="Helvetica,sans-Serif" font-size="10.00">+ reserve()</text>
<text text-anchor="start" x="675" y="-223" font-family="Helvetica,sans-Serif" font-size="10.00">+ push_back()</text>
<text text-anchor="start" x="675" y="-212" font-family="Helvetica,sans-Serif" font-size="10.00">+ pop_back()</text>
<text text-anchor="start" x="675" y="-201" font-family="Helvetica,sans-Serif" font-size="10.00">+ erase()</text>
<text text-anchor="start" x="675" y="-190" font-family="Helvetica,sans-Serif" font-size="10.00">+ insert()</text>
</a>
</g>
</g>
<!-- Node9&#45;&gt;Node12 -->
<g id="edge16" class="edge"><title>Node9&#45;&gt;Node12</title>
<path fill="none" stroke="#404040" d="M623.11,-988.272C619.218,-923.155 612.379,-755.578 634,-618 640.512,-576.563 651.527,-532.667 663.439,-492.262"/>
<polygon fill="none" stroke="#404040" points="663.464,-492.18 661.352,-485.285 666.905,-480.684 669.016,-487.579 663.464,-492.18"/>
<text text-anchor="middle" x="658.5" y="-777" font-family="Helvetica,sans-Serif" font-size="10.00"> +Capacity</text>
<text text-anchor="middle" x="658.5" y="-766" font-family="Helvetica,sans-Serif" font-size="10.00">+Size</text>
</g>
<!-- Node14 -->
<g id="node14" class="node"><title>Node14</title>
<g id="a_node14"><a xlink:href="../../d3/d32/classImVector.html" target="_top" xlink:title="{ImVector\&lt; T \&gt;\n||+ ImVector()\l+ ~ImVector()\l+ empty()\l+ size()\l+ capacity()\l+ operator[]()\l+ operator[]()\l+ clear()\l+ begin()\l+ begin()\l+ end()\l+ end()\l+ front()\l+ front()\l+ back()\l+ back()\l+ swap()\l+ _grow_capacity()\l+ resize()\l+ reserve()\l+ push_back()\l+ pop_back()\l+ erase()\l+ insert()\l}">
<polygon fill="none" stroke="black" points="746,-619 746,-929 846,-929 846,-619 746,-619"/>
<text text-anchor="middle" x="796" y="-917" font-family="Helvetica,sans-Serif" font-size="10.00">ImVector&lt; T &gt;</text>
<polyline fill="none" stroke="black" points="746,-910 846,-910 "/>
<text text-anchor="middle" x="796" y="-898" font-family="Helvetica,sans-Serif" font-size="10.00"> </text>
<polyline fill="none" stroke="black" points="746,-891 846,-891 "/>
<text text-anchor="start" x="754" y="-879" font-family="Helvetica,sans-Serif" font-size="10.00">+ ImVector()</text>
<text text-anchor="start" x="754" y="-868" font-family="Helvetica,sans-Serif" font-size="10.00">+ ~ImVector()</text>
<text text-anchor="start" x="754" y="-857" font-family="Helvetica,sans-Serif" font-size="10.00">+ empty()</text>
<text text-anchor="start" x="754" y="-846" font-family="Helvetica,sans-Serif" font-size="10.00">+ size()</text>
<text text-anchor="start" x="754" y="-835" font-family="Helvetica,sans-Serif" font-size="10.00">+ capacity()</text>
<text text-anchor="start" x="754" y="-824" font-family="Helvetica,sans-Serif" font-size="10.00">+ operator[]()</text>
<text text-anchor="start" x="754" y="-813" font-family="Helvetica,sans-Serif" font-size="10.00">+ operator[]()</text>
<text text-anchor="start" x="754" y="-802" font-family="Helvetica,sans-Serif" font-size="10.00">+ clear()</text>
<text text-anchor="start" x="754" y="-791" font-family="Helvetica,sans-Serif" font-size="10.00">+ begin()</text>
<text text-anchor="start" x="754" y="-780" font-family="Helvetica,sans-Serif" font-size="10.00">+ begin()</text>
<text text-anchor="start" x="754" y="-769" font-family="Helvetica,sans-Serif" font-size="10.00">+ end()</text>
<text text-anchor="start" x="754" y="-758" font-family="Helvetica,sans-Serif" font-size="10.00">+ end()</text>
<text text-anchor="start" x="754" y="-747" font-family="Helvetica,sans-Serif" font-size="10.00">+ front()</text>
<text text-anchor="start" x="754" y="-736" font-family="Helvetica,sans-Serif" font-size="10.00">+ front()</text>
<text text-anchor="start" x="754" y="-725" font-family="Helvetica,sans-Serif" font-size="10.00">+ back()</text>
<text text-anchor="start" x="754" y="-714" font-family="Helvetica,sans-Serif" font-size="10.00">+ back()</text>
<text text-anchor="start" x="754" y="-703" font-family="Helvetica,sans-Serif" font-size="10.00">+ swap()</text>
<text text-anchor="start" x="754" y="-692" font-family="Helvetica,sans-Serif" font-size="10.00">+ _grow_capacity()</text>
<text text-anchor="start" x="754" y="-681" font-family="Helvetica,sans-Serif" font-size="10.00">+ resize()</text>
<text text-anchor="start" x="754" y="-670" font-family="Helvetica,sans-Serif" font-size="10.00">+ reserve()</text>
<text text-anchor="start" x="754" y="-659" font-family="Helvetica,sans-Serif" font-size="10.00">+ push_back()</text>
<text text-anchor="start" x="754" y="-648" font-family="Helvetica,sans-Serif" font-size="10.00">+ pop_back()</text>
<text text-anchor="start" x="754" y="-637" font-family="Helvetica,sans-Serif" font-size="10.00">+ erase()</text>
<text text-anchor="start" x="754" y="-626" font-family="Helvetica,sans-Serif" font-size="10.00">+ insert()</text>
</a>
</g>
</g>
<!-- Node9&#45;&gt;Node14 -->
<g id="edge18" class="edge"><title>Node9&#45;&gt;Node14</title>
<path fill="none" stroke="#404040" d="M639.659,-1008.17C663.083,-994.97 709.05,-966.161 736,-930 737.078,-928.554 738.139,-927.086 739.183,-925.598"/>
<polygon fill="none" stroke="#404040" points="739.228,-925.53 739.192,-918.319 745.834,-915.512 745.87,-922.723 739.228,-925.53"/>
<text text-anchor="middle" x="743.5" y="-962" font-family="Helvetica,sans-Serif" font-size="10.00"> +Capacity</text>
<text text-anchor="middle" x="743.5" y="-951" font-family="Helvetica,sans-Serif" font-size="10.00">+Size</text>
</g>
<!-- Node16 -->
<g id="node16" class="node"><title>Node16</title>
<g id="a_node16"><a xlink:href="../../d3/d32/classImVector.html" target="_top" xlink:title="{ImVector\&lt; ImWchar \&gt;\n||+ ImVector()\l+ ~ImVector()\l+ empty()\l+ size()\l+ capacity()\l+ operator[]()\l+ operator[]()\l+ clear()\l+ begin()\l+ begin()\l+ end()\l+ end()\l+ front()\l+ front()\l+ back()\l+ back()\l+ swap()\l+ _grow_capacity()\l+ resize()\l+ reserve()\l+ push_back()\l+ pop_back()\l+ erase()\l+ insert()\l}">
<polygon fill="none" stroke="black" points="823,-183 823,-493 937,-493 937,-183 823,-183"/>
<text text-anchor="middle" x="880" y="-481" font-family="Helvetica,sans-Serif" font-size="10.00">ImVector&lt; ImWchar &gt;</text>
<polyline fill="none" stroke="black" points="823,-474 937,-474 "/>
<text text-anchor="middle" x="880" y="-462" font-family="Helvetica,sans-Serif" font-size="10.00"> </text>
<polyline fill="none" stroke="black" points="823,-455 937,-455 "/>
<text text-anchor="start" x="831" y="-443" font-family="Helvetica,sans-Serif" font-size="10.00">+ ImVector()</text>
<text text-anchor="start" x="831" y="-432" font-family="Helvetica,sans-Serif" font-size="10.00">+ ~ImVector()</text>
<text text-anchor="start" x="831" y="-421" font-family="Helvetica,sans-Serif" font-size="10.00">+ empty()</text>
<text text-anchor="start" x="831" y="-410" font-family="Helvetica,sans-Serif" font-size="10.00">+ size()</text>
<text text-anchor="start" x="831" y="-399" font-family="Helvetica,sans-Serif" font-size="10.00">+ capacity()</text>
<text text-anchor="start" x="831" y="-388" font-family="Helvetica,sans-Serif" font-size="10.00">+ operator[]()</text>
<text text-anchor="start" x="831" y="-377" font-family="Helvetica,sans-Serif" font-size="10.00">+ operator[]()</text>
<text text-anchor="start" x="831" y="-366" font-family="Helvetica,sans-Serif" font-size="10.00">+ clear()</text>
<text text-anchor="start" x="831" y="-355" font-family="Helvetica,sans-Serif" font-size="10.00">+ begin()</text>
<text text-anchor="start" x="831" y="-344" font-family="Helvetica,sans-Serif" font-size="10.00">+ begin()</text>
<text text-anchor="start" x="831" y="-333" font-family="Helvetica,sans-Serif" font-size="10.00">+ end()</text>
<text text-anchor="start" x="831" y="-322" font-family="Helvetica,sans-Serif" font-size="10.00">+ end()</text>
<text text-anchor="start" x="831" y="-311" font-family="Helvetica,sans-Serif" font-size="10.00">+ front()</text>
<text text-anchor="start" x="831" y="-300" font-family="Helvetica,sans-Serif" font-size="10.00">+ front()</text>
<text text-anchor="start" x="831" y="-289" font-family="Helvetica,sans-Serif" font-size="10.00">+ back()</text>
<text text-anchor="start" x="831" y="-278" font-family="Helvetica,sans-Serif" font-size="10.00">+ back()</text>
<text text-anchor="start" x="831" y="-267" font-family="Helvetica,sans-Serif" font-size="10.00">+ swap()</text>
<text text-anchor="start" x="831" y="-256" font-family="Helvetica,sans-Serif" font-size="10.00">+ _grow_capacity()</text>
<text text-anchor="start" x="831" y="-245" font-family="Helvetica,sans-Serif" font-size="10.00">+ resize()</text>
<text text-anchor="start" x="831" y="-234" font-family="Helvetica,sans-Serif" font-size="10.00">+ reserve()</text>
<text text-anchor="start" x="831" y="-223" font-family="Helvetica,sans-Serif" font-size="10.00">+ push_back()</text>
<text text-anchor="start" x="831" y="-212" font-family="Helvetica,sans-Serif" font-size="10.00">+ pop_back()</text>
<text text-anchor="start" x="831" y="-201" font-family="Helvetica,sans-Serif" font-size="10.00">+ erase()</text>
<text text-anchor="start" x="831" y="-190" font-family="Helvetica,sans-Serif" font-size="10.00">+ insert()</text>
</a>
</g>
</g>
<!-- Node9&#45;&gt;Node16 -->
<g id="edge23" class="edge"><title>Node9&#45;&gt;Node16</title>
<path fill="none" stroke="#404040" d="M639.731,-1013.14C699.791,-1001.35 923.847,-955.837 942,-930 1035.7,-796.639 990.139,-602.804 941.515,-473.923"/>
<polygon fill="none" stroke="#404040" points="941.406,-473.638 935.523,-469.469 937.108,-462.434 942.992,-466.604 941.406,-473.638"/>
<text text-anchor="middle" x="1021.5" y="-777" font-family="Helvetica,sans-Serif" font-size="10.00"> +Capacity</text>
<text text-anchor="middle" x="1021.5" y="-766" font-family="Helvetica,sans-Serif" font-size="10.00">+Size</text>
</g>
<!-- Node10 -->
<g id="node10" class="node"><title>Node10</title>
<polygon fill="none" stroke="#bfbfbf" points="459,-745.5 459,-802.5 515,-802.5 515,-745.5 459,-745.5"/>
<text text-anchor="middle" x="487" y="-790.5" font-family="Helvetica,sans-Serif" font-size="10.00">unsigned</text>
<polyline fill="none" stroke="#bfbfbf" points="459,-783.5 515,-783.5 "/>
<text text-anchor="middle" x="487" y="-771.5" font-family="Helvetica,sans-Serif" font-size="10.00"> </text>
<polyline fill="none" stroke="#bfbfbf" points="459,-764.5 515,-764.5 "/>
<text text-anchor="middle" x="487" y="-752.5" font-family="Helvetica,sans-Serif" font-size="10.00"> </text>
</g>
<!-- Node10&#45;&gt;Node1 -->
<g id="edge20" class="edge"><title>Node10&#45;&gt;Node1</title>
<path fill="none" stroke="#404040" d="M489.557,-745.448C492.685,-711.323 498.05,-651.401 502,-600 516.265,-414.353 499.456,-365.672 530,-182 532.52,-166.846 536.144,-150.832 540.054,-135.631"/>
<polygon fill="none" stroke="#404040" points="540.157,-135.245 537.83,-128.419 543.236,-123.646 545.562,-130.472 540.157,-135.245"/>
<text text-anchor="middle" x="539" y="-335.5" font-family="Helvetica,sans-Serif" font-size="10.00"> +Id</text>
</g>
<!-- Node10&#45;&gt;Node2 -->
<g id="edge10" class="edge"><title>Node10&#45;&gt;Node2</title>
<path fill="none" stroke="#404040" d="M481.7,-745.352C474.152,-712.048 457.579,-655.866 426,-618 416.284,-606.35 405.217,-612.752 397,-600 374.017,-564.334 366.487,-443.068 364.084,-379.162"/>
<polygon fill="none" stroke="#404040" points="364.072,-378.81 359.867,-372.952 363.657,-366.817 367.862,-372.675 364.072,-378.81"/>
<text text-anchor="middle" x="449.5" y="-592" font-family="Helvetica,sans-Serif" font-size="10.00"> +cursor_at_end_of_line</text>
<text text-anchor="middle" x="449.5" y="-581" font-family="Helvetica,sans-Serif" font-size="10.00">+has_preferred_x</text>
<text text-anchor="middle" x="449.5" y="-570" font-family="Helvetica,sans-Serif" font-size="10.00">+padding1</text>
<text text-anchor="middle" x="449.5" y="-559" font-family="Helvetica,sans-Serif" font-size="10.00">+initialized</text>
<text text-anchor="middle" x="449.5" y="-548" font-family="Helvetica,sans-Serif" font-size="10.00">+padding2</text>
<text text-anchor="middle" x="449.5" y="-537" font-family="Helvetica,sans-Serif" font-size="10.00">+padding3</text>
<text text-anchor="middle" x="449.5" y="-526" font-family="Helvetica,sans-Serif" font-size="10.00">+insert_mode</text>
<text text-anchor="middle" x="449.5" y="-515" font-family="Helvetica,sans-Serif" font-size="10.00">+single_line</text>
</g>
<!-- Node11 -->
<g id="node11" class="node"><title>Node11</title>
<polygon fill="none" stroke="#bfbfbf" points="590.5,-309.5 590.5,-366.5 625.5,-366.5 625.5,-309.5 590.5,-309.5"/>
<text text-anchor="middle" x="608" y="-354.5" font-family="Helvetica,sans-Serif" font-size="10.00">bool</text>
<polyline fill="none" stroke="#bfbfbf" points="590.5,-347.5 625.5,-347.5 "/>
<text text-anchor="middle" x="608" y="-335.5" font-family="Helvetica,sans-Serif" font-size="10.00"> </text>
<polyline fill="none" stroke="#bfbfbf" points="590.5,-328.5 625.5,-328.5 "/>
<text text-anchor="middle" x="608" y="-316.5" font-family="Helvetica,sans-Serif" font-size="10.00"> </text>
</g>
<!-- Node11&#45;&gt;Node1 -->
<g id="edge13" class="edge"><title>Node11&#45;&gt;Node1</title>
<path fill="none" stroke="#404040" d="M603.379,-309.473C596.615,-269.184 583.782,-192.747 574.193,-135.63"/>
<polygon fill="none" stroke="#404040" points="574.187,-135.589 569.248,-130.335 572.2,-123.755 577.138,-129.01 574.187,-135.589"/>
<text text-anchor="middle" x="633.5" y="-156" font-family="Helvetica,sans-Serif" font-size="10.00"> +SelectedAllMouseLock</text>
<text text-anchor="middle" x="633.5" y="-145" font-family="Helvetica,sans-Serif" font-size="10.00">+CursorFollow</text>
</g>
<!-- Node12&#45;&gt;Node1 -->
<g id="edge14" class="edge"><title>Node12&#45;&gt;Node1</title>
<path fill="none" stroke="#404040" d="M710.64,-182.714C706.15,-168.3 700.088,-154.45 692,-142 677.592,-119.822 654.564,-102.906 631.864,-90.5301"/>
<polygon fill="none" stroke="#404040" points="631.801,-90.4972 624.634,-91.2965 621.14,-84.9885 628.306,-84.1892 631.801,-90.4972"/>
<text text-anchor="middle" x="741.5" y="-156" font-family="Helvetica,sans-Serif" font-size="10.00"> +InitialText</text>
<text text-anchor="middle" x="741.5" y="-145" font-family="Helvetica,sans-Serif" font-size="10.00">+TempTextBuffer</text>
</g>
<!-- Node13 -->
<g id="node13" class="node"><title>Node13</title>
<polygon fill="none" stroke="#bfbfbf" points="692.5,-745.5 692.5,-802.5 727.5,-802.5 727.5,-745.5 692.5,-745.5"/>
<text text-anchor="middle" x="710" y="-790.5" font-family="Helvetica,sans-Serif" font-size="10.00">char</text>
<polyline fill="none" stroke="#bfbfbf" points="692.5,-783.5 727.5,-783.5 "/>
<text text-anchor="middle" x="710" y="-771.5" font-family="Helvetica,sans-Serif" font-size="10.00"> </text>
<polyline fill="none" stroke="#bfbfbf" points="692.5,-764.5 727.5,-764.5 "/>
<text text-anchor="middle" x="710" y="-752.5" font-family="Helvetica,sans-Serif" font-size="10.00"> </text>
</g>
<!-- Node13&#45;&gt;Node12 -->
<g id="edge15" class="edge"><title>Node13&#45;&gt;Node12</title>
<path fill="none" stroke="#404040" d="M709.402,-745.184C708.486,-697.467 707.037,-596.939 709,-512 709.051,-509.786 709.106,-507.555 709.164,-505.312"/>
<polygon fill="none" stroke="#404040" points="709.167,-505.201 705.339,-499.09 709.507,-493.206 713.336,-499.316 709.167,-505.201"/>
<text text-anchor="middle" x="724.5" y="-553.5" font-family="Helvetica,sans-Serif" font-size="10.00"> +Data</text>
</g>
<!-- Node14&#45;&gt;Node12 -->
<g id="edge17" class="edge"><title>Node14&#45;&gt;Node12</title>
<path fill="none" stroke="orange" d="M764.61,-608.744C764.067,-605.807 763.53,-602.89 763,-600 756.668,-565.493 750.028,-528.387 743.823,-493.292"/>
<polygon fill="orange" stroke="orange" points="761.21,-609.607 766.473,-618.802 768.093,-608.332 761.21,-609.607"/>
<text text-anchor="middle" x="783" y="-553.5" font-family="Helvetica,sans-Serif" font-size="10.00"> &lt; char &gt;</text>
</g>
<!-- Node14&#45;&gt;Node16 -->
<g id="edge24" class="edge"><title>Node14&#45;&gt;Node16</title>
<path fill="none" stroke="orange" d="M809.221,-609.006C813.231,-576.668 818.392,-543.12 825,-512 826.309,-505.834 827.75,-499.576 829.293,-493.277"/>
<polygon fill="orange" stroke="orange" points="805.738,-608.652 808.012,-619 812.687,-609.492 805.738,-608.652"/>
<text text-anchor="middle" x="855.5" y="-553.5" font-family="Helvetica,sans-Serif" font-size="10.00"> &lt; ImWchar &gt;</text>
</g>
<!-- Node15 -->
<g id="node15" class="node"><title>Node15</title>
<polygon fill="none" stroke="#bfbfbf" points="781.5,-988.5 781.5,-1045.5 810.5,-1045.5 810.5,-988.5 781.5,-988.5"/>
<text text-anchor="middle" x="796" y="-1033.5" font-family="Helvetica,sans-Serif" font-size="10.00">T</text>
<polyline fill="none" stroke="#bfbfbf" points="781.5,-1026.5 810.5,-1026.5 "/>
<text text-anchor="middle" x="796" y="-1014.5" font-family="Helvetica,sans-Serif" font-size="10.00"> </text>
<polyline fill="none" stroke="#bfbfbf" points="781.5,-1007.5 810.5,-1007.5 "/>
<text text-anchor="middle" x="796" y="-995.5" font-family="Helvetica,sans-Serif" font-size="10.00"> </text>
</g>
<!-- Node15&#45;&gt;Node14 -->
<g id="edge19" class="edge"><title>Node15&#45;&gt;Node14</title>
<path fill="none" stroke="#404040" d="M796,-988.354C796,-975.524 796,-959.131 796,-941.146"/>
<polygon fill="none" stroke="#404040" points="796,-941.119 792,-935.119 796,-929.119 800,-935.118 796,-941.119"/>
<text text-anchor="middle" x="811.5" y="-956.5" font-family="Helvetica,sans-Serif" font-size="10.00"> +Data</text>
</g>
<!-- Node16&#45;&gt;Node1 -->
<g id="edge21" class="edge"><title>Node16&#45;&gt;Node1</title>
<path fill="none" stroke="#404040" d="M822.814,-188.705C811.8,-171.453 798.935,-155.301 784,-142 741.755,-104.376 680.375,-84.3483 632.857,-73.8845"/>
<polygon fill="none" stroke="#404040" points="632.841,-73.8812 626.149,-76.5686 621.095,-71.4253 627.787,-68.7379 632.841,-73.8812"/>
<text text-anchor="middle" x="819.5" y="-150.5" font-family="Helvetica,sans-Serif" font-size="10.00"> +Text</text>
</g>
<!-- Node17 -->
<g id="node17" class="node"><title>Node17</title>
<polygon fill="none" stroke="#bfbfbf" points="870.5,-745.5 870.5,-802.5 933.5,-802.5 933.5,-745.5 870.5,-745.5"/>
<text text-anchor="middle" x="902" y="-790.5" font-family="Helvetica,sans-Serif" font-size="10.00">ImWchar *</text>
<polyline fill="none" stroke="#bfbfbf" points="870.5,-783.5 933.5,-783.5 "/>
<text text-anchor="middle" x="902" y="-771.5" font-family="Helvetica,sans-Serif" font-size="10.00"> </text>
<polyline fill="none" stroke="#bfbfbf" points="870.5,-764.5 933.5,-764.5 "/>
<text text-anchor="middle" x="902" y="-752.5" font-family="Helvetica,sans-Serif" font-size="10.00"> </text>
</g>
<!-- Node17&#45;&gt;Node16 -->
<g id="edge22" class="edge"><title>Node17&#45;&gt;Node16</title>
<path fill="none" stroke="#404040" d="M900.59,-745.191C898.153,-697.117 892.976,-594.985 888.423,-505.165"/>
<polygon fill="none" stroke="#404040" points="888.422,-505.132 884.123,-499.342 887.814,-493.147 892.113,-498.937 888.422,-505.132"/>
<text text-anchor="middle" x="908.5" y="-553.5" font-family="Helvetica,sans-Serif" font-size="10.00"> +Data</text>
</g>
</g>
</svg>
