<?xml version="1.0" encoding="UTF-8" standalone="no"?>
<!DOCTYPE svg PUBLIC "-//W3C//DTD SVG 1.1//EN"
 "http://www.w3.org/Graphics/SVG/1.1/DTD/svg11.dtd">
<!-- Generated by graphviz version 2.36.0 (20140111.2315)
 -->
<!-- Title: o2::TPC::Clusterer Pages: 1 -->
<svg width="317pt" height="370pt"
 viewBox="0.00 0.00 317.00 370.00" xmlns="http://www.w3.org/2000/svg" xmlns:xlink="http://www.w3.org/1999/xlink">
<g id="graph0" class="graph" transform="scale(1 1) rotate(0) translate(4 366)">
<title>o2::TPC::Clusterer</title>
<!-- Node1 -->
<g id="node1" class="node"><title>Node1</title>
<polygon fill="#bfbfbf" stroke="black" points="21.5,-0.5 21.5,-233.5 176.5,-233.5 176.5,-0.5 21.5,-0.5"/>
<text text-anchor="middle" x="99" y="-221.5" font-family="Helvetica,sans-Serif" font-size="10.00">o2::TPC::Clusterer</text>
<polyline fill="none" stroke="black" points="21.5,-214.5 176.5,-214.5 "/>
<text text-anchor="middle" x="99" y="-202.5" font-family="Helvetica,sans-Serif" font-size="10.00"> </text>
<polyline fill="none" stroke="black" points="21.5,-195.5 176.5,-195.5 "/>
<text text-anchor="start" x="29.5" y="-183.5" font-family="Helvetica,sans-Serif" font-size="10.00">+ Clusterer()</text>
<text text-anchor="start" x="29.5" y="-172.5" font-family="Helvetica,sans-Serif" font-size="10.00">+ Clusterer()</text>
<text text-anchor="start" x="29.5" y="-161.5" font-family="Helvetica,sans-Serif" font-size="10.00">+ ~Clusterer()</text>
<text text-anchor="start" x="29.5" y="-150.5" font-family="Helvetica,sans-Serif" font-size="10.00">+ Process()</text>
<text text-anchor="start" x="29.5" y="-139.5" font-family="Helvetica,sans-Serif" font-size="10.00">+ Process()</text>
<text text-anchor="start" x="29.5" y="-128.5" font-family="Helvetica,sans-Serif" font-size="10.00">+ setRowsMax()</text>
<text text-anchor="start" x="29.5" y="-117.5" font-family="Helvetica,sans-Serif" font-size="10.00">+ setPadsMax()</text>
<text text-anchor="start" x="29.5" y="-106.5" font-family="Helvetica,sans-Serif" font-size="10.00">+ setTimeBinsMax()</text>
<text text-anchor="start" x="29.5" y="-95.5" font-family="Helvetica,sans-Serif" font-size="10.00">+ setMinQMax()</text>
<text text-anchor="start" x="29.5" y="-84.5" font-family="Helvetica,sans-Serif" font-size="10.00">+ setRequirePositiveCharge()</text>
<text text-anchor="start" x="29.5" y="-73.5" font-family="Helvetica,sans-Serif" font-size="10.00">+ setRequireNeighbouringPad()</text>
<text text-anchor="start" x="29.5" y="-62.5" font-family="Helvetica,sans-Serif" font-size="10.00">+ getRowsMax()</text>
<text text-anchor="start" x="29.5" y="-51.5" font-family="Helvetica,sans-Serif" font-size="10.00">+ getPadsMax()</text>
<text text-anchor="start" x="29.5" y="-40.5" font-family="Helvetica,sans-Serif" font-size="10.00">+ getTimeBinsMax()</text>
<text text-anchor="start" x="29.5" y="-29.5" font-family="Helvetica,sans-Serif" font-size="10.00">+ getMinQMax()</text>
<text text-anchor="start" x="29.5" y="-18.5" font-family="Helvetica,sans-Serif" font-size="10.00">+ hasRequirePositiveCharge()</text>
<text text-anchor="start" x="29.5" y="-7.5" font-family="Helvetica,sans-Serif" font-size="10.00">+ hasRequireNeighbouringPad()</text>
</g>
<!-- Node2 -->
<g id="node2" class="node"><title>Node2</title>
<g id="a_node2"><a xlink:href="../../d4/dc3/classfloat.html" target="_top" xlink:title="{float\n||}">
<polygon fill="none" stroke="black" points="-0.5,-304.5 -0.5,-361.5 34.5,-361.5 34.5,-304.5 -0.5,-304.5"/>
<text text-anchor="middle" x="17" y="-349.5" font-family="Helvetica,sans-Serif" font-size="10.00">float</text>
<polyline fill="none" stroke="black" points="-0.5,-342.5 34.5,-342.5 "/>
<text text-anchor="middle" x="17" y="-330.5" font-family="Helvetica,sans-Serif" font-size="10.00"> </text>
<polyline fill="none" stroke="black" points="-0.5,-323.5 34.5,-323.5 "/>
<text text-anchor="middle" x="17" y="-311.5" font-family="Helvetica,sans-Serif" font-size="10.00"> </text>
</a>
</g>
</g>
<!-- Node2&#45;&gt;Node1 -->
<g id="edge1" class="edge"><title>Node2&#45;&gt;Node1</title>
<path fill="none" stroke="#404040" d="M22.1303,-304.198C25.3684,-288.624 30.0639,-268.979 36,-252 36.8285,-249.63 37.6855,-247.246 38.5675,-244.853"/>
<polygon fill="none" stroke="#404040" points="38.5847,-244.807 36.9886,-237.775 42.8659,-233.597 44.4621,-240.629 38.5847,-244.807"/>
<text text-anchor="middle" x="65.5" y="-266.5" font-family="Helvetica,sans-Serif" font-size="10.00"> #mMinQMax</text>
</g>
<!-- Node3 -->
<g id="node3" class="node"><title>Node3</title>
<polygon fill="none" stroke="#bfbfbf" points="84.5,-304.5 84.5,-361.5 113.5,-361.5 113.5,-304.5 84.5,-304.5"/>
<text text-anchor="middle" x="99" y="-349.5" font-family="Helvetica,sans-Serif" font-size="10.00">int</text>
<polyline fill="none" stroke="#bfbfbf" points="84.5,-342.5 113.5,-342.5 "/>
<text text-anchor="middle" x="99" y="-330.5" font-family="Helvetica,sans-Serif" font-size="10.00"> </text>
<polyline fill="none" stroke="#bfbfbf" points="84.5,-323.5 113.5,-323.5 "/>
<text text-anchor="middle" x="99" y="-311.5" font-family="Helvetica,sans-Serif" font-size="10.00"> </text>
</g>
<!-- Node3&#45;&gt;Node1 -->
<g id="edge2" class="edge"><title>Node3&#45;&gt;Node1</title>
<path fill="none" stroke="#404040" d="M99,-304.461C99,-288.768 99,-267.851 99,-245.703"/>
<polygon fill="none" stroke="#404040" points="99.0001,-245.666 95,-239.666 99,-233.666 103,-239.666 99.0001,-245.666"/>
<text text-anchor="middle" x="136" y="-277.5" font-family="Helvetica,sans-Serif" font-size="10.00"> #mRowsMax</text>
<text text-anchor="middle" x="136" y="-266.5" font-family="Helvetica,sans-Serif" font-size="10.00">#mPadsMax</text>
<text text-anchor="middle" x="136" y="-255.5" font-family="Helvetica,sans-Serif" font-size="10.00">#mTimeBinsMax</text>
</g>
<!-- Node4 -->
<g id="node4" class="node"><title>Node4</title>
<polygon fill="none" stroke="#bfbfbf" points="178.5,-304.5 178.5,-361.5 213.5,-361.5 213.5,-304.5 178.5,-304.5"/>
<text text-anchor="middle" x="196" y="-349.5" font-family="Helvetica,sans-Serif" font-size="10.00">bool</text>
<polyline fill="none" stroke="#bfbfbf" points="178.5,-342.5 213.5,-342.5 "/>
<text text-anchor="middle" x="196" y="-330.5" font-family="Helvetica,sans-Serif" font-size="10.00"> </text>
<polyline fill="none" stroke="#bfbfbf" points="178.5,-323.5 213.5,-323.5 "/>
<text text-anchor="middle" x="196" y="-311.5" font-family="Helvetica,sans-Serif" font-size="10.00"> </text>
</g>
<!-- Node4&#45;&gt;Node1 -->
<g id="edge3" class="edge"><title>Node4&#45;&gt;Node1</title>
<path fill="none" stroke="#404040" d="M190.16,-304.424C186.412,-288.746 180.943,-268.925 174,-252 173.032,-249.639 172.031,-247.268 171.001,-244.89"/>
<polygon fill="none" stroke="#404040" points="170.905,-244.675 164.798,-240.84 165.989,-233.728 172.096,-237.563 170.905,-244.675"/>
<text text-anchor="middle" x="246.5" y="-272" font-family="Helvetica,sans-Serif" font-size="10.00"> #mRequireNeighbouringPad</text>
<text text-anchor="middle" x="246.5" y="-261" font-family="Helvetica,sans-Serif" font-size="10.00">#mRequirePositiveCharge</text>
</g>
</g>
</svg>
