<?xml version="1.0" encoding="UTF-8" standalone="no"?>
<!DOCTYPE svg PUBLIC "-//W3C//DTD SVG 1.1//EN"
 "http://www.w3.org/Graphics/SVG/1.1/DTD/svg11.dtd">
<!-- Generated by graphviz version 2.36.0 (20140111.2315)
 -->
<!-- Title: o2::ITS::TrivialClusterer Pages: 1 -->
<!--zoomable 1328 -->
<svg id="main" version="1.1" xmlns="http://www.w3.org/2000/svg" xmlns:xlink="http://www.w3.org/1999/xlink" xml:space="preserve" onload="init(evt)">
<style type="text/css"><![CDATA[
.edge:hover path { stroke: red; }
.edge:hover polygon { stroke: red; fill: red; }
]]></style>
<script type="text/javascript"><![CDATA[
var edges = document.getElementsByTagName('g');
if (edges && edges.length) {
  for (var i=0;i<edges.length;i++) {
    if (edges[i].id.substr(0,4)=='edge') {
      edges[i].setAttribute('class','edge');
    }
  }
}
]]></script>
        <defs>
                <circle id="rim" cx="0" cy="0" r="7"/>
                <circle id="rim2" cx="0" cy="0" r="3.5"/>
                <g id="zoomPlus">
                        <use xlink:href="#rim" fill="#404040">
                                <set attributeName="fill" to="#808080" begin="zoomplus.mouseover" end="zoomplus.mouseout"/>
                        </use>
                        <path d="M-4,0h8M0,-4v8" fill="none" stroke="white" stroke-width="1.5" pointer-events="none"/>
                </g>
                <g id="zoomMin">
                        <use xlink:href="#rim" fill="#404040">
                                <set attributeName="fill" to="#808080" begin="zoomminus.mouseover" end="zoomminus.mouseout"/>
                        </use>
                        <path d="M-4,0h8" fill="none" stroke="white" stroke-width="1.5" pointer-events="none"/>
                </g>
                <g id="dirArrow">
                        <path fill="none" stroke="white" stroke-width="1.5" d="M0,-3.0v7 M-2.5,-0.5L0,-3.0L2.5,-0.5"/>
                </g>
               <g id="resetDef">
                       <use xlink:href="#rim2" fill="#404040">
                               <set attributeName="fill" to="#808080" begin="reset.mouseover" end="reset.mouseout"/>
                       </use>
               </g>
        </defs>

<script type="text/javascript">
var viewWidth = 585;
var viewHeight = 1328;
var sectionId = 'dynsection-0';
</script>
<script xlink:href="../../svgpan.js"/>
<svg id="graph" class="graph">
<g id="viewport">
<title>o2::ITS::TrivialClusterer</title>
<!-- Node1 -->
<g id="node1" class="node"><title>Node1</title>
<polygon fill="#bfbfbf" stroke="black" points="317.5,-0.5 317.5,-123.5 442.5,-123.5 442.5,-0.5 317.5,-0.5"/>
<text text-anchor="middle" x="380" y="-111.5" font-family="Helvetica,sans-Serif" font-size="10.00">o2::ITS::TrivialClusterer</text>
<polyline fill="none" stroke="black" points="317.5,-104.5 442.5,-104.5 "/>
<text text-anchor="middle" x="380" y="-92.5" font-family="Helvetica,sans-Serif" font-size="10.00"> </text>
<polyline fill="none" stroke="black" points="317.5,-85.5 442.5,-85.5 "/>
<text text-anchor="start" x="325.5" y="-73.5" font-family="Helvetica,sans-Serif" font-size="10.00">+ TrivialClusterer()</text>
<text text-anchor="start" x="325.5" y="-62.5" font-family="Helvetica,sans-Serif" font-size="10.00">+ ~TrivialClusterer()</text>
<text text-anchor="start" x="325.5" y="-51.5" font-family="Helvetica,sans-Serif" font-size="10.00">+ TrivialClusterer()</text>
<text text-anchor="start" x="325.5" y="-40.5" font-family="Helvetica,sans-Serif" font-size="10.00">+ operator=()</text>
<text text-anchor="start" x="325.5" y="-29.5" font-family="Helvetica,sans-Serif" font-size="10.00">+ process()</text>
<text text-anchor="start" x="325.5" y="-18.5" font-family="Helvetica,sans-Serif" font-size="10.00">+ setGeometry()</text>
<text text-anchor="start" x="325.5" y="-7.5" font-family="Helvetica,sans-Serif" font-size="10.00">+ setMCTruthContainer()</text>
</g>
<!-- Node2 -->
<g id="node2" class="node"><title>Node2</title>
<g id="a_node2"><a xlink:href="../../d7/d98/classo2_1_1ITSMFT_1_1GeometryTGeo.html" target="_top" xlink:title="{o2::ITSMFT::GeometryTGeo\n||+ GeometryTGeo()\l+ GeometryTGeo()\l+ operator=()\l+ GeometryTGeo()\l+ ~GeometryTGeo()\l+ getNumberOfChips()\l+ Build()\l# ClassDefOverride()\l}">
<polygon fill="none" stroke="black" points="209,-206 209,-340 351,-340 351,-206 209,-206"/>
<text text-anchor="middle" x="280" y="-328" font-family="Helvetica,sans-Serif" font-size="10.00">o2::ITSMFT::GeometryTGeo</text>
<polyline fill="none" stroke="black" points="209,-321 351,-321 "/>
<text text-anchor="middle" x="280" y="-309" font-family="Helvetica,sans-Serif" font-size="10.00"> </text>
<polyline fill="none" stroke="black" points="209,-302 351,-302 "/>
<text text-anchor="start" x="217" y="-290" font-family="Helvetica,sans-Serif" font-size="10.00">+ GeometryTGeo()</text>
<text text-anchor="start" x="217" y="-279" font-family="Helvetica,sans-Serif" font-size="10.00">+ GeometryTGeo()</text>
<text text-anchor="start" x="217" y="-268" font-family="Helvetica,sans-Serif" font-size="10.00">+ operator=()</text>
<text text-anchor="start" x="217" y="-257" font-family="Helvetica,sans-Serif" font-size="10.00">+ GeometryTGeo()</text>
<text text-anchor="start" x="217" y="-246" font-family="Helvetica,sans-Serif" font-size="10.00">+ ~GeometryTGeo()</text>
<text text-anchor="start" x="217" y="-235" font-family="Helvetica,sans-Serif" font-size="10.00">+ getNumberOfChips()</text>
<text text-anchor="start" x="217" y="-224" font-family="Helvetica,sans-Serif" font-size="10.00">+ Build()</text>
<text text-anchor="start" x="217" y="-213" font-family="Helvetica,sans-Serif" font-size="10.00"># ClassDefOverride()</text>
</a>
</g>
</g>
<!-- Node2&#45;&gt;Node1 -->
<g id="edge1" class="edge"><title>Node2&#45;&gt;Node1</title>
<path fill="none" stroke="#404040" d="M311.641,-205.871C322.459,-183.261 334.609,-157.868 345.632,-134.83"/>
<polygon fill="none" stroke="#404040" points="345.762,-134.557 344.744,-127.418 350.942,-123.732 351.96,-130.871 345.762,-134.557"/>
<text text-anchor="middle" x="372" y="-145.5" font-family="Helvetica,sans-Serif" font-size="10.00"> #mGeometry</text>
</g>
<!-- Node3 -->
<g id="node3" class="node"><title>Node3</title>
<g id="a_node3"><a xlink:href="../../df/d66/classo2_1_1Base_1_1DetMatrixCache.html" target="_top" xlink:title="{o2::Base::DetMatrixCache\n||+ DetMatrixCache()\l+ DetMatrixCache()\l+ ~DetMatrixCache()\l+ DetMatrixCache()\l+ operator=()\l+ getDetID()\l+ getName()\l+ getCacheT2L()\l+ getCacheT2G()\l+ getCacheL2G()\l+ getCacheT2GRot()\l+ getMatrixT2L()\l+ getMatrixT2G()\l+ getMatrixL2G()\l+ getMatrixT2GRot()\l+ isBuilt()\l+ getSize()\l+ fillMatrixCache()\l+ setSize()\l+ getCacheT2L()\l+ getCacheT2G()\l+ getCacheL2G()\l+ getCacheT2GRot()\l+ ClassDef()\l}">
<polygon fill="none" stroke="black" points="213.5,-423 213.5,-733 346.5,-733 346.5,-423 213.5,-423"/>
<text text-anchor="middle" x="280" y="-721" font-family="Helvetica,sans-Serif" font-size="10.00">o2::Base::DetMatrixCache</text>
<polyline fill="none" stroke="black" points="213.5,-714 346.5,-714 "/>
<text text-anchor="middle" x="280" y="-702" font-family="Helvetica,sans-Serif" font-size="10.00"> </text>
<polyline fill="none" stroke="black" points="213.5,-695 346.5,-695 "/>
<text text-anchor="start" x="221.5" y="-683" font-family="Helvetica,sans-Serif" font-size="10.00">+ DetMatrixCache()</text>
<text text-anchor="start" x="221.5" y="-672" font-family="Helvetica,sans-Serif" font-size="10.00">+ DetMatrixCache()</text>
<text text-anchor="start" x="221.5" y="-661" font-family="Helvetica,sans-Serif" font-size="10.00">+ ~DetMatrixCache()</text>
<text text-anchor="start" x="221.5" y="-650" font-family="Helvetica,sans-Serif" font-size="10.00">+ DetMatrixCache()</text>
<text text-anchor="start" x="221.5" y="-639" font-family="Helvetica,sans-Serif" font-size="10.00">+ operator=()</text>
<text text-anchor="start" x="221.5" y="-628" font-family="Helvetica,sans-Serif" font-size="10.00">+ getDetID()</text>
<text text-anchor="start" x="221.5" y="-617" font-family="Helvetica,sans-Serif" font-size="10.00">+ getName()</text>
<text text-anchor="start" x="221.5" y="-606" font-family="Helvetica,sans-Serif" font-size="10.00">+ getCacheT2L()</text>
<text text-anchor="start" x="221.5" y="-595" font-family="Helvetica,sans-Serif" font-size="10.00">+ getCacheT2G()</text>
<text text-anchor="start" x="221.5" y="-584" font-family="Helvetica,sans-Serif" font-size="10.00">+ getCacheL2G()</text>
<text text-anchor="start" x="221.5" y="-573" font-family="Helvetica,sans-Serif" font-size="10.00">+ getCacheT2GRot()</text>
<text text-anchor="start" x="221.5" y="-562" font-family="Helvetica,sans-Serif" font-size="10.00">+ getMatrixT2L()</text>
<text text-anchor="start" x="221.5" y="-551" font-family="Helvetica,sans-Serif" font-size="10.00">+ getMatrixT2G()</text>
<text text-anchor="start" x="221.5" y="-540" font-family="Helvetica,sans-Serif" font-size="10.00">+ getMatrixL2G()</text>
<text text-anchor="start" x="221.5" y="-529" font-family="Helvetica,sans-Serif" font-size="10.00">+ getMatrixT2GRot()</text>
<text text-anchor="start" x="221.5" y="-518" font-family="Helvetica,sans-Serif" font-size="10.00">+ isBuilt()</text>
<text text-anchor="start" x="221.5" y="-507" font-family="Helvetica,sans-Serif" font-size="10.00">+ getSize()</text>
<text text-anchor="start" x="221.5" y="-496" font-family="Helvetica,sans-Serif" font-size="10.00">+ fillMatrixCache()</text>
<text text-anchor="start" x="221.5" y="-485" font-family="Helvetica,sans-Serif" font-size="10.00">+ setSize()</text>
<text text-anchor="start" x="221.5" y="-474" font-family="Helvetica,sans-Serif" font-size="10.00">+ getCacheT2L()</text>
<text text-anchor="start" x="221.5" y="-463" font-family="Helvetica,sans-Serif" font-size="10.00">+ getCacheT2G()</text>
<text text-anchor="start" x="221.5" y="-452" font-family="Helvetica,sans-Serif" font-size="10.00">+ getCacheL2G()</text>
<text text-anchor="start" x="221.5" y="-441" font-family="Helvetica,sans-Serif" font-size="10.00">+ getCacheT2GRot()</text>
<text text-anchor="start" x="221.5" y="-430" font-family="Helvetica,sans-Serif" font-size="10.00">+ ClassDef()</text>
</a>
</g>
</g>
<!-- Node3&#45;&gt;Node2 -->
<g id="edge2" class="edge"><title>Node3&#45;&gt;Node2</title>
<path fill="none" stroke="midnightblue" d="M280,-412.621C280,-387.017 280,-361.907 280,-340.244"/>
<polygon fill="none" stroke="midnightblue" points="276.5,-412.837 280,-422.837 283.5,-412.837 276.5,-412.837"/>
</g>
<!-- Node4 -->
<g id="node4" class="node"><title>Node4</title>
<g id="a_node4"><a xlink:href="../../db/d0d/classo2_1_1Base_1_1MatrixCache.html" target="_top" xlink:title="{o2::Base::MatrixCache\l\&lt; o2::Base::Transform3D \&gt;\n||+ MatrixCache()\l+ MatrixCache()\l+ ~MatrixCache()\l+ operator=()\l+ setSize()\l+ getSize()\l+ setMatrix()\l+ getMatrix()\l+ isFilled()\l}">
<polygon fill="none" stroke="black" points="-0.5,-832 -0.5,-988 136.5,-988 136.5,-832 -0.5,-832"/>
<text text-anchor="start" x="7.5" y="-976" font-family="Helvetica,sans-Serif" font-size="10.00">o2::Base::MatrixCache</text>
<text text-anchor="middle" x="68" y="-965" font-family="Helvetica,sans-Serif" font-size="10.00">&lt; o2::Base::Transform3D &gt;</text>
<polyline fill="none" stroke="black" points="-0.5,-958 136.5,-958 "/>
<text text-anchor="middle" x="68" y="-946" font-family="Helvetica,sans-Serif" font-size="10.00"> </text>
<polyline fill="none" stroke="black" points="-0.5,-939 136.5,-939 "/>
<text text-anchor="start" x="7.5" y="-927" font-family="Helvetica,sans-Serif" font-size="10.00">+ MatrixCache()</text>
<text text-anchor="start" x="7.5" y="-916" font-family="Helvetica,sans-Serif" font-size="10.00">+ MatrixCache()</text>
<text text-anchor="start" x="7.5" y="-905" font-family="Helvetica,sans-Serif" font-size="10.00">+ ~MatrixCache()</text>
<text text-anchor="start" x="7.5" y="-894" font-family="Helvetica,sans-Serif" font-size="10.00">+ operator=()</text>
<text text-anchor="start" x="7.5" y="-883" font-family="Helvetica,sans-Serif" font-size="10.00">+ setSize()</text>
<text text-anchor="start" x="7.5" y="-872" font-family="Helvetica,sans-Serif" font-size="10.00">+ getSize()</text>
<text text-anchor="start" x="7.5" y="-861" font-family="Helvetica,sans-Serif" font-size="10.00">+ setMatrix()</text>
<text text-anchor="start" x="7.5" y="-850" font-family="Helvetica,sans-Serif" font-size="10.00">+ getMatrix()</text>
<text text-anchor="start" x="7.5" y="-839" font-family="Helvetica,sans-Serif" font-size="10.00">+ isFilled()</text>
</a>
</g>
</g>
<!-- Node4&#45;&gt;Node3 -->
<g id="edge3" class="edge"><title>Node4&#45;&gt;Node3</title>
<path fill="none" stroke="#404040" d="M117.705,-831.63C144.215,-790.363 177.344,-738.795 206.746,-693.028"/>
<polygon fill="none" stroke="#404040" points="206.862,-692.847 206.74,-685.637 213.348,-682.751 213.47,-689.961 206.862,-692.847"/>
<text text-anchor="middle" x="186.5" y="-777.5" font-family="Helvetica,sans-Serif" font-size="10.00"> +mT2G</text>
<text text-anchor="middle" x="186.5" y="-766.5" font-family="Helvetica,sans-Serif" font-size="10.00">+mT2L</text>
<text text-anchor="middle" x="186.5" y="-755.5" font-family="Helvetica,sans-Serif" font-size="10.00">+mL2G</text>
</g>
<!-- Node5 -->
<g id="node5" class="node"><title>Node5</title>
<g id="a_node5"><a xlink:href="../../db/d0d/classo2_1_1Base_1_1MatrixCache.html" target="_top" xlink:title="MatrixCache is a vector of cached transform matrices (per sensor) for specific Transformation type...">
<polygon fill="none" stroke="black" points="70.5,-1174.5 70.5,-1319.5 211.5,-1319.5 211.5,-1174.5 70.5,-1174.5"/>
<text text-anchor="middle" x="141" y="-1307.5" font-family="Helvetica,sans-Serif" font-size="10.00">o2::Base::MatrixCache&lt; T &gt;</text>
<polyline fill="none" stroke="black" points="70.5,-1300.5 211.5,-1300.5 "/>
<text text-anchor="middle" x="141" y="-1288.5" font-family="Helvetica,sans-Serif" font-size="10.00"> </text>
<polyline fill="none" stroke="black" points="70.5,-1281.5 211.5,-1281.5 "/>
<text text-anchor="start" x="78.5" y="-1269.5" font-family="Helvetica,sans-Serif" font-size="10.00">+ MatrixCache()</text>
<text text-anchor="start" x="78.5" y="-1258.5" font-family="Helvetica,sans-Serif" font-size="10.00">+ ~MatrixCache()</text>
<text text-anchor="start" x="78.5" y="-1247.5" font-family="Helvetica,sans-Serif" font-size="10.00">+ MatrixCache()</text>
<text text-anchor="start" x="78.5" y="-1236.5" font-family="Helvetica,sans-Serif" font-size="10.00">+ operator=()</text>
<text text-anchor="start" x="78.5" y="-1225.5" font-family="Helvetica,sans-Serif" font-size="10.00">+ setSize()</text>
<text text-anchor="start" x="78.5" y="-1214.5" font-family="Helvetica,sans-Serif" font-size="10.00">+ getSize()</text>
<text text-anchor="start" x="78.5" y="-1203.5" font-family="Helvetica,sans-Serif" font-size="10.00">+ setMatrix()</text>
<text text-anchor="start" x="78.5" y="-1192.5" font-family="Helvetica,sans-Serif" font-size="10.00">+ getMatrix()</text>
<text text-anchor="start" x="78.5" y="-1181.5" font-family="Helvetica,sans-Serif" font-size="10.00">+ isFilled()</text>
</a>
</g>
</g>
<!-- Node5&#45;&gt;Node4 -->
<g id="edge4" class="edge"><title>Node5&#45;&gt;Node4</title>
<path fill="none" stroke="orange" d="M71.7836,-1165.29C70.379,-1162.23 69.1094,-1159.13 68,-1156 48.9171,-1102.18 49.8489,-1037.43 55.0514,-988.016"/>
<polygon fill="orange" stroke="orange" points="68.7322,-1167.01 76.377,-1174.35 74.9752,-1163.84 68.7322,-1167.01"/>
<text text-anchor="middle" x="130" y="-1092.5" font-family="Helvetica,sans-Serif" font-size="10.00"> &lt; o2::Base::Transform3D &gt;</text>
</g>
<!-- Node6 -->
<g id="node6" class="node"><title>Node6</title>
<g id="a_node6"><a xlink:href="../../db/d0d/classo2_1_1Base_1_1MatrixCache.html" target="_top" xlink:title="{o2::Base::MatrixCache\l\&lt; o2::Base::Rotation2D \&gt;\n||+ MatrixCache()\l+ MatrixCache()\l+ ~MatrixCache()\l+ operator=()\l+ setSize()\l+ getSize()\l+ setMatrix()\l+ getMatrix()\l+ isFilled()\l}">
<polygon fill="none" stroke="black" points="156.5,-832 156.5,-988 285.5,-988 285.5,-832 156.5,-832"/>
<text text-anchor="start" x="164.5" y="-976" font-family="Helvetica,sans-Serif" font-size="10.00">o2::Base::MatrixCache</text>
<text text-anchor="middle" x="221" y="-965" font-family="Helvetica,sans-Serif" font-size="10.00">&lt; o2::Base::Rotation2D &gt;</text>
<polyline fill="none" stroke="black" points="156.5,-958 285.5,-958 "/>
<text text-anchor="middle" x="221" y="-946" font-family="Helvetica,sans-Serif" font-size="10.00"> </text>
<polyline fill="none" stroke="black" points="156.5,-939 285.5,-939 "/>
<text text-anchor="start" x="164.5" y="-927" font-family="Helvetica,sans-Serif" font-size="10.00">+ MatrixCache()</text>
<text text-anchor="start" x="164.5" y="-916" font-family="Helvetica,sans-Serif" font-size="10.00">+ MatrixCache()</text>
<text text-anchor="start" x="164.5" y="-905" font-family="Helvetica,sans-Serif" font-size="10.00">+ ~MatrixCache()</text>
<text text-anchor="start" x="164.5" y="-894" font-family="Helvetica,sans-Serif" font-size="10.00">+ operator=()</text>
<text text-anchor="start" x="164.5" y="-883" font-family="Helvetica,sans-Serif" font-size="10.00">+ setSize()</text>
<text text-anchor="start" x="164.5" y="-872" font-family="Helvetica,sans-Serif" font-size="10.00">+ getSize()</text>
<text text-anchor="start" x="164.5" y="-861" font-family="Helvetica,sans-Serif" font-size="10.00">+ setMatrix()</text>
<text text-anchor="start" x="164.5" y="-850" font-family="Helvetica,sans-Serif" font-size="10.00">+ getMatrix()</text>
<text text-anchor="start" x="164.5" y="-839" font-family="Helvetica,sans-Serif" font-size="10.00">+ isFilled()</text>
</a>
</g>
</g>
<!-- Node5&#45;&gt;Node6 -->
<g id="edge6" class="edge"><title>Node5&#45;&gt;Node6</title>
<path fill="none" stroke="orange" d="M188.782,-1164.95C189.946,-1161.96 191.025,-1158.98 192,-1156 209.84,-1101.56 216.955,-1037.13 219.681,-988.008"/>
<polygon fill="orange" stroke="orange" points="185.436,-1163.88 184.797,-1174.45 191.892,-1166.58 185.436,-1163.88"/>
<text text-anchor="middle" x="274" y="-1092.5" font-family="Helvetica,sans-Serif" font-size="10.00"> &lt; o2::Base::Rotation2D &gt;</text>
</g>
<!-- Node6&#45;&gt;Node3 -->
<g id="edge5" class="edge"><title>Node6&#45;&gt;Node3</title>
<path fill="none" stroke="#404040" d="M234.833,-831.63C239.493,-805.562 244.889,-775.383 250.294,-745.153"/>
<polygon fill="none" stroke="#404040" points="250.333,-744.934 247.451,-738.323 252.445,-733.121 255.327,-739.731 250.333,-744.934"/>
<text text-anchor="middle" x="275" y="-766.5" font-family="Helvetica,sans-Serif" font-size="10.00"> +mT2GRot</text>
</g>
<!-- Node7 -->
<g id="node7" class="node"><title>Node7</title>
<g id="a_node7"><a xlink:href="../../de/dee/classo2_1_1Base_1_1DetID.html" target="_top" xlink:title="Static class with identifiers, bitmasks and names for ALICE detectors. ">
<polygon fill="none" stroke="black" points="305.5,-804.5 305.5,-1015.5 400.5,-1015.5 400.5,-804.5 305.5,-804.5"/>
<text text-anchor="middle" x="353" y="-1003.5" font-family="Helvetica,sans-Serif" font-size="10.00">o2::Base::DetID</text>
<polyline fill="none" stroke="black" points="305.5,-996.5 400.5,-996.5 "/>
<text text-anchor="start" x="313.5" y="-984.5" font-family="Helvetica,sans-Serif" font-size="10.00">+ TOF</text>
<text text-anchor="start" x="313.5" y="-973.5" font-family="Helvetica,sans-Serif" font-size="10.00">+ PHS</text>
<text text-anchor="start" x="313.5" y="-962.5" font-family="Helvetica,sans-Serif" font-size="10.00">+ EMC</text>
<text text-anchor="start" x="313.5" y="-951.5" font-family="Helvetica,sans-Serif" font-size="10.00">+ HMP</text>
<text text-anchor="start" x="313.5" y="-940.5" font-family="Helvetica,sans-Serif" font-size="10.00">+ MFT</text>
<text text-anchor="start" x="313.5" y="-929.5" font-family="Helvetica,sans-Serif" font-size="10.00">+ Last</text>
<polyline fill="none" stroke="black" points="305.5,-922.5 400.5,-922.5 "/>
<text text-anchor="start" x="313.5" y="-910.5" font-family="Helvetica,sans-Serif" font-size="10.00">+ DetID()</text>
<text text-anchor="start" x="313.5" y="-899.5" font-family="Helvetica,sans-Serif" font-size="10.00">+ DetID()</text>
<text text-anchor="start" x="313.5" y="-888.5" font-family="Helvetica,sans-Serif" font-size="10.00">+ getID()</text>
<text text-anchor="start" x="313.5" y="-877.5" font-family="Helvetica,sans-Serif" font-size="10.00">+ getMask()</text>
<text text-anchor="start" x="313.5" y="-866.5" font-family="Helvetica,sans-Serif" font-size="10.00">+ getName()</text>
<text text-anchor="start" x="313.5" y="-855.5" font-family="Helvetica,sans-Serif" font-size="10.00">+ operator int()</text>
<text text-anchor="start" x="313.5" y="-844.5" font-family="Helvetica,sans-Serif" font-size="10.00">+ DetID()</text>
<text text-anchor="start" x="313.5" y="-833.5" font-family="Helvetica,sans-Serif" font-size="10.00">+ getNDetectors()</text>
<text text-anchor="start" x="313.5" y="-822.5" font-family="Helvetica,sans-Serif" font-size="10.00">+ getName()</text>
<text text-anchor="start" x="313.5" y="-811.5" font-family="Helvetica,sans-Serif" font-size="10.00">+ getMask()</text>
</a>
</g>
</g>
<!-- Node7&#45;&gt;Node3 -->
<g id="edge7" class="edge"><title>Node7&#45;&gt;Node3</title>
<path fill="none" stroke="#404040" d="M329.802,-804.133C325.614,-785.201 321.155,-765.045 316.693,-744.873"/>
<polygon fill="none" stroke="#404040" points="316.659,-744.719 311.458,-739.725 314.067,-733.002 319.269,-737.997 316.659,-744.719"/>
<text text-anchor="middle" x="348" y="-766.5" font-family="Helvetica,sans-Serif" font-size="10.00"> +mDetID</text>
</g>
<!-- Node8 -->
<g id="node8" class="node"><title>Node8</title>
<polygon fill="none" stroke="#bfbfbf" points="303,-1218.5 303,-1275.5 403,-1275.5 403,-1218.5 303,-1218.5"/>
<text text-anchor="middle" x="353" y="-1263.5" font-family="Helvetica,sans-Serif" font-size="10.00">static constexpr ID</text>
<polyline fill="none" stroke="#bfbfbf" points="303,-1256.5 403,-1256.5 "/>
<text text-anchor="middle" x="353" y="-1244.5" font-family="Helvetica,sans-Serif" font-size="10.00"> </text>
<polyline fill="none" stroke="#bfbfbf" points="303,-1237.5 403,-1237.5 "/>
<text text-anchor="middle" x="353" y="-1225.5" font-family="Helvetica,sans-Serif" font-size="10.00"> </text>
</g>
<!-- Node8&#45;&gt;Node7 -->
<g id="edge8" class="edge"><title>Node8&#45;&gt;Node7</title>
<path fill="none" stroke="#404040" d="M353,-1218.3C353,-1176.82 353,-1096.13 353,-1027.85"/>
<polygon fill="none" stroke="#404040" points="353,-1027.69 349,-1021.69 353,-1015.69 357,-1021.69 353,-1027.69"/>
<text text-anchor="middle" x="368.5" y="-1147.5" font-family="Helvetica,sans-Serif" font-size="10.00"> +ACO</text>
<text text-anchor="middle" x="368.5" y="-1136.5" font-family="Helvetica,sans-Serif" font-size="10.00">+First</text>
<text text-anchor="middle" x="368.5" y="-1125.5" font-family="Helvetica,sans-Serif" font-size="10.00">+FIT</text>
<text text-anchor="middle" x="368.5" y="-1114.5" font-family="Helvetica,sans-Serif" font-size="10.00">+MCH</text>
<text text-anchor="middle" x="368.5" y="-1103.5" font-family="Helvetica,sans-Serif" font-size="10.00">+TRD</text>
<text text-anchor="middle" x="368.5" y="-1092.5" font-family="Helvetica,sans-Serif" font-size="10.00">+TPC</text>
<text text-anchor="middle" x="368.5" y="-1081.5" font-family="Helvetica,sans-Serif" font-size="10.00">+ZDC</text>
<text text-anchor="middle" x="368.5" y="-1070.5" font-family="Helvetica,sans-Serif" font-size="10.00">+MID</text>
<text text-anchor="middle" x="368.5" y="-1059.5" font-family="Helvetica,sans-Serif" font-size="10.00">+ITS</text>
<text text-anchor="middle" x="368.5" y="-1048.5" font-family="Helvetica,sans-Serif" font-size="10.00">+CPV</text>
<text text-anchor="middle" x="368.5" y="-1037.5" font-family="Helvetica,sans-Serif" font-size="10.00">...</text>
</g>
<!-- Node9 -->
<g id="node9" class="node"><title>Node9</title>
<polygon fill="none" stroke="#bfbfbf" points="443.5,-1218.5 443.5,-1275.5 472.5,-1275.5 472.5,-1218.5 443.5,-1218.5"/>
<text text-anchor="middle" x="458" y="-1263.5" font-family="Helvetica,sans-Serif" font-size="10.00">int</text>
<polyline fill="none" stroke="#bfbfbf" points="443.5,-1256.5 472.5,-1256.5 "/>
<text text-anchor="middle" x="458" y="-1244.5" font-family="Helvetica,sans-Serif" font-size="10.00"> </text>
<polyline fill="none" stroke="#bfbfbf" points="443.5,-1237.5 472.5,-1237.5 "/>
<text text-anchor="middle" x="458" y="-1225.5" font-family="Helvetica,sans-Serif" font-size="10.00"> </text>
</g>
<!-- Node9&#45;&gt;Node3 -->
<g id="edge10" class="edge"><title>Node9&#45;&gt;Node3</title>
<path fill="none" stroke="#404040" d="M461.821,-1218.44C466.815,-1177.88 474.033,-1099.81 466,-1034 453.239,-929.461 448.235,-901.733 409,-804 393.798,-766.132 373.193,-726.878 352.915,-691.965"/>
<polygon fill="none" stroke="#404040" points="352.715,-691.623 346.228,-688.475 346.639,-681.275 353.126,-684.424 352.715,-691.623"/>
<text text-anchor="middle" x="482.5" y="-907.5" font-family="Helvetica,sans-Serif" font-size="10.00"> +mSize</text>
</g>
<!-- Node9&#45;&gt;Node7 -->
<g id="edge9" class="edge"><title>Node9&#45;&gt;Node7</title>
<path fill="none" stroke="#404040" d="M443.382,-1224.39C432.09,-1206.72 416.929,-1180.71 408,-1156 389.25,-1104.11 397.064,-1087.84 385,-1034 384.515,-1031.83 384.018,-1029.65 383.511,-1027.45"/>
<polygon fill="none" stroke="#404040" points="383.464,-1027.24 378.198,-1022.32 380.721,-1015.56 385.986,-1020.49 383.464,-1027.24"/>
<text text-anchor="middle" x="437" y="-1092.5" font-family="Helvetica,sans-Serif" font-size="10.00"> +nDetectors</text>
</g>
<!-- Node10 -->
<g id="node10" class="node"><title>Node10</title>
<g id="a_node10"><a xlink:href="../../dc/daa/classo2_1_1dataformats_1_1MCTruthContainer.html" target="_top" xlink:title="{o2::dataformats::MCTruth\lContainer\&lt; o2::o2::MCCompLabel \&gt;\n||+ MCTruthContainer()\l+ MCTruthContainer()\l+ ~MCTruthContainer()\l+ operator=()\l+ getMCTruthHeader()\l+ getElement()\l+ getIndexedSize()\l+ getNElements()\l+ getLabels()\l+ getLabels()\l+ clear()\l+ addElement()\l+ ClassDefNV()\l}">
<polygon fill="none" stroke="black" points="369.5,-173 369.5,-373 544.5,-373 544.5,-173 369.5,-173"/>
<text text-anchor="start" x="377.5" y="-361" font-family="Helvetica,sans-Serif" font-size="10.00">o2::dataformats::MCTruth</text>
<text text-anchor="middle" x="457" y="-350" font-family="Helvetica,sans-Serif" font-size="10.00">Container&lt; o2::o2::MCCompLabel &gt;</text>
<polyline fill="none" stroke="black" points="369.5,-343 544.5,-343 "/>
<text text-anchor="middle" x="457" y="-331" font-family="Helvetica,sans-Serif" font-size="10.00"> </text>
<polyline fill="none" stroke="black" points="369.5,-324 544.5,-324 "/>
<text text-anchor="start" x="377.5" y="-312" font-family="Helvetica,sans-Serif" font-size="10.00">+ MCTruthContainer()</text>
<text text-anchor="start" x="377.5" y="-301" font-family="Helvetica,sans-Serif" font-size="10.00">+ MCTruthContainer()</text>
<text text-anchor="start" x="377.5" y="-290" font-family="Helvetica,sans-Serif" font-size="10.00">+ ~MCTruthContainer()</text>
<text text-anchor="start" x="377.5" y="-279" font-family="Helvetica,sans-Serif" font-size="10.00">+ operator=()</text>
<text text-anchor="start" x="377.5" y="-268" font-family="Helvetica,sans-Serif" font-size="10.00">+ getMCTruthHeader()</text>
<text text-anchor="start" x="377.5" y="-257" font-family="Helvetica,sans-Serif" font-size="10.00">+ getElement()</text>
<text text-anchor="start" x="377.5" y="-246" font-family="Helvetica,sans-Serif" font-size="10.00">+ getIndexedSize()</text>
<text text-anchor="start" x="377.5" y="-235" font-family="Helvetica,sans-Serif" font-size="10.00">+ getNElements()</text>
<text text-anchor="start" x="377.5" y="-224" font-family="Helvetica,sans-Serif" font-size="10.00">+ getLabels()</text>
<text text-anchor="start" x="377.5" y="-213" font-family="Helvetica,sans-Serif" font-size="10.00">+ getLabels()</text>
<text text-anchor="start" x="377.5" y="-202" font-family="Helvetica,sans-Serif" font-size="10.00">+ clear()</text>
<text text-anchor="start" x="377.5" y="-191" font-family="Helvetica,sans-Serif" font-size="10.00">+ addElement()</text>
<text text-anchor="start" x="377.5" y="-180" font-family="Helvetica,sans-Serif" font-size="10.00">+ ClassDefNV()</text>
</a>
</g>
</g>
<!-- Node10&#45;&gt;Node1 -->
<g id="edge11" class="edge"><title>Node10&#45;&gt;Node1</title>
<path fill="none" stroke="#404040" d="M420.417,-172.703C415.741,-160.012 411.028,-147.219 406.554,-135.074"/>
<polygon fill="none" stroke="#404040" points="406.495,-134.914 400.667,-130.667 402.346,-123.654 408.174,-127.901 406.495,-134.914"/>
<text text-anchor="middle" x="442.5" y="-145.5" font-family="Helvetica,sans-Serif" font-size="10.00"> #mClsLabels</text>
</g>
<!-- Node11 -->
<g id="node11" class="node"><title>Node11</title>
<g id="a_node11"><a xlink:href="../../dc/daa/classo2_1_1dataformats_1_1MCTruthContainer.html" target="_top" xlink:title="{o2::dataformats::MCTruth\lContainer\&lt; TruthElement \&gt;\n||+ MCTruthContainer()\l+ ~MCTruthContainer()\l+ MCTruthContainer()\l+ operator=()\l+ getMCTruthHeader()\l+ getElement()\l+ getIndexedSize()\l+ getNElements()\l+ getLabels()\l+ getLabels()\l+ clear()\l+ addElement()\l+ ClassDefNV()\l}">
<polygon fill="none" stroke="black" points="389.5,-478 389.5,-678 524.5,-678 524.5,-478 389.5,-478"/>
<text text-anchor="start" x="397.5" y="-666" font-family="Helvetica,sans-Serif" font-size="10.00">o2::dataformats::MCTruth</text>
<text text-anchor="middle" x="457" y="-655" font-family="Helvetica,sans-Serif" font-size="10.00">Container&lt; TruthElement &gt;</text>
<polyline fill="none" stroke="black" points="389.5,-648 524.5,-648 "/>
<text text-anchor="middle" x="457" y="-636" font-family="Helvetica,sans-Serif" font-size="10.00"> </text>
<polyline fill="none" stroke="black" points="389.5,-629 524.5,-629 "/>
<text text-anchor="start" x="397.5" y="-617" font-family="Helvetica,sans-Serif" font-size="10.00">+ MCTruthContainer()</text>
<text text-anchor="start" x="397.5" y="-606" font-family="Helvetica,sans-Serif" font-size="10.00">+ ~MCTruthContainer()</text>
<text text-anchor="start" x="397.5" y="-595" font-family="Helvetica,sans-Serif" font-size="10.00">+ MCTruthContainer()</text>
<text text-anchor="start" x="397.5" y="-584" font-family="Helvetica,sans-Serif" font-size="10.00">+ operator=()</text>
<text text-anchor="start" x="397.5" y="-573" font-family="Helvetica,sans-Serif" font-size="10.00">+ getMCTruthHeader()</text>
<text text-anchor="start" x="397.5" y="-562" font-family="Helvetica,sans-Serif" font-size="10.00">+ getElement()</text>
<text text-anchor="start" x="397.5" y="-551" font-family="Helvetica,sans-Serif" font-size="10.00">+ getIndexedSize()</text>
<text text-anchor="start" x="397.5" y="-540" font-family="Helvetica,sans-Serif" font-size="10.00">+ getNElements()</text>
<text text-anchor="start" x="397.5" y="-529" font-family="Helvetica,sans-Serif" font-size="10.00">+ getLabels()</text>
<text text-anchor="start" x="397.5" y="-518" font-family="Helvetica,sans-Serif" font-size="10.00">+ getLabels()</text>
<text text-anchor="start" x="397.5" y="-507" font-family="Helvetica,sans-Serif" font-size="10.00">+ clear()</text>
<text text-anchor="start" x="397.5" y="-496" font-family="Helvetica,sans-Serif" font-size="10.00">+ addElement()</text>
<text text-anchor="start" x="397.5" y="-485" font-family="Helvetica,sans-Serif" font-size="10.00">+ ClassDefNV()</text>
</a>
</g>
</g>
<!-- Node11&#45;&gt;Node10 -->
<g id="edge12" class="edge"><title>Node11&#45;&gt;Node10</title>
<path fill="none" stroke="orange" d="M457,-467.446C457,-436.646 457,-403.335 457,-373.177"/>
<polygon fill="orange" stroke="orange" points="453.5,-467.786 457,-477.786 460.5,-467.787 453.5,-467.786"/>
<text text-anchor="middle" x="517" y="-395.5" font-family="Helvetica,sans-Serif" font-size="10.00"> &lt; o2::o2::MCCompLabel &gt;</text>
</g>
</g>
</svg>
        <g id="navigator" transform="translate(0 0)" fill="#404254">
                <rect fill="#f2f5e9" fill-opacity="0.5" stroke="#606060" stroke-width=".5" x="0" y="0" width="60" height="60"/>
                <use id="zoomplus" xlink:href="#zoomPlus" x="17" y="9" onmousedown="handleZoom(evt,'in')"/>
                <use id="zoomminus" xlink:href="#zoomMin" x="42" y="9" onmousedown="handleZoom(evt,'out')"/>
                <use id="reset" xlink:href="#resetDef" x="30" y="36" onmousedown="handleReset()"/>
                <g id="arrowUp" xlink:href="#dirArrow" transform="translate(30 24)" onmousedown="handlePan(0,-1)">
                  <use xlink:href="#rim" fill="#404040">
                        <set attributeName="fill" to="#808080" begin="arrowUp.mouseover" end="arrowUp.mouseout"/>
                  </use>
                  <path fill="none" stroke="white" stroke-width="1.5" d="M0,-3.0v7 M-2.5,-0.5L0,-3.0L2.5,-0.5"/>
                </g>
                <g id="arrowRight" xlink:href="#dirArrow" transform="rotate(90) translate(36 -43)" onmousedown="handlePan(1,0)">
                  <use xlink:href="#rim" fill="#404040">
                        <set attributeName="fill" to="#808080" begin="arrowRight.mouseover" end="arrowRight.mouseout"/>
                  </use>
                  <path fill="none" stroke="white" stroke-width="1.5" d="M0,-3.0v7 M-2.5,-0.5L0,-3.0L2.5,-0.5"/>
                </g>
                <g id="arrowDown" xlink:href="#dirArrow" transform="rotate(180) translate(-30 -48)" onmousedown="handlePan(0,1)">
                  <use xlink:href="#rim" fill="#404040">
                        <set attributeName="fill" to="#808080" begin="arrowDown.mouseover" end="arrowDown.mouseout"/>
                  </use>
                  <path fill="none" stroke="white" stroke-width="1.5" d="M0,-3.0v7 M-2.5,-0.5L0,-3.0L2.5,-0.5"/>
                </g>
                <g id="arrowLeft" xlink:href="#dirArrow" transform="rotate(270) translate(-36 17)" onmousedown="handlePan(-1,0)">
                  <use xlink:href="#rim" fill="#404040">
                        <set attributeName="fill" to="#808080" begin="arrowLeft.mouseover" end="arrowLeft.mouseout"/>
                  </use>
                  <path fill="none" stroke="white" stroke-width="1.5" d="M0,-3.0v7 M-2.5,-0.5L0,-3.0L2.5,-0.5"/>
                </g>
        </g>
        <svg viewBox="0 0 15 15" width="100%" height="30px" preserveAspectRatio="xMaxYMin meet">
         <g id="arrow_out" transform="scale(0.3 0.3)">
          <a xlink:href="classo2_1_1ITS_1_1TrivialClusterer__coll__graph_org.svg" target="_base">
           <rect id="button" ry="5" rx="5" y="6" x="6" height="38" width="38"
                fill="#f2f5e9" fill-opacity="0.5" stroke="#606060" stroke-width="1.0"/>
           <path id="arrow"
             d="M 11.500037,31.436501 C 11.940474,20.09759 22.043105,11.32322 32.158766,21.979434 L 37.068811,17.246167 C 37.068811,17.246167 37.088388,32 37.088388,32 L 22.160133,31.978069 C 22.160133,31.978069 26.997745,27.140456 26.997745,27.140456 C 18.528582,18.264221 13.291696,25.230495 11.500037,31.436501 z"
             style="fill:#404040;"/>
          </a>
         </g>
        </svg>
</svg>
