<?xml version="1.0" encoding="UTF-8" standalone="no"?>
<!DOCTYPE svg PUBLIC "-//W3C//DTD SVG 1.1//EN"
 "http://www.w3.org/Graphics/SVG/1.1/DTD/svg11.dtd">
<!-- Generated by graphviz version 2.36.0 (20140111.2315)
 -->
<!-- Title: /home/travis/build/AliceO2Group/AliceO2/Utilities/DataFlow/src/runFakeTimeframeGeneratorDevice.cxx Pages: 1 -->
<svg width="377pt" height="298pt"
 viewBox="0.00 0.00 377.00 298.00" xmlns="http://www.w3.org/2000/svg" xmlns:xlink="http://www.w3.org/1999/xlink">
<g id="graph0" class="graph" transform="scale(1 1) rotate(0) translate(4 294)">
<title>/home/travis/build/AliceO2Group/AliceO2/Utilities/DataFlow/src/runFakeTimeframeGeneratorDevice.cxx</title>
<!-- Node1 -->
<g id="node1" class="node"><title>Node1</title>
<polygon fill="#bfbfbf" stroke="black" points="109,-237 109,-289 303,-289 303,-237 109,-237"/>
<text text-anchor="start" x="117" y="-277" font-family="Helvetica,sans-Serif" font-size="10.00">/home/travis/build</text>
<text text-anchor="start" x="117" y="-266" font-family="Helvetica,sans-Serif" font-size="10.00">/AliceO2Group/AliceO2</text>
<text text-anchor="start" x="117" y="-255" font-family="Helvetica,sans-Serif" font-size="10.00">/Utilities/DataFlow/src</text>
<text text-anchor="middle" x="206" y="-244" font-family="Helvetica,sans-Serif" font-size="10.00">/runFakeTimeframeGeneratorDevice.cxx</text>
</g>
<!-- Node2 -->
<g id="node2" class="node"><title>Node2</title>
<polygon fill="none" stroke="#bfbfbf" points="0.5,-174.5 0.5,-193.5 101.5,-193.5 101.5,-174.5 0.5,-174.5"/>
<text text-anchor="middle" x="51" y="-181.5" font-family="Helvetica,sans-Serif" font-size="10.00">runFairMQDevice.h</text>
</g>
<!-- Node1&#45;&gt;Node2 -->
<g id="edge1" class="edge"><title>Node1&#45;&gt;Node2</title>
<path fill="none" stroke="midnightblue" d="M155.247,-236.787C129.215,-223.855 98.5946,-208.644 77.3028,-198.067"/>
<polygon fill="midnightblue" stroke="midnightblue" points="78.7395,-194.872 68.2266,-193.558 75.6252,-201.141 78.7395,-194.872"/>
</g>
<!-- Node3 -->
<g id="node3" class="node"><title>Node3</title>
<g id="a_node3"><a xlink:href="../../d4/d98/FakeTimeframeGeneratorDevice_8h.html" target="_top" xlink:title="DataFlow/FakeTimeframeGenerator\lDevice.h">
<polygon fill="none" stroke="black" points="119.5,-169 119.5,-199 292.5,-199 292.5,-169 119.5,-169"/>
<text text-anchor="start" x="127.5" y="-187" font-family="Helvetica,sans-Serif" font-size="10.00">DataFlow/FakeTimeframeGenerator</text>
<text text-anchor="middle" x="206" y="-176" font-family="Helvetica,sans-Serif" font-size="10.00">Device.h</text>
</a>
</g>
</g>
<!-- Node1&#45;&gt;Node3 -->
<g id="edge2" class="edge"><title>Node1&#45;&gt;Node3</title>
<path fill="none" stroke="midnightblue" d="M206,-236.787C206,-228.029 206,-218.225 206,-209.523"/>
<polygon fill="midnightblue" stroke="midnightblue" points="209.5,-209.252 206,-199.252 202.5,-209.252 209.5,-209.252"/>
</g>
<!-- Node13 -->
<g id="node13" class="node"><title>Node13</title>
<polygon fill="none" stroke="#bfbfbf" points="311,-174.5 311,-193.5 355,-193.5 355,-174.5 311,-174.5"/>
<text text-anchor="middle" x="333" y="-181.5" font-family="Helvetica,sans-Serif" font-size="10.00">vector</text>
</g>
<!-- Node1&#45;&gt;Node13 -->
<g id="edge12" class="edge"><title>Node1&#45;&gt;Node13</title>
<path fill="none" stroke="midnightblue" d="M247.585,-236.787C268.337,-224.205 292.65,-209.464 310.018,-198.934"/>
<polygon fill="midnightblue" stroke="midnightblue" points="312.149,-201.735 318.885,-193.558 308.52,-195.749 312.149,-201.735"/>
</g>
<!-- Node4 -->
<g id="node4" class="node"><title>Node4</title>
<g id="a_node4"><a xlink:href="../../d2/dee/O2Device_8h.html" target="_top" xlink:title="O2Device/O2Device.h">
<polygon fill="none" stroke="black" points="148.5,-112.5 148.5,-131.5 263.5,-131.5 263.5,-112.5 148.5,-112.5"/>
<text text-anchor="middle" x="206" y="-119.5" font-family="Helvetica,sans-Serif" font-size="10.00">O2Device/O2Device.h</text>
</a>
</g>
</g>
<!-- Node3&#45;&gt;Node4 -->
<g id="edge3" class="edge"><title>Node3&#45;&gt;Node4</title>
<path fill="none" stroke="midnightblue" d="M206,-168.781C206,-160.781 206,-150.689 206,-142.017"/>
<polygon fill="midnightblue" stroke="midnightblue" points="209.5,-141.73 206,-131.731 202.5,-141.731 209.5,-141.73"/>
</g>
<!-- Node5 -->
<g id="node5" class="node"><title>Node5</title>
<polygon fill="none" stroke="#bfbfbf" points="41,-56.5 41,-75.5 129,-75.5 129,-56.5 41,-56.5"/>
<text text-anchor="middle" x="85" y="-63.5" font-family="Helvetica,sans-Serif" font-size="10.00">FairMQDevice.h</text>
</g>
<!-- Node4&#45;&gt;Node5 -->
<g id="edge4" class="edge"><title>Node4&#45;&gt;Node5</title>
<path fill="none" stroke="midnightblue" d="M186.827,-112.444C167.091,-103.636 136.115,-89.8116 113.507,-79.722"/>
<polygon fill="midnightblue" stroke="midnightblue" points="114.641,-76.3957 104.083,-75.5164 111.789,-82.788 114.641,-76.3957"/>
</g>
<!-- Node6 -->
<g id="node6" class="node"><title>Node6</title>
<g id="a_node6"><a xlink:href="../../dc/dcd/DataHeader_8h.html" target="_top" xlink:title="Headers/DataHeader.h">
<polygon fill="none" stroke="black" points="147.5,-56.5 147.5,-75.5 264.5,-75.5 264.5,-56.5 147.5,-56.5"/>
<text text-anchor="middle" x="206" y="-63.5" font-family="Helvetica,sans-Serif" font-size="10.00">Headers/DataHeader.h</text>
</a>
</g>
</g>
<!-- Node4&#45;&gt;Node6 -->
<g id="edge5" class="edge"><title>Node4&#45;&gt;Node6</title>
<path fill="none" stroke="midnightblue" d="M206,-112.083C206,-105.006 206,-94.8611 206,-85.9865"/>
<polygon fill="midnightblue" stroke="midnightblue" points="209.5,-85.751 206,-75.7511 202.5,-85.7511 209.5,-85.751"/>
</g>
<!-- Node12 -->
<g id="node12" class="node"><title>Node12</title>
<polygon fill="none" stroke="#bfbfbf" points="282.5,-56.5 282.5,-75.5 341.5,-75.5 341.5,-56.5 282.5,-56.5"/>
<text text-anchor="middle" x="312" y="-63.5" font-family="Helvetica,sans-Serif" font-size="10.00">stdexcept</text>
</g>
<!-- Node4&#45;&gt;Node12 -->
<g id="edge11" class="edge"><title>Node4&#45;&gt;Node12</title>
<path fill="none" stroke="midnightblue" d="M223.031,-112.324C240.03,-103.664 266.376,-90.2424 285.993,-80.249"/>
<polygon fill="midnightblue" stroke="midnightblue" points="287.69,-83.3125 295.012,-75.6545 284.512,-77.0752 287.69,-83.3125"/>
</g>
<!-- Node7 -->
<g id="node7" class="node"><title>Node7</title>
<polygon fill="none" stroke="#bfbfbf" points="47,-0.5 47,-19.5 93,-19.5 93,-0.5 47,-0.5"/>
<text text-anchor="middle" x="70" y="-7.5" font-family="Helvetica,sans-Serif" font-size="10.00">cstdint</text>
</g>
<!-- Node6&#45;&gt;Node7 -->
<g id="edge6" class="edge"><title>Node6&#45;&gt;Node7</title>
<path fill="none" stroke="midnightblue" d="M184.45,-56.4435C161.969,-47.5171 126.512,-33.4387 101.02,-23.3168"/>
<polygon fill="midnightblue" stroke="midnightblue" points="102.035,-19.9539 91.4488,-19.5164 99.4513,-26.4598 102.035,-19.9539"/>
</g>
<!-- Node8 -->
<g id="node8" class="node"><title>Node8</title>
<polygon fill="none" stroke="#bfbfbf" points="111,-0.5 111,-19.5 163,-19.5 163,-0.5 111,-0.5"/>
<text text-anchor="middle" x="137" y="-7.5" font-family="Helvetica,sans-Serif" font-size="10.00">memory</text>
</g>
<!-- Node6&#45;&gt;Node8 -->
<g id="edge7" class="edge"><title>Node6&#45;&gt;Node8</title>
<path fill="none" stroke="midnightblue" d="M194.914,-56.324C184.514,-48.1849 168.739,-35.8395 156.278,-26.0874"/>
<polygon fill="midnightblue" stroke="midnightblue" points="158.32,-23.2407 148.288,-19.8339 154.006,-28.7533 158.32,-23.2407"/>
</g>
<!-- Node9 -->
<g id="node9" class="node"><title>Node9</title>
<polygon fill="none" stroke="#bfbfbf" points="181.5,-0.5 181.5,-19.5 230.5,-19.5 230.5,-0.5 181.5,-0.5"/>
<text text-anchor="middle" x="206" y="-7.5" font-family="Helvetica,sans-Serif" font-size="10.00">cassert</text>
</g>
<!-- Node6&#45;&gt;Node9 -->
<g id="edge8" class="edge"><title>Node6&#45;&gt;Node9</title>
<path fill="none" stroke="midnightblue" d="M206,-56.083C206,-49.0059 206,-38.8611 206,-29.9865"/>
<polygon fill="midnightblue" stroke="midnightblue" points="209.5,-29.751 206,-19.7511 202.5,-29.7511 209.5,-29.751"/>
</g>
<!-- Node10 -->
<g id="node10" class="node"><title>Node10</title>
<polygon fill="none" stroke="#bfbfbf" points="249,-0.5 249,-19.5 295,-19.5 295,-0.5 249,-0.5"/>
<text text-anchor="middle" x="272" y="-7.5" font-family="Helvetica,sans-Serif" font-size="10.00">cstring</text>
</g>
<!-- Node6&#45;&gt;Node10 -->
<g id="edge9" class="edge"><title>Node6&#45;&gt;Node10</title>
<path fill="none" stroke="midnightblue" d="M216.604,-56.324C226.456,-48.2631 241.351,-36.0765 253.215,-26.3695"/>
<polygon fill="midnightblue" stroke="midnightblue" points="255.68,-28.8752 261.203,-19.8339 251.247,-23.4575 255.68,-28.8752"/>
</g>
<!-- Node11 -->
<g id="node11" class="node"><title>Node11</title>
<polygon fill="none" stroke="#bfbfbf" points="313,-0.5 313,-19.5 369,-19.5 369,-0.5 313,-0.5"/>
<text text-anchor="middle" x="341" y="-7.5" font-family="Helvetica,sans-Serif" font-size="10.00">algorithm</text>
</g>
<!-- Node6&#45;&gt;Node11 -->
<g id="edge10" class="edge"><title>Node6&#45;&gt;Node11</title>
<path fill="none" stroke="midnightblue" d="M227.391,-56.4435C249.707,-47.5171 284.903,-33.4387 310.208,-23.3168"/>
<polygon fill="midnightblue" stroke="midnightblue" points="311.724,-26.4801 319.709,-19.5164 309.124,-19.9807 311.724,-26.4801"/>
</g>
</g>
</svg>
