<?xml version="1.0" encoding="UTF-8" standalone="no"?>
<!DOCTYPE svg PUBLIC "-//W3C//DTD SVG 1.1//EN"
 "http://www.w3.org/Graphics/SVG/1.1/DTD/svg11.dtd">
<!-- Generated by graphviz version 2.36.0 (20140111.2315)
 -->
<!-- Title: /home/travis/build/AliceO2Group/AliceO2/Detectors/TPC/simulation/include/TPCSimulation/Baseline.h Pages: 1 -->
<svg width="1359pt" height="422pt"
 viewBox="0.00 0.00 1359.00 422.00" xmlns="http://www.w3.org/2000/svg" xmlns:xlink="http://www.w3.org/1999/xlink">
<g id="graph0" class="graph" transform="scale(1 1) rotate(0) translate(4 418)">
<title>/home/travis/build/AliceO2Group/AliceO2/Detectors/TPC/simulation/include/TPCSimulation/Baseline.h</title>
<!-- Node1 -->
<g id="node1" class="node"><title>Node1</title>
<polygon fill="#bfbfbf" stroke="black" points="461,-361 461,-413 629,-413 629,-361 461,-361"/>
<text text-anchor="start" x="469" y="-401" font-family="Helvetica,sans-Serif" font-size="10.00">/home/travis/build</text>
<text text-anchor="start" x="469" y="-390" font-family="Helvetica,sans-Serif" font-size="10.00">/AliceO2Group/AliceO2</text>
<text text-anchor="start" x="469" y="-379" font-family="Helvetica,sans-Serif" font-size="10.00">/Detectors/TPC/simulation</text>
<text text-anchor="middle" x="545" y="-368" font-family="Helvetica,sans-Serif" font-size="10.00">/include/TPCSimulation/Baseline.h</text>
</g>
<!-- Node2 -->
<g id="node2" class="node"><title>Node2</title>
<polygon fill="none" stroke="#bfbfbf" points="523,-248.5 523,-267.5 567,-267.5 567,-248.5 523,-248.5"/>
<text text-anchor="middle" x="545" y="-255.5" font-family="Helvetica,sans-Serif" font-size="10.00">Vc/Vc</text>
</g>
<!-- Node1&#45;&gt;Node2 -->
<g id="edge1" class="edge"><title>Node1&#45;&gt;Node2</title>
<path fill="none" stroke="midnightblue" d="M545,-360.909C545,-336.409 545,-299.69 545,-277.664"/>
<polygon fill="midnightblue" stroke="midnightblue" points="548.5,-277.628 545,-267.628 541.5,-277.628 548.5,-277.628"/>
</g>
<!-- Node3 -->
<g id="node3" class="node"><title>Node3</title>
<g id="a_node3"><a xlink:href="../../dd/d0b/PadSecPos_8h.html" target="_top" xlink:title="TPCBase/PadSecPos.h">
<polygon fill="none" stroke="black" points="391,-304.5 391,-323.5 513,-323.5 513,-304.5 391,-304.5"/>
<text text-anchor="middle" x="452" y="-311.5" font-family="Helvetica,sans-Serif" font-size="10.00">TPCBase/PadSecPos.h</text>
</a>
</g>
</g>
<!-- Node1&#45;&gt;Node3 -->
<g id="edge2" class="edge"><title>Node1&#45;&gt;Node3</title>
<path fill="none" stroke="midnightblue" d="M512.212,-360.968C498.71,-350.66 483.514,-339.059 471.766,-330.09"/>
<polygon fill="midnightblue" stroke="midnightblue" points="473.612,-327.096 463.539,-323.81 469.364,-332.66 473.612,-327.096"/>
</g>
<!-- Node21 -->
<g id="node21" class="node"><title>Node21</title>
<g id="a_node21"><a xlink:href="../../db/dac/RandomRing_8h.html" target="_top" xlink:title="TPCBase/RandomRing.h">
<polygon fill="none" stroke="black" points="612,-304.5 612,-323.5 740,-323.5 740,-304.5 612,-304.5"/>
<text text-anchor="middle" x="676" y="-311.5" font-family="Helvetica,sans-Serif" font-size="10.00">TPCBase/RandomRing.h</text>
</a>
</g>
</g>
<!-- Node1&#45;&gt;Node21 -->
<g id="edge21" class="edge"><title>Node1&#45;&gt;Node21</title>
<path fill="none" stroke="midnightblue" d="M591.186,-360.968C611.26,-350.088 633.993,-337.767 650.867,-328.622"/>
<polygon fill="midnightblue" stroke="midnightblue" points="652.937,-331.481 660.061,-323.639 649.601,-325.327 652.937,-331.481"/>
</g>
<!-- Node4 -->
<g id="node4" class="node"><title>Node4</title>
<g id="a_node4"><a xlink:href="../../d3/dd6/Sector_8h.html" target="_top" xlink:title="TPCBase/Sector.h">
<polygon fill="none" stroke="black" points="282.5,-248.5 282.5,-267.5 381.5,-267.5 381.5,-248.5 282.5,-248.5"/>
<text text-anchor="middle" x="332" y="-255.5" font-family="Helvetica,sans-Serif" font-size="10.00">TPCBase/Sector.h</text>
</a>
</g>
</g>
<!-- Node3&#45;&gt;Node4 -->
<g id="edge3" class="edge"><title>Node3&#45;&gt;Node4</title>
<path fill="none" stroke="midnightblue" d="M432.986,-304.444C413.412,-295.636 382.692,-281.812 360.271,-271.722"/>
<polygon fill="midnightblue" stroke="midnightblue" points="361.481,-268.428 350.925,-267.516 358.608,-274.812 361.481,-268.428"/>
</g>
<!-- Node20 -->
<g id="node20" class="node"><title>Node20</title>
<g id="a_node20"><a xlink:href="../../de/d41/PadPos_8h.html" target="_top" xlink:title="TPCBase/PadPos.h">
<polygon fill="none" stroke="black" points="399.5,-248.5 399.5,-267.5 504.5,-267.5 504.5,-248.5 399.5,-248.5"/>
<text text-anchor="middle" x="452" y="-255.5" font-family="Helvetica,sans-Serif" font-size="10.00">TPCBase/PadPos.h</text>
</a>
</g>
</g>
<!-- Node3&#45;&gt;Node20 -->
<g id="edge20" class="edge"><title>Node3&#45;&gt;Node20</title>
<path fill="none" stroke="midnightblue" d="M452,-304.083C452,-297.006 452,-286.861 452,-277.986"/>
<polygon fill="midnightblue" stroke="midnightblue" points="455.5,-277.751 452,-267.751 448.5,-277.751 455.5,-277.751"/>
</g>
<!-- Node5 -->
<g id="node5" class="node"><title>Node5</title>
<g id="a_node5"><a xlink:href="../../d6/d51/TPC_2base_2include_2TPCBase_2Constants_8h.html" target="_top" xlink:title="TPCBase/Constants.h">
<polygon fill="none" stroke="black" points="213,-192.5 213,-211.5 329,-211.5 329,-192.5 213,-192.5"/>
<text text-anchor="middle" x="271" y="-199.5" font-family="Helvetica,sans-Serif" font-size="10.00">TPCBase/Constants.h</text>
</a>
</g>
</g>
<!-- Node4&#45;&gt;Node5 -->
<g id="edge4" class="edge"><title>Node4&#45;&gt;Node5</title>
<path fill="none" stroke="midnightblue" d="M322.199,-248.324C313.182,-240.341 299.594,-228.313 288.682,-218.653"/>
<polygon fill="midnightblue" stroke="midnightblue" points="290.787,-215.842 280.979,-211.834 286.147,-221.083 290.787,-215.842"/>
</g>
<!-- Node6 -->
<g id="node6" class="node"><title>Node6</title>
<g id="a_node6"><a xlink:href="../../d1/d73/Defs_8h.html" target="_top" xlink:title="Common definitions for 2D coordinates. ">
<polygon fill="none" stroke="black" points="347,-192.5 347,-211.5 439,-211.5 439,-192.5 347,-192.5"/>
<text text-anchor="middle" x="393" y="-199.5" font-family="Helvetica,sans-Serif" font-size="10.00">TPCBase/Defs.h</text>
</a>
</g>
</g>
<!-- Node4&#45;&gt;Node6 -->
<g id="edge5" class="edge"><title>Node4&#45;&gt;Node6</title>
<path fill="none" stroke="midnightblue" d="M341.801,-248.324C350.818,-240.341 364.406,-228.313 375.318,-218.653"/>
<polygon fill="midnightblue" stroke="midnightblue" points="377.853,-221.083 383.021,-211.834 373.213,-215.842 377.853,-221.083"/>
</g>
<!-- Node7 -->
<g id="node7" class="node"><title>Node7</title>
<polygon fill="none" stroke="#bfbfbf" points="321,-136.5 321,-155.5 365,-155.5 365,-136.5 321,-136.5"/>
<text text-anchor="middle" x="343" y="-143.5" font-family="Helvetica,sans-Serif" font-size="10.00">cmath</text>
</g>
<!-- Node6&#45;&gt;Node7 -->
<g id="edge6" class="edge"><title>Node6&#45;&gt;Node7</title>
<path fill="none" stroke="midnightblue" d="M384.744,-192.083C377.535,-184.298 366.89,-172.801 358.154,-163.367"/>
<polygon fill="midnightblue" stroke="midnightblue" points="360.465,-160.711 351.103,-155.751 355.329,-165.467 360.465,-160.711"/>
</g>
<!-- Node8 -->
<g id="node8" class="node"><title>Node8</title>
<g id="a_node8"><a xlink:href="../../d2/dd0/Cartesian2D_8h.html" target="_top" xlink:title="MathUtils/Cartesian2D.h">
<polygon fill="none" stroke="black" points="103.5,-74.5 103.5,-93.5 228.5,-93.5 228.5,-74.5 103.5,-74.5"/>
<text text-anchor="middle" x="166" y="-81.5" font-family="Helvetica,sans-Serif" font-size="10.00">MathUtils/Cartesian2D.h</text>
</a>
</g>
</g>
<!-- Node6&#45;&gt;Node8 -->
<g id="edge7" class="edge"><title>Node6&#45;&gt;Node8</title>
<path fill="none" stroke="midnightblue" d="M392.913,-192.461C392.288,-178.56 388.964,-151.08 373,-136 367.166,-130.489 274.197,-109.03 214.856,-95.7667"/>
<polygon fill="midnightblue" stroke="midnightblue" points="215.44,-92.3111 204.918,-93.5517 213.917,-99.1434 215.44,-92.3111"/>
</g>
<!-- Node11 -->
<g id="node11" class="node"><title>Node11</title>
<g id="a_node11"><a xlink:href="../../dd/d76/Cartesian3D_8h.html" target="_top" xlink:title="MathUtils/Cartesian3D.h">
<polygon fill="none" stroke="black" points="606.5,-136.5 606.5,-155.5 731.5,-155.5 731.5,-136.5 606.5,-136.5"/>
<text text-anchor="middle" x="669" y="-143.5" font-family="Helvetica,sans-Serif" font-size="10.00">MathUtils/Cartesian3D.h</text>
</a>
</g>
</g>
<!-- Node6&#45;&gt;Node11 -->
<g id="edge10" class="edge"><title>Node6&#45;&gt;Node11</title>
<path fill="none" stroke="midnightblue" d="M436.733,-192.444C485.183,-182.964 563.329,-167.675 615.418,-157.483"/>
<polygon fill="midnightblue" stroke="midnightblue" points="616.33,-160.871 625.472,-155.516 614.986,-154.002 616.33,-160.871"/>
</g>
<!-- Node9 -->
<g id="node9" class="node"><title>Node9</title>
<polygon fill="none" stroke="#bfbfbf" points="-0.5,-1 -0.5,-31 150.5,-31 150.5,-1 -0.5,-1"/>
<text text-anchor="start" x="7.5" y="-19" font-family="Helvetica,sans-Serif" font-size="10.00">Math/GenVector/Displacement</text>
<text text-anchor="middle" x="75" y="-8" font-family="Helvetica,sans-Serif" font-size="10.00">Vector2D.h</text>
</g>
<!-- Node8&#45;&gt;Node9 -->
<g id="edge8" class="edge"><title>Node8&#45;&gt;Node9</title>
<path fill="none" stroke="midnightblue" d="M154.103,-74.3717C141.221,-65.0286 120.22,-49.7966 103.093,-37.375"/>
<polygon fill="midnightblue" stroke="midnightblue" points="104.703,-34.2194 94.5532,-31.1815 100.593,-39.8859 104.703,-34.2194"/>
</g>
<!-- Node10 -->
<g id="node10" class="node"><title>Node10</title>
<polygon fill="none" stroke="#bfbfbf" points="169,-6.5 169,-25.5 345,-25.5 345,-6.5 169,-6.5"/>
<text text-anchor="middle" x="257" y="-13.5" font-family="Helvetica,sans-Serif" font-size="10.00">Math/GenVector/PositionVector2D.h</text>
</g>
<!-- Node8&#45;&gt;Node10 -->
<g id="edge9" class="edge"><title>Node8&#45;&gt;Node10</title>
<path fill="none" stroke="midnightblue" d="M177.897,-74.3717C192.884,-63.5015 218.862,-44.6602 236.942,-31.5474"/>
<polygon fill="midnightblue" stroke="midnightblue" points="239.06,-34.3349 245.1,-25.6305 234.95,-28.6684 239.06,-34.3349"/>
</g>
<!-- Node11&#45;&gt;Node8 -->
<g id="edge18" class="edge"><title>Node11&#45;&gt;Node8</title>
<path fill="none" stroke="midnightblue" d="M606.289,-140.457C522.165,-133.906 368.271,-120.317 238,-100 229.928,-98.7411 221.393,-97.1744 213.131,-95.5325"/>
<polygon fill="midnightblue" stroke="midnightblue" points="213.737,-92.0839 203.238,-93.508 212.333,-98.9418 213.737,-92.0839"/>
</g>
<!-- Node12 -->
<g id="node12" class="node"><title>Node12</title>
<polygon fill="none" stroke="#bfbfbf" points="1202.5,-74.5 1202.5,-93.5 1351.5,-93.5 1351.5,-74.5 1202.5,-74.5"/>
<text text-anchor="middle" x="1277" y="-81.5" font-family="Helvetica,sans-Serif" font-size="10.00">Math/GenVector/Rotation3D.h</text>
</g>
<!-- Node11&#45;&gt;Node12 -->
<g id="edge11" class="edge"><title>Node11&#45;&gt;Node12</title>
<path fill="none" stroke="midnightblue" d="M731.837,-141.515C830.543,-135.612 1027.82,-122.089 1194,-100 1203.7,-98.7112 1213.98,-97.0737 1223.89,-95.3573"/>
<polygon fill="midnightblue" stroke="midnightblue" points="1224.81,-98.7491 1234.04,-93.5513 1223.58,-91.8574 1224.81,-98.7491"/>
</g>
<!-- Node13 -->
<g id="node13" class="node"><title>Node13</title>
<polygon fill="none" stroke="#bfbfbf" points="247,-74.5 247,-93.5 403,-93.5 403,-74.5 247,-74.5"/>
<text text-anchor="middle" x="325" y="-81.5" font-family="Helvetica,sans-Serif" font-size="10.00">Math/GenVector/Transform3D.h</text>
</g>
<!-- Node11&#45;&gt;Node13 -->
<g id="edge12" class="edge"><title>Node11&#45;&gt;Node13</title>
<path fill="none" stroke="midnightblue" d="M620.079,-136.467C557.797,-125.604 450.301,-106.855 383.678,-95.2346"/>
<polygon fill="midnightblue" stroke="midnightblue" points="384.205,-91.7738 373.753,-93.5034 383.003,-98.6697 384.205,-91.7738"/>
</g>
<!-- Node14 -->
<g id="node14" class="node"><title>Node14</title>
<polygon fill="none" stroke="#bfbfbf" points="421,-74.5 421,-93.5 581,-93.5 581,-74.5 421,-74.5"/>
<text text-anchor="middle" x="501" y="-81.5" font-family="Helvetica,sans-Serif" font-size="10.00">Math/GenVector/Translation3D.h</text>
</g>
<!-- Node11&#45;&gt;Node14 -->
<g id="edge13" class="edge"><title>Node11&#45;&gt;Node14</title>
<path fill="none" stroke="midnightblue" d="M644.93,-136.403C615.987,-126.067 567.238,-108.656 534.598,-96.9994"/>
<polygon fill="midnightblue" stroke="midnightblue" points="535.62,-93.6479 525.026,-93.5806 533.266,-100.24 535.62,-93.6479"/>
</g>
<!-- Node15 -->
<g id="node15" class="node"><title>Node15</title>
<polygon fill="none" stroke="#bfbfbf" points="599,-74.5 599,-93.5 655,-93.5 655,-74.5 599,-74.5"/>
<text text-anchor="middle" x="627" y="-81.5" font-family="Helvetica,sans-Serif" font-size="10.00">Rtypes.h</text>
</g>
<!-- Node11&#45;&gt;Node15 -->
<g id="edge14" class="edge"><title>Node11&#45;&gt;Node15</title>
<path fill="none" stroke="midnightblue" d="M662.982,-136.403C656.682,-127.403 646.629,-113.041 638.748,-101.782"/>
<polygon fill="midnightblue" stroke="midnightblue" points="641.608,-99.7658 633.006,-93.5806 635.874,-103.78 641.608,-99.7658"/>
</g>
<!-- Node16 -->
<g id="node16" class="node"><title>Node16</title>
<polygon fill="none" stroke="#bfbfbf" points="673,-74.5 673,-93.5 749,-93.5 749,-74.5 673,-74.5"/>
<text text-anchor="middle" x="711" y="-81.5" font-family="Helvetica,sans-Serif" font-size="10.00">TGeoMatrix.h</text>
</g>
<!-- Node11&#45;&gt;Node16 -->
<g id="edge15" class="edge"><title>Node11&#45;&gt;Node16</title>
<path fill="none" stroke="midnightblue" d="M675.018,-136.403C681.318,-127.403 691.371,-113.041 699.252,-101.782"/>
<polygon fill="midnightblue" stroke="midnightblue" points="702.126,-103.78 704.994,-93.5806 696.392,-99.7658 702.126,-103.78"/>
</g>
<!-- Node17 -->
<g id="node17" class="node"><title>Node17</title>
<polygon fill="none" stroke="#bfbfbf" points="767.5,-69 767.5,-99 918.5,-99 918.5,-69 767.5,-69"/>
<text text-anchor="start" x="775.5" y="-87" font-family="Helvetica,sans-Serif" font-size="10.00">Math/GenVector/Displacement</text>
<text text-anchor="middle" x="843" y="-76" font-family="Helvetica,sans-Serif" font-size="10.00">Vector3D.h</text>
</g>
<!-- Node11&#45;&gt;Node17 -->
<g id="edge16" class="edge"><title>Node11&#45;&gt;Node17</title>
<path fill="none" stroke="midnightblue" d="M693.93,-136.403C719.563,-127.564 760.196,-113.553 792.57,-102.39"/>
<polygon fill="midnightblue" stroke="midnightblue" points="794.014,-105.594 802.327,-99.0253 791.732,-98.9765 794.014,-105.594"/>
</g>
<!-- Node18 -->
<g id="node18" class="node"><title>Node18</title>
<polygon fill="none" stroke="#bfbfbf" points="937,-74.5 937,-93.5 1113,-93.5 1113,-74.5 937,-74.5"/>
<text text-anchor="middle" x="1025" y="-81.5" font-family="Helvetica,sans-Serif" font-size="10.00">Math/GenVector/PositionVector3D.h</text>
</g>
<!-- Node11&#45;&gt;Node18 -->
<g id="edge17" class="edge"><title>Node11&#45;&gt;Node18</title>
<path fill="none" stroke="midnightblue" d="M719.628,-136.467C784.082,-125.604 895.328,-106.855 964.275,-95.2346"/>
<polygon fill="midnightblue" stroke="midnightblue" points="965.267,-98.6167 974.547,-93.5034 964.104,-91.7141 965.267,-98.6167"/>
</g>
<!-- Node19 -->
<g id="node19" class="node"><title>Node19</title>
<polygon fill="none" stroke="#bfbfbf" points="1131,-74.5 1131,-93.5 1185,-93.5 1185,-74.5 1131,-74.5"/>
<text text-anchor="middle" x="1158" y="-81.5" font-family="Helvetica,sans-Serif" font-size="10.00">iostream</text>
</g>
<!-- Node11&#45;&gt;Node19 -->
<g id="edge19" class="edge"><title>Node11&#45;&gt;Node19</title>
<path fill="none" stroke="midnightblue" d="M731.732,-144.38C819.898,-142.246 984.917,-133.618 1121,-100 1124.06,-99.2431 1127.21,-98.2809 1130.31,-97.2105"/>
<polygon fill="midnightblue" stroke="midnightblue" points="1131.81,-100.383 1139.9,-93.5407 1129.31,-93.8445 1131.81,-100.383"/>
</g>
<!-- Node21&#45;&gt;Node2 -->
<g id="edge23" class="edge"><title>Node21&#45;&gt;Node2</title>
<path fill="none" stroke="midnightblue" d="M655.243,-304.444C633.684,-295.557 599.737,-281.563 575.206,-271.451"/>
<polygon fill="midnightblue" stroke="midnightblue" points="576.239,-268.092 565.66,-267.516 573.572,-274.563 576.239,-268.092"/>
</g>
<!-- Node22 -->
<g id="node22" class="node"><title>Node22</title>
<polygon fill="none" stroke="#bfbfbf" points="671,-248.5 671,-267.5 761,-267.5 761,-248.5 671,-248.5"/>
<text text-anchor="middle" x="716" y="-255.5" font-family="Helvetica,sans-Serif" font-size="10.00">boost/format.hpp</text>
</g>
<!-- Node21&#45;&gt;Node22 -->
<g id="edge22" class="edge"><title>Node21&#45;&gt;Node22</title>
<path fill="none" stroke="midnightblue" d="M682.605,-304.083C688.255,-296.455 696.545,-285.264 703.451,-275.941"/>
<polygon fill="midnightblue" stroke="midnightblue" points="706.378,-277.87 709.518,-267.751 700.753,-273.703 706.378,-277.87"/>
</g>
<!-- Node23 -->
<g id="node23" class="node"><title>Node23</title>
<polygon fill="none" stroke="#bfbfbf" points="779,-248.5 779,-267.5 823,-267.5 823,-248.5 779,-248.5"/>
<text text-anchor="middle" x="801" y="-255.5" font-family="Helvetica,sans-Serif" font-size="10.00">vector</text>
</g>
<!-- Node21&#45;&gt;Node23 -->
<g id="edge24" class="edge"><title>Node21&#45;&gt;Node23</title>
<path fill="none" stroke="midnightblue" d="M695.807,-304.444C716.287,-295.596 748.483,-281.687 771.865,-271.586"/>
<polygon fill="midnightblue" stroke="midnightblue" points="773.494,-274.695 781.286,-267.516 770.718,-268.269 773.494,-274.695"/>
</g>
<!-- Node24 -->
<g id="node24" class="node"><title>Node24</title>
<polygon fill="none" stroke="#bfbfbf" points="841,-248.5 841,-267.5 883,-267.5 883,-248.5 841,-248.5"/>
<text text-anchor="middle" x="862" y="-255.5" font-family="Helvetica,sans-Serif" font-size="10.00">TF1.h</text>
</g>
<!-- Node21&#45;&gt;Node24 -->
<g id="edge25" class="edge"><title>Node21&#45;&gt;Node24</title>
<path fill="none" stroke="midnightblue" d="M705.472,-304.444C739.782,-294.483 796.188,-278.107 831.098,-267.972"/>
<polygon fill="midnightblue" stroke="midnightblue" points="832.138,-271.314 840.765,-265.165 830.186,-264.592 832.138,-271.314"/>
</g>
<!-- Node25 -->
<g id="node25" class="node"><title>Node25</title>
<polygon fill="none" stroke="#bfbfbf" points="585,-248.5 585,-267.5 653,-267.5 653,-248.5 585,-248.5"/>
<text text-anchor="middle" x="619" y="-255.5" font-family="Helvetica,sans-Serif" font-size="10.00">TRandom.h</text>
</g>
<!-- Node21&#45;&gt;Node25 -->
<g id="edge26" class="edge"><title>Node21&#45;&gt;Node25</title>
<path fill="none" stroke="midnightblue" d="M666.842,-304.324C658.499,-296.42 645.968,-284.548 635.823,-274.938"/>
<polygon fill="midnightblue" stroke="midnightblue" points="637.991,-272.171 628.325,-267.834 633.177,-277.252 637.991,-272.171"/>
</g>
</g>
</svg>
