<?xml version="1.0" encoding="UTF-8" standalone="no"?>
<!DOCTYPE svg PUBLIC "-//W3C//DTD SVG 1.1//EN"
 "http://www.w3.org/Graphics/SVG/1.1/DTD/svg11.dtd">
<!-- Generated by graphviz version 2.36.0 (20140111.2315)
 -->
<!-- Title: /home/travis/build/AliceO2Group/AliceO2/Framework/Core/include/Framework/ConfigParamRegistry.h Pages: 1 -->
<svg width="252pt" height="174pt"
 viewBox="0.00 0.00 252.00 174.00" xmlns="http://www.w3.org/2000/svg" xmlns:xlink="http://www.w3.org/1999/xlink">
<g id="graph0" class="graph" transform="scale(1 1) rotate(0) translate(4 170)">
<title>/home/travis/build/AliceO2Group/AliceO2/Framework/Core/include/Framework/ConfigParamRegistry.h</title>
<!-- Node1 -->
<g id="node1" class="node"><title>Node1</title>
<polygon fill="#bfbfbf" stroke="black" points="14.5,-113 14.5,-165 187.5,-165 187.5,-113 14.5,-113"/>
<text text-anchor="start" x="22.5" y="-153" font-family="Helvetica,sans-Serif" font-size="10.00">/home/travis/build</text>
<text text-anchor="start" x="22.5" y="-142" font-family="Helvetica,sans-Serif" font-size="10.00">/AliceO2Group/AliceO2</text>
<text text-anchor="start" x="22.5" y="-131" font-family="Helvetica,sans-Serif" font-size="10.00">/Framework/Core/include</text>
<text text-anchor="middle" x="101" y="-120" font-family="Helvetica,sans-Serif" font-size="10.00">/Framework/ConfigParamRegistry.h</text>
</g>
<!-- Node2 -->
<g id="node2" class="node"><title>Node2</title>
<g id="a_node2"><a xlink:href="../../df/d72/ParamRetriever_8h.html" target="_top" xlink:title="Framework/ParamRetriever.h">
<polygon fill="none" stroke="black" points="28.5,-56.5 28.5,-75.5 173.5,-75.5 173.5,-56.5 28.5,-56.5"/>
<text text-anchor="middle" x="101" y="-63.5" font-family="Helvetica,sans-Serif" font-size="10.00">Framework/ParamRetriever.h</text>
</a>
</g>
</g>
<!-- Node1&#45;&gt;Node2 -->
<g id="edge1" class="edge"><title>Node1&#45;&gt;Node2</title>
<path fill="none" stroke="midnightblue" d="M101,-112.768C101,-103.89 101,-94.0737 101,-85.8165"/>
<polygon fill="midnightblue" stroke="midnightblue" points="104.5,-85.7571 101,-75.7572 97.5001,-85.7572 104.5,-85.7571"/>
</g>
<!-- Node3 -->
<g id="node3" class="node"><title>Node3</title>
<polygon fill="none" stroke="#bfbfbf" points="-0.5,-0.5 -0.5,-19.5 40.5,-19.5 40.5,-0.5 -0.5,-0.5"/>
<text text-anchor="middle" x="20" y="-7.5" font-family="Helvetica,sans-Serif" font-size="10.00">string</text>
</g>
<!-- Node1&#45;&gt;Node3 -->
<g id="edge5" class="edge"><title>Node1&#45;&gt;Node3</title>
<path fill="none" stroke="midnightblue" d="M53.0266,-112.983C39.5144,-103.369 26.4735,-91.0199 19,-76 11.8513,-61.6329 12.9522,-43.1734 15.344,-29.5996"/>
<polygon fill="midnightblue" stroke="midnightblue" points="18.8257,-30.0559 17.5039,-19.5439 11.9818,-28.5858 18.8257,-30.0559"/>
</g>
<!-- Node5 -->
<g id="node5" class="node"><title>Node5</title>
<polygon fill="none" stroke="#bfbfbf" points="192,-56.5 192,-75.5 244,-75.5 244,-56.5 192,-56.5"/>
<text text-anchor="middle" x="218" y="-63.5" font-family="Helvetica,sans-Serif" font-size="10.00">memory</text>
</g>
<!-- Node1&#45;&gt;Node5 -->
<g id="edge4" class="edge"><title>Node1&#45;&gt;Node5</title>
<path fill="none" stroke="midnightblue" d="M142.25,-112.968C160.011,-102.19 180.103,-89.9975 195.129,-80.879"/>
<polygon fill="midnightblue" stroke="midnightblue" points="197.031,-83.819 203.764,-75.6389 193.399,-77.8346 197.031,-83.819"/>
</g>
<!-- Node2&#45;&gt;Node3 -->
<g id="edge2" class="edge"><title>Node2&#45;&gt;Node3</title>
<path fill="none" stroke="midnightblue" d="M87.9859,-56.324C75.4684,-47.979 56.3183,-35.2122 41.5286,-25.3524"/>
<polygon fill="midnightblue" stroke="midnightblue" points="43.2437,-22.2894 32.9818,-19.6545 39.3608,-28.1137 43.2437,-22.2894"/>
</g>
<!-- Node4 -->
<g id="node4" class="node"><title>Node4</title>
<polygon fill="none" stroke="#bfbfbf" points="79,-0.5 79,-19.5 123,-19.5 123,-0.5 79,-0.5"/>
<text text-anchor="middle" x="101" y="-7.5" font-family="Helvetica,sans-Serif" font-size="10.00">vector</text>
</g>
<!-- Node2&#45;&gt;Node4 -->
<g id="edge3" class="edge"><title>Node2&#45;&gt;Node4</title>
<path fill="none" stroke="midnightblue" d="M101,-56.083C101,-49.0059 101,-38.8611 101,-29.9865"/>
<polygon fill="midnightblue" stroke="midnightblue" points="104.5,-29.751 101,-19.7511 97.5001,-29.7511 104.5,-29.751"/>
</g>
</g>
</svg>
