<?xml version="1.0" encoding="UTF-8" standalone="no"?>
<!DOCTYPE svg PUBLIC "-//W3C//DTD SVG 1.1//EN"
 "http://www.w3.org/Graphics/SVG/1.1/DTD/svg11.dtd">
<!-- Generated by graphviz version 2.36.0 (20140111.2315)
 -->
<!-- Title: o2::header::HeartbeatFrameSequence&lt; SlotDataT &gt;::outerIterator&lt; Direction &gt; Pages: 1 -->
<!--zoomable 696 -->
<svg id="main" version="1.1" xmlns="http://www.w3.org/2000/svg" xmlns:xlink="http://www.w3.org/1999/xlink" xml:space="preserve" onload="init(evt)">
<style type="text/css"><![CDATA[
.edge:hover path { stroke: red; }
.edge:hover polygon { stroke: red; fill: red; }
]]></style>
<script type="text/javascript"><![CDATA[
var edges = document.getElementsByTagName('g');
if (edges && edges.length) {
  for (var i=0;i<edges.length;i++) {
    if (edges[i].id.substr(0,4)=='edge') {
      edges[i].setAttribute('class','edge');
    }
  }
}
]]></script>
        <defs>
                <circle id="rim" cx="0" cy="0" r="7"/>
                <circle id="rim2" cx="0" cy="0" r="3.5"/>
                <g id="zoomPlus">
                        <use xlink:href="#rim" fill="#404040">
                                <set attributeName="fill" to="#808080" begin="zoomplus.mouseover" end="zoomplus.mouseout"/>
                        </use>
                        <path d="M-4,0h8M0,-4v8" fill="none" stroke="white" stroke-width="1.5" pointer-events="none"/>
                </g>
                <g id="zoomMin">
                        <use xlink:href="#rim" fill="#404040">
                                <set attributeName="fill" to="#808080" begin="zoomminus.mouseover" end="zoomminus.mouseout"/>
                        </use>
                        <path d="M-4,0h8" fill="none" stroke="white" stroke-width="1.5" pointer-events="none"/>
                </g>
                <g id="dirArrow">
                        <path fill="none" stroke="white" stroke-width="1.5" d="M0,-3.0v7 M-2.5,-0.5L0,-3.0L2.5,-0.5"/>
                </g>
               <g id="resetDef">
                       <use xlink:href="#rim2" fill="#404040">
                               <set attributeName="fill" to="#808080" begin="reset.mouseover" end="reset.mouseout"/>
                       </use>
               </g>
        </defs>

<script type="text/javascript">
var viewWidth = 648;
var viewHeight = 696;
var sectionId = 'dynsection-1';
</script>
<script xlink:href="../../svgpan.js"/>
<svg id="graph" class="graph">
<g id="viewport">
<title>o2::header::HeartbeatFrameSequence&lt; SlotDataT &gt;::outerIterator&lt; Direction &gt;</title>
<!-- Node1 -->
<g id="node1" class="node"><title>Node1</title>
<polygon fill="#bfbfbf" stroke="black" points="500.5,-1 500.5,-135 639.5,-135 639.5,-1 500.5,-1"/>
<text text-anchor="start" x="508.5" y="-123" font-family="Helvetica,sans-Serif" font-size="10.00">o2::header::HeartbeatFrame</text>
<text text-anchor="start" x="508.5" y="-112" font-family="Helvetica,sans-Serif" font-size="10.00">Sequence&lt; SlotDataT &gt;::</text>
<text text-anchor="middle" x="570" y="-101" font-family="Helvetica,sans-Serif" font-size="10.00">outerIterator&lt; Direction &gt;</text>
<polyline fill="none" stroke="black" points="500.5,-94 639.5,-94 "/>
<text text-anchor="middle" x="570" y="-82" font-family="Helvetica,sans-Serif" font-size="10.00"> </text>
<polyline fill="none" stroke="black" points="500.5,-75 639.5,-75 "/>
<text text-anchor="start" x="508.5" y="-63" font-family="Helvetica,sans-Serif" font-size="10.00">+ outerIterator()</text>
<text text-anchor="start" x="508.5" y="-52" font-family="Helvetica,sans-Serif" font-size="10.00">+ ~outerIterator()</text>
<text text-anchor="start" x="508.5" y="-41" font-family="Helvetica,sans-Serif" font-size="10.00">+ outerIterator()</text>
<text text-anchor="start" x="508.5" y="-30" font-family="Helvetica,sans-Serif" font-size="10.00">+ operator++()</text>
<text text-anchor="start" x="508.5" y="-19" font-family="Helvetica,sans-Serif" font-size="10.00">+ begin()</text>
<text text-anchor="start" x="508.5" y="-8" font-family="Helvetica,sans-Serif" font-size="10.00">+ end()</text>
</g>
<!-- Node2 -->
<g id="node2" class="node"><title>Node2</title>
<g id="a_node2"><a xlink:href="../../d6/dd7/classo2_1_1header_1_1HeartbeatFrameSequence_1_1iterator.html" target="_top" xlink:title="Iterator class for configurable direction, i.e. either row or column. ">
<polygon fill="none" stroke="black" points="332.5,-175 332.5,-353 471.5,-353 471.5,-175 332.5,-175"/>
<text text-anchor="start" x="340.5" y="-341" font-family="Helvetica,sans-Serif" font-size="10.00">o2::header::HeartbeatFrame</text>
<text text-anchor="start" x="340.5" y="-330" font-family="Helvetica,sans-Serif" font-size="10.00">Sequence&lt; SlotDataT &gt;::</text>
<text text-anchor="middle" x="402" y="-319" font-family="Helvetica,sans-Serif" font-size="10.00">iterator</text>
<polyline fill="none" stroke="black" points="332.5,-312 471.5,-312 "/>
<text text-anchor="middle" x="402" y="-300" font-family="Helvetica,sans-Serif" font-size="10.00"> </text>
<polyline fill="none" stroke="black" points="332.5,-293 471.5,-293 "/>
<text text-anchor="start" x="340.5" y="-281" font-family="Helvetica,sans-Serif" font-size="10.00">+ iterator()</text>
<text text-anchor="start" x="340.5" y="-270" font-family="Helvetica,sans-Serif" font-size="10.00">+ ~iterator()</text>
<text text-anchor="start" x="340.5" y="-259" font-family="Helvetica,sans-Serif" font-size="10.00">+ iterator()</text>
<text text-anchor="start" x="340.5" y="-248" font-family="Helvetica,sans-Serif" font-size="10.00">+ operator++()</text>
<text text-anchor="start" x="340.5" y="-237" font-family="Helvetica,sans-Serif" font-size="10.00">+ operator*()</text>
<text text-anchor="start" x="340.5" y="-226" font-family="Helvetica,sans-Serif" font-size="10.00">+ operator==()</text>
<text text-anchor="start" x="340.5" y="-215" font-family="Helvetica,sans-Serif" font-size="10.00">+ operator!=()</text>
<text text-anchor="start" x="340.5" y="-204" font-family="Helvetica,sans-Serif" font-size="10.00">+ isEnd()</text>
<text text-anchor="start" x="340.5" y="-193" font-family="Helvetica,sans-Serif" font-size="10.00">+ isValid()</text>
<text text-anchor="start" x="340.5" y="-182" font-family="Helvetica,sans-Serif" font-size="10.00">+ getSlotData()</text>
</a>
</g>
</g>
<!-- Node2&#45;&gt;Node1 -->
<g id="edge1" class="edge"><title>Node2&#45;&gt;Node1</title>
<path fill="none" stroke="midnightblue" d="M478.334,-174.852C489.915,-161.479 501.692,-147.879 512.775,-135.081"/>
<polygon fill="none" stroke="midnightblue" points="475.445,-172.842 471.545,-182.692 480.737,-177.424 475.445,-172.842"/>
</g>
<!-- Node3 -->
<g id="node3" class="node"><title>Node3</title>
<g id="a_node3"><a xlink:href="../../d7/dc2/classo2_1_1header_1_1HeartbeatFrameSequence.html" target="_top" xlink:title="{o2::header::HeartbeatFrame\lSequence\&lt; SlotDataT \&gt;\n||+ HeartbeatFrameSequence()\l+ ~HeartbeatFrameSequence()\l+ addSlot()\l+ clear()\l+ getNColumns()\l+ getNSlots()\l+ getSlotData()\l+ begin()\l+ end()\l}">
<polygon fill="none" stroke="black" points="0,-425 0,-581 152,-581 152,-425 0,-425"/>
<text text-anchor="start" x="8" y="-569" font-family="Helvetica,sans-Serif" font-size="10.00">o2::header::HeartbeatFrame</text>
<text text-anchor="middle" x="76" y="-558" font-family="Helvetica,sans-Serif" font-size="10.00">Sequence&lt; SlotDataT &gt;</text>
<polyline fill="none" stroke="black" points="0,-551 152,-551 "/>
<text text-anchor="middle" x="76" y="-539" font-family="Helvetica,sans-Serif" font-size="10.00"> </text>
<polyline fill="none" stroke="black" points="0,-532 152,-532 "/>
<text text-anchor="start" x="8" y="-520" font-family="Helvetica,sans-Serif" font-size="10.00">+ HeartbeatFrameSequence()</text>
<text text-anchor="start" x="8" y="-509" font-family="Helvetica,sans-Serif" font-size="10.00">+ ~HeartbeatFrameSequence()</text>
<text text-anchor="start" x="8" y="-498" font-family="Helvetica,sans-Serif" font-size="10.00">+ addSlot()</text>
<text text-anchor="start" x="8" y="-487" font-family="Helvetica,sans-Serif" font-size="10.00">+ clear()</text>
<text text-anchor="start" x="8" y="-476" font-family="Helvetica,sans-Serif" font-size="10.00">+ getNColumns()</text>
<text text-anchor="start" x="8" y="-465" font-family="Helvetica,sans-Serif" font-size="10.00">+ getNSlots()</text>
<text text-anchor="start" x="8" y="-454" font-family="Helvetica,sans-Serif" font-size="10.00">+ getSlotData()</text>
<text text-anchor="start" x="8" y="-443" font-family="Helvetica,sans-Serif" font-size="10.00">+ begin()</text>
<text text-anchor="start" x="8" y="-432" font-family="Helvetica,sans-Serif" font-size="10.00">+ end()</text>
</a>
</g>
</g>
<!-- Node3&#45;&gt;Node2 -->
<g id="edge2" class="edge"><title>Node3&#45;&gt;Node2</title>
<path fill="none" stroke="#404040" d="M152.43,-430.855C155.296,-428.511 158.158,-426.218 161,-424 212.535,-383.769 274.116,-343.259 322.128,-313.198"/>
<polygon fill="none" stroke="#404040" points="322.284,-313.1 325.261,-306.532 332.469,-306.753 329.492,-313.322 322.284,-313.1"/>
<text text-anchor="middle" x="255" y="-386.5" font-family="Helvetica,sans-Serif" font-size="10.00"> #mParent</text>
</g>
<!-- Node4 -->
<g id="node4" class="node"><title>Node4</title>
<g id="a_node4"><a xlink:href="../../dd/d76/structo2_1_1header_1_1HeartbeatFrameSequence_1_1FrameData.html" target="_top" xlink:title="descriptor pointing to one frame ">
<polygon fill="none" stroke="black" points="170.5,-463.5 170.5,-542.5 309.5,-542.5 309.5,-463.5 170.5,-463.5"/>
<text text-anchor="start" x="178.5" y="-530.5" font-family="Helvetica,sans-Serif" font-size="10.00">o2::header::HeartbeatFrame</text>
<text text-anchor="start" x="178.5" y="-519.5" font-family="Helvetica,sans-Serif" font-size="10.00">Sequence&lt; SlotDataT &gt;::</text>
<text text-anchor="middle" x="240" y="-508.5" font-family="Helvetica,sans-Serif" font-size="10.00">FrameData</text>
<polyline fill="none" stroke="black" points="170.5,-501.5 309.5,-501.5 "/>
<text text-anchor="middle" x="240" y="-489.5" font-family="Helvetica,sans-Serif" font-size="10.00"> </text>
<polyline fill="none" stroke="black" points="170.5,-482.5 309.5,-482.5 "/>
<text text-anchor="middle" x="240" y="-470.5" font-family="Helvetica,sans-Serif" font-size="10.00"> </text>
</a>
</g>
</g>
<!-- Node4&#45;&gt;Node2 -->
<g id="edge3" class="edge"><title>Node4&#45;&gt;Node2</title>
<path fill="none" stroke="#404040" d="M263.662,-463.443C279.913,-437.339 302.223,-402.234 323,-372 324.992,-369.101 327.027,-366.168 329.093,-363.215"/>
<polygon fill="none" stroke="#404040" points="329.297,-362.926 329.488,-355.718 336.216,-353.122 336.024,-360.33 329.297,-362.926"/>
<text text-anchor="middle" x="346" y="-386.5" font-family="Helvetica,sans-Serif" font-size="10.00"> #mCache</text>
</g>
<!-- Node5 -->
<g id="node5" class="node"><title>Node5</title>
<polygon fill="none" stroke="#bfbfbf" points="168.5,-630.5 168.5,-687.5 237.5,-687.5 237.5,-630.5 168.5,-630.5"/>
<text text-anchor="middle" x="203" y="-675.5" font-family="Helvetica,sans-Serif" font-size="10.00">const byte *</text>
<polyline fill="none" stroke="#bfbfbf" points="168.5,-668.5 237.5,-668.5 "/>
<text text-anchor="middle" x="203" y="-656.5" font-family="Helvetica,sans-Serif" font-size="10.00"> </text>
<polyline fill="none" stroke="#bfbfbf" points="168.5,-649.5 237.5,-649.5 "/>
<text text-anchor="middle" x="203" y="-637.5" font-family="Helvetica,sans-Serif" font-size="10.00"> </text>
</g>
<!-- Node5&#45;&gt;Node4 -->
<g id="edge4" class="edge"><title>Node5&#45;&gt;Node4</title>
<path fill="none" stroke="#404040" d="M209.615,-630.468C214.67,-609.427 221.779,-579.84 227.849,-554.574"/>
<polygon fill="none" stroke="#404040" points="227.929,-554.241 225.441,-547.473 230.732,-542.574 233.22,-549.342 227.929,-554.241"/>
<text text-anchor="middle" x="234" y="-603.5" font-family="Helvetica,sans-Serif" font-size="10.00"> +buffer</text>
</g>
<!-- Node6 -->
<g id="node6" class="node"><title>Node6</title>
<polygon fill="none" stroke="#bfbfbf" points="255.5,-630.5 255.5,-687.5 298.5,-687.5 298.5,-630.5 255.5,-630.5"/>
<text text-anchor="middle" x="277" y="-675.5" font-family="Helvetica,sans-Serif" font-size="10.00">size_t</text>
<polyline fill="none" stroke="#bfbfbf" points="255.5,-668.5 298.5,-668.5 "/>
<text text-anchor="middle" x="277" y="-656.5" font-family="Helvetica,sans-Serif" font-size="10.00"> </text>
<polyline fill="none" stroke="#bfbfbf" points="255.5,-649.5 298.5,-649.5 "/>
<text text-anchor="middle" x="277" y="-637.5" font-family="Helvetica,sans-Serif" font-size="10.00"> </text>
</g>
<!-- Node6&#45;&gt;Node4 -->
<g id="edge5" class="edge"><title>Node6&#45;&gt;Node4</title>
<path fill="none" stroke="#404040" d="M270.385,-630.468C265.33,-609.427 258.221,-579.84 252.151,-554.574"/>
<polygon fill="none" stroke="#404040" points="252.071,-554.241 246.78,-549.342 249.268,-542.574 254.559,-547.473 252.071,-554.241"/>
<text text-anchor="middle" x="280" y="-603.5" font-family="Helvetica,sans-Serif" font-size="10.00"> +size</text>
</g>
<!-- Node7 -->
<g id="node7" class="node"><title>Node7</title>
<polygon fill="none" stroke="#bfbfbf" points="328,-474.5 328,-531.5 420,-531.5 420,-474.5 328,-474.5"/>
<text text-anchor="middle" x="374" y="-519.5" font-family="Helvetica,sans-Serif" font-size="10.00">IteratorDirections</text>
<polyline fill="none" stroke="#bfbfbf" points="328,-512.5 420,-512.5 "/>
<text text-anchor="middle" x="374" y="-500.5" font-family="Helvetica,sans-Serif" font-size="10.00"> </text>
<polyline fill="none" stroke="#bfbfbf" points="328,-493.5 420,-493.5 "/>
<text text-anchor="middle" x="374" y="-481.5" font-family="Helvetica,sans-Serif" font-size="10.00"> </text>
</g>
<!-- Node7&#45;&gt;Node2 -->
<g id="edge6" class="edge"><title>Node7&#45;&gt;Node2</title>
<path fill="none" stroke="#404040" d="M372.313,-474.481C371.141,-448.079 370.497,-407.148 375,-372 375.297,-369.684 375.626,-367.346 375.985,-364.993"/>
<polygon fill="none" stroke="#404040" points="375.989,-364.971 373.054,-358.385 378.004,-353.142 380.94,-359.728 375.989,-364.971"/>
<text text-anchor="middle" x="403" y="-386.5" font-family="Helvetica,sans-Serif" font-size="10.00"> #mDirection</text>
</g>
<!-- Node8 -->
<g id="node8" class="node"><title>Node8</title>
<polygon fill="none" stroke="#bfbfbf" points="438.5,-474.5 438.5,-531.5 473.5,-531.5 473.5,-474.5 438.5,-474.5"/>
<text text-anchor="middle" x="456" y="-519.5" font-family="Helvetica,sans-Serif" font-size="10.00">bool</text>
<polyline fill="none" stroke="#bfbfbf" points="438.5,-512.5 473.5,-512.5 "/>
<text text-anchor="middle" x="456" y="-500.5" font-family="Helvetica,sans-Serif" font-size="10.00"> </text>
<polyline fill="none" stroke="#bfbfbf" points="438.5,-493.5 473.5,-493.5 "/>
<text text-anchor="middle" x="456" y="-481.5" font-family="Helvetica,sans-Serif" font-size="10.00"> </text>
</g>
<!-- Node8&#45;&gt;Node2 -->
<g id="edge7" class="edge"><title>Node8&#45;&gt;Node2</title>
<path fill="none" stroke="#404040" d="M451.324,-474.484C446.693,-448.085 439.132,-407.155 431,-372 430.463,-369.68 429.911,-367.333 429.345,-364.969"/>
<polygon fill="none" stroke="#404040" points="429.277,-364.693 423.964,-359.818 426.42,-353.038 431.734,-357.913 429.277,-364.693"/>
<text text-anchor="middle" x="467.5" y="-386.5" font-family="Helvetica,sans-Serif" font-size="10.00"> #mIsCached</text>
</g>
<!-- Node9 -->
<g id="node9" class="node"><title>Node9</title>
<polygon fill="none" stroke="#bfbfbf" points="538,-474.5 538,-531.5 594,-531.5 594,-474.5 538,-474.5"/>
<text text-anchor="middle" x="566" y="-519.5" font-family="Helvetica,sans-Serif" font-size="10.00">unsigned</text>
<polyline fill="none" stroke="#bfbfbf" points="538,-512.5 594,-512.5 "/>
<text text-anchor="middle" x="566" y="-500.5" font-family="Helvetica,sans-Serif" font-size="10.00"> </text>
<polyline fill="none" stroke="#bfbfbf" points="538,-493.5 594,-493.5 "/>
<text text-anchor="middle" x="566" y="-481.5" font-family="Helvetica,sans-Serif" font-size="10.00"> </text>
</g>
<!-- Node9&#45;&gt;Node1 -->
<g id="edge9" class="edge"><title>Node9&#45;&gt;Node1</title>
<path fill="none" stroke="#404040" d="M568.921,-474.312C570.791,-455.155 573.041,-429.06 574,-406 577.68,-317.531 575.611,-215.894 573.305,-147.573"/>
<polygon fill="none" stroke="#404040" points="573.292,-147.207 569.085,-141.35 572.873,-135.214 577.08,-141.07 573.292,-147.207"/>
<text text-anchor="middle" x="600" y="-261.5" font-family="Helvetica,sans-Serif" font-size="10.00"> +direction</text>
</g>
<!-- Node9&#45;&gt;Node2 -->
<g id="edge8" class="edge"><title>Node9&#45;&gt;Node2</title>
<path fill="none" stroke="#404040" d="M554.906,-474.364C543.37,-447.154 523.823,-404.997 501,-372 494.414,-362.478 487.019,-352.941 479.317,-343.7"/>
<polygon fill="none" stroke="#404040" points="479.316,-343.7 472.379,-341.73 471.529,-334.569 478.466,-336.539 479.316,-343.7"/>
<text text-anchor="middle" x="546" y="-397.5" font-family="Helvetica,sans-Serif" font-size="10.00"> #mEnd</text>
<text text-anchor="middle" x="546" y="-386.5" font-family="Helvetica,sans-Serif" font-size="10.00">#mColumn</text>
<text text-anchor="middle" x="546" y="-375.5" font-family="Helvetica,sans-Serif" font-size="10.00">#mRow</text>
</g>
</g>
</svg>
        <g id="navigator" transform="translate(0 0)" fill="#404254">
                <rect fill="#f2f5e9" fill-opacity="0.5" stroke="#606060" stroke-width=".5" x="0" y="0" width="60" height="60"/>
                <use id="zoomplus" xlink:href="#zoomPlus" x="17" y="9" onmousedown="handleZoom(evt,'in')"/>
                <use id="zoomminus" xlink:href="#zoomMin" x="42" y="9" onmousedown="handleZoom(evt,'out')"/>
                <use id="reset" xlink:href="#resetDef" x="30" y="36" onmousedown="handleReset()"/>
                <g id="arrowUp" xlink:href="#dirArrow" transform="translate(30 24)" onmousedown="handlePan(0,-1)">
                  <use xlink:href="#rim" fill="#404040">
                        <set attributeName="fill" to="#808080" begin="arrowUp.mouseover" end="arrowUp.mouseout"/>
                  </use>
                  <path fill="none" stroke="white" stroke-width="1.5" d="M0,-3.0v7 M-2.5,-0.5L0,-3.0L2.5,-0.5"/>
                </g>
                <g id="arrowRight" xlink:href="#dirArrow" transform="rotate(90) translate(36 -43)" onmousedown="handlePan(1,0)">
                  <use xlink:href="#rim" fill="#404040">
                        <set attributeName="fill" to="#808080" begin="arrowRight.mouseover" end="arrowRight.mouseout"/>
                  </use>
                  <path fill="none" stroke="white" stroke-width="1.5" d="M0,-3.0v7 M-2.5,-0.5L0,-3.0L2.5,-0.5"/>
                </g>
                <g id="arrowDown" xlink:href="#dirArrow" transform="rotate(180) translate(-30 -48)" onmousedown="handlePan(0,1)">
                  <use xlink:href="#rim" fill="#404040">
                        <set attributeName="fill" to="#808080" begin="arrowDown.mouseover" end="arrowDown.mouseout"/>
                  </use>
                  <path fill="none" stroke="white" stroke-width="1.5" d="M0,-3.0v7 M-2.5,-0.5L0,-3.0L2.5,-0.5"/>
                </g>
                <g id="arrowLeft" xlink:href="#dirArrow" transform="rotate(270) translate(-36 17)" onmousedown="handlePan(-1,0)">
                  <use xlink:href="#rim" fill="#404040">
                        <set attributeName="fill" to="#808080" begin="arrowLeft.mouseover" end="arrowLeft.mouseout"/>
                  </use>
                  <path fill="none" stroke="white" stroke-width="1.5" d="M0,-3.0v7 M-2.5,-0.5L0,-3.0L2.5,-0.5"/>
                </g>
        </g>
        <svg viewBox="0 0 15 15" width="100%" height="30px" preserveAspectRatio="xMaxYMin meet">
         <g id="arrow_out" transform="scale(0.3 0.3)">
          <a xlink:href="classo2_1_1header_1_1HeartbeatFrameSequence_1_1outerIterator__coll__graph_org.svg" target="_base">
           <rect id="button" ry="5" rx="5" y="6" x="6" height="38" width="38"
                fill="#f2f5e9" fill-opacity="0.5" stroke="#606060" stroke-width="1.0"/>
           <path id="arrow"
             d="M 11.500037,31.436501 C 11.940474,20.09759 22.043105,11.32322 32.158766,21.979434 L 37.068811,17.246167 C 37.068811,17.246167 37.088388,32 37.088388,32 L 22.160133,31.978069 C 22.160133,31.978069 26.997745,27.140456 26.997745,27.140456 C 18.528582,18.264221 13.291696,25.230495 11.500037,31.436501 z"
             style="fill:#404040;"/>
          </a>
         </g>
        </svg>
</svg>
