<?xml version="1.0" encoding="UTF-8" standalone="no"?>
<!DOCTYPE svg PUBLIC "-//W3C//DTD SVG 1.1//EN"
 "http://www.w3.org/Graphics/SVG/1.1/DTD/svg11.dtd">
<!-- Generated by graphviz version 2.36.0 (20140111.2315)
 -->
<!-- Title: /home/travis/build/AliceO2Group/AliceO2/Detectors/ITSMFT/common/simulation/include/ITSMFTSimulation/Digitizer.h Pages: 1 -->
<svg width="898pt" height="262pt"
 viewBox="0.00 0.00 898.00 262.00" xmlns="http://www.w3.org/2000/svg" xmlns:xlink="http://www.w3.org/1999/xlink">
<g id="graph0" class="graph" transform="scale(1 1) rotate(0) translate(4 258)">
<title>/home/travis/build/AliceO2Group/AliceO2/Detectors/ITSMFT/common/simulation/include/ITSMFTSimulation/Digitizer.h</title>
<!-- Node1 -->
<g id="node1" class="node"><title>Node1</title>
<polygon fill="#bfbfbf" stroke="black" points="214,-190.5 214,-253.5 396,-253.5 396,-190.5 214,-190.5"/>
<text text-anchor="start" x="222" y="-241.5" font-family="Helvetica,sans-Serif" font-size="10.00">/home/travis/build</text>
<text text-anchor="start" x="222" y="-230.5" font-family="Helvetica,sans-Serif" font-size="10.00">/AliceO2Group/AliceO2</text>
<text text-anchor="start" x="222" y="-219.5" font-family="Helvetica,sans-Serif" font-size="10.00">/Detectors/ITSMFT/common</text>
<text text-anchor="start" x="222" y="-208.5" font-family="Helvetica,sans-Serif" font-size="10.00">/simulation/include/ITSMFTSimulation</text>
<text text-anchor="middle" x="305" y="-197.5" font-family="Helvetica,sans-Serif" font-size="10.00">/Digitizer.h</text>
</g>
<!-- Node2 -->
<g id="node2" class="node"><title>Node2</title>
<g id="a_node2"><a xlink:href="../../dc/dbf/ITSMFT_2common_2simulation_2src_2Digitizer_8cxx.html" target="_top" xlink:title="/home/travis/build\l/AliceO2Group/AliceO2\l/Detectors/ITSMFT/common\l/simulation/src/Digitizer.cxx">
<polygon fill="none" stroke="black" points="64,-96 64,-148 206,-148 206,-96 64,-96"/>
<text text-anchor="start" x="72" y="-136" font-family="Helvetica,sans-Serif" font-size="10.00">/home/travis/build</text>
<text text-anchor="start" x="72" y="-125" font-family="Helvetica,sans-Serif" font-size="10.00">/AliceO2Group/AliceO2</text>
<text text-anchor="start" x="72" y="-114" font-family="Helvetica,sans-Serif" font-size="10.00">/Detectors/ITSMFT/common</text>
<text text-anchor="middle" x="135" y="-103" font-family="Helvetica,sans-Serif" font-size="10.00">/simulation/src/Digitizer.cxx</text>
</a>
</g>
</g>
<!-- Node1&#45;&gt;Node2 -->
<g id="edge1" class="edge"><title>Node1&#45;&gt;Node2</title>
<path fill="none" stroke="midnightblue" d="M242.966,-185.239C221.562,-172.9 198.058,-159.351 178.46,-148.054"/>
<polygon fill="midnightblue" stroke="midnightblue" points="241.266,-188.299 251.677,-190.261 244.762,-182.234 241.266,-188.299"/>
</g>
<!-- Node3 -->
<g id="node3" class="node"><title>Node3</title>
<g id="a_node3"><a xlink:href="../../d9/d51/ITSMFT_2ITS_2simulation_2include_2ITSSimulation_2DigitizerTask_8h.html" target="_top" xlink:title="/home/travis/build\l/AliceO2Group/AliceO2\l/Detectors/ITSMFT/ITS\l/simulation/include/ITSSimulation\l/DigitizerTask.h">
<polygon fill="none" stroke="black" points="224,-90.5 224,-153.5 386,-153.5 386,-90.5 224,-90.5"/>
<text text-anchor="start" x="232" y="-141.5" font-family="Helvetica,sans-Serif" font-size="10.00">/home/travis/build</text>
<text text-anchor="start" x="232" y="-130.5" font-family="Helvetica,sans-Serif" font-size="10.00">/AliceO2Group/AliceO2</text>
<text text-anchor="start" x="232" y="-119.5" font-family="Helvetica,sans-Serif" font-size="10.00">/Detectors/ITSMFT/ITS</text>
<text text-anchor="start" x="232" y="-108.5" font-family="Helvetica,sans-Serif" font-size="10.00">/simulation/include/ITSSimulation</text>
<text text-anchor="middle" x="305" y="-97.5" font-family="Helvetica,sans-Serif" font-size="10.00">/DigitizerTask.h</text>
</a>
</g>
</g>
<!-- Node1&#45;&gt;Node3 -->
<g id="edge2" class="edge"><title>Node1&#45;&gt;Node3</title>
<path fill="none" stroke="midnightblue" d="M305,-180.099C305,-171.238 305,-162.015 305,-153.63"/>
<polygon fill="midnightblue" stroke="midnightblue" points="301.5,-180.261 305,-190.261 308.5,-180.261 301.5,-180.261"/>
</g>
<!-- Node7 -->
<g id="node7" class="node"><title>Node7</title>
<g id="a_node7"><a xlink:href="../../dd/d11/ITSMFT_2MFT_2simulation_2include_2MFTSimulation_2DigitizerTask_8h.html" target="_top" xlink:title="/home/travis/build\l/AliceO2Group/AliceO2\l/Detectors/ITSMFT/MFT\l/simulation/include/MFTSimulation\l/DigitizerTask.h">
<polygon fill="none" stroke="black" points="510.5,-90.5 510.5,-153.5 677.5,-153.5 677.5,-90.5 510.5,-90.5"/>
<text text-anchor="start" x="518.5" y="-141.5" font-family="Helvetica,sans-Serif" font-size="10.00">/home/travis/build</text>
<text text-anchor="start" x="518.5" y="-130.5" font-family="Helvetica,sans-Serif" font-size="10.00">/AliceO2Group/AliceO2</text>
<text text-anchor="start" x="518.5" y="-119.5" font-family="Helvetica,sans-Serif" font-size="10.00">/Detectors/ITSMFT/MFT</text>
<text text-anchor="start" x="518.5" y="-108.5" font-family="Helvetica,sans-Serif" font-size="10.00">/simulation/include/MFTSimulation</text>
<text text-anchor="middle" x="594" y="-97.5" font-family="Helvetica,sans-Serif" font-size="10.00">/DigitizerTask.h</text>
</a>
</g>
</g>
<!-- Node1&#45;&gt;Node7 -->
<g id="edge6" class="edge"><title>Node1&#45;&gt;Node7</title>
<path fill="none" stroke="midnightblue" d="M404.846,-187.142C439.235,-175.481 477.367,-162.55 510.332,-151.372"/>
<polygon fill="midnightblue" stroke="midnightblue" points="403.599,-183.869 395.253,-190.395 405.847,-190.498 403.599,-183.869"/>
</g>
<!-- Node4 -->
<g id="node4" class="node"><title>Node4</title>
<g id="a_node4"><a xlink:href="../../da/d29/ITSMFT_2ITS_2simulation_2src_2DigitizerTask_8cxx.html" target="_top" xlink:title="/home/travis/build\l/AliceO2Group/AliceO2\l/Detectors/ITSMFT/ITS\l/simulation/src/DigitizerTask.cxx">
<polygon fill="none" stroke="black" points="0,-1 0,-53 160,-53 160,-1 0,-1"/>
<text text-anchor="start" x="8" y="-41" font-family="Helvetica,sans-Serif" font-size="10.00">/home/travis/build</text>
<text text-anchor="start" x="8" y="-30" font-family="Helvetica,sans-Serif" font-size="10.00">/AliceO2Group/AliceO2</text>
<text text-anchor="start" x="8" y="-19" font-family="Helvetica,sans-Serif" font-size="10.00">/Detectors/ITSMFT/ITS</text>
<text text-anchor="middle" x="80" y="-8" font-family="Helvetica,sans-Serif" font-size="10.00">/simulation/src/DigitizerTask.cxx</text>
</a>
</g>
</g>
<!-- Node3&#45;&gt;Node4 -->
<g id="edge3" class="edge"><title>Node3&#45;&gt;Node4</title>
<path fill="none" stroke="midnightblue" d="M221.613,-86.5333C194.719,-75.4174 165.442,-63.3162 140.525,-53.0171"/>
<polygon fill="midnightblue" stroke="midnightblue" points="220.436,-89.8341 231.015,-90.4195 223.11,-83.365 220.436,-89.8341"/>
</g>
<!-- Node5 -->
<g id="node5" class="node"><title>Node5</title>
<g id="a_node5"><a xlink:href="../../d7/d11/macro_2run__digi_8C.html" target="_top" xlink:title="/home/travis/build\l/AliceO2Group/AliceO2\l/macro/run_digi.C">
<polygon fill="none" stroke="black" points="178,-6.5 178,-47.5 296,-47.5 296,-6.5 178,-6.5"/>
<text text-anchor="start" x="186" y="-35.5" font-family="Helvetica,sans-Serif" font-size="10.00">/home/travis/build</text>
<text text-anchor="start" x="186" y="-24.5" font-family="Helvetica,sans-Serif" font-size="10.00">/AliceO2Group/AliceO2</text>
<text text-anchor="middle" x="237" y="-13.5" font-family="Helvetica,sans-Serif" font-size="10.00">/macro/run_digi.C</text>
</a>
</g>
</g>
<!-- Node3&#45;&gt;Node5 -->
<g id="edge4" class="edge"><title>Node3&#45;&gt;Node5</title>
<path fill="none" stroke="midnightblue" d="M276.618,-82.1833C267.896,-70.2549 258.667,-57.6327 251.313,-47.5747"/>
<polygon fill="midnightblue" stroke="midnightblue" points="273.818,-84.2841 282.546,-90.2906 279.469,-80.1524 273.818,-84.2841"/>
</g>
<!-- Node6 -->
<g id="node6" class="node"><title>Node6</title>
<g id="a_node6"><a xlink:href="../../d0/dcb/run__digi__its_8C.html" target="_top" xlink:title="/home/travis/build\l/AliceO2Group/AliceO2\l/macro/run_digi_its.C">
<polygon fill="none" stroke="black" points="314,-6.5 314,-47.5 432,-47.5 432,-6.5 314,-6.5"/>
<text text-anchor="start" x="322" y="-35.5" font-family="Helvetica,sans-Serif" font-size="10.00">/home/travis/build</text>
<text text-anchor="start" x="322" y="-24.5" font-family="Helvetica,sans-Serif" font-size="10.00">/AliceO2Group/AliceO2</text>
<text text-anchor="middle" x="373" y="-13.5" font-family="Helvetica,sans-Serif" font-size="10.00">/macro/run_digi_its.C</text>
</a>
</g>
</g>
<!-- Node3&#45;&gt;Node6 -->
<g id="edge5" class="edge"><title>Node3&#45;&gt;Node6</title>
<path fill="none" stroke="midnightblue" d="M333.382,-82.1833C342.104,-70.2549 351.333,-57.6327 358.687,-47.5747"/>
<polygon fill="midnightblue" stroke="midnightblue" points="330.531,-80.1524 327.454,-90.2906 336.182,-84.2841 330.531,-80.1524"/>
</g>
<!-- Node8 -->
<g id="node8" class="node"><title>Node8</title>
<g id="a_node8"><a xlink:href="../../d0/d87/Detectors_2ITSMFT_2MFT_2macros_2run__digi_8C.html" target="_top" xlink:title="/home/travis/build\l/AliceO2Group/AliceO2\l/Detectors/ITSMFT/MFT\l/macros/run_digi.C">
<polygon fill="none" stroke="black" points="450.5,-1 450.5,-53 575.5,-53 575.5,-1 450.5,-1"/>
<text text-anchor="start" x="458.5" y="-41" font-family="Helvetica,sans-Serif" font-size="10.00">/home/travis/build</text>
<text text-anchor="start" x="458.5" y="-30" font-family="Helvetica,sans-Serif" font-size="10.00">/AliceO2Group/AliceO2</text>
<text text-anchor="start" x="458.5" y="-19" font-family="Helvetica,sans-Serif" font-size="10.00">/Detectors/ITSMFT/MFT</text>
<text text-anchor="middle" x="513" y="-8" font-family="Helvetica,sans-Serif" font-size="10.00">/macros/run_digi.C</text>
</a>
</g>
</g>
<!-- Node7&#45;&gt;Node8 -->
<g id="edge7" class="edge"><title>Node7&#45;&gt;Node8</title>
<path fill="none" stroke="midnightblue" d="M560.449,-82.4781C551.809,-72.5584 542.734,-62.1393 534.861,-53.1001"/>
<polygon fill="midnightblue" stroke="midnightblue" points="558.046,-85.0485 567.253,-90.2906 563.325,-80.451 558.046,-85.0485"/>
</g>
<!-- Node9 -->
<g id="node9" class="node"><title>Node9</title>
<g id="a_node9"><a xlink:href="../../d6/d87/ITSMFT_2MFT_2simulation_2src_2DigitizerTask_8cxx.html" target="_top" xlink:title="/home/travis/build\l/AliceO2Group/AliceO2\l/Detectors/ITSMFT/MFT\l/simulation/src/DigitizerTask.cxx">
<polygon fill="none" stroke="black" points="594,-1 594,-53 754,-53 754,-1 594,-1"/>
<text text-anchor="start" x="602" y="-41" font-family="Helvetica,sans-Serif" font-size="10.00">/home/travis/build</text>
<text text-anchor="start" x="602" y="-30" font-family="Helvetica,sans-Serif" font-size="10.00">/AliceO2Group/AliceO2</text>
<text text-anchor="start" x="602" y="-19" font-family="Helvetica,sans-Serif" font-size="10.00">/Detectors/ITSMFT/MFT</text>
<text text-anchor="middle" x="674" y="-8" font-family="Helvetica,sans-Serif" font-size="10.00">/simulation/src/DigitizerTask.cxx</text>
</a>
</g>
</g>
<!-- Node7&#45;&gt;Node9 -->
<g id="edge8" class="edge"><title>Node7&#45;&gt;Node9</title>
<path fill="none" stroke="midnightblue" d="M627.137,-82.4781C635.67,-72.5584 644.633,-62.1393 652.408,-53.1001"/>
<polygon fill="midnightblue" stroke="midnightblue" points="624.285,-80.427 620.417,-90.2906 629.591,-84.992 624.285,-80.427"/>
</g>
<!-- Node10 -->
<g id="node10" class="node"><title>Node10</title>
<g id="a_node10"><a xlink:href="../../d2/d31/run__digi__mft_8C.html" target="_top" xlink:title="/home/travis/build\l/AliceO2Group/AliceO2\l/macro/run_digi_mft.C">
<polygon fill="none" stroke="black" points="772,-6.5 772,-47.5 890,-47.5 890,-6.5 772,-6.5"/>
<text text-anchor="start" x="780" y="-35.5" font-family="Helvetica,sans-Serif" font-size="10.00">/home/travis/build</text>
<text text-anchor="start" x="780" y="-24.5" font-family="Helvetica,sans-Serif" font-size="10.00">/AliceO2Group/AliceO2</text>
<text text-anchor="middle" x="831" y="-13.5" font-family="Helvetica,sans-Serif" font-size="10.00">/macro/run_digi_mft.C</text>
</a>
</g>
</g>
<!-- Node7&#45;&gt;Node10 -->
<g id="edge9" class="edge"><title>Node7&#45;&gt;Node10</title>
<path fill="none" stroke="midnightblue" d="M681.298,-86.7437C714.884,-73.5647 752.069,-58.9729 780.977,-47.6292"/>
<polygon fill="midnightblue" stroke="midnightblue" points="679.961,-83.5084 671.931,-90.4195 682.518,-90.0247 679.961,-83.5084"/>
</g>
</g>
</svg>
