<?xml version="1.0" encoding="UTF-8" standalone="no"?>
<!DOCTYPE svg PUBLIC "-//W3C//DTD SVG 1.1//EN"
 "http://www.w3.org/Graphics/SVG/1.1/DTD/svg11.dtd">
<!-- Generated by graphviz version 2.36.0 (20140111.2315)
 -->
<!-- Title: /home/travis/build/AliceO2Group/AliceO2/Detectors/TPC/simulation/include/TPCSimulation/Digitizer.h Pages: 1 -->
<!--zoomable 330 -->
<svg id="main" version="1.1" xmlns="http://www.w3.org/2000/svg" xmlns:xlink="http://www.w3.org/1999/xlink" xml:space="preserve" onload="init(evt)">
<style type="text/css"><![CDATA[
.edge:hover path { stroke: red; }
.edge:hover polygon { stroke: red; fill: red; }
]]></style>
<script type="text/javascript"><![CDATA[
var edges = document.getElementsByTagName('g');
if (edges && edges.length) {
  for (var i=0;i<edges.length;i++) {
    if (edges[i].id.substr(0,4)=='edge') {
      edges[i].setAttribute('class','edge');
    }
  }
}
]]></script>
        <defs>
                <circle id="rim" cx="0" cy="0" r="7"/>
                <circle id="rim2" cx="0" cy="0" r="3.5"/>
                <g id="zoomPlus">
                        <use xlink:href="#rim" fill="#404040">
                                <set attributeName="fill" to="#808080" begin="zoomplus.mouseover" end="zoomplus.mouseout"/>
                        </use>
                        <path d="M-4,0h8M0,-4v8" fill="none" stroke="white" stroke-width="1.5" pointer-events="none"/>
                </g>
                <g id="zoomMin">
                        <use xlink:href="#rim" fill="#404040">
                                <set attributeName="fill" to="#808080" begin="zoomminus.mouseover" end="zoomminus.mouseout"/>
                        </use>
                        <path d="M-4,0h8" fill="none" stroke="white" stroke-width="1.5" pointer-events="none"/>
                </g>
                <g id="dirArrow">
                        <path fill="none" stroke="white" stroke-width="1.5" d="M0,-3.0v7 M-2.5,-0.5L0,-3.0L2.5,-0.5"/>
                </g>
               <g id="resetDef">
                       <use xlink:href="#rim2" fill="#404040">
                               <set attributeName="fill" to="#808080" begin="reset.mouseover" end="reset.mouseout"/>
                       </use>
               </g>
        </defs>

<script type="text/javascript">
var viewWidth = 855;
var viewHeight = 330;
var sectionId = 'dynsection-1';
</script>
<script xlink:href="../../svgpan.js"/>
<svg id="graph" class="graph">
<g id="viewport">
<title>/home/travis/build/AliceO2Group/AliceO2/Detectors/TPC/simulation/include/TPCSimulation/Digitizer.h</title>
<!-- Node1 -->
<g id="node1" class="node"><title>Node1</title>
<polygon fill="#bfbfbf" stroke="black" points="289.5,-269 289.5,-321 456.5,-321 456.5,-269 289.5,-269"/>
<text text-anchor="start" x="297.5" y="-309" font-family="Helvetica,sans-Serif" font-size="10.00">/home/travis/build</text>
<text text-anchor="start" x="297.5" y="-298" font-family="Helvetica,sans-Serif" font-size="10.00">/AliceO2Group/AliceO2</text>
<text text-anchor="start" x="297.5" y="-287" font-family="Helvetica,sans-Serif" font-size="10.00">/Detectors/TPC/simulation</text>
<text text-anchor="middle" x="373" y="-276" font-family="Helvetica,sans-Serif" font-size="10.00">/include/TPCSimulation/Digitizer.h</text>
</g>
<!-- Node2 -->
<g id="node2" class="node"><title>Node2</title>
<g id="a_node2"><a xlink:href="../../db/d60/testTracks_8C.html" target="_top" xlink:title="/home/travis/build\l/AliceO2Group/AliceO2\l/Detectors/TPC/reconstruction\l/macro/testTracks.C">
<polygon fill="none" stroke="black" points="0,-174 0,-226 150,-226 150,-174 0,-174"/>
<text text-anchor="start" x="8" y="-214" font-family="Helvetica,sans-Serif" font-size="10.00">/home/travis/build</text>
<text text-anchor="start" x="8" y="-203" font-family="Helvetica,sans-Serif" font-size="10.00">/AliceO2Group/AliceO2</text>
<text text-anchor="start" x="8" y="-192" font-family="Helvetica,sans-Serif" font-size="10.00">/Detectors/TPC/reconstruction</text>
<text text-anchor="middle" x="75" y="-181" font-family="Helvetica,sans-Serif" font-size="10.00">/macro/testTracks.C</text>
</a>
</g>
</g>
<!-- Node1&#45;&gt;Node2 -->
<g id="edge1" class="edge"><title>Node1&#45;&gt;Node2</title>
<path fill="none" stroke="midnightblue" d="M279.288,-267.215C243.144,-256.619 201.537,-244.098 164,-232 158.082,-230.093 151.96,-228.069 145.825,-226.005"/>
<polygon fill="midnightblue" stroke="midnightblue" points="278.749,-270.704 289.329,-270.151 280.713,-263.985 278.749,-270.704"/>
</g>
<!-- Node3 -->
<g id="node3" class="node"><title>Node3</title>
<g id="a_node3"><a xlink:href="../../dd/d4b/TPC_2simulation_2include_2TPCSimulation_2DigitizerTask_8h.html" target="_top" xlink:title="/home/travis/build\l/AliceO2Group/AliceO2\l/Detectors/TPC/simulation\l/include/TPCSimulation/Digitizer\lTask.h">
<polygon fill="none" stroke="black" points="206,-168.5 206,-231.5 364,-231.5 364,-168.5 206,-168.5"/>
<text text-anchor="start" x="214" y="-219.5" font-family="Helvetica,sans-Serif" font-size="10.00">/home/travis/build</text>
<text text-anchor="start" x="214" y="-208.5" font-family="Helvetica,sans-Serif" font-size="10.00">/AliceO2Group/AliceO2</text>
<text text-anchor="start" x="214" y="-197.5" font-family="Helvetica,sans-Serif" font-size="10.00">/Detectors/TPC/simulation</text>
<text text-anchor="start" x="214" y="-186.5" font-family="Helvetica,sans-Serif" font-size="10.00">/include/TPCSimulation/Digitizer</text>
<text text-anchor="middle" x="285" y="-175.5" font-family="Helvetica,sans-Serif" font-size="10.00">Task.h</text>
</a>
</g>
</g>
<!-- Node1&#45;&gt;Node3 -->
<g id="edge2" class="edge"><title>Node1&#45;&gt;Node3</title>
<path fill="none" stroke="midnightblue" d="M341.889,-261.121C332.824,-251.541 322.959,-241.115 314.028,-231.677"/>
<polygon fill="midnightblue" stroke="midnightblue" points="339.538,-263.729 348.954,-268.587 344.623,-258.918 339.538,-263.729"/>
</g>
<!-- Node4 -->
<g id="node4" class="node"><title>Node4</title>
<g id="a_node4"><a xlink:href="../../df/d46/TPC_2simulation_2src_2DigitizerTask_8cxx.html" target="_top" xlink:title="/home/travis/build\l/AliceO2Group/AliceO2\l/Detectors/TPC/simulation\l/src/DigitizerTask.cxx">
<polygon fill="none" stroke="black" points="93.5,-79 93.5,-131 226.5,-131 226.5,-79 93.5,-79"/>
<text text-anchor="start" x="101.5" y="-119" font-family="Helvetica,sans-Serif" font-size="10.00">/home/travis/build</text>
<text text-anchor="start" x="101.5" y="-108" font-family="Helvetica,sans-Serif" font-size="10.00">/AliceO2Group/AliceO2</text>
<text text-anchor="start" x="101.5" y="-97" font-family="Helvetica,sans-Serif" font-size="10.00">/Detectors/TPC/simulation</text>
<text text-anchor="middle" x="160" y="-86" font-family="Helvetica,sans-Serif" font-size="10.00">/src/DigitizerTask.cxx</text>
</a>
</g>
</g>
<!-- Node1&#45;&gt;Node4 -->
<g id="edge9" class="edge"><title>Node1&#45;&gt;Node4</title>
<path fill="none" stroke="midnightblue" d="M279.506,-278.6C249.697,-269.494 218.824,-255.015 197,-232 170.802,-204.373 163.039,-159.171 160.807,-131.081"/>
<polygon fill="midnightblue" stroke="midnightblue" points="278.556,-281.969 289.134,-281.372 280.493,-275.242 278.556,-281.969"/>
</g>
<!-- Node8 -->
<g id="node8" class="node"><title>Node8</title>
<g id="a_node8"><a xlink:href="../../d9/d59/testHitsDigitsClusters_8C.html" target="_top" xlink:title="/home/travis/build\l/AliceO2Group/AliceO2\l/Detectors/TPC/simulation\l/macro/testHitsDigitsClusters.C">
<polygon fill="none" stroke="black" points="382.5,-174 382.5,-226 539.5,-226 539.5,-174 382.5,-174"/>
<text text-anchor="start" x="390.5" y="-214" font-family="Helvetica,sans-Serif" font-size="10.00">/home/travis/build</text>
<text text-anchor="start" x="390.5" y="-203" font-family="Helvetica,sans-Serif" font-size="10.00">/AliceO2Group/AliceO2</text>
<text text-anchor="start" x="390.5" y="-192" font-family="Helvetica,sans-Serif" font-size="10.00">/Detectors/TPC/simulation</text>
<text text-anchor="middle" x="461" y="-181" font-family="Helvetica,sans-Serif" font-size="10.00">/macro/testHitsDigitsClusters.C</text>
</a>
</g>
</g>
<!-- Node1&#45;&gt;Node8 -->
<g id="edge7" class="edge"><title>Node1&#45;&gt;Node8</title>
<path fill="none" stroke="midnightblue" d="M404.028,-261.21C414.957,-249.659 427.058,-236.87 437.287,-226.06"/>
<polygon fill="midnightblue" stroke="midnightblue" points="401.377,-258.918 397.046,-268.587 406.462,-263.729 401.377,-258.918"/>
</g>
<!-- Node9 -->
<g id="node9" class="node"><title>Node9</title>
<g id="a_node9"><a xlink:href="../../d7/d0a/TPC_2simulation_2src_2Digitizer_8cxx.html" target="_top" xlink:title="/home/travis/build\l/AliceO2Group/AliceO2\l/Detectors/TPC/simulation\l/src/Digitizer.cxx">
<polygon fill="none" stroke="black" points="557.5,-174 557.5,-226 690.5,-226 690.5,-174 557.5,-174"/>
<text text-anchor="start" x="565.5" y="-214" font-family="Helvetica,sans-Serif" font-size="10.00">/home/travis/build</text>
<text text-anchor="start" x="565.5" y="-203" font-family="Helvetica,sans-Serif" font-size="10.00">/AliceO2Group/AliceO2</text>
<text text-anchor="start" x="565.5" y="-192" font-family="Helvetica,sans-Serif" font-size="10.00">/Detectors/TPC/simulation</text>
<text text-anchor="middle" x="624" y="-181" font-family="Helvetica,sans-Serif" font-size="10.00">/src/Digitizer.cxx</text>
</a>
</g>
</g>
<!-- Node1&#45;&gt;Node9 -->
<g id="edge8" class="edge"><title>Node1&#45;&gt;Node9</title>
<path fill="none" stroke="midnightblue" d="M455.835,-265.546C485.067,-255.269 518.096,-243.389 548,-232 552.927,-230.123 558.018,-228.142 563.121,-226.125"/>
<polygon fill="midnightblue" stroke="midnightblue" points="454.356,-262.356 446.077,-268.967 456.671,-268.962 454.356,-262.356"/>
</g>
<!-- Node10 -->
<g id="node10" class="node"><title>Node10</title>
<g id="a_node10"><a xlink:href="../../d1/dd8/SAMPAProcessing_8cxx.html" target="_top" xlink:title="Implementation of the SAMPA response. ">
<polygon fill="none" stroke="black" points="708.5,-174 708.5,-226 847.5,-226 847.5,-174 708.5,-174"/>
<text text-anchor="start" x="716.5" y="-214" font-family="Helvetica,sans-Serif" font-size="10.00">/home/travis/build</text>
<text text-anchor="start" x="716.5" y="-203" font-family="Helvetica,sans-Serif" font-size="10.00">/AliceO2Group/AliceO2</text>
<text text-anchor="start" x="716.5" y="-192" font-family="Helvetica,sans-Serif" font-size="10.00">/Detectors/TPC/simulation</text>
<text text-anchor="middle" x="778" y="-181" font-family="Helvetica,sans-Serif" font-size="10.00">/src/SAMPAProcessing.cxx</text>
</a>
</g>
</g>
<!-- Node1&#45;&gt;Node10 -->
<g id="edge10" class="edge"><title>Node1&#45;&gt;Node10</title>
<path fill="none" stroke="midnightblue" d="M466.672,-280.924C532.421,-270.599 621.999,-254.22 699,-232 705.087,-230.243 711.358,-228.202 717.579,-226.022"/>
<polygon fill="midnightblue" stroke="midnightblue" points="466.084,-277.473 456.74,-282.466 467.158,-284.39 466.084,-277.473"/>
</g>
<!-- Node3&#45;&gt;Node4 -->
<g id="edge3" class="edge"><title>Node3&#45;&gt;Node4</title>
<path fill="none" stroke="midnightblue" d="M235.592,-162.24C221.561,-151.801 206.608,-140.676 193.737,-131.1"/>
<polygon fill="midnightblue" stroke="midnightblue" points="233.612,-165.129 243.724,-168.291 237.79,-159.513 233.612,-165.129"/>
</g>
<!-- Node5 -->
<g id="node5" class="node"><title>Node5</title>
<g id="a_node5"><a xlink:href="../../d7/d11/macro_2run__digi_8C.html" target="_top" xlink:title="/home/travis/build\l/AliceO2Group/AliceO2\l/macro/run_digi.C">
<polygon fill="none" stroke="black" points="245,-84.5 245,-125.5 363,-125.5 363,-84.5 245,-84.5"/>
<text text-anchor="start" x="253" y="-113.5" font-family="Helvetica,sans-Serif" font-size="10.00">/home/travis/build</text>
<text text-anchor="start" x="253" y="-102.5" font-family="Helvetica,sans-Serif" font-size="10.00">/AliceO2Group/AliceO2</text>
<text text-anchor="middle" x="304" y="-91.5" font-family="Helvetica,sans-Serif" font-size="10.00">/macro/run_digi.C</text>
</a>
</g>
</g>
<!-- Node3&#45;&gt;Node5 -->
<g id="edge4" class="edge"><title>Node3&#45;&gt;Node5</title>
<path fill="none" stroke="midnightblue" d="M293.283,-158.458C295.614,-147.047 298.045,-135.149 300.001,-125.575"/>
<polygon fill="midnightblue" stroke="midnightblue" points="289.847,-157.792 291.274,-168.291 296.705,-159.194 289.847,-157.792"/>
</g>
<!-- Node6 -->
<g id="node6" class="node"><title>Node6</title>
<g id="a_node6"><a xlink:href="../../d3/db7/run__digi__tpc_8C.html" target="_top" xlink:title="/home/travis/build\l/AliceO2Group/AliceO2\l/macro/run_digi_tpc.C">
<polygon fill="none" stroke="black" points="381,-84.5 381,-125.5 499,-125.5 499,-84.5 381,-84.5"/>
<text text-anchor="start" x="389" y="-113.5" font-family="Helvetica,sans-Serif" font-size="10.00">/home/travis/build</text>
<text text-anchor="start" x="389" y="-102.5" font-family="Helvetica,sans-Serif" font-size="10.00">/AliceO2Group/AliceO2</text>
<text text-anchor="middle" x="440" y="-91.5" font-family="Helvetica,sans-Serif" font-size="10.00">/macro/run_digi_tpc.C</text>
</a>
</g>
</g>
<!-- Node3&#45;&gt;Node6 -->
<g id="edge5" class="edge"><title>Node3&#45;&gt;Node6</title>
<path fill="none" stroke="midnightblue" d="M344.846,-163.092C366.108,-150.335 389.242,-136.455 407.376,-125.575"/>
<polygon fill="midnightblue" stroke="midnightblue" points="342.957,-160.144 336.182,-168.291 346.558,-166.147 342.957,-160.144"/>
</g>
<!-- Node7 -->
<g id="node7" class="node"><title>Node7</title>
<g id="a_node7"><a xlink:href="../../d3/d56/runTPC_8cxx.html" target="_top" xlink:title="/home/travis/build\l/AliceO2Group/AliceO2\l/run/runTPC.cxx">
<polygon fill="none" stroke="black" points="381,-0.5 381,-41.5 499,-41.5 499,-0.5 381,-0.5"/>
<text text-anchor="start" x="389" y="-29.5" font-family="Helvetica,sans-Serif" font-size="10.00">/home/travis/build</text>
<text text-anchor="start" x="389" y="-18.5" font-family="Helvetica,sans-Serif" font-size="10.00">/AliceO2Group/AliceO2</text>
<text text-anchor="middle" x="440" y="-7.5" font-family="Helvetica,sans-Serif" font-size="10.00">/run/runTPC.cxx</text>
</a>
</g>
</g>
<!-- Node6&#45;&gt;Node7 -->
<g id="edge6" class="edge"><title>Node6&#45;&gt;Node7</title>
<path fill="none" stroke="midnightblue" d="M440,-73.881C440,-63.1328 440,-51.309 440,-41.6671"/>
<polygon fill="midnightblue" stroke="midnightblue" points="436.5,-74.1501 440,-84.1501 443.5,-74.1501 436.5,-74.1501"/>
</g>
</g>
</svg>
        <g id="navigator" transform="translate(0 0)" fill="#404254">
                <rect fill="#f2f5e9" fill-opacity="0.5" stroke="#606060" stroke-width=".5" x="0" y="0" width="60" height="60"/>
                <use id="zoomplus" xlink:href="#zoomPlus" x="17" y="9" onmousedown="handleZoom(evt,'in')"/>
                <use id="zoomminus" xlink:href="#zoomMin" x="42" y="9" onmousedown="handleZoom(evt,'out')"/>
                <use id="reset" xlink:href="#resetDef" x="30" y="36" onmousedown="handleReset()"/>
                <g id="arrowUp" xlink:href="#dirArrow" transform="translate(30 24)" onmousedown="handlePan(0,-1)">
                  <use xlink:href="#rim" fill="#404040">
                        <set attributeName="fill" to="#808080" begin="arrowUp.mouseover" end="arrowUp.mouseout"/>
                  </use>
                  <path fill="none" stroke="white" stroke-width="1.5" d="M0,-3.0v7 M-2.5,-0.5L0,-3.0L2.5,-0.5"/>
                </g>
                <g id="arrowRight" xlink:href="#dirArrow" transform="rotate(90) translate(36 -43)" onmousedown="handlePan(1,0)">
                  <use xlink:href="#rim" fill="#404040">
                        <set attributeName="fill" to="#808080" begin="arrowRight.mouseover" end="arrowRight.mouseout"/>
                  </use>
                  <path fill="none" stroke="white" stroke-width="1.5" d="M0,-3.0v7 M-2.5,-0.5L0,-3.0L2.5,-0.5"/>
                </g>
                <g id="arrowDown" xlink:href="#dirArrow" transform="rotate(180) translate(-30 -48)" onmousedown="handlePan(0,1)">
                  <use xlink:href="#rim" fill="#404040">
                        <set attributeName="fill" to="#808080" begin="arrowDown.mouseover" end="arrowDown.mouseout"/>
                  </use>
                  <path fill="none" stroke="white" stroke-width="1.5" d="M0,-3.0v7 M-2.5,-0.5L0,-3.0L2.5,-0.5"/>
                </g>
                <g id="arrowLeft" xlink:href="#dirArrow" transform="rotate(270) translate(-36 17)" onmousedown="handlePan(-1,0)">
                  <use xlink:href="#rim" fill="#404040">
                        <set attributeName="fill" to="#808080" begin="arrowLeft.mouseover" end="arrowLeft.mouseout"/>
                  </use>
                  <path fill="none" stroke="white" stroke-width="1.5" d="M0,-3.0v7 M-2.5,-0.5L0,-3.0L2.5,-0.5"/>
                </g>
        </g>
        <svg viewBox="0 0 15 15" width="100%" height="30px" preserveAspectRatio="xMaxYMin meet">
         <g id="arrow_out" transform="scale(0.3 0.3)">
          <a xlink:href="TPC_2simulation_2include_2TPCSimulation_2Digitizer_8h__dep__incl_org.svg" target="_base">
           <rect id="button" ry="5" rx="5" y="6" x="6" height="38" width="38"
                fill="#f2f5e9" fill-opacity="0.5" stroke="#606060" stroke-width="1.0"/>
           <path id="arrow"
             d="M 11.500037,31.436501 C 11.940474,20.09759 22.043105,11.32322 32.158766,21.979434 L 37.068811,17.246167 C 37.068811,17.246167 37.088388,32 37.088388,32 L 22.160133,31.978069 C 22.160133,31.978069 26.997745,27.140456 26.997745,27.140456 C 18.528582,18.264221 13.291696,25.230495 11.500037,31.436501 z"
             style="fill:#404040;"/>
          </a>
         </g>
        </svg>
</svg>
