<?xml version="1.0" encoding="UTF-8" standalone="no"?>
<!DOCTYPE svg PUBLIC "-//W3C//DTD SVG 1.1//EN"
 "http://www.w3.org/Graphics/SVG/1.1/DTD/svg11.dtd">
<!-- Generated by graphviz version 2.36.0 (20140111.2315)
 -->
<!-- Title: /home/travis/build/AliceO2Group/AliceO2/Detectors/Passive/src/Dipole.cxx Pages: 1 -->
<!--zoomable 174 -->
<svg id="main" version="1.1" xmlns="http://www.w3.org/2000/svg" xmlns:xlink="http://www.w3.org/1999/xlink" xml:space="preserve" onload="init(evt)">
<style type="text/css"><![CDATA[
.edge:hover path { stroke: red; }
.edge:hover polygon { stroke: red; fill: red; }
]]></style>
<script type="text/javascript"><![CDATA[
var edges = document.getElementsByTagName('g');
if (edges && edges.length) {
  for (var i=0;i<edges.length;i++) {
    if (edges[i].id.substr(0,4)=='edge') {
      edges[i].setAttribute('class','edge');
    }
  }
}
]]></script>
        <defs>
                <circle id="rim" cx="0" cy="0" r="7"/>
                <circle id="rim2" cx="0" cy="0" r="3.5"/>
                <g id="zoomPlus">
                        <use xlink:href="#rim" fill="#404040">
                                <set attributeName="fill" to="#808080" begin="zoomplus.mouseover" end="zoomplus.mouseout"/>
                        </use>
                        <path d="M-4,0h8M0,-4v8" fill="none" stroke="white" stroke-width="1.5" pointer-events="none"/>
                </g>
                <g id="zoomMin">
                        <use xlink:href="#rim" fill="#404040">
                                <set attributeName="fill" to="#808080" begin="zoomminus.mouseover" end="zoomminus.mouseout"/>
                        </use>
                        <path d="M-4,0h8" fill="none" stroke="white" stroke-width="1.5" pointer-events="none"/>
                </g>
                <g id="dirArrow">
                        <path fill="none" stroke="white" stroke-width="1.5" d="M0,-3.0v7 M-2.5,-0.5L0,-3.0L2.5,-0.5"/>
                </g>
               <g id="resetDef">
                       <use xlink:href="#rim2" fill="#404040">
                               <set attributeName="fill" to="#808080" begin="reset.mouseover" end="reset.mouseout"/>
                       </use>
               </g>
        </defs>

<script type="text/javascript">
var viewWidth = 2119;
var viewHeight = 174;
var sectionId = 'dynsection-0';
</script>
<script xlink:href="../../svgpan.js"/>
<svg id="graph" class="graph">
<g id="viewport">
<title>/home/travis/build/AliceO2Group/AliceO2/Detectors/Passive/src/Dipole.cxx</title>
<!-- Node1 -->
<g id="node1" class="node"><title>Node1</title>
<polygon fill="#bfbfbf" stroke="black" points="1349,-113 1349,-165 1467,-165 1467,-113 1349,-113"/>
<text text-anchor="start" x="1357" y="-153" font-family="Helvetica,sans-Serif" font-size="10.00">/home/travis/build</text>
<text text-anchor="start" x="1357" y="-142" font-family="Helvetica,sans-Serif" font-size="10.00">/AliceO2Group/AliceO2</text>
<text text-anchor="start" x="1357" y="-131" font-family="Helvetica,sans-Serif" font-size="10.00">/Detectors/Passive/src</text>
<text text-anchor="middle" x="1408" y="-120" font-family="Helvetica,sans-Serif" font-size="10.00">/Dipole.cxx</text>
</g>
<!-- Node2 -->
<g id="node2" class="node"><title>Node2</title>
<g id="a_node2"><a xlink:href="../../d1/d3a/Base_2include_2DetectorsBase_2Detector_8h.html" target="_top" xlink:title="DetectorsBase/Detector.h">
<polygon fill="none" stroke="black" points="362.5,-56.5 362.5,-75.5 493.5,-75.5 493.5,-56.5 362.5,-56.5"/>
<text text-anchor="middle" x="428" y="-63.5" font-family="Helvetica,sans-Serif" font-size="10.00">DetectorsBase/Detector.h</text>
</a>
</g>
</g>
<!-- Node1&#45;&gt;Node2 -->
<g id="edge1" class="edge"><title>Node1&#45;&gt;Node2</title>
<path fill="none" stroke="midnightblue" d="M1348.9,-133.719C1179.46,-121.442 692.043,-86.1296 503.618,-72.4785"/>
<polygon fill="midnightblue" stroke="midnightblue" points="503.752,-68.9791 493.525,-71.7472 503.246,-75.9608 503.752,-68.9791"/>
</g>
<!-- Node13 -->
<g id="node13" class="node"><title>Node13</title>
<g id="a_node13"><a xlink:href="../../d8/d70/Dipole_8h.html" target="_top" xlink:title="DetectorsPassive/Dipole.h">
<polygon fill="none" stroke="black" points="643,-56.5 643,-75.5 777,-75.5 777,-56.5 643,-56.5"/>
<text text-anchor="middle" x="710" y="-63.5" font-family="Helvetica,sans-Serif" font-size="10.00">DetectorsPassive/Dipole.h</text>
</a>
</g>
</g>
<!-- Node1&#45;&gt;Node13 -->
<g id="edge12" class="edge"><title>Node1&#45;&gt;Node13</title>
<path fill="none" stroke="midnightblue" d="M1348.88,-132.432C1240.17,-122.12 1000.91,-99.0856 787.334,-76.0186"/>
<polygon fill="midnightblue" stroke="midnightblue" points="787.503,-72.5165 777.184,-74.9202 786.75,-79.4758 787.503,-72.5165"/>
</g>
<!-- Node15 -->
<g id="node15" class="node"><title>Node15</title>
<polygon fill="none" stroke="#bfbfbf" points="795.5,-56.5 795.5,-75.5 864.5,-75.5 864.5,-56.5 795.5,-56.5"/>
<text text-anchor="middle" x="830" y="-63.5" font-family="Helvetica,sans-Serif" font-size="10.00">TGeoArb8.h</text>
</g>
<!-- Node1&#45;&gt;Node15 -->
<g id="edge15" class="edge"><title>Node1&#45;&gt;Node15</title>
<path fill="none" stroke="midnightblue" d="M1348.9,-132.817C1252.02,-123.952 1053.2,-104.217 874.64,-75.9683"/>
<polygon fill="midnightblue" stroke="midnightblue" points="874.962,-72.4754 864.536,-74.357 873.86,-79.3881 874.962,-72.4754"/>
</g>
<!-- Node16 -->
<g id="node16" class="node"><title>Node16</title>
<polygon fill="none" stroke="#bfbfbf" points="883,-56.5 883,-75.5 1007,-75.5 1007,-56.5 883,-56.5"/>
<text text-anchor="middle" x="945" y="-63.5" font-family="Helvetica,sans-Serif" font-size="10.00">TGeoCompositeShape.h</text>
</g>
<!-- Node1&#45;&gt;Node16 -->
<g id="edge16" class="edge"><title>Node1&#45;&gt;Node16</title>
<path fill="none" stroke="midnightblue" d="M1348.89,-128.936C1262.15,-115.635 1100.93,-90.9117 1010.63,-77.0637"/>
<polygon fill="midnightblue" stroke="midnightblue" points="1010.93,-73.5687 1000.51,-75.5124 1009.86,-80.4878 1010.93,-73.5687"/>
</g>
<!-- Node17 -->
<g id="node17" class="node"><title>Node17</title>
<polygon fill="none" stroke="#bfbfbf" points="1025,-56.5 1025,-75.5 1097,-75.5 1097,-56.5 1025,-56.5"/>
<text text-anchor="middle" x="1061" y="-63.5" font-family="Helvetica,sans-Serif" font-size="10.00">TGeoCone.h</text>
</g>
<!-- Node1&#45;&gt;Node17 -->
<g id="edge17" class="edge"><title>Node1&#45;&gt;Node17</title>
<path fill="none" stroke="midnightblue" d="M1348.74,-125.875C1280.35,-111.881 1169.32,-89.1632 1107.07,-76.4265"/>
<polygon fill="midnightblue" stroke="midnightblue" points="1107.64,-72.9711 1097.14,-74.3954 1106.24,-79.829 1107.64,-72.9711"/>
</g>
<!-- Node18 -->
<g id="node18" class="node"><title>Node18</title>
<polygon fill="none" stroke="#bfbfbf" points="1115,-56.5 1115,-75.5 1201,-75.5 1201,-56.5 1115,-56.5"/>
<text text-anchor="middle" x="1158" y="-63.5" font-family="Helvetica,sans-Serif" font-size="10.00">TGeoManager.h</text>
</g>
<!-- Node1&#45;&gt;Node18 -->
<g id="edge18" class="edge"><title>Node1&#45;&gt;Node18</title>
<path fill="none" stroke="midnightblue" d="M1348.75,-121.174C1302.16,-107.943 1238.54,-89.8734 1197.85,-78.3183"/>
<polygon fill="midnightblue" stroke="midnightblue" points="1198.6,-74.893 1188.03,-75.5279 1196.69,-81.6268 1198.6,-74.893"/>
</g>
<!-- Node19 -->
<g id="node19" class="node"><title>Node19</title>
<polygon fill="none" stroke="#bfbfbf" points="1219.5,-56.5 1219.5,-75.5 1302.5,-75.5 1302.5,-56.5 1219.5,-56.5"/>
<text text-anchor="middle" x="1261" y="-63.5" font-family="Helvetica,sans-Serif" font-size="10.00">TGeoMaterial.h</text>
</g>
<!-- Node1&#45;&gt;Node19 -->
<g id="edge19" class="edge"><title>Node1&#45;&gt;Node19</title>
<path fill="none" stroke="midnightblue" d="M1356.17,-112.968C1333.23,-101.885 1307.18,-89.3062 1288.15,-80.1123"/>
<polygon fill="midnightblue" stroke="midnightblue" points="1289.41,-76.8365 1278.89,-75.6389 1286.37,-83.1398 1289.41,-76.8365"/>
</g>
<!-- Node20 -->
<g id="node20" class="node"><title>Node20</title>
<polygon fill="none" stroke="#bfbfbf" points="1321,-56.5 1321,-75.5 1397,-75.5 1397,-56.5 1321,-56.5"/>
<text text-anchor="middle" x="1359" y="-63.5" font-family="Helvetica,sans-Serif" font-size="10.00">TGeoMatrix.h</text>
</g>
<!-- Node1&#45;&gt;Node20 -->
<g id="edge20" class="edge"><title>Node1&#45;&gt;Node20</title>
<path fill="none" stroke="midnightblue" d="M1390.59,-112.768C1384.04,-103.284 1376.76,-92.7308 1370.84,-84.15"/>
<polygon fill="midnightblue" stroke="midnightblue" points="1373.6,-81.9994 1365.04,-75.7572 1367.84,-85.9755 1373.6,-81.9994"/>
</g>
<!-- Node21 -->
<g id="node21" class="node"><title>Node21</title>
<polygon fill="none" stroke="#bfbfbf" points="1415.5,-56.5 1415.5,-75.5 1498.5,-75.5 1498.5,-56.5 1415.5,-56.5"/>
<text text-anchor="middle" x="1457" y="-63.5" font-family="Helvetica,sans-Serif" font-size="10.00">TGeoMedium.h</text>
</g>
<!-- Node1&#45;&gt;Node21 -->
<g id="edge21" class="edge"><title>Node1&#45;&gt;Node21</title>
<path fill="none" stroke="midnightblue" d="M1425.41,-112.768C1431.96,-103.284 1439.24,-92.7308 1445.16,-84.15"/>
<polygon fill="midnightblue" stroke="midnightblue" points="1448.16,-85.9755 1450.96,-75.7572 1442.4,-81.9994 1448.16,-85.9755"/>
</g>
<!-- Node22 -->
<g id="node22" class="node"><title>Node22</title>
<polygon fill="none" stroke="#bfbfbf" points="1516.5,-56.5 1516.5,-75.5 1587.5,-75.5 1587.5,-56.5 1516.5,-56.5"/>
<text text-anchor="middle" x="1552" y="-63.5" font-family="Helvetica,sans-Serif" font-size="10.00">TGeoPcon.h</text>
</g>
<!-- Node1&#45;&gt;Node22 -->
<g id="edge22" class="edge"><title>Node1&#45;&gt;Node22</title>
<path fill="none" stroke="midnightblue" d="M1458.77,-112.968C1481.25,-101.885 1506.76,-89.3062 1525.41,-80.1123"/>
<polygon fill="midnightblue" stroke="midnightblue" points="1527.06,-83.2004 1534.48,-75.6389 1523.96,-76.922 1527.06,-83.2004"/>
</g>
<!-- Node23 -->
<g id="node23" class="node"><title>Node23</title>
<polygon fill="none" stroke="#bfbfbf" points="1605.5,-56.5 1605.5,-75.5 1676.5,-75.5 1676.5,-56.5 1605.5,-56.5"/>
<text text-anchor="middle" x="1641" y="-63.5" font-family="Helvetica,sans-Serif" font-size="10.00">TGeoPgon.h</text>
</g>
<!-- Node1&#45;&gt;Node23 -->
<g id="edge23" class="edge"><title>Node1&#45;&gt;Node23</title>
<path fill="none" stroke="midnightblue" d="M1467.1,-119.992C1509.86,-106.961 1566.38,-89.7386 1603.2,-78.5186"/>
<polygon fill="midnightblue" stroke="midnightblue" points="1604.49,-81.7846 1613.03,-75.5217 1602.45,-75.0886 1604.49,-81.7846"/>
</g>
<!-- Node24 -->
<g id="node24" class="node"><title>Node24</title>
<polygon fill="none" stroke="#bfbfbf" points="1694.5,-56.5 1694.5,-75.5 1765.5,-75.5 1765.5,-56.5 1694.5,-56.5"/>
<text text-anchor="middle" x="1730" y="-63.5" font-family="Helvetica,sans-Serif" font-size="10.00">TGeoTube.h</text>
</g>
<!-- Node1&#45;&gt;Node24 -->
<g id="edge24" class="edge"><title>Node1&#45;&gt;Node24</title>
<path fill="none" stroke="midnightblue" d="M1467.06,-124.978C1529.75,-111.155 1627.46,-89.6097 1684.45,-77.043"/>
<polygon fill="midnightblue" stroke="midnightblue" points="1685.25,-80.4514 1694.26,-74.8802 1683.74,-73.6156 1685.25,-80.4514"/>
</g>
<!-- Node25 -->
<g id="node25" class="node"><title>Node25</title>
<polygon fill="none" stroke="#bfbfbf" points="1784,-56.5 1784,-75.5 1866,-75.5 1866,-56.5 1784,-56.5"/>
<text text-anchor="middle" x="1825" y="-63.5" font-family="Helvetica,sans-Serif" font-size="10.00">TGeoVolume.h</text>
</g>
<!-- Node1&#45;&gt;Node25 -->
<g id="edge25" class="edge"><title>Node1&#45;&gt;Node25</title>
<path fill="none" stroke="midnightblue" d="M1467.29,-128.084C1537.65,-116.29 1658.78,-95.8931 1773.77,-76.0294"/>
<polygon fill="midnightblue" stroke="midnightblue" points="1774.55,-79.4465 1783.81,-74.2941 1773.36,-72.5489 1774.55,-79.4465"/>
</g>
<!-- Node26 -->
<g id="node26" class="node"><title>Node26</title>
<polygon fill="none" stroke="#bfbfbf" points="1884.5,-56.5 1884.5,-75.5 1951.5,-75.5 1951.5,-56.5 1884.5,-56.5"/>
<text text-anchor="middle" x="1918" y="-63.5" font-family="Helvetica,sans-Serif" font-size="10.00">TGeoXtru.h</text>
</g>
<!-- Node1&#45;&gt;Node26 -->
<g id="edge26" class="edge"><title>Node1&#45;&gt;Node26</title>
<path fill="none" stroke="midnightblue" d="M1467.19,-131.571C1554.14,-121.81 1721.68,-101.805 1874.22,-76.0193"/>
<polygon fill="midnightblue" stroke="midnightblue" points="1874.97,-79.4414 1884.24,-74.3125 1873.8,-72.5407 1874.97,-79.4414"/>
</g>
<!-- Node27 -->
<g id="node27" class="node"><title>Node27</title>
<polygon fill="none" stroke="#bfbfbf" points="1970,-56.5 1970,-75.5 2044,-75.5 2044,-56.5 1970,-56.5"/>
<text text-anchor="middle" x="2007" y="-63.5" font-family="Helvetica,sans-Serif" font-size="10.00">TVirtualMC.h</text>
</g>
<!-- Node1&#45;&gt;Node27 -->
<g id="edge27" class="edge"><title>Node1&#45;&gt;Node27</title>
<path fill="none" stroke="midnightblue" d="M1467.02,-132.882C1566.43,-123.93 1773.77,-103.837 1959.88,-75.897"/>
<polygon fill="midnightblue" stroke="midnightblue" points="1960.48,-79.3455 1969.85,-74.3897 1959.43,-72.4242 1960.48,-79.3455"/>
</g>
<!-- Node28 -->
<g id="node28" class="node"><title>Node28</title>
<polygon fill="none" stroke="#bfbfbf" points="2062.5,-56.5 2062.5,-75.5 2111.5,-75.5 2111.5,-56.5 2062.5,-56.5"/>
<text text-anchor="middle" x="2087" y="-63.5" font-family="Helvetica,sans-Serif" font-size="10.00">cassert</text>
</g>
<!-- Node1&#45;&gt;Node28 -->
<g id="edge28" class="edge"><title>Node1&#45;&gt;Node28</title>
<path fill="none" stroke="midnightblue" d="M1467.13,-135.541C1579.49,-130.169 1831.51,-114.769 2052.08,-75.8685"/>
<polygon fill="midnightblue" stroke="midnightblue" points="2052.99,-79.2602 2062.22,-74.0581 2051.76,-72.369 2052.99,-79.2602"/>
</g>
<!-- Node3 -->
<g id="node3" class="node"><title>Node3</title>
<polygon fill="none" stroke="#bfbfbf" points="-0.5,-0.5 -0.5,-19.5 34.5,-19.5 34.5,-0.5 -0.5,-0.5"/>
<text text-anchor="middle" x="17" y="-7.5" font-family="Helvetica,sans-Serif" font-size="10.00">map</text>
</g>
<!-- Node2&#45;&gt;Node3 -->
<g id="edge2" class="edge"><title>Node2&#45;&gt;Node3</title>
<path fill="none" stroke="midnightblue" d="M362.432,-61.4191C287.542,-56.4138 161.367,-45.1935 44.4129,-19.624"/>
<polygon fill="midnightblue" stroke="midnightblue" points="45.0942,-16.1901 34.5726,-17.4334 43.5731,-23.0228 45.0942,-16.1901"/>
</g>
<!-- Node4 -->
<g id="node4" class="node"><title>Node4</title>
<polygon fill="none" stroke="#bfbfbf" points="53,-0.5 53,-19.5 97,-19.5 97,-0.5 53,-0.5"/>
<text text-anchor="middle" x="75" y="-7.5" font-family="Helvetica,sans-Serif" font-size="10.00">vector</text>
</g>
<!-- Node2&#45;&gt;Node4 -->
<g id="edge3" class="edge"><title>Node2&#45;&gt;Node4</title>
<path fill="none" stroke="midnightblue" d="M362.454,-58.6319C299.282,-51.8637 200.909,-39.6702 107.185,-19.993"/>
<polygon fill="midnightblue" stroke="midnightblue" points="107.764,-16.5378 97.2537,-17.8757 106.304,-23.384 107.764,-16.5378"/>
</g>
<!-- Node5 -->
<g id="node5" class="node"><title>Node5</title>
<polygon fill="none" stroke="#bfbfbf" points="115,-0.5 115,-19.5 167,-19.5 167,-0.5 115,-0.5"/>
<text text-anchor="middle" x="141" y="-7.5" font-family="Helvetica,sans-Serif" font-size="10.00">memory</text>
</g>
<!-- Node2&#45;&gt;Node5 -->
<g id="edge4" class="edge"><title>Node2&#45;&gt;Node5</title>
<path fill="none" stroke="midnightblue" d="M373.203,-56.4313C324.199,-48.4935 250.221,-35.8359 177.156,-20.1282"/>
<polygon fill="midnightblue" stroke="midnightblue" points="177.838,-16.6947 167.323,-17.9942 176.353,-23.5355 177.838,-16.6947"/>
</g>
<!-- Node6 -->
<g id="node6" class="node"><title>Node6</title>
<polygon fill="none" stroke="#bfbfbf" points="185.5,-0.5 185.5,-19.5 264.5,-19.5 264.5,-0.5 185.5,-0.5"/>
<text text-anchor="middle" x="225" y="-7.5" font-family="Helvetica,sans-Serif" font-size="10.00">FairDetector.h</text>
</g>
<!-- Node2&#45;&gt;Node6 -->
<g id="edge5" class="edge"><title>Node2&#45;&gt;Node6</title>
<path fill="none" stroke="midnightblue" d="M395.834,-56.4435C360.941,-47.1616 305.107,-32.3093 266.829,-22.127"/>
<polygon fill="midnightblue" stroke="midnightblue" points="267.579,-18.7048 257.015,-19.5164 265.78,-25.4696 267.579,-18.7048"/>
</g>
<!-- Node7 -->
<g id="node7" class="node"><title>Node7</title>
<polygon fill="none" stroke="#bfbfbf" points="283,-0.5 283,-19.5 383,-19.5 383,-0.5 283,-0.5"/>
<text text-anchor="middle" x="333" y="-7.5" font-family="Helvetica,sans-Serif" font-size="10.00">FairRootManager.h</text>
</g>
<!-- Node2&#45;&gt;Node7 -->
<g id="edge6" class="edge"><title>Node2&#45;&gt;Node7</title>
<path fill="none" stroke="midnightblue" d="M412.737,-56.324C397.779,-47.8215 374.745,-34.7288 357.273,-24.7975"/>
<polygon fill="midnightblue" stroke="midnightblue" points="358.649,-21.5534 348.226,-19.6545 355.19,-27.639 358.649,-21.5534"/>
</g>
<!-- Node8 -->
<g id="node8" class="node"><title>Node8</title>
<polygon fill="none" stroke="#bfbfbf" points="682,-0.5 682,-19.5 738,-19.5 738,-0.5 682,-0.5"/>
<text text-anchor="middle" x="710" y="-7.5" font-family="Helvetica,sans-Serif" font-size="10.00">Rtypes.h</text>
</g>
<!-- Node2&#45;&gt;Node8 -->
<g id="edge7" class="edge"><title>Node2&#45;&gt;Node8</title>
<path fill="none" stroke="midnightblue" d="M478.615,-56.4286C528.065,-47.8747 605.4,-34.019 672,-20 672.1,-19.9791 672.199,-19.958 672.299,-19.937"/>
<polygon fill="midnightblue" stroke="midnightblue" points="672.8,-23.4105 681.814,-17.8419 671.295,-16.5743 672.8,-23.4105"/>
</g>
<!-- Node9 -->
<g id="node9" class="node"><title>Node9</title>
<polygon fill="none" stroke="#bfbfbf" points="401.5,-0.5 401.5,-19.5 454.5,-19.5 454.5,-0.5 401.5,-0.5"/>
<text text-anchor="middle" x="428" y="-7.5" font-family="Helvetica,sans-Serif" font-size="10.00">cxxabi.h</text>
</g>
<!-- Node2&#45;&gt;Node9 -->
<g id="edge8" class="edge"><title>Node2&#45;&gt;Node9</title>
<path fill="none" stroke="midnightblue" d="M428,-56.083C428,-49.0059 428,-38.8611 428,-29.9865"/>
<polygon fill="midnightblue" stroke="midnightblue" points="431.5,-29.751 428,-19.7511 424.5,-29.7511 431.5,-29.751"/>
</g>
<!-- Node10 -->
<g id="node10" class="node"><title>Node10</title>
<polygon fill="none" stroke="#bfbfbf" points="472.5,-0.5 472.5,-19.5 523.5,-19.5 523.5,-0.5 472.5,-0.5"/>
<text text-anchor="middle" x="498" y="-7.5" font-family="Helvetica,sans-Serif" font-size="10.00">typeinfo</text>
</g>
<!-- Node2&#45;&gt;Node10 -->
<g id="edge9" class="edge"><title>Node2&#45;&gt;Node10</title>
<path fill="none" stroke="midnightblue" d="M439.247,-56.324C449.797,-48.1849 465.801,-35.8395 478.442,-26.0874"/>
<polygon fill="midnightblue" stroke="midnightblue" points="480.769,-28.7132 486.549,-19.8339 476.493,-23.1707 480.769,-28.7132"/>
</g>
<!-- Node11 -->
<g id="node11" class="node"><title>Node11</title>
<polygon fill="none" stroke="#bfbfbf" points="542,-0.5 542,-19.5 604,-19.5 604,-0.5 542,-0.5"/>
<text text-anchor="middle" x="573" y="-7.5" font-family="Helvetica,sans-Serif" font-size="10.00">type_traits</text>
</g>
<!-- Node2&#45;&gt;Node11 -->
<g id="edge10" class="edge"><title>Node2&#45;&gt;Node11</title>
<path fill="none" stroke="midnightblue" d="M450.976,-56.4435C475.157,-47.4381 513.418,-33.1891 540.646,-23.049"/>
<polygon fill="midnightblue" stroke="midnightblue" points="541.982,-26.2864 550.132,-19.5164 539.539,-19.7265 541.982,-26.2864"/>
</g>
<!-- Node12 -->
<g id="node12" class="node"><title>Node12</title>
<polygon fill="none" stroke="#bfbfbf" points="622.5,-0.5 622.5,-19.5 663.5,-19.5 663.5,-0.5 622.5,-0.5"/>
<text text-anchor="middle" x="643" y="-7.5" font-family="Helvetica,sans-Serif" font-size="10.00">string</text>
</g>
<!-- Node2&#45;&gt;Node12 -->
<g id="edge11" class="edge"><title>Node2&#45;&gt;Node12</title>
<path fill="none" stroke="midnightblue" d="M464.774,-56.4943C502.001,-47.7693 561.167,-33.5882 612,-20 612.21,-19.9439 612.42,-19.8875 612.632,-19.8307"/>
<polygon fill="midnightblue" stroke="midnightblue" points="613.661,-23.1774 622.357,-17.1261 611.785,-16.4333 613.661,-23.1774"/>
</g>
<!-- Node13&#45;&gt;Node8 -->
<g id="edge14" class="edge"><title>Node13&#45;&gt;Node8</title>
<path fill="none" stroke="midnightblue" d="M710,-56.083C710,-49.0059 710,-38.8611 710,-29.9865"/>
<polygon fill="midnightblue" stroke="midnightblue" points="713.5,-29.751 710,-19.7511 706.5,-29.7511 713.5,-29.751"/>
</g>
<!-- Node14 -->
<g id="node14" class="node"><title>Node14</title>
<polygon fill="none" stroke="#bfbfbf" points="756.5,-0.5 756.5,-19.5 829.5,-19.5 829.5,-0.5 756.5,-0.5"/>
<text text-anchor="middle" x="793" y="-7.5" font-family="Helvetica,sans-Serif" font-size="10.00">FairModule.h</text>
</g>
<!-- Node13&#45;&gt;Node14 -->
<g id="edge13" class="edge"><title>Node13&#45;&gt;Node14</title>
<path fill="none" stroke="midnightblue" d="M723.335,-56.324C736.162,-47.979 755.785,-35.2122 770.94,-25.3524"/>
<polygon fill="midnightblue" stroke="midnightblue" points="773.224,-28.0417 779.698,-19.6545 769.407,-22.1742 773.224,-28.0417"/>
</g>
</g>
</svg>
        <g id="navigator" transform="translate(0 0)" fill="#404254">
                <rect fill="#f2f5e9" fill-opacity="0.5" stroke="#606060" stroke-width=".5" x="0" y="0" width="60" height="60"/>
                <use id="zoomplus" xlink:href="#zoomPlus" x="17" y="9" onmousedown="handleZoom(evt,'in')"/>
                <use id="zoomminus" xlink:href="#zoomMin" x="42" y="9" onmousedown="handleZoom(evt,'out')"/>
                <use id="reset" xlink:href="#resetDef" x="30" y="36" onmousedown="handleReset()"/>
                <g id="arrowUp" xlink:href="#dirArrow" transform="translate(30 24)" onmousedown="handlePan(0,-1)">
                  <use xlink:href="#rim" fill="#404040">
                        <set attributeName="fill" to="#808080" begin="arrowUp.mouseover" end="arrowUp.mouseout"/>
                  </use>
                  <path fill="none" stroke="white" stroke-width="1.5" d="M0,-3.0v7 M-2.5,-0.5L0,-3.0L2.5,-0.5"/>
                </g>
                <g id="arrowRight" xlink:href="#dirArrow" transform="rotate(90) translate(36 -43)" onmousedown="handlePan(1,0)">
                  <use xlink:href="#rim" fill="#404040">
                        <set attributeName="fill" to="#808080" begin="arrowRight.mouseover" end="arrowRight.mouseout"/>
                  </use>
                  <path fill="none" stroke="white" stroke-width="1.5" d="M0,-3.0v7 M-2.5,-0.5L0,-3.0L2.5,-0.5"/>
                </g>
                <g id="arrowDown" xlink:href="#dirArrow" transform="rotate(180) translate(-30 -48)" onmousedown="handlePan(0,1)">
                  <use xlink:href="#rim" fill="#404040">
                        <set attributeName="fill" to="#808080" begin="arrowDown.mouseover" end="arrowDown.mouseout"/>
                  </use>
                  <path fill="none" stroke="white" stroke-width="1.5" d="M0,-3.0v7 M-2.5,-0.5L0,-3.0L2.5,-0.5"/>
                </g>
                <g id="arrowLeft" xlink:href="#dirArrow" transform="rotate(270) translate(-36 17)" onmousedown="handlePan(-1,0)">
                  <use xlink:href="#rim" fill="#404040">
                        <set attributeName="fill" to="#808080" begin="arrowLeft.mouseover" end="arrowLeft.mouseout"/>
                  </use>
                  <path fill="none" stroke="white" stroke-width="1.5" d="M0,-3.0v7 M-2.5,-0.5L0,-3.0L2.5,-0.5"/>
                </g>
        </g>
        <svg viewBox="0 0 15 15" width="100%" height="30px" preserveAspectRatio="xMaxYMin meet">
         <g id="arrow_out" transform="scale(0.3 0.3)">
          <a xlink:href="Dipole_8cxx__incl_org.svg" target="_base">
           <rect id="button" ry="5" rx="5" y="6" x="6" height="38" width="38"
                fill="#f2f5e9" fill-opacity="0.5" stroke="#606060" stroke-width="1.0"/>
           <path id="arrow"
             d="M 11.500037,31.436501 C 11.940474,20.09759 22.043105,11.32322 32.158766,21.979434 L 37.068811,17.246167 C 37.068811,17.246167 37.088388,32 37.088388,32 L 22.160133,31.978069 C 22.160133,31.978069 26.997745,27.140456 26.997745,27.140456 C 18.528582,18.264221 13.291696,25.230495 11.500037,31.436501 z"
             style="fill:#404040;"/>
          </a>
         </g>
        </svg>
</svg>
