<?xml version="1.0" encoding="UTF-8" standalone="no"?>
<!DOCTYPE svg PUBLIC "-//W3C//DTD SVG 1.1//EN"
 "http://www.w3.org/Graphics/SVG/1.1/DTD/svg11.dtd">
<!-- Generated by graphviz version 2.36.0 (20140111.2315)
 -->
<!-- Title: /home/travis/build/AliceO2Group/AliceO2/Detectors/ITSMFT/MFT/base/src/HeatExchanger.cxx Pages: 1 -->
<svg width="1148pt" height="174pt"
 viewBox="0.00 0.00 1148.00 174.00" xmlns="http://www.w3.org/2000/svg" xmlns:xlink="http://www.w3.org/1999/xlink">
<g id="graph0" class="graph" transform="scale(1 1) rotate(0) translate(4 170)">
<title>/home/travis/build/AliceO2Group/AliceO2/Detectors/ITSMFT/MFT/base/src/HeatExchanger.cxx</title>
<!-- Node1 -->
<g id="node1" class="node"><title>Node1</title>
<polygon fill="#bfbfbf" stroke="black" points="481,-113 481,-165 627,-165 627,-113 481,-113"/>
<text text-anchor="start" x="489" y="-153" font-family="Helvetica,sans-Serif" font-size="10.00">/home/travis/build</text>
<text text-anchor="start" x="489" y="-142" font-family="Helvetica,sans-Serif" font-size="10.00">/AliceO2Group/AliceO2</text>
<text text-anchor="start" x="489" y="-131" font-family="Helvetica,sans-Serif" font-size="10.00">/Detectors/ITSMFT/MFT</text>
<text text-anchor="middle" x="554" y="-120" font-family="Helvetica,sans-Serif" font-size="10.00">/base/src/HeatExchanger.cxx</text>
</g>
<!-- Node2 -->
<g id="node2" class="node"><title>Node2</title>
<polygon fill="none" stroke="#bfbfbf" points="-0.5,-56.5 -0.5,-75.5 52.5,-75.5 52.5,-56.5 -0.5,-56.5"/>
<text text-anchor="middle" x="26" y="-63.5" font-family="Helvetica,sans-Serif" font-size="10.00">TMath.h</text>
</g>
<!-- Node1&#45;&gt;Node2 -->
<g id="edge1" class="edge"><title>Node1&#45;&gt;Node2</title>
<path fill="none" stroke="midnightblue" d="M480.637,-131.52C386.192,-122.561 216.92,-104.421 62.7878,-75.9333"/>
<polygon fill="midnightblue" stroke="midnightblue" points="63.1307,-72.4369 52.6582,-74.0419 61.8458,-79.318 63.1307,-72.4369"/>
</g>
<!-- Node3 -->
<g id="node3" class="node"><title>Node3</title>
<polygon fill="none" stroke="#bfbfbf" points="71,-56.5 71,-75.5 157,-75.5 157,-56.5 71,-56.5"/>
<text text-anchor="middle" x="114" y="-63.5" font-family="Helvetica,sans-Serif" font-size="10.00">TGeoManager.h</text>
</g>
<!-- Node1&#45;&gt;Node3 -->
<g id="edge2" class="edge"><title>Node1&#45;&gt;Node3</title>
<path fill="none" stroke="midnightblue" d="M480.654,-126.569C404.811,-114.683 282.674,-95.3591 167.201,-76.1838"/>
<polygon fill="midnightblue" stroke="midnightblue" points="167.562,-72.6958 157.123,-74.5077 166.413,-79.6009 167.562,-72.6958"/>
</g>
<!-- Node4 -->
<g id="node4" class="node"><title>Node4</title>
<polygon fill="none" stroke="#bfbfbf" points="175,-56.5 175,-75.5 299,-75.5 299,-56.5 175,-56.5"/>
<text text-anchor="middle" x="237" y="-63.5" font-family="Helvetica,sans-Serif" font-size="10.00">TGeoCompositeShape.h</text>
</g>
<!-- Node1&#45;&gt;Node4 -->
<g id="edge3" class="edge"><title>Node1&#45;&gt;Node4</title>
<path fill="none" stroke="midnightblue" d="M480.876,-121.622C420.708,-108.146 337.143,-89.4296 285.11,-77.7754"/>
<polygon fill="midnightblue" stroke="midnightblue" points="285.663,-74.3126 275.14,-75.5423 284.133,-81.1434 285.663,-74.3126"/>
</g>
<!-- Node5 -->
<g id="node5" class="node"><title>Node5</title>
<polygon fill="none" stroke="#bfbfbf" points="317.5,-56.5 317.5,-75.5 388.5,-75.5 388.5,-56.5 317.5,-56.5"/>
<text text-anchor="middle" x="353" y="-63.5" font-family="Helvetica,sans-Serif" font-size="10.00">TGeoTube.h</text>
</g>
<!-- Node1&#45;&gt;Node5 -->
<g id="edge4" class="edge"><title>Node1&#45;&gt;Node5</title>
<path fill="none" stroke="midnightblue" d="M483.135,-112.968C450.463,-101.427 413.201,-88.2651 386.947,-78.9913"/>
<polygon fill="midnightblue" stroke="midnightblue" points="388.051,-75.6694 377.457,-75.6389 385.72,-82.2698 388.051,-75.6694"/>
</g>
<!-- Node6 -->
<g id="node6" class="node"><title>Node6</title>
<polygon fill="none" stroke="#bfbfbf" points="407,-56.5 407,-75.5 499,-75.5 499,-56.5 407,-56.5"/>
<text text-anchor="middle" x="453" y="-63.5" font-family="Helvetica,sans-Serif" font-size="10.00">TGeoBoolNode.h</text>
</g>
<!-- Node1&#45;&gt;Node6 -->
<g id="edge5" class="edge"><title>Node1&#45;&gt;Node6</title>
<path fill="none" stroke="midnightblue" d="M518.391,-112.968C503.44,-102.458 486.577,-90.6034 473.72,-81.5655"/>
<polygon fill="midnightblue" stroke="midnightblue" points="475.726,-78.6972 465.532,-75.8095 471.7,-84.4238 475.726,-78.6972"/>
</g>
<!-- Node7 -->
<g id="node7" class="node"><title>Node7</title>
<polygon fill="none" stroke="#bfbfbf" points="517.5,-56.5 517.5,-75.5 590.5,-75.5 590.5,-56.5 517.5,-56.5"/>
<text text-anchor="middle" x="554" y="-63.5" font-family="Helvetica,sans-Serif" font-size="10.00">TGeoBBox.h</text>
</g>
<!-- Node1&#45;&gt;Node7 -->
<g id="edge6" class="edge"><title>Node1&#45;&gt;Node7</title>
<path fill="none" stroke="midnightblue" d="M554,-112.768C554,-103.89 554,-94.0737 554,-85.8165"/>
<polygon fill="midnightblue" stroke="midnightblue" points="557.5,-85.7571 554,-75.7572 550.5,-85.7572 557.5,-85.7571"/>
</g>
<!-- Node8 -->
<g id="node8" class="node"><title>Node8</title>
<polygon fill="none" stroke="#bfbfbf" points="802,-0.5 802,-19.5 884,-19.5 884,-0.5 802,-0.5"/>
<text text-anchor="middle" x="843" y="-7.5" font-family="Helvetica,sans-Serif" font-size="10.00">TGeoVolume.h</text>
</g>
<!-- Node1&#45;&gt;Node8 -->
<g id="edge7" class="edge"><title>Node1&#45;&gt;Node8</title>
<path fill="none" stroke="midnightblue" d="M627.272,-129.401C696.87,-119.807 794.931,-102.118 823,-76 835.686,-64.1958 840.4,-44.5624 842.113,-29.9565"/>
<polygon fill="midnightblue" stroke="midnightblue" points="845.635,-29.8122 842.938,-19.5665 838.657,-29.2579 845.635,-29.8122"/>
</g>
<!-- Node9 -->
<g id="node9" class="node"><title>Node9</title>
<polygon fill="none" stroke="#bfbfbf" points="743.5,-56.5 743.5,-75.5 814.5,-75.5 814.5,-56.5 743.5,-56.5"/>
<text text-anchor="middle" x="779" y="-63.5" font-family="Helvetica,sans-Serif" font-size="10.00">FairLogger.h</text>
</g>
<!-- Node1&#45;&gt;Node9 -->
<g id="edge8" class="edge"><title>Node1&#45;&gt;Node9</title>
<path fill="none" stroke="midnightblue" d="M627.051,-114.948C665.608,-102.781 711.243,-88.381 742.369,-78.5591"/>
<polygon fill="midnightblue" stroke="midnightblue" points="743.454,-81.8868 751.938,-75.5397 741.348,-75.2113 743.454,-81.8868"/>
</g>
<!-- Node10 -->
<g id="node10" class="node"><title>Node10</title>
<g id="a_node10"><a xlink:href="../../d9/d03/ITSMFT_2MFT_2base_2include_2MFTBase_2Constants_8h.html" target="_top" xlink:title="MFTBase/Constants.h">
<polygon fill="none" stroke="black" points="609,-56.5 609,-75.5 725,-75.5 725,-56.5 609,-56.5"/>
<text text-anchor="middle" x="667" y="-63.5" font-family="Helvetica,sans-Serif" font-size="10.00">MFTBase/Constants.h</text>
</a>
</g>
</g>
<!-- Node1&#45;&gt;Node10 -->
<g id="edge9" class="edge"><title>Node1&#45;&gt;Node10</title>
<path fill="none" stroke="midnightblue" d="M593.84,-112.968C610.832,-102.291 630.032,-90.2274 644.499,-81.1379"/>
<polygon fill="midnightblue" stroke="midnightblue" points="646.646,-83.9227 653.251,-75.6389 642.921,-77.9955 646.646,-83.9227"/>
</g>
<!-- Node12 -->
<g id="node12" class="node"><title>Node12</title>
<g id="a_node12"><a xlink:href="../../dd/dd3/HeatExchanger_8h.html" target="_top" xlink:title="MFT heat exchanger builder. ">
<polygon fill="none" stroke="black" points="871,-56.5 871,-75.5 1009,-75.5 1009,-56.5 871,-56.5"/>
<text text-anchor="middle" x="940" y="-63.5" font-family="Helvetica,sans-Serif" font-size="10.00">MFTBase/HeatExchanger.h</text>
</a>
</g>
</g>
<!-- Node1&#45;&gt;Node12 -->
<g id="edge11" class="edge"><title>Node1&#45;&gt;Node12</title>
<path fill="none" stroke="midnightblue" d="M627.057,-124.562C701.587,-110.853 815.652,-89.8722 883.533,-77.3865"/>
<polygon fill="midnightblue" stroke="midnightblue" points="884.408,-80.7843 893.61,-75.5329 883.142,-73.8998 884.408,-80.7843"/>
</g>
<!-- Node15 -->
<g id="node15" class="node"><title>Node15</title>
<g id="a_node15"><a xlink:href="../../d6/d2e/ITSMFT_2MFT_2base_2include_2MFTBase_2Geometry_8h.html" target="_top" xlink:title="MFTBase/Geometry.h">
<polygon fill="none" stroke="black" points="1027.5,-56.5 1027.5,-75.5 1140.5,-75.5 1140.5,-56.5 1027.5,-56.5"/>
<text text-anchor="middle" x="1084" y="-63.5" font-family="Helvetica,sans-Serif" font-size="10.00">MFTBase/Geometry.h</text>
</a>
</g>
</g>
<!-- Node1&#45;&gt;Node15 -->
<g id="edge15" class="edge"><title>Node1&#45;&gt;Node15</title>
<path fill="none" stroke="midnightblue" d="M627.14,-128.289C716.519,-116.408 872.662,-95.6067 1017.51,-76.0631"/>
<polygon fill="midnightblue" stroke="midnightblue" points="1018.03,-79.5242 1027.48,-74.718 1017.1,-72.5871 1018.03,-79.5242"/>
</g>
<!-- Node11 -->
<g id="node11" class="node"><title>Node11</title>
<polygon fill="none" stroke="#bfbfbf" points="637.5,-0.5 637.5,-19.5 696.5,-19.5 696.5,-0.5 637.5,-0.5"/>
<text text-anchor="middle" x="667" y="-7.5" font-family="Helvetica,sans-Serif" font-size="10.00">TObject.h</text>
</g>
<!-- Node10&#45;&gt;Node11 -->
<g id="edge10" class="edge"><title>Node10&#45;&gt;Node11</title>
<path fill="none" stroke="midnightblue" d="M667,-56.083C667,-49.0059 667,-38.8611 667,-29.9865"/>
<polygon fill="midnightblue" stroke="midnightblue" points="670.5,-29.751 667,-19.7511 663.5,-29.7511 670.5,-29.751"/>
</g>
<!-- Node12&#45;&gt;Node8 -->
<g id="edge13" class="edge"><title>Node12&#45;&gt;Node8</title>
<path fill="none" stroke="midnightblue" d="M924.415,-56.324C909.001,-47.7428 885.188,-34.486 867.29,-24.5224"/>
<polygon fill="midnightblue" stroke="midnightblue" points="868.986,-21.4606 858.546,-19.6545 865.581,-27.5767 868.986,-21.4606"/>
</g>
<!-- Node13 -->
<g id="node13" class="node"><title>Node13</title>
<polygon fill="none" stroke="#bfbfbf" points="1024,-0.5 1024,-19.5 1086,-19.5 1086,-0.5 1024,-0.5"/>
<text text-anchor="middle" x="1055" y="-7.5" font-family="Helvetica,sans-Serif" font-size="10.00">TNamed.h</text>
</g>
<!-- Node12&#45;&gt;Node13 -->
<g id="edge12" class="edge"><title>Node12&#45;&gt;Node13</title>
<path fill="none" stroke="midnightblue" d="M958.222,-56.4435C976.896,-47.6751 1006.16,-33.9355 1027.62,-23.8579"/>
<polygon fill="midnightblue" stroke="midnightblue" points="1029.3,-26.935 1036.86,-19.5164 1026.32,-20.5988 1029.3,-26.935"/>
</g>
<!-- Node14 -->
<g id="node14" class="node"><title>Node14</title>
<polygon fill="none" stroke="#bfbfbf" points="902,-0.5 902,-19.5 978,-19.5 978,-0.5 902,-0.5"/>
<text text-anchor="middle" x="940" y="-7.5" font-family="Helvetica,sans-Serif" font-size="10.00">TGeoMatrix.h</text>
</g>
<!-- Node12&#45;&gt;Node14 -->
<g id="edge14" class="edge"><title>Node12&#45;&gt;Node14</title>
<path fill="none" stroke="midnightblue" d="M940,-56.083C940,-49.0059 940,-38.8611 940,-29.9865"/>
<polygon fill="midnightblue" stroke="midnightblue" points="943.5,-29.751 940,-19.7511 936.5,-29.7511 943.5,-29.751"/>
</g>
<!-- Node15&#45;&gt;Node13 -->
<g id="edge16" class="edge"><title>Node15&#45;&gt;Node13</title>
<path fill="none" stroke="midnightblue" d="M1079.21,-56.083C1075.24,-48.6913 1069.47,-37.9533 1064.57,-28.8111"/>
<polygon fill="midnightblue" stroke="midnightblue" points="1067.51,-26.9051 1059.7,-19.7511 1061.35,-30.217 1067.51,-26.9051"/>
</g>
</g>
</svg>
