<?xml version="1.0" encoding="UTF-8" standalone="no"?>
<!DOCTYPE svg PUBLIC "-//W3C//DTD SVG 1.1//EN"
 "http://www.w3.org/Graphics/SVG/1.1/DTD/svg11.dtd">
<!-- Generated by graphviz version 2.36.0 (20140111.2315)
 -->
<!-- Title: /home/travis/build/AliceO2Group/AliceO2/Framework/Core/include/Framework/DataProcessingHeader.h Pages: 1 -->
<svg width="408pt" height="174pt"
 viewBox="0.00 0.00 408.00 174.00" xmlns="http://www.w3.org/2000/svg" xmlns:xlink="http://www.w3.org/1999/xlink">
<g id="graph0" class="graph" transform="scale(1 1) rotate(0) translate(4 170)">
<title>/home/travis/build/AliceO2Group/AliceO2/Framework/Core/include/Framework/DataProcessingHeader.h</title>
<!-- Node1 -->
<g id="node1" class="node"><title>Node1</title>
<polygon fill="#bfbfbf" stroke="black" points="121.5,-113 121.5,-165 302.5,-165 302.5,-113 121.5,-113"/>
<text text-anchor="start" x="129.5" y="-153" font-family="Helvetica,sans-Serif" font-size="10.00">/home/travis/build</text>
<text text-anchor="start" x="129.5" y="-142" font-family="Helvetica,sans-Serif" font-size="10.00">/AliceO2Group/AliceO2</text>
<text text-anchor="start" x="129.5" y="-131" font-family="Helvetica,sans-Serif" font-size="10.00">/Framework/Core/include</text>
<text text-anchor="middle" x="212" y="-120" font-family="Helvetica,sans-Serif" font-size="10.00">/Framework/DataProcessingHeader.h</text>
</g>
<!-- Node2 -->
<g id="node2" class="node"><title>Node2</title>
<g id="a_node2"><a xlink:href="../../dc/dcd/DataHeader_8h.html" target="_top" xlink:title="Headers/DataHeader.h">
<polygon fill="none" stroke="black" points="110.5,-56.5 110.5,-75.5 227.5,-75.5 227.5,-56.5 110.5,-56.5"/>
<text text-anchor="middle" x="169" y="-63.5" font-family="Helvetica,sans-Serif" font-size="10.00">Headers/DataHeader.h</text>
</a>
</g>
</g>
<!-- Node1&#45;&gt;Node2 -->
<g id="edge1" class="edge"><title>Node1&#45;&gt;Node2</title>
<path fill="none" stroke="midnightblue" d="M196.719,-112.768C191.036,-103.385 184.719,-92.9553 179.553,-84.4245"/>
<polygon fill="midnightblue" stroke="midnightblue" points="182.478,-82.4976 174.304,-75.7572 176.49,-86.1239 182.478,-82.4976"/>
</g>
<!-- Node3 -->
<g id="node3" class="node"><title>Node3</title>
<polygon fill="none" stroke="#bfbfbf" points="0,-0.5 0,-19.5 46,-19.5 46,-0.5 0,-0.5"/>
<text text-anchor="middle" x="23" y="-7.5" font-family="Helvetica,sans-Serif" font-size="10.00">cstdint</text>
</g>
<!-- Node1&#45;&gt;Node3 -->
<g id="edge7" class="edge"><title>Node1&#45;&gt;Node3</title>
<path fill="none" stroke="midnightblue" d="M153.224,-112.971C132.14,-102.825 108.722,-90.1491 89,-76 69.3053,-61.8704 49.9239,-41.8479 37.3136,-27.769"/>
<polygon fill="midnightblue" stroke="midnightblue" points="39.6186,-25.0889 30.3945,-19.8767 34.355,-29.7035 39.6186,-25.0889"/>
</g>
<!-- Node4 -->
<g id="node4" class="node"><title>Node4</title>
<polygon fill="none" stroke="#bfbfbf" points="64,-0.5 64,-19.5 116,-19.5 116,-0.5 64,-0.5"/>
<text text-anchor="middle" x="90" y="-7.5" font-family="Helvetica,sans-Serif" font-size="10.00">memory</text>
</g>
<!-- Node1&#45;&gt;Node4 -->
<g id="edge10" class="edge"><title>Node1&#45;&gt;Node4</title>
<path fill="none" stroke="midnightblue" d="M144.933,-112.969C128.251,-103.737 112.009,-91.6002 101,-76 91.6171,-62.7037 89.2637,-44.1255 89.0257,-30.2346"/>
<polygon fill="midnightblue" stroke="midnightblue" points="92.5314,-29.95 89.2154,-19.8875 85.5326,-29.8216 92.5314,-29.95"/>
</g>
<!-- Node5 -->
<g id="node5" class="node"><title>Node5</title>
<polygon fill="none" stroke="#bfbfbf" points="272.5,-0.5 272.5,-19.5 321.5,-19.5 321.5,-0.5 272.5,-0.5"/>
<text text-anchor="middle" x="297" y="-7.5" font-family="Helvetica,sans-Serif" font-size="10.00">cassert</text>
</g>
<!-- Node1&#45;&gt;Node5 -->
<g id="edge11" class="edge"><title>Node1&#45;&gt;Node5</title>
<path fill="none" stroke="midnightblue" d="M228.793,-112.909C245.567,-87.8468 270.898,-49.9988 285.507,-28.1719"/>
<polygon fill="midnightblue" stroke="midnightblue" points="288.572,-29.885 291.225,-19.6278 282.755,-25.9915 288.572,-29.885"/>
</g>
<!-- Node8 -->
<g id="node8" class="node"><title>Node8</title>
<polygon fill="none" stroke="#bfbfbf" points="284.5,-56.5 284.5,-75.5 327.5,-75.5 327.5,-56.5 284.5,-56.5"/>
<text text-anchor="middle" x="306" y="-63.5" font-family="Helvetica,sans-Serif" font-size="10.00">cstdio</text>
</g>
<!-- Node1&#45;&gt;Node8 -->
<g id="edge8" class="edge"><title>Node1&#45;&gt;Node8</title>
<path fill="none" stroke="midnightblue" d="M245.141,-112.968C258.788,-102.66 274.147,-91.0589 286.022,-82.09"/>
<polygon fill="midnightblue" stroke="midnightblue" points="288.467,-84.6296 294.337,-75.8095 284.248,-79.0439 288.467,-84.6296"/>
</g>
<!-- Node9 -->
<g id="node9" class="node"><title>Node9</title>
<polygon fill="none" stroke="#bfbfbf" points="346,-56.5 346,-75.5 400,-75.5 400,-56.5 346,-56.5"/>
<text text-anchor="middle" x="373" y="-63.5" font-family="Helvetica,sans-Serif" font-size="10.00">iostream</text>
</g>
<!-- Node1&#45;&gt;Node9 -->
<g id="edge9" class="edge"><title>Node1&#45;&gt;Node9</title>
<path fill="none" stroke="midnightblue" d="M268.763,-112.968C294.241,-101.732 323.204,-88.9597 344.123,-79.7347"/>
<polygon fill="midnightblue" stroke="midnightblue" points="345.673,-82.8764 353.41,-75.6389 342.848,-76.4715 345.673,-82.8764"/>
</g>
<!-- Node2&#45;&gt;Node3 -->
<g id="edge2" class="edge"><title>Node2&#45;&gt;Node3</title>
<path fill="none" stroke="midnightblue" d="M145.866,-56.4435C121.518,-47.4381 82.9929,-33.1891 55.577,-23.049"/>
<polygon fill="midnightblue" stroke="midnightblue" points="56.6191,-19.7028 46.0259,-19.5164 54.1908,-26.2681 56.6191,-19.7028"/>
</g>
<!-- Node2&#45;&gt;Node4 -->
<g id="edge3" class="edge"><title>Node2&#45;&gt;Node4</title>
<path fill="none" stroke="midnightblue" d="M156.307,-56.324C144.099,-47.979 125.422,-35.2122 110.997,-25.3524"/>
<polygon fill="midnightblue" stroke="midnightblue" points="112.892,-22.4082 102.661,-19.6545 108.942,-28.1871 112.892,-22.4082"/>
</g>
<!-- Node2&#45;&gt;Node5 -->
<g id="edge4" class="edge"><title>Node2&#45;&gt;Node5</title>
<path fill="none" stroke="midnightblue" d="M189.282,-56.4435C210.347,-47.5566 243.517,-33.5632 267.486,-23.4514"/>
<polygon fill="midnightblue" stroke="midnightblue" points="268.96,-26.6283 276.813,-19.5164 266.239,-20.1787 268.96,-26.6283"/>
</g>
<!-- Node6 -->
<g id="node6" class="node"><title>Node6</title>
<polygon fill="none" stroke="#bfbfbf" points="208,-0.5 208,-19.5 254,-19.5 254,-0.5 208,-0.5"/>
<text text-anchor="middle" x="231" y="-7.5" font-family="Helvetica,sans-Serif" font-size="10.00">cstring</text>
</g>
<!-- Node2&#45;&gt;Node6 -->
<g id="edge5" class="edge"><title>Node2&#45;&gt;Node6</title>
<path fill="none" stroke="midnightblue" d="M178.961,-56.324C188.127,-48.3414 201.937,-36.3128 213.028,-26.6529"/>
<polygon fill="midnightblue" stroke="midnightblue" points="215.615,-29.041 220.857,-19.8339 211.018,-23.7624 215.615,-29.041"/>
</g>
<!-- Node7 -->
<g id="node7" class="node"><title>Node7</title>
<polygon fill="none" stroke="#bfbfbf" points="134,-0.5 134,-19.5 190,-19.5 190,-0.5 134,-0.5"/>
<text text-anchor="middle" x="162" y="-7.5" font-family="Helvetica,sans-Serif" font-size="10.00">algorithm</text>
</g>
<!-- Node2&#45;&gt;Node7 -->
<g id="edge6" class="edge"><title>Node2&#45;&gt;Node7</title>
<path fill="none" stroke="midnightblue" d="M167.844,-56.083C166.916,-48.9272 165.582,-38.6353 164.423,-29.6911"/>
<polygon fill="midnightblue" stroke="midnightblue" points="167.891,-29.2181 163.134,-19.7511 160.949,-30.1181 167.891,-29.2181"/>
</g>
</g>
</svg>
