<?xml version="1.0" encoding="UTF-8" standalone="no"?>
<!DOCTYPE svg PUBLIC "-//W3C//DTD SVG 1.1//EN"
 "http://www.w3.org/Graphics/SVG/1.1/DTD/svg11.dtd">
<!-- Generated by graphviz version 2.36.0 (20140111.2315)
 -->
<!-- Title: o2::TPC::RawReader::Header Pages: 1 -->
<svg width="327pt" height="250pt"
 viewBox="0.00 0.00 327.00 250.00" xmlns="http://www.w3.org/2000/svg" xmlns:xlink="http://www.w3.org/1999/xlink">
<g id="graph0" class="graph" transform="scale(1 1) rotate(0) translate(4 246)">
<title>o2::TPC::RawReader::Header</title>
<!-- Node1 -->
<g id="node1" class="node"><title>Node1</title>
<polygon fill="#bfbfbf" stroke="black" points="101.5,-1 101.5,-113 212.5,-113 212.5,-1 101.5,-1"/>
<text text-anchor="start" x="109.5" y="-101" font-family="Helvetica,sans-Serif" font-size="10.00">o2::TPC::RawReader</text>
<text text-anchor="middle" x="157" y="-90" font-family="Helvetica,sans-Serif" font-size="10.00">::Header</text>
<polyline fill="none" stroke="black" points="101.5,-83 212.5,-83 "/>
<text text-anchor="middle" x="157" y="-71" font-family="Helvetica,sans-Serif" font-size="10.00"> </text>
<polyline fill="none" stroke="black" points="101.5,-64 212.5,-64 "/>
<text text-anchor="start" x="109.5" y="-52" font-family="Helvetica,sans-Serif" font-size="10.00">+ timeStamp()</text>
<text text-anchor="start" x="109.5" y="-41" font-family="Helvetica,sans-Serif" font-size="10.00">+ eventCount()</text>
<text text-anchor="start" x="109.5" y="-30" font-family="Helvetica,sans-Serif" font-size="10.00">+ reserved_2()</text>
<text text-anchor="start" x="109.5" y="-19" font-family="Helvetica,sans-Serif" font-size="10.00">+ Header()</text>
<text text-anchor="start" x="109.5" y="-8" font-family="Helvetica,sans-Serif" font-size="10.00">+ Header()</text>
</g>
<!-- Node2 -->
<g id="node2" class="node"><title>Node2</title>
<polygon fill="none" stroke="#bfbfbf" points="-0.5,-184.5 -0.5,-241.5 50.5,-241.5 50.5,-184.5 -0.5,-184.5"/>
<text text-anchor="middle" x="25" y="-229.5" font-family="Helvetica,sans-Serif" font-size="10.00">uint64_t</text>
<polyline fill="none" stroke="#bfbfbf" points="-0.5,-222.5 50.5,-222.5 "/>
<text text-anchor="middle" x="25" y="-210.5" font-family="Helvetica,sans-Serif" font-size="10.00"> </text>
<polyline fill="none" stroke="#bfbfbf" points="-0.5,-203.5 50.5,-203.5 "/>
<text text-anchor="middle" x="25" y="-191.5" font-family="Helvetica,sans-Serif" font-size="10.00"> </text>
</g>
<!-- Node2&#45;&gt;Node1 -->
<g id="edge1" class="edge"><title>Node2&#45;&gt;Node1</title>
<path fill="none" stroke="#404040" d="M25.643,-184.355C27.2289,-167.897 31.4328,-147.308 42,-132 54.3471,-114.114 72.5689,-99.5574 90.8851,-88.236"/>
<polygon fill="none" stroke="#404040" points="90.9812,-88.1797 94.1348,-81.6947 101.334,-82.1115 98.1803,-88.5965 90.9812,-88.1797"/>
<text text-anchor="middle" x="78.5" y="-157.5" font-family="Helvetica,sans-Serif" font-size="10.00"> +eventCount_w</text>
<text text-anchor="middle" x="78.5" y="-146.5" font-family="Helvetica,sans-Serif" font-size="10.00">+timeStamp_w</text>
<text text-anchor="middle" x="78.5" y="-135.5" font-family="Helvetica,sans-Serif" font-size="10.00">+reserved_2_w</text>
</g>
<!-- Node3 -->
<g id="node3" class="node"><title>Node3</title>
<polygon fill="none" stroke="#bfbfbf" points="95.5,-184.5 95.5,-241.5 146.5,-241.5 146.5,-184.5 95.5,-184.5"/>
<text text-anchor="middle" x="121" y="-229.5" font-family="Helvetica,sans-Serif" font-size="10.00">uint16_t</text>
<polyline fill="none" stroke="#bfbfbf" points="95.5,-222.5 146.5,-222.5 "/>
<text text-anchor="middle" x="121" y="-210.5" font-family="Helvetica,sans-Serif" font-size="10.00"> </text>
<polyline fill="none" stroke="#bfbfbf" points="95.5,-203.5 146.5,-203.5 "/>
<text text-anchor="middle" x="121" y="-191.5" font-family="Helvetica,sans-Serif" font-size="10.00"> </text>
</g>
<!-- Node3&#45;&gt;Node1 -->
<g id="edge2" class="edge"><title>Node3&#45;&gt;Node1</title>
<path fill="none" stroke="#404040" d="M118.463,-184.254C117.755,-168.698 118.059,-149.052 122,-132 122.563,-129.566 123.213,-127.117 123.936,-124.668"/>
<polygon fill="none" stroke="#404040" points="123.955,-124.613 122.088,-117.648 127.799,-113.245 129.666,-120.211 123.955,-124.613"/>
<text text-anchor="middle" x="147" y="-146.5" font-family="Helvetica,sans-Serif" font-size="10.00"> +dataType</text>
</g>
<!-- Node4 -->
<g id="node4" class="node"><title>Node4</title>
<polygon fill="none" stroke="#bfbfbf" points="168.5,-184.5 168.5,-241.5 219.5,-241.5 219.5,-184.5 168.5,-184.5"/>
<text text-anchor="middle" x="194" y="-229.5" font-family="Helvetica,sans-Serif" font-size="10.00">uint32_t</text>
<polyline fill="none" stroke="#bfbfbf" points="168.5,-222.5 219.5,-222.5 "/>
<text text-anchor="middle" x="194" y="-210.5" font-family="Helvetica,sans-Serif" font-size="10.00"> </text>
<polyline fill="none" stroke="#bfbfbf" points="168.5,-203.5 219.5,-203.5 "/>
<text text-anchor="middle" x="194" y="-191.5" font-family="Helvetica,sans-Serif" font-size="10.00"> </text>
</g>
<!-- Node4&#45;&gt;Node1 -->
<g id="edge3" class="edge"><title>Node4&#45;&gt;Node1</title>
<path fill="none" stroke="#404040" d="M187.385,-184.468C183.387,-167.829 178.106,-145.846 173.069,-124.881"/>
<polygon fill="none" stroke="#404040" points="173.028,-124.71 167.737,-119.81 170.224,-113.042 175.515,-117.942 173.028,-124.71"/>
<text text-anchor="middle" x="204.5" y="-146.5" font-family="Helvetica,sans-Serif" font-size="10.00"> +nWords</text>
</g>
<!-- Node5 -->
<g id="node5" class="node"><title>Node5</title>
<polygon fill="none" stroke="#bfbfbf" points="238,-184.5 238,-241.5 284,-241.5 284,-184.5 238,-184.5"/>
<text text-anchor="middle" x="261" y="-229.5" font-family="Helvetica,sans-Serif" font-size="10.00">uint8_t</text>
<polyline fill="none" stroke="#bfbfbf" points="238,-222.5 284,-222.5 "/>
<text text-anchor="middle" x="261" y="-210.5" font-family="Helvetica,sans-Serif" font-size="10.00"> </text>
<polyline fill="none" stroke="#bfbfbf" points="238,-203.5 284,-203.5 "/>
<text text-anchor="middle" x="261" y="-191.5" font-family="Helvetica,sans-Serif" font-size="10.00"> </text>
</g>
<!-- Node5&#45;&gt;Node1 -->
<g id="edge4" class="edge"><title>Node5&#45;&gt;Node1</title>
<path fill="none" stroke="#404040" d="M253.387,-184.381C248.226,-168.322 240.436,-148.134 230,-132 227.11,-127.532 223.918,-123.112 220.531,-118.788"/>
<polygon fill="none" stroke="#404040" points="220.492,-118.742 213.587,-116.666 212.847,-109.493 219.752,-111.569 220.492,-118.742"/>
<text text-anchor="middle" x="283" y="-152" font-family="Helvetica,sans-Serif" font-size="10.00"> +headerVersion</text>
<text text-anchor="middle" x="283" y="-141" font-family="Helvetica,sans-Serif" font-size="10.00">+reserved_01</text>
</g>
</g>
</svg>
