<?xml version="1.0" encoding="UTF-8" standalone="no"?>
<!DOCTYPE svg PUBLIC "-//W3C//DTD SVG 1.1//EN"
 "http://www.w3.org/Graphics/SVG/1.1/DTD/svg11.dtd">
<!-- Generated by graphviz version 2.36.0 (20140111.2315)
 -->
<!-- Title: /home/travis/build/AliceO2Group/AliceO2/Common/Field/src/MagFieldParam.cxx Pages: 1 -->
<svg width="762pt" height="330pt"
 viewBox="0.00 0.00 761.50 330.00" xmlns="http://www.w3.org/2000/svg" xmlns:xlink="http://www.w3.org/1999/xlink">
<g id="graph0" class="graph" transform="scale(1 1) rotate(0) translate(4 326)">
<title>/home/travis/build/AliceO2Group/AliceO2/Common/Field/src/MagFieldParam.cxx</title>
<!-- Node1 -->
<g id="node1" class="node"><title>Node1</title>
<polygon fill="#bfbfbf" stroke="black" points="325.794,-280.5 325.794,-321.5 515.794,-321.5 515.794,-280.5 325.794,-280.5"/>
<text text-anchor="start" x="333.794" y="-309.5" font-family="Helvetica,sans-Serif" font-size="10.00">/home/travis/build</text>
<text text-anchor="start" x="333.794" y="-298.5" font-family="Helvetica,sans-Serif" font-size="10.00">/AliceO2Group/AliceO2</text>
<text text-anchor="middle" x="420.794" y="-287.5" font-family="Helvetica,sans-Serif" font-size="10.00">/Common/Field/src/MagFieldParam.cxx</text>
</g>
<!-- Node2 -->
<g id="node2" class="node"><title>Node2</title>
<g id="a_node2"><a xlink:href="../../d3/d91/MagFieldParam_8h.html" target="_top" xlink:title="Definition of the MagFieldParam: container for ALICE mag. field parameters. ">
<polygon fill="none" stroke="black" points="56.2938,-168.5 56.2938,-187.5 173.294,-187.5 173.294,-168.5 56.2938,-168.5"/>
<text text-anchor="middle" x="114.794" y="-175.5" font-family="Helvetica,sans-Serif" font-size="10.00">Field/MagFieldParam.h</text>
</a>
</g>
</g>
<!-- Node1&#45;&gt;Node2 -->
<g id="edge1" class="edge"><title>Node1&#45;&gt;Node2</title>
<path fill="none" stroke="midnightblue" d="M347.953,-280.484C314.787,-270.8 275.316,-258.148 240.794,-244 203.836,-228.854 163.105,-206.793 138.234,-192.669"/>
<polygon fill="midnightblue" stroke="midnightblue" points="139.937,-189.61 129.52,-187.675 136.456,-195.684 139.937,-189.61"/>
</g>
<!-- Node5 -->
<g id="node5" class="node"><title>Node5</title>
<g id="a_node5"><a xlink:href="../../db/d4b/MagneticField_8h.html" target="_top" xlink:title="Definition of the MagF class. ">
<polygon fill="none" stroke="black" points="249.794,-224.5 249.794,-243.5 359.794,-243.5 359.794,-224.5 249.794,-224.5"/>
<text text-anchor="middle" x="304.794" y="-231.5" font-family="Helvetica,sans-Serif" font-size="10.00">Field/MagneticField.h</text>
</a>
</g>
</g>
<!-- Node1&#45;&gt;Node5 -->
<g id="edge4" class="edge"><title>Node1&#45;&gt;Node5</title>
<path fill="none" stroke="midnightblue" d="M385.99,-280.498C367.692,-270.245 345.706,-257.925 329.23,-248.693"/>
<polygon fill="midnightblue" stroke="midnightblue" points="330.67,-245.488 320.235,-243.652 327.248,-251.594 330.67,-245.488"/>
</g>
<!-- Node19 -->
<g id="node19" class="node"><title>Node19</title>
<polygon fill="none" stroke="#bfbfbf" points="377.794,-224.5 377.794,-243.5 463.794,-243.5 463.794,-224.5 377.794,-224.5"/>
<text text-anchor="middle" x="420.794" y="-231.5" font-family="Helvetica,sans-Serif" font-size="10.00">FairParamList.h</text>
</g>
<!-- Node1&#45;&gt;Node19 -->
<g id="edge30" class="edge"><title>Node1&#45;&gt;Node19</title>
<path fill="none" stroke="midnightblue" d="M420.794,-280.498C420.794,-272.065 420.794,-262.235 420.794,-253.874"/>
<polygon fill="midnightblue" stroke="midnightblue" points="424.294,-253.652 420.794,-243.652 417.294,-253.653 424.294,-253.652"/>
</g>
<!-- Node20 -->
<g id="node20" class="node"><title>Node20</title>
<polygon fill="none" stroke="#bfbfbf" points="482.294,-224.5 482.294,-243.5 541.294,-243.5 541.294,-224.5 482.294,-224.5"/>
<text text-anchor="middle" x="511.794" y="-231.5" font-family="Helvetica,sans-Serif" font-size="10.00">FairRun.h</text>
</g>
<!-- Node1&#45;&gt;Node20 -->
<g id="edge31" class="edge"><title>Node1&#45;&gt;Node20</title>
<path fill="none" stroke="midnightblue" d="M448.097,-280.498C462.049,-270.532 478.734,-258.614 491.527,-249.476"/>
<polygon fill="midnightblue" stroke="midnightblue" points="493.577,-252.313 499.68,-243.652 489.509,-246.617 493.577,-252.313"/>
</g>
<!-- Node21 -->
<g id="node21" class="node"><title>Node21</title>
<polygon fill="none" stroke="#bfbfbf" points="559.294,-224.5 559.294,-243.5 650.294,-243.5 650.294,-224.5 559.294,-224.5"/>
<text text-anchor="middle" x="604.794" y="-231.5" font-family="Helvetica,sans-Serif" font-size="10.00">FairRuntimeDb.h</text>
</g>
<!-- Node1&#45;&gt;Node21 -->
<g id="edge32" class="edge"><title>Node1&#45;&gt;Node21</title>
<path fill="none" stroke="midnightblue" d="M476,-280.498C506.787,-269.622 544.157,-256.421 570.696,-247.045"/>
<polygon fill="midnightblue" stroke="midnightblue" points="572.037,-250.284 580.301,-243.652 569.706,-243.683 572.037,-250.284"/>
</g>
<!-- Node3 -->
<g id="node3" class="node"><title>Node3</title>
<polygon fill="none" stroke="#bfbfbf" points="13.2938,-112.5 13.2938,-131.5 118.294,-131.5 118.294,-112.5 13.2938,-112.5"/>
<text text-anchor="middle" x="65.7938" y="-119.5" font-family="Helvetica,sans-Serif" font-size="10.00">FairParGenericSet.h</text>
</g>
<!-- Node2&#45;&gt;Node3 -->
<g id="edge2" class="edge"><title>Node2&#45;&gt;Node3</title>
<path fill="none" stroke="midnightblue" d="M106.702,-168.083C99.6384,-160.298 89.2062,-148.801 80.6449,-139.367"/>
<polygon fill="midnightblue" stroke="midnightblue" points="83.0465,-136.805 73.7346,-131.751 77.8625,-141.509 83.0465,-136.805"/>
</g>
<!-- Node4 -->
<g id="node4" class="node"><title>Node4</title>
<polygon fill="none" stroke="#bfbfbf" points="169.794,-56.5 169.794,-75.5 225.794,-75.5 225.794,-56.5 169.794,-56.5"/>
<text text-anchor="middle" x="197.794" y="-63.5" font-family="Helvetica,sans-Serif" font-size="10.00">TString.h</text>
</g>
<!-- Node2&#45;&gt;Node4 -->
<g id="edge3" class="edge"><title>Node2&#45;&gt;Node4</title>
<path fill="none" stroke="midnightblue" d="M121.307,-168.368C135.065,-150.135 167.291,-107.426 185.212,-83.6752"/>
<polygon fill="midnightblue" stroke="midnightblue" points="188.082,-85.6821 191.311,-75.5914 182.494,-81.4659 188.082,-85.6821"/>
</g>
<!-- Node5&#45;&gt;Node2 -->
<g id="edge6" class="edge"><title>Node5&#45;&gt;Node2</title>
<path fill="none" stroke="midnightblue" d="M274.688,-224.444C242.168,-215.201 190.215,-200.436 154.402,-190.257"/>
<polygon fill="midnightblue" stroke="midnightblue" points="155.335,-186.884 144.759,-187.516 153.421,-193.617 155.335,-186.884"/>
</g>
<!-- Node6 -->
<g id="node6" class="node"><title>Node6</title>
<polygon fill="none" stroke="#bfbfbf" points="191.794,-168.5 191.794,-187.5 253.794,-187.5 253.794,-168.5 191.794,-168.5"/>
<text text-anchor="middle" x="222.794" y="-175.5" font-family="Helvetica,sans-Serif" font-size="10.00">FairField.h</text>
</g>
<!-- Node5&#45;&gt;Node6 -->
<g id="edge5" class="edge"><title>Node5&#45;&gt;Node6</title>
<path fill="none" stroke="midnightblue" d="M291.619,-224.324C278.947,-215.979 259.56,-203.212 244.588,-193.352"/>
<polygon fill="midnightblue" stroke="midnightblue" points="246.212,-190.231 235.936,-187.655 242.363,-196.078 246.212,-190.231"/>
</g>
<!-- Node7 -->
<g id="node7" class="node"><title>Node7</title>
<g id="a_node7"><a xlink:href="../../dd/dfb/MagneticWrapperChebyshev_8h.html" target="_top" xlink:title="Field/MagneticWrapperChebyshev.h">
<polygon fill="none" stroke="black" points="426.294,-168.5 426.294,-187.5 601.294,-187.5 601.294,-168.5 426.294,-168.5"/>
<text text-anchor="middle" x="513.794" y="-175.5" font-family="Helvetica,sans-Serif" font-size="10.00">Field/MagneticWrapperChebyshev.h</text>
</a>
</g>
</g>
<!-- Node5&#45;&gt;Node7 -->
<g id="edge7" class="edge"><title>Node5&#45;&gt;Node7</title>
<path fill="none" stroke="midnightblue" d="M337.91,-224.444C373.911,-215.142 431.564,-200.246 470.98,-190.062"/>
<polygon fill="midnightblue" stroke="midnightblue" points="472.026,-193.407 480.832,-187.516 470.274,-186.629 472.026,-193.407"/>
</g>
<!-- Node9 -->
<g id="node9" class="node"><title>Node9</title>
<polygon fill="none" stroke="#bfbfbf" points="166.794,-0.5 166.794,-19.5 228.794,-19.5 228.794,-0.5 166.794,-0.5"/>
<text text-anchor="middle" x="197.794" y="-7.5" font-family="Helvetica,sans-Serif" font-size="10.00">TNamed.h</text>
</g>
<!-- Node5&#45;&gt;Node9 -->
<g id="edge28" class="edge"><title>Node5&#45;&gt;Node9</title>
<path fill="none" stroke="midnightblue" d="M249.638,-228.098C184.297,-221.485 80.0991,-208.16 46.7938,-188 19.949,-171.75 13.8854,-161.713 3.79377,-132 -19.9076,-62.2163 92.8115,-30.0093 156.54,-17.5794"/>
<polygon fill="midnightblue" stroke="midnightblue" points="157.507,-20.9594 166.696,-15.6843 156.223,-14.0782 157.507,-20.9594"/>
</g>
<!-- Node14 -->
<g id="node14" class="node"><title>Node14</title>
<polygon fill="none" stroke="#bfbfbf" points="597.794,-0.5 597.794,-19.5 653.794,-19.5 653.794,-0.5 597.794,-0.5"/>
<text text-anchor="middle" x="625.794" y="-7.5" font-family="Helvetica,sans-Serif" font-size="10.00">Rtypes.h</text>
</g>
<!-- Node5&#45;&gt;Node14 -->
<g id="edge27" class="edge"><title>Node5&#45;&gt;Node14</title>
<path fill="none" stroke="midnightblue" d="M359.933,-225.096C362.928,-224.713 365.897,-224.345 368.794,-224 409.589,-219.138 707.866,-217.174 736.794,-188 760.628,-163.963 755.819,-142.809 741.794,-112 723.405,-71.6058 679.995,-41.0888 651.807,-24.651"/>
<polygon fill="midnightblue" stroke="midnightblue" points="653.319,-21.4855 642.889,-19.6223 649.881,-27.5829 653.319,-21.4855"/>
</g>
<!-- Node15 -->
<g id="node15" class="node"><title>Node15</title>
<g id="a_node15"><a xlink:href="../../da/df4/MagFieldFast_8h.html" target="_top" xlink:title="Definition of the fast magnetic field parametrization MagFieldFast. ">
<polygon fill="none" stroke="black" points="619.794,-168.5 619.794,-187.5 727.794,-187.5 727.794,-168.5 619.794,-168.5"/>
<text text-anchor="middle" x="673.794" y="-175.5" font-family="Helvetica,sans-Serif" font-size="10.00">Field/MagFieldFast.h</text>
</a>
</g>
</g>
<!-- Node5&#45;&gt;Node15 -->
<g id="edge23" class="edge"><title>Node5&#45;&gt;Node15</title>
<path fill="none" stroke="midnightblue" d="M360.037,-224.916C426.819,-215.143 539.006,-198.725 609.577,-188.398"/>
<polygon fill="midnightblue" stroke="midnightblue" points="610.289,-191.831 619.677,-186.92 609.276,-184.904 610.289,-191.831"/>
</g>
<!-- Node17 -->
<g id="node17" class="node"><title>Node17</title>
<polygon fill="none" stroke="#bfbfbf" points="272.294,-168.5 272.294,-187.5 337.294,-187.5 337.294,-168.5 272.294,-168.5"/>
<text text-anchor="middle" x="304.794" y="-175.5" font-family="Helvetica,sans-Serif" font-size="10.00">TSystem.h</text>
</g>
<!-- Node5&#45;&gt;Node17 -->
<g id="edge26" class="edge"><title>Node5&#45;&gt;Node17</title>
<path fill="none" stroke="midnightblue" d="M304.794,-224.083C304.794,-217.006 304.794,-206.861 304.794,-197.986"/>
<polygon fill="midnightblue" stroke="midnightblue" points="308.294,-197.751 304.794,-187.751 301.294,-197.751 308.294,-197.751"/>
</g>
<!-- Node18 -->
<g id="node18" class="node"><title>Node18</title>
<polygon fill="none" stroke="#bfbfbf" points="355.794,-168.5 355.794,-187.5 407.794,-187.5 407.794,-168.5 355.794,-168.5"/>
<text text-anchor="middle" x="381.794" y="-175.5" font-family="Helvetica,sans-Serif" font-size="10.00">memory</text>
</g>
<!-- Node5&#45;&gt;Node18 -->
<g id="edge29" class="edge"><title>Node5&#45;&gt;Node18</title>
<path fill="none" stroke="midnightblue" d="M317.165,-224.324C328.952,-216.058 346.926,-203.453 360.929,-193.632"/>
<polygon fill="midnightblue" stroke="midnightblue" points="363.275,-196.262 369.453,-187.655 359.256,-190.531 363.275,-196.262"/>
</g>
<!-- Node8 -->
<g id="node8" class="node"><title>Node8</title>
<polygon fill="none" stroke="#bfbfbf" points="496.294,-112.5 496.294,-131.5 549.294,-131.5 549.294,-112.5 496.294,-112.5"/>
<text text-anchor="middle" x="522.794" y="-119.5" font-family="Helvetica,sans-Serif" font-size="10.00">TMath.h</text>
</g>
<!-- Node7&#45;&gt;Node8 -->
<g id="edge8" class="edge"><title>Node7&#45;&gt;Node8</title>
<path fill="none" stroke="midnightblue" d="M515.28,-168.083C516.473,-160.927 518.188,-150.635 519.679,-141.691"/>
<polygon fill="midnightblue" stroke="midnightblue" points="523.144,-142.19 521.335,-131.751 516.239,-141.04 523.144,-142.19"/>
</g>
<!-- Node7&#45;&gt;Node9 -->
<g id="edge9" class="edge"><title>Node7&#45;&gt;Node9</title>
<path fill="none" stroke="midnightblue" d="M451.618,-168.473C359.722,-154.425 194.804,-123.187 160.794,-76 149.199,-59.9128 164.606,-39.8872 178.924,-26.3473"/>
<polygon fill="midnightblue" stroke="midnightblue" points="181.424,-28.8091 186.589,-19.5586 176.782,-23.569 181.424,-28.8091"/>
</g>
<!-- Node10 -->
<g id="node10" class="node"><title>Node10</title>
<polygon fill="none" stroke="#bfbfbf" points="528.294,-56.5 528.294,-75.5 597.294,-75.5 597.294,-56.5 528.294,-56.5"/>
<text text-anchor="middle" x="562.794" y="-63.5" font-family="Helvetica,sans-Serif" font-size="10.00">TObjArray.h</text>
</g>
<!-- Node7&#45;&gt;Node10 -->
<g id="edge10" class="edge"><title>Node7&#45;&gt;Node10</title>
<path fill="none" stroke="midnightblue" d="M526.285,-168.244C536.712,-160.155 550.939,-147.128 557.794,-132 564.363,-117.503 565.224,-99.3192 564.665,-85.8735"/>
<polygon fill="midnightblue" stroke="midnightblue" points="568.155,-85.6059 563.957,-75.8785 561.173,-86.101 568.155,-85.6059"/>
</g>
<!-- Node11 -->
<g id="node11" class="node"><title>Node11</title>
<g id="a_node11"><a xlink:href="../../d8/d64/Chebyshev3D_8h.html" target="_top" xlink:title="MathUtils/Chebyshev3D.h">
<polygon fill="none" stroke="black" points="345.794,-112.5 345.794,-131.5 477.794,-131.5 477.794,-112.5 345.794,-112.5"/>
<text text-anchor="middle" x="411.794" y="-119.5" font-family="Helvetica,sans-Serif" font-size="10.00">MathUtils/Chebyshev3D.h</text>
</a>
</g>
</g>
<!-- Node7&#45;&gt;Node11 -->
<g id="edge11" class="edge"><title>Node7&#45;&gt;Node11</title>
<path fill="none" stroke="midnightblue" d="M497.406,-168.324C481.122,-159.703 455.926,-146.364 437.078,-136.386"/>
<polygon fill="midnightblue" stroke="midnightblue" points="438.617,-133.24 428.141,-131.655 435.341,-139.427 438.617,-133.24"/>
</g>
<!-- Node13 -->
<g id="node13" class="node"><title>Node13</title>
<g id="a_node13"><a xlink:href="../../d4/d08/Chebyshev3DCalc_8h.html" target="_top" xlink:title="MathUtils/Chebyshev3DCalc.h">
<polygon fill="none" stroke="black" points="281.794,-56.5 281.794,-75.5 433.794,-75.5 433.794,-56.5 281.794,-56.5"/>
<text text-anchor="middle" x="357.794" y="-63.5" font-family="Helvetica,sans-Serif" font-size="10.00">MathUtils/Chebyshev3DCalc.h</text>
</a>
</g>
</g>
<!-- Node7&#45;&gt;Node13 -->
<g id="edge21" class="edge"><title>Node7&#45;&gt;Node13</title>
<path fill="none" stroke="midnightblue" d="M446.095,-168.447C402.076,-161.337 350.418,-149.521 336.794,-132 325.926,-118.023 334.876,-98.2413 344.226,-84.1791"/>
<polygon fill="midnightblue" stroke="midnightblue" points="347.201,-86.0374 350.223,-75.8826 341.528,-81.9365 347.201,-86.0374"/>
</g>
<!-- Node7&#45;&gt;Node14 -->
<g id="edge22" class="edge"><title>Node7&#45;&gt;Node14</title>
<path fill="none" stroke="midnightblue" d="M529.021,-168.357C542.317,-160.251 561.511,-147.132 574.794,-132 601.518,-101.555 615.715,-55.0731 621.899,-29.4886"/>
<polygon fill="midnightblue" stroke="midnightblue" points="625.338,-30.149 624.133,-19.6229 618.511,-28.6031 625.338,-30.149"/>
</g>
<!-- Node11&#45;&gt;Node4 -->
<g id="edge20" class="edge"><title>Node11&#45;&gt;Node4</title>
<path fill="none" stroke="midnightblue" d="M377.885,-112.444C339.206,-102.683 276.119,-86.7643 235.806,-76.5919"/>
<polygon fill="midnightblue" stroke="midnightblue" points="236.629,-73.1899 226.077,-74.1368 234.916,-79.9772 236.629,-73.1899"/>
</g>
<!-- Node11&#45;&gt;Node9 -->
<g id="edge12" class="edge"><title>Node11&#45;&gt;Node9</title>
<path fill="none" stroke="midnightblue" d="M371.397,-112.478C342.671,-105.354 303.834,-93.5092 272.794,-76 249.495,-62.8574 226.872,-41.7499 212.674,-27.1716"/>
<polygon fill="midnightblue" stroke="midnightblue" points="215.128,-24.6734 205.702,-19.8363 210.054,-29.4959 215.128,-24.6734"/>
</g>
<!-- Node11&#45;&gt;Node10 -->
<g id="edge13" class="edge"><title>Node11&#45;&gt;Node10</title>
<path fill="none" stroke="midnightblue" d="M435.72,-112.444C461.012,-103.399 501.096,-89.064 529.474,-78.9158"/>
<polygon fill="midnightblue" stroke="midnightblue" points="530.742,-82.1794 538.979,-75.5164 528.385,-75.5882 530.742,-82.1794"/>
</g>
<!-- Node12 -->
<g id="node12" class="node"><title>Node12</title>
<polygon fill="none" stroke="#bfbfbf" points="388.294,-0.5 388.294,-19.5 431.294,-19.5 431.294,-0.5 388.294,-0.5"/>
<text text-anchor="middle" x="409.794" y="-7.5" font-family="Helvetica,sans-Serif" font-size="10.00">cstdio</text>
</g>
<!-- Node11&#45;&gt;Node12 -->
<g id="edge14" class="edge"><title>Node11&#45;&gt;Node12</title>
<path fill="none" stroke="midnightblue" d="M420.602,-112.465C432.026,-100.313 449.718,-77.1498 442.794,-56 439.304,-45.3397 432.221,-35.1174 425.508,-27.1175"/>
<polygon fill="midnightblue" stroke="midnightblue" points="428.098,-24.7633 418.814,-19.66 422.889,-29.4395 428.098,-24.7633"/>
</g>
<!-- Node11&#45;&gt;Node13 -->
<g id="edge15" class="edge"><title>Node11&#45;&gt;Node13</title>
<path fill="none" stroke="midnightblue" d="M402.877,-112.083C395.013,-104.22 383.363,-92.5688 373.875,-83.0813"/>
<polygon fill="midnightblue" stroke="midnightblue" points="376.091,-80.3473 366.545,-75.7511 371.141,-85.2971 376.091,-80.3473"/>
</g>
<!-- Node11&#45;&gt;Node14 -->
<g id="edge19" class="edge"><title>Node11&#45;&gt;Node14</title>
<path fill="none" stroke="midnightblue" d="M424.615,-112.355C444.343,-99.2513 483.561,-73.986 518.794,-56 543.231,-43.5252 571.939,-31.5914 593.464,-23.1516"/>
<polygon fill="midnightblue" stroke="midnightblue" points="594.748,-26.4077 602.807,-19.5303 592.218,-19.8808 594.748,-26.4077"/>
</g>
<!-- Node13&#45;&gt;Node9 -->
<g id="edge16" class="edge"><title>Node13&#45;&gt;Node9</title>
<path fill="none" stroke="midnightblue" d="M332.441,-56.4435C305.524,-47.3591 262.797,-32.9388 232.707,-22.7831"/>
<polygon fill="midnightblue" stroke="midnightblue" points="233.622,-19.3981 223.028,-19.5164 231.383,-26.0305 233.622,-19.3981"/>
</g>
<!-- Node13&#45;&gt;Node12 -->
<g id="edge17" class="edge"><title>Node13&#45;&gt;Node12</title>
<path fill="none" stroke="midnightblue" d="M366.381,-56.083C373.953,-48.2195 385.172,-36.5688 394.308,-27.0813"/>
<polygon fill="midnightblue" stroke="midnightblue" points="396.951,-29.3821 401.367,-19.7511 391.909,-24.5266 396.951,-29.3821"/>
</g>
<!-- Node13&#45;&gt;Node14 -->
<g id="edge18" class="edge"><title>Node13&#45;&gt;Node14</title>
<path fill="none" stroke="midnightblue" d="M400.259,-56.4435C451.794,-46.0596 537.929,-28.7041 587.505,-18.7149"/>
<polygon fill="midnightblue" stroke="midnightblue" points="588.392,-22.1067 597.503,-16.7003 587.009,-15.2446 588.392,-22.1067"/>
</g>
<!-- Node15&#45;&gt;Node14 -->
<g id="edge24" class="edge"><title>Node15&#45;&gt;Node14</title>
<path fill="none" stroke="midnightblue" d="M671.484,-168.468C666.103,-148.664 652.242,-98.0556 639.794,-56 637.178,-47.1629 634.154,-37.3904 631.587,-29.2165"/>
<polygon fill="midnightblue" stroke="midnightblue" points="634.9,-28.0853 628.549,-19.6052 628.226,-30.1951 634.9,-28.0853"/>
</g>
<!-- Node16 -->
<g id="node16" class="node"><title>Node16</title>
<polygon fill="none" stroke="#bfbfbf" points="692.294,-112.5 692.294,-131.5 733.294,-131.5 733.294,-112.5 692.294,-112.5"/>
<text text-anchor="middle" x="712.794" y="-119.5" font-family="Helvetica,sans-Serif" font-size="10.00">string</text>
</g>
<!-- Node15&#45;&gt;Node16 -->
<g id="edge25" class="edge"><title>Node15&#45;&gt;Node16</title>
<path fill="none" stroke="midnightblue" d="M680.234,-168.083C685.743,-160.455 693.825,-149.264 700.559,-139.941"/>
<polygon fill="midnightblue" stroke="midnightblue" points="703.456,-141.907 706.474,-131.751 697.781,-137.809 703.456,-141.907"/>
</g>
</g>
</svg>
