<?xml version="1.0" encoding="UTF-8" standalone="no"?>
<!DOCTYPE svg PUBLIC "-//W3C//DTD SVG 1.1//EN"
 "http://www.w3.org/Graphics/SVG/1.1/DTD/svg11.dtd">
<!-- Generated by graphviz version 2.36.0 (20140111.2315)
 -->
<!-- Title: /home/travis/build/AliceO2Group/AliceO2/Detectors/TPC/base/include/TPCBase/PadRegionInfo.h Pages: 1 -->
<svg width="1360pt" height="310pt"
 viewBox="0.00 0.00 1360.00 310.00" xmlns="http://www.w3.org/2000/svg" xmlns:xlink="http://www.w3.org/1999/xlink">
<g id="graph0" class="graph" transform="scale(1 1) rotate(0) translate(4 306)">
<title>/home/travis/build/AliceO2Group/AliceO2/Detectors/TPC/base/include/TPCBase/PadRegionInfo.h</title>
<!-- Node1 -->
<g id="node1" class="node"><title>Node1</title>
<polygon fill="#bfbfbf" stroke="black" points="299.5,-249 299.5,-301 442.5,-301 442.5,-249 299.5,-249"/>
<text text-anchor="start" x="307.5" y="-289" font-family="Helvetica,sans-Serif" font-size="10.00">/home/travis/build</text>
<text text-anchor="start" x="307.5" y="-278" font-family="Helvetica,sans-Serif" font-size="10.00">/AliceO2Group/AliceO2</text>
<text text-anchor="start" x="307.5" y="-267" font-family="Helvetica,sans-Serif" font-size="10.00">/Detectors/TPC/base/include</text>
<text text-anchor="middle" x="371" y="-256" font-family="Helvetica,sans-Serif" font-size="10.00">/TPCBase/PadRegionInfo.h</text>
</g>
<!-- Node2 -->
<g id="node2" class="node"><title>Node2</title>
<polygon fill="none" stroke="#bfbfbf" points="263,-192.5 263,-211.5 307,-211.5 307,-192.5 263,-192.5"/>
<text text-anchor="middle" x="285" y="-199.5" font-family="Helvetica,sans-Serif" font-size="10.00">vector</text>
</g>
<!-- Node1&#45;&gt;Node2 -->
<g id="edge1" class="edge"><title>Node1&#45;&gt;Node2</title>
<path fill="none" stroke="midnightblue" d="M340.437,-248.768C328.095,-238.578 314.256,-227.153 303.493,-218.267"/>
<polygon fill="midnightblue" stroke="midnightblue" points="305.547,-215.425 295.607,-211.757 301.091,-220.823 305.547,-215.425"/>
</g>
<!-- Node3 -->
<g id="node3" class="node"><title>Node3</title>
<g id="a_node3"><a xlink:href="../../d1/d73/Defs_8h.html" target="_top" xlink:title="Common definitions for 2D coordinates. ">
<polygon fill="none" stroke="black" points="325,-192.5 325,-211.5 417,-211.5 417,-192.5 325,-192.5"/>
<text text-anchor="middle" x="371" y="-199.5" font-family="Helvetica,sans-Serif" font-size="10.00">TPCBase/Defs.h</text>
</a>
</g>
</g>
<!-- Node1&#45;&gt;Node3 -->
<g id="edge2" class="edge"><title>Node1&#45;&gt;Node3</title>
<path fill="none" stroke="midnightblue" d="M371,-248.768C371,-239.89 371,-230.074 371,-221.816"/>
<polygon fill="midnightblue" stroke="midnightblue" points="374.5,-221.757 371,-211.757 367.5,-221.757 374.5,-221.757"/>
</g>
<!-- Node17 -->
<g id="node17" class="node"><title>Node17</title>
<g id="a_node17"><a xlink:href="../../de/d41/PadPos_8h.html" target="_top" xlink:title="TPCBase/PadPos.h">
<polygon fill="none" stroke="black" points="435.5,-192.5 435.5,-211.5 540.5,-211.5 540.5,-192.5 435.5,-192.5"/>
<text text-anchor="middle" x="488" y="-199.5" font-family="Helvetica,sans-Serif" font-size="10.00">TPCBase/PadPos.h</text>
</a>
</g>
</g>
<!-- Node1&#45;&gt;Node17 -->
<g id="edge17" class="edge"><title>Node1&#45;&gt;Node17</title>
<path fill="none" stroke="midnightblue" d="M412.25,-248.968C430.011,-238.19 450.103,-225.997 465.129,-216.879"/>
<polygon fill="midnightblue" stroke="midnightblue" points="467.031,-219.819 473.764,-211.639 463.399,-213.835 467.031,-219.819"/>
</g>
<!-- Node4 -->
<g id="node4" class="node"><title>Node4</title>
<polygon fill="none" stroke="#bfbfbf" points="299,-136.5 299,-155.5 343,-155.5 343,-136.5 299,-136.5"/>
<text text-anchor="middle" x="321" y="-143.5" font-family="Helvetica,sans-Serif" font-size="10.00">cmath</text>
</g>
<!-- Node3&#45;&gt;Node4 -->
<g id="edge3" class="edge"><title>Node3&#45;&gt;Node4</title>
<path fill="none" stroke="midnightblue" d="M362.744,-192.083C355.535,-184.298 344.89,-172.801 336.154,-163.367"/>
<polygon fill="midnightblue" stroke="midnightblue" points="338.465,-160.711 329.103,-155.751 333.329,-165.467 338.465,-160.711"/>
</g>
<!-- Node5 -->
<g id="node5" class="node"><title>Node5</title>
<g id="a_node5"><a xlink:href="../../d2/dd0/Cartesian2D_8h.html" target="_top" xlink:title="MathUtils/Cartesian2D.h">
<polygon fill="none" stroke="black" points="103.5,-74.5 103.5,-93.5 228.5,-93.5 228.5,-74.5 103.5,-74.5"/>
<text text-anchor="middle" x="166" y="-81.5" font-family="Helvetica,sans-Serif" font-size="10.00">MathUtils/Cartesian2D.h</text>
</a>
</g>
</g>
<!-- Node3&#45;&gt;Node5 -->
<g id="edge4" class="edge"><title>Node3&#45;&gt;Node5</title>
<path fill="none" stroke="midnightblue" d="M370.843,-192.059C370.099,-178.092 366.587,-151.133 351,-136 341.056,-126.345 265.871,-107.693 214.464,-95.8199"/>
<polygon fill="midnightblue" stroke="midnightblue" points="215.055,-92.3647 204.526,-93.5403 213.49,-99.1875 215.055,-92.3647"/>
</g>
<!-- Node8 -->
<g id="node8" class="node"><title>Node8</title>
<g id="a_node8"><a xlink:href="../../dd/d76/Cartesian3D_8h.html" target="_top" xlink:title="MathUtils/Cartesian3D.h">
<polygon fill="none" stroke="black" points="668.5,-136.5 668.5,-155.5 793.5,-155.5 793.5,-136.5 668.5,-136.5"/>
<text text-anchor="middle" x="731" y="-143.5" font-family="Helvetica,sans-Serif" font-size="10.00">MathUtils/Cartesian3D.h</text>
</a>
</g>
</g>
<!-- Node3&#45;&gt;Node8 -->
<g id="edge7" class="edge"><title>Node3&#45;&gt;Node8</title>
<path fill="none" stroke="midnightblue" d="M417.205,-193.385C420.181,-192.911 423.132,-192.446 426,-192 506.66,-179.451 599.462,-165.883 661.312,-156.964"/>
<polygon fill="midnightblue" stroke="midnightblue" points="661.947,-160.409 671.346,-155.519 660.949,-153.48 661.947,-160.409"/>
</g>
<!-- Node6 -->
<g id="node6" class="node"><title>Node6</title>
<polygon fill="none" stroke="#bfbfbf" points="-0.5,-1 -0.5,-31 150.5,-31 150.5,-1 -0.5,-1"/>
<text text-anchor="start" x="7.5" y="-19" font-family="Helvetica,sans-Serif" font-size="10.00">Math/GenVector/Displacement</text>
<text text-anchor="middle" x="75" y="-8" font-family="Helvetica,sans-Serif" font-size="10.00">Vector2D.h</text>
</g>
<!-- Node5&#45;&gt;Node6 -->
<g id="edge5" class="edge"><title>Node5&#45;&gt;Node6</title>
<path fill="none" stroke="midnightblue" d="M154.103,-74.3717C141.221,-65.0286 120.22,-49.7966 103.093,-37.375"/>
<polygon fill="midnightblue" stroke="midnightblue" points="104.703,-34.2194 94.5532,-31.1815 100.593,-39.8859 104.703,-34.2194"/>
</g>
<!-- Node7 -->
<g id="node7" class="node"><title>Node7</title>
<polygon fill="none" stroke="#bfbfbf" points="169,-6.5 169,-25.5 345,-25.5 345,-6.5 169,-6.5"/>
<text text-anchor="middle" x="257" y="-13.5" font-family="Helvetica,sans-Serif" font-size="10.00">Math/GenVector/PositionVector2D.h</text>
</g>
<!-- Node5&#45;&gt;Node7 -->
<g id="edge6" class="edge"><title>Node5&#45;&gt;Node7</title>
<path fill="none" stroke="midnightblue" d="M177.897,-74.3717C192.884,-63.5015 218.862,-44.6602 236.942,-31.5474"/>
<polygon fill="midnightblue" stroke="midnightblue" points="239.06,-34.3349 245.1,-25.6305 234.95,-28.6684 239.06,-34.3349"/>
</g>
<!-- Node8&#45;&gt;Node5 -->
<g id="edge15" class="edge"><title>Node8&#45;&gt;Node5</title>
<path fill="none" stroke="midnightblue" d="M668.332,-141.655C574.261,-136.101 391.136,-123.22 237,-100 228.94,-98.7858 220.42,-97.2273 212.186,-95.5761"/>
<polygon fill="midnightblue" stroke="midnightblue" points="212.838,-92.1369 202.335,-93.5329 211.416,-98.991 212.838,-92.1369"/>
</g>
<!-- Node9 -->
<g id="node9" class="node"><title>Node9</title>
<polygon fill="none" stroke="#bfbfbf" points="246.5,-74.5 246.5,-93.5 395.5,-93.5 395.5,-74.5 246.5,-74.5"/>
<text text-anchor="middle" x="321" y="-81.5" font-family="Helvetica,sans-Serif" font-size="10.00">Math/GenVector/Rotation3D.h</text>
</g>
<!-- Node8&#45;&gt;Node9 -->
<g id="edge8" class="edge"><title>Node8&#45;&gt;Node9</title>
<path fill="none" stroke="midnightblue" d="M668.395,-137.105C602.683,-128.644 496.419,-114.466 405,-100 395.866,-98.5547 386.193,-96.9224 376.785,-95.2802"/>
<polygon fill="midnightblue" stroke="midnightblue" points="377.176,-91.7952 366.72,-93.5028 375.959,-98.6885 377.176,-91.7952"/>
</g>
<!-- Node10 -->
<g id="node10" class="node"><title>Node10</title>
<polygon fill="none" stroke="#bfbfbf" points="414,-74.5 414,-93.5 570,-93.5 570,-74.5 414,-74.5"/>
<text text-anchor="middle" x="492" y="-81.5" font-family="Helvetica,sans-Serif" font-size="10.00">Math/GenVector/Transform3D.h</text>
</g>
<!-- Node8&#45;&gt;Node10 -->
<g id="edge9" class="edge"><title>Node8&#45;&gt;Node10</title>
<path fill="none" stroke="midnightblue" d="M697.011,-136.467C654.628,-125.827 582.109,-107.622 535.654,-95.9593"/>
<polygon fill="midnightblue" stroke="midnightblue" points="536.423,-92.5437 525.872,-93.5034 534.719,-99.333 536.423,-92.5437"/>
</g>
<!-- Node11 -->
<g id="node11" class="node"><title>Node11</title>
<polygon fill="none" stroke="#bfbfbf" points="588,-74.5 588,-93.5 748,-93.5 748,-74.5 588,-74.5"/>
<text text-anchor="middle" x="668" y="-81.5" font-family="Helvetica,sans-Serif" font-size="10.00">Math/GenVector/Translation3D.h</text>
</g>
<!-- Node8&#45;&gt;Node11 -->
<g id="edge10" class="edge"><title>Node8&#45;&gt;Node11</title>
<path fill="none" stroke="midnightblue" d="M721.974,-136.403C712.243,-127.136 696.542,-112.183 684.577,-100.788"/>
<polygon fill="midnightblue" stroke="midnightblue" points="686.665,-97.9427 677.01,-93.5806 681.837,-103.012 686.665,-97.9427"/>
</g>
<!-- Node12 -->
<g id="node12" class="node"><title>Node12</title>
<polygon fill="none" stroke="#bfbfbf" points="766,-74.5 766,-93.5 822,-93.5 822,-74.5 766,-74.5"/>
<text text-anchor="middle" x="794" y="-81.5" font-family="Helvetica,sans-Serif" font-size="10.00">Rtypes.h</text>
</g>
<!-- Node8&#45;&gt;Node12 -->
<g id="edge11" class="edge"><title>Node8&#45;&gt;Node12</title>
<path fill="none" stroke="midnightblue" d="M740.026,-136.403C749.757,-127.136 765.458,-112.183 777.423,-100.788"/>
<polygon fill="midnightblue" stroke="midnightblue" points="780.163,-103.012 784.99,-93.5806 775.335,-97.9427 780.163,-103.012"/>
</g>
<!-- Node13 -->
<g id="node13" class="node"><title>Node13</title>
<polygon fill="none" stroke="#bfbfbf" points="840,-74.5 840,-93.5 916,-93.5 916,-74.5 840,-74.5"/>
<text text-anchor="middle" x="878" y="-81.5" font-family="Helvetica,sans-Serif" font-size="10.00">TGeoMatrix.h</text>
</g>
<!-- Node8&#45;&gt;Node13 -->
<g id="edge12" class="edge"><title>Node8&#45;&gt;Node13</title>
<path fill="none" stroke="midnightblue" d="M752.062,-136.403C777.059,-126.2 818.942,-109.105 847.487,-97.4544"/>
<polygon fill="midnightblue" stroke="midnightblue" points="849.042,-100.6 856.978,-93.5806 846.396,-94.1192 849.042,-100.6"/>
</g>
<!-- Node14 -->
<g id="node14" class="node"><title>Node14</title>
<polygon fill="none" stroke="#bfbfbf" points="934.5,-69 934.5,-99 1085.5,-99 1085.5,-69 934.5,-69"/>
<text text-anchor="start" x="942.5" y="-87" font-family="Helvetica,sans-Serif" font-size="10.00">Math/GenVector/Displacement</text>
<text text-anchor="middle" x="1010" y="-76" font-family="Helvetica,sans-Serif" font-size="10.00">Vector3D.h</text>
</g>
<!-- Node8&#45;&gt;Node14 -->
<g id="edge13" class="edge"><title>Node8&#45;&gt;Node14</title>
<path fill="none" stroke="midnightblue" d="M770.678,-136.467C813.219,-127.318 881.77,-112.576 934.625,-101.21"/>
<polygon fill="midnightblue" stroke="midnightblue" points="935.597,-104.581 944.637,-99.0565 934.125,-97.7373 935.597,-104.581"/>
</g>
<!-- Node15 -->
<g id="node15" class="node"><title>Node15</title>
<polygon fill="none" stroke="#bfbfbf" points="1104,-74.5 1104,-93.5 1280,-93.5 1280,-74.5 1104,-74.5"/>
<text text-anchor="middle" x="1192" y="-81.5" font-family="Helvetica,sans-Serif" font-size="10.00">Math/GenVector/PositionVector3D.h</text>
</g>
<!-- Node8&#45;&gt;Node15 -->
<g id="edge14" class="edge"><title>Node8&#45;&gt;Node15</title>
<path fill="none" stroke="midnightblue" d="M793.701,-137.778C866.117,-129.309 988.795,-114.569 1094,-100 1105.08,-98.466 1116.84,-96.7446 1128.24,-95.0296"/>
<polygon fill="midnightblue" stroke="midnightblue" points="1128.76,-98.4897 1138.12,-93.529 1127.71,-91.569 1128.76,-98.4897"/>
</g>
<!-- Node16 -->
<g id="node16" class="node"><title>Node16</title>
<polygon fill="none" stroke="#bfbfbf" points="1298,-74.5 1298,-93.5 1352,-93.5 1352,-74.5 1298,-74.5"/>
<text text-anchor="middle" x="1325" y="-81.5" font-family="Helvetica,sans-Serif" font-size="10.00">iostream</text>
</g>
<!-- Node8&#45;&gt;Node16 -->
<g id="edge16" class="edge"><title>Node8&#45;&gt;Node16</title>
<path fill="none" stroke="midnightblue" d="M793.682,-142.337C918.84,-136.626 1195.61,-121.914 1288,-100 1291.07,-99.2716 1294.22,-98.3279 1297.32,-97.2684"/>
<polygon fill="midnightblue" stroke="midnightblue" points="1298.82,-100.443 1306.92,-93.6115 1296.33,-93.9018 1298.82,-100.443"/>
</g>
</g>
</svg>
