<?xml version="1.0" encoding="UTF-8" standalone="no"?>
<!DOCTYPE svg PUBLIC "-//W3C//DTD SVG 1.1//EN"
 "http://www.w3.org/Graphics/SVG/1.1/DTD/svg11.dtd">
<!-- Generated by graphviz version 2.36.0 (20140111.2315)
 -->
<!-- Title: /home/travis/build/AliceO2Group/AliceO2/Detectors/ITSMFT/MFT/macros/CheckDigits.C Pages: 1 -->
<!--zoomable 378 -->
<svg id="main" version="1.1" xmlns="http://www.w3.org/2000/svg" xmlns:xlink="http://www.w3.org/1999/xlink" xml:space="preserve" onload="init(evt)">
<style type="text/css"><![CDATA[
.edge:hover path { stroke: red; }
.edge:hover polygon { stroke: red; fill: red; }
]]></style>
<script type="text/javascript"><![CDATA[
var edges = document.getElementsByTagName('g');
if (edges && edges.length) {
  for (var i=0;i<edges.length;i++) {
    if (edges[i].id.substr(0,4)=='edge') {
      edges[i].setAttribute('class','edge');
    }
  }
}
]]></script>
        <defs>
                <circle id="rim" cx="0" cy="0" r="7"/>
                <circle id="rim2" cx="0" cy="0" r="3.5"/>
                <g id="zoomPlus">
                        <use xlink:href="#rim" fill="#404040">
                                <set attributeName="fill" to="#808080" begin="zoomplus.mouseover" end="zoomplus.mouseout"/>
                        </use>
                        <path d="M-4,0h8M0,-4v8" fill="none" stroke="white" stroke-width="1.5" pointer-events="none"/>
                </g>
                <g id="zoomMin">
                        <use xlink:href="#rim" fill="#404040">
                                <set attributeName="fill" to="#808080" begin="zoomminus.mouseover" end="zoomminus.mouseout"/>
                        </use>
                        <path d="M-4,0h8" fill="none" stroke="white" stroke-width="1.5" pointer-events="none"/>
                </g>
                <g id="dirArrow">
                        <path fill="none" stroke="white" stroke-width="1.5" d="M0,-3.0v7 M-2.5,-0.5L0,-3.0L2.5,-0.5"/>
                </g>
               <g id="resetDef">
                       <use xlink:href="#rim2" fill="#404040">
                               <set attributeName="fill" to="#808080" begin="reset.mouseover" end="reset.mouseout"/>
                       </use>
               </g>
        </defs>

<script type="text/javascript">
var viewWidth = 1831;
var viewHeight = 378;
var sectionId = 'dynsection-0';
</script>
<script xlink:href="../../svgpan.js"/>
<svg id="graph" class="graph">
<g id="viewport">
<title>/home/travis/build/AliceO2Group/AliceO2/Detectors/ITSMFT/MFT/macros/CheckDigits.C</title>
<!-- Node1 -->
<g id="node1" class="node"><title>Node1</title>
<polygon fill="#bfbfbf" stroke="black" points="378.5,-317 378.5,-369 503.5,-369 503.5,-317 378.5,-317"/>
<text text-anchor="start" x="386.5" y="-357" font-family="Helvetica,sans-Serif" font-size="10.00">/home/travis/build</text>
<text text-anchor="start" x="386.5" y="-346" font-family="Helvetica,sans-Serif" font-size="10.00">/AliceO2Group/AliceO2</text>
<text text-anchor="start" x="386.5" y="-335" font-family="Helvetica,sans-Serif" font-size="10.00">/Detectors/ITSMFT/MFT</text>
<text text-anchor="middle" x="441" y="-324" font-family="Helvetica,sans-Serif" font-size="10.00">/macros/CheckDigits.C</text>
</g>
<!-- Node2 -->
<g id="node2" class="node"><title>Node2</title>
<polygon fill="none" stroke="#bfbfbf" points="-0.5,-260.5 -0.5,-279.5 46.5,-279.5 46.5,-260.5 -0.5,-260.5"/>
<text text-anchor="middle" x="23" y="-267.5" font-family="Helvetica,sans-Serif" font-size="10.00">TFile.h</text>
</g>
<!-- Node1&#45;&gt;Node2 -->
<g id="edge1" class="edge"><title>Node1&#45;&gt;Node2</title>
<path fill="none" stroke="midnightblue" d="M378.269,-333.991C303.841,-324.021 175.894,-305.414 56.7451,-279.957"/>
<polygon fill="midnightblue" stroke="midnightblue" points="57.2319,-276.481 46.7186,-277.794 55.7555,-283.324 57.2319,-276.481"/>
</g>
<!-- Node3 -->
<g id="node3" class="node"><title>Node3</title>
<polygon fill="none" stroke="#bfbfbf" points="65,-260.5 65,-279.5 115,-279.5 115,-260.5 65,-260.5"/>
<text text-anchor="middle" x="90" y="-267.5" font-family="Helvetica,sans-Serif" font-size="10.00">TTree.h</text>
</g>
<!-- Node1&#45;&gt;Node3 -->
<g id="edge2" class="edge"><title>Node1&#45;&gt;Node3</title>
<path fill="none" stroke="midnightblue" d="M378.489,-331.025C316.558,-319.87 218.816,-301.505 125.134,-280.147"/>
<polygon fill="midnightblue" stroke="midnightblue" points="125.735,-276.694 115.205,-277.869 124.169,-283.517 125.735,-276.694"/>
</g>
<!-- Node4 -->
<g id="node4" class="node"><title>Node4</title>
<polygon fill="none" stroke="#bfbfbf" points="133,-260.5 133,-279.5 183,-279.5 183,-260.5 133,-260.5"/>
<text text-anchor="middle" x="158" y="-267.5" font-family="Helvetica,sans-Serif" font-size="10.00">TH2F.h</text>
</g>
<!-- Node1&#45;&gt;Node4 -->
<g id="edge3" class="edge"><title>Node1&#45;&gt;Node4</title>
<path fill="none" stroke="midnightblue" d="M378.257,-326.648C330.132,-314.811 261.794,-297.868 192.955,-280.22"/>
<polygon fill="midnightblue" stroke="midnightblue" points="193.796,-276.823 183.24,-277.725 192.055,-283.603 193.796,-276.823"/>
</g>
<!-- Node5 -->
<g id="node5" class="node"><title>Node5</title>
<polygon fill="none" stroke="#bfbfbf" points="201.5,-260.5 201.5,-279.5 260.5,-279.5 260.5,-260.5 201.5,-260.5"/>
<text text-anchor="middle" x="231" y="-267.5" font-family="Helvetica,sans-Serif" font-size="10.00">TNtuple.h</text>
</g>
<!-- Node1&#45;&gt;Node5 -->
<g id="edge4" class="edge"><title>Node1&#45;&gt;Node5</title>
<path fill="none" stroke="midnightblue" d="M378.278,-320.794C341.576,-308.385 296.601,-293.18 266.078,-282.86"/>
<polygon fill="midnightblue" stroke="midnightblue" points="266.908,-279.446 256.314,-279.558 264.666,-286.077 266.908,-279.446"/>
</g>
<!-- Node6 -->
<g id="node6" class="node"><title>Node6</title>
<polygon fill="none" stroke="#bfbfbf" points="278.5,-260.5 278.5,-279.5 343.5,-279.5 343.5,-260.5 278.5,-260.5"/>
<text text-anchor="middle" x="311" y="-267.5" font-family="Helvetica,sans-Serif" font-size="10.00">TCanvas.h</text>
</g>
<!-- Node1&#45;&gt;Node6 -->
<g id="edge5" class="edge"><title>Node1&#45;&gt;Node6</title>
<path fill="none" stroke="midnightblue" d="M395.167,-316.968C375.246,-306.088 352.687,-293.767 335.941,-284.622"/>
<polygon fill="midnightblue" stroke="midnightblue" points="337.272,-281.36 326.818,-279.639 333.916,-287.504 337.272,-281.36"/>
</g>
<!-- Node7 -->
<g id="node7" class="node"><title>Node7</title>
<polygon fill="none" stroke="#bfbfbf" points="362,-260.5 362,-279.5 418,-279.5 418,-260.5 362,-260.5"/>
<text text-anchor="middle" x="390" y="-267.5" font-family="Helvetica,sans-Serif" font-size="10.00">TString.h</text>
</g>
<!-- Node1&#45;&gt;Node7 -->
<g id="edge6" class="edge"><title>Node1&#45;&gt;Node7</title>
<path fill="none" stroke="midnightblue" d="M422.876,-316.768C416.063,-307.284 408.483,-296.731 402.319,-288.15"/>
<polygon fill="midnightblue" stroke="midnightblue" points="404.967,-285.837 396.29,-279.757 399.282,-289.921 404.967,-285.837"/>
</g>
<!-- Node8 -->
<g id="node8" class="node"><title>Node8</title>
<g id="a_node8"><a xlink:href="../../d9/ded/Utils_8h.html" target="_top" xlink:title="DetectorsBase/Utils.h">
<polygon fill="none" stroke="black" points="436.5,-260.5 436.5,-279.5 549.5,-279.5 549.5,-260.5 436.5,-260.5"/>
<text text-anchor="middle" x="493" y="-267.5" font-family="Helvetica,sans-Serif" font-size="10.00">DetectorsBase/Utils.h</text>
</a>
</g>
</g>
<!-- Node1&#45;&gt;Node8 -->
<g id="edge7" class="edge"><title>Node1&#45;&gt;Node8</title>
<path fill="none" stroke="midnightblue" d="M459.48,-316.768C466.499,-307.183 474.319,-296.506 480.639,-287.877"/>
<polygon fill="midnightblue" stroke="midnightblue" points="483.501,-289.893 486.586,-279.757 477.854,-285.757 483.501,-289.893"/>
</g>
<!-- Node12 -->
<g id="node12" class="node"><title>Node12</title>
<g id="a_node12"><a xlink:href="../../d3/dba/SegmentationAlpide_8h.html" target="_top" xlink:title="Definition of the SegmentationAlpide class. ">
<polygon fill="none" stroke="black" points="414.5,-136.5 414.5,-155.5 587.5,-155.5 587.5,-136.5 414.5,-136.5"/>
<text text-anchor="middle" x="501" y="-143.5" font-family="Helvetica,sans-Serif" font-size="10.00">ITSMFTBase/SegmentationAlpide.h</text>
</a>
</g>
</g>
<!-- Node1&#45;&gt;Node12 -->
<g id="edge11" class="edge"><title>Node1&#45;&gt;Node12</title>
<path fill="none" stroke="midnightblue" d="M503.759,-323.377C524.664,-313.883 545.73,-299.982 558,-280 578.467,-246.669 576.206,-227.126 559,-192 552.477,-178.684 539.904,-168.177 528.127,-160.676"/>
<polygon fill="midnightblue" stroke="midnightblue" points="529.782,-157.589 519.389,-155.529 526.229,-163.621 529.782,-157.589"/>
</g>
<!-- Node14 -->
<g id="node14" class="node"><title>Node14</title>
<g id="a_node14"><a xlink:href="../../d0/d06/ITSMFT_2common_2base_2include_2ITSMFTBase_2Digit_8h.html" target="_top" xlink:title="ITSMFTBase/Digit.h">
<polygon fill="none" stroke="black" points="638.5,-260.5 638.5,-279.5 745.5,-279.5 745.5,-260.5 638.5,-260.5"/>
<text text-anchor="middle" x="692" y="-267.5" font-family="Helvetica,sans-Serif" font-size="10.00">ITSMFTBase/Digit.h</text>
</a>
</g>
</g>
<!-- Node1&#45;&gt;Node14 -->
<g id="edge13" class="edge"><title>Node1&#45;&gt;Node14</title>
<path fill="none" stroke="midnightblue" d="M503.69,-324.267C550.14,-311.128 612.055,-293.614 651.979,-282.321"/>
<polygon fill="midnightblue" stroke="midnightblue" points="652.963,-285.68 661.633,-279.59 651.058,-278.944 652.963,-285.68"/>
</g>
<!-- Node18 -->
<g id="node18" class="node"><title>Node18</title>
<g id="a_node18"><a xlink:href="../../d0/dae/ITSMFT_2common_2simulation_2include_2ITSMFTSimulation_2Hit_8h.html" target="_top" xlink:title="ITSMFTSimulation/Hit.h">
<polygon fill="none" stroke="black" points="907,-260.5 907,-279.5 1029,-279.5 1029,-260.5 907,-260.5"/>
<text text-anchor="middle" x="968" y="-267.5" font-family="Helvetica,sans-Serif" font-size="10.00">ITSMFTSimulation/Hit.h</text>
</a>
</g>
</g>
<!-- Node1&#45;&gt;Node18 -->
<g id="edge19" class="edge"><title>Node1&#45;&gt;Node18</title>
<path fill="none" stroke="midnightblue" d="M503.523,-333.577C602.076,-320.299 792.977,-294.58 896.713,-280.604"/>
<polygon fill="midnightblue" stroke="midnightblue" points="897.336,-284.052 906.78,-279.248 896.402,-277.115 897.336,-284.052"/>
</g>
<!-- Node32 -->
<g id="node32" class="node"><title>Node32</title>
<polygon fill="none" stroke="#bfbfbf" points="1047.5,-260.5 1047.5,-279.5 1184.5,-279.5 1184.5,-260.5 1047.5,-260.5"/>
<text text-anchor="middle" x="1116" y="-267.5" font-family="Helvetica,sans-Serif" font-size="10.00">MFTBase/GeometryTGeo.h</text>
</g>
<!-- Node1&#45;&gt;Node32 -->
<g id="edge37" class="edge"><title>Node1&#45;&gt;Node32</title>
<path fill="none" stroke="midnightblue" d="M503.77,-335.719C610.774,-324.959 835.638,-302.12 1036.93,-280.107"/>
<polygon fill="midnightblue" stroke="midnightblue" points="1037.54,-283.561 1047.1,-278.993 1036.78,-276.602 1037.54,-283.561"/>
</g>
<!-- Node33 -->
<g id="node33" class="node"><title>Node33</title>
<polygon fill="none" stroke="#bfbfbf" points="1203,-260.5 1203,-279.5 1247,-279.5 1247,-260.5 1203,-260.5"/>
<text text-anchor="middle" x="1225" y="-267.5" font-family="Helvetica,sans-Serif" font-size="10.00">vector</text>
</g>
<!-- Node1&#45;&gt;Node33 -->
<g id="edge38" class="edge"><title>Node1&#45;&gt;Node33</title>
<path fill="none" stroke="midnightblue" d="M503.92,-340.88C632.095,-337.719 932.554,-325.823 1192.73,-279.646"/>
<polygon fill="midnightblue" stroke="midnightblue" points="1193.52,-283.06 1202.75,-277.847 1192.29,-276.17 1193.52,-283.06"/>
</g>
<!-- Node9 -->
<g id="node9" class="node"><title>Node9</title>
<g id="a_node9"><a xlink:href="../../d1/daa/Base_2include_2DetectorsBase_2Constants_8h.html" target="_top" xlink:title="DetectorsBase/Constants.h">
<polygon fill="none" stroke="black" points="294,-198.5 294,-217.5 432,-217.5 432,-198.5 294,-198.5"/>
<text text-anchor="middle" x="363" y="-205.5" font-family="Helvetica,sans-Serif" font-size="10.00">DetectorsBase/Constants.h</text>
</a>
</g>
</g>
<!-- Node8&#45;&gt;Node9 -->
<g id="edge8" class="edge"><title>Node8&#45;&gt;Node9</title>
<path fill="none" stroke="midnightblue" d="M474.374,-260.403C452.557,-250.334 416.196,-233.552 390.983,-221.915"/>
<polygon fill="midnightblue" stroke="midnightblue" points="392.138,-218.593 381.591,-217.581 389.204,-224.949 392.138,-218.593"/>
</g>
<!-- Node10 -->
<g id="node10" class="node"><title>Node10</title>
<polygon fill="none" stroke="#bfbfbf" points="450,-198.5 450,-217.5 494,-217.5 494,-198.5 450,-198.5"/>
<text text-anchor="middle" x="472" y="-205.5" font-family="Helvetica,sans-Serif" font-size="10.00">cmath</text>
</g>
<!-- Node8&#45;&gt;Node10 -->
<g id="edge9" class="edge"><title>Node8&#45;&gt;Node10</title>
<path fill="none" stroke="midnightblue" d="M489.991,-260.403C486.966,-251.76 482.21,-238.17 478.347,-227.134"/>
<polygon fill="midnightblue" stroke="midnightblue" points="481.61,-225.863 475.003,-217.581 475.003,-228.175 481.61,-225.863"/>
</g>
<!-- Node11 -->
<g id="node11" class="node"><title>Node11</title>
<polygon fill="none" stroke="#bfbfbf" points="512,-198.5 512,-217.5 550,-217.5 550,-198.5 512,-198.5"/>
<text text-anchor="middle" x="531" y="-205.5" font-family="Helvetica,sans-Serif" font-size="10.00">array</text>
</g>
<!-- Node8&#45;&gt;Node11 -->
<g id="edge10" class="edge"><title>Node8&#45;&gt;Node11</title>
<path fill="none" stroke="midnightblue" d="M498.444,-260.403C504.088,-251.493 513.061,-237.325 520.159,-226.118"/>
<polygon fill="midnightblue" stroke="midnightblue" points="523.172,-227.901 525.566,-217.581 517.258,-224.156 523.172,-227.901"/>
</g>
<!-- Node13 -->
<g id="node13" class="node"><title>Node13</title>
<polygon fill="none" stroke="#bfbfbf" points="531,-74.5 531,-93.5 587,-93.5 587,-74.5 531,-74.5"/>
<text text-anchor="middle" x="559" y="-81.5" font-family="Helvetica,sans-Serif" font-size="10.00">Rtypes.h</text>
</g>
<!-- Node12&#45;&gt;Node13 -->
<g id="edge12" class="edge"><title>Node12&#45;&gt;Node13</title>
<path fill="none" stroke="midnightblue" d="M509.31,-136.403C518.268,-127.136 532.723,-112.183 543.739,-100.788"/>
<polygon fill="midnightblue" stroke="midnightblue" points="546.272,-103.203 550.705,-93.5806 541.239,-98.3379 546.272,-103.203"/>
</g>
<!-- Node14&#45;&gt;Node13 -->
<g id="edge18" class="edge"><title>Node14&#45;&gt;Node13</title>
<path fill="none" stroke="midnightblue" d="M677.238,-260.251C664.64,-252.167 646.747,-239.141 635,-224 608.776,-190.2 617.346,-173.074 596,-136 589.063,-123.952 579.895,-111.296 572.42,-101.606"/>
<polygon fill="midnightblue" stroke="midnightblue" points="575.083,-99.3308 566.144,-93.6432 569.585,-103.664 575.083,-99.3308"/>
</g>
<!-- Node15 -->
<g id="node15" class="node"><title>Node15</title>
<polygon fill="none" stroke="#bfbfbf" points="644.5,-193 644.5,-223 739.5,-223 739.5,-193 644.5,-193"/>
<text text-anchor="start" x="652.5" y="-211" font-family="Helvetica,sans-Serif" font-size="10.00">boost/serialization</text>
<text text-anchor="middle" x="692" y="-200" font-family="Helvetica,sans-Serif" font-size="10.00">/base_object.hpp</text>
</g>
<!-- Node14&#45;&gt;Node15 -->
<g id="edge14" class="edge"><title>Node14&#45;&gt;Node15</title>
<path fill="none" stroke="midnightblue" d="M692,-260.403C692,-253.341 692,-242.975 692,-233.399"/>
<polygon fill="midnightblue" stroke="midnightblue" points="695.5,-233.141 692,-223.141 688.5,-233.141 695.5,-233.141"/>
</g>
<!-- Node16 -->
<g id="node16" class="node"><title>Node16</title>
<g id="a_node16"><a xlink:href="../../d7/dcd/MCCompLabel_8h.html" target="_top" xlink:title="SimulationDataFormat\l/MCCompLabel.h">
<polygon fill="none" stroke="black" points="868,-193 868,-223 982,-223 982,-193 868,-193"/>
<text text-anchor="start" x="876" y="-211" font-family="Helvetica,sans-Serif" font-size="10.00">SimulationDataFormat</text>
<text text-anchor="middle" x="925" y="-200" font-family="Helvetica,sans-Serif" font-size="10.00">/MCCompLabel.h</text>
</a>
</g>
</g>
<!-- Node14&#45;&gt;Node16 -->
<g id="edge15" class="edge"><title>Node14&#45;&gt;Node16</title>
<path fill="none" stroke="midnightblue" d="M725.383,-260.403C760.596,-251.336 816.947,-236.825 860.811,-225.529"/>
<polygon fill="midnightblue" stroke="midnightblue" points="861.724,-228.909 870.535,-223.025 859.978,-222.13 861.724,-228.909"/>
</g>
<!-- Node17 -->
<g id="node17" class="node"><title>Node17</title>
<polygon fill="none" stroke="#bfbfbf" points="758,-198.5 758,-217.5 850,-217.5 850,-198.5 758,-198.5"/>
<text text-anchor="middle" x="804" y="-205.5" font-family="Helvetica,sans-Serif" font-size="10.00">FairTimeStamp.h</text>
</g>
<!-- Node14&#45;&gt;Node17 -->
<g id="edge17" class="edge"><title>Node14&#45;&gt;Node17</title>
<path fill="none" stroke="midnightblue" d="M708.047,-260.403C726.593,-250.468 757.34,-233.997 779.022,-222.381"/>
<polygon fill="midnightblue" stroke="midnightblue" points="780.821,-225.388 787.983,-217.581 777.515,-219.218 780.821,-225.388"/>
</g>
<!-- Node16&#45;&gt;Node13 -->
<g id="edge16" class="edge"><title>Node16&#45;&gt;Node13</title>
<path fill="none" stroke="midnightblue" d="M877.59,-192.953C813.116,-173.551 694.422,-136.762 595,-100 592.75,-99.1679 590.432,-98.2787 588.11,-97.3642"/>
<polygon fill="midnightblue" stroke="midnightblue" points="589.274,-94.0594 578.691,-93.5436 586.642,-100.546 589.274,-94.0594"/>
</g>
<!-- Node18&#45;&gt;Node13 -->
<g id="edge34" class="edge"><title>Node18&#45;&gt;Node13</title>
<path fill="none" stroke="midnightblue" d="M975.086,-260.424C986.832,-245.118 1007.49,-212.757 991,-192 878.617,-50.515 766.99,-155.384 595,-100 592.43,-99.1724 589.787,-98.2388 587.157,-97.2521"/>
<polygon fill="midnightblue" stroke="midnightblue" points="588.421,-93.9882 577.835,-93.5416 585.832,-100.492 588.421,-93.9882"/>
</g>
<!-- Node18&#45;&gt;Node16 -->
<g id="edge33" class="edge"><title>Node18&#45;&gt;Node16</title>
<path fill="none" stroke="midnightblue" d="M961.839,-260.403C956.451,-252.885 948.38,-241.624 941.165,-231.556"/>
<polygon fill="midnightblue" stroke="midnightblue" points="943.804,-229.23 935.134,-223.141 938.115,-233.308 943.804,-229.23"/>
</g>
<!-- Node19 -->
<g id="node19" class="node"><title>Node19</title>
<g id="a_node19"><a xlink:href="../../d4/d25/BaseHits_8h.html" target="_top" xlink:title="SimulationDataFormat\l/BaseHits.h">
<polygon fill="none" stroke="black" points="1041,-193 1041,-223 1155,-223 1155,-193 1041,-193"/>
<text text-anchor="start" x="1049" y="-211" font-family="Helvetica,sans-Serif" font-size="10.00">SimulationDataFormat</text>
<text text-anchor="middle" x="1098" y="-200" font-family="Helvetica,sans-Serif" font-size="10.00">/BaseHits.h</text>
</a>
</g>
</g>
<!-- Node18&#45;&gt;Node19 -->
<g id="edge20" class="edge"><title>Node18&#45;&gt;Node19</title>
<path fill="none" stroke="midnightblue" d="M986.626,-260.403C1005.22,-251.822 1034.38,-238.364 1058.2,-227.371"/>
<polygon fill="midnightblue" stroke="midnightblue" points="1059.75,-230.509 1067.36,-223.141 1056.82,-224.154 1059.75,-230.509"/>
</g>
<!-- Node30 -->
<g id="node30" class="node"><title>Node30</title>
<polygon fill="none" stroke="#bfbfbf" points="1725,-74.5 1725,-93.5 1779,-93.5 1779,-74.5 1725,-74.5"/>
<text text-anchor="middle" x="1752" y="-81.5" font-family="Helvetica,sans-Serif" font-size="10.00">iostream</text>
</g>
<!-- Node18&#45;&gt;Node30 -->
<g id="edge36" class="edge"><title>Node18&#45;&gt;Node30</title>
<path fill="none" stroke="midnightblue" d="M1029.4,-260.769C1068.96,-254.06 1120.87,-242.582 1164,-224 1187.55,-213.854 1188.23,-201.616 1212,-192 1422.67,-106.764 1496.78,-163.467 1715,-100 1717.81,-99.1834 1720.7,-98.2285 1723.56,-97.2032"/>
<polygon fill="midnightblue" stroke="midnightblue" points="1724.99,-100.404 1733.06,-93.5442 1722.47,-93.8722 1724.99,-100.404"/>
</g>
<!-- Node31 -->
<g id="node31" class="node"><title>Node31</title>
<polygon fill="none" stroke="#bfbfbf" points="1220.5,-198.5 1220.5,-217.5 1285.5,-217.5 1285.5,-198.5 1220.5,-198.5"/>
<text text-anchor="middle" x="1253" y="-205.5" font-family="Helvetica,sans-Serif" font-size="10.00">TVector3.h</text>
</g>
<!-- Node18&#45;&gt;Node31 -->
<g id="edge35" class="edge"><title>Node18&#45;&gt;Node31</title>
<path fill="none" stroke="midnightblue" d="M1023.72,-260.441C1072.23,-252.522 1144.24,-239.632 1206,-224 1210.11,-222.96 1214.39,-221.761 1218.62,-220.504"/>
<polygon fill="midnightblue" stroke="midnightblue" points="1219.77,-223.812 1228.28,-217.512 1217.7,-217.125 1219.77,-223.812"/>
</g>
<!-- Node20 -->
<g id="node20" class="node"><title>Node20</title>
<g id="a_node20"><a xlink:href="../../dd/d76/Cartesian3D_8h.html" target="_top" xlink:title="MathUtils/Cartesian3D.h">
<polygon fill="none" stroke="black" points="1038.5,-136.5 1038.5,-155.5 1163.5,-155.5 1163.5,-136.5 1038.5,-136.5"/>
<text text-anchor="middle" x="1101" y="-143.5" font-family="Helvetica,sans-Serif" font-size="10.00">MathUtils/Cartesian3D.h</text>
</a>
</g>
</g>
<!-- Node19&#45;&gt;Node20 -->
<g id="edge21" class="edge"><title>Node19&#45;&gt;Node20</title>
<path fill="none" stroke="midnightblue" d="M1098.71,-192.781C1099.12,-184.691 1099.63,-174.462 1100.06,-165.725"/>
<polygon fill="midnightblue" stroke="midnightblue" points="1103.56,-165.893 1100.56,-155.731 1096.57,-165.543 1103.56,-165.893"/>
</g>
<!-- Node20&#45;&gt;Node13 -->
<g id="edge25" class="edge"><title>Node20&#45;&gt;Node13</title>
<path fill="none" stroke="midnightblue" d="M1038.4,-137.511C1033.53,-136.981 1028.69,-136.47 1024,-136 833.62,-116.891 780.887,-145.343 595,-100 592.005,-99.2694 588.937,-98.3242 585.916,-97.2639"/>
<polygon fill="midnightblue" stroke="midnightblue" points="587.163,-93.9935 576.575,-93.606 584.61,-100.512 587.163,-93.9935"/>
</g>
<!-- Node21 -->
<g id="node21" class="node"><title>Node21</title>
<polygon fill="none" stroke="#bfbfbf" points="604.5,-74.5 604.5,-93.5 753.5,-93.5 753.5,-74.5 604.5,-74.5"/>
<text text-anchor="middle" x="679" y="-81.5" font-family="Helvetica,sans-Serif" font-size="10.00">Math/GenVector/Rotation3D.h</text>
</g>
<!-- Node20&#45;&gt;Node21 -->
<g id="edge22" class="edge"><title>Node20&#45;&gt;Node21</title>
<path fill="none" stroke="midnightblue" d="M1038.27,-137.494C970.323,-129.165 858.782,-114.92 763,-100 753.863,-98.5767 744.188,-96.9556 734.78,-95.3179"/>
<polygon fill="midnightblue" stroke="midnightblue" points="735.17,-91.8328 724.714,-93.5428 733.954,-98.7264 735.17,-91.8328"/>
</g>
<!-- Node22 -->
<g id="node22" class="node"><title>Node22</title>
<polygon fill="none" stroke="#bfbfbf" points="772,-74.5 772,-93.5 928,-93.5 928,-74.5 772,-74.5"/>
<text text-anchor="middle" x="850" y="-81.5" font-family="Helvetica,sans-Serif" font-size="10.00">Math/GenVector/Transform3D.h</text>
</g>
<!-- Node20&#45;&gt;Node22 -->
<g id="edge23" class="edge"><title>Node20&#45;&gt;Node22</title>
<path fill="none" stroke="midnightblue" d="M1065.3,-136.467C1020.7,-125.805 944.314,-107.545 895.54,-95.886"/>
<polygon fill="midnightblue" stroke="midnightblue" points="896.112,-92.4243 885.572,-93.5034 894.485,-99.2325 896.112,-92.4243"/>
</g>
<!-- Node23 -->
<g id="node23" class="node"><title>Node23</title>
<polygon fill="none" stroke="#bfbfbf" points="946,-74.5 946,-93.5 1106,-93.5 1106,-74.5 946,-74.5"/>
<text text-anchor="middle" x="1026" y="-81.5" font-family="Helvetica,sans-Serif" font-size="10.00">Math/GenVector/Translation3D.h</text>
</g>
<!-- Node20&#45;&gt;Node23 -->
<g id="edge24" class="edge"><title>Node20&#45;&gt;Node23</title>
<path fill="none" stroke="midnightblue" d="M1090.25,-136.403C1078.45,-126.958 1059.26,-111.606 1044.92,-100.134"/>
<polygon fill="midnightblue" stroke="midnightblue" points="1046.72,-97.0945 1036.73,-93.5806 1042.35,-102.561 1046.72,-97.0945"/>
</g>
<!-- Node24 -->
<g id="node24" class="node"><title>Node24</title>
<polygon fill="none" stroke="#bfbfbf" points="1124,-74.5 1124,-93.5 1200,-93.5 1200,-74.5 1124,-74.5"/>
<text text-anchor="middle" x="1162" y="-81.5" font-family="Helvetica,sans-Serif" font-size="10.00">TGeoMatrix.h</text>
</g>
<!-- Node20&#45;&gt;Node24 -->
<g id="edge26" class="edge"><title>Node20&#45;&gt;Node24</title>
<path fill="none" stroke="midnightblue" d="M1109.74,-136.403C1119.16,-127.136 1134.36,-112.183 1145.95,-100.788"/>
<polygon fill="midnightblue" stroke="midnightblue" points="1148.6,-103.088 1153.28,-93.5806 1143.69,-98.0978 1148.6,-103.088"/>
</g>
<!-- Node25 -->
<g id="node25" class="node"><title>Node25</title>
<polygon fill="none" stroke="#bfbfbf" points="1218.5,-69 1218.5,-99 1369.5,-99 1369.5,-69 1218.5,-69"/>
<text text-anchor="start" x="1226.5" y="-87" font-family="Helvetica,sans-Serif" font-size="10.00">Math/GenVector/Displacement</text>
<text text-anchor="middle" x="1294" y="-76" font-family="Helvetica,sans-Serif" font-size="10.00">Vector3D.h</text>
</g>
<!-- Node20&#45;&gt;Node25 -->
<g id="edge27" class="edge"><title>Node20&#45;&gt;Node25</title>
<path fill="none" stroke="midnightblue" d="M1128.65,-136.403C1157.33,-127.488 1202.93,-113.311 1238.99,-102.101"/>
<polygon fill="midnightblue" stroke="midnightblue" points="1240.38,-105.336 1248.89,-99.0253 1238.3,-98.6518 1240.38,-105.336"/>
</g>
<!-- Node26 -->
<g id="node26" class="node"><title>Node26</title>
<polygon fill="none" stroke="#bfbfbf" points="1388,-74.5 1388,-93.5 1564,-93.5 1564,-74.5 1388,-74.5"/>
<text text-anchor="middle" x="1476" y="-81.5" font-family="Helvetica,sans-Serif" font-size="10.00">Math/GenVector/PositionVector3D.h</text>
</g>
<!-- Node20&#45;&gt;Node26 -->
<g id="edge28" class="edge"><title>Node20&#45;&gt;Node26</title>
<path fill="none" stroke="midnightblue" d="M1154.33,-136.467C1222.5,-125.559 1340.37,-106.701 1412.93,-95.0918"/>
<polygon fill="midnightblue" stroke="midnightblue" points="1413.53,-98.5394 1422.85,-93.5034 1412.43,-91.6273 1413.53,-98.5394"/>
</g>
<!-- Node27 -->
<g id="node27" class="node"><title>Node27</title>
<g id="a_node27"><a xlink:href="../../d2/dd0/Cartesian2D_8h.html" target="_top" xlink:title="MathUtils/Cartesian2D.h">
<polygon fill="none" stroke="black" points="1581.5,-74.5 1581.5,-93.5 1706.5,-93.5 1706.5,-74.5 1581.5,-74.5"/>
<text text-anchor="middle" x="1644" y="-81.5" font-family="Helvetica,sans-Serif" font-size="10.00">MathUtils/Cartesian2D.h</text>
</a>
</g>
</g>
<!-- Node20&#45;&gt;Node27 -->
<g id="edge29" class="edge"><title>Node20&#45;&gt;Node27</title>
<path fill="none" stroke="midnightblue" d="M1163.6,-137.549C1168.47,-137.01 1173.31,-136.488 1178,-136 1352.9,-117.792 1398.09,-125.974 1572,-100 1580.17,-98.7798 1588.81,-97.2183 1597.16,-95.5661"/>
<polygon fill="midnightblue" stroke="midnightblue" points="1598.05,-98.9558 1607.15,-93.5224 1596.65,-92.0978 1598.05,-98.9558"/>
</g>
<!-- Node20&#45;&gt;Node30 -->
<g id="edge32" class="edge"><title>Node20&#45;&gt;Node30</title>
<path fill="none" stroke="midnightblue" d="M1163.59,-137.423C1168.46,-136.913 1173.31,-136.431 1178,-136 1416.2,-114.108 1481.88,-153.612 1715,-100 1718.24,-99.2543 1721.57,-98.2609 1724.84,-97.1389"/>
<polygon fill="midnightblue" stroke="midnightblue" points="1726.22,-100.356 1734.31,-93.5062 1723.72,-93.8198 1726.22,-100.356"/>
</g>
<!-- Node28 -->
<g id="node28" class="node"><title>Node28</title>
<polygon fill="none" stroke="#bfbfbf" points="1477.5,-1 1477.5,-31 1628.5,-31 1628.5,-1 1477.5,-1"/>
<text text-anchor="start" x="1485.5" y="-19" font-family="Helvetica,sans-Serif" font-size="10.00">Math/GenVector/Displacement</text>
<text text-anchor="middle" x="1553" y="-8" font-family="Helvetica,sans-Serif" font-size="10.00">Vector2D.h</text>
</g>
<!-- Node27&#45;&gt;Node28 -->
<g id="edge30" class="edge"><title>Node27&#45;&gt;Node28</title>
<path fill="none" stroke="midnightblue" d="M1632.1,-74.3717C1619.22,-65.0286 1598.22,-49.7966 1581.09,-37.375"/>
<polygon fill="midnightblue" stroke="midnightblue" points="1582.7,-34.2194 1572.55,-31.1815 1578.59,-39.8859 1582.7,-34.2194"/>
</g>
<!-- Node29 -->
<g id="node29" class="node"><title>Node29</title>
<polygon fill="none" stroke="#bfbfbf" points="1647,-6.5 1647,-25.5 1823,-25.5 1823,-6.5 1647,-6.5"/>
<text text-anchor="middle" x="1735" y="-13.5" font-family="Helvetica,sans-Serif" font-size="10.00">Math/GenVector/PositionVector2D.h</text>
</g>
<!-- Node27&#45;&gt;Node29 -->
<g id="edge31" class="edge"><title>Node27&#45;&gt;Node29</title>
<path fill="none" stroke="midnightblue" d="M1655.9,-74.3717C1670.88,-63.5015 1696.86,-44.6602 1714.94,-31.5474"/>
<polygon fill="midnightblue" stroke="midnightblue" points="1717.06,-34.3349 1723.1,-25.6305 1712.95,-28.6684 1717.06,-34.3349"/>
</g>
</g>
</svg>
        <g id="navigator" transform="translate(0 0)" fill="#404254">
                <rect fill="#f2f5e9" fill-opacity="0.5" stroke="#606060" stroke-width=".5" x="0" y="0" width="60" height="60"/>
                <use id="zoomplus" xlink:href="#zoomPlus" x="17" y="9" onmousedown="handleZoom(evt,'in')"/>
                <use id="zoomminus" xlink:href="#zoomMin" x="42" y="9" onmousedown="handleZoom(evt,'out')"/>
                <use id="reset" xlink:href="#resetDef" x="30" y="36" onmousedown="handleReset()"/>
                <g id="arrowUp" xlink:href="#dirArrow" transform="translate(30 24)" onmousedown="handlePan(0,-1)">
                  <use xlink:href="#rim" fill="#404040">
                        <set attributeName="fill" to="#808080" begin="arrowUp.mouseover" end="arrowUp.mouseout"/>
                  </use>
                  <path fill="none" stroke="white" stroke-width="1.5" d="M0,-3.0v7 M-2.5,-0.5L0,-3.0L2.5,-0.5"/>
                </g>
                <g id="arrowRight" xlink:href="#dirArrow" transform="rotate(90) translate(36 -43)" onmousedown="handlePan(1,0)">
                  <use xlink:href="#rim" fill="#404040">
                        <set attributeName="fill" to="#808080" begin="arrowRight.mouseover" end="arrowRight.mouseout"/>
                  </use>
                  <path fill="none" stroke="white" stroke-width="1.5" d="M0,-3.0v7 M-2.5,-0.5L0,-3.0L2.5,-0.5"/>
                </g>
                <g id="arrowDown" xlink:href="#dirArrow" transform="rotate(180) translate(-30 -48)" onmousedown="handlePan(0,1)">
                  <use xlink:href="#rim" fill="#404040">
                        <set attributeName="fill" to="#808080" begin="arrowDown.mouseover" end="arrowDown.mouseout"/>
                  </use>
                  <path fill="none" stroke="white" stroke-width="1.5" d="M0,-3.0v7 M-2.5,-0.5L0,-3.0L2.5,-0.5"/>
                </g>
                <g id="arrowLeft" xlink:href="#dirArrow" transform="rotate(270) translate(-36 17)" onmousedown="handlePan(-1,0)">
                  <use xlink:href="#rim" fill="#404040">
                        <set attributeName="fill" to="#808080" begin="arrowLeft.mouseover" end="arrowLeft.mouseout"/>
                  </use>
                  <path fill="none" stroke="white" stroke-width="1.5" d="M0,-3.0v7 M-2.5,-0.5L0,-3.0L2.5,-0.5"/>
                </g>
        </g>
        <svg viewBox="0 0 15 15" width="100%" height="30px" preserveAspectRatio="xMaxYMin meet">
         <g id="arrow_out" transform="scale(0.3 0.3)">
          <a xlink:href="MFT_2macros_2CheckDigits_8C__incl_org.svg" target="_base">
           <rect id="button" ry="5" rx="5" y="6" x="6" height="38" width="38"
                fill="#f2f5e9" fill-opacity="0.5" stroke="#606060" stroke-width="1.0"/>
           <path id="arrow"
             d="M 11.500037,31.436501 C 11.940474,20.09759 22.043105,11.32322 32.158766,21.979434 L 37.068811,17.246167 C 37.068811,17.246167 37.088388,32 37.088388,32 L 22.160133,31.978069 C 22.160133,31.978069 26.997745,27.140456 26.997745,27.140456 C 18.528582,18.264221 13.291696,25.230495 11.500037,31.436501 z"
             style="fill:#404040;"/>
          </a>
         </g>
        </svg>
</svg>
