<?xml version="1.0" encoding="UTF-8" standalone="no"?>
<!DOCTYPE svg PUBLIC "-//W3C//DTD SVG 1.1//EN"
 "http://www.w3.org/Graphics/SVG/1.1/DTD/svg11.dtd">
<!-- Generated by graphviz version 2.36.0 (20140111.2315)
 -->
<!-- Title: /home/travis/build/AliceO2Group/AliceO2/Framework/Core/include/Framework/InitContext.h Pages: 1 -->
<svg width="704pt" height="230pt"
 viewBox="0.00 0.00 704.00 230.00" xmlns="http://www.w3.org/2000/svg" xmlns:xlink="http://www.w3.org/1999/xlink">
<g id="graph0" class="graph" transform="scale(1 1) rotate(0) translate(4 226)">
<title>/home/travis/build/AliceO2Group/AliceO2/Framework/Core/include/Framework/InitContext.h</title>
<!-- Node1 -->
<g id="node1" class="node"><title>Node1</title>
<polygon fill="#bfbfbf" stroke="black" points="277,-169 277,-221 405,-221 405,-169 277,-169"/>
<text text-anchor="start" x="285" y="-209" font-family="Helvetica,sans-Serif" font-size="10.00">/home/travis/build</text>
<text text-anchor="start" x="285" y="-198" font-family="Helvetica,sans-Serif" font-size="10.00">/AliceO2Group/AliceO2</text>
<text text-anchor="start" x="285" y="-187" font-family="Helvetica,sans-Serif" font-size="10.00">/Framework/Core/include</text>
<text text-anchor="middle" x="341" y="-176" font-family="Helvetica,sans-Serif" font-size="10.00">/Framework/InitContext.h</text>
</g>
<!-- Node2 -->
<g id="node2" class="node"><title>Node2</title>
<g id="a_node2"><a xlink:href="../../de/dc6/ConfigParamRegistry_8h.html" target="_top" xlink:title="Framework/ConfigParamRegistry.h">
<polygon fill="none" stroke="black" points="131,-112.5 131,-131.5 301,-131.5 301,-112.5 131,-112.5"/>
<text text-anchor="middle" x="216" y="-119.5" font-family="Helvetica,sans-Serif" font-size="10.00">Framework/ConfigParamRegistry.h</text>
</a>
</g>
</g>
<!-- Node1&#45;&gt;Node2 -->
<g id="edge1" class="edge"><title>Node1&#45;&gt;Node2</title>
<path fill="none" stroke="midnightblue" d="M296.93,-168.968C277.775,-158.088 256.083,-145.767 239.982,-136.622"/>
<polygon fill="midnightblue" stroke="midnightblue" points="241.633,-133.534 231.209,-131.639 238.176,-139.621 241.633,-133.534"/>
</g>
<!-- Node7 -->
<g id="node7" class="node"><title>Node7</title>
<g id="a_node7"><a xlink:href="../../d8/d17/ServiceRegistry_8h.html" target="_top" xlink:title="Framework/ServiceRegistry.h">
<polygon fill="none" stroke="black" points="367,-112.5 367,-131.5 513,-131.5 513,-112.5 367,-112.5"/>
<text text-anchor="middle" x="440" y="-119.5" font-family="Helvetica,sans-Serif" font-size="10.00">Framework/ServiceRegistry.h</text>
</a>
</g>
</g>
<!-- Node1&#45;&gt;Node7 -->
<g id="edge7" class="edge"><title>Node1&#45;&gt;Node7</title>
<path fill="none" stroke="midnightblue" d="M375.904,-168.968C390.418,-158.559 406.77,-146.831 419.326,-137.827"/>
<polygon fill="midnightblue" stroke="midnightblue" points="421.63,-140.482 427.716,-131.81 417.55,-134.793 421.63,-140.482"/>
</g>
<!-- Node3 -->
<g id="node3" class="node"><title>Node3</title>
<g id="a_node3"><a xlink:href="../../df/d72/ParamRetriever_8h.html" target="_top" xlink:title="Framework/ParamRetriever.h">
<polygon fill="none" stroke="black" points="-0.5,-56.5 -0.5,-75.5 144.5,-75.5 144.5,-56.5 -0.5,-56.5"/>
<text text-anchor="middle" x="72" y="-63.5" font-family="Helvetica,sans-Serif" font-size="10.00">Framework/ParamRetriever.h</text>
</a>
</g>
</g>
<!-- Node2&#45;&gt;Node3 -->
<g id="edge2" class="edge"><title>Node2&#45;&gt;Node3</title>
<path fill="none" stroke="midnightblue" d="M193.183,-112.444C169.168,-103.438 131.171,-89.1891 104.131,-79.049"/>
<polygon fill="midnightblue" stroke="midnightblue" points="105.303,-75.7506 94.7105,-75.5164 102.845,-82.3049 105.303,-75.7506"/>
</g>
<!-- Node4 -->
<g id="node4" class="node"><title>Node4</title>
<polygon fill="none" stroke="#bfbfbf" points="222.5,-0.5 222.5,-19.5 263.5,-19.5 263.5,-0.5 222.5,-0.5"/>
<text text-anchor="middle" x="243" y="-7.5" font-family="Helvetica,sans-Serif" font-size="10.00">string</text>
</g>
<!-- Node2&#45;&gt;Node4 -->
<g id="edge6" class="edge"><title>Node2&#45;&gt;Node4</title>
<path fill="none" stroke="midnightblue" d="M218.119,-112.368C222.476,-94.617 232.527,-53.6664 238.435,-29.5974"/>
<polygon fill="midnightblue" stroke="midnightblue" points="241.906,-30.1375 240.891,-19.5914 235.108,-28.4688 241.906,-30.1375"/>
</g>
<!-- Node6 -->
<g id="node6" class="node"><title>Node6</title>
<polygon fill="none" stroke="#bfbfbf" points="163,-56.5 163,-75.5 215,-75.5 215,-56.5 163,-56.5"/>
<text text-anchor="middle" x="189" y="-63.5" font-family="Helvetica,sans-Serif" font-size="10.00">memory</text>
</g>
<!-- Node2&#45;&gt;Node6 -->
<g id="edge5" class="edge"><title>Node2&#45;&gt;Node6</title>
<path fill="none" stroke="midnightblue" d="M211.541,-112.083C207.846,-104.691 202.477,-93.9533 197.906,-84.8111"/>
<polygon fill="midnightblue" stroke="midnightblue" points="200.978,-83.1301 193.376,-75.7511 194.717,-86.2606 200.978,-83.1301"/>
</g>
<!-- Node3&#45;&gt;Node4 -->
<g id="edge3" class="edge"><title>Node3&#45;&gt;Node4</title>
<path fill="none" stroke="midnightblue" d="M99.0955,-56.4435C130.027,-46.6756 180.495,-30.7385 212.704,-20.5673"/>
<polygon fill="midnightblue" stroke="midnightblue" points="213.99,-23.8316 222.472,-17.4826 211.882,-17.1565 213.99,-23.8316"/>
</g>
<!-- Node5 -->
<g id="node5" class="node"><title>Node5</title>
<polygon fill="none" stroke="#bfbfbf" points="50,-0.5 50,-19.5 94,-19.5 94,-0.5 50,-0.5"/>
<text text-anchor="middle" x="72" y="-7.5" font-family="Helvetica,sans-Serif" font-size="10.00">vector</text>
</g>
<!-- Node3&#45;&gt;Node5 -->
<g id="edge4" class="edge"><title>Node3&#45;&gt;Node5</title>
<path fill="none" stroke="midnightblue" d="M72,-56.083C72,-49.0059 72,-38.8611 72,-29.9865"/>
<polygon fill="midnightblue" stroke="midnightblue" points="75.5001,-29.751 72,-19.7511 68.5001,-29.7511 75.5001,-29.751"/>
</g>
<!-- Node7&#45;&gt;Node4 -->
<g id="edge10" class="edge"><title>Node7&#45;&gt;Node4</title>
<path fill="none" stroke="midnightblue" d="M392.784,-112.496C364.238,-105.795 328.065,-94.4248 300,-76 281.062,-63.5671 264.641,-43.1993 254.352,-28.5754"/>
<polygon fill="midnightblue" stroke="midnightblue" points="257.012,-26.2603 248.512,-19.936 251.213,-30.1808 257.012,-26.2603"/>
</g>
<!-- Node8 -->
<g id="node8" class="node"><title>Node8</title>
<polygon fill="none" stroke="#bfbfbf" points="410.5,-56.5 410.5,-75.5 469.5,-75.5 469.5,-56.5 410.5,-56.5"/>
<text text-anchor="middle" x="440" y="-63.5" font-family="Helvetica,sans-Serif" font-size="10.00">exception</text>
</g>
<!-- Node7&#45;&gt;Node8 -->
<g id="edge8" class="edge"><title>Node7&#45;&gt;Node8</title>
<path fill="none" stroke="midnightblue" d="M440,-112.083C440,-105.006 440,-94.8611 440,-85.9865"/>
<polygon fill="midnightblue" stroke="midnightblue" points="443.5,-85.751 440,-75.7511 436.5,-85.7511 443.5,-85.751"/>
</g>
<!-- Node9 -->
<g id="node9" class="node"><title>Node9</title>
<polygon fill="none" stroke="#bfbfbf" points="487.5,-56.5 487.5,-75.5 546.5,-75.5 546.5,-56.5 487.5,-56.5"/>
<text text-anchor="middle" x="517" y="-63.5" font-family="Helvetica,sans-Serif" font-size="10.00">functional</text>
</g>
<!-- Node7&#45;&gt;Node9 -->
<g id="edge9" class="edge"><title>Node7&#45;&gt;Node9</title>
<path fill="none" stroke="midnightblue" d="M452.371,-112.324C464.158,-104.058 482.132,-91.4527 496.136,-81.6322"/>
<polygon fill="midnightblue" stroke="midnightblue" points="498.482,-84.2619 504.659,-75.6545 494.462,-78.5307 498.482,-84.2619"/>
</g>
<!-- Node10 -->
<g id="node10" class="node"><title>Node10</title>
<polygon fill="none" stroke="#bfbfbf" points="565,-56.5 565,-75.5 627,-75.5 627,-56.5 565,-56.5"/>
<text text-anchor="middle" x="596" y="-63.5" font-family="Helvetica,sans-Serif" font-size="10.00">type_traits</text>
</g>
<!-- Node7&#45;&gt;Node10 -->
<g id="edge11" class="edge"><title>Node7&#45;&gt;Node10</title>
<path fill="none" stroke="midnightblue" d="M464.719,-112.444C490.848,-103.399 532.259,-89.064 561.576,-78.9158"/>
<polygon fill="midnightblue" stroke="midnightblue" points="563.092,-82.0951 571.397,-75.5164 560.802,-75.4801 563.092,-82.0951"/>
</g>
<!-- Node11 -->
<g id="node11" class="node"><title>Node11</title>
<polygon fill="none" stroke="#bfbfbf" points="645.5,-56.5 645.5,-75.5 696.5,-75.5 696.5,-56.5 645.5,-56.5"/>
<text text-anchor="middle" x="671" y="-63.5" font-family="Helvetica,sans-Serif" font-size="10.00">typeinfo</text>
</g>
<!-- Node7&#45;&gt;Node11 -->
<g id="edge12" class="edge"><title>Node7&#45;&gt;Node11</title>
<path fill="none" stroke="midnightblue" d="M477.795,-112.492C517.114,-103.591 580.442,-89.1136 635,-76 635.211,-75.9492 635.423,-75.8981 635.636,-75.8469"/>
<polygon fill="midnightblue" stroke="midnightblue" points="636.565,-79.2231 645.448,-73.4489 634.903,-72.4232 636.565,-79.2231"/>
</g>
<!-- Node12 -->
<g id="node12" class="node"><title>Node12</title>
<polygon fill="none" stroke="#bfbfbf" points="309.5,-56.5 309.5,-75.5 392.5,-75.5 392.5,-56.5 309.5,-56.5"/>
<text text-anchor="middle" x="351" y="-63.5" font-family="Helvetica,sans-Serif" font-size="10.00">unordered_map</text>
</g>
<!-- Node7&#45;&gt;Node12 -->
<g id="edge13" class="edge"><title>Node7&#45;&gt;Node12</title>
<path fill="none" stroke="midnightblue" d="M425.701,-112.324C411.817,-103.9 390.508,-90.9709 374.196,-81.0741"/>
<polygon fill="midnightblue" stroke="midnightblue" points="375.629,-77.8495 365.264,-75.6545 371.998,-83.8341 375.629,-77.8495"/>
</g>
</g>
</svg>
