<?xml version="1.0" encoding="UTF-8" standalone="no"?>
<!DOCTYPE svg PUBLIC "-//W3C//DTD SVG 1.1//EN"
 "http://www.w3.org/Graphics/SVG/1.1/DTD/svg11.dtd">
<!-- Generated by graphviz version 2.36.0 (20140111.2315)
 -->
<!-- Title: /home/travis/build/AliceO2Group/AliceO2/Detectors/ITSMFT/ITS/reconstruction/include/ITSReconstruction/CATrackingStation.h Pages: 1 -->
<!--zoomable 488 -->
<svg id="main" version="1.1" xmlns="http://www.w3.org/2000/svg" xmlns:xlink="http://www.w3.org/1999/xlink" xml:space="preserve" onload="init(evt)">
<style type="text/css"><![CDATA[
.edge:hover path { stroke: red; }
.edge:hover polygon { stroke: red; fill: red; }
]]></style>
<script type="text/javascript"><![CDATA[
var edges = document.getElementsByTagName('g');
if (edges && edges.length) {
  for (var i=0;i<edges.length;i++) {
    if (edges[i].id.substr(0,4)=='edge') {
      edges[i].setAttribute('class','edge');
    }
  }
}
]]></script>
        <defs>
                <circle id="rim" cx="0" cy="0" r="7"/>
                <circle id="rim2" cx="0" cy="0" r="3.5"/>
                <g id="zoomPlus">
                        <use xlink:href="#rim" fill="#404040">
                                <set attributeName="fill" to="#808080" begin="zoomplus.mouseover" end="zoomplus.mouseout"/>
                        </use>
                        <path d="M-4,0h8M0,-4v8" fill="none" stroke="white" stroke-width="1.5" pointer-events="none"/>
                </g>
                <g id="zoomMin">
                        <use xlink:href="#rim" fill="#404040">
                                <set attributeName="fill" to="#808080" begin="zoomminus.mouseover" end="zoomminus.mouseout"/>
                        </use>
                        <path d="M-4,0h8" fill="none" stroke="white" stroke-width="1.5" pointer-events="none"/>
                </g>
                <g id="dirArrow">
                        <path fill="none" stroke="white" stroke-width="1.5" d="M0,-3.0v7 M-2.5,-0.5L0,-3.0L2.5,-0.5"/>
                </g>
               <g id="resetDef">
                       <use xlink:href="#rim2" fill="#404040">
                               <set attributeName="fill" to="#808080" begin="reset.mouseover" end="reset.mouseout"/>
                       </use>
               </g>
        </defs>

<script type="text/javascript">
var viewWidth = 1966;
var viewHeight = 488;
var sectionId = 'dynsection-0';
</script>
<script xlink:href="../../svgpan.js"/>
<svg id="graph" class="graph">
<g id="viewport">
<title>/home/travis/build/AliceO2Group/AliceO2/Detectors/ITSMFT/ITS/reconstruction/include/ITSReconstruction/CATrackingStation.h</title>
<!-- Node1 -->
<g id="node1" class="node"><title>Node1</title>
<polygon fill="#bfbfbf" stroke="black" points="-0.5,-416.5 -0.5,-479.5 194.5,-479.5 194.5,-416.5 -0.5,-416.5"/>
<text text-anchor="start" x="7.5" y="-467.5" font-family="Helvetica,sans-Serif" font-size="10.00">/home/travis/build</text>
<text text-anchor="start" x="7.5" y="-456.5" font-family="Helvetica,sans-Serif" font-size="10.00">/AliceO2Group/AliceO2</text>
<text text-anchor="start" x="7.5" y="-445.5" font-family="Helvetica,sans-Serif" font-size="10.00">/Detectors/ITSMFT/ITS</text>
<text text-anchor="start" x="7.5" y="-434.5" font-family="Helvetica,sans-Serif" font-size="10.00">/reconstruction/include</text>
<text text-anchor="middle" x="97" y="-423.5" font-family="Helvetica,sans-Serif" font-size="10.00">/ITSReconstruction/CATrackingStation.h</text>
</g>
<!-- Node2 -->
<g id="node2" class="node"><title>Node2</title>
<polygon fill="none" stroke="#bfbfbf" points="121,-248.5 121,-267.5 177,-267.5 177,-248.5 121,-248.5"/>
<text text-anchor="middle" x="149" y="-255.5" font-family="Helvetica,sans-Serif" font-size="10.00">algorithm</text>
</g>
<!-- Node1&#45;&gt;Node2 -->
<g id="edge1" class="edge"><title>Node1&#45;&gt;Node2</title>
<path fill="none" stroke="midnightblue" d="M105.47,-416.376C116.334,-377.099 134.841,-310.19 143.815,-277.746"/>
<polygon fill="midnightblue" stroke="midnightblue" points="147.271,-278.38 146.564,-267.809 140.524,-276.514 147.271,-278.38"/>
</g>
<!-- Node3 -->
<g id="node3" class="node"><title>Node3</title>
<polygon fill="none" stroke="#bfbfbf" points="59,-136.5 59,-155.5 103,-155.5 103,-136.5 59,-136.5"/>
<text text-anchor="middle" x="81" y="-143.5" font-family="Helvetica,sans-Serif" font-size="10.00">vector</text>
</g>
<!-- Node1&#45;&gt;Node3 -->
<g id="edge2" class="edge"><title>Node1&#45;&gt;Node3</title>
<path fill="none" stroke="midnightblue" d="M81.3608,-416.402C69.4196,-390.192 55,-351.073 55,-315 55,-315 55,-315 55,-257 55,-223.929 66.2677,-186.729 73.9678,-165.168"/>
<polygon fill="midnightblue" stroke="midnightblue" points="77.293,-166.268 77.4935,-155.675 70.7309,-163.831 77.293,-166.268"/>
</g>
<!-- Node4 -->
<g id="node4" class="node"><title>Node4</title>
<polygon fill="none" stroke="#bfbfbf" points="90.5,-74.5 90.5,-93.5 139.5,-93.5 139.5,-74.5 90.5,-74.5"/>
<text text-anchor="middle" x="115" y="-81.5" font-family="Helvetica,sans-Serif" font-size="10.00">cassert</text>
</g>
<!-- Node1&#45;&gt;Node4 -->
<g id="edge3" class="edge"><title>Node1&#45;&gt;Node4</title>
<path fill="none" stroke="midnightblue" d="M65.152,-416.244C42.8426,-391.299 17,-353.99 17,-315 17,-315 17,-315 17,-201 17,-155.325 61.8841,-118.344 90.901,-99.2082"/>
<polygon fill="midnightblue" stroke="midnightblue" points="93.1183,-101.946 99.6875,-93.6341 89.3684,-96.0356 93.1183,-101.946"/>
</g>
<!-- Node5 -->
<g id="node5" class="node"><title>Node5</title>
<g id="a_node5"><a xlink:href="../../d1/db5/CAaux_8h.html" target="_top" xlink:title="ITSReconstruction/CAaux.h">
<polygon fill="none" stroke="black" points="510,-360.5 510,-379.5 650,-379.5 650,-360.5 510,-360.5"/>
<text text-anchor="middle" x="580" y="-367.5" font-family="Helvetica,sans-Serif" font-size="10.00">ITSReconstruction/CAaux.h</text>
</a>
</g>
</g>
<!-- Node1&#45;&gt;Node5 -->
<g id="edge4" class="edge"><title>Node1&#45;&gt;Node5</title>
<path fill="none" stroke="midnightblue" d="M194.742,-431.62C290.533,-416.548 433.768,-394.01 515.916,-381.084"/>
<polygon fill="midnightblue" stroke="midnightblue" points="516.534,-384.53 525.868,-379.518 515.446,-377.615 516.534,-384.53"/>
</g>
<!-- Node5&#45;&gt;Node3 -->
<g id="edge5" class="edge"><title>Node5&#45;&gt;Node3</title>
<path fill="none" stroke="midnightblue" d="M509.808,-365.068C413.963,-358.985 247.58,-345.68 191,-324 150.811,-308.601 136.389,-303.46 112,-268 90.3669,-236.546 83.8271,-191.134 81.8522,-165.834"/>
<polygon fill="midnightblue" stroke="midnightblue" points="85.3391,-165.512 81.2283,-155.748 78.3524,-165.945 85.3391,-165.512"/>
</g>
<!-- Node6 -->
<g id="node6" class="node"><title>Node6</title>
<polygon fill="none" stroke="#bfbfbf" points="208,-6.5 208,-25.5 246,-25.5 246,-6.5 208,-6.5"/>
<text text-anchor="middle" x="227" y="-13.5" font-family="Helvetica,sans-Serif" font-size="10.00">array</text>
</g>
<!-- Node5&#45;&gt;Node6 -->
<g id="edge6" class="edge"><title>Node5&#45;&gt;Node6</title>
<path fill="none" stroke="midnightblue" d="M558.829,-360.492C504.668,-338.452 357.163,-276.692 241,-212 221.238,-200.994 81.7276,-119.914 71,-100 43.0281,-48.0747 145.053,-27.3292 197.596,-20.2173"/>
<polygon fill="midnightblue" stroke="midnightblue" points="198.213,-23.6672 207.693,-18.9358 197.332,-16.7229 198.213,-23.6672"/>
</g>
<!-- Node7 -->
<g id="node7" class="node"><title>Node7</title>
<polygon fill="none" stroke="#bfbfbf" points="1895,-6.5 1895,-25.5 1939,-25.5 1939,-6.5 1895,-6.5"/>
<text text-anchor="middle" x="1917" y="-13.5" font-family="Helvetica,sans-Serif" font-size="10.00">cmath</text>
</g>
<!-- Node5&#45;&gt;Node7 -->
<g id="edge7" class="edge"><title>Node5&#45;&gt;Node7</title>
<path fill="none" stroke="midnightblue" d="M650.337,-367.537C857.176,-363.002 1461.15,-348.021 1657,-324 1792.84,-307.339 1958,-395.861 1958,-259 1958,-259 1958,-259 1958,-145 1958,-103.961 1938.65,-58.8962 1926.54,-34.7072"/>
<polygon fill="midnightblue" stroke="midnightblue" points="1929.57,-32.9604 1921.86,-25.6912 1923.36,-36.1804 1929.57,-32.9604"/>
</g>
<!-- Node8 -->
<g id="node8" class="node"><title>Node8</title>
<g id="a_node8"><a xlink:href="../../d7/d65/Detectors_2Base_2include_2DetectorsBase_2Track_8h.html" target="_top" xlink:title="DetectorsBase/Track.h">
<polygon fill="none" stroke="black" points="888,-304.5 888,-323.5 1006,-323.5 1006,-304.5 888,-304.5"/>
<text text-anchor="middle" x="947" y="-311.5" font-family="Helvetica,sans-Serif" font-size="10.00">DetectorsBase/Track.h</text>
</a>
</g>
</g>
<!-- Node5&#45;&gt;Node8 -->
<g id="edge8" class="edge"><title>Node5&#45;&gt;Node8</title>
<path fill="none" stroke="midnightblue" d="M638.152,-360.444C703.651,-350.806 809.963,-335.163 879.185,-324.978"/>
<polygon fill="midnightblue" stroke="midnightblue" points="879.736,-328.435 889.12,-323.516 878.717,-321.51 879.736,-328.435"/>
</g>
<!-- Node35 -->
<g id="node35" class="node"><title>Node35</title>
<g id="a_node35"><a xlink:href="../../d1/daa/Base_2include_2DetectorsBase_2Constants_8h.html" target="_top" xlink:title="DetectorsBase/Constants.h">
<polygon fill="none" stroke="black" points="1739,-6.5 1739,-25.5 1877,-25.5 1877,-6.5 1739,-6.5"/>
<text text-anchor="middle" x="1808" y="-13.5" font-family="Helvetica,sans-Serif" font-size="10.00">DetectorsBase/Constants.h</text>
</a>
</g>
</g>
<!-- Node5&#45;&gt;Node35 -->
<g id="edge56" class="edge"><title>Node5&#45;&gt;Node35</title>
<path fill="none" stroke="midnightblue" d="M650.158,-366.952C925.873,-358.451 1920,-323.337 1920,-259 1920,-259 1920,-259 1920,-145 1920,-92.3683 1865.71,-50.9758 1832.72,-30.6863"/>
<polygon fill="midnightblue" stroke="midnightblue" points="1834.43,-27.631 1824.05,-25.5315 1830.86,-33.6488 1834.43,-27.631"/>
</g>
<!-- Node8&#45;&gt;Node2 -->
<g id="edge10" class="edge"><title>Node8&#45;&gt;Node2</title>
<path fill="none" stroke="midnightblue" d="M887.997,-309.007C732.806,-298.506 316.317,-270.322 187.503,-261.605"/>
<polygon fill="midnightblue" stroke="midnightblue" points="187.547,-258.101 177.334,-260.917 187.074,-265.085 187.547,-258.101"/>
</g>
<!-- Node8&#45;&gt;Node6 -->
<g id="edge11" class="edge"><title>Node8&#45;&gt;Node6</title>
<path fill="none" stroke="midnightblue" d="M1006.23,-312.63C1141.01,-310.189 1459,-294.713 1459,-203 1459,-203 1459,-203 1459,-145 1459,-109.751 1467.29,-90.3131 1440,-68 1392.73,-29.3457 436.84,-18.8804 256.283,-17.2454"/>
<polygon fill="midnightblue" stroke="midnightblue" points="256.233,-13.7449 246.202,-17.1561 256.171,-20.7446 256.233,-13.7449"/>
</g>
<!-- Node8&#45;&gt;Node7 -->
<g id="edge13" class="edge"><title>Node8&#45;&gt;Node7</title>
<path fill="none" stroke="midnightblue" d="M1006.09,-312.311C1164.34,-310.037 1595.07,-300.918 1733,-268 1803.28,-251.228 1882,-275.249 1882,-203 1882,-203 1882,-203 1882,-145 1882,-104.663 1898.37,-59.6265 1908.72,-35.188"/>
<polygon fill="midnightblue" stroke="midnightblue" points="1912.04,-36.3377 1912.85,-25.7737 1905.63,-33.5276 1912.04,-36.3377"/>
</g>
<!-- Node9 -->
<g id="node9" class="node"><title>Node9</title>
<polygon fill="none" stroke="#bfbfbf" points="399,-74.5 399,-93.5 455,-93.5 455,-74.5 399,-74.5"/>
<text text-anchor="middle" x="427" y="-81.5" font-family="Helvetica,sans-Serif" font-size="10.00">Rtypes.h</text>
</g>
<!-- Node8&#45;&gt;Node9 -->
<g id="edge9" class="edge"><title>Node8&#45;&gt;Node9</title>
<path fill="none" stroke="midnightblue" d="M942.746,-304.442C930.951,-281.714 895.41,-219.694 846,-192 693.665,-106.616 630.268,-153.397 464,-100 461.428,-99.1741 458.782,-98.252 456.144,-97.2823"/>
<polygon fill="midnightblue" stroke="midnightblue" points="457.359,-93.9997 446.77,-93.6476 454.829,-100.526 457.359,-93.9997"/>
</g>
<!-- Node10 -->
<g id="node10" class="node"><title>Node10</title>
<polygon fill="none" stroke="#bfbfbf" points="1563.5,-248.5 1563.5,-267.5 1604.5,-267.5 1604.5,-248.5 1563.5,-248.5"/>
<text text-anchor="middle" x="1584" y="-255.5" font-family="Helvetica,sans-Serif" font-size="10.00">cfloat</text>
</g>
<!-- Node8&#45;&gt;Node10 -->
<g id="edge12" class="edge"><title>Node8&#45;&gt;Node10</title>
<path fill="none" stroke="midnightblue" d="M1006.37,-312.039C1114.84,-309.513 1352,-300.43 1549,-268 1550.47,-267.758 1551.97,-267.483 1553.48,-267.184"/>
<polygon fill="midnightblue" stroke="midnightblue" points="1554.42,-270.56 1563.4,-264.943 1552.88,-263.732 1554.42,-270.56"/>
</g>
<!-- Node11 -->
<g id="node11" class="node"><title>Node11</title>
<polygon fill="none" stroke="#bfbfbf" points="478,-248.5 478,-267.5 524,-267.5 524,-248.5 478,-248.5"/>
<text text-anchor="middle" x="501" y="-255.5" font-family="Helvetica,sans-Serif" font-size="10.00">cstring</text>
</g>
<!-- Node8&#45;&gt;Node11 -->
<g id="edge14" class="edge"><title>Node8&#45;&gt;Node11</title>
<path fill="none" stroke="midnightblue" d="M887.923,-309.67C809.152,-304.547 665.342,-292.81 534.137,-267.931"/>
<polygon fill="midnightblue" stroke="midnightblue" points="534.793,-264.493 524.312,-266.039 533.469,-271.367 534.793,-264.493"/>
</g>
<!-- Node12 -->
<g id="node12" class="node"><title>Node12</title>
<polygon fill="none" stroke="#bfbfbf" points="1762,-74.5 1762,-93.5 1816,-93.5 1816,-74.5 1762,-74.5"/>
<text text-anchor="middle" x="1789" y="-81.5" font-family="Helvetica,sans-Serif" font-size="10.00">iostream</text>
</g>
<!-- Node8&#45;&gt;Node12 -->
<g id="edge15" class="edge"><title>Node8&#45;&gt;Node12</title>
<path fill="none" stroke="midnightblue" d="M1006.02,-311.19C1124.51,-307.027 1387.33,-294.984 1473,-268 1489.03,-262.952 1695.27,-140.734 1765.65,-98.8962"/>
<polygon fill="midnightblue" stroke="midnightblue" points="1767.84,-101.666 1774.65,-93.5468 1764.26,-95.65 1767.84,-101.666"/>
</g>
<!-- Node13 -->
<g id="node13" class="node"><title>Node13</title>
<polygon fill="none" stroke="#bfbfbf" points="542.5,-248.5 542.5,-267.5 625.5,-267.5 625.5,-248.5 542.5,-248.5"/>
<text text-anchor="middle" x="584" y="-255.5" font-family="Helvetica,sans-Serif" font-size="10.00">Math/SMatrix.h</text>
</g>
<!-- Node8&#45;&gt;Node13 -->
<g id="edge16" class="edge"><title>Node8&#45;&gt;Node13</title>
<path fill="none" stroke="midnightblue" d="M887.774,-305.119C826.914,-296.878 729.165,-283.245 635.635,-268.224"/>
<polygon fill="midnightblue" stroke="midnightblue" points="636.153,-264.762 625.723,-266.624 635.038,-271.673 636.153,-264.762"/>
</g>
<!-- Node14 -->
<g id="node14" class="node"><title>Node14</title>
<polygon fill="none" stroke="#bfbfbf" points="643.5,-248.5 643.5,-267.5 728.5,-267.5 728.5,-248.5 643.5,-248.5"/>
<text text-anchor="middle" x="686" y="-255.5" font-family="Helvetica,sans-Serif" font-size="10.00">Math/SVector.h</text>
</g>
<!-- Node8&#45;&gt;Node14 -->
<g id="edge17" class="edge"><title>Node8&#45;&gt;Node14</title>
<path fill="none" stroke="midnightblue" d="M905.644,-304.444C859.922,-294.984 786.236,-279.738 736.978,-269.547"/>
<polygon fill="midnightblue" stroke="midnightblue" points="737.664,-266.115 727.163,-267.516 736.246,-272.97 737.664,-266.115"/>
</g>
<!-- Node15 -->
<g id="node15" class="node"><title>Node15</title>
<g id="a_node15"><a xlink:href="../../d4/de2/BaseCluster_8h.html" target="_top" xlink:title="DetectorsBase/BaseCluster.h">
<polygon fill="none" stroke="black" points="746.5,-248.5 746.5,-267.5 893.5,-267.5 893.5,-248.5 746.5,-248.5"/>
<text text-anchor="middle" x="820" y="-255.5" font-family="Helvetica,sans-Serif" font-size="10.00">DetectorsBase/BaseCluster.h</text>
</a>
</g>
</g>
<!-- Node8&#45;&gt;Node15 -->
<g id="edge18" class="edge"><title>Node8&#45;&gt;Node15</title>
<path fill="none" stroke="midnightblue" d="M926.876,-304.444C905.976,-295.557 873.065,-281.563 849.284,-271.451"/>
<polygon fill="midnightblue" stroke="midnightblue" points="850.602,-268.208 840.029,-267.516 847.862,-274.65 850.602,-268.208"/>
</g>
<!-- Node20 -->
<g id="node20" class="node"><title>Node20</title>
<g id="a_node20"><a xlink:href="../../dd/d76/Cartesian3D_8h.html" target="_top" xlink:title="MathUtils/Cartesian3D.h">
<polygon fill="none" stroke="black" points="932.5,-136.5 932.5,-155.5 1057.5,-155.5 1057.5,-136.5 932.5,-136.5"/>
<text text-anchor="middle" x="995" y="-143.5" font-family="Helvetica,sans-Serif" font-size="10.00">MathUtils/Cartesian3D.h</text>
</a>
</g>
</g>
<!-- Node8&#45;&gt;Node20 -->
<g id="edge55" class="edge"><title>Node8&#45;&gt;Node20</title>
<path fill="none" stroke="midnightblue" d="M949.581,-304.075C957.136,-277.945 979.325,-201.211 989.628,-165.577"/>
<polygon fill="midnightblue" stroke="midnightblue" points="993.107,-166.147 992.522,-155.568 986.382,-164.202 993.107,-166.147"/>
</g>
<!-- Node34 -->
<g id="node34" class="node"><title>Node34</title>
<g id="a_node34"><a xlink:href="../../d9/ded/Utils_8h.html" target="_top" xlink:title="DetectorsBase/Utils.h">
<polygon fill="none" stroke="black" points="1630.5,-74.5 1630.5,-93.5 1743.5,-93.5 1743.5,-74.5 1630.5,-74.5"/>
<text text-anchor="middle" x="1687" y="-81.5" font-family="Helvetica,sans-Serif" font-size="10.00">DetectorsBase/Utils.h</text>
</a>
</g>
</g>
<!-- Node8&#45;&gt;Node34 -->
<g id="edge54" class="edge"><title>Node8&#45;&gt;Node34</title>
<path fill="none" stroke="midnightblue" d="M1006.24,-313.524C1132.32,-313.799 1422.89,-309.724 1511,-268 1590.36,-230.421 1652.78,-140.522 1676.57,-102.479"/>
<polygon fill="midnightblue" stroke="midnightblue" points="1679.77,-103.953 1682.01,-93.5972 1673.8,-100.298 1679.77,-103.953"/>
</g>
<!-- Node8&#45;&gt;Node35 -->
<g id="edge53" class="edge"><title>Node8&#45;&gt;Node35</title>
<path fill="none" stroke="midnightblue" d="M1006.2,-311.981C1206.15,-307.763 1844,-287.675 1844,-203 1844,-203 1844,-203 1844,-145 1844,-104.582 1827.16,-59.5752 1816.52,-35.1636"/>
<polygon fill="midnightblue" stroke="midnightblue" points="1819.58,-33.4355 1812.27,-25.7608 1813.19,-36.3153 1819.58,-33.4355"/>
</g>
<!-- Node15&#45;&gt;Node12 -->
<g id="edge23" class="edge"><title>Node15&#45;&gt;Node12</title>
<path fill="none" stroke="midnightblue" d="M862.929,-248.434C968.275,-227.574 1248.1,-173.131 1483,-136 1602.14,-117.167 1635.4,-130.904 1752,-100 1754.99,-99.2086 1758.05,-98.2382 1761.08,-97.1751"/>
<polygon fill="midnightblue" stroke="midnightblue" points="1762.41,-100.417 1770.49,-93.5691 1759.9,-93.8804 1762.41,-100.417"/>
</g>
<!-- Node16 -->
<g id="node16" class="node"><title>Node16</title>
<polygon fill="none" stroke="#bfbfbf" points="280.5,-192.5 280.5,-211.5 339.5,-211.5 339.5,-192.5 280.5,-192.5"/>
<text text-anchor="middle" x="310" y="-199.5" font-family="Helvetica,sans-Serif" font-size="10.00">TObject.h</text>
</g>
<!-- Node15&#45;&gt;Node16 -->
<g id="edge19" class="edge"><title>Node15&#45;&gt;Node16</title>
<path fill="none" stroke="midnightblue" d="M746.24,-248.942C743.119,-248.62 740.028,-248.305 737,-248 567.882,-230.986 521.685,-239.213 349.625,-211.882"/>
<polygon fill="midnightblue" stroke="midnightblue" points="350.158,-208.423 339.729,-210.294 349.048,-215.335 350.158,-208.423"/>
</g>
<!-- Node17 -->
<g id="node17" class="node"><title>Node17</title>
<polygon fill="none" stroke="#bfbfbf" points="157.5,-74.5 157.5,-93.5 198.5,-93.5 198.5,-74.5 157.5,-74.5"/>
<text text-anchor="middle" x="178" y="-81.5" font-family="Helvetica,sans-Serif" font-size="10.00">bitset</text>
</g>
<!-- Node15&#45;&gt;Node17 -->
<g id="edge20" class="edge"><title>Node15&#45;&gt;Node17</title>
<path fill="none" stroke="midnightblue" d="M746.246,-248.883C743.123,-248.577 740.031,-248.281 737,-248 633.58,-238.4 362.862,-260.467 271,-212 226.009,-188.262 197.277,-131.901 184.946,-102.908"/>
<polygon fill="midnightblue" stroke="midnightblue" points="188.158,-101.517 181.145,-93.5753 181.675,-104.157 188.158,-101.517"/>
</g>
<!-- Node18 -->
<g id="node18" class="node"><title>Node18</title>
<polygon fill="none" stroke="#bfbfbf" points="740,-192.5 740,-211.5 790,-211.5 790,-192.5 740,-192.5"/>
<text text-anchor="middle" x="765" y="-199.5" font-family="Helvetica,sans-Serif" font-size="10.00">iomanip</text>
</g>
<!-- Node15&#45;&gt;Node18 -->
<g id="edge21" class="edge"><title>Node15&#45;&gt;Node18</title>
<path fill="none" stroke="midnightblue" d="M810.918,-248.083C802.829,-240.141 790.805,-228.335 781.09,-218.797"/>
<polygon fill="midnightblue" stroke="midnightblue" points="783.501,-216.26 773.913,-211.751 778.597,-221.254 783.501,-216.26"/>
</g>
<!-- Node19 -->
<g id="node19" class="node"><title>Node19</title>
<polygon fill="none" stroke="#bfbfbf" points="808.5,-192.5 808.5,-211.5 837.5,-211.5 837.5,-192.5 808.5,-192.5"/>
<text text-anchor="middle" x="823" y="-199.5" font-family="Helvetica,sans-Serif" font-size="10.00">ios</text>
</g>
<!-- Node15&#45;&gt;Node19 -->
<g id="edge22" class="edge"><title>Node15&#45;&gt;Node19</title>
<path fill="none" stroke="midnightblue" d="M820.495,-248.083C820.889,-241.006 821.452,-230.861 821.945,-221.986"/>
<polygon fill="midnightblue" stroke="midnightblue" points="825.454,-221.93 822.514,-211.751 818.464,-221.542 825.454,-221.93"/>
</g>
<!-- Node15&#45;&gt;Node20 -->
<g id="edge24" class="edge"><title>Node15&#45;&gt;Node20</title>
<path fill="none" stroke="midnightblue" d="M833.732,-248.368C863.89,-229.412 936.135,-184.001 972.819,-160.942"/>
<polygon fill="midnightblue" stroke="midnightblue" points="974.728,-163.876 981.332,-155.591 971.003,-157.95 974.728,-163.876"/>
</g>
<!-- Node30 -->
<g id="node30" class="node"><title>Node30</title>
<g id="a_node30"><a xlink:href="../../d4/d20/DetMatrixCache_8h.html" target="_top" xlink:title="DetectorsBase/DetMatrixCache.h">
<polygon fill="none" stroke="black" points="358,-192.5 358,-211.5 522,-211.5 522,-192.5 358,-192.5"/>
<text text-anchor="middle" x="440" y="-199.5" font-family="Helvetica,sans-Serif" font-size="10.00">DetectorsBase/DetMatrixCache.h</text>
</a>
</g>
</g>
<!-- Node15&#45;&gt;Node30 -->
<g id="edge36" class="edge"><title>Node15&#45;&gt;Node30</title>
<path fill="none" stroke="midnightblue" d="M759.788,-248.444C691.969,-238.806 581.891,-223.163 510.217,-212.978"/>
<polygon fill="midnightblue" stroke="midnightblue" points="510.323,-209.458 499.93,-211.516 509.339,-216.389 510.323,-209.458"/>
</g>
<!-- Node20&#45;&gt;Node9 -->
<g id="edge28" class="edge"><title>Node20&#45;&gt;Node9</title>
<path fill="none" stroke="midnightblue" d="M932.406,-137.486C927.534,-136.962 922.688,-136.46 918,-136 716.555,-116.247 660.982,-146.568 464,-100 460.929,-99.2739 457.779,-98.3316 454.677,-97.273"/>
<polygon fill="midnightblue" stroke="midnightblue" points="455.671,-93.9063 445.08,-93.6172 453.179,-100.448 455.671,-93.9063"/>
</g>
<!-- Node20&#45;&gt;Node12 -->
<g id="edge35" class="edge"><title>Node20&#45;&gt;Node12</title>
<path fill="none" stroke="midnightblue" d="M1057.51,-142.452C1226.67,-135.391 1685.18,-115.101 1752,-100 1755.25,-99.2666 1758.57,-98.2808 1761.84,-97.1632"/>
<polygon fill="midnightblue" stroke="midnightblue" points="1763.23,-100.381 1771.31,-93.5349 1760.72,-93.8439 1763.23,-100.381"/>
</g>
<!-- Node21 -->
<g id="node21" class="node"><title>Node21</title>
<polygon fill="none" stroke="#bfbfbf" points="1282.5,-74.5 1282.5,-93.5 1431.5,-93.5 1431.5,-74.5 1282.5,-74.5"/>
<text text-anchor="middle" x="1357" y="-81.5" font-family="Helvetica,sans-Serif" font-size="10.00">Math/GenVector/Rotation3D.h</text>
</g>
<!-- Node20&#45;&gt;Node21 -->
<g id="edge25" class="edge"><title>Node20&#45;&gt;Node21</title>
<path fill="none" stroke="midnightblue" d="M1049.38,-136.465C1105.45,-127.602 1195.4,-113.208 1273,-100 1281.7,-98.519 1290.9,-96.915 1299.9,-95.3253"/>
<polygon fill="midnightblue" stroke="midnightblue" points="1300.7,-98.7383 1309.93,-93.544 1299.47,-91.8461 1300.7,-98.7383"/>
</g>
<!-- Node22 -->
<g id="node22" class="node"><title>Node22</title>
<polygon fill="none" stroke="#bfbfbf" points="473,-74.5 473,-93.5 629,-93.5 629,-74.5 473,-74.5"/>
<text text-anchor="middle" x="551" y="-81.5" font-family="Helvetica,sans-Serif" font-size="10.00">Math/GenVector/Transform3D.h</text>
</g>
<!-- Node20&#45;&gt;Node22 -->
<g id="edge26" class="edge"><title>Node20&#45;&gt;Node22</title>
<path fill="none" stroke="midnightblue" d="M932.181,-137.43C845.379,-126.91 693.221,-108.236 638,-100 628.437,-98.5736 618.303,-96.9393 608.462,-95.2862"/>
<polygon fill="midnightblue" stroke="midnightblue" points="608.793,-91.7923 598.348,-93.5646 607.618,-98.693 608.793,-91.7923"/>
</g>
<!-- Node23 -->
<g id="node23" class="node"><title>Node23</title>
<polygon fill="none" stroke="#bfbfbf" points="647,-74.5 647,-93.5 807,-93.5 807,-74.5 647,-74.5"/>
<text text-anchor="middle" x="727" y="-81.5" font-family="Helvetica,sans-Serif" font-size="10.00">Math/GenVector/Translation3D.h</text>
</g>
<!-- Node20&#45;&gt;Node23 -->
<g id="edge27" class="edge"><title>Node20&#45;&gt;Node23</title>
<path fill="none" stroke="midnightblue" d="M956.887,-136.467C909.062,-125.76 827.019,-107.392 774.972,-95.74"/>
<polygon fill="midnightblue" stroke="midnightblue" points="775.505,-92.2727 764.982,-93.5034 773.976,-99.1036 775.505,-92.2727"/>
</g>
<!-- Node24 -->
<g id="node24" class="node"><title>Node24</title>
<polygon fill="none" stroke="#bfbfbf" points="825,-74.5 825,-93.5 901,-93.5 901,-74.5 825,-74.5"/>
<text text-anchor="middle" x="863" y="-81.5" font-family="Helvetica,sans-Serif" font-size="10.00">TGeoMatrix.h</text>
</g>
<!-- Node20&#45;&gt;Node24 -->
<g id="edge29" class="edge"><title>Node20&#45;&gt;Node24</title>
<path fill="none" stroke="midnightblue" d="M976.088,-136.403C953.837,-126.29 916.688,-109.404 891.074,-97.761"/>
<polygon fill="midnightblue" stroke="midnightblue" points="892.429,-94.5324 881.877,-93.5806 889.533,-100.905 892.429,-94.5324"/>
</g>
<!-- Node25 -->
<g id="node25" class="node"><title>Node25</title>
<polygon fill="none" stroke="#bfbfbf" points="919.5,-69 919.5,-99 1070.5,-99 1070.5,-69 919.5,-69"/>
<text text-anchor="start" x="927.5" y="-87" font-family="Helvetica,sans-Serif" font-size="10.00">Math/GenVector/Displacement</text>
<text text-anchor="middle" x="995" y="-76" font-family="Helvetica,sans-Serif" font-size="10.00">Vector3D.h</text>
</g>
<!-- Node20&#45;&gt;Node25 -->
<g id="edge30" class="edge"><title>Node20&#45;&gt;Node25</title>
<path fill="none" stroke="midnightblue" d="M995,-136.403C995,-129.341 995,-118.975 995,-109.399"/>
<polygon fill="midnightblue" stroke="midnightblue" points="998.5,-109.141 995,-99.1408 991.5,-109.141 998.5,-109.141"/>
</g>
<!-- Node26 -->
<g id="node26" class="node"><title>Node26</title>
<polygon fill="none" stroke="#bfbfbf" points="1089,-74.5 1089,-93.5 1265,-93.5 1265,-74.5 1089,-74.5"/>
<text text-anchor="middle" x="1177" y="-81.5" font-family="Helvetica,sans-Serif" font-size="10.00">Math/GenVector/PositionVector3D.h</text>
</g>
<!-- Node20&#45;&gt;Node26 -->
<g id="edge31" class="edge"><title>Node20&#45;&gt;Node26</title>
<path fill="none" stroke="midnightblue" d="M1021.08,-136.403C1052.57,-126.022 1105.7,-108.506 1141.06,-96.849"/>
<polygon fill="midnightblue" stroke="midnightblue" points="1142.57,-100.036 1150.97,-93.5806 1140.38,-93.3876 1142.57,-100.036"/>
</g>
<!-- Node27 -->
<g id="node27" class="node"><title>Node27</title>
<g id="a_node27"><a xlink:href="../../d2/dd0/Cartesian2D_8h.html" target="_top" xlink:title="MathUtils/Cartesian2D.h">
<polygon fill="none" stroke="black" points="1487.5,-74.5 1487.5,-93.5 1612.5,-93.5 1612.5,-74.5 1487.5,-74.5"/>
<text text-anchor="middle" x="1550" y="-81.5" font-family="Helvetica,sans-Serif" font-size="10.00">MathUtils/Cartesian2D.h</text>
</a>
</g>
</g>
<!-- Node20&#45;&gt;Node27 -->
<g id="edge32" class="edge"><title>Node20&#45;&gt;Node27</title>
<path fill="none" stroke="midnightblue" d="M1057.72,-139.35C1143.94,-131.425 1303.9,-116.156 1440,-100 1453.04,-98.452 1466.93,-96.6655 1480.3,-94.8771"/>
<polygon fill="midnightblue" stroke="midnightblue" points="1480.95,-98.3207 1490.39,-93.5131 1480.01,-91.3837 1480.95,-98.3207"/>
</g>
<!-- Node28 -->
<g id="node28" class="node"><title>Node28</title>
<polygon fill="none" stroke="#bfbfbf" points="1333.5,-1 1333.5,-31 1484.5,-31 1484.5,-1 1333.5,-1"/>
<text text-anchor="start" x="1341.5" y="-19" font-family="Helvetica,sans-Serif" font-size="10.00">Math/GenVector/Displacement</text>
<text text-anchor="middle" x="1409" y="-8" font-family="Helvetica,sans-Serif" font-size="10.00">Vector2D.h</text>
</g>
<!-- Node27&#45;&gt;Node28 -->
<g id="edge33" class="edge"><title>Node27&#45;&gt;Node28</title>
<path fill="none" stroke="midnightblue" d="M1531.57,-74.3717C1510.53,-64.5259 1475.53,-48.1405 1448.3,-35.3957"/>
<polygon fill="midnightblue" stroke="midnightblue" points="1449.57,-32.1258 1439.03,-31.0562 1446.6,-38.4656 1449.57,-32.1258"/>
</g>
<!-- Node29 -->
<g id="node29" class="node"><title>Node29</title>
<polygon fill="none" stroke="#bfbfbf" points="1503,-6.5 1503,-25.5 1679,-25.5 1679,-6.5 1503,-6.5"/>
<text text-anchor="middle" x="1591" y="-13.5" font-family="Helvetica,sans-Serif" font-size="10.00">Math/GenVector/PositionVector2D.h</text>
</g>
<!-- Node27&#45;&gt;Node29 -->
<g id="edge34" class="edge"><title>Node27&#45;&gt;Node29</title>
<path fill="none" stroke="midnightblue" d="M1555.36,-74.3717C1561.59,-64.3478 1572.02,-47.5455 1580,-34.7076"/>
<polygon fill="midnightblue" stroke="midnightblue" points="1583.2,-36.1825 1585.51,-25.8411 1577.26,-32.4886 1583.2,-36.1825"/>
</g>
<!-- Node30&#45;&gt;Node3 -->
<g id="edge37" class="edge"><title>Node30&#45;&gt;Node3</title>
<path fill="none" stroke="midnightblue" d="M383.115,-192.444C307.018,-180.997 174.602,-161.079 113.545,-151.895"/>
<polygon fill="midnightblue" stroke="midnightblue" points="113.756,-148.388 103.347,-150.361 112.715,-155.31 113.756,-148.388"/>
</g>
<!-- Node30&#45;&gt;Node6 -->
<g id="edge38" class="edge"><title>Node30&#45;&gt;Node6</title>
<path fill="none" stroke="midnightblue" d="M387.962,-192.483C344.263,-184.756 280.422,-172.116 226,-156 192.88,-146.192 100.536,-128.487 81,-100 49.4401,-53.9796 146.67,-30.3796 197.761,-21.3982"/>
<polygon fill="midnightblue" stroke="midnightblue" points="198.616,-24.8039 207.9,-19.7007 197.46,-17.9 198.616,-24.8039"/>
</g>
<!-- Node30&#45;&gt;Node9 -->
<g id="edge51" class="edge"><title>Node30&#45;&gt;Node9</title>
<path fill="none" stroke="midnightblue" d="M443.948,-192.116C449.011,-179.55 456.615,-155.898 452,-136 449.255,-124.165 443.362,-111.91 437.987,-102.379"/>
<polygon fill="midnightblue" stroke="midnightblue" points="440.857,-100.358 432.726,-93.5657 434.846,-103.946 440.857,-100.358"/>
</g>
<!-- Node30&#45;&gt;Node20 -->
<g id="edge39" class="edge"><title>Node30&#45;&gt;Node20</title>
<path fill="none" stroke="midnightblue" d="M522.191,-193.003C630.385,-182.476 818.923,-164.132 922.211,-154.082"/>
<polygon fill="midnightblue" stroke="midnightblue" points="922.626,-157.558 932.24,-153.106 921.948,-150.591 922.626,-157.558"/>
</g>
<!-- Node31 -->
<g id="node31" class="node"><title>Node31</title>
<g id="a_node31"><a xlink:href="../../d6/d31/DetID_8h.html" target="_top" xlink:title="DetectorsBase/DetID.h">
<polygon fill="none" stroke="black" points="235.5,-136.5 235.5,-155.5 354.5,-155.5 354.5,-136.5 235.5,-136.5"/>
<text text-anchor="middle" x="295" y="-143.5" font-family="Helvetica,sans-Serif" font-size="10.00">DetectorsBase/DetID.h</text>
</a>
</g>
</g>
<!-- Node30&#45;&gt;Node31 -->
<g id="edge40" class="edge"><title>Node30&#45;&gt;Node31</title>
<path fill="none" stroke="midnightblue" d="M417.024,-192.444C392.843,-183.438 354.582,-169.189 327.354,-159.049"/>
<polygon fill="midnightblue" stroke="midnightblue" points="328.461,-155.727 317.868,-155.516 326.018,-162.286 328.461,-155.727"/>
</g>
<!-- Node36 -->
<g id="node36" class="node"><title>Node36</title>
<polygon fill="none" stroke="#bfbfbf" points="372.5,-136.5 372.5,-155.5 443.5,-155.5 443.5,-136.5 372.5,-136.5"/>
<text text-anchor="middle" x="408" y="-143.5" font-family="Helvetica,sans-Serif" font-size="10.00">FairLogger.h</text>
</g>
<!-- Node30&#45;&gt;Node36 -->
<g id="edge52" class="edge"><title>Node30&#45;&gt;Node36</title>
<path fill="none" stroke="midnightblue" d="M434.716,-192.083C430.289,-184.613 423.837,-173.724 418.382,-164.52"/>
<polygon fill="midnightblue" stroke="midnightblue" points="421.295,-162.57 413.186,-155.751 415.273,-166.138 421.295,-162.57"/>
</g>
<!-- Node31&#45;&gt;Node4 -->
<g id="edge44" class="edge"><title>Node31&#45;&gt;Node4</title>
<path fill="none" stroke="midnightblue" d="M262.768,-136.432C232.713,-128.139 186.815,-114.692 148,-100 146.102,-99.2815 144.158,-98.506 142.211,-97.6993"/>
<polygon fill="midnightblue" stroke="midnightblue" points="143.199,-94.3119 132.633,-93.5243 140.402,-100.729 143.199,-94.3119"/>
</g>
<!-- Node31&#45;&gt;Node6 -->
<g id="edge42" class="edge"><title>Node31&#45;&gt;Node6</title>
<path fill="none" stroke="midnightblue" d="M281.678,-136.269C270.442,-128.197 254.822,-115.179 246,-100 234.362,-79.9754 229.852,-53.3719 228.105,-35.7433"/>
<polygon fill="midnightblue" stroke="midnightblue" points="231.582,-35.309 227.309,-25.6142 224.603,-35.8578 231.582,-35.309"/>
</g>
<!-- Node31&#45;&gt;Node9 -->
<g id="edge41" class="edge"><title>Node31&#45;&gt;Node9</title>
<path fill="none" stroke="midnightblue" d="M313.912,-136.403C336.163,-126.29 373.312,-109.404 398.926,-97.761"/>
<polygon fill="midnightblue" stroke="midnightblue" points="400.467,-100.905 408.123,-93.5806 397.571,-94.5324 400.467,-100.905"/>
</g>
<!-- Node31&#45;&gt;Node17 -->
<g id="edge43" class="edge"><title>Node31&#45;&gt;Node17</title>
<path fill="none" stroke="midnightblue" d="M278.237,-136.403C258.775,-126.423 226.455,-109.849 203.789,-98.2253"/>
<polygon fill="midnightblue" stroke="midnightblue" points="205.227,-95.0294 194.732,-93.5806 202.033,-101.258 205.227,-95.0294"/>
</g>
<!-- Node32 -->
<g id="node32" class="node"><title>Node32</title>
<polygon fill="none" stroke="#bfbfbf" points="335,-74.5 335,-93.5 381,-93.5 381,-74.5 335,-74.5"/>
<text text-anchor="middle" x="358" y="-81.5" font-family="Helvetica,sans-Serif" font-size="10.00">cstdint</text>
</g>
<!-- Node31&#45;&gt;Node32 -->
<g id="edge45" class="edge"><title>Node31&#45;&gt;Node32</title>
<path fill="none" stroke="midnightblue" d="M304.026,-136.403C313.757,-127.136 329.458,-112.183 341.423,-100.788"/>
<polygon fill="midnightblue" stroke="midnightblue" points="344.163,-103.012 348.99,-93.5806 339.335,-97.9427 344.163,-103.012"/>
</g>
<!-- Node33 -->
<g id="node33" class="node"><title>Node33</title>
<polygon fill="none" stroke="#bfbfbf" points="255,-74.5 255,-93.5 317,-93.5 317,-74.5 255,-74.5"/>
<text text-anchor="middle" x="286" y="-81.5" font-family="Helvetica,sans-Serif" font-size="10.00">type_traits</text>
</g>
<!-- Node31&#45;&gt;Node33 -->
<g id="edge46" class="edge"><title>Node31&#45;&gt;Node33</title>
<path fill="none" stroke="midnightblue" d="M293.711,-136.403C292.427,-127.849 290.417,-114.45 288.771,-103.476"/>
<polygon fill="midnightblue" stroke="midnightblue" points="292.232,-102.951 287.287,-93.5806 285.309,-103.989 292.232,-102.951"/>
</g>
<!-- Node31&#45;&gt;Node34 -->
<g id="edge47" class="edge"><title>Node31&#45;&gt;Node34</title>
<path fill="none" stroke="midnightblue" d="M354.667,-136.75C357.481,-136.472 360.27,-136.219 363,-136 920.547,-91.2455 1066.1,-170.314 1621,-100 1628.95,-98.9925 1637.35,-97.4572 1645.39,-95.7468"/>
<polygon fill="midnightblue" stroke="midnightblue" points="1646.34,-99.1208 1655.33,-93.5132 1644.81,-92.2911 1646.34,-99.1208"/>
</g>
<!-- Node34&#45;&gt;Node6 -->
<g id="edge50" class="edge"><title>Node34&#45;&gt;Node6</title>
<path fill="none" stroke="midnightblue" d="M1654.99,-74.4601C1644.26,-71.9376 1632.19,-69.4626 1621,-68 1343.59,-31.7263 431.446,-19.3864 256.249,-17.3253"/>
<polygon fill="midnightblue" stroke="midnightblue" points="256.047,-13.8229 246.007,-17.2068 255.966,-20.8224 256.047,-13.8229"/>
</g>
<!-- Node34&#45;&gt;Node7 -->
<g id="edge49" class="edge"><title>Node34&#45;&gt;Node7</title>
<path fill="none" stroke="midnightblue" d="M1724.1,-74.4286C1773.05,-62.96 1856.44,-42.8153 1886,-32 1887.85,-31.322 1889.74,-30.5696 1891.63,-29.7731"/>
<polygon fill="midnightblue" stroke="midnightblue" points="1893.21,-32.9 1900.85,-25.5653 1890.3,-26.5314 1893.21,-32.9"/>
</g>
<!-- Node34&#45;&gt;Node35 -->
<g id="edge48" class="edge"><title>Node34&#45;&gt;Node35</title>
<path fill="none" stroke="midnightblue" d="M1702.82,-74.3717C1723.29,-63.2051 1759.18,-43.6266 1783.27,-30.4876"/>
<polygon fill="midnightblue" stroke="midnightblue" points="1785.07,-33.4917 1792.18,-25.6305 1781.72,-27.3464 1785.07,-33.4917"/>
</g>
</g>
</svg>
        <g id="navigator" transform="translate(0 0)" fill="#404254">
                <rect fill="#f2f5e9" fill-opacity="0.5" stroke="#606060" stroke-width=".5" x="0" y="0" width="60" height="60"/>
                <use id="zoomplus" xlink:href="#zoomPlus" x="17" y="9" onmousedown="handleZoom(evt,'in')"/>
                <use id="zoomminus" xlink:href="#zoomMin" x="42" y="9" onmousedown="handleZoom(evt,'out')"/>
                <use id="reset" xlink:href="#resetDef" x="30" y="36" onmousedown="handleReset()"/>
                <g id="arrowUp" xlink:href="#dirArrow" transform="translate(30 24)" onmousedown="handlePan(0,-1)">
                  <use xlink:href="#rim" fill="#404040">
                        <set attributeName="fill" to="#808080" begin="arrowUp.mouseover" end="arrowUp.mouseout"/>
                  </use>
                  <path fill="none" stroke="white" stroke-width="1.5" d="M0,-3.0v7 M-2.5,-0.5L0,-3.0L2.5,-0.5"/>
                </g>
                <g id="arrowRight" xlink:href="#dirArrow" transform="rotate(90) translate(36 -43)" onmousedown="handlePan(1,0)">
                  <use xlink:href="#rim" fill="#404040">
                        <set attributeName="fill" to="#808080" begin="arrowRight.mouseover" end="arrowRight.mouseout"/>
                  </use>
                  <path fill="none" stroke="white" stroke-width="1.5" d="M0,-3.0v7 M-2.5,-0.5L0,-3.0L2.5,-0.5"/>
                </g>
                <g id="arrowDown" xlink:href="#dirArrow" transform="rotate(180) translate(-30 -48)" onmousedown="handlePan(0,1)">
                  <use xlink:href="#rim" fill="#404040">
                        <set attributeName="fill" to="#808080" begin="arrowDown.mouseover" end="arrowDown.mouseout"/>
                  </use>
                  <path fill="none" stroke="white" stroke-width="1.5" d="M0,-3.0v7 M-2.5,-0.5L0,-3.0L2.5,-0.5"/>
                </g>
                <g id="arrowLeft" xlink:href="#dirArrow" transform="rotate(270) translate(-36 17)" onmousedown="handlePan(-1,0)">
                  <use xlink:href="#rim" fill="#404040">
                        <set attributeName="fill" to="#808080" begin="arrowLeft.mouseover" end="arrowLeft.mouseout"/>
                  </use>
                  <path fill="none" stroke="white" stroke-width="1.5" d="M0,-3.0v7 M-2.5,-0.5L0,-3.0L2.5,-0.5"/>
                </g>
        </g>
        <svg viewBox="0 0 15 15" width="100%" height="30px" preserveAspectRatio="xMaxYMin meet">
         <g id="arrow_out" transform="scale(0.3 0.3)">
          <a xlink:href="CATrackingStation_8h__incl_org.svg" target="_base">
           <rect id="button" ry="5" rx="5" y="6" x="6" height="38" width="38"
                fill="#f2f5e9" fill-opacity="0.5" stroke="#606060" stroke-width="1.0"/>
           <path id="arrow"
             d="M 11.500037,31.436501 C 11.940474,20.09759 22.043105,11.32322 32.158766,21.979434 L 37.068811,17.246167 C 37.068811,17.246167 37.088388,32 37.088388,32 L 22.160133,31.978069 C 22.160133,31.978069 26.997745,27.140456 26.997745,27.140456 C 18.528582,18.264221 13.291696,25.230495 11.500037,31.436501 z"
             style="fill:#404040;"/>
          </a>
         </g>
        </svg>
</svg>
