<?xml version="1.0" encoding="UTF-8" standalone="no"?>
<!DOCTYPE svg PUBLIC "-//W3C//DTD SVG 1.1//EN"
 "http://www.w3.org/Graphics/SVG/1.1/DTD/svg11.dtd">
<!-- Generated by graphviz version 2.36.0 (20140111.2315)
 -->
<!-- Title: /home/travis/build/AliceO2Group/AliceO2/Detectors/ITSMFT/common/reconstruction/src/Clusterer.cxx Pages: 1 -->
<svg width="2228pt" height="526pt"
 viewBox="0.00 0.00 2227.89 526.00" xmlns="http://www.w3.org/2000/svg" xmlns:xlink="http://www.w3.org/1999/xlink">
<g id="graph0" class="graph" transform="scale(1 1) rotate(0) translate(4 522)">
<title>/home/travis/build/AliceO2Group/AliceO2/Detectors/ITSMFT/common/reconstruction/src/Clusterer.cxx</title>
<!-- Node1 -->
<g id="node1" class="node"><title>Node1</title>
<polygon fill="#bfbfbf" stroke="black" points="1373.5,-465 1373.5,-517 1532.5,-517 1532.5,-465 1373.5,-465"/>
<text text-anchor="start" x="1381.5" y="-505" font-family="Helvetica,sans-Serif" font-size="10.00">/home/travis/build</text>
<text text-anchor="start" x="1381.5" y="-494" font-family="Helvetica,sans-Serif" font-size="10.00">/AliceO2Group/AliceO2</text>
<text text-anchor="start" x="1381.5" y="-483" font-family="Helvetica,sans-Serif" font-size="10.00">/Detectors/ITSMFT/common</text>
<text text-anchor="middle" x="1453" y="-472" font-family="Helvetica,sans-Serif" font-size="10.00">/reconstruction/src/Clusterer.cxx</text>
</g>
<!-- Node2 -->
<g id="node2" class="node"><title>Node2</title>
<polygon fill="none" stroke="#bfbfbf" points="755,-402.5 755,-421.5 811,-421.5 811,-402.5 755,-402.5"/>
<text text-anchor="middle" x="783" y="-409.5" font-family="Helvetica,sans-Serif" font-size="10.00">algorithm</text>
</g>
<!-- Node1&#45;&gt;Node2 -->
<g id="edge1" class="edge"><title>Node1&#45;&gt;Node2</title>
<path fill="none" stroke="midnightblue" d="M1373.2,-488.348C1252.95,-484.467 1018.76,-471.473 825,-428 821.116,-427.129 817.099,-426.002 813.158,-424.759"/>
<polygon fill="midnightblue" stroke="midnightblue" points="814.233,-421.428 803.639,-421.504 811.969,-428.051 814.233,-421.428"/>
</g>
<!-- Node3 -->
<g id="node3" class="node"><title>Node3</title>
<polygon fill="none" stroke="#bfbfbf" points="777.5,-142.5 777.5,-161.5 848.5,-161.5 848.5,-142.5 777.5,-142.5"/>
<text text-anchor="middle" x="813" y="-149.5" font-family="Helvetica,sans-Serif" font-size="10.00">FairLogger.h</text>
</g>
<!-- Node1&#45;&gt;Node3 -->
<g id="edge2" class="edge"><title>Node1&#45;&gt;Node3</title>
<path fill="none" stroke="midnightblue" d="M1373.36,-487.768C1207.23,-480.943 839,-453.571 839,-345 839,-345 839,-345 839,-275 839,-237.609 827.173,-195.16 819.473,-171.484"/>
<polygon fill="midnightblue" stroke="midnightblue" points="822.7,-170.099 816.188,-161.742 816.067,-172.336 822.7,-170.099"/>
</g>
<!-- Node4 -->
<g id="node4" class="node"><title>Node4</title>
<g id="a_node4"><a xlink:href="../../d6/d04/ITSMFT_2common_2reconstruction_2include_2ITSMFTReconstruction_2Clusterer_8h.html" target="_top" xlink:title="ITSMFTReconstruction\l/Clusterer.h">
<polygon fill="none" stroke="black" points="1557.5,-397 1557.5,-427 1676.5,-427 1676.5,-397 1557.5,-397"/>
<text text-anchor="start" x="1565.5" y="-415" font-family="Helvetica,sans-Serif" font-size="10.00">ITSMFTReconstruction</text>
<text text-anchor="middle" x="1617" y="-404" font-family="Helvetica,sans-Serif" font-size="10.00">/Clusterer.h</text>
</a>
</g>
</g>
<!-- Node1&#45;&gt;Node4 -->
<g id="edge3" class="edge"><title>Node1&#45;&gt;Node4</title>
<path fill="none" stroke="midnightblue" d="M1506.7,-464.787C1529.97,-453.86 1556.71,-441.306 1578.04,-431.294"/>
<polygon fill="midnightblue" stroke="midnightblue" points="1579.55,-434.449 1587.12,-427.031 1576.58,-428.113 1579.55,-434.449"/>
</g>
<!-- Node5 -->
<g id="node5" class="node"><title>Node5</title>
<g id="a_node5"><a xlink:href="../../dc/de1/ITSMFT_2common_2reconstruction_2include_2ITSMFTReconstruction_2Cluster_8h.html" target="_top" xlink:title="ITSMFTReconstruction\l/Cluster.h">
<polygon fill="none" stroke="black" points="1278.5,-329 1278.5,-359 1397.5,-359 1397.5,-329 1278.5,-329"/>
<text text-anchor="start" x="1286.5" y="-347" font-family="Helvetica,sans-Serif" font-size="10.00">ITSMFTReconstruction</text>
<text text-anchor="middle" x="1338" y="-336" font-family="Helvetica,sans-Serif" font-size="10.00">/Cluster.h</text>
</a>
</g>
</g>
<!-- Node1&#45;&gt;Node5 -->
<g id="edge56" class="edge"><title>Node1&#45;&gt;Node5</title>
<path fill="none" stroke="midnightblue" d="M1399.35,-464.803C1383.99,-455.24 1368.56,-442.965 1358,-428 1345.83,-410.75 1341.01,-387.001 1339.13,-369.325"/>
<polygon fill="midnightblue" stroke="midnightblue" points="1342.61,-368.896 1338.3,-359.216 1335.63,-369.469 1342.61,-368.896"/>
</g>
<!-- Node39 -->
<g id="node39" class="node"><title>Node39</title>
<g id="a_node39"><a xlink:href="../../d7/dcd/MCCompLabel_8h.html" target="_top" xlink:title="SimulationDataFormat\l/MCCompLabel.h">
<polygon fill="none" stroke="black" points="1959,-137 1959,-167 2073,-167 2073,-137 1959,-137"/>
<text text-anchor="start" x="1967" y="-155" font-family="Helvetica,sans-Serif" font-size="10.00">SimulationDataFormat</text>
<text text-anchor="middle" x="2016" y="-144" font-family="Helvetica,sans-Serif" font-size="10.00">/MCCompLabel.h</text>
</a>
</g>
</g>
<!-- Node1&#45;&gt;Node39 -->
<g id="edge59" class="edge"><title>Node1&#45;&gt;Node39</title>
<path fill="none" stroke="midnightblue" d="M1532.78,-483.771C1675.55,-470.408 1960,-432.773 1960,-345 1960,-345 1960,-345 1960,-275 1960,-237.389 1982.25,-198.715 1998.71,-175.264"/>
<polygon fill="midnightblue" stroke="midnightblue" points="2001.62,-177.204 2004.67,-167.056 1995.96,-173.09 2001.62,-177.204"/>
</g>
<!-- Node42 -->
<g id="node42" class="node"><title>Node42</title>
<g id="a_node42"><a xlink:href="../../d3/dba/SegmentationAlpide_8h.html" target="_top" xlink:title="Definition of the SegmentationAlpide class. ">
<polygon fill="none" stroke="black" points="1366.5,-402.5 1366.5,-421.5 1539.5,-421.5 1539.5,-402.5 1366.5,-402.5"/>
<text text-anchor="middle" x="1453" y="-409.5" font-family="Helvetica,sans-Serif" font-size="10.00">ITSMFTBase/SegmentationAlpide.h</text>
</a>
</g>
</g>
<!-- Node1&#45;&gt;Node42 -->
<g id="edge57" class="edge"><title>Node1&#45;&gt;Node42</title>
<path fill="none" stroke="midnightblue" d="M1453,-464.787C1453,-454.069 1453,-441.785 1453,-431.871"/>
<polygon fill="midnightblue" stroke="midnightblue" points="1456.5,-431.558 1453,-421.558 1449.5,-431.558 1456.5,-431.558"/>
</g>
<!-- Node43 -->
<g id="node43" class="node"><title>Node43</title>
<g id="a_node43"><a xlink:href="../../db/d14/MCTruthContainer_8h.html" target="_top" xlink:title="Definition of a container to keep Monte Carlo truth external to simulation objects. ">
<polygon fill="none" stroke="black" points="2041,-397 2041,-427 2155,-427 2155,-397 2041,-397"/>
<text text-anchor="start" x="2049" y="-415" font-family="Helvetica,sans-Serif" font-size="10.00">SimulationDataFormat</text>
<text text-anchor="middle" x="2098" y="-404" font-family="Helvetica,sans-Serif" font-size="10.00">/MCTruthContainer.h</text>
</a>
</g>
</g>
<!-- Node1&#45;&gt;Node43 -->
<g id="edge60" class="edge"><title>Node1&#45;&gt;Node43</title>
<path fill="none" stroke="midnightblue" d="M1532.89,-480.542C1635.14,-468.425 1817.76,-446.746 1974,-428 1992.44,-425.788 2012.42,-423.377 2030.84,-421.148"/>
<polygon fill="midnightblue" stroke="midnightblue" points="2031.39,-424.607 2040.9,-419.931 2030.55,-417.658 2031.39,-424.607"/>
</g>
<!-- Node4&#45;&gt;Node5 -->
<g id="edge4" class="edge"><title>Node4&#45;&gt;Node5</title>
<path fill="none" stroke="midnightblue" d="M1557.49,-396.922C1513.51,-386.518 1453.5,-372.322 1407.34,-361.404"/>
<polygon fill="midnightblue" stroke="midnightblue" points="1407.96,-357.952 1397.42,-359.056 1406.34,-364.764 1407.96,-357.952"/>
</g>
<!-- Node16 -->
<g id="node16" class="node"><title>Node16</title>
<polygon fill="none" stroke="#bfbfbf" points="1603,-74.5 1603,-93.5 1659,-93.5 1659,-74.5 1603,-74.5"/>
<text text-anchor="middle" x="1631" y="-81.5" font-family="Helvetica,sans-Serif" font-size="10.00">Rtypes.h</text>
</g>
<!-- Node4&#45;&gt;Node16 -->
<g id="edge55" class="edge"><title>Node4&#45;&gt;Node16</title>
<path fill="none" stroke="midnightblue" d="M1676.64,-401.084C1700.51,-393.872 1725.68,-381.434 1740,-360 1749.78,-345.362 1740.59,-280.291 1732,-260 1711.43,-211.421 1682,-214.453 1657,-168 1645.85,-147.276 1638.64,-121.021 1634.7,-103.652"/>
<polygon fill="midnightblue" stroke="midnightblue" points="1638.08,-102.723 1632.58,-93.6682 1631.24,-104.177 1638.08,-102.723"/>
</g>
<!-- Node24 -->
<g id="node24" class="node"><title>Node24</title>
<polygon fill="none" stroke="#bfbfbf" points="1521,-142.5 1521,-161.5 1565,-161.5 1565,-142.5 1521,-142.5"/>
<text text-anchor="middle" x="1543" y="-149.5" font-family="Helvetica,sans-Serif" font-size="10.00">vector</text>
</g>
<!-- Node4&#45;&gt;Node24 -->
<g id="edge54" class="edge"><title>Node4&#45;&gt;Node24</title>
<path fill="none" stroke="midnightblue" d="M1560.11,-396.983C1541.17,-389.314 1522.09,-377.636 1511,-360 1472.63,-298.955 1512.89,-208.292 1533,-170.513"/>
<polygon fill="midnightblue" stroke="midnightblue" points="1536.09,-172.161 1537.84,-161.711 1529.96,-168.789 1536.09,-172.161"/>
</g>
<!-- Node33 -->
<g id="node33" class="node"><title>Node33</title>
<g id="a_node33"><a xlink:href="../../d0/d2d/common_2base_2include_2ITSMFTBase_2GeometryTGeo_8h.html" target="_top" xlink:title="ITSMFTBase/GeometryTGeo.h">
<polygon fill="none" stroke="black" points="1519.5,-334.5 1519.5,-353.5 1672.5,-353.5 1672.5,-334.5 1519.5,-334.5"/>
<text text-anchor="middle" x="1596" y="-341.5" font-family="Helvetica,sans-Serif" font-size="10.00">ITSMFTBase/GeometryTGeo.h</text>
</a>
</g>
</g>
<!-- Node4&#45;&gt;Node33 -->
<g id="edge40" class="edge"><title>Node4&#45;&gt;Node33</title>
<path fill="none" stroke="midnightblue" d="M1612.44,-396.679C1609.36,-386.999 1605.27,-374.123 1601.93,-363.645"/>
<polygon fill="midnightblue" stroke="midnightblue" points="1605.18,-362.296 1598.81,-353.828 1598.51,-364.419 1605.18,-362.296"/>
</g>
<!-- Node36 -->
<g id="node36" class="node"><title>Node36</title>
<g id="a_node36"><a xlink:href="../../df/d2e/PixelReader_8h.html" target="_top" xlink:title="Definition of the ITS pixel reader. ">
<polygon fill="none" stroke="black" points="1780.5,-261 1780.5,-291 1899.5,-291 1899.5,-261 1780.5,-261"/>
<text text-anchor="start" x="1788.5" y="-279" font-family="Helvetica,sans-Serif" font-size="10.00">ITSMFTReconstruction</text>
<text text-anchor="middle" x="1840" y="-268" font-family="Helvetica,sans-Serif" font-size="10.00">/PixelReader.h</text>
</a>
</g>
</g>
<!-- Node4&#45;&gt;Node36 -->
<g id="edge44" class="edge"><title>Node4&#45;&gt;Node36</title>
<path fill="none" stroke="midnightblue" d="M1676.58,-400.026C1707.31,-392.348 1744.27,-379.819 1773,-360 1795.82,-344.259 1814.86,-318.544 1826.74,-299.903"/>
<polygon fill="midnightblue" stroke="midnightblue" points="1829.87,-301.494 1832.13,-291.143 1823.91,-297.825 1829.87,-301.494"/>
</g>
<!-- Node41 -->
<g id="node41" class="node"><title>Node41</title>
<polygon fill="none" stroke="#bfbfbf" points="1691,-334.5 1691,-353.5 1731,-353.5 1731,-334.5 1691,-334.5"/>
<text text-anchor="middle" x="1711" y="-341.5" font-family="Helvetica,sans-Serif" font-size="10.00">utility</text>
</g>
<!-- Node4&#45;&gt;Node41 -->
<g id="edge53" class="edge"><title>Node4&#45;&gt;Node41</title>
<path fill="none" stroke="midnightblue" d="M1637.4,-396.679C1653.01,-385.713 1674.48,-370.645 1690.19,-359.609"/>
<polygon fill="midnightblue" stroke="midnightblue" points="1692.52,-362.249 1698.7,-353.638 1688.5,-356.52 1692.52,-362.249"/>
</g>
<!-- Node6 -->
<g id="node6" class="node"><title>Node6</title>
<g id="a_node6"><a xlink:href="../../d4/de2/BaseCluster_8h.html" target="_top" xlink:title="DetectorsBase/BaseCluster.h">
<polygon fill="none" stroke="black" points="1098.5,-266.5 1098.5,-285.5 1245.5,-285.5 1245.5,-266.5 1098.5,-266.5"/>
<text text-anchor="middle" x="1172" y="-273.5" font-family="Helvetica,sans-Serif" font-size="10.00">DetectorsBase/BaseCluster.h</text>
</a>
</g>
</g>
<!-- Node5&#45;&gt;Node6 -->
<g id="edge5" class="edge"><title>Node5&#45;&gt;Node6</title>
<path fill="none" stroke="midnightblue" d="M1302.39,-328.841C1272.9,-317.118 1231.42,-300.624 1203.22,-289.411"/>
<polygon fill="midnightblue" stroke="midnightblue" points="1204.42,-286.124 1193.84,-285.682 1201.84,-292.629 1204.42,-286.124"/>
</g>
<!-- Node7 -->
<g id="node7" class="node"><title>Node7</title>
<polygon fill="none" stroke="#bfbfbf" points="1221.5,-204.5 1221.5,-223.5 1280.5,-223.5 1280.5,-204.5 1221.5,-204.5"/>
<text text-anchor="middle" x="1251" y="-211.5" font-family="Helvetica,sans-Serif" font-size="10.00">TObject.h</text>
</g>
<!-- Node6&#45;&gt;Node7 -->
<g id="edge6" class="edge"><title>Node6&#45;&gt;Node7</title>
<path fill="none" stroke="midnightblue" d="M1183.32,-266.403C1195.87,-256.869 1216.35,-241.315 1231.5,-229.811"/>
<polygon fill="midnightblue" stroke="midnightblue" points="1233.86,-232.416 1239.7,-223.581 1229.62,-226.842 1233.86,-232.416"/>
</g>
<!-- Node8 -->
<g id="node8" class="node"><title>Node8</title>
<polygon fill="none" stroke="#bfbfbf" points="1191.5,-74.5 1191.5,-93.5 1232.5,-93.5 1232.5,-74.5 1191.5,-74.5"/>
<text text-anchor="middle" x="1212" y="-81.5" font-family="Helvetica,sans-Serif" font-size="10.00">bitset</text>
</g>
<!-- Node6&#45;&gt;Node8 -->
<g id="edge7" class="edge"><title>Node6&#45;&gt;Node8</title>
<path fill="none" stroke="midnightblue" d="M1173.82,-266.342C1179.91,-237.41 1199.65,-143.647 1208.1,-103.509"/>
<polygon fill="midnightblue" stroke="midnightblue" points="1211.53,-104.215 1210.17,-93.7085 1204.68,-102.773 1211.53,-104.215"/>
</g>
<!-- Node9 -->
<g id="node9" class="node"><title>Node9</title>
<polygon fill="none" stroke="#bfbfbf" points="1067,-204.5 1067,-223.5 1117,-223.5 1117,-204.5 1067,-204.5"/>
<text text-anchor="middle" x="1092" y="-211.5" font-family="Helvetica,sans-Serif" font-size="10.00">iomanip</text>
</g>
<!-- Node6&#45;&gt;Node9 -->
<g id="edge8" class="edge"><title>Node6&#45;&gt;Node9</title>
<path fill="none" stroke="midnightblue" d="M1160.54,-266.403C1147.83,-256.869 1127.09,-241.315 1111.75,-229.811"/>
<polygon fill="midnightblue" stroke="midnightblue" points="1113.54,-226.781 1103.44,-223.581 1109.34,-232.381 1113.54,-226.781"/>
</g>
<!-- Node10 -->
<g id="node10" class="node"><title>Node10</title>
<polygon fill="none" stroke="#bfbfbf" points="1135.5,-204.5 1135.5,-223.5 1164.5,-223.5 1164.5,-204.5 1135.5,-204.5"/>
<text text-anchor="middle" x="1150" y="-211.5" font-family="Helvetica,sans-Serif" font-size="10.00">ios</text>
</g>
<!-- Node6&#45;&gt;Node10 -->
<g id="edge9" class="edge"><title>Node6&#45;&gt;Node10</title>
<path fill="none" stroke="midnightblue" d="M1168.85,-266.403C1165.68,-257.76 1160.7,-244.17 1156.65,-233.134"/>
<polygon fill="midnightblue" stroke="midnightblue" points="1159.87,-231.764 1153.15,-223.581 1153.3,-234.174 1159.87,-231.764"/>
</g>
<!-- Node11 -->
<g id="node11" class="node"><title>Node11</title>
<polygon fill="none" stroke="#bfbfbf" points="0,-74.5 0,-93.5 54,-93.5 54,-74.5 0,-74.5"/>
<text text-anchor="middle" x="27" y="-81.5" font-family="Helvetica,sans-Serif" font-size="10.00">iostream</text>
</g>
<!-- Node6&#45;&gt;Node11 -->
<g id="edge10" class="edge"><title>Node6&#45;&gt;Node11</title>
<path fill="none" stroke="midnightblue" d="M1145.48,-266.496C1115.87,-256.839 1066.63,-240.299 1025,-224 967.179,-201.362 950.145,-200.116 897,-168 877.515,-156.225 878.307,-144.021 857,-136 691.698,-73.7752 235.367,-138.554 63,-100 59.9275,-99.3128 56.7834,-98.3803 53.6951,-97.3143"/>
<polygon fill="midnightblue" stroke="midnightblue" points="54.7638,-93.9742 44.1759,-93.5912 52.214,-100.493 54.7638,-93.9742"/>
</g>
<!-- Node12 -->
<g id="node12" class="node"><title>Node12</title>
<g id="a_node12"><a xlink:href="../../dd/d76/Cartesian3D_8h.html" target="_top" xlink:title="MathUtils/Cartesian3D.h">
<polygon fill="none" stroke="black" points="905.5,-142.5 905.5,-161.5 1030.5,-161.5 1030.5,-142.5 905.5,-142.5"/>
<text text-anchor="middle" x="968" y="-149.5" font-family="Helvetica,sans-Serif" font-size="10.00">MathUtils/Cartesian3D.h</text>
</a>
</g>
</g>
<!-- Node6&#45;&gt;Node12 -->
<g id="edge11" class="edge"><title>Node6&#45;&gt;Node12</title>
<path fill="none" stroke="midnightblue" d="M1148.45,-266.442C1124.79,-257.395 1087.68,-241.964 1058,-224 1030.79,-207.527 1002.47,-183.945 985.035,-168.554"/>
<polygon fill="midnightblue" stroke="midnightblue" points="987.189,-165.785 977.404,-161.723 982.521,-171 987.189,-165.785"/>
</g>
<!-- Node23 -->
<g id="node23" class="node"><title>Node23</title>
<g id="a_node23"><a xlink:href="../../d4/d20/DetMatrixCache_8h.html" target="_top" xlink:title="DetectorsBase/DetMatrixCache.h">
<polygon fill="none" stroke="black" points="1299,-204.5 1299,-223.5 1463,-223.5 1463,-204.5 1299,-204.5"/>
<text text-anchor="middle" x="1381" y="-211.5" font-family="Helvetica,sans-Serif" font-size="10.00">DetectorsBase/DetMatrixCache.h</text>
</a>
</g>
</g>
<!-- Node6&#45;&gt;Node23 -->
<g id="edge23" class="edge"><title>Node6&#45;&gt;Node23</title>
<path fill="none" stroke="midnightblue" d="M1201.94,-266.403C1238.57,-255.889 1300.7,-238.054 1341.28,-226.402"/>
<polygon fill="midnightblue" stroke="midnightblue" points="1342.46,-229.704 1351.11,-223.581 1340.53,-222.976 1342.46,-229.704"/>
</g>
<!-- Node12&#45;&gt;Node11 -->
<g id="edge22" class="edge"><title>Node12&#45;&gt;Node11</title>
<path fill="none" stroke="midnightblue" d="M930.187,-142.47C917.765,-139.98 903.849,-137.522 891,-136 525.21,-92.6638 422.54,-180.068 63,-100 59.9268,-99.3156 56.7824,-98.385 53.6938,-97.3201"/>
<polygon fill="midnightblue" stroke="midnightblue" points="54.7623,-93.9799 44.1743,-93.5981 52.2133,-100.499 54.7623,-93.9799"/>
</g>
<!-- Node13 -->
<g id="node13" class="node"><title>Node13</title>
<polygon fill="none" stroke="#bfbfbf" points="1024.5,-74.5 1024.5,-93.5 1173.5,-93.5 1173.5,-74.5 1024.5,-74.5"/>
<text text-anchor="middle" x="1099" y="-81.5" font-family="Helvetica,sans-Serif" font-size="10.00">Math/GenVector/Rotation3D.h</text>
</g>
<!-- Node12&#45;&gt;Node13 -->
<g id="edge12" class="edge"><title>Node12&#45;&gt;Node13</title>
<path fill="none" stroke="midnightblue" d="M985.126,-142.372C1007.49,-131.106 1046.84,-111.279 1072.92,-98.1403"/>
<polygon fill="midnightblue" stroke="midnightblue" points="1074.51,-101.256 1081.87,-93.6305 1071.36,-95.0042 1074.51,-101.256"/>
</g>
<!-- Node14 -->
<g id="node14" class="node"><title>Node14</title>
<polygon fill="none" stroke="#bfbfbf" points="72,-74.5 72,-93.5 228,-93.5 228,-74.5 72,-74.5"/>
<text text-anchor="middle" x="150" y="-81.5" font-family="Helvetica,sans-Serif" font-size="10.00">Math/GenVector/Transform3D.h</text>
</g>
<!-- Node12&#45;&gt;Node14 -->
<g id="edge13" class="edge"><title>Node12&#45;&gt;Node14</title>
<path fill="none" stroke="midnightblue" d="M929.783,-142.48C917.461,-140.021 903.704,-137.58 891,-136 602.117,-100.084 526.255,-132.785 237,-100 226.156,-98.7709 214.614,-97.0651 203.601,-95.2429"/>
<polygon fill="midnightblue" stroke="midnightblue" points="204.118,-91.7805 193.671,-93.547 202.939,-98.6806 204.118,-91.7805"/>
</g>
<!-- Node15 -->
<g id="node15" class="node"><title>Node15</title>
<polygon fill="none" stroke="#bfbfbf" points="246,-74.5 246,-93.5 406,-93.5 406,-74.5 246,-74.5"/>
<text text-anchor="middle" x="326" y="-81.5" font-family="Helvetica,sans-Serif" font-size="10.00">Math/GenVector/Translation3D.h</text>
</g>
<!-- Node12&#45;&gt;Node15 -->
<g id="edge14" class="edge"><title>Node12&#45;&gt;Node15</title>
<path fill="none" stroke="midnightblue" d="M928.975,-142.479C916.855,-140.081 903.418,-137.673 891,-136 680.741,-107.668 625.603,-125.657 415,-100 404.163,-98.6798 392.633,-96.9671 381.589,-95.1735"/>
<polygon fill="midnightblue" stroke="midnightblue" points="382.057,-91.7032 371.617,-93.5124 380.906,-98.6081 382.057,-91.7032"/>
</g>
<!-- Node12&#45;&gt;Node16 -->
<g id="edge15" class="edge"><title>Node12&#45;&gt;Node16</title>
<path fill="none" stroke="midnightblue" d="M1030.77,-145.992C1132.99,-137.653 1341.71,-119.866 1518,-100 1542.84,-97.2004 1570.68,-93.5111 1592.52,-90.492"/>
<polygon fill="midnightblue" stroke="midnightblue" points="1593.29,-93.9181 1602.71,-89.0706 1592.32,-86.9851 1593.29,-93.9181"/>
</g>
<!-- Node17 -->
<g id="node17" class="node"><title>Node17</title>
<polygon fill="none" stroke="#bfbfbf" points="424,-74.5 424,-93.5 500,-93.5 500,-74.5 424,-74.5"/>
<text text-anchor="middle" x="462" y="-81.5" font-family="Helvetica,sans-Serif" font-size="10.00">TGeoMatrix.h</text>
</g>
<!-- Node12&#45;&gt;Node17 -->
<g id="edge16" class="edge"><title>Node12&#45;&gt;Node17</title>
<path fill="none" stroke="midnightblue" d="M928.162,-142.466C916.25,-140.124 903.132,-137.751 891,-136 722.656,-111.709 676.746,-133.549 510,-100 505.448,-99.0841 500.715,-97.9012 496.073,-96.602"/>
<polygon fill="midnightblue" stroke="midnightblue" points="496.747,-93.15 486.163,-93.63 494.736,-99.855 496.747,-93.15"/>
</g>
<!-- Node18 -->
<g id="node18" class="node"><title>Node18</title>
<polygon fill="none" stroke="#bfbfbf" points="518.5,-69 518.5,-99 669.5,-99 669.5,-69 518.5,-69"/>
<text text-anchor="start" x="526.5" y="-87" font-family="Helvetica,sans-Serif" font-size="10.00">Math/GenVector/Displacement</text>
<text text-anchor="middle" x="594" y="-76" font-family="Helvetica,sans-Serif" font-size="10.00">Vector3D.h</text>
</g>
<!-- Node12&#45;&gt;Node18 -->
<g id="edge17" class="edge"><title>Node12&#45;&gt;Node18</title>
<path fill="none" stroke="midnightblue" d="M925.27,-142.485C914.125,-140.317 902.121,-138.027 891,-136 800.1,-119.431 774.828,-116.49 679.603,-100.095"/>
<polygon fill="midnightblue" stroke="midnightblue" points="679.989,-96.6094 669.539,-98.3566 678.798,-103.507 679.989,-96.6094"/>
</g>
<!-- Node19 -->
<g id="node19" class="node"><title>Node19</title>
<polygon fill="none" stroke="#bfbfbf" points="688,-74.5 688,-93.5 864,-93.5 864,-74.5 688,-74.5"/>
<text text-anchor="middle" x="776" y="-81.5" font-family="Helvetica,sans-Serif" font-size="10.00">Math/GenVector/PositionVector3D.h</text>
</g>
<!-- Node12&#45;&gt;Node19 -->
<g id="edge18" class="edge"><title>Node12&#45;&gt;Node19</title>
<path fill="none" stroke="midnightblue" d="M942.899,-142.372C909.028,-130.728 848.551,-109.939 810.447,-96.8411"/>
<polygon fill="midnightblue" stroke="midnightblue" points="811.397,-93.4668 800.803,-93.5259 809.122,-100.087 811.397,-93.4668"/>
</g>
<!-- Node20 -->
<g id="node20" class="node"><title>Node20</title>
<g id="a_node20"><a xlink:href="../../d2/dd0/Cartesian2D_8h.html" target="_top" xlink:title="MathUtils/Cartesian2D.h">
<polygon fill="none" stroke="black" points="881.5,-74.5 881.5,-93.5 1006.5,-93.5 1006.5,-74.5 881.5,-74.5"/>
<text text-anchor="middle" x="944" y="-81.5" font-family="Helvetica,sans-Serif" font-size="10.00">MathUtils/Cartesian2D.h</text>
</a>
</g>
</g>
<!-- Node12&#45;&gt;Node20 -->
<g id="edge19" class="edge"><title>Node12&#45;&gt;Node20</title>
<path fill="none" stroke="midnightblue" d="M964.862,-142.372C961.289,-132.544 955.346,-116.202 950.715,-103.467"/>
<polygon fill="midnightblue" stroke="midnightblue" points="953.922,-102.043 947.215,-93.8411 947.343,-104.435 953.922,-102.043"/>
</g>
<!-- Node21 -->
<g id="node21" class="node"><title>Node21</title>
<polygon fill="none" stroke="#bfbfbf" points="777.5,-1 777.5,-31 928.5,-31 928.5,-1 777.5,-1"/>
<text text-anchor="start" x="785.5" y="-19" font-family="Helvetica,sans-Serif" font-size="10.00">Math/GenVector/Displacement</text>
<text text-anchor="middle" x="853" y="-8" font-family="Helvetica,sans-Serif" font-size="10.00">Vector2D.h</text>
</g>
<!-- Node20&#45;&gt;Node21 -->
<g id="edge20" class="edge"><title>Node20&#45;&gt;Node21</title>
<path fill="none" stroke="midnightblue" d="M932.103,-74.3717C919.221,-65.0286 898.22,-49.7966 881.093,-37.375"/>
<polygon fill="midnightblue" stroke="midnightblue" points="882.703,-34.2194 872.553,-31.1815 878.593,-39.8859 882.703,-34.2194"/>
</g>
<!-- Node22 -->
<g id="node22" class="node"><title>Node22</title>
<polygon fill="none" stroke="#bfbfbf" points="947,-6.5 947,-25.5 1123,-25.5 1123,-6.5 947,-6.5"/>
<text text-anchor="middle" x="1035" y="-13.5" font-family="Helvetica,sans-Serif" font-size="10.00">Math/GenVector/PositionVector2D.h</text>
</g>
<!-- Node20&#45;&gt;Node22 -->
<g id="edge21" class="edge"><title>Node20&#45;&gt;Node22</title>
<path fill="none" stroke="midnightblue" d="M955.897,-74.3717C970.884,-63.5015 996.862,-44.6602 1014.94,-31.5474"/>
<polygon fill="midnightblue" stroke="midnightblue" points="1017.06,-34.3349 1023.1,-25.6305 1012.95,-28.6684 1017.06,-34.3349"/>
</g>
<!-- Node23&#45;&gt;Node3 -->
<g id="edge39" class="edge"><title>Node23&#45;&gt;Node3</title>
<path fill="none" stroke="midnightblue" d="M1298.74,-204.929C1295.45,-204.614 1292.2,-204.303 1289,-204 1114.83,-187.483 1070.38,-191.399 897,-168 884.613,-166.328 871.266,-164.129 858.938,-161.932"/>
<polygon fill="midnightblue" stroke="midnightblue" points="859.331,-158.446 848.866,-160.098 858.077,-165.333 859.331,-158.446"/>
</g>
<!-- Node23&#45;&gt;Node12 -->
<g id="edge26" class="edge"><title>Node23&#45;&gt;Node12</title>
<path fill="none" stroke="midnightblue" d="M1322.27,-204.467C1246.88,-193.515 1116.31,-174.546 1036.49,-162.95"/>
<polygon fill="midnightblue" stroke="midnightblue" points="1036.93,-159.478 1026.53,-161.503 1035.92,-166.405 1036.93,-159.478"/>
</g>
<!-- Node23&#45;&gt;Node16 -->
<g id="edge38" class="edge"><title>Node23&#45;&gt;Node16</title>
<path fill="none" stroke="midnightblue" d="M1400.04,-204.397C1418.21,-195.927 1446.12,-182.224 1469,-168 1489.23,-155.422 1491.35,-147.885 1512,-136 1539.39,-120.231 1572.6,-106.397 1596.97,-97.1304"/>
<polygon fill="midnightblue" stroke="midnightblue" points="1598.36,-100.348 1606.5,-93.5674 1595.9,-93.7911 1598.36,-100.348"/>
</g>
<!-- Node23&#45;&gt;Node24 -->
<g id="edge24" class="edge"><title>Node23&#45;&gt;Node24</title>
<path fill="none" stroke="midnightblue" d="M1406.24,-204.416C1431.78,-195.629 1472.34,-181.402 1507,-168 1509.1,-167.187 1511.27,-166.331 1513.45,-165.458"/>
<polygon fill="midnightblue" stroke="midnightblue" points="1514.96,-168.62 1522.89,-161.594 1512.31,-162.141 1514.96,-168.62"/>
</g>
<!-- Node25 -->
<g id="node25" class="node"><title>Node25</title>
<polygon fill="none" stroke="#bfbfbf" points="1518,-6.5 1518,-25.5 1556,-25.5 1556,-6.5 1518,-6.5"/>
<text text-anchor="middle" x="1537" y="-13.5" font-family="Helvetica,sans-Serif" font-size="10.00">array</text>
</g>
<!-- Node23&#45;&gt;Node25 -->
<g id="edge25" class="edge"><title>Node23&#45;&gt;Node25</title>
<path fill="none" stroke="midnightblue" d="M1391.92,-204.224C1402.94,-195.288 1420.38,-180.947 1435,-168 1450.53,-154.24 1452.05,-147.974 1469,-136 1497.57,-115.814 1520.78,-129.863 1539,-100 1550.94,-80.4366 1547.28,-53.1567 1542.79,-35.2924"/>
<polygon fill="midnightblue" stroke="midnightblue" points="1546.11,-34.2025 1540.02,-25.5393 1539.38,-36.1151 1546.11,-34.2025"/>
</g>
<!-- Node26 -->
<g id="node26" class="node"><title>Node26</title>
<g id="a_node26"><a xlink:href="../../d6/d31/DetID_8h.html" target="_top" xlink:title="DetectorsBase/DetID.h">
<polygon fill="none" stroke="black" points="1307.5,-142.5 1307.5,-161.5 1426.5,-161.5 1426.5,-142.5 1307.5,-142.5"/>
<text text-anchor="middle" x="1367" y="-149.5" font-family="Helvetica,sans-Serif" font-size="10.00">DetectorsBase/DetID.h</text>
</a>
</g>
</g>
<!-- Node23&#45;&gt;Node26 -->
<g id="edge27" class="edge"><title>Node23&#45;&gt;Node26</title>
<path fill="none" stroke="midnightblue" d="M1378.99,-204.403C1377,-195.849 1373.87,-182.45 1371.31,-171.476"/>
<polygon fill="midnightblue" stroke="midnightblue" points="1374.68,-170.524 1369,-161.581 1367.87,-172.114 1374.68,-170.524"/>
</g>
<!-- Node26&#45;&gt;Node8 -->
<g id="edge30" class="edge"><title>Node26&#45;&gt;Node8</title>
<path fill="none" stroke="midnightblue" d="M1344.65,-142.477C1319.48,-132.737 1277.44,-116.061 1242,-100 1240.64,-99.384 1239.25,-98.7411 1237.86,-98.0828"/>
<polygon fill="midnightblue" stroke="midnightblue" points="1239.23,-94.8609 1228.71,-93.6372 1236.17,-101.157 1239.23,-94.8609"/>
</g>
<!-- Node26&#45;&gt;Node16 -->
<g id="edge28" class="edge"><title>Node26&#45;&gt;Node16</title>
<path fill="none" stroke="midnightblue" d="M1401.24,-142.439C1450.68,-130.079 1541.75,-107.312 1593.14,-94.4656"/>
<polygon fill="midnightblue" stroke="midnightblue" points="1594.01,-97.8555 1602.86,-92.0346 1592.31,-91.0645 1594.01,-97.8555"/>
</g>
<!-- Node26&#45;&gt;Node25 -->
<g id="edge29" class="edge"><title>Node26&#45;&gt;Node25</title>
<path fill="none" stroke="midnightblue" d="M1405.59,-142.495C1445.09,-133.028 1502.78,-116.831 1518,-100 1533.93,-82.3832 1537.35,-54.1894 1537.68,-35.6321"/>
<polygon fill="midnightblue" stroke="midnightblue" points="1541.18,-35.4673 1537.58,-25.5036 1534.18,-35.5389 1541.18,-35.4673"/>
</g>
<!-- Node27 -->
<g id="node27" class="node"><title>Node27</title>
<polygon fill="none" stroke="#bfbfbf" points="1943.5,-74.5 1943.5,-93.5 1992.5,-93.5 1992.5,-74.5 1943.5,-74.5"/>
<text text-anchor="middle" x="1968" y="-81.5" font-family="Helvetica,sans-Serif" font-size="10.00">cassert</text>
</g>
<!-- Node26&#45;&gt;Node27 -->
<g id="edge31" class="edge"><title>Node26&#45;&gt;Node27</title>
<path fill="none" stroke="midnightblue" d="M1426.55,-144.461C1550.86,-130.809 1834.6,-99.6492 1933.35,-88.8048"/>
<polygon fill="midnightblue" stroke="midnightblue" points="1933.84,-92.2729 1943.39,-87.7021 1933.07,-85.3147 1933.84,-92.2729"/>
</g>
<!-- Node28 -->
<g id="node28" class="node"><title>Node28</title>
<polygon fill="none" stroke="#bfbfbf" points="1463,-74.5 1463,-93.5 1509,-93.5 1509,-74.5 1463,-74.5"/>
<text text-anchor="middle" x="1486" y="-81.5" font-family="Helvetica,sans-Serif" font-size="10.00">cstdint</text>
</g>
<!-- Node26&#45;&gt;Node28 -->
<g id="edge32" class="edge"><title>Node26&#45;&gt;Node28</title>
<path fill="none" stroke="midnightblue" d="M1382.56,-142.372C1402.69,-131.205 1437.99,-111.627 1461.68,-98.4876"/>
<polygon fill="midnightblue" stroke="midnightblue" points="1463.39,-101.541 1470.44,-93.6305 1460,-95.4199 1463.39,-101.541"/>
</g>
<!-- Node29 -->
<g id="node29" class="node"><title>Node29</title>
<polygon fill="none" stroke="#bfbfbf" points="1251,-74.5 1251,-93.5 1313,-93.5 1313,-74.5 1251,-74.5"/>
<text text-anchor="middle" x="1282" y="-81.5" font-family="Helvetica,sans-Serif" font-size="10.00">type_traits</text>
</g>
<!-- Node26&#45;&gt;Node29 -->
<g id="edge33" class="edge"><title>Node26&#45;&gt;Node29</title>
<path fill="none" stroke="midnightblue" d="M1355.89,-142.372C1342.02,-131.6 1318.06,-113.002 1301.2,-99.9065"/>
<polygon fill="midnightblue" stroke="midnightblue" points="1303.16,-96.999 1293.11,-93.6305 1298.87,-102.528 1303.16,-96.999"/>
</g>
<!-- Node30 -->
<g id="node30" class="node"><title>Node30</title>
<g id="a_node30"><a xlink:href="../../d9/ded/Utils_8h.html" target="_top" xlink:title="DetectorsBase/Utils.h">
<polygon fill="none" stroke="black" points="1331.5,-74.5 1331.5,-93.5 1444.5,-93.5 1444.5,-74.5 1331.5,-74.5"/>
<text text-anchor="middle" x="1388" y="-81.5" font-family="Helvetica,sans-Serif" font-size="10.00">DetectorsBase/Utils.h</text>
</a>
</g>
</g>
<!-- Node26&#45;&gt;Node30 -->
<g id="edge34" class="edge"><title>Node26&#45;&gt;Node30</title>
<path fill="none" stroke="midnightblue" d="M1369.75,-142.372C1372.87,-132.544 1378.07,-116.202 1382.12,-103.467"/>
<polygon fill="midnightblue" stroke="midnightblue" points="1385.49,-104.432 1385.19,-93.8411 1378.82,-102.309 1385.49,-104.432"/>
</g>
<!-- Node30&#45;&gt;Node25 -->
<g id="edge37" class="edge"><title>Node30&#45;&gt;Node25</title>
<path fill="none" stroke="midnightblue" d="M1407.48,-74.3717C1433.28,-62.9447 1478.96,-42.7088 1508.6,-29.5791"/>
<polygon fill="midnightblue" stroke="midnightblue" points="1510.26,-32.672 1517.99,-25.4218 1507.43,-26.2717 1510.26,-32.672"/>
</g>
<!-- Node31 -->
<g id="node31" class="node"><title>Node31</title>
<g id="a_node31"><a xlink:href="../../d1/daa/Base_2include_2DetectorsBase_2Constants_8h.html" target="_top" xlink:title="DetectorsBase/Constants.h">
<polygon fill="none" stroke="black" points="1340,-6.5 1340,-25.5 1478,-25.5 1478,-6.5 1340,-6.5"/>
<text text-anchor="middle" x="1409" y="-13.5" font-family="Helvetica,sans-Serif" font-size="10.00">DetectorsBase/Constants.h</text>
</a>
</g>
</g>
<!-- Node30&#45;&gt;Node31 -->
<g id="edge35" class="edge"><title>Node30&#45;&gt;Node31</title>
<path fill="none" stroke="midnightblue" d="M1390.75,-74.3717C1393.87,-64.5443 1399.07,-48.2018 1403.12,-35.4673"/>
<polygon fill="midnightblue" stroke="midnightblue" points="1406.49,-36.4316 1406.19,-25.8411 1399.82,-34.3091 1406.49,-36.4316"/>
</g>
<!-- Node32 -->
<g id="node32" class="node"><title>Node32</title>
<polygon fill="none" stroke="#bfbfbf" points="1278,-6.5 1278,-25.5 1322,-25.5 1322,-6.5 1278,-6.5"/>
<text text-anchor="middle" x="1300" y="-13.5" font-family="Helvetica,sans-Serif" font-size="10.00">cmath</text>
</g>
<!-- Node30&#45;&gt;Node32 -->
<g id="edge36" class="edge"><title>Node30&#45;&gt;Node32</title>
<path fill="none" stroke="midnightblue" d="M1376.5,-74.3717C1362.13,-63.6004 1337.34,-45.0021 1319.88,-31.9065"/>
<polygon fill="midnightblue" stroke="midnightblue" points="1321.61,-28.8305 1311.51,-25.6305 1317.41,-34.4305 1321.61,-28.8305"/>
</g>
<!-- Node33&#45;&gt;Node23 -->
<g id="edge41" class="edge"><title>Node33&#45;&gt;Node23</title>
<path fill="none" stroke="midnightblue" d="M1581.56,-334.403C1544.99,-312.633 1448.5,-255.187 1404.04,-228.715"/>
<polygon fill="midnightblue" stroke="midnightblue" points="1405.76,-225.668 1395.38,-223.56 1402.18,-231.683 1405.76,-225.668"/>
</g>
<!-- Node34 -->
<g id="node34" class="node"><title>Node34</title>
<polygon fill="none" stroke="#bfbfbf" points="1654.5,-266.5 1654.5,-285.5 1723.5,-285.5 1723.5,-266.5 1654.5,-266.5"/>
<text text-anchor="middle" x="1689" y="-273.5" font-family="Helvetica,sans-Serif" font-size="10.00">TObjArray.h</text>
</g>
<!-- Node33&#45;&gt;Node34 -->
<g id="edge42" class="edge"><title>Node33&#45;&gt;Node34</title>
<path fill="none" stroke="midnightblue" d="M1608.16,-334.372C1623.48,-323.502 1650.02,-304.66 1668.5,-291.547"/>
<polygon fill="midnightblue" stroke="midnightblue" points="1670.71,-294.272 1676.84,-285.63 1666.66,-288.564 1670.71,-294.272"/>
</g>
<!-- Node35 -->
<g id="node35" class="node"><title>Node35</title>
<polygon fill="none" stroke="#bfbfbf" points="1595.5,-266.5 1595.5,-285.5 1636.5,-285.5 1636.5,-266.5 1595.5,-266.5"/>
<text text-anchor="middle" x="1616" y="-273.5" font-family="Helvetica,sans-Serif" font-size="10.00">string</text>
</g>
<!-- Node33&#45;&gt;Node35 -->
<g id="edge43" class="edge"><title>Node33&#45;&gt;Node35</title>
<path fill="none" stroke="midnightblue" d="M1598.61,-334.372C1601.59,-324.544 1606.54,-308.202 1610.4,-295.467"/>
<polygon fill="midnightblue" stroke="midnightblue" points="1613.77,-296.426 1613.32,-285.841 1607.07,-294.396 1613.77,-296.426"/>
</g>
<!-- Node36&#45;&gt;Node16 -->
<g id="edge45" class="edge"><title>Node36&#45;&gt;Node16</title>
<path fill="none" stroke="midnightblue" d="M1814.53,-260.911C1782.54,-242.41 1727.13,-207.591 1688,-168 1668.2,-147.965 1650.74,-120.263 1640.52,-102.486"/>
<polygon fill="midnightblue" stroke="midnightblue" points="1643.56,-100.755 1635.62,-93.7429 1637.46,-104.177 1643.56,-100.755"/>
</g>
<!-- Node37 -->
<g id="node37" class="node"><title>Node37</title>
<g id="a_node37"><a xlink:href="../../d0/d06/ITSMFT_2common_2base_2include_2ITSMFTBase_2Digit_8h.html" target="_top" xlink:title="ITSMFTBase/Digit.h">
<polygon fill="none" stroke="black" points="1786.5,-204.5 1786.5,-223.5 1893.5,-223.5 1893.5,-204.5 1786.5,-204.5"/>
<text text-anchor="middle" x="1840" y="-211.5" font-family="Helvetica,sans-Serif" font-size="10.00">ITSMFTBase/Digit.h</text>
</a>
</g>
</g>
<!-- Node36&#45;&gt;Node37 -->
<g id="edge46" class="edge"><title>Node36&#45;&gt;Node37</title>
<path fill="none" stroke="midnightblue" d="M1840,-260.781C1840,-252.781 1840,-242.689 1840,-234.017"/>
<polygon fill="midnightblue" stroke="midnightblue" points="1843.5,-233.73 1840,-223.731 1836.5,-233.731 1843.5,-233.73"/>
</g>
<!-- Node36&#45;&gt;Node39 -->
<g id="edge52" class="edge"><title>Node36&#45;&gt;Node39</title>
<path fill="none" stroke="midnightblue" d="M1860.53,-260.766C1891.8,-239.095 1951.45,-197.742 1987.09,-173.042"/>
<polygon fill="midnightblue" stroke="midnightblue" points="1989.37,-175.717 1995.6,-167.143 1985.38,-169.964 1989.37,-175.717"/>
</g>
<!-- Node37&#45;&gt;Node16 -->
<g id="edge51" class="edge"><title>Node37&#45;&gt;Node16</title>
<path fill="none" stroke="midnightblue" d="M1865.16,-204.378C1881.42,-197.343 1901.29,-185.645 1911,-168 1917.86,-155.539 1920.11,-146.921 1911,-136 1880.67,-99.6416 1738.81,-89.1382 1669.42,-86.1553"/>
<polygon fill="midnightblue" stroke="midnightblue" points="1669.46,-82.6543 1659.33,-85.7528 1669.18,-89.6487 1669.46,-82.6543"/>
</g>
<!-- Node38 -->
<g id="node38" class="node"><title>Node38</title>
<polygon fill="none" stroke="#bfbfbf" points="1807.5,-137 1807.5,-167 1902.5,-167 1902.5,-137 1807.5,-137"/>
<text text-anchor="start" x="1815.5" y="-155" font-family="Helvetica,sans-Serif" font-size="10.00">boost/serialization</text>
<text text-anchor="middle" x="1855" y="-144" font-family="Helvetica,sans-Serif" font-size="10.00">/base_object.hpp</text>
</g>
<!-- Node37&#45;&gt;Node38 -->
<g id="edge47" class="edge"><title>Node37&#45;&gt;Node38</title>
<path fill="none" stroke="midnightblue" d="M1842.15,-204.403C1843.93,-197.265 1846.56,-186.752 1848.98,-177.09"/>
<polygon fill="midnightblue" stroke="midnightblue" points="1852.43,-177.691 1851.46,-167.141 1845.64,-175.993 1852.43,-177.691"/>
</g>
<!-- Node37&#45;&gt;Node39 -->
<g id="edge48" class="edge"><title>Node37&#45;&gt;Node39</title>
<path fill="none" stroke="midnightblue" d="M1865.22,-204.403C1891.14,-195.564 1932.24,-181.553 1964.99,-170.39"/>
<polygon fill="midnightblue" stroke="midnightblue" points="1966.52,-173.565 1974.86,-167.025 1964.26,-166.939 1966.52,-173.565"/>
</g>
<!-- Node40 -->
<g id="node40" class="node"><title>Node40</title>
<polygon fill="none" stroke="#bfbfbf" points="1697,-142.5 1697,-161.5 1789,-161.5 1789,-142.5 1697,-142.5"/>
<text text-anchor="middle" x="1743" y="-149.5" font-family="Helvetica,sans-Serif" font-size="10.00">FairTimeStamp.h</text>
</g>
<!-- Node37&#45;&gt;Node40 -->
<g id="edge50" class="edge"><title>Node37&#45;&gt;Node40</title>
<path fill="none" stroke="midnightblue" d="M1826.1,-204.403C1810.26,-194.601 1784.13,-178.439 1765.4,-166.853"/>
<polygon fill="midnightblue" stroke="midnightblue" points="1767.22,-163.865 1756.87,-161.581 1763.54,-169.818 1767.22,-163.865"/>
</g>
<!-- Node39&#45;&gt;Node16 -->
<g id="edge49" class="edge"><title>Node39&#45;&gt;Node16</title>
<path fill="none" stroke="midnightblue" d="M1958.7,-138.651C1954.07,-137.728 1949.46,-136.833 1945,-136 1845.9,-117.494 1728.48,-99.4492 1669.25,-90.6169"/>
<polygon fill="midnightblue" stroke="midnightblue" points="1669.63,-87.1354 1659.22,-89.1275 1668.6,-94.0594 1669.63,-87.1354"/>
</g>
<!-- Node42&#45;&gt;Node16 -->
<g id="edge58" class="edge"><title>Node42&#45;&gt;Node16</title>
<path fill="none" stroke="midnightblue" d="M1457.76,-402.28C1481.65,-358.537 1588.56,-162.727 1621.38,-102.611"/>
<polygon fill="midnightblue" stroke="midnightblue" points="1624.59,-104.049 1626.31,-93.5952 1618.44,-100.695 1624.59,-104.049"/>
</g>
<!-- Node43&#45;&gt;Node27 -->
<g id="edge62" class="edge"><title>Node43&#45;&gt;Node27</title>
<path fill="none" stroke="midnightblue" d="M2145.47,-396.901C2164.68,-388.951 2185.46,-377.093 2199,-360 2222.56,-330.254 2219,-314.945 2219,-277 2219,-277 2219,-277 2219,-213 2219,-117.119 2071.85,-93.0242 2002.89,-86.997"/>
<polygon fill="midnightblue" stroke="midnightblue" points="2002.77,-83.4768 1992.52,-86.1765 2002.22,-90.455 2002.77,-83.4768"/>
</g>
<!-- Node44 -->
<g id="node44" class="node"><title>Node44</title>
<polygon fill="none" stroke="#bfbfbf" points="1988,-334.5 1988,-353.5 2050,-353.5 2050,-334.5 1988,-334.5"/>
<text text-anchor="middle" x="2019" y="-341.5" font-family="Helvetica,sans-Serif" font-size="10.00">TNamed.h</text>
</g>
<!-- Node43&#45;&gt;Node44 -->
<g id="edge61" class="edge"><title>Node43&#45;&gt;Node44</title>
<path fill="none" stroke="midnightblue" d="M2080.86,-396.679C2068.05,-385.981 2050.57,-371.377 2037.46,-360.422"/>
<polygon fill="midnightblue" stroke="midnightblue" points="2039.49,-357.554 2029.57,-353.828 2035,-362.926 2039.49,-357.554"/>
</g>
<!-- Node45 -->
<g id="node45" class="node"><title>Node45</title>
<polygon fill="none" stroke="#bfbfbf" points="2068.5,-334.5 2068.5,-353.5 2127.5,-353.5 2127.5,-334.5 2068.5,-334.5"/>
<text text-anchor="middle" x="2098" y="-341.5" font-family="Helvetica,sans-Serif" font-size="10.00">stdexcept</text>
</g>
<!-- Node43&#45;&gt;Node45 -->
<g id="edge63" class="edge"><title>Node43&#45;&gt;Node45</title>
<path fill="none" stroke="midnightblue" d="M2098,-396.679C2098,-387.101 2098,-374.394 2098,-363.977"/>
<polygon fill="midnightblue" stroke="midnightblue" points="2101.5,-363.828 2098,-353.828 2094.5,-363.828 2101.5,-363.828"/>
</g>
<!-- Node46 -->
<g id="node46" class="node"><title>Node46</title>
<polygon fill="none" stroke="#bfbfbf" points="2145.5,-334.5 2145.5,-353.5 2190.5,-353.5 2190.5,-334.5 2145.5,-334.5"/>
<text text-anchor="middle" x="2168" y="-341.5" font-family="Helvetica,sans-Serif" font-size="10.00">gsl/gsl</text>
</g>
<!-- Node43&#45;&gt;Node46 -->
<g id="edge64" class="edge"><title>Node43&#45;&gt;Node46</title>
<path fill="none" stroke="midnightblue" d="M2113.19,-396.679C2124.43,-386.082 2139.73,-371.655 2151.31,-360.736"/>
<polygon fill="midnightblue" stroke="midnightblue" points="2153.76,-363.235 2158.64,-353.828 2148.96,-358.142 2153.76,-363.235"/>
</g>
</g>
</svg>
