<?xml version="1.0" encoding="UTF-8" standalone="no"?>
<!DOCTYPE svg PUBLIC "-//W3C//DTD SVG 1.1//EN"
 "http://www.w3.org/Graphics/SVG/1.1/DTD/svg11.dtd">
<!-- Generated by graphviz version 2.36.0 (20140111.2315)
 -->
<!-- Title: /home/travis/build/AliceO2Group/AliceO2/Detectors/ITSMFT/ITS/reconstruction/include/ITSReconstruction/ClustererTask.h Pages: 1 -->
<svg width="2093pt" height="536pt"
 viewBox="0.00 0.00 2092.94 536.00" xmlns="http://www.w3.org/2000/svg" xmlns:xlink="http://www.w3.org/1999/xlink">
<g id="graph0" class="graph" transform="scale(1 1) rotate(0) translate(4 532)">
<title>/home/travis/build/AliceO2Group/AliceO2/Detectors/ITSMFT/ITS/reconstruction/include/ITSReconstruction/ClustererTask.h</title>
<!-- Node1 -->
<g id="node1" class="node"><title>Node1</title>
<polygon fill="#bfbfbf" stroke="black" points="1444,-464.5 1444,-527.5 1618,-527.5 1618,-464.5 1444,-464.5"/>
<text text-anchor="start" x="1452" y="-515.5" font-family="Helvetica,sans-Serif" font-size="10.00">/home/travis/build</text>
<text text-anchor="start" x="1452" y="-504.5" font-family="Helvetica,sans-Serif" font-size="10.00">/AliceO2Group/AliceO2</text>
<text text-anchor="start" x="1452" y="-493.5" font-family="Helvetica,sans-Serif" font-size="10.00">/Detectors/ITSMFT/ITS</text>
<text text-anchor="start" x="1452" y="-482.5" font-family="Helvetica,sans-Serif" font-size="10.00">/reconstruction/include</text>
<text text-anchor="middle" x="1531" y="-471.5" font-family="Helvetica,sans-Serif" font-size="10.00">/ITSReconstruction/ClustererTask.h</text>
</g>
<!-- Node2 -->
<g id="node2" class="node"><title>Node2</title>
<polygon fill="none" stroke="#bfbfbf" points="1395.5,-402.5 1395.5,-421.5 1458.5,-421.5 1458.5,-402.5 1395.5,-402.5"/>
<text text-anchor="middle" x="1427" y="-409.5" font-family="Helvetica,sans-Serif" font-size="10.00">FairTask.h</text>
</g>
<!-- Node1&#45;&gt;Node2 -->
<g id="edge1" class="edge"><title>Node1&#45;&gt;Node2</title>
<path fill="none" stroke="midnightblue" d="M1492.27,-464.466C1476.51,-452.035 1459,-438.229 1446.08,-428.048"/>
<polygon fill="midnightblue" stroke="midnightblue" points="1447.98,-425.083 1437.96,-421.64 1443.64,-430.58 1447.98,-425.083"/>
</g>
<!-- Node3 -->
<g id="node3" class="node"><title>Node3</title>
<g id="a_node3"><a xlink:href="../../df/d9a/ITS_2base_2include_2ITSBase_2GeometryTGeo_8h.html" target="_top" xlink:title="ITSBase/GeometryTGeo.h">
<polygon fill="none" stroke="black" points="859.5,-334.5 859.5,-353.5 992.5,-353.5 992.5,-334.5 859.5,-334.5"/>
<text text-anchor="middle" x="926" y="-341.5" font-family="Helvetica,sans-Serif" font-size="10.00">ITSBase/GeometryTGeo.h</text>
</a>
</g>
</g>
<!-- Node1&#45;&gt;Node3 -->
<g id="edge2" class="edge"><title>Node1&#45;&gt;Node3</title>
<path fill="none" stroke="midnightblue" d="M1519.85,-464.459C1509.77,-441.523 1492.54,-411.502 1467,-396 1428.25,-372.484 1142.77,-355.532 1002.86,-348.543"/>
<polygon fill="midnightblue" stroke="midnightblue" points="1002.79,-345.036 992.632,-348.037 1002.45,-352.027 1002.79,-345.036"/>
</g>
<!-- Node38 -->
<g id="node38" class="node"><title>Node38</title>
<g id="a_node38"><a xlink:href="../../df/d2e/PixelReader_8h.html" target="_top" xlink:title="Definition of the ITS pixel reader. ">
<polygon fill="none" stroke="black" points="1685.5,-261 1685.5,-291 1804.5,-291 1804.5,-261 1685.5,-261"/>
<text text-anchor="start" x="1693.5" y="-279" font-family="Helvetica,sans-Serif" font-size="10.00">ITSMFTReconstruction</text>
<text text-anchor="middle" x="1745" y="-268" font-family="Helvetica,sans-Serif" font-size="10.00">/PixelReader.h</text>
</a>
</g>
</g>
<!-- Node1&#45;&gt;Node38 -->
<g id="edge52" class="edge"><title>Node1&#45;&gt;Node38</title>
<path fill="none" stroke="midnightblue" d="M1590.11,-464.48C1607.93,-454.032 1626.99,-441.532 1643,-428 1673.33,-402.354 1678.68,-392.855 1701,-360 1714.03,-340.83 1726.15,-317.366 1734.36,-300.283"/>
<polygon fill="midnightblue" stroke="midnightblue" points="1737.62,-301.581 1738.72,-291.043 1731.28,-298.595 1737.62,-301.581"/>
</g>
<!-- Node43 -->
<g id="node43" class="node"><title>Node43</title>
<g id="a_node43"><a xlink:href="../../d6/d04/ITSMFT_2common_2reconstruction_2include_2ITSMFTReconstruction_2Clusterer_8h.html" target="_top" xlink:title="ITSMFTReconstruction\l/Clusterer.h">
<polygon fill="none" stroke="black" points="1515.5,-397 1515.5,-427 1634.5,-427 1634.5,-397 1515.5,-397"/>
<text text-anchor="start" x="1523.5" y="-415" font-family="Helvetica,sans-Serif" font-size="10.00">ITSMFTReconstruction</text>
<text text-anchor="middle" x="1575" y="-404" font-family="Helvetica,sans-Serif" font-size="10.00">/Clusterer.h</text>
</a>
</g>
</g>
<!-- Node1&#45;&gt;Node43 -->
<g id="edge61" class="edge"><title>Node1&#45;&gt;Node43</title>
<path fill="none" stroke="midnightblue" d="M1547.38,-464.466C1552.41,-455.103 1557.85,-444.96 1562.57,-436.173"/>
<polygon fill="midnightblue" stroke="midnightblue" points="1565.7,-437.738 1567.34,-427.272 1559.53,-434.428 1565.7,-437.738"/>
</g>
<!-- Node4 -->
<g id="node4" class="node"><title>Node4</title>
<polygon fill="none" stroke="#bfbfbf" points="1523,-142.5 1523,-161.5 1567,-161.5 1567,-142.5 1523,-142.5"/>
<text text-anchor="middle" x="1545" y="-149.5" font-family="Helvetica,sans-Serif" font-size="10.00">vector</text>
</g>
<!-- Node3&#45;&gt;Node4 -->
<g id="edge3" class="edge"><title>Node3&#45;&gt;Node4</title>
<path fill="none" stroke="midnightblue" d="M992.952,-342.487C1117.52,-340.577 1379.55,-331.797 1460,-292 1496.93,-273.732 1502.39,-259.674 1523,-224 1532.46,-207.616 1538.3,-186.709 1541.57,-171.834"/>
<polygon fill="midnightblue" stroke="midnightblue" points="1545.04,-172.303 1543.58,-161.81 1538.18,-170.927 1545.04,-172.303"/>
</g>
<!-- Node5 -->
<g id="node5" class="node"><title>Node5</title>
<polygon fill="none" stroke="#bfbfbf" points="305,-6.5 305,-25.5 343,-25.5 343,-6.5 305,-6.5"/>
<text text-anchor="middle" x="324" y="-13.5" font-family="Helvetica,sans-Serif" font-size="10.00">array</text>
</g>
<!-- Node3&#45;&gt;Node5 -->
<g id="edge4" class="edge"><title>Node3&#45;&gt;Node5</title>
<path fill="none" stroke="midnightblue" d="M859.21,-341.244C694.165,-336.472 276.408,-321.592 221,-292 182.731,-271.561 161,-258.385 161,-215 161,-215 161,-215 161,-151 161,-113.157 154.828,-96.257 180,-68 209.481,-34.9067 261.833,-23.2865 294.635,-19.2067"/>
<polygon fill="midnightblue" stroke="midnightblue" points="295.382,-22.6464 304.948,-18.0921 294.63,-15.6869 295.382,-22.6464"/>
</g>
<!-- Node6 -->
<g id="node6" class="node"><title>Node6</title>
<polygon fill="none" stroke="#bfbfbf" points="974.5,-204.5 974.5,-223.5 1015.5,-223.5 1015.5,-204.5 974.5,-204.5"/>
<text text-anchor="middle" x="995" y="-211.5" font-family="Helvetica,sans-Serif" font-size="10.00">string</text>
</g>
<!-- Node3&#45;&gt;Node6 -->
<g id="edge5" class="edge"><title>Node3&#45;&gt;Node6</title>
<path fill="none" stroke="midnightblue" d="M930.743,-334.202C942.023,-313.275 970.626,-260.216 985.574,-232.486"/>
<polygon fill="midnightblue" stroke="midnightblue" points="988.742,-233.986 990.406,-223.522 982.58,-230.664 988.742,-233.986"/>
</g>
<!-- Node7 -->
<g id="node7" class="node"><title>Node7</title>
<polygon fill="none" stroke="#bfbfbf" points="537,-74.5 537,-93.5 613,-93.5 613,-74.5 537,-74.5"/>
<text text-anchor="middle" x="575" y="-81.5" font-family="Helvetica,sans-Serif" font-size="10.00">TGeoMatrix.h</text>
</g>
<!-- Node3&#45;&gt;Node7 -->
<g id="edge6" class="edge"><title>Node3&#45;&gt;Node7</title>
<path fill="none" stroke="midnightblue" d="M859.266,-340.099C719.243,-332.417 402.596,-306.142 341,-224 312.775,-186.36 470.048,-123.172 541.312,-96.9572"/>
<polygon fill="midnightblue" stroke="midnightblue" points="542.572,-100.223 550.769,-93.51 540.175,-93.6466 542.572,-100.223"/>
</g>
<!-- Node8 -->
<g id="node8" class="node"><title>Node8</title>
<polygon fill="none" stroke="#bfbfbf" points="897.5,-204.5 897.5,-223.5 956.5,-223.5 956.5,-204.5 897.5,-204.5"/>
<text text-anchor="middle" x="927" y="-211.5" font-family="Helvetica,sans-Serif" font-size="10.00">TObject.h</text>
</g>
<!-- Node3&#45;&gt;Node8 -->
<g id="edge7" class="edge"><title>Node3&#45;&gt;Node8</title>
<path fill="none" stroke="midnightblue" d="M926.069,-334.202C926.23,-313.551 926.636,-261.606 926.855,-233.594"/>
<polygon fill="midnightblue" stroke="midnightblue" points="930.355,-233.549 926.933,-223.522 923.355,-233.495 930.355,-233.549"/>
</g>
<!-- Node9 -->
<g id="node9" class="node"><title>Node9</title>
<g id="a_node9"><a xlink:href="../../d6/d31/DetID_8h.html" target="_top" xlink:title="DetectorsBase/DetID.h">
<polygon fill="none" stroke="black" points="232.5,-142.5 232.5,-161.5 351.5,-161.5 351.5,-142.5 232.5,-142.5"/>
<text text-anchor="middle" x="292" y="-149.5" font-family="Helvetica,sans-Serif" font-size="10.00">DetectorsBase/DetID.h</text>
</a>
</g>
</g>
<!-- Node3&#45;&gt;Node9 -->
<g id="edge8" class="edge"><title>Node3&#45;&gt;Node9</title>
<path fill="none" stroke="midnightblue" d="M859.228,-343.072C694.974,-342.555 281.568,-336.773 240,-292 213.389,-263.337 224.858,-240.061 240,-204 246.164,-189.321 258.843,-176.744 270.138,-167.753"/>
<polygon fill="midnightblue" stroke="midnightblue" points="272.457,-170.389 278.374,-161.601 268.268,-164.781 272.457,-170.389"/>
</g>
<!-- Node10 -->
<g id="node10" class="node"><title>Node10</title>
<polygon fill="none" stroke="#bfbfbf" points="1729,-74.5 1729,-93.5 1785,-93.5 1785,-74.5 1729,-74.5"/>
<text text-anchor="middle" x="1757" y="-81.5" font-family="Helvetica,sans-Serif" font-size="10.00">Rtypes.h</text>
</g>
<!-- Node3&#45;&gt;Node10 -->
<g id="edge51" class="edge"><title>Node3&#45;&gt;Node10</title>
<path fill="none" stroke="midnightblue" d="M992.567,-342.829C1122.99,-341.557 1407.03,-333.897 1494,-292 1580.38,-250.388 1564.66,-191.279 1643,-136 1650.33,-130.825 1695.87,-111.009 1727.13,-97.656"/>
<polygon fill="midnightblue" stroke="midnightblue" points="1728.88,-100.714 1736.7,-93.5745 1726.13,-94.2746 1728.88,-100.714"/>
</g>
<!-- Node15 -->
<g id="node15" class="node"><title>Node15</title>
<g id="a_node15"><a xlink:href="../../d9/ded/Utils_8h.html" target="_top" xlink:title="DetectorsBase/Utils.h">
<polygon fill="none" stroke="black" points="19.5,-74.5 19.5,-93.5 132.5,-93.5 132.5,-74.5 19.5,-74.5"/>
<text text-anchor="middle" x="76" y="-81.5" font-family="Helvetica,sans-Serif" font-size="10.00">DetectorsBase/Utils.h</text>
</a>
</g>
</g>
<!-- Node3&#45;&gt;Node15 -->
<g id="edge19" class="edge"><title>Node3&#45;&gt;Node15</title>
<path fill="none" stroke="midnightblue" d="M859.372,-342.805C681.104,-341.706 202.915,-334.761 147,-292 86.5875,-245.799 77.2415,-145.282 76.038,-103.644"/>
<polygon fill="midnightblue" stroke="midnightblue" points="79.5363,-103.498 75.8788,-93.5548 72.5371,-103.609 79.5363,-103.498"/>
</g>
<!-- Node18 -->
<g id="node18" class="node"><title>Node18</title>
<g id="a_node18"><a xlink:href="../../db/dcc/Detectors_2Base_2include_2DetectorsBase_2GeometryManager_8h.html" target="_top" xlink:title="DetectorsBase/GeometryManager.h">
<polygon fill="none" stroke="black" points="582.5,-266.5 582.5,-285.5 755.5,-285.5 755.5,-266.5 582.5,-266.5"/>
<text text-anchor="middle" x="669" y="-273.5" font-family="Helvetica,sans-Serif" font-size="10.00">DetectorsBase/GeometryManager.h</text>
</a>
</g>
</g>
<!-- Node3&#45;&gt;Node18 -->
<g id="edge20" class="edge"><title>Node3&#45;&gt;Node18</title>
<path fill="none" stroke="midnightblue" d="M892.665,-334.439C846.445,-322.57 762.855,-301.103 711.991,-288.041"/>
<polygon fill="midnightblue" stroke="midnightblue" points="712.832,-284.643 702.276,-285.546 711.091,-291.423 712.832,-284.643"/>
</g>
<!-- Node35 -->
<g id="node35" class="node"><title>Node35</title>
<g id="a_node35"><a xlink:href="../../d0/d2d/common_2base_2include_2ITSMFTBase_2GeometryTGeo_8h.html" target="_top" xlink:title="ITSMFTBase/GeometryTGeo.h">
<polygon fill="none" stroke="black" points="992.5,-266.5 992.5,-285.5 1145.5,-285.5 1145.5,-266.5 992.5,-266.5"/>
<text text-anchor="middle" x="1069" y="-273.5" font-family="Helvetica,sans-Serif" font-size="10.00">ITSMFTBase/GeometryTGeo.h</text>
</a>
</g>
</g>
<!-- Node3&#45;&gt;Node35 -->
<g id="edge41" class="edge"><title>Node3&#45;&gt;Node35</title>
<path fill="none" stroke="midnightblue" d="M944.695,-334.372C969.21,-323.057 1012.44,-303.105 1040.9,-289.968"/>
<polygon fill="midnightblue" stroke="midnightblue" points="1042.69,-292.999 1050.3,-285.63 1039.75,-286.643 1042.69,-292.999"/>
</g>
<!-- Node9&#45;&gt;Node5 -->
<g id="edge10" class="edge"><title>Node9&#45;&gt;Node5</title>
<path fill="none" stroke="midnightblue" d="M329.193,-142.464C351.6,-135.198 378.359,-122.269 392,-100 399.429,-87.8722 398.36,-80.7207 392,-68 383.638,-51.2764 366.896,-38.6141 352.118,-30.0894"/>
<polygon fill="midnightblue" stroke="midnightblue" points="353.726,-26.9801 343.262,-25.317 350.405,-33.1422 353.726,-26.9801"/>
</g>
<!-- Node9&#45;&gt;Node10 -->
<g id="edge9" class="edge"><title>Node9&#45;&gt;Node10</title>
<path fill="none" stroke="midnightblue" d="M351.642,-147.086C404.122,-143.752 482.605,-139.033 551,-136 810.646,-124.485 1465.7,-153.663 1720,-100 1723.26,-99.313 1726.59,-98.3563 1729.86,-97.2552"/>
<polygon fill="midnightblue" stroke="midnightblue" points="1731.24,-100.476 1739.34,-93.6438 1728.75,-93.9349 1731.24,-100.476"/>
</g>
<!-- Node11 -->
<g id="node11" class="node"><title>Node11</title>
<polygon fill="none" stroke="#bfbfbf" points="439.5,-74.5 439.5,-93.5 480.5,-93.5 480.5,-74.5 439.5,-74.5"/>
<text text-anchor="middle" x="460" y="-81.5" font-family="Helvetica,sans-Serif" font-size="10.00">bitset</text>
</g>
<!-- Node9&#45;&gt;Node11 -->
<g id="edge11" class="edge"><title>Node9&#45;&gt;Node11</title>
<path fill="none" stroke="midnightblue" d="M315.172,-142.425C341.794,-132.502 386.733,-115.53 425,-100 426.884,-99.2355 428.82,-98.4383 430.769,-97.6272"/>
<polygon fill="midnightblue" stroke="midnightblue" points="432.585,-100.66 440.434,-93.5436 429.86,-94.2114 432.585,-100.66"/>
</g>
<!-- Node12 -->
<g id="node12" class="node"><title>Node12</title>
<polygon fill="none" stroke="#bfbfbf" points="269.5,-74.5 269.5,-93.5 318.5,-93.5 318.5,-74.5 269.5,-74.5"/>
<text text-anchor="middle" x="294" y="-81.5" font-family="Helvetica,sans-Serif" font-size="10.00">cassert</text>
</g>
<!-- Node9&#45;&gt;Node12 -->
<g id="edge12" class="edge"><title>Node9&#45;&gt;Node12</title>
<path fill="none" stroke="midnightblue" d="M292.261,-142.372C292.556,-132.643 293.045,-116.528 293.429,-103.85"/>
<polygon fill="midnightblue" stroke="midnightblue" points="296.927,-103.943 293.732,-93.8411 289.931,-103.73 296.927,-103.943"/>
</g>
<!-- Node13 -->
<g id="node13" class="node"><title>Node13</title>
<polygon fill="none" stroke="#bfbfbf" points="337,-74.5 337,-93.5 383,-93.5 383,-74.5 337,-74.5"/>
<text text-anchor="middle" x="360" y="-81.5" font-family="Helvetica,sans-Serif" font-size="10.00">cstdint</text>
</g>
<!-- Node9&#45;&gt;Node13 -->
<g id="edge13" class="edge"><title>Node9&#45;&gt;Node13</title>
<path fill="none" stroke="midnightblue" d="M300.89,-142.372C311.724,-131.856 330.243,-113.882 343.67,-100.85"/>
<polygon fill="midnightblue" stroke="midnightblue" points="346.153,-103.317 350.891,-93.8411 341.277,-98.2944 346.153,-103.317"/>
</g>
<!-- Node14 -->
<g id="node14" class="node"><title>Node14</title>
<polygon fill="none" stroke="#bfbfbf" points="189,-74.5 189,-93.5 251,-93.5 251,-74.5 189,-74.5"/>
<text text-anchor="middle" x="220" y="-81.5" font-family="Helvetica,sans-Serif" font-size="10.00">type_traits</text>
</g>
<!-- Node9&#45;&gt;Node14 -->
<g id="edge14" class="edge"><title>Node9&#45;&gt;Node14</title>
<path fill="none" stroke="midnightblue" d="M282.587,-142.372C271.116,-131.856 251.508,-113.882 237.29,-100.85"/>
<polygon fill="midnightblue" stroke="midnightblue" points="239.381,-98.0183 229.645,-93.8411 234.651,-103.178 239.381,-98.0183"/>
</g>
<!-- Node9&#45;&gt;Node15 -->
<g id="edge15" class="edge"><title>Node9&#45;&gt;Node15</title>
<path fill="none" stroke="midnightblue" d="M263.762,-142.372C225.332,-130.629 156.46,-109.585 113.664,-96.5083"/>
<polygon fill="midnightblue" stroke="midnightblue" points="114.489,-93.1009 103.903,-93.5259 112.444,-99.7954 114.489,-93.1009"/>
</g>
<!-- Node15&#45;&gt;Node5 -->
<g id="edge18" class="edge"><title>Node15&#45;&gt;Node5</title>
<path fill="none" stroke="midnightblue" d="M108.167,-74.4393C156.784,-61.5012 248.246,-37.1603 294.951,-24.7307"/>
<polygon fill="midnightblue" stroke="midnightblue" points="295.979,-28.0791 304.743,-22.125 294.179,-21.3145 295.979,-28.0791"/>
</g>
<!-- Node16 -->
<g id="node16" class="node"><title>Node16</title>
<g id="a_node16"><a xlink:href="../../d1/daa/Base_2include_2DetectorsBase_2Constants_8h.html" target="_top" xlink:title="DetectorsBase/Constants.h">
<polygon fill="none" stroke="black" points="62,-6.5 62,-25.5 200,-25.5 200,-6.5 62,-6.5"/>
<text text-anchor="middle" x="131" y="-13.5" font-family="Helvetica,sans-Serif" font-size="10.00">DetectorsBase/Constants.h</text>
</a>
</g>
</g>
<!-- Node15&#45;&gt;Node16 -->
<g id="edge16" class="edge"><title>Node15&#45;&gt;Node16</title>
<path fill="none" stroke="midnightblue" d="M83.1903,-74.3717C91.7892,-64.053 106.374,-46.5513 117.179,-33.5854"/>
<polygon fill="midnightblue" stroke="midnightblue" points="119.919,-35.764 123.632,-25.8411 114.542,-31.2827 119.919,-35.764"/>
</g>
<!-- Node17 -->
<g id="node17" class="node"><title>Node17</title>
<polygon fill="none" stroke="#bfbfbf" points="0,-6.5 0,-25.5 44,-25.5 44,-6.5 0,-6.5"/>
<text text-anchor="middle" x="22" y="-13.5" font-family="Helvetica,sans-Serif" font-size="10.00">cmath</text>
</g>
<!-- Node15&#45;&gt;Node17 -->
<g id="edge17" class="edge"><title>Node15&#45;&gt;Node17</title>
<path fill="none" stroke="midnightblue" d="M68.9404,-74.3717C60.4979,-64.053 46.1783,-46.5513 35.5699,-33.5854"/>
<polygon fill="midnightblue" stroke="midnightblue" points="38.2749,-31.3644 29.2336,-25.8411 32.8572,-35.7971 38.2749,-31.3644"/>
</g>
<!-- Node18&#45;&gt;Node8 -->
<g id="edge26" class="edge"><title>Node18&#45;&gt;Node8</title>
<path fill="none" stroke="midnightblue" d="M705.691,-266.467C753.747,-255.291 837.694,-235.769 887.229,-224.249"/>
<polygon fill="midnightblue" stroke="midnightblue" points="888.304,-227.592 897.252,-221.918 886.719,-220.774 888.304,-227.592"/>
</g>
<!-- Node18&#45;&gt;Node9 -->
<g id="edge27" class="edge"><title>Node18&#45;&gt;Node9</title>
<path fill="none" stroke="midnightblue" d="M582.472,-269.267C499.152,-262.389 380.171,-248.585 341,-224 321.04,-211.473 307.106,-187.523 299.33,-170.925"/>
<polygon fill="midnightblue" stroke="midnightblue" points="302.509,-169.459 295.285,-161.708 296.099,-172.271 302.509,-169.459"/>
</g>
<!-- Node19 -->
<g id="node19" class="node"><title>Node19</title>
<polygon fill="none" stroke="#bfbfbf" points="755,-204.5 755,-223.5 841,-223.5 841,-204.5 755,-204.5"/>
<text text-anchor="middle" x="798" y="-211.5" font-family="Helvetica,sans-Serif" font-size="10.00">TGeoManager.h</text>
</g>
<!-- Node18&#45;&gt;Node19 -->
<g id="edge21" class="edge"><title>Node18&#45;&gt;Node19</title>
<path fill="none" stroke="midnightblue" d="M687.483,-266.403C709.132,-256.334 745.213,-239.552 770.232,-227.915"/>
<polygon fill="midnightblue" stroke="midnightblue" points="771.961,-230.971 779.552,-223.581 769.008,-224.624 771.961,-230.971"/>
</g>
<!-- Node20 -->
<g id="node20" class="node"><title>Node20</title>
<polygon fill="none" stroke="#bfbfbf" points="358.5,-204.5 358.5,-223.5 441.5,-223.5 441.5,-204.5 358.5,-204.5"/>
<text text-anchor="middle" x="400" y="-211.5" font-family="Helvetica,sans-Serif" font-size="10.00">TGeoMaterial.h</text>
</g>
<!-- Node18&#45;&gt;Node20 -->
<g id="edge22" class="edge"><title>Node18&#45;&gt;Node20</title>
<path fill="none" stroke="midnightblue" d="M630.745,-266.467C582.742,-255.76 500.392,-237.392 448.151,-225.74"/>
<polygon fill="midnightblue" stroke="midnightblue" points="448.646,-222.264 438.124,-223.503 447.122,-229.097 448.646,-222.264"/>
</g>
<!-- Node21 -->
<g id="node21" class="node"><title>Node21</title>
<polygon fill="none" stroke="#bfbfbf" points="460,-204.5 460,-223.5 570,-223.5 570,-204.5 460,-204.5"/>
<text text-anchor="middle" x="515" y="-211.5" font-family="Helvetica,sans-Serif" font-size="10.00">TGeoPhysicalNode.h</text>
</g>
<!-- Node18&#45;&gt;Node21 -->
<g id="edge23" class="edge"><title>Node18&#45;&gt;Node21</title>
<path fill="none" stroke="midnightblue" d="M646.936,-266.403C620.633,-256.156 576.487,-238.956 546.575,-227.302"/>
<polygon fill="midnightblue" stroke="midnightblue" points="547.612,-223.95 537.024,-223.581 545.071,-230.472 547.612,-223.95"/>
</g>
<!-- Node22 -->
<g id="node22" class="node"><title>Node22</title>
<polygon fill="none" stroke="#bfbfbf" points="588.5,-204.5 588.5,-223.5 665.5,-223.5 665.5,-204.5 588.5,-204.5"/>
<text text-anchor="middle" x="627" y="-211.5" font-family="Helvetica,sans-Serif" font-size="10.00">TGeoShape.h</text>
</g>
<!-- Node18&#45;&gt;Node22 -->
<g id="edge24" class="edge"><title>Node18&#45;&gt;Node22</title>
<path fill="none" stroke="midnightblue" d="M662.982,-266.403C656.682,-257.403 646.629,-243.041 638.748,-231.782"/>
<polygon fill="midnightblue" stroke="midnightblue" points="641.608,-229.766 633.006,-223.581 635.874,-233.78 641.608,-229.766"/>
</g>
<!-- Node23 -->
<g id="node23" class="node"><title>Node23</title>
<polygon fill="none" stroke="#bfbfbf" points="683.5,-204.5 683.5,-223.5 736.5,-223.5 736.5,-204.5 683.5,-204.5"/>
<text text-anchor="middle" x="710" y="-211.5" font-family="Helvetica,sans-Serif" font-size="10.00">TMath.h</text>
</g>
<!-- Node18&#45;&gt;Node23 -->
<g id="edge25" class="edge"><title>Node18&#45;&gt;Node23</title>
<path fill="none" stroke="midnightblue" d="M674.874,-266.403C680.963,-257.493 690.645,-243.325 698.303,-232.118"/>
<polygon fill="midnightblue" stroke="midnightblue" points="701.384,-233.812 704.137,-223.581 695.605,-229.862 701.384,-233.812"/>
</g>
<!-- Node24 -->
<g id="node24" class="node"><title>Node24</title>
<polygon fill="none" stroke="#bfbfbf" points="559.5,-142.5 559.5,-161.5 630.5,-161.5 630.5,-142.5 559.5,-142.5"/>
<text text-anchor="middle" x="595" y="-149.5" font-family="Helvetica,sans-Serif" font-size="10.00">FairLogger.h</text>
</g>
<!-- Node18&#45;&gt;Node24 -->
<g id="edge28" class="edge"><title>Node18&#45;&gt;Node24</title>
<path fill="none" stroke="midnightblue" d="M582.432,-273.409C498.124,-269.81 378.486,-258.557 349,-224 343.23,-217.238 343.389,-210.894 349,-204 373.712,-173.639 484.721,-160.78 548.854,-155.807"/>
<polygon fill="midnightblue" stroke="midnightblue" points="549.392,-159.277 559.106,-155.048 548.875,-152.296 549.392,-159.277"/>
</g>
<!-- Node25 -->
<g id="node25" class="node"><title>Node25</title>
<g id="a_node25"><a xlink:href="../../dd/d76/Cartesian3D_8h.html" target="_top" xlink:title="MathUtils/Cartesian3D.h">
<polygon fill="none" stroke="black" points="1178.5,-142.5 1178.5,-161.5 1303.5,-161.5 1303.5,-142.5 1178.5,-142.5"/>
<text text-anchor="middle" x="1241" y="-149.5" font-family="Helvetica,sans-Serif" font-size="10.00">MathUtils/Cartesian3D.h</text>
</a>
</g>
</g>
<!-- Node18&#45;&gt;Node25 -->
<g id="edge29" class="edge"><title>Node18&#45;&gt;Node25</title>
<path fill="none" stroke="midnightblue" d="M707.866,-266.425C745.024,-257.674 802.292,-242.738 850,-224 868.131,-216.879 870.442,-209.921 889,-204 982.496,-174.167 1095.57,-161.72 1167.88,-156.569"/>
<polygon fill="midnightblue" stroke="midnightblue" points="1168.51,-160.035 1178.25,-155.861 1168.03,-153.051 1168.51,-160.035"/>
</g>
<!-- Node25&#45;&gt;Node7 -->
<g id="edge34" class="edge"><title>Node25&#45;&gt;Node7</title>
<path fill="none" stroke="midnightblue" d="M1178.48,-146.658C1032.13,-136.377 675.581,-110.614 622,-100 617.434,-99.0955 612.689,-97.8991 608.046,-96.5754"/>
<polygon fill="midnightblue" stroke="midnightblue" points="608.742,-93.1279 598.155,-93.5384 606.687,-99.8196 608.742,-93.1279"/>
</g>
<!-- Node25&#45;&gt;Node10 -->
<g id="edge33" class="edge"><title>Node25&#45;&gt;Node10</title>
<path fill="none" stroke="midnightblue" d="M1303.85,-146.496C1415.22,-138.152 1642.73,-119.369 1720,-100 1723.06,-99.2326 1726.2,-98.2637 1729.3,-97.1892"/>
<polygon fill="midnightblue" stroke="midnightblue" points="1730.81,-100.36 1738.89,-93.5147 1728.3,-93.8235 1730.81,-100.36"/>
</g>
<!-- Node26 -->
<g id="node26" class="node"><title>Node26</title>
<polygon fill="none" stroke="#bfbfbf" points="1346.5,-74.5 1346.5,-93.5 1495.5,-93.5 1495.5,-74.5 1346.5,-74.5"/>
<text text-anchor="middle" x="1421" y="-81.5" font-family="Helvetica,sans-Serif" font-size="10.00">Math/GenVector/Rotation3D.h</text>
</g>
<!-- Node25&#45;&gt;Node26 -->
<g id="edge30" class="edge"><title>Node25&#45;&gt;Node26</title>
<path fill="none" stroke="midnightblue" d="M1264.53,-142.372C1296.15,-130.778 1352.5,-110.116 1388.25,-97.0087"/>
<polygon fill="midnightblue" stroke="midnightblue" points="1389.56,-100.255 1397.75,-93.5259 1387.15,-93.6824 1389.56,-100.255"/>
</g>
<!-- Node27 -->
<g id="node27" class="node"><title>Node27</title>
<polygon fill="none" stroke="#bfbfbf" points="631,-74.5 631,-93.5 787,-93.5 787,-74.5 631,-74.5"/>
<text text-anchor="middle" x="709" y="-81.5" font-family="Helvetica,sans-Serif" font-size="10.00">Math/GenVector/Transform3D.h</text>
</g>
<!-- Node25&#45;&gt;Node27 -->
<g id="edge31" class="edge"><title>Node25&#45;&gt;Node27</title>
<path fill="none" stroke="midnightblue" d="M1178.22,-144.936C1091.91,-136.343 931.861,-119.482 796,-100 786.1,-98.5805 775.595,-96.9101 765.436,-95.2089"/>
<polygon fill="midnightblue" stroke="midnightblue" points="765.874,-91.7331 755.428,-93.5057 764.699,-98.6339 765.874,-91.7331"/>
</g>
<!-- Node28 -->
<g id="node28" class="node"><title>Node28</title>
<polygon fill="none" stroke="#bfbfbf" points="805,-74.5 805,-93.5 965,-93.5 965,-74.5 805,-74.5"/>
<text text-anchor="middle" x="885" y="-81.5" font-family="Helvetica,sans-Serif" font-size="10.00">Math/GenVector/Translation3D.h</text>
</g>
<!-- Node25&#45;&gt;Node28 -->
<g id="edge32" class="edge"><title>Node25&#45;&gt;Node28</title>
<path fill="none" stroke="midnightblue" d="M1194.82,-142.439C1129.73,-130.372 1011.13,-108.384 941.067,-95.3945"/>
<polygon fill="midnightblue" stroke="midnightblue" points="941.564,-91.9271 931.094,-93.5455 940.288,-98.8098 941.564,-91.9271"/>
</g>
<!-- Node29 -->
<g id="node29" class="node"><title>Node29</title>
<polygon fill="none" stroke="#bfbfbf" points="983.5,-69 983.5,-99 1134.5,-99 1134.5,-69 983.5,-69"/>
<text text-anchor="start" x="991.5" y="-87" font-family="Helvetica,sans-Serif" font-size="10.00">Math/GenVector/Displacement</text>
<text text-anchor="middle" x="1059" y="-76" font-family="Helvetica,sans-Serif" font-size="10.00">Vector3D.h</text>
</g>
<!-- Node25&#45;&gt;Node29 -->
<g id="edge35" class="edge"><title>Node25&#45;&gt;Node29</title>
<path fill="none" stroke="midnightblue" d="M1217.21,-142.372C1189.46,-132.311 1142.89,-115.422 1107.44,-102.566"/>
<polygon fill="midnightblue" stroke="midnightblue" points="1108.36,-99.1751 1097.76,-99.0562 1105.97,-105.756 1108.36,-99.1751"/>
</g>
<!-- Node30 -->
<g id="node30" class="node"><title>Node30</title>
<polygon fill="none" stroke="#bfbfbf" points="1153,-74.5 1153,-93.5 1329,-93.5 1329,-74.5 1153,-74.5"/>
<text text-anchor="middle" x="1241" y="-81.5" font-family="Helvetica,sans-Serif" font-size="10.00">Math/GenVector/PositionVector3D.h</text>
</g>
<!-- Node25&#45;&gt;Node30 -->
<g id="edge36" class="edge"><title>Node25&#45;&gt;Node30</title>
<path fill="none" stroke="midnightblue" d="M1241,-142.372C1241,-132.643 1241,-116.528 1241,-103.85"/>
<polygon fill="midnightblue" stroke="midnightblue" points="1244.5,-103.841 1241,-93.8411 1237.5,-103.841 1244.5,-103.841"/>
</g>
<!-- Node31 -->
<g id="node31" class="node"><title>Node31</title>
<g id="a_node31"><a xlink:href="../../d2/dd0/Cartesian2D_8h.html" target="_top" xlink:title="MathUtils/Cartesian2D.h">
<polygon fill="none" stroke="black" points="1513.5,-74.5 1513.5,-93.5 1638.5,-93.5 1638.5,-74.5 1513.5,-74.5"/>
<text text-anchor="middle" x="1576" y="-81.5" font-family="Helvetica,sans-Serif" font-size="10.00">MathUtils/Cartesian2D.h</text>
</a>
</g>
</g>
<!-- Node25&#45;&gt;Node31 -->
<g id="edge37" class="edge"><title>Node25&#45;&gt;Node31</title>
<path fill="none" stroke="midnightblue" d="M1286.18,-142.436C1338.6,-132.453 1427.62,-115.36 1504,-100 1511.06,-98.5808 1518.5,-97.0592 1525.81,-95.5491"/>
<polygon fill="midnightblue" stroke="midnightblue" points="1526.57,-98.9653 1535.66,-93.5079 1525.15,-92.1111 1526.57,-98.9653"/>
</g>
<!-- Node34 -->
<g id="node34" class="node"><title>Node34</title>
<polygon fill="none" stroke="#bfbfbf" points="1657,-74.5 1657,-93.5 1711,-93.5 1711,-74.5 1657,-74.5"/>
<text text-anchor="middle" x="1684" y="-81.5" font-family="Helvetica,sans-Serif" font-size="10.00">iostream</text>
</g>
<!-- Node25&#45;&gt;Node34 -->
<g id="edge40" class="edge"><title>Node25&#45;&gt;Node34</title>
<path fill="none" stroke="midnightblue" d="M1303.88,-145.118C1401.19,-135.674 1583.67,-116.512 1647,-100 1649.99,-99.2207 1653.06,-98.2582 1656.09,-97.1998"/>
<polygon fill="midnightblue" stroke="midnightblue" points="1657.41,-100.442 1665.5,-93.5997 1654.91,-93.9046 1657.41,-100.442"/>
</g>
<!-- Node32 -->
<g id="node32" class="node"><title>Node32</title>
<polygon fill="none" stroke="#bfbfbf" points="1409.5,-1 1409.5,-31 1560.5,-31 1560.5,-1 1409.5,-1"/>
<text text-anchor="start" x="1417.5" y="-19" font-family="Helvetica,sans-Serif" font-size="10.00">Math/GenVector/Displacement</text>
<text text-anchor="middle" x="1485" y="-8" font-family="Helvetica,sans-Serif" font-size="10.00">Vector2D.h</text>
</g>
<!-- Node31&#45;&gt;Node32 -->
<g id="edge38" class="edge"><title>Node31&#45;&gt;Node32</title>
<path fill="none" stroke="midnightblue" d="M1564.1,-74.3717C1551.22,-65.0286 1530.22,-49.7966 1513.09,-37.375"/>
<polygon fill="midnightblue" stroke="midnightblue" points="1514.7,-34.2194 1504.55,-31.1815 1510.59,-39.8859 1514.7,-34.2194"/>
</g>
<!-- Node33 -->
<g id="node33" class="node"><title>Node33</title>
<polygon fill="none" stroke="#bfbfbf" points="1579,-6.5 1579,-25.5 1755,-25.5 1755,-6.5 1579,-6.5"/>
<text text-anchor="middle" x="1667" y="-13.5" font-family="Helvetica,sans-Serif" font-size="10.00">Math/GenVector/PositionVector2D.h</text>
</g>
<!-- Node31&#45;&gt;Node33 -->
<g id="edge39" class="edge"><title>Node31&#45;&gt;Node33</title>
<path fill="none" stroke="midnightblue" d="M1587.9,-74.3717C1602.88,-63.5015 1628.86,-44.6602 1646.94,-31.5474"/>
<polygon fill="midnightblue" stroke="midnightblue" points="1649.06,-34.3349 1655.1,-25.6305 1644.95,-28.6684 1649.06,-34.3349"/>
</g>
<!-- Node35&#45;&gt;Node6 -->
<g id="edge50" class="edge"><title>Node35&#45;&gt;Node6</title>
<path fill="none" stroke="midnightblue" d="M1058.4,-266.403C1046.75,-256.958 1027.81,-241.606 1013.67,-230.134"/>
<polygon fill="midnightblue" stroke="midnightblue" points="1015.55,-227.16 1005.58,-223.581 1011.15,-232.597 1015.55,-227.16"/>
</g>
<!-- Node36 -->
<g id="node36" class="node"><title>Node36</title>
<g id="a_node36"><a xlink:href="../../d4/d20/DetMatrixCache_8h.html" target="_top" xlink:title="DetectorsBase/DetMatrixCache.h">
<polygon fill="none" stroke="black" points="1159,-204.5 1159,-223.5 1323,-223.5 1323,-204.5 1159,-204.5"/>
<text text-anchor="middle" x="1241" y="-211.5" font-family="Helvetica,sans-Serif" font-size="10.00">DetectorsBase/DetMatrixCache.h</text>
</a>
</g>
</g>
<!-- Node35&#45;&gt;Node36 -->
<g id="edge42" class="edge"><title>Node35&#45;&gt;Node36</title>
<path fill="none" stroke="midnightblue" d="M1093.64,-266.403C1123.28,-256.067 1173.18,-238.656 1206.6,-226.999"/>
<polygon fill="midnightblue" stroke="midnightblue" points="1208.11,-230.179 1216.4,-223.581 1205.81,-223.57 1208.11,-230.179"/>
</g>
<!-- Node37 -->
<g id="node37" class="node"><title>Node37</title>
<polygon fill="none" stroke="#bfbfbf" points="1033.5,-204.5 1033.5,-223.5 1102.5,-223.5 1102.5,-204.5 1033.5,-204.5"/>
<text text-anchor="middle" x="1068" y="-211.5" font-family="Helvetica,sans-Serif" font-size="10.00">TObjArray.h</text>
</g>
<!-- Node35&#45;&gt;Node37 -->
<g id="edge49" class="edge"><title>Node35&#45;&gt;Node37</title>
<path fill="none" stroke="midnightblue" d="M1068.86,-266.403C1068.72,-257.938 1068.5,-244.728 1068.31,-233.82"/>
<polygon fill="midnightblue" stroke="midnightblue" points="1071.81,-233.521 1068.14,-223.581 1064.81,-233.638 1071.81,-233.521"/>
</g>
<!-- Node36&#45;&gt;Node4 -->
<g id="edge43" class="edge"><title>Node36&#45;&gt;Node4</title>
<path fill="none" stroke="midnightblue" d="M1320.63,-204.471C1374.51,-197.527 1446.89,-185.898 1509,-168 1511.65,-167.235 1514.37,-166.334 1517.08,-165.358"/>
<polygon fill="midnightblue" stroke="midnightblue" points="1518.58,-168.528 1526.61,-161.613 1516.02,-162.013 1518.58,-168.528"/>
</g>
<!-- Node36&#45;&gt;Node5 -->
<g id="edge44" class="edge"><title>Node36&#45;&gt;Node5</title>
<path fill="none" stroke="midnightblue" d="M1217.54,-204.468C1171.65,-188.172 1066.51,-152.752 975,-136 778.948,-100.108 712.814,-174.621 528,-100 507.209,-91.6056 508.747,-78.6202 489,-68 444.681,-44.164 387.553,-29.6612 353.461,-22.499"/>
<polygon fill="midnightblue" stroke="midnightblue" points="353.743,-18.9851 343.247,-20.429 352.352,-25.8456 353.743,-18.9851"/>
</g>
<!-- Node36&#45;&gt;Node9 -->
<g id="edge46" class="edge"><title>Node36&#45;&gt;Node9</title>
<path fill="none" stroke="midnightblue" d="M1158.83,-207.225C1142.96,-206.134 1126.46,-205.017 1111,-204 833.629,-185.763 503.302,-165.699 361.87,-157.187"/>
<polygon fill="midnightblue" stroke="midnightblue" points="361.803,-153.677 351.611,-156.57 361.383,-160.664 361.803,-153.677"/>
</g>
<!-- Node36&#45;&gt;Node10 -->
<g id="edge47" class="edge"><title>Node36&#45;&gt;Node10</title>
<path fill="none" stroke="midnightblue" d="M1267.89,-204.429C1316.58,-189.13 1422.77,-156.78 1514,-136 1604.62,-115.358 1630.65,-125.604 1720,-100 1722.81,-99.1945 1725.7,-98.2471 1728.57,-97.2264"/>
<polygon fill="midnightblue" stroke="midnightblue" points="1729.99,-100.429 1738.07,-93.574 1727.48,-93.8949 1729.99,-100.429"/>
</g>
<!-- Node36&#45;&gt;Node24 -->
<g id="edge48" class="edge"><title>Node36&#45;&gt;Node24</title>
<path fill="none" stroke="midnightblue" d="M1158.86,-205.371C1021.39,-192.602 749.157,-167.318 640.93,-157.266"/>
<polygon fill="midnightblue" stroke="midnightblue" points="640.955,-153.753 630.675,-156.313 640.308,-160.723 640.955,-153.753"/>
</g>
<!-- Node36&#45;&gt;Node25 -->
<g id="edge45" class="edge"><title>Node36&#45;&gt;Node25</title>
<path fill="none" stroke="midnightblue" d="M1241,-204.403C1241,-195.938 1241,-182.728 1241,-171.82"/>
<polygon fill="midnightblue" stroke="midnightblue" points="1244.5,-171.581 1241,-161.581 1237.5,-171.581 1244.5,-171.581"/>
</g>
<!-- Node38&#45;&gt;Node10 -->
<g id="edge53" class="edge"><title>Node38&#45;&gt;Node10</title>
<path fill="none" stroke="midnightblue" d="M1804.59,-270.577C1917.84,-259.993 2146.29,-226.95 2069,-136 2034.25,-95.1067 1870.53,-86.9294 1795.16,-85.3477"/>
<polygon fill="midnightblue" stroke="midnightblue" points="1795.19,-81.8478 1785.13,-85.1655 1795.07,-88.8467 1795.19,-81.8478"/>
</g>
<!-- Node39 -->
<g id="node39" class="node"><title>Node39</title>
<g id="a_node39"><a xlink:href="../../d0/d06/ITSMFT_2common_2base_2include_2ITSMFTBase_2Digit_8h.html" target="_top" xlink:title="ITSMFTBase/Digit.h">
<polygon fill="none" stroke="black" points="1773.5,-204.5 1773.5,-223.5 1880.5,-223.5 1880.5,-204.5 1773.5,-204.5"/>
<text text-anchor="middle" x="1827" y="-211.5" font-family="Helvetica,sans-Serif" font-size="10.00">ITSMFTBase/Digit.h</text>
</a>
</g>
</g>
<!-- Node38&#45;&gt;Node39 -->
<g id="edge54" class="edge"><title>Node38&#45;&gt;Node39</title>
<path fill="none" stroke="midnightblue" d="M1764.43,-260.781C1777.21,-251.433 1793.89,-239.227 1806.81,-229.77"/>
<polygon fill="midnightblue" stroke="midnightblue" points="1809.06,-232.46 1815.07,-223.731 1804.93,-226.811 1809.06,-232.46"/>
</g>
<!-- Node41 -->
<g id="node41" class="node"><title>Node41</title>
<g id="a_node41"><a xlink:href="../../d7/dcd/MCCompLabel_8h.html" target="_top" xlink:title="SimulationDataFormat\l/MCCompLabel.h">
<polygon fill="none" stroke="black" points="1685,-137 1685,-167 1799,-167 1799,-137 1685,-137"/>
<text text-anchor="start" x="1693" y="-155" font-family="Helvetica,sans-Serif" font-size="10.00">SimulationDataFormat</text>
<text text-anchor="middle" x="1742" y="-144" font-family="Helvetica,sans-Serif" font-size="10.00">/MCCompLabel.h</text>
</a>
</g>
</g>
<!-- Node38&#45;&gt;Node41 -->
<g id="edge60" class="edge"><title>Node38&#45;&gt;Node41</title>
<path fill="none" stroke="midnightblue" d="M1744.64,-260.526C1744.14,-239.963 1743.21,-202.033 1742.59,-177.163"/>
<polygon fill="midnightblue" stroke="midnightblue" points="1746.09,-176.99 1742.35,-167.079 1739.09,-177.162 1746.09,-176.99"/>
</g>
<!-- Node39&#45;&gt;Node10 -->
<g id="edge59" class="edge"><title>Node39&#45;&gt;Node10</title>
<path fill="none" stroke="midnightblue" d="M1826.38,-204.36C1825,-189.504 1820.72,-158.545 1808,-136 1800.16,-122.095 1787.47,-109.39 1776.72,-100.139"/>
<polygon fill="midnightblue" stroke="midnightblue" points="1778.93,-97.4252 1768.98,-93.7753 1774.48,-102.831 1778.93,-97.4252"/>
</g>
<!-- Node40 -->
<g id="node40" class="node"><title>Node40</title>
<polygon fill="none" stroke="#bfbfbf" points="1965.5,-137 1965.5,-167 2060.5,-167 2060.5,-137 1965.5,-137"/>
<text text-anchor="start" x="1973.5" y="-155" font-family="Helvetica,sans-Serif" font-size="10.00">boost/serialization</text>
<text text-anchor="middle" x="2013" y="-144" font-family="Helvetica,sans-Serif" font-size="10.00">/base_object.hpp</text>
</g>
<!-- Node39&#45;&gt;Node40 -->
<g id="edge55" class="edge"><title>Node39&#45;&gt;Node40</title>
<path fill="none" stroke="midnightblue" d="M1853.65,-204.403C1881.29,-195.488 1925.24,-181.311 1959.99,-170.101"/>
<polygon fill="midnightblue" stroke="midnightblue" points="1961.08,-173.426 1969.52,-167.025 1958.93,-166.764 1961.08,-173.426"/>
</g>
<!-- Node39&#45;&gt;Node41 -->
<g id="edge56" class="edge"><title>Node39&#45;&gt;Node41</title>
<path fill="none" stroke="midnightblue" d="M1814.82,-204.403C1803.31,-196.277 1785.6,-183.779 1770.53,-173.142"/>
<polygon fill="midnightblue" stroke="midnightblue" points="1772.22,-170.048 1762.03,-167.141 1768.18,-175.767 1772.22,-170.048"/>
</g>
<!-- Node42 -->
<g id="node42" class="node"><title>Node42</title>
<polygon fill="none" stroke="#bfbfbf" points="1855,-142.5 1855,-161.5 1947,-161.5 1947,-142.5 1855,-142.5"/>
<text text-anchor="middle" x="1901" y="-149.5" font-family="Helvetica,sans-Serif" font-size="10.00">FairTimeStamp.h</text>
</g>
<!-- Node39&#45;&gt;Node42 -->
<g id="edge58" class="edge"><title>Node39&#45;&gt;Node42</title>
<path fill="none" stroke="midnightblue" d="M1837.6,-204.403C1849.25,-194.958 1868.19,-179.606 1882.33,-168.134"/>
<polygon fill="midnightblue" stroke="midnightblue" points="1884.85,-170.597 1890.42,-161.581 1880.45,-165.16 1884.85,-170.597"/>
</g>
<!-- Node41&#45;&gt;Node10 -->
<g id="edge57" class="edge"><title>Node41&#45;&gt;Node10</title>
<path fill="none" stroke="midnightblue" d="M1745.25,-136.679C1747.45,-126.999 1750.38,-114.123 1752.76,-103.645"/>
<polygon fill="midnightblue" stroke="midnightblue" points="1756.19,-104.355 1754.99,-93.8283 1749.36,-102.804 1756.19,-104.355"/>
</g>
<!-- Node43&#45;&gt;Node4 -->
<g id="edge74" class="edge"><title>Node43&#45;&gt;Node4</title>
<path fill="none" stroke="midnightblue" d="M1583.72,-396.882C1589.31,-386.969 1596.05,-373.179 1599,-360 1602.1,-346.12 1601.12,-342.063 1599,-328 1590.09,-268.939 1565.18,-202.326 1552.55,-171.045"/>
<polygon fill="midnightblue" stroke="midnightblue" points="1555.68,-169.446 1548.64,-161.525 1549.2,-172.105 1555.68,-169.446"/>
</g>
<!-- Node43&#45;&gt;Node10 -->
<g id="edge75" class="edge"><title>Node43&#45;&gt;Node10</title>
<path fill="none" stroke="midnightblue" d="M1591.2,-396.701C1615.1,-373.939 1657,-326.912 1657,-277 1657,-277 1657,-277 1657,-213 1657,-177.751 1655.36,-164.577 1676,-136 1688.31,-118.949 1708.25,-106.292 1725.26,-97.8523"/>
<polygon fill="midnightblue" stroke="midnightblue" points="1726.77,-101.009 1734.34,-93.5963 1723.8,-94.6698 1726.77,-101.009"/>
</g>
<!-- Node43&#45;&gt;Node35 -->
<g id="edge71" class="edge"><title>Node43&#45;&gt;Node35</title>
<path fill="none" stroke="midnightblue" d="M1521.81,-396.913C1420.68,-370.132 1202.61,-312.383 1110.94,-288.107"/>
<polygon fill="midnightblue" stroke="midnightblue" points="1111.74,-284.698 1101.18,-285.522 1109.95,-291.465 1111.74,-284.698"/>
</g>
<!-- Node43&#45;&gt;Node38 -->
<g id="edge72" class="edge"><title>Node43&#45;&gt;Node38</title>
<path fill="none" stroke="midnightblue" d="M1608.3,-396.898C1627.62,-387.865 1651.85,-375.032 1671,-360 1693.58,-342.278 1714.89,-317.147 1728.79,-299.189"/>
<polygon fill="midnightblue" stroke="midnightblue" points="1731.74,-301.096 1734.99,-291.014 1726.16,-296.865 1731.74,-301.096"/>
</g>
<!-- Node44 -->
<g id="node44" class="node"><title>Node44</title>
<g id="a_node44"><a xlink:href="../../dc/de1/ITSMFT_2common_2reconstruction_2include_2ITSMFTReconstruction_2Cluster_8h.html" target="_top" xlink:title="ITSMFTReconstruction\l/Cluster.h">
<polygon fill="none" stroke="black" points="1471.5,-329 1471.5,-359 1590.5,-359 1590.5,-329 1471.5,-329"/>
<text text-anchor="start" x="1479.5" y="-347" font-family="Helvetica,sans-Serif" font-size="10.00">ITSMFTReconstruction</text>
<text text-anchor="middle" x="1531" y="-336" font-family="Helvetica,sans-Serif" font-size="10.00">/Cluster.h</text>
</a>
</g>
</g>
<!-- Node43&#45;&gt;Node44 -->
<g id="edge62" class="edge"><title>Node43&#45;&gt;Node44</title>
<path fill="none" stroke="midnightblue" d="M1565.45,-396.679C1559.8,-388.203 1552.52,-377.276 1546.1,-367.655"/>
<polygon fill="midnightblue" stroke="midnightblue" points="1548.99,-365.672 1540.53,-359.293 1543.16,-369.555 1548.99,-365.672"/>
</g>
<!-- Node48 -->
<g id="node48" class="node"><title>Node48</title>
<polygon fill="none" stroke="#bfbfbf" points="1413,-334.5 1413,-353.5 1453,-353.5 1453,-334.5 1413,-334.5"/>
<text text-anchor="middle" x="1433" y="-341.5" font-family="Helvetica,sans-Serif" font-size="10.00">utility</text>
</g>
<!-- Node43&#45;&gt;Node48 -->
<g id="edge73" class="edge"><title>Node43&#45;&gt;Node48</title>
<path fill="none" stroke="midnightblue" d="M1542.99,-396.798C1520.52,-386.732 1489.8,-372.796 1463,-360 1461.65,-359.357 1460.28,-358.693 1458.89,-358.017"/>
<polygon fill="midnightblue" stroke="midnightblue" points="1460.28,-354.803 1449.77,-353.517 1457.19,-361.081 1460.28,-354.803"/>
</g>
<!-- Node45 -->
<g id="node45" class="node"><title>Node45</title>
<g id="a_node45"><a xlink:href="../../d4/de2/BaseCluster_8h.html" target="_top" xlink:title="DetectorsBase/BaseCluster.h">
<polygon fill="none" stroke="black" points="1304.5,-266.5 1304.5,-285.5 1451.5,-285.5 1451.5,-266.5 1304.5,-266.5"/>
<text text-anchor="middle" x="1378" y="-273.5" font-family="Helvetica,sans-Serif" font-size="10.00">DetectorsBase/BaseCluster.h</text>
</a>
</g>
</g>
<!-- Node44&#45;&gt;Node45 -->
<g id="edge63" class="edge"><title>Node44&#45;&gt;Node45</title>
<path fill="none" stroke="midnightblue" d="M1498.18,-328.841C1471.24,-317.221 1433.43,-300.912 1407.46,-289.706"/>
<polygon fill="midnightblue" stroke="midnightblue" points="1408.69,-286.429 1398.13,-285.682 1405.92,-292.857 1408.69,-286.429"/>
</g>
<!-- Node45&#45;&gt;Node8 -->
<g id="edge64" class="edge"><title>Node45&#45;&gt;Node8</title>
<path fill="none" stroke="midnightblue" d="M1304.35,-268.208C1223.84,-260.258 1090.88,-245.596 966.805,-223.971"/>
<polygon fill="midnightblue" stroke="midnightblue" points="967.201,-220.487 956.745,-222.199 965.986,-227.381 967.201,-220.487"/>
</g>
<!-- Node45&#45;&gt;Node11 -->
<g id="edge65" class="edge"><title>Node45&#45;&gt;Node11</title>
<path fill="none" stroke="midnightblue" d="M1321.59,-266.49C1274.75,-258.456 1206.84,-244.551 1150,-224 1131.68,-217.376 1129.5,-210.114 1111,-204 977.107,-159.742 617.346,-148.689 485,-100 483.771,-99.5478 482.535,-99.0338 481.306,-98.475"/>
<polygon fill="midnightblue" stroke="midnightblue" points="482.718,-95.2603 472.254,-93.6011 479.399,-101.424 482.718,-95.2603"/>
</g>
<!-- Node45&#45;&gt;Node25 -->
<g id="edge69" class="edge"><title>Node45&#45;&gt;Node25</title>
<path fill="none" stroke="midnightblue" d="M1374.03,-266.169C1367.18,-251.701 1351.93,-222.688 1332,-204 1314.56,-187.647 1290.92,-174.599 1272.1,-165.796"/>
<polygon fill="midnightblue" stroke="midnightblue" points="1273.31,-162.503 1262.76,-161.584 1270.43,-168.885 1273.31,-162.503"/>
</g>
<!-- Node45&#45;&gt;Node34 -->
<g id="edge68" class="edge"><title>Node45&#45;&gt;Node34</title>
<path fill="none" stroke="midnightblue" d="M1389.06,-266.449C1401.44,-256.683 1421.89,-239.984 1438,-224 1474.69,-187.602 1470.25,-163.512 1514,-136 1565.84,-103.399 1588.96,-119.539 1647,-100 1649.56,-99.1382 1652.2,-98.1911 1654.83,-97.2048"/>
<polygon fill="midnightblue" stroke="midnightblue" points="1656.16,-100.444 1664.2,-93.5427 1653.61,-93.9252 1656.16,-100.444"/>
</g>
<!-- Node45&#45;&gt;Node36 -->
<g id="edge70" class="edge"><title>Node45&#45;&gt;Node36</title>
<path fill="none" stroke="midnightblue" d="M1358.37,-266.403C1335.18,-256.245 1296.38,-239.255 1269.79,-227.607"/>
<polygon fill="midnightblue" stroke="midnightblue" points="1271.16,-224.386 1260.59,-223.581 1268.35,-230.798 1271.16,-224.386"/>
</g>
<!-- Node46 -->
<g id="node46" class="node"><title>Node46</title>
<polygon fill="none" stroke="#bfbfbf" points="1379,-204.5 1379,-223.5 1429,-223.5 1429,-204.5 1379,-204.5"/>
<text text-anchor="middle" x="1404" y="-211.5" font-family="Helvetica,sans-Serif" font-size="10.00">iomanip</text>
</g>
<!-- Node45&#45;&gt;Node46 -->
<g id="edge66" class="edge"><title>Node45&#45;&gt;Node46</title>
<path fill="none" stroke="midnightblue" d="M1381.73,-266.403C1385.51,-257.671 1391.48,-243.889 1396.29,-232.794"/>
<polygon fill="midnightblue" stroke="midnightblue" points="1399.52,-234.148 1400.28,-223.581 1393.09,-231.365 1399.52,-234.148"/>
</g>
<!-- Node47 -->
<g id="node47" class="node"><title>Node47</title>
<polygon fill="none" stroke="#bfbfbf" points="1485.5,-204.5 1485.5,-223.5 1514.5,-223.5 1514.5,-204.5 1485.5,-204.5"/>
<text text-anchor="middle" x="1500" y="-211.5" font-family="Helvetica,sans-Serif" font-size="10.00">ios</text>
</g>
<!-- Node45&#45;&gt;Node47 -->
<g id="edge67" class="edge"><title>Node45&#45;&gt;Node47</title>
<path fill="none" stroke="midnightblue" d="M1395.48,-266.403C1416.67,-255.98 1452.49,-238.363 1476.2,-226.707"/>
<polygon fill="midnightblue" stroke="midnightblue" points="1477.8,-229.817 1485.23,-222.263 1474.71,-223.535 1477.8,-229.817"/>
</g>
</g>
</svg>
