<?xml version="1.0" encoding="UTF-8" standalone="no"?>
<!DOCTYPE svg PUBLIC "-//W3C//DTD SVG 1.1//EN"
 "http://www.w3.org/Graphics/SVG/1.1/DTD/svg11.dtd">
<!-- Generated by graphviz version 2.36.0 (20140111.2315)
 -->
<!-- Title: /home/travis/build/AliceO2Group/AliceO2/Framework/Core/include/Framework/RemoteMetricsService.h Pages: 1 -->
<svg width="565pt" height="230pt"
 viewBox="0.00 0.00 565.00 230.00" xmlns="http://www.w3.org/2000/svg" xmlns:xlink="http://www.w3.org/1999/xlink">
<g id="graph0" class="graph" transform="scale(1 1) rotate(0) translate(4 226)">
<title>/home/travis/build/AliceO2Group/AliceO2/Framework/Core/include/Framework/RemoteMetricsService.h</title>
<!-- Node1 -->
<g id="node1" class="node"><title>Node1</title>
<polygon fill="#bfbfbf" stroke="black" points="309.5,-169 309.5,-221 488.5,-221 488.5,-169 309.5,-169"/>
<text text-anchor="start" x="317.5" y="-209" font-family="Helvetica,sans-Serif" font-size="10.00">/home/travis/build</text>
<text text-anchor="start" x="317.5" y="-198" font-family="Helvetica,sans-Serif" font-size="10.00">/AliceO2Group/AliceO2</text>
<text text-anchor="start" x="317.5" y="-187" font-family="Helvetica,sans-Serif" font-size="10.00">/Framework/Core/include</text>
<text text-anchor="middle" x="399" y="-176" font-family="Helvetica,sans-Serif" font-size="10.00">/Framework/RemoteMetricsService.h</text>
</g>
<!-- Node2 -->
<g id="node2" class="node"><title>Node2</title>
<g id="a_node2"><a xlink:href="../../d3/d26/MetricsService_8h.html" target="_top" xlink:title="Framework/MetricsService.h">
<polygon fill="none" stroke="black" points="328,-112.5 328,-131.5 470,-131.5 470,-112.5 328,-112.5"/>
<text text-anchor="middle" x="399" y="-119.5" font-family="Helvetica,sans-Serif" font-size="10.00">Framework/MetricsService.h</text>
</a>
</g>
</g>
<!-- Node1&#45;&gt;Node2 -->
<g id="edge1" class="edge"><title>Node1&#45;&gt;Node2</title>
<path fill="none" stroke="midnightblue" d="M399,-168.768C399,-159.89 399,-150.074 399,-141.816"/>
<polygon fill="midnightblue" stroke="midnightblue" points="402.5,-141.757 399,-131.757 395.5,-141.757 402.5,-141.757"/>
</g>
<!-- Node3 -->
<g id="node3" class="node"><title>Node3</title>
<g id="a_node3"><a xlink:href="../../de/d56/Variant_8h.html" target="_top" xlink:title="Framework/Variant.h">
<polygon fill="none" stroke="black" points="212.5,-56.5 212.5,-75.5 319.5,-75.5 319.5,-56.5 212.5,-56.5"/>
<text text-anchor="middle" x="266" y="-63.5" font-family="Helvetica,sans-Serif" font-size="10.00">Framework/Variant.h</text>
</a>
</g>
</g>
<!-- Node1&#45;&gt;Node3 -->
<g id="edge14" class="edge"><title>Node1&#45;&gt;Node3</title>
<path fill="none" stroke="midnightblue" d="M358.809,-168.988C343.6,-158.54 326.675,-145.656 313,-132 298.429,-117.449 285.009,-98.0203 276.272,-84.204"/>
<polygon fill="midnightblue" stroke="midnightblue" points="279.238,-82.3455 271.016,-75.6645 273.277,-86.0151 279.238,-82.3455"/>
</g>
<!-- Node12 -->
<g id="node12" class="node"><title>Node12</title>
<polygon fill="none" stroke="#bfbfbf" points="345.5,-56.5 345.5,-75.5 380.5,-75.5 380.5,-56.5 345.5,-56.5"/>
<text text-anchor="middle" x="363" y="-63.5" font-family="Helvetica,sans-Serif" font-size="10.00">map</text>
</g>
<!-- Node1&#45;&gt;Node12 -->
<g id="edge15" class="edge"><title>Node1&#45;&gt;Node12</title>
<path fill="none" stroke="midnightblue" d="M352.171,-168.757C338.987,-159.13 326.27,-146.831 319,-132 310.043,-113.726 326.511,-94.652 341.787,-81.9305"/>
<polygon fill="midnightblue" stroke="midnightblue" points="344.234,-84.4617 349.983,-75.562 339.939,-78.9343 344.234,-84.4617"/>
</g>
<!-- Node13 -->
<g id="node13" class="node"><title>Node13</title>
<polygon fill="none" stroke="#bfbfbf" points="415.5,-56.5 415.5,-75.5 456.5,-75.5 456.5,-56.5 415.5,-56.5"/>
<text text-anchor="middle" x="436" y="-63.5" font-family="Helvetica,sans-Serif" font-size="10.00">string</text>
</g>
<!-- Node1&#45;&gt;Node13 -->
<g id="edge16" class="edge"><title>Node1&#45;&gt;Node13</title>
<path fill="none" stroke="midnightblue" d="M445.829,-168.757C459.013,-159.13 471.73,-146.831 479,-132 487.894,-113.855 471.777,-94.7599 456.803,-81.9979"/>
<polygon fill="midnightblue" stroke="midnightblue" points="458.773,-79.0926 448.769,-75.6058 454.415,-84.5706 458.773,-79.0926"/>
</g>
<!-- Node14 -->
<g id="node14" class="node"><title>Node14</title>
<polygon fill="none" stroke="#bfbfbf" points="509,-56.5 509,-75.5 553,-75.5 553,-56.5 509,-56.5"/>
<text text-anchor="middle" x="531" y="-63.5" font-family="Helvetica,sans-Serif" font-size="10.00">vector</text>
</g>
<!-- Node1&#45;&gt;Node14 -->
<g id="edge17" class="edge"><title>Node1&#45;&gt;Node14</title>
<path fill="none" stroke="midnightblue" d="M447.901,-168.838C464.193,-158.874 481.589,-146.351 495,-132 507.774,-118.331 517.629,-99.2877 523.772,-85.3466"/>
<polygon fill="midnightblue" stroke="midnightblue" points="527.112,-86.4305 527.733,-75.8539 520.652,-83.7348 527.112,-86.4305"/>
</g>
<!-- Node2&#45;&gt;Node3 -->
<g id="edge2" class="edge"><title>Node2&#45;&gt;Node3</title>
<path fill="none" stroke="midnightblue" d="M377.926,-112.444C355.94,-103.517 321.266,-89.4387 296.336,-79.3168"/>
<polygon fill="midnightblue" stroke="midnightblue" points="297.558,-76.0355 286.976,-75.5164 294.924,-82.5213 297.558,-76.0355"/>
</g>
<!-- Node2&#45;&gt;Node12 -->
<g id="edge11" class="edge"><title>Node2&#45;&gt;Node12</title>
<path fill="none" stroke="midnightblue" d="M393.055,-112.083C388.023,-104.534 380.663,-93.4948 374.487,-84.2298"/>
<polygon fill="midnightblue" stroke="midnightblue" points="377.293,-82.1301 368.834,-75.7511 371.469,-86.0131 377.293,-82.1301"/>
</g>
<!-- Node2&#45;&gt;Node13 -->
<g id="edge12" class="edge"><title>Node2&#45;&gt;Node13</title>
<path fill="none" stroke="midnightblue" d="M405.11,-112.083C410.282,-104.534 417.846,-93.4948 424.194,-84.2298"/>
<polygon fill="midnightblue" stroke="midnightblue" points="427.239,-85.9787 430.004,-75.7511 421.464,-82.0221 427.239,-85.9787"/>
</g>
<!-- Node2&#45;&gt;Node14 -->
<g id="edge13" class="edge"><title>Node2&#45;&gt;Node14</title>
<path fill="none" stroke="midnightblue" d="M419.916,-112.444C441.736,-103.517 476.15,-89.4387 500.892,-79.3168"/>
<polygon fill="midnightblue" stroke="midnightblue" points="502.252,-82.5422 510.182,-75.5164 499.601,-76.0634 502.252,-82.5422"/>
</g>
<!-- Node4 -->
<g id="node4" class="node"><title>Node4</title>
<polygon fill="none" stroke="#bfbfbf" points="0,-0.5 0,-19.5 62,-19.5 62,-0.5 0,-0.5"/>
<text text-anchor="middle" x="31" y="-7.5" font-family="Helvetica,sans-Serif" font-size="10.00">type_traits</text>
</g>
<!-- Node3&#45;&gt;Node4 -->
<g id="edge3" class="edge"><title>Node3&#45;&gt;Node4</title>
<path fill="none" stroke="midnightblue" d="M228.764,-56.4435C186.019,-46.6214 116.129,-30.5616 71.9016,-20.3987"/>
<polygon fill="midnightblue" stroke="midnightblue" points="72.5883,-16.9653 62.0584,-18.1368 71.0205,-23.7875 72.5883,-16.9653"/>
</g>
<!-- Node5 -->
<g id="node5" class="node"><title>Node5</title>
<polygon fill="none" stroke="#bfbfbf" points="80,-0.5 80,-19.5 126,-19.5 126,-0.5 80,-0.5"/>
<text text-anchor="middle" x="103" y="-7.5" font-family="Helvetica,sans-Serif" font-size="10.00">cstring</text>
</g>
<!-- Node3&#45;&gt;Node5 -->
<g id="edge4" class="edge"><title>Node3&#45;&gt;Node5</title>
<path fill="none" stroke="midnightblue" d="M240.172,-56.4435C211.944,-47.0919 166.648,-32.0859 135.897,-21.8984"/>
<polygon fill="midnightblue" stroke="midnightblue" points="136.665,-18.4658 126.072,-18.6433 134.463,-25.1106 136.665,-18.4658"/>
</g>
<!-- Node6 -->
<g id="node6" class="node"><title>Node6</title>
<polygon fill="none" stroke="#bfbfbf" points="144,-0.5 144,-19.5 190,-19.5 190,-0.5 144,-0.5"/>
<text text-anchor="middle" x="167" y="-7.5" font-family="Helvetica,sans-Serif" font-size="10.00">cstdint</text>
</g>
<!-- Node3&#45;&gt;Node6 -->
<g id="edge5" class="edge"><title>Node3&#45;&gt;Node6</title>
<path fill="none" stroke="midnightblue" d="M250.094,-56.324C234.362,-47.7428 210.058,-34.486 191.791,-24.5224"/>
<polygon fill="midnightblue" stroke="midnightblue" points="193.322,-21.3704 182.867,-19.6545 189.97,-27.5157 193.322,-21.3704"/>
</g>
<!-- Node7 -->
<g id="node7" class="node"><title>Node7</title>
<polygon fill="none" stroke="#bfbfbf" points="208.5,-0.5 208.5,-19.5 253.5,-19.5 253.5,-0.5 208.5,-0.5"/>
<text text-anchor="middle" x="231" y="-7.5" font-family="Helvetica,sans-Serif" font-size="10.00">cstdlib</text>
</g>
<!-- Node3&#45;&gt;Node7 -->
<g id="edge6" class="edge"><title>Node3&#45;&gt;Node7</title>
<path fill="none" stroke="midnightblue" d="M260.22,-56.083C255.328,-48.5341 248.173,-37.4948 242.167,-28.2298"/>
<polygon fill="midnightblue" stroke="midnightblue" points="245.048,-26.239 236.672,-19.7511 239.174,-30.0463 245.048,-26.239"/>
</g>
<!-- Node8 -->
<g id="node8" class="node"><title>Node8</title>
<polygon fill="none" stroke="#bfbfbf" points="271.5,-0.5 271.5,-19.5 330.5,-19.5 330.5,-0.5 271.5,-0.5"/>
<text text-anchor="middle" x="301" y="-7.5" font-family="Helvetica,sans-Serif" font-size="10.00">stdexcept</text>
</g>
<!-- Node3&#45;&gt;Node8 -->
<g id="edge7" class="edge"><title>Node3&#45;&gt;Node8</title>
<path fill="none" stroke="midnightblue" d="M271.78,-56.083C276.672,-48.5341 283.827,-37.4948 289.833,-28.2298"/>
<polygon fill="midnightblue" stroke="midnightblue" points="292.826,-30.0463 295.328,-19.7511 286.952,-26.239 292.826,-30.0463"/>
</g>
<!-- Node9 -->
<g id="node9" class="node"><title>Node9</title>
<polygon fill="none" stroke="#bfbfbf" points="348.5,-0.5 348.5,-19.5 393.5,-19.5 393.5,-0.5 348.5,-0.5"/>
<text text-anchor="middle" x="371" y="-7.5" font-family="Helvetica,sans-Serif" font-size="10.00">iosfwd</text>
</g>
<!-- Node3&#45;&gt;Node9 -->
<g id="edge8" class="edge"><title>Node3&#45;&gt;Node9</title>
<path fill="none" stroke="midnightblue" d="M282.87,-56.324C299.709,-47.6641 325.807,-34.2424 345.238,-24.249"/>
<polygon fill="midnightblue" stroke="midnightblue" points="346.88,-27.3405 354.172,-19.6545 343.678,-21.1155 346.88,-27.3405"/>
</g>
<!-- Node10 -->
<g id="node10" class="node"><title>Node10</title>
<polygon fill="none" stroke="#bfbfbf" points="412,-0.5 412,-19.5 466,-19.5 466,-0.5 412,-0.5"/>
<text text-anchor="middle" x="439" y="-7.5" font-family="Helvetica,sans-Serif" font-size="10.00">iostream</text>
</g>
<!-- Node3&#45;&gt;Node10 -->
<g id="edge9" class="edge"><title>Node3&#45;&gt;Node10</title>
<path fill="none" stroke="midnightblue" d="M293.412,-56.4435C322.769,-47.2801 369.519,-32.6876 402.096,-22.5192"/>
<polygon fill="midnightblue" stroke="midnightblue" points="403.213,-25.8371 411.716,-19.5164 401.127,-19.1551 403.213,-25.8371"/>
</g>
<!-- Node11 -->
<g id="node11" class="node"><title>Node11</title>
<polygon fill="none" stroke="#bfbfbf" points="484.5,-0.5 484.5,-19.5 557.5,-19.5 557.5,-0.5 484.5,-0.5"/>
<text text-anchor="middle" x="521" y="-7.5" font-family="Helvetica,sans-Serif" font-size="10.00">initializer_list</text>
</g>
<!-- Node3&#45;&gt;Node11 -->
<g id="edge10" class="edge"><title>Node3&#45;&gt;Node11</title>
<path fill="none" stroke="midnightblue" d="M306.406,-56.4435C352.032,-46.7815 426.161,-31.0835 474.249,-20.9002"/>
<polygon fill="midnightblue" stroke="midnightblue" points="475.037,-24.311 484.095,-18.8151 473.587,-17.4628 475.037,-24.311"/>
</g>
</g>
</svg>
