<?xml version="1.0" encoding="UTF-8" standalone="no"?>
<!DOCTYPE svg PUBLIC "-//W3C//DTD SVG 1.1//EN"
 "http://www.w3.org/Graphics/SVG/1.1/DTD/svg11.dtd">
<!-- Generated by graphviz version 2.36.0 (20140111.2315)
 -->
<!-- Title: /home/travis/build/AliceO2Group/AliceO2/DataFormats/TPC/src/Helpers.cxx Pages: 1 -->
<svg width="846pt" height="230pt"
 viewBox="0.00 0.00 846.00 230.00" xmlns="http://www.w3.org/2000/svg" xmlns:xlink="http://www.w3.org/1999/xlink">
<g id="graph0" class="graph" transform="scale(1 1) rotate(0) translate(4 226)">
<title>/home/travis/build/AliceO2Group/AliceO2/DataFormats/TPC/src/Helpers.cxx</title>
<!-- Node1 -->
<g id="node1" class="node"><title>Node1</title>
<polygon fill="#bfbfbf" stroke="black" points="392,-180.5 392,-221.5 564,-221.5 564,-180.5 392,-180.5"/>
<text text-anchor="start" x="400" y="-209.5" font-family="Helvetica,sans-Serif" font-size="10.00">/home/travis/build</text>
<text text-anchor="start" x="400" y="-198.5" font-family="Helvetica,sans-Serif" font-size="10.00">/AliceO2Group/AliceO2</text>
<text text-anchor="middle" x="478" y="-187.5" font-family="Helvetica,sans-Serif" font-size="10.00">/DataFormats/TPC/src/Helpers.cxx</text>
</g>
<!-- Node2 -->
<g id="node2" class="node"><title>Node2</title>
<g id="a_node2"><a xlink:href="../../db/d14/MCTruthContainer_8h.html" target="_top" xlink:title="Definition of a container to keep Monte Carlo truth external to simulation objects. ">
<polygon fill="none" stroke="black" points="120,-113 120,-143 234,-143 234,-113 120,-113"/>
<text text-anchor="start" x="128" y="-131" font-family="Helvetica,sans-Serif" font-size="10.00">SimulationDataFormat</text>
<text text-anchor="middle" x="177" y="-120" font-family="Helvetica,sans-Serif" font-size="10.00">/MCTruthContainer.h</text>
</a>
</g>
</g>
<!-- Node1&#45;&gt;Node2 -->
<g id="edge1" class="edge"><title>Node1&#45;&gt;Node2</title>
<path fill="none" stroke="midnightblue" d="M394.954,-180.411C347.391,-169.192 288.496,-155.3 243.923,-144.786"/>
<polygon fill="midnightblue" stroke="midnightblue" points="244.603,-141.35 234.067,-142.461 242.996,-148.163 244.603,-141.35"/>
</g>
<!-- Node7 -->
<g id="node7" class="node"><title>Node7</title>
<g id="a_node7"><a xlink:href="../../d7/dcd/MCCompLabel_8h.html" target="_top" xlink:title="SimulationDataFormat\l/MCCompLabel.h">
<polygon fill="none" stroke="black" points="304,-113 304,-143 418,-143 418,-113 304,-113"/>
<text text-anchor="start" x="312" y="-131" font-family="Helvetica,sans-Serif" font-size="10.00">SimulationDataFormat</text>
<text text-anchor="middle" x="361" y="-120" font-family="Helvetica,sans-Serif" font-size="10.00">/MCCompLabel.h</text>
</a>
</g>
</g>
<!-- Node1&#45;&gt;Node7 -->
<g id="edge6" class="edge"><title>Node1&#45;&gt;Node7</title>
<path fill="none" stroke="midnightblue" d="M445.72,-180.411C429.283,-170.437 409.365,-158.35 392.973,-148.402"/>
<polygon fill="midnightblue" stroke="midnightblue" points="394.638,-145.319 384.273,-143.123 391.006,-151.303 394.638,-145.319"/>
</g>
<!-- Node9 -->
<g id="node9" class="node"><title>Node9</title>
<g id="a_node9"><a xlink:href="../../db/df1/Helpers_8h.html" target="_top" xlink:title="Helper class for memory management of TPC Data Formats, external from the actual data type classes to...">
<polygon fill="none" stroke="black" points="526.5,-118.5 526.5,-137.5 665.5,-137.5 665.5,-118.5 526.5,-118.5"/>
<text text-anchor="middle" x="596" y="-125.5" font-family="Helvetica,sans-Serif" font-size="10.00">DataFormatsTPC/Helpers.h</text>
</a>
</g>
</g>
<!-- Node1&#45;&gt;Node9 -->
<g id="edge8" class="edge"><title>Node1&#45;&gt;Node9</title>
<path fill="none" stroke="midnightblue" d="M510.556,-180.411C530.424,-168.457 555.335,-153.468 573.124,-142.765"/>
<polygon fill="midnightblue" stroke="midnightblue" points="574.948,-145.752 581.712,-137.597 571.339,-139.754 574.948,-145.752"/>
</g>
<!-- Node14 -->
<g id="node14" class="node"><title>Node14</title>
<g id="a_node14"><a xlink:href="../../d6/d51/TPC_2base_2include_2TPCBase_2Constants_8h.html" target="_top" xlink:title="TPCBase/Constants.h">
<polygon fill="none" stroke="black" points="723,-0.5 723,-19.5 839,-19.5 839,-0.5 723,-0.5"/>
<text text-anchor="middle" x="781" y="-7.5" font-family="Helvetica,sans-Serif" font-size="10.00">TPCBase/Constants.h</text>
</a>
</g>
</g>
<!-- Node1&#45;&gt;Node14 -->
<g id="edge15" class="edge"><title>Node1&#45;&gt;Node14</title>
<path fill="none" stroke="midnightblue" d="M564.086,-195.242C642.949,-185.627 754.683,-157.453 804,-76 813.154,-60.8804 804.097,-41.5782 794.791,-27.9482"/>
<polygon fill="midnightblue" stroke="midnightblue" points="797.598,-25.8572 788.828,-19.9115 791.976,-30.028 797.598,-25.8572"/>
</g>
<!-- Node3 -->
<g id="node3" class="node"><title>Node3</title>
<polygon fill="none" stroke="#bfbfbf" points="0,-56.5 0,-75.5 62,-75.5 62,-56.5 0,-56.5"/>
<text text-anchor="middle" x="31" y="-63.5" font-family="Helvetica,sans-Serif" font-size="10.00">TNamed.h</text>
</g>
<!-- Node2&#45;&gt;Node3 -->
<g id="edge2" class="edge"><title>Node2&#45;&gt;Node3</title>
<path fill="none" stroke="midnightblue" d="M142.769,-112.933C118.138,-102.81 85.2095,-89.2779 61.4816,-79.5267"/>
<polygon fill="midnightblue" stroke="midnightblue" points="62.5066,-76.1639 51.9267,-75.6 59.8457,-82.6385 62.5066,-76.1639"/>
</g>
<!-- Node4 -->
<g id="node4" class="node"><title>Node4</title>
<polygon fill="none" stroke="#bfbfbf" points="80.5,-56.5 80.5,-75.5 129.5,-75.5 129.5,-56.5 80.5,-56.5"/>
<text text-anchor="middle" x="105" y="-63.5" font-family="Helvetica,sans-Serif" font-size="10.00">cassert</text>
</g>
<!-- Node2&#45;&gt;Node4 -->
<g id="edge3" class="edge"><title>Node2&#45;&gt;Node4</title>
<path fill="none" stroke="midnightblue" d="M159.937,-112.781C148.935,-103.613 134.635,-91.6957 123.382,-82.3186"/>
<polygon fill="midnightblue" stroke="midnightblue" points="125.4,-79.4436 115.477,-75.7305 120.918,-84.8212 125.4,-79.4436"/>
</g>
<!-- Node5 -->
<g id="node5" class="node"><title>Node5</title>
<polygon fill="none" stroke="#bfbfbf" points="147.5,-56.5 147.5,-75.5 206.5,-75.5 206.5,-56.5 147.5,-56.5"/>
<text text-anchor="middle" x="177" y="-63.5" font-family="Helvetica,sans-Serif" font-size="10.00">stdexcept</text>
</g>
<!-- Node2&#45;&gt;Node5 -->
<g id="edge4" class="edge"><title>Node2&#45;&gt;Node5</title>
<path fill="none" stroke="midnightblue" d="M177,-112.781C177,-104.781 177,-94.6887 177,-86.0168"/>
<polygon fill="midnightblue" stroke="midnightblue" points="180.5,-85.7305 177,-75.7305 173.5,-85.7306 180.5,-85.7305"/>
</g>
<!-- Node6 -->
<g id="node6" class="node"><title>Node6</title>
<polygon fill="none" stroke="#bfbfbf" points="224.5,-56.5 224.5,-75.5 269.5,-75.5 269.5,-56.5 224.5,-56.5"/>
<text text-anchor="middle" x="247" y="-63.5" font-family="Helvetica,sans-Serif" font-size="10.00">gsl/gsl</text>
</g>
<!-- Node2&#45;&gt;Node6 -->
<g id="edge5" class="edge"><title>Node2&#45;&gt;Node6</title>
<path fill="none" stroke="midnightblue" d="M193.589,-112.781C204.285,-103.613 218.188,-91.6957 229.128,-82.3186"/>
<polygon fill="midnightblue" stroke="midnightblue" points="231.5,-84.8959 236.814,-75.7305 226.944,-79.5811 231.5,-84.8959"/>
</g>
<!-- Node8 -->
<g id="node8" class="node"><title>Node8</title>
<polygon fill="none" stroke="#bfbfbf" points="288,-56.5 288,-75.5 344,-75.5 344,-56.5 288,-56.5"/>
<text text-anchor="middle" x="316" y="-63.5" font-family="Helvetica,sans-Serif" font-size="10.00">Rtypes.h</text>
</g>
<!-- Node7&#45;&gt;Node8 -->
<g id="edge7" class="edge"><title>Node7&#45;&gt;Node8</title>
<path fill="none" stroke="midnightblue" d="M350.336,-112.781C343.864,-104.152 335.566,-93.0882 328.749,-83.9987"/>
<polygon fill="midnightblue" stroke="midnightblue" points="331.348,-81.6305 322.548,-75.7305 325.748,-85.8306 331.348,-81.6305"/>
</g>
<!-- Node10 -->
<g id="node10" class="node"><title>Node10</title>
<g id="a_node10"><a xlink:href="../../d3/dc4/ClusterHardware_8h.html" target="_top" xlink:title="Class of a TPC cluster as produced by the hardware cluster finder (needs a postprocessing step to con...">
<polygon fill="none" stroke="black" points="362.5,-56.5 362.5,-75.5 541.5,-75.5 541.5,-56.5 362.5,-56.5"/>
<text text-anchor="middle" x="452" y="-63.5" font-family="Helvetica,sans-Serif" font-size="10.00">DataFormatsTPC/ClusterHardware.h</text>
</a>
</g>
</g>
<!-- Node9&#45;&gt;Node10 -->
<g id="edge9" class="edge"><title>Node9&#45;&gt;Node10</title>
<path fill="none" stroke="midnightblue" d="M575.368,-118.403C550.881,-108.2 509.853,-91.1055 481.891,-79.4544"/>
<polygon fill="midnightblue" stroke="midnightblue" points="483.17,-76.196 472.593,-75.5806 480.478,-82.6576 483.17,-76.196"/>
</g>
<!-- Node12 -->
<g id="node12" class="node"><title>Node12</title>
<g id="a_node12"><a xlink:href="../../de/dcd/ClusterNative_8h.html" target="_top" xlink:title="Class of a TPC cluster in TPC&#45;native coordinates (row, time) ">
<polygon fill="none" stroke="black" points="559.5,-56.5 559.5,-75.5 724.5,-75.5 724.5,-56.5 559.5,-56.5"/>
<text text-anchor="middle" x="642" y="-63.5" font-family="Helvetica,sans-Serif" font-size="10.00">DataFormatsTPC/ClusterNative.h</text>
</a>
</g>
</g>
<!-- Node9&#45;&gt;Node12 -->
<g id="edge11" class="edge"><title>Node9&#45;&gt;Node12</title>
<path fill="none" stroke="midnightblue" d="M602.591,-118.403C609.491,-109.403 620.502,-95.0408 629.134,-83.7824"/>
<polygon fill="midnightblue" stroke="midnightblue" points="632.115,-85.6462 635.422,-75.5806 626.56,-81.3872 632.115,-85.6462"/>
</g>
<!-- Node15 -->
<g id="node15" class="node"><title>Node15</title>
<polygon fill="none" stroke="#bfbfbf" points="743,-56.5 743,-75.5 795,-75.5 795,-56.5 743,-56.5"/>
<text text-anchor="middle" x="769" y="-63.5" font-family="Helvetica,sans-Serif" font-size="10.00">memory</text>
</g>
<!-- Node9&#45;&gt;Node15 -->
<g id="edge14" class="edge"><title>Node9&#45;&gt;Node15</title>
<path fill="none" stroke="midnightblue" d="M620.787,-118.403C650.591,-108.067 700.791,-90.6564 734.402,-78.9994"/>
<polygon fill="midnightblue" stroke="midnightblue" points="735.958,-82.1642 744.259,-75.5806 733.665,-75.5506 735.958,-82.1642"/>
</g>
<!-- Node11 -->
<g id="node11" class="node"><title>Node11</title>
<polygon fill="none" stroke="#bfbfbf" points="429,-0.5 429,-19.5 475,-19.5 475,-0.5 429,-0.5"/>
<text text-anchor="middle" x="452" y="-7.5" font-family="Helvetica,sans-Serif" font-size="10.00">cstdint</text>
</g>
<!-- Node10&#45;&gt;Node11 -->
<g id="edge10" class="edge"><title>Node10&#45;&gt;Node11</title>
<path fill="none" stroke="midnightblue" d="M452,-56.083C452,-49.0059 452,-38.8611 452,-29.9865"/>
<polygon fill="midnightblue" stroke="midnightblue" points="455.5,-29.751 452,-19.7511 448.5,-29.7511 455.5,-29.751"/>
</g>
<!-- Node13 -->
<g id="node13" class="node"><title>Node13</title>
<polygon fill="none" stroke="#bfbfbf" points="620,-0.5 620,-19.5 664,-19.5 664,-0.5 620,-0.5"/>
<text text-anchor="middle" x="642" y="-7.5" font-family="Helvetica,sans-Serif" font-size="10.00">vector</text>
</g>
<!-- Node12&#45;&gt;Node13 -->
<g id="edge12" class="edge"><title>Node12&#45;&gt;Node13</title>
<path fill="none" stroke="midnightblue" d="M642,-56.083C642,-49.0059 642,-38.8611 642,-29.9865"/>
<polygon fill="midnightblue" stroke="midnightblue" points="645.5,-29.751 642,-19.7511 638.5,-29.7511 645.5,-29.751"/>
</g>
<!-- Node12&#45;&gt;Node14 -->
<g id="edge13" class="edge"><title>Node12&#45;&gt;Node14</title>
<path fill="none" stroke="midnightblue" d="M664.025,-56.4435C687.104,-47.4776 723.562,-33.314 749.641,-23.1827"/>
<polygon fill="midnightblue" stroke="midnightblue" points="751.024,-26.4002 759.078,-19.5164 748.489,-19.8753 751.024,-26.4002"/>
</g>
</g>
</svg>
