<?xml version="1.0" encoding="UTF-8" standalone="no"?>
<!DOCTYPE svg PUBLIC "-//W3C//DTD SVG 1.1//EN"
 "http://www.w3.org/Graphics/SVG/1.1/DTD/svg11.dtd">
<!-- Generated by graphviz version 2.36.0 (20140111.2315)
 -->
<!-- Title: /home/travis/build/AliceO2Group/AliceO2/Detectors/TPC/simulation/src/DigitPad.cxx Pages: 1 -->
<!--zoomable 582 -->
<svg id="main" version="1.1" xmlns="http://www.w3.org/2000/svg" xmlns:xlink="http://www.w3.org/1999/xlink" xml:space="preserve" onload="init(evt)">
<style type="text/css"><![CDATA[
.edge:hover path { stroke: red; }
.edge:hover polygon { stroke: red; fill: red; }
]]></style>
<script type="text/javascript"><![CDATA[
var edges = document.getElementsByTagName('g');
if (edges && edges.length) {
  for (var i=0;i<edges.length;i++) {
    if (edges[i].id.substr(0,4)=='edge') {
      edges[i].setAttribute('class','edge');
    }
  }
}
]]></script>
        <defs>
                <circle id="rim" cx="0" cy="0" r="7"/>
                <circle id="rim2" cx="0" cy="0" r="3.5"/>
                <g id="zoomPlus">
                        <use xlink:href="#rim" fill="#404040">
                                <set attributeName="fill" to="#808080" begin="zoomplus.mouseover" end="zoomplus.mouseout"/>
                        </use>
                        <path d="M-4,0h8M0,-4v8" fill="none" stroke="white" stroke-width="1.5" pointer-events="none"/>
                </g>
                <g id="zoomMin">
                        <use xlink:href="#rim" fill="#404040">
                                <set attributeName="fill" to="#808080" begin="zoomminus.mouseover" end="zoomminus.mouseout"/>
                        </use>
                        <path d="M-4,0h8" fill="none" stroke="white" stroke-width="1.5" pointer-events="none"/>
                </g>
                <g id="dirArrow">
                        <path fill="none" stroke="white" stroke-width="1.5" d="M0,-3.0v7 M-2.5,-0.5L0,-3.0L2.5,-0.5"/>
                </g>
               <g id="resetDef">
                       <use xlink:href="#rim2" fill="#404040">
                               <set attributeName="fill" to="#808080" begin="reset.mouseover" end="reset.mouseout"/>
                       </use>
               </g>
        </defs>

<script type="text/javascript">
var viewWidth = 1553;
var viewHeight = 582;
var sectionId = 'dynsection-0';
</script>
<script xlink:href="../../svgpan.js"/>
<svg id="graph" class="graph">
<g id="viewport">
<title>/home/travis/build/AliceO2Group/AliceO2/Detectors/TPC/simulation/src/DigitPad.cxx</title>
<!-- Node1 -->
<g id="node1" class="node"><title>Node1</title>
<polygon fill="#bfbfbf" stroke="black" points="692.5,-521 692.5,-573 825.5,-573 825.5,-521 692.5,-521"/>
<text text-anchor="start" x="700.5" y="-561" font-family="Helvetica,sans-Serif" font-size="10.00">/home/travis/build</text>
<text text-anchor="start" x="700.5" y="-550" font-family="Helvetica,sans-Serif" font-size="10.00">/AliceO2Group/AliceO2</text>
<text text-anchor="start" x="700.5" y="-539" font-family="Helvetica,sans-Serif" font-size="10.00">/Detectors/TPC/simulation</text>
<text text-anchor="middle" x="759" y="-528" font-family="Helvetica,sans-Serif" font-size="10.00">/src/DigitPad.cxx</text>
</g>
<!-- Node2 -->
<g id="node2" class="node"><title>Node2</title>
<g id="a_node2"><a xlink:href="../../d3/d5d/DigitPad_8h.html" target="_top" xlink:title="Definition of the Pad container. ">
<polygon fill="none" stroke="black" points="308.5,-458.5 308.5,-477.5 439.5,-477.5 439.5,-458.5 308.5,-458.5"/>
<text text-anchor="middle" x="374" y="-465.5" font-family="Helvetica,sans-Serif" font-size="10.00">TPCSimulation/DigitPad.h</text>
</a>
</g>
</g>
<!-- Node1&#45;&gt;Node2 -->
<g id="edge1" class="edge"><title>Node1&#45;&gt;Node2</title>
<path fill="none" stroke="midnightblue" d="M692.378,-532.676C617.044,-517.609 495.91,-493.382 426.809,-479.562"/>
<polygon fill="midnightblue" stroke="midnightblue" points="427.084,-476.048 416.592,-477.518 425.711,-482.912 427.084,-476.048"/>
</g>
<!-- Node12 -->
<g id="node12" class="node"><title>Node12</title>
<g id="a_node12"><a xlink:href="../../d0/d45/SAMPAProcessing_8h.html" target="_top" xlink:title="Definition of the SAMPA response. ">
<polygon fill="none" stroke="black" points="737,-458.5 737,-477.5 915,-477.5 915,-458.5 737,-458.5"/>
<text text-anchor="middle" x="826" y="-465.5" font-family="Helvetica,sans-Serif" font-size="10.00">TPCSimulation/SAMPAProcessing.h</text>
</a>
</g>
</g>
<!-- Node1&#45;&gt;Node12 -->
<g id="edge11" class="edge"><title>Node1&#45;&gt;Node12</title>
<path fill="none" stroke="midnightblue" d="M780.938,-520.787C791.076,-509.137 802.823,-495.636 811.781,-485.341"/>
<polygon fill="midnightblue" stroke="midnightblue" points="814.63,-487.399 818.554,-477.558 809.349,-482.804 814.63,-487.399"/>
</g>
<!-- Node14 -->
<g id="node14" class="node"><title>Node14</title>
<g id="a_node14"><a xlink:href="../../dd/d0b/PadSecPos_8h.html" target="_top" xlink:title="TPCBase/PadSecPos.h">
<polygon fill="none" stroke="black" points="720,-328.5 720,-347.5 842,-347.5 842,-328.5 720,-328.5"/>
<text text-anchor="middle" x="781" y="-335.5" font-family="Helvetica,sans-Serif" font-size="10.00">TPCBase/PadSecPos.h</text>
</a>
</g>
</g>
<!-- Node1&#45;&gt;Node14 -->
<g id="edge45" class="edge"><title>Node1&#45;&gt;Node14</title>
<path fill="none" stroke="midnightblue" d="M743.055,-520.777C737.081,-509.902 731.014,-496.767 728,-484 724.732,-470.158 726.559,-466.149 728,-452 731.127,-421.303 728.341,-411.668 742,-384 747.354,-373.154 755.961,-362.822 763.728,-354.8"/>
<polygon fill="midnightblue" stroke="midnightblue" points="766.369,-357.113 771.064,-347.615 761.471,-352.112 766.369,-357.113"/>
</g>
<!-- Node30 -->
<g id="node30" class="node"><title>Node30</title>
<g id="a_node30"><a xlink:href="../../de/d41/PadPos_8h.html" target="_top" xlink:title="TPCBase/PadPos.h">
<polygon fill="none" stroke="black" points="725.5,-272.5 725.5,-291.5 830.5,-291.5 830.5,-272.5 725.5,-272.5"/>
<text text-anchor="middle" x="778" y="-279.5" font-family="Helvetica,sans-Serif" font-size="10.00">TPCBase/PadPos.h</text>
</a>
</g>
</g>
<!-- Node1&#45;&gt;Node30 -->
<g id="edge44" class="edge"><title>Node1&#45;&gt;Node30</title>
<path fill="none" stroke="midnightblue" d="M742.99,-520.964C718.238,-478.796 676.914,-391.953 711,-328 718.55,-313.834 732.761,-303.335 746.158,-296.058"/>
<polygon fill="midnightblue" stroke="midnightblue" points="747.834,-299.133 755.212,-291.529 744.702,-292.872 747.834,-299.133"/>
</g>
<!-- Node36 -->
<g id="node36" class="node"><title>Node36</title>
<polygon fill="none" stroke="#bfbfbf" points="1180,-272.5 1180,-291.5 1224,-291.5 1224,-272.5 1180,-272.5"/>
<text text-anchor="middle" x="1202" y="-279.5" font-family="Helvetica,sans-Serif" font-size="10.00">vector</text>
</g>
<!-- Node1&#45;&gt;Node36 -->
<g id="edge58" class="edge"><title>Node1&#45;&gt;Node36</title>
<path fill="none" stroke="midnightblue" d="M825.666,-535.631C936.035,-516.992 1149.14,-474.267 1195,-416 1221.02,-382.944 1213.59,-329.699 1207.11,-301.656"/>
<polygon fill="midnightblue" stroke="midnightblue" points="1210.42,-300.459 1204.58,-291.619 1203.64,-302.171 1210.42,-300.459"/>
</g>
<!-- Node40 -->
<g id="node40" class="node"><title>Node40</title>
<g id="a_node40"><a xlink:href="../../df/d26/CRU_8h.html" target="_top" xlink:title="TPCBase/CRU.h">
<polygon fill="none" stroke="black" points="532.5,-390.5 532.5,-409.5 625.5,-409.5 625.5,-390.5 532.5,-390.5"/>
<text text-anchor="middle" x="579" y="-397.5" font-family="Helvetica,sans-Serif" font-size="10.00">TPCBase/CRU.h</text>
</a>
</g>
</g>
<!-- Node1&#45;&gt;Node40 -->
<g id="edge46" class="edge"><title>Node1&#45;&gt;Node40</title>
<path fill="none" stroke="midnightblue" d="M698.162,-520.978C678.396,-511.169 657.156,-498.706 640,-484 618.005,-465.146 599.42,-436.916 588.737,-418.728"/>
<polygon fill="midnightblue" stroke="midnightblue" points="591.632,-416.738 583.643,-409.779 585.548,-420.201 591.632,-416.738"/>
</g>
<!-- Node42 -->
<g id="node42" class="node"><title>Node42</title>
<g id="a_node42"><a xlink:href="../../df/db1/TPC_2base_2include_2TPCBase_2Digit_8h.html" target="_top" xlink:title="TPCBase/Digit.h">
<polygon fill="none" stroke="black" points="1234.5,-458.5 1234.5,-477.5 1325.5,-477.5 1325.5,-458.5 1234.5,-458.5"/>
<text text-anchor="middle" x="1280" y="-465.5" font-family="Helvetica,sans-Serif" font-size="10.00">TPCBase/Digit.h</text>
</a>
</g>
</g>
<!-- Node1&#45;&gt;Node42 -->
<g id="edge52" class="edge"><title>Node1&#45;&gt;Node42</title>
<path fill="none" stroke="midnightblue" d="M825.794,-539.376C915.802,-529.913 1080.81,-510.673 1220,-484 1226.16,-482.82 1232.63,-481.397 1238.95,-479.904"/>
<polygon fill="midnightblue" stroke="midnightblue" points="1239.81,-483.298 1248.7,-477.526 1238.15,-476.498 1239.81,-483.298"/>
</g>
<!-- Node44 -->
<g id="node44" class="node"><title>Node44</title>
<g id="a_node44"><a xlink:href="../../dd/df5/DigitMCMetaData_8h.html" target="_top" xlink:title="Definition of the Meta Data object of the Monte Carlo Digit. ">
<polygon fill="none" stroke="black" points="-0.5,-137 -0.5,-167 142.5,-167 142.5,-137 -0.5,-137"/>
<text text-anchor="start" x="7.5" y="-155" font-family="Helvetica,sans-Serif" font-size="10.00">TPCSimulation/DigitMCMeta</text>
<text text-anchor="middle" x="71" y="-144" font-family="Helvetica,sans-Serif" font-size="10.00">Data.h</text>
</a>
</g>
</g>
<!-- Node1&#45;&gt;Node44 -->
<g id="edge54" class="edge"><title>Node1&#45;&gt;Node44</title>
<path fill="none" stroke="midnightblue" d="M692.463,-545.832C521.106,-543.613 78,-525.808 78,-401 78,-401 78,-401 78,-281 78,-244.779 75.1708,-202.879 73.1097,-177.16"/>
<polygon fill="midnightblue" stroke="midnightblue" points="76.5977,-176.869 72.2839,-167.192 69.6216,-177.447 76.5977,-176.869"/>
</g>
<!-- Node45 -->
<g id="node45" class="node"><title>Node45</title>
<polygon fill="none" stroke="#bfbfbf" points="1343.5,-453 1343.5,-483 1446.5,-483 1446.5,-453 1343.5,-453"/>
<text text-anchor="start" x="1351.5" y="-471" font-family="Helvetica,sans-Serif" font-size="10.00">boost/range/adaptor</text>
<text text-anchor="middle" x="1395" y="-460" font-family="Helvetica,sans-Serif" font-size="10.00">/reversed.hpp</text>
</g>
<!-- Node1&#45;&gt;Node45 -->
<g id="edge56" class="edge"><title>Node1&#45;&gt;Node45</title>
<path fill="none" stroke="midnightblue" d="M825.812,-541.709C931.535,-534.278 1143.92,-516.749 1333.06,-484.013"/>
<polygon fill="midnightblue" stroke="midnightblue" points="1333.94,-487.412 1343.19,-482.241 1332.73,-480.517 1333.94,-487.412"/>
</g>
<!-- Node46 -->
<g id="node46" class="node"><title>Node46</title>
<polygon fill="none" stroke="#bfbfbf" points="1465,-458.5 1465,-477.5 1545,-477.5 1545,-458.5 1465,-458.5"/>
<text text-anchor="middle" x="1505" y="-465.5" font-family="Helvetica,sans-Serif" font-size="10.00">boost/bind.hpp</text>
</g>
<!-- Node1&#45;&gt;Node46 -->
<g id="edge57" class="edge"><title>Node1&#45;&gt;Node46</title>
<path fill="none" stroke="midnightblue" d="M825.839,-544.538C950.583,-540.819 1226.88,-527.909 1455,-484 1460.04,-483.029 1465.3,-481.753 1470.44,-480.355"/>
<polygon fill="midnightblue" stroke="midnightblue" points="1471.44,-483.709 1480.07,-477.562 1469.49,-476.986 1471.44,-483.709"/>
</g>
<!-- Node3 -->
<g id="node3" class="node"><title>Node3</title>
<polygon fill="none" stroke="#bfbfbf" points="449.5,-390.5 449.5,-409.5 484.5,-409.5 484.5,-390.5 449.5,-390.5"/>
<text text-anchor="middle" x="467" y="-397.5" font-family="Helvetica,sans-Serif" font-size="10.00">map</text>
</g>
<!-- Node2&#45;&gt;Node3 -->
<g id="edge2" class="edge"><title>Node2&#45;&gt;Node3</title>
<path fill="none" stroke="midnightblue" d="M386.158,-458.372C401.475,-447.502 428.024,-428.66 446.501,-415.547"/>
<polygon fill="midnightblue" stroke="midnightblue" points="448.709,-418.272 454.839,-409.63 444.658,-412.564 448.709,-418.272"/>
</g>
<!-- Node4 -->
<g id="node4" class="node"><title>Node4</title>
<polygon fill="none" stroke="#bfbfbf" points="199,-390.5 199,-409.5 299,-409.5 299,-390.5 199,-390.5"/>
<text text-anchor="middle" x="249" y="-397.5" font-family="Helvetica,sans-Serif" font-size="10.00">FairRootManager.h</text>
</g>
<!-- Node2&#45;&gt;Node4 -->
<g id="edge3" class="edge"><title>Node2&#45;&gt;Node4</title>
<path fill="none" stroke="midnightblue" d="M357.658,-458.372C336.416,-447.156 299.101,-427.453 274.215,-414.314"/>
<polygon fill="midnightblue" stroke="midnightblue" points="275.823,-411.205 265.346,-409.63 272.554,-417.395 275.823,-411.205"/>
</g>
<!-- Node5 -->
<g id="node5" class="node"><title>Node5</title>
<g id="a_node5"><a xlink:href="../../db/d14/MCTruthContainer_8h.html" target="_top" xlink:title="Definition of a container to keep Monte Carlo truth external to simulation objects. ">
<polygon fill="none" stroke="black" points="317,-385 317,-415 431,-415 431,-385 317,-385"/>
<text text-anchor="start" x="325" y="-403" font-family="Helvetica,sans-Serif" font-size="10.00">SimulationDataFormat</text>
<text text-anchor="middle" x="374" y="-392" font-family="Helvetica,sans-Serif" font-size="10.00">/MCTruthContainer.h</text>
</a>
</g>
</g>
<!-- Node2&#45;&gt;Node5 -->
<g id="edge4" class="edge"><title>Node2&#45;&gt;Node5</title>
<path fill="none" stroke="midnightblue" d="M374,-458.372C374,-449.971 374,-436.811 374,-425.213"/>
<polygon fill="midnightblue" stroke="midnightblue" points="377.5,-425.181 374,-415.181 370.5,-425.181 377.5,-425.181"/>
</g>
<!-- Node10 -->
<g id="node10" class="node"><title>Node10</title>
<g id="a_node10"><a xlink:href="../../d7/dcd/MCCompLabel_8h.html" target="_top" xlink:title="SimulationDataFormat\l/MCCompLabel.h">
<polygon fill="none" stroke="black" points="114,-205 114,-235 228,-235 228,-205 114,-205"/>
<text text-anchor="start" x="122" y="-223" font-family="Helvetica,sans-Serif" font-size="10.00">SimulationDataFormat</text>
<text text-anchor="middle" x="171" y="-212" font-family="Helvetica,sans-Serif" font-size="10.00">/MCCompLabel.h</text>
</a>
</g>
</g>
<!-- Node2&#45;&gt;Node10 -->
<g id="edge9" class="edge"><title>Node2&#45;&gt;Node10</title>
<path fill="none" stroke="midnightblue" d="M317.466,-458.47C269.67,-450.029 206.419,-435.542 190,-416 149.012,-367.216 157.836,-285.415 165.519,-245.038"/>
<polygon fill="midnightblue" stroke="midnightblue" points="168.991,-245.532 167.565,-235.034 162.132,-244.13 168.991,-245.532"/>
</g>
<!-- Node6 -->
<g id="node6" class="node"><title>Node6</title>
<polygon fill="none" stroke="#bfbfbf" points="269,-328.5 269,-347.5 331,-347.5 331,-328.5 269,-328.5"/>
<text text-anchor="middle" x="300" y="-335.5" font-family="Helvetica,sans-Serif" font-size="10.00">TNamed.h</text>
</g>
<!-- Node5&#45;&gt;Node6 -->
<g id="edge5" class="edge"><title>Node5&#45;&gt;Node6</title>
<path fill="none" stroke="midnightblue" d="M356.463,-384.781C345.045,-375.523 330.17,-363.462 318.554,-354.044"/>
<polygon fill="midnightblue" stroke="midnightblue" points="320.74,-351.31 310.768,-347.731 316.331,-356.747 320.74,-351.31"/>
</g>
<!-- Node7 -->
<g id="node7" class="node"><title>Node7</title>
<polygon fill="none" stroke="#bfbfbf" points="349.5,-328.5 349.5,-347.5 398.5,-347.5 398.5,-328.5 349.5,-328.5"/>
<text text-anchor="middle" x="374" y="-335.5" font-family="Helvetica,sans-Serif" font-size="10.00">cassert</text>
</g>
<!-- Node5&#45;&gt;Node7 -->
<g id="edge6" class="edge"><title>Node5&#45;&gt;Node7</title>
<path fill="none" stroke="midnightblue" d="M374,-384.781C374,-376.781 374,-366.689 374,-358.017"/>
<polygon fill="midnightblue" stroke="midnightblue" points="377.5,-357.73 374,-347.731 370.5,-357.731 377.5,-357.73"/>
</g>
<!-- Node8 -->
<g id="node8" class="node"><title>Node8</title>
<polygon fill="none" stroke="#bfbfbf" points="416.5,-328.5 416.5,-347.5 475.5,-347.5 475.5,-328.5 416.5,-328.5"/>
<text text-anchor="middle" x="446" y="-335.5" font-family="Helvetica,sans-Serif" font-size="10.00">stdexcept</text>
</g>
<!-- Node5&#45;&gt;Node8 -->
<g id="edge7" class="edge"><title>Node5&#45;&gt;Node8</title>
<path fill="none" stroke="midnightblue" d="M391.063,-384.781C402.065,-375.613 416.365,-363.696 427.618,-354.319"/>
<polygon fill="midnightblue" stroke="midnightblue" points="430.082,-356.821 435.523,-347.731 425.6,-351.444 430.082,-356.821"/>
</g>
<!-- Node9 -->
<g id="node9" class="node"><title>Node9</title>
<polygon fill="none" stroke="#bfbfbf" points="205.5,-328.5 205.5,-347.5 250.5,-347.5 250.5,-328.5 205.5,-328.5"/>
<text text-anchor="middle" x="228" y="-335.5" font-family="Helvetica,sans-Serif" font-size="10.00">gsl/gsl</text>
</g>
<!-- Node5&#45;&gt;Node9 -->
<g id="edge8" class="edge"><title>Node5&#45;&gt;Node9</title>
<path fill="none" stroke="midnightblue" d="M339.769,-384.933C315.138,-374.81 282.21,-361.278 258.482,-351.527"/>
<polygon fill="midnightblue" stroke="midnightblue" points="259.507,-348.164 248.927,-347.6 256.846,-354.639 259.507,-348.164"/>
</g>
<!-- Node11 -->
<g id="node11" class="node"><title>Node11</title>
<polygon fill="none" stroke="#bfbfbf" points="43,-74.5 43,-93.5 99,-93.5 99,-74.5 43,-74.5"/>
<text text-anchor="middle" x="71" y="-81.5" font-family="Helvetica,sans-Serif" font-size="10.00">Rtypes.h</text>
</g>
<!-- Node10&#45;&gt;Node11 -->
<g id="edge10" class="edge"><title>Node10&#45;&gt;Node11</title>
<path fill="none" stroke="midnightblue" d="M170.737,-204.758C169.747,-187.086 165.81,-156.751 151,-136 139.002,-119.189 119.565,-106.611 102.854,-98.1522"/>
<polygon fill="midnightblue" stroke="midnightblue" points="103.94,-94.7923 93.4069,-93.6469 100.926,-101.111 103.94,-94.7923"/>
</g>
<!-- Node13 -->
<g id="node13" class="node"><title>Node13</title>
<polygon fill="none" stroke="#bfbfbf" points="850,-272.5 850,-291.5 894,-291.5 894,-272.5 850,-272.5"/>
<text text-anchor="middle" x="872" y="-279.5" font-family="Helvetica,sans-Serif" font-size="10.00">Vc/Vc</text>
</g>
<!-- Node12&#45;&gt;Node13 -->
<g id="edge12" class="edge"><title>Node12&#45;&gt;Node13</title>
<path fill="none" stroke="midnightblue" d="M828.219,-458.125C835.323,-429.708 857.613,-340.548 867.36,-301.56"/>
<polygon fill="midnightblue" stroke="midnightblue" points="870.774,-302.336 869.804,-291.786 863.983,-300.638 870.774,-302.336"/>
</g>
<!-- Node12&#45;&gt;Node14 -->
<g id="edge13" class="edge"><title>Node12&#45;&gt;Node14</title>
<path fill="none" stroke="midnightblue" d="M802.075,-458.429C783.887,-450.499 760.153,-436.765 749,-416 738.25,-395.985 752.706,-371.572 765.504,-355.676"/>
<polygon fill="midnightblue" stroke="midnightblue" points="768.408,-357.667 772.273,-347.802 763.1,-353.104 768.408,-357.667"/>
</g>
<!-- Node31 -->
<g id="node31" class="node"><title>Node31</title>
<g id="a_node31"><a xlink:href="../../d3/d47/ParameterElectronics_8h.html" target="_top" xlink:title="Definition of the parameter class for the detector electronics. ">
<polygon fill="none" stroke="black" points="1022,-390.5 1022,-409.5 1186,-409.5 1186,-390.5 1022,-390.5"/>
<text text-anchor="middle" x="1104" y="-397.5" font-family="Helvetica,sans-Serif" font-size="10.00">TPCBase/ParameterElectronics.h</text>
</a>
</g>
</g>
<!-- Node12&#45;&gt;Node31 -->
<g id="edge32" class="edge"><title>Node12&#45;&gt;Node31</title>
<path fill="none" stroke="midnightblue" d="M862.059,-458.439C912.264,-446.52 1003.23,-424.924 1058.18,-411.878"/>
<polygon fill="midnightblue" stroke="midnightblue" points="1059.08,-415.261 1068.01,-409.546 1057.47,-408.45 1059.08,-415.261"/>
</g>
<!-- Node33 -->
<g id="node33" class="node"><title>Node33</title>
<g id="a_node33"><a xlink:href="../../dd/d94/Baseline_8h.html" target="_top" xlink:title="TPCSimulation/Baseline.h">
<polygon fill="none" stroke="black" points="872.5,-390.5 872.5,-409.5 1003.5,-409.5 1003.5,-390.5 872.5,-390.5"/>
<text text-anchor="middle" x="938" y="-397.5" font-family="Helvetica,sans-Serif" font-size="10.00">TPCSimulation/Baseline.h</text>
</a>
</g>
</g>
<!-- Node12&#45;&gt;Node33 -->
<g id="edge34" class="edge"><title>Node12&#45;&gt;Node33</title>
<path fill="none" stroke="midnightblue" d="M840.642,-458.372C859.424,-447.304 892.229,-427.972 914.517,-414.838"/>
<polygon fill="midnightblue" stroke="midnightblue" points="916.516,-417.723 923.354,-409.63 912.962,-411.692 916.516,-417.723"/>
</g>
<!-- Node39 -->
<g id="node39" class="node"><title>Node39</title>
<polygon fill="none" stroke="#bfbfbf" points="758,-390.5 758,-409.5 816,-409.5 816,-390.5 758,-390.5"/>
<text text-anchor="middle" x="787" y="-397.5" font-family="Helvetica,sans-Serif" font-size="10.00">TSpline.h</text>
</g>
<!-- Node12&#45;&gt;Node39 -->
<g id="edge43" class="edge"><title>Node12&#45;&gt;Node39</title>
<path fill="none" stroke="midnightblue" d="M820.901,-458.372C814.978,-448.348 805.05,-431.546 797.464,-418.708"/>
<polygon fill="midnightblue" stroke="midnightblue" points="800.325,-416.67 792.224,-409.841 794.298,-420.231 800.325,-416.67"/>
</g>
<!-- Node15 -->
<g id="node15" class="node"><title>Node15</title>
<g id="a_node15"><a xlink:href="../../d3/dd6/Sector_8h.html" target="_top" xlink:title="TPCBase/Sector.h">
<polygon fill="none" stroke="black" points="605.5,-272.5 605.5,-291.5 704.5,-291.5 704.5,-272.5 605.5,-272.5"/>
<text text-anchor="middle" x="655" y="-279.5" font-family="Helvetica,sans-Serif" font-size="10.00">TPCBase/Sector.h</text>
</a>
</g>
</g>
<!-- Node14&#45;&gt;Node15 -->
<g id="edge14" class="edge"><title>Node14&#45;&gt;Node15</title>
<path fill="none" stroke="midnightblue" d="M761.035,-328.444C740.391,-319.596 707.937,-305.687 684.368,-295.586"/>
<polygon fill="midnightblue" stroke="midnightblue" points="685.442,-292.239 674.872,-291.516 682.684,-298.673 685.442,-292.239"/>
</g>
<!-- Node14&#45;&gt;Node30 -->
<g id="edge31" class="edge"><title>Node14&#45;&gt;Node30</title>
<path fill="none" stroke="midnightblue" d="M780.505,-328.083C780.111,-321.006 779.548,-310.861 779.055,-301.986"/>
<polygon fill="midnightblue" stroke="midnightblue" points="782.536,-301.542 778.486,-291.751 775.546,-301.93 782.536,-301.542"/>
</g>
<!-- Node16 -->
<g id="node16" class="node"><title>Node16</title>
<g id="a_node16"><a xlink:href="../../d6/d51/TPC_2base_2include_2TPCBase_2Constants_8h.html" target="_top" xlink:title="TPCBase/Constants.h">
<polygon fill="none" stroke="black" points="641,-210.5 641,-229.5 757,-229.5 757,-210.5 641,-210.5"/>
<text text-anchor="middle" x="699" y="-217.5" font-family="Helvetica,sans-Serif" font-size="10.00">TPCBase/Constants.h</text>
</a>
</g>
</g>
<!-- Node15&#45;&gt;Node16 -->
<g id="edge15" class="edge"><title>Node15&#45;&gt;Node16</title>
<path fill="none" stroke="midnightblue" d="M661.304,-272.403C667.904,-263.403 678.437,-249.041 686.693,-237.782"/>
<polygon fill="midnightblue" stroke="midnightblue" points="689.616,-239.714 692.708,-229.581 683.971,-235.575 689.616,-239.714"/>
</g>
<!-- Node17 -->
<g id="node17" class="node"><title>Node17</title>
<g id="a_node17"><a xlink:href="../../d1/d73/Defs_8h.html" target="_top" xlink:title="Common definitions for 2D coordinates. ">
<polygon fill="none" stroke="black" points="531,-210.5 531,-229.5 623,-229.5 623,-210.5 531,-210.5"/>
<text text-anchor="middle" x="577" y="-217.5" font-family="Helvetica,sans-Serif" font-size="10.00">TPCBase/Defs.h</text>
</a>
</g>
</g>
<!-- Node15&#45;&gt;Node17 -->
<g id="edge16" class="edge"><title>Node15&#45;&gt;Node17</title>
<path fill="none" stroke="midnightblue" d="M643.825,-272.403C631.429,-262.869 611.21,-247.315 596.254,-235.811"/>
<polygon fill="midnightblue" stroke="midnightblue" points="598.215,-232.904 588.155,-229.581 593.947,-238.452 598.215,-232.904"/>
</g>
<!-- Node18 -->
<g id="node18" class="node"><title>Node18</title>
<polygon fill="none" stroke="#bfbfbf" points="504,-142.5 504,-161.5 548,-161.5 548,-142.5 504,-142.5"/>
<text text-anchor="middle" x="526" y="-149.5" font-family="Helvetica,sans-Serif" font-size="10.00">cmath</text>
</g>
<!-- Node17&#45;&gt;Node18 -->
<g id="edge17" class="edge"><title>Node17&#45;&gt;Node18</title>
<path fill="none" stroke="midnightblue" d="M570.333,-210.372C562.435,-200.151 549.092,-182.884 539.103,-169.957"/>
<polygon fill="midnightblue" stroke="midnightblue" points="541.716,-167.614 532.832,-161.841 536.177,-171.894 541.716,-167.614"/>
</g>
<!-- Node19 -->
<g id="node19" class="node"><title>Node19</title>
<g id="a_node19"><a xlink:href="../../d2/dd0/Cartesian2D_8h.html" target="_top" xlink:title="MathUtils/Cartesian2D.h">
<polygon fill="none" stroke="black" points="1165.5,-74.5 1165.5,-93.5 1290.5,-93.5 1290.5,-74.5 1165.5,-74.5"/>
<text text-anchor="middle" x="1228" y="-81.5" font-family="Helvetica,sans-Serif" font-size="10.00">MathUtils/Cartesian2D.h</text>
</a>
</g>
</g>
<!-- Node17&#45;&gt;Node19 -->
<g id="edge18" class="edge"><title>Node17&#45;&gt;Node19</title>
<path fill="none" stroke="midnightblue" d="M606.875,-210.442C614.996,-208.228 623.811,-205.927 632,-204 863.12,-149.619 923.333,-147.324 1156,-100 1162.81,-98.615 1169.98,-97.1409 1177.04,-95.6783"/>
<polygon fill="midnightblue" stroke="midnightblue" points="1178.19,-99.0149 1187.27,-93.5553 1176.77,-92.161 1178.19,-99.0149"/>
</g>
<!-- Node22 -->
<g id="node22" class="node"><title>Node22</title>
<g id="a_node22"><a xlink:href="../../dd/d76/Cartesian3D_8h.html" target="_top" xlink:title="MathUtils/Cartesian3D.h">
<polygon fill="none" stroke="black" points="565.5,-142.5 565.5,-161.5 690.5,-161.5 690.5,-142.5 565.5,-142.5"/>
<text text-anchor="middle" x="628" y="-149.5" font-family="Helvetica,sans-Serif" font-size="10.00">MathUtils/Cartesian3D.h</text>
</a>
</g>
</g>
<!-- Node17&#45;&gt;Node22 -->
<g id="edge21" class="edge"><title>Node17&#45;&gt;Node22</title>
<path fill="none" stroke="midnightblue" d="M583.667,-210.372C591.565,-200.151 604.908,-182.884 614.897,-169.957"/>
<polygon fill="midnightblue" stroke="midnightblue" points="617.823,-171.894 621.168,-161.841 612.284,-167.614 617.823,-171.894"/>
</g>
<!-- Node20 -->
<g id="node20" class="node"><title>Node20</title>
<polygon fill="none" stroke="#bfbfbf" points="1061.5,-1 1061.5,-31 1212.5,-31 1212.5,-1 1061.5,-1"/>
<text text-anchor="start" x="1069.5" y="-19" font-family="Helvetica,sans-Serif" font-size="10.00">Math/GenVector/Displacement</text>
<text text-anchor="middle" x="1137" y="-8" font-family="Helvetica,sans-Serif" font-size="10.00">Vector2D.h</text>
</g>
<!-- Node19&#45;&gt;Node20 -->
<g id="edge19" class="edge"><title>Node19&#45;&gt;Node20</title>
<path fill="none" stroke="midnightblue" d="M1216.1,-74.3717C1203.22,-65.0286 1182.22,-49.7966 1165.09,-37.375"/>
<polygon fill="midnightblue" stroke="midnightblue" points="1166.7,-34.2194 1156.55,-31.1815 1162.59,-39.8859 1166.7,-34.2194"/>
</g>
<!-- Node21 -->
<g id="node21" class="node"><title>Node21</title>
<polygon fill="none" stroke="#bfbfbf" points="1231,-6.5 1231,-25.5 1407,-25.5 1407,-6.5 1231,-6.5"/>
<text text-anchor="middle" x="1319" y="-13.5" font-family="Helvetica,sans-Serif" font-size="10.00">Math/GenVector/PositionVector2D.h</text>
</g>
<!-- Node19&#45;&gt;Node21 -->
<g id="edge20" class="edge"><title>Node19&#45;&gt;Node21</title>
<path fill="none" stroke="midnightblue" d="M1239.9,-74.3717C1254.88,-63.5015 1280.86,-44.6602 1298.94,-31.5474"/>
<polygon fill="midnightblue" stroke="midnightblue" points="1301.06,-34.3349 1307.1,-25.6305 1296.95,-28.6684 1301.06,-34.3349"/>
</g>
<!-- Node22&#45;&gt;Node11 -->
<g id="edge25" class="edge"><title>Node22&#45;&gt;Node11</title>
<path fill="none" stroke="midnightblue" d="M591.529,-142.478C580.196,-140.079 567.627,-137.672 556,-136 358.28,-107.574 302.37,-146.059 108,-100 104.929,-99.2723 101.78,-98.329 98.678,-97.2697"/>
<polygon fill="midnightblue" stroke="midnightblue" points="99.6721,-93.9031 89.0812,-93.6132 97.1797,-100.444 99.6721,-93.9031"/>
</g>
<!-- Node22&#45;&gt;Node19 -->
<g id="edge29" class="edge"><title>Node22&#45;&gt;Node19</title>
<path fill="none" stroke="midnightblue" d="M690.858,-147.156C790.084,-140.587 988.928,-125.395 1156,-100 1164.08,-98.7723 1172.61,-97.2213 1180.88,-95.5852"/>
<polygon fill="midnightblue" stroke="midnightblue" points="1181.67,-98.9948 1190.77,-93.5634 1180.27,-92.1365 1181.67,-98.9948"/>
</g>
<!-- Node23 -->
<g id="node23" class="node"><title>Node23</title>
<polygon fill="none" stroke="#bfbfbf" points="382.5,-74.5 382.5,-93.5 531.5,-93.5 531.5,-74.5 382.5,-74.5"/>
<text text-anchor="middle" x="457" y="-81.5" font-family="Helvetica,sans-Serif" font-size="10.00">Math/GenVector/Rotation3D.h</text>
</g>
<!-- Node22&#45;&gt;Node23 -->
<g id="edge22" class="edge"><title>Node22&#45;&gt;Node23</title>
<path fill="none" stroke="midnightblue" d="M605.645,-142.372C575.735,-130.827 522.531,-110.293 488.55,-97.1772"/>
<polygon fill="midnightblue" stroke="midnightblue" points="489.679,-93.8615 479.09,-93.5259 487.159,-100.392 489.679,-93.8615"/>
</g>
<!-- Node24 -->
<g id="node24" class="node"><title>Node24</title>
<polygon fill="none" stroke="#bfbfbf" points="550,-74.5 550,-93.5 706,-93.5 706,-74.5 550,-74.5"/>
<text text-anchor="middle" x="628" y="-81.5" font-family="Helvetica,sans-Serif" font-size="10.00">Math/GenVector/Transform3D.h</text>
</g>
<!-- Node22&#45;&gt;Node24 -->
<g id="edge23" class="edge"><title>Node22&#45;&gt;Node24</title>
<path fill="none" stroke="midnightblue" d="M628,-142.372C628,-132.643 628,-116.528 628,-103.85"/>
<polygon fill="midnightblue" stroke="midnightblue" points="631.5,-103.841 628,-93.8411 624.5,-103.841 631.5,-103.841"/>
</g>
<!-- Node25 -->
<g id="node25" class="node"><title>Node25</title>
<polygon fill="none" stroke="#bfbfbf" points="724,-74.5 724,-93.5 884,-93.5 884,-74.5 724,-74.5"/>
<text text-anchor="middle" x="804" y="-81.5" font-family="Helvetica,sans-Serif" font-size="10.00">Math/GenVector/Translation3D.h</text>
</g>
<!-- Node22&#45;&gt;Node25 -->
<g id="edge24" class="edge"><title>Node22&#45;&gt;Node25</title>
<path fill="none" stroke="midnightblue" d="M651.009,-142.372C681.794,-130.827 736.553,-110.293 771.528,-97.1772"/>
<polygon fill="midnightblue" stroke="midnightblue" points="773.13,-100.314 781.264,-93.5259 770.672,-93.76 773.13,-100.314"/>
</g>
<!-- Node26 -->
<g id="node26" class="node"><title>Node26</title>
<polygon fill="none" stroke="#bfbfbf" points="902,-74.5 902,-93.5 978,-93.5 978,-74.5 902,-74.5"/>
<text text-anchor="middle" x="940" y="-81.5" font-family="Helvetica,sans-Serif" font-size="10.00">TGeoMatrix.h</text>
</g>
<!-- Node22&#45;&gt;Node26 -->
<g id="edge26" class="edge"><title>Node22&#45;&gt;Node26</title>
<path fill="none" stroke="midnightblue" d="M682.469,-142.464C736.337,-133.566 820.927,-118.367 893,-100 896.904,-99.0052 900.959,-97.8697 904.979,-96.6787"/>
<polygon fill="midnightblue" stroke="midnightblue" points="906.267,-99.9441 914.792,-93.6525 904.204,-93.255 906.267,-99.9441"/>
</g>
<!-- Node27 -->
<g id="node27" class="node"><title>Node27</title>
<polygon fill="none" stroke="#bfbfbf" points="996.5,-69 996.5,-99 1147.5,-99 1147.5,-69 996.5,-69"/>
<text text-anchor="start" x="1004.5" y="-87" font-family="Helvetica,sans-Serif" font-size="10.00">Math/GenVector/Displacement</text>
<text text-anchor="middle" x="1072" y="-76" font-family="Helvetica,sans-Serif" font-size="10.00">Vector3D.h</text>
</g>
<!-- Node22&#45;&gt;Node27 -->
<g id="edge27" class="edge"><title>Node22&#45;&gt;Node27</title>
<path fill="none" stroke="midnightblue" d="M690.678,-142.744C760.299,-133.428 876.289,-117.475 986.515,-100.045"/>
<polygon fill="midnightblue" stroke="midnightblue" points="987.151,-103.488 996.478,-98.4629 986.053,-96.5745 987.151,-103.488"/>
</g>
<!-- Node28 -->
<g id="node28" class="node"><title>Node28</title>
<polygon fill="none" stroke="#bfbfbf" points="117,-74.5 117,-93.5 293,-93.5 293,-74.5 117,-74.5"/>
<text text-anchor="middle" x="205" y="-81.5" font-family="Helvetica,sans-Serif" font-size="10.00">Math/GenVector/PositionVector3D.h</text>
</g>
<!-- Node22&#45;&gt;Node28 -->
<g id="edge28" class="edge"><title>Node22&#45;&gt;Node28</title>
<path fill="none" stroke="midnightblue" d="M589.227,-142.443C578.491,-140.205 566.817,-137.891 556,-136 443.687,-116.363 414.786,-116.713 302,-100 291.417,-98.4319 280.191,-96.7307 269.274,-95.0561"/>
<polygon fill="midnightblue" stroke="midnightblue" points="269.779,-91.5926 259.362,-93.5303 268.713,-98.5111 269.779,-91.5926"/>
</g>
<!-- Node29 -->
<g id="node29" class="node"><title>Node29</title>
<polygon fill="none" stroke="#bfbfbf" points="311,-74.5 311,-93.5 365,-93.5 365,-74.5 311,-74.5"/>
<text text-anchor="middle" x="338" y="-81.5" font-family="Helvetica,sans-Serif" font-size="10.00">iostream</text>
</g>
<!-- Node22&#45;&gt;Node29 -->
<g id="edge30" class="edge"><title>Node22&#45;&gt;Node29</title>
<path fill="none" stroke="midnightblue" d="M587.274,-142.433C577.067,-140.308 566.137,-138.053 556,-136 474.757,-119.547 452.201,-124.462 373,-100 370.513,-99.2318 367.963,-98.3451 365.428,-97.3945"/>
<polygon fill="midnightblue" stroke="midnightblue" points="366.475,-94.0423 355.893,-93.5269 363.844,-100.529 366.475,-94.0423"/>
</g>
<!-- Node32 -->
<g id="node32" class="node"><title>Node32</title>
<polygon fill="none" stroke="#bfbfbf" points="1085,-328.5 1085,-347.5 1123,-347.5 1123,-328.5 1085,-328.5"/>
<text text-anchor="middle" x="1104" y="-335.5" font-family="Helvetica,sans-Serif" font-size="10.00">array</text>
</g>
<!-- Node31&#45;&gt;Node32 -->
<g id="edge33" class="edge"><title>Node31&#45;&gt;Node32</title>
<path fill="none" stroke="midnightblue" d="M1104,-390.403C1104,-381.938 1104,-368.728 1104,-357.82"/>
<polygon fill="midnightblue" stroke="midnightblue" points="1107.5,-357.581 1104,-347.581 1100.5,-357.581 1107.5,-357.581"/>
</g>
<!-- Node33&#45;&gt;Node13 -->
<g id="edge35" class="edge"><title>Node33&#45;&gt;Node13</title>
<path fill="none" stroke="midnightblue" d="M933.039,-390.281C922.188,-371.21 896.174,-325.488 881.859,-300.327"/>
<polygon fill="midnightblue" stroke="midnightblue" points="884.826,-298.466 876.839,-291.505 878.742,-301.927 884.826,-298.466"/>
</g>
<!-- Node33&#45;&gt;Node14 -->
<g id="edge36" class="edge"><title>Node33&#45;&gt;Node14</title>
<path fill="none" stroke="midnightblue" d="M915.506,-390.403C888.691,-380.156 843.685,-362.956 813.191,-351.302"/>
<polygon fill="midnightblue" stroke="midnightblue" points="814.043,-347.881 803.453,-347.581 811.544,-354.42 814.043,-347.881"/>
</g>
<!-- Node34 -->
<g id="node34" class="node"><title>Node34</title>
<g id="a_node34"><a xlink:href="../../db/dac/RandomRing_8h.html" target="_top" xlink:title="TPCBase/RandomRing.h">
<polygon fill="none" stroke="black" points="938,-328.5 938,-347.5 1066,-347.5 1066,-328.5 938,-328.5"/>
<text text-anchor="middle" x="1002" y="-335.5" font-family="Helvetica,sans-Serif" font-size="10.00">TPCBase/RandomRing.h</text>
</a>
</g>
</g>
<!-- Node33&#45;&gt;Node34 -->
<g id="edge37" class="edge"><title>Node33&#45;&gt;Node34</title>
<path fill="none" stroke="midnightblue" d="M947.17,-390.403C957.15,-381.047 973.312,-365.895 985.509,-354.46"/>
<polygon fill="midnightblue" stroke="midnightblue" points="987.946,-356.973 992.847,-347.581 983.158,-351.867 987.946,-356.973"/>
</g>
<!-- Node34&#45;&gt;Node13 -->
<g id="edge39" class="edge"><title>Node34&#45;&gt;Node13</title>
<path fill="none" stroke="midnightblue" d="M981.401,-328.444C960.007,-319.557 926.319,-305.563 901.976,-295.451"/>
<polygon fill="midnightblue" stroke="midnightblue" points="903.08,-292.12 892.503,-291.516 900.395,-298.585 903.08,-292.12"/>
</g>
<!-- Node35 -->
<g id="node35" class="node"><title>Node35</title>
<polygon fill="none" stroke="#bfbfbf" points="998,-272.5 998,-291.5 1088,-291.5 1088,-272.5 998,-272.5"/>
<text text-anchor="middle" x="1043" y="-279.5" font-family="Helvetica,sans-Serif" font-size="10.00">boost/format.hpp</text>
</g>
<!-- Node34&#45;&gt;Node35 -->
<g id="edge38" class="edge"><title>Node34&#45;&gt;Node35</title>
<path fill="none" stroke="midnightblue" d="M1008.77,-328.083C1014.56,-320.455 1023.06,-309.264 1030.14,-299.941"/>
<polygon fill="midnightblue" stroke="midnightblue" points="1033.1,-301.832 1036.36,-291.751 1027.52,-297.599 1033.1,-301.832"/>
</g>
<!-- Node34&#45;&gt;Node36 -->
<g id="edge40" class="edge"><title>Node34&#45;&gt;Node36</title>
<path fill="none" stroke="midnightblue" d="M1033.69,-328.444C1070.94,-318.386 1132.42,-301.787 1169.86,-291.677"/>
<polygon fill="midnightblue" stroke="midnightblue" points="1171,-294.994 1179.75,-289.008 1169.18,-288.236 1171,-294.994"/>
</g>
<!-- Node37 -->
<g id="node37" class="node"><title>Node37</title>
<polygon fill="none" stroke="#bfbfbf" points="1106,-272.5 1106,-291.5 1148,-291.5 1148,-272.5 1106,-272.5"/>
<text text-anchor="middle" x="1127" y="-279.5" font-family="Helvetica,sans-Serif" font-size="10.00">TF1.h</text>
</g>
<!-- Node34&#45;&gt;Node37 -->
<g id="edge41" class="edge"><title>Node34&#45;&gt;Node37</title>
<path fill="none" stroke="midnightblue" d="M1021.81,-328.444C1042.29,-319.596 1074.48,-305.687 1097.86,-295.586"/>
<polygon fill="midnightblue" stroke="midnightblue" points="1099.49,-298.695 1107.29,-291.516 1096.72,-292.269 1099.49,-298.695"/>
</g>
<!-- Node38 -->
<g id="node38" class="node"><title>Node38</title>
<polygon fill="none" stroke="#bfbfbf" points="912,-272.5 912,-291.5 980,-291.5 980,-272.5 912,-272.5"/>
<text text-anchor="middle" x="946" y="-279.5" font-family="Helvetica,sans-Serif" font-size="10.00">TRandom.h</text>
</g>
<!-- Node34&#45;&gt;Node38 -->
<g id="edge42" class="edge"><title>Node34&#45;&gt;Node38</title>
<path fill="none" stroke="midnightblue" d="M993.003,-328.324C984.806,-320.42 972.494,-308.548 962.528,-298.938"/>
<polygon fill="midnightblue" stroke="midnightblue" points="964.789,-296.256 955.161,-291.834 959.93,-301.295 964.789,-296.256"/>
</g>
<!-- Node40&#45;&gt;Node15 -->
<g id="edge48" class="edge"><title>Node40&#45;&gt;Node15</title>
<path fill="none" stroke="midnightblue" d="M591.675,-390.274C604.112,-381.096 622.795,-365.566 634,-348 643.068,-333.784 648.541,-315.308 651.616,-301.689"/>
<polygon fill="midnightblue" stroke="midnightblue" points="655.106,-302.088 653.66,-291.592 648.245,-300.699 655.106,-302.088"/>
</g>
<!-- Node40&#45;&gt;Node17 -->
<g id="edge47" class="edge"><title>Node40&#45;&gt;Node17</title>
<path fill="none" stroke="midnightblue" d="M564.096,-390.49C550.516,-381.787 531.344,-366.884 523,-348 505.503,-308.4 539.61,-261.43 561.189,-237.223"/>
<polygon fill="midnightblue" stroke="midnightblue" points="563.967,-239.374 568.195,-229.659 558.832,-234.618 563.967,-239.374"/>
</g>
<!-- Node41 -->
<g id="node41" class="node"><title>Node41</title>
<g id="a_node41"><a xlink:href="../../dc/d14/ROC_8h.html" target="_top" xlink:title="TPCBase/ROC.h">
<polygon fill="none" stroke="black" points="532.5,-328.5 532.5,-347.5 625.5,-347.5 625.5,-328.5 532.5,-328.5"/>
<text text-anchor="middle" x="579" y="-335.5" font-family="Helvetica,sans-Serif" font-size="10.00">TPCBase/ROC.h</text>
</a>
</g>
</g>
<!-- Node40&#45;&gt;Node41 -->
<g id="edge49" class="edge"><title>Node40&#45;&gt;Node41</title>
<path fill="none" stroke="midnightblue" d="M579,-390.403C579,-381.938 579,-368.728 579,-357.82"/>
<polygon fill="midnightblue" stroke="midnightblue" points="582.5,-357.581 579,-347.581 575.5,-357.581 582.5,-357.581"/>
</g>
<!-- Node41&#45;&gt;Node15 -->
<g id="edge51" class="edge"><title>Node41&#45;&gt;Node15</title>
<path fill="none" stroke="midnightblue" d="M591.211,-328.324C602.776,-320.107 620.375,-307.602 634.161,-297.807"/>
<polygon fill="midnightblue" stroke="midnightblue" points="636.443,-300.479 642.567,-291.834 632.388,-294.773 636.443,-300.479"/>
</g>
<!-- Node41&#45;&gt;Node17 -->
<g id="edge50" class="edge"><title>Node41&#45;&gt;Node17</title>
<path fill="none" stroke="midnightblue" d="M578.85,-328.281C578.527,-309.547 577.76,-265.098 577.322,-239.682"/>
<polygon fill="midnightblue" stroke="midnightblue" points="580.819,-239.443 577.147,-229.505 573.82,-239.564 580.819,-239.443"/>
</g>
<!-- Node43 -->
<g id="node43" class="node"><title>Node43</title>
<polygon fill="none" stroke="#bfbfbf" points="1250.5,-390.5 1250.5,-409.5 1309.5,-409.5 1309.5,-390.5 1250.5,-390.5"/>
<text text-anchor="middle" x="1280" y="-397.5" font-family="Helvetica,sans-Serif" font-size="10.00">TObject.h</text>
</g>
<!-- Node42&#45;&gt;Node43 -->
<g id="edge53" class="edge"><title>Node42&#45;&gt;Node43</title>
<path fill="none" stroke="midnightblue" d="M1280,-458.372C1280,-448.643 1280,-432.528 1280,-419.85"/>
<polygon fill="midnightblue" stroke="midnightblue" points="1283.5,-419.841 1280,-409.841 1276.5,-419.841 1283.5,-419.841"/>
</g>
<!-- Node44&#45;&gt;Node11 -->
<g id="edge55" class="edge"><title>Node44&#45;&gt;Node11</title>
<path fill="none" stroke="midnightblue" d="M71,-136.679C71,-127.101 71,-114.394 71,-103.977"/>
<polygon fill="midnightblue" stroke="midnightblue" points="74.5001,-103.828 71,-93.8283 67.5001,-103.828 74.5001,-103.828"/>
</g>
</g>
</svg>
        <g id="navigator" transform="translate(0 0)" fill="#404254">
                <rect fill="#f2f5e9" fill-opacity="0.5" stroke="#606060" stroke-width=".5" x="0" y="0" width="60" height="60"/>
                <use id="zoomplus" xlink:href="#zoomPlus" x="17" y="9" onmousedown="handleZoom(evt,'in')"/>
                <use id="zoomminus" xlink:href="#zoomMin" x="42" y="9" onmousedown="handleZoom(evt,'out')"/>
                <use id="reset" xlink:href="#resetDef" x="30" y="36" onmousedown="handleReset()"/>
                <g id="arrowUp" xlink:href="#dirArrow" transform="translate(30 24)" onmousedown="handlePan(0,-1)">
                  <use xlink:href="#rim" fill="#404040">
                        <set attributeName="fill" to="#808080" begin="arrowUp.mouseover" end="arrowUp.mouseout"/>
                  </use>
                  <path fill="none" stroke="white" stroke-width="1.5" d="M0,-3.0v7 M-2.5,-0.5L0,-3.0L2.5,-0.5"/>
                </g>
                <g id="arrowRight" xlink:href="#dirArrow" transform="rotate(90) translate(36 -43)" onmousedown="handlePan(1,0)">
                  <use xlink:href="#rim" fill="#404040">
                        <set attributeName="fill" to="#808080" begin="arrowRight.mouseover" end="arrowRight.mouseout"/>
                  </use>
                  <path fill="none" stroke="white" stroke-width="1.5" d="M0,-3.0v7 M-2.5,-0.5L0,-3.0L2.5,-0.5"/>
                </g>
                <g id="arrowDown" xlink:href="#dirArrow" transform="rotate(180) translate(-30 -48)" onmousedown="handlePan(0,1)">
                  <use xlink:href="#rim" fill="#404040">
                        <set attributeName="fill" to="#808080" begin="arrowDown.mouseover" end="arrowDown.mouseout"/>
                  </use>
                  <path fill="none" stroke="white" stroke-width="1.5" d="M0,-3.0v7 M-2.5,-0.5L0,-3.0L2.5,-0.5"/>
                </g>
                <g id="arrowLeft" xlink:href="#dirArrow" transform="rotate(270) translate(-36 17)" onmousedown="handlePan(-1,0)">
                  <use xlink:href="#rim" fill="#404040">
                        <set attributeName="fill" to="#808080" begin="arrowLeft.mouseover" end="arrowLeft.mouseout"/>
                  </use>
                  <path fill="none" stroke="white" stroke-width="1.5" d="M0,-3.0v7 M-2.5,-0.5L0,-3.0L2.5,-0.5"/>
                </g>
        </g>
        <svg viewBox="0 0 15 15" width="100%" height="30px" preserveAspectRatio="xMaxYMin meet">
         <g id="arrow_out" transform="scale(0.3 0.3)">
          <a xlink:href="DigitPad_8cxx__incl_org.svg" target="_base">
           <rect id="button" ry="5" rx="5" y="6" x="6" height="38" width="38"
                fill="#f2f5e9" fill-opacity="0.5" stroke="#606060" stroke-width="1.0"/>
           <path id="arrow"
             d="M 11.500037,31.436501 C 11.940474,20.09759 22.043105,11.32322 32.158766,21.979434 L 37.068811,17.246167 C 37.068811,17.246167 37.088388,32 37.088388,32 L 22.160133,31.978069 C 22.160133,31.978069 26.997745,27.140456 26.997745,27.140456 C 18.528582,18.264221 13.291696,25.230495 11.500037,31.436501 z"
             style="fill:#404040;"/>
          </a>
         </g>
        </svg>
</svg>
