<?xml version="1.0" encoding="UTF-8" standalone="no"?>
<!DOCTYPE svg PUBLIC "-//W3C//DTD SVG 1.1//EN"
 "http://www.w3.org/Graphics/SVG/1.1/DTD/svg11.dtd">
<!-- Generated by graphviz version 2.36.0 (20140111.2315)
 -->
<!-- Title: /home/travis/build/AliceO2Group/AliceO2/Steer/include/Steer/InteractionSampler.h Pages: 1 -->
<svg width="371pt" height="140pt"
 viewBox="0.00 0.00 371.00 140.00" xmlns="http://www.w3.org/2000/svg" xmlns:xlink="http://www.w3.org/1999/xlink">
<g id="graph0" class="graph" transform="scale(1 1) rotate(0) translate(4 136)">
<title>/home/travis/build/AliceO2Group/AliceO2/Steer/include/Steer/InteractionSampler.h</title>
<!-- Node1 -->
<g id="node1" class="node"><title>Node1</title>
<polygon fill="#bfbfbf" stroke="black" points="100,-79 100,-131 252,-131 252,-79 100,-79"/>
<text text-anchor="start" x="108" y="-119" font-family="Helvetica,sans-Serif" font-size="10.00">/home/travis/build</text>
<text text-anchor="start" x="108" y="-108" font-family="Helvetica,sans-Serif" font-size="10.00">/AliceO2Group/AliceO2</text>
<text text-anchor="start" x="108" y="-97" font-family="Helvetica,sans-Serif" font-size="10.00">/Steer/include/Steer/Interaction</text>
<text text-anchor="middle" x="176" y="-86" font-family="Helvetica,sans-Serif" font-size="10.00">Sampler.h</text>
</g>
<!-- Node2 -->
<g id="node2" class="node"><title>Node2</title>
<g id="a_node2"><a xlink:href="../../de/d50/InteractionSampler_8cxx.html" target="_top" xlink:title="/home/travis/build\l/AliceO2Group/AliceO2\l/Steer/src/InteractionSampler.cxx">
<polygon fill="none" stroke="black" points="-0.5,-0.5 -0.5,-41.5 162.5,-41.5 162.5,-0.5 -0.5,-0.5"/>
<text text-anchor="start" x="7.5" y="-29.5" font-family="Helvetica,sans-Serif" font-size="10.00">/home/travis/build</text>
<text text-anchor="start" x="7.5" y="-18.5" font-family="Helvetica,sans-Serif" font-size="10.00">/AliceO2Group/AliceO2</text>
<text text-anchor="middle" x="81" y="-7.5" font-family="Helvetica,sans-Serif" font-size="10.00">/Steer/src/InteractionSampler.cxx</text>
</a>
</g>
</g>
<!-- Node1&#45;&gt;Node2 -->
<g id="edge1" class="edge"><title>Node1&#45;&gt;Node2</title>
<path fill="none" stroke="midnightblue" d="M139.303,-72.3244C127.356,-62.0124 114.446,-50.8695 103.819,-41.6965"/>
<polygon fill="midnightblue" stroke="midnightblue" points="137.124,-75.0671 146.981,-78.9517 141.698,-69.7681 137.124,-75.0671"/>
</g>
<!-- Node3 -->
<g id="node3" class="node"><title>Node3</title>
<g id="a_node3"><a xlink:href="../../d6/d9e/testInteractionSampler_8cxx.html" target="_top" xlink:title="/home/travis/build\l/AliceO2Group/AliceO2\l/Steer/test/testInteractionSampler.cxx">
<polygon fill="none" stroke="black" points="181,-0.5 181,-41.5 363,-41.5 363,-0.5 181,-0.5"/>
<text text-anchor="start" x="189" y="-29.5" font-family="Helvetica,sans-Serif" font-size="10.00">/home/travis/build</text>
<text text-anchor="start" x="189" y="-18.5" font-family="Helvetica,sans-Serif" font-size="10.00">/AliceO2Group/AliceO2</text>
<text text-anchor="middle" x="272" y="-7.5" font-family="Helvetica,sans-Serif" font-size="10.00">/Steer/test/testInteractionSampler.cxx</text>
</a>
</g>
</g>
<!-- Node1&#45;&gt;Node3 -->
<g id="edge2" class="edge"><title>Node1&#45;&gt;Node3</title>
<path fill="none" stroke="midnightblue" d="M213.084,-72.3244C225.156,-62.0124 238.202,-50.8695 248.941,-41.6965"/>
<polygon fill="midnightblue" stroke="midnightblue" points="210.655,-69.7955 205.325,-78.9517 215.202,-75.1182 210.655,-69.7955"/>
</g>
</g>
</svg>
