<?xml version="1.0" encoding="UTF-8" standalone="no"?>
<!DOCTYPE svg PUBLIC "-//W3C//DTD SVG 1.1//EN"
 "http://www.w3.org/Graphics/SVG/1.1/DTD/svg11.dtd">
<!-- Generated by graphviz version 2.36.0 (20140111.2315)
 -->
<!-- Title: /home/travis/build/AliceO2Group/AliceO2/Detectors/ITSMFT/MFT/base/src/Flex.cxx Pages: 1 -->
<!--zoomable 286 -->
<svg id="main" version="1.1" xmlns="http://www.w3.org/2000/svg" xmlns:xlink="http://www.w3.org/1999/xlink" xml:space="preserve" onload="init(evt)">
<style type="text/css"><![CDATA[
.edge:hover path { stroke: red; }
.edge:hover polygon { stroke: red; fill: red; }
]]></style>
<script type="text/javascript"><![CDATA[
var edges = document.getElementsByTagName('g');
if (edges && edges.length) {
  for (var i=0;i<edges.length;i++) {
    if (edges[i].id.substr(0,4)=='edge') {
      edges[i].setAttribute('class','edge');
    }
  }
}
]]></script>
        <defs>
                <circle id="rim" cx="0" cy="0" r="7"/>
                <circle id="rim2" cx="0" cy="0" r="3.5"/>
                <g id="zoomPlus">
                        <use xlink:href="#rim" fill="#404040">
                                <set attributeName="fill" to="#808080" begin="zoomplus.mouseover" end="zoomplus.mouseout"/>
                        </use>
                        <path d="M-4,0h8M0,-4v8" fill="none" stroke="white" stroke-width="1.5" pointer-events="none"/>
                </g>
                <g id="zoomMin">
                        <use xlink:href="#rim" fill="#404040">
                                <set attributeName="fill" to="#808080" begin="zoomminus.mouseover" end="zoomminus.mouseout"/>
                        </use>
                        <path d="M-4,0h8" fill="none" stroke="white" stroke-width="1.5" pointer-events="none"/>
                </g>
                <g id="dirArrow">
                        <path fill="none" stroke="white" stroke-width="1.5" d="M0,-3.0v7 M-2.5,-0.5L0,-3.0L2.5,-0.5"/>
                </g>
               <g id="resetDef">
                       <use xlink:href="#rim2" fill="#404040">
                               <set attributeName="fill" to="#808080" begin="reset.mouseover" end="reset.mouseout"/>
                       </use>
               </g>
        </defs>

<script type="text/javascript">
var viewWidth = 1597;
var viewHeight = 286;
var sectionId = 'dynsection-0';
</script>
<script xlink:href="../../svgpan.js"/>
<svg id="graph" class="graph">
<g id="viewport">
<title>/home/travis/build/AliceO2Group/AliceO2/Detectors/ITSMFT/MFT/base/src/Flex.cxx</title>
<!-- Node1 -->
<g id="node1" class="node"><title>Node1</title>
<polygon fill="#bfbfbf" stroke="black" points="573.5,-225 573.5,-277 698.5,-277 698.5,-225 573.5,-225"/>
<text text-anchor="start" x="581.5" y="-265" font-family="Helvetica,sans-Serif" font-size="10.00">/home/travis/build</text>
<text text-anchor="start" x="581.5" y="-254" font-family="Helvetica,sans-Serif" font-size="10.00">/AliceO2Group/AliceO2</text>
<text text-anchor="start" x="581.5" y="-243" font-family="Helvetica,sans-Serif" font-size="10.00">/Detectors/ITSMFT/MFT</text>
<text text-anchor="middle" x="636" y="-232" font-family="Helvetica,sans-Serif" font-size="10.00">/base/src/Flex.cxx</text>
</g>
<!-- Node2 -->
<g id="node2" class="node"><title>Node2</title>
<polygon fill="none" stroke="#bfbfbf" points="0,-168.5 0,-187.5 86,-187.5 86,-168.5 0,-168.5"/>
<text text-anchor="middle" x="43" y="-175.5" font-family="Helvetica,sans-Serif" font-size="10.00">TGeoManager.h</text>
</g>
<!-- Node1&#45;&gt;Node2 -->
<g id="edge1" class="edge"><title>Node1&#45;&gt;Node2</title>
<path fill="none" stroke="midnightblue" d="M573.18,-243.587C472.959,-233.163 270.775,-211.349 100,-188 98.7437,-187.828 97.4724,-187.651 96.1905,-187.471"/>
<polygon fill="midnightblue" stroke="midnightblue" points="96.6325,-183.998 86.2322,-186.019 95.6227,-190.925 96.6325,-183.998"/>
</g>
<!-- Node3 -->
<g id="node3" class="node"><title>Node3</title>
<polygon fill="none" stroke="#bfbfbf" points="142,-112.5 142,-131.5 224,-131.5 224,-112.5 142,-112.5"/>
<text text-anchor="middle" x="183" y="-119.5" font-family="Helvetica,sans-Serif" font-size="10.00">TGeoVolume.h</text>
</g>
<!-- Node1&#45;&gt;Node3 -->
<g id="edge2" class="edge"><title>Node1&#45;&gt;Node3</title>
<path fill="none" stroke="midnightblue" d="M573.251,-246.05C453.671,-237.882 202.698,-217.402 177,-188 165.958,-175.366 169.696,-155.603 174.811,-141.184"/>
<polygon fill="midnightblue" stroke="midnightblue" points="178.098,-142.39 178.587,-131.807 171.604,-139.775 178.098,-142.39"/>
</g>
<!-- Node4 -->
<g id="node4" class="node"><title>Node4</title>
<polygon fill="none" stroke="#bfbfbf" points="602,-168.5 602,-187.5 670,-187.5 670,-168.5 602,-168.5"/>
<text text-anchor="middle" x="636" y="-175.5" font-family="Helvetica,sans-Serif" font-size="10.00">TGeoTrd2.h</text>
</g>
<!-- Node1&#45;&gt;Node4 -->
<g id="edge3" class="edge"><title>Node1&#45;&gt;Node4</title>
<path fill="none" stroke="midnightblue" d="M636,-224.768C636,-215.89 636,-206.074 636,-197.816"/>
<polygon fill="midnightblue" stroke="midnightblue" points="639.5,-197.757 636,-187.757 632.5,-197.757 639.5,-197.757"/>
</g>
<!-- Node5 -->
<g id="node5" class="node"><title>Node5</title>
<polygon fill="none" stroke="#bfbfbf" points="536,-0.5 536,-19.5 612,-19.5 612,-0.5 536,-0.5"/>
<text text-anchor="middle" x="574" y="-7.5" font-family="Helvetica,sans-Serif" font-size="10.00">TGeoMatrix.h</text>
</g>
<!-- Node1&#45;&gt;Node5 -->
<g id="edge4" class="edge"><title>Node1&#45;&gt;Node5</title>
<path fill="none" stroke="midnightblue" d="M613.282,-224.736C605.23,-214.159 597.146,-201.252 593,-188 590.346,-179.517 590.189,-176.433 593,-168 599.325,-149.026 613.675,-150.974 620,-132 622.811,-123.567 621.885,-120.687 620,-112 613.254,-80.9115 596.076,-47.9125 584.728,-28.3987"/>
<polygon fill="midnightblue" stroke="midnightblue" points="587.687,-26.5271 579.554,-19.7371 581.677,-30.1169 587.687,-26.5271"/>
</g>
<!-- Node6 -->
<g id="node6" class="node"><title>Node6</title>
<polygon fill="none" stroke="#bfbfbf" points="688.5,-168.5 688.5,-187.5 761.5,-187.5 761.5,-168.5 688.5,-168.5"/>
<text text-anchor="middle" x="725" y="-175.5" font-family="Helvetica,sans-Serif" font-size="10.00">TGeoBBox.h</text>
</g>
<!-- Node1&#45;&gt;Node6 -->
<g id="edge5" class="edge"><title>Node1&#45;&gt;Node6</title>
<path fill="none" stroke="midnightblue" d="M667.378,-224.968C680.299,-214.66 694.842,-203.059 706.084,-194.09"/>
<polygon fill="midnightblue" stroke="midnightblue" points="708.322,-196.782 713.957,-187.81 703.957,-191.31 708.322,-196.782"/>
</g>
<!-- Node7 -->
<g id="node7" class="node"><title>Node7</title>
<polygon fill="none" stroke="#bfbfbf" points="779.5,-168.5 779.5,-187.5 850.5,-187.5 850.5,-168.5 779.5,-168.5"/>
<text text-anchor="middle" x="815" y="-175.5" font-family="Helvetica,sans-Serif" font-size="10.00">TGeoTube.h</text>
</g>
<!-- Node1&#45;&gt;Node7 -->
<g id="edge6" class="edge"><title>Node1&#45;&gt;Node7</title>
<path fill="none" stroke="midnightblue" d="M698.606,-225.168C727.54,-213.691 760.609,-200.574 784.086,-191.262"/>
<polygon fill="midnightblue" stroke="midnightblue" points="785.515,-194.461 793.52,-187.52 782.934,-187.954 785.515,-194.461"/>
</g>
<!-- Node8 -->
<g id="node8" class="node"><title>Node8</title>
<polygon fill="none" stroke="#bfbfbf" points="869,-168.5 869,-187.5 993,-187.5 993,-168.5 869,-168.5"/>
<text text-anchor="middle" x="931" y="-175.5" font-family="Helvetica,sans-Serif" font-size="10.00">TGeoCompositeShape.h</text>
</g>
<!-- Node1&#45;&gt;Node8 -->
<g id="edge7" class="edge"><title>Node1&#45;&gt;Node8</title>
<path fill="none" stroke="midnightblue" d="M698.562,-234.943C754.575,-221.462 835.378,-202.014 885.465,-189.959"/>
<polygon fill="midnightblue" stroke="midnightblue" points="886.458,-193.32 895.361,-187.578 884.82,-186.515 886.458,-193.32"/>
</g>
<!-- Node9 -->
<g id="node9" class="node"><title>Node9</title>
<polygon fill="none" stroke="#bfbfbf" points="1011,-168.5 1011,-187.5 1103,-187.5 1103,-168.5 1011,-168.5"/>
<text text-anchor="middle" x="1057" y="-175.5" font-family="Helvetica,sans-Serif" font-size="10.00">TGeoBoolNode.h</text>
</g>
<!-- Node1&#45;&gt;Node9 -->
<g id="edge8" class="edge"><title>Node1&#45;&gt;Node9</title>
<path fill="none" stroke="midnightblue" d="M698.573,-239.447C780.341,-225.658 922.323,-201.713 1000.81,-188.477"/>
<polygon fill="midnightblue" stroke="midnightblue" points="1001.7,-191.875 1010.98,-186.761 1000.54,-184.972 1001.7,-191.875"/>
</g>
<!-- Node10 -->
<g id="node10" class="node"><title>Node10</title>
<polygon fill="none" stroke="#bfbfbf" points="1121.5,-168.5 1121.5,-187.5 1174.5,-187.5 1174.5,-168.5 1121.5,-168.5"/>
<text text-anchor="middle" x="1148" y="-175.5" font-family="Helvetica,sans-Serif" font-size="10.00">TMath.h</text>
</g>
<!-- Node1&#45;&gt;Node10 -->
<g id="edge9" class="edge"><title>Node1&#45;&gt;Node10</title>
<path fill="none" stroke="midnightblue" d="M698.74,-244.16C788.174,-235.319 957.549,-216.671 1111.24,-187.937"/>
<polygon fill="midnightblue" stroke="midnightblue" points="1112.16,-191.324 1121.34,-186.029 1110.86,-184.446 1112.16,-191.324"/>
</g>
<!-- Node11 -->
<g id="node11" class="node"><title>Node11</title>
<polygon fill="none" stroke="#bfbfbf" points="1192.5,-168.5 1192.5,-187.5 1263.5,-187.5 1263.5,-168.5 1192.5,-168.5"/>
<text text-anchor="middle" x="1228" y="-175.5" font-family="Helvetica,sans-Serif" font-size="10.00">FairLogger.h</text>
</g>
<!-- Node1&#45;&gt;Node11 -->
<g id="edge10" class="edge"><title>Node1&#45;&gt;Node11</title>
<path fill="none" stroke="midnightblue" d="M698.576,-244.642C798.602,-235.696 1000.84,-216.045 1182.2,-188.003"/>
<polygon fill="midnightblue" stroke="midnightblue" points="1182.85,-191.444 1192.19,-186.446 1181.77,-184.528 1182.85,-191.444"/>
</g>
<!-- Node12 -->
<g id="node12" class="node"><title>Node12</title>
<g id="a_node12"><a xlink:href="../../d9/d03/ITSMFT_2MFT_2base_2include_2MFTBase_2Constants_8h.html" target="_top" xlink:title="MFTBase/Constants.h">
<polygon fill="none" stroke="black" points="1282,-168.5 1282,-187.5 1398,-187.5 1398,-168.5 1282,-168.5"/>
<text text-anchor="middle" x="1340" y="-175.5" font-family="Helvetica,sans-Serif" font-size="10.00">MFTBase/Constants.h</text>
</a>
</g>
</g>
<!-- Node1&#45;&gt;Node12 -->
<g id="edge11" class="edge"><title>Node1&#45;&gt;Node12</title>
<path fill="none" stroke="midnightblue" d="M698.815,-244.599C811.304,-234.767 1054.8,-212.768 1271.79,-187.985"/>
<polygon fill="midnightblue" stroke="midnightblue" points="1272.24,-191.456 1281.78,-186.84 1271.44,-184.502 1272.24,-191.456"/>
</g>
<!-- Node14 -->
<g id="node14" class="node"><title>Node14</title>
<g id="a_node14"><a xlink:href="../../d9/de7/LadderSegmentation_8h.html" target="_top" xlink:title="Description of the virtual segmentation of a ladder. ">
<polygon fill="none" stroke="black" points="348,-168.5 348,-187.5 508,-187.5 508,-168.5 348,-168.5"/>
<text text-anchor="middle" x="428" y="-175.5" font-family="Helvetica,sans-Serif" font-size="10.00">MFTBase/LadderSegmentation.h</text>
</a>
</g>
</g>
<!-- Node1&#45;&gt;Node14 -->
<g id="edge13" class="edge"><title>Node1&#45;&gt;Node14</title>
<path fill="none" stroke="midnightblue" d="M573.311,-228.601C536.987,-216.202 492.634,-201.062 462.554,-190.795"/>
<polygon fill="midnightblue" stroke="midnightblue" points="463.527,-187.429 452.932,-187.511 461.265,-194.053 463.527,-187.429"/>
</g>
<!-- Node18 -->
<g id="node18" class="node"><title>Node18</title>
<g id="a_node18"><a xlink:href="../../d3/dbd/ChipSegmentation_8h.html" target="_top" xlink:title="Chip (sensor) segmentation description. ">
<polygon fill="none" stroke="black" points="460.5,-112.5 460.5,-131.5 611.5,-131.5 611.5,-112.5 460.5,-112.5"/>
<text text-anchor="middle" x="536" y="-119.5" font-family="Helvetica,sans-Serif" font-size="10.00">MFTBase/ChipSegmentation.h</text>
</a>
</g>
</g>
<!-- Node1&#45;&gt;Node18 -->
<g id="edge20" class="edge"><title>Node1&#45;&gt;Node18</title>
<path fill="none" stroke="midnightblue" d="M597.146,-224.73C583.932,-214.599 569.994,-201.996 560,-188 549.961,-173.941 543.633,-155.201 540.011,-141.455"/>
<polygon fill="midnightblue" stroke="midnightblue" points="543.404,-140.595 537.668,-131.687 536.597,-142.228 543.404,-140.595"/>
</g>
<!-- Node19 -->
<g id="node19" class="node"><title>Node19</title>
<g id="a_node19"><a xlink:href="../../d2/d8d/Flex_8h.html" target="_top" xlink:title="Flex (Printed Cabled Board) class for ALICE MFT upgrade. ">
<polygon fill="none" stroke="black" points="102.5,-56.5 102.5,-75.5 191.5,-75.5 191.5,-56.5 102.5,-56.5"/>
<text text-anchor="middle" x="147" y="-63.5" font-family="Helvetica,sans-Serif" font-size="10.00">MFTBase/Flex.h</text>
</a>
</g>
</g>
<!-- Node1&#45;&gt;Node19 -->
<g id="edge21" class="edge"><title>Node1&#45;&gt;Node19</title>
<path fill="none" stroke="midnightblue" d="M573.163,-248.43C460.911,-244.544 231.542,-231.385 166,-188 135.293,-167.674 127.468,-148.407 133,-112 134.368,-103.001 137.19,-93.3251 139.945,-85.2601"/>
<polygon fill="midnightblue" stroke="midnightblue" points="143.265,-86.3722 143.4,-75.7782 136.688,-83.9759 143.265,-86.3722"/>
</g>
<!-- Node20 -->
<g id="node20" class="node"><title>Node20</title>
<g id="a_node20"><a xlink:href="../../d0/d12/Ladder_8h.html" target="_top" xlink:title="Class building the Ladder geometry. ">
<polygon fill="none" stroke="black" points="186,-168.5 186,-187.5 286,-187.5 286,-168.5 186,-168.5"/>
<text text-anchor="middle" x="236" y="-175.5" font-family="Helvetica,sans-Serif" font-size="10.00">MFTBase/Ladder.h</text>
</a>
</g>
</g>
<!-- Node1&#45;&gt;Node20 -->
<g id="edge23" class="edge"><title>Node1&#45;&gt;Node20</title>
<path fill="none" stroke="midnightblue" d="M573.06,-238.828C496.574,-225.252 368.557,-202.529 294.252,-189.34"/>
<polygon fill="midnightblue" stroke="midnightblue" points="294.592,-185.845 284.134,-187.544 293.369,-192.738 294.592,-185.845"/>
</g>
<!-- Node21 -->
<g id="node21" class="node"><title>Node21</title>
<g id="a_node21"><a xlink:href="../../d6/d2e/ITSMFT_2MFT_2base_2include_2MFTBase_2Geometry_8h.html" target="_top" xlink:title="MFTBase/Geometry.h">
<polygon fill="none" stroke="black" points="280.5,-56.5 280.5,-75.5 393.5,-75.5 393.5,-56.5 280.5,-56.5"/>
<text text-anchor="middle" x="337" y="-63.5" font-family="Helvetica,sans-Serif" font-size="10.00">MFTBase/Geometry.h</text>
</a>
</g>
</g>
<!-- Node1&#45;&gt;Node21 -->
<g id="edge26" class="edge"><title>Node1&#45;&gt;Node21</title>
<path fill="none" stroke="midnightblue" d="M573.43,-243.202C497.58,-233.907 375.375,-215.219 339,-188 309.925,-166.244 299.024,-146.917 309,-112 311.902,-101.844 317.832,-91.747 323.49,-83.6991"/>
<polygon fill="midnightblue" stroke="midnightblue" points="326.376,-85.6853 329.588,-75.5891 320.781,-81.4786 326.376,-85.6853"/>
</g>
<!-- Node22 -->
<g id="node22" class="node"><title>Node22</title>
<g id="a_node22"><a xlink:href="../../d3/dba/SegmentationAlpide_8h.html" target="_top" xlink:title="Definition of the SegmentationAlpide class. ">
<polygon fill="none" stroke="black" points="1416.5,-168.5 1416.5,-187.5 1589.5,-187.5 1589.5,-168.5 1416.5,-168.5"/>
<text text-anchor="middle" x="1503" y="-175.5" font-family="Helvetica,sans-Serif" font-size="10.00">ITSMFTBase/SegmentationAlpide.h</text>
</a>
</g>
</g>
<!-- Node1&#45;&gt;Node22 -->
<g id="edge28" class="edge"><title>Node1&#45;&gt;Node22</title>
<path fill="none" stroke="midnightblue" d="M698.652,-245.215C829.892,-235.135 1143.28,-210.764 1406,-188 1406.11,-187.991 1406.21,-187.982 1406.32,-187.973"/>
<polygon fill="midnightblue" stroke="midnightblue" points="1406.62,-191.46 1416.28,-187.099 1406.01,-184.486 1406.62,-191.46"/>
</g>
<!-- Node13 -->
<g id="node13" class="node"><title>Node13</title>
<polygon fill="none" stroke="#bfbfbf" points="1310.5,-112.5 1310.5,-131.5 1369.5,-131.5 1369.5,-112.5 1310.5,-112.5"/>
<text text-anchor="middle" x="1340" y="-119.5" font-family="Helvetica,sans-Serif" font-size="10.00">TObject.h</text>
</g>
<!-- Node12&#45;&gt;Node13 -->
<g id="edge12" class="edge"><title>Node12&#45;&gt;Node13</title>
<path fill="none" stroke="midnightblue" d="M1340,-168.083C1340,-161.006 1340,-150.861 1340,-141.986"/>
<polygon fill="midnightblue" stroke="midnightblue" points="1343.5,-141.751 1340,-131.751 1336.5,-141.751 1343.5,-141.751"/>
</g>
<!-- Node15 -->
<g id="node15" class="node"><title>Node15</title>
<polygon fill="none" stroke="#bfbfbf" points="318.5,-112.5 318.5,-131.5 403.5,-131.5 403.5,-112.5 318.5,-112.5"/>
<text text-anchor="middle" x="361" y="-119.5" font-family="Helvetica,sans-Serif" font-size="10.00">TClonesArray.h</text>
</g>
<!-- Node14&#45;&gt;Node15 -->
<g id="edge14" class="edge"><title>Node14&#45;&gt;Node15</title>
<path fill="none" stroke="midnightblue" d="M417.235,-168.324C407.234,-160.263 392.113,-148.077 380.07,-138.369"/>
<polygon fill="midnightblue" stroke="midnightblue" points="381.943,-135.384 371.961,-131.834 377.55,-140.834 381.943,-135.384"/>
</g>
<!-- Node16 -->
<g id="node16" class="node"><title>Node16</title>
<g id="a_node16"><a xlink:href="../../d3/de7/VSegmentation_8h.html" target="_top" xlink:title="Abstract base class for MFT Segmentation description. ">
<polygon fill="none" stroke="black" points="439.5,-56.5 439.5,-75.5 576.5,-75.5 576.5,-56.5 439.5,-56.5"/>
<text text-anchor="middle" x="508" y="-63.5" font-family="Helvetica,sans-Serif" font-size="10.00">MFTBase/VSegmentation.h</text>
</a>
</g>
</g>
<!-- Node14&#45;&gt;Node16 -->
<g id="edge15" class="edge"><title>Node14&#45;&gt;Node16</title>
<path fill="none" stroke="midnightblue" d="M429.475,-168.287C432.044,-155.094 438.318,-129.715 451,-112 459.802,-99.7042 472.868,-89.0523 484.27,-81.2028"/>
<polygon fill="midnightblue" stroke="midnightblue" points="486.491,-83.9328 492.945,-75.5307 482.66,-78.0741 486.491,-83.9328"/>
</g>
<!-- Node14&#45;&gt;Node18 -->
<g id="edge18" class="edge"><title>Node14&#45;&gt;Node18</title>
<path fill="none" stroke="midnightblue" d="M445.352,-168.324C462.672,-159.664 489.515,-146.242 509.502,-136.249"/>
<polygon fill="midnightblue" stroke="midnightblue" points="511.312,-139.257 518.691,-131.655 508.181,-132.996 511.312,-139.257"/>
</g>
<!-- Node16&#45;&gt;Node5 -->
<g id="edge17" class="edge"><title>Node16&#45;&gt;Node5</title>
<path fill="none" stroke="midnightblue" d="M518.604,-56.324C528.456,-48.2631 543.351,-36.0765 555.215,-26.3695"/>
<polygon fill="midnightblue" stroke="midnightblue" points="557.68,-28.8752 563.203,-19.8339 553.247,-23.4575 557.68,-28.8752"/>
</g>
<!-- Node17 -->
<g id="node17" class="node"><title>Node17</title>
<polygon fill="none" stroke="#bfbfbf" points="263,-0.5 263,-19.5 325,-19.5 325,-0.5 263,-0.5"/>
<text text-anchor="middle" x="294" y="-7.5" font-family="Helvetica,sans-Serif" font-size="10.00">TNamed.h</text>
</g>
<!-- Node16&#45;&gt;Node17 -->
<g id="edge16" class="edge"><title>Node16&#45;&gt;Node17</title>
<path fill="none" stroke="midnightblue" d="M474.091,-56.4435C436.39,-46.9302 375.499,-31.5652 335.113,-21.3743"/>
<polygon fill="midnightblue" stroke="midnightblue" points="335.866,-17.9546 325.313,-18.9015 334.153,-24.7419 335.866,-17.9546"/>
</g>
<!-- Node18&#45;&gt;Node16 -->
<g id="edge19" class="edge"><title>Node18&#45;&gt;Node16</title>
<path fill="none" stroke="midnightblue" d="M531.376,-112.083C527.544,-104.691 521.976,-93.9533 517.235,-84.8111"/>
<polygon fill="midnightblue" stroke="midnightblue" points="520.248,-83.0175 512.538,-75.7511 514.034,-86.2398 520.248,-83.0175"/>
</g>
<!-- Node19&#45;&gt;Node17 -->
<g id="edge22" class="edge"><title>Node19&#45;&gt;Node17</title>
<path fill="none" stroke="midnightblue" d="M170.293,-56.4435C194.807,-47.4381 233.596,-33.1891 261.2,-23.049"/>
<polygon fill="midnightblue" stroke="midnightblue" points="262.637,-26.25 270.816,-19.5164 260.223,-19.6793 262.637,-26.25"/>
</g>
<!-- Node20&#45;&gt;Node3 -->
<g id="edge25" class="edge"><title>Node20&#45;&gt;Node3</title>
<path fill="none" stroke="midnightblue" d="M227.248,-168.083C219.53,-160.22 208.095,-148.569 198.783,-139.081"/>
<polygon fill="midnightblue" stroke="midnightblue" points="201.092,-136.436 191.589,-131.751 196.096,-141.34 201.092,-136.436"/>
</g>
<!-- Node20&#45;&gt;Node17 -->
<g id="edge24" class="edge"><title>Node20&#45;&gt;Node17</title>
<path fill="none" stroke="midnightblue" d="M237.912,-168.304C242.47,-148.153 254.817,-96.8675 271,-56 274.674,-46.7208 279.624,-36.8032 283.991,-28.6466"/>
<polygon fill="midnightblue" stroke="midnightblue" points="287.143,-30.1795 288.903,-19.7319 281.012,-26.8013 287.143,-30.1795"/>
</g>
<!-- Node21&#45;&gt;Node17 -->
<g id="edge27" class="edge"><title>Node21&#45;&gt;Node17</title>
<path fill="none" stroke="midnightblue" d="M329.899,-56.083C323.763,-48.3768 314.73,-37.0333 307.261,-27.6531"/>
<polygon fill="midnightblue" stroke="midnightblue" points="309.936,-25.3936 300.968,-19.7511 304.46,-29.7542 309.936,-25.3936"/>
</g>
<!-- Node23 -->
<g id="node23" class="node"><title>Node23</title>
<polygon fill="none" stroke="#bfbfbf" points="1475,-112.5 1475,-131.5 1531,-131.5 1531,-112.5 1475,-112.5"/>
<text text-anchor="middle" x="1503" y="-119.5" font-family="Helvetica,sans-Serif" font-size="10.00">Rtypes.h</text>
</g>
<!-- Node22&#45;&gt;Node23 -->
<g id="edge29" class="edge"><title>Node22&#45;&gt;Node23</title>
<path fill="none" stroke="midnightblue" d="M1503,-168.083C1503,-161.006 1503,-150.861 1503,-141.986"/>
<polygon fill="midnightblue" stroke="midnightblue" points="1506.5,-141.751 1503,-131.751 1499.5,-141.751 1506.5,-141.751"/>
</g>
</g>
</svg>
        <g id="navigator" transform="translate(0 0)" fill="#404254">
                <rect fill="#f2f5e9" fill-opacity="0.5" stroke="#606060" stroke-width=".5" x="0" y="0" width="60" height="60"/>
                <use id="zoomplus" xlink:href="#zoomPlus" x="17" y="9" onmousedown="handleZoom(evt,'in')"/>
                <use id="zoomminus" xlink:href="#zoomMin" x="42" y="9" onmousedown="handleZoom(evt,'out')"/>
                <use id="reset" xlink:href="#resetDef" x="30" y="36" onmousedown="handleReset()"/>
                <g id="arrowUp" xlink:href="#dirArrow" transform="translate(30 24)" onmousedown="handlePan(0,-1)">
                  <use xlink:href="#rim" fill="#404040">
                        <set attributeName="fill" to="#808080" begin="arrowUp.mouseover" end="arrowUp.mouseout"/>
                  </use>
                  <path fill="none" stroke="white" stroke-width="1.5" d="M0,-3.0v7 M-2.5,-0.5L0,-3.0L2.5,-0.5"/>
                </g>
                <g id="arrowRight" xlink:href="#dirArrow" transform="rotate(90) translate(36 -43)" onmousedown="handlePan(1,0)">
                  <use xlink:href="#rim" fill="#404040">
                        <set attributeName="fill" to="#808080" begin="arrowRight.mouseover" end="arrowRight.mouseout"/>
                  </use>
                  <path fill="none" stroke="white" stroke-width="1.5" d="M0,-3.0v7 M-2.5,-0.5L0,-3.0L2.5,-0.5"/>
                </g>
                <g id="arrowDown" xlink:href="#dirArrow" transform="rotate(180) translate(-30 -48)" onmousedown="handlePan(0,1)">
                  <use xlink:href="#rim" fill="#404040">
                        <set attributeName="fill" to="#808080" begin="arrowDown.mouseover" end="arrowDown.mouseout"/>
                  </use>
                  <path fill="none" stroke="white" stroke-width="1.5" d="M0,-3.0v7 M-2.5,-0.5L0,-3.0L2.5,-0.5"/>
                </g>
                <g id="arrowLeft" xlink:href="#dirArrow" transform="rotate(270) translate(-36 17)" onmousedown="handlePan(-1,0)">
                  <use xlink:href="#rim" fill="#404040">
                        <set attributeName="fill" to="#808080" begin="arrowLeft.mouseover" end="arrowLeft.mouseout"/>
                  </use>
                  <path fill="none" stroke="white" stroke-width="1.5" d="M0,-3.0v7 M-2.5,-0.5L0,-3.0L2.5,-0.5"/>
                </g>
        </g>
        <svg viewBox="0 0 15 15" width="100%" height="30px" preserveAspectRatio="xMaxYMin meet">
         <g id="arrow_out" transform="scale(0.3 0.3)">
          <a xlink:href="Flex_8cxx__incl_org.svg" target="_base">
           <rect id="button" ry="5" rx="5" y="6" x="6" height="38" width="38"
                fill="#f2f5e9" fill-opacity="0.5" stroke="#606060" stroke-width="1.0"/>
           <path id="arrow"
             d="M 11.500037,31.436501 C 11.940474,20.09759 22.043105,11.32322 32.158766,21.979434 L 37.068811,17.246167 C 37.068811,17.246167 37.088388,32 37.088388,32 L 22.160133,31.978069 C 22.160133,31.978069 26.997745,27.140456 26.997745,27.140456 C 18.528582,18.264221 13.291696,25.230495 11.500037,31.436501 z"
             style="fill:#404040;"/>
          </a>
         </g>
        </svg>
</svg>
