<?xml version="1.0" encoding="UTF-8" standalone="no"?>
<!DOCTYPE svg PUBLIC "-//W3C//DTD SVG 1.1//EN"
 "http://www.w3.org/Graphics/SVG/1.1/DTD/svg11.dtd">
<!-- Generated by graphviz version 2.36.0 (20140111.2315)
 -->
<!-- Title: /home/travis/build/AliceO2Group/AliceO2/Detectors/TPC/reconstruction/include/TPCReconstruction/HardwareClusterDecoder.h Pages: 1 -->
<!--zoomable 668 -->
<svg id="main" version="1.1" xmlns="http://www.w3.org/2000/svg" xmlns:xlink="http://www.w3.org/1999/xlink" xml:space="preserve" onload="init(evt)">
<style type="text/css"><![CDATA[
.edge:hover path { stroke: red; }
.edge:hover polygon { stroke: red; fill: red; }
]]></style>
<script type="text/javascript"><![CDATA[
var edges = document.getElementsByTagName('g');
if (edges && edges.length) {
  for (var i=0;i<edges.length;i++) {
    if (edges[i].id.substr(0,4)=='edge') {
      edges[i].setAttribute('class','edge');
    }
  }
}
]]></script>
        <defs>
                <circle id="rim" cx="0" cy="0" r="7"/>
                <circle id="rim2" cx="0" cy="0" r="3.5"/>
                <g id="zoomPlus">
                        <use xlink:href="#rim" fill="#404040">
                                <set attributeName="fill" to="#808080" begin="zoomplus.mouseover" end="zoomplus.mouseout"/>
                        </use>
                        <path d="M-4,0h8M0,-4v8" fill="none" stroke="white" stroke-width="1.5" pointer-events="none"/>
                </g>
                <g id="zoomMin">
                        <use xlink:href="#rim" fill="#404040">
                                <set attributeName="fill" to="#808080" begin="zoomminus.mouseover" end="zoomminus.mouseout"/>
                        </use>
                        <path d="M-4,0h8" fill="none" stroke="white" stroke-width="1.5" pointer-events="none"/>
                </g>
                <g id="dirArrow">
                        <path fill="none" stroke="white" stroke-width="1.5" d="M0,-3.0v7 M-2.5,-0.5L0,-3.0L2.5,-0.5"/>
                </g>
               <g id="resetDef">
                       <use xlink:href="#rim2" fill="#404040">
                               <set attributeName="fill" to="#808080" begin="reset.mouseover" end="reset.mouseout"/>
                       </use>
               </g>
        </defs>

<script type="text/javascript">
var viewWidth = 1385;
var viewHeight = 668;
var sectionId = 'dynsection-0';
</script>
<script xlink:href="../../svgpan.js"/>
<svg id="graph" class="graph">
<g id="viewport">
<title>/home/travis/build/AliceO2Group/AliceO2/Detectors/TPC/reconstruction/include/TPCReconstruction/HardwareClusterDecoder.h</title>
<!-- Node1 -->
<g id="node1" class="node"><title>Node1</title>
<polygon fill="#bfbfbf" stroke="black" points="1038,-596.5 1038,-659.5 1188,-659.5 1188,-596.5 1038,-596.5"/>
<text text-anchor="start" x="1046" y="-647.5" font-family="Helvetica,sans-Serif" font-size="10.00">/home/travis/build</text>
<text text-anchor="start" x="1046" y="-636.5" font-family="Helvetica,sans-Serif" font-size="10.00">/AliceO2Group/AliceO2</text>
<text text-anchor="start" x="1046" y="-625.5" font-family="Helvetica,sans-Serif" font-size="10.00">/Detectors/TPC/reconstruction</text>
<text text-anchor="start" x="1046" y="-614.5" font-family="Helvetica,sans-Serif" font-size="10.00">/include/TPCReconstruction</text>
<text text-anchor="middle" x="1113" y="-603.5" font-family="Helvetica,sans-Serif" font-size="10.00">/HardwareClusterDecoder.h</text>
</g>
<!-- Node2 -->
<g id="node2" class="node"><title>Node2</title>
<polygon fill="none" stroke="#bfbfbf" points="1040,-360.5 1040,-379.5 1084,-379.5 1084,-360.5 1040,-360.5"/>
<text text-anchor="middle" x="1062" y="-367.5" font-family="Helvetica,sans-Serif" font-size="10.00">vector</text>
</g>
<!-- Node1&#45;&gt;Node2 -->
<g id="edge1" class="edge"><title>Node1&#45;&gt;Node2</title>
<path fill="none" stroke="midnightblue" d="M1154.84,-596.153C1207.38,-553.662 1285.36,-475.617 1239,-416 1221.4,-393.359 1140.28,-380.245 1094.21,-374.5"/>
<polygon fill="midnightblue" stroke="midnightblue" points="1094.47,-371.007 1084.13,-373.29 1093.64,-377.957 1094.47,-371.007"/>
</g>
<!-- Node3 -->
<g id="node3" class="node"><title>Node3</title>
<g id="a_node3"><a xlink:href="../../db/d19/DigitalCurrentClusterIntegrator_8h.html" target="_top" xlink:title="TPCReconstruction/Digital\lCurrentClusterIntegrator.h">
<polygon fill="none" stroke="black" points="756,-529 756,-559 890,-559 890,-529 756,-529"/>
<text text-anchor="start" x="764" y="-547" font-family="Helvetica,sans-Serif" font-size="10.00">TPCReconstruction/Digital</text>
<text text-anchor="middle" x="823" y="-536" font-family="Helvetica,sans-Serif" font-size="10.00">CurrentClusterIntegrator.h</text>
</a>
</g>
</g>
<!-- Node1&#45;&gt;Node3 -->
<g id="edge2" class="edge"><title>Node1&#45;&gt;Node3</title>
<path fill="none" stroke="midnightblue" d="M1037.94,-605.776C989.573,-592.1 927.553,-574.563 882.576,-561.846"/>
<polygon fill="midnightblue" stroke="midnightblue" points="883.251,-558.399 872.676,-559.046 881.347,-565.135 883.251,-558.399"/>
</g>
<!-- Node3&#45;&gt;Node2 -->
<g id="edge3" class="edge"><title>Node3&#45;&gt;Node2</title>
<path fill="none" stroke="midnightblue" d="M890.401,-534.792C993.285,-520.723 1181.84,-488.35 1222,-436 1256.89,-390.521 1150.44,-376.718 1094.29,-372.644"/>
<polygon fill="midnightblue" stroke="midnightblue" points="1094.32,-369.139 1084.11,-371.972 1093.86,-376.124 1094.32,-369.139"/>
</g>
<!-- Node4 -->
<g id="node4" class="node"><title>Node4</title>
<polygon fill="none" stroke="#bfbfbf" points="845,-472.5 845,-491.5 897,-491.5 897,-472.5 845,-472.5"/>
<text text-anchor="middle" x="871" y="-479.5" font-family="Helvetica,sans-Serif" font-size="10.00">memory</text>
</g>
<!-- Node3&#45;&gt;Node4 -->
<g id="edge4" class="edge"><title>Node3&#45;&gt;Node4</title>
<path fill="none" stroke="midnightblue" d="M834.375,-528.781C841.35,-520.062 850.314,-508.857 857.628,-499.715"/>
<polygon fill="midnightblue" stroke="midnightblue" points="860.502,-501.726 864.016,-491.731 855.036,-497.353 860.502,-501.726"/>
</g>
<!-- Node5 -->
<g id="node5" class="node"><title>Node5</title>
<g id="a_node5"><a xlink:href="../../de/dcd/ClusterNative_8h.html" target="_top" xlink:title="Class of a TPC cluster in TPC&#45;native coordinates (row, time) ">
<polygon fill="none" stroke="black" points="154.5,-416.5 154.5,-435.5 319.5,-435.5 319.5,-416.5 154.5,-416.5"/>
<text text-anchor="middle" x="237" y="-423.5" font-family="Helvetica,sans-Serif" font-size="10.00">DataFormatsTPC/ClusterNative.h</text>
</a>
</g>
</g>
<!-- Node3&#45;&gt;Node5 -->
<g id="edge5" class="edge"><title>Node3&#45;&gt;Node5</title>
<path fill="none" stroke="midnightblue" d="M755.778,-529.693C638.119,-506.402 397.209,-458.714 290.225,-437.536"/>
<polygon fill="midnightblue" stroke="midnightblue" points="290.788,-434.08 280.298,-435.571 289.428,-440.946 290.788,-434.08"/>
</g>
<!-- Node6 -->
<g id="node6" class="node"><title>Node6</title>
<g id="a_node6"><a xlink:href="../../d6/d51/TPC_2base_2include_2TPCBase_2Constants_8h.html" target="_top" xlink:title="TPCBase/Constants.h">
<polygon fill="none" stroke="black" points="179,-192.5 179,-211.5 295,-211.5 295,-192.5 179,-192.5"/>
<text text-anchor="middle" x="237" y="-199.5" font-family="Helvetica,sans-Serif" font-size="10.00">TPCBase/Constants.h</text>
</a>
</g>
</g>
<!-- Node3&#45;&gt;Node6 -->
<g id="edge8" class="edge"><title>Node3&#45;&gt;Node6</title>
<path fill="none" stroke="midnightblue" d="M755.852,-538.833C581.165,-527.101 126,-490.444 126,-427 126,-427 126,-427 126,-313 126,-266.824 175.063,-233.426 207.952,-216.226"/>
<polygon fill="midnightblue" stroke="midnightblue" points="209.786,-219.221 217.155,-211.609 206.648,-212.964 209.786,-219.221"/>
</g>
<!-- Node7 -->
<g id="node7" class="node"><title>Node7</title>
<g id="a_node7"><a xlink:href="../../d7/d2c/Mapper_8h.html" target="_top" xlink:title="TPCBase/Mapper.h">
<polygon fill="none" stroke="black" points="723.5,-472.5 723.5,-491.5 826.5,-491.5 826.5,-472.5 723.5,-472.5"/>
<text text-anchor="middle" x="775" y="-479.5" font-family="Helvetica,sans-Serif" font-size="10.00">TPCBase/Mapper.h</text>
</a>
</g>
</g>
<!-- Node3&#45;&gt;Node7 -->
<g id="edge9" class="edge"><title>Node3&#45;&gt;Node7</title>
<path fill="none" stroke="midnightblue" d="M811.625,-528.781C804.65,-520.062 795.686,-508.857 788.372,-499.715"/>
<polygon fill="midnightblue" stroke="midnightblue" points="790.964,-497.353 781.984,-491.731 785.498,-501.726 790.964,-497.353"/>
</g>
<!-- Node5&#45;&gt;Node2 -->
<g id="edge6" class="edge"><title>Node5&#45;&gt;Node2</title>
<path fill="none" stroke="midnightblue" d="M319.501,-419.6C497.384,-407.957 910.548,-380.913 1029.45,-373.131"/>
<polygon fill="midnightblue" stroke="midnightblue" points="1029.96,-376.605 1039.71,-372.459 1029.5,-369.62 1029.96,-376.605"/>
</g>
<!-- Node5&#45;&gt;Node6 -->
<g id="edge7" class="edge"><title>Node5&#45;&gt;Node6</title>
<path fill="none" stroke="midnightblue" d="M237,-416.297C237,-383.633 237,-267.866 237,-221.957"/>
<polygon fill="midnightblue" stroke="midnightblue" points="240.5,-221.884 237,-211.884 233.5,-221.884 240.5,-221.884"/>
</g>
<!-- Node7&#45;&gt;Node2 -->
<g id="edge11" class="edge"><title>Node7&#45;&gt;Node2</title>
<path fill="none" stroke="midnightblue" d="M826.764,-472.974C903.257,-461.016 1037.96,-439.544 1042,-436 1055.16,-424.466 1059.79,-404.498 1061.35,-389.73"/>
<polygon fill="midnightblue" stroke="midnightblue" points="1064.85,-389.891 1062.04,-379.675 1057.86,-389.413 1064.85,-389.891"/>
</g>
<!-- Node8 -->
<g id="node8" class="node"><title>Node8</title>
<polygon fill="none" stroke="#bfbfbf" points="729.5,-416.5 729.5,-435.5 764.5,-435.5 764.5,-416.5 729.5,-416.5"/>
<text text-anchor="middle" x="747" y="-423.5" font-family="Helvetica,sans-Serif" font-size="10.00">map</text>
</g>
<!-- Node7&#45;&gt;Node8 -->
<g id="edge10" class="edge"><title>Node7&#45;&gt;Node8</title>
<path fill="none" stroke="midnightblue" d="M770.376,-472.083C766.544,-464.691 760.976,-453.953 756.235,-444.811"/>
<polygon fill="midnightblue" stroke="midnightblue" points="759.248,-443.018 751.538,-435.751 753.034,-446.24 759.248,-443.018"/>
</g>
<!-- Node9 -->
<g id="node9" class="node"><title>Node9</title>
<polygon fill="none" stroke="#bfbfbf" points="783,-416.5 783,-435.5 821,-435.5 821,-416.5 783,-416.5"/>
<text text-anchor="middle" x="802" y="-423.5" font-family="Helvetica,sans-Serif" font-size="10.00">array</text>
</g>
<!-- Node7&#45;&gt;Node9 -->
<g id="edge12" class="edge"><title>Node7&#45;&gt;Node9</title>
<path fill="none" stroke="midnightblue" d="M779.459,-472.083C783.154,-464.691 788.523,-453.953 793.094,-444.811"/>
<polygon fill="midnightblue" stroke="midnightblue" points="796.283,-446.261 797.624,-435.751 790.022,-443.13 796.283,-446.261"/>
</g>
<!-- Node10 -->
<g id="node10" class="node"><title>Node10</title>
<polygon fill="none" stroke="#bfbfbf" points="839.5,-416.5 839.5,-435.5 880.5,-435.5 880.5,-416.5 839.5,-416.5"/>
<text text-anchor="middle" x="860" y="-423.5" font-family="Helvetica,sans-Serif" font-size="10.00">string</text>
</g>
<!-- Node7&#45;&gt;Node10 -->
<g id="edge13" class="edge"><title>Node7&#45;&gt;Node10</title>
<path fill="none" stroke="midnightblue" d="M788.657,-472.324C801.916,-463.9 822.268,-450.971 837.846,-441.074"/>
<polygon fill="midnightblue" stroke="midnightblue" points="839.813,-443.971 846.377,-435.655 836.06,-438.063 839.813,-443.971"/>
</g>
<!-- Node11 -->
<g id="node11" class="node"><title>Node11</title>
<polygon fill="none" stroke="#bfbfbf" points="964,-136.5 964,-155.5 1008,-155.5 1008,-136.5 964,-136.5"/>
<text text-anchor="middle" x="986" y="-143.5" font-family="Helvetica,sans-Serif" font-size="10.00">cmath</text>
</g>
<!-- Node7&#45;&gt;Node11 -->
<g id="edge14" class="edge"><title>Node7&#45;&gt;Node11</title>
<path fill="none" stroke="midnightblue" d="M826.559,-473.195C829.751,-472.773 832.918,-472.371 836,-472 921.533,-461.709 1155.16,-490.348 1222,-436 1245.45,-416.932 1242,-401.225 1242,-371 1242,-371 1242,-371 1242,-257 1242,-160.803 1087.52,-147.682 1018.57,-146.617"/>
<polygon fill="midnightblue" stroke="midnightblue" points="1018.3,-143.115 1008.27,-146.538 1018.24,-150.114 1018.3,-143.115"/>
</g>
<!-- Node12 -->
<g id="node12" class="node"><title>Node12</title>
<g id="a_node12"><a xlink:href="../../d1/d73/Defs_8h.html" target="_top" xlink:title="Common definitions for 2D coordinates. ">
<polygon fill="none" stroke="black" points="599,-192.5 599,-211.5 691,-211.5 691,-192.5 599,-192.5"/>
<text text-anchor="middle" x="645" y="-199.5" font-family="Helvetica,sans-Serif" font-size="10.00">TPCBase/Defs.h</text>
</a>
</g>
</g>
<!-- Node7&#45;&gt;Node12 -->
<g id="edge15" class="edge"><title>Node7&#45;&gt;Node12</title>
<path fill="none" stroke="midnightblue" d="M723.494,-478.552C609.925,-471.75 348,-447.744 348,-371 348,-371 348,-371 348,-313 348,-278.844 360.638,-267.032 389,-248 420.878,-226.608 523.468,-213.774 588.692,-207.571"/>
<polygon fill="midnightblue" stroke="midnightblue" points="589.188,-211.04 598.823,-206.632 588.542,-204.07 589.188,-211.04"/>
</g>
<!-- Node25 -->
<g id="node25" class="node"><title>Node25</title>
<g id="a_node25"><a xlink:href="../../de/d41/PadPos_8h.html" target="_top" xlink:title="TPCBase/PadPos.h">
<polygon fill="none" stroke="black" points="807.5,-304.5 807.5,-323.5 912.5,-323.5 912.5,-304.5 807.5,-304.5"/>
<text text-anchor="middle" x="860" y="-311.5" font-family="Helvetica,sans-Serif" font-size="10.00">TPCBase/PadPos.h</text>
</a>
</g>
</g>
<!-- Node7&#45;&gt;Node25 -->
<g id="edge30" class="edge"><title>Node7&#45;&gt;Node25</title>
<path fill="none" stroke="midnightblue" d="M758.293,-472.358C736.743,-460.08 703.841,-436.767 720,-416 759.983,-364.615 822.017,-431.385 862,-380 872.166,-366.935 870.031,-347.513 866.35,-333.302"/>
<polygon fill="midnightblue" stroke="midnightblue" points="869.671,-332.191 863.413,-323.642 862.974,-334.228 869.671,-332.191"/>
</g>
<!-- Node26 -->
<g id="node26" class="node"><title>Node26</title>
<g id="a_node26"><a xlink:href="../../dd/d0b/PadSecPos_8h.html" target="_top" xlink:title="TPCBase/PadSecPos.h">
<polygon fill="none" stroke="black" points="414,-360.5 414,-379.5 536,-379.5 536,-360.5 414,-360.5"/>
<text text-anchor="middle" x="475" y="-367.5" font-family="Helvetica,sans-Serif" font-size="10.00">TPCBase/PadSecPos.h</text>
</a>
</g>
</g>
<!-- Node7&#45;&gt;Node26 -->
<g id="edge31" class="edge"><title>Node7&#45;&gt;Node26</title>
<path fill="none" stroke="midnightblue" d="M723.495,-476.805C658.462,-470.696 551.062,-457.654 518,-436 500.894,-424.797 489,-404.169 482.125,-389.148"/>
<polygon fill="midnightblue" stroke="midnightblue" points="485.297,-387.664 478.165,-379.829 478.854,-390.401 485.297,-387.664"/>
</g>
<!-- Node27 -->
<g id="node27" class="node"><title>Node27</title>
<g id="a_node27"><a xlink:href="../../d3/dd6/Sector_8h.html" target="_top" xlink:title="TPCBase/Sector.h">
<polygon fill="none" stroke="black" points="398.5,-248.5 398.5,-267.5 497.5,-267.5 497.5,-248.5 398.5,-248.5"/>
<text text-anchor="middle" x="448" y="-255.5" font-family="Helvetica,sans-Serif" font-size="10.00">TPCBase/Sector.h</text>
</a>
</g>
</g>
<!-- Node7&#45;&gt;Node27 -->
<g id="edge57" class="edge"><title>Node7&#45;&gt;Node27</title>
<path fill="none" stroke="midnightblue" d="M723.377,-478.809C665.983,-474.993 571.318,-464.55 495,-436 450.875,-419.493 427.879,-421.183 405,-380 385.522,-344.939 414.657,-299.399 433.698,-275.423"/>
<polygon fill="midnightblue" stroke="midnightblue" points="436.471,-277.562 440.148,-267.625 431.077,-273.1 436.471,-277.562"/>
</g>
<!-- Node28 -->
<g id="node28" class="node"><title>Node28</title>
<g id="a_node28"><a xlink:href="../../da/d61/PadROCPos_8h.html" target="_top" xlink:title="TPCBase/PadROCPos.h">
<polygon fill="none" stroke="black" points="704,-360.5 704,-379.5 832,-379.5 832,-360.5 704,-360.5"/>
<text text-anchor="middle" x="768" y="-367.5" font-family="Helvetica,sans-Serif" font-size="10.00">TPCBase/PadROCPos.h</text>
</a>
</g>
</g>
<!-- Node7&#45;&gt;Node28 -->
<g id="edge36" class="edge"><title>Node7&#45;&gt;Node28</title>
<path fill="none" stroke="midnightblue" d="M739.148,-472.397C720.119,-465.81 698.373,-454.589 687,-436 672.817,-412.817 703.415,-394.401 730.979,-383.174"/>
<polygon fill="midnightblue" stroke="midnightblue" points="732.444,-386.361 740.523,-379.507 729.933,-379.826 732.444,-386.361"/>
</g>
<!-- Node30 -->
<g id="node30" class="node"><title>Node30</title>
<g id="a_node30"><a xlink:href="../../d3/d54/DigitPos_8h.html" target="_top" xlink:title="TPCBase/DigitPos.h">
<polygon fill="none" stroke="black" points="527,-416.5 527,-435.5 635,-435.5 635,-416.5 527,-416.5"/>
<text text-anchor="middle" x="581" y="-423.5" font-family="Helvetica,sans-Serif" font-size="10.00">TPCBase/DigitPos.h</text>
</a>
</g>
</g>
<!-- Node7&#45;&gt;Node30 -->
<g id="edge42" class="edge"><title>Node7&#45;&gt;Node30</title>
<path fill="none" stroke="midnightblue" d="M744.26,-472.444C711.056,-463.201 658.009,-448.436 621.443,-438.257"/>
<polygon fill="midnightblue" stroke="midnightblue" points="622.168,-434.826 611.596,-435.516 620.291,-441.57 622.168,-434.826"/>
</g>
<!-- Node32 -->
<g id="node32" class="node"><title>Node32</title>
<g id="a_node32"><a xlink:href="../../d1/d1f/FECInfo_8h.html" target="_top" xlink:title="TPCBase/FECInfo.h">
<polygon fill="none" stroke="black" points="1270.5,-248.5 1270.5,-267.5 1377.5,-267.5 1377.5,-248.5 1270.5,-248.5"/>
<text text-anchor="middle" x="1324" y="-255.5" font-family="Helvetica,sans-Serif" font-size="10.00">TPCBase/FECInfo.h</text>
</a>
</g>
</g>
<!-- Node7&#45;&gt;Node32 -->
<g id="edge50" class="edge"><title>Node7&#45;&gt;Node32</title>
<path fill="none" stroke="midnightblue" d="M826.555,-473.168C829.749,-472.753 832.916,-472.359 836,-472 929.046,-461.158 1181.13,-492.299 1256,-436 1307.26,-397.452 1319.88,-315.049 1322.99,-277.878"/>
<polygon fill="midnightblue" stroke="midnightblue" points="1326.48,-278.11 1323.68,-267.893 1319.5,-277.628 1326.48,-278.11"/>
</g>
<!-- Node33 -->
<g id="node33" class="node"><title>Node33</title>
<g id="a_node33"><a xlink:href="../../da/d9d/PadRegionInfo_8h.html" target="_top" xlink:title="TPCBase/PadRegionInfo.h">
<polygon fill="none" stroke="black" points="898.5,-416.5 898.5,-435.5 1033.5,-435.5 1033.5,-416.5 898.5,-416.5"/>
<text text-anchor="middle" x="966" y="-423.5" font-family="Helvetica,sans-Serif" font-size="10.00">TPCBase/PadRegionInfo.h</text>
</a>
</g>
</g>
<!-- Node7&#45;&gt;Node33 -->
<g id="edge52" class="edge"><title>Node7&#45;&gt;Node33</title>
<path fill="none" stroke="midnightblue" d="M805.265,-472.444C837.955,-463.201 890.182,-448.436 926.183,-438.257"/>
<polygon fill="midnightblue" stroke="midnightblue" points="927.206,-441.605 935.877,-435.516 925.302,-434.869 927.206,-441.605"/>
</g>
<!-- Node34 -->
<g id="node34" class="node"><title>Node34</title>
<g id="a_node34"><a xlink:href="../../d6/d42/PartitionInfo_8h.html" target="_top" xlink:title="TPCBase/PartitionInfo.h">
<polygon fill="none" stroke="black" points="1090.5,-416.5 1090.5,-435.5 1213.5,-435.5 1213.5,-416.5 1090.5,-416.5"/>
<text text-anchor="middle" x="1152" y="-423.5" font-family="Helvetica,sans-Serif" font-size="10.00">TPCBase/PartitionInfo.h</text>
</a>
</g>
</g>
<!-- Node7&#45;&gt;Node34 -->
<g id="edge56" class="edge"><title>Node7&#45;&gt;Node34</title>
<path fill="none" stroke="midnightblue" d="M826.582,-473.371C829.769,-472.905 832.928,-472.445 836,-472 920.331,-459.774 1017.37,-445.999 1081.42,-436.948"/>
<polygon fill="midnightblue" stroke="midnightblue" points="1082,-440.401 1091.41,-435.536 1081.02,-433.47 1082,-440.401"/>
</g>
<!-- Node12&#45;&gt;Node11 -->
<g id="edge16" class="edge"><title>Node12&#45;&gt;Node11</title>
<path fill="none" stroke="midnightblue" d="M691.344,-193.661C761.433,-182.562 892.658,-161.781 953.495,-152.147"/>
<polygon fill="midnightblue" stroke="midnightblue" points="954.334,-155.558 963.663,-150.537 953.239,-148.644 954.334,-155.558"/>
</g>
<!-- Node13 -->
<g id="node13" class="node"><title>Node13</title>
<g id="a_node13"><a xlink:href="../../d2/dd0/Cartesian2D_8h.html" target="_top" xlink:title="MathUtils/Cartesian2D.h">
<polygon fill="none" stroke="black" points="103.5,-74.5 103.5,-93.5 228.5,-93.5 228.5,-74.5 103.5,-74.5"/>
<text text-anchor="middle" x="166" y="-81.5" font-family="Helvetica,sans-Serif" font-size="10.00">MathUtils/Cartesian2D.h</text>
</a>
</g>
</g>
<!-- Node12&#45;&gt;Node13 -->
<g id="edge17" class="edge"><title>Node12&#45;&gt;Node13</title>
<path fill="none" stroke="midnightblue" d="M609.778,-192.47C524.31,-171.772 305.997,-118.903 211.139,-95.9313"/>
<polygon fill="midnightblue" stroke="midnightblue" points="211.817,-92.4943 201.274,-93.5423 210.169,-99.2977 211.817,-92.4943"/>
</g>
<!-- Node16 -->
<g id="node16" class="node"><title>Node16</title>
<g id="a_node16"><a xlink:href="../../dd/d76/Cartesian3D_8h.html" target="_top" xlink:title="MathUtils/Cartesian3D.h">
<polygon fill="none" stroke="black" points="594.5,-136.5 594.5,-155.5 719.5,-155.5 719.5,-136.5 594.5,-136.5"/>
<text text-anchor="middle" x="657" y="-143.5" font-family="Helvetica,sans-Serif" font-size="10.00">MathUtils/Cartesian3D.h</text>
</a>
</g>
</g>
<!-- Node12&#45;&gt;Node16 -->
<g id="edge20" class="edge"><title>Node12&#45;&gt;Node16</title>
<path fill="none" stroke="midnightblue" d="M646.982,-192.083C648.572,-184.927 650.859,-174.635 652.846,-165.691"/>
<polygon fill="midnightblue" stroke="midnightblue" points="656.303,-166.272 655.055,-155.751 649.469,-164.754 656.303,-166.272"/>
</g>
<!-- Node14 -->
<g id="node14" class="node"><title>Node14</title>
<polygon fill="none" stroke="#bfbfbf" points="-0.5,-1 -0.5,-31 150.5,-31 150.5,-1 -0.5,-1"/>
<text text-anchor="start" x="7.5" y="-19" font-family="Helvetica,sans-Serif" font-size="10.00">Math/GenVector/Displacement</text>
<text text-anchor="middle" x="75" y="-8" font-family="Helvetica,sans-Serif" font-size="10.00">Vector2D.h</text>
</g>
<!-- Node13&#45;&gt;Node14 -->
<g id="edge18" class="edge"><title>Node13&#45;&gt;Node14</title>
<path fill="none" stroke="midnightblue" d="M154.103,-74.3717C141.221,-65.0286 120.22,-49.7966 103.093,-37.375"/>
<polygon fill="midnightblue" stroke="midnightblue" points="104.703,-34.2194 94.5532,-31.1815 100.593,-39.8859 104.703,-34.2194"/>
</g>
<!-- Node15 -->
<g id="node15" class="node"><title>Node15</title>
<polygon fill="none" stroke="#bfbfbf" points="169,-6.5 169,-25.5 345,-25.5 345,-6.5 169,-6.5"/>
<text text-anchor="middle" x="257" y="-13.5" font-family="Helvetica,sans-Serif" font-size="10.00">Math/GenVector/PositionVector2D.h</text>
</g>
<!-- Node13&#45;&gt;Node15 -->
<g id="edge19" class="edge"><title>Node13&#45;&gt;Node15</title>
<path fill="none" stroke="midnightblue" d="M177.897,-74.3717C192.884,-63.5015 218.862,-44.6602 236.942,-31.5474"/>
<polygon fill="midnightblue" stroke="midnightblue" points="239.06,-34.3349 245.1,-25.6305 234.95,-28.6684 239.06,-34.3349"/>
</g>
<!-- Node16&#45;&gt;Node13 -->
<g id="edge28" class="edge"><title>Node16&#45;&gt;Node13</title>
<path fill="none" stroke="midnightblue" d="M594.278,-140.202C512.127,-133.475 363.751,-119.803 238,-100 230.107,-98.7571 221.771,-97.2255 213.679,-95.6206"/>
<polygon fill="midnightblue" stroke="midnightblue" points="214.111,-92.1366 203.613,-93.5649 212.71,-98.9951 214.111,-92.1366"/>
</g>
<!-- Node17 -->
<g id="node17" class="node"><title>Node17</title>
<polygon fill="none" stroke="#bfbfbf" points="1130.5,-74.5 1130.5,-93.5 1279.5,-93.5 1279.5,-74.5 1130.5,-74.5"/>
<text text-anchor="middle" x="1205" y="-81.5" font-family="Helvetica,sans-Serif" font-size="10.00">Math/GenVector/Rotation3D.h</text>
</g>
<!-- Node16&#45;&gt;Node17 -->
<g id="edge21" class="edge"><title>Node16&#45;&gt;Node17</title>
<path fill="none" stroke="midnightblue" d="M719.853,-140.509C809.233,-133.758 978.082,-119.659 1121,-100 1130.8,-98.6525 1141.19,-96.9879 1151.22,-95.2632"/>
<polygon fill="midnightblue" stroke="midnightblue" points="1151.83,-98.7086 1161.07,-93.528 1150.62,-91.8145 1151.83,-98.7086"/>
</g>
<!-- Node18 -->
<g id="node18" class="node"><title>Node18</title>
<polygon fill="none" stroke="#bfbfbf" points="247,-74.5 247,-93.5 403,-93.5 403,-74.5 247,-74.5"/>
<text text-anchor="middle" x="325" y="-81.5" font-family="Helvetica,sans-Serif" font-size="10.00">Math/GenVector/Transform3D.h</text>
</g>
<!-- Node16&#45;&gt;Node18 -->
<g id="edge22" class="edge"><title>Node16&#45;&gt;Node18</title>
<path fill="none" stroke="midnightblue" d="M609.785,-136.467C549.799,-125.626 446.356,-106.932 382.028,-95.3062"/>
<polygon fill="midnightblue" stroke="midnightblue" points="382.515,-91.8377 372.052,-93.5034 381.27,-98.7261 382.515,-91.8377"/>
</g>
<!-- Node19 -->
<g id="node19" class="node"><title>Node19</title>
<polygon fill="none" stroke="#bfbfbf" points="421,-74.5 421,-93.5 581,-93.5 581,-74.5 421,-74.5"/>
<text text-anchor="middle" x="501" y="-81.5" font-family="Helvetica,sans-Serif" font-size="10.00">Math/GenVector/Translation3D.h</text>
</g>
<!-- Node16&#45;&gt;Node19 -->
<g id="edge23" class="edge"><title>Node16&#45;&gt;Node19</title>
<path fill="none" stroke="midnightblue" d="M634.649,-136.403C608.005,-126.156 563.286,-108.956 532.986,-97.3021"/>
<polygon fill="midnightblue" stroke="midnightblue" points="533.899,-93.9037 523.31,-93.5806 531.387,-100.437 533.899,-93.9037"/>
</g>
<!-- Node20 -->
<g id="node20" class="node"><title>Node20</title>
<polygon fill="none" stroke="#bfbfbf" points="599,-74.5 599,-93.5 655,-93.5 655,-74.5 599,-74.5"/>
<text text-anchor="middle" x="627" y="-81.5" font-family="Helvetica,sans-Serif" font-size="10.00">Rtypes.h</text>
</g>
<!-- Node16&#45;&gt;Node20 -->
<g id="edge24" class="edge"><title>Node16&#45;&gt;Node20</title>
<path fill="none" stroke="midnightblue" d="M652.702,-136.403C648.335,-127.671 641.445,-113.889 635.897,-102.794"/>
<polygon fill="midnightblue" stroke="midnightblue" points="638.893,-100.96 631.29,-93.5806 632.632,-104.09 638.893,-100.96"/>
</g>
<!-- Node21 -->
<g id="node21" class="node"><title>Node21</title>
<polygon fill="none" stroke="#bfbfbf" points="673,-74.5 673,-93.5 749,-93.5 749,-74.5 673,-74.5"/>
<text text-anchor="middle" x="711" y="-81.5" font-family="Helvetica,sans-Serif" font-size="10.00">TGeoMatrix.h</text>
</g>
<!-- Node16&#45;&gt;Node21 -->
<g id="edge25" class="edge"><title>Node16&#45;&gt;Node21</title>
<path fill="none" stroke="midnightblue" d="M664.737,-136.403C672.997,-127.225 686.277,-112.47 696.494,-101.117"/>
<polygon fill="midnightblue" stroke="midnightblue" points="699.189,-103.355 703.277,-93.5806 693.986,-98.6722 699.189,-103.355"/>
</g>
<!-- Node22 -->
<g id="node22" class="node"><title>Node22</title>
<polygon fill="none" stroke="#bfbfbf" points="767.5,-69 767.5,-99 918.5,-99 918.5,-69 767.5,-69"/>
<text text-anchor="start" x="775.5" y="-87" font-family="Helvetica,sans-Serif" font-size="10.00">Math/GenVector/Displacement</text>
<text text-anchor="middle" x="843" y="-76" font-family="Helvetica,sans-Serif" font-size="10.00">Vector3D.h</text>
</g>
<!-- Node16&#45;&gt;Node22 -->
<g id="edge26" class="edge"><title>Node16&#45;&gt;Node22</title>
<path fill="none" stroke="midnightblue" d="M683.649,-136.403C711.286,-127.488 755.236,-113.311 789.986,-102.101"/>
<polygon fill="midnightblue" stroke="midnightblue" points="791.079,-105.426 799.522,-99.0253 788.93,-98.7644 791.079,-105.426"/>
</g>
<!-- Node23 -->
<g id="node23" class="node"><title>Node23</title>
<polygon fill="none" stroke="#bfbfbf" points="937,-74.5 937,-93.5 1113,-93.5 1113,-74.5 937,-74.5"/>
<text text-anchor="middle" x="1025" y="-81.5" font-family="Helvetica,sans-Serif" font-size="10.00">Math/GenVector/PositionVector3D.h</text>
</g>
<!-- Node16&#45;&gt;Node23 -->
<g id="edge27" class="edge"><title>Node16&#45;&gt;Node23</title>
<path fill="none" stroke="midnightblue" d="M709.335,-136.467C776.098,-125.582 891.429,-106.778 962.666,-95.1631"/>
<polygon fill="midnightblue" stroke="midnightblue" points="963.539,-98.567 972.846,-93.5034 962.413,-91.6583 963.539,-98.567"/>
</g>
<!-- Node24 -->
<g id="node24" class="node"><title>Node24</title>
<polygon fill="none" stroke="#bfbfbf" points="1297,-74.5 1297,-93.5 1351,-93.5 1351,-74.5 1297,-74.5"/>
<text text-anchor="middle" x="1324" y="-81.5" font-family="Helvetica,sans-Serif" font-size="10.00">iostream</text>
</g>
<!-- Node16&#45;&gt;Node24 -->
<g id="edge29" class="edge"><title>Node16&#45;&gt;Node24</title>
<path fill="none" stroke="midnightblue" d="M719.548,-143.105C856.929,-138.527 1181.27,-125.326 1288,-100 1291,-99.2882 1294.07,-98.3551 1297.09,-97.3019"/>
<polygon fill="midnightblue" stroke="midnightblue" points="1298.4,-100.551 1306.44,-93.6526 1295.85,-94.0309 1298.4,-100.551"/>
</g>
<!-- Node26&#45;&gt;Node25 -->
<g id="edge35" class="edge"><title>Node26&#45;&gt;Node25</title>
<path fill="none" stroke="midnightblue" d="M536.004,-360.444C607.343,-350.438 724.833,-333.958 797.013,-323.834"/>
<polygon fill="midnightblue" stroke="midnightblue" points="797.906,-327.244 807.323,-322.388 796.934,-320.311 797.906,-327.244"/>
</g>
<!-- Node26&#45;&gt;Node27 -->
<g id="edge32" class="edge"><title>Node26&#45;&gt;Node27</title>
<path fill="none" stroke="midnightblue" d="M472.881,-360.368C468.524,-342.617 458.473,-301.666 452.565,-277.597"/>
<polygon fill="midnightblue" stroke="midnightblue" points="455.892,-276.469 450.109,-267.591 449.094,-278.137 455.892,-276.469"/>
</g>
<!-- Node27&#45;&gt;Node6 -->
<g id="edge33" class="edge"><title>Node27&#45;&gt;Node6</title>
<path fill="none" stroke="midnightblue" d="M414.566,-248.444C378.144,-239.122 319.77,-224.183 279.971,-213.997"/>
<polygon fill="midnightblue" stroke="midnightblue" points="280.833,-210.605 270.277,-211.516 279.097,-217.387 280.833,-210.605"/>
</g>
<!-- Node27&#45;&gt;Node12 -->
<g id="edge34" class="edge"><title>Node27&#45;&gt;Node12</title>
<path fill="none" stroke="midnightblue" d="M479.215,-248.444C512.933,-239.201 566.8,-224.436 603.932,-214.257"/>
<polygon fill="midnightblue" stroke="midnightblue" points="605.212,-217.536 613.931,-211.516 603.361,-210.785 605.212,-217.536"/>
</g>
<!-- Node28&#45;&gt;Node12 -->
<g id="edge37" class="edge"><title>Node28&#45;&gt;Node12</title>
<path fill="none" stroke="midnightblue" d="M763.285,-360.364C751.94,-339.912 721.706,-287.289 690,-248 681.606,-237.599 671.097,-226.98 662.346,-218.671"/>
<polygon fill="midnightblue" stroke="midnightblue" points="664.622,-216.008 654.915,-211.762 659.856,-221.134 664.622,-216.008"/>
</g>
<!-- Node28&#45;&gt;Node25 -->
<g id="edge41" class="edge"><title>Node28&#45;&gt;Node25</title>
<path fill="none" stroke="midnightblue" d="M782.781,-360.324C797.267,-351.822 819.573,-338.729 836.493,-328.797"/>
<polygon fill="midnightblue" stroke="midnightblue" points="838.403,-331.735 845.255,-323.655 834.859,-325.698 838.403,-331.735"/>
</g>
<!-- Node29 -->
<g id="node29" class="node"><title>Node29</title>
<g id="a_node29"><a xlink:href="../../dc/d14/ROC_8h.html" target="_top" xlink:title="TPCBase/ROC.h">
<polygon fill="none" stroke="black" points="554.5,-304.5 554.5,-323.5 647.5,-323.5 647.5,-304.5 554.5,-304.5"/>
<text text-anchor="middle" x="601" y="-311.5" font-family="Helvetica,sans-Serif" font-size="10.00">TPCBase/ROC.h</text>
</a>
</g>
</g>
<!-- Node28&#45;&gt;Node29 -->
<g id="edge38" class="edge"><title>Node28&#45;&gt;Node29</title>
<path fill="none" stroke="midnightblue" d="M741.538,-360.444C713.322,-351.32 668.46,-336.813 637.032,-326.651"/>
<polygon fill="midnightblue" stroke="midnightblue" points="637.93,-323.263 627.338,-323.516 635.776,-329.923 637.93,-323.263"/>
</g>
<!-- Node29&#45;&gt;Node12 -->
<g id="edge39" class="edge"><title>Node29&#45;&gt;Node12</title>
<path fill="none" stroke="midnightblue" d="M604.453,-304.368C611.617,-286.456 628.231,-244.923 637.821,-220.948"/>
<polygon fill="midnightblue" stroke="midnightblue" points="641.099,-222.176 641.563,-211.591 634.6,-219.576 641.099,-222.176"/>
</g>
<!-- Node29&#45;&gt;Node27 -->
<g id="edge40" class="edge"><title>Node29&#45;&gt;Node27</title>
<path fill="none" stroke="midnightblue" d="M576.757,-304.444C551.129,-295.399 510.515,-281.064 481.762,-270.916"/>
<polygon fill="midnightblue" stroke="midnightblue" points="482.725,-267.544 472.13,-267.516 480.395,-274.145 482.725,-267.544"/>
</g>
<!-- Node30&#45;&gt;Node12 -->
<g id="edge43" class="edge"><title>Node30&#45;&gt;Node12</title>
<path fill="none" stroke="midnightblue" d="M608.282,-416.453C625.294,-409.548 645.825,-397.971 656,-380 685.019,-328.748 664.526,-255.258 652.314,-221.383"/>
<polygon fill="midnightblue" stroke="midnightblue" points="655.523,-219.972 648.713,-211.855 648.975,-222.447 655.523,-219.972"/>
</g>
<!-- Node30&#45;&gt;Node25 -->
<g id="edge48" class="edge"><title>Node30&#45;&gt;Node25</title>
<path fill="none" stroke="midnightblue" d="M635.072,-418.72C706.707,-409.937 825.837,-393.54 841,-380 853.998,-368.393 858.314,-348.438 859.644,-333.691"/>
<polygon fill="midnightblue" stroke="midnightblue" points="863.142,-333.826 860.174,-323.655 856.152,-333.457 863.142,-333.826"/>
</g>
<!-- Node30&#45;&gt;Node26 -->
<g id="edge49" class="edge"><title>Node30&#45;&gt;Node26</title>
<path fill="none" stroke="midnightblue" d="M563.969,-416.324C546.97,-407.664 520.624,-394.242 501.007,-384.249"/>
<polygon fill="midnightblue" stroke="midnightblue" points="502.488,-381.075 491.988,-379.655 499.31,-387.312 502.488,-381.075"/>
</g>
<!-- Node31 -->
<g id="node31" class="node"><title>Node31</title>
<g id="a_node31"><a xlink:href="../../df/d26/CRU_8h.html" target="_top" xlink:title="TPCBase/CRU.h">
<polygon fill="none" stroke="black" points="554.5,-360.5 554.5,-379.5 647.5,-379.5 647.5,-360.5 554.5,-360.5"/>
<text text-anchor="middle" x="601" y="-367.5" font-family="Helvetica,sans-Serif" font-size="10.00">TPCBase/CRU.h</text>
</a>
</g>
</g>
<!-- Node30&#45;&gt;Node31 -->
<g id="edge44" class="edge"><title>Node30&#45;&gt;Node31</title>
<path fill="none" stroke="midnightblue" d="M584.303,-416.083C586.982,-408.849 590.849,-398.409 594.186,-389.397"/>
<polygon fill="midnightblue" stroke="midnightblue" points="597.568,-390.344 597.759,-379.751 591.004,-387.913 597.568,-390.344"/>
</g>
<!-- Node31&#45;&gt;Node12 -->
<g id="edge45" class="edge"><title>Node31&#45;&gt;Node12</title>
<path fill="none" stroke="midnightblue" d="M583.498,-360.465C570.213,-352.917 552.924,-340.533 545,-324 541.158,-315.984 541.619,-312.221 545,-304 560.716,-265.79 598.652,-234.356 623.019,-217.181"/>
<polygon fill="midnightblue" stroke="midnightblue" points="625.034,-220.043 631.316,-211.512 621.085,-214.263 625.034,-220.043"/>
</g>
<!-- Node31&#45;&gt;Node27 -->
<g id="edge46" class="edge"><title>Node31&#45;&gt;Node27</title>
<path fill="none" stroke="midnightblue" d="M579.393,-360.437C560.646,-352.473 533.255,-339.518 512,-324 492.722,-309.925 473.96,-289.893 461.789,-275.797"/>
<polygon fill="midnightblue" stroke="midnightblue" points="464.241,-273.277 455.116,-267.893 458.893,-277.792 464.241,-273.277"/>
</g>
<!-- Node31&#45;&gt;Node29 -->
<g id="edge47" class="edge"><title>Node31&#45;&gt;Node29</title>
<path fill="none" stroke="midnightblue" d="M601,-360.083C601,-353.006 601,-342.861 601,-333.986"/>
<polygon fill="midnightblue" stroke="midnightblue" points="604.5,-333.751 601,-323.751 597.5,-333.751 604.5,-333.751"/>
</g>
<!-- Node32&#45;&gt;Node24 -->
<g id="edge51" class="edge"><title>Node32&#45;&gt;Node24</title>
<path fill="none" stroke="midnightblue" d="M1324,-248.234C1324,-221.548 1324,-140.877 1324,-103.893"/>
<polygon fill="midnightblue" stroke="midnightblue" points="1327.5,-103.544 1324,-93.5442 1320.5,-103.544 1327.5,-103.544"/>
</g>
<!-- Node33&#45;&gt;Node2 -->
<g id="edge53" class="edge"><title>Node33&#45;&gt;Node2</title>
<path fill="none" stroke="midnightblue" d="M981.424,-416.324C996.54,-407.822 1019.82,-394.729 1037.47,-384.797"/>
<polygon fill="midnightblue" stroke="midnightblue" points="1039.61,-387.608 1046.61,-379.655 1036.18,-381.507 1039.61,-387.608"/>
</g>
<!-- Node33&#45;&gt;Node12 -->
<g id="edge54" class="edge"><title>Node33&#45;&gt;Node12</title>
<path fill="none" stroke="midnightblue" d="M965.232,-416.365C962.835,-394.502 953.574,-336.403 921,-304 860.948,-244.262 762.718,-219.529 701.078,-209.522"/>
<polygon fill="midnightblue" stroke="midnightblue" points="701.554,-206.054 691.136,-207.984 700.483,-212.972 701.554,-206.054"/>
</g>
<!-- Node33&#45;&gt;Node25 -->
<g id="edge55" class="edge"><title>Node33&#45;&gt;Node25</title>
<path fill="none" stroke="midnightblue" d="M959.435,-416.202C949.672,-403.333 930.484,-378.86 912,-360 901.685,-349.475 889.227,-338.638 879.092,-330.236"/>
<polygon fill="midnightblue" stroke="midnightblue" points="881.182,-327.424 871.222,-323.812 876.755,-332.847 881.182,-327.424"/>
</g>
</g>
</svg>
        <g id="navigator" transform="translate(0 0)" fill="#404254">
                <rect fill="#f2f5e9" fill-opacity="0.5" stroke="#606060" stroke-width=".5" x="0" y="0" width="60" height="60"/>
                <use id="zoomplus" xlink:href="#zoomPlus" x="17" y="9" onmousedown="handleZoom(evt,'in')"/>
                <use id="zoomminus" xlink:href="#zoomMin" x="42" y="9" onmousedown="handleZoom(evt,'out')"/>
                <use id="reset" xlink:href="#resetDef" x="30" y="36" onmousedown="handleReset()"/>
                <g id="arrowUp" xlink:href="#dirArrow" transform="translate(30 24)" onmousedown="handlePan(0,-1)">
                  <use xlink:href="#rim" fill="#404040">
                        <set attributeName="fill" to="#808080" begin="arrowUp.mouseover" end="arrowUp.mouseout"/>
                  </use>
                  <path fill="none" stroke="white" stroke-width="1.5" d="M0,-3.0v7 M-2.5,-0.5L0,-3.0L2.5,-0.5"/>
                </g>
                <g id="arrowRight" xlink:href="#dirArrow" transform="rotate(90) translate(36 -43)" onmousedown="handlePan(1,0)">
                  <use xlink:href="#rim" fill="#404040">
                        <set attributeName="fill" to="#808080" begin="arrowRight.mouseover" end="arrowRight.mouseout"/>
                  </use>
                  <path fill="none" stroke="white" stroke-width="1.5" d="M0,-3.0v7 M-2.5,-0.5L0,-3.0L2.5,-0.5"/>
                </g>
                <g id="arrowDown" xlink:href="#dirArrow" transform="rotate(180) translate(-30 -48)" onmousedown="handlePan(0,1)">
                  <use xlink:href="#rim" fill="#404040">
                        <set attributeName="fill" to="#808080" begin="arrowDown.mouseover" end="arrowDown.mouseout"/>
                  </use>
                  <path fill="none" stroke="white" stroke-width="1.5" d="M0,-3.0v7 M-2.5,-0.5L0,-3.0L2.5,-0.5"/>
                </g>
                <g id="arrowLeft" xlink:href="#dirArrow" transform="rotate(270) translate(-36 17)" onmousedown="handlePan(-1,0)">
                  <use xlink:href="#rim" fill="#404040">
                        <set attributeName="fill" to="#808080" begin="arrowLeft.mouseover" end="arrowLeft.mouseout"/>
                  </use>
                  <path fill="none" stroke="white" stroke-width="1.5" d="M0,-3.0v7 M-2.5,-0.5L0,-3.0L2.5,-0.5"/>
                </g>
        </g>
        <svg viewBox="0 0 15 15" width="100%" height="30px" preserveAspectRatio="xMaxYMin meet">
         <g id="arrow_out" transform="scale(0.3 0.3)">
          <a xlink:href="HardwareClusterDecoder_8h__incl_org.svg" target="_base">
           <rect id="button" ry="5" rx="5" y="6" x="6" height="38" width="38"
                fill="#f2f5e9" fill-opacity="0.5" stroke="#606060" stroke-width="1.0"/>
           <path id="arrow"
             d="M 11.500037,31.436501 C 11.940474,20.09759 22.043105,11.32322 32.158766,21.979434 L 37.068811,17.246167 C 37.068811,17.246167 37.088388,32 37.088388,32 L 22.160133,31.978069 C 22.160133,31.978069 26.997745,27.140456 26.997745,27.140456 C 18.528582,18.264221 13.291696,25.230495 11.500037,31.436501 z"
             style="fill:#404040;"/>
          </a>
         </g>
        </svg>
</svg>
