<?xml version="1.0" encoding="UTF-8" standalone="no"?>
<!DOCTYPE svg PUBLIC "-//W3C//DTD SVG 1.1//EN"
 "http://www.w3.org/Graphics/SVG/1.1/DTD/svg11.dtd">
<!-- Generated by graphviz version 2.36.0 (20140111.2315)
 -->
<!-- Title: gNeric::create_rtc&lt; Types, Base, N &gt; Pages: 1 -->
<svg width="176pt" height="216pt"
 viewBox="0.00 0.00 176.00 216.00" xmlns="http://www.w3.org/2000/svg" xmlns:xlink="http://www.w3.org/1999/xlink">
<g id="graph0" class="graph" transform="scale(1 1) rotate(0) translate(4 212)">
<title>gNeric::create_rtc&lt; Types, Base, N &gt;</title>
<!-- Node1 -->
<g id="node1" class="node"><title>Node1</title>
<polygon fill="#bfbfbf" stroke="black" points="13,-139 13,-207 117,-207 117,-139 13,-139"/>
<text text-anchor="start" x="21" y="-195" font-family="Helvetica,sans-Serif" font-size="10.00">gNeric::create_rtc</text>
<text text-anchor="middle" x="65" y="-184" font-family="Helvetica,sans-Serif" font-size="10.00">&lt; Types, Base, N &gt;</text>
<polyline fill="none" stroke="black" points="13,-177 117,-177 "/>
<text text-anchor="middle" x="65" y="-165" font-family="Helvetica,sans-Serif" font-size="10.00"> </text>
<polyline fill="none" stroke="black" points="13,-158 117,-158 "/>
<text text-anchor="middle" x="65" y="-146" font-family="Helvetica,sans-Serif" font-size="10.00"> </text>
</g>
<!-- Node2 -->
<g id="node2" class="node"><title>Node2</title>
<g id="a_node2"><a xlink:href="../../d6/d73/structgNeric_1_1create__rtc.html" target="_top" xlink:title="{gNeric::create_rtc\l\&lt; definition_type, Runtime\lContainer\&lt;\&gt; \&gt;\n||}">
<polygon fill="none" stroke="black" points="-0.5,-0.5 -0.5,-79.5 130.5,-79.5 130.5,-0.5 -0.5,-0.5"/>
<text text-anchor="start" x="7.5" y="-67.5" font-family="Helvetica,sans-Serif" font-size="10.00">gNeric::create_rtc</text>
<text text-anchor="start" x="7.5" y="-56.5" font-family="Helvetica,sans-Serif" font-size="10.00">&lt; definition_type, Runtime</text>
<text text-anchor="middle" x="65" y="-45.5" font-family="Helvetica,sans-Serif" font-size="10.00">Container&lt;&gt; &gt;</text>
<polyline fill="none" stroke="black" points="-0.5,-38.5 130.5,-38.5 "/>
<text text-anchor="middle" x="65" y="-26.5" font-family="Helvetica,sans-Serif" font-size="10.00"> </text>
<polyline fill="none" stroke="black" points="-0.5,-19.5 130.5,-19.5 "/>
<text text-anchor="middle" x="65" y="-7.5" font-family="Helvetica,sans-Serif" font-size="10.00"> </text>
</a>
</g>
</g>
<!-- Node1&#45;&gt;Node2 -->
<g id="edge1" class="edge"><title>Node1&#45;&gt;Node2</title>
<path fill="none" stroke="orange" d="M65,-128.84C65,-112.958 65,-95.0859 65,-79.6289"/>
<polygon fill="orange" stroke="orange" points="61.5001,-128.943 65,-138.943 68.5001,-128.943 61.5001,-128.943"/>
<text text-anchor="start" x="65" y="-112" font-family="Helvetica,sans-Serif" font-size="10.00"> &lt; definition_type,</text>
<text text-anchor="middle" x="116.5" y="-101" font-family="Helvetica,sans-Serif" font-size="10.00"> RuntimeContainer&lt;&gt; &gt;</text>
</g>
</g>
</svg>
