<?xml version="1.0" encoding="UTF-8" standalone="no"?>
<!DOCTYPE svg PUBLIC "-//W3C//DTD SVG 1.1//EN"
 "http://www.w3.org/Graphics/SVG/1.1/DTD/svg11.dtd">
<!-- Generated by graphviz version 2.36.0 (20140111.2315)
 -->
<!-- Title: /home/travis/build/AliceO2Group/AliceO2/Detectors/TPC/reconstruction/src/AdcClockMonitor.cxx Pages: 1 -->
<svg width="219pt" height="186pt"
 viewBox="0.00 0.00 219.00 186.00" xmlns="http://www.w3.org/2000/svg" xmlns:xlink="http://www.w3.org/1999/xlink">
<g id="graph0" class="graph" transform="scale(1 1) rotate(0) translate(4 182)">
<title>/home/travis/build/AliceO2Group/AliceO2/Detectors/TPC/reconstruction/src/AdcClockMonitor.cxx</title>
<!-- Node1 -->
<g id="node1" class="node"><title>Node1</title>
<polygon fill="#bfbfbf" stroke="black" points="41,-125 41,-177 191,-177 191,-125 41,-125"/>
<text text-anchor="start" x="49" y="-165" font-family="Helvetica,sans-Serif" font-size="10.00">/home/travis/build</text>
<text text-anchor="start" x="49" y="-154" font-family="Helvetica,sans-Serif" font-size="10.00">/AliceO2Group/AliceO2</text>
<text text-anchor="start" x="49" y="-143" font-family="Helvetica,sans-Serif" font-size="10.00">/Detectors/TPC/reconstruction</text>
<text text-anchor="middle" x="116" y="-132" font-family="Helvetica,sans-Serif" font-size="10.00">/src/AdcClockMonitor.cxx</text>
</g>
<!-- Node2 -->
<g id="node2" class="node"><title>Node2</title>
<g id="a_node2"><a xlink:href="../../d5/d41/AdcClockMonitor_8h.html" target="_top" xlink:title="Class to monitor the ADC smapling clock contained in the GBT frame. ">
<polygon fill="none" stroke="black" points="41.5,-57 41.5,-87 190.5,-87 190.5,-57 41.5,-57"/>
<text text-anchor="start" x="49.5" y="-75" font-family="Helvetica,sans-Serif" font-size="10.00">TPCReconstruction/AdcClock</text>
<text text-anchor="middle" x="116" y="-64" font-family="Helvetica,sans-Serif" font-size="10.00">Monitor.h</text>
</a>
</g>
</g>
<!-- Node1&#45;&gt;Node2 -->
<g id="edge1" class="edge"><title>Node1&#45;&gt;Node2</title>
<path fill="none" stroke="midnightblue" d="M116,-124.787C116,-116.029 116,-106.225 116,-97.5232"/>
<polygon fill="midnightblue" stroke="midnightblue" points="119.5,-97.252 116,-87.252 112.5,-97.2521 119.5,-97.252"/>
</g>
<!-- Node3 -->
<g id="node3" class="node"><title>Node3</title>
<polygon fill="none" stroke="#bfbfbf" points="-0.5,-0.5 -0.5,-19.5 70.5,-19.5 70.5,-0.5 -0.5,-0.5"/>
<text text-anchor="middle" x="35" y="-7.5" font-family="Helvetica,sans-Serif" font-size="10.00">FairLogger.h</text>
</g>
<!-- Node2&#45;&gt;Node3 -->
<g id="edge2" class="edge"><title>Node2&#45;&gt;Node3</title>
<path fill="none" stroke="midnightblue" d="M96.8041,-56.7808C84.1845,-47.4329 67.7069,-35.2273 54.9395,-25.77"/>
<polygon fill="midnightblue" stroke="midnightblue" points="56.9051,-22.8704 46.7862,-19.7305 52.7385,-28.4953 56.9051,-22.8704"/>
</g>
<!-- Node4 -->
<g id="node4" class="node"><title>Node4</title>
<polygon fill="none" stroke="#bfbfbf" points="89,-0.5 89,-19.5 143,-19.5 143,-0.5 89,-0.5"/>
<text text-anchor="middle" x="116" y="-7.5" font-family="Helvetica,sans-Serif" font-size="10.00">iostream</text>
</g>
<!-- Node2&#45;&gt;Node4 -->
<g id="edge3" class="edge"><title>Node2&#45;&gt;Node4</title>
<path fill="none" stroke="midnightblue" d="M116,-56.7808C116,-48.7812 116,-38.6887 116,-30.0168"/>
<polygon fill="midnightblue" stroke="midnightblue" points="119.5,-29.7305 116,-19.7305 112.5,-29.7306 119.5,-29.7305"/>
</g>
<!-- Node5 -->
<g id="node5" class="node"><title>Node5</title>
<polygon fill="none" stroke="#bfbfbf" points="161,-0.5 161,-19.5 211,-19.5 211,-0.5 161,-0.5"/>
<text text-anchor="middle" x="186" y="-7.5" font-family="Helvetica,sans-Serif" font-size="10.00">iomanip</text>
</g>
<!-- Node2&#45;&gt;Node5 -->
<g id="edge4" class="edge"><title>Node2&#45;&gt;Node5</title>
<path fill="none" stroke="midnightblue" d="M132.589,-56.7808C143.285,-47.6127 157.188,-35.6957 168.128,-26.3186"/>
<polygon fill="midnightblue" stroke="midnightblue" points="170.5,-28.8959 175.814,-19.7305 165.944,-23.5811 170.5,-28.8959"/>
</g>
</g>
</svg>
