<?xml version="1.0" encoding="UTF-8" standalone="no"?>
<!DOCTYPE svg PUBLIC "-//W3C//DTD SVG 1.1//EN"
 "http://www.w3.org/Graphics/SVG/1.1/DTD/svg11.dtd">
<!-- Generated by graphviz version 2.36.0 (20140111.2315)
 -->
<!-- Title: /home/travis/build/AliceO2Group/AliceO2/Detectors/ITSMFT/common/simulation/src/Hit.cxx Pages: 1 -->
<svg width="1255pt" height="390pt"
 viewBox="0.00 0.00 1255.00 390.00" xmlns="http://www.w3.org/2000/svg" xmlns:xlink="http://www.w3.org/1999/xlink">
<g id="graph0" class="graph" transform="scale(1 1) rotate(0) translate(4 386)">
<title>/home/travis/build/AliceO2Group/AliceO2/Detectors/ITSMFT/common/simulation/src/Hit.cxx</title>
<!-- Node1 -->
<g id="node1" class="node"><title>Node1</title>
<polygon fill="#bfbfbf" stroke="black" points="589,-329 589,-381 731,-381 731,-329 589,-329"/>
<text text-anchor="start" x="597" y="-369" font-family="Helvetica,sans-Serif" font-size="10.00">/home/travis/build</text>
<text text-anchor="start" x="597" y="-358" font-family="Helvetica,sans-Serif" font-size="10.00">/AliceO2Group/AliceO2</text>
<text text-anchor="start" x="597" y="-347" font-family="Helvetica,sans-Serif" font-size="10.00">/Detectors/ITSMFT/common</text>
<text text-anchor="middle" x="660" y="-336" font-family="Helvetica,sans-Serif" font-size="10.00">/simulation/src/Hit.cxx</text>
</g>
<!-- Node2 -->
<g id="node2" class="node"><title>Node2</title>
<g id="a_node2"><a xlink:href="../../d0/dae/ITSMFT_2common_2simulation_2include_2ITSMFTSimulation_2Hit_8h.html" target="_top" xlink:title="ITSMFTSimulation/Hit.h">
<polygon fill="none" stroke="black" points="481,-272.5 481,-291.5 603,-291.5 603,-272.5 481,-272.5"/>
<text text-anchor="middle" x="542" y="-279.5" font-family="Helvetica,sans-Serif" font-size="10.00">ITSMFTSimulation/Hit.h</text>
</a>
</g>
</g>
<!-- Node1&#45;&gt;Node2 -->
<g id="edge1" class="edge"><title>Node1&#45;&gt;Node2</title>
<path fill="none" stroke="midnightblue" d="M618.398,-328.968C600.484,-318.19 580.221,-305.997 565.067,-296.879"/>
<polygon fill="midnightblue" stroke="midnightblue" points="566.731,-293.796 556.358,-291.639 563.122,-299.794 566.731,-293.796"/>
</g>
<!-- Node15 -->
<g id="node15" class="node"><title>Node15</title>
<polygon fill="none" stroke="#bfbfbf" points="1193,-74.5 1193,-93.5 1247,-93.5 1247,-74.5 1193,-74.5"/>
<text text-anchor="middle" x="1220" y="-81.5" font-family="Helvetica,sans-Serif" font-size="10.00">iostream</text>
</g>
<!-- Node1&#45;&gt;Node15 -->
<g id="edge20" class="edge"><title>Node1&#45;&gt;Node15</title>
<path fill="none" stroke="midnightblue" d="M712.181,-328.935C828.394,-273.111 1105.18,-140.155 1192.87,-98.034"/>
<polygon fill="midnightblue" stroke="midnightblue" points="1194.64,-101.063 1202.14,-93.5784 1191.61,-94.7535 1194.64,-101.063"/>
</g>
<!-- Node3 -->
<g id="node3" class="node"><title>Node3</title>
<g id="a_node3"><a xlink:href="../../d4/d25/BaseHits_8h.html" target="_top" xlink:title="SimulationDataFormat\l/BaseHits.h">
<polygon fill="none" stroke="black" points="539,-205 539,-235 653,-235 653,-205 539,-205"/>
<text text-anchor="start" x="547" y="-223" font-family="Helvetica,sans-Serif" font-size="10.00">SimulationDataFormat</text>
<text text-anchor="middle" x="596" y="-212" font-family="Helvetica,sans-Serif" font-size="10.00">/BaseHits.h</text>
</a>
</g>
</g>
<!-- Node2&#45;&gt;Node3 -->
<g id="edge2" class="edge"><title>Node2&#45;&gt;Node3</title>
<path fill="none" stroke="midnightblue" d="M549.737,-272.403C556.709,-264.657 567.256,-252.938 576.52,-242.645"/>
<polygon fill="midnightblue" stroke="midnightblue" points="579.185,-244.915 583.273,-235.141 573.982,-240.232 579.185,-244.915"/>
</g>
<!-- Node8 -->
<g id="node8" class="node"><title>Node8</title>
<polygon fill="none" stroke="#bfbfbf" points="0,-74.5 0,-93.5 56,-93.5 56,-74.5 0,-74.5"/>
<text text-anchor="middle" x="28" y="-81.5" font-family="Helvetica,sans-Serif" font-size="10.00">Rtypes.h</text>
</g>
<!-- Node2&#45;&gt;Node8 -->
<g id="edge17" class="edge"><title>Node2&#45;&gt;Node8</title>
<path fill="none" stroke="midnightblue" d="M512.675,-272.443C483.803,-263.846 438.557,-249.911 400,-236 270.24,-189.186 118.778,-124.506 56.7242,-97.5643"/>
<polygon fill="midnightblue" stroke="midnightblue" points="58.1157,-94.3528 47.5496,-93.5728 55.3231,-100.772 58.1157,-94.3528"/>
</g>
<!-- Node2&#45;&gt;Node15 -->
<g id="edge19" class="edge"><title>Node2&#45;&gt;Node15</title>
<path fill="none" stroke="midnightblue" d="M577.96,-272.474C676.222,-248.831 957.05,-178.954 1184,-100 1186.41,-99.1629 1188.88,-98.2479 1191.36,-97.2959"/>
<polygon fill="midnightblue" stroke="midnightblue" points="1192.76,-100.504 1200.73,-93.5278 1190.15,-94.0088 1192.76,-100.504"/>
</g>
<!-- Node16 -->
<g id="node16" class="node"><title>Node16</title>
<g id="a_node16"><a xlink:href="../../d7/dcd/MCCompLabel_8h.html" target="_top" xlink:title="SimulationDataFormat\l/MCCompLabel.h">
<polygon fill="none" stroke="black" points="291,-137 291,-167 405,-167 405,-137 291,-137"/>
<text text-anchor="start" x="299" y="-155" font-family="Helvetica,sans-Serif" font-size="10.00">SimulationDataFormat</text>
<text text-anchor="middle" x="348" y="-144" font-family="Helvetica,sans-Serif" font-size="10.00">/MCCompLabel.h</text>
</a>
</g>
</g>
<!-- Node2&#45;&gt;Node16 -->
<g id="edge15" class="edge"><title>Node2&#45;&gt;Node16</title>
<path fill="none" stroke="midnightblue" d="M519.394,-272.395C499.363,-264.313 469.702,-251.21 446,-236 417.633,-217.797 388.595,-192.149 369.57,-174.197"/>
<polygon fill="midnightblue" stroke="midnightblue" points="371.953,-171.633 362.305,-167.255 367.117,-176.694 371.953,-171.633"/>
</g>
<!-- Node17 -->
<g id="node17" class="node"><title>Node17</title>
<polygon fill="none" stroke="#bfbfbf" points="455.5,-210.5 455.5,-229.5 520.5,-229.5 520.5,-210.5 455.5,-210.5"/>
<text text-anchor="middle" x="488" y="-217.5" font-family="Helvetica,sans-Serif" font-size="10.00">TVector3.h</text>
</g>
<!-- Node2&#45;&gt;Node17 -->
<g id="edge18" class="edge"><title>Node2&#45;&gt;Node17</title>
<path fill="none" stroke="midnightblue" d="M534.263,-272.403C526.003,-263.225 512.723,-248.47 502.506,-237.117"/>
<polygon fill="midnightblue" stroke="midnightblue" points="505.014,-234.672 495.723,-229.581 499.811,-239.355 505.014,-234.672"/>
</g>
<!-- Node4 -->
<g id="node4" class="node"><title>Node4</title>
<g id="a_node4"><a xlink:href="../../dd/d76/Cartesian3D_8h.html" target="_top" xlink:title="MathUtils/Cartesian3D.h">
<polygon fill="none" stroke="black" points="533.5,-142.5 533.5,-161.5 658.5,-161.5 658.5,-142.5 533.5,-142.5"/>
<text text-anchor="middle" x="596" y="-149.5" font-family="Helvetica,sans-Serif" font-size="10.00">MathUtils/Cartesian3D.h</text>
</a>
</g>
</g>
<!-- Node3&#45;&gt;Node4 -->
<g id="edge3" class="edge"><title>Node3&#45;&gt;Node4</title>
<path fill="none" stroke="midnightblue" d="M596,-204.679C596,-195.101 596,-182.394 596,-171.977"/>
<polygon fill="midnightblue" stroke="midnightblue" points="599.5,-171.828 596,-161.828 592.5,-171.828 599.5,-171.828"/>
</g>
<!-- Node5 -->
<g id="node5" class="node"><title>Node5</title>
<polygon fill="none" stroke="#bfbfbf" points="1026.5,-74.5 1026.5,-93.5 1175.5,-93.5 1175.5,-74.5 1026.5,-74.5"/>
<text text-anchor="middle" x="1101" y="-81.5" font-family="Helvetica,sans-Serif" font-size="10.00">Math/GenVector/Rotation3D.h</text>
</g>
<!-- Node4&#45;&gt;Node5 -->
<g id="edge4" class="edge"><title>Node4&#45;&gt;Node5</title>
<path fill="none" stroke="midnightblue" d="M658.561,-144.531C740.917,-135.762 890.124,-118.998 1017,-100 1026.35,-98.5998 1036.26,-96.9653 1045.87,-95.3005"/>
<polygon fill="midnightblue" stroke="midnightblue" points="1046.5,-98.7441 1055.74,-93.5631 1045.28,-91.8501 1046.5,-98.7441"/>
</g>
<!-- Node6 -->
<g id="node6" class="node"><title>Node6</title>
<polygon fill="none" stroke="#bfbfbf" points="74,-74.5 74,-93.5 230,-93.5 230,-74.5 74,-74.5"/>
<text text-anchor="middle" x="152" y="-81.5" font-family="Helvetica,sans-Serif" font-size="10.00">Math/GenVector/Transform3D.h</text>
</g>
<!-- Node4&#45;&gt;Node6 -->
<g id="edge5" class="edge"><title>Node4&#45;&gt;Node6</title>
<path fill="none" stroke="midnightblue" d="M533.363,-142.609C462.014,-132.921 341.972,-116.229 239,-100 229.561,-98.5124 219.56,-96.8598 209.83,-95.2107"/>
<polygon fill="midnightblue" stroke="midnightblue" points="210.27,-91.7352 199.823,-93.5005 209.091,-98.6352 210.27,-91.7352"/>
</g>
<!-- Node7 -->
<g id="node7" class="node"><title>Node7</title>
<polygon fill="none" stroke="#bfbfbf" points="248,-74.5 248,-93.5 408,-93.5 408,-74.5 248,-74.5"/>
<text text-anchor="middle" x="328" y="-81.5" font-family="Helvetica,sans-Serif" font-size="10.00">Math/GenVector/Translation3D.h</text>
</g>
<!-- Node4&#45;&gt;Node7 -->
<g id="edge6" class="edge"><title>Node4&#45;&gt;Node7</title>
<path fill="none" stroke="midnightblue" d="M561.238,-142.439C512.94,-130.545 425.508,-109.013 372.5,-95.959"/>
<polygon fill="midnightblue" stroke="midnightblue" points="373.247,-92.5384 362.7,-93.5455 371.573,-99.3353 373.247,-92.5384"/>
</g>
<!-- Node4&#45;&gt;Node8 -->
<g id="edge7" class="edge"><title>Node4&#45;&gt;Node8</title>
<path fill="none" stroke="midnightblue" d="M533.355,-145.47C397.768,-133.435 87.4447,-105.503 65,-100 61.9348,-99.2484 58.7896,-98.2897 55.6897,-97.2213"/>
<polygon fill="midnightblue" stroke="midnightblue" points="56.686,-93.8552 46.0955,-93.5539 54.1866,-100.394 56.686,-93.8552"/>
</g>
<!-- Node9 -->
<g id="node9" class="node"><title>Node9</title>
<polygon fill="none" stroke="#bfbfbf" points="426,-74.5 426,-93.5 502,-93.5 502,-74.5 426,-74.5"/>
<text text-anchor="middle" x="464" y="-81.5" font-family="Helvetica,sans-Serif" font-size="10.00">TGeoMatrix.h</text>
</g>
<!-- Node4&#45;&gt;Node9 -->
<g id="edge8" class="edge"><title>Node4&#45;&gt;Node9</title>
<path fill="none" stroke="midnightblue" d="M578.743,-142.372C556.213,-131.106 516.559,-111.279 490.281,-98.1403"/>
<polygon fill="midnightblue" stroke="midnightblue" points="491.77,-94.9722 481.261,-93.6305 488.64,-101.233 491.77,-94.9722"/>
</g>
<!-- Node10 -->
<g id="node10" class="node"><title>Node10</title>
<polygon fill="none" stroke="#bfbfbf" points="520.5,-69 520.5,-99 671.5,-99 671.5,-69 520.5,-69"/>
<text text-anchor="start" x="528.5" y="-87" font-family="Helvetica,sans-Serif" font-size="10.00">Math/GenVector/Displacement</text>
<text text-anchor="middle" x="596" y="-76" font-family="Helvetica,sans-Serif" font-size="10.00">Vector3D.h</text>
</g>
<!-- Node4&#45;&gt;Node10 -->
<g id="edge9" class="edge"><title>Node4&#45;&gt;Node10</title>
<path fill="none" stroke="midnightblue" d="M596,-142.372C596,-133.971 596,-120.811 596,-109.213"/>
<polygon fill="midnightblue" stroke="midnightblue" points="599.5,-109.181 596,-99.1815 592.5,-109.181 599.5,-109.181"/>
</g>
<!-- Node11 -->
<g id="node11" class="node"><title>Node11</title>
<polygon fill="none" stroke="#bfbfbf" points="690,-74.5 690,-93.5 866,-93.5 866,-74.5 690,-74.5"/>
<text text-anchor="middle" x="778" y="-81.5" font-family="Helvetica,sans-Serif" font-size="10.00">Math/GenVector/PositionVector3D.h</text>
</g>
<!-- Node4&#45;&gt;Node11 -->
<g id="edge10" class="edge"><title>Node4&#45;&gt;Node11</title>
<path fill="none" stroke="midnightblue" d="M619.793,-142.372C651.764,-130.778 708.74,-110.116 744.885,-97.0087"/>
<polygon fill="midnightblue" stroke="midnightblue" points="746.282,-100.225 754.489,-93.5259 743.895,-93.6447 746.282,-100.225"/>
</g>
<!-- Node12 -->
<g id="node12" class="node"><title>Node12</title>
<g id="a_node12"><a xlink:href="../../d2/dd0/Cartesian2D_8h.html" target="_top" xlink:title="MathUtils/Cartesian2D.h">
<polygon fill="none" stroke="black" points="883.5,-74.5 883.5,-93.5 1008.5,-93.5 1008.5,-74.5 883.5,-74.5"/>
<text text-anchor="middle" x="946" y="-81.5" font-family="Helvetica,sans-Serif" font-size="10.00">MathUtils/Cartesian2D.h</text>
</a>
</g>
</g>
<!-- Node4&#45;&gt;Node12 -->
<g id="edge11" class="edge"><title>Node4&#45;&gt;Node12</title>
<path fill="none" stroke="midnightblue" d="M644.779,-142.416C700.343,-132.554 793.823,-115.704 874,-100 881.15,-98.5996 888.69,-97.0782 896.091,-95.5593"/>
<polygon fill="midnightblue" stroke="midnightblue" points="896.962,-98.9533 906.046,-93.5013 895.545,-92.0982 896.962,-98.9533"/>
</g>
<!-- Node4&#45;&gt;Node15 -->
<g id="edge14" class="edge"><title>Node4&#45;&gt;Node15</title>
<path fill="none" stroke="midnightblue" d="M658.687,-148.006C789.117,-141.377 1085.73,-124.116 1184,-100 1186.99,-99.2652 1190.06,-98.3173 1193.08,-97.2554"/>
<polygon fill="midnightblue" stroke="midnightblue" points="1194.39,-100.503 1202.42,-93.5956 1191.83,-93.9852 1194.39,-100.503"/>
</g>
<!-- Node13 -->
<g id="node13" class="node"><title>Node13</title>
<polygon fill="none" stroke="#bfbfbf" points="779.5,-1 779.5,-31 930.5,-31 930.5,-1 779.5,-1"/>
<text text-anchor="start" x="787.5" y="-19" font-family="Helvetica,sans-Serif" font-size="10.00">Math/GenVector/Displacement</text>
<text text-anchor="middle" x="855" y="-8" font-family="Helvetica,sans-Serif" font-size="10.00">Vector2D.h</text>
</g>
<!-- Node12&#45;&gt;Node13 -->
<g id="edge12" class="edge"><title>Node12&#45;&gt;Node13</title>
<path fill="none" stroke="midnightblue" d="M934.103,-74.3717C921.221,-65.0286 900.22,-49.7966 883.093,-37.375"/>
<polygon fill="midnightblue" stroke="midnightblue" points="884.703,-34.2194 874.553,-31.1815 880.593,-39.8859 884.703,-34.2194"/>
</g>
<!-- Node14 -->
<g id="node14" class="node"><title>Node14</title>
<polygon fill="none" stroke="#bfbfbf" points="949,-6.5 949,-25.5 1125,-25.5 1125,-6.5 949,-6.5"/>
<text text-anchor="middle" x="1037" y="-13.5" font-family="Helvetica,sans-Serif" font-size="10.00">Math/GenVector/PositionVector2D.h</text>
</g>
<!-- Node12&#45;&gt;Node14 -->
<g id="edge13" class="edge"><title>Node12&#45;&gt;Node14</title>
<path fill="none" stroke="midnightblue" d="M957.897,-74.3717C972.884,-63.5015 998.862,-44.6602 1016.94,-31.5474"/>
<polygon fill="midnightblue" stroke="midnightblue" points="1019.06,-34.3349 1025.1,-25.6305 1014.95,-28.6684 1019.06,-34.3349"/>
</g>
<!-- Node16&#45;&gt;Node8 -->
<g id="edge16" class="edge"><title>Node16&#45;&gt;Node8</title>
<path fill="none" stroke="midnightblue" d="M290.827,-144.232C233.093,-136.577 141.728,-122.207 65,-100 62.1911,-99.187 59.3032,-98.2346 56.4385,-97.2109"/>
<polygon fill="midnightblue" stroke="midnightblue" points="57.5273,-93.8797 46.9374,-93.554 55.0128,-100.413 57.5273,-93.8797"/>
</g>
</g>
</svg>
