<?xml version="1.0" encoding="UTF-8" standalone="no"?>
<!DOCTYPE svg PUBLIC "-//W3C//DTD SVG 1.1//EN"
 "http://www.w3.org/Graphics/SVG/1.1/DTD/svg11.dtd">
<!-- Generated by graphviz version 2.36.0 (20140111.2315)
 -->
<!-- Title: /home/travis/build/AliceO2Group/AliceO2/CCDB/include/CCDB/IdPath.h Pages: 1 -->
<!--zoomable 284 -->
<svg id="main" version="1.1" xmlns="http://www.w3.org/2000/svg" xmlns:xlink="http://www.w3.org/1999/xlink" xml:space="preserve" onload="init(evt)">
<style type="text/css"><![CDATA[
.edge:hover path { stroke: red; }
.edge:hover polygon { stroke: red; fill: red; }
]]></style>
<script type="text/javascript"><![CDATA[
var edges = document.getElementsByTagName('g');
if (edges && edges.length) {
  for (var i=0;i<edges.length;i++) {
    if (edges[i].id.substr(0,4)=='edge') {
      edges[i].setAttribute('class','edge');
    }
  }
}
]]></script>
        <defs>
                <circle id="rim" cx="0" cy="0" r="7"/>
                <circle id="rim2" cx="0" cy="0" r="3.5"/>
                <g id="zoomPlus">
                        <use xlink:href="#rim" fill="#404040">
                                <set attributeName="fill" to="#808080" begin="zoomplus.mouseover" end="zoomplus.mouseout"/>
                        </use>
                        <path d="M-4,0h8M0,-4v8" fill="none" stroke="white" stroke-width="1.5" pointer-events="none"/>
                </g>
                <g id="zoomMin">
                        <use xlink:href="#rim" fill="#404040">
                                <set attributeName="fill" to="#808080" begin="zoomminus.mouseover" end="zoomminus.mouseout"/>
                        </use>
                        <path d="M-4,0h8" fill="none" stroke="white" stroke-width="1.5" pointer-events="none"/>
                </g>
                <g id="dirArrow">
                        <path fill="none" stroke="white" stroke-width="1.5" d="M0,-3.0v7 M-2.5,-0.5L0,-3.0L2.5,-0.5"/>
                </g>
               <g id="resetDef">
                       <use xlink:href="#rim2" fill="#404040">
                               <set attributeName="fill" to="#808080" begin="reset.mouseover" end="reset.mouseout"/>
                       </use>
               </g>
        </defs>

<script type="text/javascript">
var viewWidth = 1679;
var viewHeight = 284;
var sectionId = 'dynsection-1';
</script>
<script xlink:href="../../svgpan.js"/>
<svg id="graph" class="graph">
<g id="viewport">
<title>/home/travis/build/AliceO2Group/AliceO2/CCDB/include/CCDB/IdPath.h</title>
<!-- Node1 -->
<g id="node1" class="node"><title>Node1</title>
<polygon fill="#bfbfbf" stroke="black" points="859.5,-234.5 859.5,-275.5 1014.5,-275.5 1014.5,-234.5 859.5,-234.5"/>
<text text-anchor="start" x="867.5" y="-263.5" font-family="Helvetica,sans-Serif" font-size="10.00">/home/travis/build</text>
<text text-anchor="start" x="867.5" y="-252.5" font-family="Helvetica,sans-Serif" font-size="10.00">/AliceO2Group/AliceO2</text>
<text text-anchor="middle" x="937" y="-241.5" font-family="Helvetica,sans-Serif" font-size="10.00">/CCDB/include/CCDB/IdPath.h</text>
</g>
<!-- Node2 -->
<g id="node2" class="node"><title>Node2</title>
<g id="a_node2"><a xlink:href="../../da/d6a/Condition_8h.html" target="_top" xlink:title="Definition of the Condition class (CDB object) containing the condition and its metadata. ">
<polygon fill="none" stroke="black" points="707.5,-78.5 707.5,-119.5 874.5,-119.5 874.5,-78.5 707.5,-78.5"/>
<text text-anchor="start" x="715.5" y="-107.5" font-family="Helvetica,sans-Serif" font-size="10.00">/home/travis/build</text>
<text text-anchor="start" x="715.5" y="-96.5" font-family="Helvetica,sans-Serif" font-size="10.00">/AliceO2Group/AliceO2</text>
<text text-anchor="middle" x="791" y="-85.5" font-family="Helvetica,sans-Serif" font-size="10.00">/CCDB/include/CCDB/Condition.h</text>
</a>
</g>
</g>
<!-- Node1&#45;&gt;Node2 -->
<g id="edge1" class="edge"><title>Node1&#45;&gt;Node2</title>
<path fill="none" stroke="midnightblue" d="M881.553,-229.334C866.785,-220.915 851.703,-210.426 840,-198 818.481,-175.151 804.346,-141.045 797.016,-119.684"/>
<polygon fill="midnightblue" stroke="midnightblue" points="880.219,-232.593 890.674,-234.307 883.57,-226.447 880.219,-232.593"/>
</g>
<!-- Node5 -->
<g id="node5" class="node"><title>Node5</title>
<g id="a_node5"><a xlink:href="../../da/dd3/ConditionsMQServer_8cxx.html" target="_top" xlink:title="/home/travis/build\l/AliceO2Group/AliceO2\l/CCDB/src/ConditionsMQServer.cxx">
<polygon fill="none" stroke="black" points="0,-0.5 0,-41.5 178,-41.5 178,-0.5 0,-0.5"/>
<text text-anchor="start" x="8" y="-29.5" font-family="Helvetica,sans-Serif" font-size="10.00">/home/travis/build</text>
<text text-anchor="start" x="8" y="-18.5" font-family="Helvetica,sans-Serif" font-size="10.00">/AliceO2Group/AliceO2</text>
<text text-anchor="middle" x="89" y="-7.5" font-family="Helvetica,sans-Serif" font-size="10.00">/CCDB/src/ConditionsMQServer.cxx</text>
</a>
</g>
</g>
<!-- Node1&#45;&gt;Node5 -->
<g id="edge26" class="edge"><title>Node1&#45;&gt;Node5</title>
<path fill="none" stroke="midnightblue" d="M855.306,-231.65C689.707,-186.344 316.939,-84.3606 160.377,-41.5278"/>
<polygon fill="midnightblue" stroke="midnightblue" points="854.862,-235.157 865.431,-234.42 856.709,-228.405 854.862,-235.157"/>
</g>
<!-- Node13 -->
<g id="node13" class="node"><title>Node13</title>
<g id="a_node13"><a xlink:href="../../da/d53/ConditionId_8h.html" target="_top" xlink:title="/home/travis/build\l/AliceO2Group/AliceO2\l/CCDB/include/CCDB/ConditionId.h">
<polygon fill="none" stroke="black" points="849,-156.5 849,-197.5 1025,-197.5 1025,-156.5 849,-156.5"/>
<text text-anchor="start" x="857" y="-185.5" font-family="Helvetica,sans-Serif" font-size="10.00">/home/travis/build</text>
<text text-anchor="start" x="857" y="-174.5" font-family="Helvetica,sans-Serif" font-size="10.00">/AliceO2Group/AliceO2</text>
<text text-anchor="middle" x="937" y="-163.5" font-family="Helvetica,sans-Serif" font-size="10.00">/CCDB/include/CCDB/ConditionId.h</text>
</a>
</g>
</g>
<!-- Node1&#45;&gt;Node13 -->
<g id="edge12" class="edge"><title>Node1&#45;&gt;Node13</title>
<path fill="none" stroke="midnightblue" d="M937,-224.297C937,-215.301 937,-205.653 937,-197.506"/>
<polygon fill="midnightblue" stroke="midnightblue" points="933.5,-224.428 937,-234.428 940.5,-224.428 933.5,-224.428"/>
</g>
<!-- Node15 -->
<g id="node15" class="node"><title>Node15</title>
<g id="a_node15"><a xlink:href="../../db/d6f/Storage_8h.html" target="_top" xlink:title="/home/travis/build\l/AliceO2Group/AliceO2\l/CCDB/include/CCDB/Storage.h">
<polygon fill="none" stroke="black" points="1084,-156.5 1084,-197.5 1244,-197.5 1244,-156.5 1084,-156.5"/>
<text text-anchor="start" x="1092" y="-185.5" font-family="Helvetica,sans-Serif" font-size="10.00">/home/travis/build</text>
<text text-anchor="start" x="1092" y="-174.5" font-family="Helvetica,sans-Serif" font-size="10.00">/AliceO2Group/AliceO2</text>
<text text-anchor="middle" x="1164" y="-163.5" font-family="Helvetica,sans-Serif" font-size="10.00">/CCDB/include/CCDB/Storage.h</text>
</a>
</g>
</g>
<!-- Node1&#45;&gt;Node15 -->
<g id="edge15" class="edge"><title>Node1&#45;&gt;Node15</title>
<path fill="none" stroke="midnightblue" d="M1005.2,-231.165C1037.25,-220.437 1075.06,-207.779 1105.74,-197.506"/>
<polygon fill="midnightblue" stroke="midnightblue" points="1003.83,-227.934 995.458,-234.428 1006.05,-234.572 1003.83,-227.934"/>
</g>
<!-- Node19 -->
<g id="node19" class="node"><title>Node19</title>
<g id="a_node19"><a xlink:href="../../dd/d04/IdPath_8cxx.html" target="_top" xlink:title="/home/travis/build\l/AliceO2Group/AliceO2\l/CCDB/src/IdPath.cxx">
<polygon fill="none" stroke="black" points="1262,-156.5 1262,-197.5 1380,-197.5 1380,-156.5 1262,-156.5"/>
<text text-anchor="start" x="1270" y="-185.5" font-family="Helvetica,sans-Serif" font-size="10.00">/home/travis/build</text>
<text text-anchor="start" x="1270" y="-174.5" font-family="Helvetica,sans-Serif" font-size="10.00">/AliceO2Group/AliceO2</text>
<text text-anchor="middle" x="1321" y="-163.5" font-family="Helvetica,sans-Serif" font-size="10.00">/CCDB/src/IdPath.cxx</text>
</a>
</g>
</g>
<!-- Node1&#45;&gt;Node19 -->
<g id="edge27" class="edge"><title>Node1&#45;&gt;Node19</title>
<path fill="none" stroke="midnightblue" d="M1024.77,-241.118C1088.48,-231.12 1176.54,-215.96 1253,-198 1255.88,-197.325 1258.81,-196.6 1261.76,-195.842"/>
<polygon fill="midnightblue" stroke="midnightblue" points="1024.1,-237.68 1014.76,-242.678 1025.18,-244.597 1024.1,-237.68"/>
</g>
<!-- Node3 -->
<g id="node3" class="node"><title>Node3</title>
<g id="a_node3"><a xlink:href="../../d4/de8/BackendOCDB_8cxx.html" target="_top" xlink:title="Implementation of the BackendOCDB class. ">
<polygon fill="none" stroke="black" points="758.5,-0.5 758.5,-41.5 913.5,-41.5 913.5,-0.5 758.5,-0.5"/>
<text text-anchor="start" x="766.5" y="-29.5" font-family="Helvetica,sans-Serif" font-size="10.00">/home/travis/build</text>
<text text-anchor="start" x="766.5" y="-18.5" font-family="Helvetica,sans-Serif" font-size="10.00">/AliceO2Group/AliceO2</text>
<text text-anchor="middle" x="836" y="-7.5" font-family="Helvetica,sans-Serif" font-size="10.00">/CCDB/src/BackendOCDB.cxx</text>
</a>
</g>
</g>
<!-- Node2&#45;&gt;Node3 -->
<g id="edge2" class="edge"><title>Node2&#45;&gt;Node3</title>
<path fill="none" stroke="midnightblue" d="M807.723,-69.7571C813.29,-60.354 819.364,-50.096 824.451,-41.5056"/>
<polygon fill="midnightblue" stroke="midnightblue" points="804.672,-68.0401 802.589,-78.4281 810.695,-71.6066 804.672,-68.0401"/>
</g>
<!-- Node4 -->
<g id="node4" class="node"><title>Node4</title>
<g id="a_node4"><a xlink:href="../../d2/d1c/Condition_8cxx.html" target="_top" xlink:title="/home/travis/build\l/AliceO2Group/AliceO2\l/CCDB/src/Condition.cxx">
<polygon fill="none" stroke="black" points="196,-0.5 196,-41.5 324,-41.5 324,-0.5 196,-0.5"/>
<text text-anchor="start" x="204" y="-29.5" font-family="Helvetica,sans-Serif" font-size="10.00">/home/travis/build</text>
<text text-anchor="start" x="204" y="-18.5" font-family="Helvetica,sans-Serif" font-size="10.00">/AliceO2Group/AliceO2</text>
<text text-anchor="middle" x="260" y="-7.5" font-family="Helvetica,sans-Serif" font-size="10.00">/CCDB/src/Condition.cxx</text>
</a>
</g>
</g>
<!-- Node2&#45;&gt;Node4 -->
<g id="edge3" class="edge"><title>Node2&#45;&gt;Node4</title>
<path fill="none" stroke="midnightblue" d="M697.033,-90.5461C604.004,-82.2215 457.807,-66.5907 333,-42 330.164,-41.4411 327.276,-40.8306 324.366,-40.1815"/>
<polygon fill="midnightblue" stroke="midnightblue" points="696.997,-94.0566 707.267,-91.4516 697.614,-87.0838 696.997,-94.0566"/>
</g>
<!-- Node2&#45;&gt;Node5 -->
<g id="edge4" class="edge"><title>Node2&#45;&gt;Node5</title>
<path fill="none" stroke="midnightblue" d="M696.94,-92.4627C577.81,-84.7199 366.424,-68.5457 187,-42 184.08,-41.568 181.115,-41.1051 178.125,-40.6174"/>
<polygon fill="midnightblue" stroke="midnightblue" points="696.914,-95.9682 707.118,-93.1182 697.364,-88.9826 696.914,-95.9682"/>
</g>
<!-- Node6 -->
<g id="node6" class="node"><title>Node6</title>
<g id="a_node6"><a xlink:href="../../d8/d9a/FileStorage_8cxx.html" target="_top" xlink:title="/home/travis/build\l/AliceO2Group/AliceO2\l/CCDB/src/FileStorage.cxx">
<polygon fill="none" stroke="black" points="1390.5,-0.5 1390.5,-41.5 1527.5,-41.5 1527.5,-0.5 1390.5,-0.5"/>
<text text-anchor="start" x="1398.5" y="-29.5" font-family="Helvetica,sans-Serif" font-size="10.00">/home/travis/build</text>
<text text-anchor="start" x="1398.5" y="-18.5" font-family="Helvetica,sans-Serif" font-size="10.00">/AliceO2Group/AliceO2</text>
<text text-anchor="middle" x="1459" y="-7.5" font-family="Helvetica,sans-Serif" font-size="10.00">/CCDB/src/FileStorage.cxx</text>
</a>
</g>
</g>
<!-- Node2&#45;&gt;Node6 -->
<g id="edge5" class="edge"><title>Node2&#45;&gt;Node6</title>
<path fill="none" stroke="midnightblue" d="M884.557,-77.8826C1104.41,-47.2543 1165.19,-77.1783 1381,-42 1384.04,-41.5052 1387.13,-40.9477 1390.24,-40.342"/>
<polygon fill="midnightblue" stroke="midnightblue" points="884.054,-74.4188 874.645,-79.2891 885.038,-81.3494 884.054,-74.4188"/>
</g>
<!-- Node7 -->
<g id="node7" class="node"><title>Node7</title>
<g id="a_node7"><a xlink:href="../../d7/df1/GridStorage_8cxx.html" target="_top" xlink:title="/home/travis/build\l/AliceO2Group/AliceO2\l/CCDB/src/GridStorage.cxx">
<polygon fill="none" stroke="black" points="1070.5,-0.5 1070.5,-41.5 1209.5,-41.5 1209.5,-0.5 1070.5,-0.5"/>
<text text-anchor="start" x="1078.5" y="-29.5" font-family="Helvetica,sans-Serif" font-size="10.00">/home/travis/build</text>
<text text-anchor="start" x="1078.5" y="-18.5" font-family="Helvetica,sans-Serif" font-size="10.00">/AliceO2Group/AliceO2</text>
<text text-anchor="middle" x="1140" y="-7.5" font-family="Helvetica,sans-Serif" font-size="10.00">/CCDB/src/GridStorage.cxx</text>
</a>
</g>
</g>
<!-- Node2&#45;&gt;Node7 -->
<g id="edge6" class="edge"><title>Node2&#45;&gt;Node7</title>
<path fill="none" stroke="midnightblue" d="M884.653,-77.6731C963.669,-61.2831 985.373,-59.21 1061,-42 1064.03,-41.3093 1067.13,-40.5897 1070.26,-39.8511"/>
<polygon fill="midnightblue" stroke="midnightblue" points="883.8,-74.2757 874.726,-79.7448 885.23,-81.1281 883.8,-74.2757"/>
</g>
<!-- Node8 -->
<g id="node8" class="node"><title>Node8</title>
<g id="a_node8"><a xlink:href="../../da/d92/LocalStorage_8cxx.html" target="_top" xlink:title="/home/travis/build\l/AliceO2Group/AliceO2\l/CCDB/src/LocalStorage.cxx">
<polygon fill="none" stroke="black" points="1228,-0.5 1228,-41.5 1372,-41.5 1372,-0.5 1228,-0.5"/>
<text text-anchor="start" x="1236" y="-29.5" font-family="Helvetica,sans-Serif" font-size="10.00">/home/travis/build</text>
<text text-anchor="start" x="1236" y="-18.5" font-family="Helvetica,sans-Serif" font-size="10.00">/AliceO2Group/AliceO2</text>
<text text-anchor="middle" x="1300" y="-7.5" font-family="Helvetica,sans-Serif" font-size="10.00">/CCDB/src/LocalStorage.cxx</text>
</a>
</g>
</g>
<!-- Node2&#45;&gt;Node8 -->
<g id="edge7" class="edge"><title>Node2&#45;&gt;Node8</title>
<path fill="none" stroke="midnightblue" d="M884.57,-77.8336C1032.57,-54.6325 1073.66,-67.2437 1218,-42 1221.18,-41.4446 1224.41,-40.837 1227.67,-40.1902"/>
<polygon fill="midnightblue" stroke="midnightblue" points="883.988,-74.3822 874.665,-79.4144 885.091,-81.2947 883.988,-74.3822"/>
</g>
<!-- Node9 -->
<g id="node9" class="node"><title>Node9</title>
<g id="a_node9"><a xlink:href="../../d0/da4/Manager_8cxx.html" target="_top" xlink:title="/home/travis/build\l/AliceO2Group/AliceO2\l/CCDB/src/Manager.cxx">
<polygon fill="none" stroke="black" points="1545.5,-0.5 1545.5,-41.5 1670.5,-41.5 1670.5,-0.5 1545.5,-0.5"/>
<text text-anchor="start" x="1553.5" y="-29.5" font-family="Helvetica,sans-Serif" font-size="10.00">/home/travis/build</text>
<text text-anchor="start" x="1553.5" y="-18.5" font-family="Helvetica,sans-Serif" font-size="10.00">/AliceO2Group/AliceO2</text>
<text text-anchor="middle" x="1608" y="-7.5" font-family="Helvetica,sans-Serif" font-size="10.00">/CCDB/src/Manager.cxx</text>
</a>
</g>
</g>
<!-- Node2&#45;&gt;Node9 -->
<g id="edge8" class="edge"><title>Node2&#45;&gt;Node9</title>
<path fill="none" stroke="midnightblue" d="M884.968,-77.8505C1172.9,-40.1666 1252.55,-88.6188 1536,-42 1539.07,-41.4947 1542.2,-40.9084 1545.35,-40.2606"/>
<polygon fill="midnightblue" stroke="midnightblue" points="884.087,-74.4369 874.637,-79.2277 885.012,-81.3755 884.087,-74.4369"/>
</g>
<!-- Node10 -->
<g id="node10" class="node"><title>Node10</title>
<g id="a_node10"><a xlink:href="../../db/d03/Storage_8cxx.html" target="_top" xlink:title="/home/travis/build\l/AliceO2Group/AliceO2\l/CCDB/src/Storage.cxx">
<polygon fill="none" stroke="black" points="931.5,-0.5 931.5,-41.5 1052.5,-41.5 1052.5,-0.5 931.5,-0.5"/>
<text text-anchor="start" x="939.5" y="-29.5" font-family="Helvetica,sans-Serif" font-size="10.00">/home/travis/build</text>
<text text-anchor="start" x="939.5" y="-18.5" font-family="Helvetica,sans-Serif" font-size="10.00">/AliceO2Group/AliceO2</text>
<text text-anchor="middle" x="992" y="-7.5" font-family="Helvetica,sans-Serif" font-size="10.00">/CCDB/src/Storage.cxx</text>
</a>
</g>
</g>
<!-- Node2&#45;&gt;Node10 -->
<g id="edge9" class="edge"><title>Node2&#45;&gt;Node10</title>
<path fill="none" stroke="midnightblue" d="M852.127,-74.8874C880.343,-64.2185 913.478,-51.6901 940.413,-41.5056"/>
<polygon fill="midnightblue" stroke="midnightblue" points="850.878,-71.6175 842.762,-78.4281 853.354,-78.1651 850.878,-71.6175"/>
</g>
<!-- Node11 -->
<g id="node11" class="node"><title>Node11</title>
<g id="a_node11"><a xlink:href="../../d7/d65/testQueryServerStandalone_8cxx.html" target="_top" xlink:title="/home/travis/build\l/AliceO2Group/AliceO2\l/CCDB/test/testQueryServerStandalone.cxx">
<polygon fill="none" stroke="black" points="342,-0.5 342,-41.5 552,-41.5 552,-0.5 342,-0.5"/>
<text text-anchor="start" x="350" y="-29.5" font-family="Helvetica,sans-Serif" font-size="10.00">/home/travis/build</text>
<text text-anchor="start" x="350" y="-18.5" font-family="Helvetica,sans-Serif" font-size="10.00">/AliceO2Group/AliceO2</text>
<text text-anchor="middle" x="447" y="-7.5" font-family="Helvetica,sans-Serif" font-size="10.00">/CCDB/test/testQueryServerStandalone.cxx</text>
</a>
</g>
</g>
<!-- Node2&#45;&gt;Node11 -->
<g id="edge10" class="edge"><title>Node2&#45;&gt;Node11</title>
<path fill="none" stroke="midnightblue" d="M697.351,-77.3102C646.87,-66.1573 584.936,-52.4743 535.301,-41.5083"/>
<polygon fill="midnightblue" stroke="midnightblue" points="696.768,-80.7657 707.288,-79.5055 698.279,-73.9305 696.768,-80.7657"/>
</g>
<!-- Node12 -->
<g id="node12" class="node"><title>Node12</title>
<g id="a_node12"><a xlink:href="../../d2/d37/testWriteReadAny_8cxx.html" target="_top" xlink:title="/home/travis/build\l/AliceO2Group/AliceO2\l/CCDB/test/testWriteReadAny.cxx">
<polygon fill="none" stroke="black" points="570,-0.5 570,-41.5 740,-41.5 740,-0.5 570,-0.5"/>
<text text-anchor="start" x="578" y="-29.5" font-family="Helvetica,sans-Serif" font-size="10.00">/home/travis/build</text>
<text text-anchor="start" x="578" y="-18.5" font-family="Helvetica,sans-Serif" font-size="10.00">/AliceO2Group/AliceO2</text>
<text text-anchor="middle" x="655" y="-7.5" font-family="Helvetica,sans-Serif" font-size="10.00">/CCDB/test/testWriteReadAny.cxx</text>
</a>
</g>
</g>
<!-- Node2&#45;&gt;Node12 -->
<g id="edge11" class="edge"><title>Node2&#45;&gt;Node12</title>
<path fill="none" stroke="midnightblue" d="M747.132,-73.4856C728.607,-63.1335 707.337,-51.2473 689.905,-41.5056"/>
<polygon fill="midnightblue" stroke="midnightblue" points="745.54,-76.6052 755.977,-78.4281 748.955,-70.4945 745.54,-76.6052"/>
</g>
<!-- Node13&#45;&gt;Node2 -->
<g id="edge13" class="edge"><title>Node13&#45;&gt;Node2</title>
<path fill="none" stroke="midnightblue" d="M890.448,-151.768C870.435,-141.35 847.356,-129.336 828.471,-119.506"/>
<polygon fill="midnightblue" stroke="midnightblue" points="888.915,-154.915 899.401,-156.428 892.147,-148.706 888.915,-154.915"/>
</g>
<!-- Node14 -->
<g id="node14" class="node"><title>Node14</title>
<g id="a_node14"><a xlink:href="../../dd/d25/ConditionId_8cxx.html" target="_top" xlink:title="/home/travis/build\l/AliceO2Group/AliceO2\l/CCDB/src/ConditionId.cxx">
<polygon fill="none" stroke="black" points="892.5,-78.5 892.5,-119.5 1029.5,-119.5 1029.5,-78.5 892.5,-78.5"/>
<text text-anchor="start" x="900.5" y="-107.5" font-family="Helvetica,sans-Serif" font-size="10.00">/home/travis/build</text>
<text text-anchor="start" x="900.5" y="-96.5" font-family="Helvetica,sans-Serif" font-size="10.00">/AliceO2Group/AliceO2</text>
<text text-anchor="middle" x="961" y="-85.5" font-family="Helvetica,sans-Serif" font-size="10.00">/CCDB/src/ConditionId.cxx</text>
</a>
</g>
</g>
<!-- Node13&#45;&gt;Node14 -->
<g id="edge14" class="edge"><title>Node13&#45;&gt;Node14</title>
<path fill="none" stroke="midnightblue" d="M946.195,-146.882C949.088,-137.721 952.211,-127.83 954.84,-119.506"/>
<polygon fill="midnightblue" stroke="midnightblue" points="942.854,-145.838 943.181,-156.428 949.53,-147.946 942.854,-145.838"/>
</g>
<!-- Node15&#45;&gt;Node10 -->
<g id="edge25" class="edge"><title>Node15&#45;&gt;Node10</title>
<path fill="none" stroke="midnightblue" d="M1119.83,-150.972C1105.54,-142.007 1090.04,-131.301 1077,-120 1062.19,-107.167 1028.25,-66.5052 1008.02,-41.773"/>
<polygon fill="midnightblue" stroke="midnightblue" points="1118.18,-154.065 1128.53,-156.318 1121.84,-148.101 1118.18,-154.065"/>
</g>
<!-- Node16 -->
<g id="node16" class="node"><title>Node16</title>
<g id="a_node16"><a xlink:href="../../df/d0e/FileStorage_8h.html" target="_top" xlink:title="/home/travis/build\l/AliceO2Group/AliceO2\l/CCDB/include/CCDB/FileStorage.h">
<polygon fill="none" stroke="black" points="1484,-78.5 1484,-119.5 1660,-119.5 1660,-78.5 1484,-78.5"/>
<text text-anchor="start" x="1492" y="-107.5" font-family="Helvetica,sans-Serif" font-size="10.00">/home/travis/build</text>
<text text-anchor="start" x="1492" y="-96.5" font-family="Helvetica,sans-Serif" font-size="10.00">/AliceO2Group/AliceO2</text>
<text text-anchor="middle" x="1572" y="-85.5" font-family="Helvetica,sans-Serif" font-size="10.00">/CCDB/include/CCDB/FileStorage.h</text>
</a>
</g>
</g>
<!-- Node15&#45;&gt;Node16 -->
<g id="edge16" class="edge"><title>Node15&#45;&gt;Node16</title>
<path fill="none" stroke="midnightblue" d="M1254.07,-155.849C1352.42,-137.119 1379.27,-137.375 1474,-120 1477.25,-119.405 1480.55,-118.788 1483.88,-118.155"/>
<polygon fill="midnightblue" stroke="midnightblue" points="1253.17,-152.46 1244.01,-157.785 1254.49,-159.334 1253.17,-152.46"/>
</g>
<!-- Node17 -->
<g id="node17" class="node"><title>Node17</title>
<g id="a_node17"><a xlink:href="../../d6/d01/GridStorage_8h.html" target="_top" xlink:title="/home/travis/build\l/AliceO2Group/AliceO2\l/CCDB/include/CCDB/GridStorage.h">
<polygon fill="none" stroke="black" points="1086,-78.5 1086,-119.5 1264,-119.5 1264,-78.5 1086,-78.5"/>
<text text-anchor="start" x="1094" y="-107.5" font-family="Helvetica,sans-Serif" font-size="10.00">/home/travis/build</text>
<text text-anchor="start" x="1094" y="-96.5" font-family="Helvetica,sans-Serif" font-size="10.00">/AliceO2Group/AliceO2</text>
<text text-anchor="middle" x="1175" y="-85.5" font-family="Helvetica,sans-Serif" font-size="10.00">/CCDB/include/CCDB/GridStorage.h</text>
</a>
</g>
</g>
<!-- Node15&#45;&gt;Node17 -->
<g id="edge19" class="edge"><title>Node15&#45;&gt;Node17</title>
<path fill="none" stroke="midnightblue" d="M1168.3,-146.297C1169.6,-137.301 1171,-127.653 1172.18,-119.506"/>
<polygon fill="midnightblue" stroke="midnightblue" points="1164.8,-146.03 1166.83,-156.428 1171.73,-147.033 1164.8,-146.03"/>
</g>
<!-- Node18 -->
<g id="node18" class="node"><title>Node18</title>
<g id="a_node18"><a xlink:href="../../d8/d9b/LocalStorage_8h.html" target="_top" xlink:title="/home/travis/build\l/AliceO2Group/AliceO2\l/CCDB/include/CCDB/LocalStorage.h">
<polygon fill="none" stroke="black" points="1282.5,-78.5 1282.5,-119.5 1465.5,-119.5 1465.5,-78.5 1282.5,-78.5"/>
<text text-anchor="start" x="1290.5" y="-107.5" font-family="Helvetica,sans-Serif" font-size="10.00">/home/travis/build</text>
<text text-anchor="start" x="1290.5" y="-96.5" font-family="Helvetica,sans-Serif" font-size="10.00">/AliceO2Group/AliceO2</text>
<text text-anchor="middle" x="1374" y="-85.5" font-family="Helvetica,sans-Serif" font-size="10.00">/CCDB/include/CCDB/LocalStorage.h</text>
</a>
</g>
</g>
<!-- Node15&#45;&gt;Node18 -->
<g id="edge22" class="edge"><title>Node15&#45;&gt;Node18</title>
<path fill="none" stroke="midnightblue" d="M1227.86,-152.887C1257.34,-142.219 1291.96,-129.69 1320.1,-119.506"/>
<polygon fill="midnightblue" stroke="midnightblue" points="1226.29,-149.734 1218.08,-156.428 1228.67,-156.316 1226.29,-149.734"/>
</g>
<!-- Node16&#45;&gt;Node6 -->
<g id="edge17" class="edge"><title>Node16&#45;&gt;Node6</title>
<path fill="none" stroke="midnightblue" d="M1534.29,-72.6352C1519.2,-62.4868 1502.09,-50.9816 1488,-41.5056"/>
<polygon fill="midnightblue" stroke="midnightblue" points="1532.65,-75.7515 1542.9,-78.4281 1536.56,-69.943 1532.65,-75.7515"/>
</g>
<!-- Node16&#45;&gt;Node9 -->
<g id="edge18" class="edge"><title>Node16&#45;&gt;Node9</title>
<path fill="none" stroke="midnightblue" d="M1585.65,-69.1744C1590.03,-59.9317 1594.78,-49.9188 1598.76,-41.5056"/>
<polygon fill="midnightblue" stroke="midnightblue" points="1582.39,-67.8924 1581.27,-78.4281 1588.71,-70.889 1582.39,-67.8924"/>
</g>
<!-- Node17&#45;&gt;Node7 -->
<g id="edge20" class="edge"><title>Node17&#45;&gt;Node7</title>
<path fill="none" stroke="midnightblue" d="M1161.73,-69.1744C1157.47,-59.9317 1152.86,-49.9188 1148.98,-41.5056"/>
<polygon fill="midnightblue" stroke="midnightblue" points="1158.62,-70.8091 1165.99,-78.4281 1164.98,-67.8809 1158.62,-70.8091"/>
</g>
<!-- Node17&#45;&gt;Node9 -->
<g id="edge21" class="edge"><title>Node17&#45;&gt;Node9</title>
<path fill="none" stroke="midnightblue" d="M1274.21,-77.8608C1391.07,-58.5887 1423.61,-65.1904 1536,-42 1539.05,-41.3708 1542.16,-40.6837 1545.29,-39.9553"/>
<polygon fill="midnightblue" stroke="midnightblue" points="1273.43,-74.442 1264.15,-79.5487 1274.59,-81.3455 1273.43,-74.442"/>
</g>
<!-- Node18&#45;&gt;Node8 -->
<g id="edge23" class="edge"><title>Node18&#45;&gt;Node8</title>
<path fill="none" stroke="midnightblue" d="M1347.91,-71.204C1338.38,-61.416 1327.79,-50.5388 1318.99,-41.5056"/>
<polygon fill="midnightblue" stroke="midnightblue" points="1345.46,-73.705 1354.94,-78.4281 1350.47,-68.8217 1345.46,-73.705"/>
</g>
<!-- Node18&#45;&gt;Node9 -->
<g id="edge24" class="edge"><title>Node18&#45;&gt;Node9</title>
<path fill="none" stroke="midnightblue" d="M1443.88,-75.3039C1477,-64.5458 1516.18,-51.8229 1547.94,-41.5056"/>
<polygon fill="midnightblue" stroke="midnightblue" points="1442.69,-72.0102 1434.26,-78.4281 1444.85,-78.6679 1442.69,-72.0102"/>
</g>
</g>
</svg>
        <g id="navigator" transform="translate(0 0)" fill="#404254">
                <rect fill="#f2f5e9" fill-opacity="0.5" stroke="#606060" stroke-width=".5" x="0" y="0" width="60" height="60"/>
                <use id="zoomplus" xlink:href="#zoomPlus" x="17" y="9" onmousedown="handleZoom(evt,'in')"/>
                <use id="zoomminus" xlink:href="#zoomMin" x="42" y="9" onmousedown="handleZoom(evt,'out')"/>
                <use id="reset" xlink:href="#resetDef" x="30" y="36" onmousedown="handleReset()"/>
                <g id="arrowUp" xlink:href="#dirArrow" transform="translate(30 24)" onmousedown="handlePan(0,-1)">
                  <use xlink:href="#rim" fill="#404040">
                        <set attributeName="fill" to="#808080" begin="arrowUp.mouseover" end="arrowUp.mouseout"/>
                  </use>
                  <path fill="none" stroke="white" stroke-width="1.5" d="M0,-3.0v7 M-2.5,-0.5L0,-3.0L2.5,-0.5"/>
                </g>
                <g id="arrowRight" xlink:href="#dirArrow" transform="rotate(90) translate(36 -43)" onmousedown="handlePan(1,0)">
                  <use xlink:href="#rim" fill="#404040">
                        <set attributeName="fill" to="#808080" begin="arrowRight.mouseover" end="arrowRight.mouseout"/>
                  </use>
                  <path fill="none" stroke="white" stroke-width="1.5" d="M0,-3.0v7 M-2.5,-0.5L0,-3.0L2.5,-0.5"/>
                </g>
                <g id="arrowDown" xlink:href="#dirArrow" transform="rotate(180) translate(-30 -48)" onmousedown="handlePan(0,1)">
                  <use xlink:href="#rim" fill="#404040">
                        <set attributeName="fill" to="#808080" begin="arrowDown.mouseover" end="arrowDown.mouseout"/>
                  </use>
                  <path fill="none" stroke="white" stroke-width="1.5" d="M0,-3.0v7 M-2.5,-0.5L0,-3.0L2.5,-0.5"/>
                </g>
                <g id="arrowLeft" xlink:href="#dirArrow" transform="rotate(270) translate(-36 17)" onmousedown="handlePan(-1,0)">
                  <use xlink:href="#rim" fill="#404040">
                        <set attributeName="fill" to="#808080" begin="arrowLeft.mouseover" end="arrowLeft.mouseout"/>
                  </use>
                  <path fill="none" stroke="white" stroke-width="1.5" d="M0,-3.0v7 M-2.5,-0.5L0,-3.0L2.5,-0.5"/>
                </g>
        </g>
        <svg viewBox="0 0 15 15" width="100%" height="30px" preserveAspectRatio="xMaxYMin meet">
         <g id="arrow_out" transform="scale(0.3 0.3)">
          <a xlink:href="IdPath_8h__dep__incl_org.svg" target="_base">
           <rect id="button" ry="5" rx="5" y="6" x="6" height="38" width="38"
                fill="#f2f5e9" fill-opacity="0.5" stroke="#606060" stroke-width="1.0"/>
           <path id="arrow"
             d="M 11.500037,31.436501 C 11.940474,20.09759 22.043105,11.32322 32.158766,21.979434 L 37.068811,17.246167 C 37.068811,17.246167 37.088388,32 37.088388,32 L 22.160133,31.978069 C 22.160133,31.978069 26.997745,27.140456 26.997745,27.140456 C 18.528582,18.264221 13.291696,25.230495 11.500037,31.436501 z"
             style="fill:#404040;"/>
          </a>
         </g>
        </svg>
</svg>
