<?xml version="1.0" encoding="UTF-8" standalone="no"?>
<!DOCTYPE svg PUBLIC "-//W3C//DTD SVG 1.1//EN"
 "http://www.w3.org/Graphics/SVG/1.1/DTD/svg11.dtd">
<!-- Generated by graphviz version 2.36.0 (20140111.2315)
 -->
<!-- Title: /home/travis/build/AliceO2Group/AliceO2/Detectors/ITSMFT/MFT/reconstruction/src/runMFTrecoFileSink.cxx Pages: 1 -->
<svg width="267pt" height="196pt"
 viewBox="0.00 0.00 267.00 196.00" xmlns="http://www.w3.org/2000/svg" xmlns:xlink="http://www.w3.org/1999/xlink">
<g id="graph0" class="graph" transform="scale(1 1) rotate(0) translate(4 192)">
<title>/home/travis/build/AliceO2Group/AliceO2/Detectors/ITSMFT/MFT/reconstruction/src/runMFTrecoFileSink.cxx</title>
<!-- Node1 -->
<g id="node1" class="node"><title>Node1</title>
<polygon fill="#bfbfbf" stroke="black" points="42.5,-124.5 42.5,-187.5 195.5,-187.5 195.5,-124.5 42.5,-124.5"/>
<text text-anchor="start" x="50.5" y="-175.5" font-family="Helvetica,sans-Serif" font-size="10.00">/home/travis/build</text>
<text text-anchor="start" x="50.5" y="-164.5" font-family="Helvetica,sans-Serif" font-size="10.00">/AliceO2Group/AliceO2</text>
<text text-anchor="start" x="50.5" y="-153.5" font-family="Helvetica,sans-Serif" font-size="10.00">/Detectors/ITSMFT/MFT</text>
<text text-anchor="start" x="50.5" y="-142.5" font-family="Helvetica,sans-Serif" font-size="10.00">/reconstruction/src/runMFTreco</text>
<text text-anchor="middle" x="119" y="-131.5" font-family="Helvetica,sans-Serif" font-size="10.00">FileSink.cxx</text>
</g>
<!-- Node2 -->
<g id="node2" class="node"><title>Node2</title>
<polygon fill="none" stroke="#bfbfbf" points="-0.5,-62.5 -0.5,-81.5 100.5,-81.5 100.5,-62.5 -0.5,-62.5"/>
<text text-anchor="middle" x="50" y="-69.5" font-family="Helvetica,sans-Serif" font-size="10.00">runFairMQDevice.h</text>
</g>
<!-- Node1&#45;&gt;Node2 -->
<g id="edge1" class="edge"><title>Node1&#45;&gt;Node2</title>
<path fill="none" stroke="midnightblue" d="M93.3069,-124.466C83.3496,-112.633 72.3434,-99.553 63.9183,-89.5405"/>
<polygon fill="midnightblue" stroke="midnightblue" points="66.3866,-87.0378 57.27,-81.6398 61.0305,-91.5448 66.3866,-87.0378"/>
</g>
<!-- Node3 -->
<g id="node3" class="node"><title>Node3</title>
<g id="a_node3"><a xlink:href="../../d9/d19/FileSink_8h.html" target="_top" xlink:title="MFTReconstruction/devices\l/FileSink.h">
<polygon fill="none" stroke="black" points="119,-57 119,-87 259,-87 259,-57 119,-57"/>
<text text-anchor="start" x="127" y="-75" font-family="Helvetica,sans-Serif" font-size="10.00">MFTReconstruction/devices</text>
<text text-anchor="middle" x="189" y="-64" font-family="Helvetica,sans-Serif" font-size="10.00">/FileSink.h</text>
</a>
</g>
</g>
<!-- Node1&#45;&gt;Node3 -->
<g id="edge2" class="edge"><title>Node1&#45;&gt;Node3</title>
<path fill="none" stroke="midnightblue" d="M145.065,-124.466C153.398,-114.705 162.456,-104.095 170.17,-95.0585"/>
<polygon fill="midnightblue" stroke="midnightblue" points="172.986,-97.1497 176.817,-87.2716 167.662,-92.6048 172.986,-97.1497"/>
</g>
<!-- Node4 -->
<g id="node4" class="node"><title>Node4</title>
<polygon fill="none" stroke="#bfbfbf" points="145,-0.5 145,-19.5 233,-19.5 233,-0.5 145,-0.5"/>
<text text-anchor="middle" x="189" y="-7.5" font-family="Helvetica,sans-Serif" font-size="10.00">FairMQDevice.h</text>
</g>
<!-- Node3&#45;&gt;Node4 -->
<g id="edge3" class="edge"><title>Node3&#45;&gt;Node4</title>
<path fill="none" stroke="midnightblue" d="M189,-56.7808C189,-48.7812 189,-38.6887 189,-30.0168"/>
<polygon fill="midnightblue" stroke="midnightblue" points="192.5,-29.7305 189,-19.7305 185.5,-29.7306 192.5,-29.7305"/>
</g>
</g>
</svg>
