<?xml version="1.0" encoding="UTF-8" standalone="no"?>
<!DOCTYPE svg PUBLIC "-//W3C//DTD SVG 1.1//EN"
 "http://www.w3.org/Graphics/SVG/1.1/DTD/svg11.dtd">
<!-- Generated by graphviz version 2.36.0 (20140111.2315)
 -->
<!-- Title: /home/travis/build/AliceO2Group/AliceO2/Detectors/ITSMFT/common/reconstruction/include/ITSMFTReconstruction/PixelReader.h Pages: 1 -->
<svg width="402pt" height="252pt"
 viewBox="0.00 0.00 402.00 252.00" xmlns="http://www.w3.org/2000/svg" xmlns:xlink="http://www.w3.org/1999/xlink">
<g id="graph0" class="graph" transform="scale(1 1) rotate(0) translate(4 248)">
<title>/home/travis/build/AliceO2Group/AliceO2/Detectors/ITSMFT/common/reconstruction/include/ITSMFTReconstruction/PixelReader.h</title>
<!-- Node1 -->
<g id="node1" class="node"><title>Node1</title>
<polygon fill="#bfbfbf" stroke="black" points="49,-180.5 49,-243.5 235,-243.5 235,-180.5 49,-180.5"/>
<text text-anchor="start" x="57" y="-231.5" font-family="Helvetica,sans-Serif" font-size="10.00">/home/travis/build</text>
<text text-anchor="start" x="57" y="-220.5" font-family="Helvetica,sans-Serif" font-size="10.00">/AliceO2Group/AliceO2</text>
<text text-anchor="start" x="57" y="-209.5" font-family="Helvetica,sans-Serif" font-size="10.00">/Detectors/ITSMFT/common</text>
<text text-anchor="start" x="57" y="-198.5" font-family="Helvetica,sans-Serif" font-size="10.00">/reconstruction/include</text>
<text text-anchor="middle" x="142" y="-187.5" font-family="Helvetica,sans-Serif" font-size="10.00">/ITSMFTReconstruction/PixelReader.h</text>
</g>
<!-- Node2 -->
<g id="node2" class="node"><title>Node2</title>
<polygon fill="none" stroke="#bfbfbf" points="0,-0.5 0,-19.5 56,-19.5 56,-0.5 0,-0.5"/>
<text text-anchor="middle" x="28" y="-7.5" font-family="Helvetica,sans-Serif" font-size="10.00">Rtypes.h</text>
</g>
<!-- Node1&#45;&gt;Node2 -->
<g id="edge1" class="edge"><title>Node1&#45;&gt;Node2</title>
<path fill="none" stroke="midnightblue" d="M101.353,-180.464C75.2083,-158.124 43.5051,-125.295 29,-88 21.7469,-69.3509 22.6331,-46.1881 24.6205,-30.1642"/>
<polygon fill="midnightblue" stroke="midnightblue" points="28.1343,-30.3342 26.1616,-19.9246 21.2123,-29.2923 28.1343,-30.3342"/>
</g>
<!-- Node3 -->
<g id="node3" class="node"><title>Node3</title>
<g id="a_node3"><a xlink:href="../../d0/d06/ITSMFT_2common_2base_2include_2ITSMFTBase_2Digit_8h.html" target="_top" xlink:title="ITSMFTBase/Digit.h">
<polygon fill="none" stroke="black" points="88.5,-124.5 88.5,-143.5 195.5,-143.5 195.5,-124.5 88.5,-124.5"/>
<text text-anchor="middle" x="142" y="-131.5" font-family="Helvetica,sans-Serif" font-size="10.00">ITSMFTBase/Digit.h</text>
</a>
</g>
</g>
<!-- Node1&#45;&gt;Node3 -->
<g id="edge2" class="edge"><title>Node1&#45;&gt;Node3</title>
<path fill="none" stroke="midnightblue" d="M142,-180.088C142,-171.15 142,-161.669 142,-153.719"/>
<polygon fill="midnightblue" stroke="midnightblue" points="145.5,-153.718 142,-143.718 138.5,-153.718 145.5,-153.718"/>
</g>
<!-- Node5 -->
<g id="node5" class="node"><title>Node5</title>
<g id="a_node5"><a xlink:href="../../d7/dcd/MCCompLabel_8h.html" target="_top" xlink:title="SimulationDataFormat\l/MCCompLabel.h">
<polygon fill="none" stroke="black" points="280,-57 280,-87 394,-87 394,-57 280,-57"/>
<text text-anchor="start" x="288" y="-75" font-family="Helvetica,sans-Serif" font-size="10.00">SimulationDataFormat</text>
<text text-anchor="middle" x="337" y="-64" font-family="Helvetica,sans-Serif" font-size="10.00">/MCCompLabel.h</text>
</a>
</g>
</g>
<!-- Node1&#45;&gt;Node5 -->
<g id="edge8" class="edge"><title>Node1&#45;&gt;Node5</title>
<path fill="none" stroke="midnightblue" d="M185.277,-180.373C222.814,-153.808 276.075,-116.116 308.484,-93.1803"/>
<polygon fill="midnightblue" stroke="midnightblue" points="310.901,-95.7576 317.042,-87.1239 306.858,-90.0437 310.901,-95.7576"/>
</g>
<!-- Node3&#45;&gt;Node2 -->
<g id="edge7" class="edge"><title>Node3&#45;&gt;Node2</title>
<path fill="none" stroke="midnightblue" d="M106.524,-124.378C86.2766,-117.688 62.0132,-106.37 47,-88 33.5491,-71.5413 29.4116,-46.9323 28.2462,-29.9877"/>
<polygon fill="midnightblue" stroke="midnightblue" points="31.7308,-29.5288 27.8364,-19.6757 24.7364,-29.8069 31.7308,-29.5288"/>
</g>
<!-- Node4 -->
<g id="node4" class="node"><title>Node4</title>
<polygon fill="none" stroke="#bfbfbf" points="56.5,-57 56.5,-87 151.5,-87 151.5,-57 56.5,-57"/>
<text text-anchor="start" x="64.5" y="-75" font-family="Helvetica,sans-Serif" font-size="10.00">boost/serialization</text>
<text text-anchor="middle" x="104" y="-64" font-family="Helvetica,sans-Serif" font-size="10.00">/base_object.hpp</text>
</g>
<!-- Node3&#45;&gt;Node4 -->
<g id="edge3" class="edge"><title>Node3&#45;&gt;Node4</title>
<path fill="none" stroke="midnightblue" d="M136.556,-124.403C131.842,-116.961 124.806,-105.851 118.479,-95.8619"/>
<polygon fill="midnightblue" stroke="midnightblue" points="121.263,-93.7163 112.956,-87.1408 115.35,-97.4617 121.263,-93.7163"/>
</g>
<!-- Node3&#45;&gt;Node5 -->
<g id="edge4" class="edge"><title>Node3&#45;&gt;Node5</title>
<path fill="none" stroke="midnightblue" d="M169.939,-124.403C198.913,-115.488 244.989,-101.311 281.42,-90.1014"/>
<polygon fill="midnightblue" stroke="midnightblue" points="282.889,-93.3115 291.418,-87.0253 280.831,-86.621 282.889,-93.3115"/>
</g>
<!-- Node6 -->
<g id="node6" class="node"><title>Node6</title>
<polygon fill="none" stroke="#bfbfbf" points="170,-62.5 170,-81.5 262,-81.5 262,-62.5 170,-62.5"/>
<text text-anchor="middle" x="216" y="-69.5" font-family="Helvetica,sans-Serif" font-size="10.00">FairTimeStamp.h</text>
</g>
<!-- Node3&#45;&gt;Node6 -->
<g id="edge6" class="edge"><title>Node3&#45;&gt;Node6</title>
<path fill="none" stroke="midnightblue" d="M152.602,-124.403C164.252,-114.958 183.186,-99.6056 197.335,-88.1342"/>
<polygon fill="midnightblue" stroke="midnightblue" points="199.854,-90.5973 205.417,-81.5806 195.445,-85.16 199.854,-90.5973"/>
</g>
<!-- Node5&#45;&gt;Node2 -->
<g id="edge5" class="edge"><title>Node5&#45;&gt;Node2</title>
<path fill="none" stroke="midnightblue" d="M279.793,-57.85C276.822,-57.2134 273.877,-56.5931 271,-56 198.771,-41.1105 113.985,-25.9285 66.0679,-17.5594"/>
<polygon fill="midnightblue" stroke="midnightblue" points="66.5872,-14.0972 56.135,-15.83 65.3864,-20.9935 66.5872,-14.0972"/>
</g>
</g>
</svg>
