<?xml version="1.0" encoding="UTF-8" standalone="no"?>
<!DOCTYPE svg PUBLIC "-//W3C//DTD SVG 1.1//EN"
 "http://www.w3.org/Graphics/SVG/1.1/DTD/svg11.dtd">
<!-- Generated by graphviz version 2.36.0 (20140111.2315)
 -->
<!-- Title: FairModule Pages: 1 -->
<svg width="958pt" height="248pt"
 viewBox="0.00 0.00 958.00 248.00" xmlns="http://www.w3.org/2000/svg" xmlns:xlink="http://www.w3.org/1999/xlink">
<g id="graph0" class="graph" transform="scale(1 1) rotate(0) translate(4 244)">
<title>FairModule</title>
<!-- Node1 -->
<g id="node1" class="node"><title>Node1</title>
<polygon fill="#bfbfbf" stroke="black" points="454.5,-182.5 454.5,-239.5 519.5,-239.5 519.5,-182.5 454.5,-182.5"/>
<text text-anchor="middle" x="487" y="-227.5" font-family="Helvetica,sans-Serif" font-size="10.00">FairModule</text>
<polyline fill="none" stroke="black" points="454.5,-220.5 519.5,-220.5 "/>
<text text-anchor="middle" x="487" y="-208.5" font-family="Helvetica,sans-Serif" font-size="10.00"> </text>
<polyline fill="none" stroke="black" points="454.5,-201.5 519.5,-201.5 "/>
<text text-anchor="middle" x="487" y="-189.5" font-family="Helvetica,sans-Serif" font-size="10.00"> </text>
</g>
<!-- Node2 -->
<g id="node2" class="node"><title>Node2</title>
<g id="a_node2"><a xlink:href="../../d7/d12/classo2_1_1passive_1_1Absorber.html" target="_top" xlink:title="{o2::passive::Absorber\n||+ Absorber()\l+ Absorber()\l+ ~Absorber()\l+ ConstructGeometry()\l+ createMaterials()\l+ CloneModule()\l}">
<polygon fill="none" stroke="black" points="-0.5,-17 -0.5,-129 116.5,-129 116.5,-17 -0.5,-17"/>
<text text-anchor="middle" x="58" y="-117" font-family="Helvetica,sans-Serif" font-size="10.00">o2::passive::Absorber</text>
<polyline fill="none" stroke="black" points="-0.5,-110 116.5,-110 "/>
<text text-anchor="middle" x="58" y="-98" font-family="Helvetica,sans-Serif" font-size="10.00"> </text>
<polyline fill="none" stroke="black" points="-0.5,-91 116.5,-91 "/>
<text text-anchor="start" x="7.5" y="-79" font-family="Helvetica,sans-Serif" font-size="10.00">+ Absorber()</text>
<text text-anchor="start" x="7.5" y="-68" font-family="Helvetica,sans-Serif" font-size="10.00">+ Absorber()</text>
<text text-anchor="start" x="7.5" y="-57" font-family="Helvetica,sans-Serif" font-size="10.00">+ ~Absorber()</text>
<text text-anchor="start" x="7.5" y="-46" font-family="Helvetica,sans-Serif" font-size="10.00">+ ConstructGeometry()</text>
<text text-anchor="start" x="7.5" y="-35" font-family="Helvetica,sans-Serif" font-size="10.00">+ createMaterials()</text>
<text text-anchor="start" x="7.5" y="-24" font-family="Helvetica,sans-Serif" font-size="10.00">+ CloneModule()</text>
</a>
</g>
</g>
<!-- Node1&#45;&gt;Node2 -->
<g id="edge1" class="edge"><title>Node1&#45;&gt;Node2</title>
<path fill="none" stroke="midnightblue" d="M443.942,-210.984C373.055,-210.801 229.255,-202.707 125,-146 116.75,-141.513 108.953,-135.63 101.794,-129.159"/>
<polygon fill="none" stroke="midnightblue" points="444.277,-214.483 454.267,-210.955 444.257,-207.483 444.277,-214.483"/>
</g>
<!-- Node3 -->
<g id="node3" class="node"><title>Node3</title>
<g id="a_node3"><a xlink:href="../../d2/d54/classo2_1_1passive_1_1Dipole.html" target="_top" xlink:title="{o2::passive::Dipole\n||+ Dipole()\l+ Dipole()\l+ ~Dipole()\l+ ConstructGeometry()\l+ CloneModule()\l}">
<polygon fill="none" stroke="black" points="134.5,-22.5 134.5,-123.5 251.5,-123.5 251.5,-22.5 134.5,-22.5"/>
<text text-anchor="middle" x="193" y="-111.5" font-family="Helvetica,sans-Serif" font-size="10.00">o2::passive::Dipole</text>
<polyline fill="none" stroke="black" points="134.5,-104.5 251.5,-104.5 "/>
<text text-anchor="middle" x="193" y="-92.5" font-family="Helvetica,sans-Serif" font-size="10.00"> </text>
<polyline fill="none" stroke="black" points="134.5,-85.5 251.5,-85.5 "/>
<text text-anchor="start" x="142.5" y="-73.5" font-family="Helvetica,sans-Serif" font-size="10.00">+ Dipole()</text>
<text text-anchor="start" x="142.5" y="-62.5" font-family="Helvetica,sans-Serif" font-size="10.00">+ Dipole()</text>
<text text-anchor="start" x="142.5" y="-51.5" font-family="Helvetica,sans-Serif" font-size="10.00">+ ~Dipole()</text>
<text text-anchor="start" x="142.5" y="-40.5" font-family="Helvetica,sans-Serif" font-size="10.00">+ ConstructGeometry()</text>
<text text-anchor="start" x="142.5" y="-29.5" font-family="Helvetica,sans-Serif" font-size="10.00">+ CloneModule()</text>
</a>
</g>
</g>
<!-- Node1&#45;&gt;Node3 -->
<g id="edge2" class="edge"><title>Node1&#45;&gt;Node3</title>
<path fill="none" stroke="midnightblue" d="M444.162,-204.821C396.571,-197.55 318.829,-181.056 261,-146 251.002,-139.939 241.517,-132.018 232.979,-123.653"/>
<polygon fill="none" stroke="midnightblue" points="443.73,-208.295 454.131,-206.276 444.741,-201.368 443.73,-208.295"/>
</g>
<!-- Node4 -->
<g id="node4" class="node"><title>Node4</title>
<g id="a_node4"><a xlink:href="../../de/db8/classo2_1_1passive_1_1FrameStructure.html" target="_top" xlink:title="{o2::passive::FrameStructure\n||+ FrameStructure()\l+ FrameStructure()\l+ ~FrameStructure()\l+ ConstructGeometry()\l+ hasHoles()\l+ setHoles()\l}">
<polygon fill="none" stroke="black" points="270,-17 270,-129 410,-129 410,-17 270,-17"/>
<text text-anchor="middle" x="340" y="-117" font-family="Helvetica,sans-Serif" font-size="10.00">o2::passive::FrameStructure</text>
<polyline fill="none" stroke="black" points="270,-110 410,-110 "/>
<text text-anchor="middle" x="340" y="-98" font-family="Helvetica,sans-Serif" font-size="10.00"> </text>
<polyline fill="none" stroke="black" points="270,-91 410,-91 "/>
<text text-anchor="start" x="278" y="-79" font-family="Helvetica,sans-Serif" font-size="10.00">+ FrameStructure()</text>
<text text-anchor="start" x="278" y="-68" font-family="Helvetica,sans-Serif" font-size="10.00">+ FrameStructure()</text>
<text text-anchor="start" x="278" y="-57" font-family="Helvetica,sans-Serif" font-size="10.00">+ ~FrameStructure()</text>
<text text-anchor="start" x="278" y="-46" font-family="Helvetica,sans-Serif" font-size="10.00">+ ConstructGeometry()</text>
<text text-anchor="start" x="278" y="-35" font-family="Helvetica,sans-Serif" font-size="10.00">+ hasHoles()</text>
<text text-anchor="start" x="278" y="-24" font-family="Helvetica,sans-Serif" font-size="10.00">+ setHoles()</text>
</a>
</g>
</g>
<!-- Node1&#45;&gt;Node4 -->
<g id="edge3" class="edge"><title>Node1&#45;&gt;Node4</title>
<path fill="none" stroke="midnightblue" d="M449.565,-175.367C434.35,-161.289 416.392,-144.676 399.466,-129.016"/>
<polygon fill="none" stroke="midnightblue" points="447.535,-178.256 457.252,-182.478 452.289,-173.118 447.535,-178.256"/>
</g>
<!-- Node5 -->
<g id="node5" class="node"><title>Node5</title>
<g id="a_node5"><a xlink:href="../../d3/d82/classo2_1_1passive_1_1Hall.html" target="_top" xlink:title="{o2::passive::Hall\n||+ Hall()\l+ Hall()\l+ ~Hall()\l+ ConstructGeometry()\l+ CloneModule()\l}">
<polygon fill="none" stroke="black" points="428.5,-22.5 428.5,-123.5 545.5,-123.5 545.5,-22.5 428.5,-22.5"/>
<text text-anchor="middle" x="487" y="-111.5" font-family="Helvetica,sans-Serif" font-size="10.00">o2::passive::Hall</text>
<polyline fill="none" stroke="black" points="428.5,-104.5 545.5,-104.5 "/>
<text text-anchor="middle" x="487" y="-92.5" font-family="Helvetica,sans-Serif" font-size="10.00"> </text>
<polyline fill="none" stroke="black" points="428.5,-85.5 545.5,-85.5 "/>
<text text-anchor="start" x="436.5" y="-73.5" font-family="Helvetica,sans-Serif" font-size="10.00">+ Hall()</text>
<text text-anchor="start" x="436.5" y="-62.5" font-family="Helvetica,sans-Serif" font-size="10.00">+ Hall()</text>
<text text-anchor="start" x="436.5" y="-51.5" font-family="Helvetica,sans-Serif" font-size="10.00">+ ~Hall()</text>
<text text-anchor="start" x="436.5" y="-40.5" font-family="Helvetica,sans-Serif" font-size="10.00">+ ConstructGeometry()</text>
<text text-anchor="start" x="436.5" y="-29.5" font-family="Helvetica,sans-Serif" font-size="10.00">+ CloneModule()</text>
</a>
</g>
</g>
<!-- Node1&#45;&gt;Node5 -->
<g id="edge4" class="edge"><title>Node1&#45;&gt;Node5</title>
<path fill="none" stroke="midnightblue" d="M487,-172.069C487,-157.107 487,-139.713 487,-123.764"/>
<polygon fill="none" stroke="midnightblue" points="483.5,-172.478 487,-182.478 490.5,-172.478 483.5,-172.478"/>
</g>
<!-- Node6 -->
<g id="node6" class="node"><title>Node6</title>
<g id="a_node6"><a xlink:href="../../d2/dc7/classo2_1_1passive_1_1Magnet.html" target="_top" xlink:title="{o2::passive::Magnet\n||+ Magnet()\l+ Magnet()\l+ ~Magnet()\l+ ConstructGeometry()\l+ createMaterials()\l+ CloneModule()\l}">
<polygon fill="none" stroke="black" points="563.5,-17 563.5,-129 680.5,-129 680.5,-17 563.5,-17"/>
<text text-anchor="middle" x="622" y="-117" font-family="Helvetica,sans-Serif" font-size="10.00">o2::passive::Magnet</text>
<polyline fill="none" stroke="black" points="563.5,-110 680.5,-110 "/>
<text text-anchor="middle" x="622" y="-98" font-family="Helvetica,sans-Serif" font-size="10.00"> </text>
<polyline fill="none" stroke="black" points="563.5,-91 680.5,-91 "/>
<text text-anchor="start" x="571.5" y="-79" font-family="Helvetica,sans-Serif" font-size="10.00">+ Magnet()</text>
<text text-anchor="start" x="571.5" y="-68" font-family="Helvetica,sans-Serif" font-size="10.00">+ Magnet()</text>
<text text-anchor="start" x="571.5" y="-57" font-family="Helvetica,sans-Serif" font-size="10.00">+ ~Magnet()</text>
<text text-anchor="start" x="571.5" y="-46" font-family="Helvetica,sans-Serif" font-size="10.00">+ ConstructGeometry()</text>
<text text-anchor="start" x="571.5" y="-35" font-family="Helvetica,sans-Serif" font-size="10.00">+ createMaterials()</text>
<text text-anchor="start" x="571.5" y="-24" font-family="Helvetica,sans-Serif" font-size="10.00">+ CloneModule()</text>
</a>
</g>
</g>
<!-- Node1&#45;&gt;Node6 -->
<g id="edge5" class="edge"><title>Node1&#45;&gt;Node6</title>
<path fill="none" stroke="midnightblue" d="M524.027,-175.282C533.867,-165.88 544.419,-155.635 554,-146 559.334,-140.635 564.844,-134.988 570.31,-129.313"/>
<polygon fill="none" stroke="midnightblue" points="521.5,-172.855 516.669,-182.285 526.325,-177.926 521.5,-172.855"/>
</g>
<!-- Node7 -->
<g id="node7" class="node"><title>Node7</title>
<g id="a_node7"><a xlink:href="../../d0/d9b/classo2_1_1passive_1_1Pipe.html" target="_top" xlink:title="{o2::passive::Pipe\n||+ Pipe()\l+ Pipe()\l+ ~Pipe()\l+ ConstructGeometry()\l+ CloneModule()\l+ getRmin()\l+ getRmax()\l+ getWidth()\l+ getDz()\l}">
<polygon fill="none" stroke="black" points="698.5,-0.5 698.5,-145.5 815.5,-145.5 815.5,-0.5 698.5,-0.5"/>
<text text-anchor="middle" x="757" y="-133.5" font-family="Helvetica,sans-Serif" font-size="10.00">o2::passive::Pipe</text>
<polyline fill="none" stroke="black" points="698.5,-126.5 815.5,-126.5 "/>
<text text-anchor="middle" x="757" y="-114.5" font-family="Helvetica,sans-Serif" font-size="10.00"> </text>
<polyline fill="none" stroke="black" points="698.5,-107.5 815.5,-107.5 "/>
<text text-anchor="start" x="706.5" y="-95.5" font-family="Helvetica,sans-Serif" font-size="10.00">+ Pipe()</text>
<text text-anchor="start" x="706.5" y="-84.5" font-family="Helvetica,sans-Serif" font-size="10.00">+ Pipe()</text>
<text text-anchor="start" x="706.5" y="-73.5" font-family="Helvetica,sans-Serif" font-size="10.00">+ ~Pipe()</text>
<text text-anchor="start" x="706.5" y="-62.5" font-family="Helvetica,sans-Serif" font-size="10.00">+ ConstructGeometry()</text>
<text text-anchor="start" x="706.5" y="-51.5" font-family="Helvetica,sans-Serif" font-size="10.00">+ CloneModule()</text>
<text text-anchor="start" x="706.5" y="-40.5" font-family="Helvetica,sans-Serif" font-size="10.00">+ getRmin()</text>
<text text-anchor="start" x="706.5" y="-29.5" font-family="Helvetica,sans-Serif" font-size="10.00">+ getRmax()</text>
<text text-anchor="start" x="706.5" y="-18.5" font-family="Helvetica,sans-Serif" font-size="10.00">+ getWidth()</text>
<text text-anchor="start" x="706.5" y="-7.5" font-family="Helvetica,sans-Serif" font-size="10.00">+ getDz()</text>
</a>
</g>
</g>
<!-- Node1&#45;&gt;Node7 -->
<g id="edge6" class="edge"><title>Node1&#45;&gt;Node7</title>
<path fill="none" stroke="midnightblue" d="M529.653,-202.994C572.465,-194.525 639.054,-177.341 689,-146 692.204,-143.989 695.36,-141.793 698.451,-139.457"/>
<polygon fill="none" stroke="midnightblue" points="528.739,-199.605 519.57,-204.914 530.049,-206.481 528.739,-199.605"/>
</g>
<!-- Node8 -->
<g id="node8" class="node"><title>Node8</title>
<g id="a_node8"><a xlink:href="../../dc/d7a/classo2_1_1passive_1_1Shil.html" target="_top" xlink:title="{o2::passive::Shil\n||+ Shil()\l+ Shil()\l+ ~Shil()\l+ ConstructGeometry()\l+ CloneModule()\l}">
<polygon fill="none" stroke="black" points="833.5,-22.5 833.5,-123.5 950.5,-123.5 950.5,-22.5 833.5,-22.5"/>
<text text-anchor="middle" x="892" y="-111.5" font-family="Helvetica,sans-Serif" font-size="10.00">o2::passive::Shil</text>
<polyline fill="none" stroke="black" points="833.5,-104.5 950.5,-104.5 "/>
<text text-anchor="middle" x="892" y="-92.5" font-family="Helvetica,sans-Serif" font-size="10.00"> </text>
<polyline fill="none" stroke="black" points="833.5,-85.5 950.5,-85.5 "/>
<text text-anchor="start" x="841.5" y="-73.5" font-family="Helvetica,sans-Serif" font-size="10.00">+ Shil()</text>
<text text-anchor="start" x="841.5" y="-62.5" font-family="Helvetica,sans-Serif" font-size="10.00">+ Shil()</text>
<text text-anchor="start" x="841.5" y="-51.5" font-family="Helvetica,sans-Serif" font-size="10.00">+ ~Shil()</text>
<text text-anchor="start" x="841.5" y="-40.5" font-family="Helvetica,sans-Serif" font-size="10.00">+ ConstructGeometry()</text>
<text text-anchor="start" x="841.5" y="-29.5" font-family="Helvetica,sans-Serif" font-size="10.00">+ CloneModule()</text>
</a>
</g>
</g>
<!-- Node1&#45;&gt;Node8 -->
<g id="edge7" class="edge"><title>Node1&#45;&gt;Node8</title>
<path fill="none" stroke="midnightblue" d="M530.042,-210.125C596.987,-208.569 728.299,-198.384 824,-146 834.557,-140.221 844.426,-132.219 853.192,-123.642"/>
<polygon fill="none" stroke="midnightblue" points="529.801,-206.629 519.865,-210.306 529.926,-213.628 529.801,-206.629"/>
</g>
</g>
</svg>
