<?xml version="1.0" encoding="UTF-8" standalone="no"?>
<!DOCTYPE svg PUBLIC "-//W3C//DTD SVG 1.1//EN"
 "http://www.w3.org/Graphics/SVG/1.1/DTD/svg11.dtd">
<!-- Generated by graphviz version 2.36.0 (20140111.2315)
 -->
<!-- Title: /home/travis/build/AliceO2Group/AliceO2/EventVisualisation/Base/src/DataInterpreter.cxx Pages: 1 -->
<svg width="630pt" height="366pt"
 viewBox="0.00 0.00 630.00 366.00" xmlns="http://www.w3.org/2000/svg" xmlns:xlink="http://www.w3.org/1999/xlink">
<g id="graph0" class="graph" transform="scale(1 1) rotate(0) translate(4 362)">
<title>/home/travis/build/AliceO2Group/AliceO2/EventVisualisation/Base/src/DataInterpreter.cxx</title>
<!-- Node1 -->
<g id="node1" class="node"><title>Node1</title>
<polygon fill="#bfbfbf" stroke="black" points="462,-305 462,-357 588,-357 588,-305 462,-305"/>
<text text-anchor="start" x="470" y="-345" font-family="Helvetica,sans-Serif" font-size="10.00">/home/travis/build</text>
<text text-anchor="start" x="470" y="-334" font-family="Helvetica,sans-Serif" font-size="10.00">/AliceO2Group/AliceO2</text>
<text text-anchor="start" x="470" y="-323" font-family="Helvetica,sans-Serif" font-size="10.00">/EventVisualisation/Base</text>
<text text-anchor="middle" x="525" y="-312" font-family="Helvetica,sans-Serif" font-size="10.00">/src/DataInterpreter.cxx</text>
</g>
<!-- Node2 -->
<g id="node2" class="node"><title>Node2</title>
<g id="a_node2"><a xlink:href="../../dd/dbf/DataInterpreter_8h.html" target="_top" xlink:title="EventVisualisationBase\l/DataInterpreter.h">
<polygon fill="none" stroke="black" points="332,-237 332,-267 452,-267 452,-237 332,-237"/>
<text text-anchor="start" x="340" y="-255" font-family="Helvetica,sans-Serif" font-size="10.00">EventVisualisationBase</text>
<text text-anchor="middle" x="392" y="-244" font-family="Helvetica,sans-Serif" font-size="10.00">/DataInterpreter.h</text>
</a>
</g>
</g>
<!-- Node1&#45;&gt;Node2 -->
<g id="edge1" class="edge"><title>Node1&#45;&gt;Node2</title>
<path fill="none" stroke="midnightblue" d="M481.451,-304.787C463.169,-294.203 442.25,-282.092 425.241,-272.245"/>
<polygon fill="midnightblue" stroke="midnightblue" points="426.643,-269.012 416.235,-267.031 423.135,-275.07 426.643,-269.012"/>
</g>
<!-- Node14 -->
<g id="node14" class="node"><title>Node14</title>
<polygon fill="none" stroke="#bfbfbf" points="568,-0.5 568,-19.5 622,-19.5 622,-0.5 568,-0.5"/>
<text text-anchor="middle" x="595" y="-7.5" font-family="Helvetica,sans-Serif" font-size="10.00">iostream</text>
</g>
<!-- Node1&#45;&gt;Node14 -->
<g id="edge25" class="edge"><title>Node1&#45;&gt;Node14</title>
<path fill="none" stroke="midnightblue" d="M544.74,-304.9C564.503,-277.196 592,-230.479 592,-185 592,-185 592,-185 592,-121 592,-88.9361 593.289,-51.6344 594.178,-29.7446"/>
<polygon fill="midnightblue" stroke="midnightblue" points="597.683,-29.6944 594.608,-19.5556 590.689,-29.399 597.683,-29.6944"/>
</g>
<!-- Node3 -->
<g id="node3" class="node"><title>Node3</title>
<g id="a_node3"><a xlink:href="../../d8/d25/EventManager_8h.html" target="_top" xlink:title="EventVisualisationBase\l/EventManager.h">
<polygon fill="none" stroke="black" points="265,-169 265,-199 385,-199 385,-169 265,-169"/>
<text text-anchor="start" x="273" y="-187" font-family="Helvetica,sans-Serif" font-size="10.00">EventVisualisationBase</text>
<text text-anchor="middle" x="325" y="-176" font-family="Helvetica,sans-Serif" font-size="10.00">/EventManager.h</text>
</a>
</g>
</g>
<!-- Node2&#45;&gt;Node3 -->
<g id="edge2" class="edge"><title>Node2&#45;&gt;Node3</title>
<path fill="none" stroke="midnightblue" d="M377.462,-236.679C368.507,-227.857 356.856,-216.38 346.809,-206.483"/>
<polygon fill="midnightblue" stroke="midnightblue" points="349.09,-203.817 339.51,-199.293 344.177,-208.804 349.09,-203.817"/>
</g>
<!-- Node18 -->
<g id="node18" class="node"><title>Node18</title>
<polygon fill="none" stroke="#bfbfbf" points="51,-112.5 51,-131.5 135,-131.5 135,-112.5 51,-112.5"/>
<text text-anchor="middle" x="93" y="-119.5" font-family="Helvetica,sans-Serif" font-size="10.00">TEveElement.h</text>
</g>
<!-- Node2&#45;&gt;Node18 -->
<g id="edge24" class="edge"><title>Node2&#45;&gt;Node18</title>
<path fill="none" stroke="midnightblue" d="M351.786,-236.907C324.531,-227.115 287.819,-213.455 256,-200 206.888,-179.233 150.949,-152.003 119.024,-136.11"/>
<polygon fill="midnightblue" stroke="midnightblue" points="120.431,-132.901 109.921,-131.562 117.302,-139.163 120.431,-132.901"/>
</g>
<!-- Node22 -->
<g id="node22" class="node"><title>Node22</title>
<g id="a_node22"><a xlink:href="../../d6/d7c/VisualisationConstants_8h.html" target="_top" xlink:title="EventVisualisationBase\l/VisualisationConstants.h">
<polygon fill="none" stroke="black" points="414,-169 414,-199 542,-199 542,-169 414,-169"/>
<text text-anchor="start" x="422" y="-187" font-family="Helvetica,sans-Serif" font-size="10.00">EventVisualisationBase</text>
<text text-anchor="middle" x="478" y="-176" font-family="Helvetica,sans-Serif" font-size="10.00">/VisualisationConstants.h</text>
</a>
</g>
</g>
<!-- Node2&#45;&gt;Node22 -->
<g id="edge22" class="edge"><title>Node2&#45;&gt;Node22</title>
<path fill="none" stroke="midnightblue" d="M410.661,-236.679C422.575,-227.536 438.206,-215.54 451.409,-205.407"/>
<polygon fill="midnightblue" stroke="midnightblue" points="453.869,-207.931 459.671,-199.066 449.607,-202.378 453.869,-207.931"/>
</g>
<!-- Node4 -->
<g id="node4" class="node"><title>Node4</title>
<g id="a_node4"><a xlink:href="../../d1/da0/Manager_8h.html" target="_top" xlink:title="CCDB/Manager.h">
<polygon fill="none" stroke="black" points="153.5,-112.5 153.5,-131.5 248.5,-131.5 248.5,-112.5 153.5,-112.5"/>
<text text-anchor="middle" x="201" y="-119.5" font-family="Helvetica,sans-Serif" font-size="10.00">CCDB/Manager.h</text>
</a>
</g>
</g>
<!-- Node3&#45;&gt;Node4 -->
<g id="edge3" class="edge"><title>Node3&#45;&gt;Node4</title>
<path fill="none" stroke="midnightblue" d="M295.928,-168.933C275.381,-158.991 248.037,-145.76 227.975,-136.053"/>
<polygon fill="midnightblue" stroke="midnightblue" points="229.299,-132.805 218.773,-131.6 226.251,-139.106 229.299,-132.805"/>
</g>
<!-- Node3&#45;&gt;Node18 -->
<g id="edge18" class="edge"><title>Node3&#45;&gt;Node18</title>
<path fill="none" stroke="midnightblue" d="M270.606,-168.933C229.42,-158.281 173.637,-143.855 135.65,-134.03"/>
<polygon fill="midnightblue" stroke="midnightblue" points="136.474,-130.628 125.916,-131.513 134.721,-137.405 136.474,-130.628"/>
</g>
<!-- Node19 -->
<g id="node19" class="node"><title>Node19</title>
<polygon fill="none" stroke="#bfbfbf" points="266.5,-112.5 266.5,-131.5 377.5,-131.5 377.5,-112.5 266.5,-112.5"/>
<text text-anchor="middle" x="322" y="-119.5" font-family="Helvetica,sans-Serif" font-size="10.00">TEveEventManager.h</text>
</g>
<!-- Node3&#45;&gt;Node19 -->
<g id="edge19" class="edge"><title>Node3&#45;&gt;Node19</title>
<path fill="none" stroke="midnightblue" d="M324.289,-168.781C323.885,-160.691 323.373,-150.462 322.936,-141.725"/>
<polygon fill="midnightblue" stroke="midnightblue" points="326.432,-141.543 322.437,-131.731 319.44,-141.893 326.432,-141.543"/>
</g>
<!-- Node20 -->
<g id="node20" class="node"><title>Node20</title>
<polygon fill="none" stroke="#bfbfbf" points="395.5,-112.5 395.5,-131.5 462.5,-131.5 462.5,-112.5 395.5,-112.5"/>
<text text-anchor="middle" x="429" y="-119.5" font-family="Helvetica,sans-Serif" font-size="10.00">TQObject.h</text>
</g>
<!-- Node3&#45;&gt;Node20 -->
<g id="edge20" class="edge"><title>Node3&#45;&gt;Node20</title>
<path fill="none" stroke="midnightblue" d="M349.383,-168.933C366.146,-159.262 388.303,-146.479 404.985,-136.855"/>
<polygon fill="midnightblue" stroke="midnightblue" points="407.18,-139.629 414.093,-131.6 403.682,-133.566 407.18,-139.629"/>
</g>
<!-- Node21 -->
<g id="node21" class="node"><title>Node21</title>
<polygon fill="none" stroke="#bfbfbf" points="480.5,-112.5 480.5,-131.5 521.5,-131.5 521.5,-112.5 480.5,-112.5"/>
<text text-anchor="middle" x="501" y="-119.5" font-family="Helvetica,sans-Serif" font-size="10.00">string</text>
</g>
<!-- Node3&#45;&gt;Node21 -->
<g id="edge21" class="edge"><title>Node3&#45;&gt;Node21</title>
<path fill="none" stroke="midnightblue" d="M366.264,-168.933C398.256,-158.026 441.857,-143.162 470.689,-133.333"/>
<polygon fill="midnightblue" stroke="midnightblue" points="471.892,-136.621 480.228,-130.081 469.633,-129.995 471.892,-136.621"/>
</g>
<!-- Node5 -->
<g id="node5" class="node"><title>Node5</title>
<polygon fill="none" stroke="#bfbfbf" points="-0.5,-56.5 -0.5,-75.5 46.5,-75.5 46.5,-56.5 -0.5,-56.5"/>
<text text-anchor="middle" x="23" y="-63.5" font-family="Helvetica,sans-Serif" font-size="10.00">TList.h</text>
</g>
<!-- Node4&#45;&gt;Node5 -->
<g id="edge4" class="edge"><title>Node4&#45;&gt;Node5</title>
<path fill="none" stroke="midnightblue" d="M172.795,-112.444C141.169,-102.849 89.9218,-87.3021 56.339,-77.1141"/>
<polygon fill="midnightblue" stroke="midnightblue" points="57.1105,-73.6907 46.5251,-74.1368 55.0783,-80.3892 57.1105,-73.6907"/>
</g>
<!-- Node6 -->
<g id="node6" class="node"><title>Node6</title>
<polygon fill="none" stroke="#bfbfbf" points="65,-56.5 65,-75.5 115,-75.5 115,-56.5 65,-56.5"/>
<text text-anchor="middle" x="90" y="-63.5" font-family="Helvetica,sans-Serif" font-size="10.00">TMap.h</text>
</g>
<!-- Node4&#45;&gt;Node6 -->
<g id="edge5" class="edge"><title>Node4&#45;&gt;Node6</title>
<path fill="none" stroke="midnightblue" d="M183.166,-112.324C165.284,-103.625 137.525,-90.1202 116.954,-80.113"/>
<polygon fill="midnightblue" stroke="midnightblue" points="118.313,-76.8819 107.79,-75.6545 115.251,-83.1765 118.313,-76.8819"/>
</g>
<!-- Node7 -->
<g id="node7" class="node"><title>Node7</title>
<polygon fill="none" stroke="#bfbfbf" points="120.5,-0.5 120.5,-19.5 179.5,-19.5 179.5,-0.5 120.5,-0.5"/>
<text text-anchor="middle" x="150" y="-7.5" font-family="Helvetica,sans-Serif" font-size="10.00">TObject.h</text>
</g>
<!-- Node4&#45;&gt;Node7 -->
<g id="edge6" class="edge"><title>Node4&#45;&gt;Node7</title>
<path fill="none" stroke="midnightblue" d="M190.996,-112.418C181.944,-104.065 168.991,-90.5338 162,-76 155.005,-61.4575 152.074,-43.2782 150.853,-29.8458"/>
<polygon fill="midnightblue" stroke="midnightblue" points="154.345,-29.604 150.178,-19.8631 147.361,-30.0766 154.345,-29.604"/>
</g>
<!-- Node8 -->
<g id="node8" class="node"><title>Node8</title>
<polygon fill="none" stroke="#bfbfbf" points="171.5,-56.5 171.5,-75.5 220.5,-75.5 220.5,-56.5 171.5,-56.5"/>
<text text-anchor="middle" x="196" y="-63.5" font-family="Helvetica,sans-Serif" font-size="10.00">cstddef</text>
</g>
<!-- Node4&#45;&gt;Node8 -->
<g id="edge7" class="edge"><title>Node4&#45;&gt;Node8</title>
<path fill="none" stroke="midnightblue" d="M200.174,-112.083C199.519,-105.006 198.58,-94.8611 197.758,-85.9865"/>
<polygon fill="midnightblue" stroke="midnightblue" points="201.217,-85.3858 196.81,-75.7511 194.247,-86.0312 201.217,-85.3858"/>
</g>
<!-- Node9 -->
<g id="node9" class="node"><title>Node9</title>
<polygon fill="none" stroke="#bfbfbf" points="239,-56.5 239,-75.5 295,-75.5 295,-56.5 239,-56.5"/>
<text text-anchor="middle" x="267" y="-63.5" font-family="Helvetica,sans-Serif" font-size="10.00">Rtypes.h</text>
</g>
<!-- Node4&#45;&gt;Node9 -->
<g id="edge8" class="edge"><title>Node4&#45;&gt;Node9</title>
<path fill="none" stroke="midnightblue" d="M211.604,-112.324C221.456,-104.263 236.351,-92.0765 248.215,-82.3695"/>
<polygon fill="midnightblue" stroke="midnightblue" points="250.68,-84.8752 256.203,-75.8339 246.247,-79.4575 250.68,-84.8752"/>
</g>
<!-- Node10 -->
<g id="node10" class="node"><title>Node10</title>
<polygon fill="none" stroke="#bfbfbf" points="313,-56.5 313,-75.5 369,-75.5 369,-56.5 313,-56.5"/>
<text text-anchor="middle" x="341" y="-63.5" font-family="Helvetica,sans-Serif" font-size="10.00">TString.h</text>
</g>
<!-- Node4&#45;&gt;Node10 -->
<g id="edge9" class="edge"><title>Node4&#45;&gt;Node10</title>
<path fill="none" stroke="midnightblue" d="M223.183,-112.444C246.428,-103.478 283.149,-89.314 309.415,-79.1827"/>
<polygon fill="midnightblue" stroke="midnightblue" points="310.85,-82.3807 318.92,-75.5164 308.331,-75.8497 310.85,-82.3807"/>
</g>
<!-- Node11 -->
<g id="node11" class="node"><title>Node11</title>
<g id="a_node11"><a xlink:href="../../d7/d44/TObjectWrapper_8h.html" target="_top" xlink:title="CCDB/TObjectWrapper.h">
<polygon fill="none" stroke="black" points="387,-56.5 387,-75.5 515,-75.5 515,-56.5 387,-56.5"/>
<text text-anchor="middle" x="451" y="-63.5" font-family="Helvetica,sans-Serif" font-size="10.00">CCDB/TObjectWrapper.h</text>
</a>
</g>
</g>
<!-- Node4&#45;&gt;Node11 -->
<g id="edge10" class="edge"><title>Node4&#45;&gt;Node11</title>
<path fill="none" stroke="midnightblue" d="M240.613,-112.444C284.225,-103.023 354.4,-87.8656 401.578,-77.6752"/>
<polygon fill="midnightblue" stroke="midnightblue" points="402.536,-81.0489 411.572,-75.5164 401.059,-74.2067 402.536,-81.0489"/>
</g>
<!-- Node11&#45;&gt;Node7 -->
<g id="edge12" class="edge"><title>Node11&#45;&gt;Node7</title>
<path fill="none" stroke="midnightblue" d="M401.111,-56.4775C349.67,-47.6238 267.156,-33.2383 196,-20 193.937,-19.6163 191.824,-19.2186 189.69,-18.8136"/>
<polygon fill="midnightblue" stroke="midnightblue" points="190.159,-15.3397 179.678,-16.8905 188.839,-22.2141 190.159,-15.3397"/>
</g>
<!-- Node12 -->
<g id="node12" class="node"><title>Node12</title>
<polygon fill="none" stroke="#bfbfbf" points="205,-0.5 205,-19.5 261,-19.5 261,-0.5 205,-0.5"/>
<text text-anchor="middle" x="233" y="-7.5" font-family="Helvetica,sans-Serif" font-size="10.00">TClass.h</text>
</g>
<!-- Node11&#45;&gt;Node12 -->
<g id="edge11" class="edge"><title>Node11&#45;&gt;Node12</title>
<path fill="none" stroke="midnightblue" d="M416.457,-56.4435C376.834,-46.6286 312.066,-30.5852 271.033,-20.421"/>
<polygon fill="midnightblue" stroke="midnightblue" points="271.69,-16.9781 261.142,-17.971 270.007,-23.7728 271.69,-16.9781"/>
</g>
<!-- Node13 -->
<g id="node13" class="node"><title>Node13</title>
<polygon fill="none" stroke="#bfbfbf" points="279.5,-0.5 279.5,-19.5 332.5,-19.5 332.5,-0.5 279.5,-0.5"/>
<text text-anchor="middle" x="306" y="-7.5" font-family="Helvetica,sans-Serif" font-size="10.00">cxxabi.h</text>
</g>
<!-- Node11&#45;&gt;Node13 -->
<g id="edge13" class="edge"><title>Node11&#45;&gt;Node13</title>
<path fill="none" stroke="midnightblue" d="M428.024,-56.4435C403.843,-47.4381 365.582,-33.1891 338.354,-23.049"/>
<polygon fill="midnightblue" stroke="midnightblue" points="339.461,-19.7265 328.868,-19.5164 337.018,-26.2864 339.461,-19.7265"/>
</g>
<!-- Node11&#45;&gt;Node14 -->
<g id="edge14" class="edge"><title>Node11&#45;&gt;Node14</title>
<path fill="none" stroke="midnightblue" d="M473.817,-56.4435C497.832,-47.4381 535.829,-33.1891 562.869,-23.049"/>
<polygon fill="midnightblue" stroke="midnightblue" points="564.155,-26.3049 572.29,-19.5164 561.697,-19.7506 564.155,-26.3049"/>
</g>
<!-- Node15 -->
<g id="node15" class="node"><title>Node15</title>
<polygon fill="none" stroke="#bfbfbf" points="351,-0.5 351,-19.5 403,-19.5 403,-0.5 351,-0.5"/>
<text text-anchor="middle" x="377" y="-7.5" font-family="Helvetica,sans-Serif" font-size="10.00">memory</text>
</g>
<!-- Node11&#45;&gt;Node15 -->
<g id="edge15" class="edge"><title>Node11&#45;&gt;Node15</title>
<path fill="none" stroke="midnightblue" d="M439.111,-56.324C427.85,-48.1066 410.713,-35.6017 397.291,-25.8069"/>
<polygon fill="midnightblue" stroke="midnightblue" points="399.247,-22.9014 389.106,-19.8339 395.12,-28.5559 399.247,-22.9014"/>
</g>
<!-- Node16 -->
<g id="node16" class="node"><title>Node16</title>
<polygon fill="none" stroke="#bfbfbf" points="421.5,-0.5 421.5,-19.5 480.5,-19.5 480.5,-0.5 421.5,-0.5"/>
<text text-anchor="middle" x="451" y="-7.5" font-family="Helvetica,sans-Serif" font-size="10.00">stdexcept</text>
</g>
<!-- Node11&#45;&gt;Node16 -->
<g id="edge16" class="edge"><title>Node11&#45;&gt;Node16</title>
<path fill="none" stroke="midnightblue" d="M451,-56.083C451,-49.0059 451,-38.8611 451,-29.9865"/>
<polygon fill="midnightblue" stroke="midnightblue" points="454.5,-29.751 451,-19.7511 447.5,-29.7511 454.5,-29.751"/>
</g>
<!-- Node17 -->
<g id="node17" class="node"><title>Node17</title>
<polygon fill="none" stroke="#bfbfbf" points="498.5,-0.5 498.5,-19.5 549.5,-19.5 549.5,-0.5 498.5,-0.5"/>
<text text-anchor="middle" x="524" y="-7.5" font-family="Helvetica,sans-Serif" font-size="10.00">typeinfo</text>
</g>
<!-- Node11&#45;&gt;Node17 -->
<g id="edge17" class="edge"><title>Node11&#45;&gt;Node17</title>
<path fill="none" stroke="midnightblue" d="M462.729,-56.324C473.837,-48.1066 490.742,-35.6017 503.983,-25.8069"/>
<polygon fill="midnightblue" stroke="midnightblue" points="506.1,-28.5948 512.058,-19.8339 501.937,-22.9671 506.1,-28.5948"/>
</g>
<!-- Node22&#45;&gt;Node21 -->
<g id="edge23" class="edge"><title>Node22&#45;&gt;Node21</title>
<path fill="none" stroke="midnightblue" d="M483.451,-168.781C486.621,-160.512 490.648,-150.006 494.044,-141.145"/>
<polygon fill="midnightblue" stroke="midnightblue" points="497.342,-142.321 497.653,-131.731 490.806,-139.815 497.342,-142.321"/>
</g>
</g>
</svg>
