<?xml version="1.0" encoding="UTF-8" standalone="no"?>
<!DOCTYPE svg PUBLIC "-//W3C//DTD SVG 1.1//EN"
 "http://www.w3.org/Graphics/SVG/1.1/DTD/svg11.dtd">
<!-- Generated by graphviz version 2.36.0 (20140111.2315)
 -->
<!-- Title: o2::DataFlow::TimeframeValidatorDevice Pages: 1 -->
<svg width="383pt" height="334pt"
 viewBox="0.00 0.00 383.00 334.00" xmlns="http://www.w3.org/2000/svg" xmlns:xlink="http://www.w3.org/1999/xlink">
<g id="graph0" class="graph" transform="scale(1 1) rotate(0) translate(4 330)">
<title>o2::DataFlow::TimeframeValidatorDevice</title>
<!-- Node1 -->
<g id="node1" class="node"><title>Node1</title>
<polygon fill="#bfbfbf" stroke="black" points="57,-0.5 57,-101.5 223,-101.5 223,-0.5 57,-0.5"/>
<text text-anchor="start" x="65" y="-89.5" font-family="Helvetica,sans-Serif" font-size="10.00">o2::DataFlow::TimeframeValidator</text>
<text text-anchor="middle" x="140" y="-78.5" font-family="Helvetica,sans-Serif" font-size="10.00">Device</text>
<polyline fill="none" stroke="black" points="57,-71.5 223,-71.5 "/>
<text text-anchor="middle" x="140" y="-59.5" font-family="Helvetica,sans-Serif" font-size="10.00"> </text>
<polyline fill="none" stroke="black" points="57,-52.5 223,-52.5 "/>
<text text-anchor="start" x="65" y="-40.5" font-family="Helvetica,sans-Serif" font-size="10.00">+ TimeframeValidatorDevice()</text>
<text text-anchor="start" x="65" y="-29.5" font-family="Helvetica,sans-Serif" font-size="10.00">+ ~TimeframeValidatorDevice()</text>
<text text-anchor="start" x="65" y="-18.5" font-family="Helvetica,sans-Serif" font-size="10.00">+ InitTask()</text>
<text text-anchor="start" x="65" y="-7.5" font-family="Helvetica,sans-Serif" font-size="10.00"># Run()</text>
</g>
<!-- Node2 -->
<g id="node2" class="node"><title>Node2</title>
<g id="a_node2"><a xlink:href="../../da/df6/classo2_1_1Base_1_1O2Device.html" target="_top" xlink:title="{o2::Base::O2Device\n||+ ~O2Device()\l+ AddMessage()\l+ ForEach()\l}">
<polygon fill="none" stroke="black" points="-0.5,-150.5 -0.5,-229.5 104.5,-229.5 104.5,-150.5 -0.5,-150.5"/>
<text text-anchor="middle" x="52" y="-217.5" font-family="Helvetica,sans-Serif" font-size="10.00">o2::Base::O2Device</text>
<polyline fill="none" stroke="black" points="-0.5,-210.5 104.5,-210.5 "/>
<text text-anchor="middle" x="52" y="-198.5" font-family="Helvetica,sans-Serif" font-size="10.00"> </text>
<polyline fill="none" stroke="black" points="-0.5,-191.5 104.5,-191.5 "/>
<text text-anchor="start" x="7.5" y="-179.5" font-family="Helvetica,sans-Serif" font-size="10.00">+ ~O2Device()</text>
<text text-anchor="start" x="7.5" y="-168.5" font-family="Helvetica,sans-Serif" font-size="10.00">+ AddMessage()</text>
<text text-anchor="start" x="7.5" y="-157.5" font-family="Helvetica,sans-Serif" font-size="10.00">+ ForEach()</text>
</a>
</g>
</g>
<!-- Node2&#45;&gt;Node1 -->
<g id="edge1" class="edge"><title>Node2&#45;&gt;Node1</title>
<path fill="none" stroke="midnightblue" d="M82.3866,-141.694C90.7239,-128.714 99.7845,-114.608 108.199,-101.509"/>
<polygon fill="none" stroke="midnightblue" points="79.2068,-140.168 76.7471,-150.473 85.0964,-143.951 79.2068,-140.168"/>
</g>
<!-- Node3 -->
<g id="node3" class="node"><title>Node3</title>
<g id="a_node3"><a xlink:href="../../db/dfe/classFairMQDevice.html" target="_top" xlink:title="{FairMQDevice\n||}">
<polygon fill="none" stroke="black" points="12,-268.5 12,-325.5 92,-325.5 92,-268.5 12,-268.5"/>
<text text-anchor="middle" x="52" y="-313.5" font-family="Helvetica,sans-Serif" font-size="10.00">FairMQDevice</text>
<polyline fill="none" stroke="black" points="12,-306.5 92,-306.5 "/>
<text text-anchor="middle" x="52" y="-294.5" font-family="Helvetica,sans-Serif" font-size="10.00"> </text>
<polyline fill="none" stroke="black" points="12,-287.5 92,-287.5 "/>
<text text-anchor="middle" x="52" y="-275.5" font-family="Helvetica,sans-Serif" font-size="10.00"> </text>
</a>
</g>
</g>
<!-- Node3&#45;&gt;Node2 -->
<g id="edge2" class="edge"><title>Node3&#45;&gt;Node2</title>
<path fill="none" stroke="midnightblue" d="M52,-258.322C52,-249.073 52,-239.155 52,-229.851"/>
<polygon fill="none" stroke="midnightblue" points="48.5001,-258.412 52,-268.412 55.5001,-258.413 48.5001,-258.412"/>
</g>
<!-- Node4 -->
<g id="node4" class="node"><title>Node4</title>
<polygon fill="none" stroke="#bfbfbf" points="122.5,-161.5 122.5,-218.5 157.5,-218.5 157.5,-161.5 122.5,-161.5"/>
<text text-anchor="middle" x="140" y="-206.5" font-family="Helvetica,sans-Serif" font-size="10.00">char</text>
<polyline fill="none" stroke="#bfbfbf" points="122.5,-199.5 157.5,-199.5 "/>
<text text-anchor="middle" x="140" y="-187.5" font-family="Helvetica,sans-Serif" font-size="10.00"> </text>
<polyline fill="none" stroke="#bfbfbf" points="122.5,-180.5 157.5,-180.5 "/>
<text text-anchor="middle" x="140" y="-168.5" font-family="Helvetica,sans-Serif" font-size="10.00"> </text>
</g>
<!-- Node4&#45;&gt;Node1 -->
<g id="edge3" class="edge"><title>Node4&#45;&gt;Node1</title>
<path fill="none" stroke="#404040" d="M140,-161.276C140,-147.631 140,-130.592 140,-114.059"/>
<polygon fill="none" stroke="#404040" points="140,-113.578 136,-107.578 140,-101.578 144,-107.578 140,-113.578"/>
<text text-anchor="middle" x="209.5" y="-123.5" font-family="Helvetica,sans-Serif" font-size="10.00"> +OptionKeyInputChannelName</text>
</g>
<!-- Node5 -->
<g id="node5" class="node"><title>Node5</title>
<polygon fill="none" stroke="#bfbfbf" points="287.5,-161.5 287.5,-218.5 316.5,-218.5 316.5,-161.5 287.5,-161.5"/>
<text text-anchor="middle" x="302" y="-206.5" font-family="Helvetica,sans-Serif" font-size="10.00">int</text>
<polyline fill="none" stroke="#bfbfbf" points="287.5,-199.5 316.5,-199.5 "/>
<text text-anchor="middle" x="302" y="-187.5" font-family="Helvetica,sans-Serif" font-size="10.00"> </text>
<polyline fill="none" stroke="#bfbfbf" points="287.5,-180.5 316.5,-180.5 "/>
<text text-anchor="middle" x="302" y="-168.5" font-family="Helvetica,sans-Serif" font-size="10.00"> </text>
</g>
<!-- Node5&#45;&gt;Node1 -->
<g id="edge4" class="edge"><title>Node5&#45;&gt;Node1</title>
<path fill="none" stroke="#404040" d="M298.407,-161.268C295.418,-147.545 289.959,-131.501 280,-120 267.403,-105.452 250.98,-93.7356 233.834,-84.4013"/>
<polygon fill="none" stroke="#404040" points="233.771,-84.3688 226.607,-85.1903 223.093,-78.8932 230.257,-78.0717 233.771,-84.3688"/>
<text text-anchor="middle" x="331" y="-123.5" font-family="Helvetica,sans-Serif" font-size="10.00"> #mInChannelName</text>
</g>
</g>
</svg>
