<?xml version="1.0" encoding="UTF-8" standalone="no"?>
<!DOCTYPE svg PUBLIC "-//W3C//DTD SVG 1.1//EN"
 "http://www.w3.org/Graphics/SVG/1.1/DTD/svg11.dtd">
<!-- Generated by graphviz version 2.36.0 (20140111.2315)
 -->
<!-- Title: /home/travis/build/AliceO2Group/AliceO2/DataFormats/simulation/test/testMCTruthContainer.cxx Pages: 1 -->
<svg width="333pt" height="186pt"
 viewBox="0.00 0.00 333.00 186.00" xmlns="http://www.w3.org/2000/svg" xmlns:xlink="http://www.w3.org/1999/xlink">
<g id="graph0" class="graph" transform="scale(1 1) rotate(0) translate(4 182)">
<title>/home/travis/build/AliceO2Group/AliceO2/DataFormats/simulation/test/testMCTruthContainer.cxx</title>
<!-- Node1 -->
<g id="node1" class="node"><title>Node1</title>
<polygon fill="#bfbfbf" stroke="black" points="116.5,-125 116.5,-177 271.5,-177 271.5,-125 116.5,-125"/>
<text text-anchor="start" x="124.5" y="-165" font-family="Helvetica,sans-Serif" font-size="10.00">/home/travis/build</text>
<text text-anchor="start" x="124.5" y="-154" font-family="Helvetica,sans-Serif" font-size="10.00">/AliceO2Group/AliceO2</text>
<text text-anchor="start" x="124.5" y="-143" font-family="Helvetica,sans-Serif" font-size="10.00">/DataFormats/simulation</text>
<text text-anchor="middle" x="194" y="-132" font-family="Helvetica,sans-Serif" font-size="10.00">/test/testMCTruthContainer.cxx</text>
</g>
<!-- Node2 -->
<g id="node2" class="node"><title>Node2</title>
<polygon fill="none" stroke="#bfbfbf" points="-0.5,-62.5 -0.5,-81.5 118.5,-81.5 118.5,-62.5 -0.5,-62.5"/>
<text text-anchor="middle" x="59" y="-69.5" font-family="Helvetica,sans-Serif" font-size="10.00">boost/test/unit_test.hpp</text>
</g>
<!-- Node1&#45;&gt;Node2 -->
<g id="edge1" class="edge"><title>Node1&#45;&gt;Node2</title>
<path fill="none" stroke="midnightblue" d="M149.796,-124.787C127.532,-112.088 101.413,-97.1912 82.9191,-86.6428"/>
<polygon fill="midnightblue" stroke="midnightblue" points="84.4243,-83.472 74.0038,-81.5577 80.9561,-89.5525 84.4243,-83.472"/>
</g>
<!-- Node3 -->
<g id="node3" class="node"><title>Node3</title>
<g id="a_node3"><a xlink:href="../../db/d14/MCTruthContainer_8h.html" target="_top" xlink:title="Definition of a container to keep Monte Carlo truth external to simulation objects. ">
<polygon fill="none" stroke="black" points="137,-57 137,-87 251,-87 251,-57 137,-57"/>
<text text-anchor="start" x="145" y="-75" font-family="Helvetica,sans-Serif" font-size="10.00">SimulationDataFormat</text>
<text text-anchor="middle" x="194" y="-64" font-family="Helvetica,sans-Serif" font-size="10.00">/MCTruthContainer.h</text>
</a>
</g>
</g>
<!-- Node1&#45;&gt;Node3 -->
<g id="edge2" class="edge"><title>Node1&#45;&gt;Node3</title>
<path fill="none" stroke="midnightblue" d="M194,-124.787C194,-116.029 194,-106.225 194,-97.5232"/>
<polygon fill="midnightblue" stroke="midnightblue" points="197.5,-97.252 194,-87.252 190.5,-97.2521 197.5,-97.252"/>
</g>
<!-- Node8 -->
<g id="node8" class="node"><title>Node8</title>
<polygon fill="none" stroke="#bfbfbf" points="269,-62.5 269,-81.5 325,-81.5 325,-62.5 269,-62.5"/>
<text text-anchor="middle" x="297" y="-69.5" font-family="Helvetica,sans-Serif" font-size="10.00">algorithm</text>
</g>
<!-- Node1&#45;&gt;Node8 -->
<g id="edge7" class="edge"><title>Node1&#45;&gt;Node8</title>
<path fill="none" stroke="midnightblue" d="M227.726,-124.787C244.09,-112.554 263.182,-98.2816 277.174,-87.8213"/>
<polygon fill="midnightblue" stroke="midnightblue" points="279.639,-90.3486 285.553,-81.5577 275.448,-84.742 279.639,-90.3486"/>
</g>
<!-- Node4 -->
<g id="node4" class="node"><title>Node4</title>
<polygon fill="none" stroke="#bfbfbf" points="53,-0.5 53,-19.5 115,-19.5 115,-0.5 53,-0.5"/>
<text text-anchor="middle" x="84" y="-7.5" font-family="Helvetica,sans-Serif" font-size="10.00">TNamed.h</text>
</g>
<!-- Node3&#45;&gt;Node4 -->
<g id="edge3" class="edge"><title>Node3&#45;&gt;Node4</title>
<path fill="none" stroke="midnightblue" d="M168.21,-56.9327C150.314,-47.1715 126.607,-34.2401 108.907,-24.5856"/>
<polygon fill="midnightblue" stroke="midnightblue" points="110.222,-21.316 99.7667,-19.6 106.87,-27.4612 110.222,-21.316"/>
</g>
<!-- Node5 -->
<g id="node5" class="node"><title>Node5</title>
<polygon fill="none" stroke="#bfbfbf" points="133.5,-0.5 133.5,-19.5 182.5,-19.5 182.5,-0.5 133.5,-0.5"/>
<text text-anchor="middle" x="158" y="-7.5" font-family="Helvetica,sans-Serif" font-size="10.00">cassert</text>
</g>
<!-- Node3&#45;&gt;Node5 -->
<g id="edge4" class="edge"><title>Node3&#45;&gt;Node5</title>
<path fill="none" stroke="midnightblue" d="M185.469,-56.7808C180.399,-48.3318 173.929,-37.5481 168.542,-28.5693"/>
<polygon fill="midnightblue" stroke="midnightblue" points="171.385,-26.5047 163.238,-19.7305 165.382,-30.1062 171.385,-26.5047"/>
</g>
<!-- Node6 -->
<g id="node6" class="node"><title>Node6</title>
<polygon fill="none" stroke="#bfbfbf" points="200.5,-0.5 200.5,-19.5 259.5,-19.5 259.5,-0.5 200.5,-0.5"/>
<text text-anchor="middle" x="230" y="-7.5" font-family="Helvetica,sans-Serif" font-size="10.00">stdexcept</text>
</g>
<!-- Node3&#45;&gt;Node6 -->
<g id="edge5" class="edge"><title>Node3&#45;&gt;Node6</title>
<path fill="none" stroke="midnightblue" d="M202.531,-56.7808C207.601,-48.3318 214.071,-37.5481 219.458,-28.5693"/>
<polygon fill="midnightblue" stroke="midnightblue" points="222.618,-30.1062 224.762,-19.7305 216.615,-26.5047 222.618,-30.1062"/>
</g>
<!-- Node7 -->
<g id="node7" class="node"><title>Node7</title>
<polygon fill="none" stroke="#bfbfbf" points="277.5,-0.5 277.5,-19.5 322.5,-19.5 322.5,-0.5 277.5,-0.5"/>
<text text-anchor="middle" x="300" y="-7.5" font-family="Helvetica,sans-Serif" font-size="10.00">gsl/gsl</text>
</g>
<!-- Node3&#45;&gt;Node7 -->
<g id="edge6" class="edge"><title>Node3&#45;&gt;Node7</title>
<path fill="none" stroke="midnightblue" d="M218.852,-56.9327C236.097,-47.1715 258.942,-34.2401 275.999,-24.5856"/>
<polygon fill="midnightblue" stroke="midnightblue" points="277.828,-27.572 284.807,-19.6 274.38,-21.4802 277.828,-27.572"/>
</g>
</g>
</svg>
