<?xml version="1.0" encoding="UTF-8" standalone="no"?>
<!DOCTYPE svg PUBLIC "-//W3C//DTD SVG 1.1//EN"
 "http://www.w3.org/Graphics/SVG/1.1/DTD/svg11.dtd">
<!-- Generated by graphviz version 2.36.0 (20140111.2315)
 -->
<!-- Title: /home/travis/build/AliceO2Group/AliceO2/Detectors/ITSMFT/MFT/reconstruction/include/MFTReconstruction/ClustererTask.h Pages: 1 -->
<svg width="2186pt" height="536pt"
 viewBox="0.00 0.00 2186.00 536.00" xmlns="http://www.w3.org/2000/svg" xmlns:xlink="http://www.w3.org/1999/xlink">
<g id="graph0" class="graph" transform="scale(1 1) rotate(0) translate(4 532)">
<title>/home/travis/build/AliceO2Group/AliceO2/Detectors/ITSMFT/MFT/reconstruction/include/MFTReconstruction/ClustererTask.h</title>
<!-- Node1 -->
<g id="node1" class="node"><title>Node1</title>
<polygon fill="#bfbfbf" stroke="black" points="218.5,-464.5 218.5,-527.5 397.5,-527.5 397.5,-464.5 218.5,-464.5"/>
<text text-anchor="start" x="226.5" y="-515.5" font-family="Helvetica,sans-Serif" font-size="10.00">/home/travis/build</text>
<text text-anchor="start" x="226.5" y="-504.5" font-family="Helvetica,sans-Serif" font-size="10.00">/AliceO2Group/AliceO2</text>
<text text-anchor="start" x="226.5" y="-493.5" font-family="Helvetica,sans-Serif" font-size="10.00">/Detectors/ITSMFT/MFT</text>
<text text-anchor="start" x="226.5" y="-482.5" font-family="Helvetica,sans-Serif" font-size="10.00">/reconstruction/include</text>
<text text-anchor="middle" x="308" y="-471.5" font-family="Helvetica,sans-Serif" font-size="10.00">/MFTReconstruction/ClustererTask.h</text>
</g>
<!-- Node2 -->
<g id="node2" class="node"><title>Node2</title>
<polygon fill="none" stroke="#bfbfbf" points="110.5,-402.5 110.5,-421.5 173.5,-421.5 173.5,-402.5 110.5,-402.5"/>
<text text-anchor="middle" x="142" y="-409.5" font-family="Helvetica,sans-Serif" font-size="10.00">FairTask.h</text>
</g>
<!-- Node1&#45;&gt;Node2 -->
<g id="edge1" class="edge"><title>Node1&#45;&gt;Node2</title>
<path fill="none" stroke="midnightblue" d="M246.188,-464.466C219.45,-451.258 189.568,-436.497 168.686,-426.182"/>
<polygon fill="midnightblue" stroke="midnightblue" points="170.006,-422.931 159.49,-421.64 166.906,-429.207 170.006,-422.931"/>
</g>
<!-- Node3 -->
<g id="node3" class="node"><title>Node3</title>
<polygon fill="none" stroke="#bfbfbf" points="191.5,-402.5 191.5,-421.5 328.5,-421.5 328.5,-402.5 191.5,-402.5"/>
<text text-anchor="middle" x="260" y="-409.5" font-family="Helvetica,sans-Serif" font-size="10.00">MFTBase/GeometryTGeo.h</text>
</g>
<!-- Node1&#45;&gt;Node3 -->
<g id="edge2" class="edge"><title>Node1&#45;&gt;Node3</title>
<path fill="none" stroke="midnightblue" d="M290.127,-464.466C283.41,-452.991 276.007,-440.345 270.22,-430.459"/>
<polygon fill="midnightblue" stroke="midnightblue" points="273.13,-428.502 265.057,-421.64 267.089,-432.038 273.13,-428.502"/>
</g>
<!-- Node4 -->
<g id="node4" class="node"><title>Node4</title>
<g id="a_node4"><a xlink:href="../../df/d2e/PixelReader_8h.html" target="_top" xlink:title="Definition of the ITS pixel reader. ">
<polygon fill="none" stroke="black" points="294.5,-261 294.5,-291 413.5,-291 413.5,-261 294.5,-261"/>
<text text-anchor="start" x="302.5" y="-279" font-family="Helvetica,sans-Serif" font-size="10.00">ITSMFTReconstruction</text>
<text text-anchor="middle" x="354" y="-268" font-family="Helvetica,sans-Serif" font-size="10.00">/PixelReader.h</text>
</a>
</g>
</g>
<!-- Node1&#45;&gt;Node4 -->
<g id="edge3" class="edge"><title>Node1&#45;&gt;Node4</title>
<path fill="none" stroke="midnightblue" d="M323.548,-464.327C328.599,-453.15 333.738,-440.248 337,-428 348.61,-384.408 352.295,-331.679 353.462,-301.469"/>
<polygon fill="midnightblue" stroke="midnightblue" points="356.962,-301.525 353.788,-291.417 349.966,-301.298 356.962,-301.525"/>
</g>
<!-- Node10 -->
<g id="node10" class="node"><title>Node10</title>
<g id="a_node10"><a xlink:href="../../d6/d04/ITSMFT_2common_2reconstruction_2include_2ITSMFTReconstruction_2Clusterer_8h.html" target="_top" xlink:title="ITSMFTReconstruction\l/Clusterer.h">
<polygon fill="none" stroke="black" points="420.5,-397 420.5,-427 539.5,-427 539.5,-397 420.5,-397"/>
<text text-anchor="start" x="428.5" y="-415" font-family="Helvetica,sans-Serif" font-size="10.00">ITSMFTReconstruction</text>
<text text-anchor="middle" x="480" y="-404" font-family="Helvetica,sans-Serif" font-size="10.00">/Clusterer.h</text>
</a>
</g>
</g>
<!-- Node1&#45;&gt;Node10 -->
<g id="edge12" class="edge"><title>Node1&#45;&gt;Node10</title>
<path fill="none" stroke="midnightblue" d="M372.046,-464.466C395.298,-453.381 420.845,-441.202 441.247,-431.475"/>
<polygon fill="midnightblue" stroke="midnightblue" points="443.003,-434.515 450.524,-427.053 439.991,-428.197 443.003,-434.515"/>
</g>
<!-- Node5 -->
<g id="node5" class="node"><title>Node5</title>
<polygon fill="none" stroke="#bfbfbf" points="414,-74.5 414,-93.5 470,-93.5 470,-74.5 414,-74.5"/>
<text text-anchor="middle" x="442" y="-81.5" font-family="Helvetica,sans-Serif" font-size="10.00">Rtypes.h</text>
</g>
<!-- Node4&#45;&gt;Node5 -->
<g id="edge4" class="edge"><title>Node4&#45;&gt;Node5</title>
<path fill="none" stroke="midnightblue" d="M360.614,-260.719C376.398,-226.641 416.245,-140.608 433.65,-103.029"/>
<polygon fill="midnightblue" stroke="midnightblue" points="436.898,-104.344 437.925,-93.7988 430.546,-101.402 436.898,-104.344"/>
</g>
<!-- Node6 -->
<g id="node6" class="node"><title>Node6</title>
<g id="a_node6"><a xlink:href="../../d0/d06/ITSMFT_2common_2base_2include_2ITSMFTBase_2Digit_8h.html" target="_top" xlink:title="ITSMFTBase/Digit.h">
<polygon fill="none" stroke="black" points="238.5,-204.5 238.5,-223.5 345.5,-223.5 345.5,-204.5 238.5,-204.5"/>
<text text-anchor="middle" x="292" y="-211.5" font-family="Helvetica,sans-Serif" font-size="10.00">ITSMFTBase/Digit.h</text>
</a>
</g>
</g>
<!-- Node4&#45;&gt;Node6 -->
<g id="edge5" class="edge"><title>Node4&#45;&gt;Node6</title>
<path fill="none" stroke="midnightblue" d="M339.307,-260.781C330.019,-251.792 318.001,-240.162 308.402,-230.873"/>
<polygon fill="midnightblue" stroke="midnightblue" points="310.642,-228.17 301.022,-223.731 305.774,-233.2 310.642,-228.17"/>
</g>
<!-- Node8 -->
<g id="node8" class="node"><title>Node8</title>
<g id="a_node8"><a xlink:href="../../d7/dcd/MCCompLabel_8h.html" target="_top" xlink:title="SimulationDataFormat\l/MCCompLabel.h">
<polygon fill="none" stroke="black" points="0,-137 0,-167 114,-167 114,-137 0,-137"/>
<text text-anchor="start" x="8" y="-155" font-family="Helvetica,sans-Serif" font-size="10.00">SimulationDataFormat</text>
<text text-anchor="middle" x="57" y="-144" font-family="Helvetica,sans-Serif" font-size="10.00">/MCCompLabel.h</text>
</a>
</g>
</g>
<!-- Node4&#45;&gt;Node8 -->
<g id="edge11" class="edge"><title>Node4&#45;&gt;Node8</title>
<path fill="none" stroke="midnightblue" d="M319.498,-260.967C294.388,-250.744 259.573,-236.547 229,-224 185.155,-206.006 135.075,-185.319 100.307,-170.934"/>
<polygon fill="midnightblue" stroke="midnightblue" points="101.502,-167.641 90.9239,-167.051 98.8258,-174.109 101.502,-167.641"/>
</g>
<!-- Node6&#45;&gt;Node5 -->
<g id="edge10" class="edge"><title>Node6&#45;&gt;Node5</title>
<path fill="none" stroke="midnightblue" d="M302.627,-204.474C313.767,-195.497 331.738,-180.905 347,-168 374.534,-144.719 405.944,-117.054 424.857,-100.273"/>
<polygon fill="midnightblue" stroke="midnightblue" points="427.23,-102.847 432.38,-93.5878 422.58,-97.6147 427.23,-102.847"/>
</g>
<!-- Node7 -->
<g id="node7" class="node"><title>Node7</title>
<polygon fill="none" stroke="#bfbfbf" points="132.5,-137 132.5,-167 227.5,-167 227.5,-137 132.5,-137"/>
<text text-anchor="start" x="140.5" y="-155" font-family="Helvetica,sans-Serif" font-size="10.00">boost/serialization</text>
<text text-anchor="middle" x="180" y="-144" font-family="Helvetica,sans-Serif" font-size="10.00">/base_object.hpp</text>
</g>
<!-- Node6&#45;&gt;Node7 -->
<g id="edge6" class="edge"><title>Node6&#45;&gt;Node7</title>
<path fill="none" stroke="midnightblue" d="M275.953,-204.403C260.217,-195.974 235.699,-182.839 215.386,-171.957"/>
<polygon fill="midnightblue" stroke="midnightblue" points="216.864,-168.778 206.396,-167.141 213.558,-174.948 216.864,-168.778"/>
</g>
<!-- Node6&#45;&gt;Node8 -->
<g id="edge7" class="edge"><title>Node6&#45;&gt;Node8</title>
<path fill="none" stroke="midnightblue" d="M258.33,-204.403C222.815,-195.336 165.98,-180.825 121.74,-169.529"/>
<polygon fill="midnightblue" stroke="midnightblue" points="122.488,-166.108 111.932,-167.025 120.756,-172.89 122.488,-166.108"/>
</g>
<!-- Node9 -->
<g id="node9" class="node"><title>Node9</title>
<polygon fill="none" stroke="#bfbfbf" points="246,-142.5 246,-161.5 338,-161.5 338,-142.5 246,-142.5"/>
<text text-anchor="middle" x="292" y="-149.5" font-family="Helvetica,sans-Serif" font-size="10.00">FairTimeStamp.h</text>
</g>
<!-- Node6&#45;&gt;Node9 -->
<g id="edge9" class="edge"><title>Node6&#45;&gt;Node9</title>
<path fill="none" stroke="midnightblue" d="M292,-204.403C292,-195.938 292,-182.728 292,-171.82"/>
<polygon fill="midnightblue" stroke="midnightblue" points="295.5,-171.581 292,-161.581 288.5,-171.581 295.5,-171.581"/>
</g>
<!-- Node8&#45;&gt;Node5 -->
<g id="edge8" class="edge"><title>Node8&#45;&gt;Node5</title>
<path fill="none" stroke="midnightblue" d="M114.189,-137.763C117.165,-137.15 120.116,-136.558 123,-136 223.776,-116.514 343.495,-98.8241 403.569,-90.3211"/>
<polygon fill="midnightblue" stroke="midnightblue" points="404.314,-93.7509 413.728,-88.8905 403.338,-86.8193 404.314,-93.7509"/>
</g>
<!-- Node10&#45;&gt;Node4 -->
<g id="edge53" class="edge"><title>Node10&#45;&gt;Node4</title>
<path fill="none" stroke="midnightblue" d="M465.171,-396.967C454.623,-386.864 440.217,-372.812 428,-360 408.651,-339.709 387.439,-315.727 372.706,-298.773"/>
<polygon fill="midnightblue" stroke="midnightblue" points="375.221,-296.331 366.03,-291.061 369.929,-300.913 375.221,-296.331"/>
</g>
<!-- Node10&#45;&gt;Node5 -->
<g id="edge56" class="edge"><title>Node10&#45;&gt;Node5</title>
<path fill="none" stroke="midnightblue" d="M473.206,-396.899C462.276,-372.876 442,-322.219 442,-277 442,-277 442,-277 442,-213 442,-174.248 442,-128.897 442,-103.919"/>
<polygon fill="midnightblue" stroke="midnightblue" points="445.5,-103.691 442,-93.6913 438.5,-103.691 445.5,-103.691"/>
</g>
<!-- Node11 -->
<g id="node11" class="node"><title>Node11</title>
<g id="a_node11"><a xlink:href="../../dc/de1/ITSMFT_2common_2reconstruction_2include_2ITSMFTReconstruction_2Cluster_8h.html" target="_top" xlink:title="ITSMFTReconstruction\l/Cluster.h">
<polygon fill="none" stroke="black" points="843.5,-329 843.5,-359 962.5,-359 962.5,-329 843.5,-329"/>
<text text-anchor="start" x="851.5" y="-347" font-family="Helvetica,sans-Serif" font-size="10.00">ITSMFTReconstruction</text>
<text text-anchor="middle" x="903" y="-336" font-family="Helvetica,sans-Serif" font-size="10.00">/Cluster.h</text>
</a>
</g>
</g>
<!-- Node10&#45;&gt;Node11 -->
<g id="edge13" class="edge"><title>Node10&#45;&gt;Node11</title>
<path fill="none" stroke="midnightblue" d="M539.708,-401.684C616.989,-389.626 751.417,-368.651 833.292,-355.876"/>
<polygon fill="midnightblue" stroke="midnightblue" points="833.913,-359.322 843.254,-354.322 832.834,-352.406 833.913,-359.322"/>
</g>
<!-- Node29 -->
<g id="node29" class="node"><title>Node29</title>
<polygon fill="none" stroke="#bfbfbf" points="470,-142.5 470,-161.5 514,-161.5 514,-142.5 470,-142.5"/>
<text text-anchor="middle" x="492" y="-149.5" font-family="Helvetica,sans-Serif" font-size="10.00">vector</text>
</g>
<!-- Node10&#45;&gt;Node29 -->
<g id="edge55" class="edge"><title>Node10&#45;&gt;Node29</title>
<path fill="none" stroke="midnightblue" d="M480.662,-396.761C482.696,-353.046 488.849,-220.755 491.134,-171.629"/>
<polygon fill="midnightblue" stroke="midnightblue" points="494.636,-171.657 491.604,-161.505 487.643,-171.332 494.636,-171.657"/>
</g>
<!-- Node39 -->
<g id="node39" class="node"><title>Node39</title>
<g id="a_node39"><a xlink:href="../../d0/d2d/common_2base_2include_2ITSMFTBase_2GeometryTGeo_8h.html" target="_top" xlink:title="ITSMFTBase/GeometryTGeo.h">
<polygon fill="none" stroke="black" points="566.5,-334.5 566.5,-353.5 719.5,-353.5 719.5,-334.5 566.5,-334.5"/>
<text text-anchor="middle" x="643" y="-341.5" font-family="Helvetica,sans-Serif" font-size="10.00">ITSMFTBase/GeometryTGeo.h</text>
</a>
</g>
</g>
<!-- Node10&#45;&gt;Node39 -->
<g id="edge49" class="edge"><title>Node10&#45;&gt;Node39</title>
<path fill="none" stroke="midnightblue" d="M514.968,-396.841C543.794,-385.169 584.3,-368.768 611.984,-357.558"/>
<polygon fill="midnightblue" stroke="midnightblue" points="613.603,-360.679 621.558,-353.682 610.976,-354.191 613.603,-360.679"/>
</g>
<!-- Node42 -->
<g id="node42" class="node"><title>Node42</title>
<polygon fill="none" stroke="#bfbfbf" points="508,-334.5 508,-353.5 548,-353.5 548,-334.5 508,-334.5"/>
<text text-anchor="middle" x="528" y="-341.5" font-family="Helvetica,sans-Serif" font-size="10.00">utility</text>
</g>
<!-- Node10&#45;&gt;Node42 -->
<g id="edge54" class="edge"><title>Node10&#45;&gt;Node42</title>
<path fill="none" stroke="midnightblue" d="M490.415,-396.679C497.825,-386.49 507.812,-372.759 515.628,-362.011"/>
<polygon fill="midnightblue" stroke="midnightblue" points="518.528,-363.974 521.579,-353.828 512.867,-359.857 518.528,-363.974"/>
</g>
<!-- Node12 -->
<g id="node12" class="node"><title>Node12</title>
<g id="a_node12"><a xlink:href="../../d4/de2/BaseCluster_8h.html" target="_top" xlink:title="DetectorsBase/BaseCluster.h">
<polygon fill="none" stroke="black" points="935.5,-266.5 935.5,-285.5 1082.5,-285.5 1082.5,-266.5 935.5,-266.5"/>
<text text-anchor="middle" x="1009" y="-273.5" font-family="Helvetica,sans-Serif" font-size="10.00">DetectorsBase/BaseCluster.h</text>
</a>
</g>
</g>
<!-- Node11&#45;&gt;Node12 -->
<g id="edge14" class="edge"><title>Node11&#45;&gt;Node12</title>
<path fill="none" stroke="midnightblue" d="M925.74,-328.841C943.663,-317.681 968.531,-302.198 986.415,-291.063"/>
<polygon fill="midnightblue" stroke="midnightblue" points="988.417,-293.939 995.056,-285.682 984.717,-287.996 988.417,-293.939"/>
</g>
<!-- Node13 -->
<g id="node13" class="node"><title>Node13</title>
<polygon fill="none" stroke="#bfbfbf" points="1059.5,-204.5 1059.5,-223.5 1118.5,-223.5 1118.5,-204.5 1059.5,-204.5"/>
<text text-anchor="middle" x="1089" y="-211.5" font-family="Helvetica,sans-Serif" font-size="10.00">TObject.h</text>
</g>
<!-- Node12&#45;&gt;Node13 -->
<g id="edge15" class="edge"><title>Node12&#45;&gt;Node13</title>
<path fill="none" stroke="midnightblue" d="M1020.46,-266.403C1033.17,-256.869 1053.91,-241.315 1069.25,-229.811"/>
<polygon fill="midnightblue" stroke="midnightblue" points="1071.66,-232.381 1077.56,-223.581 1067.46,-226.781 1071.66,-232.381"/>
</g>
<!-- Node14 -->
<g id="node14" class="node"><title>Node14</title>
<polygon fill="none" stroke="#bfbfbf" points="944.5,-74.5 944.5,-93.5 985.5,-93.5 985.5,-74.5 944.5,-74.5"/>
<text text-anchor="middle" x="965" y="-81.5" font-family="Helvetica,sans-Serif" font-size="10.00">bitset</text>
</g>
<!-- Node12&#45;&gt;Node14 -->
<g id="edge16" class="edge"><title>Node12&#45;&gt;Node14</title>
<path fill="none" stroke="midnightblue" d="M997.829,-266.262C987.077,-257.075 971.52,-241.538 965,-224 949.843,-183.228 956.03,-130.961 961.019,-103.599"/>
<polygon fill="midnightblue" stroke="midnightblue" points="964.509,-103.993 963.018,-93.5035 957.642,-102.633 964.509,-103.993"/>
</g>
<!-- Node15 -->
<g id="node15" class="node"><title>Node15</title>
<polygon fill="none" stroke="#bfbfbf" points="1137,-204.5 1137,-223.5 1187,-223.5 1187,-204.5 1137,-204.5"/>
<text text-anchor="middle" x="1162" y="-211.5" font-family="Helvetica,sans-Serif" font-size="10.00">iomanip</text>
</g>
<!-- Node12&#45;&gt;Node15 -->
<g id="edge17" class="edge"><title>Node12&#45;&gt;Node15</title>
<path fill="none" stroke="midnightblue" d="M1030.92,-266.403C1057.05,-256.156 1100.91,-238.956 1130.63,-227.302"/>
<polygon fill="midnightblue" stroke="midnightblue" points="1132.09,-230.49 1140.12,-223.581 1129.53,-223.973 1132.09,-230.49"/>
</g>
<!-- Node16 -->
<g id="node16" class="node"><title>Node16</title>
<polygon fill="none" stroke="#bfbfbf" points="973.5,-204.5 973.5,-223.5 1002.5,-223.5 1002.5,-204.5 973.5,-204.5"/>
<text text-anchor="middle" x="988" y="-211.5" font-family="Helvetica,sans-Serif" font-size="10.00">ios</text>
</g>
<!-- Node12&#45;&gt;Node16 -->
<g id="edge18" class="edge"><title>Node12&#45;&gt;Node16</title>
<path fill="none" stroke="midnightblue" d="M1005.99,-266.403C1002.97,-257.76 998.21,-244.17 994.347,-233.134"/>
<polygon fill="midnightblue" stroke="midnightblue" points="997.61,-231.863 991.003,-223.581 991.003,-234.175 997.61,-231.863"/>
</g>
<!-- Node17 -->
<g id="node17" class="node"><title>Node17</title>
<polygon fill="none" stroke="#bfbfbf" points="1004,-74.5 1004,-93.5 1058,-93.5 1058,-74.5 1004,-74.5"/>
<text text-anchor="middle" x="1031" y="-81.5" font-family="Helvetica,sans-Serif" font-size="10.00">iostream</text>
</g>
<!-- Node12&#45;&gt;Node17 -->
<g id="edge19" class="edge"><title>Node12&#45;&gt;Node17</title>
<path fill="none" stroke="midnightblue" d="M1010,-266.342C1013.35,-237.472 1024.16,-144.048 1028.83,-103.767"/>
<polygon fill="midnightblue" stroke="midnightblue" points="1032.32,-104.045 1029.99,-93.7085 1025.36,-103.24 1032.32,-104.045"/>
</g>
<!-- Node18 -->
<g id="node18" class="node"><title>Node18</title>
<g id="a_node18"><a xlink:href="../../dd/d76/Cartesian3D_8h.html" target="_top" xlink:title="MathUtils/Cartesian3D.h">
<polygon fill="none" stroke="black" points="1229.5,-142.5 1229.5,-161.5 1354.5,-161.5 1354.5,-142.5 1229.5,-142.5"/>
<text text-anchor="middle" x="1292" y="-149.5" font-family="Helvetica,sans-Serif" font-size="10.00">MathUtils/Cartesian3D.h</text>
</a>
</g>
</g>
<!-- Node12&#45;&gt;Node18 -->
<g id="edge20" class="edge"><title>Node12&#45;&gt;Node18</title>
<path fill="none" stroke="midnightblue" d="M1059.62,-266.478C1098.31,-258.731 1152.25,-245.217 1196,-224 1226.3,-209.309 1256.79,-184.679 1275.04,-168.636"/>
<polygon fill="midnightblue" stroke="midnightblue" points="1277.85,-170.814 1282.96,-161.531 1273.18,-165.604 1277.85,-170.814"/>
</g>
<!-- Node28 -->
<g id="node28" class="node"><title>Node28</title>
<g id="a_node28"><a xlink:href="../../d4/d20/DetMatrixCache_8h.html" target="_top" xlink:title="DetectorsBase/DetMatrixCache.h">
<polygon fill="none" stroke="black" points="580,-204.5 580,-223.5 744,-223.5 744,-204.5 580,-204.5"/>
<text text-anchor="middle" x="662" y="-211.5" font-family="Helvetica,sans-Serif" font-size="10.00">DetectorsBase/DetMatrixCache.h</text>
</a>
</g>
</g>
<!-- Node12&#45;&gt;Node28 -->
<g id="edge32" class="edge"><title>Node12&#45;&gt;Node28</title>
<path fill="none" stroke="midnightblue" d="M959.652,-266.467C896.827,-255.604 788.394,-236.855 721.19,-225.235"/>
<polygon fill="midnightblue" stroke="midnightblue" points="721.628,-221.758 711.178,-223.503 720.435,-228.656 721.628,-221.758"/>
</g>
<!-- Node18&#45;&gt;Node5 -->
<g id="edge24" class="edge"><title>Node18&#45;&gt;Node5</title>
<path fill="none" stroke="midnightblue" d="M1229.28,-147.993C1101.97,-141.595 804.158,-125.133 555,-100 530.126,-97.4909 502.284,-93.8055 480.461,-90.7156"/>
<polygon fill="midnightblue" stroke="midnightblue" points="480.666,-87.2093 470.27,-89.2544 479.672,-94.1385 480.666,-87.2093"/>
</g>
<!-- Node18&#45;&gt;Node17 -->
<g id="edge31" class="edge"><title>Node18&#45;&gt;Node17</title>
<path fill="none" stroke="midnightblue" d="M1243.07,-142.428C1197.06,-133.776 1126.53,-118.992 1067,-100 1064.43,-99.1793 1061.78,-98.2504 1059.15,-97.2669"/>
<polygon fill="midnightblue" stroke="midnightblue" points="1060.41,-94.0024 1049.83,-93.5613 1057.83,-100.507 1060.41,-94.0024"/>
</g>
<!-- Node19 -->
<g id="node19" class="node"><title>Node19</title>
<polygon fill="none" stroke="#bfbfbf" points="1854.5,-74.5 1854.5,-93.5 2003.5,-93.5 2003.5,-74.5 1854.5,-74.5"/>
<text text-anchor="middle" x="1929" y="-81.5" font-family="Helvetica,sans-Serif" font-size="10.00">Math/GenVector/Rotation3D.h</text>
</g>
<!-- Node18&#45;&gt;Node19 -->
<g id="edge21" class="edge"><title>Node18&#45;&gt;Node19</title>
<path fill="none" stroke="midnightblue" d="M1354.81,-146.948C1457.59,-139.928 1668,-123.921 1845,-100 1854.8,-98.6756 1865.2,-97.0221 1875.22,-95.3011"/>
<polygon fill="midnightblue" stroke="midnightblue" points="1875.84,-98.7466 1885.08,-93.5673 1874.62,-91.8524 1875.84,-98.7466"/>
</g>
<!-- Node20 -->
<g id="node20" class="node"><title>Node20</title>
<polygon fill="none" stroke="#bfbfbf" points="2022,-74.5 2022,-93.5 2178,-93.5 2178,-74.5 2022,-74.5"/>
<text text-anchor="middle" x="2100" y="-81.5" font-family="Helvetica,sans-Serif" font-size="10.00">Math/GenVector/Transform3D.h</text>
</g>
<!-- Node18&#45;&gt;Node20 -->
<g id="edge22" class="edge"><title>Node18&#45;&gt;Node20</title>
<path fill="none" stroke="midnightblue" d="M1354.8,-148.626C1480.12,-143.432 1770.01,-129.123 2012,-100 2022.61,-98.723 2033.89,-97.0455 2044.71,-95.2759"/>
<polygon fill="midnightblue" stroke="midnightblue" points="2045.62,-98.6716 2054.9,-93.5612 2044.46,-91.7685 2045.62,-98.6716"/>
</g>
<!-- Node21 -->
<g id="node21" class="node"><title>Node21</title>
<polygon fill="none" stroke="#bfbfbf" points="1076,-74.5 1076,-93.5 1236,-93.5 1236,-74.5 1076,-74.5"/>
<text text-anchor="middle" x="1156" y="-81.5" font-family="Helvetica,sans-Serif" font-size="10.00">Math/GenVector/Translation3D.h</text>
</g>
<!-- Node18&#45;&gt;Node21 -->
<g id="edge23" class="edge"><title>Node18&#45;&gt;Node21</title>
<path fill="none" stroke="midnightblue" d="M1274.22,-142.372C1251.01,-131.106 1210.15,-111.279 1183.08,-98.1403"/>
<polygon fill="midnightblue" stroke="midnightblue" points="1184.31,-94.8477 1173.78,-93.6305 1181.25,-101.145 1184.31,-94.8477"/>
</g>
<!-- Node22 -->
<g id="node22" class="node"><title>Node22</title>
<polygon fill="none" stroke="#bfbfbf" points="1254,-74.5 1254,-93.5 1330,-93.5 1330,-74.5 1254,-74.5"/>
<text text-anchor="middle" x="1292" y="-81.5" font-family="Helvetica,sans-Serif" font-size="10.00">TGeoMatrix.h</text>
</g>
<!-- Node18&#45;&gt;Node22 -->
<g id="edge25" class="edge"><title>Node18&#45;&gt;Node22</title>
<path fill="none" stroke="midnightblue" d="M1292,-142.372C1292,-132.643 1292,-116.528 1292,-103.85"/>
<polygon fill="midnightblue" stroke="midnightblue" points="1295.5,-103.841 1292,-93.8411 1288.5,-103.841 1295.5,-103.841"/>
</g>
<!-- Node23 -->
<g id="node23" class="node"><title>Node23</title>
<polygon fill="none" stroke="#bfbfbf" points="1348.5,-69 1348.5,-99 1499.5,-99 1499.5,-69 1348.5,-69"/>
<text text-anchor="start" x="1356.5" y="-87" font-family="Helvetica,sans-Serif" font-size="10.00">Math/GenVector/Displacement</text>
<text text-anchor="middle" x="1424" y="-76" font-family="Helvetica,sans-Serif" font-size="10.00">Vector3D.h</text>
</g>
<!-- Node18&#45;&gt;Node23 -->
<g id="edge26" class="edge"><title>Node18&#45;&gt;Node23</title>
<path fill="none" stroke="midnightblue" d="M1309.26,-142.372C1328.86,-132.569 1361.43,-116.283 1386.87,-103.563"/>
<polygon fill="midnightblue" stroke="midnightblue" points="1388.51,-106.659 1395.89,-99.0562 1385.38,-100.398 1388.51,-106.659"/>
</g>
<!-- Node24 -->
<g id="node24" class="node"><title>Node24</title>
<polygon fill="none" stroke="#bfbfbf" points="1518,-74.5 1518,-93.5 1694,-93.5 1694,-74.5 1518,-74.5"/>
<text text-anchor="middle" x="1606" y="-81.5" font-family="Helvetica,sans-Serif" font-size="10.00">Math/GenVector/PositionVector3D.h</text>
</g>
<!-- Node18&#45;&gt;Node24 -->
<g id="edge27" class="edge"><title>Node18&#45;&gt;Node24</title>
<path fill="none" stroke="midnightblue" d="M1332.73,-142.439C1389.79,-130.446 1493.46,-108.654 1555.4,-95.6351"/>
<polygon fill="midnightblue" stroke="midnightblue" points="1556.28,-99.0277 1565.34,-93.5455 1554.84,-92.1774 1556.28,-99.0277"/>
</g>
<!-- Node25 -->
<g id="node25" class="node"><title>Node25</title>
<g id="a_node25"><a xlink:href="../../d2/dd0/Cartesian2D_8h.html" target="_top" xlink:title="MathUtils/Cartesian2D.h">
<polygon fill="none" stroke="black" points="1711.5,-74.5 1711.5,-93.5 1836.5,-93.5 1836.5,-74.5 1711.5,-74.5"/>
<text text-anchor="middle" x="1774" y="-81.5" font-family="Helvetica,sans-Serif" font-size="10.00">MathUtils/Cartesian2D.h</text>
</a>
</g>
</g>
<!-- Node18&#45;&gt;Node25 -->
<g id="edge28" class="edge"><title>Node18&#45;&gt;Node25</title>
<path fill="none" stroke="midnightblue" d="M1354.74,-144.804C1435.38,-136.474 1579.59,-120.33 1702,-100 1709.79,-98.7056 1718.03,-97.1607 1726.03,-95.5619"/>
<polygon fill="midnightblue" stroke="midnightblue" points="1726.9,-98.9565 1736,-93.5228 1725.5,-92.0986 1726.9,-98.9565"/>
</g>
<!-- Node26 -->
<g id="node26" class="node"><title>Node26</title>
<polygon fill="none" stroke="#bfbfbf" points="1607.5,-1 1607.5,-31 1758.5,-31 1758.5,-1 1607.5,-1"/>
<text text-anchor="start" x="1615.5" y="-19" font-family="Helvetica,sans-Serif" font-size="10.00">Math/GenVector/Displacement</text>
<text text-anchor="middle" x="1683" y="-8" font-family="Helvetica,sans-Serif" font-size="10.00">Vector2D.h</text>
</g>
<!-- Node25&#45;&gt;Node26 -->
<g id="edge29" class="edge"><title>Node25&#45;&gt;Node26</title>
<path fill="none" stroke="midnightblue" d="M1762.1,-74.3717C1749.22,-65.0286 1728.22,-49.7966 1711.09,-37.375"/>
<polygon fill="midnightblue" stroke="midnightblue" points="1712.7,-34.2194 1702.55,-31.1815 1708.59,-39.8859 1712.7,-34.2194"/>
</g>
<!-- Node27 -->
<g id="node27" class="node"><title>Node27</title>
<polygon fill="none" stroke="#bfbfbf" points="1777,-6.5 1777,-25.5 1953,-25.5 1953,-6.5 1777,-6.5"/>
<text text-anchor="middle" x="1865" y="-13.5" font-family="Helvetica,sans-Serif" font-size="10.00">Math/GenVector/PositionVector2D.h</text>
</g>
<!-- Node25&#45;&gt;Node27 -->
<g id="edge30" class="edge"><title>Node25&#45;&gt;Node27</title>
<path fill="none" stroke="midnightblue" d="M1785.9,-74.3717C1800.88,-63.5015 1826.86,-44.6602 1844.94,-31.5474"/>
<polygon fill="midnightblue" stroke="midnightblue" points="1847.06,-34.3349 1853.1,-25.6305 1842.95,-28.6684 1847.06,-34.3349"/>
</g>
<!-- Node28&#45;&gt;Node5 -->
<g id="edge47" class="edge"><title>Node28&#45;&gt;Node5</title>
<path fill="none" stroke="midnightblue" d="M640.816,-204.45C620.964,-196.12 590.723,-182.605 566,-168 545.181,-155.702 541.982,-149.617 522,-136 502.999,-123.051 480.931,-109.059 464.792,-99.0119"/>
<polygon fill="midnightblue" stroke="midnightblue" points="466.386,-95.8824 456.042,-93.5898 462.699,-101.832 466.386,-95.8824"/>
</g>
<!-- Node28&#45;&gt;Node18 -->
<g id="edge35" class="edge"><title>Node28&#45;&gt;Node18</title>
<path fill="none" stroke="midnightblue" d="M744.038,-205.187C868.053,-193.376 1101.29,-171.163 1219.45,-159.91"/>
<polygon fill="midnightblue" stroke="midnightblue" points="1219.86,-163.387 1229.48,-158.954 1219.19,-156.418 1219.86,-163.387"/>
</g>
<!-- Node28&#45;&gt;Node29 -->
<g id="edge33" class="edge"><title>Node28&#45;&gt;Node29</title>
<path fill="none" stroke="midnightblue" d="M634.596,-204.425C607.372,-195.759 564.527,-181.723 528,-168 525.754,-167.156 523.44,-166.258 521.12,-165.338"/>
<polygon fill="midnightblue" stroke="midnightblue" points="522.287,-162.034 511.705,-161.506 519.648,-168.518 522.287,-162.034"/>
</g>
<!-- Node30 -->
<g id="node30" class="node"><title>Node30</title>
<polygon fill="none" stroke="#bfbfbf" points="678,-6.5 678,-25.5 716,-25.5 716,-6.5 678,-6.5"/>
<text text-anchor="middle" x="697" y="-13.5" font-family="Helvetica,sans-Serif" font-size="10.00">array</text>
</g>
<!-- Node28&#45;&gt;Node30 -->
<g id="edge34" class="edge"><title>Node28&#45;&gt;Node30</title>
<path fill="none" stroke="midnightblue" d="M646.833,-204.438C609.356,-182.182 518.012,-120.586 555,-68 580.429,-31.8473 634.029,-21.1962 667.615,-18.1356"/>
<polygon fill="midnightblue" stroke="midnightblue" points="668.04,-21.6138 677.755,-17.3859 667.524,-14.6328 668.04,-21.6138"/>
</g>
<!-- Node31 -->
<g id="node31" class="node"><title>Node31</title>
<g id="a_node31"><a xlink:href="../../d6/d31/DetID_8h.html" target="_top" xlink:title="DetectorsBase/DetID.h">
<polygon fill="none" stroke="black" points="697.5,-142.5 697.5,-161.5 816.5,-161.5 816.5,-142.5 697.5,-142.5"/>
<text text-anchor="middle" x="757" y="-149.5" font-family="Helvetica,sans-Serif" font-size="10.00">DetectorsBase/DetID.h</text>
</a>
</g>
</g>
<!-- Node28&#45;&gt;Node31 -->
<g id="edge36" class="edge"><title>Node28&#45;&gt;Node31</title>
<path fill="none" stroke="midnightblue" d="M675.611,-204.403C691.061,-194.646 716.49,-178.585 734.816,-167.011"/>
<polygon fill="midnightblue" stroke="midnightblue" points="736.828,-169.88 743.414,-161.581 733.09,-163.961 736.828,-169.88"/>
</g>
<!-- Node38 -->
<g id="node38" class="node"><title>Node38</title>
<polygon fill="none" stroke="#bfbfbf" points="608.5,-142.5 608.5,-161.5 679.5,-161.5 679.5,-142.5 608.5,-142.5"/>
<text text-anchor="middle" x="644" y="-149.5" font-family="Helvetica,sans-Serif" font-size="10.00">FairLogger.h</text>
</g>
<!-- Node28&#45;&gt;Node38 -->
<g id="edge48" class="edge"><title>Node28&#45;&gt;Node38</title>
<path fill="none" stroke="midnightblue" d="M659.421,-204.403C656.855,-195.849 652.835,-182.45 649.543,-171.476"/>
<polygon fill="midnightblue" stroke="midnightblue" points="652.8,-170.153 646.574,-161.581 646.095,-172.165 652.8,-170.153"/>
</g>
<!-- Node31&#45;&gt;Node5 -->
<g id="edge37" class="edge"><title>Node31&#45;&gt;Node5</title>
<path fill="none" stroke="midnightblue" d="M717.969,-142.446C708.188,-140.322 697.713,-138.063 688,-136 614.465,-120.385 528.441,-102.679 480.075,-92.7751"/>
<polygon fill="midnightblue" stroke="midnightblue" points="480.555,-89.301 470.057,-90.725 479.152,-96.1588 480.555,-89.301"/>
</g>
<!-- Node31&#45;&gt;Node14 -->
<g id="edge39" class="edge"><title>Node31&#45;&gt;Node14</title>
<path fill="none" stroke="midnightblue" d="M794.131,-142.487C830.601,-133.633 887.521,-118.489 935,-100 936.604,-99.3753 938.238,-98.6949 939.873,-97.9799"/>
<polygon fill="midnightblue" stroke="midnightblue" points="941.5,-101.082 949.056,-93.6549 938.518,-94.7496 941.5,-101.082"/>
</g>
<!-- Node31&#45;&gt;Node30 -->
<g id="edge38" class="edge"><title>Node31&#45;&gt;Node30</title>
<path fill="none" stroke="midnightblue" d="M753.063,-142.208C743.357,-120.532 718.126,-64.1812 705.078,-35.0406"/>
<polygon fill="midnightblue" stroke="midnightblue" points="708.154,-33.3468 700.873,-25.6503 701.766,-36.2075 708.154,-33.3468"/>
</g>
<!-- Node32 -->
<g id="node32" class="node"><title>Node32</title>
<polygon fill="none" stroke="#bfbfbf" points="877.5,-74.5 877.5,-93.5 926.5,-93.5 926.5,-74.5 877.5,-74.5"/>
<text text-anchor="middle" x="902" y="-81.5" font-family="Helvetica,sans-Serif" font-size="10.00">cassert</text>
</g>
<!-- Node31&#45;&gt;Node32 -->
<g id="edge40" class="edge"><title>Node31&#45;&gt;Node32</title>
<path fill="none" stroke="midnightblue" d="M775.956,-142.372C800.923,-131.007 845.031,-110.931 873.887,-97.7961"/>
<polygon fill="midnightblue" stroke="midnightblue" points="875.388,-100.959 883.039,-93.6305 872.488,-94.5877 875.388,-100.959"/>
</g>
<!-- Node33 -->
<g id="node33" class="node"><title>Node33</title>
<polygon fill="none" stroke="#bfbfbf" points="564,-74.5 564,-93.5 610,-93.5 610,-74.5 564,-74.5"/>
<text text-anchor="middle" x="587" y="-81.5" font-family="Helvetica,sans-Serif" font-size="10.00">cstdint</text>
</g>
<!-- Node31&#45;&gt;Node33 -->
<g id="edge41" class="edge"><title>Node31&#45;&gt;Node33</title>
<path fill="none" stroke="midnightblue" d="M731.823,-142.414C703.969,-132.748 657.88,-116.263 619,-100 617.366,-99.3163 615.693,-98.5961 614.011,-97.8562"/>
<polygon fill="midnightblue" stroke="midnightblue" points="615.038,-94.478 604.486,-93.5215 612.138,-100.849 615.038,-94.478"/>
</g>
<!-- Node34 -->
<g id="node34" class="node"><title>Node34</title>
<polygon fill="none" stroke="#bfbfbf" points="628,-74.5 628,-93.5 690,-93.5 690,-74.5 628,-74.5"/>
<text text-anchor="middle" x="659" y="-81.5" font-family="Helvetica,sans-Serif" font-size="10.00">type_traits</text>
</g>
<!-- Node31&#45;&gt;Node34 -->
<g id="edge42" class="edge"><title>Node31&#45;&gt;Node34</title>
<path fill="none" stroke="midnightblue" d="M744.188,-142.372C727.974,-131.452 699.817,-112.489 680.336,-99.369"/>
<polygon fill="midnightblue" stroke="midnightblue" points="682.064,-96.3135 671.815,-93.6305 678.154,-102.12 682.064,-96.3135"/>
</g>
<!-- Node35 -->
<g id="node35" class="node"><title>Node35</title>
<g id="a_node35"><a xlink:href="../../d9/ded/Utils_8h.html" target="_top" xlink:title="DetectorsBase/Utils.h">
<polygon fill="none" stroke="black" points="746.5,-74.5 746.5,-93.5 859.5,-93.5 859.5,-74.5 746.5,-74.5"/>
<text text-anchor="middle" x="803" y="-81.5" font-family="Helvetica,sans-Serif" font-size="10.00">DetectorsBase/Utils.h</text>
</a>
</g>
</g>
<!-- Node31&#45;&gt;Node35 -->
<g id="edge43" class="edge"><title>Node31&#45;&gt;Node35</title>
<path fill="none" stroke="midnightblue" d="M763.014,-142.372C770.069,-132.25 781.941,-115.215 790.921,-102.331"/>
<polygon fill="midnightblue" stroke="midnightblue" points="793.991,-104.046 796.838,-93.8411 788.249,-100.044 793.991,-104.046"/>
</g>
<!-- Node35&#45;&gt;Node30 -->
<g id="edge46" class="edge"><title>Node35&#45;&gt;Node30</title>
<path fill="none" stroke="midnightblue" d="M789.142,-74.3717C771.446,-63.3533 740.596,-44.1449 719.508,-31.0142"/>
<polygon fill="midnightblue" stroke="midnightblue" points="721.2,-27.945 710.861,-25.6305 717.5,-33.8872 721.2,-27.945"/>
</g>
<!-- Node36 -->
<g id="node36" class="node"><title>Node36</title>
<g id="a_node36"><a xlink:href="../../d1/daa/Base_2include_2DetectorsBase_2Constants_8h.html" target="_top" xlink:title="DetectorsBase/Constants.h">
<polygon fill="none" stroke="black" points="734,-6.5 734,-25.5 872,-25.5 872,-6.5 734,-6.5"/>
<text text-anchor="middle" x="803" y="-13.5" font-family="Helvetica,sans-Serif" font-size="10.00">DetectorsBase/Constants.h</text>
</a>
</g>
</g>
<!-- Node35&#45;&gt;Node36 -->
<g id="edge44" class="edge"><title>Node35&#45;&gt;Node36</title>
<path fill="none" stroke="midnightblue" d="M803,-74.3717C803,-64.6426 803,-48.528 803,-35.8504"/>
<polygon fill="midnightblue" stroke="midnightblue" points="806.5,-35.8411 803,-25.8411 799.5,-35.8412 806.5,-35.8411"/>
</g>
<!-- Node37 -->
<g id="node37" class="node"><title>Node37</title>
<polygon fill="none" stroke="#bfbfbf" points="890,-6.5 890,-25.5 934,-25.5 934,-6.5 890,-6.5"/>
<text text-anchor="middle" x="912" y="-13.5" font-family="Helvetica,sans-Serif" font-size="10.00">cmath</text>
</g>
<!-- Node35&#45;&gt;Node37 -->
<g id="edge45" class="edge"><title>Node35&#45;&gt;Node37</title>
<path fill="none" stroke="midnightblue" d="M817.25,-74.3717C835.528,-63.3039 867.455,-43.9724 889.146,-30.838"/>
<polygon fill="midnightblue" stroke="midnightblue" points="891.005,-33.804 897.747,-25.6305 887.38,-27.8161 891.005,-33.804"/>
</g>
<!-- Node39&#45;&gt;Node28 -->
<g id="edge50" class="edge"><title>Node39&#45;&gt;Node28</title>
<path fill="none" stroke="midnightblue" d="M646.568,-334.15C650.424,-324.116 656.372,-307.178 659,-292 662.383,-272.462 662.855,-249.736 662.652,-234.064"/>
<polygon fill="midnightblue" stroke="midnightblue" points="666.14,-233.537 662.402,-223.623 659.142,-233.704 666.14,-233.537"/>
</g>
<!-- Node40 -->
<g id="node40" class="node"><title>Node40</title>
<polygon fill="none" stroke="#bfbfbf" points="522.5,-266.5 522.5,-285.5 591.5,-285.5 591.5,-266.5 522.5,-266.5"/>
<text text-anchor="middle" x="557" y="-273.5" font-family="Helvetica,sans-Serif" font-size="10.00">TObjArray.h</text>
</g>
<!-- Node39&#45;&gt;Node40 -->
<g id="edge51" class="edge"><title>Node39&#45;&gt;Node40</title>
<path fill="none" stroke="midnightblue" d="M631.757,-334.372C617.722,-323.6 593.488,-305.002 576.424,-291.906"/>
<polygon fill="midnightblue" stroke="midnightblue" points="578.31,-288.942 568.246,-285.63 574.048,-294.495 578.31,-288.942"/>
</g>
<!-- Node41 -->
<g id="node41" class="node"><title>Node41</title>
<polygon fill="none" stroke="#bfbfbf" points="609.5,-266.5 609.5,-285.5 650.5,-285.5 650.5,-266.5 609.5,-266.5"/>
<text text-anchor="middle" x="630" y="-273.5" font-family="Helvetica,sans-Serif" font-size="10.00">string</text>
</g>
<!-- Node39&#45;&gt;Node41 -->
<g id="edge52" class="edge"><title>Node39&#45;&gt;Node41</title>
<path fill="none" stroke="midnightblue" d="M641.3,-334.372C639.384,-324.643 636.21,-308.528 633.713,-295.85"/>
<polygon fill="midnightblue" stroke="midnightblue" points="637.108,-294.976 631.741,-285.841 630.24,-296.329 637.108,-294.976"/>
</g>
</g>
</svg>
