<?xml version="1.0" encoding="UTF-8" standalone="no"?>
<!DOCTYPE svg PUBLIC "-//W3C//DTD SVG 1.1//EN"
 "http://www.w3.org/Graphics/SVG/1.1/DTD/svg11.dtd">
<!-- Generated by graphviz version 2.36.0 (20140111.2315)
 -->
<!-- Title: /home/travis/build/AliceO2Group/AliceO2/CCDB/src/GridStorage.cxx Pages: 1 -->
<svg width="1436pt" height="274pt"
 viewBox="0.00 0.00 1435.60 274.00" xmlns="http://www.w3.org/2000/svg" xmlns:xlink="http://www.w3.org/1999/xlink">
<g id="graph0" class="graph" transform="scale(1 1) rotate(0) translate(4 270)">
<title>/home/travis/build/AliceO2Group/AliceO2/CCDB/src/GridStorage.cxx</title>
<!-- Node1 -->
<g id="node1" class="node"><title>Node1</title>
<polygon fill="#bfbfbf" stroke="black" points="748.5,-224.5 748.5,-265.5 887.5,-265.5 887.5,-224.5 748.5,-224.5"/>
<text text-anchor="start" x="756.5" y="-253.5" font-family="Helvetica,sans-Serif" font-size="10.00">/home/travis/build</text>
<text text-anchor="start" x="756.5" y="-242.5" font-family="Helvetica,sans-Serif" font-size="10.00">/AliceO2Group/AliceO2</text>
<text text-anchor="middle" x="818" y="-231.5" font-family="Helvetica,sans-Serif" font-size="10.00">/CCDB/src/GridStorage.cxx</text>
</g>
<!-- Node2 -->
<g id="node2" class="node"><title>Node2</title>
<g id="a_node2"><a xlink:href="../../d6/d01/GridStorage_8h.html" target="_top" xlink:title="CCDB/GridStorage.h">
<polygon fill="none" stroke="black" points="385.5,-168.5 385.5,-187.5 494.5,-187.5 494.5,-168.5 385.5,-168.5"/>
<text text-anchor="middle" x="440" y="-175.5" font-family="Helvetica,sans-Serif" font-size="10.00">CCDB/GridStorage.h</text>
</a>
</g>
</g>
<!-- Node1&#45;&gt;Node2 -->
<g id="edge1" class="edge"><title>Node1&#45;&gt;Node2</title>
<path fill="none" stroke="midnightblue" d="M748.228,-232.002C676.806,-219.721 566.988,-200.836 499.532,-189.237"/>
<polygon fill="midnightblue" stroke="midnightblue" points="499.938,-185.756 489.49,-187.51 498.752,-192.654 499.938,-185.756"/>
</g>
<!-- Node20 -->
<g id="node20" class="node"><title>Node20</title>
<polygon fill="none" stroke="#bfbfbf" points="512.5,-168.5 512.5,-187.5 583.5,-187.5 583.5,-168.5 512.5,-168.5"/>
<text text-anchor="middle" x="548" y="-175.5" font-family="Helvetica,sans-Serif" font-size="10.00">FairLogger.h</text>
</g>
<!-- Node1&#45;&gt;Node20 -->
<g id="edge29" class="edge"><title>Node1&#45;&gt;Node20</title>
<path fill="none" stroke="midnightblue" d="M748.468,-227.261C699.576,-215.491 635.567,-200.081 593.182,-189.877"/>
<polygon fill="midnightblue" stroke="midnightblue" points="593.965,-186.466 583.423,-187.528 592.327,-193.271 593.965,-186.466"/>
</g>
<!-- Node21 -->
<g id="node21" class="node"><title>Node21</title>
<polygon fill="none" stroke="#bfbfbf" points="601.5,-168.5 601.5,-187.5 648.5,-187.5 648.5,-168.5 601.5,-168.5"/>
<text text-anchor="middle" x="625" y="-175.5" font-family="Helvetica,sans-Serif" font-size="10.00">TFile.h</text>
</g>
<!-- Node1&#45;&gt;Node21 -->
<g id="edge30" class="edge"><title>Node1&#45;&gt;Node21</title>
<path fill="none" stroke="midnightblue" d="M760.094,-224.498C726.867,-213.307 686.331,-199.656 658.381,-190.242"/>
<polygon fill="midnightblue" stroke="midnightblue" points="659.284,-186.853 648.69,-186.978 657.05,-193.487 659.284,-186.853"/>
</g>
<!-- Node22 -->
<g id="node22" class="node"><title>Node22</title>
<polygon fill="none" stroke="#bfbfbf" points="666.5,-168.5 666.5,-187.5 715.5,-187.5 715.5,-168.5 666.5,-168.5"/>
<text text-anchor="middle" x="691" y="-175.5" font-family="Helvetica,sans-Serif" font-size="10.00">TGrid.h</text>
</g>
<!-- Node1&#45;&gt;Node22 -->
<g id="edge31" class="edge"><title>Node1&#45;&gt;Node22</title>
<path fill="none" stroke="midnightblue" d="M779.896,-224.498C759.675,-214.149 735.342,-201.695 717.249,-192.435"/>
<polygon fill="midnightblue" stroke="midnightblue" points="718.402,-189.093 707.906,-187.652 715.213,-195.324 718.402,-189.093"/>
</g>
<!-- Node23 -->
<g id="node23" class="node"><title>Node23</title>
<polygon fill="none" stroke="#bfbfbf" points="733.5,-168.5 733.5,-187.5 810.5,-187.5 810.5,-168.5 733.5,-168.5"/>
<text text-anchor="middle" x="772" y="-175.5" font-family="Helvetica,sans-Serif" font-size="10.00">TGridResult.h</text>
</g>
<!-- Node1&#45;&gt;Node23 -->
<g id="edge32" class="edge"><title>Node1&#45;&gt;Node23</title>
<path fill="none" stroke="midnightblue" d="M804.198,-224.498C797.756,-215.395 790.161,-204.662 783.966,-195.908"/>
<polygon fill="midnightblue" stroke="midnightblue" points="786.757,-193.793 778.123,-187.652 781.043,-197.837 786.757,-193.793"/>
</g>
<!-- Node24 -->
<g id="node24" class="node"><title>Node24</title>
<polygon fill="none" stroke="#bfbfbf" points="828.5,-168.5 828.5,-187.5 899.5,-187.5 899.5,-168.5 828.5,-168.5"/>
<text text-anchor="middle" x="864" y="-175.5" font-family="Helvetica,sans-Serif" font-size="10.00">TObjString.h</text>
</g>
<!-- Node1&#45;&gt;Node24 -->
<g id="edge33" class="edge"><title>Node1&#45;&gt;Node24</title>
<path fill="none" stroke="midnightblue" d="M831.802,-224.498C838.244,-215.395 845.839,-204.662 852.034,-195.908"/>
<polygon fill="midnightblue" stroke="midnightblue" points="854.957,-197.837 857.877,-187.652 849.243,-193.793 854.957,-197.837"/>
</g>
<!-- Node25 -->
<g id="node25" class="node"><title>Node25</title>
<polygon fill="none" stroke="#bfbfbf" points="917.5,-168.5 917.5,-187.5 976.5,-187.5 976.5,-168.5 917.5,-168.5"/>
<text text-anchor="middle" x="947" y="-175.5" font-family="Helvetica,sans-Serif" font-size="10.00">TROOT.h</text>
</g>
<!-- Node1&#45;&gt;Node25 -->
<g id="edge34" class="edge"><title>Node1&#45;&gt;Node25</title>
<path fill="none" stroke="midnightblue" d="M856.704,-224.498C877.433,-214.053 902.418,-201.464 920.846,-192.178"/>
<polygon fill="midnightblue" stroke="midnightblue" points="922.473,-195.278 929.828,-187.652 919.323,-189.027 922.473,-195.278"/>
</g>
<!-- Node26 -->
<g id="node26" class="node"><title>Node26</title>
<polygon fill="none" stroke="#bfbfbf" points="994.5,-168.5 994.5,-187.5 1059.5,-187.5 1059.5,-168.5 994.5,-168.5"/>
<text text-anchor="middle" x="1027" y="-175.5" font-family="Helvetica,sans-Serif" font-size="10.00">TRegexp.h</text>
</g>
<!-- Node1&#45;&gt;Node26 -->
<g id="edge35" class="edge"><title>Node1&#45;&gt;Node26</title>
<path fill="none" stroke="midnightblue" d="M880.707,-224.498C916.248,-213.444 959.511,-199.99 989.734,-190.59"/>
<polygon fill="midnightblue" stroke="midnightblue" points="990.944,-193.879 999.454,-187.567 988.865,-187.195 990.944,-193.879"/>
</g>
<!-- Node27 -->
<g id="node27" class="node"><title>Node27</title>
<g id="a_node27"><a xlink:href="../../da/d6a/Condition_8h.html" target="_top" xlink:title="Definition of the Condition class (CDB object) containing the condition and its metadata. ">
<polygon fill="none" stroke="black" points="1078,-168.5 1078,-187.5 1176,-187.5 1176,-168.5 1078,-168.5"/>
<text text-anchor="middle" x="1127" y="-175.5" font-family="Helvetica,sans-Serif" font-size="10.00">CCDB/Condition.h</text>
</a>
</g>
</g>
<!-- Node1&#45;&gt;Node27 -->
<g id="edge36" class="edge"><title>Node1&#45;&gt;Node27</title>
<path fill="none" stroke="midnightblue" d="M887.731,-229.332C945.136,-217.256 1025.15,-200.424 1076.52,-189.618"/>
<polygon fill="midnightblue" stroke="midnightblue" points="1077.33,-193.024 1086.4,-187.54 1075.89,-186.174 1077.33,-193.024"/>
</g>
<!-- Node31 -->
<g id="node31" class="node"><title>Node31</title>
<polygon fill="none" stroke="#bfbfbf" points="1194.5,-168.5 1194.5,-187.5 1259.5,-187.5 1259.5,-168.5 1194.5,-168.5"/>
<text text-anchor="middle" x="1227" y="-175.5" font-family="Helvetica,sans-Serif" font-size="10.00">TSystem.h</text>
</g>
<!-- Node1&#45;&gt;Node31 -->
<g id="edge55" class="edge"><title>Node1&#45;&gt;Node31</title>
<path fill="none" stroke="midnightblue" d="M887.671,-234.492C961.446,-224.155 1081.21,-206.606 1184,-188 1184.1,-187.981 1184.21,-187.963 1184.31,-187.944"/>
<polygon fill="midnightblue" stroke="midnightblue" points="1185,-191.375 1194.17,-186.064 1183.69,-184.499 1185,-191.375"/>
</g>
<!-- Node3 -->
<g id="node3" class="node"><title>Node3</title>
<g id="a_node3"><a xlink:href="../../d1/da0/Manager_8h.html" target="_top" xlink:title="CCDB/Manager.h">
<polygon fill="none" stroke="black" points="394.5,-112.5 394.5,-131.5 489.5,-131.5 489.5,-112.5 394.5,-112.5"/>
<text text-anchor="middle" x="442" y="-119.5" font-family="Helvetica,sans-Serif" font-size="10.00">CCDB/Manager.h</text>
</a>
</g>
</g>
<!-- Node2&#45;&gt;Node3 -->
<g id="edge2" class="edge"><title>Node2&#45;&gt;Node3</title>
<path fill="none" stroke="midnightblue" d="M440.33,-168.083C440.592,-161.006 440.968,-150.861 441.297,-141.986"/>
<polygon fill="midnightblue" stroke="midnightblue" points="444.803,-141.874 441.676,-131.751 437.808,-141.615 444.803,-141.874"/>
</g>
<!-- Node8 -->
<g id="node8" class="node"><title>Node8</title>
<polygon fill="none" stroke="#bfbfbf" points="1225,-0.5 1225,-19.5 1281,-19.5 1281,-0.5 1225,-0.5"/>
<text text-anchor="middle" x="1253" y="-7.5" font-family="Helvetica,sans-Serif" font-size="10.00">Rtypes.h</text>
</g>
<!-- Node2&#45;&gt;Node8 -->
<g id="edge17" class="edge"><title>Node2&#45;&gt;Node8</title>
<path fill="none" stroke="midnightblue" d="M494.6,-168.895C497.438,-168.569 500.251,-168.268 503,-168 806.868,-138.382 891.152,-199.08 1189,-132 1252.77,-117.638 1288.63,-130.314 1325,-76 1339.29,-54.6594 1311,-35.676 1285.79,-23.8156"/>
<polygon fill="midnightblue" stroke="midnightblue" points="1286.93,-20.4939 1276.37,-19.6287 1284.09,-26.89 1286.93,-20.4939"/>
</g>
<!-- Node9 -->
<g id="node9" class="node"><title>Node9</title>
<polygon fill="none" stroke="#bfbfbf" points="596,-0.5 596,-19.5 652,-19.5 652,-0.5 596,-0.5"/>
<text text-anchor="middle" x="624" y="-7.5" font-family="Helvetica,sans-Serif" font-size="10.00">TString.h</text>
</g>
<!-- Node2&#45;&gt;Node9 -->
<g id="edge28" class="edge"><title>Node2&#45;&gt;Node9</title>
<path fill="none" stroke="midnightblue" d="M426.044,-168.365C394.661,-147.914 323.775,-95.2936 357,-56 360.688,-51.6378 512.799,-27.9427 585.744,-16.7986"/>
<polygon fill="midnightblue" stroke="midnightblue" points="586.547,-20.2168 595.905,-15.2493 585.492,-13.2967 586.547,-20.2168"/>
</g>
<!-- Node17 -->
<g id="node17" class="node"><title>Node17</title>
<g id="a_node17"><a xlink:href="../../db/d6f/Storage_8h.html" target="_top" xlink:title="CCDB/Storage.h">
<polygon fill="none" stroke="black" points="641.5,-112.5 641.5,-131.5 732.5,-131.5 732.5,-112.5 641.5,-112.5"/>
<text text-anchor="middle" x="687" y="-119.5" font-family="Helvetica,sans-Serif" font-size="10.00">CCDB/Storage.h</text>
</a>
</g>
</g>
<!-- Node2&#45;&gt;Node17 -->
<g id="edge18" class="edge"><title>Node2&#45;&gt;Node17</title>
<path fill="none" stroke="midnightblue" d="M479.138,-168.444C522.226,-159.023 591.559,-143.866 638.171,-133.675"/>
<polygon fill="midnightblue" stroke="midnightblue" points="639.024,-137.072 648.045,-131.516 637.528,-130.233 639.024,-137.072"/>
</g>
<!-- Node4 -->
<g id="node4" class="node"><title>Node4</title>
<polygon fill="none" stroke="#bfbfbf" points="510.5,-56.5 510.5,-75.5 557.5,-75.5 557.5,-56.5 510.5,-56.5"/>
<text text-anchor="middle" x="534" y="-63.5" font-family="Helvetica,sans-Serif" font-size="10.00">TList.h</text>
</g>
<!-- Node3&#45;&gt;Node4 -->
<g id="edge3" class="edge"><title>Node3&#45;&gt;Node4</title>
<path fill="none" stroke="midnightblue" d="M456.781,-112.324C471.267,-103.822 493.573,-90.7288 510.493,-80.7975"/>
<polygon fill="midnightblue" stroke="midnightblue" points="512.403,-83.735 519.255,-75.6545 508.859,-77.6981 512.403,-83.735"/>
</g>
<!-- Node5 -->
<g id="node5" class="node"><title>Node5</title>
<polygon fill="none" stroke="#bfbfbf" points="500,-0.5 500,-19.5 550,-19.5 550,-0.5 500,-0.5"/>
<text text-anchor="middle" x="525" y="-7.5" font-family="Helvetica,sans-Serif" font-size="10.00">TMap.h</text>
</g>
<!-- Node3&#45;&gt;Node5 -->
<g id="edge4" class="edge"><title>Node3&#45;&gt;Node5</title>
<path fill="none" stroke="midnightblue" d="M413.158,-112.404C381.565,-101.497 337.773,-81.0543 357,-56 373.04,-35.0986 445.279,-21.7824 489.644,-15.4227"/>
<polygon fill="midnightblue" stroke="midnightblue" points="490.307,-18.8643 499.733,-14.0269 489.348,-11.9304 490.307,-18.8643"/>
</g>
<!-- Node6 -->
<g id="node6" class="node"><title>Node6</title>
<polygon fill="none" stroke="#bfbfbf" points="952.5,-0.5 952.5,-19.5 1011.5,-19.5 1011.5,-0.5 952.5,-0.5"/>
<text text-anchor="middle" x="982" y="-7.5" font-family="Helvetica,sans-Serif" font-size="10.00">TObject.h</text>
</g>
<!-- Node3&#45;&gt;Node6 -->
<g id="edge5" class="edge"><title>Node3&#45;&gt;Node6</title>
<path fill="none" stroke="midnightblue" d="M446.852,-112.389C455.566,-97.8603 475.371,-68.81 501,-56 578.077,-17.4742 841.305,-11.8028 942.199,-11.0647"/>
<polygon fill="midnightblue" stroke="midnightblue" points="942.307,-14.5642 952.286,-11.0036 942.264,-7.56434 942.307,-14.5642"/>
</g>
<!-- Node7 -->
<g id="node7" class="node"><title>Node7</title>
<polygon fill="none" stroke="#bfbfbf" points="366.5,-56.5 366.5,-75.5 415.5,-75.5 415.5,-56.5 366.5,-56.5"/>
<text text-anchor="middle" x="391" y="-63.5" font-family="Helvetica,sans-Serif" font-size="10.00">cstddef</text>
</g>
<!-- Node3&#45;&gt;Node7 -->
<g id="edge6" class="edge"><title>Node3&#45;&gt;Node7</title>
<path fill="none" stroke="midnightblue" d="M433.578,-112.083C426.152,-104.22 415.148,-92.5688 406.188,-83.0813"/>
<polygon fill="midnightblue" stroke="midnightblue" points="408.676,-80.618 399.265,-75.7511 403.587,-85.4244 408.676,-80.618"/>
</g>
<!-- Node3&#45;&gt;Node8 -->
<g id="edge7" class="edge"><title>Node3&#45;&gt;Node8</title>
<path fill="none" stroke="midnightblue" d="M489.637,-118.615C571.712,-113.97 744.856,-101.817 889,-76 923.804,-69.7663 931.381,-63.1917 966,-56 1054.37,-37.641 1159.45,-22.9586 1214.68,-15.7847"/>
<polygon fill="midnightblue" stroke="midnightblue" points="1215.25,-19.2404 1224.72,-14.4922 1214.36,-12.2977 1215.25,-19.2404"/>
</g>
<!-- Node3&#45;&gt;Node9 -->
<g id="edge8" class="edge"><title>Node3&#45;&gt;Node9</title>
<path fill="none" stroke="midnightblue" d="M443.009,-112.48C445.108,-98.6086 451.238,-71.1691 468,-56 485.304,-40.3405 545.489,-26.1118 585.844,-18.0146"/>
<polygon fill="midnightblue" stroke="midnightblue" points="586.751,-21.4033 595.89,-16.0425 585.403,-14.5344 586.751,-21.4033"/>
</g>
<!-- Node10 -->
<g id="node10" class="node"><title>Node10</title>
<g id="a_node10"><a xlink:href="../../d7/d44/TObjectWrapper_8h.html" target="_top" xlink:title="CCDB/TObjectWrapper.h">
<polygon fill="none" stroke="black" points="144,-56.5 144,-75.5 272,-75.5 272,-56.5 144,-56.5"/>
<text text-anchor="middle" x="208" y="-63.5" font-family="Helvetica,sans-Serif" font-size="10.00">CCDB/TObjectWrapper.h</text>
</a>
</g>
</g>
<!-- Node3&#45;&gt;Node10 -->
<g id="edge9" class="edge"><title>Node3&#45;&gt;Node10</title>
<path fill="none" stroke="midnightblue" d="M404.922,-112.444C364.272,-103.063 298.968,-87.9926 254.816,-77.8036"/>
<polygon fill="midnightblue" stroke="midnightblue" points="255.435,-74.3547 244.905,-75.5164 253.861,-81.1755 255.435,-74.3547"/>
</g>
<!-- Node10&#45;&gt;Node6 -->
<g id="edge11" class="edge"><title>Node10&#45;&gt;Node6</title>
<path fill="none" stroke="midnightblue" d="M272.328,-60.512C426.893,-49.7284 815.68,-22.6037 941.812,-13.8038"/>
<polygon fill="midnightblue" stroke="midnightblue" points="942.426,-17.2695 952.159,-13.082 941.939,-10.2865 942.426,-17.2695"/>
</g>
<!-- Node11 -->
<g id="node11" class="node"><title>Node11</title>
<polygon fill="none" stroke="#bfbfbf" points="289,-0.5 289,-19.5 345,-19.5 345,-0.5 289,-0.5"/>
<text text-anchor="middle" x="317" y="-7.5" font-family="Helvetica,sans-Serif" font-size="10.00">TClass.h</text>
</g>
<!-- Node10&#45;&gt;Node11 -->
<g id="edge10" class="edge"><title>Node10&#45;&gt;Node11</title>
<path fill="none" stroke="midnightblue" d="M225.513,-56.324C243.072,-47.6247 270.331,-34.1202 290.531,-24.113"/>
<polygon fill="midnightblue" stroke="midnightblue" points="292.124,-27.23 299.531,-19.6545 289.016,-20.9575 292.124,-27.23"/>
</g>
<!-- Node12 -->
<g id="node12" class="node"><title>Node12</title>
<polygon fill="none" stroke="#bfbfbf" points="363.5,-0.5 363.5,-19.5 416.5,-19.5 416.5,-0.5 363.5,-0.5"/>
<text text-anchor="middle" x="390" y="-7.5" font-family="Helvetica,sans-Serif" font-size="10.00">cxxabi.h</text>
</g>
<!-- Node10&#45;&gt;Node12 -->
<g id="edge12" class="edge"><title>Node10&#45;&gt;Node12</title>
<path fill="none" stroke="midnightblue" d="M236.838,-56.4435C268.494,-47.0511 319.374,-31.9549 353.717,-21.7654"/>
<polygon fill="midnightblue" stroke="midnightblue" points="354.778,-25.1015 363.369,-18.9015 352.786,-18.3906 354.778,-25.1015"/>
</g>
<!-- Node13 -->
<g id="node13" class="node"><title>Node13</title>
<polygon fill="none" stroke="#bfbfbf" points="0,-0.5 0,-19.5 54,-19.5 54,-0.5 0,-0.5"/>
<text text-anchor="middle" x="27" y="-7.5" font-family="Helvetica,sans-Serif" font-size="10.00">iostream</text>
</g>
<!-- Node10&#45;&gt;Node13 -->
<g id="edge13" class="edge"><title>Node10&#45;&gt;Node13</title>
<path fill="none" stroke="midnightblue" d="M179.32,-56.4435C148.02,-47.1053 97.8204,-32.1287 63.6762,-21.9421"/>
<polygon fill="midnightblue" stroke="midnightblue" points="64.651,-18.5805 54.0677,-19.0755 62.6497,-25.2883 64.651,-18.5805"/>
</g>
<!-- Node14 -->
<g id="node14" class="node"><title>Node14</title>
<polygon fill="none" stroke="#bfbfbf" points="72,-0.5 72,-19.5 124,-19.5 124,-0.5 72,-0.5"/>
<text text-anchor="middle" x="98" y="-7.5" font-family="Helvetica,sans-Serif" font-size="10.00">memory</text>
</g>
<!-- Node10&#45;&gt;Node14 -->
<g id="edge14" class="edge"><title>Node10&#45;&gt;Node14</title>
<path fill="none" stroke="midnightblue" d="M190.327,-56.324C172.606,-47.6247 145.097,-34.1202 124.712,-24.113"/>
<polygon fill="midnightblue" stroke="midnightblue" points="126.149,-20.9195 115.63,-19.6545 123.064,-27.2031 126.149,-20.9195"/>
</g>
<!-- Node15 -->
<g id="node15" class="node"><title>Node15</title>
<polygon fill="none" stroke="#bfbfbf" points="142.5,-0.5 142.5,-19.5 201.5,-19.5 201.5,-0.5 142.5,-0.5"/>
<text text-anchor="middle" x="172" y="-7.5" font-family="Helvetica,sans-Serif" font-size="10.00">stdexcept</text>
</g>
<!-- Node10&#45;&gt;Node15 -->
<g id="edge15" class="edge"><title>Node10&#45;&gt;Node15</title>
<path fill="none" stroke="midnightblue" d="M202.055,-56.083C197.023,-48.5341 189.663,-37.4948 183.487,-28.2298"/>
<polygon fill="midnightblue" stroke="midnightblue" points="186.293,-26.1301 177.834,-19.7511 180.469,-30.0131 186.293,-26.1301"/>
</g>
<!-- Node16 -->
<g id="node16" class="node"><title>Node16</title>
<polygon fill="none" stroke="#bfbfbf" points="219.5,-0.5 219.5,-19.5 270.5,-19.5 270.5,-0.5 219.5,-0.5"/>
<text text-anchor="middle" x="245" y="-7.5" font-family="Helvetica,sans-Serif" font-size="10.00">typeinfo</text>
</g>
<!-- Node10&#45;&gt;Node16 -->
<g id="edge16" class="edge"><title>Node10&#45;&gt;Node16</title>
<path fill="none" stroke="midnightblue" d="M214.11,-56.083C219.282,-48.5341 226.846,-37.4948 233.194,-28.2298"/>
<polygon fill="midnightblue" stroke="midnightblue" points="236.239,-29.9787 239.004,-19.7511 230.464,-26.0221 236.239,-29.9787"/>
</g>
<!-- Node17&#45;&gt;Node4 -->
<g id="edge19" class="edge"><title>Node17&#45;&gt;Node4</title>
<path fill="none" stroke="midnightblue" d="M662.757,-112.444C636.979,-103.345 596.036,-88.8952 567.255,-78.7372"/>
<polygon fill="midnightblue" stroke="midnightblue" points="568.222,-75.3668 557.627,-75.339 565.892,-81.9677 568.222,-75.3668"/>
</g>
<!-- Node17&#45;&gt;Node6 -->
<g id="edge26" class="edge"><title>Node17&#45;&gt;Node6</title>
<path fill="none" stroke="midnightblue" d="M732.715,-115.989C774.728,-110.198 838.028,-98.4332 889,-76 917.819,-63.3164 946.907,-41.1307 964.692,-26.2539"/>
<polygon fill="midnightblue" stroke="midnightblue" points="967.136,-28.7691 972.464,-19.6115 962.588,-23.4476 967.136,-28.7691"/>
</g>
<!-- Node17&#45;&gt;Node8 -->
<g id="edge25" class="edge"><title>Node17&#45;&gt;Node8</title>
<path fill="none" stroke="midnightblue" d="M732.651,-120.986C864.425,-120.475 1238.38,-115.525 1275,-76 1287.34,-62.6829 1277.19,-42.1906 1266.96,-27.7827"/>
<polygon fill="midnightblue" stroke="midnightblue" points="1269.64,-25.5238 1260.78,-19.7166 1264.08,-29.7824 1269.64,-25.5238"/>
</g>
<!-- Node17&#45;&gt;Node9 -->
<g id="edge27" class="edge"><title>Node17&#45;&gt;Node9</title>
<path fill="none" stroke="midnightblue" d="M675.657,-112.179C665.693,-103.859 651.496,-90.5244 643,-76 634.56,-61.5704 629.634,-43.1178 626.922,-29.5626"/>
<polygon fill="midnightblue" stroke="midnightblue" points="630.334,-28.7564 625.137,-19.5238 623.442,-29.9822 630.334,-28.7564"/>
</g>
<!-- Node18 -->
<g id="node18" class="node"><title>Node18</title>
<polygon fill="none" stroke="#bfbfbf" points="652.5,-56.5 652.5,-75.5 721.5,-75.5 721.5,-56.5 652.5,-56.5"/>
<text text-anchor="middle" x="687" y="-63.5" font-family="Helvetica,sans-Serif" font-size="10.00">TObjArray.h</text>
</g>
<!-- Node17&#45;&gt;Node18 -->
<g id="edge20" class="edge"><title>Node17&#45;&gt;Node18</title>
<path fill="none" stroke="midnightblue" d="M687,-112.083C687,-105.006 687,-94.8611 687,-85.9865"/>
<polygon fill="midnightblue" stroke="midnightblue" points="690.5,-85.751 687,-75.7511 683.5,-85.7511 690.5,-85.751"/>
</g>
<!-- Node19 -->
<g id="node19" class="node"><title>Node19</title>
<g id="a_node19"><a xlink:href="../../d4/dd1/IdPath_8h.html" target="_top" xlink:title="CCDB/IdPath.h">
<polygon fill="none" stroke="black" points="975,-56.5 975,-75.5 1061,-75.5 1061,-56.5 975,-56.5"/>
<text text-anchor="middle" x="1018" y="-63.5" font-family="Helvetica,sans-Serif" font-size="10.00">CCDB/IdPath.h</text>
</a>
</g>
</g>
<!-- Node17&#45;&gt;Node19 -->
<g id="edge21" class="edge"><title>Node17&#45;&gt;Node19</title>
<path fill="none" stroke="midnightblue" d="M732.677,-113.548C793.448,-103.634 900.678,-86.1401 964.959,-75.6533"/>
<polygon fill="midnightblue" stroke="midnightblue" points="965.587,-79.0972 974.893,-74.0326 964.46,-72.1885 965.587,-79.0972"/>
</g>
<!-- Node19&#45;&gt;Node6 -->
<g id="edge22" class="edge"><title>Node19&#45;&gt;Node6</title>
<path fill="none" stroke="midnightblue" d="M1012.06,-56.083C1007.02,-48.5341 999.663,-37.4948 993.487,-28.2298"/>
<polygon fill="midnightblue" stroke="midnightblue" points="996.293,-26.1301 987.834,-19.7511 990.469,-30.0131 996.293,-26.1301"/>
</g>
<!-- Node19&#45;&gt;Node8 -->
<g id="edge24" class="edge"><title>Node19&#45;&gt;Node8</title>
<path fill="none" stroke="midnightblue" d="M1055.24,-56.4435C1098.94,-46.4007 1171.03,-29.8367 1215.04,-19.7226"/>
<polygon fill="midnightblue" stroke="midnightblue" points="1215.83,-23.1333 1224.79,-17.4826 1214.26,-16.3111 1215.83,-23.1333"/>
</g>
<!-- Node19&#45;&gt;Node9 -->
<g id="edge23" class="edge"><title>Node19&#45;&gt;Node9</title>
<path fill="none" stroke="midnightblue" d="M974.708,-59.0666C897.256,-48.4514 736.196,-26.3771 662.416,-16.2652"/>
<polygon fill="midnightblue" stroke="midnightblue" points="662.567,-12.7532 652.184,-14.8628 661.617,-19.6884 662.567,-12.7532"/>
</g>
<!-- Node27&#45;&gt;Node6 -->
<g id="edge53" class="edge"><title>Node27&#45;&gt;Node6</title>
<path fill="none" stroke="midnightblue" d="M1154.15,-168.45C1207.54,-150.296 1317.47,-105.491 1275,-56 1242.82,-18.4961 1094.02,-11.9371 1021.69,-11.0005"/>
<polygon fill="midnightblue" stroke="midnightblue" points="1021.63,-7.4998 1011.59,-10.9 1021.56,-14.4995 1021.63,-7.4998"/>
</g>
<!-- Node27&#45;&gt;Node8 -->
<g id="edge52" class="edge"><title>Node27&#45;&gt;Node8</title>
<path fill="none" stroke="midnightblue" d="M1174.2,-168.464C1234.05,-157.467 1331.39,-138.94 1347,-132 1385.34,-114.953 1404.08,-113.448 1423,-76 1449.29,-23.9634 1349.37,-13.1715 1291.51,-11.2019"/>
<polygon fill="midnightblue" stroke="midnightblue" points="1291.33,-7.69589 1281.24,-10.9289 1291.14,-14.6934 1291.33,-7.69589"/>
</g>
<!-- Node27&#45;&gt;Node9 -->
<g id="edge54" class="edge"><title>Node27&#45;&gt;Node9</title>
<path fill="none" stroke="midnightblue" d="M1077.78,-169.232C1074.47,-168.79 1071.19,-168.375 1068,-168 1019.72,-162.332 666.09,-166.652 632,-132 605.387,-104.948 612.285,-56.0041 618.697,-29.4075"/>
<polygon fill="midnightblue" stroke="midnightblue" points="622.142,-30.0688 621.316,-19.5062 615.375,-28.2787 622.142,-30.0688"/>
</g>
<!-- Node27&#45;&gt;Node10 -->
<g id="edge51" class="edge"><title>Node27&#45;&gt;Node10</title>
<path fill="none" stroke="midnightblue" d="M1077.79,-169.122C1074.48,-168.707 1071.2,-168.327 1068,-168 765.604,-137.043 682.778,-193.076 385,-132 330.128,-120.745 269.533,-95.4969 235.38,-79.9895"/>
<polygon fill="midnightblue" stroke="midnightblue" points="236.617,-76.7061 226.07,-75.7047 233.691,-83.065 236.617,-76.7061"/>
</g>
<!-- Node27&#45;&gt;Node19 -->
<g id="edge50" class="edge"><title>Node27&#45;&gt;Node19</title>
<path fill="none" stroke="midnightblue" d="M1112.18,-168.408C1098.69,-160.146 1078.7,-146.764 1064,-132 1049.71,-117.652 1036.72,-98.4475 1028.21,-84.6388"/>
<polygon fill="midnightblue" stroke="midnightblue" points="1030.99,-82.4705 1022.86,-75.6841 1024.99,-86.063 1030.99,-82.4705"/>
</g>
<!-- Node28 -->
<g id="node28" class="node"><title>Node28</title>
<g id="a_node28"><a xlink:href="../../da/d53/ConditionId_8h.html" target="_top" xlink:title="CCDB/ConditionId.h">
<polygon fill="none" stroke="black" points="1073.5,-112.5 1073.5,-131.5 1180.5,-131.5 1180.5,-112.5 1073.5,-112.5"/>
<text text-anchor="middle" x="1127" y="-119.5" font-family="Helvetica,sans-Serif" font-size="10.00">CCDB/ConditionId.h</text>
</a>
</g>
</g>
<!-- Node27&#45;&gt;Node28 -->
<g id="edge37" class="edge"><title>Node27&#45;&gt;Node28</title>
<path fill="none" stroke="midnightblue" d="M1127,-168.083C1127,-161.006 1127,-150.861 1127,-141.986"/>
<polygon fill="midnightblue" stroke="midnightblue" points="1130.5,-141.751 1127,-131.751 1123.5,-141.751 1130.5,-141.751"/>
</g>
<!-- Node30 -->
<g id="node30" class="node"><title>Node30</title>
<g id="a_node30"><a xlink:href="../../d1/d3f/ConditionMetaData_8h.html" target="_top" xlink:title="CCDB/ConditionMetaData.h">
<polygon fill="none" stroke="black" points="739.5,-56.5 739.5,-75.5 880.5,-75.5 880.5,-56.5 739.5,-56.5"/>
<text text-anchor="middle" x="810" y="-63.5" font-family="Helvetica,sans-Serif" font-size="10.00">CCDB/ConditionMetaData.h</text>
</a>
</g>
</g>
<!-- Node27&#45;&gt;Node30 -->
<g id="edge45" class="edge"><title>Node27&#45;&gt;Node30</title>
<path fill="none" stroke="midnightblue" d="M1102.39,-168.46C1046.33,-149.006 909.006,-101.355 844.515,-78.9768"/>
<polygon fill="midnightblue" stroke="midnightblue" points="845.408,-75.5821 834.814,-75.6104 843.114,-82.1953 845.408,-75.5821"/>
</g>
<!-- Node28&#45;&gt;Node6 -->
<g id="edge38" class="edge"><title>Node28&#45;&gt;Node6</title>
<path fill="none" stroke="midnightblue" d="M1126.08,-112.186C1124.19,-98.3932 1118.63,-71.6695 1103,-56 1081.2,-34.1485 1047.84,-22.7844 1021.66,-16.948"/>
<polygon fill="midnightblue" stroke="midnightblue" points="1022.16,-13.4775 1011.66,-14.9043 1020.76,-20.3358 1022.16,-13.4775"/>
</g>
<!-- Node28&#45;&gt;Node8 -->
<g id="edge43" class="edge"><title>Node28&#45;&gt;Node8</title>
<path fill="none" stroke="midnightblue" d="M1180.54,-115.042C1228.37,-108.486 1293.25,-96.1189 1309,-76 1323.3,-57.7327 1299.47,-37.6333 1278.62,-24.6928"/>
<polygon fill="midnightblue" stroke="midnightblue" points="1280.37,-21.6659 1269.98,-19.6113 1276.82,-27.6991 1280.37,-21.6659"/>
</g>
<!-- Node28&#45;&gt;Node9 -->
<g id="edge44" class="edge"><title>Node28&#45;&gt;Node9</title>
<path fill="none" stroke="midnightblue" d="M1122.38,-112.413C1114.07,-97.9201 1095.08,-68.9227 1070,-56 999.305,-19.5792 757.234,-12.6302 662.474,-11.3086"/>
<polygon fill="midnightblue" stroke="midnightblue" points="662.236,-7.80541 652.193,-11.1795 662.148,-14.8049 662.236,-7.80541"/>
</g>
<!-- Node28&#45;&gt;Node19 -->
<g id="edge39" class="edge"><title>Node28&#45;&gt;Node19</title>
<path fill="none" stroke="midnightblue" d="M1109.49,-112.324C1091.93,-103.625 1064.67,-90.1202 1044.47,-80.113"/>
<polygon fill="midnightblue" stroke="midnightblue" points="1045.98,-76.9575 1035.47,-75.6545 1042.88,-83.23 1045.98,-76.9575"/>
</g>
<!-- Node29 -->
<g id="node29" class="node"><title>Node29</title>
<g id="a_node29"><a xlink:href="../../dd/d18/IdRunRange_8h.html" target="_top" xlink:title="CCDB/IdRunRange.h">
<polygon fill="none" stroke="black" points="1155,-56.5 1155,-75.5 1267,-75.5 1267,-56.5 1155,-56.5"/>
<text text-anchor="middle" x="1211" y="-63.5" font-family="Helvetica,sans-Serif" font-size="10.00">CCDB/IdRunRange.h</text>
</a>
</g>
</g>
<!-- Node28&#45;&gt;Node29 -->
<g id="edge40" class="edge"><title>Node28&#45;&gt;Node29</title>
<path fill="none" stroke="midnightblue" d="M1140.5,-112.324C1153.6,-103.9 1173.71,-90.9709 1189.11,-81.0741"/>
<polygon fill="midnightblue" stroke="midnightblue" points="1191.02,-84.0063 1197.54,-75.6545 1187.23,-78.118 1191.02,-84.0063"/>
</g>
<!-- Node29&#45;&gt;Node6 -->
<g id="edge41" class="edge"><title>Node29&#45;&gt;Node6</title>
<path fill="none" stroke="midnightblue" d="M1174.71,-56.4435C1132.92,-46.587 1064.48,-30.4491 1021.41,-20.2922"/>
<polygon fill="midnightblue" stroke="midnightblue" points="1022.1,-16.8596 1011.56,-17.971 1020.49,-23.6728 1022.1,-16.8596"/>
</g>
<!-- Node29&#45;&gt;Node8 -->
<g id="edge42" class="edge"><title>Node29&#45;&gt;Node8</title>
<path fill="none" stroke="midnightblue" d="M1217.94,-56.083C1223.93,-48.3768 1232.75,-37.0333 1240.05,-27.6531"/>
<polygon fill="midnightblue" stroke="midnightblue" points="1242.82,-29.7934 1246.19,-19.7511 1237.29,-25.4958 1242.82,-29.7934"/>
</g>
<!-- Node30&#45;&gt;Node5 -->
<g id="edge46" class="edge"><title>Node30&#45;&gt;Node5</title>
<path fill="none" stroke="midnightblue" d="M764.841,-56.4435C708.013,-45.6762 611.624,-27.4129 560.041,-17.6393"/>
<polygon fill="midnightblue" stroke="midnightblue" points="560.522,-14.1682 550.045,-15.7454 559.219,-21.0459 560.522,-14.1682"/>
</g>
<!-- Node30&#45;&gt;Node6 -->
<g id="edge47" class="edge"><title>Node30&#45;&gt;Node6</title>
<path fill="none" stroke="midnightblue" d="M837.254,-56.4435C866.441,-47.2801 912.921,-32.6876 945.309,-22.5192"/>
<polygon fill="midnightblue" stroke="midnightblue" points="946.381,-25.8512 954.874,-19.5164 944.284,-19.1726 946.381,-25.8512"/>
</g>
<!-- Node30&#45;&gt;Node8 -->
<g id="edge48" class="edge"><title>Node30&#45;&gt;Node8</title>
<path fill="none" stroke="midnightblue" d="M880.195,-56.4435C974.837,-44.907 1140.07,-24.7652 1214.6,-15.6804"/>
<polygon fill="midnightblue" stroke="midnightblue" points="1215.42,-19.107 1224.92,-14.4226 1214.57,-12.1584 1215.42,-19.107"/>
</g>
<!-- Node30&#45;&gt;Node9 -->
<g id="edge49" class="edge"><title>Node30&#45;&gt;Node9</title>
<path fill="none" stroke="midnightblue" d="M780.528,-56.4435C748.456,-47.1323 697.076,-32.2155 661.995,-22.0308"/>
<polygon fill="midnightblue" stroke="midnightblue" points="662.696,-18.5899 652.117,-19.1629 660.744,-25.3123 662.696,-18.5899"/>
</g>
</g>
</svg>
