<?xml version="1.0" encoding="UTF-8" standalone="no"?>
<!DOCTYPE svg PUBLIC "-//W3C//DTD SVG 1.1//EN"
 "http://www.w3.org/Graphics/SVG/1.1/DTD/svg11.dtd">
<!-- Generated by graphviz version 2.36.0 (20140111.2315)
 -->
<!-- Title: /home/travis/build/AliceO2Group/AliceO2/Framework/DebugGUI/src/imgui_internal.h Pages: 1 -->
<svg width="214pt" height="174pt"
 viewBox="0.00 0.00 214.00 174.00" xmlns="http://www.w3.org/2000/svg" xmlns:xlink="http://www.w3.org/1999/xlink">
<g id="graph0" class="graph" transform="scale(1 1) rotate(0) translate(4 170)">
<title>/home/travis/build/AliceO2Group/AliceO2/Framework/DebugGUI/src/imgui_internal.h</title>
<!-- Node1 -->
<g id="node1" class="node"><title>Node1</title>
<polygon fill="#bfbfbf" stroke="black" points="21,-113 21,-165 155,-165 155,-113 21,-113"/>
<text text-anchor="start" x="29" y="-153" font-family="Helvetica,sans-Serif" font-size="10.00">/home/travis/build</text>
<text text-anchor="start" x="29" y="-142" font-family="Helvetica,sans-Serif" font-size="10.00">/AliceO2Group/AliceO2</text>
<text text-anchor="start" x="29" y="-131" font-family="Helvetica,sans-Serif" font-size="10.00">/Framework/DebugGUI/src</text>
<text text-anchor="middle" x="88" y="-120" font-family="Helvetica,sans-Serif" font-size="10.00">/imgui_internal.h</text>
</g>
<!-- Node2 -->
<g id="node2" class="node"><title>Node2</title>
<polygon fill="none" stroke="#bfbfbf" points="0,-56.5 0,-75.5 46,-75.5 46,-56.5 0,-56.5"/>
<text text-anchor="middle" x="23" y="-63.5" font-family="Helvetica,sans-Serif" font-size="10.00">stdio.h</text>
</g>
<!-- Node1&#45;&gt;Node2 -->
<g id="edge1" class="edge"><title>Node1&#45;&gt;Node2</title>
<path fill="none" stroke="midnightblue" d="M64.9004,-112.768C55.941,-102.982 45.9387,-92.0561 37.9542,-83.3346"/>
<polygon fill="midnightblue" stroke="midnightblue" points="40.3512,-80.7696 31.0171,-75.7572 35.1881,-85.4964 40.3512,-80.7696"/>
</g>
<!-- Node3 -->
<g id="node3" class="node"><title>Node3</title>
<polygon fill="none" stroke="#bfbfbf" points="64.5,-56.5 64.5,-75.5 111.5,-75.5 111.5,-56.5 64.5,-56.5"/>
<text text-anchor="middle" x="88" y="-63.5" font-family="Helvetica,sans-Serif" font-size="10.00">math.h</text>
</g>
<!-- Node1&#45;&gt;Node3 -->
<g id="edge2" class="edge"><title>Node1&#45;&gt;Node3</title>
<path fill="none" stroke="midnightblue" d="M88,-112.768C88,-103.89 88,-94.0737 88,-85.8165"/>
<polygon fill="midnightblue" stroke="midnightblue" points="91.5001,-85.7571 88,-75.7572 84.5001,-85.7572 91.5001,-85.7571"/>
</g>
<!-- Node4 -->
<g id="node4" class="node"><title>Node4</title>
<g id="a_node4"><a xlink:href="../../d4/dfd/stb__textedit_8h.html" target="_top" xlink:title="stb_textedit.h">
<polygon fill="none" stroke="black" points="130,-56.5 130,-75.5 206,-75.5 206,-56.5 130,-56.5"/>
<text text-anchor="middle" x="168" y="-63.5" font-family="Helvetica,sans-Serif" font-size="10.00">stb_textedit.h</text>
</a>
</g>
</g>
<!-- Node1&#45;&gt;Node4 -->
<g id="edge3" class="edge"><title>Node1&#45;&gt;Node4</title>
<path fill="none" stroke="midnightblue" d="M116.43,-112.768C127.798,-102.679 140.53,-91.3792 150.499,-82.5318"/>
<polygon fill="midnightblue" stroke="midnightblue" points="152.977,-85.0128 158.133,-75.7572 148.33,-79.7773 152.977,-85.0128"/>
</g>
<!-- Node5 -->
<g id="node5" class="node"><title>Node5</title>
<polygon fill="none" stroke="#bfbfbf" points="143.5,-0.5 143.5,-19.5 192.5,-19.5 192.5,-0.5 143.5,-0.5"/>
<text text-anchor="middle" x="168" y="-7.5" font-family="Helvetica,sans-Serif" font-size="10.00">string.h</text>
</g>
<!-- Node4&#45;&gt;Node5 -->
<g id="edge4" class="edge"><title>Node4&#45;&gt;Node5</title>
<path fill="none" stroke="midnightblue" d="M168,-56.083C168,-49.0059 168,-38.8611 168,-29.9865"/>
<polygon fill="midnightblue" stroke="midnightblue" points="171.5,-29.751 168,-19.7511 164.5,-29.7511 171.5,-29.751"/>
</g>
</g>
</svg>
