<?xml version="1.0" encoding="UTF-8" standalone="no"?>
<!DOCTYPE svg PUBLIC "-//W3C//DTD SVG 1.1//EN"
 "http://www.w3.org/Graphics/SVG/1.1/DTD/svg11.dtd">
<!-- Generated by graphviz version 2.36.0 (20140111.2315)
 -->
<!-- Title: /home/travis/build/AliceO2Group/AliceO2/Utilities/QC/QCMerger/include/QCMerger/MergerDevice.h Pages: 1 -->
<svg width="886pt" height="186pt"
 viewBox="0.00 0.00 885.59 186.00" xmlns="http://www.w3.org/2000/svg" xmlns:xlink="http://www.w3.org/1999/xlink">
<g id="graph0" class="graph" transform="scale(1 1) rotate(0) translate(4 182)">
<title>/home/travis/build/AliceO2Group/AliceO2/Utilities/QC/QCMerger/include/QCMerger/MergerDevice.h</title>
<!-- Node1 -->
<g id="node1" class="node"><title>Node1</title>
<polygon fill="#bfbfbf" stroke="black" points="239.593,-125 239.593,-177 409.593,-177 409.593,-125 239.593,-125"/>
<text text-anchor="start" x="247.593" y="-165" font-family="Helvetica,sans-Serif" font-size="10.00">/home/travis/build</text>
<text text-anchor="start" x="247.593" y="-154" font-family="Helvetica,sans-Serif" font-size="10.00">/AliceO2Group/AliceO2</text>
<text text-anchor="start" x="247.593" y="-143" font-family="Helvetica,sans-Serif" font-size="10.00">/Utilities/QC/QCMerger</text>
<text text-anchor="middle" x="324.593" y="-132" font-family="Helvetica,sans-Serif" font-size="10.00">/include/QCMerger/MergerDevice.h</text>
</g>
<!-- Node2 -->
<g id="node2" class="node"><title>Node2</title>
<polygon fill="none" stroke="#bfbfbf" points="318.593,-0.5 318.593,-19.5 364.593,-19.5 364.593,-0.5 318.593,-0.5"/>
<text text-anchor="middle" x="341.593" y="-7.5" font-family="Helvetica,sans-Serif" font-size="10.00">chrono</text>
</g>
<!-- Node1&#45;&gt;Node2 -->
<g id="edge1" class="edge"><title>Node1&#45;&gt;Node2</title>
<path fill="none" stroke="midnightblue" d="M239.373,-150.198C126.359,-147.604 -51.5606,-131.88 14.5928,-56 52.4597,-12.5651 232.637,-9.60233 308.161,-10.3287"/>
<polygon fill="midnightblue" stroke="midnightblue" points="308.473,-13.8327 318.516,-10.4582 308.56,-6.8333 308.473,-13.8327"/>
</g>
<!-- Node3 -->
<g id="node3" class="node"><title>Node3</title>
<polygon fill="none" stroke="#bfbfbf" points="24.0928,-62.5 24.0928,-81.5 65.0928,-81.5 65.0928,-62.5 24.0928,-62.5"/>
<text text-anchor="middle" x="44.5928" y="-69.5" font-family="Helvetica,sans-Serif" font-size="10.00">ctime</text>
</g>
<!-- Node1&#45;&gt;Node3 -->
<g id="edge2" class="edge"><title>Node1&#45;&gt;Node3</title>
<path fill="none" stroke="midnightblue" d="M239.425,-134.17C190.119,-123.726 127.369,-108.226 73.5928,-88 71.9879,-87.3964 70.3573,-86.7259 68.7296,-86.0129"/>
<polygon fill="midnightblue" stroke="midnightblue" points="70.1645,-82.8192 59.6363,-81.6324 67.1264,-89.1256 70.1645,-82.8192"/>
</g>
<!-- Node4 -->
<g id="node4" class="node"><title>Node4</title>
<polygon fill="none" stroke="#bfbfbf" points="83.0928,-62.5 83.0928,-81.5 126.093,-81.5 126.093,-62.5 83.0928,-62.5"/>
<text text-anchor="middle" x="104.593" y="-69.5" font-family="Helvetica,sans-Serif" font-size="10.00">deque</text>
</g>
<!-- Node1&#45;&gt;Node4 -->
<g id="edge3" class="edge"><title>Node1&#45;&gt;Node4</title>
<path fill="none" stroke="midnightblue" d="M239.988,-124.906C207.051,-114.448 169.214,-101.578 135.593,-88 133.954,-87.3381 132.28,-86.6291 130.601,-85.8926"/>
<polygon fill="midnightblue" stroke="midnightblue" points="131.686,-82.5377 121.14,-81.5117 128.744,-88.8897 131.686,-82.5377"/>
</g>
<!-- Node5 -->
<g id="node5" class="node"><title>Node5</title>
<polygon fill="none" stroke="#bfbfbf" points="144.593,-62.5 144.593,-81.5 196.593,-81.5 196.593,-62.5 144.593,-62.5"/>
<text text-anchor="middle" x="170.593" y="-69.5" font-family="Helvetica,sans-Serif" font-size="10.00">memory</text>
</g>
<!-- Node1&#45;&gt;Node5 -->
<g id="edge4" class="edge"><title>Node1&#45;&gt;Node5</title>
<path fill="none" stroke="midnightblue" d="M274.167,-124.787C248.304,-111.855 217.88,-96.6438 196.726,-86.0666"/>
<polygon fill="midnightblue" stroke="midnightblue" points="198.218,-82.8994 187.708,-81.5577 195.087,-89.1604 198.218,-82.8994"/>
</g>
<!-- Node6 -->
<g id="node6" class="node"><title>Node6</title>
<polygon fill="none" stroke="#bfbfbf" points="215.093,-62.5 215.093,-81.5 256.093,-81.5 256.093,-62.5 215.093,-62.5"/>
<text text-anchor="middle" x="235.593" y="-69.5" font-family="Helvetica,sans-Serif" font-size="10.00">string</text>
</g>
<!-- Node1&#45;&gt;Node6 -->
<g id="edge5" class="edge"><title>Node1&#45;&gt;Node6</title>
<path fill="none" stroke="midnightblue" d="M295.451,-124.787C281.446,-112.671 265.128,-98.5533 253.071,-88.1212"/>
<polygon fill="midnightblue" stroke="midnightblue" points="255.337,-85.4537 245.484,-81.5577 250.757,-90.7475 255.337,-85.4537"/>
</g>
<!-- Node7 -->
<g id="node7" class="node"><title>Node7</title>
<polygon fill="none" stroke="#bfbfbf" points="274.093,-57 274.093,-87 375.093,-87 375.093,-57 274.093,-57"/>
<text text-anchor="start" x="282.093" y="-75" font-family="Helvetica,sans-Serif" font-size="10.00">boost/property_tree</text>
<text text-anchor="middle" x="324.593" y="-64" font-family="Helvetica,sans-Serif" font-size="10.00">/ptree.hpp</text>
</g>
<!-- Node1&#45;&gt;Node7 -->
<g id="edge6" class="edge"><title>Node1&#45;&gt;Node7</title>
<path fill="none" stroke="midnightblue" d="M324.593,-124.787C324.593,-116.029 324.593,-106.225 324.593,-97.5232"/>
<polygon fill="midnightblue" stroke="midnightblue" points="328.093,-97.252 324.593,-87.252 321.093,-97.2521 328.093,-97.252"/>
</g>
<!-- Node8 -->
<g id="node8" class="node"><title>Node8</title>
<polygon fill="none" stroke="#bfbfbf" points="393.593,-62.5 393.593,-81.5 481.593,-81.5 481.593,-62.5 393.593,-62.5"/>
<text text-anchor="middle" x="437.593" y="-69.5" font-family="Helvetica,sans-Serif" font-size="10.00">FairMQDevice.h</text>
</g>
<!-- Node1&#45;&gt;Node8 -->
<g id="edge7" class="edge"><title>Node1&#45;&gt;Node8</title>
<path fill="none" stroke="midnightblue" d="M361.593,-124.787C379.887,-112.321 401.29,-97.7371 416.713,-87.2278"/>
<polygon fill="midnightblue" stroke="midnightblue" points="418.741,-90.0812 425.034,-81.5577 414.799,-84.2965 418.741,-90.0812"/>
</g>
<!-- Node9 -->
<g id="node9" class="node"><title>Node9</title>
<polygon fill="none" stroke="#bfbfbf" points="499.093,-62.5 499.093,-81.5 578.093,-81.5 578.093,-62.5 499.093,-62.5"/>
<text text-anchor="middle" x="538.593" y="-69.5" font-family="Helvetica,sans-Serif" font-size="10.00">TApplication.h</text>
</g>
<!-- Node1&#45;&gt;Node9 -->
<g id="edge8" class="edge"><title>Node1&#45;&gt;Node9</title>
<path fill="none" stroke="midnightblue" d="M394.368,-124.894C431.627,-111.488 475.764,-95.6065 505.31,-84.9755"/>
<polygon fill="midnightblue" stroke="midnightblue" points="506.515,-88.2616 514.74,-81.5826 504.145,-81.675 506.515,-88.2616"/>
</g>
<!-- Node10 -->
<g id="node10" class="node"><title>Node10</title>
<polygon fill="none" stroke="#bfbfbf" points="596.093,-62.5 596.093,-81.5 667.093,-81.5 667.093,-62.5 596.093,-62.5"/>
<text text-anchor="middle" x="631.593" y="-69.5" font-family="Helvetica,sans-Serif" font-size="10.00">TMessage.h</text>
</g>
<!-- Node1&#45;&gt;Node10 -->
<g id="edge9" class="edge"><title>Node1&#45;&gt;Node10</title>
<path fill="none" stroke="midnightblue" d="M409.749,-131.872C461.239,-120.41 528.033,-104.653 586.593,-88 590.024,-87.0244 593.582,-85.9495 597.126,-84.8369"/>
<polygon fill="midnightblue" stroke="midnightblue" points="598.524,-88.0632 606.959,-81.6525 596.367,-81.4037 598.524,-88.0632"/>
</g>
<!-- Node11 -->
<g id="node11" class="node"><title>Node11</title>
<polygon fill="none" stroke="#bfbfbf" points="685.093,-62.5 685.093,-81.5 768.093,-81.5 768.093,-62.5 685.093,-62.5"/>
<text text-anchor="middle" x="726.593" y="-69.5" font-family="Helvetica,sans-Serif" font-size="10.00">dds_intercom.h</text>
</g>
<!-- Node1&#45;&gt;Node11 -->
<g id="edge10" class="edge"><title>Node1&#45;&gt;Node11</title>
<path fill="none" stroke="midnightblue" d="M409.886,-137.653C481.3,-126.667 585.677,-109.095 675.593,-88 680.288,-86.8986 685.19,-85.6219 690.021,-84.2873"/>
<polygon fill="midnightblue" stroke="midnightblue" points="691.094,-87.6209 699.745,-81.5045 689.167,-80.8911 691.094,-87.6209"/>
</g>
<!-- Node12 -->
<g id="node12" class="node"><title>Node12</title>
<g id="a_node12"><a xlink:href="../../db/dad/Utilities_2QC_2QCMerger_2include_2QCMerger_2Merger_8h.html" target="_top" xlink:title="Merger.h">
<polygon fill="none" stroke="black" points="786.093,-62.5 786.093,-81.5 841.093,-81.5 841.093,-62.5 786.093,-62.5"/>
<text text-anchor="middle" x="813.593" y="-69.5" font-family="Helvetica,sans-Serif" font-size="10.00">Merger.h</text>
</a>
</g>
</g>
<!-- Node1&#45;&gt;Node12 -->
<g id="edge11" class="edge"><title>Node1&#45;&gt;Node12</title>
<path fill="none" stroke="midnightblue" d="M409.975,-144.642C501.798,-137.416 651.466,-121.385 776.593,-88 779.577,-87.2037 782.644,-86.2302 785.673,-85.1651"/>
<polygon fill="midnightblue" stroke="midnightblue" points="786.997,-88.4062 795.08,-81.5566 784.49,-81.8706 786.997,-88.4062"/>
</g>
<!-- Node12&#45;&gt;Node2 -->
<g id="edge12" class="edge"><title>Node12&#45;&gt;Node2</title>
<path fill="none" stroke="midnightblue" d="M795.49,-62.4739C789.583,-60.0155 782.915,-57.5748 776.593,-56 629.834,-19.4443 448.081,-12.5319 374.656,-11.2641"/>
<polygon fill="midnightblue" stroke="midnightblue" points="374.677,-7.76412 364.626,-11.1151 374.573,-14.7633 374.677,-7.76412"/>
</g>
<!-- Node13 -->
<g id="node13" class="node"><title>Node13</title>
<polygon fill="none" stroke="#bfbfbf" points="730.093,-0.5 730.093,-19.5 813.093,-19.5 813.093,-0.5 730.093,-0.5"/>
<text text-anchor="middle" x="771.593" y="-7.5" font-family="Helvetica,sans-Serif" font-size="10.00">unordered_map</text>
</g>
<!-- Node12&#45;&gt;Node13 -->
<g id="edge13" class="edge"><title>Node12&#45;&gt;Node13</title>
<path fill="none" stroke="midnightblue" d="M807.575,-62.4035C801.275,-53.4034 791.221,-39.0408 783.34,-27.7824"/>
<polygon fill="midnightblue" stroke="midnightblue" points="786.201,-25.7658 777.599,-19.5806 780.467,-29.7801 786.201,-25.7658"/>
</g>
<!-- Node14 -->
<g id="node14" class="node"><title>Node14</title>
<polygon fill="none" stroke="#bfbfbf" points="831.093,-0.5 831.093,-19.5 878.093,-19.5 878.093,-0.5 831.093,-0.5"/>
<text text-anchor="middle" x="854.593" y="-7.5" font-family="Helvetica,sans-Serif" font-size="10.00">TList.h</text>
</g>
<!-- Node12&#45;&gt;Node14 -->
<g id="edge14" class="edge"><title>Node12&#45;&gt;Node14</title>
<path fill="none" stroke="midnightblue" d="M819.467,-62.4035C825.556,-53.4925 835.238,-39.3247 842.896,-28.1177"/>
<polygon fill="midnightblue" stroke="midnightblue" points="845.977,-29.8117 848.729,-19.5806 840.198,-25.8624 845.977,-29.8117"/>
</g>
</g>
</svg>
