<?xml version="1.0" encoding="UTF-8" standalone="no"?>
<!DOCTYPE svg PUBLIC "-//W3C//DTD SVG 1.1//EN"
 "http://www.w3.org/Graphics/SVG/1.1/DTD/svg11.dtd">
<!-- Generated by graphviz version 2.36.0 (20140111.2315)
 -->
<!-- Title: /home/travis/build/AliceO2Group/AliceO2/DataFormats/TimeFrame/test/TimeFrameTest.cxx Pages: 1 -->
<svg width="678pt" height="286pt"
 viewBox="0.00 0.00 678.00 286.00" xmlns="http://www.w3.org/2000/svg" xmlns:xlink="http://www.w3.org/1999/xlink">
<g id="graph0" class="graph" transform="scale(1 1) rotate(0) translate(4 282)">
<title>/home/travis/build/AliceO2Group/AliceO2/DataFormats/TimeFrame/test/TimeFrameTest.cxx</title>
<!-- Node1 -->
<g id="node1" class="node"><title>Node1</title>
<polygon fill="#bfbfbf" stroke="black" points="266.5,-225 266.5,-277 395.5,-277 395.5,-225 266.5,-225"/>
<text text-anchor="start" x="274.5" y="-265" font-family="Helvetica,sans-Serif" font-size="10.00">/home/travis/build</text>
<text text-anchor="start" x="274.5" y="-254" font-family="Helvetica,sans-Serif" font-size="10.00">/AliceO2Group/AliceO2</text>
<text text-anchor="start" x="274.5" y="-243" font-family="Helvetica,sans-Serif" font-size="10.00">/DataFormats/TimeFrame</text>
<text text-anchor="middle" x="331" y="-232" font-family="Helvetica,sans-Serif" font-size="10.00">/test/TimeFrameTest.cxx</text>
</g>
<!-- Node2 -->
<g id="node2" class="node"><title>Node2</title>
<polygon fill="none" stroke="#bfbfbf" points="-0.5,-168.5 -0.5,-187.5 118.5,-187.5 118.5,-168.5 -0.5,-168.5"/>
<text text-anchor="middle" x="59" y="-175.5" font-family="Helvetica,sans-Serif" font-size="10.00">boost/test/unit_test.hpp</text>
</g>
<!-- Node1&#45;&gt;Node2 -->
<g id="edge1" class="edge"><title>Node1&#45;&gt;Node2</title>
<path fill="none" stroke="midnightblue" d="M266.195,-233.084C215.173,-219.766 145.532,-201.587 101.41,-190.07"/>
<polygon fill="midnightblue" stroke="midnightblue" points="102.145,-186.645 91.5847,-187.506 100.376,-193.418 102.145,-186.645"/>
</g>
<!-- Node3 -->
<g id="node3" class="node"><title>Node3</title>
<g id="a_node3"><a xlink:href="../../de/dfa/TimeFrame_8h.html" target="_top" xlink:title="TimeFrame/TimeFrame.h">
<polygon fill="none" stroke="black" points="175.5,-168.5 175.5,-187.5 302.5,-187.5 302.5,-168.5 175.5,-168.5"/>
<text text-anchor="middle" x="239" y="-175.5" font-family="Helvetica,sans-Serif" font-size="10.00">TimeFrame/TimeFrame.h</text>
</a>
</g>
</g>
<!-- Node1&#45;&gt;Node3 -->
<g id="edge2" class="edge"><title>Node1&#45;&gt;Node3</title>
<path fill="none" stroke="midnightblue" d="M298.564,-224.968C285.207,-214.66 270.175,-203.059 258.553,-194.09"/>
<polygon fill="midnightblue" stroke="midnightblue" points="260.47,-191.148 250.415,-187.81 256.193,-196.69 260.47,-191.148"/>
</g>
<!-- Node4 -->
<g id="node4" class="node"><title>Node4</title>
<polygon fill="none" stroke="#bfbfbf" points="12,-112.5 12,-131.5 92,-131.5 92,-112.5 12,-112.5"/>
<text text-anchor="middle" x="52" y="-119.5" font-family="Helvetica,sans-Serif" font-size="10.00">FairMQParts.h</text>
</g>
<!-- Node1&#45;&gt;Node4 -->
<g id="edge15" class="edge"><title>Node1&#45;&gt;Node4</title>
<path fill="none" stroke="midnightblue" d="M266.161,-228.327C235.343,-217.348 198.273,-203.147 166,-188 132.975,-172.5 96.663,-150.96 74.0961,-137"/>
<polygon fill="midnightblue" stroke="midnightblue" points="75.6524,-133.846 65.3158,-131.521 71.9466,-139.784 75.6524,-133.846"/>
</g>
<!-- Node7 -->
<g id="node7" class="node"><title>Node7</title>
<g id="a_node7"><a xlink:href="../../dc/dcd/DataHeader_8h.html" target="_top" xlink:title="Headers/DataHeader.h">
<polygon fill="none" stroke="black" points="234.5,-56.5 234.5,-75.5 351.5,-75.5 351.5,-56.5 234.5,-56.5"/>
<text text-anchor="middle" x="293" y="-63.5" font-family="Helvetica,sans-Serif" font-size="10.00">Headers/DataHeader.h</text>
</a>
</g>
</g>
<!-- Node1&#45;&gt;Node7 -->
<g id="edge17" class="edge"><title>Node1&#45;&gt;Node7</title>
<path fill="none" stroke="midnightblue" d="M329.163,-224.963C326.702,-197.035 321.386,-150.696 311,-112 308.546,-102.857 304.773,-93.06 301.314,-84.9488"/>
<polygon fill="midnightblue" stroke="midnightblue" points="304.485,-83.467 297.223,-75.7528 298.09,-86.3121 304.485,-83.467"/>
</g>
<!-- Node14 -->
<g id="node14" class="node"><title>Node14</title>
<polygon fill="none" stroke="#bfbfbf" points="359.5,-168.5 359.5,-187.5 456.5,-187.5 456.5,-168.5 359.5,-168.5"/>
<text text-anchor="middle" x="408" y="-175.5" font-family="Helvetica,sans-Serif" font-size="10.00">FairMQMessage.h</text>
</g>
<!-- Node1&#45;&gt;Node14 -->
<g id="edge14" class="edge"><title>Node1&#45;&gt;Node14</title>
<path fill="none" stroke="midnightblue" d="M358.364,-224.768C369.196,-214.78 381.316,-203.605 390.867,-194.798"/>
<polygon fill="midnightblue" stroke="midnightblue" points="393.524,-197.109 398.503,-187.757 388.778,-191.963 393.524,-197.109"/>
</g>
<!-- Node15 -->
<g id="node15" class="node"><title>Node15</title>
<polygon fill="none" stroke="#bfbfbf" points="474.5,-168.5 474.5,-187.5 605.5,-187.5 605.5,-168.5 474.5,-168.5"/>
<text text-anchor="middle" x="540" y="-175.5" font-family="Helvetica,sans-Serif" font-size="10.00">FairMQTransportFactory.h</text>
</g>
<!-- Node1&#45;&gt;Node15 -->
<g id="edge16" class="edge"><title>Node1&#45;&gt;Node15</title>
<path fill="none" stroke="midnightblue" d="M395.698,-228.021C431.888,-215.727 475.566,-200.889 505.322,-190.781"/>
<polygon fill="midnightblue" stroke="midnightblue" points="506.505,-194.075 514.848,-187.544 504.254,-187.447 506.505,-194.075"/>
</g>
<!-- Node16 -->
<g id="node16" class="node"><title>Node16</title>
<polygon fill="none" stroke="#bfbfbf" points="623.5,-168.5 623.5,-187.5 670.5,-187.5 670.5,-168.5 623.5,-168.5"/>
<text text-anchor="middle" x="647" y="-175.5" font-family="Helvetica,sans-Serif" font-size="10.00">TFile.h</text>
</g>
<!-- Node1&#45;&gt;Node16 -->
<g id="edge18" class="edge"><title>Node1&#45;&gt;Node16</title>
<path fill="none" stroke="midnightblue" d="M395.561,-236.826C450.815,-225.33 532.69,-207.772 613.408,-188.049"/>
<polygon fill="midnightblue" stroke="midnightblue" points="614.368,-191.417 623.244,-185.633 612.698,-184.619 614.368,-191.417"/>
</g>
<!-- Node3&#45;&gt;Node4 -->
<g id="edge3" class="edge"><title>Node3&#45;&gt;Node4</title>
<path fill="none" stroke="midnightblue" d="M209.369,-168.444C177.5,-159.241 126.667,-144.562 91.436,-134.388"/>
<polygon fill="midnightblue" stroke="midnightblue" points="92.0706,-130.928 81.4921,-131.516 90.1285,-137.653 92.0706,-130.928"/>
</g>
<!-- Node5 -->
<g id="node5" class="node"><title>Node5</title>
<polygon fill="none" stroke="#bfbfbf" points="243.5,-112.5 243.5,-131.5 302.5,-131.5 302.5,-112.5 243.5,-112.5"/>
<text text-anchor="middle" x="273" y="-119.5" font-family="Helvetica,sans-Serif" font-size="10.00">TObject.h</text>
</g>
<!-- Node3&#45;&gt;Node5 -->
<g id="edge4" class="edge"><title>Node3&#45;&gt;Node5</title>
<path fill="none" stroke="midnightblue" d="M244.614,-168.083C249.367,-160.534 256.318,-149.495 262.152,-140.23"/>
<polygon fill="midnightblue" stroke="midnightblue" points="265.124,-142.078 267.49,-131.751 259.2,-138.349 265.124,-142.078"/>
</g>
<!-- Node6 -->
<g id="node6" class="node"><title>Node6</title>
<g id="a_node6"><a xlink:href="../../d4/da1/TimeStamp_8h.html" target="_top" xlink:title="A std chrono implementation of LHC clock and timestamp. ">
<polygon fill="none" stroke="black" points="110.5,-112.5 110.5,-131.5 225.5,-131.5 225.5,-112.5 110.5,-112.5"/>
<text text-anchor="middle" x="168" y="-119.5" font-family="Helvetica,sans-Serif" font-size="10.00">Headers/TimeStamp.h</text>
</a>
</g>
</g>
<!-- Node3&#45;&gt;Node6 -->
<g id="edge5" class="edge"><title>Node3&#45;&gt;Node6</title>
<path fill="none" stroke="midnightblue" d="M227.593,-168.324C216.891,-160.185 200.659,-147.839 187.837,-138.087"/>
<polygon fill="midnightblue" stroke="midnightblue" points="189.693,-135.102 179.615,-131.834 185.456,-140.673 189.693,-135.102"/>
</g>
<!-- Node6&#45;&gt;Node7 -->
<g id="edge6" class="edge"><title>Node6&#45;&gt;Node7</title>
<path fill="none" stroke="midnightblue" d="M187.807,-112.444C208.287,-103.596 240.483,-89.6875 263.865,-79.5865"/>
<polygon fill="midnightblue" stroke="midnightblue" points="265.494,-82.6953 273.286,-75.5164 262.718,-76.2692 265.494,-82.6953"/>
</g>
<!-- Node10 -->
<g id="node10" class="node"><title>Node10</title>
<polygon fill="none" stroke="#bfbfbf" points="124.5,-0.5 124.5,-19.5 173.5,-19.5 173.5,-0.5 124.5,-0.5"/>
<text text-anchor="middle" x="149" y="-7.5" font-family="Helvetica,sans-Serif" font-size="10.00">cassert</text>
</g>
<!-- Node6&#45;&gt;Node10 -->
<g id="edge13" class="edge"><title>Node6&#45;&gt;Node10</title>
<path fill="none" stroke="midnightblue" d="M166.509,-112.368C163.443,-94.617 156.37,-53.6664 152.212,-29.5974"/>
<polygon fill="midnightblue" stroke="midnightblue" points="155.635,-28.8498 150.484,-19.5914 148.737,-30.0413 155.635,-28.8498"/>
</g>
<!-- Node13 -->
<g id="node13" class="node"><title>Node13</title>
<polygon fill="none" stroke="#bfbfbf" points="170,-56.5 170,-75.5 216,-75.5 216,-56.5 170,-56.5"/>
<text text-anchor="middle" x="193" y="-63.5" font-family="Helvetica,sans-Serif" font-size="10.00">chrono</text>
</g>
<!-- Node6&#45;&gt;Node13 -->
<g id="edge12" class="edge"><title>Node6&#45;&gt;Node13</title>
<path fill="none" stroke="midnightblue" d="M172.128,-112.083C175.514,-104.77 180.416,-94.1814 184.619,-85.1034"/>
<polygon fill="midnightblue" stroke="midnightblue" points="187.923,-86.2962 188.949,-75.7511 181.571,-83.3553 187.923,-86.2962"/>
</g>
<!-- Node8 -->
<g id="node8" class="node"><title>Node8</title>
<polygon fill="none" stroke="#bfbfbf" points="404,-0.5 404,-19.5 450,-19.5 450,-0.5 404,-0.5"/>
<text text-anchor="middle" x="427" y="-7.5" font-family="Helvetica,sans-Serif" font-size="10.00">cstdint</text>
</g>
<!-- Node7&#45;&gt;Node8 -->
<g id="edge7" class="edge"><title>Node7&#45;&gt;Node8</title>
<path fill="none" stroke="midnightblue" d="M314.233,-56.4435C336.384,-47.5171 371.319,-33.4387 396.436,-23.3168"/>
<polygon fill="midnightblue" stroke="midnightblue" points="397.9,-26.5006 405.867,-19.5164 395.283,-20.0079 397.9,-26.5006"/>
</g>
<!-- Node9 -->
<g id="node9" class="node"><title>Node9</title>
<polygon fill="none" stroke="#bfbfbf" points="196,-0.5 196,-19.5 248,-19.5 248,-0.5 196,-0.5"/>
<text text-anchor="middle" x="222" y="-7.5" font-family="Helvetica,sans-Serif" font-size="10.00">memory</text>
</g>
<!-- Node7&#45;&gt;Node9 -->
<g id="edge8" class="edge"><title>Node7&#45;&gt;Node9</title>
<path fill="none" stroke="midnightblue" d="M281.593,-56.324C270.891,-48.1849 254.659,-35.8395 241.837,-26.0874"/>
<polygon fill="midnightblue" stroke="midnightblue" points="243.693,-23.1018 233.615,-19.8339 239.456,-28.6734 243.693,-23.1018"/>
</g>
<!-- Node7&#45;&gt;Node10 -->
<g id="edge9" class="edge"><title>Node7&#45;&gt;Node10</title>
<path fill="none" stroke="midnightblue" d="M270.183,-56.4435C246.168,-47.4381 208.171,-33.1891 181.131,-23.049"/>
<polygon fill="midnightblue" stroke="midnightblue" points="182.303,-19.7506 171.71,-19.5164 179.845,-26.3049 182.303,-19.7506"/>
</g>
<!-- Node11 -->
<g id="node11" class="node"><title>Node11</title>
<polygon fill="none" stroke="#bfbfbf" points="266,-0.5 266,-19.5 312,-19.5 312,-0.5 266,-0.5"/>
<text text-anchor="middle" x="289" y="-7.5" font-family="Helvetica,sans-Serif" font-size="10.00">cstring</text>
</g>
<!-- Node7&#45;&gt;Node11 -->
<g id="edge10" class="edge"><title>Node7&#45;&gt;Node11</title>
<path fill="none" stroke="midnightblue" d="M292.339,-56.083C291.815,-49.0059 291.064,-38.8611 290.406,-29.9865"/>
<polygon fill="midnightblue" stroke="midnightblue" points="293.877,-29.4652 289.648,-19.7511 286.897,-29.9823 293.877,-29.4652"/>
</g>
<!-- Node12 -->
<g id="node12" class="node"><title>Node12</title>
<polygon fill="none" stroke="#bfbfbf" points="330,-0.5 330,-19.5 386,-19.5 386,-0.5 330,-0.5"/>
<text text-anchor="middle" x="358" y="-7.5" font-family="Helvetica,sans-Serif" font-size="10.00">algorithm</text>
</g>
<!-- Node7&#45;&gt;Node12 -->
<g id="edge11" class="edge"><title>Node7&#45;&gt;Node12</title>
<path fill="none" stroke="midnightblue" d="M303.443,-56.324C313.146,-48.2631 327.815,-36.0765 339.5,-26.3695"/>
<polygon fill="midnightblue" stroke="midnightblue" points="341.911,-28.9163 347.367,-19.8339 337.438,-23.532 341.911,-28.9163"/>
</g>
</g>
</svg>
