<?xml version="1.0" encoding="UTF-8" standalone="no"?>
<!DOCTYPE svg PUBLIC "-//W3C//DTD SVG 1.1//EN"
 "http://www.w3.org/Graphics/SVG/1.1/DTD/svg11.dtd">
<!-- Generated by graphviz version 2.36.0 (20140111.2315)
 -->
<!-- Title: /home/travis/build/AliceO2Group/AliceO2/Utilities/QC/QCMerger/include/QCMerger/Merger.h Pages: 1 -->
<svg width="718pt" height="242pt"
 viewBox="0.00 0.00 718.00 242.00" xmlns="http://www.w3.org/2000/svg" xmlns:xlink="http://www.w3.org/1999/xlink">
<g id="graph0" class="graph" transform="scale(1 1) rotate(0) translate(4 238)">
<title>/home/travis/build/AliceO2Group/AliceO2/Utilities/QC/QCMerger/include/QCMerger/Merger.h</title>
<!-- Node1 -->
<g id="node1" class="node"><title>Node1</title>
<polygon fill="#bfbfbf" stroke="black" points="318,-181 318,-233 458,-233 458,-181 318,-181"/>
<text text-anchor="start" x="326" y="-221" font-family="Helvetica,sans-Serif" font-size="10.00">/home/travis/build</text>
<text text-anchor="start" x="326" y="-210" font-family="Helvetica,sans-Serif" font-size="10.00">/AliceO2Group/AliceO2</text>
<text text-anchor="start" x="326" y="-199" font-family="Helvetica,sans-Serif" font-size="10.00">/Utilities/QC/QCMerger</text>
<text text-anchor="middle" x="388" y="-188" font-family="Helvetica,sans-Serif" font-size="10.00">/include/QCMerger/Merger.h</text>
</g>
<!-- Node2 -->
<g id="node2" class="node"><title>Node2</title>
<g id="a_node2"><a xlink:href="../../d7/d2a/MergerDevice_8h.html" target="_top" xlink:title="/home/travis/build\l/AliceO2Group/AliceO2\l/Utilities/QC/QCMerger\l/include/QCMerger/MergerDevice.h">
<polygon fill="none" stroke="black" points="190,-91 190,-143 360,-143 360,-91 190,-91"/>
<text text-anchor="start" x="198" y="-131" font-family="Helvetica,sans-Serif" font-size="10.00">/home/travis/build</text>
<text text-anchor="start" x="198" y="-120" font-family="Helvetica,sans-Serif" font-size="10.00">/AliceO2Group/AliceO2</text>
<text text-anchor="start" x="198" y="-109" font-family="Helvetica,sans-Serif" font-size="10.00">/Utilities/QC/QCMerger</text>
<text text-anchor="middle" x="275" y="-98" font-family="Helvetica,sans-Serif" font-size="10.00">/include/QCMerger/MergerDevice.h</text>
</a>
</g>
</g>
<!-- Node1&#45;&gt;Node2 -->
<g id="edge1" class="edge"><title>Node1&#45;&gt;Node2</title>
<path fill="none" stroke="midnightblue" d="M347.594,-174.534C334.395,-164.254 319.916,-152.979 307.386,-143.221"/>
<polygon fill="midnightblue" stroke="midnightblue" points="345.578,-177.4 355.619,-180.783 349.879,-171.877 345.578,-177.4"/>
</g>
<!-- Node4 -->
<g id="node4" class="node"><title>Node4</title>
<g id="a_node4"><a xlink:href="../../d3/d4e/runMerger_8cxx.html" target="_top" xlink:title="/home/travis/build\l/AliceO2Group/AliceO2\l/Utilities/QC/QCMerger\l/src/runMerger.cxx">
<polygon fill="none" stroke="black" points="-0.5,-1 -0.5,-53 118.5,-53 118.5,-1 -0.5,-1"/>
<text text-anchor="start" x="7.5" y="-41" font-family="Helvetica,sans-Serif" font-size="10.00">/home/travis/build</text>
<text text-anchor="start" x="7.5" y="-30" font-family="Helvetica,sans-Serif" font-size="10.00">/AliceO2Group/AliceO2</text>
<text text-anchor="start" x="7.5" y="-19" font-family="Helvetica,sans-Serif" font-size="10.00">/Utilities/QC/QCMerger</text>
<text text-anchor="middle" x="59" y="-8" font-family="Helvetica,sans-Serif" font-size="10.00">/src/runMerger.cxx</text>
</a>
</g>
</g>
<!-- Node1&#45;&gt;Node4 -->
<g id="edge7" class="edge"><title>Node1&#45;&gt;Node4</title>
<path fill="none" stroke="midnightblue" d="M307.624,-191.184C267.734,-181.583 219.891,-166.558 181,-144 139.791,-120.098 101.599,-79.6058 79.2886,-53.3404"/>
<polygon fill="midnightblue" stroke="midnightblue" points="307.051,-194.644 317.584,-193.509 308.642,-187.827 307.051,-194.644"/>
</g>
<!-- Node6 -->
<g id="node6" class="node"><title>Node6</title>
<g id="a_node6"><a xlink:href="../../d7/d96/MergerTestSuite_8cxx.html" target="_top" xlink:title="/home/travis/build\l/AliceO2Group/AliceO2\l/Utilities/QC/QCMerger\l/test/MergerTestSuite.cxx">
<polygon fill="none" stroke="black" points="453,-1 453,-53 583,-53 583,-1 453,-1"/>
<text text-anchor="start" x="461" y="-41" font-family="Helvetica,sans-Serif" font-size="10.00">/home/travis/build</text>
<text text-anchor="start" x="461" y="-30" font-family="Helvetica,sans-Serif" font-size="10.00">/AliceO2Group/AliceO2</text>
<text text-anchor="start" x="461" y="-19" font-family="Helvetica,sans-Serif" font-size="10.00">/Utilities/QC/QCMerger</text>
<text text-anchor="middle" x="518" y="-8" font-family="Helvetica,sans-Serif" font-size="10.00">/test/MergerTestSuite.cxx</text>
</a>
</g>
</g>
<!-- Node1&#45;&gt;Node6 -->
<g id="edge8" class="edge"><title>Node1&#45;&gt;Node6</title>
<path fill="none" stroke="midnightblue" d="M386.442,-170.535C387.077,-145.883 391.513,-113.382 408,-90 419.243,-74.0547 435.964,-61.7028 452.995,-52.3729"/>
<polygon fill="midnightblue" stroke="midnightblue" points="382.942,-170.549 386.379,-180.571 389.942,-170.593 382.942,-170.549"/>
</g>
<!-- Node7 -->
<g id="node7" class="node"><title>Node7</title>
<g id="a_node7"><a xlink:href="../../dd/d7b/Utilities_2QC_2QCMerger_2src_2Merger_8cxx.html" target="_top" xlink:title="/home/travis/build\l/AliceO2Group/AliceO2\l/Utilities/QC/QCMerger\l/src/Merger.cxx">
<polygon fill="none" stroke="black" points="416.5,-91 416.5,-143 535.5,-143 535.5,-91 416.5,-91"/>
<text text-anchor="start" x="424.5" y="-131" font-family="Helvetica,sans-Serif" font-size="10.00">/home/travis/build</text>
<text text-anchor="start" x="424.5" y="-120" font-family="Helvetica,sans-Serif" font-size="10.00">/AliceO2Group/AliceO2</text>
<text text-anchor="start" x="424.5" y="-109" font-family="Helvetica,sans-Serif" font-size="10.00">/Utilities/QC/QCMerger</text>
<text text-anchor="middle" x="476" y="-98" font-family="Helvetica,sans-Serif" font-size="10.00">/src/Merger.cxx</text>
</a>
</g>
</g>
<!-- Node1&#45;&gt;Node7 -->
<g id="edge6" class="edge"><title>Node1&#45;&gt;Node7</title>
<path fill="none" stroke="midnightblue" d="M420.569,-173.431C430.593,-163.407 441.467,-152.533 450.908,-143.092"/>
<polygon fill="midnightblue" stroke="midnightblue" points="418.049,-171.001 413.453,-180.547 422.999,-175.951 418.049,-171.001"/>
</g>
<!-- Node8 -->
<g id="node8" class="node"><title>Node8</title>
<g id="a_node8"><a xlink:href="../../d0/d94/RootObjectMergerSpec_8cxx.html" target="_top" xlink:title="Processor spec for a merger for ROOT objects. ">
<polygon fill="none" stroke="black" points="553.5,-91 553.5,-143 710.5,-143 710.5,-91 553.5,-91"/>
<text text-anchor="start" x="561.5" y="-131" font-family="Helvetica,sans-Serif" font-size="10.00">/home/travis/build</text>
<text text-anchor="start" x="561.5" y="-120" font-family="Helvetica,sans-Serif" font-size="10.00">/AliceO2Group/AliceO2</text>
<text text-anchor="start" x="561.5" y="-109" font-family="Helvetica,sans-Serif" font-size="10.00">/Utilities/QC/Workflow</text>
<text text-anchor="middle" x="632" y="-98" font-family="Helvetica,sans-Serif" font-size="10.00">/src/RootObjectMergerSpec.cxx</text>
</a>
</g>
</g>
<!-- Node1&#45;&gt;Node8 -->
<g id="edge9" class="edge"><title>Node1&#45;&gt;Node8</title>
<path fill="none" stroke="midnightblue" d="M467.376,-177.372C497.985,-166.333 532.688,-153.817 562.313,-143.133"/>
<polygon fill="midnightblue" stroke="midnightblue" points="465.814,-174.215 457.594,-180.901 468.188,-180.8 465.814,-174.215"/>
</g>
<!-- Node3 -->
<g id="node3" class="node"><title>Node3</title>
<g id="a_node3"><a xlink:href="../../d6/d9b/MergerDevice_8cxx.html" target="_top" xlink:title="/home/travis/build\l/AliceO2Group/AliceO2\l/Utilities/QC/QCMerger\l/src/MergerDevice.cxx">
<polygon fill="none" stroke="black" points="136.5,-1 136.5,-53 255.5,-53 255.5,-1 136.5,-1"/>
<text text-anchor="start" x="144.5" y="-41" font-family="Helvetica,sans-Serif" font-size="10.00">/home/travis/build</text>
<text text-anchor="start" x="144.5" y="-30" font-family="Helvetica,sans-Serif" font-size="10.00">/AliceO2Group/AliceO2</text>
<text text-anchor="start" x="144.5" y="-19" font-family="Helvetica,sans-Serif" font-size="10.00">/Utilities/QC/QCMerger</text>
<text text-anchor="middle" x="196" y="-8" font-family="Helvetica,sans-Serif" font-size="10.00">/src/MergerDevice.cxx</text>
</a>
</g>
</g>
<!-- Node2&#45;&gt;Node3 -->
<g id="edge2" class="edge"><title>Node2&#45;&gt;Node3</title>
<path fill="none" stroke="midnightblue" d="M245.237,-82.8459C236.384,-72.9851 226.836,-62.3492 218.526,-53.0921"/>
<polygon fill="midnightblue" stroke="midnightblue" points="242.865,-85.4435 252.15,-90.5468 248.074,-80.7673 242.865,-85.4435"/>
</g>
<!-- Node2&#45;&gt;Node4 -->
<g id="edge3" class="edge"><title>Node2&#45;&gt;Node4</title>
<path fill="none" stroke="midnightblue" d="M203.823,-87.0021C176.304,-75.7907 145.162,-63.103 118.826,-52.3737"/>
<polygon fill="midnightblue" stroke="midnightblue" points="202.811,-90.3688 213.392,-90.9005 205.452,-83.8861 202.811,-90.3688"/>
</g>
<!-- Node5 -->
<g id="node5" class="node"><title>Node5</title>
<g id="a_node5"><a xlink:href="../../df/d43/MergerDeviceTestSuite_8cxx.html" target="_top" xlink:title="/home/travis/build\l/AliceO2Group/AliceO2\l/Utilities/QC/QCMerger\l/test/MergerDeviceTestSuite.cxx">
<polygon fill="none" stroke="black" points="273.5,-1 273.5,-53 434.5,-53 434.5,-1 273.5,-1"/>
<text text-anchor="start" x="281.5" y="-41" font-family="Helvetica,sans-Serif" font-size="10.00">/home/travis/build</text>
<text text-anchor="start" x="281.5" y="-30" font-family="Helvetica,sans-Serif" font-size="10.00">/AliceO2Group/AliceO2</text>
<text text-anchor="start" x="281.5" y="-19" font-family="Helvetica,sans-Serif" font-size="10.00">/Utilities/QC/QCMerger</text>
<text text-anchor="middle" x="354" y="-8" font-family="Helvetica,sans-Serif" font-size="10.00">/test/MergerDeviceTestSuite.cxx</text>
</a>
</g>
</g>
<!-- Node2&#45;&gt;Node5 -->
<g id="edge4" class="edge"><title>Node2&#45;&gt;Node5</title>
<path fill="none" stroke="midnightblue" d="M304.763,-82.8459C313.616,-72.9851 323.164,-62.3492 331.474,-53.0921"/>
<polygon fill="midnightblue" stroke="midnightblue" points="301.926,-80.7673 297.85,-90.5468 307.135,-85.4435 301.926,-80.7673"/>
</g>
<!-- Node2&#45;&gt;Node6 -->
<g id="edge5" class="edge"><title>Node2&#45;&gt;Node6</title>
<path fill="none" stroke="midnightblue" d="M354.063,-87.3681C385.993,-75.8049 422.396,-62.6222 452.774,-51.621"/>
<polygon fill="midnightblue" stroke="midnightblue" points="352.52,-84.2046 344.309,-90.9005 354.903,-90.7863 352.52,-84.2046"/>
</g>
</g>
</svg>
