<?xml version="1.0" encoding="UTF-8" standalone="no"?>
<!DOCTYPE svg PUBLIC "-//W3C//DTD SVG 1.1//EN"
 "http://www.w3.org/Graphics/SVG/1.1/DTD/svg11.dtd">
<!-- Generated by graphviz version 2.36.0 (20140111.2315)
 -->
<!-- Title: /home/travis/build/AliceO2Group/AliceO2/Algorithm/include/Algorithm/O2FormatParser.h Pages: 1 -->
<svg width="330pt" height="230pt"
 viewBox="0.00 0.00 330.00 230.00" xmlns="http://www.w3.org/2000/svg" xmlns:xlink="http://www.w3.org/1999/xlink">
<g id="graph0" class="graph" transform="scale(1 1) rotate(0) translate(4 226)">
<title>/home/travis/build/AliceO2Group/AliceO2/Algorithm/include/Algorithm/O2FormatParser.h</title>
<!-- Node1 -->
<g id="node1" class="node"><title>Node1</title>
<polygon fill="#bfbfbf" stroke="black" points="89.5,-169 89.5,-221 228.5,-221 228.5,-169 89.5,-169"/>
<text text-anchor="start" x="97.5" y="-209" font-family="Helvetica,sans-Serif" font-size="10.00">/home/travis/build</text>
<text text-anchor="start" x="97.5" y="-198" font-family="Helvetica,sans-Serif" font-size="10.00">/AliceO2Group/AliceO2</text>
<text text-anchor="start" x="97.5" y="-187" font-family="Helvetica,sans-Serif" font-size="10.00">/Algorithm/include/Algorithm</text>
<text text-anchor="middle" x="159" y="-176" font-family="Helvetica,sans-Serif" font-size="10.00">/O2FormatParser.h</text>
</g>
<!-- Node2 -->
<g id="node2" class="node"><title>Node2</title>
<g id="a_node2"><a xlink:href="../../d5/d11/HeaderStack_8h.html" target="_top" xlink:title="Utilities for the O2 header stack. ">
<polygon fill="none" stroke="black" points="118,-112.5 118,-131.5 200,-131.5 200,-112.5 118,-112.5"/>
<text text-anchor="middle" x="159" y="-119.5" font-family="Helvetica,sans-Serif" font-size="10.00">HeaderStack.h</text>
</a>
</g>
</g>
<!-- Node1&#45;&gt;Node2 -->
<g id="edge1" class="edge"><title>Node1&#45;&gt;Node2</title>
<path fill="none" stroke="midnightblue" d="M159,-168.768C159,-159.89 159,-150.074 159,-141.816"/>
<polygon fill="midnightblue" stroke="midnightblue" points="162.5,-141.757 159,-131.757 155.5,-141.757 162.5,-141.757"/>
</g>
<!-- Node3 -->
<g id="node3" class="node"><title>Node3</title>
<g id="a_node3"><a xlink:href="../../dc/dcd/DataHeader_8h.html" target="_top" xlink:title="Headers/DataHeader.h">
<polygon fill="none" stroke="black" points="100.5,-56.5 100.5,-75.5 217.5,-75.5 217.5,-56.5 100.5,-56.5"/>
<text text-anchor="middle" x="159" y="-63.5" font-family="Helvetica,sans-Serif" font-size="10.00">Headers/DataHeader.h</text>
</a>
</g>
</g>
<!-- Node2&#45;&gt;Node3 -->
<g id="edge2" class="edge"><title>Node2&#45;&gt;Node3</title>
<path fill="none" stroke="midnightblue" d="M159,-112.083C159,-105.006 159,-94.8611 159,-85.9865"/>
<polygon fill="midnightblue" stroke="midnightblue" points="162.5,-85.751 159,-75.7511 155.5,-85.7511 162.5,-85.751"/>
</g>
<!-- Node4 -->
<g id="node4" class="node"><title>Node4</title>
<polygon fill="none" stroke="#bfbfbf" points="0,-0.5 0,-19.5 46,-19.5 46,-0.5 0,-0.5"/>
<text text-anchor="middle" x="23" y="-7.5" font-family="Helvetica,sans-Serif" font-size="10.00">cstdint</text>
</g>
<!-- Node3&#45;&gt;Node4 -->
<g id="edge3" class="edge"><title>Node3&#45;&gt;Node4</title>
<path fill="none" stroke="midnightblue" d="M137.45,-56.4435C114.969,-47.5171 79.5123,-33.4387 54.0201,-23.3168"/>
<polygon fill="midnightblue" stroke="midnightblue" points="55.0346,-19.9539 44.4488,-19.5164 52.4513,-26.4598 55.0346,-19.9539"/>
</g>
<!-- Node5 -->
<g id="node5" class="node"><title>Node5</title>
<polygon fill="none" stroke="#bfbfbf" points="64,-0.5 64,-19.5 116,-19.5 116,-0.5 64,-0.5"/>
<text text-anchor="middle" x="90" y="-7.5" font-family="Helvetica,sans-Serif" font-size="10.00">memory</text>
</g>
<!-- Node3&#45;&gt;Node5 -->
<g id="edge4" class="edge"><title>Node3&#45;&gt;Node5</title>
<path fill="none" stroke="midnightblue" d="M147.914,-56.324C137.514,-48.1849 121.739,-35.8395 109.278,-26.0874"/>
<polygon fill="midnightblue" stroke="midnightblue" points="111.32,-23.2407 101.288,-19.8339 107.006,-28.7533 111.32,-23.2407"/>
</g>
<!-- Node6 -->
<g id="node6" class="node"><title>Node6</title>
<polygon fill="none" stroke="#bfbfbf" points="134.5,-0.5 134.5,-19.5 183.5,-19.5 183.5,-0.5 134.5,-0.5"/>
<text text-anchor="middle" x="159" y="-7.5" font-family="Helvetica,sans-Serif" font-size="10.00">cassert</text>
</g>
<!-- Node3&#45;&gt;Node6 -->
<g id="edge5" class="edge"><title>Node3&#45;&gt;Node6</title>
<path fill="none" stroke="midnightblue" d="M159,-56.083C159,-49.0059 159,-38.8611 159,-29.9865"/>
<polygon fill="midnightblue" stroke="midnightblue" points="162.5,-29.751 159,-19.7511 155.5,-29.7511 162.5,-29.751"/>
</g>
<!-- Node7 -->
<g id="node7" class="node"><title>Node7</title>
<polygon fill="none" stroke="#bfbfbf" points="202,-0.5 202,-19.5 248,-19.5 248,-0.5 202,-0.5"/>
<text text-anchor="middle" x="225" y="-7.5" font-family="Helvetica,sans-Serif" font-size="10.00">cstring</text>
</g>
<!-- Node3&#45;&gt;Node7 -->
<g id="edge6" class="edge"><title>Node3&#45;&gt;Node7</title>
<path fill="none" stroke="midnightblue" d="M169.604,-56.324C179.456,-48.2631 194.351,-36.0765 206.215,-26.3695"/>
<polygon fill="midnightblue" stroke="midnightblue" points="208.68,-28.8752 214.203,-19.8339 204.247,-23.4575 208.68,-28.8752"/>
</g>
<!-- Node8 -->
<g id="node8" class="node"><title>Node8</title>
<polygon fill="none" stroke="#bfbfbf" points="266,-0.5 266,-19.5 322,-19.5 322,-0.5 266,-0.5"/>
<text text-anchor="middle" x="294" y="-7.5" font-family="Helvetica,sans-Serif" font-size="10.00">algorithm</text>
</g>
<!-- Node3&#45;&gt;Node8 -->
<g id="edge7" class="edge"><title>Node3&#45;&gt;Node8</title>
<path fill="none" stroke="midnightblue" d="M180.391,-56.4435C202.707,-47.5171 237.903,-33.4387 263.208,-23.3168"/>
<polygon fill="midnightblue" stroke="midnightblue" points="264.724,-26.4801 272.709,-19.5164 262.124,-19.9807 264.724,-26.4801"/>
</g>
</g>
</svg>
