<?xml version="1.0" encoding="UTF-8" standalone="no"?>
<!DOCTYPE svg PUBLIC "-//W3C//DTD SVG 1.1//EN"
 "http://www.w3.org/Graphics/SVG/1.1/DTD/svg11.dtd">
<!-- Generated by graphviz version 2.36.0 (20140111.2315)
 -->
<!-- Title: /home/travis/build/AliceO2Group/AliceO2/Utilities/QC/QCProducer/include/QCProducer/Producer.h Pages: 1 -->
<svg width="1542pt" height="242pt"
 viewBox="0.00 0.00 1542.00 242.00" xmlns="http://www.w3.org/2000/svg" xmlns:xlink="http://www.w3.org/1999/xlink">
<g id="graph0" class="graph" transform="scale(1 1) rotate(0) translate(4 238)">
<title>/home/travis/build/AliceO2Group/AliceO2/Utilities/QC/QCProducer/include/QCProducer/Producer.h</title>
<!-- Node1 -->
<g id="node1" class="node"><title>Node1</title>
<polygon fill="#bfbfbf" stroke="black" points="790,-181 790,-233 948,-233 948,-181 790,-181"/>
<text text-anchor="start" x="798" y="-221" font-family="Helvetica,sans-Serif" font-size="10.00">/home/travis/build</text>
<text text-anchor="start" x="798" y="-210" font-family="Helvetica,sans-Serif" font-size="10.00">/AliceO2Group/AliceO2</text>
<text text-anchor="start" x="798" y="-199" font-family="Helvetica,sans-Serif" font-size="10.00">/Utilities/QC/QCProducer</text>
<text text-anchor="middle" x="869" y="-188" font-family="Helvetica,sans-Serif" font-size="10.00">/include/QCProducer/Producer.h</text>
</g>
<!-- Node2 -->
<g id="node2" class="node"><title>Node2</title>
<g id="a_node2"><a xlink:href="../../d1/da7/ProducerDevice_8h.html" target="_top" xlink:title="/home/travis/build\l/AliceO2Group/AliceO2\l/Utilities/QC/QCProducer\l/include/QCProducer/ProducerDevice.h">
<polygon fill="none" stroke="black" points="187,-91 187,-143 375,-143 375,-91 187,-91"/>
<text text-anchor="start" x="195" y="-131" font-family="Helvetica,sans-Serif" font-size="10.00">/home/travis/build</text>
<text text-anchor="start" x="195" y="-120" font-family="Helvetica,sans-Serif" font-size="10.00">/AliceO2Group/AliceO2</text>
<text text-anchor="start" x="195" y="-109" font-family="Helvetica,sans-Serif" font-size="10.00">/Utilities/QC/QCProducer</text>
<text text-anchor="middle" x="281" y="-98" font-family="Helvetica,sans-Serif" font-size="10.00">/include/QCProducer/ProducerDevice.h</text>
</a>
</g>
</g>
<!-- Node1&#45;&gt;Node2 -->
<g id="edge1" class="edge"><title>Node1&#45;&gt;Node2</title>
<path fill="none" stroke="midnightblue" d="M779.442,-197.806C681.727,-188.109 520.94,-169.939 384,-144 381.101,-143.451 378.161,-142.869 375.199,-142.26"/>
<polygon fill="midnightblue" stroke="midnightblue" points="779.28,-201.306 789.575,-198.803 779.966,-194.34 779.28,-201.306"/>
</g>
<!-- Node7 -->
<g id="node7" class="node"><title>Node7</title>
<g id="a_node7"><a xlink:href="../../d3/d70/TH1Producer_8h.html" target="_top" xlink:title="/home/travis/build\l/AliceO2Group/AliceO2\l/Utilities/QC/QCProducer\l/include/QCProducer/TH1Producer.h">
<polygon fill="none" stroke="black" points="393,-91 393,-143 569,-143 569,-91 393,-91"/>
<text text-anchor="start" x="401" y="-131" font-family="Helvetica,sans-Serif" font-size="10.00">/home/travis/build</text>
<text text-anchor="start" x="401" y="-120" font-family="Helvetica,sans-Serif" font-size="10.00">/AliceO2Group/AliceO2</text>
<text text-anchor="start" x="401" y="-109" font-family="Helvetica,sans-Serif" font-size="10.00">/Utilities/QC/QCProducer</text>
<text text-anchor="middle" x="481" y="-98" font-family="Helvetica,sans-Serif" font-size="10.00">/include/QCProducer/TH1Producer.h</text>
</a>
</g>
</g>
<!-- Node1&#45;&gt;Node7 -->
<g id="edge6" class="edge"><title>Node1&#45;&gt;Node7</title>
<path fill="none" stroke="midnightblue" d="M779.88,-188.262C722.144,-176.463 645.418,-160.206 578,-144 575.118,-143.307 572.191,-142.592 569.238,-141.86"/>
<polygon fill="midnightblue" stroke="midnightblue" points="779.206,-191.697 789.704,-190.264 780.604,-184.838 779.206,-191.697"/>
</g>
<!-- Node9 -->
<g id="node9" class="node"><title>Node9</title>
<g id="a_node9"><a xlink:href="../../d6/d5e/RootObjectProducerSpec_8cxx.html" target="_top" xlink:title="Processor spec for a test data producer for ROOT objects. ">
<polygon fill="none" stroke="black" points="1076,-1 1076,-53 1242,-53 1242,-1 1076,-1"/>
<text text-anchor="start" x="1084" y="-41" font-family="Helvetica,sans-Serif" font-size="10.00">/home/travis/build</text>
<text text-anchor="start" x="1084" y="-30" font-family="Helvetica,sans-Serif" font-size="10.00">/AliceO2Group/AliceO2</text>
<text text-anchor="start" x="1084" y="-19" font-family="Helvetica,sans-Serif" font-size="10.00">/Utilities/QC/Workflow</text>
<text text-anchor="middle" x="1159" y="-8" font-family="Helvetica,sans-Serif" font-size="10.00">/src/RootObjectProducerSpec.cxx</text>
</a>
</g>
</g>
<!-- Node1&#45;&gt;Node9 -->
<g id="edge32" class="edge"><title>Node1&#45;&gt;Node9</title>
<path fill="none" stroke="midnightblue" d="M958.414,-200.846C1091.12,-192.271 1327.4,-173.092 1353,-144 1368.86,-125.984 1367.15,-109.382 1353,-90 1349.4,-85.0652 1293.11,-67.3786 1242.09,-52.1523"/>
<polygon fill="midnightblue" stroke="midnightblue" points="958.015,-197.364 948.259,-201.494 958.462,-204.35 958.015,-197.364"/>
</g>
<!-- Node10 -->
<g id="node10" class="node"><title>Node10</title>
<g id="a_node10"><a xlink:href="../../dc/d5c/TH2Producer_8h.html" target="_top" xlink:title="/home/travis/build\l/AliceO2Group/AliceO2\l/Utilities/QC/QCProducer\l/include/QCProducer/TH2Producer.h">
<polygon fill="none" stroke="black" points="1169,-91 1169,-143 1345,-143 1345,-91 1169,-91"/>
<text text-anchor="start" x="1177" y="-131" font-family="Helvetica,sans-Serif" font-size="10.00">/home/travis/build</text>
<text text-anchor="start" x="1177" y="-120" font-family="Helvetica,sans-Serif" font-size="10.00">/AliceO2Group/AliceO2</text>
<text text-anchor="start" x="1177" y="-109" font-family="Helvetica,sans-Serif" font-size="10.00">/Utilities/QC/QCProducer</text>
<text text-anchor="middle" x="1257" y="-98" font-family="Helvetica,sans-Serif" font-size="10.00">/include/QCProducer/TH2Producer.h</text>
</a>
</g>
</g>
<!-- Node1&#45;&gt;Node10 -->
<g id="edge12" class="edge"><title>Node1&#45;&gt;Node10</title>
<path fill="none" stroke="midnightblue" d="M958.12,-188.262C1015.86,-176.463 1092.58,-160.206 1160,-144 1162.88,-143.307 1165.81,-142.592 1168.76,-141.86"/>
<polygon fill="midnightblue" stroke="midnightblue" points="957.396,-184.838 948.296,-190.264 958.794,-191.697 957.396,-184.838"/>
</g>
<!-- Node12 -->
<g id="node12" class="node"><title>Node12</title>
<g id="a_node12"><a xlink:href="../../d4/d0c/TH3Producer_8h.html" target="_top" xlink:title="/home/travis/build\l/AliceO2Group/AliceO2\l/Utilities/QC/QCProducer\l/include/QCProducer/TH3Producer.h">
<polygon fill="none" stroke="black" points="587,-91 587,-143 763,-143 763,-91 587,-91"/>
<text text-anchor="start" x="595" y="-131" font-family="Helvetica,sans-Serif" font-size="10.00">/home/travis/build</text>
<text text-anchor="start" x="595" y="-120" font-family="Helvetica,sans-Serif" font-size="10.00">/AliceO2Group/AliceO2</text>
<text text-anchor="start" x="595" y="-109" font-family="Helvetica,sans-Serif" font-size="10.00">/Utilities/QC/QCProducer</text>
<text text-anchor="middle" x="675" y="-98" font-family="Helvetica,sans-Serif" font-size="10.00">/include/QCProducer/TH3Producer.h</text>
</a>
</g>
</g>
<!-- Node1&#45;&gt;Node12 -->
<g id="edge17" class="edge"><title>Node1&#45;&gt;Node12</title>
<path fill="none" stroke="midnightblue" d="M804.304,-176.654C780.36,-165.792 753.451,-153.586 730.406,-143.133"/>
<polygon fill="midnightblue" stroke="midnightblue" points="803.114,-179.957 813.667,-180.901 806.006,-173.582 803.114,-179.957"/>
</g>
<!-- Node14 -->
<g id="node14" class="node"><title>Node14</title>
<g id="a_node14"><a xlink:href="../../dc/d8e/THnProducer_8h.html" target="_top" xlink:title="/home/travis/build\l/AliceO2Group/AliceO2\l/Utilities/QC/QCProducer\l/include/QCProducer/THnProducer.h">
<polygon fill="none" stroke="black" points="781,-91 781,-143 957,-143 957,-91 781,-91"/>
<text text-anchor="start" x="789" y="-131" font-family="Helvetica,sans-Serif" font-size="10.00">/home/travis/build</text>
<text text-anchor="start" x="789" y="-120" font-family="Helvetica,sans-Serif" font-size="10.00">/AliceO2Group/AliceO2</text>
<text text-anchor="start" x="789" y="-109" font-family="Helvetica,sans-Serif" font-size="10.00">/Utilities/QC/QCProducer</text>
<text text-anchor="middle" x="869" y="-98" font-family="Helvetica,sans-Serif" font-size="10.00">/include/QCProducer/THnProducer.h</text>
</a>
</g>
</g>
<!-- Node1&#45;&gt;Node14 -->
<g id="edge22" class="edge"><title>Node1&#45;&gt;Node14</title>
<path fill="none" stroke="midnightblue" d="M869,-170.489C869,-161.309 869,-151.616 869,-143.092"/>
<polygon fill="midnightblue" stroke="midnightblue" points="865.5,-170.547 869,-180.547 872.5,-170.547 865.5,-170.547"/>
</g>
<!-- Node16 -->
<g id="node16" class="node"><title>Node16</title>
<g id="a_node16"><a xlink:href="../../de/d4a/TreeProducer_8h.html" target="_top" xlink:title="/home/travis/build\l/AliceO2Group/AliceO2\l/Utilities/QC/QCProducer\l/include/QCProducer/TreeProducer.h">
<polygon fill="none" stroke="black" points="974.5,-91 974.5,-143 1151.5,-143 1151.5,-91 974.5,-91"/>
<text text-anchor="start" x="982.5" y="-131" font-family="Helvetica,sans-Serif" font-size="10.00">/home/travis/build</text>
<text text-anchor="start" x="982.5" y="-120" font-family="Helvetica,sans-Serif" font-size="10.00">/AliceO2Group/AliceO2</text>
<text text-anchor="start" x="982.5" y="-109" font-family="Helvetica,sans-Serif" font-size="10.00">/Utilities/QC/QCProducer</text>
<text text-anchor="middle" x="1063" y="-98" font-family="Helvetica,sans-Serif" font-size="10.00">/include/QCProducer/TreeProducer.h</text>
</a>
</g>
</g>
<!-- Node1&#45;&gt;Node16 -->
<g id="edge27" class="edge"><title>Node1&#45;&gt;Node16</title>
<path fill="none" stroke="midnightblue" d="M933.696,-176.654C957.64,-165.792 984.549,-153.586 1007.59,-143.133"/>
<polygon fill="midnightblue" stroke="midnightblue" points="931.994,-173.582 924.333,-180.901 934.886,-179.957 931.994,-173.582"/>
</g>
<!-- Node3 -->
<g id="node3" class="node"><title>Node3</title>
<g id="a_node3"><a xlink:href="../../d5/dc5/ProducerDevice_8cxx.html" target="_top" xlink:title="/home/travis/build\l/AliceO2Group/AliceO2\l/Utilities/QC/QCProducer\l/src/ProducerDevice.cxx">
<polygon fill="none" stroke="black" points="0,-1 0,-53 128,-53 128,-1 0,-1"/>
<text text-anchor="start" x="8" y="-41" font-family="Helvetica,sans-Serif" font-size="10.00">/home/travis/build</text>
<text text-anchor="start" x="8" y="-30" font-family="Helvetica,sans-Serif" font-size="10.00">/AliceO2Group/AliceO2</text>
<text text-anchor="start" x="8" y="-19" font-family="Helvetica,sans-Serif" font-size="10.00">/Utilities/QC/QCProducer</text>
<text text-anchor="middle" x="64" y="-8" font-family="Helvetica,sans-Serif" font-size="10.00">/src/ProducerDevice.cxx</text>
</a>
</g>
</g>
<!-- Node2&#45;&gt;Node3 -->
<g id="edge2" class="edge"><title>Node2&#45;&gt;Node3</title>
<path fill="none" stroke="midnightblue" d="M209.699,-87.0854C182.651,-76.1167 152.095,-63.725 125.975,-53.1328"/>
<polygon fill="midnightblue" stroke="midnightblue" points="208.525,-90.3858 219.107,-90.9005 211.155,-83.8989 208.525,-90.3858"/>
</g>
<!-- Node4 -->
<g id="node4" class="node"><title>Node4</title>
<g id="a_node4"><a xlink:href="../../d0/d05/runProducer_8cxx.html" target="_top" xlink:title="/home/travis/build\l/AliceO2Group/AliceO2\l/Utilities/QC/QCProducer\l/src/runProducer.cxx">
<polygon fill="none" stroke="black" points="784,-1 784,-53 912,-53 912,-1 784,-1"/>
<text text-anchor="start" x="792" y="-41" font-family="Helvetica,sans-Serif" font-size="10.00">/home/travis/build</text>
<text text-anchor="start" x="792" y="-30" font-family="Helvetica,sans-Serif" font-size="10.00">/AliceO2Group/AliceO2</text>
<text text-anchor="start" x="792" y="-19" font-family="Helvetica,sans-Serif" font-size="10.00">/Utilities/QC/QCProducer</text>
<text text-anchor="middle" x="848" y="-8" font-family="Helvetica,sans-Serif" font-size="10.00">/src/runProducer.cxx</text>
</a>
</g>
</g>
<!-- Node2&#45;&gt;Node4 -->
<g id="edge3" class="edge"><title>Node2&#45;&gt;Node4</title>
<path fill="none" stroke="midnightblue" d="M385.081,-89.943C557.408,-61.719 607.092,-90.4421 774,-54 777.193,-53.3029 780.438,-52.5079 783.696,-51.6397"/>
<polygon fill="midnightblue" stroke="midnightblue" points="384.457,-86.4987 375.174,-91.6057 385.616,-93.4022 384.457,-86.4987"/>
</g>
<!-- Node5 -->
<g id="node5" class="node"><title>Node5</title>
<g id="a_node5"><a xlink:href="../../da/d94/ProducerDeviceTestSuite_8cxx.html" target="_top" xlink:title="/home/travis/build\l/AliceO2Group/AliceO2\l/Utilities/QC/QCProducer\l/test/ProducerDeviceTestSuite.cxx">
<polygon fill="none" stroke="black" points="146,-1 146,-53 316,-53 316,-1 146,-1"/>
<text text-anchor="start" x="154" y="-41" font-family="Helvetica,sans-Serif" font-size="10.00">/home/travis/build</text>
<text text-anchor="start" x="154" y="-30" font-family="Helvetica,sans-Serif" font-size="10.00">/AliceO2Group/AliceO2</text>
<text text-anchor="start" x="154" y="-19" font-family="Helvetica,sans-Serif" font-size="10.00">/Utilities/QC/QCProducer</text>
<text text-anchor="middle" x="231" y="-8" font-family="Helvetica,sans-Serif" font-size="10.00">/test/ProducerDeviceTestSuite.cxx</text>
</a>
</g>
</g>
<!-- Node2&#45;&gt;Node5 -->
<g id="edge4" class="edge"><title>Node2&#45;&gt;Node5</title>
<path fill="none" stroke="midnightblue" d="M261.495,-81.6708C256.082,-72.1448 250.308,-61.9826 245.257,-53.0921"/>
<polygon fill="midnightblue" stroke="midnightblue" points="258.555,-83.5812 266.538,-90.5468 264.641,-80.1231 258.555,-83.5812"/>
</g>
<!-- Node6 -->
<g id="node6" class="node"><title>Node6</title>
<g id="a_node6"><a xlink:href="../../d1/d06/ProducerTestSuite_8cxx.html" target="_top" xlink:title="/home/travis/build\l/AliceO2Group/AliceO2\l/Utilities/QC/QCProducer\l/test/ProducerTestSuite.cxx">
<polygon fill="none" stroke="black" points="626.5,-1 626.5,-53 765.5,-53 765.5,-1 626.5,-1"/>
<text text-anchor="start" x="634.5" y="-41" font-family="Helvetica,sans-Serif" font-size="10.00">/home/travis/build</text>
<text text-anchor="start" x="634.5" y="-30" font-family="Helvetica,sans-Serif" font-size="10.00">/AliceO2Group/AliceO2</text>
<text text-anchor="start" x="634.5" y="-19" font-family="Helvetica,sans-Serif" font-size="10.00">/Utilities/QC/QCProducer</text>
<text text-anchor="middle" x="696" y="-8" font-family="Helvetica,sans-Serif" font-size="10.00">/test/ProducerTestSuite.cxx</text>
</a>
</g>
</g>
<!-- Node2&#45;&gt;Node6 -->
<g id="edge5" class="edge"><title>Node2&#45;&gt;Node6</title>
<path fill="none" stroke="midnightblue" d="M385.118,-89.8657C488.478,-69.6866 518.195,-77.7211 617,-54 620.089,-53.2584 623.23,-52.4523 626.392,-51.5982"/>
<polygon fill="midnightblue" stroke="midnightblue" points="384.341,-86.4517 375.218,-91.8399 385.71,-93.3166 384.341,-86.4517"/>
</g>
<!-- Node7&#45;&gt;Node4 -->
<g id="edge7" class="edge"><title>Node7&#45;&gt;Node4</title>
<path fill="none" stroke="midnightblue" d="M578.994,-89.8647C666.163,-70.9213 691.412,-75.9492 774,-54 777.158,-53.1606 780.375,-52.25 783.611,-51.2891"/>
<polygon fill="midnightblue" stroke="midnightblue" points="578.219,-86.4516 569.213,-92.0334 579.734,-93.2856 578.219,-86.4516"/>
</g>
<!-- Node7&#45;&gt;Node5 -->
<g id="edge9" class="edge"><title>Node7&#45;&gt;Node5</title>
<path fill="none" stroke="midnightblue" d="M400.079,-87.5157C368.618,-76.4416 332.886,-63.8637 302.4,-53.1328"/>
<polygon fill="midnightblue" stroke="midnightblue" points="399.1,-90.8816 409.695,-90.9005 401.424,-84.2787 399.1,-90.8816"/>
</g>
<!-- Node7&#45;&gt;Node6 -->
<g id="edge10" class="edge"><title>Node7&#45;&gt;Node6</title>
<path fill="none" stroke="midnightblue" d="M551.644,-87.0854C578.442,-76.1167 608.717,-63.725 634.596,-53.1328"/>
<polygon fill="midnightblue" stroke="midnightblue" points="550.252,-83.8733 542.323,-90.9005 552.903,-90.3516 550.252,-83.8733"/>
</g>
<!-- Node8 -->
<g id="node8" class="node"><title>Node8</title>
<g id="a_node8"><a xlink:href="../../d8/d3c/TH1Producer_8cxx.html" target="_top" xlink:title="/home/travis/build\l/AliceO2Group/AliceO2\l/Utilities/QC/QCProducer\l/src/TH1Producer.cxx">
<polygon fill="none" stroke="black" points="334,-1 334,-53 462,-53 462,-1 334,-1"/>
<text text-anchor="start" x="342" y="-41" font-family="Helvetica,sans-Serif" font-size="10.00">/home/travis/build</text>
<text text-anchor="start" x="342" y="-30" font-family="Helvetica,sans-Serif" font-size="10.00">/AliceO2Group/AliceO2</text>
<text text-anchor="start" x="342" y="-19" font-family="Helvetica,sans-Serif" font-size="10.00">/Utilities/QC/QCProducer</text>
<text text-anchor="middle" x="398" y="-8" font-family="Helvetica,sans-Serif" font-size="10.00">/src/TH1Producer.cxx</text>
</a>
</g>
</g>
<!-- Node7&#45;&gt;Node8 -->
<g id="edge8" class="edge"><title>Node7&#45;&gt;Node8</title>
<path fill="none" stroke="midnightblue" d="M450.006,-83.1386C440.628,-73.1958 430.484,-62.4408 421.666,-53.0921"/>
<polygon fill="midnightblue" stroke="midnightblue" points="447.585,-85.6735 456.993,-90.5468 452.678,-80.8705 447.585,-85.6735"/>
</g>
<!-- Node7&#45;&gt;Node9 -->
<g id="edge11" class="edge"><title>Node7&#45;&gt;Node9</title>
<path fill="none" stroke="midnightblue" d="M579.18,-89.9488C794.702,-54.7675 855.635,-91.2527 1067,-54 1069.94,-53.4814 1072.93,-52.9072 1075.93,-52.2878"/>
<polygon fill="midnightblue" stroke="midnightblue" points="578.421,-86.5269 569.132,-91.6222 579.571,-93.4317 578.421,-86.5269"/>
</g>
<!-- Node10&#45;&gt;Node4 -->
<g id="edge13" class="edge"><title>Node10&#45;&gt;Node4</title>
<path fill="none" stroke="midnightblue" d="M1159.01,-89.9059C1053.04,-68.7348 1022.14,-79.3761 921,-54 918.129,-53.2797 915.213,-52.4912 912.28,-51.6515"/>
<polygon fill="midnightblue" stroke="midnightblue" points="1158.31,-93.3362 1168.81,-91.9117 1159.72,-86.4782 1158.31,-93.3362"/>
</g>
<!-- Node10&#45;&gt;Node6 -->
<g id="edge15" class="edge"><title>Node10&#45;&gt;Node6</title>
<path fill="none" stroke="midnightblue" d="M1158.83,-89.9325C988.988,-60.7428 940.035,-88.416 775,-54 771.89,-53.3515 768.732,-52.6225 765.555,-51.8315"/>
<polygon fill="midnightblue" stroke="midnightblue" points="1158.4,-93.4113 1168.85,-91.6976 1159.61,-86.5172 1158.4,-93.4113"/>
</g>
<!-- Node10&#45;&gt;Node9 -->
<g id="edge16" class="edge"><title>Node10&#45;&gt;Node9</title>
<path fill="none" stroke="midnightblue" d="M1221.31,-83.9506C1210.04,-73.8293 1197.75,-62.795 1187.09,-53.221"/>
<polygon fill="midnightblue" stroke="midnightblue" points="1219.14,-86.7056 1228.92,-90.7827 1223.82,-81.4973 1219.14,-86.7056"/>
</g>
<!-- Node11 -->
<g id="node11" class="node"><title>Node11</title>
<g id="a_node11"><a xlink:href="../../db/d28/TH2Producer_8cxx.html" target="_top" xlink:title="/home/travis/build\l/AliceO2Group/AliceO2\l/Utilities/QC/QCProducer\l/src/TH2Producer.cxx">
<polygon fill="none" stroke="black" points="1406,-1 1406,-53 1534,-53 1534,-1 1406,-1"/>
<text text-anchor="start" x="1414" y="-41" font-family="Helvetica,sans-Serif" font-size="10.00">/home/travis/build</text>
<text text-anchor="start" x="1414" y="-30" font-family="Helvetica,sans-Serif" font-size="10.00">/AliceO2Group/AliceO2</text>
<text text-anchor="start" x="1414" y="-19" font-family="Helvetica,sans-Serif" font-size="10.00">/Utilities/QC/QCProducer</text>
<text text-anchor="middle" x="1470" y="-8" font-family="Helvetica,sans-Serif" font-size="10.00">/src/TH2Producer.cxx</text>
</a>
</g>
</g>
<!-- Node10&#45;&gt;Node11 -->
<g id="edge14" class="edge"><title>Node10&#45;&gt;Node11</title>
<path fill="none" stroke="midnightblue" d="M1327.33,-86.9416C1353.8,-76.0085 1383.64,-63.6787 1409.17,-53.1328"/>
<polygon fill="midnightblue" stroke="midnightblue" points="1325.66,-83.8472 1317.75,-90.9005 1328.33,-90.3168 1325.66,-83.8472"/>
</g>
<!-- Node12&#45;&gt;Node4 -->
<g id="edge18" class="edge"><title>Node12&#45;&gt;Node4</title>
<path fill="none" stroke="midnightblue" d="M733.771,-86.1047C754.894,-75.3602 778.484,-63.3607 798.717,-53.0687"/>
<polygon fill="midnightblue" stroke="midnightblue" points="731.901,-83.1292 724.575,-90.7827 735.075,-89.3684 731.901,-83.1292"/>
</g>
<!-- Node12&#45;&gt;Node6 -->
<g id="edge20" class="edge"><title>Node12&#45;&gt;Node6</title>
<path fill="none" stroke="midnightblue" d="M683.404,-80.7852C685.615,-71.5174 687.956,-61.7076 690.012,-53.0921"/>
<polygon fill="midnightblue" stroke="midnightblue" points="679.991,-80.0074 681.074,-90.5468 686.8,-81.6323 679.991,-80.0074"/>
</g>
<!-- Node12&#45;&gt;Node9 -->
<g id="edge21" class="edge"><title>Node12&#45;&gt;Node9</title>
<path fill="none" stroke="midnightblue" d="M773.129,-89.9042C903.471,-65.5571 940.669,-79.402 1067,-54 1069.93,-53.4111 1072.9,-52.7764 1075.9,-52.1053"/>
<polygon fill="midnightblue" stroke="midnightblue" points="772.332,-86.4929 763.165,-91.805 773.644,-93.3689 772.332,-86.4929"/>
</g>
<!-- Node13 -->
<g id="node13" class="node"><title>Node13</title>
<g id="a_node13"><a xlink:href="../../d1/d3e/TH3Producer_8cxx.html" target="_top" xlink:title="/home/travis/build\l/AliceO2Group/AliceO2\l/Utilities/QC/QCProducer\l/src/TH3Producer.cxx">
<polygon fill="none" stroke="black" points="480,-1 480,-53 608,-53 608,-1 480,-1"/>
<text text-anchor="start" x="488" y="-41" font-family="Helvetica,sans-Serif" font-size="10.00">/home/travis/build</text>
<text text-anchor="start" x="488" y="-30" font-family="Helvetica,sans-Serif" font-size="10.00">/AliceO2Group/AliceO2</text>
<text text-anchor="start" x="488" y="-19" font-family="Helvetica,sans-Serif" font-size="10.00">/Utilities/QC/QCProducer</text>
<text text-anchor="middle" x="544" y="-8" font-family="Helvetica,sans-Serif" font-size="10.00">/src/TH3Producer.cxx</text>
</a>
</g>
</g>
<!-- Node12&#45;&gt;Node13 -->
<g id="edge19" class="edge"><title>Node12&#45;&gt;Node13</title>
<path fill="none" stroke="midnightblue" d="M629.022,-85.1143C613.49,-74.6802 596.345,-63.1632 581.545,-53.221"/>
<polygon fill="midnightblue" stroke="midnightblue" points="627.208,-88.1118 637.461,-90.7827 631.111,-82.3011 627.208,-88.1118"/>
</g>
<!-- Node14&#45;&gt;Node4 -->
<g id="edge23" class="edge"><title>Node14&#45;&gt;Node4</title>
<path fill="none" stroke="midnightblue" d="M860.596,-80.7852C858.385,-71.5174 856.044,-61.7076 853.988,-53.0921"/>
<polygon fill="midnightblue" stroke="midnightblue" points="857.2,-81.6323 862.926,-90.5468 864.009,-80.0074 857.2,-81.6323"/>
</g>
<!-- Node14&#45;&gt;Node6 -->
<g id="edge25" class="edge"><title>Node14&#45;&gt;Node6</title>
<path fill="none" stroke="midnightblue" d="M810.229,-86.1047C789.106,-75.3602 765.516,-63.3607 745.283,-53.0687"/>
<polygon fill="midnightblue" stroke="midnightblue" points="808.925,-89.3684 819.425,-90.7827 812.099,-83.1292 808.925,-89.3684"/>
</g>
<!-- Node14&#45;&gt;Node9 -->
<g id="edge26" class="edge"><title>Node14&#45;&gt;Node9</title>
<path fill="none" stroke="midnightblue" d="M961.477,-87.9381C998.392,-76.7362 1040.56,-63.9407 1076.43,-53.0566"/>
<polygon fill="midnightblue" stroke="midnightblue" points="960.267,-84.6475 951.714,-90.9005 962.3,-91.3459 960.267,-84.6475"/>
</g>
<!-- Node15 -->
<g id="node15" class="node"><title>Node15</title>
<g id="a_node15"><a xlink:href="../../db/dab/THnProducer_8cxx.html" target="_top" xlink:title="/home/travis/build\l/AliceO2Group/AliceO2\l/Utilities/QC/QCProducer\l/src/THnProducer.cxx">
<polygon fill="none" stroke="black" points="930,-1 930,-53 1058,-53 1058,-1 930,-1"/>
<text text-anchor="start" x="938" y="-41" font-family="Helvetica,sans-Serif" font-size="10.00">/home/travis/build</text>
<text text-anchor="start" x="938" y="-30" font-family="Helvetica,sans-Serif" font-size="10.00">/AliceO2Group/AliceO2</text>
<text text-anchor="start" x="938" y="-19" font-family="Helvetica,sans-Serif" font-size="10.00">/Utilities/QC/QCProducer</text>
<text text-anchor="middle" x="994" y="-8" font-family="Helvetica,sans-Serif" font-size="10.00">/src/THnProducer.cxx</text>
</a>
</g>
</g>
<!-- Node14&#45;&gt;Node15 -->
<g id="edge24" class="edge"><title>Node14&#45;&gt;Node15</title>
<path fill="none" stroke="midnightblue" d="M913.284,-84.8242C927.996,-74.4671 944.183,-63.0712 958.175,-53.221"/>
<polygon fill="midnightblue" stroke="midnightblue" points="910.982,-82.1642 904.82,-90.7827 915.012,-87.8881 910.982,-82.1642"/>
</g>
<!-- Node16&#45;&gt;Node4 -->
<g id="edge28" class="edge"><title>Node16&#45;&gt;Node4</title>
<path fill="none" stroke="midnightblue" d="M992.356,-87.0854C965.558,-76.1167 935.283,-63.725 909.404,-53.1328"/>
<polygon fill="midnightblue" stroke="midnightblue" points="991.097,-90.3516 1001.68,-90.9005 993.748,-83.8733 991.097,-90.3516"/>
</g>
<!-- Node16&#45;&gt;Node6 -->
<g id="edge30" class="edge"><title>Node16&#45;&gt;Node6</title>
<path fill="none" stroke="midnightblue" d="M964.562,-89.9851C879.448,-71.2599 855.212,-74.704 775,-54 771.924,-53.2061 768.794,-52.3566 765.64,-51.467"/>
<polygon fill="midnightblue" stroke="midnightblue" points="963.874,-93.4176 974.397,-92.1868 965.403,-86.5866 963.874,-93.4176"/>
</g>
<!-- Node16&#45;&gt;Node9 -->
<g id="edge31" class="edge"><title>Node16&#45;&gt;Node9</title>
<path fill="none" stroke="midnightblue" d="M1097.96,-83.9506C1109,-73.8293 1121.04,-62.795 1131.49,-53.221"/>
<polygon fill="midnightblue" stroke="midnightblue" points="1095.52,-81.4454 1090.51,-90.7827 1100.25,-86.6055 1095.52,-81.4454"/>
</g>
<!-- Node17 -->
<g id="node17" class="node"><title>Node17</title>
<g id="a_node17"><a xlink:href="../../d4/d8b/TreeProducer_8cxx.html" target="_top" xlink:title="/home/travis/build\l/AliceO2Group/AliceO2\l/Utilities/QC/QCProducer\l/src/TreeProducer.cxx">
<polygon fill="none" stroke="black" points="1260,-1 1260,-53 1388,-53 1388,-1 1260,-1"/>
<text text-anchor="start" x="1268" y="-41" font-family="Helvetica,sans-Serif" font-size="10.00">/home/travis/build</text>
<text text-anchor="start" x="1268" y="-30" font-family="Helvetica,sans-Serif" font-size="10.00">/AliceO2Group/AliceO2</text>
<text text-anchor="start" x="1268" y="-19" font-family="Helvetica,sans-Serif" font-size="10.00">/Utilities/QC/QCProducer</text>
<text text-anchor="middle" x="1324" y="-8" font-family="Helvetica,sans-Serif" font-size="10.00">/src/TreeProducer.cxx</text>
</a>
</g>
</g>
<!-- Node16&#45;&gt;Node17 -->
<g id="edge29" class="edge"><title>Node16&#45;&gt;Node17</title>
<path fill="none" stroke="midnightblue" d="M1150.15,-87.7346C1181.94,-77.2966 1218.15,-65.265 1251,-54 1253.93,-52.9963 1256.92,-51.963 1259.94,-50.9137"/>
<polygon fill="midnightblue" stroke="midnightblue" points="1148.84,-84.4793 1140.43,-90.9202 1151.02,-91.131 1148.84,-84.4793"/>
</g>
</g>
</svg>
