<?xml version="1.0" encoding="UTF-8" standalone="no"?>
<!DOCTYPE svg PUBLIC "-//W3C//DTD SVG 1.1//EN"
 "http://www.w3.org/Graphics/SVG/1.1/DTD/svg11.dtd">
<!-- Generated by graphviz version 2.36.0 (20140111.2315)
 -->
<!-- Title: o2::qc::TMessageWrapper Pages: 1 -->
<svg width="140pt" height="172pt"
 viewBox="0.00 0.00 140.00 172.00" xmlns="http://www.w3.org/2000/svg" xmlns:xlink="http://www.w3.org/1999/xlink">
<g id="graph0" class="graph" transform="scale(1 1) rotate(0) translate(4 168)">
<title>o2::qc::TMessageWrapper</title>
<!-- Node1 -->
<g id="node1" class="node"><title>Node1</title>
<polygon fill="#bfbfbf" stroke="black" points="0,-1 0,-69 132,-69 132,-1 0,-1"/>
<text text-anchor="middle" x="66" y="-57" font-family="Helvetica,sans-Serif" font-size="10.00">o2::qc::TMessageWrapper</text>
<polyline fill="none" stroke="black" points="0,-50 132,-50 "/>
<text text-anchor="middle" x="66" y="-38" font-family="Helvetica,sans-Serif" font-size="10.00"> </text>
<polyline fill="none" stroke="black" points="0,-31 132,-31 "/>
<text text-anchor="start" x="8" y="-19" font-family="Helvetica,sans-Serif" font-size="10.00">+ TMessageWrapper()</text>
<text text-anchor="start" x="8" y="-8" font-family="Helvetica,sans-Serif" font-size="10.00">+ ~TMessageWrapper()</text>
</g>
<!-- Node2 -->
<g id="node2" class="node"><title>Node2</title>
<g id="a_node2"><a xlink:href="../../d9/dc7/classTMessage.html" target="_top" xlink:title="{TMessage\n||}">
<polygon fill="none" stroke="black" points="35,-106.5 35,-163.5 97,-163.5 97,-106.5 35,-106.5"/>
<text text-anchor="middle" x="66" y="-151.5" font-family="Helvetica,sans-Serif" font-size="10.00">TMessage</text>
<polyline fill="none" stroke="black" points="35,-144.5 97,-144.5 "/>
<text text-anchor="middle" x="66" y="-132.5" font-family="Helvetica,sans-Serif" font-size="10.00"> </text>
<polyline fill="none" stroke="black" points="35,-125.5 97,-125.5 "/>
<text text-anchor="middle" x="66" y="-113.5" font-family="Helvetica,sans-Serif" font-size="10.00"> </text>
</a>
</g>
</g>
<!-- Node2&#45;&gt;Node1 -->
<g id="edge1" class="edge"><title>Node2&#45;&gt;Node1</title>
<path fill="none" stroke="midnightblue" d="M66,-96.3023C66,-87.3951 66,-77.9608 66,-69.2659"/>
<polygon fill="none" stroke="midnightblue" points="62.5001,-96.4407 66,-106.441 69.5001,-96.4408 62.5001,-96.4407"/>
</g>
</g>
</svg>
